<svg xmlns="http://www.w3.org/2000/svg" viewBox="0 0 3000 3000" width="3000" height="3000">
    <path fill="#000000" d="M649.58 1419.07Q601.03 1419.07 601.03 1376.73L601.03 1376.73Q601.03 1335.64 649.58 1335.64L649.58 1335.64L954.64 1335.64L954.64 1262.18L725.54 1262.18Q680.71 1262.18 680.71 1221.09L680.71 1221.09Q680.71 1181.25 725.54 1181.25L725.54 1181.25L954.64 1181.25L954.64 1111.52L689.43 1111.52Q642.11 1111.52 642.11 1069.19L642.11 1069.19Q642.11 1026.86 689.43 1026.86L689.43 1026.86L954.64 1026.86L954.64 990.75Q954.64 932.23 1003.20 932.23L1003.20 932.23Q1053.00 932.23 1053.00 990.75L1053.00 990.75L1053.00 1026.86L1343.12 1026.86Q1391.67 1026.86 1391.67 1069.19L1391.67 1069.19Q1391.67 1111.52 1343.12 1111.52L1343.12 1111.52L1053.00 1111.52L1053.00 1181.25L1275.88 1181.25Q1320.70 1181.25 1320.70 1222.34L1320.70 1222.34Q1320.70 1262.18 1275.88 1262.18L1275.88 1262.18L1053.00 1262.18L1053.00 1335.64L1371.75 1335.64Q1419.07 1335.64 1419.07 1376.73L1419.07 1376.73Q1419.07 1419.07 1371.75 1419.07L1371.75 1419.07L649.58 1419.07ZM380.64 2040.38Q323.36 2040.38 323.36 1981.86L323.36 1981.86Q323.36 1969.41 334.57 1948.24L334.57 1948.24Q388.11 1841.16 449.12 1661.87L449.12 1661.87Q471.53 1595.87 508.89 1595.87L508.89 1595.87Q561.18 1595.87 561.18 1646.92L561.18 1646.92Q561.18 1680.54 500.17 1839.92L500.17 1839.92Q444.14 1986.84 424.22 2020.46L424.22 2020.46Q413.01 2040.38 380.64 2040.38L380.64 2040.38ZM490.21 1438.99Q475.27 1438.99 446.63 1424.05L446.63 1424.05L383.13 1394.17Q319.63 1364.28 319.63 1331.91L319.63 1331.91Q319.63 1278.37 373.17 1278.37L373.17 1278.37Q391.85 1278.37 496.44 1325.68L496.44 1325.68Q545.00 1346.85 545.00 1382.96L545.00 1382.96Q545.00 1438.99 490.21 1438.99L490.21 1438.99ZM737.99 1858.59L737.99 1775.17L1263.43 1775.17L1263.43 1858.59L737.99 1858.59ZM733.01 2065.28Q683.20 2065.28 683.20 2006.76L683.20 2006.76L683.20 1583.42Q683.20 1526.15 709.35 1500Q735.50 1473.85 791.53 1476.34L791.53 1476.34L1211.13 1476.34Q1268.41 1476.34 1294.56 1501.87Q1320.70 1527.39 1318.21 1583.42L1318.21 1583.42L1318.21 1943.26Q1326.93 2066.53 1199.93 2060.30L1199.93 2060.30L1128.96 2060.30Q1071.68 2060.30 1071.68 2009.25L1071.68 2009.25Q1071.68 1959.45 1128.96 1959.45L1128.96 1959.45L1176.27 1959.45Q1197.44 1959.45 1207.40 1949.49Q1217.36 1939.53 1218.60 1917.11L1218.60 1917.11L1218.60 1597.12Q1218.60 1564.75 1181.25 1563.50L1181.25 1563.50L818.92 1563.50Q800.24 1563.50 792.15 1571.59Q784.06 1579.69 782.81 1597.12L782.81 1597.12L782.81 2006.76Q782.81 2065.28 733.01 2065.28L733.01 2065.28ZM737.99 1710.42L737.99 1627.00L1263.43 1627.00L1263.43 1710.42L737.99 1710.42ZM546.24 1128.96Q532.54 1128.96 503.91 1111.52L503.91 1111.52L434.18 1072.92Q406.79 1056.74 393.09 1043.04Q379.39 1029.35 379.39 1014.40L379.39 1014.40Q379.39 962.11 432.93 962.11L432.93 962.11Q460.33 962.11 531.30 999.46L531.30 999.46Q602.27 1035.57 602.27 1074.17L602.27 1074.17Q602.27 1128.96 546.24 1128.96L546.24 1128.96ZM2158.67 2035.40Q2037.89 2035.40 1979.99 2027.31Q1922.09 2019.21 1896.57 1992.44Q1871.04 1965.67 1871.04 1908.40L1871.04 1908.40L1871.04 1246.00Q1871.04 1211.13 1884.74 1194.95Q1898.44 1178.76 1927.08 1178.76L1927.08 1178.76Q1983.11 1178.76 1983.11 1246.00L1983.11 1246.00L1983.11 1858.59Q1983.11 1895.95 1998.67 1911.51Q2014.23 1927.08 2049.10 1931.43Q2083.96 1935.79 2167.38 1935.79L2167.38 1935.79Q2311.82 1935.79 2336.72 1922.09L2336.72 1922.09Q2354.15 1912.13 2362.87 1881.63Q2371.58 1851.12 2372.83 1791.36L2372.83 1791.36Q2372.83 1765.21 2386.52 1750.27Q2400.22 1735.33 2426.37 1735.33L2426.37 1735.33Q2455.00 1735.33 2467.46 1750.27Q2479.91 1765.21 2481.15 1793.85L2481.15 1793.85Q2482.40 1894.70 2460.61 1948.86Q2438.82 2003.03 2391.50 2017.97L2391.50 2017.97Q2335.47 2035.40 2158.67 2035.40L2158.67 2035.40ZM1640.70 1852.37Q1615.80 1852.37 1599.61 1841.78Q1583.42 1831.20 1580.93 1815.01L1580.93 1815.01Q1578.44 1791.36 1590.89 1755.25L1590.89 1755.25Q1622.02 1671.83 1636.96 1589.65Q1651.90 1507.47 1661.87 1396.66L1661.87 1396.66Q1664.36 1371.75 1677.43 1358.68Q1690.50 1345.61 1714.16 1345.61L1714.16 1345.61Q1741.55 1345.61 1755.87 1360.55Q1770.19 1375.49 1768.95 1401.64L1768.95 1401.64Q1765.21 1500 1748.40 1605.21Q1731.59 1710.42 1704.20 1791.36L1704.20 1791.36Q1694.24 1820.00 1677.43 1836.18Q1660.62 1852.37 1640.70 1852.37L1640.70 1852.37ZM2639.28 1792.60Q2618.12 1792.60 2601.93 1778.91L2601.93 1778.91Q2588.23 1766.46 2553.37 1663.11L2553.37 1663.11Q2522.24 1572.22 2467.46 1470.12L2467.46 1470.12Q2418.90 1380.47 2418.90 1360.55L2418.90 1360.55Q2418.90 1313.23 2474.93 1313.23L2474.93 1313.23Q2513.53 1313.23 2608.15 1492.53L2608.15 1492.53Q2701.54 1668.09 2701.54 1740.31L2701.54 1740.31Q2701.54 1760.23 2682.86 1776.42L2682.86 1776.42Q2662.94 1792.60 2639.28 1792.60L2639.28 1792.60ZM2291.89 1181.25Q2254.54 1184.99 2218.43 1160.08L2218.43 1160.08Q2156.18 1116.50 2047.85 1044.29L2047.85 1044.29Q2030.42 1033.08 2024.19 1020.63Q2017.97 1008.18 2019.21 990.75L2019.21 990.75Q2021.70 973.32 2036.65 959.00Q2051.59 944.68 2072.75 944.68L2072.75 944.68Q2085.21 944.68 2096.41 949.66L2096.41 949.66Q2139.99 967.09 2195.40 999.46Q2250.81 1031.84 2299.37 1066.70L2299.37 1066.70Q2320.53 1080.40 2328.63 1093.47Q2336.72 1106.54 2336.72 1125.22L2336.72 1125.22Q2336.72 1148.88 2323.65 1163.82Q2310.57 1178.76 2291.89 1181.25L2291.89 1181.25Z"/>
  </svg>