<svg xmlns="http://www.w3.org/2000/svg" viewBox="0 0 3000 3000" width="3000" height="3000">
    <path fill="#000000" d="M1640 534L1640 534Q1774 534 1774 604L1774 604L1774 752L2052 738Q2074 736 2099 729Q2124 722 2136 721Q2148 720 2172 732L2172 732Q2238 764 2238 800L2238 800Q2238 826 2196 830L2196 830L1774 852L1772 970L2002 958Q2036 956 2056 948Q2076 940 2086 940Q2096 940 2118 952L2118 952Q2174 986 2174 1020L2174 1020Q2174 1042 2134 1046L2134 1046L1772 1066L1772 1196L2242 1172Q2284 1170 2302 1162Q2320 1154 2333 1154Q2346 1154 2368 1168Q2390 1182 2407 1203Q2424 1224 2424 1242L2424 1242Q2424 1266 2382 1270L2382 1270L1214 1328L1164 1330Q1104 1330 1080 1262L1080 1262Q1070 1234 1070 1224Q1070 1214 1079 1214Q1088 1214 1106 1219Q1124 1224 1184 1224L1184 1224L1656 1200L1654 1072L1450 1084L1410 1086Q1374 1086 1358 1074L1358 1074Q1314 1040 1304 996L1304 996Q1302 992 1302 990L1302 990Q1302 978 1312 978Q1322 978 1344 984Q1366 990 1396 990L1396 990L1654 976L1654 858L1340 874L1304 876Q1256 876 1233 850Q1210 824 1202 798L1202 798L1194 772Q1194 762 1206 762L1206 762Q1266 774 1304 774L1304 774L1314 774L1652 758L1652 672Q1652 610 1637 583Q1622 556 1622 545Q1622 534 1640 534ZM784 764L784 764Q758 744 758 728Q758 712 777 687Q796 662 811 662Q826 662 881 698Q936 734 1037 824Q1138 914 1138 942Q1138 970 1108 993Q1078 1016 1065 1016Q1052 1016 968 928Q884 840 784 764ZM892 1410L892 1410Q780 1304 632 1208L632 1208Q604 1190 604 1172Q604 1154 622 1129Q640 1104 660 1104Q680 1104 795 1183Q910 1262 955 1297Q1000 1332 1000 1347Q1000 1362 989 1382Q978 1402 963 1418Q948 1434 934 1434Q920 1434 892 1410ZM2146 1508L2152 2192L2156 2254Q2156 2288 2127 2318Q2098 2348 2074 2348L2074 2348Q2028 2348 1896 2260L1896 2260Q1764 2168 1764 2138L1764 2138Q1764 2126 1779 2126Q1794 2126 1859 2151Q1924 2176 2030 2204L2030 2204L2028 1956L1402 1978L1396 2294Q1396 2342 1354 2342L1354 2342Q1318 2342 1290 2317Q1262 2292 1262 2264L1262 2264Q1286 2100 1292 1632L1292 1632Q1294 1572 1294 1562L1294 1562L1294 1536Q1294 1482 1282 1447Q1270 1412 1270 1404L1270 1404Q1270 1390 1288 1390Q1306 1390 1412 1424L1412 1424L2054 1398Q2088 1398 2120 1413Q2152 1428 2152 1464L2152 1464L2146 1508ZM740 2238L734 2238Q684 2232 650 2207Q616 2182 616 2172Q616 2162 644 2144L644 2144Q708 2102 880 1826L880 1826Q960 1700 1040 1560L1040 1560Q1072 1504 1098 1504L1098 1504Q1114 1504 1114 1524L1114 1524Q1114 1568 1003 1808Q892 2048 782 2214L782 2214Q766 2238 740 2238L740 2238ZM2026 1622L2026 1506L1410 1532L1408 1644L2026 1622ZM2028 1848L2028 1726L1406 1748L1404 1870L2028 1848Z"/>
  </svg>