<svg xmlns="http://www.w3.org/2000/svg" viewBox="0 0 3000 3000" width="3000" height="3000">
    <path fill="#000000" d="M1256 1910L1256 1850L2158 1850L2158 1910L1256 1910ZM1130 946L1130 888L2314 888L2314 946L1130 946ZM1172 1180L1172 1122L2268 1122L2268 1180L1172 1180ZM1052 1432L1052 1374L2376 1374L2376 1432L1052 1432ZM1256 2184L1256 2124L2166 2124L2166 2184L1256 2184ZM1226 2506L1226 1588L2166 1588L2166 1646L1284 1646L1284 2506L1226 2506ZM2132 2406L2132 1588L2190 1588L2190 2406Q2190 2440 2179 2458Q2168 2476 2138 2486L2138 2486Q2108 2494 2045 2496Q1982 2498 1872 2496L1872 2496Q1870 2486 1863 2470Q1856 2454 1848 2440L1848 2440Q1940 2442 2007 2443Q2074 2444 2094 2442L2094 2442Q2116 2440 2124 2433Q2132 2426 2132 2406L2132 2406ZM1684 1390L1684 710L1744 710L1744 1390L1684 1390ZM682 776L682 776L718 736Q776 764 836 801Q896 838 949 874Q1002 910 1038 942L1038 942L1002 992Q968 960 914 921Q860 882 800 844Q740 806 682 776ZM588 1324L588 1324L626 1282Q684 1312 745 1350Q806 1388 860 1426Q914 1464 950 1498L950 1498L912 1544Q878 1512 824 1473Q770 1434 708 1395Q646 1356 588 1324ZM700 2500L648 2460Q696 2380 754 2266Q812 2152 871 2027Q930 1902 978 1790L978 1790L1026 1826Q980 1934 923 2055Q866 2176 808 2292Q750 2408 700 2500L700 2500Z"/>
  </svg>