<svg xmlns="http://www.w3.org/2000/svg" viewBox="0 0 3000 3000" width="3000" height="3000">
    <path fill="#000000" d="M706.95 1761.38L706.95 1723.13L1281.97 1723.13L1281.97 1761.38L706.95 1761.38ZM626.62 1146.83L626.62 1109.85L1381.42 1109.85L1381.42 1146.83L626.62 1146.83ZM653.40 1296L653.40 1259.03L1352.10 1259.03L1352.10 1296L653.40 1296ZM576.90 1456.65L576.90 1419.68L1420.95 1419.68L1420.95 1456.65L576.90 1456.65ZM706.95 1936.05L706.95 1897.80L1287.07 1897.80L1287.07 1936.05L706.95 1936.05ZM687.82 2141.33L687.82 1556.10L1287.07 1556.10L1287.07 1593.08L724.80 1593.08L724.80 2141.33L687.82 2141.33ZM1265.40 2077.58L1265.40 1556.10L1302.37 1556.10L1302.37 2077.58Q1302.37 2099.25 1295.36 2110.72Q1288.35 2122.20 1269.22 2128.58L1269.22 2128.58Q1250.10 2133.68 1209.94 2134.95Q1169.77 2136.22 1099.65 2134.95L1099.65 2134.95Q1098.38 2128.58 1093.91 2118.38Q1089.45 2108.18 1084.35 2099.25L1084.35 2099.25Q1143 2100.53 1185.71 2101.16Q1228.42 2101.80 1241.17 2100.53L1241.17 2100.53Q1255.20 2099.25 1260.30 2094.79Q1265.40 2090.33 1265.40 2077.58L1265.40 2077.58ZM979.80 1429.88L979.80 996.38L1018.05 996.38L1018.05 1429.88L979.80 1429.88ZM341.02 1038.45L341.02 1038.45L363.97 1012.95Q400.95 1030.80 439.20 1054.39Q477.45 1077.97 511.24 1100.92Q545.02 1123.88 567.97 1144.28L567.97 1144.28L545.02 1176.15Q523.35 1155.75 488.92 1130.89Q454.50 1106.03 416.25 1081.80Q378.00 1057.57 341.02 1038.45ZM281.10 1387.80L281.10 1387.80L305.32 1361.03Q342.30 1380.15 381.19 1404.38Q420.07 1428.60 454.50 1452.83Q488.92 1477.05 511.87 1498.72L511.87 1498.72L487.65 1528.05Q465.97 1507.65 431.55 1482.79Q397.12 1457.93 357.60 1433.06Q318.07 1408.20 281.10 1387.80ZM352.50 2137.50L319.35 2112Q349.95 2061 386.92 1988.33Q423.90 1915.65 461.51 1835.96Q499.12 1756.28 529.72 1684.88L529.72 1684.88L560.32 1707.83Q531.00 1776.68 494.66 1853.81Q458.32 1930.95 421.35 2004.90Q384.37 2078.85 352.50 2137.50L352.50 2137.50ZM1877.40 2013.83L1877.40 1344.45L1915.65 1344.45L1915.65 2015.10Q1915.65 2058.45 1935.41 2072.47Q1955.18 2086.50 2017.65 2086.50L2017.65 2086.50Q2032.95 2086.50 2074.39 2086.50Q2115.82 2086.50 2166.19 2086.50Q2216.55 2086.50 2261.18 2086.50Q2305.80 2086.50 2326.20 2086.50L2326.20 2086.50Q2373.38 2086.50 2396.32 2063.55Q2419.28 2040.60 2428.20 1977.49Q2437.13 1914.38 2442.23 1794.53L2442.23 1794.53Q2448.60 1798.35 2454.98 1802.81Q2461.35 1807.28 2468.36 1809.83Q2475.38 1812.38 2480.48 1814.93L2480.48 1814.93Q2475.38 1936.05 2463.26 2003.63Q2451.15 2071.20 2419.91 2097.97Q2388.68 2124.75 2323.65 2124.75L2323.65 2124.75Q2314.73 2124.75 2284.13 2124.75Q2253.53 2124.75 2212.09 2124.75Q2170.65 2124.75 2129.85 2124.75Q2089.05 2124.75 2059.09 2124.75Q2029.13 2124.75 2021.47 2124.75L2021.47 2124.75Q1966.65 2124.75 1935.41 2115.83Q1904.18 2106.90 1890.79 2082.68Q1877.40 2058.45 1877.40 2013.83L1877.40 2013.83ZM1700.17 1459.20L1700.17 1459.20L1734.60 1468.13Q1724.40 1535.70 1704.64 1621.76Q1684.88 1707.83 1659.38 1793.25Q1633.88 1878.68 1603.28 1943.70L1603.28 1943.70L1567.58 1925.85Q1599.45 1862.10 1625.59 1778.59Q1651.72 1695.08 1670.85 1610.29Q1689.97 1525.50 1700.17 1459.20ZM2502.15 1445.18L2502.15 1445.18L2536.57 1434.97Q2574.82 1511.47 2610.53 1598.81Q2646.23 1686.15 2674.28 1769.66Q2702.32 1853.18 2716.35 1919.48L2716.35 1919.48L2680.65 1930.95Q2666.63 1864.65 2638.57 1780.50Q2610.53 1696.35 2575.46 1608.38Q2540.40 1520.40 2502.15 1445.18ZM1953.90 1088.17L1953.90 1088.17L1979.40 1067.78Q2040.60 1112.40 2104.99 1165.95Q2169.38 1219.50 2225.47 1272.41Q2281.57 1325.33 2316 1366.13L2316 1366.13L2291.78 1390.35Q2256.07 1349.55 2199.97 1296.64Q2143.88 1243.72 2079.49 1188.26Q2015.10 1132.80 1953.90 1088.17Z"/>
  </svg>