<svg xmlns="http://www.w3.org/2000/svg" viewBox="0 0 3000 3000" width="3000" height="3000">
    <path fill="#000000" d="M1166.02 1373.05Q1089.84 1373.05 1089.84 1306.64L1089.84 1306.64Q1089.84 1242.19 1166.02 1242.19L1166.02 1242.19L1644.53 1242.19L1644.53 1126.95L1285.16 1126.95Q1214.84 1126.95 1214.84 1062.50L1214.84 1062.50Q1214.84 1000 1285.16 1000L1285.16 1000L1644.53 1000L1644.53 890.63L1228.52 890.63Q1154.30 890.63 1154.30 824.22L1154.30 824.22Q1154.30 757.81 1228.52 757.81L1228.52 757.81L1644.53 757.81L1644.53 701.17Q1644.53 609.38 1720.70 609.38L1720.70 609.38Q1798.83 609.38 1798.83 701.17L1798.83 701.17L1798.83 757.81L2253.91 757.81Q2330.08 757.81 2330.08 824.22L2330.08 824.22Q2330.08 890.63 2253.91 890.63L2253.91 890.63L1798.83 890.63L1798.83 1000L2148.44 1000Q2218.75 1000 2218.75 1064.45L2218.75 1064.45Q2218.75 1126.95 2148.44 1126.95L2148.44 1126.95L1798.83 1126.95L1798.83 1242.19L2298.83 1242.19Q2373.05 1242.19 2373.05 1306.64L2373.05 1306.64Q2373.05 1373.05 2298.83 1373.05L2298.83 1373.05L1166.02 1373.05ZM744.14 2347.66Q654.30 2347.66 654.30 2255.86L654.30 2255.86Q654.30 2236.33 671.88 2203.13L671.88 2203.13Q755.86 2035.16 851.56 1753.91L851.56 1753.91Q886.72 1650.39 945.31 1650.39L945.31 1650.39Q1027.34 1650.39 1027.34 1730.47L1027.34 1730.47Q1027.34 1783.20 931.64 2033.20L931.64 2033.20Q843.75 2263.67 812.50 2316.41L812.50 2316.41Q794.92 2347.66 744.14 2347.66L744.14 2347.66ZM916.02 1404.30Q892.58 1404.30 847.66 1380.86L847.66 1380.86L748.05 1333.98Q648.44 1287.11 648.44 1236.33L648.44 1236.33Q648.44 1152.34 732.42 1152.34L732.42 1152.34Q761.72 1152.34 925.78 1226.56L925.78 1226.56Q1001.95 1259.77 1001.95 1316.41L1001.95 1316.41Q1001.95 1404.30 916.02 1404.30L916.02 1404.30ZM1304.69 2062.50L1304.69 1931.64L2128.91 1931.64L2128.91 2062.50L1304.69 2062.50ZM1296.88 2386.72Q1218.75 2386.72 1218.75 2294.92L1218.75 2294.92L1218.75 1630.86Q1218.75 1541.02 1259.77 1500Q1300.78 1458.98 1388.67 1462.89L1388.67 1462.89L2046.88 1462.89Q2136.72 1462.89 2177.73 1502.93Q2218.75 1542.97 2214.84 1630.86L2214.84 1630.86L2214.84 2195.31Q2228.52 2388.67 2029.30 2378.91L2029.30 2378.91L1917.97 2378.91Q1828.13 2378.91 1828.13 2298.83L1828.13 2298.83Q1828.13 2220.70 1917.97 2220.70L1917.97 2220.70L1992.19 2220.70Q2025.39 2220.70 2041.02 2205.08Q2056.64 2189.45 2058.59 2154.30L2058.59 2154.30L2058.59 1652.34Q2058.59 1601.56 2000 1599.61L2000 1599.61L1431.64 1599.61Q1402.34 1599.61 1389.65 1612.30Q1376.95 1625 1375 1652.34L1375 1652.34L1375 2294.92Q1375 2386.72 1296.88 2386.72L1296.88 2386.72ZM1304.69 1830.08L1304.69 1699.22L2128.91 1699.22L2128.91 1830.08L1304.69 1830.08ZM1003.91 917.97Q982.42 917.97 937.50 890.63L937.50 890.63L828.13 830.08Q785.16 804.69 763.67 783.20Q742.19 761.72 742.19 738.28L742.19 738.28Q742.19 656.25 826.17 656.25L826.17 656.25Q869.14 656.25 980.47 714.84L980.47 714.84Q1091.80 771.48 1091.80 832.03L1091.80 832.03Q1091.80 917.97 1003.91 917.97L1003.91 917.97Z"/>
  </svg>