<svg xmlns="http://www.w3.org/2000/svg" viewBox="0 0 3000 3000" width="3000" height="3000">
    <path fill="#000000" d="M1468 1637L1680 1627L1676 1839L1464 1845L1468 1637ZM1812 1621L2032 1611L2034 1829L1808 1835L1812 1621ZM740 2313L740 2313L750 2313Q782 2313 799 2294Q816 2275 842 2229L842 2229Q940 2067 1009 1933Q1078 1799 1117 1709Q1156 1619 1156 1590Q1156 1561 1130 1561L1130 1561Q1098 1561 1062 1623L1062 1623Q980 1761 892 1889Q804 2017 708 2141L708 2141Q696 2161 678 2176Q660 2191 636 2203L636 2203Q612 2213 612 2231L612 2231Q612 2251 652 2280Q692 2309 740 2313ZM1462 1971L2034 1955L2036 2263Q2014 2257 1957 2240Q1900 2223 1842 2199L1842 2199Q1810 2189 1796 2189L1796 2189Q1766 2189 1766 2213Q1766 2237 1806 2273Q1846 2309 1901 2345Q1956 2381 2008 2407Q2060 2433 2086 2433L2086 2433Q2096 2433 2119 2422Q2142 2411 2162 2388Q2182 2365 2182 2329L2182 2329Q2182 2315 2180 2300Q2178 2285 2178 2267L2178 2267L2172 1601Q2172 1591 2175 1580Q2178 1569 2178 1557L2178 1557Q2178 1513 2141 1496Q2104 1479 2068 1479L2068 1479L1460 1505Q1412 1489 1382 1480Q1352 1471 1336 1471L1336 1471Q1308 1471 1308 1497L1308 1497Q1308 1511 1318 1539L1318 1539Q1332 1577 1332 1629L1332 1629L1332 1649L1316 2201Q1314 2263 1302 2323L1302 2323Q1302 2325 1301 2329Q1300 2333 1300 2339L1300 2339Q1300 2373 1323 2393Q1346 2413 1371 2421Q1396 2429 1404 2429L1404 2429Q1430 2429 1442 2411Q1454 2393 1454 2369L1454 2369L1462 1971ZM896 1495L896 1495Q928 1521 947 1521Q966 1521 983 1503Q1000 1485 1012 1463Q1024 1441 1024 1427L1024 1427Q1024 1403 988 1373L988 1373Q950 1343 900 1308Q850 1273 802 1241Q754 1209 718 1187Q682 1165 666 1165L666 1165Q642 1165 622 1196Q602 1227 602 1247L602 1247Q602 1273 636 1293L636 1293Q700 1337 766 1387Q832 1437 896 1495ZM1104 1105L1104 1105Q1114 1105 1133 1090Q1152 1075 1169 1055Q1186 1035 1186 1013L1186 1013Q1186 987 1158 965L1158 965Q1154 961 1126 935Q1098 909 1057 874Q1016 839 974 805Q932 771 897 747Q862 723 846 723L846 723Q826 723 802 751Q778 779 778 802Q778 825 808 849L808 849Q864 893 932 955Q1000 1017 1056 1075L1056 1075Q1086 1105 1104 1105ZM1268 1421L1268 1421L2392 1367Q2444 1361 2444 1323L2444 1323Q2444 1295 2410 1265L2410 1265Q2382 1243 2366 1235Q2350 1227 2338 1227L2338 1227Q2328 1227 2320 1231L2320 1231Q2292 1243 2252 1245L2252 1245L1816 1267L1816 1153L2164 1133Q2216 1127 2216 1093L2216 1093Q2216 1075 2198 1054Q2180 1033 2157 1018Q2134 1003 2114 1003L2114 1003Q2104 1003 2098 1007L2098 1007Q2064 1019 2032 1021L2032 1021L1816 1033L1818 929L2226 907Q2282 901 2282 865L2282 865Q2282 841 2257 820Q2232 799 2206 786Q2180 773 2168 773L2168 773Q2164 773 2162 774Q2160 775 2156 775L2156 775Q2140 779 2121 784Q2102 789 2082 791L2082 791L1818 805L1818 659Q1818 615 1784 599Q1750 583 1718 580Q1686 577 1682 577L1682 577Q1646 577 1646 603L1646 603Q1646 611 1654 627L1654 627Q1664 647 1670 671Q1676 695 1676 727L1676 727L1676 811L1352 827L1342 827Q1302 827 1256 817L1256 817Q1254 817 1251 816Q1248 815 1244 815L1244 815Q1220 815 1220 839L1220 839L1228 867Q1238 895 1263 924Q1288 953 1342 953L1342 953Q1352 953 1361 952Q1370 951 1378 951L1378 951L1678 935L1678 1039L1438 1051Q1432 1051 1425 1052Q1418 1053 1410 1053L1410 1053Q1382 1053 1344 1043L1344 1043Q1338 1041 1328 1041L1328 1041Q1304 1041 1304 1065L1304 1065Q1304 1069 1305 1074Q1306 1079 1308 1085L1308 1085Q1316 1103 1332 1124Q1348 1145 1362 1157L1362 1157Q1374 1167 1391 1170Q1408 1173 1424 1173L1424 1173Q1434 1173 1444 1172Q1454 1171 1464 1171L1464 1171L1678 1159L1680 1271L1238 1293Q1224 1293 1198 1292Q1172 1291 1150 1285L1150 1285Q1144 1283 1134 1283L1134 1283Q1112 1283 1112 1307L1112 1307Q1112 1317 1123 1347Q1134 1377 1164 1407L1164 1407Q1180 1423 1218 1423L1218 1423Q1228 1423 1241 1422Q1254 1421 1268 1421Z"/>
  </svg>