<svg xmlns="http://www.w3.org/2000/svg" viewBox="0 0 3000 3000" width="3000" height="3000">
    <path fill="#000000" d="M633.00 1131.53L633.00 1093.28L1414.57 1093.28L1414.57 1131.53L633.00 1131.53ZM661.05 1285.80L661.05 1248.83L1371.22 1248.83L1371.22 1285.80L661.05 1285.80ZM588.37 1452.83L588.37 1415.85L1438.80 1415.85L1438.80 1452.83L588.37 1452.83ZM737.55 1763.93L737.55 1725.68L1312.57 1725.68L1312.57 1763.93L737.55 1763.93ZM1294.72 2085.22L1294.72 1556.10L1331.70 1556.10L1331.70 2083.95Q1331.70 2105.63 1325.32 2117.10Q1318.95 2128.58 1301.10 2133.68L1301.10 2133.68Q1283.25 2138.78 1245.64 2139.41Q1208.02 2140.05 1144.27 2140.05L1144.27 2140.05Q1143 2133.68 1138.54 2123.47Q1134.07 2113.28 1128.97 2105.63L1128.97 2105.63Q1164.67 2105.63 1194 2106.26Q1223.32 2106.90 1244.36 2106.26Q1265.40 2105.63 1273.05 2105.63L1273.05 2105.63Q1285.80 2104.35 1290.26 2100.53Q1294.72 2096.70 1294.72 2085.22L1294.72 2085.22ZM1010.40 1441.35L1010.40 996.38L1047.38 996.38L1047.38 1441.35L1010.40 1441.35ZM740.10 1934.78L740.10 1896.53L1315.13 1896.53L1315.13 1934.78L740.10 1934.78ZM724.80 1793.25L724.80 1556.10L763.05 1556.10L763.05 1793.25Q763.05 1846.80 756.67 1911.83Q750.30 1976.85 732.45 2041.24Q714.60 2105.63 677.62 2160.45L677.62 2160.45Q675.07 2155.35 669.97 2149.61Q664.87 2143.88 659.77 2139.41Q654.67 2134.95 649.57 2132.40L649.57 2132.40Q682.72 2081.40 698.66 2022.11Q714.60 1962.83 719.70 1903.54Q724.80 1844.25 724.80 1793.25L724.80 1793.25ZM745.20 1593.08L745.20 1556.10L1302.37 1556.10L1302.37 1593.08L745.20 1593.08ZM349.95 1038.45L349.95 1038.45L374.17 1014.22Q409.87 1037.17 449.40 1063.95Q488.92 1090.72 523.99 1116.86Q559.05 1143 582.00 1162.13L582.00 1162.13L560.32 1192.72Q536.10 1172.33 500.40 1145.55Q464.70 1118.78 425.17 1090.09Q385.65 1061.40 349.95 1038.45ZM287.47 1387.80L287.47 1387.80L309.15 1361.03Q343.57 1377.60 381.82 1399.28Q420.07 1420.95 455.14 1441.99Q490.20 1463.03 513.15 1478.33L513.15 1478.33L492.75 1511.47Q469.80 1493.63 434.74 1471.95Q399.67 1450.28 361.42 1427.96Q323.17 1405.65 287.47 1387.80ZM351.22 2126.03L319.35 2100.53Q351.22 2049.53 388.84 1978.76Q426.45 1908 464.70 1830.23Q502.95 1752.45 533.55 1681.05L533.55 1681.05L564.15 1704Q534.82 1771.58 497.85 1848.08Q460.87 1924.58 422.62 1996.61Q384.37 2068.65 351.22 2126.03L351.22 2126.03ZM1877.40 2013.83L1877.40 1344.45L1915.65 1344.45L1915.65 2015.10Q1915.65 2058.45 1935.41 2072.47Q1955.18 2086.50 2017.65 2086.50L2017.65 2086.50Q2032.95 2086.50 2074.39 2086.50Q2115.82 2086.50 2166.19 2086.50Q2216.55 2086.50 2261.18 2086.50Q2305.80 2086.50 2326.20 2086.50L2326.20 2086.50Q2373.38 2086.50 2396.32 2063.55Q2419.28 2040.60 2428.20 1977.49Q2437.13 1914.38 2442.23 1794.53L2442.23 1794.53Q2448.60 1798.35 2454.98 1802.81Q2461.35 1807.28 2468.36 1809.83Q2475.38 1812.38 2480.48 1814.93L2480.48 1814.93Q2475.38 1936.05 2463.26 2003.63Q2451.15 2071.20 2419.91 2097.97Q2388.68 2124.75 2323.65 2124.75L2323.65 2124.75Q2314.73 2124.75 2284.13 2124.75Q2253.53 2124.75 2212.09 2124.75Q2170.65 2124.75 2129.85 2124.75Q2089.05 2124.75 2059.09 2124.75Q2029.13 2124.75 2021.47 2124.75L2021.47 2124.75Q1966.65 2124.75 1935.41 2115.83Q1904.18 2106.90 1890.79 2082.68Q1877.40 2058.45 1877.40 2013.83L1877.40 2013.83ZM1700.17 1459.20L1700.17 1459.20L1734.60 1468.13Q1724.40 1535.70 1704.64 1621.76Q1684.88 1707.83 1659.38 1793.25Q1633.88 1878.68 1603.28 1943.70L1603.28 1943.70L1567.58 1925.85Q1599.45 1862.10 1625.59 1778.59Q1651.72 1695.08 1670.85 1610.29Q1689.97 1525.50 1700.17 1459.20ZM2502.15 1445.18L2502.15 1445.18L2536.57 1434.97Q2574.82 1511.47 2610.53 1598.81Q2646.23 1686.15 2674.28 1769.66Q2702.32 1853.18 2716.35 1919.48L2716.35 1919.48L2680.65 1930.95Q2666.63 1864.65 2638.57 1780.50Q2610.53 1696.35 2575.46 1608.38Q2540.40 1520.40 2502.15 1445.18ZM1953.90 1088.17L1953.90 1088.17L1979.40 1067.78Q2040.60 1112.40 2104.99 1165.95Q2169.38 1219.50 2225.47 1272.41Q2281.57 1325.33 2316 1366.13L2316 1366.13L2291.78 1390.35Q2256.07 1349.55 2199.97 1296.64Q2143.88 1243.72 2079.49 1188.26Q2015.10 1132.80 1953.90 1088.17Z"/>
  </svg>