<svg xmlns="http://www.w3.org/2000/svg" viewBox="0 0 3000 3000" width="3000" height="3000">
    <path fill="#000000" d="M951.75 884.17L951.75 884.17Q1037.17 884.17 1037.17 928.80L1037.17 928.80L1037.17 1023.15L1214.40 1014.23Q1228.42 1012.95 1244.36 1008.49Q1260.30 1004.02 1267.95 1003.39Q1275.60 1002.75 1290.90 1010.40L1290.90 1010.40Q1332.97 1030.80 1332.97 1053.75L1332.97 1053.75Q1332.97 1070.33 1306.20 1072.88L1306.20 1072.88L1037.17 1086.90L1035.90 1162.13L1182.52 1154.47Q1204.20 1153.20 1216.95 1148.10Q1229.70 1143 1236.07 1143Q1242.45 1143 1256.47 1150.65L1256.47 1150.65Q1292.17 1172.33 1292.17 1194L1292.17 1194Q1292.17 1208.03 1266.67 1210.58L1266.67 1210.58L1035.90 1223.33L1035.90 1306.20L1335.52 1290.90Q1362.30 1289.63 1373.77 1284.53Q1385.25 1279.43 1393.54 1279.43Q1401.82 1279.43 1415.85 1288.35Q1429.88 1297.28 1440.71 1310.66Q1451.55 1324.05 1451.55 1335.53L1451.55 1335.53Q1451.55 1350.83 1424.77 1353.38L1424.77 1353.38L680.17 1390.35L648.30 1391.63Q610.05 1391.63 594.75 1348.28L594.75 1348.28Q588.37 1330.43 588.37 1324.05Q588.37 1317.68 594.11 1317.68Q599.85 1317.68 611.32 1320.86Q622.80 1324.05 661.05 1324.05L661.05 1324.05L961.95 1308.75L960.67 1227.15L830.62 1234.80L805.12 1236.08Q782.17 1236.08 771.97 1228.43L771.97 1228.43Q743.92 1206.75 737.55 1178.70L737.55 1178.70Q736.27 1176.15 736.27 1174.88L736.27 1174.88Q736.27 1167.22 742.65 1167.22Q749.02 1167.22 763.05 1171.05Q777.07 1174.88 796.20 1174.88L796.20 1174.88L960.67 1165.95L960.67 1090.72L760.50 1100.92L737.55 1102.20Q706.95 1102.20 692.29 1085.63Q677.62 1069.05 672.52 1052.47L672.52 1052.47L667.42 1035.90Q667.42 1029.53 675.07 1029.53L675.07 1029.53Q713.32 1037.17 737.55 1037.17L737.55 1037.17L743.92 1037.17L959.40 1026.97L959.40 972.15Q959.40 932.63 949.84 915.41Q940.27 898.20 940.27 891.19Q940.27 884.17 951.75 884.17ZM406.05 1030.80L406.05 1030.80Q389.47 1018.05 389.47 1007.85Q389.47 997.65 401.59 981.71Q413.70 965.77 423.26 965.77Q432.82 965.77 467.89 988.73Q502.95 1011.67 567.34 1069.05Q631.72 1126.42 631.72 1144.28Q631.72 1162.13 612.60 1176.79Q593.47 1191.45 585.19 1191.45Q576.90 1191.45 523.35 1135.35Q469.80 1079.25 406.05 1030.80ZM474.90 1442.63L474.90 1442.63Q403.50 1375.05 309.15 1313.85L309.15 1313.85Q291.30 1302.38 291.30 1290.90Q291.30 1279.43 302.77 1263.49Q314.25 1247.55 327.00 1247.55Q339.75 1247.55 413.06 1297.91Q486.37 1348.28 515.06 1370.59Q543.75 1392.90 543.75 1402.46Q543.75 1412.03 536.74 1424.78Q529.72 1437.53 520.16 1447.72Q510.60 1457.93 501.67 1457.93Q492.75 1457.93 474.90 1442.63ZM1274.32 1505.10L1278.15 1941.15L1280.70 1980.68Q1280.70 2002.35 1262.21 2021.48Q1243.72 2040.60 1228.42 2040.60L1228.42 2040.60Q1199.10 2040.60 1114.95 1984.50L1114.95 1984.50Q1030.80 1925.85 1030.80 1906.73L1030.80 1906.73Q1030.80 1899.08 1040.36 1899.08Q1049.92 1899.08 1091.36 1915.01Q1132.80 1930.95 1200.38 1948.80L1200.38 1948.80L1199.10 1790.70L800.02 1804.73L796.20 2006.18Q796.20 2036.78 769.42 2036.78L769.42 2036.78Q746.47 2036.78 728.62 2020.84Q710.77 2004.90 710.77 1987.05L710.77 1987.05Q726.07 1882.50 729.90 1584.15L729.90 1584.15Q731.17 1545.90 731.17 1539.53L731.17 1539.53L731.17 1522.95Q731.17 1488.53 723.52 1466.21Q715.87 1443.90 715.87 1438.80L715.87 1438.80Q715.87 1429.88 727.35 1429.88Q738.82 1429.88 806.40 1451.55L806.40 1451.55L1215.67 1434.97Q1237.35 1434.97 1257.75 1444.54Q1278.15 1454.10 1278.15 1477.05L1278.15 1477.05L1274.32 1505.10ZM378.00 1970.48L374.17 1970.48Q342.30 1966.65 320.62 1950.71Q298.95 1934.78 298.95 1928.40Q298.95 1922.03 316.80 1910.55L316.80 1910.55Q357.60 1883.78 467.25 1707.83L467.25 1707.83Q518.25 1627.50 569.25 1538.25L569.25 1538.25Q589.65 1502.55 606.22 1502.55L606.22 1502.55Q616.42 1502.55 616.42 1515.30L616.42 1515.30Q616.42 1543.35 545.66 1696.35Q474.90 1849.35 404.77 1955.18L404.77 1955.18Q394.57 1970.48 378.00 1970.48L378.00 1970.48ZM1197.82 1577.78L1197.82 1503.83L805.12 1520.40L803.85 1591.80L1197.82 1577.78ZM1199.10 1721.85L1199.10 1644.08L802.57 1658.10L801.30 1735.88L1199.10 1721.85ZM2187.22 1308.75L2187.22 1308.75Q2076.30 1195.28 1955.18 1098.38L1955.18 1098.38Q1943.70 1089.45 1943.70 1079.25L1943.70 1079.25Q1943.70 1063.95 1960.91 1048.65Q1978.13 1033.35 1990.24 1033.35Q2002.35 1033.35 2010 1039.72L2010 1039.72Q2138.78 1136.63 2245.88 1238.63L2245.88 1238.63Q2259.90 1250.10 2259.90 1269.22Q2259.90 1288.35 2242.69 1304.93Q2225.47 1321.50 2212.72 1321.50Q2199.97 1321.50 2187.22 1308.75ZM1879.95 1338.08L1879.95 1331.70Q1879.95 1310.03 1888.24 1301.10Q1896.53 1292.18 1920.75 1290.90L1920.75 1290.90L1925.85 1290.90Q1947.53 1290.90 1957.09 1299.83Q1966.65 1308.75 1967.93 1334.25L1967.93 1334.25Q1970.47 1451.55 1989.60 1544.63L1989.60 1544.63Q2024.03 1719.30 2152.80 1794.53L2152.80 1794.53Q2265 1860.83 2398.88 1860.83L2398.88 1860.83Q2439.68 1860.83 2439.68 1850.63L2439.68 1850.63L2389.95 1729.50Q2335.13 1594.35 2335.13 1549.73L2335.13 1549.73Q2335.13 1530.60 2345.32 1530.60L2345.32 1530.60Q2363.18 1530.60 2392.50 1587.98L2392.50 1587.98Q2451.15 1702.73 2535.30 1827.68L2535.30 1827.68Q2560.80 1864.65 2560.80 1892.06Q2560.80 1919.48 2516.18 1939.24Q2471.55 1959 2410.35 1959L2410.35 1959Q2393.78 1959 2378.48 1956.45L2378.48 1956.45Q2134.95 1927.13 2020.20 1800.90L2020.20 1800.90Q1920.75 1693.80 1895.25 1510.20L1895.25 1510.20Q1882.50 1427.33 1879.95 1338.08L1879.95 1338.08ZM2712.53 1594.35L2712.53 1594.35Q2724 1609.65 2724 1623.04Q2724 1636.43 2704.24 1656.19Q2684.48 1675.95 2669.18 1675.95Q2653.88 1675.95 2639.85 1656.83L2639.85 1656.83Q2534.03 1501.28 2421.82 1375.05L2421.82 1375.05Q2412.90 1366.13 2412.90 1353.38Q2412.90 1340.63 2430.75 1325.33Q2448.60 1310.03 2461.99 1310.03Q2475.38 1310.03 2490.68 1325.33L2490.68 1325.33Q2605.43 1449 2712.53 1594.35ZM1714.20 1339.35L1714.20 1339.35Q1767.75 1339.35 1767.75 1372.50L1767.75 1372.50Q1767.75 1390.35 1737.15 1505.74Q1706.55 1621.13 1647.90 1747.35L1647.90 1747.35Q1636.42 1771.58 1618.58 1771.58L1618.58 1771.58L1604.55 1767.75Q1559.92 1756.28 1559.92 1726.95L1559.92 1726.95Q1559.92 1718.03 1581.60 1672.13L1581.60 1672.13Q1642.80 1547.18 1683.60 1366.13L1683.60 1366.13Q1688.70 1339.35 1714.20 1339.35Z"/>
  </svg>