<svg xmlns="http://www.w3.org/2000/svg" viewBox="0 0 3000 3000" width="3000" height="3000">
    <path fill="#000000" d="M1400 1612L1400 1612Q1410 1612 1448 1589Q1486 1566 1500 1562Q1514 1558 1642 1558L1642 1558Q1730 1558 1753 1560Q1776 1562 1790 1572L1790 1572Q1808 1590 1818 1590L1818 1590Q1830 1590 1854 1603Q1878 1616 1888 1630L1888 1630Q1902 1646 1907 1679Q1912 1712 1904 1732L1904 1732Q1894 1758 1893 1862Q1892 1966 1900 2084L1900 2084Q1912 2246 1900 2330Q1888 2414 1844 2468L1844 2468Q1820 2498 1779 2504Q1738 2510 1728 2486L1728 2486Q1720 2468 1656 2424L1656 2424Q1584 2372 1581 2345Q1578 2318 1640 2310L1640 2310Q1690 2300 1704 2286Q1718 2272 1728 2218L1728 2218Q1738 2174 1739 2139Q1740 2104 1734 2004L1734 2004Q1726 1854 1719 1804Q1712 1754 1706 1695Q1700 1636 1685 1627Q1670 1618 1580 1618L1580 1618Q1500 1618 1482 1629Q1464 1640 1470 1682L1470 1682Q1474 1718 1488 1720L1488 1720Q1494 1720 1500 1710L1500 1710Q1502 1704 1530 1701Q1558 1698 1585 1699Q1612 1700 1612 1704L1612 1704Q1612 1710 1632 1732L1632 1732Q1660 1758 1658 1792L1658 1792Q1658 1802 1618 1814Q1578 1826 1532 1830L1532 1830Q1490 1832 1483 1837Q1476 1842 1452 1848L1452 1848Q1430 1852 1424 1865Q1418 1878 1418 1918L1418 1918Q1418 1948 1427 1954Q1436 1960 1462 1950L1462 1950Q1482 1936 1532 1928L1532 1928Q1576 1918 1595 1925Q1614 1932 1634 1966L1634 1966Q1648 1986 1650 1997Q1652 2008 1646 2026L1646 2026Q1640 2054 1630 2060Q1620 2066 1592 2062L1592 2062Q1564 2056 1512 2072Q1460 2088 1436 2090L1436 2090L1414 2092L1410 2236Q1408 2330 1405 2359Q1402 2388 1390 2404L1390 2404Q1358 2462 1326 2414L1326 2414Q1312 2388 1307 2357Q1302 2326 1289 2311Q1276 2296 1286 2286Q1296 2276 1300 2246Q1304 2216 1307 2204Q1310 2192 1314 2104Q1318 2016 1329 1945Q1340 1874 1340 1841Q1340 1808 1352 1762Q1364 1716 1364 1676L1364 1676Q1364 1650 1374 1631Q1384 1612 1400 1612ZM716 1250L716 1250Q716 1242 737 1242Q758 1242 786 1252L786 1252Q818 1262 867 1296Q916 1330 922 1346L922 1346Q934 1366 924 1410L924 1410Q916 1448 905 1464Q894 1480 864 1492L864 1492Q846 1502 840 1501Q834 1500 820 1488L820 1488Q802 1470 802 1459Q802 1448 791 1435Q780 1422 752 1368Q724 1314 716 1306Q708 1298 712 1279Q716 1260 716 1250ZM998 828L998 828Q1004 818 1061 831Q1118 844 1158 866L1158 866Q1216 894 1192 984L1192 984Q1178 1026 1171 1030Q1164 1034 1164 1050Q1164 1066 1152 1088Q1140 1110 1117 1110Q1094 1110 1094 1102Q1094 1094 1073 1066Q1052 1038 1038 1006L1038 1006Q1006 944 956 882L956 882Q942 864 951 849Q960 834 977 834Q994 834 998 828ZM1564 630L1564 630Q1590 602 1596 602L1596 602Q1606 602 1646 636Q1686 670 1696 684L1696 684Q1704 700 1707 719Q1710 738 1704 810L1704 810L1700 914L1732 908Q1770 898 1847 895Q1924 892 1952 894L1952 894Q1990 900 2008 922Q2026 944 2031 970Q2036 996 2023 1004Q2010 1012 2010 1028L2010 1028Q2010 1038 2004 1040Q1998 1042 1968 1038L1968 1038Q1924 1034 1873 1023Q1822 1012 1764 1020L1764 1020L1702 1030L1702 1078Q1702 1118 1709 1123Q1716 1128 1756 1128L1756 1128Q1802 1126 1837 1148Q1872 1170 1872 1200Q1872 1230 1856 1236Q1840 1242 1786 1234L1786 1234Q1726 1224 1714 1234Q1702 1244 1704 1306L1704 1306L1708 1368L1798 1366Q1944 1362 1983 1358Q2022 1354 2098 1340L2098 1340Q2176 1326 2218 1366L2218 1366Q2332 1470 2280 1516L2280 1516Q2264 1532 2213 1529Q2162 1526 2147 1517Q2132 1508 2058 1499Q1984 1490 1934 1480Q1884 1470 1782 1478L1782 1478Q1716 1482 1696 1485Q1676 1488 1668 1498L1668 1498Q1652 1514 1630 1522L1630 1522Q1614 1530 1607 1528Q1600 1526 1584 1514L1584 1514Q1564 1496 1548 1496L1548 1496Q1534 1496 1414 1527Q1294 1558 1270 1568L1270 1568Q1244 1578 1236 1588L1236 1588Q1230 1598 1206 1597Q1182 1596 1160 1586L1160 1586Q1120 1568 1110 1579Q1100 1590 1068 1672L1068 1672Q1038 1756 1004 1826L1004 1826L976 1888L938 1982Q924 2010 924 2018Q924 2026 908 2060L908 2060Q896 2080 896 2088Q896 2096 904 2112L904 2112Q916 2132 916 2147Q916 2162 906 2192L906 2192Q886 2250 832 2266L832 2266Q804 2274 792 2267Q780 2260 764 2228L764 2228Q754 2198 743 2194Q732 2190 732 2179Q732 2168 720 2142L720 2142Q700 2106 704 2063Q708 2020 732 2020L732 2020Q740 2020 740 2004Q740 1988 750 1988L750 1988Q766 1988 860 1870Q954 1752 998 1672L998 1672Q1032 1612 1073 1547Q1114 1482 1116 1482L1116 1482Q1122 1482 1132 1491Q1142 1500 1158 1491Q1174 1482 1218 1468L1218 1468L1352 1432Q1444 1404 1465 1400Q1486 1396 1482 1386Q1478 1376 1485 1361Q1492 1346 1500 1304L1500 1304Q1504 1266 1500 1266L1500 1266Q1494 1264 1488 1270L1488 1270Q1434 1290 1386 1270L1386 1270Q1306 1232 1456 1184L1456 1184L1508 1168L1510 1110Q1512 1054 1504 1047Q1496 1040 1440 1064L1440 1064Q1362 1096 1354 1080L1354 1080Q1348 1072 1315 1072Q1282 1072 1281 1058Q1280 1044 1275 1029Q1270 1014 1300 994L1300 994Q1320 980 1371 964Q1422 948 1448 948L1448 948Q1460 948 1488 940L1488 940L1518 932L1518 814Q1518 716 1524 690Q1530 664 1564 630Z"/>
  </svg>