<svg xmlns="http://www.w3.org/2000/svg" viewBox="0 0 3000 3000" width="3000" height="3000">
    <path fill="#000000" d="M972.15 1292.17L972.15 1292.17L996.37 1265.40Q1071.60 1306.20 1152.56 1355.93Q1233.52 1405.65 1305.56 1454.10Q1377.60 1502.55 1424.77 1540.80L1424.77 1540.80L1400.55 1572.68Q1354.65 1533.15 1282.61 1484.06Q1210.57 1434.97 1128.97 1383.97Q1047.38 1332.97 972.15 1292.17ZM1001.47 997.65L1001.47 997.65L1038.45 997.65Q1034.63 1136.63 1017.41 1235.44Q1000.20 1334.25 958.76 1401.19Q917.32 1468.13 841.46 1510.20Q765.60 1552.28 643.20 1579.05L643.20 1579.05Q641.92 1575.22 637.46 1569.49Q633.00 1563.75 628.54 1558.01Q624.07 1552.28 620.25 1549.72L620.25 1549.72Q741.37 1524.22 814.69 1484.70Q888.00 1445.18 927.52 1382.06Q967.05 1318.95 982.35 1225.24Q997.65 1131.53 1001.47 997.65ZM1302.37 1084.35L1302.37 1084.35L1338.07 1104.75Q1303.65 1159.58 1260.30 1221.41Q1216.95 1283.25 1178.70 1326.60L1178.70 1326.60L1149.38 1311.30Q1174.88 1281.97 1203.56 1241.81Q1232.25 1201.65 1258.39 1159.58Q1284.52 1117.50 1302.37 1084.35ZM1317.67 1628.78L1317.67 1628.78L1353.38 1647.90Q1327.88 1687.43 1296.00 1731.41Q1264.12 1775.40 1232.25 1815.56Q1200.38 1855.73 1171.05 1886.33L1171.05 1886.33L1143 1869.75Q1172.32 1839.15 1204.84 1796.44Q1237.35 1753.73 1267.31 1709.10Q1297.27 1664.47 1317.67 1628.78ZM993.82 1517.85L993.82 1517.85L1030.80 1517.85Q1025.70 1664.47 1006.57 1771.58Q987.45 1878.68 940.27 1951.99Q893.10 2025.30 805.76 2072.47Q718.42 2119.65 576.90 2148.97L576.90 2148.97Q575.62 2143.88 571.16 2138.14Q566.70 2132.40 562.24 2126.66Q557.77 2120.93 553.95 2117.10L553.95 2117.10Q664.87 2095.43 740.74 2062.28Q816.60 2029.13 864.41 1981.95Q912.22 1934.78 939.00 1869.75Q965.77 1804.73 977.89 1717.39Q990.00 1630.05 993.82 1517.85ZM984.90 1702.73L1015.50 1696.35Q1049.92 1860.83 1154.47 1972.39Q1259.02 2083.95 1443.90 2110.72L1443.90 2110.72Q1440.07 2114.55 1434.97 2120.93Q1429.88 2127.30 1425.41 2133.04Q1420.95 2138.78 1417.13 2143.88L1417.13 2143.88Q1292.17 2120.93 1204.20 2061.64Q1116.22 2002.35 1062.67 1911.19Q1009.12 1820.03 984.90 1702.73L984.90 1702.73ZM353.77 1041L353.77 1041L378.00 1014.22Q417.52 1033.35 459.60 1058.21Q501.67 1083.08 538.01 1109.85Q574.35 1136.63 597.30 1159.58L597.30 1159.58L574.35 1191.45Q551.40 1167.22 514.42 1139.81Q477.45 1112.40 436.01 1086.26Q394.57 1060.13 353.77 1041ZM286.20 1387.80L286.20 1387.80L310.42 1359.75Q349.95 1377.60 390.11 1401.19Q430.27 1424.78 465.97 1449.64Q501.67 1474.50 523.35 1496.18L523.35 1496.18L501.67 1528.05Q478.72 1506.38 443.02 1480.88Q407.32 1455.38 366.52 1430.51Q325.72 1405.65 286.20 1387.80ZM356.32 2115.83L323.17 2089.05Q355.05 2039.33 392.66 1969.84Q430.27 1900.35 468.52 1823.85Q506.77 1747.35 537.37 1677.23L537.37 1677.23L567.97 1701.45Q538.65 1767.75 502.31 1842.34Q465.97 1916.93 427.72 1988.33Q389.47 2059.72 356.32 2115.83L356.32 2115.83ZM669.97 1109.85L669.97 1109.85L694.20 1084.35Q722.25 1118.78 752.21 1158.94Q782.17 1199.10 807.67 1234.80Q833.17 1270.50 848.47 1296L848.47 1296L825.52 1329.15Q808.95 1301.10 782.81 1263.49Q756.67 1225.88 727.35 1185.08Q698.02 1144.28 669.97 1109.85ZM658.50 1642.80L658.50 1642.80L682.72 1618.58Q712.05 1655.55 743.29 1696.35Q774.52 1737.15 801.30 1774.13Q828.07 1811.10 843.37 1837.88L843.37 1837.88L820.42 1871.03Q802.57 1841.70 775.16 1802.18Q747.75 1762.65 717.79 1720.58Q687.82 1678.50 658.50 1642.80ZM2122.20 1326.60L2122.20 1288.35L2697.23 1288.35L2697.23 1326.60L2122.20 1326.60ZM1761.38 1222.05L1761.38 1222.05L1788.15 1201.65Q1827.67 1233.53 1869.11 1273.05Q1910.55 1312.58 1946.25 1350.83Q1981.95 1389.08 2003.63 1419.68L2003.63 1419.68L1976.85 1445.18Q1955.18 1414.58 1919.47 1375.05Q1883.78 1335.53 1842.97 1295.36Q1802.17 1255.20 1761.38 1222.05ZM2474.10 1058.85L2474.10 1058.85L2502.15 1038.45Q2546.78 1076.70 2591.40 1125.15Q2636.03 1173.60 2660.25 1210.58L2660.25 1210.58L2629.65 1234.80Q2606.70 1197.83 2562.71 1148.10Q2518.73 1098.38 2474.10 1058.85ZM1849.35 990L1849.35 990L1886.33 1000.20Q1858.28 1079.25 1816.20 1162.13Q1774.13 1245 1719.94 1321.50Q1665.75 1398 1600.72 1457.93L1600.72 1457.93Q1598.17 1454.10 1593.08 1450.28Q1587.97 1446.45 1582.88 1442.63Q1577.78 1438.80 1573.95 1436.25L1573.95 1436.25Q1636.42 1378.88 1689.97 1303.65Q1743.53 1228.42 1784.33 1146.83Q1825.13 1065.22 1849.35 990ZM2083.95 1128.97L2083.95 1118.78L2092.88 1118.78L2101.80 1116.22L2122.20 1127.70Q2082.68 1307.47 2006.18 1440.71Q1929.68 1573.95 1827.67 1665.75Q1725.67 1757.55 1608.38 1813.65L1608.38 1813.65Q1607.10 1808.55 1602.64 1803.45Q1598.17 1798.35 1593.08 1792.61Q1587.97 1786.88 1582.88 1784.33L1582.88 1784.33Q1698.90 1730.78 1798.99 1642.16Q1899.08 1553.55 1973.66 1426.05Q2048.25 1298.55 2083.95 1128.97L2083.95 1128.97ZM1802.17 1155.75L1817.47 1118.78L2100.53 1118.78L2100.53 1155.75L1802.17 1155.75ZM2373.38 1121.33L2373.38 1009.13L2411.63 1009.13L2411.63 1120.05Q2411.63 1196.55 2400.79 1285.80Q2389.95 1375.05 2354.25 1469.40Q2318.55 1563.75 2245.88 1655.55Q2173.20 1747.35 2049.53 1828.95L2049.53 1828.95Q2045.70 1823.85 2036.78 1816.20Q2027.85 1808.55 2020.20 1803.45L2020.20 1803.45Q2142.60 1724.40 2213.36 1634.51Q2284.13 1544.63 2318.55 1453.46Q2352.98 1362.30 2363.18 1276.88Q2373.38 1191.45 2373.38 1121.33L2373.38 1121.33ZM1962.83 1909.28L1962.83 1909.28L1997.25 1908Q2010 1962.83 2018.29 2025.30Q2026.58 2087.78 2027.85 2128.58L2027.85 2128.58L1990.88 2133.68Q1990.88 2104.35 1987.05 2066.10Q1983.22 2027.85 1977.49 1986.41Q1971.75 1944.98 1962.83 1909.28ZM2229.30 1906.73L2229.30 1906.73L2263.73 1899.08Q2282.85 1934.78 2300.70 1976.21Q2318.55 2017.65 2332.57 2056.54Q2346.60 2095.43 2352.98 2124.75L2352.98 2124.75L2317.28 2134.95Q2305.80 2090.33 2281.57 2025.94Q2257.35 1961.55 2229.30 1906.73ZM2495.78 1896.53L2495.78 1896.53L2528.93 1882.50Q2564.63 1919.48 2599.69 1964.74Q2634.75 2010 2664.71 2053.35Q2694.68 2096.70 2712.53 2129.85L2712.53 2129.85L2678.10 2146.43Q2661.53 2113.28 2631.56 2069.29Q2601.60 2025.30 2566.54 1980.04Q2531.48 1934.78 2495.78 1896.53ZM1746.08 1888.88L1746.08 1888.88L1777.95 1897.80Q1742.25 1960.28 1695.71 2027.85Q1649.17 2095.43 1600.72 2142.60L1600.72 2142.60L1567.58 2128.58Q1600.72 2097.97 1633.24 2058.45Q1665.75 2018.93 1695.08 1974.94Q1724.40 1930.95 1746.08 1888.88ZM1598.17 1576.50L1579.05 1543.35Q1633.88 1531.88 1704.64 1514.66Q1775.40 1497.45 1853.17 1478.33L1853.17 1478.33L1857 1508.93Q1786.88 1526.78 1721.21 1544.63Q1655.55 1562.47 1598.17 1576.50L1598.17 1576.50ZM2363.18 1326.60L2363.18 1326.60L2395.05 1308.75Q2442.23 1367.40 2489.40 1434.97Q2536.57 1502.55 2579.93 1570.13Q2623.28 1637.70 2657.70 1698.90Q2692.13 1760.10 2713.80 1808.55L2713.80 1808.55L2679.38 1828.95Q2657.70 1780.50 2623.28 1718.66Q2588.85 1656.83 2546.14 1588.61Q2503.43 1520.40 2456.25 1452.83Q2409.07 1385.25 2363.18 1326.60Z"/>
  </svg>