<svg xmlns="http://www.w3.org/2000/svg" viewBox="0 0 3000 3000" width="3000" height="3000">
    <path fill="#000000" d="M1656 768L1656 768L1654 676Q1654 630 1641 604Q1628 578 1628 574L1628 574Q1628 560 1645 560Q1662 560 1696 564L1696 564Q1794 580 1794 638L1794 638L1794 668Q1794 892 1752 1050L1752 1050Q1956 1288 2326 1392L2326 1392Q2360 1402 2360 1418L2360 1418L2350 1440Q2322 1508 2275 1508Q2228 1508 2106 1448L2106 1448Q1874 1336 1712 1168L1712 1168Q1624 1344 1342 1472L1342 1472Q1210 1532 1181 1532Q1152 1532 1152 1518L1152 1518Q1152 1498 1194 1478L1194 1478Q1502 1320 1596 1120L1596 1120Q1638 1030 1647 942Q1656 854 1656 768ZM1132 898L1132 898Q1156 918 1156 944Q1156 970 1124 994Q1092 1018 1082 1018Q1072 1018 995 938Q918 858 800 764L800 764Q774 744 774 725Q774 706 795 684Q816 662 836 662Q856 662 960 748L960 748Q1042 812 1132 898ZM1866 1064L1866 1064Q2078 888 2090 794L2090 794Q2090 758 2111 758Q2132 758 2158 777Q2184 796 2204 821Q2224 846 2224 864Q2224 882 2192 912L2192 912Q2142 964 2012 1044L2012 1044Q1892 1114 1865 1114Q1838 1114 1838 1101Q1838 1088 1866 1064ZM1500 1102L1500 1102Q1474 1126 1453 1126Q1432 1126 1404 1084L1404 1084Q1332 968 1252 894L1252 894Q1230 872 1230 857Q1230 842 1258 820Q1286 798 1304 798L1304 798Q1342 798 1439 913Q1536 1028 1536 1051Q1536 1074 1500 1102ZM898 1410L898 1410Q766 1294 638 1208L638 1208Q610 1192 610 1173Q610 1154 629 1128Q648 1102 660 1102L660 1102Q698 1102 974 1308L974 1308Q1006 1334 1006 1348Q1006 1362 995 1382Q984 1402 969 1418Q954 1434 940 1434Q926 1434 898 1410ZM1794 1464L1794 1468Q1782 1666 1728 1818L1728 1818Q1892 2022 2150 2130L2150 2130Q2270 2180 2402 2220L2402 2220Q2438 2230 2438 2244L2438 2244Q2438 2246 2426 2270L2426 2270Q2390 2342 2350 2342L2350 2342L2306 2328Q2192 2296 2065 2228Q1938 2160 1847 2092Q1756 2024 1678 1932L1678 1932Q1570 2152 1202 2284L1202 2284Q1038 2344 995 2344Q952 2344 952 2330L952 2330Q952 2310 994 2294L994 2294Q1388 2130 1520 1946L1520 1946Q1588 1854 1614 1748Q1640 1642 1643 1571Q1646 1500 1643 1475Q1640 1450 1629 1432Q1618 1414 1618 1403Q1618 1392 1639 1392Q1660 1392 1696 1400L1696 1400Q1794 1424 1794 1464L1794 1464ZM744 2234L738 2234Q694 2230 657 2204Q620 2178 620 2168Q620 2158 640 2144L640 2144Q686 2116 712 2078L712 2078Q912 1802 1048 1558L1048 1558Q1082 1498 1104 1498L1104 1498Q1116 1498 1116 1527Q1116 1556 1080 1650L1080 1650Q976 1920 788 2212L788 2212Q772 2234 744 2234L744 2234ZM2112 1524L2112 1524Q2150 1524 2200 1584L2200 1584Q2222 1610 2222 1630Q2222 1650 2172 1700Q2122 1750 2004 1824Q1886 1898 1860 1898Q1834 1898 1834 1884L1834 1884Q1834 1866 1868 1836L1868 1836Q2082 1654 2090 1562L2090 1562Q2094 1524 2112 1524ZM1386 1864L1386 1864Q1324 1760 1238 1674L1238 1674Q1216 1652 1216 1634Q1216 1616 1239 1593Q1262 1570 1280 1570Q1298 1570 1336 1605Q1374 1640 1415 1688Q1456 1736 1485 1778Q1514 1820 1514 1837Q1514 1854 1489 1879Q1464 1904 1437 1904Q1410 1904 1386 1864Z"/>
  </svg>