<svg xmlns="http://www.w3.org/2000/svg" viewBox="0 0 3000 3000" width="3000" height="3000">
    <path fill="#000000" d="M1526 1907L1526 1907Q1526 1891 1496 1847Q1466 1803 1424 1755Q1382 1707 1342 1670Q1302 1633 1282 1633L1282 1633Q1258 1633 1231 1660Q1204 1687 1204 1711L1204 1711Q1204 1731 1230 1757L1230 1757Q1268 1797 1310 1851Q1352 1905 1378 1949L1378 1949Q1404 1991 1434 1991L1434 1991Q1444 1991 1465 1982Q1486 1973 1506 1953Q1526 1933 1526 1907ZM2234 1707L2234 1707Q2234 1681 2211 1654Q2188 1627 2160 1607Q2132 1587 2112 1587L2112 1587Q2084 1587 2078 1635L2078 1635Q2074 1675 2035 1726Q1996 1777 1945 1826Q1894 1875 1858 1905Q1822 1935 1822 1959L1822 1959Q1822 1985 1854 1985L1854 1985Q1874 1985 1918 1962Q1962 1939 2014 1906Q2066 1873 2116 1836Q2166 1799 2200 1764Q2234 1729 2234 1707ZM738 2321L738 2321L744 2321Q778 2321 795 2295Q812 2269 836 2231L836 2231Q924 2085 989 1954Q1054 1823 1091 1728Q1128 1633 1128 1597Q1128 1561 1104 1561L1104 1561Q1076 1561 1038 1627L1038 1627Q968 1753 880 1888Q792 2023 702 2147L702 2147Q688 2165 670 2181Q652 2197 632 2211L632 2211Q608 2227 608 2243Q608 2259 649 2288Q690 2317 738 2321ZM1806 1543L1806 1543L1806 1539Q1806 1509 1772 1491Q1738 1473 1700 1464Q1662 1455 1640 1455L1640 1455Q1606 1455 1606 1481L1606 1481Q1606 1493 1616 1509L1616 1509Q1628 1529 1631 1552Q1634 1575 1634 1591L1634 1591Q1628 1715 1602 1819Q1576 1923 1511 2014Q1446 2105 1320 2189Q1194 2273 990 2357L990 2357Q940 2377 940 2405L940 2405Q940 2431 982 2431L982 2431Q998 2431 1059 2417Q1120 2403 1206 2372Q1292 2341 1386 2292Q1480 2243 1562 2174Q1644 2105 1680 2029L1680 2029Q1748 2107 1840 2176Q1932 2245 2021 2293Q2110 2341 2184 2372Q2258 2403 2302 2415L2302 2415L2348 2429Q2380 2429 2402 2402Q2424 2375 2437 2349Q2450 2323 2450 2319L2450 2319Q2450 2295 2406 2283L2406 2283Q2274 2243 2155 2194Q2036 2145 1931 2071Q1826 1997 1742 1891L1742 1891Q1768 1817 1784 1727Q1800 1637 1806 1543ZM890 1495L890 1495Q922 1521 941 1521Q960 1521 977 1503Q994 1485 1006 1463Q1018 1441 1018 1427L1018 1427Q1018 1403 982 1373L982 1373Q950 1349 903 1314Q856 1279 806 1245Q756 1211 717 1188Q678 1165 662 1165L662 1165Q642 1165 620 1195Q598 1225 598 1247L598 1247Q598 1273 632 1293L632 1293Q758 1379 890 1495ZM1508 1187L1508 1187Q1548 1155 1548 1129L1548 1129Q1548 1113 1519 1071Q1490 1029 1449 982Q1408 935 1368 898Q1328 861 1304 861L1304 861Q1282 861 1250 886Q1218 911 1218 935L1218 935Q1218 951 1244 977L1244 977Q1292 1021 1330 1071Q1368 1121 1400 1173L1400 1173Q1426 1213 1452 1213Q1478 1213 1508 1187ZM2076 883L2076 883Q2074 891 2071 901Q2068 911 2062 917L2062 917Q2024 969 1971 1025Q1918 1081 1858 1129L1858 1129Q1826 1157 1826 1177L1826 1177Q1826 1183 1828 1189L1828 1189Q1796 1157 1766 1123L1766 1123Q1788 1037 1797 935Q1806 833 1806 743L1806 743L1806 713Q1806 671 1770 652Q1734 633 1698 628Q1662 623 1652 623L1652 623Q1616 623 1616 649L1616 649Q1616 655 1626 675L1626 675Q1634 693 1638 715Q1642 737 1642 751L1642 751Q1642 771 1643 795Q1644 819 1644 843L1644 843Q1644 929 1635 1015Q1626 1101 1585 1189Q1544 1277 1451 1366Q1358 1455 1188 1543L1188 1543Q1140 1565 1140 1593L1140 1593Q1140 1619 1174 1619L1174 1619Q1186 1619 1233 1604Q1280 1589 1347 1558Q1414 1527 1486 1484Q1558 1441 1622 1382Q1686 1323 1716 1263L1716 1263Q1792 1345 1885 1410Q1978 1475 2062 1516Q2146 1557 2204 1576Q2262 1595 2280 1595L2280 1595Q2310 1595 2330 1570Q2350 1545 2362 1519L2362 1519L2372 1495Q2372 1469 2330 1455L2330 1455Q2144 1403 2004 1319L2004 1319Q1912 1265 1838 1199L1838 1199Q1846 1201 1856 1201L1856 1201Q1878 1201 1922 1180Q1966 1159 2018 1128Q2070 1097 2120 1063Q2170 1029 2203 995Q2236 961 2236 939Q2236 917 2214 890Q2192 863 2164 842Q2136 821 2112 821L2112 821Q2078 821 2078 869L2078 869L2076 875Q2076 879 2076 883ZM1086 1105L1086 1105Q1096 1105 1115 1090Q1134 1075 1151 1055Q1168 1035 1168 1013L1168 1013Q1168 987 1140 965L1140 965Q1104 931 1059 890Q1014 849 968 812Q922 775 885 750Q848 725 829 725Q810 725 786 751Q762 777 762 801Q762 825 792 849L792 849Q848 893 915 954Q982 1015 1038 1075L1038 1075Q1068 1105 1086 1105Z"/>
  </svg>