<svg xmlns="http://www.w3.org/2000/svg" viewBox="0 0 3000 3000" width="3000" height="3000">
    <path fill="#000000" d="M961.95 1033.35L961.95 1033.35L960.67 974.70Q960.67 945.38 952.39 928.80Q944.10 912.23 944.10 909.67L944.10 909.67Q944.10 900.75 954.94 900.75Q965.77 900.75 987.45 903.30L987.45 903.30Q1049.92 913.50 1049.92 950.48L1049.92 950.48L1049.92 969.60Q1049.92 1112.40 1023.15 1213.13L1023.15 1213.13Q1153.20 1364.85 1389.07 1431.15L1389.07 1431.15Q1410.75 1437.53 1410.75 1447.72L1410.75 1447.72L1404.38 1461.75Q1386.52 1505.10 1356.56 1505.10Q1326.60 1505.10 1248.82 1466.85L1248.82 1466.85Q1100.92 1395.45 997.65 1288.35L997.65 1288.35Q941.55 1400.55 761.77 1482.15L761.77 1482.15Q677.62 1520.40 659.14 1520.40Q640.65 1520.40 640.65 1511.47L640.65 1511.47Q640.65 1498.72 667.42 1485.97L667.42 1485.97Q863.77 1385.25 923.70 1257.75L923.70 1257.75Q950.47 1200.38 956.21 1144.28Q961.95 1088.17 961.95 1033.35ZM627.90 1116.22L627.90 1116.22Q643.20 1128.97 643.20 1145.55Q643.20 1162.13 622.80 1177.43Q602.40 1192.72 596.02 1192.72Q589.65 1192.72 540.56 1141.72Q491.47 1090.72 416.25 1030.80L416.25 1030.80Q399.67 1018.05 399.67 1005.94Q399.67 993.83 413.06 979.80Q426.45 965.77 439.20 965.77Q451.95 965.77 518.25 1020.60L518.25 1020.60Q570.52 1061.40 627.90 1116.22ZM1095.82 1222.05L1095.82 1222.05Q1230.97 1109.85 1238.63 1049.92L1238.63 1049.92Q1238.63 1026.97 1252.01 1026.97Q1265.40 1026.97 1281.97 1039.09Q1298.55 1051.20 1311.30 1067.14Q1324.05 1083.08 1324.05 1094.55Q1324.05 1106.03 1303.65 1125.15L1303.65 1125.15Q1271.77 1158.30 1188.90 1209.30L1188.90 1209.30Q1112.40 1253.93 1095.19 1253.93Q1077.97 1253.93 1077.97 1245.64Q1077.97 1237.35 1095.82 1222.05ZM862.50 1246.28L862.50 1246.28Q845.92 1261.58 832.54 1261.58Q819.15 1261.58 801.30 1234.80L801.30 1234.80Q755.40 1160.85 704.40 1113.67L704.40 1113.67Q690.37 1099.65 690.37 1090.09Q690.37 1080.53 708.22 1066.50Q726.07 1052.47 737.55 1052.47L737.55 1052.47Q761.77 1052.47 823.61 1125.79Q885.45 1199.10 885.45 1213.76Q885.45 1228.43 862.50 1246.28ZM478.72 1442.63L478.72 1442.63Q394.57 1368.68 312.97 1313.85L312.97 1313.85Q295.12 1303.65 295.12 1291.54Q295.12 1279.43 307.24 1262.85Q319.35 1246.28 327.00 1246.28L327.00 1246.28Q351.22 1246.28 527.17 1377.60L527.17 1377.60Q547.57 1394.18 547.57 1403.10Q547.57 1412.03 540.56 1424.78Q533.55 1437.53 523.99 1447.72Q514.42 1457.93 505.50 1457.93Q496.57 1457.93 478.72 1442.63ZM1049.92 1477.05L1049.92 1479.60Q1042.27 1605.83 1007.85 1702.73L1007.85 1702.73Q1112.40 1832.78 1276.87 1901.63L1276.87 1901.63Q1353.38 1933.50 1437.52 1959L1437.52 1959Q1460.47 1965.38 1460.47 1974.30L1460.47 1974.30Q1460.47 1975.58 1452.82 1990.88L1452.82 1990.88Q1429.88 2036.78 1404.38 2036.78L1404.38 2036.78L1376.32 2027.85Q1303.65 2007.45 1222.69 1964.10Q1141.72 1920.75 1083.71 1877.40Q1025.70 1834.05 975.97 1775.40L975.97 1775.40Q907.12 1915.65 672.52 1999.80L672.52 1999.80Q567.97 2038.05 540.56 2038.05Q513.15 2038.05 513.15 2029.13L513.15 2029.13Q513.15 2016.38 539.92 2006.18L539.92 2006.18Q791.10 1901.63 875.25 1784.33L875.25 1784.33Q918.60 1725.68 935.17 1658.10Q951.75 1590.53 953.66 1545.26Q955.57 1500 953.66 1484.06Q951.75 1468.13 944.74 1456.65Q937.72 1445.18 937.72 1438.16Q937.72 1431.15 951.11 1431.15Q964.50 1431.15 987.45 1436.25L987.45 1436.25Q1049.92 1451.55 1049.92 1477.05L1049.92 1477.05ZM380.55 1967.93L376.72 1967.93Q348.67 1965.38 325.09 1948.80Q301.50 1932.23 301.50 1925.85Q301.50 1919.48 314.25 1910.55L314.25 1910.55Q343.57 1892.70 360.15 1868.48L360.15 1868.48Q487.65 1692.53 574.35 1536.97L574.35 1536.97Q596.02 1498.72 610.05 1498.72L610.05 1498.72Q617.70 1498.72 617.70 1517.21Q617.70 1535.70 594.75 1595.63L594.75 1595.63Q528.45 1767.75 408.60 1953.90L408.60 1953.90Q398.40 1967.93 380.55 1967.93L380.55 1967.93ZM1252.65 1515.30L1252.65 1515.30Q1276.87 1515.30 1308.75 1553.55L1308.75 1553.55Q1322.77 1570.13 1322.77 1582.88Q1322.77 1595.63 1290.90 1627.50Q1259.02 1659.38 1183.80 1706.55Q1108.57 1753.73 1092 1753.73Q1075.42 1753.73 1075.42 1744.80L1075.42 1744.80Q1075.42 1733.33 1097.10 1714.20L1097.10 1714.20Q1233.52 1598.18 1238.63 1539.53L1238.63 1539.53Q1241.17 1515.30 1252.65 1515.30ZM789.82 1732.05L789.82 1732.05Q750.30 1665.75 695.47 1610.93L695.47 1610.93Q681.45 1596.90 681.45 1585.43Q681.45 1573.95 696.11 1559.29Q710.77 1544.63 722.25 1544.63Q733.72 1544.63 757.95 1566.94Q782.17 1589.25 808.31 1619.85Q834.45 1650.45 852.94 1677.23Q871.42 1704 871.42 1714.84Q871.42 1725.68 855.49 1741.61Q839.55 1757.55 822.34 1757.55Q805.12 1757.55 789.82 1732.05ZM2300.70 898.20L2300.70 898.20Q2388.68 898.20 2388.68 944.10L2388.68 944.10Q2388.68 1149.38 2369.55 1256.47L2369.55 1256.47L2505.98 1246.28Q2541.68 1242.45 2554.43 1237.35Q2567.18 1232.25 2576.10 1232.25Q2585.03 1232.25 2601.60 1242.45L2601.60 1242.45Q2642.40 1266.68 2642.40 1287.08L2642.40 1287.08Q2642.40 1301.10 2614.35 1303.65L2614.35 1303.65L2389.95 1320.22Q2532.75 1544.63 2703.60 1659.38L2703.60 1659.38Q2721.45 1669.58 2721.45 1677.86Q2721.45 1686.15 2708.70 1696.35L2708.70 1696.35Q2676.82 1725.68 2652.60 1725.68L2652.60 1725.68Q2644.95 1725.68 2613.07 1698.26Q2581.20 1670.85 2535.30 1621.13L2535.30 1621.13Q2426.93 1501.28 2344.05 1361.03L2344.05 1361.03Q2293.05 1515.30 2188.50 1617.30L2188.50 1617.30Q2110.72 1692.53 2035.50 1726.95L2035.50 1726.95Q2007.45 1738.43 2002.35 1738.43L2002.35 1738.43Q1989.60 1738.43 1989.60 1727.59Q1989.60 1716.75 2008.73 1701.45L2008.73 1701.45Q2106.90 1624.95 2178.30 1526.78Q2249.70 1428.60 2276.48 1327.88L2276.48 1327.88L2226.75 1331.70Q2215.28 1332.97 2206.35 1332.97L2206.35 1332.97L2188.50 1332.97Q2171.93 1332.97 2152.16 1325.33Q2132.40 1317.68 2113.28 1276.88L2113.28 1276.88L2112 1271.78Q2112 1262.85 2122.20 1262.85L2122.20 1262.85Q2127.30 1262.85 2140.05 1266.04Q2152.80 1269.22 2179.57 1269.22L2179.57 1269.22L2290.50 1261.58Q2308.35 1150.65 2308.35 1012.95L2308.35 1012.95L2308.35 981.08Q2308.35 941.55 2289.23 919.88L2289.23 919.88Q2284.13 914.77 2284.13 908.40L2284.13 908.40Q2284.13 898.20 2300.70 898.20ZM1877.40 1233.53L1877.40 1233.53Q1897.80 1233.53 1993.43 1332.97L1993.43 1332.97Q2030.40 1252.65 2050.80 1168.50L2050.80 1168.50L1864.65 1183.80Q1763.92 1345.72 1656.83 1441.35L1656.83 1441.35Q1632.60 1463.03 1624.31 1463.03Q1616.03 1463.03 1616.03 1452.83Q1616.03 1442.63 1627.50 1427.33L1627.50 1427.33Q1802.17 1196.55 1862.10 1023.15L1862.10 1023.15Q1885.05 956.85 1885.05 946.65L1885.05 946.65L1885.05 931.35Q1885.05 927.52 1883.78 923.70L1883.78 923.70L1883.78 918.60Q1883.78 907.13 1893.34 907.13Q1902.90 907.13 1920.75 916.05L1920.75 916.05Q1973.03 939 1973.03 961.95L1973.03 961.95Q1973.03 978.52 1947.53 1031.44Q1922.03 1084.35 1902.90 1117.50L1902.90 1117.50L2073.75 1103.47L2086.50 1103.47Q2117.10 1103.47 2131.13 1118.14Q2145.15 1132.80 2145.15 1141.09Q2145.15 1149.38 2140.05 1155.75Q2134.95 1162.13 2132.40 1168.50L2132.40 1168.50Q2080.13 1395.45 1929.68 1563.75L1929.68 1563.75Q1814.92 1691.25 1704 1748.63L1704 1748.63Q1660.65 1770.30 1649.17 1770.30Q1637.70 1770.30 1637.70 1761.38L1637.70 1761.38Q1637.70 1748.63 1660.65 1732.05L1660.65 1732.05Q1765.20 1654.28 1865.92 1535.70L1865.92 1535.70Q1788.15 1440.08 1764.56 1419.67Q1740.97 1399.28 1740.97 1388.44Q1740.97 1377.60 1755 1364.21Q1769.03 1350.83 1778.59 1350.83Q1788.15 1350.83 1821.30 1381.43Q1854.45 1412.03 1909.28 1478.33L1909.28 1478.33Q1944.97 1422.22 1962.83 1392.90L1962.83 1392.90Q1905.45 1331.70 1855.72 1294.72L1855.72 1294.72Q1840.42 1280.70 1840.42 1269.86Q1840.42 1259.03 1855.72 1246.28Q1871.03 1233.53 1877.40 1233.53ZM2521.28 1195.28L2521.28 1195.28Q2460.07 1109.85 2432.03 1085.63Q2403.98 1061.40 2403.98 1052.47Q2403.98 1043.55 2419.28 1032.71Q2434.57 1021.88 2444.14 1021.88Q2453.70 1021.88 2476.65 1042.28Q2499.60 1062.67 2525.74 1090.72Q2551.88 1118.78 2570.36 1143Q2588.85 1167.22 2588.85 1175.51Q2588.85 1183.80 2572.28 1197.19Q2555.70 1210.58 2544.23 1210.58Q2532.75 1210.58 2521.28 1195.28ZM2628.38 2030.40L2628.38 2030.40Q2560.80 1942.43 2437.13 1830.23L2437.13 1830.23Q2423.10 1818.75 2423.10 1803.45Q2423.10 1788.15 2439.68 1776.04Q2456.25 1763.93 2463.90 1763.93Q2471.55 1763.93 2498.33 1784.96Q2525.10 1806 2560.16 1837.88Q2595.23 1869.75 2628.38 1903.54Q2661.53 1937.33 2683.84 1963.46Q2706.15 1989.60 2706.15 2001.08Q2706.15 2012.55 2686.39 2031.68Q2666.63 2050.80 2655.79 2050.80Q2644.95 2050.80 2628.38 2030.40ZM2336.40 2029.13L2336.40 2029.13Q2322.38 2029.13 2300.70 1992.15L2300.70 1992.15Q2253.53 1914.38 2174.47 1826.40L2174.47 1826.40Q2163 1812.38 2163 1802.81Q2163 1793.25 2176.39 1779.86Q2189.78 1766.48 2199.97 1766.48Q2210.18 1766.48 2231.85 1785.60Q2253.53 1804.73 2279.66 1834.05Q2305.80 1863.38 2330.66 1894.61Q2355.53 1925.85 2372.10 1950.08Q2388.68 1974.30 2388.68 1984.50Q2388.68 1994.70 2377.20 2005.54Q2365.73 2016.38 2352.98 2022.75Q2340.23 2029.13 2336.40 2029.13ZM1623.67 1983.23L1623.67 1983.23Q1714.20 1892.70 1767.75 1788.15L1767.75 1788.15Q1774.13 1777.95 1778.59 1772.21Q1783.05 1766.48 1789.42 1766.48Q1795.80 1766.48 1808.55 1771.58L1808.55 1771.58Q1842.97 1785.60 1842.97 1804.73L1842.97 1804.73Q1842.97 1817.48 1804.09 1879.95Q1765.20 1942.43 1739.06 1978.13Q1712.92 2013.83 1693.16 2035.50Q1673.40 2057.18 1663.84 2057.18Q1654.28 2057.18 1633.24 2040.60Q1612.20 2024.03 1612.20 2009.36Q1612.20 1994.70 1623.67 1983.23ZM1934.78 1808.55L1934.78 1808.55Q1934.78 1785.60 1978.13 1771.58L1978.13 1771.58Q1994.70 1771.58 2033.59 1832.14Q2072.47 1892.70 2094.79 1937.33Q2117.10 1981.95 2117.10 1986.41Q2117.10 1990.88 2098.61 2007.45Q2080.13 2024.03 2059.72 2024.03L2059.72 2024.03Q2044.43 2024.03 2030.40 1989.60L2030.40 1989.60Q2003.63 1915.65 1944.97 1831.50L1944.97 1831.50Q1934.78 1817.48 1934.78 1808.55Z"/>
  </svg>