<svg xmlns="http://www.w3.org/2000/svg" viewBox="0 0 3000 3000" width="3000" height="3000">
    <path fill="#000000" d="M972.15 1292.17L972.15 1292.17L996.37 1265.40Q1071.60 1306.20 1152.56 1355.93Q1233.52 1405.65 1305.56 1454.10Q1377.60 1502.55 1424.77 1540.80L1424.77 1540.80L1400.55 1572.68Q1354.65 1533.15 1282.61 1484.06Q1210.57 1434.97 1128.97 1383.97Q1047.38 1332.97 972.15 1292.17ZM1001.47 997.65L1001.47 997.65L1038.45 997.65Q1034.63 1136.63 1017.41 1235.44Q1000.20 1334.25 958.76 1401.19Q917.32 1468.13 841.46 1510.20Q765.60 1552.28 643.20 1579.05L643.20 1579.05Q641.92 1575.22 637.46 1569.49Q633.00 1563.75 628.54 1558.01Q624.07 1552.28 620.25 1549.72L620.25 1549.72Q741.37 1524.22 814.69 1484.70Q888.00 1445.18 927.52 1382.06Q967.05 1318.95 982.35 1225.24Q997.65 1131.53 1001.47 997.65ZM780.90 1092L780.90 1092L816.60 1100.92Q796.20 1160.85 763.69 1224.60Q731.17 1288.35 687.82 1329.15L687.82 1329.15L654.67 1311.30Q695.47 1273.05 729.26 1212.49Q763.05 1151.92 780.90 1092ZM769.42 1636.43L769.42 1636.43L806.40 1644.08Q786.00 1714.20 751.57 1786.24Q717.15 1858.28 668.70 1906.73L668.70 1906.73L638.10 1883.78Q682.72 1840.43 717.15 1773.49Q751.57 1706.55 769.42 1636.43ZM1302.37 1084.35L1302.37 1084.35L1338.07 1104.75Q1303.65 1159.58 1260.30 1221.41Q1216.95 1283.25 1178.70 1326.60L1178.70 1326.60L1149.38 1311.30Q1174.88 1281.97 1203.56 1241.81Q1232.25 1201.65 1258.39 1159.58Q1284.52 1117.50 1302.37 1084.35ZM1317.67 1628.78L1317.67 1628.78L1353.38 1647.90Q1327.88 1687.43 1296.00 1731.41Q1264.12 1775.40 1232.25 1815.56Q1200.38 1855.73 1171.05 1886.33L1171.05 1886.33L1143 1869.75Q1172.32 1839.15 1204.84 1796.44Q1237.35 1753.73 1267.31 1709.10Q1297.27 1664.47 1317.67 1628.78ZM993.82 1517.85L993.82 1517.85L1030.80 1517.85Q1025.70 1664.47 1006.57 1771.58Q987.45 1878.68 940.27 1951.99Q893.10 2025.30 805.76 2072.47Q718.42 2119.65 576.90 2148.97L576.90 2148.97Q575.62 2143.88 571.16 2138.14Q566.70 2132.40 562.24 2126.66Q557.77 2120.93 553.95 2117.10L553.95 2117.10Q664.87 2095.43 740.74 2062.28Q816.60 2029.13 864.41 1981.95Q912.22 1934.78 939.00 1869.75Q965.77 1804.73 977.89 1717.39Q990.00 1630.05 993.82 1517.85ZM984.90 1702.73L1015.50 1696.35Q1049.92 1860.83 1154.47 1972.39Q1259.02 2083.95 1443.90 2110.72L1443.90 2110.72Q1440.07 2114.55 1434.97 2120.93Q1429.88 2127.30 1425.41 2133.04Q1420.95 2138.78 1417.13 2143.88L1417.13 2143.88Q1292.17 2120.93 1204.20 2061.64Q1116.22 2002.35 1062.67 1911.19Q1009.12 1820.03 984.90 1702.73L984.90 1702.73ZM353.77 1041L353.77 1041L378.00 1014.22Q417.52 1033.35 459.60 1058.21Q501.67 1083.08 538.01 1109.85Q574.35 1136.63 597.30 1159.58L597.30 1159.58L574.35 1191.45Q551.40 1167.22 514.42 1139.81Q477.45 1112.40 436.01 1086.26Q394.57 1060.13 353.77 1041ZM286.20 1387.80L286.20 1387.80L310.42 1359.75Q349.95 1377.60 390.11 1401.19Q430.27 1424.78 465.97 1449.64Q501.67 1474.50 523.35 1496.18L523.35 1496.18L501.67 1528.05Q478.72 1506.38 443.02 1480.88Q407.32 1455.38 366.52 1430.51Q325.72 1405.65 286.20 1387.80ZM356.32 2115.83L323.17 2089.05Q355.05 2039.33 392.66 1969.84Q430.27 1900.35 468.52 1823.85Q506.77 1747.35 537.37 1677.23L537.37 1677.23L567.97 1701.45Q538.65 1767.75 502.31 1842.34Q465.97 1916.93 427.72 1988.33Q389.47 2059.72 356.32 2115.83L356.32 2115.83ZM2122.20 1326.60L2122.20 1288.35L2697.23 1288.35L2697.23 1326.60L2122.20 1326.60ZM2364.45 1303.65L2398.88 1296Q2423.10 1413.30 2465.81 1512.11Q2508.53 1610.93 2571 1685.51Q2633.48 1760.10 2715.07 1803.45L2715.07 1803.45Q2709.98 1807.28 2704.88 1812.38Q2699.78 1817.48 2695.31 1822.58Q2690.85 1827.68 2687.03 1832.78L2687.03 1832.78Q2605.43 1784.33 2541.68 1707.19Q2477.93 1630.05 2433.94 1527.41Q2389.95 1424.78 2364.45 1303.65L2364.45 1303.65ZM1794.53 1293.45L1794.53 1293.45L1816.20 1266.67Q1854.45 1283.25 1894.61 1304.93Q1934.78 1326.60 1971.11 1348.28Q2007.45 1369.95 2030.40 1389.08L2030.40 1389.08L2010 1420.95Q1987.05 1401.83 1950.71 1378.88Q1914.38 1355.93 1873.58 1332.97Q1832.78 1310.03 1794.53 1293.45ZM2474.10 1058.85L2474.10 1058.85L2502.15 1038.45Q2546.78 1076.70 2591.40 1125.15Q2636.03 1173.60 2660.25 1210.58L2660.25 1210.58L2629.65 1234.80Q2606.70 1197.83 2562.71 1148.10Q2518.73 1098.38 2474.10 1058.85ZM1682.33 1452.83L1682.33 1452.83L1706.55 1428.60Q1742.25 1446.45 1779.86 1470.68Q1817.47 1494.90 1850.63 1519.76Q1883.78 1544.63 1904.18 1565.03L1904.18 1565.03L1881.22 1594.35Q1859.55 1573.95 1826.40 1548.45Q1793.25 1522.95 1755.64 1498.09Q1718.03 1473.22 1682.33 1452.83ZM1849.35 990L1849.35 990L1886.33 1000.20Q1858.28 1083.08 1814.29 1170.41Q1770.30 1257.75 1713.56 1337.44Q1656.83 1417.13 1589.25 1479.60L1589.25 1479.60Q1584.15 1473.22 1575.86 1466.85Q1567.58 1460.47 1561.20 1455.38L1561.20 1455.38Q1627.50 1395.45 1682.96 1317.68Q1738.42 1239.90 1781.14 1155.11Q1823.85 1070.32 1849.35 990ZM2083.95 1128.97L2083.95 1118.78L2092.88 1118.78L2101.80 1116.22L2122.20 1127.70Q2082.68 1307.47 2006.18 1440.71Q1929.68 1573.95 1827.67 1665.75Q1725.67 1757.55 1608.38 1813.65L1608.38 1813.65Q1607.10 1808.55 1602.64 1803.45Q1598.17 1798.35 1593.08 1792.61Q1587.97 1786.88 1582.88 1784.33L1582.88 1784.33Q1698.90 1730.78 1798.99 1642.16Q1899.08 1553.55 1973.66 1426.05Q2048.25 1298.55 2083.95 1128.97L2083.95 1128.97ZM1789.42 1155.75L1803.45 1118.78L2103.07 1118.78L2103.07 1155.75L1789.42 1155.75ZM2367 1211.85L2367 1009.13L2405.25 1009.13L2405.25 1211.85Q2405.25 1287.08 2393.78 1368.04Q2382.30 1449 2345.96 1530.60Q2309.63 1612.20 2236.95 1688.06Q2164.28 1763.93 2043.15 1830.23L2043.15 1830.23Q2038.05 1823.85 2029.76 1816.20Q2021.47 1808.55 2013.83 1803.45L2013.83 1803.45Q2133.68 1739.70 2204.44 1665.75Q2275.20 1591.80 2310.26 1513.39Q2345.32 1434.97 2356.16 1357.84Q2367 1280.70 2367 1211.85L2367 1211.85ZM1962.83 1909.28L1962.83 1909.28L1997.25 1908Q2010 1962.83 2018.29 2025.30Q2026.58 2087.78 2027.85 2128.58L2027.85 2128.58L1990.88 2133.68Q1990.88 2104.35 1987.05 2066.10Q1983.22 2027.85 1977.49 1986.41Q1971.75 1944.98 1962.83 1909.28ZM2229.30 1906.73L2229.30 1906.73L2263.73 1899.08Q2282.85 1934.78 2300.70 1976.21Q2318.55 2017.65 2332.57 2056.54Q2346.60 2095.43 2352.98 2124.75L2352.98 2124.75L2317.28 2134.95Q2305.80 2090.33 2281.57 2025.94Q2257.35 1961.55 2229.30 1906.73ZM2495.78 1896.53L2495.78 1896.53L2528.93 1882.50Q2564.63 1919.48 2599.69 1964.74Q2634.75 2010 2664.71 2053.35Q2694.68 2096.70 2712.53 2129.85L2712.53 2129.85L2678.10 2146.43Q2661.53 2113.28 2631.56 2069.29Q2601.60 2025.30 2566.54 1980.04Q2531.48 1934.78 2495.78 1896.53ZM1746.08 1888.88L1746.08 1888.88L1777.95 1897.80Q1742.25 1960.28 1695.71 2027.85Q1649.17 2095.43 1600.72 2142.60L1600.72 2142.60L1567.58 2128.58Q1600.72 2097.97 1633.24 2058.45Q1665.75 2018.93 1695.08 1974.94Q1724.40 1930.95 1746.08 1888.88Z"/>
  </svg>