<svg xmlns="http://www.w3.org/2000/svg" viewBox="0 0 3000 3000" width="3000" height="3000">
    <path fill="#000000" d="M879.07 1759.46L879.07 1759.46Q879.07 1749.26 859.95 1721.21Q840.82 1693.16 814.05 1662.56Q787.27 1631.96 761.77 1608.38Q736.27 1584.79 723.52 1584.79L723.52 1584.79Q708.22 1584.79 691.01 1602Q673.80 1619.21 673.80 1634.51L673.80 1634.51Q673.80 1647.26 690.37 1663.84L690.37 1663.84Q714.60 1689.34 741.37 1723.76Q768.15 1758.19 784.72 1786.24L784.72 1786.24Q801.30 1813.01 820.42 1813.01L820.42 1813.01Q826.80 1813.01 840.19 1807.28Q853.57 1801.54 866.32 1788.79Q879.07 1776.04 879.07 1759.46ZM1330.42 1631.96L1330.42 1631.96Q1330.42 1615.39 1315.76 1598.18Q1301.10 1580.96 1283.25 1568.21Q1265.40 1555.46 1252.65 1555.46L1252.65 1555.46Q1234.80 1555.46 1230.97 1586.06L1230.97 1586.06Q1228.42 1611.56 1203.56 1644.08Q1178.70 1676.59 1146.19 1707.83Q1113.67 1739.06 1090.72 1758.19Q1067.77 1777.31 1067.77 1792.61L1067.77 1792.61Q1067.77 1809.19 1088.17 1809.19L1088.17 1809.19Q1100.92 1809.19 1128.97 1794.53Q1157.02 1779.86 1190.17 1758.83Q1223.32 1737.79 1255.20 1714.20Q1287.07 1690.61 1308.75 1668.30Q1330.42 1645.99 1330.42 1631.96ZM376.72 2023.39L376.72 2023.39L380.55 2023.39Q402.22 2023.39 413.06 2006.81Q423.90 1990.24 439.20 1966.01L439.20 1966.01Q495.30 1872.94 536.74 1789.43Q578.17 1705.91 601.76 1645.35Q625.35 1584.79 625.35 1561.84Q625.35 1538.89 610.05 1538.89L610.05 1538.89Q592.20 1538.89 567.97 1580.96L567.97 1580.96Q523.35 1661.29 467.25 1747.35Q411.15 1833.41 353.77 1912.46L353.77 1912.46Q344.85 1923.94 333.37 1934.14Q321.90 1944.34 309.15 1953.26L309.15 1953.26Q293.85 1963.46 293.85 1973.66Q293.85 1983.86 319.99 2002.35Q346.12 2020.84 376.72 2023.39ZM1057.57 1527.41L1057.57 1527.41L1057.57 1524.86Q1057.57 1505.74 1035.90 1494.26Q1014.22 1482.79 990.00 1477.05Q965.77 1471.31 951.75 1471.31L951.75 1471.31Q930.07 1471.31 930.07 1487.89L930.07 1487.89Q930.07 1495.54 936.45 1505.74L936.45 1505.74Q944.10 1518.49 946.01 1533.15Q947.92 1547.81 947.92 1558.01L947.92 1558.01Q944.10 1637.06 927.52 1703.36Q910.95 1769.66 869.51 1827.68Q828.07 1885.69 747.75 1939.24Q667.42 1992.79 537.37 2046.34L537.37 2046.34Q505.50 2059.09 505.50 2076.94L505.50 2076.94Q505.50 2093.51 532.27 2093.51L532.27 2093.51Q542.47 2093.51 581.36 2084.59Q620.25 2075.66 675.07 2055.90Q729.90 2036.14 789.82 2004.90Q849.75 1973.66 902.02 1929.68Q954.30 1885.69 977.25 1837.24L977.25 1837.24Q1020.60 1886.96 1079.25 1930.95Q1137.90 1974.94 1194.64 2005.54Q1251.37 2036.14 1298.55 2055.90Q1345.72 2075.66 1373.77 2083.31L1373.77 2083.31L1403.10 2092.24Q1423.50 2092.24 1437.52 2075.03Q1451.55 2057.81 1459.84 2041.24Q1468.13 2024.66 1468.13 2022.11L1468.13 2022.11Q1468.13 2006.81 1440.07 1999.16L1440.07 1999.16Q1355.92 1973.66 1280.06 1942.43Q1204.20 1911.19 1137.26 1864.01Q1070.32 1816.84 1016.77 1749.26L1016.77 1749.26Q1033.35 1702.09 1043.55 1644.71Q1053.75 1587.34 1057.57 1527.41ZM473.62 1496.81L473.62 1496.81Q494.02 1513.39 506.14 1513.39Q518.25 1513.39 529.09 1501.91Q539.92 1490.44 547.57 1476.41Q555.22 1462.39 555.22 1453.46L555.22 1453.46Q555.22 1438.16 532.27 1419.04L532.27 1419.04Q511.87 1403.74 481.91 1381.43Q451.95 1359.11 420.07 1337.44Q388.20 1315.76 363.34 1301.10Q338.47 1286.44 328.27 1286.44L328.27 1286.44Q315.52 1286.44 301.50 1305.56Q287.47 1324.69 287.47 1338.71L287.47 1338.71Q287.47 1355.29 309.15 1368.04L309.15 1368.04Q389.47 1422.86 473.62 1496.81ZM867.60 1300.46L867.60 1300.46Q893.10 1280.06 893.10 1263.49L893.10 1263.49Q893.10 1253.29 874.61 1226.51Q856.12 1199.74 829.99 1169.78Q803.85 1139.81 778.35 1116.22Q752.85 1092.64 737.55 1092.64L737.55 1092.64Q723.52 1092.64 703.12 1108.58Q682.72 1124.51 682.72 1139.81L682.72 1139.81Q682.72 1150.01 699.30 1166.59L699.30 1166.59Q729.90 1194.64 754.12 1226.51Q778.35 1258.39 798.75 1291.54L798.75 1291.54Q815.32 1317.04 831.90 1317.04Q848.47 1317.04 867.60 1300.46ZM1229.70 1106.66L1229.70 1106.66Q1228.42 1111.76 1226.51 1118.14Q1224.60 1124.51 1220.77 1128.34L1220.77 1128.34Q1196.55 1161.49 1162.76 1197.19Q1128.97 1232.89 1090.72 1263.49L1090.72 1263.49Q1070.32 1281.34 1070.32 1294.09L1070.32 1294.09Q1070.32 1297.91 1071.60 1301.74L1071.60 1301.74Q1051.20 1281.34 1032.07 1259.66L1032.07 1259.66Q1046.10 1204.84 1051.84 1139.81Q1057.57 1074.79 1057.57 1017.41L1057.57 1017.41L1057.57 998.29Q1057.57 971.51 1034.63 959.40Q1011.67 947.29 988.72 944.10Q965.77 940.91 959.40 940.91L959.40 940.91Q936.45 940.91 936.45 957.49L936.45 957.49Q936.45 961.31 942.82 974.06L942.82 974.06Q947.92 985.54 950.47 999.56Q953.02 1013.59 953.02 1022.51L953.02 1022.51Q953.02 1035.26 953.66 1050.56Q954.30 1065.86 954.30 1081.16L954.30 1081.16Q954.30 1135.99 948.56 1190.81Q942.82 1245.64 916.69 1301.74Q890.55 1357.84 831.26 1414.58Q771.97 1471.31 663.60 1527.41L663.60 1527.41Q633.00 1541.44 633.00 1559.29L633.00 1559.29Q633.00 1575.86 654.67 1575.86L654.67 1575.86Q662.32 1575.86 692.29 1566.30Q722.25 1556.74 764.96 1536.97Q807.67 1517.21 853.57 1489.80Q899.47 1462.39 940.27 1424.78Q981.07 1387.16 1000.20 1348.91L1000.20 1348.91Q1048.65 1401.19 1107.94 1442.63Q1167.22 1484.06 1220.77 1510.20Q1274.32 1536.34 1311.30 1548.45Q1348.27 1560.56 1359.75 1560.56L1359.75 1560.56Q1378.88 1560.56 1391.63 1544.63Q1404.38 1528.69 1412.02 1512.11L1412.02 1512.11L1418.40 1496.81Q1418.40 1480.24 1391.63 1471.31L1391.63 1471.31Q1273.05 1438.16 1183.80 1384.61L1183.80 1384.61Q1125.15 1350.19 1077.97 1308.11L1077.97 1308.11Q1083.07 1309.39 1089.45 1309.39L1089.45 1309.39Q1103.47 1309.39 1131.52 1296Q1159.57 1282.61 1192.72 1262.85Q1225.88 1243.09 1257.75 1221.41Q1289.62 1199.74 1310.66 1178.06Q1331.70 1156.39 1331.70 1142.36Q1331.70 1128.34 1317.67 1111.13Q1303.65 1093.91 1285.80 1080.53Q1267.95 1067.14 1252.65 1067.14L1252.65 1067.14Q1230.97 1067.14 1230.97 1097.74L1230.97 1097.74L1229.70 1101.56Q1229.70 1104.11 1229.70 1106.66ZM598.57 1248.19L598.57 1248.19Q604.95 1248.19 617.06 1238.63Q629.17 1229.06 640.01 1216.31Q650.85 1203.56 650.85 1189.54L650.85 1189.54Q650.85 1172.96 633.00 1158.94L633.00 1158.94Q610.05 1137.26 581.36 1111.13Q552.67 1084.99 523.35 1061.40Q494.02 1037.81 470.44 1021.88Q446.85 1005.94 434.74 1005.94Q422.62 1005.94 407.32 1022.51Q392.02 1039.09 392.02 1054.39Q392.02 1069.69 411.15 1084.99L411.15 1084.99Q446.85 1113.04 489.56 1151.92Q532.27 1190.81 567.97 1229.06L567.97 1229.06Q587.10 1248.19 598.57 1248.19ZM2124.75 2031.04L2124.75 2031.04Q2124.75 2028.49 2113.28 2005.54Q2101.80 1982.59 2084.59 1950.71Q2067.38 1918.84 2047.61 1888.24Q2027.85 1857.64 2010 1834.69Q1992.15 1811.74 1976.85 1811.74L1976.85 1811.74L1964.10 1815.56Q1952.63 1820.66 1939.88 1830.23Q1927.13 1839.79 1927.13 1856.36L1927.13 1856.36Q1927.13 1867.84 1938.60 1883.14L1938.60 1883.14Q1964.10 1920.11 1987.69 1962.83Q2011.28 2005.54 2026.58 2046.34L2026.58 2046.34Q2039.33 2079.49 2059.72 2079.49L2059.72 2079.49Q2069.93 2079.49 2084.59 2071.84Q2099.25 2064.19 2112 2053.35Q2124.75 2042.51 2124.75 2031.04ZM1604.55 2051.44L1604.55 2051.44Q1604.55 2061.64 1613.47 2075.66Q1622.40 2089.69 1637.06 2101.16Q1651.72 2112.64 1664.47 2112.64Q1677.22 2112.64 1698.26 2089.69Q1719.30 2066.74 1745.44 2030.40Q1771.58 1994.06 1797.71 1951.99Q1823.85 1909.91 1845.53 1869.11L1845.53 1869.11Q1850.63 1861.46 1850.63 1852.54L1850.63 1852.54Q1850.63 1837.24 1837.88 1827.68Q1825.13 1818.11 1811.10 1812.38Q1797.08 1806.64 1790.70 1806.64L1790.70 1806.64Q1779.22 1806.64 1773.49 1814.29Q1767.75 1821.94 1761.38 1832.14L1761.38 1832.14Q1737.15 1879.31 1697.63 1932.23Q1658.10 1985.14 1618.58 2025.94L1618.58 2025.94Q1604.55 2039.96 1604.55 2051.44ZM2396.32 2031.04L2396.32 2031.04Q2396.32 2019.56 2379.11 1994.06Q2361.90 1968.56 2337.04 1937.33Q2312.18 1906.09 2285.40 1876.76Q2258.63 1847.44 2235.68 1827.04Q2212.72 1806.64 2202.53 1806.64L2202.53 1806.64Q2187.22 1806.64 2171.29 1822.58Q2155.35 1838.51 2155.35 1849.99L2155.35 1849.99Q2155.35 1862.74 2168.10 1879.31L2168.10 1879.31Q2203.80 1918.84 2238.22 1963.46Q2272.65 2008.09 2301.98 2056.54L2301.98 2056.54Q2318.55 2084.59 2336.40 2084.59L2336.40 2084.59Q2341.50 2084.59 2355.53 2077.58Q2369.55 2070.56 2382.94 2058.45Q2396.32 2046.34 2396.32 2031.04ZM2690.85 2084.59L2690.85 2084.59Q2713.80 2064.19 2713.80 2047.61L2713.80 2047.61Q2713.80 2034.86 2690.21 2007.45Q2666.63 1980.04 2633.48 1946.25Q2600.32 1912.46 2565.26 1879.95Q2530.20 1847.44 2502.15 1825.76Q2474.10 1804.09 2463.90 1804.09Q2453.70 1804.09 2434.57 1818.11Q2415.45 1832.14 2415.45 1852.54L2415.45 1852.54Q2415.45 1870.39 2432.03 1884.41L2432.03 1884.41Q2484.30 1930.31 2532.75 1980.04Q2581.20 2029.76 2622 2083.31L2622 2083.31Q2641.13 2106.26 2655.15 2106.26Q2669.18 2106.26 2690.85 2084.59ZM2596.50 1222.69L2596.50 1222.69Q2596.50 1212.49 2577.38 1186.99Q2558.25 1161.49 2531.48 1133.44Q2504.70 1105.39 2480.48 1083.71Q2456.25 1062.04 2444.78 1062.04L2444.78 1062.04Q2432.03 1062.04 2414.18 1074.79Q2396.32 1087.54 2396.32 1101.56L2396.32 1101.56Q2396.32 1113.04 2411.63 1125.79L2411.63 1125.79Q2437.13 1147.46 2462.63 1179.34Q2488.13 1211.21 2514.90 1248.19L2514.90 1248.19Q2528.93 1266.04 2541.68 1266.04L2541.68 1266.04Q2558.25 1266.04 2577.38 1250.74Q2596.50 1235.44 2596.50 1222.69ZM1868.47 1239.26L1868.47 1239.26L2040.60 1225.24Q2032.95 1257.11 2018.93 1297.28Q2004.90 1337.44 1990.88 1368.04L1990.88 1368.04Q1955.18 1331.06 1932.22 1309.39Q1909.28 1287.71 1897.80 1280.70Q1886.33 1273.69 1876.13 1273.69L1876.13 1273.69Q1868.47 1273.69 1850.63 1288.35Q1832.78 1303.01 1832.78 1319.59L1832.78 1319.59Q1832.78 1332.34 1850.63 1348.91L1850.63 1348.91Q1872.30 1365.49 1900.99 1390.99Q1929.68 1416.49 1953.90 1441.99L1953.90 1441.99Q1943.70 1458.56 1930.31 1479.60Q1916.93 1500.64 1908 1513.39L1908 1513.39Q1859.55 1454.74 1825.13 1422.86Q1790.70 1390.99 1777.95 1390.99L1777.95 1390.99Q1766.47 1390.99 1749.90 1406.29Q1733.33 1421.59 1733.33 1436.89L1733.33 1436.89Q1733.33 1450.91 1751.17 1467.49L1751.17 1467.49Q1775.40 1486.61 1803.45 1520.40Q1831.50 1554.19 1855.72 1583.51L1855.72 1583.51Q1808.55 1639.61 1760.10 1685.51Q1711.65 1731.41 1655.55 1773.49L1655.55 1773.49Q1630.05 1792.61 1630.05 1809.19Q1630.05 1825.76 1650.45 1825.76L1650.45 1825.76Q1661.92 1825.76 1705.91 1803.45Q1749.90 1781.14 1810.46 1734.60Q1871.03 1688.06 1935.41 1616.66Q1999.80 1545.26 2055.90 1445.81L2055.90 1445.81Q2085.22 1392.26 2108.18 1329.79L2108.18 1329.79Q2128.57 1371.86 2148.97 1379.51L2148.97 1379.51Q2170.65 1388.44 2188.50 1388.44L2188.50 1388.44Q2196.15 1388.44 2205.71 1388.44Q2215.28 1388.44 2228.03 1387.16L2228.03 1387.16L2266.28 1384.61Q2242.05 1472.59 2171.93 1570.13Q2101.80 1667.66 2003.63 1742.89L2003.63 1742.89Q1981.95 1760.74 1981.95 1776.04L1981.95 1776.04Q1981.95 1793.89 2002.35 1793.89L2002.35 1793.89Q2008.73 1793.89 2037.41 1781.14Q2066.10 1768.39 2107.54 1741.61Q2148.97 1714.84 2194.88 1670.21Q2240.78 1625.59 2281.57 1561.84Q2322.38 1498.09 2346.60 1426.69L2346.60 1426.69Q2383.57 1490.44 2433.94 1557.38Q2484.30 1624.31 2530.20 1674.04Q2576.10 1723.76 2609.25 1752.45Q2642.40 1781.14 2652.60 1781.14L2652.60 1781.14Q2666.63 1781.14 2683.84 1771.58Q2701.05 1762.01 2715.07 1749.90Q2729.10 1737.79 2729.10 1727.59L2729.10 1727.59Q2729.10 1713.56 2707.43 1700.81L2707.43 1700.81Q2619.45 1640.89 2542.31 1556.10Q2465.18 1471.31 2402.70 1374.41L2402.70 1374.41L2614.35 1359.11Q2650.05 1355.29 2650.05 1334.89L2650.05 1334.89Q2650.05 1322.14 2636.03 1307.47Q2622 1292.81 2604.79 1282.61Q2587.57 1272.41 2574.82 1272.41L2574.82 1272.41Q2565.90 1272.41 2556.98 1277.51L2556.98 1277.51Q2544.23 1281.34 2531.48 1283.25Q2518.73 1285.16 2505.98 1286.44L2505.98 1286.44L2378.48 1295.36Q2389.95 1234.16 2393.14 1157.66Q2396.32 1081.16 2396.32 991.91L2396.32 991.91Q2396.32 967.69 2377.20 956.21Q2358.07 944.74 2337.04 941.55Q2316 938.36 2305.80 938.36L2305.80 938.36Q2276.48 938.36 2276.48 956.21L2276.48 956.21Q2276.48 965.14 2284.13 972.79L2284.13 972.79Q2294.32 984.26 2297.51 998.29Q2300.70 1012.31 2300.70 1028.89L2300.70 1028.89L2300.70 1060.76Q2300.70 1119.41 2296.88 1181.89Q2293.05 1244.36 2284.13 1301.74L2284.13 1301.74L2201.25 1308.11Q2196.15 1308.11 2191.05 1308.75Q2185.95 1309.39 2179.57 1309.39L2179.57 1309.39Q2166.82 1309.39 2155.35 1308.11Q2143.88 1306.84 2133.68 1304.29L2133.68 1304.29Q2128.57 1303.01 2122.20 1303.01L2122.20 1303.01Q2119.65 1303.01 2117.10 1303.01L2117.10 1303.01Q2129.85 1262.21 2140.05 1218.86L2140.05 1218.86Q2141.32 1213.76 2147.06 1206.75Q2152.80 1199.74 2152.80 1188.26L2152.80 1188.26Q2152.80 1178.06 2136.86 1160.85Q2120.93 1143.64 2086.50 1143.64L2086.50 1143.64L2073.75 1143.64L1916.93 1156.39Q1928.40 1135.99 1944.97 1102.20Q1961.55 1068.41 1971.11 1042.91Q1980.68 1017.41 1980.68 1009.76L1980.68 1009.76Q1980.68 993.19 1962.19 979.16Q1943.70 965.14 1923.94 956.21Q1904.18 947.29 1893.97 947.29L1893.97 947.29Q1876.13 947.29 1876.13 966.41L1876.13 966.41L1876.13 972.79Q1877.40 976.61 1877.40 979.80Q1877.40 982.99 1877.40 986.81L1877.40 986.81Q1877.40 1003.39 1854.45 1069.05Q1831.50 1134.71 1776.04 1237.35Q1720.58 1339.99 1621.13 1470.04L1621.13 1470.04Q1608.38 1487.89 1608.38 1503.19Q1608.38 1518.49 1624.95 1518.49L1624.95 1518.49Q1635.15 1518.49 1660.65 1495.54Q1686.15 1472.59 1721.85 1434.34Q1757.55 1396.09 1796.44 1344.45Q1835.33 1292.81 1868.47 1239.26Z"/>
  </svg>