<svg xmlns="http://www.w3.org/2000/svg" viewBox="0 0 3000 3000" width="3000" height="3000">
    <path fill="#000000" d="M696.75 1595.63L696.75 1595.63L706.95 1580.32L710.77 1593.07Q715.87 1605.83 718.42 1623.67Q720.97 1641.53 728.62 1651.72L728.62 1651.72Q732.45 1658.10 739.46 1655.55Q746.47 1653 773.25 1636.42L773.25 1636.42Q824.25 1605.83 812.77 1621.13L812.77 1621.13Q810.22 1624.95 806.40 1628.78L806.40 1628.78Q794.92 1641.53 794.92 1647.26Q794.92 1653 787.27 1659.38Q779.62 1665.75 779.62 1675.31Q779.62 1684.88 755.40 1707.83Q731.17 1730.78 731.17 1735.24Q731.17 1739.70 722.25 1761.38L722.25 1761.38Q717.15 1774.13 712.69 1777.31Q708.22 1780.50 696.75 1780.50L696.75 1780.50Q666.15 1780.50 658.50 1730.78L658.50 1730.78Q648.30 1663.20 696.75 1595.63ZM903.30 1419.67L903.30 1419.67Q914.77 1400.55 922.42 1413.30L922.42 1413.30Q924.97 1417.13 951.75 1427.32L951.75 1427.32Q972.15 1432.42 975.34 1436.25Q978.52 1440.07 977.25 1451.55L977.25 1451.55Q974.70 1466.85 977.89 1468.76Q981.07 1470.67 978.52 1531.88L978.52 1531.88Q977.25 1584.15 981.71 1586.70Q986.17 1589.25 1023.15 1557.38L1023.15 1557.38Q1093.27 1497.45 1093.27 1485.97L1093.27 1485.97Q1093.27 1482.15 1106.02 1478.32L1106.02 1478.32Q1127.70 1473.22 1143 1503.82L1143 1503.82Q1145.55 1510.20 1154.47 1522.95L1154.47 1522.95Q1162.13 1536.97 1160.21 1547.81Q1158.30 1558.65 1145.55 1572.67L1145.55 1572.67Q1123.88 1596.90 1071.60 1628.78Q1019.32 1660.65 1000.20 1660.65L1000.20 1660.65Q990.00 1660.65 1007.85 1689.97L1007.85 1689.97Q1014.22 1698.90 1024.42 1714.20L1024.42 1714.20Q1046.10 1749.90 1067.14 1770.30Q1088.17 1790.70 1126.42 1817.47L1126.42 1817.47Q1167.22 1844.25 1181.25 1863.38Q1195.27 1882.50 1201.65 1888.88L1201.65 1888.88Q1246.27 1916.92 1294.72 1937.33L1294.72 1937.33Q1320.22 1948.80 1377.60 1980.67L1377.60 1980.67Q1418.40 1999.80 1427.96 2006.81Q1437.52 2013.83 1437.52 2024.03L1437.52 2024.03Q1437.52 2039.33 1424.14 2045.70Q1410.75 2052.07 1350.82 2082.68L1350.82 2082.68L1290.90 2110.72L1269.22 2101.80Q1246.27 2094.15 1231.61 2079.49Q1216.95 2064.82 1198.46 2052.07Q1179.97 2039.33 1174.24 2034.86Q1168.50 2030.40 1140.45 2006.17L1140.45 2006.17Q1062.67 1941.15 1020.60 1877.40L1020.60 1877.40Q997.65 1840.42 985.54 1827.67Q973.42 1814.92 961.31 1791.97Q949.20 1769.03 943.46 1769.03Q937.72 1769.03 931.35 1789.42L931.35 1789.42Q923.70 1811.10 877.80 1855.09Q831.90 1899.08 786.00 1928.40L786.00 1928.40Q733.72 1961.55 720.97 1966.01Q708.22 1970.47 682.09 1987.69Q655.95 2004.90 621.52 2020.84Q587.10 2036.78 578.17 2036.78L578.17 2036.78Q566.70 2035.50 634.27 1979.40L634.27 1979.40Q661.05 1956.45 715.87 1898.44Q770.70 1840.42 797.47 1804.72L797.47 1804.72Q808.95 1789.42 833.17 1747.35Q857.40 1705.28 856.12 1704L856.12 1704Q853.57 1702.72 845.92 1698.90L845.92 1698.90Q838.27 1695.08 839.55 1691.89Q840.82 1688.70 853.57 1679.78L853.57 1679.78Q870.15 1669.58 873.97 1654.28Q877.80 1638.97 875.25 1610.92L875.25 1610.92Q871.42 1585.42 879.07 1580.32L879.07 1580.32Q885.45 1573.95 893.10 1522.95Q900.75 1471.95 898.20 1447.72L898.20 1447.72Q896.92 1431.15 903.30 1419.67ZM606.22 1415.85L606.22 1415.85Q606.22 1413.30 614.51 1400.55Q622.80 1387.80 627.90 1387.80L627.90 1387.80Q635.55 1387.80 602.40 1457.92L602.40 1457.92Q579.45 1505.10 574.35 1518.49Q569.25 1531.88 559.05 1547.17Q548.85 1562.47 539.29 1580.96Q529.72 1599.45 515.06 1619.85Q500.40 1640.25 500.40 1651.72Q500.40 1663.20 494.02 1673.40L494.02 1673.40Q478.72 1697.63 467.25 1753.72L467.25 1753.72Q459.60 1795.80 448.12 1830.22L448.12 1830.22Q441.75 1845.53 435.37 1877.40L435.37 1877.40Q431.55 1896.53 431.55 1902.26Q431.55 1908 437.92 1911.83L437.92 1911.83Q458.32 1922.03 445.57 1956.45L445.57 1956.45Q439.20 1973.03 420.71 1986.41Q402.22 1999.80 385.65 1999.80L385.65 1999.80Q372.90 1999.80 353.14 1982.59Q333.37 1965.38 333.37 1952.63L333.37 1952.63Q333.37 1939.88 324.45 1932.22L324.45 1932.22Q302.77 1914.38 312.97 1895.25L312.97 1895.25Q320.62 1883.78 314.89 1880.59Q309.15 1877.40 302.14 1857Q295.12 1836.60 291.30 1830.22L291.30 1830.22Q279.82 1817.47 305.32 1786.88L305.32 1786.88Q323.17 1763.92 323.17 1758.83Q323.17 1753.72 356.32 1721.85L356.32 1721.85Q412.42 1664.47 462.15 1605.83L462.15 1605.83L499.12 1559.92Q514.42 1543.35 560.32 1480.88Q606.22 1418.40 606.22 1415.85ZM319.35 1320.22L319.35 1320.22Q330.82 1310.03 334.65 1310.03L334.65 1310.03Q338.47 1307.47 411.15 1344.45L411.15 1344.45L450.67 1363.57L454.50 1392.90Q458.32 1420.95 454.50 1451.55L454.50 1451.55Q453.22 1470.67 450.67 1476.41Q448.12 1482.15 439.20 1484.70L439.20 1484.70Q426.45 1487.25 414.97 1477.05Q403.50 1466.85 397.12 1466.85Q390.75 1466.85 368.44 1441.99Q346.12 1417.13 327.00 1391.63L327.00 1391.63Q296.40 1344.45 319.35 1320.22ZM492.75 1097.10L492.75 1097.10Q496.57 1081.80 496.57 1074.79Q496.57 1067.77 511.87 1062.04Q527.17 1056.30 527.17 1051.20Q527.17 1046.10 545.02 1046.10Q562.87 1046.10 566.06 1051.20Q569.25 1056.30 583.91 1059.49Q598.57 1062.67 601.12 1066.50Q603.67 1070.32 633.00 1093.27L633.00 1093.27L664.87 1117.50L661.05 1143Q655.95 1185.07 608.77 1209.30L608.77 1209.30L590.92 1219.50L565.42 1186.35L529.72 1137.90Q522.07 1123.88 504.22 1118.77L504.22 1118.77Q494.02 1116.22 492.11 1112.40Q490.20 1108.57 492.75 1097.10ZM908.40 958.13L908.40 958.13Q916.05 954.30 924.97 958.13Q933.90 961.95 959.40 978.52L959.40 978.52Q981.07 993.82 988.72 1009.12L988.72 1009.12Q995.10 1028.25 990.00 1079.25Q984.90 1130.25 969.60 1176.15L969.60 1176.15Q967.05 1186.35 969.60 1186.35L969.60 1186.35Q975.97 1186.35 1025.70 1141.72L1025.70 1141.72Q1107.30 1066.50 1132.16 1050.56Q1157.02 1034.63 1168.50 1052.47L1168.50 1052.47Q1173.60 1060.13 1186.99 1067.14Q1200.38 1074.15 1203.56 1080.52Q1206.75 1086.90 1201.65 1099.01Q1196.55 1111.13 1159.57 1135.35Q1122.60 1159.57 1095.82 1165.95L1095.82 1165.95Q1063.95 1176.15 1005.30 1201.65L1005.30 1201.65Q977.25 1214.40 973.42 1214.40L973.42 1214.40Q968.32 1214.40 960.04 1229.70Q951.75 1245 951.75 1250.10L951.75 1250.10Q951.75 1260.30 1034.63 1279.42L1034.63 1279.42Q1088.17 1293.45 1159.57 1329.15Q1230.97 1364.85 1237.35 1381.42L1237.35 1381.42Q1239.90 1389.07 1236.07 1414.57L1236.07 1414.57Q1234.80 1432.42 1230.34 1438.16Q1225.88 1443.90 1210.57 1451.55L1210.57 1451.55Q1186.35 1460.47 1167.22 1454.10Q1148.10 1447.72 1129.61 1433.70Q1111.13 1419.67 1100.29 1413.94Q1089.45 1408.20 1082.44 1401.82Q1075.42 1395.45 1038.45 1369.31Q1001.47 1343.17 972.15 1312.57L972.15 1312.57Q937.72 1284.53 936.45 1289.63L936.45 1289.63Q936.45 1296 912.86 1319.59Q889.27 1343.17 872.70 1354.65L872.70 1354.65Q859.95 1363.57 856.76 1366.76Q853.57 1369.95 790.46 1407.56Q727.35 1445.17 724.16 1450.28Q720.97 1455.38 715.87 1455.38L715.87 1455.38Q704.40 1455.38 724.80 1431.15L724.80 1431.15Q728.62 1427.32 732.45 1422.22L732.45 1422.22Q743.92 1413.30 769.42 1377.60Q794.92 1341.90 794.92 1336.80L794.92 1336.80Q794.92 1332.97 801.30 1325.32L801.30 1325.32Q810.22 1315.13 831.26 1274.96Q852.30 1234.80 852.30 1227.15L852.30 1227.15Q852.30 1222.05 850.39 1222.05Q848.47 1222.05 839.55 1227.15L839.55 1227.15Q819.15 1241.17 792.37 1232.25L792.37 1232.25Q783.45 1228.42 768.15 1195.27L768.15 1195.27L750.30 1160.85L760.50 1143L775.80 1113.67Q780.90 1104.75 789.82 1104.75Q798.75 1104.75 807.67 1113.67L807.67 1113.67Q817.87 1125.15 824.89 1125.15Q831.90 1125.15 831.90 1140.45Q831.90 1155.75 842.10 1164.67Q852.30 1173.60 852.30 1188.26Q852.30 1202.92 857.40 1206.75L857.40 1206.75Q859.95 1208.02 863.14 1202.29Q866.32 1196.55 869.51 1186.35Q872.70 1176.15 872.70 1165.95L872.70 1165.95Q872.70 1151.92 877.80 1137.90L877.80 1137.90Q884.17 1123.88 891.82 1068.41Q899.47 1012.95 899.47 988.72L899.47 988.72Q899.47 963.22 908.40 958.13ZM1924.58 1858.28L1924.58 1858.28Q1924.58 1834.05 1960.28 1857L1960.28 1857Q1981.95 1873.58 2001.08 1897.80L2001.08 1897.80Q2025.30 1930.95 2031.04 1937.33Q2036.78 1943.70 2034.22 1967.92Q2031.68 1992.15 2024.03 2006.17L2024.03 2006.17Q2016.38 2016.38 1994.70 2020.20Q1973.03 2024.03 1961.55 2018.92L1961.55 2018.92Q1946.25 2010 1926.49 1944.34Q1906.72 1878.67 1918.20 1872.30L1918.20 1872.30Q1924.58 1868.47 1924.58 1858.28ZM2389.95 1845.53L2389.95 1845.53Q2396.32 1832.78 2479.20 1842.97L2479.20 1842.97Q2664.07 1867.20 2660.25 1964.10L2660.25 1964.10Q2658.98 1989.60 2662.80 2008.72Q2666.63 2027.85 2652.60 2050.16Q2638.57 2072.47 2632.84 2072.47Q2627.10 2072.47 2617.54 2080.76Q2607.98 2089.05 2582.48 2082.68Q2556.98 2076.30 2548.05 2064.82L2548.05 2064.82Q2522.55 2027.85 2522.55 2007.45L2522.55 2007.45Q2522.55 1998.53 2470.28 1946.25L2470.28 1946.25Q2386.13 1858.28 2389.95 1845.53ZM2147.70 1846.80L2147.70 1846.80Q2147.70 1836.60 2151.53 1834.05Q2155.35 1831.50 2164.28 1831.50L2164.28 1831.50Q2194.88 1831.50 2240.14 1851.90Q2285.40 1872.30 2298.15 1892.70L2298.15 1892.70Q2319.82 1924.58 2298.15 1967.92L2298.15 1967.92Q2277.75 2011.28 2234.40 2010L2234.40 2010Q2206.35 2008.72 2198.06 2003.63Q2189.78 1998.53 2185.95 1979.40L2185.95 1979.40Q2178.30 1956.45 2171.93 1946.25Q2165.55 1936.05 2165.55 1927.13Q2165.55 1918.20 2155.99 1890.15Q2146.43 1862.10 2147.70 1846.80ZM1725.67 1825.13L1725.67 1825.13Q1738.42 1817.47 1742.25 1818.11Q1746.08 1818.75 1757.55 1826.40L1757.55 1826.40Q1779.22 1848.08 1762.65 1879.95L1762.65 1879.95Q1740.97 1919.47 1737.15 1980.67L1737.15 1980.67Q1732.05 2061 1721.85 2078.85Q1711.65 2096.70 1672.13 2097.97L1672.13 2097.97Q1637.70 2099.25 1626.22 2087.78L1626.22 2087.78Q1614.75 2076.30 1612.20 2055.90Q1609.65 2035.50 1613.47 1989.60L1613.47 1989.60Q1614.75 1952.63 1617.94 1943.06Q1621.13 1933.50 1635.15 1923.30L1635.15 1923.30Q1651.72 1909.28 1672.13 1881.22L1672.13 1881.22Q1702.72 1841.70 1725.67 1825.13ZM2290.50 1498.72L2290.50 1498.72Q2305.80 1497.45 2345.32 1498.72L2345.32 1498.72Q2370.82 1500 2386.76 1505.10Q2402.70 1510.20 2437.13 1529.32L2437.13 1529.32Q2490.68 1557.38 2503.43 1568.85L2503.43 1568.85Q2514.90 1580.32 2526.38 1605.19Q2537.85 1630.05 2537.85 1642.80L2537.85 1642.80Q2537.85 1655.55 2531.48 1668.94Q2525.10 1682.33 2520 1682.33L2520 1682.33Q2512.35 1682.33 2507.25 1700.17L2507.25 1700.17Q2498.33 1724.40 2474.10 1724.40L2474.10 1724.40Q2466.45 1724.40 2423.10 1690.61Q2379.75 1656.83 2365.73 1640.25L2365.73 1640.25Q2345.32 1618.58 2279.03 1556.10L2279.03 1556.10Q2247.15 1526.78 2249.70 1515.30Q2252.25 1503.82 2290.50 1498.72ZM1765.20 1320.22L1765.20 1320.22Q1765.20 1315.13 1779.86 1303.65Q1794.53 1292.17 1807.91 1287.07Q1821.30 1281.97 1849.35 1281.97L1849.35 1281.97Q1876.13 1281.97 1886.96 1292.17Q1897.80 1302.38 1897.80 1326.60L1897.80 1326.60Q1897.80 1348.28 1888.24 1357.84Q1878.67 1367.40 1857 1367.40L1857 1367.40Q1831.50 1367.40 1798.35 1350.19Q1765.20 1332.97 1765.20 1320.22ZM2411.63 1069.05L2411.63 1069.05Q2466.45 1056.30 2509.80 1088.17L2509.80 1088.17Q2525.10 1100.92 2528.93 1126.42Q2532.75 1151.92 2535.30 1174.88L2535.30 1174.88Q2537.85 1188.90 2535.94 1195.27Q2534.03 1201.65 2523.83 1210.57L2523.83 1210.57Q2504.70 1227.15 2488.13 1221.41Q2471.55 1215.67 2433.30 1177.42L2433.30 1177.42Q2388.68 1131.52 2379.75 1112.40L2379.75 1112.40Q2374.65 1099.65 2374.65 1095.82Q2374.65 1092 2381.03 1083.07L2381.03 1083.07Q2392.50 1072.88 2411.63 1069.05ZM1885.05 991.27L1885.05 991.27Q1893.97 987.45 1899.71 988.72Q1905.45 990.00 1918.20 998.92L1918.20 998.92Q1937.33 1012.95 1951.35 1028.25L1951.35 1028.25L1966.65 1046.10L1957.72 1066.50Q1948.80 1088.17 1918.20 1116.22L1918.20 1116.22L1868.47 1169.77Q1846.80 1194 1828.95 1207.39Q1811.10 1220.77 1797.08 1232.89Q1783.05 1245 1753.09 1268.59Q1723.13 1292.17 1721.85 1297.28L1721.85 1297.28Q1718.03 1302.38 1700.17 1313.85Q1682.33 1325.32 1681.05 1322.78L1681.05 1322.78Q1677.22 1320.22 1703.36 1283.89Q1729.50 1247.55 1753.72 1210.57L1753.72 1210.57L1809.83 1120.05Q1844.25 1066.50 1844.25 1060.13Q1844.25 1053.75 1851.26 1048.01Q1858.28 1042.27 1865.29 1020.60Q1872.30 998.92 1885.05 991.27ZM2224.20 1233.53L2233.13 1159.57Q2238.22 1113.67 2238.22 1048.65Q2238.22 983.62 2247.79 975.34Q2257.35 967.05 2279.03 969.60Q2300.70 972.15 2319.82 986.17L2319.82 986.17L2337.68 998.92L2335.13 1071.60Q2333.85 1145.55 2332.57 1163.40L2332.57 1163.40Q2330.03 1187.63 2328.11 1204.20Q2326.20 1220.77 2325.56 1231.61Q2324.93 1242.45 2324.93 1245.64Q2324.93 1248.82 2324.93 1250.10L2324.93 1250.10Q2326.20 1248.82 2368.91 1239.90Q2411.63 1230.97 2420.55 1233.53Q2429.48 1236.07 2448.60 1255.20L2448.60 1255.20Q2461.35 1266.67 2465.18 1274.32Q2469 1281.97 2469 1299.82L2469 1299.82Q2469 1322.78 2461.35 1328.51Q2453.70 1334.25 2430.75 1330.42L2430.75 1330.42Q2410.35 1325.32 2361.90 1329.79Q2313.45 1334.25 2307.07 1341.26Q2300.70 1348.28 2287.95 1389.07L2287.95 1389.07Q2270.10 1443.90 2225.47 1515.94Q2180.85 1587.97 2146.43 1617.30L2146.43 1617.30L2114.55 1642.80Q2101.80 1653 2045.70 1681.05Q1989.60 1709.10 1980.68 1709.10L1980.68 1709.10Q1956.45 1709.10 1998.53 1674.67L1998.53 1674.67Q2027.85 1647.90 2075.03 1602L2075.03 1602Q2115.82 1559.92 2137.50 1520.40Q2159.18 1480.88 2189.78 1392.90L2189.78 1392.90Q2198.70 1367.40 2194.88 1364.21Q2191.05 1361.03 2167.46 1377.60Q2143.88 1394.17 2133.68 1394.17L2133.68 1394.17Q2126.03 1394.17 2102.44 1378.88Q2078.85 1363.57 2072.47 1354.65L2072.47 1354.65Q2067.38 1345.72 2064.82 1363.57L2064.82 1363.57Q2061 1375.05 2059.72 1404.38L2059.72 1404.38Q2057.18 1455.38 2049.53 1491.07Q2041.88 1526.78 2041.88 1542.07Q2041.88 1557.38 2031.04 1579.69Q2020.20 1602 2015.10 1614.11Q2010 1626.22 1996.61 1647.26Q1983.22 1668.30 1976.85 1679.78Q1970.47 1691.25 1955.18 1700.81Q1939.88 1710.38 1939.88 1714.20L1939.88 1714.20Q1939.88 1723.13 1920.11 1739.70Q1900.35 1756.28 1878.67 1765.20L1878.67 1765.20Q1840.42 1781.78 1839.15 1774.13L1839.15 1774.13Q1839.15 1770.30 1840.42 1760.10L1840.42 1760.10Q1845.53 1743.53 1828.95 1714.84Q1812.38 1686.15 1783.05 1659.38L1783.05 1659.38Q1757.55 1637.70 1741.61 1614.75Q1725.67 1591.80 1714.20 1591.80Q1702.72 1591.80 1689.97 1580.96Q1677.22 1570.13 1667.03 1570.13L1667.03 1570.13Q1658.10 1570.13 1657.46 1556.10Q1656.83 1542.07 1663.20 1531.88L1663.20 1531.88Q1670.85 1522.95 1740.34 1480.24Q1809.83 1437.53 1846.80 1410.75L1846.80 1410.75L1916.93 1359.75Q1946.25 1338.07 1951.35 1323.41Q1956.45 1308.75 1956.45 1245L1956.45 1245Q1956.45 1197.82 1950.71 1183.16Q1944.97 1168.50 1922.03 1157.02L1922.03 1157.02L1905.45 1149.38L1925.85 1141.72Q1976.85 1120.05 2029.13 1146.82L2029.13 1146.82Q2057.18 1159.57 2059.72 1168.50L2059.72 1168.50Q2066.10 1182.52 2068.65 1307.47L2068.65 1307.47Q2068.65 1313.85 2094.15 1301.10Q2119.65 1288.35 2169.38 1275.60L2169.38 1275.60L2220.38 1262.85L2224.20 1233.53ZM2062.28 1336.16Q2062.28 1341.90 2068.65 1341.90Q2075.03 1341.90 2075.03 1336.16Q2075.03 1330.42 2068.65 1330.42Q2062.28 1330.42 2062.28 1336.16ZM1939.88 1446.45L1939.88 1446.45Q1946.25 1410.75 1944.97 1404.38L1944.97 1404.38Q1943.70 1400.55 1921.39 1421.59Q1899.08 1442.63 1869.75 1471.95Q1840.42 1501.28 1823.85 1521.67L1823.85 1521.67Q1804.72 1545.90 1776.67 1567.57L1776.67 1567.57Q1769.03 1575.22 1763.29 1580.96Q1757.55 1586.70 1754.36 1589.89Q1751.17 1593.07 1753.72 1593.07L1753.72 1593.07Q1758.83 1596.90 1761.38 1590.53L1761.38 1590.53Q1767.75 1581.60 1834.05 1603.28L1834.05 1603.28Q1864.65 1613.47 1877.40 1608.38Q1890.15 1603.28 1906.72 1575.22L1906.72 1575.22Q1918.20 1554.82 1923.30 1533.79Q1928.40 1512.75 1939.88 1446.45Z"/>
  </svg>