<svg xmlns="http://www.w3.org/2000/svg" viewBox="0 0 3000 3000" width="3000" height="3000">
    <path fill="#000000" d="M1496.09 2392.58Q1416.02 2392.58 1416.02 2302.73L1416.02 2302.73L1416.02 1957.03Q1253.91 2097.66 1011.72 2224.61L1011.72 2224.61Q789.06 2341.80 683.59 2341.80L683.59 2341.80Q644.53 2341.80 625.98 2322.27Q607.42 2302.73 607.42 2261.72L607.42 2261.72Q607.42 2205.08 687.50 2181.64L687.50 2181.64Q1052.73 2078.13 1335.94 1869.14L1335.94 1869.14L728.52 1869.14Q638.67 1869.14 638.67 1796.88L638.67 1796.88Q638.67 1726.56 728.52 1726.56L728.52 1726.56L1416.02 1726.56L1416.02 1664.06Q1416.02 1585.94 1498.05 1585.94L1498.05 1585.94Q1537.11 1585.94 1557.62 1607.42Q1578.13 1628.91 1576.17 1664.06L1576.17 1664.06L1576.17 1726.56L2271.48 1726.56Q2359.38 1726.56 2359.38 1798.83L2359.38 1798.83Q2359.38 1869.14 2271.48 1869.14L2271.48 1869.14L1650.39 1869.14Q1898.44 2076.17 2306.64 2166.02L2306.64 2166.02Q2392.58 2185.55 2392.58 2248.05L2392.58 2248.05Q2392.58 2332.03 2312.50 2332.03L2312.50 2332.03Q2234.38 2332.03 1988.28 2226.56L1988.28 2226.56Q1750 2125 1576.17 1962.89L1576.17 1962.89L1576.17 2302.73Q1576.17 2392.58 1496.09 2392.58L1496.09 2392.58ZM1310.55 1605.47Q1230.47 1605.47 1230.47 1533.20L1230.47 1533.20Q1230.47 1460.94 1310.55 1460.94L1310.55 1460.94L1390.63 1460.94Q1462.89 1460.94 1466.80 1386.72L1466.80 1386.72L1466.80 1244.14Q1289.06 1384.77 1041.02 1494.14L1041.02 1494.14Q796.88 1601.56 703.13 1601.56L703.13 1601.56Q630.86 1601.56 630.86 1525.39L630.86 1525.39Q630.86 1464.84 720.70 1443.36L720.70 1443.36Q833.98 1417.97 908.20 1390.63L908.20 1390.63Q1037.11 1345.70 1160.16 1287.11L1160.16 1287.11Q1304.69 1218.75 1333.98 1189.45L1333.98 1189.45L699.22 1189.45Q625 1189.45 625 1121.09L625 1121.09Q625 1052.73 699.22 1052.73L699.22 1052.73L2261.72 1052.73Q2300.78 1052.73 2325.20 1075.20Q2349.61 1097.66 2349.61 1130.86L2349.61 1130.86Q2349.61 1164.06 2320.31 1199.22L2320.31 1199.22Q2298.83 1222.66 2264.65 1250Q2230.47 1277.34 2154.30 1333.98L2154.30 1333.98Q2046.88 1414.06 1984.38 1451.17Q1921.88 1488.28 1894.53 1488.28L1894.53 1488.28Q1814.45 1488.28 1814.45 1417.97L1814.45 1417.97Q1814.45 1378.91 1902.34 1326.17L1902.34 1326.17Q2033.20 1250 2066.41 1222.66L2066.41 1222.66Q2076.17 1216.80 2076.17 1207.03L2076.17 1207.03Q2076.17 1201.17 2070.31 1196.29Q2064.45 1191.41 2054.69 1191.41L2054.69 1191.41L1623.05 1191.41L1623.05 1412.11Q1623.05 1507.81 1586.91 1556.64Q1550.78 1605.47 1472.66 1605.47L1472.66 1605.47L1310.55 1605.47ZM1664.06 1074.22L1611.33 1060.55L1363.28 990.23Q1333.98 982.42 1271.48 970.70L1271.48 970.70L1207.03 957.03Q1134.77 939.45 1134.77 904.30L1134.77 904.30Q1134.77 873.05 1153.32 854.49Q1171.88 835.94 1201.17 841.80L1201.17 841.80L1253.91 851.56Q1267.58 853.52 1290.04 857.42Q1312.50 861.33 1341.80 869.14L1341.80 869.14L1416.02 888.67L1505.86 912.11Q1654.30 875 1765.63 830.08L1765.63 830.08Q1777.34 824.22 1777.34 816.41L1777.34 816.41Q1777.34 806.64 1761.72 806.64L1761.72 806.64L849.61 806.64Q771.48 806.64 771.48 738.28L771.48 738.28Q771.48 671.88 849.61 671.88L849.61 671.88L2048.83 671.88Q2095.70 671.88 2121.09 688.48Q2146.48 705.08 2146.48 730.47L2146.48 730.47Q2146.48 748.05 2131.84 767.58Q2117.19 787.11 2091.80 800.78L2091.80 800.78Q1980.47 861.33 1675.78 962.89L1675.78 962.89Q1722.66 982.42 1722.66 1005.86L1722.66 1005.86Q1722.66 1050.78 1664.06 1074.22L1664.06 1074.22Z"/>
  </svg>