<svg xmlns="http://www.w3.org/2000/svg" viewBox="0 0 3000 3000" width="3000" height="3000">
    <path fill="#000000" d="M618 1932L618 1874L2384 1874L2384 1932L618 1932ZM836 858L836 800L2044 800L2044 858L836 858ZM668 1240L668 1182L2294 1182L2294 1240L668 1240ZM1470 2514L1470 1712L1530 1712L1530 2514L1470 2514ZM1406 1888L1406 1888L1458 1914Q1368 2034 1231 2142Q1094 2250 940 2336Q786 2422 640 2474L640 2474Q636 2466 628 2457Q620 2448 613 2439Q606 2430 598 2424L598 2424Q744 2376 898 2293Q1052 2210 1186 2106Q1320 2002 1406 1888ZM1542 1914L1596 1890Q1680 2008 1812 2110Q1944 2212 2101 2289Q2258 2366 2414 2408L2414 2408Q2408 2414 2400 2424Q2392 2434 2385 2443Q2378 2452 2372 2460L2372 2460Q2216 2412 2058 2331Q1900 2250 1765 2143Q1630 2036 1542 1914L1542 1914ZM1518 1616L1518 1200L1576 1200L1576 1614Q1576 1648 1566 1665Q1556 1682 1524 1692L1524 1692Q1492 1700 1426 1702Q1360 1704 1254 1704L1254 1704Q1252 1690 1244 1675Q1236 1660 1228 1646L1228 1646Q1296 1648 1347 1648Q1398 1648 1433 1647Q1468 1646 1482 1646L1482 1646Q1504 1644 1511 1637Q1518 1630 1518 1616L1518 1616ZM2272 1198L2272 1182L2288 1182L2304 1178L2350 1202Q2262 1294 2172 1387Q2082 1480 1998 1542L1998 1542L1944 1512Q1996 1472 2053 1421Q2110 1370 2167 1312Q2224 1254 2272 1198L2272 1198ZM1456 1196L1456 1196L1512 1226Q1444 1302 1347 1373Q1250 1444 1138 1507Q1026 1570 912 1620Q798 1670 692 1704L692 1704Q684 1690 673 1675Q662 1660 650 1650L650 1650Q792 1610 945 1541Q1098 1472 1233 1383Q1368 1294 1456 1196ZM1150 1016L1150 1016L1180 966Q1284 986 1398 1020Q1512 1054 1615 1094Q1718 1134 1786 1170L1786 1170L1754 1224Q1688 1186 1586 1145Q1484 1104 1370 1069Q1256 1034 1150 1016ZM2030 816L2030 800L2046 800L2062 794L2114 834Q2040 890 1943 943Q1846 996 1742 1039Q1638 1082 1540 1114L1540 1114Q1532 1102 1519 1088Q1506 1074 1496 1066L1496 1066Q1590 1038 1691 998Q1792 958 1881 910Q1970 862 2030 816L2030 816Z"/>
  </svg>