<svg xmlns="http://www.w3.org/2000/svg" viewBox="0 0 3000 3000" width="3000" height="3000">
    <path fill="#000000" d="M300.22 1775.40L300.22 1738.43L1426.05 1738.43L1426.05 1775.40L300.22 1775.40ZM439.20 1090.72L439.20 1053.75L1209.30 1053.75L1209.30 1090.72L439.20 1090.72ZM332.10 1334.25L332.10 1297.28L1368.67 1297.28L1368.67 1334.25L332.10 1334.25ZM843.37 2145.15L843.37 1644.08L881.62 1644.08L881.62 2145.15L843.37 2145.15ZM720.97 1831.50L720.97 1831.50L755.40 1848.08Q708.22 1910.55 636.82 1968.56Q565.42 2026.58 485.10 2073.11Q404.77 2119.65 330.82 2147.70L330.82 2147.70Q328.27 2142.60 323.17 2137.50Q318.07 2132.40 312.97 2126.66Q307.87 2120.93 302.77 2117.10L302.77 2117.10Q379.27 2091.60 458.32 2046.98Q537.37 2002.35 606.86 1946.89Q676.35 1891.43 720.97 1831.50ZM873.97 1573.95L873.97 1308.75L910.95 1308.75L910.95 1572.68Q910.95 1594.35 904.57 1605.19Q898.20 1616.03 877.80 1622.40L877.80 1622.40Q857.40 1627.50 815.32 1628.78Q773.25 1630.05 705.67 1630.05L705.67 1630.05Q704.40 1621.13 699.30 1611.56Q694.20 1602 689.10 1593.08L689.10 1593.08Q732.45 1594.35 764.96 1594.35Q797.47 1594.35 819.79 1593.71Q842.10 1593.08 851.02 1593.08L851.02 1593.08Q865.05 1591.80 869.51 1587.34Q873.97 1582.88 873.97 1573.95L873.97 1573.95ZM1354.65 1307.47L1354.65 1297.28L1364.85 1297.28L1375.05 1294.72L1404.38 1310.03Q1348.27 1368.68 1290.90 1427.96Q1233.52 1487.25 1179.97 1526.78L1179.97 1526.78L1145.55 1507.65Q1178.70 1482.15 1215.04 1449.64Q1251.37 1417.13 1287.71 1380.15Q1324.05 1343.18 1354.65 1307.47L1354.65 1307.47ZM834.45 1306.20L834.45 1306.20L870.15 1325.33Q826.80 1373.78 764.96 1419.04Q703.12 1464.30 631.72 1504.46Q560.32 1544.63 487.65 1576.50Q414.97 1608.38 347.40 1630.05L347.40 1630.05Q342.30 1621.13 335.29 1611.56Q328.27 1602 320.62 1595.63L320.62 1595.63Q411.15 1570.13 508.69 1526.14Q606.22 1482.15 692.29 1425.41Q778.35 1368.68 834.45 1306.20ZM639.37 1191.45L639.37 1191.45L658.50 1159.58Q724.80 1172.33 797.47 1194Q870.15 1215.67 935.81 1241.17Q1001.47 1266.67 1044.82 1289.63L1044.82 1289.63L1024.42 1324.05Q982.35 1299.83 917.32 1273.69Q852.30 1247.55 779.62 1225.24Q706.95 1202.92 639.37 1191.45ZM1200.38 1063.95L1200.38 1053.75L1210.57 1053.75L1220.77 1049.92L1253.92 1075.42Q1206.75 1111.13 1144.91 1144.91Q1083.07 1178.70 1016.77 1206.11Q950.47 1233.53 888.00 1253.92L888.00 1253.92Q882.90 1246.28 874.61 1237.35Q866.32 1228.42 859.95 1223.33L859.95 1223.33Q919.87 1205.47 984.26 1179.97Q1048.65 1154.47 1105.39 1123.88Q1162.13 1093.28 1200.38 1063.95L1200.38 1063.95ZM956.85 1853.18L956.85 1853.18L977.25 1825.13Q1056.30 1865.93 1139.81 1916.93Q1223.32 1967.93 1296.64 2018.93Q1369.95 2069.93 1417.13 2110.72L1417.13 2110.72L1394.17 2143.88Q1347 2103.08 1274.32 2051.44Q1201.65 1999.80 1118.14 1947.53Q1034.63 1895.25 956.85 1853.18ZM2210.18 1984.50L2210.18 1947.53L2620.73 1947.53L2620.73 1984.50L2210.18 1984.50ZM2194.88 2094.15L2194.88 1114.95L2633.48 1114.95L2633.48 2085.22L2596.50 2085.22L2596.50 1151.92L2231.85 1151.92L2231.85 2094.15L2194.88 2094.15ZM1844.25 2142.60L1844.25 1085.63L1881.22 1085.63L1881.22 2142.60L1844.25 2142.60ZM1572.67 1408.20L1572.67 1371.22L2141.32 1371.22L2141.32 1408.20L1572.67 1408.20ZM1844.25 1381.43L1844.25 1381.43L1877.40 1394.18Q1853.17 1465.58 1817.47 1541.44Q1781.78 1617.30 1739.06 1689.98Q1696.35 1762.65 1651.72 1824.49Q1607.10 1886.33 1565.03 1929.68L1565.03 1929.68Q1559.92 1922.03 1552.28 1911.83Q1544.63 1901.63 1538.25 1896.53L1538.25 1896.53Q1579.05 1855.73 1623.67 1797.08Q1668.30 1738.43 1710.38 1668.94Q1752.45 1599.45 1786.88 1525.50Q1821.30 1451.55 1844.25 1381.43ZM2089.05 1010.40L2089.05 1010.40L2118.38 1039.72Q2058.45 1063.95 1971.11 1084.35Q1883.78 1104.75 1788.15 1120.05Q1692.53 1135.35 1604.55 1145.55L1604.55 1145.55Q1603.28 1139.17 1599.45 1130.25Q1595.63 1121.33 1591.80 1113.67L1591.80 1113.67Q1678.50 1102.20 1772.85 1086.90Q1867.20 1071.60 1951.35 1051.84Q2035.50 1032.07 2089.05 1010.40ZM1857 1471.95L1881.22 1451.55Q1893.97 1464.30 1917.56 1491.71Q1941.15 1519.13 1970.47 1554.19Q1999.80 1589.25 2029.13 1623.68Q2058.45 1658.10 2081.40 1686.15Q2104.35 1714.20 2114.55 1728.23L2114.55 1728.23L2085.22 1758.83Q2069.93 1737.15 2039.33 1696.99Q2008.73 1656.83 1973.03 1611.56Q1937.33 1566.30 1905.45 1528.05Q1873.58 1489.80 1857 1471.95L1857 1471.95Z"/>
  </svg>