<svg xmlns="http://www.w3.org/2000/svg" viewBox="0 0 3000 3000" width="3000" height="3000">
    <path fill="#000000" d="M860.01 2069.02Q808.96 2069.02 808.96 2011.74L808.96 2011.74L808.96 1791.36Q705.62 1881.01 551.22 1961.94L551.22 1961.94Q409.28 2036.65 342.04 2036.65L342.04 2036.65Q317.14 2036.65 305.31 2024.19Q293.48 2011.74 293.48 1985.60L293.48 1985.60Q293.48 1949.49 344.53 1934.55L344.53 1934.55Q577.37 1868.55 757.91 1735.33L757.91 1735.33L370.68 1735.33Q313.40 1735.33 313.40 1689.26L313.40 1689.26Q313.40 1644.43 370.68 1644.43L370.68 1644.43L808.96 1644.43L808.96 1604.59Q808.96 1554.79 861.25 1554.79L861.25 1554.79Q886.16 1554.79 899.23 1568.48Q912.30 1582.18 911.06 1604.59L911.06 1604.59L911.06 1644.43L1354.32 1644.43Q1410.35 1644.43 1410.35 1690.50L1410.35 1690.50Q1410.35 1735.33 1354.32 1735.33L1354.32 1735.33L958.37 1735.33Q1116.50 1867.31 1376.73 1924.58L1376.73 1924.58Q1431.52 1937.04 1431.52 1976.88L1431.52 1976.88Q1431.52 2030.42 1380.47 2030.42L1380.47 2030.42Q1330.66 2030.42 1173.78 1963.18L1173.78 1963.18Q1021.88 1898.44 911.06 1795.09L911.06 1795.09L911.06 2011.74Q911.06 2069.02 860.01 2069.02L860.01 2069.02ZM741.72 1567.24Q690.67 1567.24 690.67 1521.17L690.67 1521.17Q690.67 1475.10 741.72 1475.10L741.72 1475.10L792.77 1475.10Q838.84 1475.10 841.33 1427.78L841.33 1427.78L841.33 1336.89Q728.03 1426.54 569.90 1496.26L569.90 1496.26Q414.26 1564.75 354.49 1564.75L354.49 1564.75Q308.42 1564.75 308.42 1516.19L308.42 1516.19Q308.42 1477.59 365.70 1463.89L365.70 1463.89Q437.92 1447.71 485.23 1430.27L485.23 1430.27Q567.41 1401.64 645.85 1364.28L645.85 1364.28Q737.99 1320.70 756.67 1302.03L756.67 1302.03L352.00 1302.03Q304.69 1302.03 304.69 1258.45L304.69 1258.45Q304.69 1214.87 352.00 1214.87L352.00 1214.87L1348.10 1214.87Q1373.00 1214.87 1388.56 1229.19Q1404.13 1243.51 1404.13 1264.67L1404.13 1264.67Q1404.13 1285.84 1385.45 1308.25L1385.45 1308.25Q1371.75 1323.19 1349.96 1340.63Q1328.17 1358.06 1279.61 1394.17L1279.61 1394.17Q1211.13 1445.21 1171.29 1468.87Q1131.45 1492.53 1114.01 1492.53L1114.01 1492.53Q1062.96 1492.53 1062.96 1447.71L1062.96 1447.71Q1062.96 1422.80 1118.99 1389.18L1118.99 1389.18Q1202.42 1340.63 1223.58 1323.19L1223.58 1323.19Q1229.81 1319.46 1229.81 1313.23L1229.81 1313.23Q1229.81 1309.50 1226.07 1306.38Q1222.34 1303.27 1216.11 1303.27L1216.11 1303.27L940.94 1303.27L940.94 1443.97Q940.94 1504.98 917.91 1536.11Q894.87 1567.24 845.07 1567.24L845.07 1567.24L741.72 1567.24ZM967.09 1228.56L933.47 1219.85L775.34 1175.02Q756.67 1170.04 716.82 1162.57L716.82 1162.57L675.73 1153.86Q629.66 1142.65 629.66 1120.24L629.66 1120.24Q629.66 1100.32 641.49 1088.49Q653.32 1076.66 672.00 1080.40L672.00 1080.40L705.62 1086.62Q714.33 1087.87 728.65 1090.36Q742.97 1092.85 761.65 1097.83L761.65 1097.83L808.96 1110.28L866.24 1125.22Q960.86 1101.56 1031.84 1072.92L1031.84 1072.92Q1039.31 1069.19 1039.31 1064.21L1039.31 1064.21Q1039.31 1057.98 1029.35 1057.98L1029.35 1057.98L447.88 1057.98Q398.07 1057.98 398.07 1014.40L398.07 1014.40Q398.07 972.07 447.88 972.07L447.88 972.07L1212.38 972.07Q1242.26 972.07 1258.45 982.65Q1274.63 993.24 1274.63 1009.42L1274.63 1009.42Q1274.63 1020.63 1265.30 1033.08Q1255.96 1045.53 1239.77 1054.25L1239.77 1054.25Q1168.80 1092.85 974.56 1157.59L974.56 1157.59Q1004.44 1170.04 1004.44 1184.99L1004.44 1184.99Q1004.44 1213.62 967.09 1228.56L967.09 1228.56ZM1885.99 2069.02Q1837.43 2069.02 1837.43 2009.25L1837.43 2009.25L1837.43 1537.35Q1791.36 1666.85 1720.39 1771.44L1720.39 1771.44Q1649.41 1874.78 1619.53 1874.78L1619.53 1874.78Q1568.48 1874.78 1568.48 1821.24L1568.48 1821.24Q1568.48 1802.56 1600.85 1763.96L1600.85 1763.96Q1756.49 1579.69 1828.71 1366.77L1828.71 1366.77L1627.00 1366.77Q1573.46 1366.77 1573.46 1316.97L1573.46 1316.97Q1573.46 1268.41 1627.00 1268.41L1627.00 1268.41L1837.43 1268.41L1837.43 1067.94L1935.79 1054.25L1935.79 1268.41L2087.70 1268.41Q2142.48 1268.41 2142.48 1318.21L2142.48 1318.21Q2142.48 1366.77 2087.70 1366.77L2087.70 1366.77L1935.79 1366.77L1935.79 1508.72Q1945.75 1483.81 1971.90 1483.81L1971.90 1483.81Q1980.62 1483.81 2004.90 1505.60Q2029.17 1527.39 2064.04 1568.48L2064.04 1568.48Q2103.88 1614.55 2121.94 1640.70Q2139.99 1666.85 2139.99 1680.54L2139.99 1680.54Q2139.99 1726.61 2092.68 1726.61L2092.68 1726.61Q2065.28 1726.61 2036.65 1676.81L2036.65 1676.81Q2010.50 1630.74 1960.69 1573.46L1960.69 1573.46Q1948.24 1559.77 1935.79 1534.86L1935.79 1534.86L1935.79 2009.25Q1935.79 2069.02 1885.99 2069.02L1885.99 2069.02ZM1635.72 1105.30Q1613.31 1106.54 1601.48 1094.71Q1589.65 1082.89 1589.65 1057.98L1589.65 1057.98Q1589.65 1015.65 1654.39 1011.91L1654.39 1011.91Q1883.50 996.97 2025.44 952.15L2025.44 952.15L2080.22 937.21Q2132.52 937.21 2132.52 989.50L2132.52 989.50Q2132.52 1025.61 2095.17 1039.31L2095.17 1039.31Q2037.89 1059.23 1904.66 1077.91L1904.66 1077.91Q1782.64 1095.34 1635.72 1105.30L1635.72 1105.30ZM2298.12 1989.33Q2229.64 1989.33 2198.51 1958.83Q2167.38 1928.32 2171.12 1862.33L2171.12 1862.33L2171.12 1197.44Q2162.40 1060.47 2298.12 1070.43L2298.12 1070.43L2532.20 1070.43Q2669.17 1060.47 2659.20 1197.44L2659.20 1197.44L2659.20 1862.33Q2659.20 1932.06 2628.70 1963.18Q2598.19 1994.31 2532.20 1989.33L2532.20 1989.33L2298.12 1989.33ZM2499.83 1887.23Q2554.61 1887.23 2554.61 1831.20L2554.61 1831.20L2554.61 1228.56Q2554.61 1173.78 2499.83 1173.78L2499.83 1173.78L2330.49 1173.78Q2273.22 1173.78 2274.46 1228.56L2274.46 1228.56L2274.46 1831.20Q2274.46 1887.23 2330.49 1887.23L2330.49 1887.23L2499.83 1887.23Z"/>
  </svg>