<svg xmlns="http://www.w3.org/2000/svg" viewBox="0 0 3000 3000" width="3000" height="3000">
    <path fill="#000000" d="M954.30 1714.84L954.30 1714.84L1369.95 1696.99Q1385.25 1695.71 1396.09 1690.61Q1406.92 1685.51 1406.92 1672.76Q1406.92 1660.01 1395.45 1645.35Q1383.97 1630.69 1368.04 1618.58Q1352.10 1606.46 1338.07 1606.46L1338.07 1606.46Q1332.97 1606.46 1324.05 1609.01L1324.05 1609.01Q1311.30 1614.11 1299.19 1616.03Q1287.07 1617.94 1274.32 1619.21L1274.32 1619.21L904.57 1635.79L904.57 1607.74Q904.57 1583.51 883.54 1572.04Q862.50 1560.56 842.10 1556.74Q821.70 1552.91 815.32 1552.91L815.32 1552.91Q792.37 1552.91 792.37 1570.76L792.37 1570.76Q792.37 1579.69 798.75 1589.89L798.75 1589.89Q811.50 1611.56 811.50 1634.51L811.50 1634.51L811.50 1639.61L402.22 1658.74L389.47 1658.74Q369.07 1658.74 353.77 1653.64L353.77 1653.64Q349.95 1652.36 344.85 1652.36L344.85 1652.36Q329.55 1652.36 329.55 1668.94L329.55 1668.94Q329.55 1674.04 330.82 1677.86L330.82 1677.86Q338.47 1696.99 347.40 1712.29L347.40 1712.29L360.15 1727.59Q371.62 1737.79 390.75 1739.06L390.75 1739.06L426.45 1739.06L737.55 1725.04Q641.92 1796.44 533.55 1860.19Q425.17 1923.94 307.87 1978.76L307.87 1978.76Q273.45 1994.06 273.45 2013.19L273.45 2013.19Q273.45 2031.04 297.67 2031.04L297.67 2031.04Q301.50 2031.04 344.85 2018.93Q388.20 2006.81 462.15 1976.85Q536.10 1946.89 628.54 1895.89Q720.97 1844.89 811.50 1776.04L811.50 1776.04L811.50 1978.76Q811.50 1999.16 810.22 2017.01Q808.95 2034.86 805.12 2052.71L805.12 2052.71Q803.85 2057.81 803.85 2066.74L803.85 2066.74Q803.85 2090.96 821.06 2103.71Q838.27 2116.46 855.49 2120.29Q872.70 2124.11 876.52 2124.11L876.52 2124.11Q904.57 2124.11 904.57 2088.41L904.57 2088.41L904.57 1773.49Q983.62 1827.04 1070.96 1872.30Q1158.30 1917.56 1230.34 1947.53Q1302.37 1977.49 1348.27 1992.15Q1394.17 2006.81 1400.55 2006.81L1400.55 2006.81Q1419.67 2006.81 1435.61 1993.43Q1451.55 1980.04 1462.39 1965.38Q1473.22 1950.71 1473.22 1944.34L1473.22 1944.34Q1473.22 1930.31 1447.72 1921.39L1447.72 1921.39Q1307.47 1881.86 1180.61 1827.68Q1053.75 1773.49 954.30 1714.84ZM1118.77 1415.21L1118.77 1415.21L1131.52 1407.56Q1145.55 1398.64 1177.42 1376.96Q1209.30 1355.29 1245 1329.79Q1280.70 1304.29 1306.84 1281.34Q1332.97 1258.39 1332.97 1246.91L1332.97 1246.91Q1332.97 1229.06 1313.21 1211.21Q1293.45 1193.36 1267.95 1193.36L1267.95 1193.36L1253.92 1193.36L958.12 1208.66L939.00 1197.19Q941.55 1195.91 970.24 1178.06Q998.92 1160.21 1033.35 1138.54Q1067.77 1116.86 1100.29 1094.55Q1132.80 1072.24 1154.47 1053.11Q1176.15 1033.99 1176.15 1021.24L1176.15 1021.24Q1176.15 1000.84 1153.20 984.26Q1130.25 967.69 1111.13 967.69L1111.13 967.69Q1107.30 967.69 1103.47 968.32Q1099.65 968.96 1093.27 968.96L1093.27 968.96L603.67 1003.39Q598.57 1003.39 593.47 1004.02Q588.37 1004.66 583.27 1004.66L583.27 1004.66Q561.60 1004.66 543.75 999.56L543.75 999.56Q539.92 998.29 533.55 998.29L533.55 998.29Q516.97 998.29 516.97 1014.86L516.97 1014.86L523.35 1032.71Q531.00 1050.56 546.94 1068.41Q562.87 1086.26 592.20 1086.26L592.20 1086.26Q599.85 1086.26 609.41 1085.63Q618.97 1084.99 629.17 1083.71L629.17 1083.71L1010.40 1053.11Q996.37 1063.31 949.20 1093.28Q902.02 1123.24 854.85 1148.74L854.85 1148.74Q840.82 1139.81 814.05 1126.42Q787.27 1113.04 763.69 1102.20Q740.10 1091.36 729.90 1091.36L729.90 1091.36Q714.60 1091.36 698.02 1116.86L698.02 1116.86Q689.10 1130.89 689.10 1143.64L689.10 1143.64Q689.10 1161.49 712.05 1171.69L712.05 1171.69Q741.37 1183.16 773.89 1197.83Q806.40 1212.49 815.32 1216.31L815.32 1216.31L472.35 1236.71L457.05 1236.71Q435.37 1236.71 413.70 1232.89L413.70 1232.89L407.32 1232.89Q389.47 1232.89 389.47 1249.46L389.47 1249.46L394.57 1264.76Q400.95 1281.34 416.25 1297.91Q431.55 1314.49 462.15 1314.49L462.15 1314.49Q468.52 1314.49 476.81 1313.85Q485.10 1313.21 494.02 1313.21L494.02 1313.21L764.32 1297.91Q695.47 1354.01 605.59 1410.11Q515.70 1466.21 406.05 1522.31L406.05 1522.31Q370.35 1540.16 370.35 1559.29L370.35 1559.29Q370.35 1577.14 393.30 1577.14L393.30 1577.14Q400.95 1577.14 448.76 1561.20Q496.57 1545.26 569.89 1510.84Q643.20 1476.41 727.99 1424.14Q812.77 1371.86 879.07 1310.66L879.07 1310.66L881.62 1476.41Q859.95 1471.31 829.35 1463.66Q798.75 1456.01 766.87 1445.81L766.87 1445.81Q743.92 1439.44 735.00 1439.44L735.00 1439.44Q713.32 1439.44 713.32 1452.83Q713.32 1466.21 740.10 1485.97Q766.87 1505.74 801.30 1526.14Q835.72 1546.54 868.87 1561.84Q902.02 1577.14 917.32 1577.14L917.32 1577.14Q949.20 1577.14 960.67 1552.28Q972.15 1527.41 972.15 1513.39L972.15 1513.39Q972.15 1505.74 971.51 1497.45Q970.87 1489.16 970.87 1480.24L970.87 1480.24L968.32 1286.44L1191.45 1274.96Q1182.52 1285.16 1151.29 1313.21Q1120.05 1341.26 1097.10 1361.66L1097.10 1361.66Q1060.13 1393.54 1060.13 1412.66L1060.13 1412.66Q1060.13 1427.96 1077.97 1427.96L1077.97 1427.96Q1092 1427.96 1118.77 1415.21ZM2312.18 1337.44L2576.10 1324.69L2551.88 1695.71L2322.38 1703.36L2312.18 1337.44ZM2326.20 1833.41L2324.93 1793.89L2633.48 1782.41Q2651.32 1781.14 2666.63 1778.59Q2681.93 1776.04 2681.93 1760.74L2681.93 1760.74Q2681.93 1750.54 2673 1735.88Q2664.07 1721.21 2644.95 1703.36L2644.95 1703.36L2676.82 1314.49Q2678.10 1309.39 2681.29 1304.29Q2684.48 1299.19 2684.48 1288.99L2684.48 1288.99Q2684.48 1269.86 2661.53 1251.38Q2638.57 1232.89 2620.73 1232.89L2620.73 1232.89Q2616.90 1232.89 2613.71 1233.53Q2610.53 1234.16 2609.25 1234.16L2609.25 1234.16L2300.70 1250.74Q2229.30 1226.51 2210.18 1226.51Q2191.05 1226.51 2191.05 1241.81L2191.05 1241.81Q2191.05 1246.91 2194.24 1252.65Q2197.43 1258.39 2199.97 1266.04L2199.97 1266.04Q2207.63 1281.34 2212.09 1295.36Q2216.55 1309.39 2217.82 1325.96L2217.82 1325.96L2228.03 1728.86Q2228.03 1745.44 2228.03 1763.29Q2228.03 1781.14 2225.47 1802.81L2225.47 1802.81L2225.47 1809.19Q2225.47 1842.34 2268.82 1860.19L2268.82 1860.19Q2289.23 1867.84 2301.98 1867.84L2301.98 1867.84Q2326.20 1867.84 2326.20 1838.51L2326.20 1838.51L2326.20 1833.41ZM1946.25 1443.26L1946.25 1402.46L2150.25 1384.61Q2184.68 1380.79 2184.68 1360.39L2184.68 1360.39Q2184.68 1348.91 2171.93 1333.61Q2159.18 1318.31 2141.96 1306.84Q2124.75 1295.36 2108.18 1295.36L2108.18 1295.36Q2100.53 1295.36 2095.43 1296.64L2095.43 1296.64Q2068.65 1305.56 2039.33 1308.11L2039.33 1308.11L1946.25 1315.76L1946.25 1132.16Q1985.78 1118.14 2030.40 1096.46Q2075.03 1074.79 2115.82 1054.39L2115.82 1054.39Q2127.30 1049.29 2127.30 1032.71L2127.30 1032.71Q2127.30 1013.59 2113.91 991.91Q2100.53 970.24 2084.59 953.66Q2068.65 937.09 2055.90 937.09L2055.90 937.09Q2044.43 937.09 2036.78 953.66L2036.78 953.66Q2031.68 965.14 2025.94 972.79Q2020.20 980.44 2007.45 988.09L2007.45 988.09Q1936.05 1030.16 1836.60 1082.44Q1737.15 1134.71 1630.05 1176.79L1630.05 1176.79Q1600.72 1188.26 1600.72 1207.39Q1600.72 1226.51 1627.50 1226.51L1627.50 1226.51Q1633.88 1226.51 1645.35 1225.24Q1656.83 1223.96 1680.41 1218.22Q1704 1212.49 1747.99 1199.10Q1791.97 1185.71 1855.72 1164.04L1855.72 1164.04L1854.45 1323.41L1675.95 1338.71L1659.38 1338.71Q1633.88 1338.71 1608.38 1334.89L1608.38 1334.89L1607.10 1333.61Q1604.55 1333.61 1602 1333.61L1602 1333.61Q1585.42 1333.61 1585.42 1348.91L1585.42 1348.91Q1585.42 1355.29 1586.70 1359.11L1586.70 1359.11Q1598.17 1389.71 1613.47 1404.38Q1628.78 1419.04 1643.44 1421.59Q1658.10 1424.14 1667.03 1424.14L1667.03 1424.14Q1673.40 1424.14 1682.96 1424.14Q1692.53 1424.14 1704 1422.86L1704 1422.86L1817.47 1412.66Q1774.13 1513.39 1702.72 1626.86Q1631.33 1740.34 1554.83 1844.89L1554.83 1844.89Q1540.80 1865.29 1540.80 1883.14Q1540.80 1900.99 1556.10 1900.99Q1571.40 1900.99 1600.72 1874.85Q1630.05 1848.71 1668.94 1806.64Q1707.83 1764.56 1747.99 1712.29Q1788.15 1660.01 1821.30 1605.19L1821.30 1605.19Q1854.45 1552.91 1854.45 1555.46L1854.45 1555.46L1859.55 1513.39Q1858.28 1533.79 1856.36 1559.93Q1854.45 1586.06 1854.45 1607.74L1854.45 1607.74Q1854.45 1654.91 1853.81 1712.29Q1853.17 1769.66 1852.54 1821.94Q1851.90 1874.21 1851.90 1907.36L1851.90 1907.36L1851.90 1940.51Q1851.90 1960.91 1849.99 1980.04Q1848.08 1999.16 1845.53 2017.01L1845.53 2017.01Q1844.25 2020.84 1844.25 2025.30Q1844.25 2029.76 1844.25 2032.31L1844.25 2032.31Q1844.25 2056.54 1869.75 2076.30Q1895.25 2096.06 1916.93 2096.06L1916.93 2096.06Q1946.25 2096.06 1946.25 2055.26L1946.25 2055.26L1946.25 1542.71Q1974.30 1566.94 2011.28 1610.29Q2048.25 1653.64 2087.78 1704.64L2087.78 1704.64Q2108.18 1730.14 2123.47 1730.14L2123.47 1730.14Q2131.13 1730.14 2145.15 1721.85Q2159.18 1713.56 2171.93 1700.18Q2184.68 1686.79 2184.68 1674.04Q2184.68 1661.29 2164.28 1634.51Q2143.88 1607.74 2112.64 1576.50Q2081.40 1545.26 2049.53 1514.66Q2017.65 1484.06 1990.88 1464.30Q1964.10 1444.54 1951.35 1444.54L1951.35 1444.54Q1944.97 1444.54 1946.25 1443.26L1946.25 1443.26ZM1854.45 1555.46L1854.45 1555.46Q1854.45 1555.46 1854.45 1555.46L1854.45 1555.46Z"/>
  </svg>