<svg xmlns="http://www.w3.org/2000/svg" viewBox="0 0 3000 3000" width="3000" height="3000">
    <path fill="#000000" d="M636.82 1719.30L636.82 1719.30Q578.17 1616.03 527.17 1559.93L527.17 1559.93Q511.87 1544.63 511.87 1534.43Q511.87 1524.22 523.35 1514.66Q534.82 1505.10 546.94 1499.36Q559.05 1493.63 564.79 1493.63Q570.52 1493.63 589.65 1512.11Q608.77 1530.60 631.72 1559.29Q654.67 1587.98 675.07 1617.30Q695.47 1646.63 708.86 1668.94Q722.25 1691.25 722.25 1701.45Q722.25 1711.65 701.21 1726.95Q680.17 1742.25 665.51 1742.25Q650.85 1742.25 636.82 1719.30ZM988.72 1728.23L988.72 1728.23Q975.97 1728.23 975.97 1719.30L975.97 1719.30Q975.97 1704 1001.47 1681.69Q1026.97 1659.38 1061.40 1623.68L1061.40 1623.68Q1148.10 1531.88 1164.67 1478.33L1164.67 1478.33Q1168.50 1463.03 1178.70 1463.03Q1188.90 1463.03 1204.84 1478.33Q1220.77 1493.63 1233.52 1512.11Q1246.27 1530.60 1246.27 1540.80Q1246.27 1551 1214.40 1583.51Q1182.52 1616.03 1099.65 1672.13Q1016.77 1728.23 988.72 1728.23ZM1248.82 1043.55L1210.57 1329.15Q1243.72 1367.40 1243.72 1379.51Q1243.72 1391.63 1234.16 1394.81Q1224.60 1398 1210.57 1399.28L1210.57 1399.28L930.07 1412.03Q931.35 1417.13 931.35 1423.50L931.35 1423.50L931.35 1433.70Q921.15 1548.45 888.00 1649.18L888.00 1649.18Q1047.38 1834.05 1245 1911.83L1245 1911.83Q1340.63 1950.08 1449 1973.03L1449 1973.03Q1474.50 1976.85 1474.50 1988.33L1474.50 1988.33Q1474.50 1993.43 1464.30 2010L1464.30 2010Q1431.15 2059.72 1404.38 2054.63L1404.38 2054.63Q1065.22 1967.93 859.95 1721.85L859.95 1721.85Q759.22 1941.15 444.30 2027.85L444.30 2027.85Q357.60 2052.08 333.37 2052.08Q309.15 2052.08 309.15 2040.60L309.15 2040.60Q309.15 2026.58 347.40 2011.28L347.40 2011.28Q519.52 1950.08 625.35 1872.94Q731.17 1795.80 782.17 1693.80Q833.17 1591.80 838.27 1457.93L838.27 1457.93Q838.27 1436.25 833.17 1417.13L833.17 1417.13L592.20 1427.33Q566.70 1429.88 553.31 1430.51Q539.92 1431.15 523.35 1422.86Q506.77 1414.58 491.47 1367.40L491.47 1367.40Q490.20 1364.85 490.20 1362.30L490.20 1362.30Q490.20 1352.10 501.67 1352.10L501.67 1352.10L505.50 1352.10Q533.55 1359.75 559.05 1357.20L559.05 1357.20L1135.35 1334.25L1146.82 1214.40L644.47 1245L607.50 1246.28Q588.37 1246.28 569.25 1237.35Q550.12 1228.43 536.10 1181.25L536.10 1181.25Q534.82 1178.70 534.82 1172.33Q534.82 1165.95 539.29 1165.95Q543.75 1165.95 564.15 1171.69Q584.55 1177.43 603.67 1177.43L603.67 1177.43L611.32 1177.43L1154.47 1145.55L1165.95 1039.72L604.95 1076.70Q596.02 1077.97 588.37 1077.97L588.37 1077.97L574.35 1077.97Q545.02 1077.97 533.55 1065.86Q522.07 1053.75 511.24 1033.99Q500.40 1014.23 500.40 1004.66Q500.40 995.10 511.87 995.10L511.87 995.10Q514.42 995.10 531.64 1001.48Q548.85 1007.85 576.90 1006.58L576.90 1006.58L585.82 1006.58L1191.45 967.05L1197.82 967.05Q1224.60 967.05 1241.81 981.08Q1259.02 995.10 1259.02 1007.21Q1259.02 1019.33 1254.56 1028.89Q1250.10 1038.45 1248.82 1043.55L1248.82 1043.55ZM2577.38 1104.75L1849.35 1149.38Q1735.88 1299.83 1631.33 1362.30L1631.33 1362.30Q1608.38 1376.33 1596.26 1376.33Q1584.15 1376.33 1584.15 1367.40L1584.15 1367.40Q1584.15 1353.38 1619.85 1317.68L1619.85 1317.68Q1710.38 1229.70 1787.51 1109.85Q1864.65 990 1864.65 928.80L1864.65 928.80L1864.65 914.77Q1864.65 900.75 1873.58 900.75Q1882.50 900.75 1902.90 910.95L1902.90 910.95Q1960.28 939 1960.28 963.23L1960.28 963.23Q1960.28 978.52 1934.14 1021.24Q1908 1063.95 1901.63 1072.88L1901.63 1072.88L2485.58 1035.90Q2516.18 1033.35 2526.38 1030.16Q2536.57 1026.97 2543.59 1026.97Q2550.60 1026.97 2565.90 1035.90L2565.90 1035.90Q2606.70 1061.40 2606.70 1084.35L2606.70 1084.35Q2606.70 1102.20 2577.38 1104.75L2577.38 1104.75ZM1849.35 1243.72L1849.35 1243.72L1910.55 1250.10L1922.03 1250.10L2346.60 1220.78Q2383.57 1216.95 2393.14 1213.76Q2402.70 1210.58 2408.44 1210.58Q2414.18 1210.58 2428.20 1219.50L2428.20 1219.50Q2467.73 1243.72 2467.73 1266.68L2467.73 1266.68Q2467.73 1283.25 2439.68 1287.08L2439.68 1287.08L1943.70 1320.22L1916.93 1321.50Q1865.92 1321.50 1848.08 1279.43L1848.08 1279.43Q1839.15 1257.75 1839.15 1252.65L1839.15 1252.65Q1839.15 1243.72 1849.35 1243.72ZM2729.10 1726.95L2729.10 1752.45Q2729.10 1890.15 2701.05 1993.43L2701.05 1993.43Q2687.03 2044.43 2646.23 2044.43L2646.23 2044.43Q2633.48 2044.43 2604.15 2035.50L2604.15 2035.50Q2526.38 2011.28 2471.55 1922.03L2471.55 1922.03Q2395.05 1799.63 2395.05 1568.85L2395.05 1568.85Q2395.05 1517.85 2398.88 1468.13L2398.88 1468.13L1783.05 1507.65Q1774.13 1508.93 1765.20 1508.93L1765.20 1508.93L1751.17 1508.93Q1725.67 1508.93 1711.65 1498.09Q1697.63 1487.25 1686.79 1466.21Q1675.95 1445.18 1675.95 1436.89Q1675.95 1428.60 1682.96 1428.60Q1689.97 1428.60 1709.10 1433.06Q1728.22 1437.53 1749.90 1437.53L1749.90 1437.53L1757.55 1437.53L2415.45 1394.18L2430.75 1394.18Q2452.43 1394.18 2470.91 1408.20Q2489.40 1422.22 2489.40 1434.97Q2489.40 1447.72 2485.58 1456.65Q2481.75 1465.58 2479.20 1502.55Q2476.65 1539.53 2476.65 1617.94Q2476.65 1696.35 2494.50 1764.56Q2512.35 1832.78 2538.49 1872.30Q2564.63 1911.83 2588.85 1927.76Q2613.07 1943.70 2622.64 1943.70Q2632.20 1943.70 2632.20 1936.05L2632.20 1936.05Q2664.07 1849.35 2689.57 1721.85L2689.57 1721.85Q2697.23 1682.33 2711.89 1682.33Q2726.55 1682.33 2729.10 1726.95L2729.10 1726.95Z"/>
  </svg>