<svg xmlns="http://www.w3.org/2000/svg" viewBox="0 0 3000 3000" width="3000" height="3000">
    <path fill="#000000" d="M502.95 1581.60L502.95 1581.60Q513.15 1572.67 517.61 1573.31Q522.07 1573.95 536.10 1585.42L536.10 1585.42Q550.12 1598.17 553.95 1633.88L553.95 1633.88Q565.42 1718.03 551.40 1747.35L551.40 1747.35Q545.02 1760.10 528.45 1767.11Q511.87 1774.13 499.12 1771.58L499.12 1771.58Q486.37 1769.03 469.80 1755Q453.22 1740.97 449.40 1711.01Q445.57 1681.05 446.85 1668.30L446.85 1668.30Q446.85 1658.10 468.52 1625.59Q490.20 1593.07 502.95 1581.60ZM722.25 1426.05L722.25 1426.05Q732.45 1417.13 752.21 1419.67Q771.97 1422.22 786.00 1434.97L786.00 1434.97L803.85 1450.28L802.57 1524.22Q802.57 1525.50 802.57 1526.78L802.57 1526.78Q802.57 1600.72 812.14 1603.28Q821.70 1605.83 881.62 1551L881.62 1551Q882.90 1549.72 884.17 1548.45L884.17 1548.45Q981.07 1460.47 981.07 1449L981.07 1449Q981.07 1442.63 994.46 1436.25Q1007.85 1429.88 1015.50 1429.88L1015.50 1429.88Q1028.25 1429.88 1050.56 1443.90Q1072.88 1457.92 1081.80 1471.95L1081.80 1471.95Q1089.45 1483.42 1090.72 1487.25Q1092 1491.07 1085.63 1498.72L1085.63 1498.72Q1076.70 1507.65 1076.70 1512.75L1076.70 1512.75Q1076.70 1521.67 1013.59 1568.85Q950.47 1616.03 895.65 1645.35L895.65 1645.35Q866.32 1663.20 866.32 1665.75L866.32 1665.75Q866.32 1672.13 884.17 1696.35Q902.02 1720.58 917.32 1735.88L917.32 1735.88Q988.72 1804.72 1032.71 1839.79Q1076.70 1874.85 1123.88 1896.53L1123.88 1896.53Q1158.30 1914.38 1205.47 1941.15L1205.47 1941.15Q1236.07 1959 1256.47 1965.38Q1276.87 1971.75 1301.74 1991.51Q1326.60 2011.28 1336.80 2017.65L1336.80 2017.65Q1345.72 2021.47 1346.36 2031.67Q1347 2041.88 1339.35 2048.25L1339.35 2048.25Q1331.70 2054.63 1283.25 2064.82L1283.25 2064.82Q1199.10 2081.40 1179.97 2096.70L1179.97 2096.70Q1172.32 2104.35 1142.36 2101.16Q1112.40 2097.97 1097.10 2089.05L1097.10 2089.05Q1075.42 2075.03 1052.47 2058.45Q1029.52 2041.88 1029.52 2038.05L1029.52 2038.05Q1029.52 2034.22 1007.21 2018.92Q984.90 2003.63 922.42 1942.42L922.42 1942.42Q862.50 1879.95 850.39 1865.29Q838.27 1850.63 829.35 1825.13L829.35 1825.13Q821.70 1809.83 817.24 1809.83Q812.77 1809.83 807.67 1798.35L807.67 1798.35Q801.30 1785.60 786.64 1765.20Q771.97 1744.80 766.87 1744.80L766.87 1744.80Q763.05 1744.80 744.56 1781.78Q726.07 1818.75 722.25 1821.30Q718.42 1823.85 710.77 1841.70L710.77 1841.70Q699.30 1864.65 661.69 1912.46Q624.07 1960.28 608.77 1974.30L608.77 1974.30Q587.10 1990.88 563.51 2001.71Q539.92 2012.55 525.90 2022.75L525.90 2022.75Q509.32 2034.22 467.25 2049.53Q425.17 2064.82 407.32 2064.82L407.32 2064.82Q384.37 2064.82 378.64 2056.54Q372.90 2048.25 394.57 2035.50Q416.25 2022.75 425.17 2012.55Q434.10 2002.35 475.54 1974.30Q516.97 1946.25 537.37 1924.58L537.37 1924.58Q571.80 1883.78 608.77 1820.03Q645.75 1756.28 659.77 1710.38L659.77 1710.38Q676.35 1661.92 705.67 1466.85L705.67 1466.85Q712.05 1434.97 722.25 1426.05ZM794.92 977.25L794.92 977.25Q842.10 973.42 852.30 968.96Q862.50 964.50 872.70 967.69Q882.90 970.87 924.97 974.70L924.97 974.70Q987.45 978.52 987.45 1002.75L987.45 1002.75Q987.45 1007.85 997.65 1020.60L997.65 1020.60Q1021.87 1049.92 995.74 1100.29Q969.60 1150.65 956.85 1250.10L956.85 1250.10Q955.57 1265.40 958.12 1271.14Q960.67 1276.88 972.15 1285.80L972.15 1285.80Q987.45 1297.28 987.45 1320.22L987.45 1320.22Q987.45 1335.53 977.89 1350.82Q968.32 1366.13 958.12 1366.13L958.12 1366.13Q951.75 1366.13 932.62 1376.32Q913.50 1386.53 889.27 1381.42L889.27 1381.42Q826.80 1369.95 766.87 1378.88L766.87 1378.88Q630.45 1400.55 608.77 1424.78L608.77 1424.78Q593.47 1442.63 539.92 1428.60L539.92 1428.60Q513.15 1422.22 511.24 1402.46Q509.32 1382.70 533.55 1369.95L533.55 1369.95Q560.32 1354.65 643.20 1329.79Q726.07 1304.92 770.70 1299.82L770.70 1299.82Q802.57 1296 812.77 1290.26Q822.97 1284.53 822.97 1273.05L822.97 1273.05Q822.97 1257.75 831.90 1236.07L831.90 1236.07Q839.55 1209.30 833.17 1202.92Q826.80 1196.55 794.92 1199.10L794.92 1199.10Q764.32 1200.38 730.54 1208.66Q696.75 1216.95 692.92 1224.60L692.92 1224.60Q690.37 1228.42 661.05 1228.42L661.05 1228.42Q641.92 1228.42 636.82 1226.51Q631.72 1224.60 627.90 1214.40L627.90 1214.40Q616.42 1185.07 659.77 1163.40L659.77 1163.40Q689.10 1149.38 735.64 1135.35Q782.17 1121.32 810.22 1118.77L810.22 1118.77Q837.00 1116.22 845.92 1109.21Q854.85 1102.20 854.85 1080.52L854.85 1080.52Q854.85 1061.40 838.27 1046.10L838.27 1046.10L822.97 1032.07L768.15 1034.63Q726.07 1037.17 687.19 1048.01Q648.30 1058.85 648.30 1067.77L648.30 1067.77Q648.30 1074.15 638.74 1079.89Q629.17 1085.63 617.70 1085.63L617.70 1085.63Q598.57 1085.63 586.46 1059.49Q574.35 1033.35 587.10 1021.87L587.10 1021.87Q603.67 1010.40 669.34 996.37Q735.00 982.35 794.92 977.25ZM2106.90 1433.70L2106.90 1433.70Q2175.75 1424.78 2178.30 1421.59Q2180.85 1418.40 2191.05 1421.59Q2201.25 1424.78 2213.36 1424.78Q2225.47 1424.78 2235.68 1447.72L2235.68 1447.72L2245.88 1470.67L2234.40 1510.20Q2224.20 1549.72 2219.10 1565.03L2219.10 1565.03Q2211.45 1591.80 2215.28 1668.30Q2219.10 1744.80 2230.57 1767.75L2230.57 1767.75Q2234.40 1776.67 2234.40 1785.60L2234.40 1785.60Q2234.40 1791.97 2255.44 1822.58Q2276.48 1853.17 2290.50 1867.20L2290.50 1867.20Q2303.25 1879.95 2328.75 1892.70Q2354.25 1905.45 2368.28 1914.38L2368.28 1914.38Q2383.57 1925.85 2413.54 1933.50Q2443.50 1941.15 2458.80 1936.05L2458.80 1936.05Q2500.88 1929.67 2528.93 1897.80L2528.93 1897.80Q2540.40 1885.05 2548.69 1864.01Q2556.98 1842.97 2577.38 1772.85L2577.38 1772.85Q2590.13 1732.05 2597.78 1765.20L2597.78 1765.20Q2602.88 1786.88 2602.88 1826.40L2602.88 1826.40Q2602.88 1864.65 2604.79 1876.13Q2606.70 1887.60 2614.35 1896.53L2614.35 1896.53Q2643.68 1932.22 2650.05 1971.75L2650.05 1971.75Q2652.60 1987.05 2645.59 2002.99Q2638.57 2018.92 2638.57 2027.85L2638.57 2027.85Q2638.57 2046.97 2616.26 2073.11Q2593.95 2099.25 2565.90 2112L2565.90 2112Q2548.05 2120.93 2535.30 2122.84Q2522.55 2124.75 2490.68 2124.75L2490.68 2124.75Q2440.95 2124.75 2410.35 2113.28L2410.35 2113.28Q2375.93 2100.53 2333.21 2076.94Q2290.50 2053.35 2272.65 2038.05L2272.65 2038.05Q2252.25 2020.20 2239.50 2013.83L2239.50 2013.83Q2219.10 1999.80 2192.32 1953.90L2192.32 1953.90Q2159.18 1897.80 2134.95 1837.88L2134.95 1837.88L2120.93 1798.35Q2113.28 1784.33 2110.72 1710.38L2110.72 1710.38Q2105.63 1603.28 2129.85 1519.13L2129.85 1519.13Q2134.95 1500 2128.57 1496.17L2128.57 1496.17Q2122.20 1489.80 2093.51 1492.99Q2064.82 1496.17 2040.60 1503.82L2040.60 1503.82Q2015.10 1511.47 1984.50 1516.57L1984.50 1516.57Q1952.63 1521.67 1901.63 1543.99Q1850.63 1566.30 1831.50 1582.88L1831.50 1582.88Q1821.30 1590.53 1804.72 1600.72L1804.72 1600.72L1770.30 1622.40Q1752.45 1633.88 1735.88 1632.60L1735.88 1632.60Q1719.30 1630.05 1714.84 1624.95Q1710.38 1619.85 1707.83 1600.72L1707.83 1600.72Q1704 1580.32 1716.75 1567.57L1716.75 1567.57Q1726.95 1557.38 1795.16 1521.67Q1863.38 1485.97 1871.03 1485.97L1871.03 1485.97Q1876.13 1485.97 1901.63 1475.77L1901.63 1475.77Q1938.60 1459.20 2106.90 1433.70ZM2048.25 1238.63L2048.25 1238.63Q2069.93 1234.80 2087.78 1226.51Q2105.63 1218.22 2130.49 1218.86Q2155.35 1219.50 2163 1228.42L2163 1228.42Q2173.20 1238.63 2177.03 1267.95L2177.03 1267.95Q2178.30 1288.35 2177.03 1293.45Q2175.75 1298.55 2165.55 1307.47L2165.55 1307.47Q2151.53 1318.95 2134.95 1315.13L2134.95 1315.13Q2122.20 1312.57 2087.14 1319.59Q2052.07 1326.60 2032.95 1334.25L2032.95 1334.25Q1975.58 1362.30 1956.45 1366.76Q1937.33 1371.22 1919.47 1359.75L1919.47 1359.75Q1904.18 1350.82 1901.63 1332.97L1901.63 1332.97Q1897.80 1310.03 1900.35 1303.01Q1902.90 1296 1918.20 1285.80L1918.20 1285.80Q1934.78 1274.32 1980.04 1257.75Q2025.30 1241.17 2048.25 1238.63ZM2147.70 1020.60L2147.70 1020.60Q2165.55 1014.22 2170.65 1021.87L2170.65 1021.87Q2174.47 1026.97 2187.22 1026.97L2187.22 1026.97Q2201.25 1026.97 2215.91 1035.90Q2230.57 1044.82 2233.13 1055.02L2233.13 1055.02Q2235.68 1067.77 2233.13 1095.82L2233.13 1095.82Q2231.85 1121.32 2218.46 1128.97Q2205.07 1136.63 2157.90 1137.90L2157.90 1137.90Q2122.20 1139.17 2108.18 1141.72Q2094.15 1144.27 2069.93 1157.02L2069.93 1157.02Q2032.95 1174.88 2024.03 1174.88L2024.03 1174.88Q2004.90 1174.88 1978.13 1150.65L1978.13 1150.65Q1964.10 1136.63 1963.46 1114.95Q1962.83 1093.27 1976.85 1085.63L1976.85 1085.63Q1994.70 1074.15 2032.31 1060.76Q2069.93 1047.38 2092.88 1043.55L2092.88 1043.55Q2124.75 1037.17 2133.04 1030.16Q2141.32 1023.15 2147.70 1020.60ZM1885.05 944.10L1885.05 944.10Q1899.08 935.17 1937.33 960.67L1937.33 960.67Q1966.65 979.80 1973.66 992.55Q1980.68 1005.30 1974.30 1021.87L1974.30 1021.87Q1967.93 1039.72 1948.80 1061.40Q1929.68 1083.07 1897.80 1130.25L1897.80 1130.25Q1868.47 1169.77 1832.78 1208.02Q1797.08 1246.28 1772.85 1264.13L1772.85 1264.13Q1746.08 1283.25 1673.40 1354.65L1673.40 1354.65Q1642.80 1383.97 1633.24 1383.97Q1623.67 1383.97 1623.67 1382.06Q1623.67 1380.15 1672.76 1313.21Q1721.85 1246.28 1746.08 1209.30L1746.08 1209.30L1795.80 1132.80Q1821.30 1092 1821.30 1090.09Q1821.30 1088.17 1835.96 1063.95Q1850.63 1039.72 1859.55 1007.85L1859.55 1007.85Q1877.40 949.20 1885.05 944.10Z"/>
  </svg>