<svg xmlns="http://www.w3.org/2000/svg" viewBox="0 0 3000 3000" width="3000" height="3000">
    <path fill="#000000" d="M384.37 1093.28L384.37 1056.30L1340.63 1056.30L1340.63 1093.28L384.37 1093.28ZM839.55 1446.45L839.55 1069.05L877.80 1069.05L877.80 1446.45L839.55 1446.45ZM343.57 1380.15L343.57 1181.25L1382.70 1181.25L1382.70 1380.15L1344.45 1380.15L1344.45 1218.22L381.82 1218.22L381.82 1380.15L343.57 1380.15ZM459.60 1454.10L443.02 1417.13Q502.95 1409.47 582.00 1398Q661.05 1386.53 746.47 1373.78L746.47 1373.78L747.75 1405.65Q669.97 1418.40 596.66 1431.15Q523.35 1443.90 459.60 1454.10L459.60 1454.10ZM478.72 1266.67L478.72 1266.67L495.30 1239.90Q538.65 1248.83 585.19 1262.85Q631.72 1276.88 673.16 1291.54Q714.60 1306.20 742.65 1321.50L742.65 1321.50L727.35 1353.38Q699.30 1338.08 657.22 1322.14Q615.15 1306.20 568.61 1291.54Q522.07 1276.88 478.72 1266.67ZM1238.63 1237.35L1238.63 1237.35L1264.12 1266.67Q1225.88 1283.25 1178.06 1299.19Q1130.25 1315.13 1081.16 1327.88Q1032.07 1340.63 991.27 1349.55L991.27 1349.55L970.87 1325.33Q1011.67 1315.13 1061.40 1299.83Q1111.13 1284.53 1158.30 1267.31Q1205.47 1250.10 1238.63 1237.35ZM970.87 1395.45L970.87 1395.45L986.17 1367.40Q1037.17 1372.50 1093.27 1382.70Q1149.38 1392.90 1200.38 1405.01Q1251.37 1417.13 1287.07 1429.88L1287.07 1429.88L1273.05 1463.03Q1238.63 1450.28 1186.99 1437.53Q1135.35 1424.78 1079.25 1413.30Q1023.15 1401.83 970.87 1395.45ZM839.55 2076.30L839.55 1762.65L877.80 1762.65L877.80 2076.30L839.55 2076.30ZM381.82 1789.43L381.82 1752.45L1343.17 1752.45L1343.17 1789.43L381.82 1789.43ZM300.22 2097.97L300.22 2061L1426.05 2061L1426.05 2097.97L300.22 2097.97ZM618.97 1806L618.97 1806L655.95 1813.65Q625.35 1887.60 566.06 1948.16Q506.77 2008.73 440.47 2048.25L440.47 2048.25Q436.65 2043.15 427.09 2034.86Q417.52 2026.58 409.87 2021.48L409.87 2021.48Q477.45 1984.50 534.19 1929.68Q590.92 1874.85 618.97 1806ZM1095.82 1804.73L1095.82 1804.73L1136.63 1809.83Q1114.95 1890.15 1062.67 1950.71Q1010.40 2011.28 944.10 2049.53L944.10 2049.53Q940.27 2044.43 930.71 2034.86Q921.15 2025.30 913.50 2020.20L913.50 2020.20Q979.80 1985.78 1028.25 1931.59Q1076.70 1877.40 1095.82 1804.73ZM574.35 1915.65L574.35 1915.65L596.02 1891.43Q643.20 1915.65 693.56 1950.08Q743.92 1984.50 771.97 2012.55L771.97 2012.55L751.57 2040.60Q722.25 2012.55 672.52 1977.49Q622.80 1942.43 574.35 1915.65ZM1069.05 1915.65L1069.05 1915.65L1088.17 1890.15Q1125.15 1906.73 1164.67 1928.40Q1204.20 1950.08 1239.26 1972.39Q1274.32 1994.70 1296.00 2013.83L1296.00 2013.83L1275.60 2043.15Q1241.17 2013.83 1183.16 1978.13Q1125.15 1942.43 1069.05 1915.65ZM612.60 1530.60L427.72 1530.60L427.72 1655.55L612.60 1655.55L612.60 1530.60ZM390.75 1693.80L390.75 1493.63L649.57 1493.63L649.57 1693.80L390.75 1693.80ZM951.75 1530.60L763.05 1530.60L763.05 1655.55L951.75 1655.55L951.75 1530.60ZM724.80 1693.80L724.80 1493.63L988.72 1493.63L988.72 1693.80L724.80 1693.80ZM1302.37 1530.60L1106.02 1530.60L1106.02 1655.55L1302.37 1655.55L1302.37 1530.60ZM1069.05 1693.80L1069.05 1493.63L1339.35 1493.63L1339.35 1693.80L1069.05 1693.80ZM1802.17 1160.85L1802.17 1123.88L2664.07 1123.88L2664.07 1160.85L1802.17 1160.85ZM1800.90 1311.30L1800.90 1273.05L2578.65 1273.05L2578.65 1311.30L1800.90 1311.30ZM1684.88 1463.03L1684.88 1426.05L2467.73 1426.05L2467.73 1463.03L1684.88 1463.03ZM1603.28 1785.60L1603.28 1748.63L2384.85 1748.63L2384.85 1785.60L1603.28 1785.60ZM1860.83 993.83L1860.83 993.83L1899.08 1004.03Q1864.65 1081.80 1818.11 1155.11Q1771.58 1228.42 1718.03 1290.26Q1664.47 1352.10 1607.10 1400.55L1607.10 1400.55Q1604.55 1396.72 1598.17 1392.26Q1591.80 1387.80 1585.42 1383.34Q1579.05 1378.88 1573.95 1376.33L1573.95 1376.33Q1661.92 1306.20 1737.79 1206.11Q1813.65 1106.03 1860.83 993.83ZM2460.07 1426.05L2460.07 1426.05L2497.05 1426.05Q2497.05 1593.08 2500.88 1721.21Q2504.70 1849.35 2518.09 1936.05Q2531.48 2022.75 2559.53 2066.74Q2587.57 2110.72 2637.30 2110.72L2637.30 2110.72Q2661.53 2110.72 2669.18 2056.54Q2676.82 2002.35 2679.38 1916.93L2679.38 1916.93Q2685.75 1922.03 2696.59 1927.13Q2707.43 1932.23 2713.80 1934.78L2713.80 1934.78Q2711.25 2018.93 2704.24 2064.83Q2697.23 2110.72 2681.93 2128.58Q2666.63 2146.43 2634.75 2146.43L2634.75 2146.43Q2572.28 2146.43 2537.21 2102.44Q2502.15 2058.45 2486.21 1969.20Q2470.28 1879.95 2465.81 1744.16Q2461.35 1608.38 2460.07 1426.05ZM1707.83 1535.70L1707.83 1535.70L1737.15 1519.13Q1775.40 1558.65 1809.19 1607.10Q1842.97 1655.55 1857 1692.53L1857 1692.53L1825.13 1710.38Q1811.10 1673.40 1777.95 1624.31Q1744.80 1575.22 1707.83 1535.70ZM1974.30 2145.15L1974.30 1493.63L2011.28 1493.63L2011.28 2145.15L1974.30 2145.15ZM2258.63 1517.85L2258.63 1517.85L2293.05 1538.25Q2258.63 1585.43 2217.19 1636.43Q2175.75 1687.43 2140.05 1724.40L2140.05 1724.40L2112 1706.55Q2136.22 1681.05 2163.64 1647.90Q2191.05 1614.75 2216.55 1580.33Q2242.05 1545.90 2258.63 1517.85ZM1878.67 1848.08L1878.67 1848.08L1909.28 1863.38Q1878.67 1914.38 1832.78 1966.65Q1786.88 2018.93 1735.88 2062.91Q1684.88 2106.90 1637.70 2136.22L1637.70 2136.22Q1632.60 2128.58 1624.95 2120.29Q1617.30 2112 1610.92 2106.90L1610.92 2106.90Q1658.10 2081.40 1708.46 2039.96Q1758.83 1998.53 1804.09 1948.80Q1849.35 1899.08 1878.67 1848.08ZM2103.07 1876.13L2103.07 1876.13L2128.57 1855.73Q2174.47 1890.15 2221.01 1930.95Q2267.55 1971.75 2307.71 2011.91Q2347.88 2052.08 2372.10 2083.95L2372.10 2083.95L2345.32 2109.45Q2319.82 2076.30 2279.66 2035.50Q2239.50 1994.70 2193.60 1952.63Q2147.70 1910.55 2103.07 1876.13Z"/>
  </svg>