<svg xmlns="http://www.w3.org/2000/svg" viewBox="0 0 3000 3000" width="3000" height="3000">
    <path fill="#000000" d="M1010.40 1975.58L1010.40 1975.58L1032.07 1950.08Q1104.75 1974.30 1176.79 2002.35Q1248.82 2030.40 1311.94 2058.45Q1375.05 2086.50 1422.22 2110.72L1422.22 2110.72L1395.45 2140.05Q1349.55 2114.55 1287.71 2086.50Q1225.88 2058.45 1155.11 2029.76Q1084.35 2001.08 1010.40 1975.58ZM300.22 1892.70L300.22 1855.73L1426.05 1855.73L1426.05 1892.70L300.22 1892.70ZM338.47 1163.40L338.47 1126.42L1391.63 1126.42L1391.63 1163.40L338.47 1163.40ZM681.45 1947.53L681.45 1947.53L723.52 1966.65Q672.52 2001.08 605.59 2034.23Q538.65 2067.38 467.89 2095.43Q397.12 2123.47 333.37 2143.88L333.37 2143.88Q330.82 2138.78 322.54 2129.21Q314.25 2119.65 307.87 2114.55L307.87 2114.55Q371.62 2094.15 442.39 2066.74Q513.15 2039.33 576.90 2008.73Q640.65 1978.13 681.45 1947.53ZM511.87 1457.93L511.87 1420.95L1209.30 1420.95L1209.30 1457.93L511.87 1457.93ZM511.87 1595.63L511.87 1558.65L1209.30 1558.65L1209.30 1595.63L511.87 1595.63ZM511.87 1735.88L511.87 1698.90L1209.30 1698.90L1209.30 1735.88L511.87 1735.88ZM496.57 1882.50L496.57 1267.95L1230.97 1267.95L1230.97 1882.50L1194 1882.50L1194 1306.20L533.55 1306.20L533.55 1882.50L496.57 1882.50ZM838.27 996.38L838.27 996.38L880.35 1004.03Q873.97 1049.92 866.96 1102.84Q859.95 1155.75 852.30 1205.47Q844.65 1255.20 837.00 1292.17L837.00 1292.17L802.57 1284.53Q810.22 1247.55 817.24 1195.91Q824.25 1144.28 829.99 1090.72Q835.72 1037.17 838.27 996.38ZM1798.35 1194L1798.35 1155.75L2676.82 1155.75L2676.82 1194L1798.35 1194ZM1816.20 1357.20L1816.20 1320.22L2593.95 1320.22L2593.95 1357.20L1816.20 1357.20ZM1698.90 1528.05L1698.90 1491.08L2447.32 1491.08L2447.32 1528.05L1698.90 1528.05ZM1851.90 992.55L1851.90 992.55L1887.60 1001.47Q1853.17 1100.92 1806.64 1194.64Q1760.10 1288.35 1706.55 1369.31Q1653 1450.28 1593.08 1512.75L1593.08 1512.75Q1589.25 1510.20 1582.88 1505.74Q1576.50 1501.28 1570.13 1496.18Q1563.75 1491.08 1558.65 1488.53L1558.65 1488.53Q1650.45 1398 1726.95 1266.67Q1803.45 1135.35 1851.90 992.55ZM2426.93 1491.08L2426.93 1491.08L2465.18 1491.08Q2470.28 1580.33 2478.56 1669.58Q2486.85 1758.83 2500.88 1837.88Q2514.90 1916.93 2534.03 1978.76Q2553.15 2040.60 2579.93 2075.66Q2606.70 2110.72 2642.40 2110.72L2642.40 2110.72Q2662.80 2110.72 2671.09 2062.28Q2679.38 2013.83 2680.65 1932.23L2680.65 1932.23Q2687.03 1937.33 2697.23 1941.79Q2707.43 1946.25 2713.80 1948.80L2713.80 1948.80Q2709.98 2058.45 2695.31 2102.44Q2680.65 2146.43 2639.85 2146.43L2639.85 2146.43Q2583.75 2146.43 2546.14 2096.06Q2508.53 2045.70 2484.94 1956.45Q2461.35 1867.20 2447.96 1747.99Q2434.57 1628.78 2426.93 1491.08Z"/>
  </svg>