<svg xmlns="http://www.w3.org/2000/svg" viewBox="0 0 3000 3000" width="3000" height="3000">
    <path fill="#000000" d="M884.17 1924.58L884.17 1924.58Q893.10 1918.20 917.96 1920.11Q942.82 1922.03 967.05 1929.67L967.05 1929.67Q998.92 1941.15 1013.59 1939.88Q1028.25 1938.60 1037.17 1946.89Q1046.10 1955.17 1069.69 1967.92Q1093.27 1980.67 1113.67 2002.35L1113.67 2002.35Q1127.70 2020.20 1130.25 2027.21Q1132.80 2034.22 1131.52 2054.63L1131.52 2054.63Q1127.70 2106.90 1098.38 2114.55L1098.38 2114.55Q1085.63 2118.38 1061.40 2106.26Q1037.17 2094.15 1015.50 2071.20L1015.50 2071.20Q990.00 2048.25 953.02 2015.10L953.02 2015.10Q928.80 1993.42 912.22 1978.76Q895.65 1964.10 887.36 1952.63Q879.07 1941.15 879.07 1934.78Q879.07 1928.40 884.17 1924.58ZM839.55 954.30L839.55 954.30Q842.10 947.92 855.49 958.76Q868.87 969.60 875.25 969.60Q881.62 969.60 886.09 981.07Q890.55 992.55 896.92 1000.20L896.92 1000.20Q919.87 1025.70 924.34 1035.90Q928.80 1046.10 926.25 1067.77L926.25 1067.77L922.42 1095.82L981.07 1093.27Q1020.60 1089.45 1032.07 1087.54Q1043.55 1085.63 1047.38 1076.70L1047.38 1076.70Q1056.30 1067.77 1072.24 1070.32Q1088.17 1072.88 1125.15 1076.70L1125.15 1076.70Q1163.40 1083.07 1177.42 1088.17Q1191.45 1093.27 1202.92 1108.57L1202.92 1108.57Q1228.42 1141.72 1210.57 1173.60L1210.57 1173.60Q1197.82 1195.27 1180.61 1197.19Q1163.40 1199.10 1118.77 1185.07L1118.77 1185.07Q1014.22 1151.92 953.02 1151.92L953.02 1151.92L918.60 1151.92L884.17 1186.35Q851.02 1223.32 842.10 1226.51Q833.17 1229.70 830.62 1236.07L830.62 1236.07Q828.07 1238.63 839.55 1239.90L839.55 1239.90Q854.85 1241.17 903.30 1241.17L903.30 1241.17Q954.30 1241.17 970.24 1243.09Q986.17 1245 1002.75 1253.92L1002.75 1253.92Q1024.42 1265.40 1034.63 1265.40Q1044.82 1265.40 1062.04 1278.15Q1079.25 1290.90 1086.90 1301.10L1086.90 1301.10Q1102.20 1326.60 1079.25 1380.15L1079.25 1380.15Q1074.15 1392.90 1072.88 1440.07Q1071.60 1487.25 1067.77 1548.45Q1063.95 1609.65 1062.67 1675.95L1062.67 1675.95L1060.13 1742.25L1116.22 1746.08Q1171.05 1748.63 1266.67 1749.90L1266.67 1749.90L1361.02 1753.72L1377.60 1769.03Q1392.90 1784.33 1392.90 1791.97Q1392.90 1799.63 1397.36 1802.81Q1401.82 1806 1401.82 1832.78L1401.82 1832.78Q1401.82 1869.75 1383.34 1876.13Q1364.85 1882.50 1311.30 1862.10L1311.30 1862.10Q1273.05 1848.08 1204.84 1837.88Q1136.63 1827.67 1083.07 1827.67L1083.07 1827.67L1046.10 1826.40L1030.80 1850.63Q1019.32 1864.65 1011.67 1869.11Q1004.02 1873.58 984.90 1878.67L984.90 1878.67Q956.85 1883.78 946.65 1879.95Q936.45 1876.13 931.35 1857L931.35 1857Q922.42 1831.50 910.31 1827.04Q898.20 1822.58 856.12 1826.40L856.12 1826.40Q848.47 1826.40 828.07 1867.20L828.07 1867.20Q810.22 1900.35 799.39 1915.65Q788.55 1930.95 760.50 1959L760.50 1959Q720.97 1998.53 688.46 2020.84Q655.95 2043.15 599.85 2069.93L599.85 2069.93Q527.17 2105.63 499.12 2109.45L499.12 2109.45L474.90 2112L532.27 2055.90Q601.12 1990.88 667.42 1908L667.42 1908Q712.05 1851.90 705.67 1844.25L705.67 1844.25Q696.75 1836.60 613.87 1854.45Q531.00 1872.30 490.20 1890.15L490.20 1890.15Q473.62 1899.08 470.44 1899.08Q467.25 1899.08 449.40 1917.56Q431.55 1936.05 418.80 1936.05L418.80 1936.05Q404.77 1936.05 374.17 1918.84Q343.57 1901.63 341.02 1893.97L341.02 1893.97Q335.92 1881.22 329.55 1872.30L329.55 1872.30Q318.07 1859.55 325.09 1848.08Q332.10 1836.60 356.32 1826.40L356.32 1826.40Q400.95 1809.83 474.26 1795.16Q547.57 1780.50 585.82 1780.50L585.82 1780.50L610.05 1780.50L607.50 1744.80Q603.67 1721.85 606.22 1711.01Q608.77 1700.17 620.25 1675.95L620.25 1675.95L636.82 1642.80L636.82 1493.63Q636.82 1347 641.92 1338.07L641.92 1338.07Q645.75 1329.15 668.70 1310.66Q691.65 1292.17 706.95 1283.25L706.95 1283.25Q720.97 1273.05 736.27 1242.45L736.27 1242.45Q768.15 1174.88 768.15 1167.22L768.15 1167.22Q766.87 1164.67 754.76 1164.67Q742.65 1164.67 727.35 1167.22Q712.05 1169.77 709.50 1172.32L709.50 1172.32Q704.40 1177.42 697.39 1177.42Q690.37 1177.42 657.22 1194L657.22 1194L624.07 1209.30L602.40 1197.82Q582.00 1187.63 582.00 1172.96Q582.00 1158.30 596.02 1153.20L596.02 1153.20Q659.77 1125.15 727.35 1116.22L727.35 1116.22Q786.00 1109.85 792.37 1103.47L792.37 1103.47Q797.47 1098.38 807.04 1070.32Q816.60 1042.27 816.60 1032.07L816.60 1032.07Q816.60 1025.70 826.16 992.55Q835.72 959.40 839.55 954.30ZM933.90 1318.95L933.90 1318.95Q926.25 1312.57 899.47 1310.66Q872.70 1308.75 852.30 1312.57L852.30 1312.57Q778.35 1327.88 745.84 1343.81Q713.32 1359.75 706.95 1383.97L706.95 1383.97Q698.02 1415.85 705.67 1415.85L705.67 1415.85Q706.95 1415.85 709.50 1413.30L709.50 1413.30Q719.70 1409.47 768.15 1394.17L768.15 1394.17Q842.10 1369.95 869.51 1368.04Q896.92 1366.13 910.95 1382.70L910.95 1382.70Q924.97 1396.72 930.07 1391.63L930.07 1391.63Q935.17 1385.25 936.45 1354.01Q937.72 1322.78 933.90 1318.95ZM930.07 1493.63L930.07 1461.75L930.07 1429.88L895.65 1429.88Q872.70 1427.32 827.44 1435.61Q782.17 1443.90 763.05 1451.55L763.05 1451.55Q747.75 1457.92 724.80 1457.92L724.80 1457.92L700.57 1457.92L701.85 1480.88Q701.85 1507.65 708.22 1510.84Q714.60 1514.03 743.92 1501.28L743.92 1501.28Q777.07 1483.42 805.12 1475.77L805.12 1475.77Q830.62 1468.13 861.86 1467.49Q893.10 1466.85 897.56 1473.86Q902.02 1480.88 916.05 1487.25L916.05 1487.25L930.07 1493.63ZM935.17 1563.75L935.17 1563.75L935.17 1530.60L912.22 1531.88L853.57 1534.42Q819.15 1535.70 802.57 1543.35L802.57 1543.35Q782.17 1552.28 759.22 1554.19Q736.27 1556.10 722.25 1548.45L722.25 1548.45Q706.95 1539.53 701.21 1543.99Q695.47 1548.45 698.02 1566.30L698.02 1566.30Q701.85 1585.42 701.85 1608.38L701.85 1608.38L700.57 1633.88L738.82 1616.03Q796.20 1587.97 844.01 1580.32Q891.82 1572.67 909.67 1587.97L909.67 1587.97Q926.25 1600.72 930.71 1596.26Q935.17 1591.80 935.17 1563.75ZM935.17 1746.08L935.17 1696.35L935.17 1644.08L919.87 1645.35Q884.17 1646.63 833.81 1655.55Q783.45 1664.47 777.07 1670.85L777.07 1670.85Q770.70 1674.67 746.47 1678.50Q722.25 1682.33 713.96 1673.40Q705.67 1664.47 702.49 1667.66Q699.30 1670.85 694.20 1718.03L694.20 1718.03L687.82 1763.92L719.70 1761.38Q750.30 1757.55 756.67 1751.81Q763.05 1746.08 765.60 1725.67L765.60 1725.67Q768.15 1687.42 784.72 1678.50L784.72 1678.50Q788.55 1677.22 791.10 1679.78L791.10 1679.78Q796.20 1686.15 808.95 1686.15L808.95 1686.15Q819.15 1686.15 829.99 1694.44Q840.82 1702.72 840.82 1711.65L840.82 1711.65Q840.82 1716.75 845.92 1716.75Q851.02 1716.75 853.57 1734.60L853.57 1734.60Q856.12 1748.63 859.95 1751.17Q863.77 1753.72 880.35 1753.72L880.35 1753.72Q903.30 1753.72 918.60 1749.90L918.60 1749.90L935.17 1746.08ZM2106.90 1433.70L2106.90 1433.70Q2175.75 1424.78 2178.30 1421.59Q2180.85 1418.40 2191.05 1421.59Q2201.25 1424.78 2213.36 1424.78Q2225.47 1424.78 2235.68 1447.72L2235.68 1447.72L2245.88 1470.67L2234.40 1510.20Q2224.20 1549.72 2219.10 1565.03L2219.10 1565.03Q2211.45 1591.80 2215.28 1668.30Q2219.10 1744.80 2230.57 1767.75L2230.57 1767.75Q2234.40 1776.67 2234.40 1785.60L2234.40 1785.60Q2234.40 1791.97 2255.44 1822.58Q2276.48 1853.17 2290.50 1867.20L2290.50 1867.20Q2303.25 1879.95 2328.75 1892.70Q2354.25 1905.45 2368.28 1914.38L2368.28 1914.38Q2383.57 1925.85 2413.54 1933.50Q2443.50 1941.15 2458.80 1936.05L2458.80 1936.05Q2500.88 1929.67 2528.93 1897.80L2528.93 1897.80Q2540.40 1885.05 2548.69 1864.01Q2556.98 1842.97 2577.38 1772.85L2577.38 1772.85Q2590.13 1732.05 2597.78 1765.20L2597.78 1765.20Q2602.88 1786.88 2602.88 1826.40L2602.88 1826.40Q2602.88 1864.65 2604.79 1876.13Q2606.70 1887.60 2614.35 1896.53L2614.35 1896.53Q2643.68 1932.22 2650.05 1971.75L2650.05 1971.75Q2652.60 1987.05 2645.59 2002.99Q2638.57 2018.92 2638.57 2027.85L2638.57 2027.85Q2638.57 2046.97 2616.26 2073.11Q2593.95 2099.25 2565.90 2112L2565.90 2112Q2548.05 2120.93 2535.30 2122.84Q2522.55 2124.75 2490.68 2124.75L2490.68 2124.75Q2440.95 2124.75 2410.35 2113.28L2410.35 2113.28Q2375.93 2100.53 2333.21 2076.94Q2290.50 2053.35 2272.65 2038.05L2272.65 2038.05Q2252.25 2020.20 2239.50 2013.83L2239.50 2013.83Q2219.10 1999.80 2192.32 1953.90L2192.32 1953.90Q2159.18 1897.80 2134.95 1837.88L2134.95 1837.88L2120.93 1798.35Q2113.28 1784.33 2110.72 1710.38L2110.72 1710.38Q2105.63 1603.28 2129.85 1519.13L2129.85 1519.13Q2134.95 1500 2128.57 1496.17L2128.57 1496.17Q2122.20 1489.80 2093.51 1492.99Q2064.82 1496.17 2040.60 1503.82L2040.60 1503.82Q2015.10 1511.47 1984.50 1516.57L1984.50 1516.57Q1952.63 1521.67 1901.63 1543.99Q1850.63 1566.30 1831.50 1582.88L1831.50 1582.88Q1821.30 1590.53 1804.72 1600.72L1804.72 1600.72L1770.30 1622.40Q1752.45 1633.88 1735.88 1632.60L1735.88 1632.60Q1719.30 1630.05 1714.84 1624.95Q1710.38 1619.85 1707.83 1600.72L1707.83 1600.72Q1704 1580.32 1716.75 1567.57L1716.75 1567.57Q1726.95 1557.38 1795.16 1521.67Q1863.38 1485.97 1871.03 1485.97L1871.03 1485.97Q1876.13 1485.97 1901.63 1475.77L1901.63 1475.77Q1938.60 1459.20 2106.90 1433.70ZM2048.25 1238.63L2048.25 1238.63Q2069.93 1234.80 2087.78 1226.51Q2105.63 1218.22 2130.49 1218.86Q2155.35 1219.50 2163 1228.42L2163 1228.42Q2173.20 1238.63 2177.03 1267.95L2177.03 1267.95Q2178.30 1288.35 2177.03 1293.45Q2175.75 1298.55 2165.55 1307.47L2165.55 1307.47Q2151.53 1318.95 2134.95 1315.13L2134.95 1315.13Q2122.20 1312.57 2087.14 1319.59Q2052.07 1326.60 2032.95 1334.25L2032.95 1334.25Q1975.58 1362.30 1956.45 1366.76Q1937.33 1371.22 1919.47 1359.75L1919.47 1359.75Q1904.18 1350.82 1901.63 1332.97L1901.63 1332.97Q1897.80 1310.03 1900.35 1303.01Q1902.90 1296 1918.20 1285.80L1918.20 1285.80Q1934.78 1274.32 1980.04 1257.75Q2025.30 1241.17 2048.25 1238.63ZM2147.70 1020.60L2147.70 1020.60Q2165.55 1014.22 2170.65 1021.87L2170.65 1021.87Q2174.47 1026.97 2187.22 1026.97L2187.22 1026.97Q2201.25 1026.97 2215.91 1035.90Q2230.57 1044.82 2233.13 1055.02L2233.13 1055.02Q2235.68 1067.77 2233.13 1095.82L2233.13 1095.82Q2231.85 1121.32 2218.46 1128.97Q2205.07 1136.63 2157.90 1137.90L2157.90 1137.90Q2122.20 1139.17 2108.18 1141.72Q2094.15 1144.27 2069.93 1157.02L2069.93 1157.02Q2032.95 1174.88 2024.03 1174.88L2024.03 1174.88Q2004.90 1174.88 1978.13 1150.65L1978.13 1150.65Q1964.10 1136.63 1963.46 1114.95Q1962.83 1093.27 1976.85 1085.63L1976.85 1085.63Q1994.70 1074.15 2032.31 1060.76Q2069.93 1047.38 2092.88 1043.55L2092.88 1043.55Q2124.75 1037.17 2133.04 1030.16Q2141.32 1023.15 2147.70 1020.60ZM1885.05 944.10L1885.05 944.10Q1899.08 935.17 1937.33 960.67L1937.33 960.67Q1966.65 979.80 1973.66 992.55Q1980.68 1005.30 1974.30 1021.87L1974.30 1021.87Q1967.93 1039.72 1948.80 1061.40Q1929.68 1083.07 1897.80 1130.25L1897.80 1130.25Q1868.47 1169.77 1832.78 1208.02Q1797.08 1246.28 1772.85 1264.13L1772.85 1264.13Q1746.08 1283.25 1673.40 1354.65L1673.40 1354.65Q1642.80 1383.97 1633.24 1383.97Q1623.67 1383.97 1623.67 1382.06Q1623.67 1380.15 1672.76 1313.21Q1721.85 1246.28 1746.08 1209.30L1746.08 1209.30L1795.80 1132.80Q1821.30 1092 1821.30 1090.09Q1821.30 1088.17 1835.96 1063.95Q1850.63 1039.72 1859.55 1007.85L1859.55 1007.85Q1877.40 949.20 1885.05 944.10Z"/>
  </svg>