<svg xmlns="http://www.w3.org/2000/svg" viewBox="0 0 3000 3000" width="3000" height="3000">
    <path fill="#000000" d="M1076.70 1714.20L1080.52 1627.50L662.32 1646.63L666.15 1732.05L1076.70 1714.20ZM1401.82 1769.03L395.85 1813.65L365.25 1814.93Q351.22 1814.93 328.27 1805.36Q305.32 1795.80 288.75 1747.35L288.75 1747.35Q287.47 1744.80 287.47 1740.34Q287.47 1735.88 292.57 1735.88Q297.67 1735.88 312.34 1740.34Q327.00 1744.80 357.60 1744.80L357.60 1744.80L369.07 1744.80L587.10 1735.88L564.15 1242.45Q561.60 1201.65 551.40 1183.80Q541.20 1165.95 541.20 1158.30L541.20 1158.30Q541.20 1146.83 560.96 1146.83Q580.72 1146.83 650.85 1177.43L650.85 1177.43L819.15 1167.22L820.42 1085.63L567.97 1100.92Q560.32 1102.20 552.67 1102.20L552.67 1102.20L538.65 1102.20Q506.77 1102.20 492.11 1091.36Q477.45 1080.53 469.16 1063.95Q460.87 1047.38 460.87 1039.72Q460.87 1032.08 465.97 1032.08Q471.07 1032.08 483.82 1036.54Q496.57 1041 523.35 1041L523.35 1041L533.55 1041L821.70 1023.15L821.70 969.60Q821.70 936.45 811.50 916.05Q801.30 895.65 801.30 889.28L801.30 889.28Q801.30 879.08 815.32 879.08Q829.35 879.08 858.04 888Q886.72 896.92 895.01 905.85Q903.30 914.77 903.30 927.52L903.30 927.52L899.47 1019.33L1123.88 1006.58Q1151.92 1004.02 1174.24 997.01Q1196.55 990 1205.47 990Q1214.40 990 1230.97 998.92Q1247.55 1007.85 1260.94 1020.60Q1274.32 1033.35 1274.32 1044.83Q1274.32 1056.30 1246.27 1060.13L1246.27 1060.13L896.92 1080.53L894.37 1163.40L1120.05 1149.38L1127.70 1149.38Q1146.82 1149.38 1169.77 1163.40Q1192.72 1177.43 1192.72 1188.90Q1192.72 1200.38 1188.26 1206.75Q1183.80 1213.13 1182.52 1219.50L1182.52 1219.50L1151.92 1710.38L1274.32 1705.28Q1321.50 1701.45 1339.35 1695.71Q1357.20 1689.98 1366.13 1689.98Q1375.05 1689.98 1391.63 1701.45L1391.63 1701.45Q1436.25 1729.50 1436.25 1751.18L1436.25 1751.18Q1436.25 1766.48 1401.82 1769.03L1401.82 1769.03ZM768.15 1910.55L768.15 1910.55Q625.35 1995.98 474.90 2035.50L474.90 2035.50Q414.97 2052.08 393.30 2052.08Q371.62 2052.08 371.62 2043.15L371.62 2043.15Q371.62 2031.68 404.77 2016.38L404.77 2016.38Q542.47 1955.18 662.32 1868.48L662.32 1868.48Q687.82 1849.35 692.92 1828.31Q698.02 1807.28 709.50 1807.28Q720.97 1807.28 737.55 1822.58Q754.12 1837.88 766.24 1857.64Q778.35 1877.40 778.35 1890.79Q778.35 1904.18 768.15 1910.55ZM1241.17 2041.88L1241.17 2041.88Q1089.45 1942.43 972.15 1893.98L972.15 1893.98Q950.47 1883.78 950.47 1869.11Q950.47 1854.45 963.86 1835.33Q977.25 1816.20 985.54 1816.20Q993.82 1816.20 1067.77 1847.44Q1141.72 1878.68 1215.04 1922.03Q1288.35 1965.38 1296.00 1973.03Q1303.65 1980.68 1303.65 1997.89Q1303.65 2015.10 1292.17 2032.95Q1280.70 2050.80 1267.31 2050.80Q1253.92 2050.80 1241.17 2041.88ZM659.77 1585.43L1084.35 1566.30L1089.45 1484.70L655.95 1506.38L659.77 1585.43ZM1092 1424.78L1095.82 1349.55L649.57 1372.50L653.40 1446.45L1092 1424.78ZM1098.38 1287.08L1102.20 1211.85L644.47 1237.35L647.02 1311.30L1098.38 1287.08ZM2577.38 1104.75L1849.35 1149.38Q1735.88 1299.83 1631.33 1362.30L1631.33 1362.30Q1608.38 1376.33 1596.26 1376.33Q1584.15 1376.33 1584.15 1367.40L1584.15 1367.40Q1584.15 1353.38 1619.85 1317.68L1619.85 1317.68Q1710.38 1229.70 1787.51 1109.85Q1864.65 990 1864.65 928.80L1864.65 928.80L1864.65 914.77Q1864.65 900.75 1873.58 900.75Q1882.50 900.75 1902.90 910.95L1902.90 910.95Q1960.28 939 1960.28 963.23L1960.28 963.23Q1960.28 978.52 1934.14 1021.24Q1908 1063.95 1901.63 1072.88L1901.63 1072.88L2485.58 1035.90Q2516.18 1033.35 2526.38 1030.16Q2536.57 1026.97 2543.59 1026.97Q2550.60 1026.97 2565.90 1035.90L2565.90 1035.90Q2606.70 1061.40 2606.70 1084.35L2606.70 1084.35Q2606.70 1102.20 2577.38 1104.75L2577.38 1104.75ZM1849.35 1243.72L1849.35 1243.72L1910.55 1250.10L1922.03 1250.10L2346.60 1220.78Q2383.57 1216.95 2393.14 1213.76Q2402.70 1210.58 2408.44 1210.58Q2414.18 1210.58 2428.20 1219.50L2428.20 1219.50Q2467.73 1243.72 2467.73 1266.68L2467.73 1266.68Q2467.73 1283.25 2439.68 1287.08L2439.68 1287.08L1943.70 1320.22L1916.93 1321.50Q1865.92 1321.50 1848.08 1279.43L1848.08 1279.43Q1839.15 1257.75 1839.15 1252.65L1839.15 1252.65Q1839.15 1243.72 1849.35 1243.72ZM2729.10 1726.95L2729.10 1752.45Q2729.10 1890.15 2701.05 1993.43L2701.05 1993.43Q2687.03 2044.43 2646.23 2044.43L2646.23 2044.43Q2633.48 2044.43 2604.15 2035.50L2604.15 2035.50Q2526.38 2011.28 2471.55 1922.03L2471.55 1922.03Q2395.05 1799.63 2395.05 1568.85L2395.05 1568.85Q2395.05 1517.85 2398.88 1468.13L2398.88 1468.13L1783.05 1507.65Q1774.13 1508.93 1765.20 1508.93L1765.20 1508.93L1751.17 1508.93Q1725.67 1508.93 1711.65 1498.09Q1697.63 1487.25 1686.79 1466.21Q1675.95 1445.18 1675.95 1436.89Q1675.95 1428.60 1682.96 1428.60Q1689.97 1428.60 1709.10 1433.06Q1728.22 1437.53 1749.90 1437.53L1749.90 1437.53L1757.55 1437.53L2415.45 1394.18L2430.75 1394.18Q2452.43 1394.18 2470.91 1408.20Q2489.40 1422.22 2489.40 1434.97Q2489.40 1447.72 2485.58 1456.65Q2481.75 1465.58 2479.20 1502.55Q2476.65 1539.53 2476.65 1617.94Q2476.65 1696.35 2494.50 1764.56Q2512.35 1832.78 2538.49 1872.30Q2564.63 1911.83 2588.85 1927.76Q2613.07 1943.70 2622.64 1943.70Q2632.20 1943.70 2632.20 1936.05L2632.20 1936.05Q2664.07 1849.35 2689.57 1721.85L2689.57 1721.85Q2697.23 1682.33 2711.89 1682.33Q2726.55 1682.33 2729.10 1726.95L2729.10 1726.95Z"/>
  </svg>