<svg xmlns="http://www.w3.org/2000/svg" viewBox="0 0 3000 3000" width="3000" height="3000">
    <path fill="#000000" d="M457.84 1890.97Q408.03 1890.97 385.00 1865.44Q361.96 1839.92 365.70 1786.38L365.70 1786.38L365.70 1380.47Q365.70 1319.46 416.75 1319.46L416.75 1319.46Q441.65 1319.46 454.10 1334.40Q466.55 1349.34 466.55 1380.47L466.55 1380.47L466.55 1758.98Q466.55 1802.56 507.64 1805.05L507.64 1805.05L1363.04 1805.05Q1402.88 1805.05 1402.88 1847.39L1402.88 1847.39Q1402.88 1890.97 1363.04 1890.97L1363.04 1890.97L457.84 1890.97ZM347.02 2069.02Q323.36 2071.51 309.67 2058.44Q295.97 2045.36 295.97 2019.21L295.97 2019.21Q295.97 2001.78 309.05 1990.58Q322.12 1979.37 345.78 1976.88L345.78 1976.88Q445.39 1965.67 528.19 1947.00Q610.99 1928.32 653.32 1912.13L653.32 1912.13L686.94 1900.93Q690.67 1899.68 698.14 1899.68L698.14 1899.68Q714.33 1899.68 726.78 1914.62Q739.23 1929.57 737.99 1949.49L737.99 1949.49Q736.74 1978.13 657.68 2008.01Q578.61 2037.89 431.69 2057.81L431.69 2057.81L347.02 2069.02ZM1356.81 2064.04Q1307.01 2064.04 1137.67 2025.44L1137.67 2025.44Q996.97 1994.31 973.32 1974.39L973.32 1974.39Q959.62 1963.18 959.62 1944.51L959.62 1944.51Q959.62 1923.34 974.56 1911.51Q989.50 1899.68 1008.18 1903.42L1008.18 1903.42L1025.61 1907.15Q1156.35 1944.51 1363.04 1969.41L1363.04 1969.41Q1405.37 1974.39 1405.37 2009.25L1405.37 2009.25Q1405.37 2064.04 1356.81 2064.04L1356.81 2064.04ZM1150.12 1688.01Q1181.25 1688.01 1181.25 1649.41L1181.25 1649.41L1181.25 1618.29L653.32 1618.29L653.32 1649.41Q653.32 1684.28 684.45 1688.01L684.45 1688.01L1150.12 1688.01ZM652.08 1761.47Q601.03 1761.47 577.99 1734.70Q554.96 1707.93 557.45 1649.41L557.45 1649.41L557.45 1392.92Q557.45 1333.15 579.86 1305.76Q602.27 1278.37 652.08 1282.10L652.08 1282.10L1182.50 1282.10Q1234.79 1282.10 1257.82 1308.87Q1280.86 1335.64 1278.37 1392.92L1278.37 1392.92L1278.37 1649.41Q1278.37 1710.42 1255.96 1737.19Q1233.54 1763.96 1182.50 1761.47L1182.50 1761.47L652.08 1761.47ZM653.32 1551.05L1181.25 1551.05L1181.25 1485.06L653.32 1485.06L653.32 1551.05ZM653.32 1416.58L1181.25 1416.58L1181.25 1392.92Q1181.25 1358.06 1150.12 1356.81L1150.12 1356.81L684.45 1356.81Q653.32 1356.81 653.32 1392.92L653.32 1392.92L653.32 1416.58ZM752.93 1231.05Q622.19 1231.05 528.81 1218.60L528.81 1218.60Q444.14 1207.40 444.14 1122.73L444.14 1122.73L444.14 984.52Q444.14 927.25 493.95 927.25L493.95 927.25Q518.85 927.25 531.92 942.19Q545.00 957.13 543.75 984.52L543.75 984.52Q542.50 1011.91 542.50 1056.74L542.50 1056.74Q542.50 1105.30 543.75 1116.50L543.75 1116.50Q545.00 1127.71 549.98 1133.94Q554.96 1140.16 569.90 1142.65L569.90 1142.65Q628.42 1151.37 787.79 1151.37L787.79 1151.37L840.09 1151.37Q903.59 1151.37 935.96 1150.12L935.96 1150.12Q1033.08 1150.12 1080.40 1148.88L1080.40 1148.88Q1132.69 1147.63 1159.46 1141.41Q1186.23 1135.18 1195.57 1124.60Q1204.91 1114.01 1204.91 1096.58L1204.91 1096.58Q1204.91 1072.92 1218.60 1060.47Q1232.30 1048.02 1253.47 1048.02L1253.47 1048.02Q1277.12 1048.02 1290.82 1062.34Q1304.52 1076.66 1304.52 1099.07L1304.52 1099.07Q1304.52 1183.74 1252.22 1206.15L1252.22 1206.15Q1204.91 1226.07 1031.84 1228.56L1031.84 1228.56Q847.56 1231.05 752.93 1231.05L752.93 1231.05ZM513.87 1019.38Q949.66 995.73 1142.65 948.41L1142.65 948.41Q1155.10 945.92 1158.84 945.92L1158.84 945.92Q1177.51 945.92 1188.10 959.62Q1198.68 973.32 1198.68 991.99L1198.68 991.99Q1198.68 1028.10 1158.84 1035.57L1158.84 1035.57Q974.56 1067.94 720.56 1081.64L720.56 1081.64L517.60 1092.85L513.87 1019.38ZM2606.91 2065.28Q2516.02 2065.28 2478.66 1939.53Q2441.31 1813.77 2441.31 1614.55L2441.31 1614.55L2441.31 1468.87Q2441.31 1422.80 2401.46 1422.80L2401.46 1422.80L1665.60 1422.80Q1610.82 1422.80 1610.82 1380.47L1610.82 1380.47Q1610.82 1336.89 1665.60 1336.89L1665.60 1336.89L2431.35 1336.89Q2540.92 1336.89 2542.16 1441.48L2542.16 1441.48L2542.16 1557.28Q2542.16 1741.55 2557.73 1843.03Q2573.29 1944.51 2601.93 1944.51L2601.93 1944.51Q2610.64 1944.51 2614.38 1914.62Q2618.12 1884.74 2621.85 1812.52L2621.85 1812.52Q2624.34 1757.74 2662.94 1757.74L2662.94 1757.74Q2706.52 1757.74 2706.52 1806.30L2706.52 1806.30Q2706.52 2065.28 2606.91 2065.28L2606.91 2065.28ZM1702.95 2003.03Q1679.30 2014.23 1660.62 2014.23L1660.62 2014.23Q1627.00 2014.23 1615.80 1985.60L1615.80 1985.60Q1612.06 1976.88 1612.06 1966.92L1612.06 1966.92Q1612.06 1933.30 1663.11 1912.13L1663.11 1912.13Q1749.02 1876.03 1825.60 1824.98Q1902.17 1773.93 1953.22 1716.65L1953.22 1716.65L1991.82 1714.16L1990.58 1781.40Q1943.26 1839.92 1869.18 1898.44Q1795.09 1956.96 1702.95 2003.03L1702.95 2003.03ZM1821.24 1643.19Q1797.58 1643.19 1782.64 1614.55L1782.64 1614.55Q1773.93 1597.12 1761.47 1577.20L1761.47 1577.20L1740.31 1541.09Q1725.37 1518.68 1725.37 1504.98L1725.37 1504.98Q1725.37 1486.30 1737.82 1473.23Q1750.27 1460.16 1765.21 1460.16L1765.21 1460.16Q1783.89 1460.16 1794.47 1467.63Q1805.05 1475.10 1815.01 1490.04L1815.01 1490.04L1829.96 1513.70Q1871.04 1578.44 1871.04 1598.36L1871.04 1598.36Q1871.04 1618.29 1856.10 1630.74Q1841.16 1643.19 1821.24 1643.19L1821.24 1643.19ZM2026.68 2061.55Q1981.86 2061.55 1981.86 2010.50L1981.86 2010.50L1981.86 1498.75Q1981.86 1447.71 2027.93 1447.71L2027.93 1447.71Q2074.00 1447.71 2074.00 1498.75L2074.00 1498.75L2074.00 2010.50Q2074.00 2061.55 2026.68 2061.55L2026.68 2061.55ZM1670.58 1750.27Q1625.76 1750.27 1625.76 1709.18L1625.76 1709.18Q1625.76 1668.09 1670.58 1668.09L1670.58 1668.09L2351.66 1668.09Q2396.48 1668.09 2396.48 1709.18L2396.48 1709.18Q2396.48 1750.27 2351.66 1750.27L2351.66 1750.27L1670.58 1750.27ZM2357.89 1999.29Q2349.17 1999.29 2330.49 1988.71Q2311.82 1978.13 2288.16 1961.94L2288.16 1961.94Q2179.83 1889.72 2136.25 1868.55L2136.25 1868.55Q2105.13 1853.61 2098.90 1838.67L2098.90 1838.67Q2095.17 1831.20 2095.17 1823.73L2095.17 1823.73Q2095.17 1817.50 2098.90 1806.30L2098.90 1806.30Q2101.39 1796.34 2111.98 1789.49Q2122.56 1782.64 2136.25 1782.64L2136.25 1782.64Q2161.16 1782.64 2308.08 1863.57L2308.08 1863.57L2374.07 1897.19Q2413.92 1917.11 2413.92 1950.73L2413.92 1950.73Q2413.92 1971.90 2398.97 1985.60Q2384.03 1999.29 2357.89 1999.29L2357.89 1999.29ZM2217.19 1641.94Q2202.25 1641.94 2189.79 1628.87Q2177.34 1615.80 2177.34 1597.12L2177.34 1597.12Q2177.34 1583.42 2192.29 1561.01L2192.29 1561.01L2213.45 1524.90Q2225.90 1504.98 2234.62 1487.55L2234.62 1487.55Q2249.56 1458.91 2273.22 1458.91L2273.22 1458.91Q2293.14 1458.91 2308.08 1471.36Q2323.02 1483.81 2323.02 1503.74L2323.02 1503.74Q2323.02 1519.92 2281.93 1588.40L2281.93 1588.40L2266.99 1612.06Q2257.03 1627.00 2246.45 1634.47Q2235.86 1641.94 2217.19 1641.94L2217.19 1641.94ZM1806.30 1264.67Q1758.98 1264.67 1758.98 1222.34L1758.98 1222.34Q1758.98 1180.00 1806.30 1180.00L1806.30 1180.00L2494.85 1180.00Q2543.41 1180.00 2543.41 1222.34L2543.41 1222.34Q2543.41 1264.67 2494.85 1264.67L2494.85 1264.67L1806.30 1264.67ZM1614.55 1304.52Q1590.89 1304.52 1579.06 1291.44Q1567.24 1278.37 1567.24 1255.96L1567.24 1255.96Q1567.24 1232.30 1593.38 1211.13L1593.38 1211.13Q1719.14 1104.05 1803.81 972.07L1803.81 972.07Q1832.45 928.49 1864.82 928.49L1864.82 928.49Q1887.23 928.49 1902.17 939.70Q1917.11 950.90 1917.11 969.58L1917.11 969.58Q1917.11 984.52 1893.46 1021.88L1893.46 1021.88L2610.64 1021.88Q2666.67 1021.88 2666.67 1065.45L2666.67 1065.45Q2666.67 1107.79 2610.64 1107.79L2610.64 1107.79L1828.71 1107.79Q1666.85 1304.52 1614.55 1304.52L1614.55 1304.52Z"/>
  </svg>