<svg xmlns="http://www.w3.org/2000/svg" viewBox="0 0 3000 3000" width="3000" height="3000">
    <path fill="#000000" d="M996.37 2034.23L996.37 1491.08L1033.35 1491.08L1033.35 2034.23Q1033.35 2064.83 1047.38 2074.39Q1061.40 2083.95 1104.75 2083.95L1104.75 2083.95Q1114.95 2083.95 1143.64 2083.95Q1172.32 2083.95 1208.02 2083.95Q1243.72 2083.95 1274.32 2083.95Q1304.92 2083.95 1320.22 2083.95L1320.22 2083.95Q1350.82 2083.95 1366.13 2066.10Q1381.42 2048.25 1387.16 1995.98Q1392.90 1943.70 1394.17 1840.43L1394.17 1840.43Q1400.55 1844.25 1406.92 1848.71Q1413.30 1853.18 1420.31 1855.73Q1427.32 1858.28 1432.42 1860.83L1432.42 1860.83Q1429.88 1964.10 1420.95 2020.84Q1412.02 2077.58 1389.71 2099.89Q1367.40 2122.20 1320.22 2122.20L1320.22 2122.20Q1312.57 2122.20 1281.34 2122.20Q1250.10 2122.20 1212.49 2122.20Q1174.88 2122.20 1144.27 2122.20Q1113.67 2122.20 1106.02 2122.20L1106.02 2122.20Q1063.95 2122.20 1039.72 2115.19Q1015.50 2108.18 1005.94 2089.05Q996.37 2069.93 996.37 2034.23L996.37 2034.23ZM309.15 1512.75L309.15 1474.50L1417.13 1474.50L1417.13 1512.75L309.15 1512.75ZM416.25 1143L416.25 1106.03L1317.67 1106.03L1317.67 1143L416.25 1143ZM669.97 1501.28L669.97 1501.28L708.22 1501.28Q699.30 1609.65 680.17 1707.19Q661.05 1804.73 620.89 1887.60Q580.72 1970.48 511.24 2035.50Q441.75 2100.53 333.37 2142.60L333.37 2142.60Q330.82 2137.50 322.54 2129.85Q314.25 2122.20 307.87 2117.10L307.87 2117.10Q413.70 2076.30 480.64 2013.83Q547.57 1951.35 586.46 1871.03Q625.35 1790.70 643.84 1696.99Q662.32 1603.28 669.97 1501.28ZM1798.35 1194L1798.35 1155.75L2676.82 1155.75L2676.82 1194L1798.35 1194ZM1816.20 1357.20L1816.20 1320.22L2593.95 1320.22L2593.95 1357.20L1816.20 1357.20ZM1698.90 1528.05L1698.90 1491.08L2447.32 1491.08L2447.32 1528.05L1698.90 1528.05ZM1851.90 992.55L1851.90 992.55L1887.60 1001.47Q1853.17 1100.92 1806.64 1194.64Q1760.10 1288.35 1706.55 1369.31Q1653 1450.28 1593.08 1512.75L1593.08 1512.75Q1589.25 1510.20 1582.88 1505.74Q1576.50 1501.28 1570.13 1496.18Q1563.75 1491.08 1558.65 1488.53L1558.65 1488.53Q1650.45 1398 1726.95 1266.67Q1803.45 1135.35 1851.90 992.55ZM2426.93 1491.08L2426.93 1491.08L2465.18 1491.08Q2470.28 1580.33 2478.56 1669.58Q2486.85 1758.83 2500.88 1837.88Q2514.90 1916.93 2534.03 1978.76Q2553.15 2040.60 2579.93 2075.66Q2606.70 2110.72 2642.40 2110.72L2642.40 2110.72Q2662.80 2110.72 2671.09 2062.28Q2679.38 2013.83 2680.65 1932.23L2680.65 1932.23Q2687.03 1937.33 2697.23 1941.79Q2707.43 1946.25 2713.80 1948.80L2713.80 1948.80Q2709.98 2058.45 2695.31 2102.44Q2680.65 2146.43 2639.85 2146.43L2639.85 2146.43Q2583.75 2146.43 2546.14 2096.06Q2508.53 2045.70 2484.94 1956.45Q2461.35 1867.20 2447.96 1747.99Q2434.57 1628.78 2426.93 1491.08Z"/>
  </svg>