<svg xmlns="http://www.w3.org/2000/svg" viewBox="0 0 3000 3000" width="3000" height="3000">
    <path fill="#000000" d="M1183.80 1092L606.22 1126.42Q596.02 1127.70 587.10 1127.70L587.10 1127.70L557.77 1127.70Q539.92 1125.15 530.36 1119.41Q520.80 1113.67 506.14 1092.64Q491.47 1071.60 491.47 1059.49Q491.47 1047.38 497.85 1047.38Q504.22 1047.38 517.61 1051.20Q531.00 1055.03 564.15 1055.03L564.15 1055.03L580.72 1055.03L1077.97 1023.15Q1109.85 1020.60 1123.88 1015.50Q1137.90 1010.40 1146.82 1010.40Q1155.75 1010.40 1172.96 1023.15Q1190.17 1035.90 1202.92 1051.20Q1215.67 1066.50 1215.67 1074.15L1215.67 1074.15Q1215.67 1089.45 1183.80 1092L1183.80 1092ZM347.40 1344.45L355.05 1344.45Q378.00 1352.10 413.70 1352.10L413.70 1352.10L426.45 1352.10L1230.97 1311.30Q1262.85 1308.75 1279.42 1303.01Q1296.00 1297.28 1303.01 1297.28Q1310.02 1297.28 1326.60 1308.75L1326.60 1308.75Q1373.77 1341.90 1373.77 1364.85L1373.77 1364.85Q1373.77 1378.88 1343.17 1381.43L1343.17 1381.43L993.82 1399.28L986.17 1839.15L986.17 1842.98Q986.17 1891.43 1022.51 1901.63Q1058.85 1911.83 1130.89 1911.83Q1202.92 1911.83 1264.12 1899.08L1264.12 1899.08Q1284.52 1895.25 1298.55 1874.85L1298.55 1874.85Q1327.88 1837.88 1353.38 1653L1353.38 1653Q1357.20 1624.95 1364.85 1611.56Q1372.50 1598.18 1378.88 1598.18L1378.88 1598.18Q1396.72 1598.18 1398 1660.65L1398 1660.65Q1399.27 1687.43 1399.27 1739.70L1399.27 1739.70Q1399.27 1876.13 1380.15 1925.85L1380.15 1925.85Q1348.27 1997.25 1158.30 1997.25L1158.30 1997.25Q1026.97 1997.25 985.54 1982.59Q944.10 1967.93 923.06 1939.24Q902.02 1910.55 902.02 1858.28L902.02 1858.28L902.02 1854.45L909.67 1403.10L774.52 1410.75Q709.50 1752.45 525.90 1904.18L525.90 1904.18Q432.82 1981.95 298.95 2026.58L298.95 2026.58Q283.65 2031.68 271.54 2031.68Q259.42 2031.68 259.42 2025.30L259.42 2025.30Q259.42 2013.83 288.75 1997.25L288.75 1997.25Q398.40 1933.50 474.90 1857L474.90 1857Q624.07 1707.83 682.72 1414.58L682.72 1414.58L459.60 1426.05Q446.85 1427.33 436.65 1427.33L436.65 1427.33L416.25 1427.33Q385.65 1427.33 367.80 1410.11Q349.95 1392.90 342.94 1373.78Q335.92 1354.65 335.92 1352.10L335.92 1352.10Q335.92 1344.45 347.40 1344.45L347.40 1344.45ZM2577.38 1104.75L1849.35 1149.38Q1735.88 1299.83 1631.33 1362.30L1631.33 1362.30Q1608.38 1376.33 1596.26 1376.33Q1584.15 1376.33 1584.15 1367.40L1584.15 1367.40Q1584.15 1353.38 1619.85 1317.68L1619.85 1317.68Q1710.38 1229.70 1787.51 1109.85Q1864.65 990 1864.65 928.80L1864.65 928.80L1864.65 914.77Q1864.65 900.75 1873.58 900.75Q1882.50 900.75 1902.90 910.95L1902.90 910.95Q1960.28 939 1960.28 963.23L1960.28 963.23Q1960.28 978.52 1934.14 1021.24Q1908 1063.95 1901.63 1072.88L1901.63 1072.88L2485.58 1035.90Q2516.18 1033.35 2526.38 1030.16Q2536.57 1026.97 2543.59 1026.97Q2550.60 1026.97 2565.90 1035.90L2565.90 1035.90Q2606.70 1061.40 2606.70 1084.35L2606.70 1084.35Q2606.70 1102.20 2577.38 1104.75L2577.38 1104.75ZM1849.35 1243.72L1849.35 1243.72L1910.55 1250.10L1922.03 1250.10L2346.60 1220.78Q2383.57 1216.95 2393.14 1213.76Q2402.70 1210.58 2408.44 1210.58Q2414.18 1210.58 2428.20 1219.50L2428.20 1219.50Q2467.73 1243.72 2467.73 1266.68L2467.73 1266.68Q2467.73 1283.25 2439.68 1287.08L2439.68 1287.08L1943.70 1320.22L1916.93 1321.50Q1865.92 1321.50 1848.08 1279.43L1848.08 1279.43Q1839.15 1257.75 1839.15 1252.65L1839.15 1252.65Q1839.15 1243.72 1849.35 1243.72ZM2729.10 1726.95L2729.10 1752.45Q2729.10 1890.15 2701.05 1993.43L2701.05 1993.43Q2687.03 2044.43 2646.23 2044.43L2646.23 2044.43Q2633.48 2044.43 2604.15 2035.50L2604.15 2035.50Q2526.38 2011.28 2471.55 1922.03L2471.55 1922.03Q2395.05 1799.63 2395.05 1568.85L2395.05 1568.85Q2395.05 1517.85 2398.88 1468.13L2398.88 1468.13L1783.05 1507.65Q1774.13 1508.93 1765.20 1508.93L1765.20 1508.93L1751.17 1508.93Q1725.67 1508.93 1711.65 1498.09Q1697.63 1487.25 1686.79 1466.21Q1675.95 1445.18 1675.95 1436.89Q1675.95 1428.60 1682.96 1428.60Q1689.97 1428.60 1709.10 1433.06Q1728.22 1437.53 1749.90 1437.53L1749.90 1437.53L1757.55 1437.53L2415.45 1394.18L2430.75 1394.18Q2452.43 1394.18 2470.91 1408.20Q2489.40 1422.22 2489.40 1434.97Q2489.40 1447.72 2485.58 1456.65Q2481.75 1465.58 2479.20 1502.55Q2476.65 1539.53 2476.65 1617.94Q2476.65 1696.35 2494.50 1764.56Q2512.35 1832.78 2538.49 1872.30Q2564.63 1911.83 2588.85 1927.76Q2613.07 1943.70 2622.64 1943.70Q2632.20 1943.70 2632.20 1936.05L2632.20 1936.05Q2664.07 1849.35 2689.57 1721.85L2689.57 1721.85Q2697.23 1682.33 2711.89 1682.33Q2726.55 1682.33 2729.10 1726.95L2729.10 1726.95Z"/>
  </svg>