<svg xmlns="http://www.w3.org/2000/svg" viewBox="0 0 3000 3000" width="3000" height="3000">
    <path fill="#000000" d="M1173.60 1262.85L1173.60 1262.85Q1179.97 1257.75 1216.95 1262.85Q1253.92 1267.95 1261.57 1274.32L1261.57 1274.32Q1269.22 1283.25 1287.07 1285.80Q1304.92 1288.35 1315.76 1311.94Q1326.60 1335.53 1326.60 1345.72L1326.60 1345.72Q1326.60 1354.65 1317.67 1367.40Q1308.75 1380.15 1298.55 1389.07L1298.55 1389.07Q1290.90 1395.45 1269.86 1395.45Q1248.82 1395.45 1232.25 1390.35L1232.25 1390.35Q1190.17 1377.60 1154.47 1372.50Q1118.77 1367.40 1041 1366.13L1041 1366.13Q931.35 1363.57 899.47 1368.67L899.47 1368.67L867.60 1376.32L884.17 1386.53Q922.42 1408.20 922.42 1455.38L922.42 1455.38Q922.42 1480.88 916.05 1483.42L916.05 1483.42Q907.12 1489.80 902.02 1616.03L902.02 1616.03Q899.47 1697.63 900.11 1721.85Q900.75 1746.08 905.85 1771.58L905.85 1771.58Q914.77 1812.38 940.27 1842.34Q965.77 1872.30 997.65 1879.95L997.65 1879.95Q1048.65 1893.97 1119.41 1895.89Q1190.17 1897.80 1225.88 1886.33L1225.88 1886.33Q1257.75 1876.13 1280.70 1869.75L1280.70 1869.75Q1296.00 1865.92 1303.65 1858.91Q1311.30 1851.90 1324.05 1832.78L1324.05 1832.78Q1366.13 1769.03 1383.97 1719.30L1383.97 1719.30Q1391.63 1702.72 1399.27 1702.72L1399.27 1702.72Q1414.57 1702.72 1406.92 1779.22L1406.92 1779.22Q1394.17 1876.13 1414.57 1915.65L1414.57 1915.65Q1422.22 1929.67 1421.59 1954.54Q1420.95 1979.40 1413.30 1992.15L1413.30 1992.15Q1391.63 2025.30 1350.82 2046.97L1350.82 2046.97Q1335.52 2055.90 1320.86 2056.54Q1306.20 2057.18 1253.92 2055.90L1253.92 2055.90Q1012.95 2044.42 950.47 2012.55L950.47 2012.55Q927.52 2001.08 897.56 1969.20Q867.60 1937.33 851.02 1906.72L851.02 1906.72Q830.62 1869.75 826.80 1809.19Q822.97 1748.63 828.07 1557.38L828.07 1557.38Q831.90 1406.92 825.52 1391.63L825.52 1391.63L817.87 1377.60L761.77 1381.42Q718.42 1382.70 682.72 1389.71Q647.02 1396.72 647.02 1400.55L647.02 1400.55Q647.02 1405.65 663.60 1409.47L663.60 1409.47Q704.40 1418.40 712.05 1508.92L712.05 1508.92Q715.87 1554.82 705.67 1607.10L705.67 1607.10Q689.10 1693.80 676.35 1720.58L676.35 1720.58Q630.45 1822.58 618.97 1839.15L618.97 1839.15Q607.50 1855.72 603.67 1864.65L603.67 1864.65Q598.57 1878.67 520.16 1939.88Q441.75 2001.08 404.77 2018.92L404.77 2018.92Q392.02 2025.30 374.17 2036.14Q356.32 2046.97 356.32 2043.15Q356.32 2039.33 412.42 1974.30L412.42 1974.30Q485.10 1887.60 518.89 1836.60Q552.67 1785.60 579.45 1721.85L579.45 1721.85Q588.37 1701.45 588.37 1690.61Q588.37 1679.78 594.75 1651.72L594.75 1651.72Q611.32 1596.90 618.97 1482.15L618.97 1482.15Q621.52 1426.05 626.62 1419.04Q631.72 1412.03 629.17 1408.20L629.17 1408.20Q624.07 1399.28 546.30 1432.42Q468.52 1465.57 436.65 1488.52L436.65 1488.52Q418.80 1501.28 406.05 1498.72L406.05 1498.72Q383.10 1496.17 342.94 1466.21Q302.77 1436.25 302.77 1420.95L302.77 1420.95Q302.77 1395.45 501.67 1349.55L501.67 1349.55Q749.02 1293.45 1070.32 1280.70L1070.32 1280.70Q1098.38 1278.15 1134.71 1272.41Q1171.05 1266.67 1173.60 1262.85ZM852.30 1015.50L852.30 1015.50Q923.70 1006.57 953.66 1014.86Q983.62 1023.15 992.55 1052.47L992.55 1052.47Q997.65 1070.32 993.19 1083.07Q988.72 1095.82 968.32 1116.22L968.32 1116.22Q956.85 1127.70 950.47 1129.61Q944.10 1131.52 930.07 1130.25L930.07 1130.25Q907.12 1127.70 875.25 1117.50Q843.37 1107.30 796.20 1108.57L796.20 1108.57Q760.50 1109.85 742.01 1114.31Q723.52 1118.77 692.92 1132.80L692.92 1132.80Q663.60 1146.82 613.87 1109.85L613.87 1109.85Q589.65 1090.72 585.82 1083.07Q582.00 1075.42 592.20 1063.95L592.20 1063.95Q601.12 1053.75 659.77 1039.09Q718.42 1024.42 755.40 1023.15L755.40 1023.15Q789.82 1023.15 852.30 1015.50ZM2106.90 1433.70L2106.90 1433.70Q2175.75 1424.78 2178.30 1421.59Q2180.85 1418.40 2191.05 1421.59Q2201.25 1424.78 2213.36 1424.78Q2225.47 1424.78 2235.68 1447.72L2235.68 1447.72L2245.88 1470.67L2234.40 1510.20Q2224.20 1549.72 2219.10 1565.03L2219.10 1565.03Q2211.45 1591.80 2215.28 1668.30Q2219.10 1744.80 2230.57 1767.75L2230.57 1767.75Q2234.40 1776.67 2234.40 1785.60L2234.40 1785.60Q2234.40 1791.97 2255.44 1822.58Q2276.48 1853.17 2290.50 1867.20L2290.50 1867.20Q2303.25 1879.95 2328.75 1892.70Q2354.25 1905.45 2368.28 1914.38L2368.28 1914.38Q2383.57 1925.85 2413.54 1933.50Q2443.50 1941.15 2458.80 1936.05L2458.80 1936.05Q2500.88 1929.67 2528.93 1897.80L2528.93 1897.80Q2540.40 1885.05 2548.69 1864.01Q2556.98 1842.97 2577.38 1772.85L2577.38 1772.85Q2590.13 1732.05 2597.78 1765.20L2597.78 1765.20Q2602.88 1786.88 2602.88 1826.40L2602.88 1826.40Q2602.88 1864.65 2604.79 1876.13Q2606.70 1887.60 2614.35 1896.53L2614.35 1896.53Q2643.68 1932.22 2650.05 1971.75L2650.05 1971.75Q2652.60 1987.05 2645.59 2002.99Q2638.57 2018.92 2638.57 2027.85L2638.57 2027.85Q2638.57 2046.97 2616.26 2073.11Q2593.95 2099.25 2565.90 2112L2565.90 2112Q2548.05 2120.93 2535.30 2122.84Q2522.55 2124.75 2490.68 2124.75L2490.68 2124.75Q2440.95 2124.75 2410.35 2113.28L2410.35 2113.28Q2375.93 2100.53 2333.21 2076.94Q2290.50 2053.35 2272.65 2038.05L2272.65 2038.05Q2252.25 2020.20 2239.50 2013.83L2239.50 2013.83Q2219.10 1999.80 2192.32 1953.90L2192.32 1953.90Q2159.18 1897.80 2134.95 1837.88L2134.95 1837.88L2120.93 1798.35Q2113.28 1784.33 2110.72 1710.38L2110.72 1710.38Q2105.63 1603.28 2129.85 1519.13L2129.85 1519.13Q2134.95 1500 2128.57 1496.17L2128.57 1496.17Q2122.20 1489.80 2093.51 1492.99Q2064.82 1496.17 2040.60 1503.82L2040.60 1503.82Q2015.10 1511.47 1984.50 1516.57L1984.50 1516.57Q1952.63 1521.67 1901.63 1543.99Q1850.63 1566.30 1831.50 1582.88L1831.50 1582.88Q1821.30 1590.53 1804.72 1600.72L1804.72 1600.72L1770.30 1622.40Q1752.45 1633.88 1735.88 1632.60L1735.88 1632.60Q1719.30 1630.05 1714.84 1624.95Q1710.38 1619.85 1707.83 1600.72L1707.83 1600.72Q1704 1580.32 1716.75 1567.57L1716.75 1567.57Q1726.95 1557.38 1795.16 1521.67Q1863.38 1485.97 1871.03 1485.97L1871.03 1485.97Q1876.13 1485.97 1901.63 1475.77L1901.63 1475.77Q1938.60 1459.20 2106.90 1433.70ZM2048.25 1238.63L2048.25 1238.63Q2069.93 1234.80 2087.78 1226.51Q2105.63 1218.22 2130.49 1218.86Q2155.35 1219.50 2163 1228.42L2163 1228.42Q2173.20 1238.63 2177.03 1267.95L2177.03 1267.95Q2178.30 1288.35 2177.03 1293.45Q2175.75 1298.55 2165.55 1307.47L2165.55 1307.47Q2151.53 1318.95 2134.95 1315.13L2134.95 1315.13Q2122.20 1312.57 2087.14 1319.59Q2052.07 1326.60 2032.95 1334.25L2032.95 1334.25Q1975.58 1362.30 1956.45 1366.76Q1937.33 1371.22 1919.47 1359.75L1919.47 1359.75Q1904.18 1350.82 1901.63 1332.97L1901.63 1332.97Q1897.80 1310.03 1900.35 1303.01Q1902.90 1296 1918.20 1285.80L1918.20 1285.80Q1934.78 1274.32 1980.04 1257.75Q2025.30 1241.17 2048.25 1238.63ZM2147.70 1020.60L2147.70 1020.60Q2165.55 1014.22 2170.65 1021.87L2170.65 1021.87Q2174.47 1026.97 2187.22 1026.97L2187.22 1026.97Q2201.25 1026.97 2215.91 1035.90Q2230.57 1044.82 2233.13 1055.02L2233.13 1055.02Q2235.68 1067.77 2233.13 1095.82L2233.13 1095.82Q2231.85 1121.32 2218.46 1128.97Q2205.07 1136.63 2157.90 1137.90L2157.90 1137.90Q2122.20 1139.17 2108.18 1141.72Q2094.15 1144.27 2069.93 1157.02L2069.93 1157.02Q2032.95 1174.88 2024.03 1174.88L2024.03 1174.88Q2004.90 1174.88 1978.13 1150.65L1978.13 1150.65Q1964.10 1136.63 1963.46 1114.95Q1962.83 1093.27 1976.85 1085.63L1976.85 1085.63Q1994.70 1074.15 2032.31 1060.76Q2069.93 1047.38 2092.88 1043.55L2092.88 1043.55Q2124.75 1037.17 2133.04 1030.16Q2141.32 1023.15 2147.70 1020.60ZM1885.05 944.10L1885.05 944.10Q1899.08 935.17 1937.33 960.67L1937.33 960.67Q1966.65 979.80 1973.66 992.55Q1980.68 1005.30 1974.30 1021.87L1974.30 1021.87Q1967.93 1039.72 1948.80 1061.40Q1929.68 1083.07 1897.80 1130.25L1897.80 1130.25Q1868.47 1169.77 1832.78 1208.02Q1797.08 1246.28 1772.85 1264.13L1772.85 1264.13Q1746.08 1283.25 1673.40 1354.65L1673.40 1354.65Q1642.80 1383.97 1633.24 1383.97Q1623.67 1383.97 1623.67 1382.06Q1623.67 1380.15 1672.76 1313.21Q1721.85 1246.28 1746.08 1209.30L1746.08 1209.30L1795.80 1132.80Q1821.30 1092 1821.30 1090.09Q1821.30 1088.17 1835.96 1063.95Q1850.63 1039.72 1859.55 1007.85L1859.55 1007.85Q1877.40 949.20 1885.05 944.10Z"/>
  </svg>