<svg xmlns="http://www.w3.org/2000/svg" viewBox="0 0 3000 3000" width="3000" height="3000">
    <path fill="#000000" d="M993.82 1890.79L993.82 1890.79L993.82 1886.96L1001.47 1454.74L1343.17 1436.89Q1357.20 1435.61 1369.31 1431.15Q1381.42 1426.69 1381.42 1412.66L1381.42 1412.66Q1381.42 1397.36 1365.49 1380.15Q1349.55 1362.94 1331.06 1350.19Q1312.57 1337.44 1299.82 1337.44L1299.82 1337.44Q1296.00 1337.44 1292.81 1338.08Q1289.62 1338.71 1287.07 1339.99L1287.07 1339.99Q1261.57 1348.91 1230.97 1351.46L1230.97 1351.46L426.45 1392.26L413.70 1392.26Q400.95 1392.26 386.29 1390.99Q371.62 1389.71 356.32 1384.61L356.32 1384.61L347.40 1384.61Q328.27 1384.61 328.27 1399.91L328.27 1399.91Q328.27 1403.74 335.92 1424.14Q343.57 1444.54 365.25 1466.21L365.25 1466.21Q383.10 1482.79 416.25 1482.79L416.25 1482.79Q425.17 1482.79 436.01 1482.79Q446.85 1482.79 459.60 1481.51L459.60 1481.51L673.80 1470.04Q644.47 1611.56 594.75 1717.39Q545.02 1823.21 469.16 1899.08Q393.30 1974.94 284.92 2038.69L284.92 2038.69Q251.77 2056.54 251.77 2073.11L251.77 2073.11Q251.77 2087.14 270.90 2087.14L270.90 2087.14Q284.92 2087.14 301.50 2082.04L301.50 2082.04Q436.65 2036.14 531.64 1957.73Q626.62 1879.31 687.82 1756.91Q749.02 1634.51 780.90 1466.21L780.90 1466.21L902.02 1458.56L894.37 1902.26L894.37 1906.09Q894.37 1960.91 916.69 1991.51Q939.00 2022.11 975.34 2034.86Q1011.67 2047.61 1053.75 2050.16Q1095.82 2052.71 1136.63 2052.71L1136.63 2052.71Q1220.77 2052.71 1271.14 2043.79Q1321.50 2034.86 1348.91 2017.65Q1376.32 2000.44 1386.52 1976.85Q1396.72 1953.26 1399.27 1925.21L1399.27 1925.21Q1406.92 1839.79 1406.92 1759.46L1406.92 1759.46Q1406.92 1735.24 1406.29 1708.46Q1405.65 1681.69 1400.55 1660.01Q1395.45 1638.34 1378.88 1638.34L1378.88 1638.34Q1368.67 1638.34 1359.11 1654.28Q1349.55 1670.21 1345.72 1699.54L1345.72 1699.54Q1331.70 1798.99 1318.95 1849.35Q1306.20 1899.71 1293.45 1918.20Q1280.70 1936.69 1262.85 1939.24L1262.85 1939.24Q1232.25 1945.61 1198.46 1948.80Q1164.67 1951.99 1128.97 1951.99L1128.97 1951.99Q1060.13 1951.99 1026.97 1942.43Q993.82 1932.86 993.82 1890.79ZM607.50 1181.89L607.50 1181.89L1183.80 1147.46Q1199.10 1146.19 1211.21 1141.09Q1223.32 1135.99 1223.32 1121.96L1223.32 1121.96Q1223.32 1111.76 1209.30 1095.19Q1195.27 1078.61 1176.79 1064.59Q1158.30 1050.56 1144.27 1050.56L1144.27 1050.56Q1136.63 1050.56 1132.80 1051.84L1132.80 1051.84Q1121.32 1055.66 1106.02 1058.85Q1090.72 1062.04 1077.97 1063.31L1077.97 1063.31L580.72 1095.19L564.15 1095.19Q550.12 1095.19 536.74 1093.91Q523.35 1092.64 510.60 1088.81L510.60 1088.81Q505.50 1087.54 499.12 1087.54L499.12 1087.54Q483.82 1087.54 483.82 1104.11L483.82 1104.11Q483.82 1121.96 499.76 1144.28Q515.70 1166.59 528.45 1175.51L528.45 1175.51Q537.37 1180.61 557.77 1183.16L557.77 1183.16L570.52 1183.16Q578.17 1183.16 587.10 1183.16Q596.02 1183.16 607.50 1181.89ZM1939.88 1620.49L1939.88 1620.49Q1939.88 1607.74 1917.56 1583.51Q1895.25 1559.29 1866.56 1534.43Q1837.88 1509.56 1811.74 1491.71Q1785.60 1473.86 1776.67 1473.86L1776.67 1473.86Q1769.03 1473.86 1751.17 1485.97Q1733.33 1498.09 1733.33 1514.66L1733.33 1514.66Q1733.33 1529.96 1751.17 1543.99L1751.17 1543.99Q1779.22 1565.66 1802.17 1589.25Q1825.13 1612.84 1849.35 1644.71L1849.35 1644.71Q1871.03 1672.76 1887.60 1672.76L1887.60 1672.76Q1900.35 1672.76 1920.11 1656.83Q1939.88 1640.89 1939.88 1620.49ZM2066.10 1755.64L2066.10 1741.61L2361.90 1727.59Q2397.60 1723.76 2397.60 1704.64L2397.60 1704.64Q2397.60 1691.89 2386.13 1677.86Q2374.65 1663.84 2359.35 1652.36Q2344.05 1640.89 2330.03 1640.89L2330.03 1640.89Q2319.82 1640.89 2308.35 1644.71L2308.35 1644.71Q2291.78 1649.81 2275.20 1653Q2258.63 1656.19 2238.22 1657.46L2238.22 1657.46L2120.93 1663.84Q2123.47 1662.56 2126.03 1661.29L2126.03 1661.29L2138.78 1654.91Q2182.13 1631.96 2216.55 1600.73Q2250.97 1569.49 2294.32 1528.69L2294.32 1528.69Q2305.80 1519.76 2305.80 1508.29L2305.80 1508.29Q2305.80 1490.44 2288.59 1474.50Q2271.38 1458.56 2252.89 1447.09Q2234.40 1435.61 2228.03 1435.61L2228.03 1435.61Q2210.18 1435.61 2210.18 1461.11L2210.18 1461.11Q2210.18 1490.44 2182.13 1529.33Q2154.07 1568.21 2108.18 1617.94L2108.18 1617.94Q2081.40 1644.71 2081.40 1657.46L2081.40 1657.46Q2081.40 1662.56 2083.95 1665.11L2083.95 1665.11L2066.10 1666.39L2067.38 1467.49Q2067.38 1440.71 2045.70 1430.51L2045.70 1430.51Q2030.40 1422.86 2013.83 1420.31L2013.83 1420.31L2419.28 1396.09Q2416.73 1439.44 2414.81 1489.80Q2412.90 1540.16 2412.90 1588.61L2412.90 1588.61Q2412.90 1718.66 2430.11 1807.28Q2447.32 1895.89 2474.74 1951.99Q2502.15 2008.09 2532.11 2039.33Q2562.07 2070.56 2586.94 2083.31Q2611.80 2096.06 2623.28 2099.89L2623.28 2099.89Q2650.05 2107.54 2667.90 2107.54L2667.90 2107.54Q2684.48 2107.54 2699.14 2100.53Q2713.80 2093.51 2724 2065.46Q2734.20 2037.41 2741.85 1979.40Q2749.50 1921.39 2755.88 1816.84L2755.88 1816.84Q2755.88 1811.74 2756.51 1807.28Q2757.15 1802.81 2757.15 1797.71L2757.15 1797.71Q2757.15 1746.71 2737.39 1746.71Q2717.63 1746.71 2701.05 1809.19L2701.05 1809.19Q2695.95 1828.31 2687.03 1860.83Q2678.10 1893.34 2667.90 1925.85Q2657.70 1958.36 2650.05 1978.76L2650.05 1978.76L2642.40 1999.16L2629.65 1991.51Q2616.90 1985.14 2596.50 1964.10Q2576.10 1943.06 2555.70 1898.44Q2535.30 1853.81 2521.28 1780.50Q2507.25 1707.19 2507.25 1596.26L2507.25 1596.26Q2507.25 1547.81 2509.80 1498.72Q2512.35 1449.64 2514.90 1402.46L2514.90 1402.46Q2516.18 1392.26 2519.36 1383.34Q2522.55 1374.41 2522.55 1364.21L2522.55 1364.21Q2522.55 1337.44 2498.33 1325.33Q2474.10 1313.21 2460.07 1313.21L2460.07 1313.21L2452.43 1313.21L1802.17 1352.74L1783.05 1352.74Q1765.20 1352.74 1753.72 1350.83Q1742.25 1348.91 1729.50 1345.09L1729.50 1345.09Q1723.13 1341.26 1719.30 1341.26L1719.30 1341.26L1718.03 1341.26Q1746.08 1315.76 1780.50 1280.06L1780.50 1280.06Q1832.78 1225.24 1877.40 1156.39L1877.40 1156.39L2590.13 1114.31Q2596.50 1114.31 2600.32 1113.04L2600.32 1113.04Q2629.65 1107.94 2629.65 1086.26L2629.65 1086.26Q2629.65 1077.34 2619.45 1062.67Q2609.25 1048.01 2593.95 1035.26Q2578.65 1022.51 2559.53 1022.51L2559.53 1022.51Q2555.70 1022.51 2551.88 1023.15Q2548.05 1023.79 2544.23 1025.06L2544.23 1025.06Q2534.03 1028.89 2523.19 1030.16Q2512.35 1031.44 2497.05 1032.71L2497.05 1032.71L1933.50 1067.14Q1947.53 1041.64 1957.09 1023.79Q1966.65 1005.94 1969.20 998.29Q1971.75 990.64 1971.75 985.54L1971.75 985.54Q1971.75 965.14 1951.99 951.11Q1932.22 937.09 1911.19 929.44Q1890.15 921.79 1883.78 921.79L1883.78 921.79Q1863.38 921.79 1863.38 944.74L1863.38 944.74L1863.38 957.49Q1863.38 981.71 1847.44 1019.33Q1831.50 1056.94 1804.72 1102.20Q1777.95 1147.46 1747.35 1192.09Q1716.75 1236.71 1687.42 1274.96Q1658.10 1313.21 1636.42 1338.71L1636.42 1338.71Q1610.92 1370.59 1610.92 1387.16L1610.92 1387.16Q1610.92 1401.19 1626.22 1401.19L1626.22 1401.19Q1644.08 1401.19 1686.15 1369.31L1686.15 1369.31Q1691.25 1364.21 1696.35 1360.39L1696.35 1360.39Q1697.63 1365.49 1700.17 1374.41L1700.17 1374.41Q1715.47 1415.21 1735.88 1423.50Q1756.28 1431.79 1781.78 1431.79L1781.78 1431.79L1806 1431.79L1957.72 1422.86Q1957.72 1424.14 1957.72 1426.69L1957.72 1426.69Q1957.72 1438.16 1964.10 1448.36L1964.10 1448.36Q1971.75 1461.11 1974.30 1474.50Q1976.85 1487.89 1976.85 1504.46L1976.85 1504.46L1975.58 1668.94L1739.70 1680.41L1719.30 1680.41Q1691.25 1680.41 1670.85 1675.31L1670.85 1675.31Q1665.75 1674.04 1661.29 1674.04Q1656.83 1674.04 1654.28 1674.04L1654.28 1674.04Q1637.70 1674.04 1637.70 1688.06L1637.70 1688.06Q1637.70 1690.61 1638.34 1694.44Q1638.97 1698.26 1641.53 1703.36L1641.53 1703.36Q1647.90 1713.56 1653.64 1723.76Q1659.38 1733.96 1669.58 1742.89L1669.58 1742.89Q1683.60 1759.46 1715.47 1759.46L1715.47 1759.46Q1721.85 1759.46 1728.22 1758.83Q1734.60 1758.19 1742.25 1758.19L1742.25 1758.19L1908 1747.99Q1845.53 1816.84 1767.75 1876.13Q1689.97 1935.41 1596.90 1991.51L1596.90 1991.51Q1566.30 2010.64 1566.30 2027.21L1566.30 2027.21Q1566.30 2041.24 1582.24 2041.24Q1598.17 2041.24 1645.35 2022.75Q1692.53 2004.26 1755 1969.20Q1817.47 1934.14 1881.22 1883.78Q1944.97 1833.41 1976.85 1791.34L1976.85 1791.34Q1974.30 1815.56 1974.30 1833.41L1974.30 1833.41Q1974.30 1857.64 1973.66 1886.96Q1973.03 1916.29 1973.03 1937.96L1973.03 1937.96L1973.03 1958.36Q1973.03 2010.64 1967.93 2041.24L1967.93 2041.24Q1966.65 2045.06 1966.65 2053.99L1966.65 2053.99Q1966.65 2073.11 1990.24 2092.88Q2013.83 2112.64 2035.50 2112.64L2035.50 2112.64Q2052.07 2112.64 2057.81 2100.53Q2063.55 2088.41 2063.55 2074.39L2063.55 2074.39L2064.82 1841.06Q2101.80 1860.19 2159.81 1899.08Q2217.82 1937.96 2277.75 1983.86L2277.75 1983.86Q2285.40 1988.96 2293.69 1992.79Q2301.98 1996.61 2308.35 1996.61L2308.35 1996.61Q2326.20 1996.61 2335.76 1981.95Q2345.32 1967.29 2350.43 1951.99Q2355.53 1936.69 2355.53 1934.14L2355.53 1934.14Q2355.53 1911.19 2328.75 1897.16L2328.75 1897.16Q2294.32 1875.49 2254.80 1851.90Q2215.28 1828.31 2177.66 1808.55Q2140.05 1788.79 2112.64 1776.04Q2085.22 1763.29 2076.30 1763.29L2076.30 1763.29Q2061 1763.29 2066.10 1755.64L2066.10 1755.64ZM1950.08 1282.61L1964.10 1282.61L2449.88 1254.56Q2485.58 1250.74 2485.58 1229.06L2485.58 1229.06Q2485.58 1216.31 2465.18 1193.36L2465.18 1193.36Q2451.15 1180.61 2440.31 1175.51Q2429.48 1170.41 2419.28 1170.41Q2409.07 1170.41 2403.98 1171.69L2403.98 1171.69Q2392.50 1175.51 2381.66 1176.79Q2370.82 1178.06 2356.80 1179.34L2356.80 1179.34L1957.72 1203.56L1942.43 1203.56Q1915.65 1203.56 1893.97 1198.46L1893.97 1198.46Q1888.88 1197.19 1884.41 1196.55Q1879.95 1195.91 1877.40 1195.91L1877.40 1195.91Q1862.10 1195.91 1862.10 1209.94L1862.10 1209.94Q1862.10 1221.41 1871.03 1237.99Q1879.95 1254.56 1899.71 1268.59Q1919.47 1282.61 1950.08 1282.61L1950.08 1282.61Z"/>
  </svg>