<svg xmlns="http://www.w3.org/2000/svg" viewBox="0 0 3000 3000" width="3000" height="3000">
    <path fill="#000000" d="M358.23 2050.34Q305.93 2050.34 305.93 1994.31L305.93 1994.31Q305.93 1975.63 326.48 1960.69Q347.02 1945.75 390.60 1930.81L390.60 1930.81Q520.09 1887.23 581.10 1778.91L581.10 1778.91Q643.36 1668.09 644.60 1442.72L644.60 1442.72L374.41 1442.72Q312.16 1442.72 312.16 1394.17L312.16 1394.17Q312.16 1344.36 374.41 1344.36L374.41 1344.36L1349.34 1344.36Q1409.11 1344.36 1409.11 1392.92L1409.11 1392.92Q1409.11 1442.72 1349.34 1442.72L1349.34 1442.72L1034.33 1442.72L1034.33 1873.54Q1034.33 1914.62 1066.70 1923.34L1066.70 1923.34Q1095.34 1930.81 1175.02 1930.81L1175.02 1930.81Q1272.14 1930.81 1292.07 1907.15L1292.07 1907.15Q1310.74 1887.23 1311.99 1827.47L1311.99 1827.47Q1314.48 1767.70 1365.53 1767.70L1365.53 1767.70Q1392.92 1767.70 1406.62 1780.15Q1420.31 1792.60 1420.31 1821.24L1420.31 1821.24Q1420.31 1933.30 1379.22 1984.35L1379.22 1984.35Q1333.15 2027.93 1153.86 2027.93L1153.86 2027.93Q1024.37 2027.93 985.77 2012.99L985.77 2012.99Q934.72 1993.07 934.72 1918.36L934.72 1918.36L934.72 1442.72L744.21 1442.72L742.97 1497.51Q739.23 1666.85 685.69 1792.60L685.69 1792.60Q635.89 1912.13 531.30 1980.62L531.30 1980.62Q425.46 2050.34 358.23 2050.34L358.23 2050.34ZM495.19 1091.60Q432.93 1091.60 432.93 1043.04L432.93 1043.04Q432.93 993.24 495.19 993.24L495.19 993.24L1228.56 993.24Q1289.58 993.24 1289.58 1043.04L1289.58 1043.04Q1289.58 1091.60 1228.56 1091.60L1228.56 1091.60L495.19 1091.60ZM2606.91 2065.28Q2516.02 2065.28 2478.66 1939.53Q2441.31 1813.77 2441.31 1614.55L2441.31 1614.55L2441.31 1468.87Q2441.31 1422.80 2401.46 1422.80L2401.46 1422.80L1665.60 1422.80Q1610.82 1422.80 1610.82 1380.47L1610.82 1380.47Q1610.82 1336.89 1665.60 1336.89L1665.60 1336.89L2431.35 1336.89Q2540.92 1336.89 2542.16 1441.48L2542.16 1441.48L2542.16 1557.28Q2542.16 1741.55 2557.73 1843.03Q2573.29 1944.51 2601.93 1944.51L2601.93 1944.51Q2610.64 1944.51 2614.38 1914.62Q2618.12 1884.74 2621.85 1812.52L2621.85 1812.52Q2624.34 1757.74 2662.94 1757.74L2662.94 1757.74Q2706.52 1757.74 2706.52 1806.30L2706.52 1806.30Q2706.52 2065.28 2606.91 2065.28L2606.91 2065.28ZM1702.95 2003.03Q1679.30 2014.23 1660.62 2014.23L1660.62 2014.23Q1627.00 2014.23 1615.80 1985.60L1615.80 1985.60Q1612.06 1976.88 1612.06 1966.92L1612.06 1966.92Q1612.06 1933.30 1663.11 1912.13L1663.11 1912.13Q1749.02 1876.03 1825.60 1824.98Q1902.17 1773.93 1953.22 1716.65L1953.22 1716.65L1991.82 1714.16L1990.58 1781.40Q1943.26 1839.92 1869.18 1898.44Q1795.09 1956.96 1702.95 2003.03L1702.95 2003.03ZM1821.24 1643.19Q1797.58 1643.19 1782.64 1614.55L1782.64 1614.55Q1773.93 1597.12 1761.47 1577.20L1761.47 1577.20L1740.31 1541.09Q1725.37 1518.68 1725.37 1504.98L1725.37 1504.98Q1725.37 1486.30 1737.82 1473.23Q1750.27 1460.16 1765.21 1460.16L1765.21 1460.16Q1783.89 1460.16 1794.47 1467.63Q1805.05 1475.10 1815.01 1490.04L1815.01 1490.04L1829.96 1513.70Q1871.04 1578.44 1871.04 1598.36L1871.04 1598.36Q1871.04 1618.29 1856.10 1630.74Q1841.16 1643.19 1821.24 1643.19L1821.24 1643.19ZM2026.68 2061.55Q1981.86 2061.55 1981.86 2010.50L1981.86 2010.50L1981.86 1498.75Q1981.86 1447.71 2027.93 1447.71L2027.93 1447.71Q2074.00 1447.71 2074.00 1498.75L2074.00 1498.75L2074.00 2010.50Q2074.00 2061.55 2026.68 2061.55L2026.68 2061.55ZM1670.58 1750.27Q1625.76 1750.27 1625.76 1709.18L1625.76 1709.18Q1625.76 1668.09 1670.58 1668.09L1670.58 1668.09L2351.66 1668.09Q2396.48 1668.09 2396.48 1709.18L2396.48 1709.18Q2396.48 1750.27 2351.66 1750.27L2351.66 1750.27L1670.58 1750.27ZM2357.89 1999.29Q2349.17 1999.29 2330.49 1988.71Q2311.82 1978.13 2288.16 1961.94L2288.16 1961.94Q2179.83 1889.72 2136.25 1868.55L2136.25 1868.55Q2105.13 1853.61 2098.90 1838.67L2098.90 1838.67Q2095.17 1831.20 2095.17 1823.73L2095.17 1823.73Q2095.17 1817.50 2098.90 1806.30L2098.90 1806.30Q2101.39 1796.34 2111.98 1789.49Q2122.56 1782.64 2136.25 1782.64L2136.25 1782.64Q2161.16 1782.64 2308.08 1863.57L2308.08 1863.57L2374.07 1897.19Q2413.92 1917.11 2413.92 1950.73L2413.92 1950.73Q2413.92 1971.90 2398.97 1985.60Q2384.03 1999.29 2357.89 1999.29L2357.89 1999.29ZM2217.19 1641.94Q2202.25 1641.94 2189.79 1628.87Q2177.34 1615.80 2177.34 1597.12L2177.34 1597.12Q2177.34 1583.42 2192.29 1561.01L2192.29 1561.01L2213.45 1524.90Q2225.90 1504.98 2234.62 1487.55L2234.62 1487.55Q2249.56 1458.91 2273.22 1458.91L2273.22 1458.91Q2293.14 1458.91 2308.08 1471.36Q2323.02 1483.81 2323.02 1503.74L2323.02 1503.74Q2323.02 1519.92 2281.93 1588.40L2281.93 1588.40L2266.99 1612.06Q2257.03 1627.00 2246.45 1634.47Q2235.86 1641.94 2217.19 1641.94L2217.19 1641.94ZM1806.30 1264.67Q1758.98 1264.67 1758.98 1222.34L1758.98 1222.34Q1758.98 1180.00 1806.30 1180.00L1806.30 1180.00L2494.85 1180.00Q2543.41 1180.00 2543.41 1222.34L2543.41 1222.34Q2543.41 1264.67 2494.85 1264.67L2494.85 1264.67L1806.30 1264.67ZM1614.55 1304.52Q1590.89 1304.52 1579.06 1291.44Q1567.24 1278.37 1567.24 1255.96L1567.24 1255.96Q1567.24 1232.30 1593.38 1211.13L1593.38 1211.13Q1719.14 1104.05 1803.81 972.07L1803.81 972.07Q1832.45 928.49 1864.82 928.49L1864.82 928.49Q1887.23 928.49 1902.17 939.70Q1917.11 950.90 1917.11 969.58L1917.11 969.58Q1917.11 984.52 1893.46 1021.88L1893.46 1021.88L2610.64 1021.88Q2666.67 1021.88 2666.67 1065.45L2666.67 1065.45Q2666.67 1107.79 2610.64 1107.79L2610.64 1107.79L1828.71 1107.79Q1666.85 1304.52 1614.55 1304.52L1614.55 1304.52Z"/>
  </svg>