<svg xmlns="http://www.w3.org/2000/svg" viewBox="0 0 3000 3000" width="3000" height="3000">
    <path fill="#000000" d="M996.37 2034.23L996.37 1491.08L1033.35 1491.08L1033.35 2034.23Q1033.35 2064.83 1047.38 2074.39Q1061.40 2083.95 1104.75 2083.95L1104.75 2083.95Q1114.95 2083.95 1143.64 2083.95Q1172.32 2083.95 1208.02 2083.95Q1243.72 2083.95 1274.32 2083.95Q1304.92 2083.95 1320.22 2083.95L1320.22 2083.95Q1350.82 2083.95 1366.13 2066.10Q1381.42 2048.25 1387.16 1995.98Q1392.90 1943.70 1394.17 1840.43L1394.17 1840.43Q1400.55 1844.25 1406.92 1848.71Q1413.30 1853.18 1420.31 1855.73Q1427.32 1858.28 1432.42 1860.83L1432.42 1860.83Q1429.88 1964.10 1420.95 2020.84Q1412.02 2077.58 1389.71 2099.89Q1367.40 2122.20 1320.22 2122.20L1320.22 2122.20Q1312.57 2122.20 1281.34 2122.20Q1250.10 2122.20 1212.49 2122.20Q1174.88 2122.20 1144.27 2122.20Q1113.67 2122.20 1106.02 2122.20L1106.02 2122.20Q1063.95 2122.20 1039.72 2115.19Q1015.50 2108.18 1005.94 2089.05Q996.37 2069.93 996.37 2034.23L996.37 2034.23ZM309.15 1512.75L309.15 1474.50L1417.13 1474.50L1417.13 1512.75L309.15 1512.75ZM416.25 1143L416.25 1106.03L1317.67 1106.03L1317.67 1143L416.25 1143ZM669.97 1501.28L669.97 1501.28L708.22 1501.28Q699.30 1609.65 680.17 1707.19Q661.05 1804.73 620.89 1887.60Q580.72 1970.48 511.24 2035.50Q441.75 2100.53 333.37 2142.60L333.37 2142.60Q330.82 2137.50 322.54 2129.85Q314.25 2122.20 307.87 2117.10L307.87 2117.10Q413.70 2076.30 480.64 2013.83Q547.57 1951.35 586.46 1871.03Q625.35 1790.70 643.84 1696.99Q662.32 1603.28 669.97 1501.28ZM1802.17 1160.85L1802.17 1123.88L2664.07 1123.88L2664.07 1160.85L1802.17 1160.85ZM1800.90 1311.30L1800.90 1273.05L2578.65 1273.05L2578.65 1311.30L1800.90 1311.30ZM1684.88 1463.03L1684.88 1426.05L2467.73 1426.05L2467.73 1463.03L1684.88 1463.03ZM1603.28 1785.60L1603.28 1748.63L2384.85 1748.63L2384.85 1785.60L1603.28 1785.60ZM1860.83 993.83L1860.83 993.83L1899.08 1004.03Q1864.65 1081.80 1818.11 1155.11Q1771.58 1228.42 1718.03 1290.26Q1664.47 1352.10 1607.10 1400.55L1607.10 1400.55Q1604.55 1396.72 1598.17 1392.26Q1591.80 1387.80 1585.42 1383.34Q1579.05 1378.88 1573.95 1376.33L1573.95 1376.33Q1661.92 1306.20 1737.79 1206.11Q1813.65 1106.03 1860.83 993.83ZM2460.07 1426.05L2460.07 1426.05L2497.05 1426.05Q2497.05 1593.08 2500.88 1721.21Q2504.70 1849.35 2518.09 1936.05Q2531.48 2022.75 2559.53 2066.74Q2587.57 2110.72 2637.30 2110.72L2637.30 2110.72Q2661.53 2110.72 2669.18 2056.54Q2676.82 2002.35 2679.38 1916.93L2679.38 1916.93Q2685.75 1922.03 2696.59 1927.13Q2707.43 1932.23 2713.80 1934.78L2713.80 1934.78Q2711.25 2018.93 2704.24 2064.83Q2697.23 2110.72 2681.93 2128.58Q2666.63 2146.43 2634.75 2146.43L2634.75 2146.43Q2572.28 2146.43 2537.21 2102.44Q2502.15 2058.45 2486.21 1969.20Q2470.28 1879.95 2465.81 1744.16Q2461.35 1608.38 2460.07 1426.05ZM1707.83 1535.70L1707.83 1535.70L1737.15 1519.13Q1775.40 1558.65 1809.19 1607.10Q1842.97 1655.55 1857 1692.53L1857 1692.53L1825.13 1710.38Q1811.10 1673.40 1777.95 1624.31Q1744.80 1575.22 1707.83 1535.70ZM1974.30 2145.15L1974.30 1493.63L2011.28 1493.63L2011.28 2145.15L1974.30 2145.15ZM2258.63 1517.85L2258.63 1517.85L2293.05 1538.25Q2258.63 1585.43 2217.19 1636.43Q2175.75 1687.43 2140.05 1724.40L2140.05 1724.40L2112 1706.55Q2136.22 1681.05 2163.64 1647.90Q2191.05 1614.75 2216.55 1580.33Q2242.05 1545.90 2258.63 1517.85ZM1878.67 1848.08L1878.67 1848.08L1909.28 1863.38Q1878.67 1914.38 1832.78 1966.65Q1786.88 2018.93 1735.88 2062.91Q1684.88 2106.90 1637.70 2136.22L1637.70 2136.22Q1632.60 2128.58 1624.95 2120.29Q1617.30 2112 1610.92 2106.90L1610.92 2106.90Q1658.10 2081.40 1708.46 2039.96Q1758.83 1998.53 1804.09 1948.80Q1849.35 1899.08 1878.67 1848.08ZM2103.07 1876.13L2103.07 1876.13L2128.57 1855.73Q2174.47 1890.15 2221.01 1930.95Q2267.55 1971.75 2307.71 2011.91Q2347.88 2052.08 2372.10 2083.95L2372.10 2083.95L2345.32 2109.45Q2319.82 2076.30 2279.66 2035.50Q2239.50 1994.70 2193.60 1952.63Q2147.70 1910.55 2103.07 1876.13Z"/>
  </svg>