<svg xmlns="http://www.w3.org/2000/svg" viewBox="0 0 3000 3000" width="3000" height="3000">
    <path fill="#000000" d="M1928 1203L2056 1195L2046 1307L1928 1317L1928 1203ZM1392 1959L1392 1959L1338 1929Q1376 1841 1402 1761Q1428 1681 1454 1577L1454 1577Q1456 1567 1466 1554Q1476 1541 1476 1523L1476 1523Q1476 1489 1440 1463Q1404 1437 1366 1437L1366 1437Q1360 1437 1355 1438Q1350 1439 1346 1439L1346 1439L1236 1453Q1264 1405 1317 1301Q1370 1197 1416 1097L1416 1097Q1418 1089 1431 1075Q1444 1061 1444 1039L1444 1039Q1444 1025 1419 994Q1394 963 1354 963L1354 963Q1348 963 1340 964Q1332 965 1324 967L1324 967L1192 985Q1160 991 1124 991L1124 991Q1094 991 1058 985L1058 985L1050 985Q1044 985 1040 985L1040 985Q1056 953 1072 921L1072 921Q1100 859 1117 816Q1134 773 1134 763L1134 763Q1134 733 1080 699L1080 699Q1036 667 1008 667L1008 667Q976 667 976 707L976 707L976 715Q976 745 947 831Q918 917 864 1042Q810 1167 733 1314Q656 1461 560 1615L560 1615Q546 1635 540 1652Q534 1669 534 1681L534 1681Q534 1707 556 1707L556 1707Q576 1707 609 1676Q642 1645 676 1599Q710 1553 741 1507Q772 1461 795 1425Q818 1389 802 1417L802 1417L790 2213Q790 2239 788 2265Q786 2291 780 2317L780 2317Q778 2325 778 2337L778 2337Q778 2373 803 2394Q828 2415 854 2425Q880 2435 890 2435L890 2435Q936 2435 936 2383L936 2383L940 1187Q974 1123 1008 1053L1008 1053Q1016 1037 1022 1023L1022 1023Q1040 1073 1088 1103L1088 1103Q1112 1117 1142 1117L1142 1117Q1166 1117 1204 1111L1204 1111L1260 1099Q1226 1191 1178 1284Q1130 1377 1072 1471L1072 1471Q1060 1495 1060 1513L1060 1513Q1060 1545 1083 1572Q1106 1599 1144 1599L1144 1599Q1162 1599 1179 1594Q1196 1589 1220 1587L1220 1587L1300 1575Q1288 1641 1262 1728Q1236 1815 1210 1883L1210 1883Q1196 1879 1173 1877Q1150 1875 1122 1875L1122 1875Q1034 1875 1003 1890Q972 1905 972 1937L972 1937L972 1947Q980 2013 1022 2013L1022 2013Q1034 2013 1042 2011L1042 2011Q1094 1999 1132 1999L1132 1999Q1144 1999 1156 1999L1156 1999L1164 1999Q1132 2071 1086 2152Q1040 2233 988 2309L988 2309Q960 2349 960 2375L960 2375Q960 2403 984 2403L984 2403Q1004 2403 1041 2369Q1078 2335 1123 2282Q1168 2229 1212 2163Q1256 2097 1286 2041L1286 2041Q1298 2047 1321 2062Q1344 2077 1370 2091L1370 2091Q1512 2169 1653 2225Q1794 2281 1952 2319Q2110 2357 2304 2387L2304 2387Q2312 2389 2328 2389L2328 2389Q2358 2389 2386 2362Q2414 2335 2432 2307Q2450 2279 2450 2269L2450 2269Q2450 2245 2406 2239L2406 2239Q2182 2223 2006 2186Q1830 2149 1681 2092Q1532 2035 1392 1959ZM1928 989L2074 977L2066 1075L1928 1085L1928 989ZM1926 2097L1926 1893L2332 1871Q2348 1869 2366 1858Q2384 1847 2384 1827L2384 1827Q2384 1813 2365 1789Q2346 1765 2319 1744Q2292 1723 2264 1723L2264 1723Q2258 1723 2252 1724Q2246 1725 2240 1727L2240 1727Q2216 1735 2196 1743Q2176 1751 2152 1753L2152 1753L1926 1765L1926 1661L2192 1645Q2246 1639 2246 1603L2246 1603Q2246 1583 2224 1560Q2202 1537 2175 1522Q2148 1507 2132 1507L2132 1507Q2122 1507 2108 1511L2108 1511Q2092 1517 2075 1523Q2058 1529 2034 1531L2034 1531L1926 1537L1926 1437L2156 1421Q2180 1419 2199 1414Q2218 1409 2218 1385Q2218 1361 2176 1307L2176 1307L2188 1189L2332 1179Q2386 1173 2386 1137L2386 1137Q2386 1109 2348 1078Q2310 1047 2278 1047L2278 1047Q2270 1047 2256 1051L2256 1051Q2242 1057 2223 1062Q2204 1067 2200 1067L2200 1067L2206 989Q2208 977 2214 966Q2220 955 2220 937L2220 937Q2220 903 2190 879Q2160 855 2128 855L2128 855Q2122 855 2117 856Q2112 857 2110 857L2110 857L1928 871L1928 719Q1928 695 1918 681Q1908 667 1864 651L1864 651Q1826 637 1796 637L1796 637Q1762 637 1762 663L1762 663Q1762 673 1770 685L1770 685Q1784 705 1789 733Q1794 761 1794 779L1794 779L1794 877L1646 889Q1644 889 1638 890Q1632 891 1626 891L1626 891L1616 891Q1602 891 1583 889Q1564 887 1546 885L1546 885L1536 885Q1514 885 1514 905L1514 905L1518 919Q1548 981 1582 994Q1616 1007 1656 1007L1656 1007L1682 1007L1792 999L1792 1091L1534 1107Q1526 1107 1517 1108Q1508 1109 1498 1109L1498 1109Q1476 1109 1442 1103L1442 1103Q1440 1103 1438 1102Q1436 1101 1430 1101L1430 1101Q1408 1101 1408 1123L1408 1123Q1408 1141 1432 1173Q1456 1205 1466 1213L1466 1213Q1482 1227 1516 1227L1516 1227Q1526 1227 1538 1226Q1550 1225 1562 1225L1562 1225L1792 1211L1792 1323L1656 1333Q1648 1333 1636 1334Q1624 1335 1610 1335Q1596 1335 1584 1334Q1572 1333 1558 1331L1558 1331L1556 1331Q1554 1329 1550 1329L1550 1329Q1526 1329 1526 1353L1526 1353Q1526 1361 1530 1369L1530 1369L1542 1393Q1550 1407 1563 1421Q1576 1435 1594 1445L1594 1445Q1614 1453 1638 1453L1638 1453Q1652 1453 1666 1452Q1680 1451 1694 1451L1694 1451L1790 1443L1790 1543L1650 1553Q1638 1553 1626 1554Q1614 1555 1600 1555L1600 1555Q1584 1555 1569 1553Q1554 1551 1542 1547L1542 1547Q1536 1545 1528 1545L1528 1545Q1506 1545 1506 1571Q1506 1597 1524 1621Q1542 1645 1560 1663L1560 1663Q1574 1673 1591 1675Q1608 1677 1628 1677L1628 1677Q1640 1677 1652 1676Q1664 1675 1678 1675L1678 1675L1790 1667L1788 1771L1548 1783Q1538 1783 1527 1784Q1516 1785 1506 1785L1506 1785Q1466 1785 1444 1779L1444 1779Q1436 1777 1426 1777L1426 1777Q1402 1777 1402 1801L1402 1801Q1402 1839 1428 1863Q1454 1887 1466 1893L1466 1893Q1482 1903 1505 1906Q1528 1909 1552 1909L1552 1909L1578 1909L1788 1897L1788 1909Q1788 1941 1786 1974Q1784 2007 1778 2033L1778 2033Q1776 2041 1776 2048Q1776 2055 1776 2059L1776 2059Q1776 2097 1804 2117Q1832 2137 1860 2147L1860 2147L1888 2153Q1926 2153 1926 2097L1926 2097Z"/>
  </svg>