<svg xmlns="http://www.w3.org/2000/svg" viewBox="0 0 3000 3000" width="3000" height="3000">
    <path fill="#000000" d="M817.87 1205.47L817.87 1205.47Q843.37 1210.58 861.22 1210.58L861.22 1210.58L1056.30 1199.10L1056.30 1123.88L978.52 1130.25L961.95 1130.25Q937.72 1130.25 915.41 1121.33Q893.10 1112.40 879.07 1071.60L879.07 1071.60Q879.07 1067.78 885.45 1067.78L885.45 1067.78L891.82 1067.78Q922.42 1071.60 936.45 1071.60L936.45 1071.60L942.82 1071.60L1057.57 1062.67L1057.57 992.55Q1057.57 949.20 1041 928.80L1041 928.80Q1037.17 922.42 1037.17 918.60L1037.17 918.60Q1037.17 909.67 1053.11 909.67Q1069.05 909.67 1093.27 918.60Q1117.50 927.52 1122.60 934.54Q1127.70 941.55 1127.70 954.30L1127.70 954.30L1127.70 1058.85L1251.37 1049.92L1262.85 1048.65Q1280.70 1048.65 1297.27 1062.04Q1313.85 1075.42 1313.85 1088.81Q1313.85 1102.20 1310.02 1109.21Q1306.20 1116.22 1304.92 1125.15L1304.92 1125.15L1299.82 1185.08Q1326.60 1182.53 1340.63 1176.79Q1354.65 1171.05 1365.49 1171.05Q1376.32 1171.05 1398 1188.90Q1419.67 1206.75 1419.67 1222.05Q1419.67 1237.35 1392.90 1239.90L1392.90 1239.90L1293.45 1246.28L1285.80 1331.70Q1312.57 1366.13 1312.57 1376.96Q1312.57 1387.80 1303.65 1390.35Q1294.72 1392.90 1280.70 1394.18L1280.70 1394.18L1126.42 1404.38L1126.42 1483.43L1202.92 1479.60Q1223.32 1478.33 1241.81 1471.31Q1260.30 1464.30 1266.67 1464.30Q1273.05 1464.30 1288.99 1473.22Q1304.92 1482.15 1317.67 1494.90Q1330.42 1507.65 1330.42 1517.85L1330.42 1517.85Q1330.42 1534.43 1303.65 1536.97L1303.65 1536.97L1126.42 1547.18L1126.42 1628.78L1278.15 1621.13Q1294.72 1619.85 1308.11 1614.75Q1321.50 1609.65 1332.97 1605.83Q1344.45 1602 1354.65 1602Q1364.85 1602 1380.79 1614.11Q1396.72 1626.23 1407.56 1640.25Q1418.40 1654.28 1418.40 1661.93L1418.40 1661.93Q1418.40 1677.23 1391.63 1681.05L1391.63 1681.05L1126.42 1695.08L1126.42 1832.78Q1126.42 1860.83 1111.13 1860.83L1111.13 1860.83L1094.55 1857Q1046.10 1841.70 1046.10 1808.55L1046.10 1808.55L1046.10 1802.18Q1046.10 1798.35 1049.92 1781.78Q1053.75 1765.20 1053.75 1712.93L1053.75 1712.93L1053.75 1697.63L912.22 1705.28L895.65 1705.28Q859.95 1705.28 849.75 1698.90L849.75 1698.90Q807.67 1674.68 807.67 1644.08L807.67 1644.08Q807.67 1636.43 814.05 1636.43Q820.42 1636.43 829.99 1638.98Q839.55 1641.53 866.32 1641.53L866.32 1641.53L1053.75 1632.60L1055.02 1551L975.97 1556.10L944.10 1557.38Q916.05 1557.38 904.57 1548.45L904.57 1548.45Q873.97 1521.68 873.97 1497.45L873.97 1497.45Q873.97 1488.53 879.07 1488.53Q884.17 1488.53 893.74 1491.71Q903.30 1494.90 926.25 1494.90L926.25 1494.90L958.12 1493.63L1055.02 1487.25L1055.02 1408.20L986.17 1413.30L950.47 1414.58Q936.45 1414.58 926.25 1410.75L926.25 1410.75Q908.40 1399.28 895.65 1380.15L895.65 1380.15L888.00 1364.85Q886.72 1362.30 886.72 1358.47L886.72 1358.47Q886.72 1350.83 894.37 1350.83L894.37 1350.83Q909.67 1354.65 932.62 1354.65L932.62 1354.65L961.95 1353.38L1056.30 1347L1056.30 1260.30L902.02 1269.22L872.70 1270.50Q853.57 1270.50 847.20 1264.76Q840.82 1259.03 826.16 1239.90Q811.50 1220.78 811.50 1213.13Q811.50 1205.47 817.87 1205.47ZM417.52 1906.73L425.17 1371.22Q344.85 1505.10 290.02 1558.65L290.02 1558.65Q270.90 1576.50 262.61 1576.50Q254.32 1576.50 254.32 1563.75Q254.32 1551 269.62 1529.33L269.62 1529.33Q385.65 1343.18 460.87 1171.05Q536.10 998.92 536.10 951.75L536.10 951.75L536.10 946.65Q536.10 928.80 548.85 928.80L548.85 928.80Q564.15 928.80 590.92 947.92L590.92 947.92Q621.52 967.05 621.52 983.63Q621.52 1000.20 571.16 1104.11Q520.80 1208.03 497.85 1250.10L497.85 1250.10L495.30 2015.10Q495.30 2040.60 473.62 2040.60L473.62 2040.60Q468.52 2040.60 453.22 2035.50L453.22 2035.50Q409.87 2018.93 409.87 1985.78L409.87 1985.78Q409.87 1979.40 413.70 1962.83Q417.52 1946.25 417.52 1906.73L417.52 1906.73ZM1230.97 1188.90L1237.35 1111.13L1127.70 1118.78L1127.70 1195.28L1230.97 1188.90ZM533.55 1737.15L533.55 1730.78Q533.55 1698.90 612.60 1698.90L612.60 1698.90Q657.22 1698.90 682.72 1705.28L682.72 1705.28Q727.35 1590.53 743.92 1491.08L743.92 1491.08L682.72 1500Q667.42 1501.28 656.59 1504.46Q645.75 1507.65 630.45 1507.65Q615.15 1507.65 602.40 1492.99Q589.65 1478.33 589.65 1464.30Q589.65 1450.28 596.02 1437.53L596.02 1437.53Q671.25 1315.13 722.25 1186.35L722.25 1186.35L672.52 1196.55Q649.57 1200.38 633.64 1200.38Q617.70 1200.38 596.66 1187.63Q575.62 1174.88 565.42 1144.28L565.42 1144.28Q564.15 1141.72 564.15 1136.63Q564.15 1131.53 575.62 1131.53L575.62 1131.53L580.72 1131.53Q603.67 1135.35 625.35 1135.35Q647.02 1135.35 667.42 1131.53L667.42 1131.53L751.57 1120.05Q761.77 1117.50 776.44 1117.50Q791.10 1117.50 805.12 1134.71Q819.15 1151.92 819.15 1160.85Q819.15 1169.78 811.50 1178.06Q803.85 1186.35 772.61 1257.11Q741.37 1327.88 680.17 1431.15L680.17 1431.15L764.32 1420.95L777.07 1419.67Q798.75 1419.67 819.15 1434.34Q839.55 1449 839.55 1462.39Q839.55 1475.78 833.81 1483.43Q828.07 1491.08 825.52 1498.72L825.52 1498.72Q793.65 1623.68 749.02 1729.50L749.02 1729.50L789.82 1751.18Q981.07 1854.45 1183.80 1897.80L1183.80 1897.80Q1296.00 1920.75 1438.80 1930.95L1438.80 1930.95Q1460.47 1933.50 1460.47 1942.43L1460.47 1942.43Q1460.47 1946.25 1449 1962.83L1449 1962.83Q1418.40 2011.28 1390.35 2011.28L1390.35 2011.28Q1381.42 2011.28 1316.40 2001.08L1316.40 2001.08Q1023.15 1955.18 783.45 1822.58L783.45 1822.58Q766.87 1813.65 752.21 1804.09Q737.55 1794.53 722.25 1786.88L722.25 1786.88Q680.17 1869.75 617.06 1944.98Q553.95 2020.20 533.55 2020.20L533.55 2020.20Q525.90 2020.20 525.90 2008.09Q525.90 1995.98 569.25 1932.86Q612.60 1869.75 658.50 1765.20L658.50 1765.20Q650.85 1762.65 643.20 1762.65L643.20 1762.65L618.97 1762.65Q602.40 1762.65 583.27 1767.11Q564.15 1771.58 557.77 1771.58L557.77 1771.58Q537.37 1771.58 533.55 1737.15L533.55 1737.15ZM1218.22 1336.80L1225.88 1250.10L1127.70 1255.20L1127.70 1343.18L1218.22 1336.80ZM1704 1021.88L1704 1021.88Q1704 1011.67 1718.66 1011.67Q1733.33 1011.67 1808.55 1053.75L1808.55 1053.75L2142.60 1034.63L2141.32 944.10Q2141.32 918.60 2129.21 904.57Q2117.10 890.55 2117.10 882.90Q2117.10 875.25 2131.13 875.25Q2145.15 875.25 2182.76 884.81Q2220.38 894.38 2220.38 918.60L2220.38 918.60L2219.10 1029.53L2481.75 1014.23Q2509.80 1012.95 2528.29 1005.30Q2546.78 997.65 2553.15 997.65Q2559.53 997.65 2576.10 1007.85L2576.10 1007.85Q2619.45 1032.08 2619.45 1057.58L2619.45 1057.58Q2619.45 1074.15 2590.13 1076.70L2590.13 1076.70L1807.28 1122.60Q1803.45 1348.28 1790.70 1454.10L1790.70 1454.10Q1749.90 1817.48 1584.15 2002.35L1584.15 2002.35Q1562.47 2024.03 1554.19 2024.03Q1545.90 2024.03 1545.90 2013.83Q1545.90 2003.63 1557.38 1983.23L1557.38 1983.23Q1675.95 1765.20 1706.55 1492.35L1706.55 1492.35Q1723.13 1352.10 1723.13 1179.97L1723.13 1179.97L1723.13 1143Q1723.13 1083.08 1713.56 1055.03Q1704 1026.97 1704 1021.88ZM2235.68 1696.35L2235.68 1913.10L2239.50 1976.85Q2239.50 2015.10 2217.19 2034.86Q2194.88 2054.63 2174.47 2054.63Q2154.07 2054.63 2120.29 2034.86Q2086.50 2015.10 2053.35 1987.05Q2020.20 1959 1997.25 1934.78Q1974.30 1910.55 1974.30 1901.63Q1974.30 1892.70 1983.86 1892.70Q1993.43 1892.70 2034.86 1913.74Q2076.30 1934.78 2159.18 1959L2159.18 1959L2160.45 1572.68L2007.45 1580.33L1975.58 1581.60Q1956.45 1581.60 1940.51 1575.23Q1924.58 1568.85 1914.38 1545.26Q1904.18 1521.68 1904.18 1517.85L1904.18 1517.85Q1904.18 1508.93 1913.10 1508.93L1913.10 1508.93L1956.45 1514.03L2160.45 1503.83L2160.45 1415.85L1922.03 1428.60L1883.78 1429.88Q1853.17 1429.88 1837.88 1413.94Q1822.58 1398 1818.11 1382.06Q1813.65 1366.13 1813.65 1364.85L1813.65 1364.85Q1813.65 1357.20 1821.30 1357.20L1821.30 1357.20L1826.40 1357.20Q1849.35 1363.58 1882.50 1363.58L1882.50 1363.58L1899.08 1363.58L2160.45 1350.83L2160.45 1274.33L2001.08 1283.25Q1983.22 1285.80 1962.83 1285.80L1962.83 1285.80Q1924.58 1285.80 1906.72 1247.55L1906.72 1247.55Q1896.53 1225.88 1896.53 1220.14Q1896.53 1214.40 1900.35 1214.40L1900.35 1214.40Q1906.72 1214.40 1918.84 1218.22Q1930.95 1222.05 1953.90 1222.05L1953.90 1222.05L2160.45 1209.30L2160.45 1205.47Q2160.45 1158.30 2141.32 1134.08L2141.32 1134.08Q2133.68 1123.88 2133.68 1118.14Q2133.68 1112.40 2145.79 1112.40Q2157.90 1112.40 2189.14 1120.69Q2220.38 1128.97 2228.03 1138.54Q2235.68 1148.10 2235.68 1160.85L2235.68 1160.85L2235.68 1205.47L2449.88 1192.72L2460.07 1192.72Q2491.95 1192.72 2505.98 1208.03Q2520 1223.33 2520 1234.80Q2520 1246.28 2514.90 1254.56Q2509.80 1262.85 2508.53 1269.22L2508.53 1269.22L2499.60 1334.25L2563.35 1330.43Q2602.88 1326.60 2613.07 1322.14Q2623.28 1317.68 2633.48 1317.68Q2643.68 1317.68 2657.70 1326.60L2657.70 1326.60Q2692.13 1348.28 2692.13 1368.68L2692.13 1368.68Q2692.13 1385.25 2655.15 1387.80L2655.15 1387.80L2489.40 1396.72L2476.65 1488.53Q2514.90 1526.78 2514.90 1539.53Q2514.90 1552.28 2504.06 1554.19Q2493.23 1556.10 2476.65 1557.38L2476.65 1557.38L2235.68 1568.85L2235.68 1616.03Q2286.68 1669.58 2337.68 1712.93L2337.68 1712.93Q2424.38 1664.48 2467.73 1624.95Q2511.08 1585.43 2515.54 1568.21Q2520 1551 2526.38 1551L2526.38 1551Q2542.95 1551 2565.90 1598.18L2565.90 1598.18Q2573.55 1616.03 2573.55 1625.59Q2573.55 1635.15 2565.90 1642.80L2565.90 1642.80Q2488.13 1704 2393.78 1755L2393.78 1755Q2520 1845.53 2693.40 1901.63L2693.40 1901.63Q2709.98 1906.73 2709.98 1919.48L2709.98 1919.48Q2709.98 1925.85 2698.50 1939.88L2698.50 1939.88Q2671.73 1975.58 2655.15 1975.58L2655.15 1975.58L2616.90 1961.55Q2502.15 1919.48 2381.03 1831.50L2381.03 1831.50Q2307.07 1776.68 2235.68 1696.35L2235.68 1696.35ZM2423.10 1336.80L2432.03 1259.03L2235.68 1270.50L2235.68 1347L2423.10 1336.80ZM2405.25 1492.35L2415.45 1400.55L2235.68 1410.75L2235.68 1500L2405.25 1492.35ZM2003.63 1743.53L2003.63 1743.53Q1943.70 1691.25 1874.85 1647.90L1874.85 1647.90Q1859.55 1637.70 1859.55 1626.86Q1859.55 1616.03 1870.39 1603.28Q1881.22 1590.53 1891.43 1590.53Q1901.63 1590.53 1982.59 1637.06Q2063.55 1683.60 2063.55 1706.55L2063.55 1706.55Q2063.55 1712.93 2052.71 1732.05Q2041.88 1751.18 2027.85 1751.18Q2013.83 1751.18 2003.63 1743.53ZM2123.47 1762.65L2123.47 1762.65Q1992.15 1872.30 1921.39 1914.38Q1850.63 1956.45 1837.24 1956.45Q1823.85 1956.45 1804.72 1945.61Q1785.60 1934.78 1770.30 1920.11Q1755 1905.45 1755 1895.25Q1755 1885.05 1783.69 1881.86Q1812.38 1878.68 1897.16 1844.25Q1981.95 1809.83 2108.18 1730.78L2108.18 1730.78Q2128.57 1718.03 2138.78 1718.03Q2148.97 1718.03 2148.97 1729.50Q2148.97 1740.98 2123.47 1762.65Z"/>
  </svg>