<svg xmlns="http://www.w3.org/2000/svg" viewBox="0 0 3000 3000" width="3000" height="3000">
    <path fill="#000000" d="M552.67 1061.40L552.67 1061.40Q559.05 1057.57 581.36 1063.31Q603.67 1069.05 617.70 1080.52L617.70 1080.52Q636.82 1094.55 643.20 1094.55L643.20 1094.55Q648.30 1094.55 648.94 1106.02Q649.57 1117.50 647.02 1129.61Q644.47 1141.72 640.65 1144.27L640.65 1144.27Q631.72 1146.82 631.72 1162.13Q631.72 1177.42 615.15 1183.16Q598.57 1188.90 589.01 1212.49Q579.45 1236.07 571.80 1236.07Q564.15 1236.07 522.71 1292.81Q481.27 1349.55 385.65 1447.72Q290.02 1545.90 281.10 1539.53L281.10 1539.53Q276.00 1533.15 282.37 1521.04Q288.75 1508.92 319.35 1470.67L319.35 1470.67Q343.57 1437.53 343.57 1432.42Q343.57 1427.32 357.60 1412.03Q371.62 1396.72 391.39 1362.30Q411.15 1327.88 418.80 1317.67Q426.45 1307.47 426.45 1302.38Q426.45 1297.28 443.66 1276.88Q460.87 1256.47 460.87 1252.65Q460.87 1248.82 477.45 1223.32L477.45 1223.32Q496.57 1191.45 523.35 1139.17Q550.12 1086.90 550.12 1079.25L550.12 1079.25Q550.12 1067.77 552.67 1061.40ZM944.10 993.82L944.10 993.82Q947.92 979.80 974.06 986.17Q1000.20 992.55 1033.35 1016.77L1033.35 1016.77Q1044.82 1024.42 1046.74 1031.44Q1048.65 1038.45 1048.65 1065.22L1048.65 1065.22L1048.65 1100.92L1106.02 1098.38Q1144.27 1094.55 1158.30 1096.46Q1172.32 1098.38 1192.72 1104.75L1192.72 1104.75Q1223.32 1118.77 1236.07 1132.80L1236.07 1132.80Q1246.27 1141.72 1246.27 1146.19Q1246.27 1150.65 1238.63 1163.40L1238.63 1163.40Q1230.97 1181.25 1200.38 1211.21Q1169.77 1241.17 1171.69 1243.72Q1173.60 1246.28 1236.07 1239.90L1236.07 1239.90Q1293.45 1234.80 1328.51 1234.80Q1363.57 1234.80 1385.89 1239.90Q1408.20 1245 1413.30 1257.75Q1418.40 1270.50 1410.75 1290.90L1410.75 1290.90Q1404.38 1315.13 1388.44 1318.31Q1372.50 1321.50 1332.97 1311.30L1332.97 1311.30Q1293.45 1298.55 1227.79 1302.38Q1162.13 1306.20 1110.49 1308.75Q1058.85 1311.30 1055.02 1314.49Q1051.20 1317.67 1048.65 1353.38L1048.65 1353.38L1046.10 1389.07L1069.05 1385.25Q1136.63 1373.78 1165.31 1380.79Q1194 1387.80 1194 1414.57L1194 1414.57Q1194 1433.70 1177.42 1450.28L1177.42 1450.28Q1167.22 1460.47 1160.21 1461.75Q1153.20 1463.03 1137.90 1459.20L1137.90 1459.20Q1114.95 1454.10 1088.17 1454.10L1088.17 1454.10Q1069.05 1454.10 1063.31 1456.65Q1057.57 1459.20 1053.75 1468.13L1053.75 1468.13Q1047.38 1485.97 1051.20 1488.52Q1055.02 1491.07 1083.07 1496.17L1083.07 1496.17Q1121.32 1497.45 1128.97 1511.47L1128.97 1511.47Q1141.72 1528.05 1140.45 1540.16Q1139.17 1552.28 1121.32 1567.57L1121.32 1567.57Q1107.30 1581.60 1100.29 1584.79Q1093.27 1587.97 1080.52 1585.42L1080.52 1585.42Q1061.40 1581.60 1055.02 1590.53L1055.02 1590.53Q1049.92 1595.63 1048.01 1609.65Q1046.10 1623.67 1046.74 1635.79Q1047.38 1647.90 1049.92 1647.90L1049.92 1647.90Q1057.57 1647.90 1141.72 1644.08L1141.72 1644.08Q1214.40 1641.53 1245 1644.71Q1275.60 1647.90 1292.17 1665.75L1292.17 1665.75Q1306.20 1677.22 1306.20 1684.24Q1306.20 1691.25 1294.72 1714.20L1294.72 1714.20Q1279.42 1740.97 1264.12 1744.80Q1248.82 1748.63 1206.75 1734.60L1206.75 1734.60Q1172.32 1723.13 1112.40 1726.95L1112.40 1726.95L1049.92 1732.05L1047.38 1779.22Q1044.82 1825.13 1038.45 1853.17L1038.45 1853.17Q1035.90 1873.58 1037.17 1878.04Q1038.45 1882.50 1051.20 1885.05L1051.20 1885.05Q1067.77 1888.88 1077.97 1891.42L1077.97 1891.42Q1100.92 1897.80 1306.20 1922.03L1306.20 1922.03Q1363.57 1929.67 1405.01 1939.88Q1446.45 1950.08 1446.45 1956.45L1446.45 1956.45Q1446.45 1969.20 1433.70 1983.86Q1420.95 1998.53 1405.65 2007.45L1405.65 2007.45Q1332.97 2036.78 1285.80 2064.82L1285.80 2064.82Q1256.47 2083.95 1224.60 2082.68L1224.60 2082.68Q1159.57 2080.13 1072.88 2048.25L1072.88 2048.25Q1016.77 2026.58 1011.67 2041.88L1011.67 2041.88Q1001.47 2067.38 974.70 2029.13L974.70 2029.13Q956.85 2006.17 924.97 1990.88L924.97 1990.88Q888.00 1970.47 835.72 1935.41Q783.45 1900.35 764.32 1878.67L764.32 1878.67Q706.95 1822.58 690.37 1823.85L690.37 1823.85Q682.72 1823.85 671.89 1830.86Q661.05 1837.88 661.05 1844.25L661.05 1844.25Q661.05 1848.08 641.29 1869.75Q621.52 1891.42 587.74 1907.36Q553.95 1923.30 537.37 1919.47L537.37 1919.47Q525.90 1918.20 522.71 1920.11Q519.52 1922.03 519.52 1929.67L519.52 1929.67Q519.52 1943.70 527.17 1951.35Q534.82 1959 522.07 1971.11Q509.32 1983.22 506.14 1999.16Q502.95 2015.10 488.92 2022.11Q474.90 2029.13 471.71 2035.50Q468.52 2041.88 446.85 2021.47L446.85 2021.47Q406.05 1983.22 418.80 1885.05L418.80 1885.05Q426.45 1832.78 431.55 1822.58Q436.65 1812.38 443.02 1695.71Q449.40 1579.05 458.32 1531.88Q467.25 1484.70 467.25 1461.75L467.25 1461.75Q467.25 1445.17 476.81 1426.05Q486.37 1406.92 494.02 1406.92L494.02 1406.92Q499.12 1406.92 512.51 1417.76Q525.90 1428.60 525.90 1433.06Q525.90 1437.53 537.37 1451.55Q548.85 1465.57 546.94 1514.03Q545.02 1562.47 538.01 1577.14Q531.00 1591.80 527.81 1670.21Q524.62 1748.63 521.44 1754.36Q518.25 1760.10 518.89 1824.49Q519.52 1888.88 523.35 1892.06Q527.17 1895.25 539.29 1878.67Q551.40 1862.10 577.54 1832.14Q603.67 1802.17 608.77 1790.70Q613.87 1779.22 621.52 1766.47L621.52 1766.47Q629.17 1756.28 624.71 1750.54Q620.25 1744.80 594.75 1720.58L594.75 1720.58Q553.95 1687.42 553.95 1670.85L553.95 1670.85Q553.95 1660.65 557.14 1658.74Q560.32 1656.83 574.35 1659.38L574.35 1659.38Q594.75 1663.20 621.52 1681.05L621.52 1681.05Q649.57 1697.63 657.86 1691.89Q666.15 1686.15 687.82 1641.53L687.82 1641.53Q719.70 1573.95 709.50 1524.22L709.50 1524.22Q705.67 1502.55 691.65 1500.64Q677.62 1498.72 647.02 1514.03L647.02 1514.03Q616.42 1529.32 606.22 1529.32Q596.02 1529.32 589.65 1512.75L589.65 1512.75Q582.00 1493.63 593.47 1462.39Q604.95 1431.15 631.72 1400.55L631.72 1400.55Q653.40 1376.32 676.99 1339.35Q700.57 1302.38 700.57 1292.17L700.57 1292.17Q700.57 1284.53 710.14 1273.05Q719.70 1261.57 719.70 1257.75L719.70 1257.75Q718.42 1253.92 708.86 1255.20Q699.30 1256.47 684.64 1262.21Q669.97 1267.95 658.50 1273.05L658.50 1273.05Q635.55 1285.80 617.70 1284.53Q599.85 1283.25 597.30 1269.22L597.30 1269.22Q590.92 1234.80 698.02 1202.92L698.02 1202.92Q728.62 1192.72 739.46 1183.80Q750.30 1174.88 786.00 1181.25L786.00 1181.25Q829.35 1191.45 840.82 1203.56Q852.30 1215.67 844.65 1245L844.65 1245Q842.10 1257.75 824.25 1264.13L824.25 1264.13Q814.05 1269.22 800.66 1287.07Q787.27 1304.92 789.82 1307.47L789.82 1307.47Q794.92 1311.30 861.86 1291.54Q928.80 1271.78 937.72 1271.78L937.72 1271.78Q944.10 1270.50 946.01 1262.21Q947.92 1253.92 947.92 1225.88L947.92 1225.88Q947.92 1194 946.01 1188.26Q944.10 1182.52 935.17 1183.80L935.17 1183.80Q922.42 1185.07 914.77 1199.10L914.77 1199.10Q910.95 1209.30 901.39 1211.21Q891.82 1213.13 884.17 1204.20L884.17 1204.20Q876.52 1194 868.87 1194Q861.22 1194 862.50 1178.06Q863.77 1162.13 884.17 1150.01Q904.57 1137.90 922.42 1127.70L922.42 1127.70L940.27 1116.22L940.27 1058.85Q940.27 1004.02 944.10 993.82ZM1106.02 1162.13L1106.02 1162.13Q1094.55 1151.92 1067.77 1158.30L1067.77 1158.30Q1060.13 1159.57 1056.94 1166.59Q1053.75 1173.60 1051.20 1200.38L1051.20 1200.38Q1048.65 1241.17 1051.20 1248.82L1051.20 1248.82Q1058.85 1253.92 1068.41 1252.01Q1077.97 1250.10 1086.26 1237.35Q1094.55 1224.60 1094.55 1211.85L1094.55 1211.85Q1094.55 1195.27 1102.20 1180.61Q1109.85 1165.95 1106.02 1162.13ZM947.92 1354.65L947.92 1354.65Q947.92 1329.15 944.74 1325.32Q941.55 1321.50 928.80 1335.53L928.80 1335.53Q914.77 1347 868.24 1361.66Q821.70 1376.32 812.77 1385.25L812.77 1385.25Q806.40 1392.90 801.30 1391.63Q796.20 1390.35 777.07 1382.70L777.07 1382.70Q754.12 1369.95 746.47 1372.50Q738.82 1375.05 719.70 1398L719.70 1398L700.57 1422.22L727.35 1433.70Q765.60 1451.55 783.45 1484.06Q801.30 1516.57 796.20 1554.82L796.20 1554.82Q780.90 1644.08 768.15 1660.65L768.15 1660.65Q760.50 1672.13 760.50 1681.69Q760.50 1691.25 754.76 1694.44Q749.02 1697.63 743.92 1726.95L743.92 1726.95Q741.37 1747.35 742.65 1753.09Q743.92 1758.83 752.85 1758.83L752.85 1758.83Q764.32 1758.83 770.70 1744.80L770.70 1744.80Q780.90 1719.30 896.92 1681.05L896.92 1681.05L955.57 1660.65L954.30 1635.15L951.75 1608.38L909.67 1608.38Q866.32 1608.38 862.50 1602L862.50 1602Q857.40 1598.17 874.61 1576.50Q891.82 1554.82 908.40 1549.72L908.40 1549.72Q933.90 1535.70 940.91 1526.14Q947.92 1516.57 947.92 1491.07L947.92 1491.07Q947.92 1474.50 946.01 1470.04Q944.10 1465.57 937.72 1465.57L937.72 1465.57Q924.97 1465.57 907.12 1480.88Q889.27 1496.17 857.40 1497.45L857.40 1497.45Q835.72 1498.72 829.99 1497.45Q824.25 1496.17 822.97 1485.97L822.97 1485.97Q820.42 1471.95 830.62 1461.75L830.62 1461.75Q844.65 1451.55 873.97 1436.25Q903.30 1420.95 923.70 1415.85L923.70 1415.85Q937.72 1410.75 944.74 1407.56Q951.75 1404.38 951.75 1398L951.75 1398Q951.75 1387.80 947.92 1354.65ZM880.35 1827.67L880.35 1827.67Q945.37 1857 946.65 1855.09Q947.92 1853.17 944.74 1797.08Q941.55 1740.97 937.72 1740.97L937.72 1740.97Q924.97 1740.97 896.29 1755.64Q867.60 1770.30 857.40 1781.78L857.40 1781.78Q839.55 1799.63 828.07 1799.63L828.07 1799.63Q822.97 1799.63 831.90 1804.72L831.90 1804.72Q845.92 1812.38 880.35 1827.67ZM1845.53 1322.78L1845.53 1322.78Q1851.90 1315.13 1855.72 1315.13L1855.72 1315.13Q1862.10 1315.13 1878.04 1338.71Q1893.97 1362.30 1897.80 1376.32L1897.80 1376.32Q1920.75 1464.30 1906.72 1524.22L1906.72 1524.22Q1900.35 1548.45 1897.16 1576.50Q1893.97 1604.55 1890.15 1610.92Q1886.33 1617.30 1881.22 1649.17L1881.22 1649.17Q1876.13 1691.25 1825.13 1823.85L1825.13 1823.85Q1807.28 1873.58 1785.60 1900.35L1785.60 1900.35Q1776.67 1910.55 1766.47 1928.40Q1756.28 1946.25 1737.15 1972.39Q1718.03 1998.53 1718.03 2001.71Q1718.03 2004.90 1687.42 2034.22L1687.42 2034.22Q1641.53 2078.85 1621.76 2091.60Q1602 2104.35 1587.97 2099.25L1587.97 2099.25Q1579.05 2096.70 1582.88 2089.05L1582.88 2089.05Q1586.70 2080.13 1650.45 2003.63L1650.45 2003.63Q1675.95 1975.58 1700.17 1923.30L1700.17 1923.30Q1714.20 1892.70 1742.25 1813.65L1742.25 1813.65Q1755 1777.95 1772.21 1712.92Q1789.42 1647.90 1791.97 1622.40L1791.97 1622.40Q1802.17 1524.22 1812.38 1459.20L1812.38 1459.20Q1820.03 1414.57 1820.03 1383.97L1820.03 1383.97Q1820.03 1361.03 1823.21 1352.74Q1826.40 1344.45 1845.53 1322.78ZM2309.63 1136.63L2309.63 1136.63Q2323.65 1127.70 2333.85 1137.90L2333.85 1137.90Q2337.68 1141.72 2358.07 1148.10L2358.07 1148.10Q2432.03 1171.05 2403.98 1219.50L2403.98 1219.50Q2391.23 1238.63 2378.48 1241.17Q2365.73 1243.72 2337.68 1232.25L2337.68 1232.25Q2312.18 1223.32 2270.10 1216.31Q2228.03 1209.30 2199.97 1209.30L2199.97 1209.30Q2188.50 1209.30 2185.31 1211.21Q2182.13 1213.13 2182.13 1219.50L2182.13 1219.50Q2182.13 1229.70 2192.96 1244.36Q2203.80 1259.03 2208.26 1285.80Q2212.72 1312.57 2214.64 1313.85Q2216.55 1315.13 2247.15 1317.67L2247.15 1317.67Q2282.85 1322.78 2326.84 1332.97Q2370.82 1343.17 2381.03 1350.82L2381.03 1350.82Q2407.80 1369.95 2405.25 1406.92L2405.25 1406.92L2403.98 1427.32L2444.78 1429.88Q2493.23 1432.42 2512.99 1445.81Q2532.75 1459.20 2525.10 1480.88L2525.10 1480.88Q2517.45 1496.17 2500.88 1500Q2484.30 1503.82 2438.40 1501.28L2438.40 1501.28L2382.30 1498.72L2374.65 1517.85Q2365.73 1538.25 2354.25 1545.90L2354.25 1545.90Q2344.05 1549.72 2342.14 1555.46Q2340.23 1561.20 2341.50 1580.32L2341.50 1580.32Q2342.78 1608.38 2332.57 1615.39Q2322.38 1622.40 2279.03 1621.13L2279.03 1621.13Q2222.93 1621.13 2212.09 1622.40Q2201.25 1623.67 2197.43 1636.42L2197.43 1636.42Q2191.05 1650.45 2191.05 1670.85Q2191.05 1691.25 2209.54 1707.83Q2228.03 1724.40 2234.40 1724.40L2234.40 1724.40Q2240.78 1724.40 2283.49 1692.53Q2326.20 1660.65 2347.88 1640.25L2347.88 1640.25Q2370.82 1618.58 2376.56 1616.03Q2382.30 1613.47 2396.32 1618.58L2396.32 1618.58Q2415.45 1623.67 2428.20 1634.51Q2440.95 1645.35 2440.95 1675.95L2440.95 1675.95L2439.68 1706.55L2409.07 1721.85Q2378.48 1737.15 2351.70 1755L2351.70 1755L2309.63 1779.22Q2301.98 1785.60 2301.98 1787.51Q2301.98 1789.42 2308.35 1795.80L2308.35 1795.80Q2322.38 1809.83 2384.21 1849.35Q2446.05 1888.88 2477.93 1902.90L2477.93 1902.90Q2511.08 1918.20 2557.61 1935.41Q2604.15 1952.63 2614.35 1952.63L2614.35 1952.63Q2625.82 1952.63 2660.25 1969.20Q2694.68 1985.78 2693.40 1990.24Q2692.13 1994.70 2692.13 2007.45Q2692.13 2020.20 2683.20 2023.39Q2674.28 2026.58 2659.61 2032.95Q2644.95 2039.33 2603.51 2047.61Q2562.07 2055.90 2549.32 2063.55L2549.32 2063.55Q2520 2077.57 2491.31 2071.84Q2462.63 2066.10 2411.63 2035.50L2411.63 2035.50Q2372.10 2012.55 2344.69 1989.60Q2317.28 1966.65 2259.90 1910.55L2259.90 1910.55L2192.32 1844.25L2192.32 1864.65Q2191.05 1969.20 2180.85 2016.38L2180.85 2016.38Q2174.47 2044.42 2154.07 2069.93Q2133.68 2095.43 2105.63 2108.18L2105.63 2108.18L2081.40 2120.93L2061 2109.45Q2040.60 2099.25 2030.40 2078.21Q2020.20 2057.18 1998.53 2039.33L1998.53 2039.33Q1934.78 1984.50 1927.13 1984.50L1927.13 1984.50Q1922.03 1984.50 1906.72 1994.70L1906.72 1994.70Q1891.43 2003.63 1881.22 2003.63Q1871.03 2003.63 1853.17 1995.97L1853.17 1995.97Q1820.03 1981.95 1814.92 1978.13Q1809.83 1974.30 1809.83 1959L1809.83 1959Q1809.83 1939.88 1817.47 1933.50Q1825.13 1927.13 1825.13 1920.75Q1825.13 1914.38 1891.43 1878.04Q1957.72 1841.70 1978.13 1827.67L1978.13 1827.67L1999.80 1814.92L1981.95 1804.72Q1961.55 1791.97 1936.69 1765.20Q1911.83 1738.42 1911.83 1729.50L1911.83 1729.50Q1911.83 1707.83 1989.60 1706.55L1989.60 1706.55Q2024.03 1706.55 2033.59 1707.83Q2043.15 1709.10 2052.07 1719.30L2052.07 1719.30Q2064.82 1730.78 2064.82 1753.72L2064.82 1753.72Q2064.82 1758.83 2065.46 1763.29Q2066.10 1767.75 2066.74 1770.30Q2067.38 1772.85 2068.65 1773.49Q2069.93 1774.13 2071.20 1774.13L2071.20 1774.13Q2077.57 1772.85 2085.86 1707.83Q2094.15 1642.80 2089.05 1638.97L2089.05 1638.97Q2085.22 1636.42 2058.45 1647.90L2058.45 1647.90Q2002.35 1668.30 1978.13 1649.17L1978.13 1649.17L1966.65 1638.97L1978.13 1621.13Q1990.88 1604.55 1996.61 1600.72Q2002.35 1596.90 2016.38 1596.90L2016.38 1596.90Q2031.68 1596.90 2063.55 1585.42L2063.55 1585.42L2095.43 1573.95L2095.43 1544.63Q2095.43 1522.95 2094.15 1519.13Q2092.88 1515.30 2082.68 1515.30L2082.68 1515.30Q2071.20 1515.30 2042.51 1524.86Q2013.83 1534.42 2002.99 1542.71Q1992.15 1551 1969.20 1550.36Q1946.25 1549.72 1930.95 1542.07L1930.95 1542.07Q1914.38 1534.42 1913.74 1531.88Q1913.10 1529.32 1923.30 1520.40L1923.30 1520.40Q1959 1488.52 2043.15 1465.57L2043.15 1465.57L2095.43 1451.55L2097.97 1428.60Q2103.07 1395.45 2101.80 1390.35Q2100.53 1385.25 2087.78 1385.25L2087.78 1385.25Q2072.47 1386.53 2045.70 1399.28L2045.70 1399.28Q2020.20 1412.03 1997.25 1413.30Q1974.30 1414.57 1967.93 1404.38L1967.93 1404.38Q1960.28 1386.53 1983.86 1369.31Q2007.45 1352.10 2069.93 1331.70L2069.93 1331.70L2103.07 1321.50L2104.35 1289.63Q2104.35 1257.75 2112 1233.53Q2119.65 1209.30 2114.55 1209.30Q2109.45 1209.30 2049.53 1216.95L2049.53 1216.95Q1962.83 1227.15 1916.93 1253.92L1916.93 1253.92Q1899.08 1262.85 1890.15 1260.94Q1881.22 1259.03 1860.83 1237.35L1860.83 1237.35Q1848.08 1224.60 1846.80 1219.50Q1845.53 1214.40 1851.90 1205.47L1851.90 1205.47Q1869.75 1176.15 1956.45 1163.40L1956.45 1163.40L2041.88 1150.65Q2094.15 1143 2198.70 1142.36Q2303.25 1141.72 2309.63 1136.63ZM2236.95 1382.70L2236.95 1382.70Q2224.20 1382.70 2217.82 1380.15L2217.82 1380.15Q2206.35 1376.32 2196.79 1396.72Q2187.22 1417.13 2192.32 1432.42L2192.32 1432.42Q2197.43 1443.90 2214 1443.90L2214 1443.90Q2233.13 1443.90 2238.22 1437.53Q2243.32 1431.15 2247.15 1409.47L2247.15 1409.47Q2249.70 1390.35 2248.43 1386.53Q2247.15 1382.70 2236.95 1382.70ZM2233.13 1539.53L2233.13 1539.53Q2233.13 1524.22 2228.03 1514.03Q2222.93 1503.82 2207.63 1503.82L2207.63 1503.82Q2197.43 1503.82 2192.32 1512.11Q2187.22 1520.40 2187.22 1540.80L2187.22 1540.80Q2187.22 1551 2190.41 1553.55Q2193.60 1556.10 2210.18 1556.10L2210.18 1556.10Q2226.75 1556.10 2229.94 1554.19Q2233.13 1552.28 2233.13 1539.53ZM2076.30 1897.80L2076.30 1897.80Q2076.30 1891.42 2077.57 1881.22L2077.57 1881.22Q2081.40 1816.20 2076.30 1811.74Q2071.20 1807.28 2035.50 1841.70L2035.50 1841.70Q2029.13 1846.80 2026.58 1850.63L2026.58 1850.63Q1975.58 1900.35 1962.19 1920.75Q1948.80 1941.15 1941.15 1947.53L1941.15 1947.53Q1930.95 1955.17 1932.86 1962.19Q1934.78 1969.20 1947.53 1969.20L1947.53 1969.20Q1962.83 1969.20 1971.75 1973.66Q1980.68 1978.13 2016.38 1980.67L2016.38 1980.67Q2055.90 1983.22 2063.55 1973.03Q2071.20 1962.83 2076.30 1897.80ZM2010 954.30L2010 954.30Q2016.38 947.92 2022.75 947.92Q2029.13 947.92 2054.63 955.57L2054.63 955.57Q2089.05 965.77 2118.38 991.27L2118.38 991.27Q2166.82 1035.90 2166.82 1063.95L2166.82 1063.95Q2166.82 1071.60 2154.07 1098.38L2154.07 1098.38Q2134.95 1135.35 2101.80 1135.99Q2068.65 1136.63 2041.24 1103.47Q2013.83 1070.32 2011.28 1020.60L2011.28 1020.60Q2008.73 993.82 2003.63 983.62L2003.63 983.62Q1994.70 968.32 2010 954.30Z"/>
  </svg>