<svg xmlns="http://www.w3.org/2000/svg" viewBox="0 0 3000 3000" width="3000" height="3000">
    <path fill="#000000" d="M537.37 997.65L537.37 997.65L574.35 1006.58Q543.75 1109.85 503.59 1208.66Q463.42 1307.47 415.61 1394.18Q367.80 1480.88 312.97 1549.72L312.97 1549.72Q310.42 1545.90 305.32 1540.16Q300.22 1534.43 295.12 1528.69Q290.02 1522.95 284.92 1519.13L284.92 1519.13Q366.52 1423.50 431.55 1285.80Q496.57 1148.10 537.37 997.65ZM443.02 2141.33L443.02 1283.25L480.00 1246.28L480.00 1247.55L480.00 2141.33L443.02 2141.33ZM1079.25 2041.88L1079.25 996.38L1116.22 996.38L1116.22 2041.88L1079.25 2041.88ZM831.90 1325.33L831.90 1287.08L1440.07 1287.08L1440.07 1325.33L831.90 1325.33ZM822.97 1850.63L822.97 1813.65L1419.67 1813.65L1419.67 1850.63L822.97 1850.63ZM862.50 1674.68L862.50 1637.70L1369.95 1637.70L1369.95 1674.68L862.50 1674.68ZM588.37 1139.17L588.37 1100.92L815.32 1100.92L815.32 1139.17L588.37 1139.17ZM566.70 1667.03L598.57 1649.18Q640.65 1795.80 710.77 1885.05Q780.90 1974.30 869.51 2020.20Q958.12 2066.10 1059.49 2081.40Q1160.85 2096.70 1266.67 2096.70L1266.67 2096.70Q1276.87 2096.70 1299.19 2096.70Q1321.50 2096.70 1349.55 2096.70Q1377.60 2096.70 1402.46 2096.70Q1427.32 2096.70 1441.35 2096.70L1441.35 2096.70Q1436.25 2104.35 1430.51 2115.83Q1424.77 2127.30 1423.50 2134.95L1423.50 2134.95L1386.52 2134.95L1265.40 2134.95Q1153.20 2134.95 1048.01 2118.38Q942.82 2101.80 851.02 2053.99Q759.22 2006.18 686.55 1913.10Q613.87 1820.03 566.70 1667.03L566.70 1667.03ZM894.37 1150.65L894.37 1113.67L1332.97 1113.67L1332.97 1503.83L894.37 1503.83L894.37 1465.58L1296.00 1465.58L1296.00 1150.65L894.37 1150.65ZM604.95 1514.03L621.52 1475.78L802.57 1475.78L802.57 1514.03L604.95 1514.03ZM787.27 1485.97L787.27 1475.78L796.20 1475.78L803.85 1474.50L828.07 1482.15Q801.30 1743.53 728.62 1903.54Q655.95 2063.55 545.02 2145.15L545.02 2145.15Q542.47 2140.05 536.74 2134.95Q531.00 2129.85 525.90 2124.11Q520.80 2118.38 516.97 2115.83L516.97 2115.83Q625.35 2039.33 694.84 1885.69Q764.32 1732.05 787.27 1485.97L787.27 1485.97ZM587.10 1535.70L587.10 1535.70Q585.82 1530.60 582.64 1523.59Q579.45 1516.58 576.26 1510.20Q573.07 1503.83 569.25 1498.72L569.25 1498.72Q583.27 1496.18 601.12 1475.78Q618.97 1455.38 636.82 1427.33L636.82 1427.33Q649.57 1408.20 679.54 1357.84Q709.50 1307.47 743.29 1240.54Q777.07 1173.60 801.30 1106.03L801.30 1106.03L801.30 1100.92L817.87 1090.72L847.20 1108.58Q793.65 1223.33 736.91 1328.51Q680.17 1433.70 622.80 1510.20L622.80 1510.20L622.80 1511.47Q622.80 1511.47 617.70 1513.39Q612.60 1515.30 604.95 1518.49Q597.30 1521.68 592.20 1526.14Q587.10 1530.60 587.10 1535.70ZM1739.70 1505.10L1739.70 1466.85L2562.07 1466.85L2562.07 1505.10L1739.70 1505.10ZM1808.55 1335.53L1808.55 1298.55L2574.82 1298.55L2574.82 1681.05L1800.90 1681.05L1800.90 1642.80L2537.85 1642.80L2537.85 1335.53L1808.55 1335.53ZM2174.47 2075.03L2174.47 1143L2212.72 1143L2212.72 2073.75Q2212.72 2104.35 2201.89 2117.74Q2191.05 2131.13 2169.38 2137.50L2169.38 2137.50Q2145.15 2142.60 2096.70 2143.24Q2048.25 2143.88 1969.20 2143.88L1969.20 2143.88Q1966.65 2136.22 1962.19 2124.75Q1957.72 2113.28 1951.35 2104.35L1951.35 2104.35Q1998.53 2105.63 2038.05 2105.63Q2077.57 2105.63 2105.63 2104.99Q2133.68 2104.35 2145.15 2104.35L2145.15 2104.35Q2163 2103.08 2168.74 2097.34Q2174.47 2091.60 2174.47 2075.03L2174.47 2075.03ZM1803.45 1739.70L1803.45 1739.70L1830.22 1718.03Q1864.65 1739.70 1901.63 1766.48Q1938.60 1793.25 1971.11 1819.39Q2003.63 1845.53 2025.30 1865.93L2025.30 1865.93L1997.25 1891.43Q1976.85 1869.75 1944.34 1842.98Q1911.83 1816.20 1874.85 1788.79Q1837.88 1761.38 1803.45 1739.70ZM2565.90 1721.85L2565.90 1721.85L2596.50 1743.53Q2545.50 1790.70 2479.20 1839.15Q2412.90 1887.60 2356.80 1920.75L2356.80 1920.75L2330.03 1899.08Q2368.28 1876.13 2411.63 1845.53Q2454.98 1814.93 2495.78 1781.78Q2536.57 1748.63 2565.90 1721.85ZM1742.25 2067.38L1721.85 2034.23Q1780.50 2012.55 1856.36 1981.95Q1932.22 1951.35 2017.65 1916.29Q2103.07 1881.23 2187.22 1845.53L2187.22 1845.53L2194.88 1877.40Q2076.30 1928.40 1955.81 1978.76Q1835.33 2029.13 1742.25 2067.38L1742.25 2067.38ZM1681.05 1159.58L1681.05 1122.60L2699.78 1122.60L2699.78 1159.58L1681.05 1159.58ZM1661.92 1506.38L1661.92 1122.60L1698.90 1122.60L1698.90 1506.38Q1698.90 1577.78 1695.08 1660.01Q1691.25 1742.25 1679.78 1828.31Q1668.30 1914.38 1645.35 1996.61Q1622.40 2078.85 1585.42 2150.25L1585.42 2150.25Q1581.60 2146.43 1575.86 2142.60Q1570.13 2138.78 1564.39 2134.95Q1558.65 2131.13 1553.55 2129.85L1553.55 2129.85Q1590.53 2061 1612.20 1981.31Q1633.88 1901.63 1644.71 1818.11Q1655.55 1734.60 1658.74 1654.91Q1661.92 1575.22 1661.92 1506.38L1661.92 1506.38ZM2109.45 1001.47L2109.45 1001.47L2142.60 986.17Q2168.10 1018.05 2194.88 1056.94Q2221.65 1095.83 2234.40 1123.88L2234.40 1123.88L2199.97 1141.72Q2185.95 1113.67 2160.45 1073.51Q2134.95 1033.35 2109.45 1001.47ZM2559.53 1505.10L2559.53 1466.85L2712.53 1466.85L2712.53 1505.10L2559.53 1505.10ZM2184.68 1873.58L2184.68 1873.58L2202.53 1845.53Q2262.45 1867.20 2328.11 1893.34Q2393.78 1919.48 2457.53 1947.53Q2521.28 1975.58 2576.74 2001.71Q2632.20 2027.85 2671.73 2050.80L2671.73 2050.80L2656.43 2083.95Q2616.90 2061 2561.44 2033.59Q2505.98 2006.18 2441.59 1977.49Q2377.20 1948.80 2311.54 1922.03Q2245.88 1895.25 2184.68 1873.58Z"/>
  </svg>