<svg xmlns="http://www.w3.org/2000/svg" viewBox="0 0 3000 3000" width="3000" height="3000">
    <path fill="#000000" d="M1430 1038L1430 1038Q1470 1046 1498 1046L1498 1046L1804 1028L1804 910L1682 920L1656 920Q1618 920 1583 906Q1548 892 1526 828L1526 828Q1526 822 1536 822L1536 822L1546 822Q1594 828 1616 828L1616 828L1626 828L1806 814L1806 704Q1806 636 1780 604L1780 604Q1774 594 1774 588L1774 588Q1774 574 1799 574Q1824 574 1862 588Q1900 602 1908 613Q1916 624 1916 644L1916 644L1916 808L2110 794L2128 792Q2156 792 2182 813Q2208 834 2208 855Q2208 876 2202 887Q2196 898 2194 912L2194 912L2186 1006Q2228 1002 2250 993Q2272 984 2289 984Q2306 984 2340 1012Q2374 1040 2374 1064Q2374 1088 2332 1092L2332 1092L2176 1102L2164 1236Q2206 1290 2206 1307Q2206 1324 2192 1328Q2178 1332 2156 1334L2156 1334L1914 1350L1914 1474L2034 1468Q2066 1466 2095 1455Q2124 1444 2134 1444Q2144 1444 2169 1458Q2194 1472 2214 1492Q2234 1512 2234 1528L2234 1528Q2234 1554 2192 1558L2192 1558L1914 1574L1914 1702L2152 1690Q2178 1688 2199 1680Q2220 1672 2238 1666Q2256 1660 2272 1660Q2288 1660 2313 1679Q2338 1698 2355 1720Q2372 1742 2372 1754L2372 1754Q2372 1778 2330 1784L2330 1784L1914 1806L1914 2022Q1914 2066 1890 2066L1890 2066L1864 2060Q1788 2036 1788 1984L1788 1984L1788 1974Q1788 1968 1794 1942Q1800 1916 1800 1834L1800 1834L1800 1810L1578 1822L1552 1822Q1496 1822 1480 1812L1480 1812Q1414 1774 1414 1726L1414 1726Q1414 1714 1424 1714Q1434 1714 1449 1718Q1464 1722 1506 1722L1506 1722L1800 1708L1802 1580L1678 1588L1628 1590Q1584 1590 1566 1576L1566 1576Q1518 1534 1518 1496L1518 1496Q1518 1482 1526 1482Q1534 1482 1549 1487Q1564 1492 1600 1492L1600 1492L1650 1490L1802 1480L1802 1356L1694 1364L1638 1366Q1616 1366 1600 1360L1600 1360Q1572 1342 1552 1312L1552 1312L1540 1288Q1538 1284 1538 1278L1538 1278Q1538 1266 1550 1266L1550 1266Q1574 1272 1610 1272L1610 1272L1656 1270L1804 1260L1804 1124L1562 1138L1516 1140Q1486 1140 1476 1131Q1466 1122 1443 1092Q1420 1062 1420 1050Q1420 1038 1430 1038ZM802 2138L814 1298Q688 1508 602 1592L602 1592Q572 1620 559 1620Q546 1620 546 1600Q546 1580 570 1546L570 1546Q752 1254 870 984Q988 714 988 640L988 640L988 632Q988 604 1008 604L1008 604Q1032 604 1074 634L1074 634Q1122 664 1122 690Q1122 716 1043 879Q964 1042 928 1108L928 1108L924 2308Q924 2348 890 2348L890 2348Q882 2348 858 2340L858 2340Q790 2314 790 2262L790 2262Q790 2252 796 2226Q802 2200 802 2138L802 2138ZM2078 1012L2088 890L1916 902L1916 1022L2078 1012ZM984 1872L984 1862Q984 1812 1108 1812L1108 1812Q1178 1812 1218 1822L1218 1822Q1288 1642 1314 1486L1314 1486L1218 1500Q1194 1502 1177 1507Q1160 1512 1136 1512Q1112 1512 1092 1489Q1072 1466 1072 1444Q1072 1422 1082 1402L1082 1402Q1200 1210 1280 1008L1280 1008L1202 1024Q1166 1030 1141 1030Q1116 1030 1083 1010Q1050 990 1034 942L1034 942Q1032 938 1032 930Q1032 922 1050 922L1050 922L1058 922Q1094 928 1128 928Q1162 928 1194 922L1194 922L1326 904Q1342 900 1365 900Q1388 900 1410 927Q1432 954 1432 968Q1432 982 1420 995Q1408 1008 1359 1119Q1310 1230 1214 1392L1214 1392L1346 1376L1366 1374Q1400 1374 1432 1397Q1464 1420 1464 1441Q1464 1462 1455 1474Q1446 1486 1442 1498L1442 1498Q1392 1694 1322 1860L1322 1860L1386 1894Q1686 2056 2004 2124L2004 2124Q2180 2160 2404 2176L2404 2176Q2438 2180 2438 2194L2438 2194Q2438 2200 2420 2226L2420 2226Q2372 2302 2328 2302L2328 2302Q2314 2302 2212 2286L2212 2286Q1752 2214 1376 2006L1376 2006Q1350 1992 1327 1977Q1304 1962 1280 1950L1280 1950Q1214 2080 1115 2198Q1016 2316 984 2316L984 2316Q972 2316 972 2297Q972 2278 1040 2179Q1108 2080 1180 1916L1180 1916Q1168 1912 1156 1912L1156 1912L1118 1912Q1092 1912 1062 1919Q1032 1926 1022 1926L1022 1926Q990 1926 984 1872L984 1872ZM2058 1244L2070 1108L1916 1116L1916 1254L2058 1244Z"/>
  </svg>