<svg xmlns="http://www.w3.org/2000/svg" viewBox="0 0 3000 3000" width="3000" height="3000">
    <path fill="#000000" d="M1014 812L1014 812Q1024 806 1059 815Q1094 824 1116 842L1116 842Q1146 864 1156 864L1156 864Q1164 864 1165 882Q1166 900 1162 919Q1158 938 1152 942L1152 942Q1138 946 1138 970Q1138 994 1112 1003Q1086 1012 1071 1049Q1056 1086 1044 1086Q1032 1086 967 1175Q902 1264 752 1418Q602 1572 588 1562L588 1562Q580 1552 590 1533Q600 1514 648 1454L648 1454Q686 1402 686 1394Q686 1386 708 1362Q730 1338 761 1284Q792 1230 804 1214Q816 1198 816 1190Q816 1182 843 1150Q870 1118 870 1112Q870 1106 896 1066L896 1066Q926 1016 968 934Q1010 852 1010 840L1010 840Q1010 822 1014 812ZM1628 706L1628 706Q1634 684 1675 694Q1716 704 1768 742L1768 742Q1786 754 1789 765Q1792 776 1792 818L1792 818L1792 874L1882 870Q1942 864 1964 867Q1986 870 2018 880L2018 880Q2066 902 2086 924L2086 924Q2102 938 2102 945Q2102 952 2090 972L2090 972Q2078 1000 2030 1047Q1982 1094 1985 1098Q1988 1102 2086 1092L2086 1092Q2176 1084 2231 1084Q2286 1084 2321 1092Q2356 1100 2364 1120Q2372 1140 2360 1172L2360 1172Q2350 1210 2325 1215Q2300 1220 2238 1204L2238 1204Q2176 1184 2073 1190Q1970 1196 1889 1200Q1808 1204 1802 1209Q1796 1214 1792 1270L1792 1270L1788 1326L1824 1320Q1930 1302 1975 1313Q2020 1324 2020 1366L2020 1366Q2020 1396 1994 1422L1994 1422Q1978 1438 1967 1440Q1956 1442 1932 1436L1932 1436Q1896 1428 1854 1428L1854 1428Q1824 1428 1815 1432Q1806 1436 1800 1450L1800 1450Q1790 1478 1796 1482Q1802 1486 1846 1494L1846 1494Q1906 1496 1918 1518L1918 1518Q1938 1544 1936 1563Q1934 1582 1906 1606L1906 1606Q1884 1628 1873 1633Q1862 1638 1842 1634L1842 1634Q1812 1628 1802 1642L1802 1642Q1794 1650 1791 1672Q1788 1694 1789 1713Q1790 1732 1794 1732L1794 1732Q1806 1732 1938 1726L1938 1726Q2052 1722 2100 1727Q2148 1732 2174 1760L2174 1760Q2196 1778 2196 1789Q2196 1800 2178 1836L2178 1836Q2154 1878 2130 1884Q2106 1890 2040 1868L2040 1868Q1986 1850 1892 1856L1892 1856L1794 1864L1790 1938Q1786 2010 1776 2054L1776 2054Q1772 2086 1774 2093Q1776 2100 1796 2104L1796 2104Q1822 2110 1838 2114L1838 2114Q1874 2124 2196 2162L2196 2162Q2286 2174 2351 2190Q2416 2206 2416 2216L2416 2216Q2416 2236 2396 2259Q2376 2282 2352 2296L2352 2296Q2238 2342 2164 2386L2164 2386Q2118 2416 2068 2414L2068 2414Q1966 2410 1830 2360L1830 2360Q1742 2326 1734 2350L1734 2350Q1718 2390 1676 2330L1676 2330Q1648 2294 1598 2270L1598 2270Q1540 2238 1458 2183Q1376 2128 1346 2094L1346 2094Q1256 2006 1230 2008L1230 2008Q1218 2008 1201 2019Q1184 2030 1184 2040L1184 2040Q1184 2046 1153 2080Q1122 2114 1069 2139Q1016 2164 990 2158L990 2158Q972 2156 967 2159Q962 2162 962 2174L962 2174Q962 2196 974 2208Q986 2220 966 2239Q946 2258 941 2283Q936 2308 914 2319Q892 2330 887 2340Q882 2350 848 2318L848 2318Q784 2258 804 2104L804 2104Q816 2022 824 2006Q832 1990 842 1807Q852 1624 866 1550Q880 1476 880 1440L880 1440Q880 1414 895 1384Q910 1354 922 1354L922 1354Q930 1354 951 1371Q972 1388 972 1395Q972 1402 990 1424Q1008 1446 1005 1522Q1002 1598 991 1621Q980 1644 975 1767Q970 1890 965 1899Q960 1908 961 2009Q962 2110 968 2115Q974 2120 993 2094Q1012 2068 1053 2021Q1094 1974 1102 1956Q1110 1938 1122 1918L1122 1918Q1134 1902 1127 1893Q1120 1884 1080 1846L1080 1846Q1016 1794 1016 1768L1016 1768Q1016 1752 1021 1749Q1026 1746 1048 1750L1048 1750Q1080 1756 1122 1784L1122 1784Q1166 1810 1179 1801Q1192 1792 1226 1722L1226 1722Q1276 1616 1260 1538L1260 1538Q1254 1504 1232 1501Q1210 1498 1162 1522L1162 1522Q1114 1546 1098 1546Q1082 1546 1072 1520L1072 1520Q1060 1490 1078 1441Q1096 1392 1138 1344L1138 1344Q1172 1306 1209 1248Q1246 1190 1246 1174L1246 1174Q1246 1162 1261 1144Q1276 1126 1276 1120L1276 1120Q1274 1114 1259 1116Q1244 1118 1221 1127Q1198 1136 1180 1144L1180 1144Q1144 1164 1116 1162Q1088 1160 1084 1138L1084 1138Q1074 1084 1242 1034L1242 1034Q1290 1018 1307 1004Q1324 990 1380 1000L1380 1000Q1448 1016 1466 1035Q1484 1054 1472 1100L1472 1100Q1468 1120 1440 1130L1440 1130Q1424 1138 1403 1166Q1382 1194 1386 1198L1386 1198Q1394 1204 1499 1173Q1604 1142 1618 1142L1618 1142Q1628 1140 1631 1127Q1634 1114 1634 1070L1634 1070Q1634 1020 1631 1011Q1628 1002 1614 1004L1614 1004Q1594 1006 1582 1028L1582 1028Q1576 1044 1561 1047Q1546 1050 1534 1036L1534 1036Q1522 1020 1510 1020Q1498 1020 1500 995Q1502 970 1534 951Q1566 932 1594 916L1594 916L1622 898L1622 808Q1622 722 1628 706ZM1882 970L1882 970Q1864 954 1822 964L1822 964Q1810 966 1805 977Q1800 988 1796 1030L1796 1030Q1792 1094 1796 1106L1796 1106Q1808 1114 1823 1111Q1838 1108 1851 1088Q1864 1068 1864 1048L1864 1048Q1864 1022 1876 999Q1888 976 1882 970ZM1634 1272L1634 1272Q1634 1232 1629 1226Q1624 1220 1604 1242L1604 1242Q1582 1260 1509 1283Q1436 1306 1422 1320L1422 1320Q1412 1332 1404 1330Q1396 1328 1366 1316L1366 1316Q1330 1296 1318 1300Q1306 1304 1276 1340L1276 1340L1246 1378L1288 1396Q1348 1424 1376 1475Q1404 1526 1396 1586L1396 1586Q1372 1726 1352 1752L1352 1752Q1340 1770 1340 1785Q1340 1800 1331 1805Q1322 1810 1314 1856L1314 1856Q1310 1888 1312 1897Q1314 1906 1328 1906L1328 1906Q1346 1906 1356 1884L1356 1884Q1372 1844 1554 1784L1554 1784L1646 1752L1644 1712L1640 1670L1574 1670Q1506 1670 1500 1660L1500 1660Q1492 1654 1519 1620Q1546 1586 1572 1578L1572 1578Q1612 1556 1623 1541Q1634 1526 1634 1486L1634 1486Q1634 1460 1631 1453Q1628 1446 1618 1446L1618 1446Q1598 1446 1570 1470Q1542 1494 1492 1496L1492 1496Q1458 1498 1449 1496Q1440 1494 1438 1478L1438 1478Q1434 1456 1450 1440L1450 1440Q1472 1424 1518 1400Q1564 1376 1596 1368L1596 1368Q1618 1360 1629 1355Q1640 1350 1640 1340L1640 1340Q1640 1324 1634 1272ZM1528 2014L1528 2014Q1630 2060 1632 2057Q1634 2054 1629 1966Q1624 1878 1618 1878L1618 1878Q1598 1878 1553 1901Q1508 1924 1492 1942L1492 1942Q1464 1970 1446 1970L1446 1970Q1438 1970 1452 1978L1452 1978Q1474 1990 1528 2014Z"/>
  </svg>