<svg xmlns="http://www.w3.org/2000/svg" viewBox="0 0 3000 3000" width="3000" height="3000">
    <path fill="#000000" d="M551.40 2142.60L551.40 2142.60Q550.12 2137.50 546.30 2130.49Q542.47 2123.47 539.29 2115.83Q536.10 2108.18 532.27 2103.08L532.27 2103.08Q543.75 2099.25 559.05 2087.14Q574.35 2075.03 574.35 2041.88L574.35 2041.88L574.35 1006.58L611.32 1006.58L611.32 2100.53Q611.32 2100.53 605.59 2103.71Q599.85 2106.90 590.92 2111.36Q582.00 2115.83 572.44 2121.56Q562.87 2127.30 557.14 2133.04Q551.40 2138.78 551.40 2142.60ZM551.40 2142.60L551.40 2142.60L551.40 2109.45L580.72 2085.22L953.02 1981.95Q953.02 1989.60 954.30 1999.16Q955.57 2008.73 956.85 2013.83L956.85 2013.83Q825.52 2052.08 748.39 2075.66Q671.25 2099.25 631.72 2112Q592.20 2124.75 575.62 2131.13Q559.05 2137.50 551.40 2142.60ZM302.77 1552.28L302.77 1514.03L1422.22 1514.03L1422.22 1552.28L302.77 1552.28ZM847.20 1535.70L882.90 1524.22Q931.35 1658.10 1012.95 1768.39Q1094.55 1878.68 1205.47 1957.73Q1316.40 2036.78 1449 2078.85L1449 2078.85Q1443.90 2082.68 1438.80 2088.41Q1433.70 2094.15 1429.24 2099.89Q1424.77 2105.63 1420.95 2112L1420.95 2112Q1288.35 2066.10 1176.79 1983.86Q1065.22 1901.63 981.71 1788.15Q898.20 1674.68 847.20 1535.70L847.20 1535.70ZM1228.42 1029.53L1228.42 1029.53L1264.12 1043.55Q1200.38 1122.60 1118.14 1194Q1035.90 1265.40 945.37 1325.96Q854.85 1386.53 764.32 1433.70L764.32 1433.70Q761.77 1429.88 755.40 1424.78Q749.02 1419.68 742.65 1413.94Q736.27 1408.20 729.90 1405.65L729.90 1405.65Q824.25 1362.30 916.05 1303.65Q1007.85 1245 1088.17 1174.88Q1168.50 1104.75 1228.42 1029.53ZM1655.55 1162.13L1655.55 1125.15L2634.75 1125.15L2634.75 1162.13L1655.55 1162.13ZM1702.72 1339.35L1702.72 1302.38L2581.20 1302.38L2581.20 1339.35L1702.72 1339.35ZM1575.22 1526.78L1575.22 1489.80L2701.05 1489.80L2701.05 1526.78L1575.22 1526.78ZM1909.28 1728.23L1909.28 1691.25L2669.18 1691.25L2669.18 1728.23L1909.28 1728.23ZM2411.63 2077.58L2411.63 1543.35L2448.60 1543.35L2448.60 2076.30Q2448.60 2104.35 2439.68 2116.46Q2430.75 2128.58 2407.80 2134.95L2407.80 2134.95Q2383.57 2140.05 2333.85 2140.69Q2284.13 2141.33 2201.25 2141.33L2201.25 2141.33Q2198.70 2133.68 2194.24 2122.84Q2189.78 2112 2183.40 2103.08L2183.40 2103.08Q2259.90 2105.63 2312.81 2105.63Q2365.73 2105.63 2383.57 2104.35L2383.57 2104.35Q2401.43 2103.08 2406.53 2097.34Q2411.63 2091.60 2411.63 2077.58L2411.63 2077.58ZM2083.95 996.38L2083.95 996.38L2122.20 1001.47Q2085.22 1241.17 2024.03 1428.60Q1962.83 1616.03 1861.46 1756.91Q1760.10 1897.80 1600.72 1999.80L1600.72 1999.80Q1598.17 1995.98 1593.08 1990.24Q1587.97 1984.50 1582.24 1978.76Q1576.50 1973.03 1571.40 1969.20L1571.40 1969.20Q1729.50 1874.85 1829.59 1736.51Q1929.68 1598.18 1989.60 1413.30Q2049.53 1228.42 2083.95 996.38ZM1927.13 1807.28L1927.13 1807.28L1957.72 1786.88Q1994.70 1817.48 2032.95 1855.09Q2071.20 1892.70 2104.35 1928.40Q2137.50 1964.10 2157.90 1992.15L2157.90 1992.15L2126.03 2015.10Q2105.63 1987.05 2072.47 1950.71Q2039.33 1914.38 2001.71 1876.76Q1964.10 1839.15 1927.13 1807.28Z"/>
  </svg>