<svg xmlns="http://www.w3.org/2000/svg" viewBox="0 0 3000 3000" width="3000" height="3000">
    <path fill="#000000" d="M682 906L682 846L2326 846L2326 906L682 906ZM600 1846L600 1788L2402 1788L2402 1846L600 1846ZM636 1298L636 1238L2322 1238L2322 1298L636 1298ZM800 1112L800 1052L2196 1052L2196 1112L800 1112ZM928 1472L928 1414L2066 1414L2066 1472L928 1472ZM768 1672L768 1614L2236 1614L2236 1672L768 1672ZM1422 2066L1422 2008L2332 2008L2332 2066L1422 2066ZM1468 1090L1468 710L1528 710L1528 1090L1468 1090ZM1468 1646L1468 1434L1528 1434L1528 1646L1468 1646ZM2306 1250L2306 1238L2318 1238L2332 1234L2366 1250Q2340 1318 2312 1389Q2284 1460 2258 1512L2258 1512L2210 1492Q2232 1442 2258 1378Q2284 1314 2306 1250L2306 1250ZM782 2462L782 1976L842 1976L842 2462L782 2462ZM2034 2432L2034 1824L2094 1824L2094 2430Q2094 2462 2085 2479Q2076 2496 2048 2504L2048 2504Q2024 2512 1974 2513Q1924 2514 1844 2514L1844 2514Q1842 2504 1835 2488Q1828 2472 1820 2458L1820 2458Q1890 2460 1939 2460Q1988 2460 2006 2458L2006 2458Q2034 2458 2034 2432L2034 2432ZM1518 2168L1518 2168L1566 2136Q1620 2184 1676 2243Q1732 2302 1760 2344L1760 2344L1712 2384Q1680 2338 1625 2277Q1570 2216 1518 2168ZM832 2034L832 1976L1322 1976L1322 2376L832 2376L832 2316L1262 2316L1262 2034L832 2034Z"/>
  </svg>