<svg xmlns="http://www.w3.org/2000/svg" viewBox="0 0 3000 3000" width="3000" height="3000">
    <path fill="#000000" d="M1332 1918L1332 1918Q1346 1910 1440 1922L1440 1922Q1508 1932 1539 1947Q1570 1962 1586 1988L1586 1988Q1602 2016 1597 2050Q1592 2084 1572 2110L1572 2110Q1560 2122 1550 2125Q1540 2128 1514 2126L1514 2126Q1464 2120 1384 2044L1384 2044Q1366 2028 1360 2028L1360 2028Q1350 2028 1335 2010Q1320 1992 1316 1976L1316 1976Q1304 1936 1332 1918ZM1692 1526L1692 1526Q1714 1494 1776 1536L1776 1536Q1820 1564 1833 1580Q1846 1596 1846 1616L1846 1616L1846 1642L1906 1642Q1966 1640 2010 1652Q2054 1664 2058 1686L2058 1686Q2068 1716 2048 1748Q2028 1780 2000 1780L2000 1780Q1980 1780 1948 1766L1948 1766Q1880 1732 1862 1766L1862 1766Q1850 1784 1852 2012L1852 2012L1854 2236L1834 2302Q1820 2348 1808 2367Q1796 2386 1766 2418L1766 2418Q1720 2466 1702 2471Q1684 2476 1676 2490L1676 2490Q1664 2512 1606 2496L1606 2496Q1574 2488 1564 2466L1564 2466Q1520 2370 1478 2346L1478 2346Q1450 2332 1412 2302L1412 2302Q1376 2276 1384 2272L1384 2272Q1386 2270 1394 2266L1394 2266Q1410 2258 1452 2268L1452 2268Q1548 2290 1610 2260L1610 2260Q1612 2258 1614 2258L1614 2258Q1664 2232 1672 2199Q1680 2166 1678 1990L1678 1990Q1678 1984 1678 1980L1678 1980Q1678 1932 1678 1901Q1678 1870 1677 1844Q1676 1818 1676 1804Q1676 1790 1674 1780Q1672 1770 1671 1767Q1670 1764 1668 1764L1668 1764Q1658 1768 1615 1769Q1572 1770 1556 1778Q1540 1786 1496 1796Q1452 1806 1426 1830L1426 1830Q1382 1874 1342 1846L1342 1846Q1326 1836 1319 1815Q1312 1794 1318 1772L1318 1772Q1324 1752 1389 1728Q1454 1704 1540 1690L1540 1690Q1674 1666 1682 1656L1682 1656Q1686 1650 1685 1596Q1684 1542 1692 1526ZM1444 782L1464 712Q1476 672 1476 647Q1476 622 1490 613Q1504 604 1518 604L1518 604Q1530 604 1565 631Q1600 658 1600 668L1600 668Q1600 676 1622 700L1622 700Q1642 718 1643 737Q1644 756 1628 788L1628 788Q1612 820 1620 825Q1628 830 1739 824Q1850 818 1876 802L1876 802Q1898 786 1928 788Q1958 790 1978 810L1978 810Q1996 826 1996 874L1996 874Q1994 950 1956 964L1956 964Q1936 972 1866 946L1866 946Q1834 934 1726 937Q1618 940 1604 944L1604 944Q1586 948 1574 979Q1562 1010 1562 1038L1562 1038L1562 1066L1636 1062Q1712 1054 1736 1044L1736 1044Q1760 1034 1780 1039Q1800 1044 1846 1074L1846 1074Q1884 1096 1888 1122L1888 1122Q1896 1160 1872 1187Q1848 1214 1810 1206L1810 1206Q1738 1194 1630 1210L1630 1210Q1580 1220 1550 1222L1550 1222Q1522 1226 1512 1236Q1502 1246 1492 1282L1492 1282Q1486 1306 1484 1320Q1482 1334 1482 1342Q1482 1350 1485 1351Q1488 1352 1496 1352L1496 1352Q1718 1332 1928 1336L1928 1336Q2042 1338 2060 1328L2060 1328Q2084 1314 2120 1318Q2156 1322 2186 1338L2186 1338Q2216 1356 2230 1371Q2244 1386 2252 1408L2252 1408Q2262 1442 2249 1475Q2236 1508 2206 1518L2206 1518Q2180 1530 2088 1496L2088 1496Q1980 1458 1816 1458L1816 1458Q1730 1458 1616 1465Q1502 1472 1466 1482L1466 1482Q1438 1488 1419 1513Q1400 1538 1364 1612L1364 1612Q1350 1646 1312 1698L1312 1698Q1292 1728 1292 1737Q1292 1746 1257 1788Q1222 1830 1204 1857Q1186 1884 1167 1897Q1148 1910 1128 1926L1128 1926L1062 1986Q1014 2028 974 2060Q934 2092 924 2104L924 2104Q902 2122 835 2164Q768 2206 756 2206L756 2206L742 2206L758 2186Q774 2170 782 2154L782 2154Q802 2114 914 1992L914 1992Q1054 1842 1118 1730L1118 1730Q1162 1656 1190 1596Q1218 1536 1212 1530L1212 1530Q1204 1522 1148 1546Q1092 1570 1074 1590L1074 1590Q1054 1612 1018 1612Q982 1612 962 1597Q942 1582 933 1582Q924 1582 912 1538L912 1538L900 1496L946 1472Q1016 1438 1200 1404L1200 1404L1272 1392L1290 1344L1304 1296L1274 1292Q1246 1286 1242 1273Q1238 1260 1214 1246L1214 1246Q1200 1238 1196 1231Q1192 1224 1192 1204L1192 1204Q1192 1162 1220 1142Q1248 1122 1318 1114L1318 1114L1364 1106L1380 1044Q1398 980 1394 976L1394 976Q1384 968 1331 981Q1278 994 1272 1006L1272 1006Q1268 1020 1243 1022Q1218 1024 1202 1014L1202 1014Q1166 992 1156 977Q1146 962 1146 936L1146 936Q1146 914 1149 907Q1152 900 1166 894L1166 894Q1228 870 1348 860L1348 860Q1404 856 1416 845Q1428 834 1444 782L1444 782Z"/>
  </svg>