<svg xmlns="http://www.w3.org/2000/svg" viewBox="0 0 3000 3000" width="3000" height="3000">
    <path fill="#000000" d="M1308.25 2065.28Q1288.33 2065.28 1226.07 2029.17L1226.07 2029.17Q1136.43 1976.88 965.84 1898.44L965.84 1898.44Q760.40 2055.32 417.99 2055.32L417.99 2055.32Q380.64 2055.32 362.59 2041.63Q344.53 2027.93 344.53 1999.29L344.53 1999.29Q344.53 1970.65 365.70 1959.45L365.70 1959.45Q381.88 1951.98 476.51 1949.49L476.51 1949.49Q596.04 1947.00 692.54 1921.47Q789.04 1895.95 857.52 1853.61L857.52 1853.61Q764.14 1813.77 586.08 1761.47L586.08 1761.47Q551.22 1751.51 533.79 1735.33Q516.36 1719.14 516.36 1694.24L516.36 1694.24Q516.36 1671.83 531.30 1640.70L531.30 1640.70L602.27 1500L373.17 1500Q314.65 1500 314.65 1453.93L314.65 1453.93Q314.65 1406.62 373.17 1406.62L373.17 1406.62L648.34 1406.62L723.05 1229.81Q739.23 1189.97 771.61 1189.97L771.61 1189.97Q799.00 1189.97 813.94 1203.04Q828.88 1216.11 828.88 1241.02L828.88 1241.02Q828.88 1258.45 762.89 1406.62L762.89 1406.62L1355.57 1406.62Q1414.09 1406.62 1414.09 1453.93L1414.09 1453.93Q1414.09 1500 1355.57 1500L1355.57 1500L1194.95 1500Q1153.86 1694.24 1048.02 1818.75L1048.02 1818.75Q1158.84 1861.08 1326.93 1948.24L1326.93 1948.24Q1369.26 1970.65 1369.26 2005.52L1369.26 2005.52Q1369.26 2031.67 1353.08 2048.47Q1336.89 2065.28 1308.25 2065.28L1308.25 2065.28ZM949.66 1780.15Q1051.76 1681.79 1089.11 1500L1089.11 1500L718.07 1500L645.85 1640.70Q640.87 1650.66 640.87 1660.62L640.87 1660.62Q640.87 1681.79 667.02 1689.26L667.02 1689.26Q750.44 1711.67 918.53 1770.19L918.53 1770.19Q932.23 1773.93 949.66 1780.15L949.66 1780.15ZM373.17 1353.08Q322.12 1353.08 322.12 1295.80L322.12 1295.80L322.12 1186.23Q317.14 1118.99 347.02 1089.11Q376.90 1059.23 444.14 1064.21L444.14 1064.21L801.49 1064.21L801.49 987.01Q801.49 933.47 856.27 933.47L856.27 933.47Q909.81 933.47 909.81 987.01L909.81 987.01L909.81 1064.21L1283.35 1064.21Q1350.59 1059.23 1380.47 1089.11Q1410.35 1118.99 1405.37 1186.23L1405.37 1186.23L1405.37 1295.80Q1405.37 1325.68 1392.92 1339.38Q1380.47 1353.08 1355.57 1353.08L1355.57 1353.08Q1330.66 1353.08 1318.21 1339.38Q1305.76 1325.68 1305.76 1295.80L1305.76 1295.80L1305.76 1207.40Q1305.76 1181.25 1292.07 1167.55Q1278.37 1153.86 1253.47 1155.10L1253.47 1155.10L474.02 1155.10Q420.48 1155.10 422.97 1207.40L422.97 1207.40L422.97 1295.80Q422.97 1353.08 373.17 1353.08L373.17 1353.08ZM1608.33 2050.34Q1574.71 2037.89 1574.71 2008.01L1574.71 2008.01Q1574.71 1991.82 1583.42 1973.14L1583.42 1973.14Q1633.23 1863.57 1652.53 1732.21Q1671.83 1600.85 1671.83 1399.15L1671.83 1399.15L1671.83 1150.12Q1671.83 1033.08 1782.64 1033.08L1782.64 1033.08L2636.79 1033.08Q2684.11 1033.08 2684.11 1076.66L2684.11 1076.66Q2684.11 1120.24 2636.79 1120.24L2636.79 1120.24L1802.56 1120.24Q1771.44 1120.24 1771.44 1151.37L1771.44 1151.37L1771.44 1401.64Q1771.44 1600.85 1748.40 1757.12Q1725.37 1913.38 1680.54 2011.74L1680.54 2011.74Q1661.87 2054.08 1629.49 2054.08L1629.49 2054.08Q1619.53 2054.08 1608.33 2050.34L1608.33 2050.34ZM1782.64 2012.99Q1762.72 2012.99 1751.51 1999.91Q1740.31 1986.84 1740.31 1964.43L1740.31 1964.43Q1740.31 1947.00 1752.14 1934.55Q1763.96 1922.09 1796.34 1910.89L1796.34 1910.89L1822.49 1902.17Q1949.49 1856.10 1988.09 1838.67L1988.09 1838.67Q2029.17 1821.24 2049.10 1814.39Q2069.02 1807.54 2083.96 1807.54L2083.96 1807.54Q2100.15 1807.54 2111.35 1818.75Q2122.56 1829.96 2122.56 1846.14L2122.56 1846.14Q2122.56 1866.06 2102.64 1879.76L2102.64 1879.76Q2081.47 1894.70 2009.25 1929.57L2009.25 1929.57Q1935.79 1965.67 1869.80 1989.33L1869.80 1989.33Q1806.30 2012.99 1782.64 2012.99L1782.64 2012.99ZM2008.01 1801.32Q1996.80 1801.32 1980.62 1793.23Q1964.43 1785.13 1945.75 1773.93L1945.75 1773.93L1859.84 1724.12Q1834.94 1709.18 1834.94 1684.28L1834.94 1684.28Q1834.94 1666.85 1846.77 1656.88Q1858.59 1646.92 1877.27 1646.92L1877.27 1646.92Q1892.21 1646.92 1928.94 1662.49Q1965.67 1678.05 2001.78 1699.22L2001.78 1699.22Q2029.17 1715.41 2040.38 1729.10Q2051.59 1742.80 2051.59 1758.98L2051.59 1758.98Q2051.59 1777.66 2039.14 1789.49Q2026.68 1801.32 2008.01 1801.32L2008.01 1801.32ZM2054.08 2064.04Q2000.54 2064.04 2000.54 2016.72L2000.54 2016.72Q2000.54 1991.82 2013.61 1980.62Q2026.68 1969.41 2054.08 1969.41L2054.08 1969.41L2128.78 1969.41Q2159.91 1969.41 2159.91 1938.28L2159.91 1938.28L2159.91 1625.76L1887.23 1625.76Q1863.57 1625.76 1852.37 1615.80Q1841.16 1605.83 1841.16 1583.42L1841.16 1583.42Q1841.16 1543.58 1887.23 1543.58L1887.23 1543.58L2159.91 1543.58L2159.91 1305.76L1903.42 1305.76Q1881.01 1305.76 1868.55 1294.56Q1856.10 1283.35 1856.10 1263.43L1856.10 1263.43Q1856.10 1223.58 1903.42 1223.58L1903.42 1223.58L2159.91 1223.58L2159.91 1177.51Q2159.91 1157.59 2172.99 1144.52Q2186.06 1131.45 2208.47 1131.45L2208.47 1131.45Q2230.88 1131.45 2243.96 1144.52Q2257.03 1157.59 2257.03 1177.51L2257.03 1177.51L2257.03 1223.58L2491.11 1223.58Q2535.94 1223.58 2560.22 1247.86Q2584.50 1272.14 2584.50 1316.97L2584.50 1316.97L2584.50 1532.37Q2584.50 1577.20 2560.22 1601.48Q2535.94 1625.76 2491.11 1625.76L2491.11 1625.76L2257.03 1625.76Q2306.84 1709.18 2384.03 1782.64L2384.03 1782.64L2422.63 1813.77Q2452.51 1837.43 2516.64 1869.18Q2580.76 1900.93 2657.96 1925.83L2657.96 1925.83Q2679.13 1932.06 2690.33 1944.51Q2701.54 1956.96 2701.54 1973.14L2701.54 1973.14Q2701.54 1979.37 2699.05 1989.33L2699.05 1989.33Q2694.07 2008.01 2681.62 2017.97Q2669.17 2027.93 2651.73 2027.93L2651.73 2027.93Q2641.77 2027.93 2630.57 2024.19L2630.57 2024.19Q2509.79 1989.33 2403.96 1907.78Q2298.12 1826.22 2257.03 1737.82L2257.03 1737.82L2257.03 1947.00Q2257.03 2009.25 2229.64 2036.65Q2202.25 2064.04 2139.99 2064.04L2139.99 2064.04L2054.08 2064.04ZM2352.91 1780.15Q2453.76 1719.14 2543.41 1649.41L2543.41 1649.41Q2555.86 1640.70 2565.20 1636.34Q2574.54 1631.98 2588.23 1631.98L2588.23 1631.98Q2608.15 1631.98 2620.61 1643.81Q2633.06 1655.64 2633.06 1675.56L2633.06 1675.56Q2633.06 1700.46 2609.40 1716.65L2609.40 1716.65Q2524.73 1781.40 2396.48 1834.94L2396.48 1834.94L2352.91 1780.15ZM1843.65 1463.89Q1820.00 1463.89 1807.54 1452.69Q1795.09 1441.48 1795.09 1421.56L1795.09 1421.56Q1795.09 1401.64 1807.54 1390.43Q1820.00 1379.22 1843.65 1379.22L1843.65 1379.22L2655.47 1379.22Q2701.54 1379.22 2701.54 1421.56L2701.54 1421.56Q2701.54 1441.48 2689.09 1452.69Q2676.64 1463.89 2655.47 1463.89L2655.47 1463.89L1843.65 1463.89ZM2458.74 1543.58Q2489.87 1543.58 2489.87 1512.45L2489.87 1512.45L2489.87 1336.89Q2489.87 1305.76 2458.74 1305.76L2458.74 1305.76L2257.03 1305.76L2257.03 1543.58L2458.74 1543.58ZM2143.73 983.28Q2143.73 934.72 2199.76 934.72L2199.76 934.72Q2255.79 934.72 2255.79 983.28L2255.79 983.28L2255.79 1076.66L2143.73 1076.66L2143.73 983.28Z"/>
  </svg>