<svg xmlns="http://www.w3.org/2000/svg" viewBox="0 0 3000 3000" width="3000" height="3000">
    <path fill="#000000" d="M362.70 1385.25L362.70 1153.20L1359.75 1153.20L1359.75 1385.25L1322.77 1385.25L1322.77 1191.45L399.67 1191.45L399.67 1385.25L362.70 1385.25ZM1107.30 1507.65L1107.30 1507.65L1144.27 1516.58Q1089.45 1696.35 985.54 1817.48Q881.62 1938.60 731.17 2014.46Q580.72 2090.33 386.92 2138.78L386.92 2138.78Q384.37 2133.68 379.27 2127.94Q374.17 2122.20 367.80 2115.83Q361.42 2109.45 356.32 2105.63L356.32 2105.63Q553.95 2062.28 703.76 1988.33Q853.57 1914.38 954.30 1797.08Q1055.02 1679.78 1107.30 1507.65ZM325.72 1535.70L325.72 1498.72L1405.65 1498.72L1405.65 1535.70L325.72 1535.70ZM783.45 1006.58L783.45 1006.58L820.42 997.65Q843.37 1038.45 867.60 1087.54Q891.82 1136.63 904.57 1168.50L904.57 1168.50L868.87 1182.53Q856.12 1149.38 831.90 1099.01Q807.67 1048.65 783.45 1006.58ZM495.30 1757.55L495.30 1757.55L524.62 1726.95Q635.55 1761.38 753.49 1804.73Q871.42 1848.08 983.62 1896.53Q1095.82 1944.98 1192.09 1994.06Q1288.35 2043.15 1357.20 2089.05L1357.20 2089.05L1324.05 2124.75Q1257.75 2080.13 1162.13 2029.76Q1066.50 1979.40 954.30 1929.68Q842.10 1879.95 724.16 1835.96Q606.22 1791.98 495.30 1757.55ZM536.10 1757.55L495.30 1757.55Q532.27 1711.65 573.07 1652.36Q613.87 1593.08 654.67 1526.78Q695.47 1460.47 730.54 1394.81Q765.60 1329.15 791.10 1270.50L791.10 1270.50L825.52 1278.15Q798.75 1338.08 763.05 1403.74Q727.35 1469.40 687.82 1534.43Q648.30 1599.45 608.77 1656.83Q569.25 1714.20 536.10 1757.55L536.10 1757.55ZM1739.70 1505.10L1739.70 1466.85L2562.07 1466.85L2562.07 1505.10L1739.70 1505.10ZM1808.55 1335.53L1808.55 1298.55L2574.82 1298.55L2574.82 1681.05L1800.90 1681.05L1800.90 1642.80L2537.85 1642.80L2537.85 1335.53L1808.55 1335.53ZM2174.47 2075.03L2174.47 1143L2212.72 1143L2212.72 2073.75Q2212.72 2104.35 2201.89 2117.74Q2191.05 2131.13 2169.38 2137.50L2169.38 2137.50Q2145.15 2142.60 2096.70 2143.24Q2048.25 2143.88 1969.20 2143.88L1969.20 2143.88Q1966.65 2136.22 1962.19 2124.75Q1957.72 2113.28 1951.35 2104.35L1951.35 2104.35Q1998.53 2105.63 2038.05 2105.63Q2077.57 2105.63 2105.63 2104.99Q2133.68 2104.35 2145.15 2104.35L2145.15 2104.35Q2163 2103.08 2168.74 2097.34Q2174.47 2091.60 2174.47 2075.03L2174.47 2075.03ZM1803.45 1739.70L1803.45 1739.70L1830.22 1718.03Q1864.65 1739.70 1901.63 1766.48Q1938.60 1793.25 1971.11 1819.39Q2003.63 1845.53 2025.30 1865.93L2025.30 1865.93L1997.25 1891.43Q1976.85 1869.75 1944.34 1842.98Q1911.83 1816.20 1874.85 1788.79Q1837.88 1761.38 1803.45 1739.70ZM2593.95 1720.58L2593.95 1720.58L2623.28 1743.53Q2569.73 1786.88 2500.88 1830.23Q2432.03 1873.58 2372.10 1904.18L2372.10 1904.18L2347.88 1883.78Q2386.13 1862.10 2431.39 1833.41Q2476.65 1804.73 2520 1774.76Q2563.35 1744.80 2593.95 1720.58ZM2175.75 1709.10L2207.63 1697.63Q2253.53 1784.33 2331.30 1855.09Q2409.07 1925.85 2510.44 1975.58Q2611.80 2025.30 2725.28 2049.53L2725.28 2049.53Q2717.63 2054.63 2710.61 2064.19Q2703.60 2073.75 2699.78 2080.13L2699.78 2080.13Q2587.57 2052.08 2485.58 1999.80Q2383.57 1947.53 2303.25 1873.58Q2222.93 1799.63 2175.75 1709.10L2175.75 1709.10ZM1742.25 2067.38L1721.85 2034.23Q1780.50 2012.55 1856.36 1981.95Q1932.22 1951.35 2017.65 1916.29Q2103.07 1881.23 2187.22 1845.53L2187.22 1845.53L2194.88 1877.40Q2076.30 1928.40 1955.81 1978.76Q1835.33 2029.13 1742.25 2067.38L1742.25 2067.38ZM1681.05 1159.58L1681.05 1122.60L2699.78 1122.60L2699.78 1159.58L1681.05 1159.58ZM1661.92 1506.38L1661.92 1122.60L1698.90 1122.60L1698.90 1506.38Q1698.90 1577.78 1695.08 1660.01Q1691.25 1742.25 1679.78 1828.31Q1668.30 1914.38 1645.35 1996.61Q1622.40 2078.85 1585.42 2150.25L1585.42 2150.25Q1581.60 2146.43 1575.86 2142.60Q1570.13 2138.78 1564.39 2134.95Q1558.65 2131.13 1553.55 2129.85L1553.55 2129.85Q1590.53 2061 1612.20 1981.31Q1633.88 1901.63 1644.71 1818.11Q1655.55 1734.60 1658.74 1654.91Q1661.92 1575.22 1661.92 1506.38L1661.92 1506.38ZM2109.45 1001.47L2109.45 1001.47L2142.60 986.17Q2168.10 1018.05 2194.88 1056.94Q2221.65 1095.83 2234.40 1123.88L2234.40 1123.88L2199.97 1141.72Q2185.95 1113.67 2160.45 1073.51Q2134.95 1033.35 2109.45 1001.47ZM2559.53 1505.10L2559.53 1466.85L2712.53 1466.85L2712.53 1505.10L2559.53 1505.10Z"/>
  </svg>