<svg xmlns="http://www.w3.org/2000/svg" viewBox="0 0 3000 3000" width="3000" height="3000">
    <path fill="#000000" d="M820 750L820 750Q820 734 843 734Q866 734 984 800L984 800L1508 770L1506 628Q1506 588 1487 566Q1468 544 1468 532Q1468 520 1490 520Q1512 520 1571 535Q1630 550 1630 588L1630 588L1628 762L2040 738Q2084 736 2113 724Q2142 712 2152 712Q2162 712 2188 728L2188 728Q2256 766 2256 806L2256 806Q2256 832 2210 836L2210 836L982 908Q976 1262 956 1428L956 1428Q892 1998 632 2288L632 2288Q598 2322 585 2322Q572 2322 572 2306Q572 2290 590 2258L590 2258Q776 1916 824 1488L824 1488Q850 1268 850 998L850 998L850 940Q850 846 835 802Q820 758 820 750ZM1654 1808L1654 2148L1660 2248Q1660 2308 1625 2339Q1590 2370 1558 2370Q1526 2370 1473 2339Q1420 2308 1368 2264Q1316 2220 1280 2182Q1244 2144 1244 2130Q1244 2116 1259 2116Q1274 2116 1339 2149Q1404 2182 1534 2220L1534 2220L1536 1614L1296 1626L1246 1628Q1216 1628 1191 1618Q1166 1608 1150 1571Q1134 1534 1134 1528L1134 1528Q1134 1514 1148 1514L1148 1514L1216 1522L1536 1506L1536 1368L1162 1388L1102 1390Q1054 1390 1030 1365Q1006 1340 999 1315Q992 1290 992 1288L992 1288Q992 1276 1004 1276L1004 1276L1012 1276Q1048 1286 1100 1286L1100 1286L1126 1286L1536 1266L1536 1146L1286 1160Q1258 1164 1226 1164L1226 1164Q1166 1164 1138 1104L1138 1104Q1122 1070 1122 1061Q1122 1052 1128 1052L1128 1052Q1138 1052 1157 1058Q1176 1064 1212 1064L1212 1064L1536 1044L1536 1038Q1536 964 1506 926L1506 926Q1494 910 1494 901Q1494 892 1513 892Q1532 892 1581 905Q1630 918 1642 933Q1654 948 1654 968L1654 968L1654 1038L1990 1018L2006 1018Q2056 1018 2078 1042Q2100 1066 2100 1084Q2100 1102 2092 1115Q2084 1128 2082 1138L2082 1138L2068 1240L2168 1234Q2230 1228 2246 1221Q2262 1214 2278 1214Q2294 1214 2316 1228L2316 1228Q2370 1262 2370 1294L2370 1294Q2370 1320 2312 1324L2312 1324L2052 1338L2032 1482Q2092 1542 2092 1562Q2092 1582 2075 1585Q2058 1588 2032 1590L2032 1590L1654 1608L1654 1682Q1734 1766 1814 1834L1814 1834Q1950 1758 2018 1696Q2086 1634 2093 1607Q2100 1580 2110 1580L2110 1580Q2136 1580 2172 1654L2172 1654Q2184 1682 2184 1697Q2184 1712 2172 1724L2172 1724Q2050 1820 1902 1900L1902 1900Q2100 2042 2372 2130L2372 2130Q2398 2138 2398 2158L2398 2158Q2398 2168 2380 2190L2380 2190Q2338 2246 2312 2246L2312 2246L2252 2224Q2072 2158 1882 2020L1882 2020Q1766 1934 1654 1808L1654 1808ZM1948 1244L1962 1122L1654 1140L1654 1260L1948 1244ZM1920 1488L1936 1344L1654 1360L1654 1500L1920 1488ZM1290 1882L1290 1882Q1196 1800 1088 1732L1088 1732Q1064 1716 1064 1699Q1064 1682 1081 1662Q1098 1642 1114 1642Q1130 1642 1257 1715Q1384 1788 1384 1824L1384 1824Q1384 1834 1367 1864Q1350 1894 1328 1894Q1306 1894 1290 1882ZM1478 1912L1478 1912Q1272 2084 1161 2150Q1050 2216 1029 2216Q1008 2216 978 2199Q948 2182 924 2159Q900 2136 900 2120Q900 2104 945 2099Q990 2094 1123 2040Q1256 1986 1454 1862L1454 1862Q1486 1842 1502 1842Q1518 1842 1518 1860Q1518 1878 1478 1912Z"/>
  </svg>