<svg xmlns="http://www.w3.org/2000/svg" viewBox="0 0 3000 3000" width="3000" height="3000">
    <path fill="#000000" d="M1042 1222L1042 1222Q1052 1210 1058 1210L1058 1210Q1068 1210 1093 1247Q1118 1284 1124 1306L1124 1306Q1160 1444 1138 1538L1138 1538Q1128 1576 1123 1620Q1118 1664 1112 1674Q1106 1684 1098 1734L1098 1734Q1090 1800 1010 2008L1010 2008Q982 2086 948 2128L948 2128Q934 2144 918 2172Q902 2200 872 2241Q842 2282 842 2287Q842 2292 794 2338L794 2338Q722 2408 691 2428Q660 2448 638 2440L638 2440Q624 2436 630 2424L630 2424Q636 2410 736 2290L736 2290Q776 2246 814 2164L814 2164Q836 2116 880 1992L880 1992Q900 1936 927 1834Q954 1732 958 1692L958 1692Q974 1538 990 1436L990 1436Q1002 1366 1002 1318L1002 1318Q1002 1282 1007 1269Q1012 1256 1042 1222ZM1770 930L1770 930Q1792 916 1808 932L1808 932Q1814 938 1846 948L1846 948Q1962 984 1918 1060L1918 1060Q1898 1090 1878 1094Q1858 1098 1814 1080L1814 1080Q1774 1066 1708 1055Q1642 1044 1598 1044L1598 1044Q1580 1044 1575 1047Q1570 1050 1570 1060L1570 1060Q1570 1076 1587 1099Q1604 1122 1611 1164Q1618 1206 1621 1208Q1624 1210 1672 1214L1672 1214Q1728 1222 1797 1238Q1866 1254 1882 1266L1882 1266Q1924 1296 1920 1354L1920 1354L1918 1386L1982 1390Q2058 1394 2089 1415Q2120 1436 2108 1470L2108 1470Q2096 1494 2070 1500Q2044 1506 1972 1502L1972 1502L1884 1498L1872 1528Q1858 1560 1840 1572L1840 1572Q1824 1578 1821 1587Q1818 1596 1820 1626L1820 1626Q1822 1670 1806 1681Q1790 1692 1722 1690L1722 1690Q1634 1690 1617 1692Q1600 1694 1594 1714L1594 1714Q1584 1736 1584 1768Q1584 1800 1613 1826Q1642 1852 1652 1852L1652 1852Q1662 1852 1729 1802Q1796 1752 1830 1720L1830 1720Q1866 1686 1875 1682Q1884 1678 1906 1686L1906 1686Q1936 1694 1956 1711Q1976 1728 1976 1776L1976 1776L1974 1824L1926 1848Q1878 1872 1836 1900L1836 1900L1770 1938Q1758 1948 1758 1951Q1758 1954 1768 1964L1768 1964Q1790 1986 1887 2048Q1984 2110 2034 2132L2034 2132Q2086 2156 2159 2183Q2232 2210 2248 2210L2248 2210Q2266 2210 2320 2236Q2374 2262 2372 2269Q2370 2276 2370 2296Q2370 2316 2356 2321Q2342 2326 2319 2336Q2296 2346 2231 2359Q2166 2372 2146 2384L2146 2384Q2100 2406 2055 2397Q2010 2388 1930 2340L1930 2340Q1868 2304 1825 2268Q1782 2232 1692 2144L1692 2144L1586 2040L1586 2072Q1584 2236 1568 2310L1568 2310Q1558 2354 1526 2394Q1494 2434 1450 2454L1450 2454L1412 2474L1380 2456Q1348 2440 1332 2407Q1316 2374 1282 2346L1282 2346Q1182 2260 1170 2260L1170 2260Q1162 2260 1138 2276L1138 2276Q1114 2290 1098 2290Q1082 2290 1054 2278L1054 2278Q1002 2256 994 2250Q986 2244 986 2220L986 2220Q986 2190 998 2180Q1010 2170 1010 2160Q1010 2150 1114 2093Q1218 2036 1250 2014L1250 2014L1284 1994L1256 1978Q1224 1958 1185 1916Q1146 1874 1146 1860L1146 1860Q1146 1826 1268 1824L1268 1824Q1322 1824 1337 1826Q1352 1828 1366 1844L1366 1844Q1386 1862 1386 1898L1386 1898Q1386 1906 1387 1913Q1388 1920 1389 1924Q1390 1928 1392 1929Q1394 1930 1396 1930L1396 1930Q1406 1928 1419 1826Q1432 1724 1424 1718L1424 1718Q1418 1714 1376 1732L1376 1732Q1288 1764 1250 1734L1250 1734L1232 1718L1250 1690Q1270 1664 1279 1658Q1288 1652 1310 1652L1310 1652Q1334 1652 1384 1634L1384 1634L1434 1616L1434 1570Q1434 1536 1432 1530Q1430 1524 1414 1524L1414 1524Q1396 1524 1351 1539Q1306 1554 1289 1567Q1272 1580 1236 1579Q1200 1578 1176 1566L1176 1566Q1150 1554 1149 1550Q1148 1546 1164 1532L1164 1532Q1220 1482 1352 1446L1352 1446L1434 1424L1438 1388Q1446 1336 1444 1328Q1442 1320 1422 1320L1422 1320Q1398 1322 1356 1342L1356 1342Q1316 1362 1280 1364Q1244 1366 1234 1350L1234 1350Q1222 1322 1259 1295Q1296 1268 1394 1236L1394 1236L1446 1220L1448 1170Q1448 1120 1460 1082Q1472 1044 1464 1044Q1456 1044 1362 1056L1362 1056Q1226 1072 1154 1114L1154 1114Q1126 1128 1112 1125Q1098 1122 1066 1088L1066 1088Q1046 1068 1044 1060Q1042 1052 1052 1038L1052 1038Q1080 992 1216 972L1216 972L1350 952Q1432 940 1596 939Q1760 938 1770 930ZM1656 1316L1656 1316Q1636 1316 1626 1312L1626 1312Q1608 1306 1593 1338Q1578 1370 1586 1394L1586 1394Q1594 1412 1620 1412L1620 1412Q1650 1412 1658 1402Q1666 1392 1672 1358L1672 1358Q1676 1328 1674 1322Q1672 1316 1656 1316ZM1650 1562L1650 1562Q1650 1538 1642 1522Q1634 1506 1610 1506L1610 1506Q1594 1506 1586 1519Q1578 1532 1578 1564L1578 1564Q1578 1580 1583 1584Q1588 1588 1614 1588L1614 1588Q1640 1588 1645 1585Q1650 1582 1650 1562ZM1404 2124L1404 2124Q1404 2114 1406 2098L1406 2098Q1412 1996 1404 1989Q1396 1982 1340 2036L1340 2036Q1330 2044 1326 2050L1326 2050Q1246 2128 1225 2160Q1204 2192 1192 2202L1192 2202Q1176 2214 1179 2225Q1182 2236 1202 2236L1202 2236Q1226 2236 1240 2243Q1254 2250 1310 2254L1310 2254Q1372 2258 1384 2242Q1396 2226 1404 2124ZM1300 644L1300 644Q1310 634 1320 634Q1330 634 1370 646L1370 646Q1424 662 1470 702L1470 702Q1546 772 1546 816L1546 816Q1546 828 1526 870L1526 870Q1496 928 1444 929Q1392 930 1349 878Q1306 826 1302 748L1302 748Q1298 706 1290 690L1290 690Q1276 666 1300 644Z"/>
  </svg>