<svg xmlns="http://www.w3.org/2000/svg" viewBox="0 0 3000 3000" width="3000" height="3000">
    <path fill="#000000" d="M757.95 1565.66L757.95 1565.66L1004.02 1554.19Q981.07 1607.74 939.00 1672.76Q896.92 1737.79 856.12 1782.41L856.12 1782.41Q812.77 1763.29 763.05 1744.80Q713.32 1726.31 673.80 1713.56L673.80 1713.56Q692.92 1685.51 715.24 1644.71Q737.55 1603.91 757.95 1565.66ZM1120.05 1549.09L1120.05 1549.09L1401.82 1535.06Q1412.02 1533.79 1423.50 1529.33Q1434.97 1524.86 1434.97 1512.11Q1434.97 1499.36 1419.67 1482.79Q1404.38 1466.21 1386.52 1452.83Q1368.67 1439.44 1357.20 1439.44L1357.20 1439.44Q1353.38 1439.44 1352.74 1440.08Q1352.10 1440.71 1350.82 1440.71L1350.82 1440.71Q1331.70 1447.09 1317.04 1450.91Q1302.37 1454.74 1285.80 1456.01L1285.80 1456.01L802.57 1478.96Q831.90 1413.94 849.11 1376.33Q866.32 1338.71 870.79 1324.05Q875.25 1309.39 875.25 1304.29L875.25 1304.29Q875.25 1287.71 859.31 1271.14Q843.37 1254.56 822.97 1244.36Q802.57 1234.16 789.82 1234.16L789.82 1234.16Q769.42 1234.16 769.42 1254.56L769.42 1254.56L769.42 1267.31Q769.42 1286.44 758.59 1320.22Q747.75 1354.01 733.09 1390.35Q718.42 1426.69 706.95 1453.46Q695.47 1480.24 692.92 1484.06L692.92 1484.06L380.55 1499.36L366.52 1499.36Q353.77 1499.36 340.39 1498.09Q327.00 1496.81 314.25 1491.71L314.25 1491.71Q310.42 1490.44 305.32 1490.44L305.32 1490.44Q291.30 1490.44 291.30 1507.01L291.30 1507.01Q291.30 1526.14 305.32 1545.26Q319.35 1564.39 327.00 1571.40Q334.65 1578.41 347.40 1581.60Q360.15 1584.79 375.45 1584.79L375.45 1584.79Q381.82 1584.79 388.20 1584.15Q394.57 1583.51 400.95 1583.51L400.95 1583.51L647.02 1572.04Q636.82 1591.16 618.34 1624.31Q599.85 1657.46 578.17 1690.61L578.17 1690.61Q573.07 1699.54 569.25 1707.83Q565.42 1716.11 565.42 1727.59L565.42 1727.59Q565.42 1736.51 569.25 1749.26L569.25 1749.26Q582.00 1782.41 601.76 1784.33Q621.52 1786.24 633.00 1791.34L633.00 1791.34Q673.80 1806.64 713.96 1821.94Q754.12 1837.24 783.45 1849.99L783.45 1849.99Q731.17 1892.06 671.25 1924.58Q611.32 1957.09 545.66 1980.04Q480.00 2002.99 403.50 2023.39L403.50 2023.39Q378.00 2029.76 363.97 2040.60Q349.95 2051.44 349.95 2061.64L349.95 2061.64Q349.95 2083.31 389.47 2083.31L389.47 2083.31Q392.02 2083.31 424.54 2078.85Q457.05 2074.39 509.32 2063.55Q561.60 2052.71 624.07 2031.04Q686.55 2009.36 753.49 1974.30Q820.42 1939.24 877.80 1892.06L877.80 1892.06Q960.67 1929.04 1051.20 1976.85Q1141.72 2024.66 1234.80 2084.59L1234.80 2084.59Q1257.75 2099.89 1274.32 2099.89L1274.32 2099.89Q1294.72 2099.89 1303.65 2083.31Q1312.57 2066.74 1316.40 2051.44L1316.40 2051.44L1318.95 2038.69Q1318.95 2020.84 1310.02 2010Q1301.10 1999.16 1285.80 1991.51L1285.80 1991.51Q1192.72 1937.96 1107.30 1895.89Q1021.87 1853.81 949.20 1821.94L949.20 1821.94Q995.10 1773.49 1042.27 1697.63Q1089.45 1621.76 1120.05 1549.09ZM524.62 1241.81L524.62 1241.81L1255.20 1199.74Q1247.55 1220.14 1230.34 1257.11Q1213.13 1294.09 1195.27 1327.24L1195.27 1327.24Q1176.15 1359.11 1176.15 1376.96L1176.15 1376.96Q1176.15 1392.26 1190.17 1392.26L1190.17 1392.26Q1211.85 1392.26 1257.75 1342.54Q1303.65 1292.81 1364.85 1201.01L1364.85 1201.01Q1371.22 1192.09 1380.79 1183.16Q1390.35 1174.24 1390.35 1160.21L1390.35 1160.21Q1390.35 1138.54 1366.76 1122.60Q1343.17 1106.66 1315.13 1106.66L1315.13 1106.66L1306.20 1106.66L910.95 1130.89L913.50 997.01Q913.50 979.16 896.29 968.32Q879.07 957.49 859.31 952.39Q839.55 947.29 825.52 944.74L825.52 944.74L808.95 942.19Q782.17 942.19 782.17 961.31L782.17 961.31Q782.17 968.96 789.82 979.16L789.82 979.16Q808.95 1007.21 808.95 1028.89L808.95 1028.89L808.95 1135.99L555.22 1151.29L559.05 1133.44Q561.60 1115.59 561.60 1113.04L561.60 1113.04Q561.60 1099.01 548.85 1090.09Q536.10 1081.16 522.07 1077.34Q508.05 1073.51 500.40 1073.51L500.40 1073.51Q478.72 1073.51 469.80 1100.29L469.80 1100.29Q449.40 1167.86 421.99 1239.26Q394.57 1310.66 363.97 1360.39L363.97 1360.39Q358.87 1366.76 358.87 1375.69L358.87 1375.69Q358.87 1389.71 372.90 1401.19Q386.92 1412.66 401.59 1420.31Q416.25 1427.96 421.35 1427.96L421.35 1427.96Q431.55 1427.96 438.56 1421.59Q445.57 1415.21 449.40 1408.84L449.40 1408.84Q471.07 1371.86 490.84 1327.24Q510.60 1282.61 524.62 1241.81ZM2024.03 1806.64L2024.03 1806.64Q2045.70 1806.64 2058.45 1784.96Q2071.20 1763.29 2071.20 1754.36L2071.20 1754.36Q2071.20 1737.79 2044.43 1717.39Q2017.65 1696.99 1984.50 1677.86Q1951.35 1658.74 1923.30 1644.71Q1895.25 1630.69 1890.15 1630.69L1890.15 1630.69Q1877.40 1630.69 1864.65 1645.99Q1851.90 1661.29 1851.90 1675.31Q1851.90 1689.34 1871.03 1702.09L1871.03 1702.09Q1908 1725.04 1936.69 1746.71Q1965.38 1768.39 1998.53 1797.71L1998.53 1797.71Q2011.28 1806.64 2024.03 1806.64ZM2243.32 1466.21L2406.53 1456.01L2398.88 1532.51L2243.32 1540.16L2243.32 1466.21ZM2243.32 1325.96L2423.10 1314.49L2416.73 1376.96L2243.32 1387.16L2243.32 1325.96ZM2007.45 1635.79L2152.80 1628.14L2152.80 1762.01Q2147.70 1758.19 2140.05 1758.19L2140.05 1758.19Q2126.03 1758.19 2104.35 1772.21L2104.35 1772.21Q2046.97 1807.91 1983.86 1841.06Q1920.75 1874.21 1865.29 1896.53Q1809.83 1918.84 1771.58 1923.94L1771.58 1923.94Q1747.35 1925.21 1747.35 1941.15Q1747.35 1957.09 1763.92 1973.03Q1780.50 1988.96 1800.90 2000.44Q1821.30 2011.91 1836.60 2011.91L1836.60 2011.91Q1853.17 2011.91 1924.58 1968.56L1924.58 1968.56Q1943.70 1957.09 1967.93 1941.79L1967.93 1941.79Q1966.65 1943.06 1966.65 1946.89L1966.65 1946.89Q1966.65 1960.91 1990.88 1986.41Q2015.10 2011.91 2048.89 2040.60Q2082.68 2069.29 2117.10 2089.69Q2151.53 2110.09 2174.47 2110.09Q2197.43 2110.09 2222.29 2088.41Q2247.15 2066.74 2247.15 2024.66L2247.15 2024.66Q2247.15 2010.64 2245.24 1994.06Q2243.32 1977.49 2243.32 1960.91L2243.32 1960.91L2243.32 1764.56Q2301.98 1829.59 2376.56 1884.41Q2451.15 1939.24 2513.63 1971.11Q2576.10 2002.99 2614.35 2017.01L2614.35 2017.01L2653.88 2031.04Q2665.35 2031.04 2679.38 2018.93Q2693.40 2006.81 2705.51 1991.51Q2717.63 1976.21 2717.63 1967.29L2717.63 1967.29Q2717.63 1949.44 2695.95 1941.79L2695.95 1941.79Q2614.35 1915.01 2541.04 1880.59Q2467.73 1846.16 2407.80 1804.09L2407.80 1804.09Q2453.70 1778.59 2491.95 1753.73Q2530.20 1728.86 2571 1696.99L2571 1696.99Q2574.82 1693.16 2578.01 1687.43Q2581.20 1681.69 2581.20 1672.76L2581.20 1672.76Q2581.20 1662.56 2572.28 1643.44Q2563.35 1624.31 2551.24 1607.74Q2539.13 1591.16 2526.38 1591.16L2526.38 1591.16Q2523.83 1591.16 2522.55 1591.16L2522.55 1591.16Q2522.55 1591.16 2522.55 1591.16L2522.55 1591.16Q2522.55 1582.24 2513.63 1567.58Q2504.70 1552.91 2484.30 1533.79L2484.30 1533.79L2495.78 1452.19L2655.15 1443.26Q2673 1441.99 2686.39 1436.25Q2699.78 1430.51 2699.78 1417.76Q2699.78 1405.01 2688.30 1390.99Q2676.82 1376.96 2661.53 1367.40Q2646.23 1357.84 2630.93 1357.84L2630.93 1357.84Q2622 1357.84 2614.35 1361.66L2614.35 1361.66Q2604.15 1365.49 2590.13 1367.40Q2576.10 1369.31 2563.35 1370.59L2563.35 1370.59L2508.53 1374.41L2516.18 1318.31Q2517.45 1313.21 2522.55 1304.93Q2527.65 1296.64 2527.65 1285.16L2527.65 1285.16Q2527.65 1268.59 2511.71 1250.74Q2495.78 1232.89 2460.07 1232.89L2460.07 1232.89L2449.88 1232.89L2243.32 1245.64L2243.32 1208.66Q2243.32 1193.36 2233.76 1181.89Q2224.20 1170.41 2188.50 1160.21L2188.50 1160.21Q2180.85 1157.66 2174.47 1156.39L2174.47 1156.39L2590.13 1132.16Q2605.43 1130.89 2616.26 1125.15Q2627.10 1119.41 2627.10 1105.39L2627.10 1105.39Q2627.10 1090.09 2612.44 1074.15Q2597.78 1058.21 2579.93 1048.01Q2562.07 1037.81 2551.88 1037.81L2551.88 1037.81Q2545.50 1037.81 2541.68 1040.36L2541.68 1040.36Q2508.53 1053.11 2481.75 1054.39L2481.75 1054.39L2226.75 1069.69L2228.03 966.41Q2228.03 948.56 2212.72 938.36Q2197.43 928.16 2180.21 923.70Q2163 919.24 2148.97 917.33Q2134.95 915.41 2133.68 915.41L2133.68 915.41Q2109.45 915.41 2109.45 931.99L2109.45 931.99Q2109.45 940.91 2118.38 949.84L2118.38 949.84Q2133.68 968.96 2133.68 991.91L2133.68 991.91L2134.95 1074.79L1809.83 1093.91Q1771.58 1072.24 1748.63 1062.04Q1725.67 1051.84 1711.01 1051.84Q1696.35 1051.84 1696.35 1069.69L1696.35 1069.69Q1696.35 1076.06 1700.17 1087.54L1700.17 1087.54Q1709.10 1113.04 1712.29 1138.54Q1715.47 1164.04 1715.47 1190.81L1715.47 1190.81L1715.47 1227.79Q1715.47 1399.91 1699.54 1539.53Q1683.60 1679.14 1647.26 1797.71Q1610.92 1916.29 1551 2027.21L1551 2027.21Q1538.25 2048.89 1538.25 2062.91L1538.25 2062.91Q1538.25 2079.49 1553.55 2079.49L1553.55 2079.49Q1565.03 2079.49 1582.88 2061.64L1582.88 2061.64L1589.25 2055.26Q1655.55 1981.31 1697.63 1892.06Q1739.70 1802.81 1763.29 1705.91Q1786.88 1609.01 1798.35 1512.11L1798.35 1512.11Q1803.45 1463.66 1807.28 1416.49L1807.28 1416.49Q1807.28 1421.59 1811.10 1433.06L1811.10 1433.06Q1816.20 1449.64 1832.78 1467.49Q1849.35 1485.34 1883.78 1485.34L1883.78 1485.34Q1892.70 1485.34 1902.26 1484.70Q1911.83 1484.06 1922.03 1484.06L1922.03 1484.06L2152.80 1471.31L2152.80 1543.99L1983.22 1552.91Q1976.85 1552.91 1969.84 1553.55Q1962.83 1554.19 1956.45 1554.19L1956.45 1554.19Q1938.60 1554.19 1924.58 1550.36L1924.58 1550.36Q1919.47 1549.09 1913.10 1549.09L1913.10 1549.09Q1896.53 1549.09 1896.53 1565.66L1896.53 1565.66Q1896.53 1568.21 1897.16 1572.04Q1897.80 1575.86 1899.08 1579.69L1899.08 1579.69Q1919.47 1623.04 1937.33 1630.05Q1955.18 1637.06 1975.58 1637.06L1975.58 1637.06Q1984.50 1637.06 1992.79 1636.43Q2001.08 1635.79 2007.45 1635.79L2007.45 1635.79ZM1814.92 1178.06L1814.92 1178.06L2127.30 1158.94Q2126.03 1162.76 2126.03 1166.59L2126.03 1166.59Q2126.03 1174.24 2134.95 1186.99L2134.95 1186.99Q2143.88 1198.46 2147.70 1216.31L2147.70 1216.31Q2152.80 1232.89 2152.80 1249.46L2152.80 1249.46L1976.85 1260.94Q1970.47 1260.94 1964.74 1261.58Q1959 1262.21 1953.90 1262.21L1953.90 1262.21Q1932.22 1262.21 1916.93 1257.11L1916.93 1257.11Q1913.10 1255.84 1909.91 1255.20Q1906.72 1254.56 1902.90 1254.56L1902.90 1254.56Q1888.88 1254.56 1888.88 1268.59L1888.88 1268.59Q1888.88 1272.41 1889.51 1275.60Q1890.15 1278.79 1891.43 1282.61L1891.43 1282.61Q1909.28 1319.59 1924.58 1330.43Q1939.88 1341.26 1960.28 1341.26L1960.28 1341.26Q1970.47 1341.26 1981.95 1340.63Q1993.43 1339.99 2002.35 1338.71L2002.35 1338.71L2152.80 1329.79L2152.80 1390.99L1899.08 1403.74L1882.50 1403.74Q1869.75 1403.74 1855.72 1402.46Q1841.70 1401.19 1827.67 1397.36L1827.67 1397.36L1821.30 1397.36Q1811.10 1397.36 1807.28 1405.01L1807.28 1405.01Q1809.83 1365.49 1811.10 1328.51L1811.10 1328.51Q1813.65 1240.54 1814.92 1178.06ZM2152.80 1788.79L2152.80 1788.79L2151.53 1996.61Q2117.10 1986.41 2078.21 1971.11Q2039.33 1955.81 2015.10 1943.06L2015.10 1943.06Q1994.70 1932.86 1985.78 1932.86L1985.78 1932.86Q1981.95 1932.86 1978.13 1932.86L1978.13 1932.86Q2040.60 1889.51 2128.57 1816.84L2128.57 1816.84Q2145.15 1802.81 2152.80 1788.79ZM2508.53 1609.01L2508.53 1609.01Q2508.53 1609.01 2508.53 1610.29L2508.53 1610.29Q2504.70 1629.41 2461.99 1667.66Q2419.28 1705.91 2338.95 1751.81L2338.95 1751.81Q2317.28 1733.96 2291.78 1709.74Q2266.28 1685.51 2243.32 1661.29L2243.32 1661.29L2243.32 1624.31L2476.65 1612.84Q2494.50 1611.56 2508.53 1609.01L2508.53 1609.01Q2508.53 1609.01 2508.53 1609.01Z"/>
  </svg>