<svg xmlns="http://www.w3.org/2000/svg" viewBox="0 0 3000 3000" width="3000" height="3000">
    <path fill="#000000" d="M876 1508L876 1448L2166 1448L2166 1508L876 1508ZM984 1242L984 1184L2186 1184L2186 1784L972 1784L972 1724L2128 1724L2128 1242L984 1242ZM1558 2402L1558 940L1618 940L1618 2400Q1618 2448 1601 2469Q1584 2490 1550 2500L1550 2500Q1512 2508 1436 2509Q1360 2510 1236 2510L1236 2510Q1232 2498 1225 2480Q1218 2462 1208 2448L1208 2448Q1282 2450 1344 2450Q1406 2450 1450 2449Q1494 2448 1512 2448L1512 2448Q1540 2446 1549 2437Q1558 2428 1558 2402L1558 2402ZM976 1876L976 1876L1018 1842Q1072 1876 1130 1918Q1188 1960 1239 2001Q1290 2042 1324 2074L1324 2074L1280 2114Q1248 2080 1197 2038Q1146 1996 1088 1953Q1030 1910 976 1876ZM2172 1848L2172 1848L2220 1882Q2140 1956 2036 2032Q1932 2108 1844 2160L1844 2160L1802 2126Q1862 2090 1930 2042Q1998 1994 2062 1942Q2126 1890 2172 1848ZM880 2390L848 2338Q940 2304 1059 2256Q1178 2208 1312 2153Q1446 2098 1578 2042L1578 2042L1590 2092Q1404 2172 1215 2251Q1026 2330 880 2390L880 2390ZM784 966L784 908L2382 908L2382 966L784 966ZM754 1510L754 908L812 908L812 1510Q812 1622 806 1751Q800 1880 782 2015Q764 2150 728 2279Q692 2408 634 2520L634 2520Q628 2514 619 2508Q610 2502 601 2496Q592 2490 584 2488L584 2488Q642 2380 676 2255Q710 2130 727 1999Q744 1868 749 1743Q754 1618 754 1510L754 1510ZM1456 718L1456 718L1508 694Q1548 744 1590 805Q1632 866 1652 910L1652 910L1598 938Q1576 894 1536 831Q1496 768 1456 718ZM2162 1508L2162 1448L2402 1448L2402 1508L2162 1508ZM1574 2086L1574 2086L1602 2042Q1696 2076 1799 2117Q1902 2158 2002 2202Q2102 2246 2189 2287Q2276 2328 2338 2364L2338 2364L2314 2416Q2252 2380 2165 2337Q2078 2294 1977 2249Q1876 2204 1773 2162Q1670 2120 1574 2086Z"/>
  </svg>