<svg xmlns="http://www.w3.org/2000/svg" viewBox="0 0 3000 3000" width="3000" height="3000">
    <path fill="#000000" d="M1322 1981L1322 1981Q1356 1981 1376 1947Q1396 1913 1396 1899L1396 1899Q1396 1873 1354 1841Q1312 1809 1260 1779Q1208 1749 1164 1727Q1120 1705 1112 1705L1112 1705Q1092 1705 1072 1729Q1052 1753 1052 1775Q1052 1797 1082 1817L1082 1817Q1140 1853 1185 1887Q1230 1921 1282 1967L1282 1967Q1302 1981 1322 1981ZM1666 1447L1922 1431L1910 1551L1666 1563L1666 1447ZM1666 1227L1948 1209L1938 1307L1666 1323L1666 1227ZM1296 1713L1524 1701L1524 1911Q1516 1905 1504 1905L1504 1905Q1482 1905 1448 1927L1448 1927Q1358 1983 1259 2035Q1160 2087 1073 2122Q986 2157 926 2165L926 2165Q888 2167 888 2192Q888 2217 914 2242Q940 2267 972 2285Q1004 2303 1028 2303L1028 2303Q1054 2303 1166 2235L1166 2235Q1196 2217 1234 2193L1234 2193Q1232 2195 1232 2201L1232 2201Q1232 2223 1270 2263Q1308 2303 1361 2348Q1414 2393 1468 2425Q1522 2457 1558 2457Q1594 2457 1633 2423Q1672 2389 1672 2323L1672 2323Q1672 2301 1669 2275Q1666 2249 1666 2223L1666 2223L1666 1915Q1758 2017 1875 2103Q1992 2189 2090 2239Q2188 2289 2248 2311L2248 2311L2310 2333Q2328 2333 2350 2314Q2372 2295 2391 2271Q2410 2247 2410 2233L2410 2233Q2410 2205 2376 2193L2376 2193Q2248 2151 2133 2097Q2018 2043 1924 1977L1924 1977Q1996 1937 2056 1898Q2116 1859 2180 1809L2180 1809Q2186 1803 2191 1794Q2196 1785 2196 1771L2196 1771Q2196 1755 2182 1725Q2168 1695 2149 1669Q2130 1643 2110 1643L2110 1643Q2106 1643 2104 1643L2104 1643Q2104 1643 2104 1643L2104 1643Q2104 1629 2090 1606Q2076 1583 2044 1553L2044 1553L2062 1425L2312 1411Q2340 1409 2361 1400Q2382 1391 2382 1371Q2382 1351 2364 1329Q2346 1307 2322 1292Q2298 1277 2274 1277L2274 1277Q2260 1277 2248 1283L2248 1283Q2232 1289 2210 1292Q2188 1295 2168 1297L2168 1297L2082 1303L2094 1215Q2096 1207 2104 1194Q2112 1181 2112 1163L2112 1163Q2112 1137 2087 1109Q2062 1081 2006 1081L2006 1081L1990 1081L1666 1101L1666 1043Q1666 1019 1651 1001Q1636 983 1580 967L1580 967Q1568 963 1558 961L1558 961L2210 923Q2234 921 2251 912Q2268 903 2268 881L2268 881Q2268 857 2245 832Q2222 807 2194 791Q2166 775 2150 775L2150 775Q2140 775 2134 779L2134 779Q2082 799 2040 801L2040 801L1640 825L1642 663Q1642 635 1618 619Q1594 603 1567 596Q1540 589 1518 586Q1496 583 1494 583L1494 583Q1456 583 1456 609L1456 609Q1456 623 1470 637L1470 637Q1494 667 1494 703L1494 703L1496 833L986 863Q926 829 890 813Q854 797 831 797Q808 797 808 825L808 825Q808 835 814 853L814 853Q828 893 833 933Q838 973 838 1015L838 1015L838 1073Q838 1343 813 1562Q788 1781 731 1967Q674 2153 580 2327L580 2327Q560 2361 560 2383L560 2383Q560 2409 584 2409L584 2409Q602 2409 630 2381L630 2381L640 2371Q744 2255 810 2115Q876 1975 913 1823Q950 1671 968 1519L968 1519Q976 1443 982 1369L982 1369Q982 1377 988 1395L988 1395Q996 1421 1022 1449Q1048 1477 1102 1477L1102 1477Q1116 1477 1131 1476Q1146 1475 1162 1475L1162 1475L1524 1455L1524 1569L1258 1583Q1248 1583 1237 1584Q1226 1585 1216 1585L1216 1585Q1188 1585 1166 1579L1166 1579Q1158 1577 1148 1577L1148 1577Q1122 1577 1122 1603L1122 1603Q1122 1607 1123 1613Q1124 1619 1126 1625L1126 1625Q1158 1693 1186 1704Q1214 1715 1246 1715L1246 1715Q1260 1715 1273 1714Q1286 1713 1296 1713L1296 1713ZM994 995L994 995L1484 965Q1482 971 1482 977L1482 977Q1482 989 1496 1009L1496 1009Q1510 1027 1516 1055L1516 1055Q1524 1081 1524 1107L1524 1107L1248 1125Q1238 1125 1229 1126Q1220 1127 1212 1127L1212 1127Q1178 1127 1154 1119L1154 1119Q1148 1117 1143 1116Q1138 1115 1132 1115L1132 1115Q1110 1115 1110 1137L1110 1137Q1110 1143 1111 1148Q1112 1153 1114 1159L1114 1159Q1142 1217 1166 1234Q1190 1251 1222 1251L1222 1251Q1238 1251 1256 1250Q1274 1249 1288 1247L1288 1247L1524 1233L1524 1329L1126 1349L1100 1349Q1080 1349 1058 1347Q1036 1345 1014 1339L1014 1339L1004 1339Q988 1339 982 1351L982 1351Q986 1289 988 1231L988 1231Q992 1093 994 995ZM1524 1953L1524 1953L1522 2279Q1468 2263 1407 2239Q1346 2215 1308 2195L1308 2195Q1276 2179 1262 2179L1262 2179Q1256 2179 1250 2179L1250 2179Q1348 2111 1486 1997L1486 1997Q1512 1975 1524 1953ZM2082 1671L2082 1671Q2082 1671 2082 1673L2082 1673Q2076 1703 2009 1763Q1942 1823 1816 1895L1816 1895Q1782 1867 1742 1829Q1702 1791 1666 1753L1666 1753L1666 1695L2032 1677Q2060 1675 2082 1671L2082 1671Q2082 1671 2082 1671Z"/>
  </svg>