<svg xmlns="http://www.w3.org/2000/svg" viewBox="0 0 3000 3000" width="3000" height="3000">
    <path fill="#000000" d="M506.40 2069.02Q456.59 2069.02 456.59 2008.01L456.59 2008.01L456.59 1419.07Q366.94 1580.93 340.80 1580.93L340.80 1580.93Q293.48 1580.93 293.48 1524.90L293.48 1524.90Q293.48 1503.74 340.80 1430.27L340.80 1430.27Q456.59 1246.00 536.28 994.48L536.28 994.48Q546.24 962.11 559.94 947.17Q573.63 932.23 593.55 932.23L593.55 932.23Q650.83 932.23 650.83 980.79L650.83 980.79Q650.83 998.22 557.45 1211.13L557.45 1211.13L557.45 2008.01Q557.45 2069.02 506.40 2069.02L506.40 2069.02ZM801.49 2031.67Q741.72 2031.67 714.95 2006.76Q688.18 1981.86 690.67 1927.08L690.67 1927.08L690.67 1792.60Q690.67 1736.57 717.44 1711.05Q744.21 1685.52 801.49 1689.26L801.49 1689.26L1259.69 1689.26Q1318.21 1689.26 1345.61 1713.54Q1373.00 1737.82 1370.51 1792.60L1370.51 1792.60L1370.51 1927.08Q1370.51 1984.35 1344.36 2009.88Q1318.21 2035.40 1259.69 2031.67L1259.69 2031.67L801.49 2031.67ZM1222.34 1939.53Q1264.67 1939.53 1267.16 1895.95L1267.16 1895.95L1267.16 1822.49Q1267.16 1781.40 1222.34 1778.91L1222.34 1778.91L838.84 1778.91Q796.51 1778.91 794.02 1822.49L794.02 1822.49L794.02 1895.95Q794.02 1917.11 805.85 1928.32Q817.68 1939.53 838.84 1939.53L838.84 1939.53L1222.34 1939.53ZM757.91 1608.33Q706.86 1608.33 706.86 1561.01L706.86 1561.01Q706.86 1513.70 757.91 1513.70L757.91 1513.70L1303.27 1513.70Q1354.32 1513.70 1354.32 1561.01L1354.32 1561.01Q1354.32 1608.33 1303.27 1608.33L1303.27 1608.33L757.91 1608.33ZM757.91 1432.76Q706.86 1432.76 706.86 1385.45L706.86 1385.45Q706.86 1338.13 757.91 1338.13L757.91 1338.13L1303.27 1338.13Q1354.32 1338.13 1354.32 1385.45L1354.32 1385.45Q1354.32 1432.76 1303.27 1432.76L1303.27 1432.76L757.91 1432.76ZM658.30 1254.71Q598.54 1254.71 598.54 1207.40L598.54 1207.40Q598.54 1157.59 658.30 1157.59L658.30 1157.59L1374.24 1157.59Q1432.76 1157.59 1432.76 1207.40L1432.76 1207.40Q1432.76 1254.71 1374.24 1254.71L1374.24 1254.71L658.30 1254.71ZM759.16 1076.66Q706.86 1076.66 706.86 1029.35L706.86 1029.35Q706.86 982.03 759.16 982.03L759.16 982.03L1302.03 982.03Q1354.32 982.03 1354.32 1029.35L1354.32 1029.35Q1354.32 1076.66 1302.03 1076.66L1302.03 1076.66L759.16 1076.66ZM1617.04 1344.36Q1568.48 1344.36 1568.48 1294.56L1568.48 1294.56Q1568.48 1273.39 1587.16 1256.58Q1605.83 1239.77 1645.68 1223.58L1645.68 1223.58Q1908.40 1120.24 2061.55 960.86L2061.55 960.86Q2093.92 926.00 2127.54 926.00L2127.54 926.00Q2148.71 926.00 2166.14 939.07Q2183.57 952.15 2183.57 969.58L2183.57 969.58Q2183.57 984.52 2174.85 996.97L2174.85 996.97Q2382.79 1167.55 2616.87 1214.87L2616.87 1214.87Q2660.45 1223.58 2683.48 1239.77Q2706.52 1255.96 2706.52 1277.12L2706.52 1277.12Q2706.52 1335.64 2648.00 1335.64L2648.00 1335.64Q2619.36 1335.64 2524.73 1303.27L2524.73 1303.27Q2398.97 1260.94 2316.80 1211.76Q2234.62 1162.57 2111.35 1059.23L2111.35 1059.23Q1975.63 1173.78 1820.00 1258.45L1820.00 1258.45Q1661.87 1344.36 1617.04 1344.36L1617.04 1344.36ZM1641.94 2003.03Q1588.40 2003.03 1588.40 1950.73L1588.40 1950.73Q1588.40 1935.79 1605.83 1904.66L1605.83 1904.66Q1644.43 1833.69 1668.09 1740.31L1668.09 1740.31Q1679.30 1695.48 1719.14 1695.48L1719.14 1695.48Q1770.19 1695.48 1770.19 1745.29L1770.19 1745.29Q1770.19 1812.52 1697.97 1956.96L1697.97 1956.96Q1675.56 2003.03 1641.94 2003.03L1641.94 2003.03ZM2139.99 2035.40Q2039.14 2035.40 1951.98 2025.44L1951.98 2025.44Q1871.04 2015.48 1871.04 1944.51L1871.04 1944.51L1871.04 1706.69Q1871.04 1646.92 1923.34 1646.92L1923.34 1646.92Q1974.39 1646.92 1974.39 1706.69L1974.39 1706.69L1974.39 1900.93Q1974.39 1935.79 2052.83 1935.79L2052.83 1935.79L2141.24 1938.28Q2255.79 1942.02 2291.89 1927.08L2291.89 1927.08Q2311.82 1919.60 2321.78 1854.86L2321.78 1854.86Q2326.76 1823.73 2339.83 1808.17Q2352.91 1792.60 2376.56 1792.60L2376.56 1792.60Q2430.10 1792.60 2430.10 1846.14L2430.10 1846.14Q2430.10 1959.45 2389.01 1996.80L2389.01 1996.80Q2346.68 2035.40 2139.99 2035.40L2139.99 2035.40ZM2189.79 1816.26Q2157.42 1816.26 2115.09 1744.04L2115.09 1744.04L2086.45 1699.22Q2076.49 1681.79 2076.49 1671.83L2076.49 1671.83Q2076.49 1624.51 2126.29 1624.51L2126.29 1624.51Q2157.42 1624.51 2201.00 1681.79L2201.00 1681.79Q2243.33 1736.57 2243.33 1761.47L2243.33 1761.47Q2243.33 1816.26 2189.79 1816.26L2189.79 1816.26ZM2352.91 1709.18Q2329.25 1709.18 2316.80 1699.84Q2304.35 1690.50 2304.35 1674.32L2304.35 1674.32Q2304.35 1663.11 2313.06 1646.30Q2321.78 1629.49 2342.94 1594.63L2342.94 1594.63Q2375.32 1542.33 2380.30 1526.15L2380.30 1526.15Q2381.54 1523.66 2381.54 1518.68L2381.54 1518.68Q2381.54 1506.23 2361.62 1506.23L2361.62 1506.23L1742.80 1506.23Q1714.16 1506.23 1701.09 1494.40Q1688.01 1482.57 1688.01 1457.67L1688.01 1457.67Q1688.01 1410.35 1742.80 1410.35L1742.80 1410.35L2415.16 1410.35Q2507.30 1410.35 2507.30 1468.87L2507.30 1468.87Q2507.30 1490.04 2496.09 1516.19L2496.09 1516.19Q2486.13 1539.84 2451.27 1603.34L2451.27 1603.34Q2420.14 1658.13 2397.11 1683.65Q2374.07 1709.18 2352.91 1709.18L2352.91 1709.18ZM2633.06 1986.84Q2595.70 1986.84 2573.29 1940.77L2573.29 1940.77Q2519.75 1833.69 2476.17 1773.93L2476.17 1773.93Q2459.99 1750.27 2459.99 1735.33L2459.99 1735.33Q2459.99 1686.77 2509.79 1686.77L2509.79 1686.77Q2538.43 1686.77 2563.33 1722.88L2563.33 1722.88L2591.97 1763.96Q2644.26 1838.67 2667.30 1876.65Q2690.33 1914.62 2690.33 1930.81L2690.33 1930.81Q2690.33 1986.84 2633.06 1986.84L2633.06 1986.84ZM1915.87 1319.46Q1862.33 1319.46 1862.33 1274.63L1862.33 1274.63Q1862.33 1228.56 1915.87 1228.56L1915.87 1228.56L2314.31 1228.56Q2335.47 1228.56 2351.04 1241.64Q2366.60 1254.71 2366.60 1274.63L2366.60 1274.63Q2366.60 1319.46 2314.31 1319.46L2314.31 1319.46L1915.87 1319.46Z"/>
  </svg>