<svg xmlns="http://www.w3.org/2000/svg" viewBox="0 0 3000 3000" width="3000" height="3000">
    <path fill="#000000" d="M710.77 1432.43L710.77 1394.18L1308.75 1394.18L1308.75 1432.43L710.77 1432.43ZM710.77 1607.10L710.77 1570.13L1308.75 1570.13L1308.75 1607.10L710.77 1607.10ZM714.60 2086.50L714.60 2049.53L1301.10 2049.53L1301.10 2086.50L714.60 2086.50ZM616.42 1257.75L616.42 1219.50L1415.85 1219.50L1415.85 1257.75L616.42 1257.75ZM696.75 2147.70L696.75 1752.45L1318.95 1752.45L1318.95 2143.88L1280.70 2143.88L1280.70 1789.43L733.72 1789.43L733.72 2147.70L696.75 2147.70ZM917.32 1014.22L917.32 1014.22L954.30 1000.20Q982.35 1038.45 1008.49 1083.71Q1034.63 1128.97 1047.38 1162.13L1047.38 1162.13L1009.12 1179.97Q996.37 1146.83 970.24 1100.29Q944.10 1053.75 917.32 1014.22ZM578.17 1001.47L578.17 1001.47L613.87 1010.40Q576.90 1117.50 528.45 1218.86Q480.00 1320.22 423.26 1409.47Q366.52 1498.72 305.32 1570.13L305.32 1570.13Q302.77 1566.30 297.67 1560.56Q292.57 1554.83 286.84 1549.09Q281.10 1543.35 276.00 1539.53L276.00 1539.53Q337.20 1473.22 393.30 1386.53Q449.40 1299.83 496.57 1201.65Q543.75 1103.47 578.17 1001.47ZM454.50 2148.97L454.50 1312.58L488.92 1276.88L491.47 1278.15L491.47 2148.97L454.50 2148.97ZM1729.50 1484.70L1729.50 1447.72L2472.82 1447.72L2472.82 1484.70L1729.50 1484.70ZM2460.07 1455.38L2460.07 1447.72L2467.73 1447.72L2475.38 1445.18L2499.60 1461.75Q2470.28 1514.03 2429.48 1568.85Q2388.68 1623.68 2344.05 1672.13Q2299.43 1720.58 2257.35 1757.55L2257.35 1757.55Q2252.25 1752.45 2243.32 1747.35Q2234.40 1742.25 2228.03 1738.43L2228.03 1738.43Q2270.10 1702.73 2313.45 1654.28Q2356.80 1605.83 2395.69 1553.55Q2434.57 1501.28 2460.07 1455.38L2460.07 1455.38ZM2110.72 1019.33L2145.15 1001.47Q2192.32 1057.57 2259.26 1112.40Q2326.20 1167.22 2403.34 1216.31Q2480.48 1265.40 2560.16 1304.29Q2639.85 1343.18 2713.80 1368.68L2713.80 1368.68Q2708.70 1372.50 2702.96 1378.88Q2697.23 1385.25 2692.76 1390.99Q2688.30 1396.72 2684.48 1403.10L2684.48 1403.10Q2611.80 1376.33 2532.11 1334.89Q2452.43 1293.45 2374.65 1242.45Q2296.88 1191.45 2228.66 1134.71Q2160.45 1077.97 2110.72 1019.33L2110.72 1019.33ZM2132.40 973.42L2132.40 973.42L2173.20 986.17Q2090.32 1123.88 1937.33 1232.89Q1784.33 1341.90 1587.97 1417.13L1587.97 1417.13Q1585.42 1413.30 1580.96 1408.20Q1576.50 1403.10 1570.76 1398Q1565.03 1392.90 1559.92 1389.08L1559.92 1389.08Q1689.97 1339.35 1802.17 1276.24Q1914.38 1213.13 1999.16 1136.63Q2083.95 1060.13 2132.40 973.42ZM1859.55 2032.95L1859.55 1753.73L1897.80 1753.73L1897.80 2034.23Q1897.80 2061 1917.56 2069.29Q1937.33 2077.58 2004.90 2077.58L2004.90 2077.58Q2017.65 2077.58 2051.44 2077.58Q2085.22 2077.58 2129.85 2077.58Q2174.47 2077.58 2219.74 2077.58Q2265 2077.58 2301.98 2077.58Q2338.95 2077.58 2356.80 2077.58L2356.80 2077.58Q2393.78 2077.58 2411.63 2067.38Q2429.48 2057.18 2437.13 2024.66Q2444.78 1992.15 2447.32 1927.13L2447.32 1927.13Q2452.43 1930.95 2458.80 1934.14Q2465.18 1937.33 2472.19 1939.24Q2479.20 1941.15 2484.30 1943.70L2484.30 1943.70Q2481.75 2012.55 2470.91 2050.16Q2460.07 2087.78 2434.57 2101.80Q2409.07 2115.83 2358.07 2115.83L2358.07 2115.83Q2350.43 2115.83 2314.73 2115.83Q2279.03 2115.83 2231.21 2115.83Q2183.40 2115.83 2135.59 2115.83Q2087.78 2115.83 2052.71 2115.83Q2017.65 2115.83 2010 2115.83L2010 2115.83Q1951.35 2115.83 1918.84 2110.09Q1886.33 2104.35 1872.94 2086.50Q1859.55 2068.65 1859.55 2032.95L1859.55 2032.95ZM2018.93 1684.88L2018.93 1684.88L2049.53 1668.30Q2087.78 1706.55 2128.57 1751.81Q2169.38 1797.08 2205.71 1839.79Q2242.05 1882.50 2265 1914.38L2265 1914.38L2231.85 1936.05Q2208.90 1904.18 2173.20 1860.19Q2137.50 1816.20 2097.34 1770.30Q2057.18 1724.40 2018.93 1684.88ZM2467.73 1739.70L2467.73 1739.70L2503.43 1729.50Q2531.48 1783.05 2562.07 1845.53Q2592.68 1908 2620.73 1964.74Q2648.78 2021.48 2666.63 2062.28L2666.63 2062.28L2628.38 2076.30Q2611.80 2035.50 2584.39 1977.49Q2556.98 1919.48 2526.38 1856.36Q2495.78 1793.25 2467.73 1739.70ZM1726.95 1762.65L1726.95 1762.65L1757.55 1772.85Q1743.53 1820.03 1722.49 1877.40Q1701.45 1934.78 1675.95 1989.60Q1650.45 2044.43 1619.85 2085.22L1619.85 2085.22L1587.97 2069.93Q1619.85 2029.13 1645.99 1974.94Q1672.13 1920.75 1692.53 1864.65Q1712.92 1808.55 1726.95 1762.65ZM1910.55 1320.22L1910.55 1281.97L2372.10 1281.97L2372.10 1320.22L1910.55 1320.22Z"/>
  </svg>