<svg xmlns="http://www.w3.org/2000/svg" viewBox="0 0 3000 3000" width="3000" height="3000">
    <path fill="#000000" d="M1508 1957L2026 1937L1992 2195L1528 2205L1508 1957ZM1544 2375L1542 2347L2124 2331Q2152 2329 2176 2325Q2200 2321 2200 2295L2200 2295Q2200 2279 2186 2255Q2172 2231 2142 2203L2142 2203L2194 1923Q2196 1915 2201 1906Q2206 1897 2206 1881L2206 1881Q2206 1875 2197 1854Q2188 1833 2162 1815Q2136 1797 2086 1797L2086 1797L1488 1821Q1440 1801 1406 1793Q1372 1785 1352 1785L1352 1785Q1314 1785 1314 1815L1314 1815Q1314 1821 1317 1828Q1320 1835 1322 1843L1322 1843Q1346 1889 1352 1941L1352 1941L1380 2221Q1382 2229 1382 2235Q1382 2241 1382 2249L1382 2249Q1382 2269 1380 2289Q1378 2309 1376 2335L1376 2335L1376 2345Q1376 2377 1399 2396Q1422 2415 1449 2425Q1476 2435 1492 2435L1492 2435Q1544 2435 1544 2381L1544 2381L1544 2375ZM1500 1683L1500 1683L2162 1649Q2180 1647 2198 1639Q2216 1631 2216 1609Q2216 1587 2193 1562Q2170 1537 2143 1520Q2116 1503 2096 1503L2096 1503Q2084 1503 2076 1505L2076 1505Q2058 1511 2042 1515Q2026 1519 2006 1521L2006 1521L1446 1551L1430 1551Q1404 1551 1381 1547Q1358 1543 1340 1539L1340 1539Q1334 1537 1324 1537L1324 1537Q1302 1537 1302 1559L1302 1559Q1302 1569 1304 1575L1304 1575Q1334 1653 1370 1669Q1406 1685 1434 1685L1434 1685Q1450 1685 1466 1684Q1482 1683 1500 1683ZM1500 1431L1500 1431L2160 1397Q2214 1391 2214 1357L2214 1357Q2214 1337 2193 1312Q2172 1287 2145 1269Q2118 1251 2096 1251L2096 1251Q2084 1251 2076 1253L2076 1253Q2058 1259 2042 1263Q2026 1267 2006 1269L2006 1269L1446 1299L1430 1299Q1404 1299 1381 1295Q1358 1291 1340 1287L1340 1287Q1334 1285 1324 1285L1324 1285Q1302 1285 1302 1307L1302 1307Q1302 1317 1304 1323L1304 1323Q1334 1401 1370 1417Q1406 1433 1434 1433L1434 1433Q1450 1433 1466 1432Q1482 1431 1500 1431ZM1326 1175L1326 1175L2348 1115Q2372 1113 2389 1105Q2406 1097 2406 1077Q2406 1057 2385 1032Q2364 1007 2336 985Q2308 963 2284 963L2284 963Q2278 963 2273 964Q2268 965 2264 969L2264 969Q2232 981 2194 983L2194 983L1270 1039L1254 1039Q1228 1039 1205 1035Q1182 1031 1164 1027L1164 1027Q1158 1025 1148 1025L1148 1025Q1126 1025 1126 1047L1126 1047Q1126 1057 1128 1063L1128 1063Q1156 1141 1192 1160Q1228 1179 1260 1179L1260 1179Q1276 1179 1293 1178Q1310 1177 1326 1175ZM1926 957L1926 957Q1956 957 1973 920Q1990 883 1990 861L1990 861Q1990 825 1938 803L1938 803Q1864 769 1774 737Q1684 705 1592 679L1592 679Q1572 673 1558 673L1558 673Q1524 673 1506 721L1506 721Q1500 741 1500 755L1500 755Q1500 789 1546 807L1546 807Q1628 835 1715 869Q1802 903 1882 943L1882 943Q1910 957 1926 957ZM862 1415L886 1383L878 2217Q878 2247 876 2273Q874 2299 868 2325L868 2325Q866 2333 866 2347L866 2347Q866 2387 895 2409Q924 2431 952 2439Q980 2447 984 2447L984 2447Q1030 2447 1030 2395L1030 2395L1030 1169Q1062 1113 1098 1042Q1134 971 1167 902Q1200 833 1219 784Q1238 735 1238 723L1238 723Q1238 695 1207 674Q1176 653 1143 639Q1110 625 1096 625L1096 625Q1060 625 1060 657L1060 657Q1060 663 1061 664Q1062 665 1062 667L1062 667Q1064 675 1065 681Q1066 687 1066 695L1066 695Q1066 711 1063 726Q1060 741 1056 753L1056 753Q1008 883 932 1034Q856 1185 763 1336Q670 1487 572 1613L572 1613Q544 1651 544 1675L544 1675Q544 1701 568 1701L568 1701Q590 1701 627 1670Q664 1639 705 1595Q746 1551 788 1503Q830 1455 862 1415L862 1415Z"/>
  </svg>