<svg xmlns="http://www.w3.org/2000/svg" viewBox="0 0 3000 3000" width="3000" height="3000">
    <path fill="#000000" d="M984.90 1695.08L984.90 1695.08Q1006.57 1689.97 1061.40 1691.25Q1116.22 1692.53 1137.90 1698.90L1137.90 1698.90Q1160.85 1704 1166.59 1703.36Q1172.32 1702.72 1178.70 1696.35L1178.70 1696.35Q1186.35 1688.70 1190.17 1688.70Q1194 1688.70 1202.92 1695.08L1202.92 1695.08Q1222.05 1706.55 1269.22 1728.22L1269.22 1728.22Q1288.35 1735.88 1297.27 1757.55L1297.27 1757.55Q1315.13 1795.80 1285.80 1813.65L1285.80 1813.65Q1265.40 1828.95 1245.64 1848.08Q1225.88 1867.20 1225.88 1873.58L1225.88 1873.58Q1225.88 1879.95 1216.95 1879.95L1216.95 1879.95Q1208.02 1879.95 1190.17 1890.79Q1172.32 1901.63 1172.32 1906.72Q1172.32 1911.83 1182.52 1914.38L1182.52 1914.38Q1209.30 1923.30 1210.57 1974.30Q1211.85 2025.30 1185.07 2035.50L1185.07 2035.50Q1177.42 2039.33 1162.13 2031.67L1162.13 2031.67Q1131.52 2017.65 1055.02 2012.55Q978.52 2007.45 956.85 2018.92L956.85 2018.92Q947.92 2024.03 944.74 2039.96Q941.55 2055.90 937.09 2055.90Q932.62 2055.90 905.85 2031.67L905.85 2031.67Q879.07 2007.45 852.30 1953.90Q825.52 1900.35 810.22 1840.42L810.22 1840.42Q796.20 1784.33 808.95 1784.33L808.95 1784.33Q815.32 1784.33 814.05 1774.76Q812.77 1765.20 812.77 1757.55L812.77 1757.55Q815.32 1744.80 865.69 1726.31Q916.05 1707.83 984.90 1695.08ZM1095.82 1760.10L1095.82 1760.10Q960.67 1747.35 944.10 1763.92L944.10 1763.92Q940.27 1767.75 923.70 1767.75L923.70 1767.75Q907.12 1767.75 892.46 1776.67Q877.80 1785.60 877.80 1797.08L877.80 1797.08Q877.80 1813.65 894.37 1855.72Q910.95 1897.80 923.70 1911.83L923.70 1911.83Q930.07 1918.20 977.25 1911.83L977.25 1911.83Q1016.77 1908 1035.90 1897.80Q1055.02 1887.60 1077.97 1859.55L1077.97 1859.55Q1094.55 1841.70 1114.31 1808.55Q1134.07 1775.40 1134.07 1767.75L1134.07 1767.75Q1134.07 1763.92 1095.82 1760.10ZM983.62 1529.32L983.62 1529.32Q1020.60 1514.03 1052.47 1514.03L1052.47 1514.03Q1093.27 1515.30 1110.49 1526.14Q1127.70 1536.97 1131.52 1566.30L1131.52 1566.30Q1134.07 1590.53 1123.88 1602Q1113.67 1613.47 1102.84 1610.29Q1092 1607.10 1084.35 1612.20L1084.35 1612.20Q1072.88 1622.40 951.75 1623.67L951.75 1623.67Q927.52 1623.67 917.96 1621.76Q908.40 1619.85 896.92 1610.92L896.92 1610.92Q884.17 1600.72 882.90 1596.90Q881.62 1593.07 885.45 1586.70L885.45 1586.70Q894.37 1577.78 894.37 1570.13L894.37 1570.13Q894.37 1559.92 983.62 1529.32ZM1060.13 1352.10L1060.13 1352.10Q1062.67 1349.55 1075.42 1350.82Q1088.17 1352.10 1106.66 1354.65Q1125.15 1357.20 1131.52 1359.75L1131.52 1359.75Q1155.75 1369.95 1165.95 1398L1165.95 1398Q1172.32 1412.03 1162.13 1427.32L1162.13 1427.32Q1154.47 1440.07 1148.74 1442.63Q1143 1445.17 1122.60 1443.90L1122.60 1443.90Q1094.55 1442.63 1081.16 1453.46Q1067.77 1464.30 1058.85 1460.47L1058.85 1460.47Q1006.57 1447.72 983.62 1463.03L983.62 1463.03L964.50 1474.50L932.62 1463.03Q893.10 1449 886.09 1441.35Q879.07 1433.70 889.27 1413.30L889.27 1413.30Q899.47 1390.35 1019.32 1364.85L1019.32 1364.85Q1060.13 1355.92 1060.13 1352.10ZM689.10 1028.25L689.10 1028.25Q706.95 1011.67 713.96 1007.85Q720.97 1004.02 732.45 1007.85L732.45 1007.85Q763.05 1011.67 787.27 1049.92L787.27 1049.92Q797.47 1066.50 793.65 1104.75L793.65 1104.75Q788.55 1134.07 783.45 1144.27Q778.35 1154.47 766.87 1154.47L766.87 1154.47Q755.40 1154.47 710.14 1209.94Q664.87 1265.40 664.87 1279.42L664.87 1279.42Q664.87 1283.25 640.65 1313.85L640.65 1313.85L617.70 1345.72L653.40 1368.67Q684.00 1389.07 689.74 1398.64Q695.47 1408.20 699.30 1442.63L699.30 1442.63Q704.40 1475.77 702.49 1493.63Q700.57 1511.47 689.10 1544.63L689.10 1544.63Q676.35 1584.15 673.80 1596.90L673.80 1596.90Q672.52 1607.10 668.06 1680.41Q663.60 1753.72 663.60 1767.75L663.60 1767.75Q668.70 1874.85 673.80 1879.95L673.80 1879.95Q675.07 1885.05 675.71 1923.94Q676.35 1962.83 686.55 1984.50L686.55 1984.50Q696.75 2002.35 696.11 2008.09Q695.47 2013.83 684.00 2029.13L684.00 2029.13Q663.60 2053.35 632.36 2062.91Q601.12 2072.47 578.17 2061L578.17 2061Q566.70 2055.90 553.31 2028.49Q539.92 2001.08 531.00 1969.20L531.00 1969.20Q524.62 1943.70 533.55 1933.50Q542.47 1923.30 542.47 1915.65Q542.47 1908 550.12 1888.88Q557.77 1869.75 557.77 1839.15Q557.77 1808.55 566.06 1770.94Q574.35 1733.33 574.35 1598.17Q574.35 1463.03 580.09 1440.71Q585.82 1418.40 584.55 1404.38L584.55 1404.38Q582.00 1403.10 580.09 1401.19Q578.17 1399.28 565.42 1410.75Q552.67 1422.22 535.46 1439.44Q518.25 1456.65 485.10 1492.35L485.10 1492.35Q450.67 1529.32 418.16 1554.82Q385.65 1580.32 376.72 1589.25L376.72 1589.25Q334.65 1636.42 310.42 1642.80L310.42 1642.80Q300.22 1645.35 298.31 1644.08Q296.40 1642.80 298.95 1633.88L298.95 1633.88Q307.87 1608.38 380.55 1522.95L380.55 1522.95Q467.25 1423.50 553.95 1278.15L553.95 1278.15Q576.90 1237.35 620.89 1151.29Q664.87 1065.22 664.87 1058.85L664.87 1058.85Q664.87 1055.02 689.10 1028.25ZM931.35 1019.32L931.35 1019.32Q941.55 1002.75 952.39 1000.84Q963.22 998.92 987.45 1007.85L987.45 1007.85Q1007.85 1014.22 1035.26 1029.52Q1062.67 1044.82 1070.32 1053.75L1070.32 1053.75Q1088.17 1075.42 1095.82 1118.14Q1103.47 1160.85 1088.17 1167.22L1088.17 1167.22Q1081.80 1169.77 1081.80 1179.97L1081.80 1179.97Q1081.80 1188.90 1100.29 1190.17Q1118.77 1191.45 1224.60 1191.45L1224.60 1191.45Q1344.45 1190.17 1374.41 1195.27Q1404.38 1200.38 1417.13 1220.77L1417.13 1220.77Q1427.32 1236.07 1427.96 1260.94Q1428.60 1285.80 1419.67 1292.17L1419.67 1292.17Q1410.75 1299.82 1410.75 1307.47L1410.75 1307.47Q1410.75 1315.13 1398.64 1317.04Q1386.52 1318.95 1369.31 1311.30Q1352.10 1303.65 1339.35 1293.45L1339.35 1293.45Q1316.40 1271.78 1216.95 1260.30Q1117.50 1248.82 1041 1260.30L1041 1260.30L955.57 1271.78Q812.77 1292.17 782.17 1335.53L782.17 1335.53Q768.15 1353.38 754.12 1349.55L754.12 1349.55Q738.82 1347 717.79 1331.70Q696.75 1316.40 696.75 1308.75L696.75 1308.75Q696.75 1292.17 707.59 1284.53Q718.42 1276.88 759.22 1260.30L759.22 1260.30Q856.12 1223.32 947.92 1213.13L947.92 1213.13Q997.65 1208.02 1000.84 1204.84Q1004.02 1201.65 986.81 1184.44Q969.60 1167.22 969.60 1159.57Q969.60 1151.92 951.11 1109.85Q932.62 1067.77 927.52 1061.40L927.52 1061.40Q914.77 1048.65 931.35 1019.32ZM2201.25 1765.20L2201.25 1765.20Q2203.80 1760.10 2222.29 1760.10Q2240.78 1760.10 2259.90 1777.95L2259.90 1777.95Q2294.32 1809.83 2367 1853.17L2367 1853.17Q2403.98 1876.13 2416.09 1886.33Q2428.20 1896.53 2434.57 1909.28L2434.57 1909.28Q2446.05 1930.95 2446.05 1940.51Q2446.05 1950.08 2454.98 1964.10L2454.98 1964.10Q2479.20 2003.63 2460.07 2040.60L2460.07 2040.60Q2437.13 2083.95 2405.25 2100.53L2405.25 2100.53Q2389.95 2106.90 2350.43 2115.82L2350.43 2115.82Q2312.18 2123.47 2227.39 2121.56Q2142.60 2119.65 2115.82 2110.72L2115.82 2110.72Q2099.25 2104.35 2061.64 2081.40Q2024.03 2058.45 2013.83 2048.25L2013.83 2048.25Q2006.18 2043.15 1987.05 2025.30L1987.05 2025.30Q1961.55 2004.90 1950.71 1992.79Q1939.88 1980.67 1920.75 1950.08L1920.75 1950.08Q1882.50 1888.88 1878.67 1849.35L1878.67 1849.35Q1877.40 1825.13 1885.05 1823.85L1885.05 1823.85Q1891.43 1822.58 1907.36 1834.69Q1923.30 1846.80 1923.30 1854.45L1923.30 1854.45Q1923.30 1862.10 1927.13 1862.10Q1930.95 1862.10 1959 1888.88L1959 1888.88Q1998.53 1925.85 2075.03 1962.83L2075.03 1962.83Q2092.88 1973.03 2105.63 1975.58Q2118.38 1978.13 2150.25 1978.13L2150.25 1978.13Q2196.15 1978.13 2224.20 1973.03L2224.20 1973.03Q2281.57 1961.55 2309.63 1936.05L2309.63 1936.05Q2319.82 1925.85 2312.18 1920.75L2312.18 1920.75Q2307.07 1916.92 2280.94 1885.69Q2254.80 1854.45 2236.95 1830.22L2236.95 1830.22Q2196.15 1772.85 2201.25 1765.20ZM1707.83 1821.30L1707.83 1821.30Q1720.58 1798.35 1720.58 1789.42Q1720.58 1780.50 1742.25 1750.54Q1763.92 1720.58 1769.03 1721.85L1769.03 1721.85Q1779.22 1725.67 1785.60 1759.46Q1791.97 1793.25 1793.25 1841.70L1793.25 1841.70Q1798.35 1906.72 1800.90 1922.66Q1803.45 1938.60 1792.61 1953.90Q1781.78 1969.20 1776.04 1978.76Q1770.30 1988.33 1756.28 1995.97L1756.28 1995.97Q1749.90 2001.08 1744.80 2001.08Q1739.70 2001.08 1726.95 1994.70L1726.95 1994.70Q1710.38 1985.78 1702.09 1973.03Q1693.80 1960.28 1692.53 1934.78L1692.53 1934.78Q1683.60 1868.47 1707.83 1821.30ZM2154.07 1702.72L2154.07 1702.72Q2199.97 1682.33 2213.36 1679.14Q2226.75 1675.95 2230.57 1684.88L2230.57 1684.88Q2240.78 1711.65 2163 1770.30L2163 1770.30Q2141.32 1786.88 2133.68 1795.16Q2126.03 1803.45 2124.75 1812.38L2124.75 1812.38Q2123.47 1827.67 2110.72 1837.88Q2097.97 1848.08 2080.13 1848.08L2080.13 1848.08Q2066.10 1848.08 2059.72 1844.25Q2053.35 1840.42 2034.22 1822.58L2034.22 1822.58Q1989.60 1775.40 1974.30 1752.45L1974.30 1752.45Q1966.65 1742.25 1966.01 1721.85Q1965.38 1701.45 1970.47 1696.35L1970.47 1696.35Q1981.95 1689.97 2010 1695.71Q2038.05 1701.45 2058.45 1711.65L2058.45 1711.65Q2082.68 1725.67 2089.05 1725.67Q2095.43 1725.67 2154.07 1702.72ZM2314.73 1627.50L2314.73 1627.50Q2319.82 1618.58 2333.21 1621.13Q2346.60 1623.67 2377.20 1626.22Q2407.80 1628.78 2441.59 1645.99Q2475.38 1663.20 2484.30 1663.20Q2493.23 1663.20 2516.18 1684.88L2516.18 1684.88L2540.40 1706.55L2535.30 1739.70Q2532.75 1771.58 2525.10 1781.78L2525.10 1781.78Q2514.90 1799.63 2486.21 1808.55Q2457.53 1817.47 2437.13 1808.55L2437.13 1808.55Q2430.75 1806 2402.06 1769.66Q2373.38 1733.33 2344.05 1702.72L2344.05 1702.72Q2300.70 1655.55 2314.73 1627.50ZM2039.33 1386.53L2119.65 1375.05Q2157.90 1369.95 2161.09 1369.31Q2164.28 1368.67 2185.95 1374.41Q2207.63 1380.15 2228.66 1383.34Q2249.70 1386.53 2257.35 1395.45L2257.35 1395.45Q2271.38 1405.65 2265 1439.44Q2258.63 1473.22 2240.78 1489.80L2240.78 1489.80Q2231.85 1496.17 2221.65 1517.85L2221.65 1517.85L2207.63 1554.82Q2199.97 1568.85 2196.79 1582.24Q2193.60 1595.63 2178.94 1609.01Q2164.28 1622.40 2141.32 1646.63L2141.32 1646.63Q2123.47 1663.20 2118.38 1665.75Q2113.28 1668.30 2101.80 1664.47L2101.80 1664.47Q2086.50 1658.10 2072.47 1665.75L2072.47 1665.75Q2062.28 1670.85 2059.09 1669.58Q2055.90 1668.30 2041.88 1653L2041.88 1653Q2025.30 1635.15 2022.75 1619.21Q2020.20 1603.28 2031.68 1577.78L2031.68 1577.78Q2044.43 1552.28 2048.25 1552.28L2048.25 1552.28Q2052.07 1552.28 2073.11 1510.84Q2094.15 1469.40 2099.25 1454.10L2099.25 1454.10Q2099.25 1451.55 2099.25 1449.64Q2099.25 1447.72 2096.06 1446.45Q2092.88 1445.17 2088.41 1444.54Q2083.95 1443.90 2075.03 1443.90L2075.03 1443.90Q2050.80 1443.90 2017.65 1449.64Q1984.50 1455.38 1979.40 1459.20L1979.40 1459.20Q1974.30 1463.03 1955.18 1468.76Q1936.05 1474.50 1912.46 1488.52Q1888.88 1502.55 1878.67 1502.55L1878.67 1502.55Q1855.72 1502.55 1851.90 1478.32Q1848.08 1454.10 1871.03 1441.35L1871.03 1441.35Q1899.08 1428.60 1955.81 1410.11Q2012.55 1391.63 2039.33 1386.53L2039.33 1386.53ZM1965.38 1224.60L1965.38 1224.60Q1975.58 1215.67 2033.59 1237.99Q2091.60 1260.30 2095.43 1276.88L2095.43 1276.88Q2100.53 1293.45 2096.70 1321.50Q2092.88 1349.55 2083.95 1358.47L2083.95 1358.47Q2077.57 1366.13 2064.19 1367.40Q2050.80 1368.67 2038.05 1362.30L2038.05 1362.30Q2020.20 1352.10 1991.51 1308.11Q1962.83 1264.13 1962.83 1246.28L1962.83 1246.28Q1962.83 1228.42 1965.38 1224.60ZM2039.33 945.38L2039.33 945.38Q2045.70 944.10 2057.81 950.47Q2069.93 956.85 2085.86 966.41Q2101.80 975.97 2104.35 992.55L2104.35 992.55Q2113.28 1032.07 2091.60 1052.47L2091.60 1052.47Q2069.93 1071.60 2087.78 1071.60L2087.78 1071.60Q2099.25 1071.60 2140.69 1102.20Q2182.13 1132.80 2217.82 1168.50L2217.82 1168.50Q2265 1214.40 2286.04 1229.06Q2307.07 1243.72 2309.63 1246.28L2309.63 1246.28Q2313.45 1252.65 2335.76 1266.67Q2358.07 1280.70 2363.18 1280.70L2363.18 1280.70Q2365.73 1280.70 2411.63 1306.84Q2457.53 1332.97 2476.65 1338.07Q2495.78 1343.17 2519.36 1359.11Q2542.95 1375.05 2577.38 1386.53L2577.38 1386.53Q2611.80 1400.55 2621.36 1410.75Q2630.93 1420.95 2627.10 1440.07L2627.10 1440.07Q2624.55 1460.47 2615.63 1467.49Q2606.70 1474.50 2582.48 1477.05L2582.48 1477.05Q2559.53 1479.60 2531.48 1494.90L2531.48 1494.90Q2507.25 1506.38 2490.04 1505.74Q2472.82 1505.10 2443.50 1491.07L2443.50 1491.07Q2406.53 1471.95 2377.20 1447.09Q2347.88 1422.22 2275.20 1350.82L2275.20 1350.82Q2215.28 1290.90 2154.07 1214.40L2154.07 1214.40Q2129.85 1181.25 2101.80 1154.47Q2073.75 1127.70 2058.45 1122.60L2058.45 1122.60Q2045.70 1117.50 2036.78 1122.60L2036.78 1122.60Q2015.10 1132.80 1981.95 1181.25L1981.95 1181.25Q1969.20 1200.38 1966.65 1202.92Q1964.10 1205.47 1955.18 1220.77Q1946.25 1236.07 1929.04 1247.55Q1911.83 1259.03 1906.72 1274.32L1906.72 1274.32Q1892.70 1304.92 1772.85 1412.03L1772.85 1412.03Q1693.80 1482.15 1661.92 1492.35L1661.92 1492.35Q1651.72 1493.63 1649.81 1492.35Q1647.90 1491.07 1647.90 1482.15L1647.90 1482.15Q1647.90 1471.95 1661.92 1454.74Q1675.95 1437.53 1700.17 1409.47L1700.17 1409.47L1747.35 1350.82Q1828.95 1253.92 1886.33 1157.02L1886.33 1157.02Q1891.43 1148.10 1919.47 1106.02Q1947.53 1063.95 1947.53 1061.40Q1947.53 1058.85 1962.19 1038.45Q1976.85 1018.05 1976.85 1012.31Q1976.85 1006.57 2004.26 977.25Q2031.68 947.92 2039.33 945.38Z"/>
  </svg>