<svg xmlns="http://www.w3.org/2000/svg" viewBox="0 0 3000 3000" width="3000" height="3000">
    <path fill="#000000" d="M941.41 2392.58Q863.28 2392.58 863.28 2296.88L863.28 2296.88L863.28 1373.05Q722.66 1626.95 681.64 1626.95L681.64 1626.95Q607.42 1626.95 607.42 1539.06L607.42 1539.06Q607.42 1505.86 681.64 1390.63L681.64 1390.63Q863.28 1101.56 988.28 707.03L988.28 707.03Q1003.91 656.25 1025.39 632.81Q1046.88 609.38 1078.13 609.38L1078.13 609.38Q1167.97 609.38 1167.97 685.55L1167.97 685.55Q1167.97 712.89 1021.48 1046.88L1021.48 1046.88L1021.48 2296.88Q1021.48 2392.58 941.41 2392.58L941.41 2392.58ZM1404.30 2333.98Q1310.55 2333.98 1268.55 2294.92Q1226.56 2255.86 1230.47 2169.92L1230.47 2169.92L1230.47 1958.98Q1230.47 1871.09 1272.46 1831.05Q1314.45 1791.02 1404.30 1796.88L1404.30 1796.88L2123.05 1796.88Q2214.84 1796.88 2257.81 1834.96Q2300.78 1873.05 2296.88 1958.98L2296.88 1958.98L2296.88 2169.92Q2296.88 2259.77 2255.86 2299.80Q2214.84 2339.84 2123.05 2333.98L2123.05 2333.98L1404.30 2333.98ZM2064.45 2189.45Q2130.86 2189.45 2134.77 2121.09L2134.77 2121.09L2134.77 2005.86Q2134.77 1941.41 2064.45 1937.50L2064.45 1937.50L1462.89 1937.50Q1396.48 1937.50 1392.58 2005.86L1392.58 2005.86L1392.58 2121.09Q1392.58 2154.30 1411.13 2171.88Q1429.69 2189.45 1462.89 2189.45L1462.89 2189.45L2064.45 2189.45ZM1335.94 1669.92Q1255.86 1669.92 1255.86 1595.70L1255.86 1595.70Q1255.86 1521.48 1335.94 1521.48L1335.94 1521.48L2191.41 1521.48Q2271.48 1521.48 2271.48 1595.70L2271.48 1595.70Q2271.48 1669.92 2191.41 1669.92L2191.41 1669.92L1335.94 1669.92ZM1335.94 1394.53Q1255.86 1394.53 1255.86 1320.31L1255.86 1320.31Q1255.86 1246.09 1335.94 1246.09L1335.94 1246.09L2191.41 1246.09Q2271.48 1246.09 2271.48 1320.31L2271.48 1320.31Q2271.48 1394.53 2191.41 1394.53L2191.41 1394.53L1335.94 1394.53ZM1179.69 1115.23Q1085.94 1115.23 1085.94 1041.02L1085.94 1041.02Q1085.94 962.89 1179.69 962.89L1179.69 962.89L2302.73 962.89Q2394.53 962.89 2394.53 1041.02L2394.53 1041.02Q2394.53 1115.23 2302.73 1115.23L2302.73 1115.23L1179.69 1115.23ZM1337.89 835.94Q1255.86 835.94 1255.86 761.72L1255.86 761.72Q1255.86 687.50 1337.89 687.50L1337.89 687.50L2189.45 687.50Q2271.48 687.50 2271.48 761.72L2271.48 761.72Q2271.48 835.94 2189.45 835.94L2189.45 835.94L1337.89 835.94Z"/>
  </svg>