<svg xmlns="http://www.w3.org/2000/svg" viewBox="0 0 3000 3000" width="3000" height="3000">
    <path fill="#000000" d="M822 922L872 904Q980 1168 1134 1409Q1288 1650 1483 1856Q1678 2062 1908 2218Q2138 2374 2396 2466L2396 2466Q2390 2472 2382 2480Q2374 2488 2366 2497Q2358 2506 2352 2514L2352 2514Q2092 2418 1862 2259Q1632 2100 1438 1892Q1244 1684 1089 1438Q934 1192 822 922L822 922ZM2114 856L2114 856L2170 878Q2068 1158 1928 1403Q1788 1648 1602 1853Q1416 2058 1174 2221Q932 2384 626 2502L626 2502Q620 2492 609 2479Q598 2466 588 2458L588 2458Q894 2344 1134 2182Q1374 2020 1559 1817Q1744 1614 1880 1373Q2016 1132 2114 856ZM1384 726L1384 726L1432 700Q1468 774 1506 860Q1544 946 1575 1028Q1606 1110 1624 1174L1624 1174L1572 1202Q1556 1136 1524 1054Q1492 972 1456 886Q1420 800 1384 726Z"/>
  </svg>