<svg xmlns="http://www.w3.org/2000/svg" viewBox="0 0 3000 3000" width="3000" height="3000">
    <path fill="#000000" d="M353.25 1996.80Q295.97 1996.80 295.97 1945.75L295.97 1945.75Q295.97 1894.70 353.25 1894.70L353.25 1894.70L492.70 1894.70L492.70 1379.22Q492.70 1313.23 546.24 1313.23L546.24 1313.23Q599.78 1313.23 599.78 1379.22L599.78 1379.22L599.78 1894.70L852.54 1894.70L852.54 1106.54L396.83 1106.54Q334.57 1106.54 334.57 1055.49L334.57 1055.49Q334.57 1004.44 396.83 1004.44L396.83 1004.44L1325.68 1004.44Q1389.18 1004.44 1389.18 1055.49L1389.18 1055.49Q1389.18 1106.54 1325.68 1106.54L1325.68 1106.54L957.13 1106.54L957.13 1410.35L1272.14 1410.35Q1335.64 1410.35 1335.64 1461.40L1335.64 1461.40Q1335.64 1512.45 1272.14 1512.45L1272.14 1512.45L957.13 1512.45L957.13 1894.70L1365.53 1894.70Q1429.03 1894.70 1429.03 1945.75L1429.03 1945.75Q1429.03 1996.80 1365.53 1996.80L1365.53 1996.80L353.25 1996.80ZM1768.95 2067.77Q1719.14 2067.77 1719.14 2020.46L1719.14 2020.46Q1719.14 1975.63 1768.95 1975.63L1768.95 1975.63L1822.49 1975.63Q1866.06 1975.63 1868.55 1929.57L1868.55 1929.57L1868.55 1873.54L1622.02 1899.68Q1602.10 1900.93 1590.89 1890.34Q1579.69 1879.76 1579.69 1857.35L1579.69 1857.35Q1579.69 1821.24 1615.80 1815.01L1615.80 1815.01L1868.55 1790.11L1868.55 1699.22L1620.78 1699.22Q1574.71 1699.22 1574.71 1658.13L1574.71 1658.13Q1574.71 1617.04 1620.78 1617.04L1620.78 1617.04L1868.55 1617.04L1868.55 1526.15L1959.45 1516.19L1959.45 1617.04L2243.33 1617.04Q2233.37 1543.58 2233.37 1497.51L2233.37 1497.51Q2233.37 1442.72 2281.93 1442.72L2281.93 1442.72Q2329.25 1442.72 2329.25 1488.79L2329.25 1488.79L2328.00 1551.05L2335.47 1617.04L2651.73 1617.04Q2700.29 1617.04 2700.29 1658.13L2700.29 1658.13Q2700.29 1699.22 2651.73 1699.22L2651.73 1699.22L2349.17 1699.22Q2364.11 1758.98 2396.48 1818.75L2396.48 1818.75L2398.97 1818.75Q2450.02 1785.13 2483.64 1752.76L2483.64 1752.76Q2506.05 1731.59 2523.49 1731.59L2523.49 1731.59Q2567.07 1731.59 2567.07 1770.19L2567.07 1770.19Q2567.07 1800.07 2446.29 1881.01L2446.29 1881.01L2446.29 1883.50Q2525.98 1966.92 2584.50 1966.92L2584.50 1966.92Q2613.13 1966.92 2621.85 1883.50L2621.85 1883.50Q2628.08 1838.67 2664.18 1838.67L2664.18 1838.67Q2705.27 1838.67 2705.27 1882.25L2705.27 1882.25Q2705.27 1943.26 2675.39 2005.52L2675.39 2005.52Q2648.00 2062.79 2591.97 2062.79L2591.97 2062.79Q2488.62 2062.79 2370.34 1929.57L2370.34 1929.57Q2172.36 2037.89 2096.41 2037.89L2096.41 2037.89Q2056.57 2037.89 2056.57 1990.58L2056.57 1990.58Q2056.57 1965.67 2142.48 1939.53L2142.48 1939.53Q2232.13 1912.13 2316.80 1867.31L2316.80 1867.31L2320.53 1863.57Q2280.69 1800.07 2259.52 1699.22L2259.52 1699.22L1959.45 1699.22L1959.45 1780.15L2135.01 1760.23Q2156.18 1757.74 2166.76 1768.95Q2177.34 1780.15 2177.34 1800.07L2177.34 1800.07Q2177.34 1837.43 2112.60 1842.41L2112.60 1842.41L1959.45 1861.08L1959.45 1955.71Q1959.45 2015.48 1932.06 2042.87Q1904.66 2070.26 1842.41 2067.77L1842.41 2067.77L1768.95 2067.77ZM1676.81 1558.52Q1658.13 1559.77 1647.55 1549.80Q1636.96 1539.84 1636.96 1519.92L1636.96 1519.92Q1636.96 1502.49 1656.26 1494.40Q1675.56 1486.30 1715.41 1483.81L1715.41 1483.81Q1964.43 1468.87 2054.08 1451.44L2054.08 1451.44L2086.45 1446.46Q2106.37 1443.97 2116.33 1454.55Q2126.29 1465.14 2126.29 1486.30L2126.29 1486.30Q2126.29 1509.96 2092.68 1519.92L2092.68 1519.92L1978.13 1536.11L1940.77 1537.35L1888.48 1544.82L1676.81 1558.52ZM1622.02 1426.54Q1572.22 1426.54 1572.22 1385.45L1572.22 1385.45Q1572.22 1344.36 1618.29 1344.36L1618.29 1344.36L2085.21 1344.36L2085.21 1267.16L1731.59 1267.16Q1688.01 1267.16 1688.01 1228.56L1688.01 1228.56Q1688.01 1191.21 1731.59 1191.21L1731.59 1191.21L2085.21 1191.21L2085.21 1125.22L1650.66 1125.22Q1604.59 1125.22 1604.59 1084.13L1604.59 1084.13Q1604.59 1043.04 1650.66 1043.04L1650.66 1043.04L2624.34 1043.04Q2669.17 1043.04 2669.17 1084.13L2669.17 1084.13Q2669.17 1125.22 2624.34 1125.22L2624.34 1125.22L2181.08 1125.22L2181.08 1191.21L2543.41 1191.21Q2585.74 1191.21 2585.74 1229.81L2585.74 1229.81Q2585.74 1267.16 2543.41 1267.16L2543.41 1267.16L2181.08 1267.16L2181.08 1344.36L2655.47 1344.36Q2702.78 1344.36 2702.78 1385.45L2702.78 1385.45Q2702.78 1426.54 2655.47 1426.54L2655.47 1426.54L1622.02 1426.54ZM1913.38 1076.66Q1890.97 1036.82 1876.65 1008.80Q1862.33 980.79 1862.33 973.32L1862.33 973.32Q1862.33 934.72 1910.89 934.72L1910.89 934.72Q1956.96 934.72 2017.97 1074.17L2017.97 1074.17L1913.38 1076.66ZM2534.69 1598.36Q2517.26 1598.36 2469.95 1551.05L2469.95 1551.05Q2425.12 1506.23 2425.12 1488.79L2425.12 1488.79Q2425.12 1448.95 2472.44 1448.95L2472.44 1448.95Q2501.07 1448.95 2543.41 1490.04L2543.41 1490.04Q2585.74 1532.37 2585.74 1553.54L2585.74 1553.54Q2585.74 1598.36 2534.69 1598.36L2534.69 1598.36ZM2341.70 1074.17L2253.30 1061.72L2278.20 998.22Q2304.35 932.23 2344.19 932.23L2344.19 932.23Q2393.99 932.23 2393.99 973.32L2393.99 973.32Q2393.99 989.50 2341.70 1074.17L2341.70 1074.17Z"/>
  </svg>