<svg xmlns="http://www.w3.org/2000/svg" viewBox="0 0 3000 3000" width="3000" height="3000">
    <path fill="#000000" d="M429.00 1065.22L429.00 1065.22L487.65 1072.88L1160.85 1033.35Q1200.38 1030.80 1216.31 1025.70Q1232.25 1020.60 1243.09 1020.60Q1253.92 1020.60 1272.41 1032.71Q1290.90 1044.83 1304.92 1060.76Q1318.95 1076.70 1318.95 1086.90L1318.95 1086.90Q1318.95 1102.20 1285.80 1104.75L1285.80 1104.75L928.80 1125.15L930.07 1450.28L1100.92 1440.08Q1148.10 1436.25 1162.76 1431.15Q1177.42 1426.05 1190.81 1426.05Q1204.20 1426.05 1222.69 1439.44Q1241.17 1452.83 1253.92 1468.76Q1266.67 1484.70 1266.67 1492.35L1266.67 1492.35Q1266.67 1508.93 1234.80 1511.47L1234.80 1511.47L931.35 1529.33L932.62 1879.95L1296.00 1869.75Q1325.32 1869.75 1346.36 1863.38Q1367.40 1857 1378.88 1857Q1390.35 1857 1408.20 1871.03Q1426.05 1885.05 1439.44 1901.63Q1452.82 1918.20 1452.82 1925.85L1452.82 1925.85Q1452.82 1942.43 1420.95 1944.98L1420.95 1944.98L369.07 1975.58Q318.07 1975.58 298.95 1936.05L298.95 1936.05Q287.47 1916.93 283.65 1897.80L283.65 1897.80Q283.65 1890.15 290.02 1890.15Q296.40 1890.15 312.34 1893.98Q328.27 1897.80 356.32 1897.80L356.32 1897.80L384.37 1896.53L550.12 1891.43L538.65 1395.45Q538.65 1358.47 519.52 1330.43L519.52 1330.43Q514.42 1321.50 514.42 1316.40L514.42 1316.40Q514.42 1307.47 527.17 1307.47Q539.92 1307.47 562.87 1313.85L562.87 1313.85Q625.35 1331.70 625.35 1358.47L625.35 1358.47L633.00 1888.88L844.65 1882.50L839.55 1130.25L547.57 1146.83Q537.37 1148.10 528.45 1148.10L528.45 1148.10L509.32 1148.10Q472.35 1148.10 453.86 1129.61Q435.37 1111.13 429.00 1092.64Q422.62 1074.15 422.62 1072.88L422.62 1072.88Q422.62 1065.22 429.00 1065.22ZM2169.38 1173.60L2169.38 1173.60Q2081.40 1067.78 2002.35 1000.20L2002.35 1000.20Q1989.60 988.73 1989.60 977.89Q1989.60 967.05 2004.26 950.48Q2018.93 933.90 2034.22 933.90Q2049.53 933.90 2117.74 999.56Q2185.95 1065.22 2213.36 1095.19Q2240.78 1125.15 2240.78 1140.45Q2240.78 1155.75 2222.29 1171.69Q2203.80 1187.63 2192.32 1187.63Q2180.85 1187.63 2169.38 1173.60ZM2197.43 1590.53L2197.43 1590.53Q2338.95 1730.78 2491.95 1821.30L2491.95 1821.30Q2585.03 1876.13 2707.43 1925.85L2707.43 1925.85Q2729.10 1933.50 2729.10 1944.98L2729.10 1944.98Q2729.10 1948.80 2716.35 1964.10L2716.35 1964.10Q2680.65 2006.18 2651.32 2006.18L2651.32 2006.18Q2646.23 2006.18 2638.57 2002.35L2638.57 2002.35Q2364.45 1874.85 2142.60 1654.28L2142.60 1654.28Q1965.38 1846.80 1714.20 1962.83L1714.20 1962.83Q1653 1990.88 1615.39 2004.26Q1577.78 2017.65 1572.67 2017.65L1572.67 2017.65Q1558.65 2017.65 1558.65 2007.45L1558.65 2007.45Q1559.92 1988.33 1590.53 1973.03L1590.53 1973.03Q1726.95 1901.63 1859.55 1800.90L1859.55 1800.90Q1984.50 1706.55 2086.50 1593.08L2086.50 1593.08Q1933.50 1418.40 1818.75 1206.75L1818.75 1206.75Q1757.55 1098.38 1756.91 1079.89Q1756.28 1061.40 1776.67 1053.11Q1797.08 1044.83 1808.55 1044.83L1808.55 1044.83Q1827.67 1044.83 1842.97 1080.53L1842.97 1080.53Q1873.58 1148.10 1960.28 1289.63L1960.28 1289.63Q2032.95 1408.20 2140.05 1528.05L2140.05 1528.05Q2253.53 1383.97 2321.10 1242.45L2321.10 1242.45Q2400.15 1076.70 2401.43 1009.13L2401.43 1009.13L2402.70 997.65Q2402.70 991.27 2401.43 984.90L2401.43 984.90Q2401.43 972.15 2412.90 972.15L2412.90 972.15Q2420.55 972.15 2442.23 983.63L2442.23 983.63Q2502.15 1012.95 2500.88 1044.83L2500.88 1044.83Q2500.88 1048.65 2483.66 1096.46Q2466.45 1144.28 2430.75 1220.78L2430.75 1220.78Q2344.05 1410.75 2197.43 1590.53Z"/>
  </svg>