<svg xmlns="http://www.w3.org/2000/svg" viewBox="0 0 3000 3000" width="3000" height="3000">
    <path fill="#000000" d="M353.77 1139.17L353.77 1100.92L1378.88 1100.92L1378.88 1139.17L353.77 1139.17ZM888.00 1576.50L888.00 1539.53L1343.17 1539.53L1343.17 1576.50L888.00 1576.50ZM300.22 2080.13L300.22 2043.15L1426.05 2043.15L1426.05 2080.13L300.22 2080.13ZM870.15 2062.28L870.15 1111.13L907.12 1111.13L907.12 2062.28L870.15 2062.28ZM491.47 2062.28L491.47 1409.47L528.45 1409.47L528.45 2062.28L491.47 2062.28ZM1705.28 1131.53L1737.15 1120.05Q1806 1288.35 1904.18 1441.99Q2002.35 1595.63 2126.66 1726.95Q2250.97 1858.28 2397.60 1957.73Q2544.23 2057.18 2708.70 2115.83L2708.70 2115.83Q2704.88 2119.65 2699.78 2124.75Q2694.68 2129.85 2689.57 2135.59Q2684.48 2141.33 2680.65 2146.43L2680.65 2146.43Q2514.90 2085.22 2368.28 1983.86Q2221.65 1882.50 2097.97 1749.90Q1974.30 1617.30 1875.49 1460.47Q1776.67 1303.65 1705.28 1131.53L1705.28 1131.53ZM2528.93 1089.45L2528.93 1089.45L2564.63 1103.47Q2499.60 1281.97 2410.35 1438.16Q2321.10 1594.35 2202.53 1725.04Q2083.95 1855.73 1929.68 1959.64Q1775.40 2063.55 1580.33 2138.78L1580.33 2138.78Q1576.50 2132.40 1569.49 2124.11Q1562.47 2115.83 1556.10 2110.72L1556.10 2110.72Q1751.17 2038.05 1904.18 1934.78Q2057.18 1831.50 2175.11 1702.09Q2293.05 1572.68 2379.75 1419.04Q2466.45 1265.40 2528.93 1089.45ZM2063.55 1006.58L2063.55 1006.58L2094.15 990Q2117.10 1037.17 2141.32 1092Q2165.55 1146.83 2185.31 1199.10Q2205.07 1251.38 2216.55 1292.17L2216.55 1292.17L2183.40 1310.03Q2173.20 1267.95 2152.80 1215.67Q2132.40 1163.40 2109.45 1108.58Q2086.50 1053.75 2063.55 1006.58Z"/>
  </svg>