<svg xmlns="http://www.w3.org/2000/svg" viewBox="0 0 3000 3000" width="3000" height="3000">
    <path fill="#000000" d="M2070 1659L2070 1659Q2094 1659 2108 1638Q2122 1617 2127 1598Q2132 1579 2132 1571L2132 1571Q2132 1541 2082 1519L2082 1519Q2028 1491 1963 1466Q1898 1441 1834 1421L1834 1421Q1824 1419 1817 1418Q1810 1417 1804 1417L1804 1417Q1772 1417 1754 1457L1754 1457Q1744 1473 1744 1489L1744 1489Q1744 1521 1792 1539L1792 1539Q1854 1561 1913 1587Q1972 1613 2022 1641L2022 1641Q2050 1659 2070 1659ZM2422 2027L2422 2027L2422 2005Q2422 1939 2393 1939Q2364 1939 2344 2011L2344 2011Q2312 2131 2290 2195Q2268 2259 2260 2279L2260 2279Q2252 2295 2254 2297L2254 2297L2212 2275Q2170 2251 2103 2199Q2036 2147 1970 2073L1970 2073Q2006 2051 2051 2015Q2096 1979 2142 1939L2142 1939Q2160 1923 2160 1903L2160 1903Q2160 1879 2139 1852Q2118 1825 2096 1803L2096 1803Q2086 1797 2080 1791L2080 1791L2312 1781Q2360 1775 2360 1747L2360 1747Q2360 1727 2342 1705Q2324 1683 2302 1666Q2280 1649 2260 1649L2260 1649Q2246 1649 2238 1651L2238 1651Q2208 1659 2168 1663L2168 1663L1742 1683Q1726 1637 1708 1581Q1690 1525 1674 1465L1674 1465Q1668 1441 1642 1430Q1616 1419 1592 1417Q1568 1415 1556 1415L1556 1415Q1500 1415 1500 1443L1500 1443Q1500 1457 1522 1479L1522 1479Q1534 1491 1540 1511Q1546 1531 1552 1553L1552 1553Q1564 1593 1576 1631Q1588 1669 1596 1687L1596 1687L1280 1703L1278 1607Q1366 1591 1409 1578Q1452 1565 1465 1552Q1478 1539 1478 1529L1478 1529Q1478 1511 1462 1483Q1446 1455 1424 1429L1424 1429Q1414 1417 1406 1409L1406 1409L2216 1367Q2264 1361 2264 1331L2264 1331Q2264 1309 2246 1288Q2228 1267 2207 1251Q2186 1235 2170 1235L2170 1235Q2164 1235 2159 1236Q2154 1237 2150 1239L2150 1239Q2136 1245 2118 1247Q2100 1249 2084 1251L2084 1251L1558 1279L1560 1185L1992 1159Q2038 1153 2038 1125L2038 1125Q2038 1105 2004 1069L2004 1069Q1986 1047 1971 1041Q1956 1035 1944 1035Q1932 1035 1926 1037L1926 1037Q1894 1047 1862 1049L1862 1049L1560 1067L1562 983L2134 947Q2150 945 2167 941Q2184 937 2184 917Q2184 897 2165 875Q2146 853 2123 836Q2100 819 2082 819L2082 819Q2072 819 2066 821L2066 821Q2034 831 2002 833L2002 833L1702 853Q1716 843 1763 803Q1810 763 1844 728Q1878 693 1878 677L1878 677Q1878 655 1853 631Q1828 607 1798 590Q1768 573 1752 573L1752 573Q1720 573 1720 611L1720 611Q1720 631 1708 657Q1696 683 1649 732Q1602 781 1504 865L1504 865L1412 869L1410 871Q1426 845 1426 827L1426 827Q1426 809 1397 782Q1368 755 1327 728Q1286 701 1243 676Q1200 651 1166 634Q1132 617 1120 617L1120 617Q1086 617 1070 651Q1054 685 1054 691L1054 691Q1054 713 1088 733L1088 733Q1138 763 1195 807Q1252 851 1302 891L1302 891L1284 877L918 901L892 901Q852 901 824 893L824 893Q818 891 812 891L812 891Q788 891 788 915L788 915Q788 919 789 921Q790 923 790 925L790 925Q808 995 843 1009Q878 1023 896 1023L896 1023Q906 1023 920 1023Q934 1023 954 1021L954 1021L1414 991L1416 1073L1078 1093L1052 1093Q1012 1093 984 1085L984 1085Q978 1083 972 1083L972 1083Q948 1083 948 1107L948 1107Q948 1113 950 1119L950 1119Q966 1163 986 1182Q1006 1201 1024 1206Q1042 1211 1048 1211L1048 1211L1058 1211Q1068 1211 1082 1211Q1096 1211 1112 1209L1112 1209L1416 1191L1418 1287L856 1317L834 1317Q814 1317 795 1315Q776 1313 762 1309L762 1309Q756 1307 750 1307L750 1307Q726 1307 726 1331L726 1331Q726 1337 728 1343L728 1343Q750 1415 785 1427Q820 1439 836 1439L836 1439Q846 1439 861 1438Q876 1437 890 1437L890 1437L1364 1411Q1358 1417 1352 1427L1352 1427Q1348 1431 1332 1445Q1316 1459 1262 1479Q1208 1499 1100 1528Q992 1557 804 1593L804 1593Q748 1605 748 1633L748 1633Q748 1665 804 1665L804 1665L812 1665Q950 1655 1039 1644Q1128 1633 1140 1631L1140 1631L1142 1707L720 1727L694 1727Q658 1727 622 1721L622 1721L616 1721Q590 1721 590 1743L590 1743Q590 1749 592 1755L592 1755Q614 1821 643 1836Q672 1851 700 1851L700 1851Q710 1851 724 1850Q738 1849 754 1849L754 1849L1142 1831L1144 1941Q988 1963 836 1975L836 1975L814 1975Q794 1975 773 1973Q752 1971 724 1967L724 1967L720 1967Q718 1965 714 1965L714 1965Q688 1965 688 1991L688 1991Q688 1995 689 2001Q690 2007 692 2013L692 2013Q716 2069 740 2093Q764 2117 783 2123Q802 2129 806 2129L806 2129Q814 2129 869 2120Q924 2111 1003 2096Q1082 2081 1146 2067L1146 2067L1148 2277Q1090 2263 1032 2245Q974 2227 904 2201L904 2201Q872 2189 854 2189L854 2189Q824 2189 824 2210Q824 2231 855 2259Q886 2287 932 2318Q978 2349 1027 2377Q1076 2405 1121 2425Q1166 2445 1192 2445L1192 2445Q1228 2445 1261 2412Q1294 2379 1294 2341L1294 2341Q1294 2325 1292 2307Q1290 2289 1290 2263L1290 2263L1286 2033Q1424 1997 1502 1974Q1580 1951 1614 1934Q1648 1917 1648 1897L1648 1897Q1648 1867 1600 1867L1600 1867Q1594 1867 1586 1868Q1578 1869 1568 1871L1568 1871Q1494 1885 1419 1898Q1344 1911 1284 1921L1284 1921L1282 1827L1646 1809Q1672 1869 1705 1928Q1738 1987 1778 2047L1778 2047Q1616 2161 1372 2267L1372 2267Q1326 2287 1326 2311Q1326 2335 1362 2335L1362 2335Q1384 2335 1439 2320Q1494 2305 1567 2278Q1640 2251 1718 2216Q1796 2181 1854 2149L1854 2149Q1958 2271 2047 2341Q2136 2411 2197 2437Q2258 2463 2282 2463L2282 2463Q2310 2463 2332 2450Q2354 2437 2371 2395Q2388 2353 2401 2266Q2414 2179 2422 2027ZM1794 1805L2036 1793Q2032 1799 2028 1809L2028 1809Q2022 1835 2013 1849Q2004 1863 1976 1891Q1948 1919 1888 1967L1888 1967Q1870 1939 1853 1913Q1836 1887 1821 1858Q1806 1829 1794 1805L1794 1805Z"/>
  </svg>