<svg xmlns="http://www.w3.org/2000/svg" viewBox="0 0 3000 3000" width="3000" height="3000">
    <path fill="#000000" d="M1347 2042.51L1347 2042.51Q1371.22 2020.84 1371.22 2002.99Q1371.22 1985.14 1336.80 1957.09L1336.80 1957.09Q1310.02 1936.69 1284.52 1911.83Q1259.02 1886.96 1234.80 1861.46L1234.80 1861.46Q1205.47 1828.31 1187.63 1828.31L1187.63 1828.31Q1173.60 1828.31 1173.60 1841.70Q1173.60 1855.09 1179.34 1869.11Q1185.07 1883.14 1198.46 1908Q1211.85 1932.86 1238.63 1980.04L1238.63 1980.04Q1239.90 1982.59 1239.90 1983.86L1239.90 1983.86Q1239.90 1981.31 1226.51 1983.23Q1213.13 1985.14 1194 1985.78Q1174.88 1986.41 1162.13 1986.41L1162.13 1986.41Q1080.52 1986.41 1029.52 1967.29Q978.52 1948.16 949.84 1918.84Q921.15 1889.51 906.49 1858.28Q891.82 1827.04 884.17 1801.54L884.17 1801.54Q875.25 1779.86 851.02 1779.86L851.02 1779.86Q822.97 1779.86 812.14 1789.43Q801.30 1798.99 801.30 1809.19L801.30 1809.19Q801.30 1820.66 812.14 1851.26Q822.97 1881.86 844.01 1918.84Q865.05 1955.81 899.47 1989.60Q933.90 2023.39 981.07 2043.79L981.07 2043.79Q1023.15 2060.36 1075.42 2068.01Q1127.70 2075.66 1178.70 2075.66L1178.70 2075.66Q1219.50 2075.66 1267.95 2071.84Q1316.40 2068.01 1347 2042.51ZM673.80 2006.81L673.80 2006.81Q732.45 1897.16 750.30 1841.06Q768.15 1784.96 768.15 1778.59L768.15 1778.59Q768.15 1756.91 745.84 1747.99Q723.52 1739.06 712.05 1739.06L712.05 1739.06Q692.92 1739.06 686.55 1755.64L686.55 1755.64Q666.15 1813.01 644.47 1861.46Q622.80 1909.91 593.47 1951.99L593.47 1951.99Q584.55 1963.46 584.55 1973.66L584.55 1973.66Q584.55 1987.69 606.86 2006.18Q629.17 2024.66 647.02 2024.66Q664.87 2024.66 673.80 2006.81ZM1415.85 1944.34L1415.85 1944.34Q1429.88 1944.34 1440.71 1931.59Q1451.55 1918.84 1457.92 1905.45Q1464.30 1892.06 1464.30 1885.69L1464.30 1885.69Q1464.30 1874.21 1445.81 1853.81Q1427.32 1833.41 1401.19 1809.83Q1375.05 1786.24 1348.27 1764.56Q1321.50 1742.89 1299.82 1728.23Q1278.15 1713.56 1269.22 1713.56L1269.22 1713.56Q1253.92 1713.56 1237.99 1729.50Q1222.05 1745.44 1222.05 1758.19Q1222.05 1770.94 1237.35 1782.41L1237.35 1782.41Q1280.70 1815.56 1318.95 1853.81Q1357.20 1892.06 1391.63 1931.59L1391.63 1931.59Q1404.38 1944.34 1415.85 1944.34ZM1086.90 1885.69L1086.90 1885.69Q1102.20 1885.69 1112.40 1873.58Q1122.60 1861.46 1128.97 1848.71Q1135.35 1835.96 1135.35 1832.14L1135.35 1832.14Q1135.35 1818.11 1110.49 1795.80Q1085.63 1773.49 1053.75 1750.54Q1021.87 1727.59 995.74 1710.38Q969.60 1693.16 961.95 1693.16L961.95 1693.16Q946.65 1693.16 931.35 1711.01Q916.05 1728.86 916.05 1739.70Q916.05 1750.54 928.80 1760.74L928.80 1760.74Q963.22 1786.24 995.74 1812.38Q1028.25 1838.51 1061.40 1871.66L1061.40 1871.66Q1075.42 1885.69 1086.90 1885.69ZM826.80 1690.61L826.80 1690.61L1336.80 1666.39Q1368.67 1662.56 1368.67 1638.34L1368.67 1638.34Q1368.67 1620.49 1354.01 1605.19Q1339.35 1589.89 1321.50 1580.96Q1303.65 1572.04 1294.72 1572.04L1294.72 1572.04Q1288.35 1572.04 1283.25 1573.31Q1278.15 1574.59 1271.77 1577.14L1271.77 1577.14Q1247.55 1584.79 1230.34 1588.61Q1213.13 1592.44 1185.07 1593.71L1185.07 1593.71L811.50 1611.56L782.17 1611.56Q765.60 1611.56 752.21 1610.29Q738.82 1609.01 724.80 1605.19L724.80 1605.19Q719.70 1603.91 713.32 1603.91L713.32 1603.91Q695.47 1603.91 695.47 1620.49L695.47 1620.49Q695.47 1626.86 705.04 1645.99Q714.60 1665.11 736.27 1684.24L736.27 1684.24Q747.75 1693.16 771.97 1693.16L771.97 1693.16Q782.17 1693.16 794.92 1692.53Q807.67 1691.89 826.80 1690.61ZM886.72 1337.44L895.65 1459.84L796.20 1464.94L782.17 1345.09L886.72 1337.44ZM972.15 1333.61L1067.77 1327.24L1060.13 1450.91L979.80 1456.01L972.15 1333.61ZM1155.75 1322.14L1256.47 1315.76L1239.90 1441.99L1145.55 1447.09L1155.75 1322.14ZM460.87 1639.61L460.87 1639.61L455.77 1899.71Q454.50 1940.51 453.22 1971.75Q451.95 2002.99 449.40 2023.39L449.40 2023.39Q448.12 2028.49 448.12 2032.95Q448.12 2037.41 448.12 2039.96L448.12 2039.96Q448.12 2064.19 465.97 2077.58Q483.82 2090.96 501.67 2097.34Q519.52 2103.71 523.35 2103.71L523.35 2103.71Q546.30 2103.71 546.30 2073.11L546.30 2073.11L547.57 1523.59Q574.35 1484.06 601.76 1442.63Q629.17 1401.19 647.66 1369.31Q666.15 1337.44 666.15 1329.79L666.15 1329.79Q666.15 1317.04 652.76 1300.46Q639.37 1283.89 620.89 1269.86Q602.40 1255.84 585.82 1255.84L585.82 1255.84Q565.42 1255.84 565.42 1283.89L565.42 1283.89Q565.42 1306.84 544.39 1350.83Q523.35 1394.81 489.56 1449Q455.77 1503.19 417.52 1557.38Q379.27 1611.56 344.21 1657.46Q309.15 1703.36 287.47 1728.86L287.47 1728.86Q259.42 1760.74 259.42 1779.86L259.42 1779.86Q259.42 1795.16 274.72 1795.16L274.72 1795.16Q291.30 1795.16 314.89 1777.95Q338.47 1760.74 364.61 1735.88Q390.75 1711.01 414.34 1685.51Q437.92 1660.01 455.14 1641.53Q472.35 1623.04 460.87 1639.61ZM662.32 1046.74L662.32 1046.74Q667.42 1039.09 667.42 1030.16L667.42 1030.16Q667.42 1016.14 652.76 999.56Q638.10 982.99 620.25 969.60Q602.40 956.21 588.37 956.21L588.37 956.21Q567.97 956.21 566.70 984.26L566.70 984.26Q562.87 1009.76 553.95 1027.61L553.95 1027.61Q511.87 1100.29 456.41 1173.60Q400.95 1246.91 330.82 1323.41L330.82 1323.41Q300.22 1355.29 300.22 1370.59L300.22 1370.59Q300.22 1384.61 314.25 1384.61L314.25 1384.61Q324.45 1384.61 371.62 1355.93Q418.80 1327.24 494.02 1254.56Q569.25 1181.89 662.32 1046.74ZM807.67 1555.46L806.40 1541.44L1325.32 1514.66Q1339.35 1513.39 1350.19 1510.84Q1361.02 1508.29 1361.02 1497.45Q1361.02 1486.61 1351.46 1474.50Q1341.90 1462.39 1324.05 1445.81L1324.05 1445.81L1353.38 1317.04Q1354.65 1310.66 1358.47 1303.65Q1362.30 1296.64 1362.30 1287.71L1362.30 1287.71Q1362.30 1269.86 1340.63 1253.29Q1318.95 1236.71 1298.55 1236.71L1298.55 1236.71Q1294.72 1236.71 1290.26 1237.35Q1285.80 1237.99 1280.70 1237.99L1280.70 1237.99L1048.65 1253.29L1051.20 1179.34L1311.30 1162.76Q1322.77 1161.49 1333.61 1153.20Q1344.45 1144.91 1344.45 1132.16L1344.45 1132.16Q1344.45 1114.31 1318.31 1094.55Q1292.17 1074.79 1266.67 1074.79L1266.67 1074.79Q1253.92 1074.79 1237.99 1081.16Q1222.05 1087.54 1206.11 1091.36Q1190.17 1095.19 1168.50 1096.46L1168.50 1096.46L1053.75 1104.11Q1055.02 1070.96 1056.30 1040.36L1056.30 1040.36L1056.30 1011.04Q1056.30 993.19 1047.38 980.44Q1038.45 967.69 1009.12 958.76L1009.12 958.76Q993.82 954.94 982.35 952.39Q970.87 949.84 963.22 949.84L963.22 949.84Q945.37 949.84 945.37 963.86L945.37 963.86Q945.37 970.24 950.47 980.44L950.47 980.44Q959.40 995.74 961.95 1011.67Q964.50 1027.61 964.50 1049.29L964.50 1049.29L964.50 1068.41Q964.50 1087.54 963.22 1107.94L963.22 1107.94L806.40 1118.14Q797.47 1119.41 787.91 1119.41Q778.35 1119.41 769.42 1119.41L769.42 1119.41Q751.57 1119.41 738.19 1117.50Q724.80 1115.59 710.77 1113.04L710.77 1113.04Q706.95 1111.76 700.57 1111.76L700.57 1111.76Q685.27 1111.76 685.27 1125.79L685.27 1125.79Q685.27 1132.16 694.84 1150.01Q704.40 1167.86 722.25 1183.16L722.25 1183.16Q740.10 1195.91 771.97 1195.91L771.97 1195.91Q782.17 1195.91 795.56 1195.28Q808.95 1194.64 828.07 1193.36L828.07 1193.36L961.95 1184.44Q960.67 1211.21 959.40 1237.99L959.40 1237.99L959.40 1257.11L771.97 1269.86Q703.12 1244.36 684.00 1244.36L684.00 1244.36Q666.15 1244.36 666.15 1255.84Q666.15 1267.31 676.35 1282.61L676.35 1282.61Q685.27 1296.64 689.10 1311.30Q692.92 1325.96 695.47 1345.09L695.47 1345.09L710.77 1456.01Q713.32 1466.21 713.32 1474.50Q713.32 1482.79 713.32 1491.71L713.32 1491.71Q713.32 1499.36 713.32 1507.01Q713.32 1514.66 712.05 1523.59L712.05 1523.59L712.05 1532.51Q712.05 1561.84 735.64 1576.50Q759.22 1591.16 780.90 1591.16L780.90 1591.16Q796.20 1591.16 801.94 1582.24Q807.67 1573.31 807.67 1561.84L807.67 1561.84L807.67 1555.46ZM2068.65 1462.39L2350.43 1445.81L2346.60 2000.44Q2313.45 1988.96 2264.36 1970.48Q2215.28 1951.99 2168.10 1932.86L2168.10 1932.86Q2143.88 1923.94 2127.30 1923.94L2127.30 1923.94Q2105.63 1923.94 2105.63 1937.33Q2105.63 1950.71 2129.21 1971.75Q2152.80 1992.79 2187.86 2017.01Q2222.93 2041.24 2259.90 2063.55Q2296.88 2085.86 2329.39 2101.16Q2361.90 2116.46 2377.20 2116.46L2377.20 2116.46Q2406.53 2116.46 2428.20 2092.88Q2449.88 2069.29 2449.88 2046.34L2449.88 2046.34Q2449.88 2038.69 2448.60 2029.76Q2447.32 2020.84 2447.32 2009.36L2447.32 2009.36L2449.88 1441.99L2711.25 1426.69Q2724 1425.41 2734.84 1418.40Q2745.68 1411.39 2745.68 1398.64L2745.68 1398.64Q2745.68 1383.34 2732.29 1368.68Q2718.90 1354.01 2702.32 1343.81Q2685.75 1333.61 2673 1333.61L2673 1333.61Q2664.07 1333.61 2658.98 1334.89L2658.98 1334.89Q2644.95 1339.99 2632.20 1341.90Q2619.45 1343.81 2606.70 1345.09L2606.70 1345.09L2041.88 1375.69L2027.85 1375.69Q2003.63 1375.69 1983.22 1371.86L1983.22 1371.86Q1979.40 1370.59 1973.03 1370.59L1973.03 1370.59Q1955.18 1370.59 1955.18 1388.44L1955.18 1388.44Q1955.18 1396.09 1964.74 1417.13Q1974.30 1438.16 1992.15 1453.46L1992.15 1453.46Q2002.35 1463.66 2030.40 1463.66L2030.40 1463.66Q2038.05 1463.66 2047.61 1463.66Q2057.18 1463.66 2068.65 1462.39L2068.65 1462.39ZM1763.92 1624.31L1763.92 1624.31L1761.38 1945.61Q1761.38 1966.01 1759.46 1985.78Q1757.55 2005.54 1752.45 2027.21L1752.45 2027.21Q1751.17 2032.31 1750.54 2037.41Q1749.90 2042.51 1749.90 2046.34L1749.90 2046.34Q1749.90 2069.29 1766.47 2081.40Q1783.05 2093.51 1800.26 2098.61Q1817.47 2103.71 1823.85 2103.71L1823.85 2103.71Q1857 2103.71 1857 2062.91L1857 2062.91L1850.63 1523.59Q1862.10 1509.56 1883.14 1480.88Q1904.18 1452.19 1925.85 1420.95Q1947.53 1389.71 1962.83 1364.85Q1978.13 1339.99 1978.13 1329.79L1978.13 1329.79Q1978.13 1318.31 1961.55 1301.10Q1944.97 1283.89 1924.58 1271.14Q1904.18 1258.39 1888.88 1258.39L1888.88 1258.39Q1865.92 1258.39 1865.92 1287.71L1865.92 1287.71L1865.92 1297.91Q1865.92 1319.59 1853.17 1343.81L1853.17 1343.81Q1817.47 1407.56 1769.03 1478.33Q1720.58 1549.09 1664.47 1619.21Q1608.38 1689.34 1549.72 1751.81L1549.72 1751.81Q1528.05 1774.76 1528.05 1788.79Q1528.05 1802.81 1540.80 1802.81Q1553.55 1802.81 1571.40 1792.61L1571.40 1792.61L1579.05 1787.51Q1630.05 1751.81 1679.78 1706.55Q1729.50 1661.29 1763.92 1624.31ZM2180.85 1170.41L2180.85 1170.41L2581.20 1143.64Q2593.95 1142.36 2604.79 1136.63Q2615.63 1130.89 2615.63 1116.86L2615.63 1116.86Q2615.63 1101.56 2602.24 1086.90Q2588.85 1072.24 2572.28 1062.04Q2555.70 1051.84 2542.95 1051.84L2542.95 1051.84Q2534.03 1051.84 2528.93 1053.11L2528.93 1053.11Q2503.43 1062.04 2476.65 1063.31L2476.65 1063.31L2154.07 1083.71Q2148.97 1083.71 2143.88 1084.35Q2138.78 1084.99 2132.40 1084.99L2132.40 1084.99Q2113.28 1084.99 2094.15 1081.16L2094.15 1081.16L2086.50 1081.16Q2067.38 1081.16 2067.38 1097.74L2067.38 1097.74Q2067.38 1100.29 2068.01 1104.11Q2068.65 1107.94 2069.93 1111.76L2069.93 1111.76Q2085.22 1155.11 2106.90 1163.40Q2128.57 1171.69 2142.60 1171.69L2142.60 1171.69Q2150.25 1171.69 2159.81 1171.69Q2169.38 1171.69 2180.85 1170.41ZM1632.60 1396.09L1632.60 1396.09L1638.97 1392.26Q1734.60 1332.34 1820.66 1242.45Q1906.72 1152.56 1973.03 1045.46L1973.03 1045.46Q1975.58 1041.64 1977.49 1037.17Q1979.40 1032.71 1979.40 1027.61L1979.40 1027.61Q1979.40 1011.04 1961.55 995.10Q1943.70 979.16 1922.66 968.32Q1901.63 957.49 1890.15 957.49L1890.15 957.49Q1867.20 957.49 1867.20 982.99L1867.20 982.99Q1867.20 985.54 1867.84 987.45Q1868.47 989.36 1868.47 990.64L1868.47 990.64L1868.47 994.46Q1868.47 1012.31 1849.99 1047.38Q1831.50 1082.44 1801.54 1125.79Q1771.58 1169.14 1735.88 1213.13Q1700.17 1257.11 1667.66 1295.36Q1635.15 1333.61 1610.92 1357.84L1610.92 1357.84Q1589.25 1379.51 1589.25 1392.26L1589.25 1392.26Q1589.25 1406.29 1602 1406.29Q1614.75 1406.29 1632.60 1396.09Z"/>
  </svg>