<svg xmlns="http://www.w3.org/2000/svg" viewBox="0 0 3000 3000" width="3000" height="3000">
    <path fill="#000000" d="M2258 1134L2210 1344Q2270 1396 2270 1412Q2270 1428 2258 1431Q2246 1434 2226 1436L2226 1436L1398 1478L1402 1512L1402 1522Q1402 1556 1372 1556Q1342 1556 1309 1536Q1276 1516 1276 1476L1276 1476L1276 1462Q1278 1448 1278 1436L1278 1436L1278 1384Q1278 1370 1274 1354L1274 1354L1250 1180Q1240 1112 1222 1084Q1204 1056 1204 1046Q1204 1036 1226 1036Q1248 1036 1356 1076L1356 1076L1664 1056L1664 1014Q1666 972 1668 918L1668 918L1446 932Q1386 936 1349 936Q1312 936 1287 916Q1262 896 1248 870Q1234 844 1234 836Q1234 828 1244 828Q1254 828 1282 834Q1310 840 1340 840L1340 840L1384 840Q1398 840 1414 838L1414 838L1670 822Q1672 778 1672 748L1672 748L1672 718Q1672 644 1648 604L1648 604Q1642 592 1642 583Q1642 574 1658 574Q1674 574 1721 587Q1768 600 1780 617Q1792 634 1792 658L1792 658L1792 704Q1790 752 1788 816L1788 816L1980 804Q2042 800 2079 785Q2116 770 2143 770Q2170 770 2207 798Q2244 826 2244 844L2244 844Q2244 878 2202 884L2202 884L1784 910L1780 1050L2156 1026L2184 1024Q2212 1024 2242 1047Q2272 1070 2272 1087Q2272 1104 2267 1114Q2262 1124 2258 1134L2258 1134ZM1176 708L1176 708Q1030 918 913 1031Q796 1144 724 1188Q652 1232 641 1232Q630 1232 630 1217Q630 1202 708 1120L708 1120Q890 926 1026 690L1026 690Q1042 660 1046 622Q1050 584 1069 584Q1088 584 1114 604L1114 604Q1182 652 1182 688L1182 688Q1182 698 1176 708ZM874 2052L882 1604Q874 1616 812 1682L812 1682Q634 1876 578 1876L578 1876Q566 1876 566 1857Q566 1838 604 1795Q642 1752 733 1633Q824 1514 935 1335Q1046 1156 1046 1086L1046 1086Q1046 1054 1067 1054Q1088 1054 1116 1074L1116 1074Q1180 1122 1180 1155Q1180 1188 994 1458L994 1458L992 2324Q992 2360 968 2360L968 2360Q964 2360 938 2352L938 2352Q862 2324 862 2272L862 2272L862 2262Q862 2256 866 2231Q870 2206 874 2052L874 2052ZM2102 1346L2132 1124L1948 1134L1930 1354L2102 1346ZM1822 1360L1834 1142L1660 1152L1672 1368L1822 1360ZM1386 1382L1564 1374L1550 1158L1360 1170L1386 1382ZM2244 1674L1444 1712Q1384 1716 1354 1716Q1324 1716 1301 1696Q1278 1676 1264 1649Q1250 1622 1250 1614L1250 1614Q1250 1600 1266 1600L1266 1600Q1274 1600 1297 1606Q1320 1612 1374 1612L1374 1612L1420 1612L2006 1584Q2072 1582 2120 1566Q2168 1550 2179 1550Q2190 1550 2216 1564L2216 1564Q2282 1598 2282 1642L2282 1642Q2282 1670 2244 1674L2244 1674ZM1612 1824L1612 1824Q1596 1812 1596 1800Q1596 1788 1617 1764Q1638 1740 1656 1740Q1674 1740 1795 1829Q1916 1918 1916 1946L1916 1946Q1916 1950 1907 1968Q1898 1986 1884 2002Q1870 2018 1854 2018Q1838 2018 1787 1967Q1736 1916 1612 1824ZM2338 2094L2338 2094Q2214 1952 2096 1858L2096 1858Q2076 1844 2076 1829Q2076 1814 2097 1793Q2118 1772 2133 1772Q2148 1772 2198 1806Q2248 1840 2340 1922Q2432 2004 2432 2030Q2432 2056 2408 2083Q2384 2110 2369 2110Q2354 2110 2338 2094ZM1194 2214L1194 2214Q1182 2236 1160 2236Q1138 2236 1107 2210Q1076 2184 1076 2170Q1076 2156 1104 2116L1104 2116Q1164 2030 1236 1830L1236 1830Q1242 1812 1261 1812Q1280 1812 1310 1824Q1340 1836 1340 1862L1340 1862Q1340 1870 1312 1957Q1284 2044 1194 2214ZM2104 2184L2104 2184Q2104 2180 2081 2139Q2058 2098 2037 2059Q2016 2020 2008 2000Q2000 1980 2000 1966Q2000 1952 2016 1952Q2032 1952 2098 2023Q2164 2094 2225 2143Q2286 2192 2286 2214Q2286 2236 2247 2270Q2208 2304 2134 2310Q2060 2316 1988 2316L1988 2316Q1698 2316 1566 2184L1566 2184Q1474 2092 1432 1972L1432 1972Q1416 1926 1416 1912L1416 1912Q1416 1876 1482 1876L1482 1876Q1512 1876 1522 1902L1522 1902Q1558 2020 1617 2079Q1676 2138 1758 2169Q1840 2200 1972 2200Q2104 2200 2104 2184Z"/>
  </svg>