<svg xmlns="http://www.w3.org/2000/svg" viewBox="0 0 3000 3000" width="3000" height="3000">
    <path fill="#000000" d="M633.00 1153.20L633.00 1116.22L1432.42 1116.22L1432.42 1153.20L633.00 1153.20ZM624.07 1714.20L624.07 1677.23L1440.07 1677.23L1440.07 1714.20L624.07 1714.20ZM950.47 1758.83L950.47 1758.83L979.80 1744.80Q1009.12 1784.33 1040.36 1832.14Q1071.60 1879.95 1088.17 1910.55L1088.17 1910.55L1057.57 1929.68Q1041 1896.53 1010.40 1847.44Q979.80 1798.35 950.47 1758.83ZM826.80 2059.72L826.80 1830.23L863.77 1830.23L863.77 2059.72Q863.77 2077.58 875.89 2083.95Q888.00 2090.33 931.35 2090.33L931.35 2090.33Q941.55 2090.33 970.24 2090.33Q998.92 2090.33 1034.63 2090.33Q1070.32 2090.33 1101.56 2090.33Q1132.80 2090.33 1146.82 2090.33L1146.82 2090.33Q1171.05 2090.33 1183.16 2082.04Q1195.27 2073.75 1200.38 2044.43Q1205.47 2015.10 1206.75 1955.18L1206.75 1955.18Q1214.40 1960.28 1224.60 1964.10Q1234.80 1967.93 1243.72 1970.48L1243.72 1970.48Q1241.17 2034.23 1233.52 2068.65Q1225.88 2103.08 1206.75 2115.83Q1187.63 2128.58 1150.65 2128.58L1150.65 2128.58Q1144.27 2128.58 1113.04 2128.58Q1081.80 2128.58 1042.27 2128.58Q1002.75 2128.58 971.51 2128.58Q940.27 2128.58 932.62 2128.58L932.62 2128.58Q891.82 2128.58 868.24 2123.47Q844.65 2118.38 835.72 2103.71Q826.80 2089.05 826.80 2059.72L826.80 2059.72ZM710.77 1842.98L710.77 1842.98L745.20 1857Q722.25 1914.38 691.01 1982.59Q659.77 2050.80 618.97 2099.25L618.97 2099.25L583.27 2081.40Q611.32 2050.80 635.55 2009.36Q659.77 1967.93 678.90 1923.94Q698.02 1879.95 710.77 1842.98ZM1271.77 1834.05L1271.77 1834.05L1306.20 1823.85Q1329.15 1863.38 1353.38 1909.28Q1377.60 1955.18 1398.64 1997.89Q1419.67 2040.60 1432.42 2071.20L1432.42 2071.20L1396.72 2086.50Q1383.97 2054.63 1363.57 2010.64Q1343.17 1966.65 1319.59 1920.11Q1296.00 1873.58 1271.77 1834.05ZM1338.07 1310.03L1157.02 1310.03L1157.02 1531.88L1338.07 1531.88L1338.07 1310.03ZM1120.05 1310.03L942.82 1310.03L942.82 1531.88L1120.05 1531.88L1120.05 1310.03ZM904.57 1310.03L735.00 1310.03L735.00 1531.88L904.57 1531.88L904.57 1310.03ZM698.02 1570.13L698.02 1271.78L1376.32 1271.78L1376.32 1570.13L698.02 1570.13ZM1014.22 992.55L1014.22 992.55L1053.75 998.92Q1046.10 1044.82 1036.54 1097.74Q1026.97 1150.65 1016.77 1201.01Q1006.57 1251.38 996.37 1288.35L996.37 1288.35L961.95 1280.70Q972.15 1243.72 981.71 1192.09Q991.27 1140.45 1000.20 1087.54Q1009.12 1034.63 1014.22 992.55ZM588.37 1270.50L588.37 1270.50L625.35 1283.25Q582.00 1358.47 528.45 1433.70Q474.90 1508.93 418.16 1575.86Q361.42 1642.80 305.32 1696.35L305.32 1696.35Q302.77 1692.53 297.04 1687.43Q291.30 1682.33 284.92 1677.23Q278.55 1672.13 273.45 1668.30L273.45 1668.30Q330.82 1617.30 388.20 1552.91Q445.57 1488.53 497.21 1415.85Q548.85 1343.18 588.37 1270.50ZM562.87 997.65L562.87 997.65L599.85 1012.95Q561.60 1060.13 512.51 1111.76Q463.42 1163.40 409.87 1211.85Q356.32 1260.30 306.60 1298.55L306.60 1298.55Q304.05 1294.72 299.59 1289.63Q295.12 1284.53 290.02 1279.42Q284.92 1274.33 279.82 1271.78L279.82 1271.78Q329.55 1234.80 382.46 1188.26Q435.37 1141.72 483.19 1092Q531.00 1042.28 562.87 997.65ZM472.35 2145.15L472.35 1470.68L491.47 1451.55L510.60 1457.93L510.60 2145.15L472.35 2145.15ZM2040.60 1116.22L2040.60 1077.97L2670.45 1077.97L2670.45 1116.22L2040.60 1116.22ZM2462.63 2078.85L2462.63 1441.35L2499.60 1441.35L2499.60 2077.58Q2499.60 2105.63 2489.40 2118.38Q2479.20 2131.13 2457.53 2137.50L2457.53 2137.50Q2433.30 2141.33 2380.39 2141.96Q2327.48 2142.60 2225.47 2142.60L2225.47 2142.60Q2224.20 2136.22 2219.74 2127.30Q2215.28 2118.38 2208.90 2109.45L2208.90 2109.45Q2263.73 2110.72 2308.99 2111.36Q2354.25 2112 2385.49 2111.36Q2416.73 2110.72 2428.20 2109.45L2428.20 2109.45Q2447.32 2108.18 2454.98 2101.80Q2462.63 2095.43 2462.63 2078.85L2462.63 2078.85ZM1983.22 1465.58L1983.22 1428.60L2709.98 1428.60L2709.98 1465.58L1983.22 1465.58ZM1760.10 2151.53L1760.10 1475.78L1794.53 1442.63L1797.08 1445.18L1797.08 2151.53L1760.10 2151.53ZM1910.55 1264.13L1910.55 1264.13L1946.25 1276.88Q1897.80 1353.38 1835.96 1427.96Q1774.13 1502.55 1707.19 1567.58Q1640.25 1632.60 1573.95 1684.88L1573.95 1684.88Q1571.40 1681.05 1565.66 1675.95Q1559.92 1670.85 1554.19 1665.11Q1548.45 1659.38 1543.35 1656.83L1543.35 1656.83Q1610.92 1608.38 1677.86 1545.26Q1744.80 1482.15 1804.72 1410.11Q1864.65 1338.08 1910.55 1264.13ZM1855.72 995.10L1855.72 995.10L1892.70 1010.40Q1854.45 1061.40 1802.17 1114.95Q1749.90 1168.50 1693.16 1218.22Q1636.42 1267.95 1582.88 1307.47L1582.88 1307.47Q1580.33 1303.65 1575.22 1298.55Q1570.13 1293.45 1565.03 1287.71Q1559.92 1281.97 1556.10 1279.42L1556.10 1279.42Q1609.65 1241.17 1665.75 1193.36Q1721.85 1145.55 1771.58 1093.91Q1821.30 1042.28 1855.72 995.10Z"/>
  </svg>