<svg xmlns="http://www.w3.org/2000/svg" viewBox="0 0 3000 3000" width="3000" height="3000">
    <path fill="#000000" d="M1169.77 1729.50L1169.77 1729.50Q1182.52 1723.13 1204.20 1734.60L1204.20 1734.60Q1215.67 1742.25 1280.06 1807.28Q1344.45 1872.30 1344.45 1877.40L1344.45 1877.40Q1344.45 1886.33 1359.75 1900.35L1359.75 1900.35L1376.32 1914.38L1369.95 1962.83Q1359.75 2052.07 1313.85 2058.45L1313.85 2058.45Q1293.45 2062.28 1278.15 2067.38L1278.15 2067.38Q1251.37 2078.85 1183.16 2071.84Q1114.95 2064.82 1071.60 2046.97L1071.60 2046.97Q1023.15 2029.13 967.05 1983.86Q910.95 1938.60 889.27 1901.63L889.27 1901.63L865.05 1862.10Q848.47 1831.50 847.20 1806L847.20 1806Q845.92 1786.88 856.76 1785.60Q867.60 1784.33 885.45 1799.63L885.45 1799.63L933.90 1841.70Q995.10 1895.25 1063.95 1906.72L1063.95 1906.72Q1095.82 1911.83 1137.26 1911.19Q1178.70 1910.55 1200.38 1905.45L1200.38 1905.45Q1218.22 1900.35 1222.69 1892.06Q1227.15 1883.78 1221.41 1865.92Q1215.67 1848.08 1195.27 1808.55L1195.27 1808.55Q1169.77 1761.38 1165.31 1746.71Q1160.85 1732.05 1169.77 1729.50ZM733.72 1789.42L769.42 1735.88Q784.72 1714.20 791.10 1715.47L791.10 1715.47Q797.47 1719.30 798.75 1736.51Q800.02 1753.72 793.65 1762.65L793.65 1762.65Q784.72 1770.30 778.35 1816.84Q771.97 1863.38 781.54 1886.96Q791.10 1910.55 791.10 1938.60L791.10 1938.60Q792.37 1964.10 781.54 1975.58Q770.70 1987.05 746.47 1987.05L746.47 1987.05Q731.17 1988.33 724.80 1984.50Q718.42 1980.67 708.22 1969.20L708.22 1969.20Q694.20 1952.63 693.56 1935.41Q692.92 1918.20 684.00 1898.44Q675.07 1878.67 682.09 1870.39Q689.10 1862.10 699.30 1841.06Q709.50 1820.03 733.72 1789.42L733.72 1789.42ZM916.05 1644.08L916.05 1644.08Q923.70 1631.33 987.45 1652.36Q1051.20 1673.40 1058.85 1691.25L1058.85 1691.25Q1066.50 1709.10 1058.21 1730.14Q1049.92 1751.17 1029.52 1766.47L1029.52 1766.47Q1015.50 1777.95 988.72 1771.58Q961.95 1765.20 958.12 1751.17L958.12 1751.17Q955.57 1740.97 950.47 1740.97Q945.37 1740.97 924.97 1721.85L924.97 1721.85Q912.22 1707.83 909.67 1700.17Q907.12 1692.53 908.40 1674.67L908.40 1674.67Q913.50 1647.90 916.05 1644.08ZM1267.95 1602L1267.95 1602Q1281.97 1598.17 1311.30 1600.72Q1340.63 1603.28 1359.75 1609.65L1359.75 1609.65Q1415.85 1624.95 1427.32 1654.28L1427.32 1654.28Q1434.97 1673.40 1426.05 1700.81Q1417.13 1728.22 1415.85 1734.60Q1414.57 1740.97 1401.82 1749.26Q1389.07 1757.55 1374.41 1751.17Q1359.75 1744.80 1359.75 1740.34Q1359.75 1735.88 1347.64 1733.33Q1335.52 1730.78 1314.49 1711.65Q1293.45 1692.53 1280.70 1684.88Q1267.95 1677.22 1251.37 1655.55L1251.37 1655.55Q1241.17 1641.53 1239.90 1635.79Q1238.63 1630.05 1245 1619.85L1245 1619.85Q1251.37 1604.55 1267.95 1602ZM527.17 1599.45L527.17 1599.45Q536.10 1591.80 539.29 1592.44Q542.47 1593.07 553.95 1602L553.95 1602Q562.87 1609.65 565.42 1616.66Q567.97 1623.67 567.97 1647.90L567.97 1647.90Q567.97 1686.15 562.87 1721.85L562.87 1721.85Q559.05 1756.28 559.69 1848.08Q560.32 1939.88 565.42 1952.63L565.42 1952.63Q570.52 1965.38 570.52 1991.51Q570.52 2017.65 578.17 2024.03Q585.82 2030.40 585.82 2053.35L585.82 2053.35Q585.82 2091.60 546.30 2096.70L546.30 2096.70Q532.27 2099.25 525.90 2096.70Q519.52 2094.15 508.05 2082.68L508.05 2082.68Q492.75 2064.82 481.27 2029.13L481.27 2029.13Q473.62 2002.35 472.99 1994.06Q472.35 1985.78 478.72 1969.20L478.72 1969.20Q486.37 1946.25 490.84 1839.79Q495.30 1733.33 501.67 1704L501.67 1704Q516.97 1607.10 527.17 1599.45ZM589.65 1303.65L589.65 1303.65Q602.40 1288.35 636.82 1322.78L636.82 1322.78Q671.25 1358.47 664.87 1385.25L664.87 1385.25Q662.32 1396.72 639.37 1431.15Q616.42 1465.57 608.77 1470.67L608.77 1470.67Q603.67 1475.77 603.67 1481.51Q603.67 1487.25 585.82 1506.38Q567.97 1525.50 553.31 1543.99Q538.65 1562.47 504.22 1596.90L504.22 1596.90L418.80 1679.78Q369.07 1729.50 347.40 1744.16Q325.72 1758.83 325.72 1762.01Q325.72 1765.20 309.15 1775.40L309.15 1775.40Q296.40 1781.78 295.12 1781.14Q293.85 1780.50 293.85 1772.85L293.85 1772.85Q293.85 1761.38 302.14 1747.35Q310.42 1733.33 356.96 1672.13Q403.50 1610.92 406.69 1603.28Q409.87 1595.63 436.65 1554.82Q463.42 1514.03 472.35 1496.81Q481.27 1479.60 488.29 1473.86Q495.30 1468.13 495.30 1463.66Q495.30 1459.20 509.96 1438.80Q524.62 1418.40 529.72 1408.20Q534.82 1398 539.92 1386.53L539.92 1386.53L564.15 1344.45Q583.27 1311.30 589.65 1303.65ZM553.95 1148.10L553.95 1148.10Q561.60 1141.72 590.29 1098.38Q618.97 1055.02 632.36 1040.36Q645.75 1025.70 648.94 1025.70Q652.12 1025.70 671.89 1043.55Q691.65 1061.40 700.57 1066.50Q709.50 1071.60 713.32 1090.72L713.32 1090.72Q714.60 1104.75 711.41 1109.85Q708.22 1114.95 690.37 1127.70L690.37 1127.70Q663.60 1145.55 658.50 1151.92L658.50 1151.92Q639.37 1168.50 604.95 1194L604.95 1194Q584.55 1210.57 578.17 1215.67Q571.80 1220.77 522.71 1260.94Q473.62 1301.10 453.22 1318.95L453.22 1318.95Q421.35 1347 421.35 1326.60L421.35 1326.60Q421.35 1313.85 458.32 1264.13L458.32 1264.13Q504.22 1201.65 553.95 1148.10ZM937.72 970.87L937.72 970.87Q940.27 967.05 949.20 970.87Q958.12 974.70 975.34 977.25Q992.55 979.80 1004.02 991.27L1004.02 991.27Q1011.67 1000.20 1012.95 1011.67Q1014.22 1023.15 1012.95 1071.60L1012.95 1071.60L1009.12 1139.17L1084.35 1136.63Q1148.10 1134.07 1171.69 1137.90Q1195.27 1141.72 1216.95 1159.57L1216.95 1159.57Q1251.37 1188.90 1232.25 1208.02L1232.25 1208.02Q1210.57 1225.88 1155.75 1218.22L1155.75 1218.22Q1049.92 1201.65 1028.89 1203.56Q1007.85 1205.47 995.10 1236.07L995.10 1236.07Q983.62 1264.13 959.40 1283.25L959.40 1283.25L936.45 1303.65L1002.75 1301.10Q1070.32 1297.28 1109.85 1306.20Q1149.38 1315.13 1183.80 1320.22L1183.80 1320.22Q1251.37 1326.60 1276.87 1348.28L1276.87 1348.28Q1285.80 1358.47 1288.99 1382.70Q1292.17 1406.92 1283.25 1418.40L1283.25 1418.40Q1274.32 1431.15 1274.32 1436.89Q1274.32 1442.63 1259.02 1464.94Q1243.72 1487.25 1243.72 1491.07L1243.72 1491.07Q1243.72 1500 1222.69 1531.88Q1201.65 1563.75 1183.80 1580.32L1183.80 1580.32Q1141.72 1623.67 1111.13 1586.70L1111.13 1586.70Q1102.20 1575.22 1095.19 1572.67Q1088.17 1570.13 1063.95 1570.13L1063.95 1570.13Q1033.35 1570.13 991.91 1569.49Q950.47 1568.85 895.01 1586.06Q839.55 1603.28 818.51 1614.11Q797.47 1624.95 778.35 1619.21Q759.22 1613.47 747.75 1599.45L747.75 1599.45Q724.80 1576.50 761.77 1559.92L761.77 1559.92Q769.42 1556.10 773.89 1553.55Q778.35 1551 778.35 1548.45L778.35 1548.45Q689.10 1373.78 740.10 1373.78L740.10 1373.78Q747.75 1373.78 766.87 1362.94Q786.00 1352.10 822.34 1336.16Q858.67 1320.22 858.67 1310.66Q858.67 1301.10 864.41 1294.72Q870.15 1288.35 875.25 1267.95L875.25 1267.95L882.90 1233.53Q885.45 1223.32 884.17 1220.77Q882.90 1218.22 875.25 1218.22L875.25 1218.22Q863.77 1218.22 831.90 1233.53L831.90 1233.53Q807.67 1245 801.30 1245.64Q794.92 1246.28 779.62 1238.63L779.62 1238.63Q742.65 1222.05 751.57 1199.10L751.57 1199.10Q756.67 1188.90 774.52 1182.52Q792.37 1176.15 842.10 1165.95L842.10 1165.95Q898.20 1154.47 900.11 1151.92Q902.02 1149.38 910.95 1098.38L910.95 1098.38Q926.25 991.27 937.72 970.87ZM1002.75 1355.92L1002.75 1355.92Q1002.75 1353.38 1002.11 1350.19Q1001.47 1347 1000.20 1347L1000.20 1347Q995.10 1347 981.07 1349.55L981.07 1349.55Q913.50 1359.75 907.12 1371.22L907.12 1371.22Q905.85 1378.88 916.69 1401.82Q927.52 1424.78 927.52 1434.97Q927.52 1445.17 931.35 1456.65L931.35 1456.65L935.17 1469.40L950.47 1454.10Q963.22 1442.63 982.99 1405.65Q1002.75 1368.67 1002.75 1355.92ZM1141.72 1371.22L1141.72 1371.22Q1127.70 1366.13 1106.02 1358.47L1106.02 1358.47Q1089.45 1354.65 1086.26 1355.29Q1083.07 1355.92 1083.07 1364.85L1083.07 1364.85Q1081.80 1387.80 1051.20 1433.70L1051.20 1433.70Q1039.72 1451.55 1037.17 1459.84Q1034.63 1468.13 1026.97 1470.67L1026.97 1470.67Q1006.57 1478.32 1033.35 1485.97L1033.35 1485.97Q1037.17 1487.25 1042.27 1488.52L1042.27 1488.52Q1067.77 1491.07 1075.42 1484.70Q1083.07 1478.32 1103.47 1475.77L1103.47 1475.77Q1116.22 1473.22 1121.32 1468.76Q1126.42 1464.30 1135.35 1447.72L1135.35 1447.72Q1146.82 1423.50 1150.65 1400.55L1150.65 1400.55Q1155.75 1385.25 1153.84 1380.79Q1151.92 1376.32 1141.72 1371.22ZM882.90 1470.67L882.90 1470.67Q863.77 1442.63 856.12 1415.85Q848.47 1389.07 845.92 1389.07L845.92 1389.07Q840.82 1389.07 819.15 1402.46Q797.47 1415.85 797.47 1419.67L797.47 1419.67Q803.85 1441.35 819.15 1478.32L819.15 1478.32Q826.80 1496.17 826.80 1511.47L826.80 1511.47Q826.80 1526.78 833.81 1529.96Q840.82 1533.15 863.77 1524.22L863.77 1524.22Q894.37 1514.03 897.56 1505.74Q900.75 1497.45 882.90 1470.67ZM2562.07 1261.57L2562.07 1261.57Q2568.45 1256.47 2596.50 1256.47Q2624.55 1256.47 2636.03 1262.85L2636.03 1262.85Q2650.05 1266.67 2675.55 1290.90L2675.55 1290.90L2702.32 1313.85L2695.95 1335.53Q2688.30 1358.47 2679.38 1369.95L2679.38 1369.95Q2673 1378.88 2667.26 1379.51Q2661.53 1380.15 2637.30 1376.32L2637.30 1376.32Q2572.28 1363.57 2530.84 1361.66Q2489.40 1359.75 2426.93 1367.40L2426.93 1367.40Q2346.60 1376.32 2345.32 1377.60L2345.32 1377.60Q2345.32 1378.88 2347.88 1381.42Q2350.43 1383.97 2354.89 1387.16Q2359.35 1390.35 2364.45 1395.45L2364.45 1395.45Q2419.28 1437.53 2419.28 1460.47L2419.28 1460.47Q2419.28 1473.22 2411.63 1492.35Q2403.98 1511.47 2404.61 1711.01Q2405.25 1910.55 2402.70 1932.22L2402.70 1932.22L2396.32 1989.60Q2392.50 2024.03 2383.57 2034.22L2383.57 2034.22Q2356.80 2066.10 2318.55 2077.57L2318.55 2077.57L2276.48 2091.60Q2257.35 2096.70 2249.70 2093.51Q2242.05 2090.32 2247.15 2075.03L2247.15 2075.03Q2250.97 2057.18 2231.21 2010Q2211.45 1962.83 2196.15 1950.08L2196.15 1950.08Q2183.40 1939.88 2183.40 1929.67Q2183.40 1919.47 2164.28 1909.28L2164.28 1909.28Q2138.78 1895.25 2122.20 1859.55L2122.20 1859.55Q2114.55 1844.25 2122.20 1844.25L2122.20 1844.25Q2124.75 1844.25 2154.07 1863.38L2154.07 1863.38Q2207.63 1897.80 2248.43 1897.80L2248.43 1897.80Q2261.18 1896.53 2270.10 1885.05L2270.10 1885.05Q2277.75 1876.13 2279.03 1835.33Q2280.30 1794.53 2281.57 1631.33L2281.57 1631.33L2282.85 1391.63L2261.18 1395.45Q2239.50 1398 2219.10 1403.10Q2198.70 1408.20 2193.60 1404.38Q2188.50 1400.55 2182.13 1406.29Q2175.75 1412.03 2148.97 1420.95Q2122.20 1429.88 2105.63 1446.45L2105.63 1446.45Q2095.43 1457.92 2089.69 1459.84Q2083.95 1461.75 2068.65 1459.20L2068.65 1459.20Q2013.83 1450.28 2001.08 1437.53L2001.08 1437.53Q1980.68 1417.13 2007.45 1399.28L2007.45 1399.28Q2022.75 1387.80 2078.21 1368.04Q2133.68 1348.28 2175.75 1336.80L2175.75 1336.80Q2217.82 1326.60 2244.60 1319.59Q2271.38 1312.57 2308.35 1306.20L2308.35 1306.20Q2444.78 1284.53 2469 1284.53L2469 1284.53Q2486.85 1284.53 2521.91 1275.60Q2556.98 1266.67 2562.07 1261.57ZM1920.75 1239.90L1920.75 1239.90Q1924.58 1230.97 1927.76 1230.97Q1930.95 1230.97 1959 1257.75L1959 1257.75Q1978.13 1278.15 1980.68 1285.16Q1983.22 1292.17 1980.68 1311.30L1980.68 1311.30Q1978.13 1330.42 1969.84 1342.54Q1961.55 1354.65 1927.13 1389.07L1927.13 1389.07Q1872.30 1446.45 1872.30 1456.65L1872.30 1456.65Q1872.30 1460.47 1882.50 1468.13L1882.50 1468.13Q1897.80 1474.50 1908 1505.10Q1918.20 1535.70 1918.20 1568.85L1918.20 1568.85Q1918.20 1609.65 1912.46 1617.30Q1906.72 1624.95 1905.45 1760.10L1905.45 1760.10Q1905.45 1867.20 1900.99 1896.53Q1896.53 1925.85 1877.40 1942.42L1877.40 1942.42Q1854.45 1962.83 1821.30 1922.03L1821.30 1922.03Q1807.28 1908 1805.36 1897.80Q1803.45 1887.60 1804.72 1846.80L1804.72 1846.80Q1804.72 1793.25 1810.46 1661.29Q1816.20 1529.32 1814.92 1527.41Q1813.65 1525.50 1769.03 1569.49Q1724.40 1613.47 1720.58 1613.47Q1716.75 1613.47 1715.47 1617.30L1715.47 1617.30Q1710.38 1626.22 1675.31 1649.17Q1640.25 1672.13 1628.78 1674.67L1628.78 1674.67Q1609.65 1678.50 1598.17 1684.24Q1586.70 1689.97 1576.50 1686.15L1576.50 1686.15Q1572.67 1683.60 1573.31 1679.78Q1573.95 1675.95 1585.42 1661.92L1585.42 1661.92Q1602 1641.53 1624.95 1619.85Q1647.90 1598.17 1667.66 1574.59Q1687.42 1551 1705.28 1531.88L1705.28 1531.88Q1791.97 1436.25 1804.72 1415.85L1804.72 1415.85Q1820.03 1395.45 1860.83 1338.07L1860.83 1338.07Q1914.38 1265.40 1920.75 1239.90ZM2170.65 1090.72L2170.65 1090.72Q2201.25 1075.42 2240.14 1061.40Q2279.03 1047.38 2300.06 1037.17Q2321.10 1026.97 2324.93 1025.70L2324.93 1025.70Q2332.57 1024.42 2373.38 1037.17Q2414.18 1049.92 2418 1055.02L2418 1055.02Q2426.93 1063.95 2428.20 1104.75L2428.20 1104.75Q2429.48 1137.90 2423.10 1146.82Q2416.73 1155.75 2391.23 1155.75L2391.23 1155.75Q2372.10 1155.75 2329.39 1164.67Q2286.68 1173.60 2270.10 1182.52L2270.10 1182.52Q2256.07 1188.90 2249.70 1188.26Q2243.32 1187.63 2220.38 1174.88L2220.38 1174.88Q2151.53 1136.63 2145.15 1118.77L2145.15 1118.77Q2142.60 1109.85 2147.06 1105.39Q2151.53 1100.92 2170.65 1090.72ZM1929.68 986.17L1929.68 986.17Q1929.68 975.97 1932.22 974.06Q1934.78 972.15 1942.43 973.42L1942.43 973.42Q1956.45 977.25 1981.95 1004.02L1981.95 1004.02L2013.83 1038.45Q2024.03 1049.92 2013.83 1069.05L2013.83 1069.05Q1999.80 1098.38 1976.85 1104.75L1976.85 1104.75Q1962.83 1107.30 1953.90 1117.50Q1944.97 1127.70 1940.51 1127.70Q1936.05 1127.70 1906.72 1156.39Q1877.40 1185.07 1858.28 1210.57L1858.28 1210.57Q1837.88 1234.80 1823.85 1240.54Q1809.83 1246.28 1793.25 1256.47L1793.25 1256.47Q1743.53 1288.35 1733.33 1288.35L1733.33 1288.35Q1729.50 1288.35 1743.53 1271.78L1743.53 1271.78Q1853.17 1140.45 1886.33 1074.15L1886.33 1074.15Q1905.45 1038.45 1917.56 1019.96Q1929.68 1001.47 1929.68 986.17Z"/>
  </svg>