<svg xmlns="http://www.w3.org/2000/svg" viewBox="0 0 3000 3000" width="3000" height="3000">
    <path fill="#000000" d="M597.30 1903.54L597.30 1903.54Q624.07 1917.56 651.49 1935.41Q678.90 1953.26 705.67 1974.94L705.67 1974.94Q706.95 1976.21 708.22 1976.21L708.22 1976.21L463.42 1983.86Q474.90 1980.04 490.20 1973.66L490.20 1973.66Q541.20 1954.54 597.30 1903.54ZM1092 1890.79L1092 1890.79Q1121.32 1906.09 1149.38 1923.94L1149.38 1923.94Q1176.15 1941.79 1204.20 1963.46L1204.20 1963.46L964.50 1971.11Q968.32 1968.56 973.42 1966.01L973.42 1966.01Q1002.75 1953.26 1035.90 1932.23Q1069.05 1911.19 1092 1890.79ZM411.15 2068.01L411.15 2068.01L1398 2041.24Q1413.30 2039.96 1425.41 2034.86Q1437.52 2029.76 1437.52 2015.74Q1437.52 2001.71 1422.86 1985.78Q1408.20 1969.84 1390.99 1959Q1373.77 1948.16 1361.02 1948.16L1361.02 1948.16Q1353.38 1948.16 1349.55 1950.71L1349.55 1950.71Q1336.80 1954.54 1321.50 1957.73Q1306.20 1960.91 1290.90 1960.91L1290.90 1960.91L1253.92 1962.19Q1262.85 1949.44 1267.95 1936.69Q1273.05 1923.94 1273.05 1921.39L1273.05 1921.39Q1273.05 1902.26 1240.54 1884.41Q1208.02 1866.56 1146.82 1835.96L1146.82 1835.96Q1155.75 1828.31 1163.40 1816.84Q1171.05 1805.36 1171.05 1797.71L1171.05 1797.71Q1171.05 1786.24 1157.66 1773.49Q1144.27 1760.74 1128.97 1751.81L1128.97 1751.81L1209.30 1747.99Q1224.60 1746.71 1236.71 1743.53Q1248.82 1740.34 1248.82 1726.31L1248.82 1726.31Q1248.82 1713.56 1234.80 1698.26Q1220.77 1682.96 1203.56 1672.13Q1186.35 1661.29 1173.60 1661.29L1173.60 1661.29Q1169.77 1661.29 1166.59 1661.93Q1163.40 1662.56 1160.85 1663.84L1160.85 1663.84Q1137.90 1672.76 1102.20 1675.31L1102.20 1675.31L555.22 1698.26L539.92 1698.26Q515.70 1698.26 494.02 1693.16L494.02 1693.16Q492.75 1693.16 491.47 1692.53Q490.20 1691.89 487.65 1691.89L487.65 1691.89Q473.62 1691.89 473.62 1708.46L473.62 1708.46Q473.62 1714.84 474.90 1718.66L474.90 1718.66Q477.45 1731.41 493.39 1753.09Q509.32 1774.76 552.67 1774.76L552.67 1774.76L576.90 1774.76L576.90 1774.76Q575.62 1779.86 574.35 1786.24L574.35 1786.24Q571.80 1814.29 545.66 1846.80Q519.52 1879.31 486.37 1907.36Q453.22 1935.41 430.27 1951.99L430.27 1951.99Q407.32 1969.84 407.32 1981.31L407.32 1981.31Q407.32 1983.86 407.32 1985.14L407.32 1985.14L378.00 1986.41L362.70 1986.41Q337.20 1986.41 320.62 1981.31L320.62 1981.31Q319.35 1981.31 318.07 1980.68Q316.80 1980.04 314.25 1980.04L314.25 1980.04Q300.22 1980.04 300.22 1996.61L300.22 1996.61Q300.22 2002.99 301.50 2006.81L301.50 2006.81Q312.97 2048.89 337.84 2059.09Q362.70 2069.29 384.37 2069.29L384.37 2069.29Q390.75 2069.29 397.76 2068.65Q404.77 2068.01 411.15 2068.01ZM514.42 1517.21L620.25 1510.84L613.87 1577.14L519.52 1582.24L514.42 1517.21ZM808.95 1509.56L908.40 1503.19L903.30 1566.94L812.77 1572.04L808.95 1509.56ZM1099.65 1492.99L1201.65 1486.61L1196.55 1552.91L1104.75 1556.74L1099.65 1492.99ZM525.90 1651.09L525.90 1645.99L676.35 1639.61Q687.82 1638.34 699.30 1636.43Q710.77 1634.51 710.77 1623.68Q710.77 1612.84 704.40 1602.64Q698.02 1592.44 686.55 1579.69L686.55 1579.69L700.57 1510.84Q701.85 1507.01 705.04 1502.55Q708.22 1498.09 708.22 1489.16L708.22 1489.16Q708.22 1477.69 693.56 1460.47Q678.90 1443.26 652.12 1443.26L652.12 1443.26Q647.02 1443.26 643.84 1443.90Q640.65 1444.54 639.37 1444.54L639.37 1444.54L506.77 1452.19Q448.12 1433.06 431.55 1433.06L431.55 1433.06Q412.42 1433.06 412.42 1447.09L412.42 1447.09Q412.42 1454.74 420.07 1466.21L420.07 1466.21Q434.10 1491.71 437.92 1514.66L437.92 1514.66L448.12 1582.24Q449.40 1586.06 449.40 1589.25Q449.40 1592.44 449.40 1596.26L449.40 1596.26Q449.40 1603.91 448.76 1610.93Q448.12 1617.94 446.85 1628.14L446.85 1628.14L446.85 1630.69Q445.57 1633.24 445.57 1637.06L445.57 1637.06Q445.57 1658.74 481.27 1675.31L481.27 1675.31Q487.65 1676.59 492.75 1678.50Q497.85 1680.41 502.95 1680.41L502.95 1680.41Q525.90 1680.41 525.90 1651.09L525.90 1651.09ZM815.32 1639.61L815.32 1635.79L967.05 1629.41Q978.52 1628.14 989.36 1626.23Q1000.20 1624.31 1000.20 1610.29L1000.20 1610.29Q1000.20 1598.81 974.70 1569.49L974.70 1569.49L987.45 1503.19Q988.72 1499.36 992.55 1494.26Q996.37 1489.16 996.37 1481.51L996.37 1481.51Q996.37 1478.96 991.27 1467.49Q986.17 1456.01 973.42 1445.81Q960.67 1435.61 939.00 1435.61L939.00 1435.61Q933.90 1435.61 930.71 1436.25Q927.52 1436.89 926.25 1436.89L926.25 1436.89L802.57 1444.54Q743.92 1425.41 727.35 1425.41L727.35 1425.41Q708.22 1425.41 708.22 1439.44L708.22 1439.44Q708.22 1447.09 715.87 1458.56L715.87 1458.56Q724.80 1472.59 728.62 1482.79Q732.45 1492.99 733.72 1505.74L733.72 1505.74L737.55 1569.49Q737.55 1573.31 738.19 1577.78Q738.82 1582.24 738.82 1587.34Q738.82 1592.44 738.19 1599.45Q737.55 1606.46 736.27 1616.66L736.27 1616.66L735.00 1619.21Q735.00 1621.76 735.00 1625.59L735.00 1625.59Q735.00 1647.26 770.70 1663.84L770.70 1663.84Q777.07 1665.11 782.17 1667.03Q787.27 1668.94 791.10 1668.94L791.10 1668.94Q815.32 1668.94 815.32 1639.61L815.32 1639.61ZM1108.57 1624.31L1108.57 1621.76L1259.02 1615.39Q1270.50 1614.11 1280.06 1610.93Q1289.62 1607.74 1289.62 1594.99Q1289.62 1582.24 1266.67 1555.46L1266.67 1555.46L1281.97 1487.89Q1283.25 1482.79 1287.07 1477.69Q1290.90 1472.59 1290.90 1464.94L1290.90 1464.94Q1290.90 1456.01 1274.96 1437.53Q1259.02 1419.04 1233.52 1419.04L1233.52 1419.04Q1228.42 1419.04 1225.24 1419.68Q1222.05 1420.31 1220.77 1420.31L1220.77 1420.31L1095.82 1427.96Q1037.17 1408.84 1020.60 1408.84L1020.60 1408.84Q1001.47 1408.84 1001.47 1422.86L1001.47 1422.86Q1001.47 1430.51 1009.12 1441.99L1009.12 1441.99Q1018.05 1456.01 1021.87 1466.21Q1025.70 1476.41 1026.97 1489.16L1026.97 1489.16L1030.80 1559.29Q1030.80 1563.11 1031.44 1567.58Q1032.07 1572.04 1032.07 1577.14Q1032.07 1582.24 1031.44 1589.25Q1030.80 1596.26 1029.52 1606.46L1029.52 1606.46L1028.25 1609.01Q1028.25 1611.56 1028.25 1615.39L1028.25 1615.39Q1028.25 1637.06 1063.95 1653.64L1063.95 1653.64Q1070.32 1654.91 1075.42 1656.83Q1080.52 1658.74 1084.35 1658.74L1084.35 1658.74Q1108.57 1658.74 1108.57 1629.41L1108.57 1629.41L1108.57 1624.31ZM536.10 1313.21L536.10 1313.21L527.17 1313.21Q504.22 1313.21 500.40 1331.70Q496.57 1350.19 496.57 1357.84L496.57 1357.84Q496.57 1371.86 505.50 1376.33Q514.42 1380.79 528.45 1383.34L528.45 1383.34Q569.25 1387.16 613.24 1394.18Q657.22 1401.19 703.12 1413.94L703.12 1413.94Q709.50 1415.21 713.96 1415.85Q718.42 1416.49 722.25 1416.49L722.25 1416.49Q733.72 1416.49 740.10 1408.20Q746.47 1399.91 749.02 1382.06L749.02 1382.06Q750.30 1378.24 750.30 1369.31L750.30 1369.31Q750.30 1343.81 719.70 1338.71L719.70 1338.71Q671.25 1328.51 626.62 1322.78Q582.00 1317.04 536.10 1313.21ZM950.47 1300.46L950.47 1300.46L942.82 1300.46Q931.35 1300.46 923.70 1306.84Q916.05 1313.21 913.50 1334.89L913.50 1334.89Q913.50 1336.16 912.86 1338.08Q912.22 1339.99 912.22 1343.81L912.22 1343.81Q912.22 1360.39 921.79 1364.85Q931.35 1369.31 942.82 1371.86L942.82 1371.86Q988.72 1376.96 1035.90 1383.97Q1083.07 1390.99 1130.25 1402.46L1130.25 1402.46Q1135.35 1403.74 1138.54 1404.38Q1141.72 1405.01 1146.82 1405.01L1146.82 1405.01Q1158.30 1405.01 1164.67 1396.72Q1171.05 1388.44 1173.60 1370.59L1173.60 1370.59Q1174.88 1366.76 1174.88 1357.84L1174.88 1357.84Q1174.88 1332.34 1144.27 1327.24L1144.27 1327.24Q1097.10 1318.31 1049.92 1311.94Q1002.75 1305.56 950.47 1300.46ZM516.97 1245.64L515.70 1257.11Q515.70 1271.14 524.62 1274.96Q533.55 1278.79 546.30 1281.34L546.30 1281.34Q585.82 1286.44 629.17 1293.45Q672.52 1300.46 715.87 1310.66L715.87 1310.66Q720.97 1311.94 725.44 1312.58Q729.90 1313.21 733.72 1313.21L733.72 1313.21Q743.92 1313.21 750.30 1305.56Q756.67 1297.91 757.95 1282.61L757.95 1282.61Q759.22 1278.79 759.22 1274.33Q759.22 1269.86 759.22 1267.31L759.22 1267.31Q759.22 1258.39 754.12 1251.38Q749.02 1244.36 729.90 1238.63Q710.77 1232.89 669.97 1227.15Q629.17 1221.41 555.22 1213.76L555.22 1213.76Q553.95 1213.76 551.40 1213.13Q548.85 1212.49 545.02 1212.49L545.02 1212.49Q529.72 1212.49 523.99 1223.96Q518.25 1235.44 516.97 1245.64L516.97 1245.64ZM1157.02 1297.91L1157.02 1297.91Q1177.42 1297.91 1180.61 1280.70Q1183.80 1263.49 1183.80 1253.29L1183.80 1253.29Q1183.80 1244.36 1178.70 1236.71Q1173.60 1229.06 1153.84 1223.33Q1134.07 1217.59 1091.36 1211.21Q1048.65 1204.84 970.87 1197.19L970.87 1197.19Q969.60 1197.19 966.41 1196.55Q963.22 1195.91 959.40 1195.91L959.40 1195.91Q937.72 1195.91 933.26 1212.49Q928.80 1229.06 928.80 1241.81L928.80 1241.81Q928.80 1255.84 937.72 1259.66Q946.65 1263.49 961.95 1266.04L961.95 1266.04Q1002.75 1271.14 1049.29 1278.15Q1095.82 1285.16 1140.45 1295.36L1140.45 1295.36Q1145.55 1296.64 1150.01 1297.28Q1154.47 1297.91 1157.02 1297.91ZM888.00 1393.54L890.55 1186.99L1287.07 1165.31Q1278.15 1185.71 1259.02 1216.95Q1239.90 1248.19 1218.22 1277.51L1218.22 1277.51Q1200.38 1303.01 1200.38 1317.04L1200.38 1317.04Q1200.38 1332.34 1215.67 1332.34L1215.67 1332.34Q1233.52 1332.34 1263.49 1305.56Q1293.45 1278.79 1325.32 1241.18Q1357.20 1203.56 1377.60 1169.14L1377.60 1169.14Q1380.15 1165.31 1389.07 1157.03Q1398 1148.74 1398 1134.71L1398 1134.71Q1398 1116.86 1385.25 1105.39Q1372.50 1093.91 1358.47 1088.17Q1344.45 1082.44 1338.07 1082.44L1338.07 1082.44Q1335.52 1082.44 1331.70 1083.08Q1327.88 1083.71 1324.05 1083.71L1324.05 1083.71L891.82 1110.49L893.10 1065.86L1183.80 1045.46Q1194 1044.19 1204.84 1040.36Q1215.67 1036.54 1215.67 1023.79Q1215.67 1011.04 1203.56 997.01Q1191.45 982.99 1175.51 972.79Q1159.57 962.59 1146.82 962.59L1146.82 962.59Q1141.72 962.59 1130.25 965.14L1130.25 965.14Q1111.13 971.51 1090.72 972.79L1090.72 972.79L606.22 1002.11L590.92 1002.11Q566.70 1002.11 545.02 997.01L545.02 997.01Q543.75 997.01 542.47 996.38Q541.20 995.74 538.65 995.74L538.65 995.74Q524.62 995.74 524.62 1012.31L524.62 1012.31Q524.62 1018.69 525.90 1022.51L525.90 1022.51Q537.37 1062.04 560.96 1072.88Q584.55 1083.71 602.40 1083.71L602.40 1083.71Q608.77 1083.71 614.51 1083.71Q620.25 1083.71 629.17 1082.44L629.17 1082.44L808.95 1069.69L807.67 1114.31L490.20 1134.71Q495.30 1110.49 496.57 1104.11Q497.85 1097.74 497.85 1095.19L497.85 1095.19Q497.85 1077.34 484.46 1071.60Q471.07 1065.86 458.96 1064.59Q446.85 1063.31 445.57 1063.31L445.57 1063.31Q429.00 1063.31 424.54 1071.60Q420.07 1079.89 417.52 1092.64L417.52 1092.64Q402.22 1160.21 382.46 1213.13Q362.70 1266.04 333.37 1320.86L333.37 1320.86Q325.72 1336.16 325.72 1343.81L325.72 1343.81Q325.72 1360.39 352.50 1376.96L352.50 1376.96Q371.62 1389.71 383.10 1389.71L383.10 1389.71Q389.47 1389.71 395.85 1384.61Q402.22 1379.51 411.15 1362.30Q420.07 1345.09 434.74 1308.11Q449.40 1271.14 468.52 1211.21L468.52 1211.21L806.40 1190.81L805.12 1295.36Q805.12 1315.76 803.21 1330.43Q801.30 1345.09 798.75 1359.11L798.75 1359.11Q797.47 1364.21 797.47 1373.14L797.47 1373.14Q797.47 1392.26 819.15 1408.84Q840.82 1425.41 858.67 1425.41L858.67 1425.41Q888.00 1425.41 888.00 1393.54L888.00 1393.54ZM910.95 1972.39L910.95 1972.39L900.75 1972.39L904.57 1760.74L1083.07 1753.09Q1081.80 1758.19 1080.52 1764.56L1080.52 1764.56Q1080.52 1765.84 1079.89 1768.39Q1079.25 1770.94 1079.25 1773.49L1079.25 1773.49Q1074.15 1795.16 1049.92 1826.40Q1025.70 1857.64 993.82 1887.60Q961.95 1917.56 932.62 1937.96L932.62 1937.96Q909.67 1955.81 909.67 1967.29L909.67 1967.29Q909.67 1969.84 910.95 1972.39ZM622.80 1772.21L622.80 1772.21L815.32 1764.56L810.22 1973.66L751.57 1974.94Q752.85 1973.66 754.12 1972.39L754.12 1972.39Q763.05 1959.64 768.15 1946.89Q773.25 1934.14 773.25 1931.59L773.25 1931.59Q773.25 1918.84 754.12 1905.45Q735.00 1892.06 711.41 1879.31Q687.82 1866.56 667.42 1856.36L667.42 1856.36L650.85 1848.71L655.95 1842.34Q667.42 1829.59 667.42 1818.11L667.42 1818.11Q667.42 1801.54 650.85 1790.06L650.85 1790.06Q636.82 1779.86 622.80 1772.21ZM1939.88 1620.49L1939.88 1620.49Q1939.88 1607.74 1917.56 1583.51Q1895.25 1559.29 1866.56 1534.43Q1837.88 1509.56 1811.74 1491.71Q1785.60 1473.86 1776.67 1473.86L1776.67 1473.86Q1769.03 1473.86 1751.17 1485.97Q1733.33 1498.09 1733.33 1514.66L1733.33 1514.66Q1733.33 1529.96 1751.17 1543.99L1751.17 1543.99Q1779.22 1565.66 1802.17 1589.25Q1825.13 1612.84 1849.35 1644.71L1849.35 1644.71Q1871.03 1672.76 1887.60 1672.76L1887.60 1672.76Q1900.35 1672.76 1920.11 1656.83Q1939.88 1640.89 1939.88 1620.49ZM2066.10 1755.64L2066.10 1741.61L2361.90 1727.59Q2397.60 1723.76 2397.60 1704.64L2397.60 1704.64Q2397.60 1691.89 2386.13 1677.86Q2374.65 1663.84 2359.35 1652.36Q2344.05 1640.89 2330.03 1640.89L2330.03 1640.89Q2319.82 1640.89 2308.35 1644.71L2308.35 1644.71Q2291.78 1649.81 2275.20 1653Q2258.63 1656.19 2238.22 1657.46L2238.22 1657.46L2120.93 1663.84Q2123.47 1662.56 2126.03 1661.29L2126.03 1661.29L2138.78 1654.91Q2182.13 1631.96 2216.55 1600.73Q2250.97 1569.49 2294.32 1528.69L2294.32 1528.69Q2305.80 1519.76 2305.80 1508.29L2305.80 1508.29Q2305.80 1490.44 2288.59 1474.50Q2271.38 1458.56 2252.89 1447.09Q2234.40 1435.61 2228.03 1435.61L2228.03 1435.61Q2210.18 1435.61 2210.18 1461.11L2210.18 1461.11Q2210.18 1490.44 2182.13 1529.33Q2154.07 1568.21 2108.18 1617.94L2108.18 1617.94Q2081.40 1644.71 2081.40 1657.46L2081.40 1657.46Q2081.40 1662.56 2083.95 1665.11L2083.95 1665.11L2066.10 1666.39L2067.38 1467.49Q2067.38 1440.71 2045.70 1430.51L2045.70 1430.51Q2030.40 1422.86 2013.83 1420.31L2013.83 1420.31L2419.28 1396.09Q2416.73 1439.44 2414.81 1489.80Q2412.90 1540.16 2412.90 1588.61L2412.90 1588.61Q2412.90 1718.66 2430.11 1807.28Q2447.32 1895.89 2474.74 1951.99Q2502.15 2008.09 2532.11 2039.33Q2562.07 2070.56 2586.94 2083.31Q2611.80 2096.06 2623.28 2099.89L2623.28 2099.89Q2650.05 2107.54 2667.90 2107.54L2667.90 2107.54Q2684.48 2107.54 2699.14 2100.53Q2713.80 2093.51 2724 2065.46Q2734.20 2037.41 2741.85 1979.40Q2749.50 1921.39 2755.88 1816.84L2755.88 1816.84Q2755.88 1811.74 2756.51 1807.28Q2757.15 1802.81 2757.15 1797.71L2757.15 1797.71Q2757.15 1746.71 2737.39 1746.71Q2717.63 1746.71 2701.05 1809.19L2701.05 1809.19Q2695.95 1828.31 2687.03 1860.83Q2678.10 1893.34 2667.90 1925.85Q2657.70 1958.36 2650.05 1978.76L2650.05 1978.76L2642.40 1999.16L2629.65 1991.51Q2616.90 1985.14 2596.50 1964.10Q2576.10 1943.06 2555.70 1898.44Q2535.30 1853.81 2521.28 1780.50Q2507.25 1707.19 2507.25 1596.26L2507.25 1596.26Q2507.25 1547.81 2509.80 1498.72Q2512.35 1449.64 2514.90 1402.46L2514.90 1402.46Q2516.18 1392.26 2519.36 1383.34Q2522.55 1374.41 2522.55 1364.21L2522.55 1364.21Q2522.55 1337.44 2498.33 1325.33Q2474.10 1313.21 2460.07 1313.21L2460.07 1313.21L2452.43 1313.21L1802.17 1352.74L1783.05 1352.74Q1765.20 1352.74 1753.72 1350.83Q1742.25 1348.91 1729.50 1345.09L1729.50 1345.09Q1723.13 1341.26 1719.30 1341.26L1719.30 1341.26L1718.03 1341.26Q1746.08 1315.76 1780.50 1280.06L1780.50 1280.06Q1832.78 1225.24 1877.40 1156.39L1877.40 1156.39L2590.13 1114.31Q2596.50 1114.31 2600.32 1113.04L2600.32 1113.04Q2629.65 1107.94 2629.65 1086.26L2629.65 1086.26Q2629.65 1077.34 2619.45 1062.67Q2609.25 1048.01 2593.95 1035.26Q2578.65 1022.51 2559.53 1022.51L2559.53 1022.51Q2555.70 1022.51 2551.88 1023.15Q2548.05 1023.79 2544.23 1025.06L2544.23 1025.06Q2534.03 1028.89 2523.19 1030.16Q2512.35 1031.44 2497.05 1032.71L2497.05 1032.71L1933.50 1067.14Q1947.53 1041.64 1957.09 1023.79Q1966.65 1005.94 1969.20 998.29Q1971.75 990.64 1971.75 985.54L1971.75 985.54Q1971.75 965.14 1951.99 951.11Q1932.22 937.09 1911.19 929.44Q1890.15 921.79 1883.78 921.79L1883.78 921.79Q1863.38 921.79 1863.38 944.74L1863.38 944.74L1863.38 957.49Q1863.38 981.71 1847.44 1019.33Q1831.50 1056.94 1804.72 1102.20Q1777.95 1147.46 1747.35 1192.09Q1716.75 1236.71 1687.42 1274.96Q1658.10 1313.21 1636.42 1338.71L1636.42 1338.71Q1610.92 1370.59 1610.92 1387.16L1610.92 1387.16Q1610.92 1401.19 1626.22 1401.19L1626.22 1401.19Q1644.08 1401.19 1686.15 1369.31L1686.15 1369.31Q1691.25 1364.21 1696.35 1360.39L1696.35 1360.39Q1697.63 1365.49 1700.17 1374.41L1700.17 1374.41Q1715.47 1415.21 1735.88 1423.50Q1756.28 1431.79 1781.78 1431.79L1781.78 1431.79L1806 1431.79L1957.72 1422.86Q1957.72 1424.14 1957.72 1426.69L1957.72 1426.69Q1957.72 1438.16 1964.10 1448.36L1964.10 1448.36Q1971.75 1461.11 1974.30 1474.50Q1976.85 1487.89 1976.85 1504.46L1976.85 1504.46L1975.58 1668.94L1739.70 1680.41L1719.30 1680.41Q1691.25 1680.41 1670.85 1675.31L1670.85 1675.31Q1665.75 1674.04 1661.29 1674.04Q1656.83 1674.04 1654.28 1674.04L1654.28 1674.04Q1637.70 1674.04 1637.70 1688.06L1637.70 1688.06Q1637.70 1690.61 1638.34 1694.44Q1638.97 1698.26 1641.53 1703.36L1641.53 1703.36Q1647.90 1713.56 1653.64 1723.76Q1659.38 1733.96 1669.58 1742.89L1669.58 1742.89Q1683.60 1759.46 1715.47 1759.46L1715.47 1759.46Q1721.85 1759.46 1728.22 1758.83Q1734.60 1758.19 1742.25 1758.19L1742.25 1758.19L1908 1747.99Q1845.53 1816.84 1767.75 1876.13Q1689.97 1935.41 1596.90 1991.51L1596.90 1991.51Q1566.30 2010.64 1566.30 2027.21L1566.30 2027.21Q1566.30 2041.24 1582.24 2041.24Q1598.17 2041.24 1645.35 2022.75Q1692.53 2004.26 1755 1969.20Q1817.47 1934.14 1881.22 1883.78Q1944.97 1833.41 1976.85 1791.34L1976.85 1791.34Q1974.30 1815.56 1974.30 1833.41L1974.30 1833.41Q1974.30 1857.64 1973.66 1886.96Q1973.03 1916.29 1973.03 1937.96L1973.03 1937.96L1973.03 1958.36Q1973.03 2010.64 1967.93 2041.24L1967.93 2041.24Q1966.65 2045.06 1966.65 2053.99L1966.65 2053.99Q1966.65 2073.11 1990.24 2092.88Q2013.83 2112.64 2035.50 2112.64L2035.50 2112.64Q2052.07 2112.64 2057.81 2100.53Q2063.55 2088.41 2063.55 2074.39L2063.55 2074.39L2064.82 1841.06Q2101.80 1860.19 2159.81 1899.08Q2217.82 1937.96 2277.75 1983.86L2277.75 1983.86Q2285.40 1988.96 2293.69 1992.79Q2301.98 1996.61 2308.35 1996.61L2308.35 1996.61Q2326.20 1996.61 2335.76 1981.95Q2345.32 1967.29 2350.43 1951.99Q2355.53 1936.69 2355.53 1934.14L2355.53 1934.14Q2355.53 1911.19 2328.75 1897.16L2328.75 1897.16Q2294.32 1875.49 2254.80 1851.90Q2215.28 1828.31 2177.66 1808.55Q2140.05 1788.79 2112.64 1776.04Q2085.22 1763.29 2076.30 1763.29L2076.30 1763.29Q2061 1763.29 2066.10 1755.64L2066.10 1755.64ZM1950.08 1282.61L1964.10 1282.61L2449.88 1254.56Q2485.58 1250.74 2485.58 1229.06L2485.58 1229.06Q2485.58 1216.31 2465.18 1193.36L2465.18 1193.36Q2451.15 1180.61 2440.31 1175.51Q2429.48 1170.41 2419.28 1170.41Q2409.07 1170.41 2403.98 1171.69L2403.98 1171.69Q2392.50 1175.51 2381.66 1176.79Q2370.82 1178.06 2356.80 1179.34L2356.80 1179.34L1957.72 1203.56L1942.43 1203.56Q1915.65 1203.56 1893.97 1198.46L1893.97 1198.46Q1888.88 1197.19 1884.41 1196.55Q1879.95 1195.91 1877.40 1195.91L1877.40 1195.91Q1862.10 1195.91 1862.10 1209.94L1862.10 1209.94Q1862.10 1221.41 1871.03 1237.99Q1879.95 1254.56 1899.71 1268.59Q1919.47 1282.61 1950.08 1282.61L1950.08 1282.61Z"/>
  </svg>