<svg xmlns="http://www.w3.org/2000/svg" viewBox="0 0 3000 3000" width="3000" height="3000">
    <path fill="#000000" d="M856.27 1392.92Q835.11 1392.92 823.28 1379.85Q811.45 1366.77 811.45 1343.12L811.45 1343.12L811.45 1166.31L449.12 1166.31Q411.77 1166.31 409.28 1206.15L409.28 1206.15L409.28 1305.76Q409.28 1364.28 361.96 1364.28L361.96 1364.28Q313.40 1364.28 313.40 1305.76L313.40 1305.76L313.40 1201.17Q313.40 1143.90 338.93 1117.75Q364.45 1091.60 421.73 1094.09L421.73 1094.09L811.45 1094.09L811.45 1044.29L429.20 1044.29Q381.88 1044.29 381.88 1004.44L381.88 1004.44Q381.88 964.60 429.20 964.60L429.20 964.60L1294.56 964.60Q1344.36 964.60 1344.36 1004.44L1344.36 1004.44Q1344.36 1044.29 1294.56 1044.29L1294.56 1044.29L902.34 1044.29L902.34 1094.09L1303.27 1094.09Q1361.79 1094.09 1388.56 1120.24Q1415.33 1146.39 1410.35 1201.17L1410.35 1201.17L1410.35 1305.76Q1410.35 1364.28 1363.04 1364.28L1363.04 1364.28Q1314.48 1364.28 1314.48 1305.76L1314.48 1305.76L1314.48 1206.15Q1314.48 1168.80 1274.63 1166.31L1274.63 1166.31L902.34 1166.31L902.34 1343.12Q902.34 1392.92 856.27 1392.92L856.27 1392.92ZM410.52 1938.28Q368.19 1938.28 368.19 1899.68L368.19 1899.68Q368.19 1877.27 399.32 1862.33L399.32 1862.33Q476.51 1823.73 532.54 1767.70L532.54 1767.70Q557.45 1742.80 577.37 1742.80L577.37 1742.80Q620.95 1742.80 620.95 1771.44L620.95 1771.44Q620.95 1782.64 598.54 1807.54L598.54 1807.54Q761.65 1871.04 761.65 1899.68L761.65 1899.68Q761.65 1937.04 719.31 1937.04L719.31 1937.04Q709.35 1937.04 680.71 1919.60L680.71 1919.60L549.98 1852.37Q445.39 1938.28 410.52 1938.28L410.52 1938.28ZM422.97 1612.06Q353.25 1612.06 353.25 1544.82L353.25 1544.82L353.25 1493.77Q353.25 1426.54 422.97 1426.54L422.97 1426.54L598.54 1426.54Q667.02 1426.54 667.02 1493.77L667.02 1493.77L667.02 1544.82Q667.02 1612.06 598.54 1612.06L598.54 1612.06L422.97 1612.06ZM567.41 1552.29Q581.10 1552.29 586.71 1544.20Q592.31 1536.11 592.31 1514.94L592.31 1514.94Q592.31 1486.30 567.41 1486.30L567.41 1486.30L452.86 1486.30Q440.41 1486.30 434.18 1493.77Q427.95 1501.25 427.95 1518.68L427.95 1518.68Q427.95 1537.35 434.18 1544.82Q440.41 1552.29 452.86 1552.29L452.86 1552.29L567.41 1552.29ZM338.31 2029.17Q314.65 2029.17 304.06 2019.84Q293.48 2010.50 293.48 1989.33L293.48 1989.33Q293.48 1948.24 338.31 1948.24L338.31 1948.24L812.70 1948.24L812.70 1735.33L383.13 1735.33Q340.80 1735.33 340.80 1697.97L340.80 1697.97Q340.80 1659.38 383.13 1659.38L383.13 1659.38L1341.87 1659.38Q1384.20 1659.38 1384.20 1697.97L1384.20 1697.97Q1384.20 1735.33 1341.87 1735.33L1341.87 1735.33L902.34 1735.33L902.34 1948.24L1386.69 1948.24Q1431.52 1948.24 1431.52 1989.33L1431.52 1989.33Q1431.52 2029.17 1386.69 2029.17L1386.69 2029.17L338.31 2029.17ZM492.70 1380.47Q472.78 1380.47 463.44 1373.00Q454.10 1365.53 454.10 1348.10L454.10 1348.10Q454.10 1315.72 492.70 1315.72L492.70 1315.72L729.27 1315.72Q767.87 1315.72 767.87 1348.10L767.87 1348.10Q767.87 1380.47 729.27 1380.47L729.27 1380.47L492.70 1380.47ZM1298.29 1938.28Q1284.59 1938.28 1229.81 1904.66L1229.81 1904.66L1121.48 1851.12Q1023.12 1934.55 989.50 1934.55L989.50 1934.55Q948.41 1934.55 948.41 1895.95L948.41 1895.95Q948.41 1873.54 983.28 1857.35L983.28 1857.35Q1045.53 1828.71 1102.81 1771.44L1102.81 1771.44Q1132.69 1741.55 1152.61 1741.55L1152.61 1741.55Q1194.95 1741.55 1194.95 1771.44L1194.95 1771.44Q1194.95 1783.89 1171.29 1807.54L1171.29 1807.54Q1344.36 1871.04 1344.36 1899.68L1344.36 1899.68Q1344.36 1938.28 1298.29 1938.28L1298.29 1938.28ZM771.61 1612.06Q704.37 1612.06 704.37 1544.82L704.37 1544.82L704.37 1493.77Q704.37 1426.54 771.61 1426.54L771.61 1426.54L948.41 1426.54Q1015.65 1426.54 1015.65 1493.77L1015.65 1493.77L1015.65 1544.82Q1015.65 1612.06 949.66 1612.06L949.66 1612.06L771.61 1612.06ZM916.04 1552.29Q929.74 1552.29 935.96 1544.20Q942.19 1536.11 942.19 1514.94L942.19 1514.94Q942.19 1486.30 916.04 1486.30L916.04 1486.30L802.73 1486.30Q777.83 1486.30 777.83 1514.94L777.83 1514.94Q777.83 1536.11 784.06 1544.20Q790.28 1552.29 802.73 1552.29L802.73 1552.29L916.04 1552.29ZM492.70 1273.39Q454.10 1273.39 454.10 1241.02L454.10 1241.02Q454.10 1223.58 463.44 1216.11Q472.78 1208.64 492.70 1208.64L492.70 1208.64L729.27 1208.64Q767.87 1208.64 767.87 1241.02L767.87 1241.02Q767.87 1273.39 729.27 1273.39L729.27 1273.39L492.70 1273.39ZM1120.24 1612.06Q1053.00 1612.06 1053.00 1544.82L1053.00 1544.82L1053.00 1493.77Q1053.00 1426.54 1120.24 1426.54L1120.24 1426.54L1304.52 1426.54Q1370.51 1426.54 1370.51 1493.77L1370.51 1493.77L1370.51 1544.82Q1370.51 1612.06 1304.52 1612.06L1304.52 1612.06L1120.24 1612.06ZM1270.90 1552.29Q1283.35 1552.29 1288.95 1544.82Q1294.56 1537.35 1294.56 1518.68L1294.56 1518.68Q1294.56 1501.25 1288.95 1493.77Q1283.35 1486.30 1270.90 1486.30L1270.90 1486.30L1151.37 1486.30Q1126.46 1486.30 1126.46 1514.94L1126.46 1514.94Q1126.46 1536.11 1132.69 1544.20Q1138.92 1552.29 1151.37 1552.29L1151.37 1552.29L1270.90 1552.29ZM984.52 1379.22Q964.60 1379.22 955.88 1371.75Q947.17 1364.28 947.17 1346.85L947.17 1346.85Q947.17 1314.48 984.52 1314.48L984.52 1314.48L1231.05 1314.48Q1270.90 1314.48 1270.90 1346.85L1270.90 1346.85Q1270.90 1379.22 1231.05 1379.22L1231.05 1379.22L984.52 1379.22ZM984.52 1273.39Q947.17 1273.39 947.17 1241.02L947.17 1241.02Q947.17 1223.58 955.88 1216.11Q964.60 1208.64 984.52 1208.64L984.52 1208.64L1231.05 1208.64Q1270.90 1208.64 1270.90 1241.02L1270.90 1241.02Q1270.90 1273.39 1231.05 1273.39L1231.05 1273.39L984.52 1273.39ZM2606.91 2065.28Q2516.02 2065.28 2478.66 1939.53Q2441.31 1813.77 2441.31 1614.55L2441.31 1614.55L2441.31 1468.87Q2441.31 1422.80 2401.46 1422.80L2401.46 1422.80L1665.60 1422.80Q1610.82 1422.80 1610.82 1380.47L1610.82 1380.47Q1610.82 1336.89 1665.60 1336.89L1665.60 1336.89L2431.35 1336.89Q2540.92 1336.89 2542.16 1441.48L2542.16 1441.48L2542.16 1557.28Q2542.16 1741.55 2557.73 1843.03Q2573.29 1944.51 2601.93 1944.51L2601.93 1944.51Q2610.64 1944.51 2614.38 1914.62Q2618.12 1884.74 2621.85 1812.52L2621.85 1812.52Q2624.34 1757.74 2662.94 1757.74L2662.94 1757.74Q2706.52 1757.74 2706.52 1806.30L2706.52 1806.30Q2706.52 2065.28 2606.91 2065.28L2606.91 2065.28ZM1702.95 2003.03Q1679.30 2014.23 1660.62 2014.23L1660.62 2014.23Q1627.00 2014.23 1615.80 1985.60L1615.80 1985.60Q1612.06 1976.88 1612.06 1966.92L1612.06 1966.92Q1612.06 1933.30 1663.11 1912.13L1663.11 1912.13Q1749.02 1876.03 1825.60 1824.98Q1902.17 1773.93 1953.22 1716.65L1953.22 1716.65L1991.82 1714.16L1990.58 1781.40Q1943.26 1839.92 1869.18 1898.44Q1795.09 1956.96 1702.95 2003.03L1702.95 2003.03ZM1821.24 1643.19Q1797.58 1643.19 1782.64 1614.55L1782.64 1614.55Q1773.93 1597.12 1761.47 1577.20L1761.47 1577.20L1740.31 1541.09Q1725.37 1518.68 1725.37 1504.98L1725.37 1504.98Q1725.37 1486.30 1737.82 1473.23Q1750.27 1460.16 1765.21 1460.16L1765.21 1460.16Q1783.89 1460.16 1794.47 1467.63Q1805.05 1475.10 1815.01 1490.04L1815.01 1490.04L1829.96 1513.70Q1871.04 1578.44 1871.04 1598.36L1871.04 1598.36Q1871.04 1618.29 1856.10 1630.74Q1841.16 1643.19 1821.24 1643.19L1821.24 1643.19ZM2026.68 2061.55Q1981.86 2061.55 1981.86 2010.50L1981.86 2010.50L1981.86 1498.75Q1981.86 1447.71 2027.93 1447.71L2027.93 1447.71Q2074.00 1447.71 2074.00 1498.75L2074.00 1498.75L2074.00 2010.50Q2074.00 2061.55 2026.68 2061.55L2026.68 2061.55ZM1670.58 1750.27Q1625.76 1750.27 1625.76 1709.18L1625.76 1709.18Q1625.76 1668.09 1670.58 1668.09L1670.58 1668.09L2351.66 1668.09Q2396.48 1668.09 2396.48 1709.18L2396.48 1709.18Q2396.48 1750.27 2351.66 1750.27L2351.66 1750.27L1670.58 1750.27ZM2357.89 1999.29Q2349.17 1999.29 2330.49 1988.71Q2311.82 1978.13 2288.16 1961.94L2288.16 1961.94Q2179.83 1889.72 2136.25 1868.55L2136.25 1868.55Q2105.13 1853.61 2098.90 1838.67L2098.90 1838.67Q2095.17 1831.20 2095.17 1823.73L2095.17 1823.73Q2095.17 1817.50 2098.90 1806.30L2098.90 1806.30Q2101.39 1796.34 2111.98 1789.49Q2122.56 1782.64 2136.25 1782.64L2136.25 1782.64Q2161.16 1782.64 2308.08 1863.57L2308.08 1863.57L2374.07 1897.19Q2413.92 1917.11 2413.92 1950.73L2413.92 1950.73Q2413.92 1971.90 2398.97 1985.60Q2384.03 1999.29 2357.89 1999.29L2357.89 1999.29ZM2217.19 1641.94Q2202.25 1641.94 2189.79 1628.87Q2177.34 1615.80 2177.34 1597.12L2177.34 1597.12Q2177.34 1583.42 2192.29 1561.01L2192.29 1561.01L2213.45 1524.90Q2225.90 1504.98 2234.62 1487.55L2234.62 1487.55Q2249.56 1458.91 2273.22 1458.91L2273.22 1458.91Q2293.14 1458.91 2308.08 1471.36Q2323.02 1483.81 2323.02 1503.74L2323.02 1503.74Q2323.02 1519.92 2281.93 1588.40L2281.93 1588.40L2266.99 1612.06Q2257.03 1627.00 2246.45 1634.47Q2235.86 1641.94 2217.19 1641.94L2217.19 1641.94ZM1806.30 1264.67Q1758.98 1264.67 1758.98 1222.34L1758.98 1222.34Q1758.98 1180.00 1806.30 1180.00L1806.30 1180.00L2494.85 1180.00Q2543.41 1180.00 2543.41 1222.34L2543.41 1222.34Q2543.41 1264.67 2494.85 1264.67L2494.85 1264.67L1806.30 1264.67ZM1614.55 1304.52Q1590.89 1304.52 1579.06 1291.44Q1567.24 1278.37 1567.24 1255.96L1567.24 1255.96Q1567.24 1232.30 1593.38 1211.13L1593.38 1211.13Q1719.14 1104.05 1803.81 972.07L1803.81 972.07Q1832.45 928.49 1864.82 928.49L1864.82 928.49Q1887.23 928.49 1902.17 939.70Q1917.11 950.90 1917.11 969.58L1917.11 969.58Q1917.11 984.52 1893.46 1021.88L1893.46 1021.88L2610.64 1021.88Q2666.67 1021.88 2666.67 1065.45L2666.67 1065.45Q2666.67 1107.79 2610.64 1107.79L2610.64 1107.79L1828.71 1107.79Q1666.85 1304.52 1614.55 1304.52L1614.55 1304.52Z"/>
  </svg>