<svg xmlns="http://www.w3.org/2000/svg" viewBox="0 0 3000 3000" width="3000" height="3000">
    <path fill="#000000" d="M853.57 1526.78L853.57 1526.78L894.37 1526.78Q882.90 1628.78 861.86 1714.20Q840.82 1799.63 802.57 1869.11Q764.32 1938.60 701.21 1993.43Q638.10 2048.25 543.11 2087.14Q448.12 2126.03 314.25 2151.53L314.25 2151.53Q311.70 2145.15 305.96 2134.95Q300.22 2124.75 293.85 2119.65L293.85 2119.65Q426.45 2095.43 518.89 2057.81Q611.32 2020.20 672.52 1967.93Q733.72 1915.65 770.06 1849.35Q806.40 1783.05 825.52 1702.73Q844.65 1622.40 853.57 1526.78ZM508.05 1618.58L508.05 1618.58L541.20 1633.88Q520.80 1684.88 488.92 1747.35Q457.05 1809.83 416.25 1851.90L416.25 1851.90L381.82 1831.50Q422.62 1791.98 455.14 1730.78Q487.65 1669.58 508.05 1618.58ZM1248.82 1619.85L1248.82 1619.85L1281.97 1638.97Q1255.20 1695.08 1221.41 1756.91Q1187.63 1818.75 1157.02 1863.38L1157.02 1863.38L1128.97 1845.53Q1149.38 1814.93 1171.69 1775.40Q1194 1735.88 1214.40 1694.44Q1234.80 1653 1248.82 1619.85ZM816.60 1751.18L851.02 1738.43Q895.65 1840.43 980.44 1916.29Q1065.22 1992.15 1182.52 2039.33Q1299.82 2086.50 1443.90 2105.63L1443.90 2105.63Q1440.07 2110.72 1434.97 2117.10Q1429.88 2123.47 1425.41 2129.21Q1420.95 2134.95 1418.40 2141.33L1418.40 2141.33Q1310.02 2123.47 1216.31 2090.96Q1122.60 2058.45 1044.82 2010Q967.05 1961.55 909.67 1897.16Q852.30 1832.78 816.60 1751.18L816.60 1751.18ZM482.55 1296L482.55 1259.03L1242.45 1259.03L1242.45 1296L482.55 1296ZM425.17 1099.65L425.17 1062.67L1266.67 1062.67L1266.67 1496.18L425.17 1496.18L425.17 1457.93L1228.42 1457.93L1228.42 1099.65L425.17 1099.65ZM1798.35 1194L1798.35 1155.75L2676.82 1155.75L2676.82 1194L1798.35 1194ZM1816.20 1357.20L1816.20 1320.22L2593.95 1320.22L2593.95 1357.20L1816.20 1357.20ZM1698.90 1528.05L1698.90 1491.08L2447.32 1491.08L2447.32 1528.05L1698.90 1528.05ZM1851.90 992.55L1851.90 992.55L1887.60 1001.47Q1853.17 1100.92 1806.64 1194.64Q1760.10 1288.35 1706.55 1369.31Q1653 1450.28 1593.08 1512.75L1593.08 1512.75Q1589.25 1510.20 1582.88 1505.74Q1576.50 1501.28 1570.13 1496.18Q1563.75 1491.08 1558.65 1488.53L1558.65 1488.53Q1650.45 1398 1726.95 1266.67Q1803.45 1135.35 1851.90 992.55ZM2426.93 1491.08L2426.93 1491.08L2465.18 1491.08Q2470.28 1580.33 2478.56 1669.58Q2486.85 1758.83 2500.88 1837.88Q2514.90 1916.93 2534.03 1978.76Q2553.15 2040.60 2579.93 2075.66Q2606.70 2110.72 2642.40 2110.72L2642.40 2110.72Q2662.80 2110.72 2671.09 2062.28Q2679.38 2013.83 2680.65 1932.23L2680.65 1932.23Q2687.03 1937.33 2697.23 1941.79Q2707.43 1946.25 2713.80 1948.80L2713.80 1948.80Q2709.98 2058.45 2695.31 2102.44Q2680.65 2146.43 2639.85 2146.43L2639.85 2146.43Q2583.75 2146.43 2546.14 2096.06Q2508.53 2045.70 2484.94 1956.45Q2461.35 1867.20 2447.96 1747.99Q2434.57 1628.78 2426.93 1491.08Z"/>
  </svg>