<svg xmlns="http://www.w3.org/2000/svg" viewBox="0 0 3000 3000" width="3000" height="3000">
    <path fill="#000000" d="M1275.60 2106.26L1275.60 2106.26Q1297.27 2106.26 1316.40 2068.01L1316.40 2068.01Q1325.32 2050.16 1325.32 2036.78Q1325.32 2023.39 1316.40 2013.83Q1307.47 2004.26 1290.90 1995.34L1290.90 1995.34Q1168.50 1923.94 1087.54 1890.15Q1006.57 1856.36 997.65 1856.36L997.65 1856.36Q984.90 1856.36 969.60 1878.04Q954.30 1899.71 954.30 1916.29L954.30 1916.29Q954.30 1936.69 981.07 1948.16L981.07 1948.16Q1047.38 1976.21 1114.95 2014.46Q1182.52 2052.71 1248.82 2096.06L1248.82 2096.06Q1265.40 2106.26 1275.60 2106.26ZM778.35 1971.11L778.35 1971.11Q796.20 1962.19 796.20 1945.61L796.20 1945.61Q796.20 1930.31 779.62 1909.28Q763.05 1888.24 743.92 1871.66L743.92 1871.66Q737.55 1865.29 732.45 1861.46L732.45 1861.46L1357.20 1839.79Q1369.95 1838.51 1380.79 1832.78Q1391.63 1827.04 1391.63 1813.01L1391.63 1813.01Q1391.63 1797.71 1377.60 1782.41Q1363.57 1767.11 1346.36 1756.91Q1329.15 1746.71 1313.85 1746.71L1313.85 1746.71Q1306.20 1746.71 1297.27 1749.26L1297.27 1749.26Q1276.87 1755.64 1259.66 1758.19Q1242.45 1760.74 1229.70 1762.01L1229.70 1762.01L525.90 1788.79L533.55 1420.31Q533.55 1393.54 511.87 1380.15Q490.20 1366.76 468.52 1363.58Q446.85 1360.39 440.47 1360.39L440.47 1360.39Q418.80 1360.39 418.80 1376.96L418.80 1376.96Q418.80 1387.16 425.17 1397.36L425.17 1397.36Q431.55 1410.11 436.01 1423.50Q440.47 1436.89 440.47 1449.64L440.47 1449.64L432.82 1807.91Q432.82 1837.24 444.30 1851.26Q455.77 1865.29 469.16 1869.75Q482.55 1874.21 487.65 1874.21L487.65 1874.21Q497.85 1874.21 506.14 1872.30Q514.42 1870.39 525.90 1869.11L525.90 1869.11L698.02 1862.74Q694.20 1867.84 692.92 1876.76L692.92 1876.76Q686.55 1902.26 663.60 1918.84L663.60 1918.84Q610.05 1958.36 545.66 1992.79Q481.27 2027.21 408.60 2056.54L408.60 2056.54Q370.35 2073.11 370.35 2089.69L370.35 2089.69Q370.35 2107.54 400.95 2107.54L400.95 2107.54Q421.35 2107.54 480.00 2093.51Q538.65 2079.49 618.34 2048.89Q698.02 2018.29 778.35 1971.11ZM718.42 1611.56L1103.47 1592.44L1100.92 1645.99L719.70 1662.56L718.42 1611.56ZM715.87 1499.36L1107.30 1478.96L1104.75 1519.76L717.15 1538.89L715.87 1499.36ZM713.32 1387.16L1111.13 1365.49L1108.57 1407.56L714.60 1427.96L713.32 1387.16ZM720.97 1742.89L720.97 1737.79L1179.97 1718.66Q1194 1717.39 1206.75 1714.20Q1219.50 1711.01 1219.50 1695.71L1219.50 1695.71Q1219.50 1679.14 1188.90 1644.71L1188.90 1644.71L1205.47 1360.39Q1206.75 1356.56 1208.66 1350.19Q1210.57 1343.81 1210.57 1336.16L1210.57 1336.16Q1210.57 1308.11 1184.44 1297.91Q1158.30 1287.71 1137.90 1287.71L1137.90 1287.71L1128.97 1287.71L706.95 1311.94Q676.35 1297.91 654.67 1291.54Q633.00 1285.16 620.25 1285.16L620.25 1285.16Q597.30 1285.16 597.30 1304.29L597.30 1304.29Q597.30 1310.66 601.12 1319.59Q604.95 1328.51 610.05 1337.44L610.05 1337.44Q615.15 1347.64 617.70 1363.58Q620.25 1379.51 621.52 1394.81L621.52 1394.81L629.17 1643.44L629.17 1660.01Q629.17 1685.51 624.07 1711.01L624.07 1711.01L624.07 1718.66Q624.07 1739.06 649.57 1754.36Q675.07 1769.66 694.20 1769.66L694.20 1769.66Q720.97 1769.66 720.97 1742.89L720.97 1742.89ZM677.62 1158.94L677.62 1158.94L677.62 1147.46Q786.00 1134.71 889.91 1114.31Q993.82 1093.91 1120.05 1056.94L1120.05 1056.94Q1128.97 1053.11 1137.26 1046.10Q1145.55 1039.09 1145.55 1025.06L1145.55 1025.06Q1145.55 1007.21 1134.71 987.45Q1123.88 967.69 1109.85 953.02Q1095.82 938.36 1084.35 938.36Q1072.88 938.36 1067.77 949.84L1067.77 949.84Q1060.13 961.31 1046.74 973.42Q1033.35 985.54 996.37 1000.20Q959.40 1014.86 882.26 1035.26Q805.12 1055.66 678.90 1082.44L678.90 1082.44L681.45 975.34Q681.45 966.41 672.52 956.85Q663.60 947.29 635.55 939Q607.50 930.71 594.75 930.71L594.75 930.71Q574.35 930.71 574.35 946.01L574.35 946.01Q574.35 952.39 582.00 967.69L582.00 967.69Q587.10 976.61 587.74 988.73Q588.37 1000.84 588.37 1011.04L588.37 1011.04L587.10 1155.11L587.10 1158.94Q587.10 1211.21 610.69 1234.16Q634.27 1257.11 680.81 1260.94Q727.35 1264.76 794.92 1264.76L794.92 1264.76Q876.52 1264.76 964.50 1259.66Q1052.47 1254.56 1131.52 1244.36L1131.52 1244.36Q1181.25 1237.99 1203.56 1223.33Q1225.88 1208.66 1230.34 1178.06Q1234.80 1147.46 1234.80 1099.01L1234.80 1099.01Q1234.80 1068.41 1231.61 1037.17Q1228.42 1005.94 1208.02 1005.94L1208.02 1005.94Q1188.90 1005.94 1179.97 1049.29L1179.97 1049.29Q1171.05 1095.19 1164.67 1118.78Q1158.30 1142.36 1148.10 1150.65Q1137.90 1158.94 1116.22 1162.76L1116.22 1162.76Q1046.10 1174.24 963.22 1179.34Q880.35 1184.44 803.85 1184.44L803.85 1184.44Q747.75 1184.44 719.70 1182.53Q691.65 1180.61 684.64 1175.51Q677.62 1170.41 677.62 1158.94ZM1939.88 1620.49L1939.88 1620.49Q1939.88 1607.74 1917.56 1583.51Q1895.25 1559.29 1866.56 1534.43Q1837.88 1509.56 1811.74 1491.71Q1785.60 1473.86 1776.67 1473.86L1776.67 1473.86Q1769.03 1473.86 1751.17 1485.97Q1733.33 1498.09 1733.33 1514.66L1733.33 1514.66Q1733.33 1529.96 1751.17 1543.99L1751.17 1543.99Q1779.22 1565.66 1802.17 1589.25Q1825.13 1612.84 1849.35 1644.71L1849.35 1644.71Q1871.03 1672.76 1887.60 1672.76L1887.60 1672.76Q1900.35 1672.76 1920.11 1656.83Q1939.88 1640.89 1939.88 1620.49ZM2066.10 1755.64L2066.10 1741.61L2361.90 1727.59Q2397.60 1723.76 2397.60 1704.64L2397.60 1704.64Q2397.60 1691.89 2386.13 1677.86Q2374.65 1663.84 2359.35 1652.36Q2344.05 1640.89 2330.03 1640.89L2330.03 1640.89Q2319.82 1640.89 2308.35 1644.71L2308.35 1644.71Q2291.78 1649.81 2275.20 1653Q2258.63 1656.19 2238.22 1657.46L2238.22 1657.46L2120.93 1663.84Q2123.47 1662.56 2126.03 1661.29L2126.03 1661.29L2138.78 1654.91Q2182.13 1631.96 2216.55 1600.73Q2250.97 1569.49 2294.32 1528.69L2294.32 1528.69Q2305.80 1519.76 2305.80 1508.29L2305.80 1508.29Q2305.80 1490.44 2288.59 1474.50Q2271.38 1458.56 2252.89 1447.09Q2234.40 1435.61 2228.03 1435.61L2228.03 1435.61Q2210.18 1435.61 2210.18 1461.11L2210.18 1461.11Q2210.18 1490.44 2182.13 1529.33Q2154.07 1568.21 2108.18 1617.94L2108.18 1617.94Q2081.40 1644.71 2081.40 1657.46L2081.40 1657.46Q2081.40 1662.56 2083.95 1665.11L2083.95 1665.11L2066.10 1666.39L2067.38 1467.49Q2067.38 1440.71 2045.70 1430.51L2045.70 1430.51Q2030.40 1422.86 2013.83 1420.31L2013.83 1420.31L2419.28 1396.09Q2416.73 1439.44 2414.81 1489.80Q2412.90 1540.16 2412.90 1588.61L2412.90 1588.61Q2412.90 1718.66 2430.11 1807.28Q2447.32 1895.89 2474.74 1951.99Q2502.15 2008.09 2532.11 2039.33Q2562.07 2070.56 2586.94 2083.31Q2611.80 2096.06 2623.28 2099.89L2623.28 2099.89Q2650.05 2107.54 2667.90 2107.54L2667.90 2107.54Q2684.48 2107.54 2699.14 2100.53Q2713.80 2093.51 2724 2065.46Q2734.20 2037.41 2741.85 1979.40Q2749.50 1921.39 2755.88 1816.84L2755.88 1816.84Q2755.88 1811.74 2756.51 1807.28Q2757.15 1802.81 2757.15 1797.71L2757.15 1797.71Q2757.15 1746.71 2737.39 1746.71Q2717.63 1746.71 2701.05 1809.19L2701.05 1809.19Q2695.95 1828.31 2687.03 1860.83Q2678.10 1893.34 2667.90 1925.85Q2657.70 1958.36 2650.05 1978.76L2650.05 1978.76L2642.40 1999.16L2629.65 1991.51Q2616.90 1985.14 2596.50 1964.10Q2576.10 1943.06 2555.70 1898.44Q2535.30 1853.81 2521.28 1780.50Q2507.25 1707.19 2507.25 1596.26L2507.25 1596.26Q2507.25 1547.81 2509.80 1498.72Q2512.35 1449.64 2514.90 1402.46L2514.90 1402.46Q2516.18 1392.26 2519.36 1383.34Q2522.55 1374.41 2522.55 1364.21L2522.55 1364.21Q2522.55 1337.44 2498.33 1325.33Q2474.10 1313.21 2460.07 1313.21L2460.07 1313.21L2452.43 1313.21L1802.17 1352.74L1783.05 1352.74Q1765.20 1352.74 1753.72 1350.83Q1742.25 1348.91 1729.50 1345.09L1729.50 1345.09Q1723.13 1341.26 1719.30 1341.26L1719.30 1341.26L1718.03 1341.26Q1746.08 1315.76 1780.50 1280.06L1780.50 1280.06Q1832.78 1225.24 1877.40 1156.39L1877.40 1156.39L2590.13 1114.31Q2596.50 1114.31 2600.32 1113.04L2600.32 1113.04Q2629.65 1107.94 2629.65 1086.26L2629.65 1086.26Q2629.65 1077.34 2619.45 1062.67Q2609.25 1048.01 2593.95 1035.26Q2578.65 1022.51 2559.53 1022.51L2559.53 1022.51Q2555.70 1022.51 2551.88 1023.15Q2548.05 1023.79 2544.23 1025.06L2544.23 1025.06Q2534.03 1028.89 2523.19 1030.16Q2512.35 1031.44 2497.05 1032.71L2497.05 1032.71L1933.50 1067.14Q1947.53 1041.64 1957.09 1023.79Q1966.65 1005.94 1969.20 998.29Q1971.75 990.64 1971.75 985.54L1971.75 985.54Q1971.75 965.14 1951.99 951.11Q1932.22 937.09 1911.19 929.44Q1890.15 921.79 1883.78 921.79L1883.78 921.79Q1863.38 921.79 1863.38 944.74L1863.38 944.74L1863.38 957.49Q1863.38 981.71 1847.44 1019.33Q1831.50 1056.94 1804.72 1102.20Q1777.95 1147.46 1747.35 1192.09Q1716.75 1236.71 1687.42 1274.96Q1658.10 1313.21 1636.42 1338.71L1636.42 1338.71Q1610.92 1370.59 1610.92 1387.16L1610.92 1387.16Q1610.92 1401.19 1626.22 1401.19L1626.22 1401.19Q1644.08 1401.19 1686.15 1369.31L1686.15 1369.31Q1691.25 1364.21 1696.35 1360.39L1696.35 1360.39Q1697.63 1365.49 1700.17 1374.41L1700.17 1374.41Q1715.47 1415.21 1735.88 1423.50Q1756.28 1431.79 1781.78 1431.79L1781.78 1431.79L1806 1431.79L1957.72 1422.86Q1957.72 1424.14 1957.72 1426.69L1957.72 1426.69Q1957.72 1438.16 1964.10 1448.36L1964.10 1448.36Q1971.75 1461.11 1974.30 1474.50Q1976.85 1487.89 1976.85 1504.46L1976.85 1504.46L1975.58 1668.94L1739.70 1680.41L1719.30 1680.41Q1691.25 1680.41 1670.85 1675.31L1670.85 1675.31Q1665.75 1674.04 1661.29 1674.04Q1656.83 1674.04 1654.28 1674.04L1654.28 1674.04Q1637.70 1674.04 1637.70 1688.06L1637.70 1688.06Q1637.70 1690.61 1638.34 1694.44Q1638.97 1698.26 1641.53 1703.36L1641.53 1703.36Q1647.90 1713.56 1653.64 1723.76Q1659.38 1733.96 1669.58 1742.89L1669.58 1742.89Q1683.60 1759.46 1715.47 1759.46L1715.47 1759.46Q1721.85 1759.46 1728.22 1758.83Q1734.60 1758.19 1742.25 1758.19L1742.25 1758.19L1908 1747.99Q1845.53 1816.84 1767.75 1876.13Q1689.97 1935.41 1596.90 1991.51L1596.90 1991.51Q1566.30 2010.64 1566.30 2027.21L1566.30 2027.21Q1566.30 2041.24 1582.24 2041.24Q1598.17 2041.24 1645.35 2022.75Q1692.53 2004.26 1755 1969.20Q1817.47 1934.14 1881.22 1883.78Q1944.97 1833.41 1976.85 1791.34L1976.85 1791.34Q1974.30 1815.56 1974.30 1833.41L1974.30 1833.41Q1974.30 1857.64 1973.66 1886.96Q1973.03 1916.29 1973.03 1937.96L1973.03 1937.96L1973.03 1958.36Q1973.03 2010.64 1967.93 2041.24L1967.93 2041.24Q1966.65 2045.06 1966.65 2053.99L1966.65 2053.99Q1966.65 2073.11 1990.24 2092.88Q2013.83 2112.64 2035.50 2112.64L2035.50 2112.64Q2052.07 2112.64 2057.81 2100.53Q2063.55 2088.41 2063.55 2074.39L2063.55 2074.39L2064.82 1841.06Q2101.80 1860.19 2159.81 1899.08Q2217.82 1937.96 2277.75 1983.86L2277.75 1983.86Q2285.40 1988.96 2293.69 1992.79Q2301.98 1996.61 2308.35 1996.61L2308.35 1996.61Q2326.20 1996.61 2335.76 1981.95Q2345.32 1967.29 2350.43 1951.99Q2355.53 1936.69 2355.53 1934.14L2355.53 1934.14Q2355.53 1911.19 2328.75 1897.16L2328.75 1897.16Q2294.32 1875.49 2254.80 1851.90Q2215.28 1828.31 2177.66 1808.55Q2140.05 1788.79 2112.64 1776.04Q2085.22 1763.29 2076.30 1763.29L2076.30 1763.29Q2061 1763.29 2066.10 1755.64L2066.10 1755.64ZM1950.08 1282.61L1964.10 1282.61L2449.88 1254.56Q2485.58 1250.74 2485.58 1229.06L2485.58 1229.06Q2485.58 1216.31 2465.18 1193.36L2465.18 1193.36Q2451.15 1180.61 2440.31 1175.51Q2429.48 1170.41 2419.28 1170.41Q2409.07 1170.41 2403.98 1171.69L2403.98 1171.69Q2392.50 1175.51 2381.66 1176.79Q2370.82 1178.06 2356.80 1179.34L2356.80 1179.34L1957.72 1203.56L1942.43 1203.56Q1915.65 1203.56 1893.97 1198.46L1893.97 1198.46Q1888.88 1197.19 1884.41 1196.55Q1879.95 1195.91 1877.40 1195.91L1877.40 1195.91Q1862.10 1195.91 1862.10 1209.94L1862.10 1209.94Q1862.10 1221.41 1871.03 1237.99Q1879.95 1254.56 1899.71 1268.59Q1919.47 1282.61 1950.08 1282.61L1950.08 1282.61Z"/>
  </svg>