<svg xmlns="http://www.w3.org/2000/svg" viewBox="0 0 3000 3000" width="3000" height="3000">
    <path fill="#000000" d="M1010.40 1975.58L1010.40 1975.58L1032.07 1950.08Q1104.75 1974.30 1176.79 2002.35Q1248.82 2030.40 1311.94 2058.45Q1375.05 2086.50 1422.22 2110.72L1422.22 2110.72L1395.45 2140.05Q1349.55 2114.55 1287.71 2086.50Q1225.88 2058.45 1155.11 2029.76Q1084.35 2001.08 1010.40 1975.58ZM300.22 1892.70L300.22 1855.73L1426.05 1855.73L1426.05 1892.70L300.22 1892.70ZM338.47 1163.40L338.47 1126.42L1391.63 1126.42L1391.63 1163.40L338.47 1163.40ZM681.45 1947.53L681.45 1947.53L723.52 1966.65Q672.52 2001.08 605.59 2034.23Q538.65 2067.38 467.89 2095.43Q397.12 2123.47 333.37 2143.88L333.37 2143.88Q330.82 2138.78 322.54 2129.21Q314.25 2119.65 307.87 2114.55L307.87 2114.55Q371.62 2094.15 442.39 2066.74Q513.15 2039.33 576.90 2008.73Q640.65 1978.13 681.45 1947.53ZM511.87 1457.93L511.87 1420.95L1209.30 1420.95L1209.30 1457.93L511.87 1457.93ZM511.87 1595.63L511.87 1558.65L1209.30 1558.65L1209.30 1595.63L511.87 1595.63ZM511.87 1735.88L511.87 1698.90L1209.30 1698.90L1209.30 1735.88L511.87 1735.88ZM496.57 1882.50L496.57 1267.95L1230.97 1267.95L1230.97 1882.50L1194 1882.50L1194 1306.20L533.55 1306.20L533.55 1882.50L496.57 1882.50ZM838.27 996.38L838.27 996.38L880.35 1004.03Q873.97 1049.92 866.96 1102.84Q859.95 1155.75 852.30 1205.47Q844.65 1255.20 837.00 1292.17L837.00 1292.17L802.57 1284.53Q810.22 1247.55 817.24 1195.91Q824.25 1144.28 829.99 1090.72Q835.72 1037.17 838.27 996.38ZM1802.17 1160.85L1802.17 1123.88L2664.07 1123.88L2664.07 1160.85L1802.17 1160.85ZM1800.90 1311.30L1800.90 1273.05L2578.65 1273.05L2578.65 1311.30L1800.90 1311.30ZM1684.88 1463.03L1684.88 1426.05L2467.73 1426.05L2467.73 1463.03L1684.88 1463.03ZM1603.28 1785.60L1603.28 1748.63L2384.85 1748.63L2384.85 1785.60L1603.28 1785.60ZM1860.83 993.83L1860.83 993.83L1899.08 1004.03Q1864.65 1081.80 1818.11 1155.11Q1771.58 1228.42 1718.03 1290.26Q1664.47 1352.10 1607.10 1400.55L1607.10 1400.55Q1604.55 1396.72 1598.17 1392.26Q1591.80 1387.80 1585.42 1383.34Q1579.05 1378.88 1573.95 1376.33L1573.95 1376.33Q1661.92 1306.20 1737.79 1206.11Q1813.65 1106.03 1860.83 993.83ZM2460.07 1426.05L2460.07 1426.05L2497.05 1426.05Q2497.05 1593.08 2500.88 1721.21Q2504.70 1849.35 2518.09 1936.05Q2531.48 2022.75 2559.53 2066.74Q2587.57 2110.72 2637.30 2110.72L2637.30 2110.72Q2661.53 2110.72 2669.18 2056.54Q2676.82 2002.35 2679.38 1916.93L2679.38 1916.93Q2685.75 1922.03 2696.59 1927.13Q2707.43 1932.23 2713.80 1934.78L2713.80 1934.78Q2711.25 2018.93 2704.24 2064.83Q2697.23 2110.72 2681.93 2128.58Q2666.63 2146.43 2634.75 2146.43L2634.75 2146.43Q2572.28 2146.43 2537.21 2102.44Q2502.15 2058.45 2486.21 1969.20Q2470.28 1879.95 2465.81 1744.16Q2461.35 1608.38 2460.07 1426.05ZM1707.83 1535.70L1707.83 1535.70L1737.15 1519.13Q1775.40 1558.65 1809.19 1607.10Q1842.97 1655.55 1857 1692.53L1857 1692.53L1825.13 1710.38Q1811.10 1673.40 1777.95 1624.31Q1744.80 1575.22 1707.83 1535.70ZM1974.30 2145.15L1974.30 1493.63L2011.28 1493.63L2011.28 2145.15L1974.30 2145.15ZM2258.63 1517.85L2258.63 1517.85L2293.05 1538.25Q2258.63 1585.43 2217.19 1636.43Q2175.75 1687.43 2140.05 1724.40L2140.05 1724.40L2112 1706.55Q2136.22 1681.05 2163.64 1647.90Q2191.05 1614.75 2216.55 1580.33Q2242.05 1545.90 2258.63 1517.85ZM1878.67 1848.08L1878.67 1848.08L1909.28 1863.38Q1878.67 1914.38 1832.78 1966.65Q1786.88 2018.93 1735.88 2062.91Q1684.88 2106.90 1637.70 2136.22L1637.70 2136.22Q1632.60 2128.58 1624.95 2120.29Q1617.30 2112 1610.92 2106.90L1610.92 2106.90Q1658.10 2081.40 1708.46 2039.96Q1758.83 1998.53 1804.09 1948.80Q1849.35 1899.08 1878.67 1848.08ZM2103.07 1876.13L2103.07 1876.13L2128.57 1855.73Q2174.47 1890.15 2221.01 1930.95Q2267.55 1971.75 2307.71 2011.91Q2347.88 2052.08 2372.10 2083.95L2372.10 2083.95L2345.32 2109.45Q2319.82 2076.30 2279.66 2035.50Q2239.50 1994.70 2193.60 1952.63Q2147.70 1910.55 2103.07 1876.13Z"/>
  </svg>