<svg xmlns="http://www.w3.org/2000/svg" viewBox="0 0 3000 3000" width="3000" height="3000">
    <path fill="#000000" d="M277.27 1529.33L277.27 1529.33Q402.22 1366.13 525.90 1121.33L525.90 1121.33Q593.47 988.73 593.47 940.27L593.47 940.27Q593.47 930.07 589.65 914.77L589.65 914.77Q589.65 902.03 608.77 902.03Q627.90 902.03 657.86 922.42Q687.82 942.82 687.82 953.02L687.82 953.02Q687.82 973.42 640.65 1073.51Q593.47 1173.60 555.22 1238.63L555.22 1238.63L555.22 2022.75Q555.22 2048.25 533.55 2048.25L533.55 2048.25Q532.27 2048.25 515.70 2043.79Q499.12 2039.33 482.55 2026.58Q465.97 2013.83 465.97 1999.16Q465.97 1984.50 469.80 1967.93Q473.62 1951.35 473.62 1909.28L473.62 1909.28L478.72 1353.38Q431.55 1420.95 378.00 1478.33Q324.45 1535.70 302.14 1554.19Q279.82 1572.68 270.26 1572.68Q260.70 1572.68 260.70 1561.84Q260.70 1551 277.27 1529.33ZM894.37 1002.75L894.37 1002.75Q870.15 993.83 870.15 977.25L870.15 977.25Q870.15 969.60 873.97 958.13L873.97 958.13Q882.90 932.63 901.39 932.63Q919.87 932.63 1005.94 963.23Q1092 993.83 1129.61 1010.40Q1167.22 1026.97 1167.22 1042.28Q1167.22 1057.58 1157.66 1077.97Q1148.10 1098.38 1136.63 1098.38Q1125.15 1098.38 1069.05 1070.96Q1012.95 1043.55 894.37 1002.75ZM1403.10 1199.10L750.30 1237.35Q729.90 1239.90 710.14 1239.90Q690.37 1239.90 669.97 1229.06Q649.57 1218.22 633.00 1171.05L633.00 1171.05Q631.72 1168.50 631.72 1162.76Q631.72 1157.03 637.46 1157.03Q643.20 1157.03 661.05 1161.49Q678.90 1165.95 705.67 1165.95L705.67 1165.95L715.87 1165.95L1304.92 1130.25Q1330.42 1128.97 1343.81 1123.24Q1357.20 1117.50 1366.13 1117.50Q1375.05 1117.50 1391.63 1130.25L1391.63 1130.25Q1432.42 1162.13 1432.42 1181.25L1432.42 1181.25Q1432.42 1196.55 1403.10 1199.10L1403.10 1199.10ZM1283.25 1378.88L862.50 1400.55L820.42 1401.83Q803.85 1401.83 783.45 1392.90Q763.05 1383.97 745.20 1336.80L745.20 1336.80Q743.92 1334.25 743.92 1328.51Q743.92 1322.78 749.66 1322.78Q755.40 1322.78 773.25 1327.24Q791.10 1331.70 817.87 1331.70L817.87 1331.70L828.07 1331.70L1185.07 1312.58Q1208.02 1310.03 1222.05 1305.56Q1236.07 1301.10 1245 1301.10Q1253.92 1301.10 1270.50 1311.30L1270.50 1311.30Q1310.02 1339.35 1310.02 1361.03L1310.02 1361.03Q1310.02 1376.33 1283.25 1378.88L1283.25 1378.88ZM1283.25 1539.53L862.50 1561.20L820.42 1562.48Q803.85 1562.48 783.45 1553.55Q763.05 1544.63 745.20 1497.45L745.20 1497.45Q743.92 1494.90 743.92 1489.16Q743.92 1483.43 749.66 1483.43Q755.40 1483.43 773.25 1487.89Q791.10 1492.35 817.87 1492.35L817.87 1492.35L828.07 1492.35L1185.07 1473.22Q1208.02 1470.68 1222.05 1466.21Q1236.07 1461.75 1244.36 1461.75Q1252.65 1461.75 1267.95 1471.95L1267.95 1471.95Q1311.30 1498.72 1311.30 1521.68L1311.30 1521.68Q1311.30 1535.70 1283.25 1539.53L1283.25 1539.53ZM1297.27 1720.58L1264.12 1902.90Q1301.10 1939.88 1301.10 1954.54Q1301.10 1969.20 1288.99 1971.11Q1276.87 1973.03 1260.30 1974.30L1260.30 1974.30L880.35 1984.50L882.90 2010L882.90 2013.83Q882.90 2040.60 856.76 2040.60Q830.62 2040.60 810.86 2024.03Q791.10 2007.45 791.10 1990.88L791.10 1990.88L791.10 1984.50Q794.92 1938.60 794.92 1930.95L794.92 1930.95L794.92 1920.75Q794.92 1915.65 793.65 1910.55L793.65 1910.55L775.80 1732.05Q771.97 1696.35 761.77 1675.95Q751.57 1655.55 751.57 1653L751.57 1653Q751.57 1641.53 773.89 1641.53Q796.20 1641.53 853.57 1664.48L853.57 1664.48L1236.07 1649.18Q1285.80 1649.18 1299.82 1681.05L1299.82 1681.05Q1304.92 1692.53 1304.92 1697.63Q1304.92 1702.73 1301.74 1708.46Q1298.55 1714.20 1297.27 1720.58L1297.27 1720.58ZM1182.52 1902.90L1206.75 1723.13L858.67 1735.88L873.97 1909.28L1182.52 1902.90ZM2026.58 1242.45L2026.58 1242.45Q2002.35 1234.80 2002.35 1216.95L2002.35 1216.95Q2002.35 1211.85 2004.90 1201.65L2004.90 1201.65Q2013.83 1174.88 2029.13 1174.88Q2044.43 1174.88 2148.34 1208.03Q2252.25 1241.18 2279.66 1253.29Q2307.07 1265.40 2307.07 1281.97Q2307.07 1298.55 2298.15 1317.04Q2289.23 1335.53 2279.03 1335.53Q2268.82 1335.53 2200.61 1304.29Q2132.40 1273.05 2026.58 1242.45ZM2358.07 1735.88L2358.07 1735.88Q2373.38 1735.88 2398.24 1781.78Q2423.10 1827.68 2467.73 1888.24Q2512.35 1948.80 2512.35 1964.10Q2512.35 1979.40 2493.23 1994.70Q2474.10 2010 2435.21 2016.38Q2396.32 2022.75 2314.73 2022.75L2314.73 2022.75Q2112 2022.75 2011.28 1964.10L2011.28 1964.10Q1895.25 1892.70 1859.55 1724.40L1859.55 1724.40L1853.17 1693.80Q1853.17 1670.85 1890.15 1667.03L1890.15 1667.03L1902.90 1665.75Q1922.03 1665.75 1929.68 1692.53L1929.68 1692.53Q1942.43 1743.53 1961.55 1788.79Q1980.68 1834.05 2017.65 1868.48L2017.65 1868.48Q2096.70 1942.43 2290.50 1942.43L2290.50 1942.43Q2400.15 1942.43 2400.15 1930.95L2400.15 1930.95L2388.68 1900.35Q2346.60 1784.33 2346.60 1760.10Q2346.60 1735.88 2358.07 1735.88ZM1650.45 1965.38L1650.45 1965.38Q1641.53 1965.38 1628.78 1959L1628.78 1959Q1594.35 1941.15 1594.35 1923.30L1594.35 1923.30Q1594.35 1914.38 1617.30 1877.40L1617.30 1877.40Q1679.78 1783.05 1721.85 1654.28L1721.85 1654.28Q1729.50 1631.33 1747.35 1631.33L1747.35 1631.33Q1753.72 1631.33 1774.13 1638.98Q1794.53 1646.63 1794.53 1660.65L1794.53 1660.65Q1794.53 1688.70 1752.45 1785.60L1752.45 1785.60Q1674.67 1965.38 1650.45 1965.38ZM2194.88 1811.10L2194.88 1811.10Q2127.30 1737.15 2054.63 1681.05L2054.63 1681.05Q2035.50 1667.03 2035.50 1658.10Q2035.50 1649.18 2046.97 1633.24Q2058.45 1617.30 2067.38 1617.30Q2076.30 1617.30 2097.34 1630.69Q2118.38 1644.08 2147.06 1665.75Q2175.75 1687.43 2203.80 1709.74Q2231.85 1732.05 2250.34 1751.18Q2268.82 1770.30 2268.82 1777.95Q2268.82 1785.60 2253.53 1806.64Q2238.22 1827.68 2224.84 1827.68Q2211.45 1827.68 2194.88 1811.10ZM2623.28 1844.25L2623.28 1844.25Q2535.30 1738.43 2449.88 1667.03L2449.88 1667.03Q2433.30 1651.73 2433.30 1643.44Q2433.30 1635.15 2447.32 1618.58Q2461.35 1602 2470.28 1602Q2479.20 1602 2504.06 1620.49Q2528.93 1638.98 2562.07 1667.03Q2595.23 1695.08 2626.46 1725.04Q2657.70 1755 2678.74 1778.59Q2699.78 1802.18 2699.78 1810.46Q2699.78 1818.75 2682.56 1839.15Q2665.35 1859.55 2651.32 1859.55Q2637.30 1859.55 2623.28 1844.25ZM2322.38 1428.60L1915.65 1452.83L1887.60 1454.10Q1863.38 1454.10 1846.80 1437.53Q1830.22 1420.95 1824.49 1404.38Q1818.75 1387.80 1818.75 1385.25L1818.75 1385.25Q1818.75 1377.60 1824.49 1377.60Q1830.22 1377.60 1841.06 1380.79Q1851.90 1383.97 1874.85 1383.97L1874.85 1383.97L1888.88 1383.97L2364.45 1359.75L2379.75 1359.75Q2418 1359.75 2430.75 1392.90L2430.75 1392.90Q2435.85 1403.10 2435.85 1409.47Q2435.85 1415.85 2428.20 1423.50L2428.20 1423.50L2416.73 1434.97Q2298.15 1559.93 2224.20 1614.75L2224.20 1614.75Q2194.88 1636.43 2182.76 1636.43Q2170.65 1636.43 2152.80 1621.13Q2134.95 1605.83 2134.95 1593.71Q2134.95 1581.60 2168.10 1558.65L2168.10 1558.65Q2249.70 1503.83 2322.38 1428.60L2322.38 1428.60ZM2106.90 865.05L2106.90 865.05Q2133.68 865.05 2171.93 898.20L2171.93 898.20Q2187.22 912.23 2187.22 921.79Q2187.22 931.35 2160.45 970.88L2160.45 970.88Q2405.25 1195.28 2731.65 1336.80L2731.65 1336.80Q2753.32 1347 2753.32 1355.93L2753.32 1355.93Q2753.32 1357.20 2743.13 1371.22L2743.13 1371.22Q2713.80 1412.03 2688.30 1412.03L2688.30 1412.03Q2683.20 1412.03 2634.11 1389.08Q2585.03 1366.13 2504.70 1318.95L2504.70 1318.95Q2301.98 1197.83 2118.38 1028.25L2118.38 1028.25Q1948.80 1246.28 1691.25 1392.90L1691.25 1392.90Q1567.58 1463.03 1540.80 1463.03L1540.80 1463.03Q1528.05 1463.03 1528.05 1450.28Q1528.05 1437.53 1561.20 1415.85L1561.20 1415.85Q1799.63 1264.13 1945.61 1106.66Q2091.60 949.20 2091.60 884.17L2091.60 884.17Q2094.15 865.05 2106.90 865.05Z"/>
  </svg>