<svg xmlns="http://www.w3.org/2000/svg" viewBox="0 0 3000 3000" width="3000" height="3000">
    <path fill="#000000" d="M867.60 1791.34L1197.82 1778.59L1176.15 1943.06L880.35 1949.44L867.60 1791.34ZM890.55 2057.81L889.27 2039.96L1260.30 2029.76Q1278.15 2028.49 1293.45 2025.94Q1308.75 2023.39 1308.75 2006.81L1308.75 2006.81Q1308.75 1996.61 1299.82 1981.31Q1290.90 1966.01 1271.77 1948.16L1271.77 1948.16L1304.92 1769.66Q1306.20 1764.56 1309.39 1758.83Q1312.57 1753.09 1312.57 1742.89L1312.57 1742.89Q1312.57 1739.06 1306.84 1725.68Q1301.10 1712.29 1284.52 1700.81Q1267.95 1689.34 1236.07 1689.34L1236.07 1689.34L854.85 1704.64Q824.25 1691.89 802.57 1686.79Q780.90 1681.69 768.15 1681.69L768.15 1681.69Q743.92 1681.69 743.92 1700.81L743.92 1700.81Q743.92 1704.64 745.84 1709.10Q747.75 1713.56 749.02 1718.66L749.02 1718.66Q764.32 1747.99 768.15 1781.14L768.15 1781.14L786.00 1959.64Q787.27 1964.74 787.27 1968.56Q787.27 1972.39 787.27 1977.49L787.27 1977.49Q787.27 1990.24 786.00 2002.99Q784.72 2015.74 783.45 2032.31L783.45 2032.31L783.45 2038.69Q783.45 2059.09 798.11 2071.20Q812.77 2083.31 829.99 2089.69Q847.20 2096.06 857.40 2096.06L857.40 2096.06Q890.55 2096.06 890.55 2061.64L890.55 2061.64L890.55 2057.81ZM862.50 1616.66L862.50 1616.66L1284.52 1594.99Q1296.00 1593.71 1307.47 1588.61Q1318.95 1583.51 1318.95 1569.49Q1318.95 1555.46 1304.29 1539.53Q1289.62 1523.59 1272.41 1512.75Q1255.20 1501.91 1242.45 1501.91L1242.45 1501.91Q1234.80 1501.91 1229.70 1503.19L1229.70 1503.19Q1218.22 1507.01 1208.02 1509.56Q1197.82 1512.11 1185.07 1513.39L1185.07 1513.39L828.07 1532.51L817.87 1532.51Q801.30 1532.51 786.64 1529.96Q771.97 1527.41 760.50 1524.86L760.50 1524.86Q756.67 1523.59 750.30 1523.59L750.30 1523.59Q736.27 1523.59 736.27 1537.61L736.27 1537.61Q736.27 1543.99 737.55 1547.81L737.55 1547.81Q756.67 1597.54 779.62 1607.74Q802.57 1617.94 820.42 1617.94L820.42 1617.94Q830.62 1617.94 840.82 1617.30Q851.02 1616.66 862.50 1616.66ZM862.50 1456.01L862.50 1456.01L1283.25 1434.34Q1317.67 1430.51 1317.67 1408.84L1317.67 1408.84Q1317.67 1396.09 1304.29 1380.15Q1290.90 1364.21 1273.69 1352.74Q1256.47 1341.26 1242.45 1341.26L1242.45 1341.26Q1234.80 1341.26 1229.70 1342.54L1229.70 1342.54Q1218.22 1346.36 1208.02 1348.91Q1197.82 1351.46 1185.07 1352.74L1185.07 1352.74L828.07 1371.86L817.87 1371.86Q801.30 1371.86 786.64 1369.31Q771.97 1366.76 760.50 1364.21L760.50 1364.21Q756.67 1362.94 750.30 1362.94L750.30 1362.94Q736.27 1362.94 736.27 1376.96L736.27 1376.96Q736.27 1383.34 737.55 1387.16L737.55 1387.16Q756.67 1436.89 779.62 1447.09Q802.57 1457.29 820.42 1457.29L820.42 1457.29Q830.62 1457.29 840.82 1456.65Q851.02 1456.01 862.50 1456.01ZM751.57 1292.81L751.57 1292.81L1403.10 1254.56Q1418.40 1253.29 1429.24 1248.19Q1440.07 1243.09 1440.07 1230.34Q1440.07 1217.59 1426.69 1201.65Q1413.30 1185.71 1395.45 1171.69Q1377.60 1157.66 1362.30 1157.66L1362.30 1157.66Q1358.47 1157.66 1355.29 1158.30Q1352.10 1158.94 1349.55 1161.49L1349.55 1161.49Q1329.15 1169.14 1304.92 1170.41L1304.92 1170.41L715.87 1206.11L705.67 1206.11Q689.10 1206.11 674.44 1203.56Q659.77 1201.01 648.30 1198.46L648.30 1198.46Q644.47 1197.19 638.10 1197.19L638.10 1197.19Q624.07 1197.19 624.07 1211.21L624.07 1211.21Q624.07 1217.59 625.35 1221.41L625.35 1221.41Q643.20 1271.14 666.15 1283.25Q689.10 1295.36 709.50 1295.36L709.50 1295.36Q719.70 1295.36 730.54 1294.72Q741.37 1294.09 751.57 1292.81ZM1134.07 1153.84L1134.07 1153.84Q1153.20 1153.84 1164.04 1130.25Q1174.88 1106.66 1174.88 1092.64L1174.88 1092.64Q1174.88 1069.69 1141.72 1055.66L1141.72 1055.66Q1094.55 1033.99 1037.17 1013.59Q979.80 993.19 921.15 976.61L921.15 976.61Q908.40 972.79 899.47 972.79L899.47 972.79Q877.80 972.79 866.32 1003.39L866.32 1003.39Q862.50 1016.14 862.50 1025.06L862.50 1025.06Q862.50 1046.74 891.82 1058.21L891.82 1058.21Q944.10 1076.06 999.56 1097.74Q1055.02 1119.41 1106.02 1144.91L1106.02 1144.91Q1123.88 1153.84 1134.07 1153.84ZM455.77 1445.81L471.07 1425.41L465.97 1957.09Q465.97 1976.21 464.70 1992.79Q463.42 2009.36 459.60 2025.94L459.60 2025.94Q458.32 2031.04 458.32 2039.96L458.32 2039.96Q458.32 2065.46 476.81 2079.49Q495.30 2093.51 513.15 2098.61Q531.00 2103.71 533.55 2103.71L533.55 2103.71Q562.87 2103.71 562.87 2070.56L562.87 2070.56L562.87 1288.99Q583.27 1253.29 606.22 1208.03Q629.17 1162.76 650.21 1118.78Q671.25 1074.79 683.36 1043.55Q695.47 1012.31 695.47 1004.66L695.47 1004.66Q695.47 986.81 675.71 973.42Q655.95 960.04 634.91 951.11Q613.87 942.19 604.95 942.19L604.95 942.19Q582.00 942.19 582.00 962.59L582.00 962.59Q582.00 966.41 582.64 967.05Q583.27 967.69 583.27 968.96L583.27 968.96Q584.55 974.06 585.19 977.89Q585.82 981.71 585.82 986.81L585.82 986.81Q585.82 997.01 583.91 1006.58Q582.00 1016.14 579.45 1023.79L579.45 1023.79Q548.85 1106.66 500.40 1202.92Q451.95 1299.19 392.66 1395.45Q333.37 1491.71 270.90 1572.04L270.90 1572.04Q253.05 1596.26 253.05 1611.56L253.05 1611.56Q253.05 1628.14 268.35 1628.14L268.35 1628.14Q282.37 1628.14 305.96 1608.38Q329.55 1588.61 355.69 1560.56Q381.82 1532.51 408.60 1501.91Q435.37 1471.31 455.77 1445.81L455.77 1445.81ZM2499.60 2047.61L2499.60 2047.61Q2520 2031.04 2520 2011.91L2520 2011.91Q2520 1999.16 2513.63 1988.33Q2507.25 1977.49 2497.05 1962.19L2497.05 1962.19Q2467.73 1923.94 2440.95 1884.41Q2414.18 1844.89 2396.32 1813.01L2396.32 1813.01Q2378.48 1776.04 2358.07 1776.04L2358.07 1776.04Q2338.95 1776.04 2338.95 1802.81L2338.95 1802.81Q2338.95 1818.11 2346.60 1845.53Q2354.25 1872.94 2363.81 1900.99Q2373.38 1929.04 2381.03 1950.08Q2388.68 1971.11 2389.95 1973.66L2389.95 1973.66L2391.23 1976.21Q2391.23 1976.21 2389.95 1976.21L2389.95 1976.21Q2388.68 1977.49 2367 1980.04Q2345.32 1982.59 2290.50 1982.59L2290.50 1982.59Q2187.22 1982.59 2122.84 1963.46Q2058.45 1944.34 2022.75 1910.55Q1987.05 1876.76 1968.56 1832.78Q1950.08 1788.79 1937.33 1737.79L1937.33 1737.79Q1928.40 1705.91 1902.90 1705.91L1902.90 1705.91L1888.88 1707.19Q1874.85 1708.46 1860.19 1715.48Q1845.53 1722.49 1845.53 1742.89L1845.53 1742.89L1851.90 1773.49Q1858.28 1805.36 1876.13 1851.26Q1893.97 1897.16 1925.85 1942.43Q1957.72 1987.69 2007.45 2018.29L2007.45 2018.29Q2063.55 2051.44 2148.34 2064.83Q2233.13 2078.21 2316 2078.21L2316 2078.21Q2396.32 2078.21 2437.13 2071.84Q2477.93 2065.46 2499.60 2047.61ZM1681.05 1995.34L1681.05 1995.34Q1716.75 1934.14 1744.16 1871.66Q1771.58 1809.19 1786.88 1763.93Q1802.17 1718.66 1802.17 1708.46L1802.17 1708.46Q1802.17 1689.34 1778.59 1680.41Q1755 1671.49 1747.35 1671.49L1747.35 1671.49Q1724.40 1671.49 1714.20 1699.54L1714.20 1699.54Q1693.80 1762.01 1664.47 1823.85Q1635.15 1885.69 1598.17 1941.79L1598.17 1941.79Q1586.70 1959.64 1586.70 1971.11L1586.70 1971.11Q1586.70 1985.14 1599.45 1995.98Q1612.20 2006.81 1626.22 2013.83Q1640.25 2020.84 1646.63 2020.84L1646.63 2020.84Q1664.47 2020.84 1681.05 1995.34ZM2276.48 1827.04L2276.48 1827.04Q2276.48 1815.56 2256.71 1795.16Q2236.95 1774.76 2208.90 1751.81Q2180.85 1728.86 2151.53 1707.19Q2122.20 1685.51 2100.53 1671.49Q2078.85 1657.46 2071.20 1657.46L2071.20 1657.46Q2054.63 1657.46 2041.24 1675.95Q2027.85 1694.44 2027.85 1703.36L2027.85 1703.36Q2027.85 1718.66 2049.53 1735.24L2049.53 1735.24Q2122.20 1790.06 2189.78 1864.01L2189.78 1864.01Q2197.43 1872.94 2204.44 1878.04Q2211.45 1883.14 2220.38 1883.14L2220.38 1883.14Q2231.85 1883.14 2243.96 1872.94Q2256.07 1862.74 2266.28 1849.35Q2276.48 1835.96 2276.48 1827.04ZM2707.43 1858.91L2707.43 1858.91Q2707.43 1847.44 2685.11 1822.58Q2662.80 1797.71 2631.56 1767.75Q2600.32 1737.79 2567.18 1709.10Q2534.03 1680.41 2507.89 1661.29Q2481.75 1642.16 2472.82 1642.16L2472.82 1642.16Q2457.53 1642.16 2441.59 1661.29Q2425.65 1680.41 2425.65 1690.61L2425.65 1690.61Q2425.65 1703.36 2444.78 1721.21L2444.78 1721.21Q2490.68 1758.19 2535.94 1805.36Q2581.20 1852.54 2616.90 1897.16L2616.90 1897.16Q2633.48 1915.01 2647.50 1915.01L2647.50 1915.01Q2658.98 1915.01 2672.36 1904.81Q2685.75 1894.61 2696.59 1881.86Q2707.43 1869.11 2707.43 1858.91ZM1915.65 1508.29L1915.65 1508.29L2303.25 1485.34Q2279.03 1510.84 2238.22 1543.99Q2197.43 1577.14 2154.07 1607.74L2154.07 1607.74Q2127.30 1625.59 2127.30 1640.89L2127.30 1640.89Q2127.30 1657.46 2147.70 1674.68Q2168.10 1691.89 2180.85 1691.89L2180.85 1691.89Q2197.43 1691.89 2228.03 1669.58Q2258.63 1647.26 2294.96 1614.11Q2331.30 1580.96 2365.09 1546.54Q2398.88 1512.11 2421.82 1487.89L2421.82 1487.89Q2425.65 1484.06 2434.57 1475.14Q2443.50 1466.21 2443.50 1452.19L2443.50 1452.19Q2443.50 1449.64 2438.40 1437.53Q2433.30 1425.41 2419.91 1412.66Q2406.53 1399.91 2379.75 1399.91L2379.75 1399.91L2364.45 1399.91L1888.88 1424.14L1874.85 1424.14Q1853.17 1424.14 1835.33 1419.04L1835.33 1419.04Q1831.50 1417.76 1825.13 1417.76L1825.13 1417.76Q1811.10 1417.76 1811.10 1433.06L1811.10 1433.06Q1811.10 1436.89 1813.65 1448.36L1813.65 1448.36Q1820.03 1462.39 1828.95 1475.14Q1837.88 1487.89 1850.63 1499.36L1850.63 1499.36Q1860.83 1509.56 1887.60 1509.56L1887.60 1509.56Q1893.97 1509.56 1900.99 1508.93Q1908 1508.29 1915.65 1508.29ZM2029.13 1347.64L2029.13 1347.64L2286.68 1331.06Q2324.93 1328.51 2324.93 1305.56L2324.93 1305.56Q2324.93 1292.81 2310.90 1278.15Q2296.88 1263.49 2280.30 1252.65Q2263.73 1241.81 2250.97 1241.81L2250.97 1241.81Q2245.88 1241.81 2238.22 1245.64L2238.22 1245.64Q2219.10 1254.56 2193.60 1255.84L2193.60 1255.84L2006.18 1268.59L1992.15 1268.59Q1970.47 1268.59 1952.63 1263.49L1952.63 1263.49Q1952.63 1263.49 1952.63 1263.49L1952.63 1263.49Q1966.65 1250.74 1981.95 1236.71L1981.95 1236.71Q2057.18 1166.59 2119.65 1087.54L2119.65 1087.54Q2220.38 1181.89 2321.10 1253.93Q2421.82 1325.96 2501.51 1373.14Q2581.20 1420.31 2631.56 1443.90Q2681.93 1467.49 2688.30 1467.49L2688.30 1467.49Q2706.15 1467.49 2722.09 1452.83Q2738.03 1438.16 2749.50 1422.86Q2760.98 1407.56 2760.98 1403.74L2760.98 1403.74Q2760.98 1389.71 2734.20 1378.24L2734.20 1378.24Q2564.63 1304.29 2427.56 1215.68Q2290.50 1127.06 2170.65 1017.41L2170.65 1017.41Q2185.95 994.46 2190.41 984.90Q2194.88 975.34 2194.88 971.51L2194.88 971.51Q2194.88 956.21 2177.66 941.55Q2160.45 926.89 2140.69 916.05Q2120.93 905.21 2106.90 905.21L2106.90 905.21Q2087.78 905.21 2083.95 931.99L2083.95 931.99Q2083.95 937.09 2082.68 938.36L2082.68 938.36Q2081.40 963.86 2046.97 1016.77Q2012.55 1069.69 1946.25 1141.72Q1879.95 1213.76 1781.78 1294.72Q1683.60 1375.69 1557.38 1457.29L1557.38 1457.29Q1520.40 1481.51 1520.40 1501.91L1520.40 1501.91Q1520.40 1518.49 1540.80 1518.49L1540.80 1518.49Q1551 1518.49 1592.44 1500Q1633.88 1481.51 1695.71 1446.45Q1757.55 1411.39 1831.50 1359.11L1831.50 1359.11Q1879.95 1324.69 1928.40 1283.89L1928.40 1283.89Q1928.40 1285.16 1928.40 1285.16L1928.40 1285.16Q1929.68 1288.99 1930.95 1292.81L1930.95 1292.81Q1947.53 1331.06 1964.74 1339.99Q1981.95 1348.91 1999.80 1348.91L1999.80 1348.91Q2006.18 1348.91 2013.19 1348.91Q2020.20 1348.91 2029.13 1347.64Z"/>
  </svg>