<svg xmlns="http://www.w3.org/2000/svg" viewBox="0 0 3000 3000" width="3000" height="3000">
    <path fill="#000000" d="M1692 1806L1692 1806Q1726 1798 1812 1800Q1898 1802 1932 1812L1932 1812Q1968 1820 1977 1819Q1986 1818 1996 1808L1996 1808Q2008 1796 2014 1796Q2020 1796 2034 1806L2034 1806Q2064 1824 2138 1858L2138 1858Q2168 1870 2182 1904L2182 1904Q2210 1964 2164 1992L2164 1992Q2132 2016 2101 2046Q2070 2076 2070 2086L2070 2086Q2070 2096 2056 2096L2056 2096Q2042 2096 2014 2113Q1986 2130 1986 2138Q1986 2146 2002 2150L2002 2150Q2044 2164 2046 2244Q2048 2324 2006 2340L2006 2340Q1994 2346 1970 2334L1970 2334Q1922 2312 1802 2304Q1682 2296 1648 2314L1648 2314Q1634 2322 1629 2347Q1624 2372 1617 2372Q1610 2372 1568 2334L1568 2334Q1526 2296 1484 2212Q1442 2128 1418 2034L1418 2034Q1396 1946 1416 1946L1416 1946Q1426 1946 1424 1931Q1422 1916 1422 1904L1422 1904Q1426 1884 1505 1855Q1584 1826 1692 1806ZM1866 1908L1866 1908Q1654 1888 1628 1914L1628 1914Q1622 1920 1596 1920L1596 1920Q1570 1920 1547 1934Q1524 1948 1524 1966L1524 1966Q1524 1992 1550 2058Q1576 2124 1596 2146L1596 2146Q1606 2156 1680 2146L1680 2146Q1742 2140 1772 2124Q1802 2108 1838 2064L1838 2064Q1864 2036 1895 1984Q1926 1932 1926 1920L1926 1920Q1926 1914 1866 1908ZM1690 1546L1690 1546Q1748 1522 1798 1522L1798 1522Q1862 1524 1889 1541Q1916 1558 1922 1604L1922 1604Q1926 1642 1910 1660Q1894 1678 1877 1673Q1860 1668 1848 1676L1848 1676Q1830 1692 1640 1694L1640 1694Q1602 1694 1587 1691Q1572 1688 1554 1674L1554 1674Q1534 1658 1532 1652Q1530 1646 1536 1636L1536 1636Q1550 1622 1550 1610L1550 1610Q1550 1594 1690 1546ZM1810 1268L1810 1268Q1814 1264 1834 1266Q1854 1268 1883 1272Q1912 1276 1922 1280L1922 1280Q1960 1296 1976 1340L1976 1340Q1986 1362 1970 1386L1970 1386Q1958 1406 1949 1410Q1940 1414 1908 1412L1908 1412Q1864 1410 1843 1427Q1822 1444 1808 1438L1808 1438Q1726 1418 1690 1442L1690 1442L1660 1460L1610 1442Q1548 1420 1537 1408Q1526 1396 1542 1364L1542 1364Q1558 1328 1746 1288L1746 1288Q1810 1274 1810 1268ZM1228 760L1228 760Q1256 734 1267 728Q1278 722 1296 728L1296 728Q1344 734 1382 794L1382 794Q1398 820 1392 880L1392 880Q1384 926 1376 942Q1368 958 1350 958L1350 958Q1332 958 1261 1045Q1190 1132 1190 1154L1190 1154Q1190 1160 1152 1208L1152 1208L1116 1258L1172 1294Q1220 1326 1229 1341Q1238 1356 1244 1410L1244 1410Q1252 1462 1249 1490Q1246 1518 1228 1570L1228 1570Q1208 1632 1204 1652L1204 1652Q1202 1668 1195 1783Q1188 1898 1188 1920L1188 1920Q1196 2088 1204 2096L1204 2096Q1206 2104 1207 2165Q1208 2226 1224 2260L1224 2260Q1240 2288 1239 2297Q1238 2306 1220 2330L1220 2330Q1188 2368 1139 2383Q1090 2398 1054 2380L1054 2380Q1036 2372 1015 2329Q994 2286 980 2236L980 2236Q970 2196 984 2180Q998 2164 998 2152Q998 2140 1010 2110Q1022 2080 1022 2032Q1022 1984 1035 1925Q1048 1866 1048 1654Q1048 1442 1057 1407Q1066 1372 1064 1350L1064 1350Q1060 1348 1057 1345Q1054 1342 1034 1360Q1014 1378 987 1405Q960 1432 908 1488L908 1488Q854 1546 803 1586Q752 1626 738 1640L738 1640Q672 1714 634 1724L634 1724Q618 1728 615 1726Q612 1724 616 1710L616 1710Q630 1670 744 1536L744 1536Q880 1380 1016 1152L1016 1152Q1052 1088 1121 953Q1190 818 1190 808L1190 808Q1190 802 1228 760ZM1608 746L1608 746Q1624 720 1641 717Q1658 714 1696 728L1696 728Q1728 738 1771 762Q1814 786 1826 800L1826 800Q1854 834 1866 901Q1878 968 1854 978L1854 978Q1844 982 1844 998L1844 998Q1844 1012 1873 1014Q1902 1016 2068 1016L2068 1016Q2256 1014 2303 1022Q2350 1030 2370 1062L2370 1062Q2386 1086 2387 1125Q2388 1164 2374 1174L2374 1174Q2360 1186 2360 1198L2360 1198Q2360 1210 2341 1213Q2322 1216 2295 1204Q2268 1192 2248 1176L2248 1176Q2212 1142 2056 1124Q1900 1106 1780 1124L1780 1124L1646 1142Q1422 1174 1374 1242L1374 1242Q1352 1270 1330 1264L1330 1264Q1306 1260 1273 1236Q1240 1212 1240 1200L1240 1200Q1240 1174 1257 1162Q1274 1150 1338 1124L1338 1124Q1490 1066 1634 1050L1634 1050Q1712 1042 1717 1037Q1722 1032 1695 1005Q1668 978 1668 966Q1668 954 1639 888Q1610 822 1602 812L1602 812Q1582 792 1608 746Z"/>
  </svg>