<svg xmlns="http://www.w3.org/2000/svg" viewBox="0 0 3000 3000" width="3000" height="3000">
    <path fill="#000000" d="M710.77 1432.43L710.77 1394.18L1308.75 1394.18L1308.75 1432.43L710.77 1432.43ZM710.77 1607.10L710.77 1570.13L1308.75 1570.13L1308.75 1607.10L710.77 1607.10ZM714.60 2086.50L714.60 2049.53L1301.10 2049.53L1301.10 2086.50L714.60 2086.50ZM616.42 1257.75L616.42 1219.50L1415.85 1219.50L1415.85 1257.75L616.42 1257.75ZM696.75 2147.70L696.75 1752.45L1318.95 1752.45L1318.95 2143.88L1280.70 2143.88L1280.70 1789.43L733.72 1789.43L733.72 2147.70L696.75 2147.70ZM917.32 1014.22L917.32 1014.22L954.30 1000.20Q982.35 1038.45 1008.49 1083.71Q1034.63 1128.97 1047.38 1162.13L1047.38 1162.13L1009.12 1179.97Q996.37 1146.83 970.24 1100.29Q944.10 1053.75 917.32 1014.22ZM578.17 1001.47L578.17 1001.47L613.87 1010.40Q576.90 1117.50 528.45 1218.86Q480.00 1320.22 423.26 1409.47Q366.52 1498.72 305.32 1570.13L305.32 1570.13Q302.77 1566.30 297.67 1560.56Q292.57 1554.83 286.84 1549.09Q281.10 1543.35 276.00 1539.53L276.00 1539.53Q337.20 1473.22 393.30 1386.53Q449.40 1299.83 496.57 1201.65Q543.75 1103.47 578.17 1001.47ZM454.50 2148.97L454.50 1312.58L488.92 1276.88L491.47 1278.15L491.47 2148.97L454.50 2148.97ZM1729.50 1484.70L1729.50 1447.72L2472.82 1447.72L2472.82 1484.70L1729.50 1484.70ZM2460.07 1455.38L2460.07 1447.72L2467.73 1447.72L2475.38 1445.18L2499.60 1461.75Q2470.28 1514.03 2429.48 1568.85Q2388.68 1623.68 2344.05 1672.13Q2299.43 1720.58 2257.35 1757.55L2257.35 1757.55Q2252.25 1752.45 2243.32 1747.35Q2234.40 1742.25 2228.03 1738.43L2228.03 1738.43Q2270.10 1702.73 2313.45 1654.28Q2356.80 1605.83 2395.69 1553.55Q2434.57 1501.28 2460.07 1455.38L2460.07 1455.38ZM2110.72 1019.33L2145.15 1001.47Q2192.32 1057.57 2259.26 1112.40Q2326.20 1167.22 2403.34 1216.31Q2480.48 1265.40 2560.16 1304.29Q2639.85 1343.18 2713.80 1368.68L2713.80 1368.68Q2708.70 1372.50 2702.96 1378.88Q2697.23 1385.25 2692.76 1390.99Q2688.30 1396.72 2684.48 1403.10L2684.48 1403.10Q2611.80 1376.33 2532.11 1334.89Q2452.43 1293.45 2374.65 1242.45Q2296.88 1191.45 2228.66 1134.71Q2160.45 1077.97 2110.72 1019.33L2110.72 1019.33ZM2036.78 1241.17L2036.78 1241.17L2058.45 1215.67Q2108.18 1241.17 2160.45 1275.60Q2212.72 1310.03 2240.78 1339.35L2240.78 1339.35L2219.10 1368.68Q2189.78 1338.08 2138.14 1302.38Q2086.50 1266.67 2036.78 1241.17ZM1859.55 2032.95L1859.55 1753.73L1897.80 1753.73L1897.80 2032.95Q1897.80 2061 1917.56 2069.29Q1937.33 2077.58 2004.90 2077.58L2004.90 2077.58Q2017.65 2077.58 2052.07 2077.58Q2086.50 2077.58 2131.13 2077.58Q2175.75 2077.58 2221.65 2077.58Q2267.55 2077.58 2305.16 2077.58Q2342.78 2077.58 2360.63 2077.58L2360.63 2077.58Q2397.60 2077.58 2416.09 2067.38Q2434.57 2057.18 2441.59 2024.66Q2448.60 1992.15 2451.15 1927.13L2451.15 1927.13Q2457.53 1930.95 2463.90 1934.14Q2470.28 1937.33 2477.29 1939.24Q2484.30 1941.15 2489.40 1943.70L2489.40 1943.70Q2485.58 2012.55 2475.38 2050.16Q2465.18 2087.78 2439.04 2101.80Q2412.90 2115.83 2361.90 2115.83L2361.90 2115.83Q2354.25 2115.83 2318.55 2115.83Q2282.85 2115.83 2234.40 2115.83Q2185.95 2115.83 2137.50 2115.83Q2089.05 2115.83 2053.99 2115.83Q2018.93 2115.83 2011.28 2115.83L2011.28 2115.83Q1952.63 2115.83 1919.47 2110.09Q1886.33 2104.35 1872.94 2086.50Q1859.55 2068.65 1859.55 2032.95L1859.55 2032.95ZM1983.22 1650.45L1983.22 1650.45L2015.10 1632.60Q2058.45 1668.30 2100.53 1712.29Q2142.60 1756.28 2177.03 1800.26Q2211.45 1844.25 2230.57 1879.95L2230.57 1879.95L2197.43 1900.35Q2178.30 1864.65 2143.88 1820.66Q2109.45 1776.68 2068.01 1732.05Q2026.58 1687.43 1983.22 1650.45ZM2476.65 1752.45L2476.65 1752.45L2509.80 1738.43Q2549.32 1785.60 2586.94 1841.70Q2624.55 1897.80 2654.51 1951.99Q2684.48 2006.18 2699.78 2048.25L2699.78 2048.25L2664.07 2066.10Q2648.78 2022.75 2618.81 1967.93Q2588.85 1913.10 2551.88 1856.36Q2514.90 1799.63 2476.65 1752.45ZM1711.65 1762.65L1711.65 1762.65L1742.25 1772.85Q1728.22 1820.03 1707.83 1877.40Q1687.42 1934.78 1661.92 1989.60Q1636.42 2044.43 1605.83 2085.22L1605.83 2085.22L1572.67 2069.93Q1604.55 2029.13 1630.69 1974.94Q1656.83 1920.75 1677.22 1864.65Q1697.63 1808.55 1711.65 1762.65ZM2132.40 974.70L2132.40 974.70L2166.82 990Q2096.70 1080.53 2002.35 1159.58Q1908 1238.63 1801.54 1303.65Q1695.08 1368.68 1587.97 1417.13L1587.97 1417.13Q1585.42 1413.30 1580.33 1407.56Q1575.22 1401.83 1568.85 1396.09Q1562.47 1390.35 1557.38 1387.80L1557.38 1387.80Q1668.30 1341.90 1774.76 1278.79Q1881.22 1215.67 1973.66 1138.54Q2066.10 1061.40 2132.40 974.70Z"/>
  </svg>