<svg xmlns="http://www.w3.org/2000/svg" viewBox="0 0 3000 3000" width="3000" height="3000">
    <path fill="#000000" d="M1262 1394L1262 1334L2200 1334L2200 1394L1262 1394ZM1262 1668L1262 1610L2200 1610L2200 1668L1262 1668ZM1268 2420L1268 2362L2188 2362L2188 2420L1268 2420ZM1114 1120L1114 1060L2368 1060L2368 1120L1114 1120ZM1240 2516L1240 1896L2216 1896L2216 2510L2156 2510L2156 1954L1298 1954L1298 2516L1240 2516ZM1586 738L1586 738L1644 716Q1688 776 1729 847Q1770 918 1790 970L1790 970L1730 998Q1710 946 1669 873Q1628 800 1586 738ZM1054 718L1054 718L1110 732Q1052 900 976 1059Q900 1218 811 1358Q722 1498 626 1610L626 1610Q622 1604 614 1595Q606 1586 597 1577Q588 1568 580 1562L580 1562Q676 1458 764 1322Q852 1186 926 1032Q1000 878 1054 718ZM860 2518L860 1206L914 1150L918 1152L918 2518L860 2518Z"/>
  </svg>