<svg xmlns="http://www.w3.org/2000/svg" viewBox="0 0 3000 3000" width="3000" height="3000">
    <path fill="#000000" d="M582 1546L582 1546Q778 1290 972 906L972 906Q1078 698 1078 622L1078 622Q1078 606 1072 582L1072 582Q1072 562 1102 562Q1132 562 1179 594Q1226 626 1226 642L1226 642Q1226 674 1152 831Q1078 988 1018 1090L1018 1090L1018 2320Q1018 2360 984 2360L984 2360Q982 2360 956 2353Q930 2346 904 2326Q878 2306 878 2283Q878 2260 884 2234Q890 2208 890 2142L890 2142L898 1270Q824 1376 740 1466Q656 1556 621 1585Q586 1614 571 1614Q556 1614 556 1597Q556 1580 582 1546ZM1550 720L1550 720Q1512 706 1512 680L1512 680Q1512 668 1518 650L1518 650Q1532 610 1561 610Q1590 610 1725 658Q1860 706 1919 732Q1978 758 1978 782Q1978 806 1963 838Q1948 870 1930 870Q1912 870 1824 827Q1736 784 1550 720ZM2348 1028L1324 1088Q1292 1092 1261 1092Q1230 1092 1198 1075Q1166 1058 1140 984L1140 984Q1138 980 1138 971Q1138 962 1147 962Q1156 962 1184 969Q1212 976 1254 976L1254 976L1270 976L2194 920Q2234 918 2255 909Q2276 900 2290 900Q2304 900 2330 920L2330 920Q2394 970 2394 1000L2394 1000Q2394 1024 2348 1028L2348 1028ZM2160 1310L1500 1344L1434 1346Q1408 1346 1376 1332Q1344 1318 1316 1244L1316 1244Q1314 1240 1314 1231Q1314 1222 1323 1222Q1332 1222 1360 1229Q1388 1236 1430 1236L1430 1236L1446 1236L2006 1206Q2042 1202 2064 1195Q2086 1188 2100 1188Q2114 1188 2140 1204L2140 1204Q2202 1248 2202 1282L2202 1282Q2202 1306 2160 1310L2160 1310ZM2160 1562L1500 1596L1434 1598Q1408 1598 1376 1584Q1344 1570 1316 1496L1316 1496Q1314 1492 1314 1483Q1314 1474 1323 1474Q1332 1474 1360 1481Q1388 1488 1430 1488L1430 1488L1446 1488L2006 1458Q2042 1454 2064 1447Q2086 1440 2099 1440Q2112 1440 2136 1456L2136 1456Q2204 1498 2204 1534L2204 1534Q2204 1556 2160 1562L2160 1562ZM2182 1846L2130 2132Q2188 2190 2188 2213Q2188 2236 2169 2239Q2150 2242 2124 2244L2124 2244L1528 2260L1532 2300L1532 2306Q1532 2348 1491 2348Q1450 2348 1419 2322Q1388 2296 1388 2270L1388 2270L1388 2260Q1394 2188 1394 2176L1394 2176L1394 2160Q1394 2152 1392 2144L1392 2144L1364 1864Q1358 1808 1342 1776Q1326 1744 1326 1740L1326 1740Q1326 1722 1361 1722Q1396 1722 1486 1758L1486 1758L2086 1734Q2164 1734 2186 1784L2186 1784Q2194 1802 2194 1810Q2194 1818 2189 1827Q2184 1836 2182 1846L2182 1846ZM2002 2132L2040 1850L1494 1870L1518 2142L2002 2132Z"/>
  </svg>