<svg xmlns="http://www.w3.org/2000/svg" viewBox="0 0 3000 3000" width="3000" height="3000">
    <path fill="#000000" d="M1550 988L1550 988Q1412 822 1288 716L1288 716Q1268 698 1268 681Q1268 664 1291 638Q1314 612 1338 612Q1362 612 1469 715Q1576 818 1619 865Q1662 912 1662 936Q1662 960 1633 985Q1604 1010 1586 1010Q1568 1010 1550 988ZM1594 1642L1594 1642Q1816 1862 2056 2004L2056 2004Q2202 2090 2394 2168L2394 2168Q2428 2180 2428 2198L2428 2198Q2428 2204 2408 2228L2408 2228Q2352 2294 2306 2294L2306 2294Q2298 2294 2286 2288L2286 2288Q1856 2088 1508 1742L1508 1742Q1230 2044 836 2226L836 2226Q740 2270 681 2291Q622 2312 614 2312L614 2312Q592 2312 592 2296L592 2296Q594 2266 642 2242L642 2242Q856 2130 1064 1972L1064 1972Q1260 1824 1420 1646L1420 1646Q1180 1372 1000 1040L1000 1040Q904 870 903 841Q902 812 934 799Q966 786 984 786L984 786Q1014 786 1038 842L1038 842Q1086 948 1222 1170L1222 1170Q1336 1356 1504 1544L1504 1544Q1682 1318 1788 1096L1788 1096Q1912 836 1914 730L1914 730L1916 712Q1916 702 1914 692L1914 692Q1914 672 1932 672L1932 672Q1944 672 1978 690L1978 690Q2072 736 2070 786L2070 786Q2070 792 2043 867Q2016 942 1960 1062L1960 1062Q1824 1360 1594 1642Z"/>
  </svg>