<svg xmlns="http://www.w3.org/2000/svg" viewBox="0 0 3000 3000" width="3000" height="3000">
    <path fill="#000000" d="M833.17 1225.88L833.17 1225.88Q842.10 1211.85 861.22 1214.40Q880.35 1216.95 904.57 1237.35L904.57 1237.35Q931.35 1260.30 933.90 1263.49Q936.45 1266.67 950.47 1272.41Q964.50 1278.15 964.50 1294.72L964.50 1294.72Q969.60 1431.15 960.67 1433.70L960.67 1433.70Q955.57 1434.97 955.57 1447.72L955.57 1447.72Q955.57 1460.47 964.50 1460.47Q973.42 1460.47 1002.75 1451.55L1002.75 1451.55Q1032.07 1441.35 1039.09 1445.17Q1046.10 1449 1074.15 1452.82L1074.15 1452.82Q1123.88 1459.20 1139.17 1485.97Q1154.47 1512.75 1125.15 1542.07L1125.15 1542.07Q1106.02 1558.65 1097.74 1561.20Q1089.45 1563.75 1067.77 1559.92L1067.77 1559.92Q1043.55 1556.10 1013.59 1563.75Q983.62 1571.40 964.50 1571.40L964.50 1571.40Q950.47 1571.40 947.29 1573.95Q944.10 1576.50 942.82 1587.97L942.82 1587.97Q939.00 1605.83 937.09 1662.56Q935.17 1719.30 930.71 1727.59Q926.25 1735.88 924.97 1767.75L924.97 1767.75L922.42 1800.90L967.05 1804.72Q1021.87 1808.55 1147.46 1806Q1273.05 1803.45 1280.70 1797.08L1280.70 1797.08Q1289.62 1790.70 1299.82 1796.44Q1310.02 1802.17 1327.88 1802.17L1327.88 1802.17Q1340.63 1802.17 1376.96 1818.75Q1413.30 1835.33 1427.32 1846.80L1427.32 1846.80Q1436.25 1855.72 1436.89 1880.59Q1437.52 1905.45 1427.32 1920.75L1427.32 1920.75Q1419.67 1934.78 1404.38 1947.53L1404.38 1947.53Q1394.17 1957.72 1387.80 1958.36Q1381.42 1959 1357.20 1951.35L1357.20 1951.35Q1219.50 1918.20 995.10 1908L995.10 1908Q930.07 1906.72 916.69 1907.36Q903.30 1908 891.19 1917.56Q879.07 1927.13 874.61 1927.13Q870.15 1927.13 858.67 1920.75L858.67 1920.75Q847.20 1914.38 836.36 1914.38Q825.52 1914.38 788.55 1916.92L788.55 1916.92Q731.17 1922.03 712.69 1927.13Q694.20 1932.22 663.60 1935.41Q633.00 1938.60 622.16 1946.25Q611.32 1953.90 601.12 1953.90L601.12 1953.90Q589.65 1953.90 544.39 1967.92Q499.12 1981.95 480.00 1992.15L480.00 1992.15Q458.32 2001.08 446.85 2011.28Q435.37 2021.47 421.35 2021.47L421.35 2021.47Q395.85 2021.47 349.95 1992.79Q304.05 1964.10 304.05 1948.80L304.05 1948.80Q304.05 1943.70 295.12 1938.60L295.12 1938.60Q288.75 1934.78 288.75 1932.86Q288.75 1930.95 293.85 1924.58L293.85 1924.58Q304.05 1916.92 382.46 1893.34Q460.87 1869.75 520.80 1859.55L520.80 1859.55Q552.67 1854.45 560.32 1849.99Q567.97 1845.53 564.15 1832.78L564.15 1832.78Q561.60 1818.75 570.52 1795.80L570.52 1795.80Q584.55 1760.10 589.65 1568.85L589.65 1568.85Q593.47 1484.70 596.02 1468.76Q598.57 1452.82 609.41 1446.45Q620.25 1440.07 641.92 1454.10Q663.60 1468.13 676.35 1479.60L676.35 1479.60L687.82 1492.35L687.82 1654.28Q687.82 1817.47 691.65 1820.03L691.65 1820.03Q698.02 1822.58 754.12 1816.20Q810.22 1809.83 816.60 1806L816.60 1806Q820.42 1802.17 821.70 1681.05L821.70 1681.05Q825.52 1362.30 827.44 1298.55Q829.35 1234.80 833.17 1225.88ZM1030.80 1052.47L1030.80 1052.47Q1037.17 1041 1048.65 1055.02L1048.65 1055.02Q1055.02 1062.67 1080.52 1070.32L1080.52 1070.32Q1131.52 1085.63 1144.27 1112.40L1144.27 1112.40Q1150.65 1125.15 1149.38 1129.61Q1148.10 1134.07 1136.63 1145.55L1136.63 1145.55Q1122.60 1159.57 1109.85 1160.85Q1097.10 1162.13 1066.50 1153.20L1066.50 1153.20Q1038.45 1145.55 1025.70 1148.74Q1012.95 1151.92 943.46 1155.11Q873.97 1158.30 847.20 1164.67L847.20 1164.67L800.02 1178.70Q779.62 1185.07 771.34 1192.09Q763.05 1199.10 752.21 1199.10Q741.37 1199.10 727.35 1209.30L727.35 1209.30Q715.87 1219.50 707.59 1220.14Q699.30 1220.77 671.25 1214.40L671.25 1214.40Q649.57 1209.30 626.62 1192.09Q603.67 1174.88 603.67 1163.40L603.67 1163.40Q603.67 1149.38 622.80 1137.26Q641.92 1125.15 675.07 1118.77L675.07 1118.77Q797.47 1093.27 916.05 1080.52L916.05 1080.52Q1020.60 1070.32 1030.80 1052.47ZM2113.28 1233.53L2113.28 1233.53Q2128.57 1174.88 2133.68 1168.50Q2138.78 1162.13 2145.15 1162.13L2145.15 1162.13Q2152.80 1162.13 2178.94 1181.89Q2205.07 1201.65 2207.63 1209.30L2207.63 1209.30Q2211.45 1219.50 2226.75 1245L2226.75 1245Q2243.32 1270.50 2242.05 1292.81Q2240.78 1315.13 2219.10 1358.47L2219.10 1358.47Q2197.43 1408.20 2192.32 1415.85Q2187.22 1423.50 2165.55 1466.21Q2143.88 1508.92 2120.93 1543.35L2120.93 1543.35L2097.97 1577.78L2117.10 1595.63Q2159.18 1638.97 2248.43 1693.80Q2337.68 1748.63 2395.05 1770.30L2395.05 1770.30Q2426.93 1780.50 2449.24 1793.25Q2471.55 1806 2493.86 1809.19Q2516.18 1812.38 2541.68 1823.85L2541.68 1823.85Q2596.50 1851.90 2624.55 1851.90L2624.55 1851.90Q2637.30 1851.90 2663.44 1873.58Q2689.57 1895.25 2689.57 1905.45L2689.57 1905.45Q2689.57 1916.92 2673 1931.59Q2656.43 1946.25 2646.23 1946.25L2646.23 1946.25Q2636.03 1946.25 2632.20 1951.35Q2628.38 1956.45 2609.89 1956.45Q2591.40 1956.45 2588.85 1962.19Q2586.30 1967.92 2564.63 1971.11Q2542.95 1974.30 2520 1985.78Q2497.05 1997.25 2463.90 1999.80L2463.90 1999.80Q2442.23 2001.08 2430.75 1999.16Q2419.28 1997.25 2393.78 1984.50L2393.78 1984.50Q2323.65 1952.63 2234.40 1888.88L2234.40 1888.88Q2187.22 1855.72 2077.57 1751.17L2077.57 1751.17Q2073.75 1744.80 2064.82 1735.88L2064.82 1735.88Q2026.58 1700.17 2016.38 1698.90Q2006.18 1697.63 1979.40 1721.85L1979.40 1721.85Q1973.03 1729.50 1969.20 1733.33L1969.20 1733.33Q1913.10 1786.88 1851.90 1826.40L1851.90 1826.40Q1780.50 1874.85 1767.75 1891.42L1767.75 1891.42Q1761.38 1896.53 1693.80 1927.76Q1626.22 1959 1612.20 1961.55L1612.20 1961.55Q1587.97 1964.10 1586.70 1955.81Q1585.42 1947.53 1604.55 1932.22L1604.55 1932.22Q1631.33 1911.83 1733.96 1806.64Q1836.60 1701.45 1899.08 1631.33L1899.08 1631.33L1938.60 1586.70L1927.13 1571.40Q1908 1545.90 1839.15 1473.22L1839.15 1473.22Q1820.03 1450.28 1795.80 1418.40L1795.80 1418.40Q1779.22 1394.17 1775.40 1383.97Q1771.58 1373.78 1770.30 1348.28L1770.30 1348.28Q1770.30 1312.57 1774.13 1308.11Q1777.95 1303.65 1795.80 1307.47L1795.80 1307.47Q1821.30 1312.57 1906.09 1381.42Q1990.88 1450.28 1999.80 1474.50L1999.80 1474.50Q2016.38 1515.30 2059.72 1414.57L2059.72 1414.57Q2061 1412.03 2062.28 1410.75L2062.28 1410.75Q2080.13 1367.40 2113.28 1233.53ZM1892.70 1084.35L1892.70 1084.35Q1895.25 1070.32 1899.08 1069.05Q1902.90 1067.77 1920.75 1069.05L1920.75 1069.05Q1971.75 1072.88 2022.75 1128.97L2022.75 1128.97Q2038.05 1146.82 2040.60 1155.11Q2043.15 1163.40 2043.15 1186.35L2043.15 1186.35Q2043.15 1213.13 2032.31 1241.17Q2021.47 1269.22 2008.73 1270.50L2008.73 1270.50Q1997.25 1273.05 1978.76 1268.59Q1960.28 1264.13 1960.28 1260.30L1960.28 1260.30Q1960.28 1253.92 1944.97 1233.53L1944.97 1233.53Q1925.85 1210.57 1907.36 1171.69Q1888.88 1132.80 1888.88 1118.77L1888.88 1118.77Q1888.88 1102.20 1892.70 1084.35Z"/>
  </svg>