<svg xmlns="http://www.w3.org/2000/svg" viewBox="0 0 3000 3000" width="3000" height="3000">
    <path fill="#000000" d="M353.77 1139.17L353.77 1100.92L1378.88 1100.92L1378.88 1139.17L353.77 1139.17ZM888.00 1576.50L888.00 1539.53L1343.17 1539.53L1343.17 1576.50L888.00 1576.50ZM300.22 2080.13L300.22 2043.15L1426.05 2043.15L1426.05 2080.13L300.22 2080.13ZM870.15 2062.28L870.15 1111.13L907.12 1111.13L907.12 2062.28L870.15 2062.28ZM491.47 2062.28L491.47 1409.47L528.45 1409.47L528.45 2062.28L491.47 2062.28ZM1626.22 1183.80L1626.22 1145.55L2651.32 1145.55L2651.32 1183.80L1626.22 1183.80ZM1696.35 1332.97L1696.35 1296L2579.93 1296L2579.93 1332.97L1696.35 1332.97ZM1575.22 1485.97L1575.22 1449L2701.05 1449L2701.05 1485.97L1575.22 1485.97ZM1575.22 1756.28L1575.22 1718.03L2701.05 1718.03L2701.05 1756.28L1575.22 1756.28ZM2117.10 1465.58L2117.10 1155.75L2155.35 1155.75L2155.35 1465.58L2117.10 1465.58ZM2395.05 993.83L2395.05 993.83L2429.48 1012.95Q2407.80 1051.20 2381.03 1091.36Q2354.25 1131.53 2332.57 1160.85L2332.57 1160.85L2303.25 1144.28Q2326.20 1114.95 2352.34 1070.32Q2378.48 1025.70 2395.05 993.83ZM1575.22 1951.35L1568.85 1911.83Q1642.80 1905.45 1739.70 1895.89Q1836.60 1886.33 1947.53 1875.49Q2058.45 1864.65 2170.65 1853.18L2170.65 1853.18L2170.65 1887.60Q2062.28 1899.08 1954.54 1910.55Q1846.80 1922.03 1749.26 1932.23Q1651.72 1942.43 1575.22 1951.35L1575.22 1951.35ZM1864.65 2087.78L1864.65 1572.68L1902.90 1572.68L1902.90 2087.78Q1902.90 2112 1895.25 2123.47Q1887.60 2134.95 1867.20 2138.78L1867.20 2138.78Q1846.80 2143.88 1804.72 2145.15Q1762.65 2146.43 1688.70 2146.43L1688.70 2146.43Q1687.42 2140.05 1682.33 2129.85Q1677.22 2119.65 1672.13 2110.72L1672.13 2110.72Q1714.20 2112 1748.63 2112Q1783.05 2112 1807.28 2111.36Q1831.50 2110.72 1840.42 2110.72L1840.42 2110.72Q1854.45 2110.72 1859.55 2105.63Q1864.65 2100.53 1864.65 2087.78L1864.65 2087.78ZM2113.28 1514.03L2113.28 1514.03L2143.88 1545.90Q2076.30 1561.20 1983.86 1575.22Q1891.43 1589.25 1791.34 1599.45Q1691.25 1609.65 1598.17 1616.03L1598.17 1616.03Q1596.90 1608.38 1592.44 1598.81Q1587.97 1589.25 1584.15 1581.60L1584.15 1581.60Q1675.95 1575.22 1776.04 1565.66Q1876.13 1556.10 1965.38 1542.71Q2054.63 1529.33 2113.28 1514.03ZM2214 1508.93L2214 1508.93L2252.25 1508.93Q2258.63 1644.08 2291.14 1755Q2323.65 1865.93 2374.65 1944.98Q2425.65 2024.03 2488.76 2066.74Q2551.88 2109.45 2620.73 2108.18L2620.73 2108.18Q2651.32 2106.90 2662.16 2074.39Q2673 2041.88 2678.10 1959L2678.10 1959Q2685.75 1964.10 2695.31 1969.20Q2704.88 1974.30 2713.80 1976.85L2713.80 1976.85Q2709.98 2041.88 2699.78 2078.21Q2689.57 2114.55 2670.45 2129.85Q2651.32 2145.15 2619.45 2146.43L2619.45 2146.43Q2540.40 2146.43 2470.28 2099.25Q2400.15 2052.08 2344.69 1966.01Q2289.23 1879.95 2254.80 1763.29Q2220.38 1646.63 2214 1508.93ZM2548.05 1793.25L2548.05 1793.25L2585.03 1807.28Q2526.38 1883.78 2439.04 1946.25Q2351.70 2008.73 2250.34 2057.18Q2148.97 2105.63 2048.25 2140.05L2048.25 2140.05Q2046.97 2136.22 2042.51 2130.49Q2038.05 2124.75 2032.95 2117.74Q2027.85 2110.72 2022.75 2106.90L2022.75 2106.90Q2124.75 2076.30 2224.20 2031.04Q2323.65 1985.78 2408.44 1925.85Q2493.23 1865.93 2548.05 1793.25ZM2395.05 1556.10L2395.05 1556.10L2418 1528.05Q2453.70 1542.08 2490.68 1561.20Q2527.65 1580.33 2560.80 1600.09Q2593.95 1619.85 2614.35 1638.97L2614.35 1638.97L2592.68 1670.85Q2571 1651.72 2538.49 1630.69Q2505.98 1609.65 2468.36 1589.89Q2430.75 1570.13 2395.05 1556.10ZM1836.60 1014.22L1836.60 1014.22L1867.20 997.65Q1899.08 1029.53 1927.13 1069.69Q1955.18 1109.85 1969.20 1139.17L1969.20 1139.17L1933.50 1158.30Q1920.75 1128.97 1893.34 1087.54Q1865.92 1046.10 1836.60 1014.22Z"/>
  </svg>