<svg xmlns="http://www.w3.org/2000/svg" viewBox="0 0 3000 3000" width="3000" height="3000">
    <path fill="#000000" d="M411.15 2029.76L411.15 2029.76L1420.95 2000.44Q1437.52 1999.16 1449 1993.43Q1460.47 1987.69 1460.47 1973.66L1460.47 1973.66Q1460.47 1963.46 1445.81 1945.61Q1431.15 1927.76 1412.02 1912.46Q1392.90 1897.16 1373.77 1897.16L1373.77 1897.16Q1368.67 1897.16 1364.85 1897.80Q1361.02 1898.44 1357.20 1899.71L1357.20 1899.71Q1345.72 1903.54 1328.51 1906.73Q1311.30 1909.91 1296.00 1909.91L1296.00 1909.91L940.27 1920.11L939.00 1584.79L1234.80 1566.94Q1251.37 1565.66 1262.85 1559.93Q1274.32 1554.19 1274.32 1540.16L1274.32 1540.16Q1274.32 1529.96 1260.30 1512.75Q1246.27 1495.54 1226.51 1480.88Q1206.75 1466.21 1186.35 1466.21L1186.35 1466.21Q1176.15 1466.21 1167.22 1470.04L1167.22 1470.04Q1151.92 1475.14 1134.07 1477.05Q1116.22 1478.96 1100.92 1480.24L1100.92 1480.24L937.72 1490.44L936.45 1180.61L1285.80 1160.21Q1301.10 1158.94 1313.85 1153.84Q1326.60 1148.74 1326.60 1134.71L1326.60 1134.71Q1326.60 1121.96 1311.30 1104.11Q1296.00 1086.26 1276.24 1073.51Q1256.47 1060.76 1241.17 1060.76L1241.17 1060.76Q1236.07 1060.76 1231.61 1061.40Q1227.15 1062.04 1222.05 1063.31L1222.05 1063.31Q1210.57 1067.14 1193.36 1069.69Q1176.15 1072.24 1160.85 1073.51L1160.85 1073.51L511.87 1111.76Q505.50 1111.76 499.76 1112.40Q494.02 1113.04 487.65 1113.04L487.65 1113.04Q474.90 1113.04 464.06 1111.13Q453.22 1109.21 441.75 1106.66L441.75 1106.66Q436.65 1105.39 430.27 1105.39L430.27 1105.39Q414.97 1105.39 414.97 1120.69L414.97 1120.69Q414.97 1123.24 421.99 1143Q429.00 1162.76 449.40 1183.16Q469.80 1203.56 509.32 1203.56L509.32 1203.56Q518.25 1203.56 527.81 1203.56Q537.37 1203.56 548.85 1202.29L548.85 1202.29L831.90 1185.71L837.00 1922.66L640.65 1929.04L633.00 1406.29Q633.00 1384.61 610.69 1372.50Q588.37 1360.39 564.79 1354.01Q541.20 1347.64 528.45 1347.64L528.45 1347.64Q506.77 1347.64 506.77 1364.21L506.77 1364.21Q506.77 1371.86 513.15 1382.06L513.15 1382.06Q531.00 1408.84 531.00 1443.26L531.00 1443.26L542.47 1931.59L384.37 1936.69Q376.72 1936.69 369.71 1937.33Q362.70 1937.96 356.32 1937.96L356.32 1937.96Q329.55 1937.96 302.77 1931.59L302.77 1931.59Q297.67 1930.31 291.30 1930.31L291.30 1930.31Q276.00 1930.31 276.00 1946.89L276.00 1946.89L278.55 1959.64Q282.37 1971.11 291.30 1988.33Q300.22 2005.54 319.35 2018.29Q338.47 2031.04 369.07 2031.04L369.07 2031.04Q378.00 2031.04 388.20 2030.40Q398.40 2029.76 411.15 2029.76ZM2500.88 1601.36L2500.88 1601.36Q2516.18 1601.36 2525.10 1587.97Q2534.03 1574.59 2537.21 1562.47Q2540.40 1550.36 2540.40 1545.26L2540.40 1545.26Q2540.40 1526.14 2508.53 1512.11L2508.53 1512.11Q2474.10 1494.26 2432.66 1478.33Q2391.23 1462.39 2350.43 1449.64L2350.43 1449.64Q2344.05 1448.36 2339.59 1447.72Q2335.13 1447.09 2331.30 1447.09L2331.30 1447.09Q2310.90 1447.09 2299.43 1472.59L2299.43 1472.59Q2293.05 1482.79 2293.05 1492.99L2293.05 1492.99Q2293.05 1513.39 2323.65 1524.86L2323.65 1524.86Q2363.18 1538.89 2400.79 1555.46Q2438.40 1572.04 2470.28 1589.89L2470.28 1589.89Q2488.13 1601.36 2500.88 1601.36ZM2725.28 1835.96L2725.28 1835.96L2725.28 1821.94Q2725.28 1779.86 2706.79 1779.86Q2688.30 1779.86 2675.55 1825.76L2675.55 1825.76Q2655.15 1902.26 2641.13 1943.06Q2627.10 1983.86 2622 1996.61L2622 1996.61Q2616.90 2006.81 2618.18 2008.09L2618.18 2008.09L2591.40 1994.06Q2564.63 1978.76 2521.91 1945.61Q2479.20 1912.46 2437.13 1865.29L2437.13 1865.29Q2460.07 1851.26 2488.76 1828.31Q2517.45 1805.36 2546.78 1779.86L2546.78 1779.86Q2558.25 1769.66 2558.25 1756.91L2558.25 1756.91Q2558.25 1741.61 2544.86 1724.40Q2531.48 1707.19 2517.45 1693.16L2517.45 1693.16Q2511.08 1689.34 2507.25 1685.51L2507.25 1685.51L2655.15 1679.14Q2685.75 1675.31 2685.75 1657.46L2685.75 1657.46Q2685.75 1644.71 2674.28 1630.69Q2662.80 1616.66 2648.78 1605.83Q2634.75 1594.99 2622 1594.99L2622 1594.99Q2613.07 1594.99 2607.98 1596.26L2607.98 1596.26Q2588.85 1601.36 2563.35 1603.91L2563.35 1603.91L2291.78 1616.66Q2281.57 1587.34 2270.10 1551.64Q2258.63 1515.94 2248.43 1477.69L2248.43 1477.69Q2244.60 1462.39 2228.03 1455.38Q2211.45 1448.36 2196.15 1447.09Q2180.85 1445.81 2173.20 1445.81L2173.20 1445.81Q2137.50 1445.81 2137.50 1463.66L2137.50 1463.66Q2137.50 1472.59 2151.53 1486.61L2151.53 1486.61Q2159.18 1494.26 2163 1507.01Q2166.82 1519.76 2170.65 1533.79L2170.65 1533.79Q2178.30 1559.29 2185.95 1583.51Q2193.60 1607.74 2198.70 1619.21L2198.70 1619.21L1997.25 1629.41L1995.98 1568.21Q2052.07 1558.01 2079.49 1549.72Q2106.90 1541.44 2115.19 1533.15Q2123.47 1524.86 2123.47 1518.49L2123.47 1518.49Q2123.47 1507.01 2113.28 1489.16Q2103.07 1471.31 2089.05 1454.74L2089.05 1454.74Q2082.68 1447.09 2077.57 1441.99L2077.57 1441.99L2593.95 1415.21Q2624.55 1411.39 2624.55 1392.26L2624.55 1392.26Q2624.55 1378.24 2613.07 1364.85Q2601.60 1351.46 2588.21 1341.26Q2574.82 1331.06 2564.63 1331.06L2564.63 1331.06Q2560.80 1331.06 2557.61 1331.70Q2554.43 1332.34 2551.88 1333.61L2551.88 1333.61Q2542.95 1337.44 2531.48 1338.71Q2520 1339.99 2509.80 1341.26L2509.80 1341.26L2174.47 1359.11L2175.75 1299.19L2451.15 1282.61Q2480.48 1278.79 2480.48 1260.94L2480.48 1260.94Q2480.48 1248.19 2458.80 1225.24L2458.80 1225.24Q2447.32 1211.21 2437.76 1207.39Q2428.20 1203.56 2420.55 1203.56Q2412.90 1203.56 2409.07 1204.84L2409.07 1204.84Q2388.68 1211.21 2368.28 1212.49L2368.28 1212.49L2175.75 1223.96L2177.03 1170.41L2541.68 1147.46Q2551.88 1146.19 2562.71 1143.64Q2573.55 1141.09 2573.55 1128.34Q2573.55 1115.59 2561.44 1101.56Q2549.32 1087.54 2534.66 1076.70Q2520 1065.86 2508.53 1065.86L2508.53 1065.86Q2502.15 1065.86 2498.33 1067.14L2498.33 1067.14Q2477.93 1073.51 2457.53 1074.79L2457.53 1074.79L2266.28 1087.54Q2275.20 1081.16 2305.16 1055.66Q2335.13 1030.16 2356.80 1007.85Q2378.48 985.54 2378.48 975.34L2378.48 975.34Q2378.48 961.31 2362.54 946.01Q2346.60 930.71 2327.48 919.88Q2308.35 909.04 2298.15 909.04L2298.15 909.04Q2277.75 909.04 2277.75 933.26L2277.75 933.26Q2277.75 946.01 2270.10 962.59Q2262.45 979.16 2232.49 1010.40Q2202.53 1041.64 2140.05 1095.19L2140.05 1095.19L2081.40 1097.74L2080.13 1099.01Q2090.32 1082.44 2090.32 1070.96L2090.32 1070.96Q2090.32 1059.49 2071.84 1042.28Q2053.35 1025.06 2027.21 1007.85Q2001.08 990.64 1973.66 974.70Q1946.25 958.76 1924.58 947.92Q1902.90 937.09 1895.25 937.09L1895.25 937.09Q1873.58 937.09 1863.38 958.76Q1853.17 980.44 1853.17 984.26L1853.17 984.26Q1853.17 998.29 1874.85 1011.04L1874.85 1011.04Q1906.72 1030.16 1943.06 1058.21Q1979.40 1086.26 2011.28 1111.76L2011.28 1111.76L1999.80 1102.84L1766.47 1118.14L1749.90 1118.14Q1724.40 1118.14 1706.55 1113.04L1706.55 1113.04Q1702.72 1111.76 1698.90 1111.76L1698.90 1111.76Q1683.60 1111.76 1683.60 1127.06L1683.60 1127.06Q1683.60 1129.61 1684.24 1130.89Q1684.88 1132.16 1684.88 1133.44L1684.88 1133.44Q1696.35 1178.06 1718.66 1186.99Q1740.97 1195.91 1752.45 1195.91L1752.45 1195.91Q1758.83 1195.91 1767.75 1195.91Q1776.67 1195.91 1789.42 1194.64L1789.42 1194.64L2082.68 1175.51L2083.95 1227.79L1868.47 1240.54L1851.90 1240.54Q1826.40 1240.54 1808.55 1235.44L1808.55 1235.44Q1804.72 1234.16 1800.90 1234.16L1800.90 1234.16Q1785.60 1234.16 1785.60 1249.46L1785.60 1249.46Q1785.60 1253.29 1786.88 1257.11L1786.88 1257.11Q1797.08 1285.16 1809.83 1297.28Q1822.58 1309.39 1834.05 1312.58Q1845.53 1315.76 1849.35 1315.76L1849.35 1315.76L1855.72 1315.76Q1862.10 1315.76 1871.03 1315.76Q1879.95 1315.76 1890.15 1314.49L1890.15 1314.49L2083.95 1303.01L2085.22 1364.21L1726.95 1383.34L1712.92 1383.34Q1700.17 1383.34 1688.06 1382.06Q1675.95 1380.79 1667.03 1378.24L1667.03 1378.24Q1663.20 1376.96 1659.38 1376.96L1659.38 1376.96Q1644.08 1376.96 1644.08 1392.26L1644.08 1392.26Q1644.08 1396.09 1645.35 1399.91L1645.35 1399.91Q1659.38 1445.81 1681.69 1453.46Q1704 1461.11 1714.20 1461.11L1714.20 1461.11Q1720.58 1461.11 1730.14 1460.47Q1739.70 1459.84 1748.63 1459.84L1748.63 1459.84L2050.80 1443.26Q2046.97 1447.09 2043.15 1453.46L2043.15 1453.46Q2040.60 1456.01 2030.40 1464.94Q2020.20 1473.86 1985.78 1486.61Q1951.35 1499.36 1882.50 1517.85Q1813.65 1536.34 1693.80 1559.29L1693.80 1559.29Q1658.10 1566.94 1658.10 1584.79L1658.10 1584.79Q1658.10 1605.19 1693.80 1605.19L1693.80 1605.19L1698.90 1605.19Q1786.88 1598.81 1843.61 1591.80Q1900.35 1584.79 1908 1583.51L1908 1583.51L1909.28 1631.96L1640.25 1644.71L1623.67 1644.71Q1600.72 1644.71 1577.78 1640.89L1577.78 1640.89L1573.95 1640.89Q1557.38 1640.89 1557.38 1654.91L1557.38 1654.91Q1557.38 1658.74 1558.65 1662.56L1558.65 1662.56Q1572.67 1704.64 1591.16 1714.20Q1609.65 1723.76 1627.50 1723.76L1627.50 1723.76Q1633.88 1723.76 1642.80 1723.13Q1651.72 1722.49 1661.92 1722.49L1661.92 1722.49L1909.28 1711.01L1910.55 1781.14Q1811.10 1795.16 1714.20 1802.81L1714.20 1802.81L1700.17 1802.81Q1687.42 1802.81 1674.04 1801.54Q1660.65 1800.26 1642.80 1797.71L1642.80 1797.71L1640.25 1797.71Q1638.97 1796.44 1636.42 1796.44L1636.42 1796.44Q1619.85 1796.44 1619.85 1813.01L1619.85 1813.01Q1619.85 1815.56 1620.49 1819.39Q1621.13 1823.21 1622.40 1827.04L1622.40 1827.04Q1637.70 1862.74 1653 1878.04Q1668.30 1893.34 1680.41 1897.16Q1692.53 1900.99 1695.08 1900.99L1695.08 1900.99Q1700.17 1900.99 1735.24 1895.25Q1770.30 1889.51 1820.66 1879.95Q1871.03 1870.39 1911.83 1861.46L1911.83 1861.46L1913.10 1995.34Q1876.13 1986.41 1839.15 1974.94Q1802.17 1963.46 1757.55 1946.89L1757.55 1946.89Q1737.15 1939.24 1725.67 1939.24L1725.67 1939.24Q1706.55 1939.24 1706.55 1952.63Q1706.55 1966.01 1726.31 1983.86Q1746.08 2001.71 1775.40 2021.48Q1804.72 2041.24 1835.96 2059.09Q1867.20 2076.94 1895.89 2089.69Q1924.58 2102.44 1941.15 2102.44L1941.15 2102.44Q1964.10 2102.44 1985.14 2081.40Q2006.18 2060.36 2006.18 2036.14L2006.18 2036.14Q2006.18 2025.94 2004.90 2014.46Q2003.63 2002.99 2003.63 1986.41L2003.63 1986.41L2001.08 1839.79Q2089.05 1816.84 2138.78 1802.18Q2188.50 1787.51 2210.18 1776.68Q2231.85 1765.84 2231.85 1753.09L2231.85 1753.09Q2231.85 1733.96 2201.25 1733.96L2201.25 1733.96Q2197.43 1733.96 2192.32 1734.60Q2187.22 1735.24 2180.85 1736.51L2180.85 1736.51Q2133.68 1745.44 2085.86 1753.73Q2038.05 1762.01 1999.80 1768.39L1999.80 1768.39L1998.53 1708.46L2230.57 1696.99Q2247.15 1735.24 2268.19 1772.85Q2289.23 1810.46 2314.73 1848.71L2314.73 1848.71Q2211.45 1921.39 2055.90 1988.96L2055.90 1988.96Q2026.58 2001.71 2026.58 2017.01Q2026.58 2032.31 2049.53 2032.31L2049.53 2032.31Q2063.55 2032.31 2098.61 2022.75Q2133.68 2013.19 2180.21 1995.98Q2226.75 1978.76 2276.48 1956.45Q2326.20 1934.14 2363.18 1913.74L2363.18 1913.74Q2429.48 1991.51 2486.21 2036.14Q2542.95 2080.76 2581.84 2097.34Q2620.73 2113.91 2636.03 2113.91L2636.03 2113.91Q2653.88 2113.91 2667.90 2105.63Q2681.93 2097.34 2692.76 2070.56Q2703.60 2043.79 2711.89 1988.33Q2720.18 1932.86 2725.28 1835.96ZM2324.93 1694.44L2479.20 1686.79Q2476.65 1690.61 2474.10 1696.99L2474.10 1696.99Q2470.28 1713.56 2464.54 1722.49Q2458.80 1731.41 2440.95 1749.26Q2423.10 1767.11 2384.85 1797.71L2384.85 1797.71Q2373.38 1779.86 2362.54 1763.29Q2351.70 1746.71 2342.14 1728.23Q2332.57 1709.74 2324.93 1694.44L2324.93 1694.44Z"/>
  </svg>