<svg xmlns="http://www.w3.org/2000/svg" viewBox="0 0 3000 3000" width="3000" height="3000">
    <path fill="#000000" d="M698 1004L698 944L2306 944L2306 1004L698 1004ZM808 1238L808 1180L2194 1180L2194 1238L808 1238ZM618 1478L618 1420L2384 1420L2384 1478L618 1478ZM618 1902L618 1842L2384 1842L2384 1902L618 1902ZM1468 1446L1468 960L1528 960L1528 1446L1468 1446ZM1904 706L1904 706L1958 736Q1924 796 1882 859Q1840 922 1806 968L1806 968L1760 942Q1796 896 1837 826Q1878 756 1904 706ZM618 2208L608 2146Q724 2136 876 2121Q1028 2106 1202 2089Q1376 2072 1552 2054L1552 2054L1552 2108Q1382 2126 1213 2144Q1044 2162 891 2178Q738 2194 618 2208L618 2208ZM1072 2422L1072 1614L1132 1614L1132 2422Q1132 2460 1120 2478Q1108 2496 1076 2502L1076 2502Q1044 2510 978 2512Q912 2514 796 2514L796 2514Q794 2504 786 2488Q778 2472 770 2458L770 2458Q836 2460 890 2460Q944 2460 982 2459Q1020 2458 1034 2458L1034 2458Q1056 2458 1064 2450Q1072 2442 1072 2422L1072 2422ZM1462 1522L1462 1522L1510 1572Q1404 1596 1259 1618Q1114 1640 957 1656Q800 1672 654 1682L654 1682Q652 1670 645 1655Q638 1640 632 1628L632 1628Q776 1618 933 1603Q1090 1588 1230 1567Q1370 1546 1462 1522ZM1620 1514L1620 1514L1680 1514Q1690 1726 1741 1900Q1792 2074 1872 2198Q1952 2322 2051 2389Q2150 2456 2258 2454L2258 2454Q2306 2452 2323 2401Q2340 2350 2348 2220L2348 2220Q2360 2228 2375 2236Q2390 2244 2404 2248L2404 2248Q2398 2350 2382 2407Q2366 2464 2336 2488Q2306 2512 2256 2514L2256 2514Q2132 2514 2022 2440Q1912 2366 1825 2231Q1738 2096 1684 1913Q1630 1730 1620 1514ZM2144 1960L2144 1960L2202 1982Q2110 2102 1973 2200Q1836 2298 1677 2374Q1518 2450 1360 2504L1360 2504Q1358 2498 1351 2489Q1344 2480 1336 2469Q1328 2458 1320 2452L1320 2452Q1480 2404 1636 2333Q1792 2262 1925 2168Q2058 2074 2144 1960ZM1904 1588L1904 1588L1940 1544Q1996 1566 2054 1596Q2112 1626 2164 1657Q2216 1688 2248 1718L2248 1718L2214 1768Q2180 1738 2129 1705Q2078 1672 2019 1641Q1960 1610 1904 1588ZM1028 738L1028 738L1076 712Q1126 762 1170 825Q1214 888 1236 934L1236 934L1180 964Q1160 918 1117 853Q1074 788 1028 738Z"/>
  </svg>