<svg xmlns="http://www.w3.org/2000/svg" viewBox="0 0 3000 3000" width="3000" height="3000">
    <path fill="#000000" d="M1462 1082L1462 1082Q1486 990 1494 980Q1502 970 1512 970L1512 970Q1524 970 1565 1001Q1606 1032 1610 1044L1610 1044Q1616 1060 1640 1100L1640 1100Q1666 1140 1664 1175Q1662 1210 1628 1278L1628 1278Q1594 1356 1586 1368Q1578 1380 1544 1447Q1510 1514 1474 1568L1474 1568L1438 1622L1468 1650Q1534 1718 1674 1804Q1814 1890 1904 1924L1904 1924Q1954 1940 1989 1960Q2024 1980 2059 1985Q2094 1990 2134 2008L2134 2008Q2220 2052 2264 2052L2264 2052Q2284 2052 2325 2086Q2366 2120 2366 2136L2366 2136Q2366 2154 2340 2177Q2314 2200 2298 2200L2298 2200Q2282 2200 2276 2208Q2270 2216 2241 2216Q2212 2216 2208 2225Q2204 2234 2170 2239Q2136 2244 2100 2262Q2064 2280 2012 2284L2012 2284Q1978 2286 1960 2283Q1942 2280 1902 2260L1902 2260Q1792 2210 1652 2110L1652 2110Q1578 2058 1406 1894L1406 1894Q1400 1884 1386 1870L1386 1870Q1326 1814 1310 1812Q1294 1810 1252 1848L1252 1848Q1242 1860 1236 1866L1236 1866Q1148 1950 1052 2012L1052 2012Q940 2088 920 2114L920 2114Q910 2122 804 2171Q698 2220 676 2224L676 2224Q638 2228 636 2215Q634 2202 664 2178L664 2178Q706 2146 867 1981Q1028 1816 1126 1706L1126 1706L1188 1636L1170 1612Q1140 1572 1032 1458L1032 1458Q1002 1422 964 1372L964 1372Q938 1334 932 1318Q926 1302 924 1262L924 1262Q924 1206 930 1199Q936 1192 964 1198L964 1198Q1004 1206 1137 1314Q1270 1422 1284 1460L1284 1460Q1310 1524 1378 1366L1378 1366Q1380 1362 1382 1360L1382 1360Q1410 1292 1462 1082ZM1116 848L1116 848Q1120 826 1126 824Q1132 822 1160 824L1160 824Q1240 830 1320 918L1320 918Q1344 946 1348 959Q1352 972 1352 1008L1352 1008Q1352 1050 1335 1094Q1318 1138 1298 1140L1298 1140Q1280 1144 1251 1137Q1222 1130 1222 1124L1222 1124Q1222 1114 1198 1082L1198 1082Q1168 1046 1139 985Q1110 924 1110 902L1110 902Q1110 876 1116 848Z"/>
  </svg>