<svg xmlns="http://www.w3.org/2000/svg" viewBox="0 0 3000 3000" width="3000" height="3000">
    <path fill="#000000" d="M921.88 2390.63Q843.75 2390.63 843.75 2316.41L843.75 2316.41Q843.75 2246.09 921.88 2246.09L921.88 2246.09L1005.86 2246.09Q1074.22 2246.09 1078.13 2173.83L1078.13 2173.83L1078.13 2085.94L691.41 2126.95Q660.16 2128.91 642.58 2112.30Q625 2095.70 625 2060.55L625 2060.55Q625 2003.91 681.64 1994.14L681.64 1994.14L1078.13 1955.08L1078.13 1812.50L689.45 1812.50Q617.19 1812.50 617.19 1748.05L617.19 1748.05Q617.19 1683.59 689.45 1683.59L689.45 1683.59L1078.13 1683.59L1078.13 1541.02L1220.70 1525.39L1220.70 1683.59L1666.02 1683.59Q1650.39 1568.36 1650.39 1496.09L1650.39 1496.09Q1650.39 1410.16 1726.56 1410.16L1726.56 1410.16Q1800.78 1410.16 1800.78 1482.42L1800.78 1482.42L1798.83 1580.08L1810.55 1683.59L2306.64 1683.59Q2382.81 1683.59 2382.81 1748.05L2382.81 1748.05Q2382.81 1812.50 2306.64 1812.50L2306.64 1812.50L1832.03 1812.50Q1855.47 1906.25 1906.25 2000L1906.25 2000L1910.16 2000Q1990.23 1947.27 2042.97 1896.48L2042.97 1896.48Q2078.13 1863.28 2105.47 1863.28L2105.47 1863.28Q2173.83 1863.28 2173.83 1923.83L2173.83 1923.83Q2173.83 1970.70 1984.38 2097.66L1984.38 2097.66L1984.38 2101.56Q2109.38 2232.42 2201.17 2232.42L2201.17 2232.42Q2246.09 2232.42 2259.77 2101.56L2259.77 2101.56Q2269.53 2031.25 2326.17 2031.25L2326.17 2031.25Q2390.63 2031.25 2390.63 2099.61L2390.63 2099.61Q2390.63 2195.31 2343.75 2292.97L2343.75 2292.97Q2300.78 2382.81 2212.89 2382.81L2212.89 2382.81Q2050.78 2382.81 1865.23 2173.83L1865.23 2173.83Q1554.69 2343.75 1435.55 2343.75L1435.55 2343.75Q1373.05 2343.75 1373.05 2269.53L1373.05 2269.53Q1373.05 2230.47 1507.81 2189.45L1507.81 2189.45Q1648.44 2146.48 1781.25 2076.17L1781.25 2076.17L1787.11 2070.31Q1724.61 1970.70 1691.41 1812.50L1691.41 1812.50L1220.70 1812.50L1220.70 1939.45L1496.09 1908.20Q1529.30 1904.30 1545.90 1921.88Q1562.50 1939.45 1562.50 1970.70L1562.50 1970.70Q1562.50 2029.30 1460.94 2037.11L1460.94 2037.11L1220.70 2066.41L1220.70 2214.84Q1220.70 2308.59 1177.73 2351.56Q1134.77 2394.53 1037.11 2390.63L1037.11 2390.63L921.88 2390.63ZM777.34 1591.80Q748.05 1593.75 731.45 1578.13Q714.84 1562.50 714.84 1531.25L714.84 1531.25Q714.84 1503.91 745.12 1491.21Q775.39 1478.52 837.89 1474.61L837.89 1474.61Q1228.52 1451.17 1369.14 1423.83L1369.14 1423.83L1419.92 1416.02Q1451.17 1412.11 1466.80 1428.71Q1482.42 1445.31 1482.42 1478.52L1482.42 1478.52Q1482.42 1515.63 1429.69 1531.25L1429.69 1531.25L1250 1556.64L1191.41 1558.59L1109.38 1570.31L777.34 1591.80ZM691.41 1384.77Q613.28 1384.77 613.28 1320.31L613.28 1320.31Q613.28 1255.86 685.55 1255.86L685.55 1255.86L1417.97 1255.86L1417.97 1134.77L863.28 1134.77Q794.92 1134.77 794.92 1074.22L794.92 1074.22Q794.92 1015.63 863.28 1015.63L863.28 1015.63L1417.97 1015.63L1417.97 912.11L736.33 912.11Q664.06 912.11 664.06 847.66L664.06 847.66Q664.06 783.20 736.33 783.20L736.33 783.20L2263.67 783.20Q2333.98 783.20 2333.98 847.66L2333.98 847.66Q2333.98 912.11 2263.67 912.11L2263.67 912.11L1568.36 912.11L1568.36 1015.63L2136.72 1015.63Q2203.13 1015.63 2203.13 1076.17L2203.13 1076.17Q2203.13 1134.77 2136.72 1134.77L2136.72 1134.77L1568.36 1134.77L1568.36 1255.86L2312.50 1255.86Q2386.72 1255.86 2386.72 1320.31L2386.72 1320.31Q2386.72 1384.77 2312.50 1384.77L2312.50 1384.77L691.41 1384.77ZM1148.44 835.94Q1113.28 773.44 1090.82 729.49Q1068.36 685.55 1068.36 673.83L1068.36 673.83Q1068.36 613.28 1144.53 613.28L1144.53 613.28Q1216.80 613.28 1312.50 832.03L1312.50 832.03L1148.44 835.94ZM2123.05 1654.30Q2095.70 1654.30 2021.48 1580.08L2021.48 1580.08Q1951.17 1509.77 1951.17 1482.42L1951.17 1482.42Q1951.17 1419.92 2025.39 1419.92L2025.39 1419.92Q2070.31 1419.92 2136.72 1484.38L2136.72 1484.38Q2203.13 1550.78 2203.13 1583.98L2203.13 1583.98Q2203.13 1654.30 2123.05 1654.30L2123.05 1654.30ZM1820.31 832.03L1681.64 812.50L1720.70 712.89Q1761.72 609.38 1824.22 609.38L1824.22 609.38Q1902.34 609.38 1902.34 673.83L1902.34 673.83Q1902.34 699.22 1820.31 832.03L1820.31 832.03Z"/>
  </svg>