<svg xmlns="http://www.w3.org/2000/svg" viewBox="0 0 3000 3000" width="3000" height="3000">
    <path fill="#000000" d="M921.88 2392.58Q845.70 2392.58 845.70 2298.83L845.70 2298.83L845.70 1564.45Q718.75 1708.98 677.73 1708.98L677.73 1708.98Q607.42 1708.98 607.42 1625L607.42 1625Q607.42 1583.98 648.44 1542.97L648.44 1542.97Q859.38 1330.08 974.61 1144.53L974.61 1144.53Q1033.20 1050.78 1078.13 1050.78L1078.13 1050.78Q1158.20 1050.78 1158.20 1121.09L1158.20 1121.09Q1158.20 1175.78 1000 1375L1000 1375L1000 2298.83Q1000 2392.58 921.88 2392.58L921.88 2392.58ZM1185.55 2328.13Q1148.44 2328.13 1125.98 2313.48Q1103.52 2298.83 1103.52 2269.53L1103.52 2269.53Q1103.52 2263.67 1107.42 2244.14L1107.42 2244.14L1154.30 2054.69Q1162.11 2021.48 1168.95 1981.45Q1175.78 1941.41 1179.69 1923.83L1179.69 1923.83Q1191.41 1863.28 1251.95 1863.28L1251.95 1863.28Q1322.27 1863.28 1322.27 1935.55L1322.27 1935.55Q1322.27 2039.06 1279.30 2189.45L1279.30 2189.45Q1238.28 2328.13 1185.55 2328.13L1185.55 2328.13ZM1738.28 2337.89Q1535.16 2337.89 1500 2310.55L1500 2310.55Q1455.08 2277.34 1447.27 2203.13L1447.27 2203.13L1447.27 1925.78Q1447.27 1833.98 1523.44 1833.98L1523.44 1833.98Q1599.61 1833.98 1599.61 1925.78L1599.61 1925.78L1599.61 2126.95Q1599.61 2164.06 1621.09 2179.69L1621.09 2179.69Q1640.63 2193.36 1767.58 2193.36L1767.58 2193.36Q1910.16 2193.36 1939.45 2177.73L1939.45 2177.73Q1968.75 2160.16 1972.66 2113.28L1972.66 2113.28Q1978.52 2041.02 2050.78 2041.02L2050.78 2041.02Q2128.91 2041.02 2128.91 2128.91L2128.91 2128.91Q2128.91 2291.02 1998.05 2320.31L1998.05 2320.31Q1914.06 2337.89 1738.28 2337.89L1738.28 2337.89ZM1859.38 2074.22Q1814.45 2074.22 1755.86 1968.75L1755.86 1968.75L1720.70 1908.20L1716.80 1888.67Q1710.94 1859.38 1733.40 1843.75Q1755.86 1828.13 1794.92 1828.13L1794.92 1828.13Q1814.45 1828.13 1835.94 1844.73Q1857.42 1861.33 1886.72 1898.44L1886.72 1898.44Q1941.41 1966.80 1941.41 2000L1941.41 2000Q1941.41 2074.22 1859.38 2074.22L1859.38 2074.22ZM689.45 1064.45Q609.38 1064.45 609.38 980.47L609.38 980.47Q609.38 929.69 697.27 876.95L697.27 876.95Q832.03 794.92 931.64 701.17L931.64 701.17Q1029.30 609.38 1064.45 609.38L1064.45 609.38Q1150.39 609.38 1150.39 693.36L1150.39 693.36Q1150.39 751.95 947.27 910.16L947.27 910.16Q750 1064.45 689.45 1064.45L689.45 1064.45ZM1238.28 1775.39Q1150.39 1775.39 1150.39 1707.03L1150.39 1707.03Q1150.39 1640.63 1238.28 1640.63L1238.28 1640.63L2294.92 1640.63Q2382.81 1640.63 2382.81 1708.98L2382.81 1708.98Q2382.81 1775.39 2294.92 1775.39L2294.92 1775.39L1238.28 1775.39ZM1414.06 1414.06L1539.06 1414.06L1539.06 1177.73L1414.06 1177.73Q1359.38 1177.73 1359.38 1234.38L1359.38 1234.38L1359.38 1357.42Q1359.38 1410.16 1414.06 1414.06L1414.06 1414.06ZM2308.59 2279.30Q2271.48 2279.30 2251.95 2253.91L2251.95 2253.91Q2234.38 2232.42 2197.27 2144.53L2197.27 2144.53L2146.48 2042.97Q2140.63 2029.30 2117.19 1983.40Q2093.75 1937.50 2093.75 1927.73L2093.75 1927.73Q2093.75 1869.14 2167.97 1869.14L2167.97 1869.14Q2224.61 1869.14 2306.64 2013.67L2306.64 2013.67Q2392.58 2164.06 2392.58 2199.22L2392.58 2199.22Q2392.58 2279.30 2308.59 2279.30L2308.59 2279.30ZM1367.19 1542.97Q1283.20 1542.97 1245.12 1505.86Q1207.03 1468.75 1210.94 1386.72L1210.94 1386.72L1210.94 1203.13Q1210.94 1119.14 1248.05 1082.03Q1285.16 1044.92 1367.19 1048.83L1367.19 1048.83L2164.06 1048.83Q2246.09 1048.83 2284.18 1085.94Q2322.27 1123.05 2318.36 1203.13L2318.36 1203.13L2318.36 1386.72Q2318.36 1470.70 2281.25 1509.77Q2244.14 1548.83 2164.06 1542.97L2164.06 1542.97L1367.19 1542.97ZM1666.02 1414.06L1851.56 1414.06L1851.56 1177.73L1666.02 1177.73L1666.02 1414.06ZM1244.14 925.78Q1154.30 925.78 1154.30 853.52L1154.30 853.52Q1154.30 781.25 1244.14 781.25L1244.14 781.25L1699.22 781.25L1699.22 925.78L1244.14 925.78ZM2115.23 1414.06Q2140.63 1414.06 2155.27 1399.41Q2169.92 1384.77 2169.92 1357.42L2169.92 1357.42L2169.92 1234.38Q2169.92 1181.64 2115.23 1177.73L2115.23 1177.73L1978.52 1177.73L1978.52 1414.06L2115.23 1414.06ZM1666.02 673.83Q1666.02 603.52 1746.09 603.52L1746.09 603.52Q1824.22 603.52 1824.22 673.83L1824.22 673.83L1824.22 1078.13L1666.02 1078.13L1666.02 673.83ZM1792.97 925.78L1792.97 781.25L2296.88 781.25Q2386.72 781.25 2386.72 853.52L2386.72 853.52Q2386.72 925.78 2296.88 925.78L2296.88 925.78L1792.97 925.78Z"/>
  </svg>