<svg xmlns="http://www.w3.org/2000/svg" viewBox="0 0 3000 3000" width="3000" height="3000">
    <path fill="#000000" d="M1140 956L1140 898L2394 898L2394 956L1140 956ZM1126 1836L1126 1778L2406 1778L2406 1836L1126 1836ZM1638 1906L1638 1906L1684 1884Q1730 1946 1779 2021Q1828 2096 1854 2144L1854 2144L1806 2174Q1780 2122 1732 2045Q1684 1968 1638 1906ZM1444 2378L1444 2018L1502 2018L1502 2378Q1502 2406 1521 2416Q1540 2426 1608 2426L1608 2426Q1624 2426 1669 2426Q1714 2426 1770 2426Q1826 2426 1875 2426Q1924 2426 1946 2426L1946 2426Q1984 2426 2003 2413Q2022 2400 2030 2354Q2038 2308 2040 2214L2040 2214Q2052 2222 2068 2228Q2084 2234 2098 2238L2098 2238Q2094 2338 2082 2392Q2070 2446 2040 2466Q2010 2486 1952 2486L1952 2486Q1942 2486 1893 2486Q1844 2486 1782 2486Q1720 2486 1671 2486Q1622 2486 1610 2486L1610 2486Q1546 2486 1509 2478Q1472 2470 1458 2447Q1444 2424 1444 2378L1444 2378ZM1262 2038L1262 2038L1316 2060Q1280 2150 1231 2257Q1182 2364 1118 2440L1118 2440L1062 2412Q1106 2364 1144 2299Q1182 2234 1212 2165Q1242 2096 1262 2038ZM2142 2024L2142 2024L2196 2008Q2232 2070 2270 2142Q2308 2214 2341 2281Q2374 2348 2394 2396L2394 2396L2338 2420Q2318 2370 2286 2301Q2254 2232 2217 2159Q2180 2086 2142 2024ZM2246 1202L1962 1202L1962 1550L2246 1550L2246 1202ZM1904 1202L1626 1202L1626 1550L1904 1550L1904 1202ZM1566 1202L1300 1202L1300 1550L1566 1550L1566 1202ZM1242 1610L1242 1142L2306 1142L2306 1610L1242 1610ZM1738 704L1738 704L1800 714Q1788 786 1773 869Q1758 952 1742 1031Q1726 1110 1710 1168L1710 1168L1656 1156Q1672 1098 1687 1017Q1702 936 1716 853Q1730 770 1738 704ZM1070 1140L1070 1140L1128 1160Q1060 1278 976 1396Q892 1514 803 1619Q714 1724 626 1808L626 1808Q622 1802 613 1794Q604 1786 594 1778Q584 1770 576 1764L576 1764Q666 1684 756 1583Q846 1482 927 1368Q1008 1254 1070 1140ZM1030 712L1030 712L1088 736Q1028 810 951 891Q874 972 790 1048Q706 1124 628 1184L628 1184Q624 1178 617 1170Q610 1162 602 1154Q594 1146 586 1142L586 1142Q664 1084 747 1011Q830 938 905 860Q980 782 1030 712ZM888 2512L888 1454L918 1424L948 1434L948 2512L888 2512Z"/>
  </svg>