<svg xmlns="http://www.w3.org/2000/svg" viewBox="0 0 3000 3000" width="3000" height="3000">
    <path fill="#000000" d="M1982 1860L1982 1860Q2002 1850 2036 1868L2036 1868Q2054 1880 2155 1982Q2256 2084 2256 2092L2256 2092Q2256 2106 2280 2128L2280 2128L2306 2150L2296 2226Q2280 2366 2208 2376L2208 2376Q2176 2382 2152 2390L2152 2390Q2110 2408 2003 2397Q1896 2386 1828 2358L1828 2358Q1752 2330 1664 2259Q1576 2188 1542 2130L1542 2130L1504 2068Q1478 2020 1476 1980L1476 1980Q1474 1950 1491 1948Q1508 1946 1536 1970L1536 1970L1612 2036Q1708 2120 1816 2138L1816 2138Q1866 2146 1931 2145Q1996 2144 2030 2136L2030 2136Q2058 2128 2065 2115Q2072 2102 2063 2074Q2054 2046 2022 1984L2022 1984Q1982 1910 1975 1887Q1968 1864 1982 1860ZM1298 1954L1354 1870Q1378 1836 1388 1838L1388 1838Q1398 1844 1400 1871Q1402 1898 1392 1912L1392 1912Q1378 1924 1368 1997Q1358 2070 1373 2107Q1388 2144 1388 2188L1388 2188Q1390 2228 1373 2246Q1356 2264 1318 2264L1318 2264Q1294 2266 1284 2260Q1274 2254 1258 2236L1258 2236Q1236 2210 1235 2183Q1234 2156 1220 2125Q1206 2094 1217 2081Q1228 2068 1244 2035Q1260 2002 1298 1954L1298 1954ZM1584 1726L1584 1726Q1596 1706 1696 1739Q1796 1772 1808 1800L1808 1800Q1820 1828 1807 1861Q1794 1894 1762 1918L1762 1918Q1740 1936 1698 1926Q1656 1916 1650 1894L1650 1894Q1646 1878 1638 1878Q1630 1878 1598 1848L1598 1848Q1578 1826 1574 1814Q1570 1802 1572 1774L1572 1774Q1580 1732 1584 1726ZM2136 1660L2136 1660Q2158 1654 2204 1658Q2250 1662 2280 1672L2280 1672Q2368 1696 2386 1742L2386 1742Q2398 1772 2384 1815Q2370 1858 2368 1868Q2366 1878 2346 1891Q2326 1904 2303 1894Q2280 1884 2280 1877Q2280 1870 2261 1866Q2242 1862 2209 1832Q2176 1802 2156 1790Q2136 1778 2110 1744L2110 1744Q2094 1722 2092 1713Q2090 1704 2100 1688L2100 1688Q2110 1664 2136 1660ZM974 1656L974 1656Q988 1644 993 1645Q998 1646 1016 1660L1016 1660Q1030 1672 1034 1683Q1038 1694 1038 1732L1038 1732Q1038 1792 1030 1848L1030 1848Q1024 1902 1025 2046Q1026 2190 1034 2210L1034 2210Q1042 2230 1042 2271Q1042 2312 1054 2322Q1066 2332 1066 2368L1066 2368Q1066 2428 1004 2436L1004 2436Q982 2440 972 2436Q962 2432 944 2414L944 2414Q920 2386 902 2330L902 2330Q890 2288 889 2275Q888 2262 898 2236L898 2236Q910 2200 917 2033Q924 1866 934 1820L934 1820Q958 1668 974 1656ZM1072 1192L1072 1192Q1092 1168 1146 1222L1146 1222Q1200 1278 1190 1320L1190 1320Q1186 1338 1150 1392Q1114 1446 1102 1454L1102 1454Q1094 1462 1094 1471Q1094 1480 1066 1510Q1038 1540 1015 1569Q992 1598 938 1652L938 1652L804 1782Q726 1860 692 1883Q658 1906 658 1911Q658 1916 632 1932L632 1932Q612 1942 610 1941Q608 1940 608 1928L608 1928Q608 1910 621 1888Q634 1866 707 1770Q780 1674 785 1662Q790 1650 832 1586Q874 1522 888 1495Q902 1468 913 1459Q924 1450 924 1443Q924 1436 947 1404Q970 1372 978 1356Q986 1340 994 1322L994 1322L1032 1256Q1062 1204 1072 1192ZM1016 948L1016 948Q1028 938 1073 870Q1118 802 1139 779Q1160 756 1165 756Q1170 756 1201 784Q1232 812 1246 820Q1260 828 1266 858L1266 858Q1268 880 1263 888Q1258 896 1230 916L1230 916Q1188 944 1180 954L1180 954Q1150 980 1096 1020L1096 1020Q1064 1046 1054 1054Q1044 1062 967 1125Q890 1188 858 1216L858 1216Q808 1260 808 1228L808 1228Q808 1208 866 1130L866 1130Q938 1032 1016 948ZM1618 670L1618 670Q1622 664 1636 670Q1650 676 1677 680Q1704 684 1722 702L1722 702Q1734 716 1736 734Q1738 752 1736 828L1736 828L1730 934L1848 930Q1948 926 1985 932Q2022 938 2056 966L2056 966Q2110 1012 2080 1042L2080 1042Q2046 1070 1960 1058L1960 1058Q1794 1032 1761 1035Q1728 1038 1708 1086L1708 1086Q1690 1130 1652 1160L1652 1160L1616 1192L1720 1188Q1826 1182 1888 1196Q1950 1210 2004 1218L2004 1218Q2110 1228 2150 1262L2150 1262Q2164 1278 2169 1316Q2174 1354 2160 1372L2160 1372Q2146 1392 2146 1401Q2146 1410 2122 1445Q2098 1480 2098 1486L2098 1486Q2098 1500 2065 1550Q2032 1600 2004 1626L2004 1626Q1938 1694 1890 1636L1890 1636Q1876 1618 1865 1614Q1854 1610 1816 1610L1816 1610Q1768 1610 1703 1609Q1638 1608 1551 1635Q1464 1662 1431 1679Q1398 1696 1368 1687Q1338 1678 1320 1656L1320 1656Q1284 1620 1342 1594L1342 1594Q1354 1588 1361 1584Q1368 1580 1368 1576L1368 1576Q1228 1302 1308 1302L1308 1302Q1320 1302 1350 1285Q1380 1268 1437 1243Q1494 1218 1494 1203Q1494 1188 1503 1178Q1512 1168 1520 1136L1520 1136L1532 1082Q1536 1066 1534 1062Q1532 1058 1520 1058L1520 1058Q1502 1058 1452 1082L1452 1082Q1414 1100 1404 1101Q1394 1102 1370 1090L1370 1090Q1312 1064 1326 1028L1326 1028Q1334 1012 1362 1002Q1390 992 1468 976L1468 976Q1556 958 1559 954Q1562 950 1576 870L1576 870Q1600 702 1618 670ZM1720 1274L1720 1274Q1720 1270 1719 1265Q1718 1260 1716 1260L1716 1260Q1708 1260 1686 1264L1686 1264Q1580 1280 1570 1298L1570 1298Q1568 1310 1585 1346Q1602 1382 1602 1398Q1602 1414 1608 1432L1608 1432L1614 1452L1638 1428Q1658 1410 1689 1352Q1720 1294 1720 1274ZM1938 1298L1938 1298Q1916 1290 1882 1278L1882 1278Q1856 1272 1851 1273Q1846 1274 1846 1288L1846 1288Q1844 1324 1796 1396L1796 1396Q1778 1424 1774 1437Q1770 1450 1758 1454L1758 1454Q1726 1466 1768 1478L1768 1478Q1774 1480 1782 1482L1782 1482Q1822 1486 1834 1476Q1846 1466 1878 1462L1878 1462Q1898 1458 1906 1451Q1914 1444 1928 1418L1928 1418Q1946 1380 1952 1344L1952 1344Q1960 1320 1957 1313Q1954 1306 1938 1298ZM1532 1454L1532 1454Q1502 1410 1490 1368Q1478 1326 1474 1326L1474 1326Q1466 1326 1432 1347Q1398 1368 1398 1374L1398 1374Q1408 1408 1432 1466L1432 1466Q1444 1494 1444 1518L1444 1518Q1444 1542 1455 1547Q1466 1552 1502 1538L1502 1538Q1550 1522 1555 1509Q1560 1496 1532 1454Z"/>
  </svg>