<svg xmlns="http://www.w3.org/2000/svg" viewBox="0 0 3000 3000" width="3000" height="3000">
    <path fill="#000000" d="M1345.72 1266.68L1315.13 1400.55Q1353.38 1433.70 1353.38 1443.90Q1353.38 1454.10 1345.72 1456.01Q1338.07 1457.93 1325.32 1459.20L1325.32 1459.20L797.47 1485.97L800.02 1507.65L800.02 1514.03Q800.02 1535.70 780.90 1535.70Q761.77 1535.70 740.74 1522.95Q719.70 1510.20 719.70 1484.70L719.70 1484.70L719.70 1475.78Q720.97 1466.85 720.97 1459.20L720.97 1459.20L720.97 1426.05Q720.97 1417.13 718.42 1406.93L718.42 1406.93L703.12 1296Q696.75 1252.65 685.27 1234.80Q673.80 1216.95 673.80 1210.58Q673.80 1204.20 687.82 1204.20Q701.85 1204.20 770.70 1229.70L770.70 1229.70L967.05 1216.95L967.05 1190.18Q968.32 1163.40 969.60 1128.97L969.60 1128.97L828.07 1137.90Q789.82 1140.45 766.24 1140.45Q742.65 1140.45 726.71 1127.70Q710.77 1114.95 701.85 1098.38Q692.92 1081.80 692.92 1076.70Q692.92 1071.60 699.30 1071.60Q705.67 1071.60 723.52 1075.42Q741.37 1079.25 760.50 1079.25L760.50 1079.25L788.55 1079.25Q797.47 1079.25 807.67 1077.97L807.67 1077.97L970.87 1067.78Q972.15 1039.72 972.15 1020.60L972.15 1020.60L972.15 1001.48Q972.15 954.30 956.85 928.80L956.85 928.80Q953.02 921.15 953.02 915.41Q953.02 909.67 963.22 909.67Q973.42 909.67 1003.39 917.96Q1033.35 926.25 1041 937.09Q1048.65 947.92 1048.65 963.23L1048.65 963.23L1048.65 992.55Q1047.38 1023.15 1046.10 1063.95L1046.10 1063.95L1168.50 1056.30Q1208.02 1053.75 1231.61 1044.19Q1255.20 1034.63 1272.41 1034.63Q1289.62 1034.63 1313.21 1052.47Q1336.80 1070.33 1336.80 1081.80L1336.80 1081.80Q1336.80 1103.47 1310.02 1107.30L1310.02 1107.30L1043.55 1123.88L1041 1213.13L1280.70 1197.83L1298.55 1196.55Q1316.40 1196.55 1335.52 1211.21Q1354.65 1225.88 1354.65 1236.71Q1354.65 1247.55 1351.46 1253.93Q1348.27 1260.30 1345.72 1266.68L1345.72 1266.68ZM655.95 995.10L655.95 995.10Q562.87 1128.97 488.29 1201.01Q413.70 1273.05 367.80 1301.10Q321.90 1329.15 314.89 1329.15Q307.87 1329.15 307.87 1319.59Q307.87 1310.03 357.60 1257.75L357.60 1257.75Q473.62 1134.08 560.32 983.63L560.32 983.63Q570.52 964.50 573.07 940.27Q575.62 916.05 587.74 916.05Q599.85 916.05 616.42 928.80L616.42 928.80Q659.77 959.40 659.77 982.35L659.77 982.35Q659.77 988.73 655.95 995.10ZM463.42 1851.90L468.52 1566.30Q463.42 1573.95 423.90 1616.03L423.90 1616.03Q310.42 1739.70 274.72 1739.70L274.72 1739.70Q267.07 1739.70 267.07 1727.59Q267.07 1715.48 291.30 1688.06Q315.52 1660.65 373.54 1584.79Q431.55 1508.93 502.31 1394.81Q573.07 1280.70 573.07 1236.08L573.07 1236.08Q573.07 1215.68 586.46 1215.68Q599.85 1215.68 617.70 1228.43L617.70 1228.43Q658.50 1259.03 658.50 1280.06Q658.50 1301.10 539.92 1473.22L539.92 1473.22L538.65 2025.30Q538.65 2048.25 523.35 2048.25L523.35 2048.25Q520.80 2048.25 504.22 2043.15L504.22 2043.15Q455.77 2025.30 455.77 1992.15L455.77 1992.15L455.77 1985.78Q455.77 1981.95 458.32 1966.01Q460.87 1950.08 463.42 1851.90L463.42 1851.90ZM1246.27 1401.83L1265.40 1260.30L1148.10 1266.68L1136.63 1406.93L1246.27 1401.83ZM1067.77 1410.75L1075.42 1271.78L964.50 1278.15L972.15 1415.85L1067.77 1410.75ZM789.82 1424.78L903.30 1419.67L894.37 1281.97L773.25 1289.63L789.82 1424.78ZM1336.80 1610.93L826.80 1635.15Q788.55 1637.70 769.42 1637.70Q750.30 1637.70 735.64 1624.95Q720.97 1612.20 712.05 1594.99Q703.12 1577.78 703.12 1572.68L703.12 1572.68Q703.12 1563.75 713.32 1563.75L713.32 1563.75Q718.42 1563.75 733.09 1567.58Q747.75 1571.40 782.17 1571.40L782.17 1571.40L811.50 1571.40L1185.07 1553.55Q1227.15 1552.28 1257.75 1542.08Q1288.35 1531.88 1295.36 1531.88Q1302.37 1531.88 1318.95 1540.80L1318.95 1540.80Q1361.02 1562.48 1361.02 1590.53L1361.02 1590.53Q1361.02 1608.38 1336.80 1610.93L1336.80 1610.93ZM933.90 1706.55L933.90 1706.55Q923.70 1698.90 923.70 1691.25Q923.70 1683.60 937.09 1668.30Q950.47 1653 961.95 1653Q973.42 1653 1050.56 1709.74Q1127.70 1766.48 1127.70 1784.33L1127.70 1784.33Q1127.70 1786.88 1121.96 1798.35Q1116.22 1809.83 1107.30 1820.03Q1098.38 1830.23 1088.17 1830.23Q1077.97 1830.23 1045.46 1797.71Q1012.95 1765.20 933.90 1706.55ZM1396.72 1878.68L1396.72 1878.68Q1317.67 1788.15 1242.45 1728.23L1242.45 1728.23Q1229.70 1719.30 1229.70 1709.74Q1229.70 1700.18 1243.09 1686.79Q1256.47 1673.40 1266.04 1673.40Q1275.60 1673.40 1307.47 1695.08Q1339.35 1716.75 1398 1769.03Q1456.65 1821.30 1456.65 1837.88Q1456.65 1854.45 1441.35 1871.66Q1426.05 1888.88 1416.49 1888.88Q1406.92 1888.88 1396.72 1878.68ZM667.42 1955.18L667.42 1955.18Q659.77 1969.20 645.75 1969.20Q631.72 1969.20 611.96 1952.63Q592.20 1936.05 592.20 1927.13Q592.20 1918.20 610.05 1892.70L610.05 1892.70Q648.30 1837.88 694.20 1710.38L694.20 1710.38Q698.02 1698.90 710.14 1698.90Q722.25 1698.90 741.37 1706.55Q760.50 1714.20 760.50 1730.78L760.50 1730.78Q760.50 1735.88 742.65 1791.34Q724.80 1846.80 667.42 1955.18ZM1247.55 1936.05L1247.55 1936.05Q1247.55 1933.50 1232.89 1907.36Q1218.22 1881.23 1204.84 1856.36Q1191.45 1831.50 1186.35 1818.75Q1181.25 1806 1181.25 1797.08Q1181.25 1788.15 1191.45 1788.15Q1201.65 1788.15 1243.72 1833.41Q1285.80 1878.68 1324.69 1909.91Q1363.57 1941.15 1363.57 1955.18Q1363.57 1969.20 1338.71 1990.88Q1313.85 2012.55 1266.67 2016.38Q1219.50 2020.20 1173.60 2020.20L1173.60 2020.20Q988.72 2020.20 904.57 1936.05L904.57 1936.05Q845.92 1877.40 819.15 1800.90L819.15 1800.90Q808.95 1771.58 808.95 1762.65L808.95 1762.65Q808.95 1739.70 851.02 1739.70L851.02 1739.70Q870.15 1739.70 876.52 1756.28L876.52 1756.28Q899.47 1831.50 937.09 1869.11Q974.70 1906.73 1026.97 1926.49Q1079.25 1946.25 1163.40 1946.25Q1247.55 1946.25 1247.55 1936.05ZM1876.13 946.65L1876.13 942.82L1874.85 935.17Q1874.85 917.32 1890.15 917.32L1890.15 917.32Q1900.35 917.32 1920.11 927.52Q1939.88 937.73 1955.81 952.39Q1971.75 967.05 1971.75 976.61Q1971.75 986.17 1966.65 993.83L1966.65 993.83Q1827.67 1215.68 1635.15 1338.08L1635.15 1338.08Q1613.47 1350.83 1605.19 1350.83Q1596.90 1350.83 1596.90 1342.54Q1596.90 1334.25 1618.58 1312.58Q1640.25 1290.90 1700.17 1222.05Q1760.10 1153.20 1818.11 1067.78Q1876.13 982.35 1876.13 946.65L1876.13 946.65ZM2132.40 1044.83L2132.40 1044.83L2476.65 1023.15Q2504.70 1021.88 2520 1016.77Q2535.30 1011.67 2544.23 1011.67Q2553.15 1011.67 2568.45 1020.60L2568.45 1020.60Q2607.98 1046.10 2607.98 1069.05L2607.98 1069.05Q2607.98 1085.63 2579.93 1088.17L2579.93 1088.17L2179.57 1114.95Q2169.38 1116.22 2160.45 1116.22L2160.45 1116.22L2142.60 1116.22Q2129.85 1116.22 2110.72 1108.58Q2091.60 1100.92 2077.57 1061.40L2077.57 1061.40Q2075.03 1053.75 2075.03 1049.92L2075.03 1049.92Q2075.03 1041 2086.50 1041L2086.50 1041L2092.88 1041Q2112 1044.83 2132.40 1044.83ZM1970.47 1281.97L1970.47 1281.97Q1970.47 1307.47 1842.97 1473.22L1842.97 1473.22L1849.35 2015.10Q1849.35 2048.25 1823.85 2048.25Q1798.35 2048.25 1777.95 2032.95Q1757.55 2017.65 1757.55 2004.26Q1757.55 1990.88 1763.29 1967.29Q1769.03 1943.70 1769.03 1897.80L1769.03 1897.80L1771.58 1557.38Q1673.40 1664.48 1573.95 1733.33L1573.95 1733.33Q1556.10 1747.35 1545.90 1747.35Q1535.70 1747.35 1535.70 1740.98L1535.70 1740.98Q1535.70 1729.50 1554.83 1709.10L1554.83 1709.10Q1735.88 1520.40 1859.55 1299.83L1859.55 1299.83Q1873.58 1274.33 1873.58 1250.10L1873.58 1250.10L1873.58 1239.90Q1873.58 1218.22 1887.60 1218.22Q1901.63 1218.22 1920.75 1230.34Q1939.88 1242.45 1955.18 1257.75Q1970.47 1273.05 1970.47 1281.97ZM2442.23 1386.53L2439.68 1961.55L2442.23 1998.53Q2442.23 2018.93 2422.46 2039.96Q2402.70 2061 2382.94 2061Q2363.18 2061 2331.94 2046.34Q2300.70 2031.68 2263.73 2009.36Q2226.75 1987.05 2192.32 1962.83Q2157.90 1938.60 2135.59 1918.84Q2113.28 1899.08 2113.28 1891.43Q2113.28 1883.78 2127.94 1883.78Q2142.60 1883.78 2211.45 1911.19Q2280.30 1938.60 2354.25 1962.83L2354.25 1962.83L2358.07 1390.35L2067.38 1406.93Q2057.18 1408.20 2048.25 1408.20L2048.25 1408.20L2030.40 1408.20Q2004.90 1408.20 1992.79 1396.72Q1980.68 1385.25 1971.75 1366.13Q1962.83 1347 1962.83 1340.63L1962.83 1340.63Q1962.83 1330.43 1973.03 1330.43L1973.03 1330.43Q1978.13 1330.43 1990.24 1332.97Q2002.35 1335.53 2027.85 1335.53L2027.85 1335.53L2041.88 1335.53L2606.70 1304.93Q2639.85 1302.38 2652.60 1297.91Q2665.35 1293.45 2674.28 1293.45Q2683.20 1293.45 2698.50 1303.65L2698.50 1303.65Q2738.03 1327.88 2738.03 1350.83L2738.03 1350.83Q2738.03 1368.68 2709.98 1371.22L2709.98 1371.22L2442.23 1386.53Z"/>
  </svg>