<svg xmlns="http://www.w3.org/2000/svg" viewBox="0 0 3000 3000" width="3000" height="3000">
    <path fill="#000000" d="M493.95 2069.02Q445.39 2069.02 445.39 2009.25L445.39 2009.25L445.39 1541.09Q364.45 1633.23 338.31 1633.23L338.31 1633.23Q293.48 1633.23 293.48 1579.69L293.48 1579.69Q293.48 1553.54 319.63 1527.39L319.63 1527.39Q454.10 1391.67 527.56 1273.39L527.56 1273.39Q564.92 1213.62 593.55 1213.62L593.55 1213.62Q644.60 1213.62 644.60 1258.45L644.60 1258.45Q644.60 1293.31 543.75 1420.31L543.75 1420.31L543.75 2009.25Q543.75 2069.02 493.95 2069.02L493.95 2069.02ZM662.04 2027.93Q638.38 2027.93 624.06 2018.59Q609.74 2009.25 609.74 1990.58L609.74 1990.58Q609.74 1986.84 612.23 1974.39L612.23 1974.39L642.11 1853.61Q647.09 1832.45 651.45 1806.92Q655.81 1781.40 658.30 1770.19L658.30 1770.19Q665.77 1731.59 704.37 1731.59L704.37 1731.59Q749.19 1731.59 749.19 1777.66L749.19 1777.66Q749.19 1843.65 721.80 1939.53L721.80 1939.53Q695.65 2027.93 662.04 2027.93L662.04 2027.93ZM1014.40 2034.16Q884.91 2034.16 862.50 2016.72L862.50 2016.72Q833.86 1995.56 828.88 1948.24L828.88 1948.24L828.88 1771.44Q828.88 1712.92 877.44 1712.92L877.44 1712.92Q926.00 1712.92 926.00 1771.44L926.00 1771.44L926.00 1899.68Q926.00 1923.34 939.70 1933.30L939.70 1933.30Q952.15 1942.02 1033.08 1942.02L1033.08 1942.02Q1123.97 1942.02 1142.65 1932.06L1142.65 1932.06Q1161.33 1920.85 1163.82 1890.97L1163.82 1890.97Q1167.55 1844.90 1213.62 1844.90L1213.62 1844.90Q1263.43 1844.90 1263.43 1900.93L1263.43 1900.93Q1263.43 2004.27 1180.00 2022.95L1180.00 2022.95Q1126.46 2034.16 1014.40 2034.16L1014.40 2034.16ZM1091.60 1866.06Q1062.96 1866.06 1025.61 1798.83L1025.61 1798.83L1003.20 1760.23L1000.71 1747.78Q996.97 1729.10 1011.29 1719.14Q1025.61 1709.18 1050.51 1709.18L1050.51 1709.18Q1062.96 1709.18 1076.66 1719.76Q1090.36 1730.35 1109.03 1754.00L1109.03 1754.00Q1143.90 1797.58 1143.90 1818.75L1143.90 1818.75Q1143.90 1866.06 1091.60 1866.06L1091.60 1866.06ZM345.78 1222.34Q294.73 1222.34 294.73 1168.80L294.73 1168.80Q294.73 1136.43 350.76 1102.81L350.76 1102.81Q436.67 1050.51 500.17 990.75L500.17 990.75Q562.43 932.23 584.84 932.23L584.84 932.23Q639.62 932.23 639.62 985.77L639.62 985.77Q639.62 1023.12 510.13 1123.97L510.13 1123.97Q384.38 1222.34 345.78 1222.34L345.78 1222.34ZM695.65 1675.56Q639.62 1675.56 639.62 1631.98L639.62 1631.98Q639.62 1589.65 695.65 1589.65L695.65 1589.65L1369.26 1589.65Q1425.29 1589.65 1425.29 1633.23L1425.29 1633.23Q1425.29 1675.56 1369.26 1675.56L1369.26 1675.56L695.65 1675.56ZM807.71 1445.21L887.40 1445.21L887.40 1294.56L807.71 1294.56Q772.85 1294.56 772.85 1330.66L772.85 1330.66L772.85 1409.11Q772.85 1442.72 807.71 1445.21L807.71 1445.21ZM1377.98 1996.80Q1354.32 1996.80 1341.87 1980.62L1341.87 1980.62Q1330.66 1966.92 1307.01 1910.89L1307.01 1910.89L1274.63 1846.14Q1270.90 1837.43 1255.96 1808.17Q1241.02 1778.91 1241.02 1772.68L1241.02 1772.68Q1241.02 1735.33 1288.33 1735.33L1288.33 1735.33Q1324.44 1735.33 1376.73 1827.47L1376.73 1827.47Q1431.52 1923.34 1431.52 1945.75L1431.52 1945.75Q1431.52 1996.80 1377.98 1996.80L1377.98 1996.80ZM777.83 1527.39Q724.29 1527.39 700.01 1503.74Q675.73 1480.08 678.22 1427.78L678.22 1427.78L678.22 1310.74Q678.22 1257.20 701.88 1233.54Q725.54 1209.89 777.83 1212.38L777.83 1212.38L1285.84 1212.38Q1338.13 1212.38 1362.41 1236.04Q1386.69 1259.69 1384.20 1310.74L1384.20 1310.74L1384.20 1427.78Q1384.20 1481.32 1360.55 1506.23Q1336.89 1531.13 1285.84 1527.39L1285.84 1527.39L777.83 1527.39ZM968.33 1445.21L1086.62 1445.21L1086.62 1294.56L968.33 1294.56L968.33 1445.21ZM699.39 1133.94Q642.11 1133.94 642.11 1087.87L642.11 1087.87Q642.11 1041.80 699.39 1041.80L699.39 1041.80L989.50 1041.80L989.50 1133.94L699.39 1133.94ZM1254.71 1445.21Q1270.90 1445.21 1280.24 1435.88Q1289.58 1426.54 1289.58 1409.11L1289.58 1409.11L1289.58 1330.66Q1289.58 1297.05 1254.71 1294.56L1254.71 1294.56L1167.55 1294.56L1167.55 1445.21L1254.71 1445.21ZM968.33 973.32Q968.33 928.49 1019.38 928.49L1019.38 928.49Q1069.19 928.49 1069.19 973.32L1069.19 973.32L1069.19 1231.05L968.33 1231.05L968.33 973.32ZM1049.27 1133.94L1049.27 1041.80L1370.51 1041.80Q1427.78 1041.80 1427.78 1087.87L1427.78 1087.87Q1427.78 1133.94 1370.51 1133.94L1370.51 1133.94L1049.27 1133.94ZM2271.97 2057.81Q2207.23 2057.81 2207.23 2001.78L2207.23 2001.78Q2207.23 1947.00 2271.97 1947.00L2271.97 1947.00L2346.68 1947.00Q2377.81 1947.00 2392.75 1932.68Q2407.69 1918.36 2407.69 1887.23L2407.69 1887.23L2407.69 1406.62L2511.04 1406.62L2511.04 1918.36Q2516.02 1991.82 2482.40 2026.68Q2448.78 2061.55 2376.56 2057.81L2376.56 2057.81L2271.97 2057.81ZM1795.09 2069.02Q1767.70 2069.02 1755.25 2054.08Q1742.80 2039.14 1742.80 2005.52L1742.80 2005.52L1742.80 1475.10L1847.39 1353.08L1847.39 2005.52Q1847.39 2039.14 1834.94 2054.08Q1822.49 2069.02 1795.09 2069.02L1795.09 2069.02ZM1617.04 1635.72Q1592.14 1635.72 1580.93 1622.02Q1569.73 1608.33 1569.73 1580.93L1569.73 1580.93Q1569.73 1551.05 1617.04 1513.70L1617.04 1513.70Q1750.27 1410.35 1861.08 1248.49L1861.08 1248.49Q1885.99 1214.87 1913.38 1214.87L1913.38 1214.87Q1968.16 1214.87 1968.16 1260.94L1968.16 1260.94Q1968.16 1300.78 1823.73 1455.18L1823.73 1455.18Q1731.59 1554.79 1685.52 1595.25Q1639.45 1635.72 1617.04 1635.72L1617.04 1635.72ZM1623.27 1222.34Q1598.36 1222.34 1587.16 1209.27Q1575.95 1196.19 1575.95 1168.80L1575.95 1168.80Q1575.95 1138.92 1636.96 1106.54L1636.96 1106.54Q1721.63 1061.72 1831.20 970.83L1831.20 970.83Q1867.31 940.94 1884.74 940.94L1884.74 940.94Q1909.64 940.94 1923.96 954.02Q1938.28 967.09 1938.28 991.99L1938.28 991.99Q1938.28 1024.37 1803.81 1123.97L1803.81 1123.97Q1671.83 1222.34 1623.27 1222.34L1623.27 1222.34ZM2072.75 1434.01Q2012.99 1434.01 2012.99 1382.96L2012.99 1382.96Q2012.99 1333.15 2072.75 1333.15L2072.75 1333.15L2644.26 1333.15Q2706.52 1333.15 2706.52 1382.96L2706.52 1382.96Q2706.52 1434.01 2644.26 1434.01L2644.26 1434.01L2072.75 1434.01ZM2122.56 1094.09Q2095.17 1094.09 2080.85 1081.02Q2066.53 1067.94 2066.53 1043.04L2066.53 1043.04Q2066.53 1018.14 2080.85 1005.07Q2095.17 991.99 2122.56 991.99L2122.56 991.99L2610.64 991.99Q2666.67 991.99 2666.67 1043.04L2666.67 1043.04Q2666.67 1094.09 2610.64 1094.09L2610.64 1094.09L2122.56 1094.09Z"/>
  </svg>