<svg xmlns="http://www.w3.org/2000/svg" viewBox="0 0 3000 3000" width="3000" height="3000">
    <path fill="#000000" d="M2260 2351L2260 2351Q2298 2317 2298 2289Q2298 2261 2244 2217L2244 2217Q2202 2185 2162 2146Q2122 2107 2084 2067L2084 2067Q2038 2015 2010 2015L2010 2015Q1988 2015 1988 2036Q1988 2057 1997 2079Q2006 2101 2027 2140Q2048 2179 2090 2253L2090 2253Q2092 2257 2092 2259L2092 2259Q2092 2255 2071 2258Q2050 2261 2020 2262Q1990 2263 1970 2263L1970 2263Q1842 2263 1762 2233Q1682 2203 1637 2157Q1592 2111 1569 2062Q1546 2013 1534 1973L1534 1973Q1520 1939 1482 1939L1482 1939Q1438 1939 1421 1954Q1404 1969 1404 1985L1404 1985Q1404 2003 1421 2051Q1438 2099 1471 2157Q1504 2215 1558 2268Q1612 2321 1686 2353L1686 2353Q1752 2379 1834 2391Q1916 2403 1996 2403L1996 2403Q2060 2403 2136 2397Q2212 2391 2260 2351ZM1204 2295L1204 2295Q1296 2123 1324 2035Q1352 1947 1352 1937L1352 1937Q1352 1903 1317 1889Q1282 1875 1264 1875L1264 1875Q1234 1875 1224 1901L1224 1901Q1192 1991 1158 2067Q1124 2143 1078 2209L1078 2209Q1064 2227 1064 2243L1064 2243Q1064 2265 1099 2294Q1134 2323 1162 2323Q1190 2323 1204 2295ZM2368 2197L2368 2197Q2390 2197 2407 2177Q2424 2157 2434 2136Q2444 2115 2444 2105L2444 2105Q2444 2087 2415 2055Q2386 2023 2345 1986Q2304 1949 2262 1915Q2220 1881 2186 1858Q2152 1835 2138 1835L2138 1835Q2114 1835 2089 1860Q2064 1885 2064 1905Q2064 1925 2088 1943L2088 1943Q2156 1995 2216 2055Q2276 2115 2330 2177L2330 2177Q2350 2197 2368 2197ZM1852 2105L1852 2105Q1876 2105 1892 2086Q1908 2067 1918 2047Q1928 2027 1928 2021L1928 2021Q1928 1999 1889 1964Q1850 1929 1800 1893Q1750 1857 1709 1830Q1668 1803 1656 1803L1656 1803Q1632 1803 1608 1831Q1584 1859 1584 1876Q1584 1893 1604 1909L1604 1909Q1658 1949 1709 1990Q1760 2031 1812 2083L1812 2083Q1834 2105 1852 2105ZM1444 1799L1444 1799L2244 1761Q2294 1755 2294 1717L2294 1717Q2294 1689 2271 1665Q2248 1641 2220 1627Q2192 1613 2178 1613L2178 1613Q2168 1613 2160 1615Q2152 1617 2142 1621L2142 1621Q2104 1633 2077 1639Q2050 1645 2006 1647L2006 1647L1420 1675L1374 1675Q1348 1675 1327 1673Q1306 1671 1284 1665L1284 1665Q1276 1663 1266 1663L1266 1663Q1238 1663 1238 1689L1238 1689Q1238 1699 1253 1729Q1268 1759 1302 1789L1302 1789Q1320 1803 1358 1803L1358 1803Q1374 1803 1394 1802Q1414 1801 1444 1799ZM1538 1245L1552 1437L1396 1445L1374 1257L1538 1245ZM1672 1239L1822 1229L1810 1423L1684 1431L1672 1239ZM1960 1221L2118 1211L2092 1409L1944 1417L1960 1221ZM870 1719L870 1719L862 2127Q860 2191 858 2240Q856 2289 852 2321L852 2321Q850 2329 850 2336Q850 2343 850 2347L850 2347Q850 2385 878 2406Q906 2427 934 2437Q962 2447 968 2447L968 2447Q1004 2447 1004 2399L1004 2399L1006 1537Q1048 1475 1091 1410Q1134 1345 1163 1295Q1192 1245 1192 1233L1192 1233Q1192 1213 1171 1187Q1150 1161 1121 1139Q1092 1117 1066 1117L1066 1117Q1034 1117 1034 1161L1034 1161Q1034 1197 1001 1266Q968 1335 915 1420Q862 1505 802 1590Q742 1675 687 1747Q632 1819 598 1859L598 1859Q554 1909 554 1939L554 1939Q554 1963 578 1963L578 1963Q604 1963 641 1936Q678 1909 719 1870Q760 1831 797 1791Q834 1751 861 1722Q888 1693 870 1719ZM1186 789L1186 789Q1194 777 1194 763L1194 763Q1194 741 1171 715Q1148 689 1120 668Q1092 647 1070 647L1070 647Q1038 647 1036 691L1036 691Q1030 731 1016 759L1016 759Q950 873 863 988Q776 1103 666 1223L666 1223Q618 1273 618 1297L618 1297Q618 1319 640 1319L640 1319Q656 1319 730 1274Q804 1229 922 1115Q1040 1001 1186 789ZM1414 1587L1412 1565L2226 1523Q2248 1521 2265 1517Q2282 1513 2282 1496Q2282 1479 2267 1460Q2252 1441 2224 1415L2224 1415L2270 1213Q2272 1203 2278 1192Q2284 1181 2284 1167L2284 1167Q2284 1139 2250 1113Q2216 1087 2184 1087L2184 1087Q2178 1087 2171 1088Q2164 1089 2156 1089L2156 1089L1792 1113L1796 997L2204 971Q2222 969 2239 956Q2256 943 2256 923L2256 923Q2256 895 2215 864Q2174 833 2134 833L2134 833Q2114 833 2089 843Q2064 853 2039 859Q2014 865 1980 867L1980 867L1800 879Q1802 827 1804 779L1804 779L1804 733Q1804 705 1790 685Q1776 665 1730 651L1730 651Q1706 645 1688 641Q1670 637 1658 637L1658 637Q1630 637 1630 659L1630 659Q1630 669 1638 685L1638 685Q1652 709 1656 734Q1660 759 1660 793L1660 793L1660 823Q1660 853 1658 885L1658 885L1412 901Q1398 903 1383 903Q1368 903 1354 903L1354 903Q1326 903 1305 900Q1284 897 1262 893L1262 893Q1256 891 1246 891L1246 891Q1222 891 1222 913L1222 913Q1222 923 1237 951Q1252 979 1280 1003L1280 1003Q1308 1023 1358 1023L1358 1023Q1374 1023 1395 1022Q1416 1021 1446 1019L1446 1019L1656 1005Q1654 1047 1652 1089L1652 1089L1652 1119L1358 1139Q1250 1099 1220 1099L1220 1099Q1192 1099 1192 1117Q1192 1135 1208 1159L1208 1159Q1222 1181 1228 1204Q1234 1227 1238 1257L1238 1257L1262 1431Q1266 1447 1266 1460Q1266 1473 1266 1487L1266 1487Q1266 1499 1266 1511Q1266 1523 1264 1537L1264 1537L1264 1551Q1264 1597 1301 1620Q1338 1643 1372 1643L1372 1643Q1396 1643 1405 1629Q1414 1615 1414 1597L1414 1597L1414 1587Z"/>
  </svg>