<svg xmlns="http://www.w3.org/2000/svg" viewBox="0 0 3000 3000" width="3000" height="3000">
    <path fill="#000000" d="M425.17 1167.86L425.17 1167.86Q436.65 1167.86 448.12 1166.59L448.12 1166.59Q440.47 1169.14 432.82 1174.24L432.82 1174.24Q408.60 1186.99 408.60 1203.56L408.60 1203.56Q408.60 1212.49 418.80 1225.24L418.80 1225.24Q449.40 1262.21 480.00 1314.49L480.00 1314.49Q488.92 1328.51 499.12 1334.89L499.12 1334.89Q347.40 1342.54 335.92 1342.54L335.92 1342.54Q315.52 1342.54 284.92 1337.44L284.92 1337.44Q268.35 1337.44 268.35 1352.74L268.35 1352.74Q268.35 1378.24 298.95 1406.29L298.95 1406.29Q311.70 1419.04 360.15 1419.04L360.15 1419.04L848.47 1397.36Q884.17 1393.54 884.17 1374.41L884.17 1374.41Q884.17 1366.76 875.89 1351.46Q867.60 1336.16 853.57 1324.05Q839.55 1311.94 822.97 1311.94L822.97 1311.94Q814.05 1311.94 801.30 1315.76L801.30 1315.76Q779.62 1323.41 760.50 1323.41L760.50 1323.41L699.30 1325.96Q775.80 1217.59 775.80 1203.56L775.80 1203.56Q775.80 1186.99 747.75 1166.59L747.75 1166.59Q735.00 1156.39 723.52 1151.29L723.52 1151.29Q845.92 1144.91 852.30 1142.36L852.30 1142.36Q865.05 1138.54 865.05 1125.79L865.05 1125.79Q865.05 1110.49 844.01 1088.17Q822.97 1065.86 800.02 1065.86L800.02 1065.86Q792.37 1065.86 780.90 1068.41L780.90 1068.41Q760.50 1074.79 404.77 1092.64L404.77 1092.64Q374.17 1092.64 342.30 1086.26L342.30 1086.26Q325.72 1086.26 325.72 1101.56L325.72 1101.56Q325.72 1114.31 336.56 1130.89Q347.40 1147.46 360.79 1157.66Q374.17 1167.86 425.17 1167.86ZM1167.22 2062.91L1167.22 2062.91Q1265.40 2062.91 1332.34 2055.90Q1399.27 2048.89 1428.60 2024.03Q1457.92 1999.16 1463.02 1950.71L1463.02 1950.71Q1471.95 1853.81 1471.95 1781.14L1471.95 1781.14Q1470.67 1716.11 1445.17 1716.11L1445.17 1716.11Q1420.95 1716.11 1412.02 1776.04L1412.02 1776.04Q1391.63 1927.76 1366.13 1946.89L1366.13 1946.89Q1330.42 1971.11 1159.57 1971.11L1159.57 1971.11Q1075.42 1971.11 1044.19 1968.56Q1012.95 1966.01 1004.02 1957.09Q995.10 1948.16 995.10 1922.66L995.10 1922.66L995.10 1876.76L1313.85 1864.01Q1348.27 1860.19 1348.27 1841.06Q1348.27 1821.94 1324.69 1802.18Q1301.10 1782.41 1290.90 1782.41Q1280.70 1782.41 1266.04 1786.88Q1251.37 1791.34 995.10 1801.54L995.10 1801.54L996.37 1736.51L1294.72 1723.76Q1332.97 1721.21 1332.97 1700.81L1332.97 1700.81Q1332.97 1691.89 1322.14 1678.50Q1311.30 1665.11 1297.27 1654.28Q1283.25 1643.44 1273.05 1643.44Q1262.85 1643.44 1250.10 1647.90Q1237.35 1652.36 996.37 1663.84L996.37 1663.84L996.37 1600.09L1297.27 1586.06Q1335.52 1583.51 1335.52 1564.39L1335.52 1564.39Q1335.52 1550.36 1315.13 1528.05Q1294.72 1505.74 1271.77 1505.74L1271.77 1505.74Q1266.67 1505.74 1251.37 1510.20Q1236.07 1514.66 997.65 1526.14L997.65 1526.14L997.65 1453.46Q1298.55 1440.71 1315.76 1437.53Q1332.97 1434.34 1332.97 1417.76L1332.97 1417.76Q1332.97 1405.01 1304.92 1373.14L1304.92 1373.14Q1327.88 1268.59 1333.61 1261.58Q1339.35 1254.56 1339.35 1240.54Q1339.35 1226.51 1318.95 1210.58Q1298.55 1194.64 1279.42 1194.64L1279.42 1194.64L1005.30 1209.94L1007.85 1134.71L1329.15 1116.86Q1366.13 1114.31 1366.13 1093.91L1366.13 1093.91Q1366.13 1069.69 1340.63 1050.56Q1315.13 1031.44 1302.37 1031.44L1302.37 1031.44Q1290.90 1031.44 1279.42 1035.90Q1267.95 1040.36 1010.40 1058.21L1010.40 1058.21L1014.22 971.51Q1014.22 949.84 997.65 938.36L997.65 938.36Q969.60 917.96 933.90 917.96L933.90 917.96Q891.82 917.96 891.82 934.54L891.82 934.54Q891.82 939.64 896.92 947.29L896.92 947.29Q914.77 968.96 914.77 1002.11L914.77 1002.11Q909.67 1234.16 907.12 1254.56L907.12 1254.56Q907.12 1271.14 926.89 1281.97Q946.65 1292.81 961.95 1292.81L961.95 1292.81Q974.70 1292.81 986.17 1290.26Q997.65 1287.71 1228.42 1277.51L1228.42 1277.51L1213.13 1365.49L991.27 1375.69Q928.80 1350.19 912.22 1350.19L912.22 1350.19Q888.00 1350.19 888.00 1362.94L888.00 1362.94Q888.00 1369.31 895.01 1382.70Q902.02 1396.09 902.02 1434.34L902.02 1434.34L900.75 1940.51Q900.75 2051.44 1004.02 2059.09L1004.02 2059.09Q1067.77 2062.91 1167.22 2062.91ZM384.37 2038.69L384.37 2038.69Q384.37 2050.16 406.69 2069.93Q429.00 2089.69 457.05 2089.69Q485.10 2089.69 485.10 2051.44L485.10 2051.44L488.92 1838.51L712.05 1830.86L712.05 1982.59Q658.50 1964.74 613.24 1943.06Q567.97 1921.39 555.22 1921.39L555.22 1921.39Q536.10 1921.39 536.10 1937.96L536.10 1937.96Q536.10 1950.71 559.05 1973.66L559.05 1973.66Q622.80 2037.41 698.02 2076.94L698.02 2076.94Q713.32 2087.14 737.55 2087.14Q761.77 2087.14 783.45 2066.74Q805.12 2046.34 805.12 2018.29L805.12 2018.29Q803.85 1977.49 802.57 1533.79L802.57 1533.79L808.95 1503.19Q808.95 1456.01 737.55 1456.01L737.55 1456.01L491.47 1467.49Q425.17 1440.71 411.15 1440.71L411.15 1440.71Q389.47 1440.71 389.47 1453.46L389.47 1453.46Q389.47 1461.11 396.49 1482.79Q403.50 1504.46 403.50 1538.89L403.50 1538.89Q392.02 1995.34 386.92 2018.29L386.92 2018.29Q384.37 2029.76 384.37 2038.69ZM712.05 1603.91L491.47 1614.11L492.75 1543.99L710.77 1533.79L712.05 1603.91ZM712.05 1755.64L488.92 1764.56L490.20 1685.51L712.05 1676.59L712.05 1755.64ZM678.90 1062.04L678.90 1062.04Q699.30 1062.04 709.50 1035.26L709.50 1035.26Q715.87 1023.79 715.87 1012.31L715.87 1012.31Q715.87 997.01 694.20 984.26Q672.52 971.51 644.47 960.04Q616.42 948.56 587.10 940.28Q557.77 931.99 538.01 927.53Q518.25 923.06 515.70 923.06L515.70 923.06Q502.95 923.06 488.92 941.55Q474.90 960.04 474.90 971.51L474.90 971.51Q474.90 990.64 504.22 998.29L504.22 998.29Q566.70 1016.14 640.65 1049.29L640.65 1049.29Q666.15 1062.04 678.90 1062.04ZM463.42 1165.31L463.42 1165.31Q599.85 1158.94 689.10 1153.84L689.10 1153.84Q685.27 1158.94 684.00 1167.86L684.00 1167.86Q681.45 1220.14 608.77 1329.79L608.77 1329.79Q571.80 1331.06 539.92 1333.61L539.92 1333.61Q545.02 1329.79 550.12 1325.96L550.12 1325.96Q567.97 1311.94 567.97 1297.91L567.97 1297.91Q567.97 1290.26 546.30 1255.84Q524.62 1221.41 500.40 1193.36L500.40 1193.36Q478.72 1169.14 463.42 1165.31ZM2112 1879.31L2112 1879.31L2112 1872.94Q2112 1853.81 2095.43 1846.80Q2078.85 1839.79 2059.72 1839.79L2059.72 1839.79Q2038.05 1839.79 2032.95 1865.29L2032.95 1865.29Q2022.75 1906.09 2010.64 1939.88Q1998.53 1973.66 1978.13 2006.81L1978.13 2006.81Q1975.58 2010.64 1974.94 2013.83Q1974.30 2017.01 1974.30 2020.84L1974.30 2020.84Q1974.30 2036.14 1988.33 2045.06Q2002.35 2053.99 2015.10 2059.09L2015.10 2059.09L2027.85 2062.91Q2052.07 2062.91 2073.75 2008.73Q2095.43 1954.54 2112 1879.31ZM2256.07 1988.96L2256.07 1988.96Q2256.07 1985.14 2250.34 1955.18Q2244.60 1925.21 2219.10 1861.46L2219.10 1861.46Q2214 1851.26 2209.54 1844.89Q2205.07 1838.51 2191.05 1838.51L2191.05 1838.51Q2180.85 1838.51 2171.93 1839.79L2171.93 1839.79Q2182.13 1832.14 2182.13 1810.46L2182.13 1810.46L2182.13 1805.36L2410.35 1795.16Q2407.80 1796.44 2402.70 1798.99L2402.70 1798.99Q2387.40 1809.19 2387.40 1820.66L2387.40 1820.66Q2387.40 1827.04 2390.59 1831.50Q2393.78 1835.96 2396.32 1839.79L2396.32 1839.79Q2410.35 1860.19 2422.46 1879.31Q2434.57 1898.44 2444.78 1920.11L2444.78 1920.11Q2453.70 1939.24 2467.73 1939.24Q2481.75 1939.24 2498.33 1925.85Q2514.90 1912.46 2514.90 1899.71L2514.90 1899.71Q2514.90 1890.79 2504.70 1874.21Q2494.50 1857.64 2481.11 1837.88Q2467.73 1818.11 2453.70 1802.81L2453.70 1802.81Q2447.32 1796.44 2440.95 1792.61L2440.95 1792.61L2559.53 1787.51Q2555.70 1844.89 2545.50 1909.91L2545.50 1909.91Q2535.30 1974.94 2517.45 2013.19L2517.45 2013.19Q2517.45 2013.19 2513.63 2013.19L2513.63 2013.19Q2491.95 2008.09 2467.09 1997.89Q2442.23 1987.69 2416.73 1973.66L2416.73 1973.66Q2395.05 1960.91 2381.03 1960.91L2381.03 1960.91Q2374.65 1960.91 2370.82 1962.19L2370.82 1962.19Q2386.13 1953.26 2386.13 1937.96L2386.13 1937.96L2379.75 1917.56Q2370.82 1898.44 2359.35 1875.49Q2347.88 1852.54 2335.13 1832.78Q2322.38 1813.01 2308.35 1813.01L2308.35 1813.01Q2293.05 1813.01 2278.39 1824.49Q2263.73 1835.96 2263.73 1846.16L2263.73 1846.16Q2263.73 1857.64 2270.10 1865.29L2270.10 1865.29Q2293.05 1904.81 2309.63 1957.09L2309.63 1957.09Q2312.18 1960.91 2317.28 1969.20Q2322.38 1977.49 2332.57 1977.49Q2342.78 1977.49 2364.45 1966.01L2364.45 1966.01Q2367 1966.01 2368.28 1964.74L2368.28 1964.74Q2364.45 1967.29 2364.45 1974.94L2364.45 1974.94Q2364.45 1988.96 2383.57 2011.28Q2402.70 2033.59 2430.11 2055.90Q2457.53 2078.21 2484.30 2094.79Q2511.08 2111.36 2530.20 2111.36L2530.20 2111.36Q2537.85 2111.36 2555.70 2102.44Q2573.55 2093.51 2592.04 2064.19Q2610.53 2034.86 2620.73 1977.49L2620.73 1977.49Q2627.10 1939.24 2634.11 1892.06Q2641.13 1844.89 2646.23 1788.79L2646.23 1788.79Q2647.50 1783.69 2650.69 1774.76Q2653.88 1765.84 2653.88 1756.91L2653.88 1756.91Q2653.88 1733.96 2631.56 1723.76Q2609.25 1713.56 2600.32 1713.56Q2591.40 1713.56 2586.30 1714.84L2586.30 1714.84L2374.65 1727.59L2375.93 1686.79L2518.73 1679.14Q2550.60 1675.31 2550.60 1657.46L2550.60 1657.46Q2550.60 1643.44 2528.93 1624.95Q2507.25 1606.46 2490.68 1606.46L2490.68 1606.46Q2486.85 1606.46 2477.93 1609.01L2477.93 1609.01Q2456.25 1617.94 2432.03 1620.49L2432.03 1620.49L2375.93 1624.31L2375.93 1588.61L2514.90 1580.96Q2526.38 1579.69 2535.30 1575.86Q2544.23 1572.04 2544.23 1560.56L2544.23 1560.56Q2544.23 1546.54 2523.19 1528.69Q2502.15 1510.84 2485.58 1510.84L2485.58 1510.84Q2481.75 1510.84 2478.56 1511.47Q2475.38 1512.11 2471.55 1514.66L2471.55 1514.66Q2453.70 1522.31 2426.93 1523.59L2426.93 1523.59L2375.93 1526.14L2377.20 1485.34L2505.98 1478.96Q2530.20 1478.96 2530.20 1461.11L2530.20 1461.11Q2530.20 1454.74 2546.78 1487.89L2546.78 1487.89Q2556.98 1498.09 2602.88 1531.88Q2648.78 1565.66 2697.23 1594.99L2697.23 1594.99Q2704.88 1600.09 2712.53 1600.09L2712.53 1600.09Q2722.73 1600.09 2736.11 1591.80Q2749.50 1583.51 2772.45 1560.56L2772.45 1560.56Q2778.82 1554.19 2778.82 1547.81L2778.82 1547.81Q2778.82 1532.51 2759.70 1524.86L2759.70 1524.86Q2687.03 1487.89 2624.55 1444.54Q2562.07 1401.19 2525.10 1359.11L2525.10 1359.11L2692.13 1350.19L2695.95 1350.19Q2722.73 1346.36 2722.73 1328.51L2722.73 1328.51Q2722.73 1315.76 2711.25 1301.74Q2699.78 1287.71 2684.48 1276.88Q2669.18 1266.04 2655.15 1266.04L2655.15 1266.04Q2647.50 1266.04 2636.03 1269.86L2636.03 1269.86Q2614.35 1277.51 2578.65 1280.06L2578.65 1280.06L2467.73 1287.71Q2446.05 1257.11 2430.75 1229.06L2430.75 1229.06L2494.50 1223.96Q2523.83 1220.14 2523.83 1205.47Q2523.83 1190.81 2510.44 1176.79Q2497.05 1162.76 2481.11 1152.56Q2465.18 1142.36 2456.89 1142.36Q2448.60 1142.36 2444.78 1143.64L2444.78 1143.64Q2430.75 1148.74 2414.18 1151.29Q2397.60 1153.84 2378.48 1156.39L2378.48 1156.39L2327.48 1161.49Q2351.70 1084.99 2367 981.71L2367 981.71L2367 975.34Q2367 953.66 2347.88 944.10Q2328.75 934.54 2308.99 930.71Q2289.23 926.89 2279.03 926.89L2279.03 926.89Q2258.63 926.89 2258.63 943.46L2258.63 943.46Q2258.63 947.29 2259.26 950.47Q2259.90 953.66 2261.18 957.49L2261.18 957.49Q2266.28 968.96 2267.55 979.80Q2268.82 990.64 2268.82 1000.84L2268.82 1000.84Q2268.82 1019.96 2263.73 1050.56Q2258.63 1081.16 2250.34 1113.67Q2242.05 1146.19 2235.68 1166.59L2235.68 1166.59L2189.78 1170.41L2170.65 1170.41Q2142.60 1170.41 2118.38 1167.86L2118.38 1167.86Q2128.57 1157.66 2137.50 1147.46L2137.50 1147.46Q2161.72 1120.69 2177.66 1097.74Q2193.60 1074.79 2193.60 1062.04L2193.60 1062.04Q2193.60 1041.64 2165.55 1023.79L2165.55 1023.79Q2156.63 1016.14 2145.15 1009.13Q2133.68 1002.11 2122.20 1002.11Q2110.72 1002.11 2110.72 1018.69L2110.72 1018.69L2110.72 1025.06Q2110.72 1050.56 2092.24 1085.63Q2073.75 1120.69 2048.25 1153.84Q2022.75 1186.99 2003.63 1208.66L2003.63 1208.66Q1984.50 1232.89 1984.50 1243.09L1984.50 1243.09Q1984.50 1255.84 1998.53 1255.84L1998.53 1255.84Q2013.83 1255.84 2037.41 1239.26Q2061 1222.69 2086.50 1198.46L2086.50 1198.46Q2090.32 1194.64 2094.15 1190.81L2094.15 1190.81Q2109.45 1243.09 2163 1243.09L2163 1243.09Q2169.38 1243.09 2177.66 1243.09Q2185.95 1243.09 2196.15 1241.81L2196.15 1241.81L2206.35 1241.81Q2202.53 1249.46 2192.32 1268.59Q2182.13 1287.71 2173.20 1303.01L2173.20 1303.01L2040.60 1309.39L2022.75 1309.39Q2007.45 1309.39 1994.70 1308.11Q1981.95 1306.84 1966.65 1301.74L1966.65 1301.74Q1965.38 1301.74 1964.10 1301.10Q1962.83 1300.46 1959 1300.46L1959 1300.46Q1950.08 1300.46 1948.80 1306.84L1948.80 1306.84L1948.80 1120.69Q1948.80 1115.59 1952.63 1106.03Q1956.45 1096.46 1956.45 1086.26L1956.45 1086.26Q1956.45 1064.59 1943.70 1053.75Q1930.95 1042.91 1918.20 1038.45Q1905.45 1033.99 1901.63 1033.99L1901.63 1033.99Q1896.53 1033.99 1890.79 1034.63Q1885.05 1035.26 1877.40 1035.26L1877.40 1035.26L1740.97 1044.19Q1667.03 1013.59 1649.17 1013.59L1649.17 1013.59Q1632.60 1013.59 1632.60 1027.61L1632.60 1027.61Q1632.60 1031.44 1635.79 1037.17Q1638.97 1042.91 1641.53 1049.29L1641.53 1049.29Q1642.80 1054.39 1645.99 1065.86Q1649.17 1077.34 1652.36 1103.47Q1655.55 1129.61 1657.46 1178.06Q1659.38 1226.51 1659.38 1306.84L1659.38 1306.84Q1659.38 1426.69 1654.28 1521.68Q1649.17 1616.66 1637.06 1697.63Q1624.95 1778.59 1603.91 1855.73Q1582.88 1932.86 1549.72 2018.29L1549.72 2018.29Q1542.08 2039.96 1542.08 2055.90Q1542.08 2071.84 1556.10 2071.84L1556.10 2071.84Q1567.58 2071.84 1591.16 2041.88Q1614.75 2011.91 1642.80 1955.81Q1670.85 1899.71 1695.08 1818.11Q1719.30 1736.51 1730.78 1631.96L1730.78 1631.96L1737.15 1563.11Q1752.45 1582.24 1769.03 1606.46L1769.03 1606.46Q1788.15 1633.24 1799.63 1654.91L1799.63 1654.91Q1806 1665.11 1811.74 1672.13Q1817.47 1679.14 1827.67 1679.14Q1837.88 1679.14 1854.45 1666.39L1854.45 1666.39Q1865.92 1658.74 1859.55 1668.94L1859.55 1668.94L1857 1959.64Q1837.88 1951.99 1812.38 1939.24Q1786.88 1926.49 1761.38 1909.91L1761.38 1909.91Q1748.63 1900.99 1737.79 1897.16Q1726.95 1893.34 1719.30 1893.34L1719.30 1893.34Q1702.72 1893.34 1702.72 1908.64L1702.72 1908.64Q1702.72 1921.39 1723.76 1947.53Q1744.80 1973.66 1773.49 2001.71Q1802.17 2029.76 1830.86 2049.53Q1859.55 2069.29 1878.67 2069.29L1878.67 2069.29Q1902.90 2069.29 1925.85 2048.89Q1948.80 2028.49 1948.80 1988.96L1948.80 1988.96Q1948.80 1977.49 1948.16 1964.74Q1947.53 1951.99 1947.53 1936.69L1947.53 1936.69L1947.53 1616.66Q1953.90 1616.66 1984.50 1598.18Q2015.10 1579.69 2052.07 1552.91L2052.07 1552.91Q2087.78 1527.41 2106.90 1508.29L2106.90 1508.29L2106.90 1523.59L2104.35 1713.56Q2104.35 1733.96 2103.71 1749.90Q2103.07 1765.84 2100.53 1784.96L2100.53 1784.96Q2100.53 1786.24 2099.89 1789.43Q2099.25 1792.61 2099.25 1796.44L2099.25 1796.44Q2099.25 1811.74 2112 1822.58Q2124.75 1833.41 2137.50 1839.15Q2150.25 1844.89 2156.63 1844.89L2156.63 1844.89Q2156.63 1844.89 2157.90 1844.89L2157.90 1844.89Q2154.07 1847.44 2152.80 1851.26L2152.80 1851.26Q2146.43 1862.74 2146.43 1866.56L2146.43 1866.56Q2146.43 1871.66 2147.06 1874.85Q2147.70 1878.04 2148.97 1884.41L2148.97 1884.41Q2157.90 1912.46 2163 1937.33Q2168.10 1962.19 2173.20 1994.06L2173.20 1994.06Q2178.30 2022.11 2199.97 2022.11L2199.97 2022.11Q2211.45 2022.11 2233.76 2014.46Q2256.07 2006.81 2256.07 1988.96ZM2182.13 1696.99L2296.88 1690.61L2295.60 1730.14L2182.13 1737.79L2182.13 1696.99ZM2183.40 1597.54L2298.15 1591.16L2298.15 1626.86L2183.40 1634.51L2183.40 1597.54ZM2183.40 1495.54L2300.70 1489.16L2299.43 1528.69L2183.40 1535.06L2183.40 1495.54ZM2226.75 1374.41L2226.75 1374.41L2426.93 1364.21Q2449.88 1392.26 2448.60 1389.71L2448.60 1389.71Q2480.48 1406.29 2472.82 1406.29L2472.82 1406.29Q2466.45 1406.29 2461.35 1407.56L2461.35 1407.56Q2439.68 1417.76 2406.53 1419.04L2406.53 1419.04L2182.13 1430.51Q2189.78 1422.86 2203.16 1405.65Q2216.55 1388.44 2226.75 1374.41ZM1860.83 1425.41L1860.83 1425.41L1859.55 1588.61L1868.47 1602.64Q1863.38 1594.99 1850.63 1577.14Q1837.88 1559.29 1821.94 1540.80Q1806 1522.31 1790.06 1508.29Q1774.13 1494.26 1763.92 1494.26L1763.92 1494.26Q1760.10 1494.26 1749.26 1498.09Q1738.42 1501.91 1740.97 1499.36L1740.97 1499.36Q1742.25 1466.21 1743.53 1411.39L1743.53 1411.39Q1744.80 1357.84 1746.08 1328.51L1746.08 1328.51Q1758.83 1345.09 1772.85 1364.21L1772.85 1364.21Q1791.97 1392.26 1804.09 1415.85Q1816.20 1439.44 1830.22 1439.44L1830.22 1439.44Q1842.97 1439.44 1855.72 1427.96Q1868.47 1416.49 1860.83 1425.41ZM2300.70 1236.71L2300.70 1236.71L2344.05 1234.16Q2351.70 1248.19 2361.90 1266.68Q2372.10 1285.16 2375.93 1292.81L2375.93 1292.81L2272.65 1296.64Q2275.20 1291.54 2284.13 1271.78Q2293.05 1252.01 2300.70 1236.71ZM1747.35 1125.79L1862.10 1118.14L1860.83 1343.81L1872.30 1361.66Q1836.60 1310.66 1816.20 1288.35Q1795.80 1266.04 1786.24 1259.66Q1776.67 1253.29 1769.03 1253.29L1769.03 1253.29Q1760.10 1253.29 1744.80 1262.21L1744.80 1262.21L1746.08 1260.94Q1747.35 1220.14 1747.35 1178.06Q1747.35 1135.99 1747.35 1125.79L1747.35 1125.79ZM2576.10 1225.24L2576.10 1225.24Q2590.13 1225.24 2606.70 1206.11Q2623.28 1186.99 2623.28 1175.51L2623.28 1175.51Q2623.28 1165.31 2604.15 1146.19Q2585.03 1127.06 2558.89 1103.47Q2532.75 1079.89 2505.34 1058.85Q2477.93 1037.81 2458.80 1023.79L2458.80 1023.79Q2449.88 1017.41 2437.13 1017.41L2437.13 1017.41Q2418 1017.41 2405.89 1033.35Q2393.78 1049.29 2393.78 1055.66L2393.78 1055.66Q2393.78 1065.86 2405.25 1076.06L2405.25 1076.06Q2439.68 1104.11 2483.03 1142.36Q2526.38 1180.61 2553.15 1211.21L2553.15 1211.21Q2558.25 1216.31 2563.35 1220.78Q2568.45 1225.24 2576.10 1225.24ZM1947.53 1565.66L1947.53 1565.66L1948.80 1319.59Q1948.80 1320.86 1948.80 1322.14L1948.80 1322.14Q1962.83 1361.66 1985.78 1371.86Q2008.73 1382.06 2029.13 1382.06L2029.13 1382.06L2043.15 1382.06L2124.75 1378.24Q2058.45 1475.14 1947.53 1565.66Z"/>
  </svg>