<svg xmlns="http://www.w3.org/2000/svg" viewBox="0 0 3000 3000" width="3000" height="3000">
    <path fill="#000000" d="M1193.70 2046.61Q1051.76 2046.61 988.26 2039.14L988.26 2039.14Q952.15 2035.40 931.60 2011.74Q911.06 1988.09 911.06 1944.51L911.06 1944.51L911.06 1468.87Q911.06 1374.24 1006.93 1374.24L1006.93 1374.24L1260.94 1374.24Q1278.37 1374.24 1285.84 1363.66Q1293.31 1353.08 1293.31 1329.42L1293.31 1329.42Q1293.31 1307.01 1285.84 1297.67Q1278.37 1288.33 1260.94 1287.08L1260.94 1287.08L1006.93 1287.08Q911.06 1287.08 911.06 1191.21L911.06 1191.21L911.06 974.56Q911.06 930.98 958.37 930.98L958.37 930.98Q1006.93 930.98 1006.93 974.56L1006.93 974.56L1006.93 1170.04Q1006.93 1203.66 1044.29 1206.15L1044.29 1206.15L1294.56 1206.15Q1340.63 1206.15 1364.90 1229.81Q1389.18 1253.47 1389.18 1299.54L1389.18 1299.54L1389.18 1360.55Q1389.18 1406.62 1366.15 1430.90Q1343.12 1455.18 1297.05 1455.18L1297.05 1455.18L1041.80 1455.18Q1005.69 1455.18 1004.44 1492.53L1004.44 1492.53L1004.44 1513.70L1334.40 1513.70Q1375.49 1513.70 1375.49 1549.80L1375.49 1549.80Q1375.49 1585.91 1334.40 1585.91L1334.40 1585.91L1004.44 1585.91L1004.44 1649.41L1334.40 1649.41Q1375.49 1649.41 1375.49 1685.52L1375.49 1685.52Q1375.49 1721.63 1334.40 1721.63L1334.40 1721.63L1004.44 1721.63L1004.44 1788.87L1334.40 1788.87Q1375.49 1788.87 1375.49 1824.98L1375.49 1824.98Q1375.49 1861.08 1334.40 1861.08L1334.40 1861.08L1004.44 1861.08L1004.44 1913.38Q1004.44 1935.79 1010.67 1943.88Q1016.89 1951.98 1035.57 1954.47L1035.57 1954.47Q1067.94 1958.20 1131.45 1958.20L1131.45 1958.20L1188.72 1958.20Q1294.56 1955.71 1318.21 1950.73L1318.21 1950.73Q1330.66 1948.24 1334.40 1939.53Q1338.13 1930.81 1338.13 1908.40L1338.13 1908.40Q1338.13 1884.74 1349.34 1874.16Q1360.55 1863.57 1382.96 1863.57L1382.96 1863.57Q1429.03 1863.57 1429.03 1907.15L1429.03 1907.15Q1429.03 1984.35 1399.15 2014.23L1399.15 2014.23Q1366.77 2046.61 1193.70 2046.61L1193.70 2046.61ZM408.03 2070.26Q361.96 2070.26 361.96 2014.23L361.96 2014.23L361.96 1528.64Q361.96 1430.27 459.08 1430.27L459.08 1430.27L726.78 1430.27Q823.90 1430.27 823.90 1528.64L823.90 1528.64L823.90 1949.49Q823.90 2010.50 796.51 2037.89Q769.12 2065.28 706.86 2065.28L706.86 2065.28L649.58 2065.28Q596.04 2065.28 596.04 2019.21L596.04 2019.21Q596.04 1971.90 649.58 1971.90L649.58 1971.90L689.43 1971.90Q729.27 1971.90 730.52 1930.81L730.52 1930.81L730.52 1836.18L455.35 1836.18L455.35 2014.23Q455.35 2070.26 408.03 2070.26L408.03 2070.26ZM455.35 1755.25L730.52 1755.25L730.52 1673.07L455.35 1673.07L455.35 1755.25ZM455.35 1592.14L730.52 1592.14L730.52 1548.56Q730.52 1513.70 694.41 1512.45L694.41 1512.45L492.70 1512.45Q457.84 1512.45 455.35 1548.56L455.35 1548.56L455.35 1592.14ZM521.34 1287.08L667.02 1287.08L693.16 1127.71L485.23 1127.71Q503.91 1184.99 520.09 1284.59L520.09 1284.59L521.34 1287.08ZM340.80 1375.49Q292.24 1375.49 292.24 1331.91L292.24 1331.91Q292.24 1287.08 340.80 1287.08L340.80 1287.08L425.46 1287.08Q411.77 1197.44 389.36 1131.45L389.36 1131.45L388.11 1127.71L350.76 1127.71Q303.44 1127.71 303.44 1082.89L303.44 1082.89Q303.44 1039.31 350.76 1039.31L350.76 1039.31L542.50 1039.31L542.50 979.54Q542.50 930.98 593.55 930.98L593.55 930.98Q647.09 930.98 647.09 979.54L647.09 979.54L647.09 1039.31L833.86 1039.31Q882.42 1039.31 882.42 1084.13L882.42 1084.13Q882.42 1127.71 833.86 1127.71L833.86 1127.71L789.04 1127.71L754.17 1287.08L852.54 1287.08Q901.10 1287.08 901.10 1331.91L901.10 1331.91Q901.10 1375.49 852.54 1375.49L852.54 1375.49L340.80 1375.49ZM988.26 1118.99L988.26 1030.59L1355.57 1030.59Q1402.88 1030.59 1402.88 1075.42L1402.88 1075.42Q1402.88 1118.99 1355.57 1118.99L1355.57 1118.99L988.26 1118.99ZM1991.82 1558.52Q1949.49 1558.52 1949.49 1513.70L1949.49 1513.70Q1949.49 1501.25 1958.83 1488.79Q1968.16 1476.34 1984.35 1466.38L1984.35 1466.38Q2061.55 1420.31 2118.82 1335.64L2118.82 1335.64L2005.52 1335.64Q1959.45 1335.64 1959.45 1297.05L1959.45 1297.05Q1959.45 1258.45 2005.52 1258.45L2005.52 1258.45L2164.89 1258.45L2197.27 1183.74L2037.89 1183.74Q1994.31 1183.74 1994.31 1145.14L1994.31 1145.14Q1994.31 1106.54 2037.89 1106.54L2037.89 1106.54L2223.41 1106.54Q2239.60 1050.51 2250.81 979.54L2250.81 979.54Q2258.28 929.74 2301.86 929.74L2301.86 929.74Q2350.42 929.74 2350.42 969.58L2350.42 969.58Q2350.42 1001.95 2314.31 1106.54L2314.31 1106.54L2605.66 1106.54Q2651.73 1106.54 2651.73 1145.14L2651.73 1145.14Q2651.73 1183.74 2605.66 1183.74L2605.66 1183.74L2441.31 1183.74Q2457.50 1229.81 2472.44 1258.45L2472.44 1258.45L2648.00 1258.45Q2694.07 1258.45 2694.07 1297.05L2694.07 1297.05Q2694.07 1335.64 2648.00 1335.64L2648.00 1335.64L2521.00 1335.64Q2579.52 1411.60 2662.94 1457.67L2662.94 1457.67Q2684.11 1468.87 2695.31 1482.57Q2706.52 1496.26 2706.52 1508.72L2706.52 1508.72Q2706.52 1554.79 2661.69 1554.79L2661.69 1554.79Q2621.85 1554.79 2484.89 1420.31L2484.89 1420.31L2428.86 1335.64L2205.98 1335.64L2148.71 1417.82L2080.22 1488.79Q2045.36 1524.90 2024.19 1541.71Q2003.03 1558.52 1991.82 1558.52L1991.82 1558.52ZM2021.70 2026.68Q1978.13 2026.68 1978.13 1985.60L1978.13 1985.60L2014.23 1873.54Q2020.46 1852.37 2031.04 1842.41Q2041.63 1832.45 2057.81 1832.45L2057.81 1832.45Q2098.90 1832.45 2098.90 1871.04L2098.90 1871.04Q2098.90 1894.70 2078.98 1947.00L2078.98 1947.00L2065.28 1983.11Q2056.57 2005.52 2046.61 2016.10Q2036.65 2026.68 2021.70 2026.68L2021.70 2026.68ZM1795.09 2057.81Q1747.78 2057.81 1747.78 2012.99L1747.78 2012.99Q1747.78 1969.41 1793.85 1969.41L1793.85 1969.41L1817.50 1969.41Q1848.63 1969.41 1851.12 1935.79L1851.12 1935.79L1851.12 1636.96L1732.84 1636.96Q1727.86 1822.49 1691.75 1929.57L1691.75 1929.57Q1654.39 2042.87 1620.78 2042.87L1620.78 2042.87Q1568.48 2042.87 1568.48 1991.82L1568.48 1991.82Q1568.48 1973.14 1580.93 1943.26L1580.93 1943.26Q1619.53 1853.61 1634.47 1744.04L1634.47 1744.04Q1649.41 1639.45 1649.41 1369.26L1649.41 1369.26L1646.92 1081.64Q1646.92 977.05 1740.31 977.05L1740.31 977.05L1851.12 977.05Q1944.51 977.05 1942.02 1085.38L1942.02 1085.38L1942.02 1945.75Q1942.02 2001.78 1917.11 2029.17Q1892.21 2056.57 1839.92 2057.81L1839.92 2057.81L1795.09 2057.81ZM2197.27 2014.23Q2161.16 2014.23 2153.69 1930.81L2153.69 1930.81L2151.20 1899.68L2147.46 1873.54Q2146.22 1857.35 2156.18 1849.26Q2166.14 1841.16 2184.81 1841.16L2184.81 1841.16Q2238.35 1841.16 2238.35 1970.65L2238.35 1970.65Q2238.35 2014.23 2197.27 2014.23L2197.27 2014.23ZM1734.08 1549.80L1851.12 1549.80L1851.12 1351.83L1734.08 1351.83L1734.08 1549.80ZM2344.19 2001.78Q2311.82 2001.78 2294.38 1924.58L2294.38 1924.58L2284.42 1895.95L2279.44 1868.55Q2276.95 1853.61 2286.91 1844.90Q2296.88 1836.18 2315.55 1836.18L2315.55 1836.18Q2342.94 1836.18 2362.87 1890.97L2362.87 1890.97Q2384.03 1947.00 2384.03 1964.43L2384.03 1964.43Q2384.03 2001.78 2344.19 2001.78L2344.19 2001.78ZM2162.40 1740.31L2293.14 1740.31L2293.14 1691.75L2133.76 1691.75L2133.76 1712.92Q2133.76 1726.61 2140.61 1732.84Q2147.46 1739.06 2162.40 1740.31L2162.40 1740.31ZM2471.19 1965.67Q2445.04 1965.67 2420.14 1894.70L2420.14 1894.70Q2408.94 1862.33 2408.94 1858.59L2408.94 1858.59Q2408.94 1827.47 2445.04 1827.47L2445.04 1827.47Q2455.00 1827.47 2464.97 1837.43Q2474.93 1847.39 2489.87 1871.04L2489.87 1871.04Q2511.04 1904.66 2511.04 1930.81L2511.04 1930.81Q2511.04 1965.67 2471.19 1965.67L2471.19 1965.67ZM2133.76 1625.76L2293.14 1625.76L2293.14 1580.93L2133.76 1580.93L2133.76 1625.76ZM2478.66 2071.51Q2421.39 2071.51 2421.39 2022.95L2421.39 2022.95Q2421.39 1975.63 2487.38 1975.63L2487.38 1975.63Q2544.65 1975.63 2558.35 1947.00L2558.35 1947.00Q2570.80 1920.85 2570.80 1844.90L2570.80 1844.90Q2570.80 1828.71 2563.95 1822.49Q2557.10 1816.26 2542.16 1816.26L2542.16 1816.26L2138.75 1816.26Q2051.59 1816.26 2051.59 1729.10L2051.59 1729.10L2051.59 1483.81Q2051.59 1441.48 2074.00 1419.69Q2096.41 1397.90 2137.50 1397.90L2137.50 1397.90L2494.85 1397.90L2565.82 1472.61L2374.07 1472.61L2374.07 1516.19L2557.10 1516.19Q2596.95 1516.19 2596.95 1548.56L2596.95 1548.56Q2596.95 1580.93 2557.10 1580.93L2557.10 1580.93L2374.07 1580.93L2374.07 1625.76L2557.10 1625.76Q2596.95 1625.76 2596.95 1658.13L2596.95 1658.13Q2596.95 1691.75 2557.10 1691.75L2557.10 1691.75L2374.07 1691.75L2374.07 1740.31L2573.29 1740.31Q2616.87 1740.31 2640.53 1761.47Q2664.18 1782.64 2664.18 1823.73L2664.18 1823.73Q2664.18 1964.43 2629.32 2019.21L2629.32 2019.21Q2594.46 2071.51 2478.66 2071.51L2478.66 2071.51ZM1734.08 1264.67L1851.12 1264.67L1851.12 1100.32Q1851.12 1069.19 1816.26 1066.70L1816.26 1066.70L1761.47 1066.70Q1736.57 1066.70 1735.33 1100.32L1735.33 1100.32L1734.08 1264.67ZM2133.76 1516.19L2293.14 1516.19L2293.14 1472.61L2152.44 1472.61Q2143.73 1472.61 2139.37 1476.97Q2135.01 1481.32 2133.76 1491.28L2133.76 1491.28L2133.76 1516.19ZM2093.92 1094.09Q2077.73 1094.09 2065.91 1085.38Q2054.08 1076.66 2041.63 1057.98L2041.63 1057.98Q2008.01 1005.69 2008.01 998.22L2008.01 998.22Q2008.01 958.37 2059.06 958.37L2059.06 958.37Q2083.96 958.37 2112.60 993.24L2112.60 993.24Q2143.73 1031.84 2143.73 1054.25L2143.73 1054.25Q2143.73 1094.09 2093.92 1094.09L2093.92 1094.09ZM2253.30 1258.45L2390.26 1258.45L2364.11 1186.23L2362.87 1183.74L2286.91 1183.74L2253.30 1258.45ZM2508.54 1095.34Q2458.74 1095.34 2458.74 1054.25L2458.74 1054.25Q2458.74 1044.29 2479.91 1013.16L2479.91 1013.16Q2487.38 1001.95 2491.11 996.97Q2494.85 991.99 2496.09 990.75L2496.09 990.75Q2516.02 957.13 2544.65 957.13L2544.65 957.13Q2596.95 957.13 2596.95 998.22L2596.95 998.22Q2596.95 1015.65 2567.07 1055.49L2567.07 1055.49Q2535.94 1095.34 2508.54 1095.34L2508.54 1095.34Z"/>
  </svg>