<svg xmlns="http://www.w3.org/2000/svg" viewBox="0 0 3000 3000" width="3000" height="3000">
    <path fill="#000000" d="M1448 1500L1448 1500Q1448 1490 1462 1489Q1476 1488 1498 1496L1498 1496Q1516 1504 1528 1539Q1540 1574 1548 1592L1548 1592Q1556 1610 1556 1628Q1556 1646 1548 1650L1548 1650Q1542 1652 1534 1697Q1526 1742 1528 1766L1528 1766Q1528 1820 1536 1824L1536 1824Q1540 1828 1550 1812L1550 1812Q1552 1806 1558 1796L1558 1796Q1570 1772 1584 1749Q1598 1726 1604 1714Q1610 1702 1619 1691Q1628 1680 1644 1640L1644 1640Q1666 1584 1693 1556Q1720 1528 1744 1538L1744 1538Q1756 1542 1786 1568L1786 1568Q1802 1586 1807 1598Q1812 1610 1812 1640L1812 1640Q1812 1680 1801 1702Q1790 1724 1752 1764L1752 1764Q1720 1796 1720 1802Q1720 1808 1686 1852Q1652 1896 1652 1899Q1652 1902 1633 1924Q1614 1946 1586 1980Q1558 2014 1548 2020L1548 2020Q1538 2024 1540 2036Q1542 2048 1562 2088L1562 2088Q1596 2162 1696 2194L1696 2194Q1732 2208 1848 2215Q1964 2222 2018 2214L2018 2214Q2068 2204 2127 2181Q2186 2158 2208 2136L2208 2136Q2238 2108 2262 2056Q2286 2004 2286 1970L2286 1970Q2286 1932 2304 1918L2304 1918Q2314 1904 2316 1904Q2318 1904 2328 1914L2328 1914Q2338 1930 2344 1964Q2350 1998 2358 2014L2358 2014Q2366 2028 2380 2079Q2394 2130 2394 2152L2394 2152Q2394 2174 2404 2194L2404 2194Q2430 2242 2406 2254L2406 2254Q2400 2260 2394 2276L2394 2276Q2378 2308 2350 2338Q2322 2368 2296 2382L2296 2382Q2276 2392 2230 2401Q2184 2410 2160 2420L2160 2420Q2110 2432 1952 2426Q1794 2420 1718 2400L1718 2400Q1616 2370 1570 2332L1570 2332Q1498 2270 1482 2236L1482 2236Q1460 2180 1453 2167Q1446 2154 1438 2154L1438 2154Q1430 2154 1344 2218Q1258 2282 1248 2282L1248 2282Q1226 2282 1238 2254L1238 2254Q1268 2198 1364 2092L1364 2092Q1378 2080 1402 2048L1402 2048L1428 2018L1416 1874Q1410 1750 1415 1647Q1420 1544 1436 1526L1436 1526Q1448 1514 1448 1500ZM1628 878L1652 852Q1676 830 1692 834Q1708 838 1764 850Q1820 862 1850 878L1850 878Q1892 900 1920 951Q1948 1002 1932 1034L1932 1034Q1902 1092 1874 1104L1874 1104Q1856 1110 1817 1092Q1778 1074 1750 1048L1750 1048Q1724 1024 1689 978Q1654 932 1642 906L1642 906L1628 878ZM1348 810L1348 810Q1358 808 1358 800Q1358 792 1376 792L1376 792Q1388 792 1418 818Q1448 844 1448 856L1448 856Q1448 862 1472 892Q1496 922 1496 957Q1496 992 1484 1004Q1472 1016 1468 1054L1468 1054Q1458 1116 1434 1172L1434 1172Q1424 1196 1431 1201Q1438 1206 1626 1202L1626 1202L1854 1190Q1878 1190 1889 1194Q1900 1198 1912 1210L1912 1210Q1950 1252 1942 1300L1942 1300Q1936 1330 1914 1348Q1892 1366 1861 1366Q1830 1366 1814 1356L1814 1356Q1794 1342 1720 1340Q1646 1338 1580 1348L1580 1348Q1504 1360 1454 1360L1454 1360L1406 1360L1392 1400Q1382 1438 1368 1498L1368 1498Q1338 1652 1290 1756L1290 1756Q1266 1806 1266 1814L1266 1814Q1266 1828 1234 1880L1234 1880Q1230 1892 1222 1910L1222 1910Q1210 1934 1190 1982L1190 1982Q1182 1996 1132 2066Q1082 2136 1060 2162L1060 2162Q1018 2206 917 2289Q816 2372 798 2372L798 2372Q794 2372 790 2378L790 2378Q788 2386 765 2399Q742 2412 721 2420Q700 2428 700 2424L700 2424Q700 2418 724 2381Q748 2344 756 2338L756 2338Q766 2332 814 2274L814 2274L882 2198Q900 2180 906 2164L906 2164Q914 2138 950 2092L950 2092Q976 2054 1006 1996L1006 1996Q1026 1956 1033 1952Q1040 1948 1040 1938Q1040 1928 1064 1876L1064 1876Q1104 1790 1118 1746L1118 1746Q1134 1710 1144 1687Q1154 1664 1154 1652Q1154 1640 1176 1570L1176 1570Q1228 1402 1218 1390L1218 1390Q1210 1384 1149 1397Q1088 1410 1066 1426L1066 1426L1034 1444L998 1424Q958 1404 945 1388Q932 1372 934 1348L934 1348Q936 1294 1004 1278L1004 1278Q1186 1230 1210 1230L1210 1230Q1240 1230 1251 1215Q1262 1200 1266 1142L1266 1142Q1276 1058 1296 920L1296 920Q1302 876 1318 843Q1334 810 1348 810Z"/>
  </svg>