<svg xmlns="http://www.w3.org/2000/svg" viewBox="0 0 3000 3000" width="3000" height="3000">
    <path fill="#000000" d="M1572 1942L1554 1952Q1304 2060 1273 2060Q1242 2060 1242 2048L1242 2048Q1242 2022 1304 1990L1304 1990Q1414 1936 1554 1850L1554 1850L1574 1838L1576 1426Q1576 1370 1550 1326L1550 1326Q1546 1320 1546 1309Q1546 1298 1565 1298Q1584 1298 1645 1316Q1706 1334 1706 1372L1706 1372L1702 1758Q1852 1658 1990 1542L1990 1542Q2026 1504 2033 1465Q2040 1426 2055 1426Q2070 1426 2096 1450L2096 1450Q2160 1512 2160 1558L2160 1558Q2160 1576 2144 1590L2144 1590Q1944 1752 1700 1880L1700 1880L1698 2030L1698 2038Q1698 2080 1712 2112L1712 2112Q1742 2180 1944 2180Q2146 2180 2210 2148L2210 2148Q2280 2116 2316 1852L2316 1852Q2328 1750 2354 1750L2354 1750Q2394 1750 2394 1970L2394 1970Q2394 2066 2384 2132Q2374 2198 2334 2236L2334 2236Q2254 2308 1958 2308L1958 2308Q1848 2308 1760 2295Q1672 2282 1622 2230Q1572 2178 1572 2060L1572 2060L1572 1942ZM1420 1136L2104 1098Q2146 1096 2172 1087Q2198 1078 2212 1078Q2226 1078 2252 1096L2252 1096Q2318 1142 2318 1171Q2318 1200 2268 1206L2268 1206L1404 1252L1402 1272Q1368 1502 1310 1642L1310 1642Q1256 1774 1178 1884Q1100 1994 1013 2077Q926 2160 846 2216Q766 2272 710 2300Q654 2328 638 2328Q622 2328 622 2310Q622 2292 666 2260L666 2260Q928 2058 1072 1816L1072 1816Q1214 1576 1266 1280L1266 1280L1270 1260L860 1282Q846 1284 832 1284L832 1284L806 1284Q728 1284 696 1208L696 1208Q682 1176 682 1165Q682 1154 694 1154L694 1154Q698 1154 721 1161Q744 1168 792 1168L792 1168L816 1168L1286 1142Q1320 872 1326 694L1326 694L1326 682Q1326 628 1300 582L1300 582Q1298 570 1298 568L1298 568Q1298 550 1324 550L1324 550L1344 552Q1462 568 1462 636L1462 636L1462 646Q1448 922 1420 1136L1420 1136ZM2026 948L2026 948Q2026 980 1999 1009Q1972 1038 1951 1038Q1930 1038 1862 967Q1794 896 1656 784L1656 784Q1636 766 1636 746Q1636 726 1654 705Q1672 684 1690 684Q1708 684 1815 758Q1922 832 1974 884Q2026 936 2026 948Z"/>
  </svg>