<svg xmlns="http://www.w3.org/2000/svg" viewBox="0 0 3000 3000" width="3000" height="3000">
    <path fill="#000000" d="M1356 856L1356 856Q1384 838 1398 846L1398 846Q1398 854 1446 872L1446 872Q1536 900 1536 944L1536 944Q1536 958 1518 996Q1500 1034 1490 1042L1490 1042Q1480 1046 1471 1139Q1462 1232 1460 1308Q1458 1384 1468 1394L1468 1394Q1476 1394 1481 1369Q1486 1344 1514 1328L1514 1328Q1562 1296 1647 1197Q1732 1098 1740 1058L1740 1058Q1746 1034 1755 1032Q1764 1030 1798 1050L1798 1050Q1838 1068 1848 1089Q1858 1110 1852 1158L1852 1158Q1846 1214 1828 1224Q1810 1234 1771 1268Q1732 1302 1706 1313Q1680 1324 1640 1359Q1600 1394 1594 1394Q1588 1394 1588 1406Q1588 1418 1678 1446L1678 1446Q1820 1492 1876 1538L1876 1538Q1892 1552 1896 1563Q1900 1574 1900 1606L1900 1606Q1900 1654 1892 1659Q1884 1664 1884 1680L1884 1680Q1884 1698 1863 1711Q1842 1724 1812 1726L1812 1726Q1786 1732 1773 1724Q1760 1716 1722 1670L1722 1670Q1696 1634 1682 1623Q1668 1612 1632 1590L1632 1590Q1584 1564 1535 1515Q1486 1466 1476 1466L1476 1466Q1458 1466 1478 1544L1478 1544Q1504 1638 1529 1683Q1554 1728 1608 1790L1608 1790Q1658 1842 1692 1880L1692 1880Q1766 1966 1928 2036L1928 2036Q2012 2070 2066 2070L2066 2070Q2128 2070 2146 2048Q2164 2026 2200 1906L2200 1906Q2210 1856 2210 1836L2210 1836Q2210 1808 2226 1826L2226 1826Q2234 1836 2238 1860L2238 1860Q2254 1952 2260 2014L2260 2014Q2266 2066 2278 2080Q2290 2094 2296 2123Q2302 2152 2314 2176L2314 2176Q2324 2196 2313 2222Q2302 2248 2260 2302L2260 2302Q2224 2352 2185 2363Q2146 2374 2046 2374L2046 2374Q1954 2372 1914 2358Q1874 2344 1784 2282L1784 2282Q1680 2214 1642 2181Q1604 2148 1534 2070L1534 2070Q1492 2020 1446 1957Q1400 1894 1392 1872L1392 1872Q1388 1858 1354 1790L1354 1790Q1284 1644 1282 1386L1282 1386Q1282 1236 1292 1144Q1302 1052 1296 1040L1296 1040Q1290 1016 1165 1041Q1040 1066 1010 1096L1010 1096Q992 1110 983 1110Q974 1110 938 1153Q902 1196 890 1196Q878 1196 840 1176L840 1176Q790 1144 790 1084L790 1084Q790 1070 853 1026Q916 982 964 964L964 964Q1036 936 1234 898L1234 898Q1342 872 1356 856Z"/>
  </svg>