<svg xmlns="http://www.w3.org/2000/svg" viewBox="0 0 3000 3000" width="3000" height="3000">
    <path fill="#000000" d="M1453.13 2388.67Q1414.06 2388.67 1395.51 2368.16Q1376.95 2347.66 1376.95 2302.73L1376.95 2302.73L1376.95 1585.94L1080.08 1585.94Q1078.13 1833.98 1031.25 2000L1031.25 2000Q988.28 2152.34 869.14 2273.44L869.14 2273.44Q814.45 2328.13 766.60 2356.45Q718.75 2384.77 681.64 2384.77L681.64 2384.77Q644.53 2384.77 626.95 2365.23Q609.38 2345.70 609.38 2304.69L609.38 2304.69Q609.38 2259.77 671.88 2224.61L671.88 2224.61Q892.58 2095.70 923.83 1792.97L923.83 1792.97L937.50 1585.94L712.89 1585.94Q623.05 1585.94 623.05 1513.67L623.05 1513.67Q623.05 1439.45 712.89 1439.45L712.89 1439.45L939.45 1439.45L939.45 1189.45Q746.09 1222.66 697.27 1222.66L697.27 1222.66Q621.09 1222.66 621.09 1150.39L621.09 1150.39Q621.09 1087.89 708.98 1080.08L708.98 1080.08Q960.94 1058.59 1175.78 988.28L1175.78 988.28L1218.75 980.47Q1253.91 974.61 1272.46 994.14Q1291.02 1013.67 1291.02 1052.73L1291.02 1052.73Q1291.02 1105.47 1083.98 1158.20L1083.98 1158.20L1082.03 1439.45L1376.95 1439.45L1376.95 994.14Q1376.95 949.22 1395.51 928.71Q1414.06 908.20 1453.13 908.20L1453.13 908.20Q1492.19 908.20 1510.74 928.71Q1529.30 949.22 1529.30 994.14L1529.30 994.14L1529.30 1439.45L1755.86 1439.45Q1837.89 1439.45 1875 1483.40Q1912.11 1527.34 1914.06 1623.05L1914.06 1623.05Q1919.92 1890.63 2000 2054.69L2000 2054.69Q2080.08 2212.89 2166.02 2212.89L2166.02 2212.89Q2222.66 2212.89 2228.52 2082.03L2228.52 2082.03Q2230.47 1998.05 2310.55 1998.05L2310.55 1998.05Q2388.67 1998.05 2388.67 2074.22L2388.67 2074.22Q2388.67 2203.13 2335.94 2292.97L2335.94 2292.97Q2287.11 2380.86 2191.41 2380.86L2191.41 2380.86Q2031.25 2380.86 1900.39 2185.55L1900.39 2185.55Q1767.58 1988.28 1765.63 1675.78L1765.63 1675.78Q1765.63 1587.89 1703.13 1585.94L1703.13 1585.94L1529.30 1585.94L1529.30 2302.73Q1529.30 2347.66 1510.74 2368.16Q1492.19 2388.67 1453.13 2388.67L1453.13 2388.67ZM2203.13 1976.56Q2167.97 1976.56 2132.81 1937.50L2132.81 1937.50L2074.22 1886.72Q2013.67 1832.03 2013.67 1810.55L2013.67 1810.55Q2013.67 1748.05 2083.98 1748.05L2083.98 1748.05Q2117.19 1748.05 2197.27 1810.55L2197.27 1810.55Q2275.39 1871.09 2275.39 1908.20L2275.39 1908.20Q2275.39 1976.56 2203.13 1976.56L2203.13 1976.56ZM2208.98 1496.09Q2042.97 1496.09 1916.02 1328.13L1916.02 1328.13Q1785.16 1154.30 1765.63 925.78L1765.63 925.78Q1761.72 884.77 1746.09 865.23Q1730.47 845.70 1697.27 845.70L1697.27 845.70L777.34 845.70Q687.50 845.70 687.50 771.48L687.50 771.48Q687.50 697.27 777.34 697.27L777.34 697.27L1751.95 697.27Q1828.13 697.27 1864.26 733.40Q1900.39 769.53 1902.34 853.52L1902.34 853.52Q1912.11 1066.41 2001.95 1207.03L2001.95 1207.03Q2087.89 1341.80 2187.50 1341.80L2187.50 1341.80Q2216.80 1341.80 2232.42 1315.43Q2248.05 1289.06 2248.05 1240.23L2248.05 1240.23Q2248.05 1201.17 2264.65 1184.57Q2281.25 1167.97 2318.36 1167.97L2318.36 1167.97Q2386.72 1167.97 2386.72 1240.23L2386.72 1240.23Q2386.72 1339.84 2339.84 1421.88L2339.84 1421.88Q2296.88 1496.09 2208.98 1496.09L2208.98 1496.09ZM2021.48 1726.56Q1958.98 1726.56 1958.98 1662.11L1958.98 1662.11Q1958.98 1634.77 1996.09 1599.61L1996.09 1599.61L2046.88 1546.88Q2087.89 1501.95 2117.19 1501.95L2117.19 1501.95Q2183.59 1501.95 2183.59 1566.41L2183.59 1566.41Q2183.59 1601.56 2123.05 1662.11L2123.05 1662.11Q2058.59 1726.56 2021.48 1726.56L2021.48 1726.56ZM2201.17 1169.92Q2175.78 1169.92 2134.77 1134.77L2134.77 1134.77L2068.36 1089.84Q2033.20 1064.45 2016.60 1047.85Q2000 1031.25 2000 1013.67L2000 1013.67Q2000 949.22 2072.27 949.22L2072.27 949.22Q2111.33 949.22 2236.33 1035.16L2236.33 1035.16Q2273.44 1060.55 2273.44 1093.75L2273.44 1093.75Q2273.44 1169.92 2201.17 1169.92L2201.17 1169.92ZM2025.39 910.16Q1957.03 910.16 1957.03 843.75L1957.03 843.75Q1957.03 814.45 2013.67 767.58L2013.67 767.58L2072.27 708.98Q2128.91 652.34 2156.25 652.34L2156.25 652.34Q2230.47 652.34 2230.47 726.56L2230.47 726.56Q2230.47 759.77 2144.53 833.98L2144.53 833.98Q2056.64 910.16 2025.39 910.16L2025.39 910.16Z"/>
  </svg>