<svg xmlns="http://www.w3.org/2000/svg" viewBox="0 0 3000 3000" width="3000" height="3000">
    <path fill="#000000" d="M832.62 2066.53Q807.71 2066.53 795.89 2053.45Q784.06 2040.38 784.06 2011.74L784.06 2011.74L784.06 1554.79L594.80 1554.79Q593.55 1712.92 563.67 1818.75L563.67 1818.75Q536.28 1915.87 460.33 1993.07L460.33 1993.07Q425.46 2027.93 394.96 2045.98Q364.45 2064.04 340.80 2064.04L340.80 2064.04Q317.14 2064.04 305.93 2051.59Q294.73 2039.14 294.73 2012.99L294.73 2012.99Q294.73 1984.35 334.57 1961.94L334.57 1961.94Q475.27 1879.76 495.19 1686.77L495.19 1686.77L503.91 1554.79L360.72 1554.79Q303.44 1554.79 303.44 1508.72L303.44 1508.72Q303.44 1461.40 360.72 1461.40L360.72 1461.40L505.15 1461.40L505.15 1302.03Q381.88 1323.19 350.76 1323.19L350.76 1323.19Q302.20 1323.19 302.20 1277.12L302.20 1277.12Q302.20 1237.28 358.23 1232.30L358.23 1232.30Q518.85 1218.60 655.81 1173.78L655.81 1173.78L683.20 1168.80Q705.62 1165.06 717.44 1177.51Q729.27 1189.97 729.27 1214.87L729.27 1214.87Q729.27 1248.49 597.29 1282.10L597.29 1282.10L596.04 1461.40L784.06 1461.40L784.06 1177.51Q784.06 1148.88 795.89 1135.80Q807.71 1122.73 832.62 1122.73L832.62 1122.73Q857.52 1122.73 869.35 1135.80Q881.18 1148.88 881.18 1177.51L881.18 1177.51L881.18 1461.40L1025.61 1461.40Q1077.91 1461.40 1101.56 1489.42Q1125.22 1517.43 1126.46 1578.44L1126.46 1578.44Q1130.20 1749.02 1181.25 1853.61L1181.25 1853.61Q1232.30 1954.47 1287.08 1954.47L1287.08 1954.47Q1323.19 1954.47 1326.93 1871.04L1326.93 1871.04Q1328.17 1817.50 1379.22 1817.50L1379.22 1817.50Q1429.03 1817.50 1429.03 1866.06L1429.03 1866.06Q1429.03 1948.24 1395.41 2005.52L1395.41 2005.52Q1364.28 2061.55 1303.27 2061.55L1303.27 2061.55Q1201.17 2061.55 1117.75 1937.04L1117.75 1937.04Q1033.08 1811.28 1031.84 1612.06L1031.84 1612.06Q1031.84 1556.03 991.99 1554.79L991.99 1554.79L881.18 1554.79L881.18 2011.74Q881.18 2040.38 869.35 2053.45Q857.52 2066.53 832.62 2066.53L832.62 2066.53ZM1310.74 1803.81Q1288.33 1803.81 1265.92 1778.91L1265.92 1778.91L1228.56 1746.53Q1189.97 1711.67 1189.97 1697.97L1189.97 1697.97Q1189.97 1658.13 1234.79 1658.13L1234.79 1658.13Q1255.96 1658.13 1307.01 1697.97L1307.01 1697.97Q1356.81 1736.57 1356.81 1760.23L1356.81 1760.23Q1356.81 1803.81 1310.74 1803.81L1310.74 1803.81ZM1314.48 1497.51Q1208.64 1497.51 1127.71 1390.43L1127.71 1390.43Q1044.29 1279.61 1031.84 1133.94L1031.84 1133.94Q1029.35 1107.79 1019.38 1095.34Q1009.42 1082.89 988.26 1082.89L988.26 1082.89L401.81 1082.89Q344.53 1082.89 344.53 1035.57L344.53 1035.57Q344.53 988.26 401.81 988.26L401.81 988.26L1023.12 988.26Q1071.68 988.26 1094.71 1011.29Q1117.75 1034.33 1118.99 1087.87L1118.99 1087.87Q1125.22 1223.58 1182.50 1313.23L1182.50 1313.23Q1237.28 1399.15 1300.78 1399.15L1300.78 1399.15Q1319.46 1399.15 1329.42 1382.34Q1339.38 1365.53 1339.38 1334.40L1339.38 1334.40Q1339.38 1309.50 1349.96 1298.91Q1360.55 1288.33 1384.20 1288.33L1384.20 1288.33Q1427.78 1288.33 1427.78 1334.40L1427.78 1334.40Q1427.78 1397.90 1397.90 1450.20L1397.90 1450.20Q1370.51 1497.51 1314.48 1497.51L1314.48 1497.51ZM1194.95 1644.43Q1155.10 1644.43 1155.10 1603.34L1155.10 1603.34Q1155.10 1585.91 1178.76 1563.50L1178.76 1563.50L1211.13 1529.88Q1237.28 1501.25 1255.96 1501.25L1255.96 1501.25Q1298.29 1501.25 1298.29 1542.33L1298.29 1542.33Q1298.29 1564.75 1259.69 1603.34L1259.69 1603.34Q1218.60 1644.43 1194.95 1644.43L1194.95 1644.43ZM1309.50 1289.58Q1293.31 1289.58 1267.16 1267.16L1267.16 1267.16L1224.83 1238.53Q1202.42 1222.34 1191.83 1211.76Q1181.25 1201.17 1181.25 1189.97L1181.25 1189.97Q1181.25 1148.88 1227.32 1148.88L1227.32 1148.88Q1252.22 1148.88 1331.91 1203.66L1331.91 1203.66Q1355.57 1219.85 1355.57 1241.02L1355.57 1241.02Q1355.57 1289.58 1309.50 1289.58L1309.50 1289.58ZM1197.44 1123.97Q1153.86 1123.97 1153.86 1081.64L1153.86 1081.64Q1153.86 1062.96 1189.97 1033.08L1189.97 1033.08L1227.32 995.73Q1263.43 959.62 1280.86 959.62L1280.86 959.62Q1328.17 959.62 1328.17 1006.93L1328.17 1006.93Q1328.17 1028.10 1273.39 1075.42L1273.39 1075.42Q1217.36 1123.97 1197.44 1123.97L1197.44 1123.97ZM2468.70 2046.61Q2326.76 2046.61 2263.26 2039.14L2263.26 2039.14Q2227.15 2035.40 2206.60 2011.74Q2186.06 1988.09 2186.06 1944.51L2186.06 1944.51L2186.06 1468.87Q2186.06 1374.24 2281.93 1374.24L2281.93 1374.24L2535.94 1374.24Q2553.37 1374.24 2560.84 1363.66Q2568.31 1353.08 2568.31 1329.42L2568.31 1329.42Q2568.31 1307.01 2560.84 1297.67Q2553.37 1288.33 2535.94 1287.08L2535.94 1287.08L2281.93 1287.08Q2186.06 1287.08 2186.06 1191.21L2186.06 1191.21L2186.06 974.56Q2186.06 930.98 2233.37 930.98L2233.37 930.98Q2281.93 930.98 2281.93 974.56L2281.93 974.56L2281.93 1170.04Q2281.93 1203.66 2319.29 1206.15L2319.29 1206.15L2569.56 1206.15Q2615.63 1206.15 2639.90 1229.81Q2664.18 1253.47 2664.18 1299.54L2664.18 1299.54L2664.18 1360.55Q2664.18 1406.62 2641.15 1430.90Q2618.12 1455.18 2572.05 1455.18L2572.05 1455.18L2316.80 1455.18Q2280.69 1455.18 2279.44 1492.53L2279.44 1492.53L2279.44 1513.70L2609.40 1513.70Q2650.49 1513.70 2650.49 1549.80L2650.49 1549.80Q2650.49 1585.91 2609.40 1585.91L2609.40 1585.91L2279.44 1585.91L2279.44 1649.41L2609.40 1649.41Q2650.49 1649.41 2650.49 1685.52L2650.49 1685.52Q2650.49 1721.63 2609.40 1721.63L2609.40 1721.63L2279.44 1721.63L2279.44 1788.87L2609.40 1788.87Q2650.49 1788.87 2650.49 1824.98L2650.49 1824.98Q2650.49 1861.08 2609.40 1861.08L2609.40 1861.08L2279.44 1861.08L2279.44 1913.38Q2279.44 1935.79 2285.67 1943.88Q2291.89 1951.98 2310.57 1954.47L2310.57 1954.47Q2342.94 1958.20 2406.45 1958.20L2406.45 1958.20L2463.72 1958.20Q2569.56 1955.71 2593.21 1950.73L2593.21 1950.73Q2605.66 1948.24 2609.40 1939.53Q2613.13 1930.81 2613.13 1908.40L2613.13 1908.40Q2613.13 1884.74 2624.34 1874.16Q2635.55 1863.57 2657.96 1863.57L2657.96 1863.57Q2704.03 1863.57 2704.03 1907.15L2704.03 1907.15Q2704.03 1984.35 2674.15 2014.23L2674.15 2014.23Q2641.77 2046.61 2468.70 2046.61L2468.70 2046.61ZM1683.03 2070.26Q1636.96 2070.26 1636.96 2014.23L1636.96 2014.23L1636.96 1528.64Q1636.96 1430.27 1734.08 1430.27L1734.08 1430.27L2001.78 1430.27Q2098.90 1430.27 2098.90 1528.64L2098.90 1528.64L2098.90 1949.49Q2098.90 2010.50 2071.51 2037.89Q2044.12 2065.28 1981.86 2065.28L1981.86 2065.28L1924.58 2065.28Q1871.04 2065.28 1871.04 2019.21L1871.04 2019.21Q1871.04 1971.90 1924.58 1971.90L1924.58 1971.90L1964.43 1971.90Q2004.27 1971.90 2005.52 1930.81L2005.52 1930.81L2005.52 1836.18L1730.35 1836.18L1730.35 2014.23Q1730.35 2070.26 1683.03 2070.26L1683.03 2070.26ZM1730.35 1755.25L2005.52 1755.25L2005.52 1673.07L1730.35 1673.07L1730.35 1755.25ZM1730.35 1592.14L2005.52 1592.14L2005.52 1548.56Q2005.52 1513.70 1969.41 1512.45L1969.41 1512.45L1767.70 1512.45Q1732.84 1512.45 1730.35 1548.56L1730.35 1548.56L1730.35 1592.14ZM1796.34 1287.08L1942.02 1287.08L1968.16 1127.71L1760.23 1127.71Q1778.91 1184.99 1795.09 1284.59L1795.09 1284.59L1796.34 1287.08ZM1615.80 1375.49Q1567.24 1375.49 1567.24 1331.91L1567.24 1331.91Q1567.24 1287.08 1615.80 1287.08L1615.80 1287.08L1700.46 1287.08Q1686.77 1197.44 1664.36 1131.45L1664.36 1131.45L1663.11 1127.71L1625.76 1127.71Q1578.44 1127.71 1578.44 1082.89L1578.44 1082.89Q1578.44 1039.31 1625.76 1039.31L1625.76 1039.31L1817.50 1039.31L1817.50 979.54Q1817.50 930.98 1868.55 930.98L1868.55 930.98Q1922.09 930.98 1922.09 979.54L1922.09 979.54L1922.09 1039.31L2108.86 1039.31Q2157.42 1039.31 2157.42 1084.13L2157.42 1084.13Q2157.42 1127.71 2108.86 1127.71L2108.86 1127.71L2064.04 1127.71L2029.17 1287.08L2127.54 1287.08Q2176.10 1287.08 2176.10 1331.91L2176.10 1331.91Q2176.10 1375.49 2127.54 1375.49L2127.54 1375.49L1615.80 1375.49ZM2263.26 1118.99L2263.26 1030.59L2630.57 1030.59Q2677.88 1030.59 2677.88 1075.42L2677.88 1075.42Q2677.88 1118.99 2630.57 1118.99L2630.57 1118.99L2263.26 1118.99Z"/>
  </svg>