<svg xmlns="http://www.w3.org/2000/svg" viewBox="0 0 3000 3000" width="3000" height="3000">
    <path fill="#000000" d="M1293.45 1610.29L1293.45 1610.29Q1299.82 1602.64 1299.82 1591.16Q1299.82 1579.69 1288.35 1564.39L1288.35 1564.39Q1275.60 1549.09 1260.30 1537.61L1260.30 1537.61Q1289.62 1543.99 1313.85 1543.99L1313.85 1543.99Q1366.13 1543.99 1382.70 1503.83Q1399.27 1463.66 1399.27 1365.49L1399.27 1365.49Q1399.27 1311.94 1394.81 1288.35Q1390.35 1264.76 1382.70 1257.11L1382.70 1257.11L1375.05 1249.46Q1354.65 1249.46 1345.72 1303.01L1345.72 1303.01Q1340.63 1334.89 1331.70 1373.14Q1322.77 1411.39 1310.02 1444.54L1310.02 1444.54Q1308.75 1448.36 1303.65 1448.36L1303.65 1448.36L1298.55 1448.36Q1256.47 1443.26 1213.13 1424.14Q1169.77 1405.01 1136.63 1367.40Q1103.47 1329.79 1093.27 1286.44L1093.27 1286.44Q1168.50 1320.86 1239.90 1368.04L1239.90 1368.04Q1259.02 1380.79 1267.95 1380.79L1267.95 1380.79Q1281.97 1380.79 1290.90 1366.13Q1299.82 1351.46 1303.65 1338.71L1303.65 1338.71L1306.20 1325.96Q1306.20 1308.11 1284.52 1295.36L1284.52 1295.36Q1219.50 1262.21 1145.55 1230.34L1145.55 1230.34Q1158.30 1226.51 1176.15 1213.76L1176.15 1213.76Q1204.20 1194.64 1231.61 1167.86Q1259.02 1141.09 1280.06 1116.22Q1301.10 1091.36 1301.10 1078.61Q1301.10 1065.86 1288.99 1050.56Q1276.87 1035.26 1261.57 1023.79Q1246.27 1012.31 1236.07 1012.31L1236.07 1012.31Q1220.77 1012.31 1216.95 1033.99L1216.95 1033.99Q1213.13 1059.49 1199.10 1088.81Q1185.07 1118.14 1166.59 1144.28Q1148.10 1170.41 1133.44 1189.54Q1118.77 1208.66 1118.77 1218.86L1118.77 1218.86L1118.77 1218.86Q1098.38 1211.21 1077.97 1202.29L1077.97 1202.29Q1076.70 1193.36 1076.70 1179.34Q1076.70 1165.31 1076.70 1152.56L1076.70 1152.56Q1076.70 1138.54 1076.70 1123.88Q1076.70 1109.21 1077.97 1097.74L1077.97 1097.74Q1079.25 1090.09 1083.07 1080.53Q1086.90 1070.96 1086.90 1060.76L1086.90 1060.76Q1086.90 1033.99 1062.67 1020.60Q1038.45 1007.21 1021.87 1007.21L1021.87 1007.21Q1019.32 1007.21 1015.50 1007.85Q1011.67 1008.49 1006.57 1008.49L1006.57 1008.49L543.75 1046.74Q536.10 1048.01 528.45 1048.01Q520.80 1048.01 514.42 1048.01L514.42 1048.01Q497.85 1048.01 483.82 1046.10Q469.80 1044.19 453.22 1041.64L453.22 1041.64L448.12 1041.64Q429.00 1041.64 429.00 1059.49L429.00 1059.49L435.37 1078.61Q443.02 1097.74 460.24 1117.50Q477.45 1137.26 506.77 1137.26L506.77 1137.26Q516.97 1137.26 529.72 1135.99Q542.47 1134.71 557.77 1133.44L557.77 1133.44L978.52 1096.46Q979.80 1204.84 1000.20 1293.45Q1020.60 1382.06 1086.90 1445.81L1086.90 1445.81Q1121.32 1477.69 1163.40 1499.36L1163.40 1499.36Q1194 1517.21 1224.60 1527.41L1224.60 1527.41Q1218.22 1531.24 1216.95 1540.16L1216.95 1540.16Q1215.67 1556.74 1204.84 1589.89Q1194 1623.04 1143 1693.16L1143 1693.16Q1132.80 1708.46 1131.52 1722.49L1131.52 1722.49Q1104.75 1709.74 1075.42 1696.99L1075.42 1696.99Q1074.15 1682.96 1073.51 1663.84Q1072.88 1644.71 1072.88 1626.86L1072.88 1626.86Q1072.88 1605.19 1072.88 1584.15Q1072.88 1563.11 1074.15 1543.99L1074.15 1543.99Q1074.15 1536.34 1078.61 1527.41Q1083.07 1518.49 1083.07 1508.29L1083.07 1508.29Q1083.07 1499.36 1068.41 1477.69Q1053.75 1456.01 1012.95 1456.01L1012.95 1456.01L1001.47 1456.01L858.67 1468.76L858.67 1189.54Q858.67 1167.86 840.19 1155.11Q821.70 1142.36 800.66 1135.99Q779.62 1129.61 770.70 1129.61L770.70 1129.61Q751.57 1129.61 751.57 1146.19L751.57 1146.19Q751.57 1148.74 752.21 1150.01Q752.85 1151.29 752.85 1153.84L752.85 1153.84Q765.60 1199.74 765.60 1237.99L765.60 1237.99L766.87 1477.69L621.52 1489.16Q624.07 1454.74 624.71 1412.66Q625.35 1370.59 625.35 1336.16L625.35 1336.16Q650.85 1323.41 679.54 1306.20Q708.22 1288.99 736.27 1271.14L736.27 1271.14Q754.12 1262.21 754.12 1244.36L754.12 1244.36Q754.12 1227.79 742.01 1209.94Q729.90 1192.09 713.96 1178.06Q698.02 1164.04 689.10 1164.04Q680.17 1164.04 675.07 1171.05Q669.97 1178.06 666.15 1185.71L666.15 1185.71Q658.50 1206.11 627.90 1233.53Q597.30 1260.94 557.14 1287.71Q516.97 1314.49 478.09 1336.16Q439.20 1357.84 416.25 1369.31L416.25 1369.31Q369.07 1393.54 369.07 1411.39L369.07 1411.39Q369.07 1426.69 390.75 1426.69L390.75 1426.69Q425.17 1426.69 532.27 1380.79L532.27 1380.79Q532.27 1384.61 532.27 1400.55Q532.27 1416.49 532.27 1434.34L532.27 1434.34Q532.27 1450.91 532.27 1468.76Q532.27 1486.61 531.00 1498.09L531.00 1498.09L429.00 1507.01Q420.07 1508.29 410.51 1508.93Q400.95 1509.56 390.75 1509.56Q380.55 1509.56 369.07 1508.29Q357.60 1507.01 344.85 1504.46L344.85 1504.46Q341.02 1503.19 334.65 1503.19L334.65 1503.19Q318.07 1503.19 318.07 1519.76L318.07 1519.76Q318.07 1524.86 325.09 1542.71Q332.10 1560.56 348.04 1577.78Q363.97 1594.99 390.75 1594.99L390.75 1594.99Q404.77 1594.99 444.30 1591.16L444.30 1591.16L525.90 1584.79Q519.52 1682.96 494.66 1760.74Q469.80 1838.51 428.36 1898.44Q386.92 1958.36 332.10 2013.19L332.10 2013.19Q316.80 2025.94 309.79 2037.41Q302.77 2048.89 302.77 2057.81L302.77 2057.81Q302.77 2074.39 320.62 2074.39L320.62 2074.39Q324.45 2074.39 353.77 2060.36Q383.10 2046.34 424.54 2013.19Q465.97 1980.04 507.41 1922.66Q548.85 1865.29 580.09 1777.95Q611.32 1690.61 617.70 1575.86L617.70 1575.86L766.87 1563.11L768.15 1855.09Q768.15 1898.44 765.60 1939.88Q763.05 1981.31 756.67 2029.76L756.67 2029.76Q756.67 2031.04 756.04 2033.59Q755.40 2036.14 755.40 2039.96L755.40 2039.96Q755.40 2062.91 772.61 2076.94Q789.82 2090.96 808.31 2097.97Q826.80 2104.99 830.62 2104.99L830.62 2104.99Q858.67 2104.99 858.67 2070.56L858.67 2070.56L858.67 1554.19L979.80 1543.99L979.80 1573.31Q979.80 1644.71 985.54 1716.11Q991.27 1787.51 1014.86 1851.90Q1038.45 1916.29 1093.27 1967.29L1093.27 1967.29Q1143 2013.19 1197.82 2039.96Q1252.65 2066.74 1297.27 2076.94Q1341.90 2087.14 1361.02 2087.14L1361.02 2087.14Q1378.88 2087.14 1395.45 2082.04Q1412.02 2076.94 1424.14 2057.18Q1436.25 2037.41 1441.99 1994.06Q1447.72 1950.71 1447.72 1876.76L1447.72 1876.76Q1447.72 1847.44 1445.81 1818.75Q1443.90 1790.06 1438.80 1768.39Q1433.70 1746.71 1420.95 1746.71L1420.95 1746.71Q1400.55 1746.71 1390.35 1811.74L1390.35 1811.74Q1378.88 1876.76 1371.22 1912.46Q1363.57 1948.16 1357.84 1962.83Q1352.10 1977.49 1348.91 1980.04Q1345.72 1982.59 1343.17 1982.59L1343.17 1982.59L1339.35 1982.59Q1296.00 1974.94 1243.09 1955.18Q1190.17 1935.41 1147.46 1892.06Q1104.75 1848.71 1092 1788.79L1092 1788.79Q1127.70 1805.36 1171.69 1830.23Q1215.67 1855.09 1265.40 1890.79L1265.40 1890.79Q1283.25 1903.54 1294.72 1903.54L1294.72 1903.54Q1308.75 1903.54 1317.67 1890.15Q1326.60 1876.76 1331.06 1862.74Q1335.52 1848.71 1335.52 1842.34L1335.52 1842.34Q1335.52 1824.49 1310.02 1811.74L1310.02 1811.74Q1257.75 1782.41 1200.38 1754.36L1200.38 1754.36Q1181.25 1745.44 1159.57 1735.24L1159.57 1735.24Q1171.05 1730.14 1187.63 1718.66L1187.63 1718.66Q1213.13 1699.54 1241.81 1670.21Q1270.50 1640.89 1293.45 1610.29ZM1700.17 1167.86L1700.17 1167.86Q1711.65 1167.86 1723.13 1166.59L1723.13 1166.59Q1715.47 1169.14 1707.83 1174.24L1707.83 1174.24Q1683.60 1186.99 1683.60 1203.56L1683.60 1203.56Q1683.60 1212.49 1693.80 1225.24L1693.80 1225.24Q1724.40 1262.21 1755 1314.49L1755 1314.49Q1763.92 1328.51 1774.13 1334.89L1774.13 1334.89Q1622.40 1342.54 1610.92 1342.54L1610.92 1342.54Q1590.53 1342.54 1559.92 1337.44L1559.92 1337.44Q1543.35 1337.44 1543.35 1352.74L1543.35 1352.74Q1543.35 1378.24 1573.95 1406.29L1573.95 1406.29Q1586.70 1419.04 1635.15 1419.04L1635.15 1419.04L2123.47 1397.36Q2159.18 1393.54 2159.18 1374.41L2159.18 1374.41Q2159.18 1366.76 2150.89 1351.46Q2142.60 1336.16 2128.57 1324.05Q2114.55 1311.94 2097.97 1311.94L2097.97 1311.94Q2089.05 1311.94 2076.30 1315.76L2076.30 1315.76Q2054.63 1323.41 2035.50 1323.41L2035.50 1323.41L1974.30 1325.96Q2050.80 1217.59 2050.80 1203.56L2050.80 1203.56Q2050.80 1186.99 2022.75 1166.59L2022.75 1166.59Q2010 1156.39 1998.53 1151.29L1998.53 1151.29Q2120.93 1144.91 2127.30 1142.36L2127.30 1142.36Q2140.05 1138.54 2140.05 1125.79L2140.05 1125.79Q2140.05 1110.49 2119.01 1088.17Q2097.97 1065.86 2075.03 1065.86L2075.03 1065.86Q2067.38 1065.86 2055.90 1068.41L2055.90 1068.41Q2035.50 1074.79 1679.78 1092.64L1679.78 1092.64Q1649.17 1092.64 1617.30 1086.26L1617.30 1086.26Q1600.72 1086.26 1600.72 1101.56L1600.72 1101.56Q1600.72 1114.31 1611.56 1130.89Q1622.40 1147.46 1635.79 1157.66Q1649.17 1167.86 1700.17 1167.86ZM2442.23 2062.91L2442.23 2062.91Q2540.40 2062.91 2607.34 2055.90Q2674.28 2048.89 2703.60 2024.03Q2732.93 1999.16 2738.03 1950.71L2738.03 1950.71Q2746.95 1853.81 2746.95 1781.14L2746.95 1781.14Q2745.68 1716.11 2720.18 1716.11L2720.18 1716.11Q2695.95 1716.11 2687.03 1776.04L2687.03 1776.04Q2666.63 1927.76 2641.13 1946.89L2641.13 1946.89Q2605.43 1971.11 2434.57 1971.11L2434.57 1971.11Q2350.43 1971.11 2319.19 1968.56Q2287.95 1966.01 2279.03 1957.09Q2270.10 1948.16 2270.10 1922.66L2270.10 1922.66L2270.10 1876.76L2588.85 1864.01Q2623.28 1860.19 2623.28 1841.06Q2623.28 1821.94 2599.69 1802.18Q2576.10 1782.41 2565.90 1782.41Q2555.70 1782.41 2541.04 1786.88Q2526.38 1791.34 2270.10 1801.54L2270.10 1801.54L2271.38 1736.51L2569.73 1723.76Q2607.98 1721.21 2607.98 1700.81L2607.98 1700.81Q2607.98 1691.89 2597.14 1678.50Q2586.30 1665.11 2572.28 1654.28Q2558.25 1643.44 2548.05 1643.44Q2537.85 1643.44 2525.10 1647.90Q2512.35 1652.36 2271.38 1663.84L2271.38 1663.84L2271.38 1600.09L2572.28 1586.06Q2610.53 1583.51 2610.53 1564.39L2610.53 1564.39Q2610.53 1550.36 2590.13 1528.05Q2569.73 1505.74 2546.78 1505.74L2546.78 1505.74Q2541.68 1505.74 2526.38 1510.20Q2511.08 1514.66 2272.65 1526.14L2272.65 1526.14L2272.65 1453.46Q2573.55 1440.71 2590.76 1437.53Q2607.98 1434.34 2607.98 1417.76L2607.98 1417.76Q2607.98 1405.01 2579.93 1373.14L2579.93 1373.14Q2602.88 1268.59 2608.61 1261.58Q2614.35 1254.56 2614.35 1240.54Q2614.35 1226.51 2593.95 1210.58Q2573.55 1194.64 2554.43 1194.64L2554.43 1194.64L2280.30 1209.94L2282.85 1134.71L2604.15 1116.86Q2641.13 1114.31 2641.13 1093.91L2641.13 1093.91Q2641.13 1069.69 2615.63 1050.56Q2590.13 1031.44 2577.38 1031.44L2577.38 1031.44Q2565.90 1031.44 2554.43 1035.90Q2542.95 1040.36 2285.40 1058.21L2285.40 1058.21L2289.23 971.51Q2289.23 949.84 2272.65 938.36L2272.65 938.36Q2244.60 917.96 2208.90 917.96L2208.90 917.96Q2166.82 917.96 2166.82 934.54L2166.82 934.54Q2166.82 939.64 2171.93 947.29L2171.93 947.29Q2189.78 968.96 2189.78 1002.11L2189.78 1002.11Q2184.68 1234.16 2182.13 1254.56L2182.13 1254.56Q2182.13 1271.14 2201.89 1281.97Q2221.65 1292.81 2236.95 1292.81L2236.95 1292.81Q2249.70 1292.81 2261.18 1290.26Q2272.65 1287.71 2503.43 1277.51L2503.43 1277.51L2488.13 1365.49L2266.28 1375.69Q2203.80 1350.19 2187.22 1350.19L2187.22 1350.19Q2163 1350.19 2163 1362.94L2163 1362.94Q2163 1369.31 2170.01 1382.70Q2177.03 1396.09 2177.03 1434.34L2177.03 1434.34L2175.75 1940.51Q2175.75 2051.44 2279.03 2059.09L2279.03 2059.09Q2342.78 2062.91 2442.23 2062.91ZM1659.38 2038.69L1659.38 2038.69Q1659.38 2050.16 1681.69 2069.93Q1704 2089.69 1732.05 2089.69Q1760.10 2089.69 1760.10 2051.44L1760.10 2051.44L1763.92 1838.51L1987.05 1830.86L1987.05 1982.59Q1933.50 1964.74 1888.24 1943.06Q1842.97 1921.39 1830.22 1921.39L1830.22 1921.39Q1811.10 1921.39 1811.10 1937.96L1811.10 1937.96Q1811.10 1950.71 1834.05 1973.66L1834.05 1973.66Q1897.80 2037.41 1973.03 2076.94L1973.03 2076.94Q1988.33 2087.14 2012.55 2087.14Q2036.78 2087.14 2058.45 2066.74Q2080.13 2046.34 2080.13 2018.29L2080.13 2018.29Q2078.85 1977.49 2077.57 1533.79L2077.57 1533.79L2083.95 1503.19Q2083.95 1456.01 2012.55 1456.01L2012.55 1456.01L1766.47 1467.49Q1700.17 1440.71 1686.15 1440.71L1686.15 1440.71Q1664.47 1440.71 1664.47 1453.46L1664.47 1453.46Q1664.47 1461.11 1671.49 1482.79Q1678.50 1504.46 1678.50 1538.89L1678.50 1538.89Q1667.03 1995.34 1661.92 2018.29L1661.92 2018.29Q1659.38 2029.76 1659.38 2038.69ZM1987.05 1603.91L1766.47 1614.11L1767.75 1543.99L1985.78 1533.79L1987.05 1603.91ZM1987.05 1755.64L1763.92 1764.56L1765.20 1685.51L1987.05 1676.59L1987.05 1755.64ZM1953.90 1062.04L1953.90 1062.04Q1974.30 1062.04 1984.50 1035.26L1984.50 1035.26Q1990.88 1023.79 1990.88 1012.31L1990.88 1012.31Q1990.88 997.01 1969.20 984.26Q1947.53 971.51 1919.47 960.04Q1891.43 948.56 1862.10 940.28Q1832.78 931.99 1813.01 927.53Q1793.25 923.06 1790.70 923.06L1790.70 923.06Q1777.95 923.06 1763.92 941.55Q1749.90 960.04 1749.90 971.51L1749.90 971.51Q1749.90 990.64 1779.22 998.29L1779.22 998.29Q1841.70 1016.14 1915.65 1049.29L1915.65 1049.29Q1941.15 1062.04 1953.90 1062.04ZM1738.42 1165.31L1738.42 1165.31Q1874.85 1158.94 1964.10 1153.84L1964.10 1153.84Q1960.28 1158.94 1959 1167.86L1959 1167.86Q1956.45 1220.14 1883.78 1329.79L1883.78 1329.79Q1846.80 1331.06 1814.92 1333.61L1814.92 1333.61Q1820.03 1329.79 1825.13 1325.96L1825.13 1325.96Q1842.97 1311.94 1842.97 1297.91L1842.97 1297.91Q1842.97 1290.26 1821.30 1255.84Q1799.63 1221.41 1775.40 1193.36L1775.40 1193.36Q1753.72 1169.14 1738.42 1165.31Z"/>
  </svg>