<svg xmlns="http://www.w3.org/2000/svg" viewBox="0 0 3000 3000" width="3000" height="3000">
    <path fill="#000000" d="M327.00 1123.88L327.00 1085.63L1029.52 1085.63L1029.52 1123.88L327.00 1123.88ZM1004.02 1085.63L1004.02 1085.63L1041 1085.63Q1046.10 1293.45 1060.76 1471.31Q1075.42 1649.18 1107.30 1781.78Q1139.17 1914.38 1194 1988.33Q1248.82 2062.28 1334.25 2062.28L1334.25 2062.28Q1368.67 2061 1382.06 2004.26Q1395.45 1947.53 1400.55 1835.33L1400.55 1835.33Q1406.92 1840.43 1417.76 1844.89Q1428.60 1849.35 1434.97 1851.90L1434.97 1851.90Q1431.15 1944.98 1421.59 1998.53Q1412.02 2052.08 1390.99 2074.39Q1369.95 2096.70 1331.70 2097.97L1331.70 2097.97Q1234.80 2097.97 1173.60 2028.49Q1112.40 1959 1077.34 1827.68Q1042.27 1696.35 1026.34 1509.56Q1010.40 1322.78 1004.02 1085.63ZM1349.55 1200.38L1349.55 1200.38L1387.80 1219.50Q1341.90 1265.40 1285.80 1316.40Q1229.70 1367.40 1172.32 1414.58Q1114.95 1461.75 1063.95 1497.45L1063.95 1497.45L1034.63 1478.33Q1085.63 1442.63 1143.64 1393.54Q1201.65 1344.45 1256.47 1293.45Q1311.30 1242.45 1349.55 1200.38ZM1029.52 1485.97L1029.52 1485.97L1053.75 1460.47Q1116.22 1493.63 1183.16 1535.06Q1250.10 1576.50 1308.11 1618.58Q1366.13 1660.65 1403.10 1695.08L1403.10 1695.08L1378.88 1724.40Q1341.90 1688.70 1283.89 1646.63Q1225.88 1604.55 1158.94 1561.84Q1092 1519.13 1029.52 1485.97ZM1577.78 1359.75L1577.78 1322.78L2692.13 1322.78L2692.13 1359.75L1577.78 1359.75ZM1987.05 997.65L1987.05 997.65L2027.85 998.92Q2020.20 1218.22 1999.80 1392.26Q1979.40 1566.30 1933.50 1701.45Q1887.60 1836.60 1803.45 1939.88Q1719.30 2043.15 1584.15 2120.93L1584.15 2120.93Q1581.60 2115.83 1576.50 2110.09Q1571.40 2104.35 1565.66 2098.61Q1559.92 2092.88 1554.83 2089.05L1554.83 2089.05Q1689.97 2018.93 1772.85 1919.48Q1855.72 1820.03 1899.71 1686.79Q1943.70 1553.55 1962.19 1382.70Q1980.68 1211.85 1987.05 997.65ZM2182.13 2006.18L2182.13 1345.72L2220.38 1345.72L2220.38 2006.18Q2220.38 2039.33 2236.31 2051.44Q2252.25 2063.55 2307.07 2063.55L2307.07 2063.55Q2321.10 2063.55 2361.26 2063.55Q2401.43 2063.55 2450.51 2063.55Q2499.60 2063.55 2541.68 2063.55Q2583.75 2063.55 2602.88 2063.55L2602.88 2063.55Q2630.93 2063.55 2645.59 2052.08Q2660.25 2040.60 2665.99 2008.09Q2671.73 1975.58 2673 1914.38L2673 1914.38Q2681.93 1920.75 2692.13 1925.21Q2702.32 1929.68 2711.25 1932.23L2711.25 1932.23Q2708.70 1997.25 2699.78 2034.23Q2690.85 2071.20 2668.54 2085.86Q2646.23 2100.53 2601.60 2100.53L2601.60 2100.53Q2593.95 2100.53 2564.63 2100.53Q2535.30 2100.53 2495.78 2100.53Q2456.25 2100.53 2416.09 2100.53Q2375.93 2100.53 2346.60 2100.53Q2317.28 2100.53 2310.90 2100.53L2310.90 2100.53Q2262.45 2100.53 2233.76 2092.88Q2205.07 2085.22 2193.60 2064.83Q2182.13 2044.43 2182.13 2006.18L2182.13 2006.18ZM2284.13 1061.40L2284.13 1061.40L2305.80 1039.72Q2347.88 1066.50 2393.14 1100.29Q2438.40 1134.08 2478.56 1166.59Q2518.73 1199.10 2544.23 1224.60L2544.23 1224.60L2521.28 1252.65Q2495.78 1225.88 2455.61 1192.72Q2415.45 1159.58 2370.82 1124.51Q2326.20 1089.45 2284.13 1061.40ZM2537.85 1450.28L2537.85 1450.28L2569.73 1464.30Q2503.43 1585.43 2402.70 1698.90Q2301.98 1812.38 2177.03 1906.09Q2052.07 1999.80 1911.83 2061L1911.83 2061Q1906.72 2054.63 1898.44 2045.70Q1890.15 2036.78 1883.78 2031.68L1883.78 2031.68Q2025.30 1970.48 2149.61 1879.95Q2273.93 1789.43 2373.38 1679.14Q2472.82 1568.85 2537.85 1450.28Z"/>
  </svg>