<svg xmlns="http://www.w3.org/2000/svg" viewBox="0 0 3000 3000" width="3000" height="3000">
    <path fill="#000000" d="M2022 838L2022 822Q2024 790 2046 790L2046 790Q2062 790 2096 806L2096 806Q2182 850 2182 886L2182 886Q2180 896 2164 920L2164 920Q2056 1068 1882 1216L1882 1216Q1862 1234 1842 1250L1842 1250Q1870 1264 1930 1312L1930 1312Q2018 1386 2135 1485Q2252 1584 2252 1615Q2252 1646 2218 1681Q2184 1716 2168 1720Q2152 1724 2126 1694L2126 1694Q2006 1560 1774 1358L1774 1358Q1754 1338 1752 1324L1752 1324Q1752 1324 1752 1324L1752 1324Q1688 1376 1664 1388L1664 1388Q1664 1388 1662 1388L1662 1388Q1690 1576 1750 1734L1750 1734Q1862 2030 2078 2162L2078 2162Q2118 2186 2162 2174L2162 2174Q2180 2170 2230 2042Q2280 1914 2305 1835Q2330 1756 2353 1756Q2376 1756 2372 1832L2372 1832L2370 1860Q2356 1990 2321 2129Q2286 2268 2257 2302Q2228 2336 2149 2336Q2070 2336 1993 2291Q1916 2246 1864 2192L1864 2192Q1606 1928 1542 1504L1542 1504Q1526 1398 1510 1208L1510 1208Q1498 1074 1498 818L1498 818L804 896Q782 898 765 900Q748 902 719 902Q690 902 665 876Q640 850 629 823Q618 796 617 793Q616 790 616 780Q616 770 628 770L628 770Q680 782 718 782L718 782L774 782Q786 782 802 780L802 780L1532 696L1564 694Q1602 694 1632 717Q1662 740 1661 762Q1660 784 1654 800Q1648 816 1644 830L1644 830L1640 856Q1638 1066 1644 1190L1644 1190Q1646 1246 1652 1298L1652 1298Q1654 1296 1658 1292L1658 1292Q2016 944 2022 838L2022 838Z"/>
  </svg>