<svg xmlns="http://www.w3.org/2000/svg" viewBox="0 0 3000 3000" width="3000" height="3000">
    <path fill="#000000" d="M660 910L660 850L1762 850L1762 910L660 910ZM1722 850L1722 850L1780 850Q1788 1176 1811 1455Q1834 1734 1884 1942Q1934 2150 2020 2266Q2106 2382 2240 2382L2240 2382Q2294 2380 2315 2291Q2336 2202 2344 2026L2344 2026Q2354 2034 2371 2041Q2388 2048 2398 2052L2398 2052Q2392 2198 2377 2282Q2362 2366 2329 2401Q2296 2436 2236 2438L2236 2438Q2084 2438 1988 2329Q1892 2220 1837 2014Q1782 1808 1757 1515Q1732 1222 1722 850ZM2264 1030L2264 1030L2324 1060Q2252 1132 2164 1212Q2076 1292 1986 1366Q1896 1440 1816 1496L1816 1496L1770 1466Q1850 1410 1941 1333Q2032 1256 2118 1176Q2204 1096 2264 1030ZM1762 1478L1762 1478L1800 1438Q1898 1490 2003 1555Q2108 1620 2199 1686Q2290 1752 2348 1806L2348 1806L2310 1852Q2252 1796 2161 1730Q2070 1664 1965 1597Q1860 1530 1762 1478Z"/>
  </svg>