<svg xmlns="http://www.w3.org/2000/svg" viewBox="0 0 3000 3000" width="3000" height="3000">
    <path fill="#000000" d="M1764 714L1764 714L1826 714Q1826 1036 1845 1307Q1864 1578 1899 1792Q1934 2006 1986 2155Q2038 2304 2107 2382Q2176 2460 2260 2460L2260 2460Q2306 2460 2328 2373Q2350 2286 2358 2080L2358 2080Q2368 2088 2385 2096Q2402 2104 2414 2108L2414 2108Q2406 2260 2391 2351Q2376 2442 2345 2481Q2314 2520 2256 2520L2256 2520Q2170 2520 2100 2459Q2030 2398 1977 2284Q1924 2170 1884 2009Q1844 1848 1819 1647Q1794 1446 1780 1211Q1766 976 1764 714ZM942 1352L942 1294L1692 1294L1692 1352L942 1352ZM2232 1308L2232 1308L2290 1320Q2192 1742 2006 2036Q1820 2330 1514 2516L1514 2516Q1510 2508 1501 2500Q1492 2492 1484 2483Q1476 2474 1468 2468L1468 2468Q1774 2296 1958 2006Q2142 1716 2232 1308ZM1962 754L1962 754L1998 720Q2080 762 2167 821Q2254 880 2304 928L2304 928L2268 970Q2218 924 2131 862Q2044 800 1962 754ZM790 1078L790 1020L2380 1020L2380 1078L790 1078ZM756 1584L756 1020L814 1020L814 1584Q814 1688 807 1808Q800 1928 782 2052Q764 2176 727 2296Q690 2416 630 2518L630 2518Q626 2512 617 2505Q608 2498 599 2492Q590 2486 582 2484L582 2484Q660 2348 697 2191Q734 2034 745 1876Q756 1718 756 1584L756 1584ZM914 1694L914 1634L1604 1634L1604 1694L914 1694ZM978 1944L978 1944L1026 1904Q1138 1944 1261 2001Q1384 2058 1493 2117Q1602 2176 1672 2226L1672 2226L1626 2272Q1554 2220 1446 2160Q1338 2100 1216 2042Q1094 1984 978 1944ZM1578 1648L1578 1634L1592 1634L1604 1630L1640 1648Q1586 1856 1476 2003Q1366 2150 1219 2243Q1072 2336 910 2386L910 2386Q904 2374 894 2359Q884 2344 874 2334L874 2334Q1030 2290 1172 2203Q1314 2116 1422 1978Q1530 1840 1578 1648L1578 1648ZM1042 1948L978 1944Q1034 1864 1095 1756Q1156 1648 1211 1532Q1266 1416 1302 1316L1302 1316L1360 1326Q1322 1428 1266 1544Q1210 1660 1151 1766Q1092 1872 1042 1948L1042 1948Z"/>
  </svg>