<svg xmlns="http://www.w3.org/2000/svg" viewBox="0 0 3000 3000" width="3000" height="3000">
    <path fill="#000000" d="M1533.20 2378.91Q1458.98 2378.91 1458.98 2300.78L1458.98 2300.78Q1458.98 2259.77 1519.53 2222.66L1519.53 2222.66Q1708.98 2107.42 1837.89 1894.53L1837.89 1894.53Q1716.80 1583.98 1681.64 1023.44L1681.64 1023.44L986.33 1023.44Q917.97 1023.44 917.97 1103.52L917.97 1103.52L921.88 1494.14Q923.83 1855.47 851.56 2109.38L851.56 2109.38Q781.25 2351.56 691.41 2351.56L691.41 2351.56Q607.42 2351.56 607.42 2263.67L607.42 2263.67Q607.42 2244.14 662.11 2128.91L662.11 2128.91Q712.89 2019.53 740.23 1820.31L740.23 1820.31Q763.67 1650.39 763.67 1351.56L763.67 1351.56L757.81 1042.97Q755.86 871.09 935.55 871.09L935.55 871.09L1673.83 871.09L1667.97 693.36Q1666.02 609.38 1748.05 609.38L1748.05 609.38Q1828.13 609.38 1828.13 689.45L1828.13 689.45L1826.17 871.09L2265.63 871.09Q2359.38 871.09 2359.38 947.27L2359.38 947.27Q2359.38 1023.44 2265.63 1023.44L2265.63 1023.44L1837.89 1023.44Q1875 1500 1937.50 1712.89L1937.50 1712.89Q2046.88 1468.75 2082.03 1292.97L2082.03 1292.97Q2099.61 1199.22 2167.97 1199.22L2167.97 1199.22Q2248.05 1199.22 2248.05 1273.44L2248.05 1273.44Q2248.05 1291.02 2175.78 1501.95L2175.78 1501.95Q2103.52 1712.89 2005.86 1900.39L2005.86 1900.39Q2035.16 1970.70 2105.47 2078.13L2105.47 2078.13Q2167.97 2171.88 2203.13 2171.88L2203.13 2171.88Q2220.70 2171.88 2233.40 2129.88Q2246.09 2087.89 2250 2007.81L2250 2007.81Q2255.86 1898.44 2322.27 1898.44L2322.27 1898.44Q2392.58 1898.44 2392.58 1966.80L2392.58 1966.80Q2392.58 2128.91 2345.70 2251.95L2345.70 2251.95Q2298.83 2376.95 2228.52 2376.95L2228.52 2376.95Q2078.13 2376.95 1910.16 2054.69L1910.16 2054.69Q1818.36 2177.73 1707.03 2277.34L1707.03 2277.34Q1593.75 2378.91 1533.20 2378.91L1533.20 2378.91ZM1007.81 2351.56Q937.50 2351.56 937.50 2277.34L937.50 2277.34Q937.50 2222.66 1017.58 2203.13L1017.58 2203.13Q1189.45 2162.11 1294.92 2048.83L1294.92 2048.83Q1244.14 2029.30 1126.95 1998.05L1126.95 1998.05Q1011.72 1968.75 1011.72 1898.44L1011.72 1898.44L1015.63 1873.05L1089.84 1656.25L1035.16 1656.25Q955.08 1656.25 955.08 1589.84L955.08 1589.84Q955.08 1523.44 1031.25 1523.44L1031.25 1523.44L1125 1523.44L1148.44 1425.78Q1167.97 1341.80 1228.52 1341.80L1228.52 1341.80Q1300.78 1341.80 1300.78 1404.30L1300.78 1404.30L1267.58 1523.44L1474.61 1523.44Q1603.52 1523.44 1603.52 1630.86L1603.52 1630.86Q1603.52 1769.53 1507.81 1972.66L1507.81 1972.66L1531.25 1982.42Q1583.98 2003.91 1609.38 2025.39Q1634.77 2046.88 1634.77 2072.27L1634.77 2072.27Q1634.77 2113.28 1617.19 2131.84Q1599.61 2150.39 1562.50 2150.39L1562.50 2150.39Q1544.92 2150.39 1462.89 2117.19L1462.89 2117.19L1433.59 2101.56Q1365.23 2195.31 1236.33 2271.48L1236.33 2271.48Q1103.52 2351.56 1007.81 2351.56L1007.81 2351.56ZM1376.95 1927.73Q1453.13 1757.81 1453.13 1683.59L1453.13 1683.59Q1453.13 1667.97 1446.29 1662.11Q1439.45 1656.25 1421.88 1656.25L1421.88 1656.25L1228.52 1656.25L1177.73 1816.41L1169.92 1849.61Q1164.06 1873.05 1234.38 1882.81L1234.38 1882.81L1376.95 1927.73ZM1052.73 1320.31Q972.66 1320.31 972.66 1250L972.66 1250Q972.66 1179.69 1052.73 1179.69L1052.73 1179.69L1582.03 1179.69Q1660.16 1179.69 1660.16 1250L1660.16 1250Q1660.16 1320.31 1582.03 1320.31L1582.03 1320.31L1052.73 1320.31ZM2128.91 851.56Q2099.61 851.56 2023.44 779.30L2023.44 779.30L1984.38 744.14Q1947.27 710.94 1947.27 685.55L1947.27 685.55Q1947.27 621.09 2019.53 621.09L2019.53 621.09Q2056.64 621.09 2134.77 683.59L2134.77 683.59Q2205.08 740.23 2205.08 783.20L2205.08 783.20Q2205.08 851.56 2128.91 851.56L2128.91 851.56Z"/>
  </svg>