<svg xmlns="http://www.w3.org/2000/svg" viewBox="0 0 3000 3000" width="3000" height="3000">
    <path fill="#000000" d="M821.70 1628.14L821.70 1628.14Q812.77 1658.74 797.47 1696.35Q782.17 1733.96 764.32 1762.01L764.32 1762.01Q747.75 1751.81 724.80 1739.06Q701.85 1726.31 685.27 1717.39L685.27 1717.39Q692.92 1702.09 703.76 1681.69Q714.60 1661.29 722.25 1644.71L722.25 1644.71Q747.75 1640.89 777.07 1635.79Q806.40 1630.69 821.70 1628.14ZM979.80 1549.09L979.80 1549.09L973.42 1549.09L933.90 1552.91Q931.35 1559.29 931.35 1550.36L931.35 1550.36Q931.35 1527.41 902.02 1509.56L902.02 1509.56Q876.52 1492.99 859.95 1492.99L859.95 1492.99Q840.82 1492.99 840.82 1512.11L840.82 1512.11Q840.82 1514.66 841.46 1515.94Q842.10 1517.21 842.10 1519.76L842.10 1519.76Q843.37 1524.86 843.37 1533.15Q843.37 1541.44 842.10 1549.09Q840.82 1556.74 839.55 1559.29L839.55 1559.29L752.85 1564.39Q754.12 1561.84 759.22 1548.45Q764.32 1535.06 769.42 1519.76L769.42 1519.76Q770.70 1515.94 771.34 1512.11Q771.97 1508.29 771.97 1504.46L771.97 1504.46Q771.97 1485.34 755.40 1471.95Q738.82 1458.56 721.61 1450.91Q704.40 1443.26 698.02 1443.26L698.02 1443.26Q678.90 1443.26 678.90 1462.39L678.90 1462.39Q678.90 1464.94 679.54 1466.21Q680.17 1467.49 680.17 1470.04L680.17 1470.04Q681.45 1475.14 681.45 1482.79L681.45 1482.79Q681.45 1492.99 676.99 1512.11Q672.52 1531.24 661.05 1566.94L661.05 1566.94Q647.02 1568.21 629.17 1568.85Q611.32 1569.49 592.20 1569.49L592.20 1569.49Q571.80 1569.49 557.77 1567.58Q543.75 1565.66 529.72 1560.56L529.72 1560.56Q525.90 1559.29 522.07 1559.29L522.07 1559.29Q511.87 1559.29 509.32 1566.94L509.32 1566.94Q514.42 1517.21 518.25 1461.11L518.25 1461.11Q524.62 1361.66 525.90 1283.89L525.90 1283.89L941.55 1258.39Q944.10 1273.69 954.94 1326.60Q965.77 1379.51 982.99 1452.19Q1000.20 1524.86 1025.06 1603.28Q1049.92 1681.69 1079.25 1751.81L1079.25 1751.81Q1041 1818.11 990.00 1880.59Q939.00 1943.06 877.80 2009.36L877.80 2009.36Q863.77 2022.11 858.04 2034.23Q852.30 2046.34 852.30 2053.99L852.30 2053.99Q852.30 2070.56 868.87 2070.56L868.87 2070.56Q881.62 2070.56 910.31 2050.80Q939.00 2031.04 975.97 1997.25Q1012.95 1963.46 1053.11 1920.11Q1093.27 1876.76 1120.05 1838.51L1120.05 1838.51Q1163.40 1929.04 1203.56 1985.14Q1243.72 2041.24 1273.69 2064.83Q1303.65 2088.41 1321.50 2097.34L1321.50 2097.34Q1341.90 2104.99 1358.47 2104.99L1358.47 2104.99Q1414.57 2104.99 1424.77 2036.14L1424.77 2036.14Q1447.72 1890.79 1447.72 1755.64L1447.72 1755.64Q1447.72 1708.46 1424.14 1708.46Q1400.55 1708.46 1394.17 1750.54L1394.17 1750.54Q1372.50 1879.31 1334.25 1986.41L1334.25 1986.41L1334.25 1988.96Q1332.97 1988.96 1334.25 1990.24L1334.25 1990.24Q1290.90 1953.26 1252.65 1888.88Q1214.40 1824.49 1182.52 1750.54L1182.52 1750.54Q1224.60 1679.14 1261.57 1593.71Q1298.55 1508.29 1329.15 1411.39L1329.15 1411.39Q1330.42 1407.56 1330.42 1401.19L1330.42 1401.19Q1330.42 1383.34 1311.94 1368.04Q1293.45 1352.74 1273.05 1343.18Q1252.65 1333.61 1241.17 1333.61L1241.17 1333.61Q1219.50 1333.61 1219.50 1356.56L1219.50 1356.56Q1219.50 1359.11 1220.14 1361.66Q1220.77 1364.21 1220.77 1366.76L1220.77 1366.76Q1223.32 1375.69 1223.32 1383.34Q1223.32 1390.99 1223.32 1398.64L1223.32 1398.64Q1223.32 1417.76 1209.30 1463.03Q1195.27 1508.29 1174.88 1562.47Q1154.47 1616.66 1137.90 1647.26L1137.90 1647.26Q1100.92 1546.54 1074.79 1438.16Q1048.65 1329.79 1033.35 1254.56L1033.35 1254.56L1330.42 1236.71Q1341.90 1235.44 1353.38 1228.43Q1364.85 1221.41 1364.85 1207.39L1364.85 1207.39Q1364.85 1197.19 1352.74 1181.89Q1340.63 1166.59 1324.05 1153.84Q1307.47 1141.09 1289.62 1141.09L1289.62 1141.09Q1283.25 1141.09 1274.32 1143.64L1274.32 1143.64Q1260.30 1148.74 1245 1151.92Q1229.70 1155.11 1216.95 1156.39L1216.95 1156.39L1018.05 1167.86Q1010.40 1123.24 1003.39 1073.51Q996.37 1023.79 991.27 974.06L991.27 974.06Q990.00 954.94 972.15 943.46Q954.30 931.99 934.54 927.53Q914.77 923.06 900.75 923.06L900.75 923.06Q876.52 923.06 876.52 939.64L876.52 939.64Q876.52 946.01 885.45 958.76L885.45 958.76Q898.20 975.34 902.02 1000.84L902.02 1000.84Q907.12 1044.19 913.50 1088.81Q919.87 1133.44 927.52 1172.96L927.52 1172.96L527.17 1195.91Q450.67 1152.56 429.00 1152.56L429.00 1152.56Q408.60 1152.56 408.60 1174.24L408.60 1174.24Q408.60 1180.61 411.15 1189.54Q413.70 1198.46 416.25 1208.66L416.25 1208.66Q422.62 1225.24 424.54 1243.72Q426.45 1262.21 426.45 1282.61L426.45 1282.61Q426.45 1473.86 407.96 1609.01Q389.47 1744.16 363.34 1834.05Q337.20 1923.94 312.34 1976.21Q287.47 2028.49 272.17 2053.99L272.17 2053.99Q260.70 2070.56 260.70 2084.59L260.70 2084.59Q260.70 2101.16 272.17 2101.16Q283.65 2101.16 312.34 2075.66Q341.02 2050.16 376.72 1995.34Q412.42 1940.51 446.21 1853.18Q480.00 1765.84 499.12 1640.89L499.12 1640.89Q504.22 1610.29 508.05 1575.86L508.05 1575.86Q508.05 1578.41 510.60 1583.51L510.60 1583.51Q528.45 1635.79 547.57 1647.90Q566.70 1660.01 585.82 1660.01L585.82 1660.01Q592.20 1660.01 600.49 1659.38Q608.77 1658.74 617.70 1657.46L617.70 1657.46L627.90 1656.19L613.87 1686.79Q608.77 1696.99 602.40 1706.55Q596.02 1716.11 596.02 1728.86L596.02 1728.86Q596.02 1736.51 599.85 1747.99L599.85 1747.99Q610.05 1768.39 627.90 1774.13Q645.75 1779.86 659.77 1787.51L659.77 1787.51Q676.35 1796.44 692.92 1807.91Q709.50 1819.39 718.42 1825.76L718.42 1825.76Q650.85 1908.64 510.60 1981.31L510.60 1981.31Q481.27 1995.34 481.27 2011.91Q481.27 2028.49 505.50 2028.49L505.50 2028.49Q513.15 2028.49 543.75 2019.56Q574.35 2010.64 617.70 1990.88Q661.05 1971.11 706.95 1941.15Q752.85 1911.19 786.00 1872.94L786.00 1872.94Q801.30 1885.69 821.06 1902.90Q840.82 1920.11 861.22 1939.24L861.22 1939.24Q867.60 1944.34 874.61 1948.80Q881.62 1953.26 889.27 1953.26L889.27 1953.26Q907.12 1953.26 926.25 1922.66L926.25 1922.66Q936.45 1908.64 936.45 1895.89L936.45 1895.89Q936.45 1889.51 930.71 1879.31Q924.97 1869.11 903.30 1850.63Q881.62 1832.14 837.00 1805.36L837.00 1805.36Q888.00 1726.31 919.87 1609.01L919.87 1609.01Q968.32 1600.09 987.45 1590.53Q1006.57 1580.96 1006.57 1568.21L1006.57 1568.21Q1006.57 1549.09 979.80 1549.09ZM636.82 1440.71L636.82 1440.71L923.70 1422.86Q935.17 1421.59 946.01 1416.49Q956.85 1411.39 956.85 1397.36L956.85 1397.36Q956.85 1382.06 943.46 1367.40Q930.07 1352.74 914.77 1343.81Q899.47 1334.89 889.27 1334.89L889.27 1334.89Q885.45 1334.89 882.26 1335.53Q879.07 1336.16 876.52 1337.44L876.52 1337.44Q859.95 1343.81 835.72 1346.36L835.72 1346.36L621.52 1360.39L608.77 1360.39Q597.30 1360.39 585.82 1359.11Q574.35 1357.84 565.42 1355.29L565.42 1355.29Q560.32 1354.01 553.95 1354.01L553.95 1354.01Q539.92 1354.01 539.92 1368.04L539.92 1368.04Q539.92 1370.59 542.47 1379.51L542.47 1379.51Q557.77 1420.31 572.44 1431.15Q587.10 1441.99 608.77 1441.99L608.77 1441.99Q615.15 1441.99 621.52 1441.99Q627.90 1441.99 636.82 1440.71ZM1205.47 1147.46L1205.47 1147.46Q1219.50 1147.46 1235.44 1126.42Q1251.37 1105.39 1251.37 1086.26L1251.37 1086.26Q1251.37 1072.24 1232.89 1056.30Q1214.40 1040.36 1187.63 1023.79Q1160.85 1007.21 1133.44 993.19Q1106.02 979.16 1084.35 969.60Q1062.67 960.04 1055.02 960.04L1055.02 960.04Q1033.35 960.04 1023.79 981.07Q1014.22 1002.11 1014.22 1009.76L1014.22 1009.76Q1014.22 1021.24 1020.60 1028.89Q1026.97 1036.54 1035.90 1041.64L1035.90 1041.64Q1066.50 1058.21 1105.39 1082.44Q1144.27 1106.66 1174.88 1132.16L1174.88 1132.16Q1194 1147.46 1205.47 1147.46ZM1929.68 1489.16L1929.68 1489.16L1936.05 1881.86L1849.35 1904.81L1844.25 1592.44Q1844.25 1574.59 1830.86 1565.66Q1817.47 1556.74 1797.08 1551.64L1797.08 1551.64Q1767.75 1543.99 1752.45 1543.99L1752.45 1543.99Q1732.05 1543.99 1732.05 1559.29L1732.05 1559.29Q1732.05 1565.66 1735.88 1570.76L1735.88 1570.76Q1746.08 1587.34 1749.90 1598.81Q1753.72 1610.29 1753.72 1623.04L1753.72 1623.04L1760.10 1925.21Q1734.60 1932.86 1698.90 1938.60Q1663.20 1944.34 1637.70 1944.34L1637.70 1944.34Q1613.47 1944.34 1613.47 1962.19L1613.47 1962.19Q1613.47 1969.84 1623.67 1988.96Q1633.88 2008.09 1653 2024.66Q1672.13 2041.24 1696.35 2041.24L1696.35 2041.24Q1704 2041.24 1769.03 2025.30Q1834.05 2009.36 1953.90 1967.29Q2073.75 1925.21 2245.88 1843.61L2245.88 1843.61Q2285.40 1825.76 2285.40 1804.09L2285.40 1804.09Q2285.40 1784.96 2258.63 1784.96L2258.63 1784.96Q2247.15 1784.96 2226.75 1791.34L2226.75 1791.34Q2171.93 1811.74 2119.65 1828.31Q2067.38 1844.89 2026.58 1857.64L2026.58 1857.64L2024.03 1670.21L2178.30 1658.74Q2193.60 1657.46 2206.35 1653Q2219.10 1648.54 2219.10 1634.51L2219.10 1634.51Q2219.10 1625.59 2208.26 1610.29Q2197.43 1594.99 2181.49 1582.24Q2165.55 1569.49 2148.97 1569.49L2148.97 1569.49Q2143.88 1569.49 2132.40 1572.04L2132.40 1572.04Q2119.65 1577.14 2106.26 1579.05Q2092.88 1580.96 2078.85 1582.24L2078.85 1582.24L2022.75 1587.34L2021.47 1458.56Q2021.47 1440.71 2007.45 1431.79Q1993.43 1422.86 1973.03 1417.76L1973.03 1417.76Q1943.70 1410.11 1928.40 1410.11L1928.40 1410.11Q1908 1410.11 1908 1425.41L1908 1425.41Q1908 1431.79 1911.83 1436.89L1911.83 1436.89Q1922.03 1453.46 1925.85 1464.94Q1929.68 1476.41 1929.68 1489.16ZM1855.72 1215.04L1855.72 1215.04L2105.63 1198.46Q2120.93 1197.19 2133.68 1192.09Q2146.43 1186.99 2146.43 1172.96L2146.43 1172.96Q2146.43 1165.31 2137.50 1151.29Q2128.57 1137.26 2113.28 1123.88Q2097.97 1110.49 2077.57 1110.49L2077.57 1110.49Q2073.75 1110.49 2069.29 1111.13Q2064.82 1111.76 2059.72 1113.04L2059.72 1113.04Q2046.97 1118.14 2033.59 1119.41Q2020.20 1120.69 2007.45 1121.96L2007.45 1121.96L1831.50 1133.44L1817.47 1133.44Q1802.17 1133.44 1790.70 1131.53Q1779.22 1129.61 1767.75 1127.06L1767.75 1127.06Q1763.92 1125.79 1757.55 1125.79L1757.55 1125.79Q1740.97 1125.79 1740.97 1141.09Q1740.97 1156.39 1750.54 1171.05Q1760.10 1185.71 1770.30 1195.28Q1780.50 1204.84 1781.78 1207.39L1781.78 1207.39Q1793.25 1215.04 1804.72 1215.04L1804.72 1215.04Q1809.83 1216.31 1822.58 1216.31L1822.58 1216.31Q1828.95 1216.31 1837.24 1216.31Q1845.53 1216.31 1855.72 1215.04ZM2503.43 1240.54L2503.43 1240.54Q2518.73 1240.54 2529.56 1227.15Q2540.40 1213.76 2546.78 1199.74Q2553.15 1185.71 2553.15 1180.61L2553.15 1180.61Q2553.15 1167.86 2533.39 1147.46Q2513.63 1127.06 2486.21 1104.11Q2458.80 1081.16 2429.48 1060.76Q2400.15 1040.36 2378.48 1026.34Q2356.80 1012.31 2347.88 1012.31L2347.88 1012.31Q2331.30 1012.31 2316 1031.44L2316 1031.44Q2303.25 1046.74 2303.25 1059.49L2303.25 1059.49Q2303.25 1074.79 2323.65 1090.09L2323.65 1090.09Q2360.63 1118.14 2400.15 1151.29Q2439.68 1184.44 2472.82 1221.41L2472.82 1221.41Q2489.40 1240.54 2503.43 1240.54ZM2729.10 1767.11L2729.10 1767.11L2729.10 1754.36Q2729.10 1708.46 2707.43 1708.46Q2685.75 1708.46 2674.28 1760.74L2674.28 1760.74Q2667.90 1796.44 2658.34 1835.96Q2648.78 1875.49 2638.57 1911.83Q2628.38 1948.16 2621.36 1968.56Q2614.35 1988.96 2613.07 1988.96Q2611.80 1988.96 2584.39 1962.19Q2556.98 1935.41 2514.90 1877.40Q2472.82 1819.39 2430.11 1730.14Q2387.40 1640.89 2354.25 1517.21L2354.25 1517.21Q2345.32 1485.34 2337.04 1446.45Q2328.75 1407.56 2321.10 1373.14L2321.10 1373.14L2625.82 1356.56Q2642.40 1355.29 2654.51 1349.55Q2666.63 1343.81 2666.63 1329.79L2666.63 1329.79Q2666.63 1320.86 2655.15 1304.93Q2643.68 1288.99 2627.10 1275.60Q2610.53 1262.21 2591.40 1262.21L2591.40 1262.21Q2587.57 1262.21 2583.11 1262.85Q2578.65 1263.49 2573.55 1264.76L2573.55 1264.76Q2559.53 1269.86 2544.86 1271.78Q2530.20 1273.69 2514.90 1274.96L2514.90 1274.96L2304.53 1286.44Q2293.05 1220.14 2281.57 1139.17Q2270.10 1058.21 2259.90 971.51L2259.90 971.51Q2258.63 951.11 2248.43 940.28Q2238.22 929.44 2208.90 924.34L2208.90 924.34Q2197.43 921.79 2187.22 920.51Q2177.03 919.24 2169.38 919.24L2169.38 919.24Q2138.78 919.24 2138.78 938.36L2138.78 938.36Q2138.78 944.74 2146.43 956.21L2146.43 956.21Q2156.63 966.41 2162.36 981.07Q2168.10 995.74 2170.65 1017.41L2170.65 1017.41Q2188.50 1162.76 2210.18 1290.26L2210.18 1290.26L1677.22 1319.59L1660.65 1319.59Q1636.42 1319.59 1618.58 1314.49L1618.58 1314.49Q1613.47 1313.21 1605.83 1313.21L1605.83 1313.21Q1589.25 1313.21 1589.25 1328.51Q1589.25 1343.81 1604.55 1365.49Q1619.85 1387.16 1636.42 1398.64L1636.42 1398.64Q1646.63 1405.01 1682.33 1405.01L1682.33 1405.01L1702.72 1405.01L2226.75 1376.96Q2235.68 1419.04 2245.24 1463.66Q2254.80 1508.29 2263.73 1549.09L2263.73 1549.09Q2281.57 1624.31 2314.09 1703.36Q2346.60 1782.41 2386.76 1853.81Q2426.93 1925.21 2470.91 1982.59Q2514.90 2039.96 2557.61 2074.39Q2600.32 2108.81 2636.03 2108.81L2636.03 2108.81Q2685.75 2108.81 2698.50 2036.14L2698.50 2036.14Q2711.25 1967.29 2718.26 1904.81Q2725.28 1842.34 2729.10 1767.11Z"/>
  </svg>