<svg xmlns="http://www.w3.org/2000/svg" viewBox="0 0 3000 3000" width="3000" height="3000">
    <path fill="#000000" d="M1868 920L1868 920Q1790 838 1790 825Q1790 812 1819 797Q1848 782 1858 771Q1868 760 1873 761Q1878 762 1912 776L1912 776Q1948 794 1992 806L1992 806Q2030 812 2048 829Q2066 846 2076 884L2076 884Q2092 946 2024 980L2024 980Q1978 1002 1955 994Q1932 986 1868 920ZM1504 668L1504 668Q1516 658 1518 658L1518 658Q1526 658 1553 684Q1580 710 1596 728L1596 728Q1610 754 1615 786Q1620 818 1620 898L1620 898Q1620 914 1620 921Q1620 928 1622 933Q1624 938 1626 939Q1628 940 1630 938L1630 938Q1644 934 1658 942Q1672 950 1730 960L1730 960Q1832 976 1860 1006L1860 1006Q1888 1044 1846 1100L1846 1100Q1822 1136 1807 1136Q1792 1136 1748 1120Q1704 1104 1674 1104L1674 1104L1646 1104L1650 1144Q1652 1200 1670 1300Q1688 1400 1700 1408L1700 1408Q1706 1416 1706 1441Q1706 1466 1716 1488L1716 1488Q1752 1556 1752 1582L1752 1582Q1752 1596 1763 1610Q1774 1624 1774 1644L1774 1644Q1774 1662 1782 1660L1782 1660Q1794 1658 1804 1626L1804 1626Q1836 1512 1856 1420L1856 1420Q1868 1358 1882 1342L1882 1342L1896 1326L1936 1358Q1996 1410 2028 1471Q2060 1532 2034 1552L2034 1552Q2024 1560 2014 1594L2014 1594Q1976 1726 1938 1804L1938 1804L1904 1874L1946 1938Q1980 1988 2048 2061Q2116 2134 2150 2160L2150 2160Q2206 2198 2256 2214Q2306 2230 2320 2214L2320 2214Q2328 2202 2360 2118L2360 2118Q2366 2104 2374 2060L2374 2060L2380 2018L2400 2038Q2420 2060 2420 2099Q2420 2138 2436 2182Q2452 2226 2459 2299Q2466 2372 2454 2392L2454 2392Q2440 2414 2425 2422Q2410 2430 2376 2434L2376 2434Q2334 2440 2324 2446L2324 2446Q2316 2452 2270 2441Q2224 2430 2184 2414L2184 2414Q2026 2340 1840 2108L1840 2108Q1802 2060 1796 2060L1796 2060Q1790 2060 1726 2130L1726 2130Q1714 2144 1714 2150L1714 2150Q1712 2170 1658 2208L1658 2208Q1628 2228 1598 2256Q1568 2284 1563 2284Q1558 2284 1518 2312L1518 2312Q1490 2330 1450 2346Q1410 2362 1394 2362L1394 2362Q1368 2362 1398 2326L1398 2326Q1408 2316 1418 2304L1418 2304Q1458 2270 1460 2261Q1462 2252 1436 2232L1436 2232Q1402 2202 1359 2162Q1316 2122 1311 2122Q1306 2122 1243 2145Q1180 2168 1161 2168Q1142 2168 1126 2178L1126 2178Q1104 2188 1056 2197Q1008 2206 996 2200L996 2200Q980 2194 992 2186L992 2186Q998 2182 1012 2176L1012 2176Q1064 2148 1127 2110Q1190 2072 1204 2058L1204 2058Q1220 2040 1214 2030Q1208 2020 1170 2002L1170 2002Q1140 1986 1134 1964L1134 1964Q1118 1896 1144 1850L1144 1850Q1156 1826 1152 1823Q1148 1820 1124 1830L1124 1830Q1088 1846 1066 1868Q1044 1890 1024 1934L1024 1934Q996 1990 996 2000L996 2000Q996 2022 862 2164Q728 2306 688 2324L688 2324Q662 2336 642 2354L642 2354Q624 2372 592 2389Q560 2406 546 2406L546 2406Q534 2406 544 2392L544 2392Q544 2390 546 2386L546 2386Q568 2354 636 2282L636 2282Q674 2242 738 2157Q802 2072 818 2040L818 2040Q928 1828 928 1760L928 1760Q928 1742 936 1682L936 1682Q964 1450 964 1344L964 1344Q964 1306 968 1298Q972 1290 984 1290L984 1290Q998 1290 1024 1309Q1050 1328 1050 1338L1050 1338Q1050 1348 1066 1377Q1082 1406 1082 1418L1082 1418Q1082 1440 1100 1456L1100 1456Q1104 1460 1104 1454L1104 1454Q1104 1432 1292 1370L1292 1370Q1378 1342 1388 1332Q1398 1322 1456 1323Q1514 1324 1517 1320Q1520 1316 1509 1271Q1498 1226 1498 1186Q1498 1146 1488 1132L1488 1132Q1478 1122 1468 1122Q1458 1122 1412 1132L1412 1132Q1348 1144 1314 1160Q1280 1176 1270 1176Q1260 1176 1236 1194L1236 1194Q1218 1208 1210 1210Q1202 1212 1184 1204L1184 1204Q1154 1194 1106 1161Q1058 1128 1054 1114L1054 1114Q1044 1080 1069 1067Q1094 1054 1198 1040L1198 1040Q1276 1028 1291 1024Q1306 1020 1392 1004L1392 1004L1478 992L1476 880Q1474 688 1504 668ZM1498 1460L1498 1460Q1454 1452 1440 1452L1440 1452Q1386 1458 1376 1462Q1366 1466 1362 1488L1362 1488Q1358 1512 1370 1536L1370 1536Q1394 1584 1366 1648L1366 1648Q1350 1686 1354 1690L1354 1690Q1360 1696 1382 1686Q1404 1676 1410 1664L1410 1664Q1416 1648 1432 1651Q1448 1654 1504 1660Q1560 1666 1568 1672L1568 1672Q1574 1678 1586 1682Q1598 1686 1605 1687Q1612 1688 1614 1682L1614 1682Q1614 1678 1606 1670L1606 1670Q1598 1662 1550 1498L1550 1498Q1544 1478 1536 1472Q1528 1466 1498 1460ZM1126 1486L1126 1486Q1110 1460 1106 1502L1106 1502Q1104 1524 1104 1574L1104 1574Q1104 1676 1092 1700L1092 1700Q1082 1720 1085 1740Q1088 1760 1102 1760L1102 1760Q1112 1760 1137 1750Q1162 1740 1190 1734L1190 1734Q1224 1728 1239 1699Q1254 1670 1276 1564L1276 1564Q1290 1510 1302 1500L1302 1500Q1312 1494 1311 1492Q1310 1490 1300 1490L1300 1490Q1286 1490 1260 1510Q1234 1530 1210 1530L1210 1530Q1194 1530 1164 1514Q1134 1498 1126 1486ZM1714 1900L1714 1900Q1714 1884 1702 1875Q1690 1866 1690 1858Q1690 1850 1659 1785Q1628 1720 1622 1721Q1616 1722 1601 1741Q1586 1760 1554 1764L1554 1764Q1530 1768 1526 1772Q1522 1776 1522 1798L1522 1798Q1522 1820 1489 1889Q1456 1958 1430 1984L1430 1984L1412 2006L1456 2036Q1502 2066 1534 2094L1534 2094Q1560 2116 1566 2118Q1572 2120 1584 2110L1584 2110Q1620 2076 1667 2001Q1714 1926 1714 1900ZM1390 1780L1390 1780Q1390 1768 1332 1780L1332 1780Q1314 1782 1301 1814Q1288 1846 1264 1866L1264 1866Q1230 1902 1262 1914L1262 1914Q1282 1920 1286 1928L1286 1928Q1294 1942 1309 1935Q1324 1928 1340 1906L1340 1906Q1354 1884 1372 1840Q1390 1796 1390 1780Z"/>
  </svg>