<svg xmlns="http://www.w3.org/2000/svg" viewBox="0 0 3000 3000" width="3000" height="3000">
    <path fill="#000000" d="M1230.97 1357.20L1230.97 1334.25L1227.15 1308.75Q1227.15 1293.45 1241.17 1293.45L1241.17 1293.45Q1267.95 1293.45 1295.36 1316.40Q1322.77 1339.35 1322.77 1348.91Q1322.77 1358.47 1306.84 1408.20Q1290.90 1457.93 1254.56 1542.71Q1218.22 1627.50 1173.60 1702.73L1173.60 1702.73Q1255.20 1886.33 1329.15 1947.53L1329.15 1947.53Q1330.42 1948.80 1335.52 1948.80Q1340.63 1948.80 1341.90 1941.15L1341.90 1941.15Q1380.15 1834.05 1401.82 1704L1401.82 1704Q1406.92 1668.30 1423.50 1668.30Q1440.07 1668.30 1440.07 1707.83L1440.07 1707.83Q1440.07 1842.98 1417.13 1987.05L1417.13 1987.05Q1408.20 2049.53 1358.47 2049.53L1358.47 2049.53Q1292.17 2049.53 1209.30 1933.50L1209.30 1933.50Q1169.77 1877.40 1121.32 1775.40L1121.32 1775.40Q1056.30 1867.20 974.06 1941.15Q891.82 2015.10 868.87 2015.10L868.87 2015.10Q859.95 2015.10 859.95 2002.35Q859.95 1989.60 882.90 1966.65L882.90 1966.65Q1020.60 1821.30 1088.17 1704L1088.17 1704Q998.92 1492.35 947.92 1202.93L947.92 1202.93L518.25 1228.43Q513.15 1610.93 439.20 1802.18L439.20 1802.18Q406.05 1888.88 370.35 1943.06Q334.65 1997.25 307.87 2021.48Q281.10 2045.70 274.72 2045.70Q268.35 2045.70 268.35 2035.50Q268.35 2025.30 281.10 2004.90L281.10 2004.90Q332.10 1923.30 370.35 1788.15L370.35 1788.15Q434.10 1570.13 434.10 1234.80L434.10 1234.80Q434.10 1186.35 425.17 1159.58Q416.25 1132.80 416.25 1126.42L416.25 1126.42Q416.25 1112.40 432.19 1112.40Q448.12 1112.40 525.90 1155.75L525.90 1155.75L936.45 1132.80Q921.15 1049.92 909.67 951.75L909.67 951.75Q905.85 924.98 895.01 910.31Q884.17 895.65 884.17 891.83L884.17 891.83Q884.17 882.90 898.84 882.90Q913.50 882.90 932.62 888L932.62 888Q981.07 898.20 983.62 927.52L983.62 927.52Q993.82 1024.42 1011.67 1127.70L1011.67 1127.70L1216.95 1116.22Q1250.10 1113.67 1267.31 1107.30Q1284.52 1100.92 1294.72 1100.92Q1304.92 1100.92 1320.22 1112.40L1320.22 1112.40Q1357.20 1140.45 1357.20 1160.85L1357.20 1160.85Q1357.20 1177.43 1329.15 1181.25L1329.15 1181.25L1024.42 1199.10Q1072.88 1447.72 1136.63 1618.58L1136.63 1618.58Q1182.52 1528.05 1206.75 1449.64Q1230.97 1371.22 1230.97 1357.20L1230.97 1357.20ZM1039.72 987.45L1039.72 987.45Q1021.87 975.98 1021.87 965.77Q1021.87 955.58 1030.16 937.73Q1038.45 919.88 1049.92 919.88Q1061.40 919.88 1097.74 935.81Q1134.07 951.75 1188.90 986.17Q1243.72 1020.60 1243.72 1037.81Q1243.72 1055.03 1229.70 1073.51Q1215.67 1092 1206.11 1092Q1196.55 1092 1160.85 1062.67Q1125.15 1033.35 1039.72 987.45ZM922.42 1367.40L635.55 1385.25Q627.90 1386.53 621.52 1386.53L621.52 1386.53L602.40 1386.53Q570.52 1386.53 556.50 1344.45L556.50 1344.45Q547.57 1321.50 547.57 1317.68Q547.57 1313.85 553.31 1313.85Q559.05 1313.85 570.52 1317.04Q582.00 1320.22 608.77 1320.22L608.77 1320.22L621.52 1320.22L835.72 1306.20Q861.22 1303.65 873.34 1299.19Q885.45 1294.72 891.19 1294.72Q896.92 1294.72 910.95 1303.65L910.95 1303.65Q949.20 1325.33 949.20 1349.55L949.20 1349.55Q949.20 1363.58 922.42 1367.40L922.42 1367.40ZM741.37 1525.50L845.92 1519.13Q851.02 1501.28 851.02 1489.16Q851.02 1477.05 849.75 1464.94Q848.47 1452.83 859.95 1452.83L859.95 1452.83Q873.97 1452.83 898.84 1468.13Q923.70 1483.43 923.70 1502.55L923.70 1502.55Q923.70 1510.20 922.42 1514.03L922.42 1514.03L973.42 1508.93L979.80 1508.93Q998.92 1508.93 998.92 1520.40L998.92 1520.40Q998.92 1538.25 913.50 1554.83L913.50 1554.83Q880.35 1675.95 826.80 1760.10L826.80 1760.10Q928.80 1822.58 928.80 1848.08L928.80 1848.08Q928.80 1858.28 916.05 1878.04Q903.30 1897.80 891.82 1897.80Q880.35 1897.80 843.37 1864.65Q806.40 1831.50 784.72 1814.93L784.72 1814.93Q719.70 1888.88 625.99 1930.95Q532.27 1973.03 510.60 1973.03Q488.92 1973.03 488.92 1964.10L488.92 1964.10Q488.92 1952.63 514.42 1939.88L514.42 1939.88Q655.95 1867.20 729.90 1776.68L729.90 1776.68Q713.32 1765.20 696.75 1753.73Q680.17 1742.25 664.87 1733.33Q649.57 1724.40 632.36 1719.30Q615.15 1714.20 609.41 1700.81Q603.67 1687.43 603.67 1679.14Q603.67 1670.85 609.41 1661.93Q615.15 1653 620.25 1642.80L620.25 1642.80L640.65 1598.18L616.42 1602Q598.57 1604.55 583.91 1604.55Q569.25 1604.55 552.04 1593.71Q534.82 1582.88 518.25 1533.15L518.25 1533.15Q515.70 1528.05 515.70 1523.59Q515.70 1519.13 520.16 1519.13Q524.62 1519.13 538.65 1524.22Q552.67 1529.33 590.29 1529.33Q627.90 1529.33 666.15 1526.78L666.15 1526.78Q689.10 1460.47 689.10 1443.90Q689.10 1427.33 687.82 1415.21Q686.55 1403.10 698.02 1403.10L698.02 1403.10Q703.12 1403.10 719.70 1410.75L719.70 1410.75Q764.32 1429.88 764.32 1456.65L764.32 1456.65Q764.32 1461.75 741.37 1525.50L741.37 1525.50ZM833.17 1570.13L833.17 1570.13Q755.40 1584.15 717.15 1589.25L717.15 1589.25Q708.22 1609.65 697.39 1630.05Q686.55 1650.45 675.07 1672.13L675.07 1672.13Q698.02 1684.88 720.97 1697.63Q743.92 1710.38 766.87 1724.40L766.87 1724.40Q806.40 1661.93 833.17 1570.13ZM2721.45 1706.55L2721.45 1719.30Q2713.80 1860.83 2690.85 1987.05L2690.85 1987.05Q2679.38 2053.35 2636.03 2053.35L2636.03 2053.35Q2571 2053.35 2478.56 1932.23Q2386.13 1811.10 2321.10 1653L2321.10 1653Q2289.23 1573.95 2273.93 1508.93Q2258.63 1443.90 2233.13 1321.50L2233.13 1321.50L1702.72 1349.55L1682.33 1349.55Q1649.17 1349.55 1637.06 1341.90Q1624.95 1334.25 1610.92 1313.85Q1596.90 1293.45 1596.90 1283.25Q1596.90 1273.05 1604.55 1273.05Q1612.20 1273.05 1623.67 1276.24Q1635.15 1279.43 1660.65 1279.43L1660.65 1279.43L1677.22 1279.43L2219.10 1250.10Q2196.15 1113.67 2185.95 1029.53Q2175.75 945.38 2169.38 930.07Q2163 914.77 2154.71 904.57Q2146.43 894.38 2146.43 890.55L2146.43 890.55Q2146.43 879.08 2161.72 879.08L2161.72 879.08Q2225.47 879.08 2242.05 898.20L2242.05 898.20Q2250.97 907.13 2257.35 959.40L2257.35 959.40Q2271.38 1094.55 2298.15 1246.28L2298.15 1246.28L2514.90 1234.80Q2554.43 1232.25 2569.09 1227.15Q2583.75 1222.05 2595.86 1222.05Q2607.98 1222.05 2623.28 1234.16Q2638.57 1246.28 2648.78 1260.94Q2658.98 1275.60 2658.98 1283.25L2658.98 1283.25Q2658.98 1298.55 2625.82 1301.10L2625.82 1301.10L2312.18 1317.68Q2335.13 1429.88 2357.44 1512.75Q2379.75 1595.63 2423.10 1685.51Q2466.45 1775.40 2508.53 1834.05Q2550.60 1892.70 2579.93 1920.75Q2609.25 1948.80 2614.35 1948.80L2614.35 1948.80Q2623.28 1948.80 2646.23 1865.93Q2669.18 1783.05 2680.65 1725.68Q2692.13 1668.30 2706.79 1668.30Q2721.45 1668.30 2721.45 1706.55L2721.45 1706.55ZM2328.75 1035.90L2328.75 1035.90Q2310.90 1023.15 2310.90 1012.31Q2310.90 1001.48 2323.01 986.81Q2335.13 972.15 2344.05 972.15L2344.05 972.15Q2365.73 972.15 2481.75 1061.40L2481.75 1061.40Q2545.50 1114.95 2545.50 1131.53Q2545.50 1148.10 2530.20 1166.59Q2514.90 1185.08 2504.06 1185.08Q2493.23 1185.08 2458.16 1146.19Q2423.10 1107.30 2328.75 1035.90ZM2105.63 1143L1854.45 1159.58Q1845.53 1160.85 1836.60 1160.85L1836.60 1160.85L1822.58 1160.85Q1798.35 1160.85 1788.15 1154.47L1788.15 1154.47Q1786.88 1151.92 1767.75 1134.08Q1748.63 1116.22 1748.63 1093.28L1748.63 1093.28Q1748.63 1085.63 1757.55 1085.63L1757.55 1085.63Q1762.65 1085.63 1777.95 1089.45Q1793.25 1093.28 1817.47 1093.28L1817.47 1093.28L1831.50 1093.28L2007.45 1081.80Q2048.25 1077.97 2059.09 1074.15Q2069.93 1070.33 2082.68 1070.33Q2095.43 1070.33 2109.45 1081.80L2109.45 1081.80Q2138.78 1109.85 2138.78 1121.96Q2138.78 1134.08 2129.21 1137.90Q2119.65 1141.72 2105.63 1143L2105.63 1143ZM1637.70 1904.18L1637.70 1904.18Q1695.08 1904.18 1767.75 1883.78L1767.75 1883.78L1761.38 1575.23Q1761.38 1549.73 1750.54 1532.51Q1739.70 1515.30 1739.70 1509.56Q1739.70 1503.83 1753.09 1503.83Q1766.47 1503.83 1790.70 1510.20Q1814.92 1516.58 1825.76 1523.59Q1836.60 1530.60 1836.60 1544.63L1836.60 1544.63L1841.70 1867.20L1943.70 1840.43L1937.33 1441.35Q1937.33 1415.85 1926.49 1398.64Q1915.65 1381.43 1915.65 1375.69Q1915.65 1369.95 1929.04 1369.95Q1942.43 1369.95 1966.65 1376.33Q1990.88 1382.70 2002.35 1389.71Q2013.83 1396.72 2013.83 1410.75L2013.83 1410.75L2015.10 1547.18L2080.13 1542.08Q2115.82 1538.25 2130.49 1533.79Q2145.15 1529.33 2154.07 1529.33Q2163 1529.33 2177.66 1540.80Q2192.32 1552.28 2201.89 1566.30Q2211.45 1580.33 2211.45 1587.98L2211.45 1587.98Q2211.45 1600.73 2178.30 1603.28L2178.30 1603.28L2016.38 1614.75L2018.93 1820.03Q2150.25 1780.50 2199.34 1762.65Q2248.43 1744.80 2263.09 1744.80Q2277.75 1744.80 2277.75 1756.28L2277.75 1756.28Q2277.75 1772.85 2242.05 1789.43L2242.05 1789.43Q1960.28 1922.03 1767.75 1969.20L1767.75 1969.20Q1702.72 1985.78 1688.70 1985.78Q1674.67 1985.78 1657.46 1970.48Q1640.25 1955.18 1630.69 1937.33Q1621.13 1919.48 1621.13 1914.38L1621.13 1914.38Q1621.13 1904.18 1637.70 1904.18Z"/>
  </svg>