<svg xmlns="http://www.w3.org/2000/svg" viewBox="0 0 3000 3000" width="3000" height="3000">
    <path fill="#000000" d="M1614 2260L1614 2202L2258 2202L2258 2260L1614 2260ZM1590 2432L1590 896L2278 896L2278 2418L2220 2418L2220 954L1648 954L1648 2432L1590 2432ZM1040 2508L1040 850L1098 850L1098 2508L1040 2508ZM614 1356L614 1298L1506 1298L1506 1356L614 1356ZM1040 1314L1040 1314L1092 1334Q1054 1446 998 1565Q942 1684 875 1798Q808 1912 738 2009Q668 2106 602 2174L602 2174Q594 2162 582 2146Q570 2130 560 2122L560 2122Q624 2058 694 1966Q764 1874 830 1765Q896 1656 950 1540Q1004 1424 1040 1314ZM1424 732L1424 732L1470 778Q1376 816 1239 848Q1102 880 952 904Q802 928 664 944L664 944Q662 934 656 920Q650 906 644 894L644 894Q780 876 928 852Q1076 828 1208 797Q1340 766 1424 732ZM1060 1456L1098 1424Q1118 1444 1155 1487Q1192 1530 1238 1585Q1284 1640 1330 1694Q1376 1748 1412 1792Q1448 1836 1464 1858L1464 1858L1418 1906Q1394 1872 1346 1809Q1298 1746 1242 1675Q1186 1604 1136 1544Q1086 1484 1060 1456L1060 1456Z"/>
  </svg>