<svg xmlns="http://www.w3.org/2000/svg" viewBox="0 0 3000 3000" width="3000" height="3000">
    <path fill="#000000" d="M1774 1245L2188 1225L2150 1807L1790 1819L1774 1245ZM1796 2023L1794 1961L2278 1943Q2306 1941 2330 1937Q2354 1933 2354 1909L2354 1909Q2354 1893 2340 1870Q2326 1847 2296 1819L2296 1819L2346 1209Q2348 1201 2353 1193Q2358 1185 2358 1169L2358 1169Q2358 1139 2322 1110Q2286 1081 2258 1081L2258 1081Q2252 1081 2247 1082Q2242 1083 2240 1083L2240 1083L1756 1109Q1644 1071 1614 1071Q1584 1071 1584 1095L1584 1095Q1584 1103 1589 1112Q1594 1121 1598 1133L1598 1133Q1610 1157 1617 1179Q1624 1201 1626 1227L1626 1227L1642 1859Q1642 1885 1642 1913Q1642 1941 1638 1975L1638 1975L1638 1985Q1638 2037 1706 2065L1706 2065Q1738 2077 1758 2077L1758 2077Q1796 2077 1796 2031L1796 2031L1796 2023ZM1200 1411L1200 1347L1520 1319Q1574 1313 1574 1281L1574 1281Q1574 1263 1554 1239Q1534 1215 1507 1197Q1480 1179 1454 1179L1454 1179Q1442 1179 1434 1181L1434 1181Q1392 1195 1346 1199L1346 1199L1200 1211L1200 923Q1262 901 1332 867Q1402 833 1466 801L1466 801Q1484 793 1484 767L1484 767Q1484 737 1463 703Q1442 669 1417 643Q1392 617 1372 617L1372 617Q1354 617 1342 643L1342 643Q1334 661 1325 673Q1316 685 1296 697L1296 697Q1184 763 1028 845Q872 927 704 993L704 993Q658 1011 658 1041Q658 1071 700 1071L700 1071Q710 1071 728 1069Q746 1067 783 1058Q820 1049 889 1028Q958 1007 1058 973L1058 973L1056 1223L776 1247L750 1247Q710 1247 670 1241L670 1241L668 1239Q664 1239 660 1239L660 1239Q634 1239 634 1263L634 1263Q634 1273 636 1279L636 1279Q654 1327 678 1350Q702 1373 725 1377Q748 1381 762 1381L762 1381Q772 1381 787 1381Q802 1381 820 1379L820 1379L998 1363Q930 1521 818 1699Q706 1877 586 2041L586 2041Q564 2073 564 2101Q564 2129 588 2129Q612 2129 658 2088Q704 2047 765 1981Q826 1915 889 1833Q952 1751 1004 1665L1004 1665Q1056 1583 1056 1587L1056 1587L1064 1521Q1062 1553 1059 1594Q1056 1635 1056 1669L1056 1669Q1056 1743 1055 1833Q1054 1923 1053 2005Q1052 2087 1052 2139L1052 2139L1052 2191Q1052 2223 1049 2253Q1046 2283 1042 2311L1042 2311Q1040 2317 1040 2324Q1040 2331 1040 2335L1040 2335Q1040 2373 1080 2404Q1120 2435 1154 2435L1154 2435Q1200 2435 1200 2371L1200 2371L1200 1567Q1244 1605 1302 1673Q1360 1741 1422 1821L1422 1821Q1454 1861 1478 1861L1478 1861Q1490 1861 1512 1848Q1534 1835 1554 1814Q1574 1793 1574 1773Q1574 1753 1542 1711Q1510 1669 1461 1620Q1412 1571 1362 1523Q1312 1475 1270 1444Q1228 1413 1208 1413L1208 1413Q1198 1413 1200 1411L1200 1411ZM1056 1587L1056 1587Q1056 1587 1056 1587L1056 1587Z"/>
  </svg>