<svg xmlns="http://www.w3.org/2000/svg" viewBox="0 0 3000 3000" width="3000" height="3000">
    <path fill="#000000" d="M327.00 1293.45L327.00 1293.45Q352.50 1298.55 384.37 1298.55L384.37 1298.55L400.95 1298.55L587.10 1283.25L588.37 1106.03Q389.47 1171.05 361.42 1171.05Q333.37 1171.05 333.37 1159.58L333.37 1159.58Q333.37 1145.55 357.60 1136.63L357.60 1136.63Q532.27 1066.50 736.27 946.65L736.27 946.65Q756.67 935.17 765.60 916.05Q774.52 896.92 780.90 896.92L780.90 896.92Q800.02 896.92 831.90 947.92L831.90 947.92Q844.65 968.33 844.65 982.35Q844.65 996.38 837.00 1000.20L837.00 1000.20Q723.52 1057.58 663.60 1079.25L663.60 1079.25L663.60 1276.88L765.60 1267.95Q794.92 1265.40 810.86 1260.30Q826.80 1255.20 837.00 1255.20Q847.20 1255.20 862.50 1265.40L862.50 1265.40Q902.02 1292.18 902.02 1312.58L902.02 1312.58Q902.02 1326.60 873.97 1329.15L873.97 1329.15L663.60 1347L663.60 1408.20Q671.25 1404.38 678.90 1404.38Q686.55 1404.38 712.05 1423.50Q737.55 1442.63 769.42 1472.59Q801.30 1502.55 831.90 1533.79Q862.50 1565.03 882.26 1590.53Q902.02 1616.03 902.02 1626.23Q902.02 1636.43 882.90 1655.55Q863.77 1674.68 850.39 1674.68Q837.00 1674.68 819.15 1651.73L819.15 1651.73Q731.17 1538.25 663.60 1477.05L663.60 1477.05L663.60 2007.45Q663.60 2040.60 643.20 2040.60Q622.80 2040.60 599.85 2022.75Q576.90 2004.90 576.90 1984.50L576.90 1984.50L576.90 1978.13Q576.90 1974.30 580.72 1952.63Q584.55 1930.95 584.55 1892.70L584.55 1892.70L584.55 1859.55L587.10 1559.93Q587.10 1538.25 589.01 1512.11Q590.92 1485.97 592.20 1466.85L592.20 1466.85L594.75 1447.72Q538.65 1587.98 388.20 1753.73L388.20 1753.73Q305.32 1845.53 283.65 1845.53L283.65 1845.53Q273.45 1845.53 273.45 1832.78Q273.45 1820.03 286.20 1802.18L286.20 1802.18Q474.90 1540.80 553.95 1355.93L553.95 1355.93L427.72 1367.40Q417.52 1368.68 408.60 1368.68L408.60 1368.68L392.02 1368.68Q339.75 1368.68 319.35 1308.75L319.35 1308.75Q318.07 1306.20 318.07 1299.83Q318.07 1293.45 327.00 1293.45ZM1394.17 1265.40L1362.30 1658.10Q1399.27 1695.08 1399.27 1708.46Q1399.27 1721.85 1387.16 1723.76Q1375.05 1725.68 1358.47 1726.95L1358.47 1726.95L1042.27 1738.43L1043.55 1785.60L1043.55 1790.70Q1043.55 1812.38 1026.97 1812.38L1026.97 1812.38Q1015.50 1812.38 996.37 1804.73L996.37 1804.73Q958.12 1789.43 958.12 1761.38L958.12 1761.38L958.12 1755Q960.67 1733.33 960.67 1715.48L960.67 1715.48L960.67 1681.05L950.47 1278.15Q947.92 1247.55 935.81 1222.69Q923.70 1197.83 923.70 1194L923.70 1194Q923.70 1186.35 938.36 1186.35Q953.02 1186.35 1024.42 1210.58L1024.42 1210.58L1334.25 1194L1345.72 1192.72Q1361.02 1192.72 1381.42 1209.30Q1401.82 1225.88 1401.82 1237.35Q1401.82 1248.83 1398.64 1253.93Q1395.45 1259.03 1394.17 1265.40L1394.17 1265.40ZM1284.52 1655.55L1308.75 1269.22L1029.52 1281.97L1039.72 1663.20L1284.52 1655.55ZM1771.58 1857L1786.88 1413.30L1654.28 1427.33Q1646.63 1428.60 1641.53 1428.60L1641.53 1428.60L1628.78 1428.60Q1596.90 1428.60 1576.50 1404.38Q1556.10 1380.15 1556.10 1367.40Q1556.10 1354.65 1563.75 1354.65L1563.75 1354.65Q1594.35 1359.75 1605.83 1359.75L1605.83 1359.75L1621.13 1359.75Q1626.22 1359.75 1631.33 1358.47L1631.33 1358.47L1827.67 1335.53Q1837.88 1335.53 1857 1348.91Q1876.13 1362.30 1876.13 1375.69Q1876.13 1389.08 1867.20 1396.72L1867.20 1396.72L1859.55 1404.38L1844.25 1818.75Q1865.92 1803.45 1930.31 1752.45Q1994.70 1701.45 2008.73 1700.81Q2022.75 1700.18 2023.39 1707.83Q2024.03 1715.48 2002.99 1739.70Q1981.95 1763.93 1916.93 1839.79Q1851.90 1915.65 1822.58 1934.14Q1793.25 1952.63 1779.86 1954.54Q1766.47 1956.45 1746.08 1942.43Q1725.67 1928.40 1709.74 1911.19Q1693.80 1893.98 1692.53 1886.33L1692.53 1886.33Q1692.53 1879.95 1715.47 1875.49Q1738.42 1871.03 1771.58 1857L1771.58 1857ZM2669.18 1200.38L2669.18 1200.38Q2678.10 1143 2692.13 1143Q2706.15 1143 2706.15 1226.51Q2706.15 1310.03 2702.32 1344.45Q2698.50 1378.88 2679.38 1399.28L2679.38 1399.28Q2646.23 1436.25 2500.88 1436.25L2500.88 1436.25Q2466.45 1436.25 2429.48 1431.15L2429.48 1431.15Q2341.50 1419.67 2341.50 1322.78L2341.50 1322.78L2341.50 1318.95L2346.60 963.23Q2346.60 940.27 2339.59 927.52Q2332.57 914.77 2332.57 910.95L2332.57 910.95Q2332.57 902.03 2345.96 902.03Q2359.35 902.03 2384.85 910.31Q2410.35 918.60 2414.18 926.89Q2418 935.17 2418 945.38L2418 945.38L2418 947.92L2415.45 1148.10Q2452.43 1131.53 2490.68 1104.75Q2528.93 1077.97 2545.50 1060.76Q2562.07 1043.55 2567.81 1021.24Q2573.55 998.92 2579.93 998.92L2579.93 998.92Q2599.05 998.92 2623.28 1047.38L2623.28 1047.38Q2632.20 1066.50 2632.20 1078.61Q2632.20 1090.72 2619.45 1099.65L2619.45 1099.65Q2523.83 1167.22 2414.18 1214.40L2414.18 1214.40L2412.90 1307.47Q2412.90 1347 2437.13 1355.29Q2461.35 1363.58 2491.95 1363.58L2491.95 1363.58Q2599.05 1363.58 2625.19 1339.99Q2651.32 1316.40 2669.18 1200.38ZM2277.75 1168.50L2136.22 1177.43L2133.68 1352.10Q2224.20 1327.88 2265.64 1308.75Q2307.07 1289.63 2319.82 1289.63Q2332.57 1289.63 2332.57 1299.19Q2332.57 1308.75 2286.04 1339.99Q2239.50 1371.22 2131.13 1422.86Q2022.75 1474.50 2004.90 1474.50Q1987.05 1474.50 1970.47 1457.93Q1953.90 1441.35 1943.06 1423.50Q1932.22 1405.65 1932.22 1403.10L1932.22 1403.10Q1932.22 1394.18 1947.53 1394.18L1947.53 1394.18L1952.63 1394.18Q1990.88 1394.18 2020.84 1384.61Q2050.80 1375.05 2063.55 1372.50L2063.55 1372.50L2066.10 998.92Q2066.10 968.33 2057.81 954.30Q2049.53 940.27 2049.53 937.73L2049.53 937.73Q2049.53 928.80 2063.55 928.80Q2077.57 928.80 2103.71 937.73Q2129.85 946.65 2133.68 955.58Q2137.50 964.50 2137.50 975.98L2137.50 975.98L2136.22 1112.40L2189.78 1108.58Q2217.82 1106.03 2228.66 1101.56Q2239.50 1097.10 2243.32 1097.10L2243.32 1097.10L2249.70 1097.10Q2272.65 1097.10 2298.15 1127.70L2298.15 1127.70Q2308.35 1140.45 2308.35 1150.65L2308.35 1150.65Q2308.35 1165.95 2277.75 1168.50L2277.75 1168.50ZM2254.80 1566.30L2254.80 1566.30L2517.45 1551Q2520 1549.73 2532.11 1549.73Q2544.23 1549.73 2565.26 1565.66Q2586.30 1581.60 2586.30 1596.90Q2586.30 1612.20 2583.75 1618.58Q2581.20 1624.95 2579.93 1631.33L2579.93 1631.33L2550.60 1908Q2586.30 1942.43 2586.30 1957.73Q2586.30 1973.03 2558.25 1973.03L2558.25 1973.03L2178.30 1983.23L2179.57 2015.10L2179.57 2017.65Q2179.57 2036.78 2159.18 2036.78Q2138.78 2036.78 2120.29 2020.20Q2101.80 2003.63 2101.80 1988.33L2101.80 1988.33L2104.35 1974.30Q2106.90 1953.90 2106.90 1937.33L2106.90 1937.33L2106.90 1913.10Q2106.90 1906.73 2105.63 1897.80L2105.63 1897.80L2086.50 1659.38Q2085.22 1614.75 2075.03 1585.43Q2064.82 1556.10 2064.82 1549.09Q2064.82 1542.08 2078.21 1542.08Q2091.60 1542.08 2159.18 1571.40L2159.18 1571.40L2182.13 1570.13Q2230.57 1508.93 2249.06 1466.85Q2267.55 1424.78 2268.19 1411.39Q2268.82 1398 2279.03 1398Q2289.23 1398 2304.53 1405.65L2304.53 1405.65Q2342.78 1427.33 2342.78 1452.83Q2342.78 1478.33 2254.80 1566.30ZM2498.33 1725.68L2504.70 1618.58L2157.90 1635.15L2165.55 1742.25L2498.33 1725.68ZM2488.13 1910.55L2493.23 1791.98L2168.10 1804.73L2174.47 1920.75L2488.13 1910.55ZM1854.45 1200.38L1854.45 1200.38Q1789.42 1111.13 1718.03 1042.28L1718.03 1042.28Q1704 1028.25 1704 1019.96Q1704 1011.67 1714.20 996.38Q1724.40 981.08 1736.51 981.08Q1748.63 981.08 1770.94 999.56Q1793.25 1018.05 1822.58 1045.46Q1851.90 1072.88 1878.67 1102.20Q1905.45 1131.53 1923.30 1153.84Q1941.15 1176.15 1941.15 1187.63Q1941.15 1199.10 1923.30 1215.68Q1905.45 1232.25 1891.43 1232.25Q1877.40 1232.25 1854.45 1200.38Z"/>
  </svg>