<svg xmlns="http://www.w3.org/2000/svg" viewBox="0 0 3000 3000" width="3000" height="3000">
    <path fill="#000000" d="M660 1176L660 1176Q700 1184 750 1184L750 1184L776 1184L1068 1160L1070 882Q758 984 714 984Q670 984 670 966L670 966Q670 944 708 930L708 930Q982 820 1302 632L1302 632Q1334 614 1348 584Q1362 554 1372 554L1372 554Q1402 554 1452 634L1452 634Q1472 666 1472 688Q1472 710 1460 716L1460 716Q1282 806 1188 840L1188 840L1188 1150L1348 1136Q1394 1132 1419 1124Q1444 1116 1460 1116Q1476 1116 1500 1132L1500 1132Q1562 1174 1562 1206L1562 1206Q1562 1228 1518 1232L1518 1232L1188 1260L1188 1356Q1200 1350 1212 1350Q1224 1350 1264 1380Q1304 1410 1354 1457Q1404 1504 1452 1553Q1500 1602 1531 1642Q1562 1682 1562 1698Q1562 1714 1532 1744Q1502 1774 1481 1774Q1460 1774 1432 1738L1432 1738Q1294 1560 1188 1464L1188 1464L1188 2296Q1188 2348 1156 2348Q1124 2348 1088 2320Q1052 2292 1052 2260L1052 2260L1052 2250Q1052 2244 1058 2210Q1064 2176 1064 2116L1064 2116L1064 2064L1068 1594Q1068 1560 1071 1519Q1074 1478 1076 1448L1076 1448L1080 1418Q992 1638 756 1898L756 1898Q626 2042 592 2042L592 2042Q576 2042 576 2022Q576 2002 596 1974L596 1974Q892 1564 1016 1274L1016 1274L818 1292Q802 1294 788 1294L788 1294L762 1294Q680 1294 648 1200L648 1200Q646 1196 646 1186Q646 1176 660 1176ZM2334 1132L2284 1748Q2342 1806 2342 1827Q2342 1848 2323 1851Q2304 1854 2278 1856L2278 1856L1782 1874L1784 1948L1784 1956Q1784 1990 1758 1990L1758 1990Q1740 1990 1710 1978L1710 1978Q1650 1954 1650 1910L1650 1910L1650 1900Q1654 1866 1654 1838L1654 1838L1654 1784L1638 1152Q1634 1104 1615 1065Q1596 1026 1596 1020L1596 1020Q1596 1008 1619 1008Q1642 1008 1754 1046L1754 1046L2240 1020L2258 1018Q2282 1018 2314 1044Q2346 1070 2346 1088Q2346 1106 2341 1114Q2336 1122 2334 1132L2334 1132ZM2162 1744L2200 1138L1762 1158L1778 1756L2162 1744Z"/>
  </svg>