<svg xmlns="http://www.w3.org/2000/svg" viewBox="0 0 3000 3000" width="3000" height="3000">
    <path fill="#000000" d="M1105.47 2392.58Q1029.30 2392.58 1029.30 2298.83L1029.30 2298.83L1029.30 1558.59Q957.03 1761.72 845.70 1925.78L845.70 1925.78Q734.38 2087.89 687.50 2087.89L687.50 2087.89Q607.42 2087.89 607.42 2003.91L607.42 2003.91Q607.42 1974.61 658.20 1914.06L658.20 1914.06Q902.34 1625 1015.63 1291.02L1015.63 1291.02L699.22 1291.02Q615.23 1291.02 615.23 1212.89L615.23 1212.89Q615.23 1136.72 699.22 1136.72L699.22 1136.72L1029.30 1136.72L1029.30 822.27L1183.59 800.78L1183.59 1136.72L1421.88 1136.72Q1507.81 1136.72 1507.81 1214.84L1507.81 1214.84Q1507.81 1291.02 1421.88 1291.02L1421.88 1291.02L1183.59 1291.02L1183.59 1513.67Q1199.22 1474.61 1240.23 1474.61L1240.23 1474.61Q1253.91 1474.61 1291.99 1508.79Q1330.08 1542.97 1384.77 1607.42L1384.77 1607.42Q1447.27 1679.69 1475.59 1720.70Q1503.91 1761.72 1503.91 1783.20L1503.91 1783.20Q1503.91 1855.47 1429.69 1855.47L1429.69 1855.47Q1386.72 1855.47 1341.80 1777.34L1341.80 1777.34Q1300.78 1705.08 1222.66 1615.23L1222.66 1615.23Q1203.13 1593.75 1183.59 1554.69L1183.59 1554.69L1183.59 2298.83Q1183.59 2392.58 1105.47 2392.58L1105.47 2392.58ZM712.89 880.86Q677.73 882.81 659.18 864.26Q640.63 845.70 640.63 806.64L640.63 806.64Q640.63 740.23 742.19 734.38L742.19 734.38Q1101.56 710.94 1324.22 640.63L1324.22 640.63L1410.16 617.19Q1492.19 617.19 1492.19 699.22L1492.19 699.22Q1492.19 755.86 1433.59 777.34L1433.59 777.34Q1343.75 808.59 1134.77 837.89L1134.77 837.89Q943.36 865.23 712.89 880.86L712.89 880.86ZM1751.95 2267.58Q1644.53 2267.58 1595.70 2219.73Q1546.88 2171.88 1552.73 2068.36L1552.73 2068.36L1552.73 1025.39Q1539.06 810.55 1751.95 826.17L1751.95 826.17L2119.14 826.17Q2333.98 810.55 2318.36 1025.39L2318.36 1025.39L2318.36 2068.36Q2318.36 2177.73 2270.51 2226.56Q2222.66 2275.39 2119.14 2267.58L2119.14 2267.58L1751.95 2267.58ZM2068.36 2107.42Q2154.30 2107.42 2154.30 2019.53L2154.30 2019.53L2154.30 1074.22Q2154.30 988.28 2068.36 988.28L2068.36 988.28L1802.73 988.28Q1712.89 988.28 1714.84 1074.22L1714.84 1074.22L1714.84 2019.53Q1714.84 2107.42 1802.73 2107.42L1802.73 2107.42L2068.36 2107.42Z"/>
  </svg>