<svg xmlns="http://www.w3.org/2000/svg" viewBox="0 0 3000 3000" width="3000" height="3000">
    <path fill="#000000" d="M1422 702L1422 702Q1448 694 1455 694Q1462 694 1502 716L1502 716Q1584 756 1572 824L1572 824Q1564 860 1550 875Q1536 890 1502 902L1502 902Q1462 916 1451 928Q1440 940 1430 940L1430 940Q1418 940 1382 960Q1346 980 1346 988L1346 988Q1346 992 1394 1020L1394 1020Q1426 1040 1435 1050Q1444 1060 1444 1080L1444 1080Q1444 1110 1418 1156L1418 1156Q1386 1212 1390 1214L1390 1214Q1394 1214 1398 1210L1398 1210Q1408 1204 1468 1194L1468 1194L1526 1188L1564 1226Q1600 1262 1600 1294Q1600 1326 1590 1342L1590 1342Q1582 1354 1564 1354Q1546 1354 1440 1342L1440 1342Q1410 1338 1398 1340Q1386 1342 1372 1356L1372 1356Q1358 1370 1357 1398Q1356 1426 1370 1518L1370 1518Q1374 1550 1379 1557Q1384 1564 1402 1566L1402 1566Q1440 1570 1576 1608L1576 1608Q1594 1614 1590 1596L1590 1596Q1590 1586 1578 1554L1578 1554Q1556 1486 1582 1428L1582 1428Q1600 1388 1641 1364Q1682 1340 1786 1306L1786 1306Q1852 1286 2044 1300Q2236 1314 2296 1344L2296 1344Q2350 1374 2350 1430L2350 1430Q2350 1458 2307 1508Q2264 1558 2250 1587Q2236 1616 2184 1674Q2132 1732 2132 1737Q2132 1742 2170 1752L2170 1752Q2232 1766 2260 1821Q2288 1876 2252 1912L2252 1912Q2238 1926 2223 1927Q2208 1928 2152 1924L2152 1924Q2064 1916 1957 1917Q1850 1918 1834 1928L1834 1928Q1814 1938 1798 1982Q1782 2026 1774 2022L1774 2022Q1762 2018 1714 1918L1714 1918Q1640 1770 1632 1770L1632 1770Q1624 1770 1609 1783Q1594 1796 1553 1802Q1512 1808 1488 1784L1488 1784Q1450 1752 1392 1713Q1334 1674 1324 1676L1324 1676Q1310 1680 1309 1844Q1308 2008 1307 2032Q1306 2056 1298 2199Q1290 2342 1272 2376L1272 2376Q1244 2422 1192 2408L1192 2408Q1170 2404 1170 2392Q1170 2380 1152 2358L1152 2358Q1134 2332 1124 2296Q1114 2260 1124 2238L1124 2238Q1132 2206 1142 2100Q1152 1994 1160 1918L1160 1918Q1176 1770 1160 1770L1160 1770Q1124 1770 1062 1842L1062 1842Q1024 1888 996 1907Q968 1926 905 1983Q842 2040 826 2048Q810 2056 782 2080L782 2080Q756 2102 708 2134Q660 2166 654 2166L654 2166Q620 2166 834 1896L834 1896Q838 1890 844 1884L844 1884Q1064 1612 1064 1596L1064 1596Q1064 1590 1076 1576L1076 1576Q1086 1566 1112 1514Q1138 1462 1146 1438L1146 1438Q1150 1424 1146 1424Q1142 1424 1112 1430L1112 1430Q1070 1444 988 1492L988 1492Q922 1536 903 1549Q884 1562 874 1580L874 1580Q842 1638 734 1550L734 1550Q686 1508 711 1478Q736 1448 856 1394L856 1394Q972 1344 1033 1323Q1094 1302 1142 1282L1142 1282L1186 1264L1188 1186Q1194 1104 1200 1080L1200 1080L1208 1056L1160 1076Q1024 1126 1000 1102L1000 1102Q988 1090 1036 1054L1036 1054Q1068 1030 1095 1005Q1122 980 1138 966L1138 966Q1160 950 1239 863Q1318 776 1336 750L1336 750Q1344 740 1372 723Q1400 706 1422 702ZM2076 1478L2076 1478Q2086 1448 2086 1442Q2086 1436 2058 1436L2058 1436Q1894 1444 1841 1453Q1788 1462 1756 1482L1756 1482Q1732 1500 1736 1526L1736 1526L1750 1596Q1766 1700 1794 1742L1794 1742Q1802 1756 1812 1759Q1822 1762 1848 1758L1848 1758Q1888 1754 1901 1734Q1914 1714 1970 1656L1970 1656Q2044 1580 2076 1478Z"/>
  </svg>