<svg xmlns="http://www.w3.org/2000/svg" viewBox="0 0 3000 3000" width="3000" height="3000">
    <path fill="#000000" d="M935.17 1984.50L935.17 1947.53L1345.72 1947.53L1345.72 1984.50L935.17 1984.50ZM919.87 2094.15L919.87 1114.95L1358.47 1114.95L1358.47 2085.22L1321.50 2085.22L1321.50 1151.92L956.85 1151.92L956.85 2094.15L919.87 2094.15ZM569.25 2142.60L569.25 1085.63L606.22 1085.63L606.22 2142.60L569.25 2142.60ZM297.67 1408.20L297.67 1371.22L866.32 1371.22L866.32 1408.20L297.67 1408.20ZM569.25 1381.43L569.25 1381.43L602.40 1394.18Q578.17 1465.58 542.47 1541.44Q506.77 1617.30 464.06 1689.98Q421.35 1762.65 376.72 1824.49Q332.10 1886.33 290.02 1929.68L290.02 1929.68Q284.92 1922.03 277.27 1911.83Q269.62 1901.63 263.25 1896.53L263.25 1896.53Q304.05 1855.73 348.67 1797.08Q393.30 1738.43 435.37 1668.94Q477.45 1599.45 511.87 1525.50Q546.30 1451.55 569.25 1381.43ZM814.05 1010.40L814.05 1010.40L843.37 1039.72Q783.45 1063.95 696.11 1084.35Q608.77 1104.75 513.15 1120.05Q417.52 1135.35 329.55 1145.55L329.55 1145.55Q328.27 1139.17 324.45 1130.25Q320.62 1121.33 316.80 1113.67L316.80 1113.67Q403.50 1102.20 497.85 1086.90Q592.20 1071.60 676.35 1051.84Q760.50 1032.07 814.05 1010.40ZM582.00 1471.95L606.22 1451.55Q618.97 1464.30 642.56 1491.71Q666.15 1519.13 695.47 1554.19Q724.80 1589.25 754.12 1623.68Q783.45 1658.10 806.40 1686.15Q829.35 1714.20 839.55 1728.23L839.55 1728.23L810.22 1758.83Q794.92 1737.15 764.32 1696.99Q733.72 1656.83 698.02 1611.56Q662.32 1566.30 630.45 1528.05Q598.57 1489.80 582.00 1471.95L582.00 1471.95ZM2027.85 1223.33L2027.85 1186.35L2314.73 1186.35L2314.73 1223.33L2027.85 1223.33ZM2352.98 1455.38L2352.98 1009.13L2389.95 1009.13L2389.95 1456.65Q2389.95 1478.33 2400.15 1485.34Q2410.35 1492.35 2444.78 1492.35L2444.78 1492.35Q2453.70 1492.35 2477.29 1492.35Q2500.88 1492.35 2530.20 1492.35Q2559.53 1492.35 2585.03 1492.35Q2610.53 1492.35 2622 1492.35L2622 1492.35Q2642.40 1492.35 2652.60 1482.15Q2662.80 1471.95 2666.63 1441.35Q2670.45 1410.75 2671.73 1348.28L2671.73 1348.28Q2679.38 1353.38 2689.57 1357.84Q2699.78 1362.30 2708.70 1364.85L2708.70 1364.85Q2706.15 1431.15 2699.14 1466.85Q2692.13 1502.55 2674.91 1515.94Q2657.70 1529.33 2624.55 1529.33L2624.55 1529.33Q2618.18 1529.33 2592.04 1529.33Q2565.90 1529.33 2534.66 1529.33Q2503.43 1529.33 2477.93 1529.33Q2452.43 1529.33 2446.05 1529.33L2446.05 1529.33Q2409.07 1529.33 2388.68 1523.59Q2368.28 1517.85 2360.63 1501.91Q2352.98 1485.97 2352.98 1455.38L2352.98 1455.38ZM2660.25 1112.40L2660.25 1112.40L2687.03 1137.90Q2644.95 1164.67 2592.68 1190.17Q2540.40 1215.67 2486.21 1237.99Q2432.03 1260.30 2384.85 1278.15L2384.85 1278.15L2360.63 1253.92Q2407.80 1236.08 2462.63 1211.21Q2517.45 1186.35 2570.36 1160.21Q2623.28 1134.08 2660.25 1112.40ZM2273.93 1514.03L2273.93 1514.03L2313.45 1526.78Q2299.43 1563.75 2283.49 1603.28Q2267.55 1642.80 2252.25 1672.13L2252.25 1672.13L2220.38 1659.38Q2234.40 1630.05 2249.70 1587.34Q2265 1544.63 2273.93 1514.03ZM2020.20 2148.97L2020.20 1641.53L2627.10 1641.53L2627.10 2143.88L2590.13 2143.88L2590.13 1679.78L2057.18 1679.78L2057.18 2148.97L2020.20 2148.97ZM2036.78 1882.50L2036.78 1844.25L2606.70 1844.25L2606.70 1882.50L2036.78 1882.50ZM2036.78 2091.60L2036.78 2054.63L2606.70 2054.63L2606.70 2091.60L2036.78 2091.60ZM1981.95 1547.17L1981.95 1547.17L1981.95 1510.20L2011.28 1488.53L2319.82 1420.95Q2319.82 1428.60 2319.82 1439.44Q2319.82 1450.28 2321.10 1455.38L2321.10 1455.38Q2214 1482.15 2149.61 1498.09Q2085.22 1514.03 2051.44 1522.95Q2017.65 1531.88 2003.63 1536.97Q1989.60 1542.08 1981.95 1547.17ZM1649.17 1074.15L1649.17 1074.15L1677.22 1051.20Q1711.65 1080.53 1748.63 1114.95Q1785.60 1149.38 1817.47 1183.16Q1849.35 1216.95 1868.47 1242.45L1868.47 1242.45L1839.15 1269.22Q1818.75 1242.45 1787.51 1208.66Q1756.28 1174.88 1719.94 1139.17Q1683.60 1103.47 1649.17 1074.15ZM1737.15 2096.70L1737.15 2096.70L1735.88 2057.18L1757.55 2025.30L1966.65 1888.88Q1969.20 1892.70 1971.75 1897.80Q1974.30 1902.90 1977.49 1908.64Q1980.68 1914.38 1981.95 1918.20L1981.95 1918.20Q1905.45 1971.75 1859.55 2003.63Q1813.65 2035.50 1788.79 2052.71Q1763.92 2069.93 1753.72 2079.49Q1743.53 2089.05 1737.15 2096.70ZM1566.30 1442.63L1566.30 1404.38L1788.15 1404.38L1788.15 1442.63L1566.30 1442.63ZM1981.95 1547.17L1981.95 1547.17Q1980.68 1542.08 1977.49 1535.06Q1974.30 1528.05 1969.84 1521.04Q1965.38 1514.03 1961.55 1508.93L1961.55 1508.93Q1973.03 1503.83 1987.69 1488.53Q2002.35 1473.22 2002.35 1437.53L2002.35 1437.53L2002.35 1005.30L2040.60 1005.30L2040.60 1496.18Q2040.60 1496.18 2034.86 1500Q2029.13 1503.83 2020.20 1509.56Q2011.28 1515.30 2002.35 1521.68Q1993.43 1528.05 1987.69 1535.06Q1981.95 1542.08 1981.95 1547.17ZM1737.15 2096.70L1737.15 2096.70Q1734.60 2091.60 1730.14 2086.50Q1725.67 2081.40 1719.94 2075.66Q1714.20 2069.93 1709.10 2066.10L1709.10 2066.10Q1723.13 2055.90 1746.08 2027.85Q1769.03 1999.80 1769.03 1956.45L1769.03 1956.45L1769.03 1404.38L1806 1404.38L1806 2015.10Q1806 2015.10 1798.99 2021.48Q1791.97 2027.85 1781.78 2038.05Q1771.58 2048.25 1761.38 2059.09Q1751.17 2069.93 1744.16 2080.13Q1737.15 2090.33 1737.15 2096.70Z"/>
  </svg>