<svg xmlns="http://www.w3.org/2000/svg" viewBox="0 0 3000 3000" width="3000" height="3000">
    <path fill="#000000" d="M812.77 991.27L812.77 991.27Q829.35 986.17 833.81 986.17Q838.27 986.17 863.77 1000.20L863.77 1000.20Q916.05 1025.70 908.40 1069.05L908.40 1069.05Q903.30 1092 894.37 1101.56Q885.45 1111.13 863.77 1118.77L863.77 1118.77Q838.27 1127.70 831.26 1135.35Q824.25 1143 817.87 1143L817.87 1143Q810.22 1143 787.27 1155.75Q764.32 1168.50 764.32 1173.60L764.32 1173.60Q764.32 1176.15 794.92 1194L794.92 1194Q815.32 1206.75 821.06 1213.13Q826.80 1219.50 826.80 1232.25L826.80 1232.25Q826.80 1251.38 810.22 1280.70L810.22 1280.70Q789.82 1316.40 792.37 1317.67L792.37 1317.67Q794.92 1317.67 797.47 1315.13L797.47 1315.13Q803.85 1311.30 842.10 1304.92L842.10 1304.92L879.07 1301.10L903.30 1325.32Q926.25 1348.28 926.25 1368.67Q926.25 1389.07 919.87 1399.28L919.87 1399.28Q914.77 1406.92 903.30 1406.92Q891.82 1406.92 824.25 1399.28L824.25 1399.28Q805.12 1396.72 797.47 1398Q789.82 1399.28 780.90 1408.20L780.90 1408.20Q771.97 1417.13 771.34 1434.97Q770.70 1452.82 779.62 1511.47L779.62 1511.47Q782.17 1531.88 785.36 1536.34Q788.55 1540.80 800.02 1542.07L800.02 1542.07Q824.25 1544.63 910.95 1568.85L910.95 1568.85Q922.42 1572.67 919.87 1561.20L919.87 1561.20Q919.87 1554.82 912.22 1534.42L912.22 1534.42Q898.20 1491.07 914.77 1454.10L914.77 1454.10Q926.25 1428.60 952.39 1413.30Q978.52 1398 1044.82 1376.32L1044.82 1376.32Q1086.90 1363.57 1209.30 1372.50Q1331.70 1381.42 1369.95 1400.55L1369.95 1400.55Q1404.38 1419.67 1404.38 1455.38L1404.38 1455.38Q1404.38 1473.22 1376.96 1505.10Q1349.55 1536.97 1340.63 1555.46Q1331.70 1573.95 1298.55 1610.92Q1265.40 1647.90 1265.40 1651.09Q1265.40 1654.28 1289.62 1660.65L1289.62 1660.65Q1329.15 1669.58 1347 1704.64Q1364.85 1739.70 1341.90 1762.65L1341.90 1762.65Q1332.97 1771.58 1323.41 1772.21Q1313.85 1772.85 1278.15 1770.30L1278.15 1770.30Q1222.05 1765.20 1153.84 1765.84Q1085.63 1766.47 1075.42 1772.85L1075.42 1772.85Q1062.67 1779.22 1052.47 1807.28Q1042.27 1835.33 1037.17 1832.78L1037.17 1832.78Q1029.52 1830.22 998.92 1766.47L998.92 1766.47Q951.75 1672.13 946.65 1672.13L946.65 1672.13Q941.55 1672.13 931.99 1680.41Q922.42 1688.70 896.29 1692.53Q870.15 1696.35 854.85 1681.05L854.85 1681.05Q830.62 1660.65 793.65 1635.79Q756.67 1610.92 750.30 1612.20L750.30 1612.20Q741.37 1614.75 740.74 1719.30Q740.10 1823.85 739.46 1839.15Q738.82 1854.45 733.72 1945.61Q728.62 2036.78 717.15 2058.45L717.15 2058.45Q699.30 2087.78 666.15 2078.85L666.15 2078.85Q652.12 2076.30 652.12 2068.65Q652.12 2061 640.65 2046.97L640.65 2046.97Q629.17 2030.40 622.80 2007.45Q616.42 1984.50 622.80 1970.47L622.80 1970.47Q627.90 1950.08 634.27 1882.50Q640.65 1814.92 645.75 1766.47L645.75 1766.47Q655.95 1672.13 645.75 1672.13L645.75 1672.13Q622.80 1672.13 583.27 1718.03L583.27 1718.03Q559.05 1747.35 541.20 1759.46Q523.35 1771.58 483.19 1807.91Q443.02 1844.25 432.82 1849.35Q422.62 1854.45 404.77 1869.75L404.77 1869.75Q388.20 1883.78 357.60 1904.17Q327.00 1924.58 323.17 1924.58L323.17 1924.58Q301.50 1924.58 437.92 1752.45L437.92 1752.45Q440.47 1748.63 444.30 1744.80L444.30 1744.80Q584.55 1571.40 584.55 1561.20L584.55 1561.20Q584.55 1557.38 592.20 1548.45L592.20 1548.45Q598.57 1542.07 615.15 1508.92Q631.72 1475.77 636.82 1460.47L636.82 1460.47Q639.37 1451.55 636.82 1451.55Q634.27 1451.55 615.15 1455.38L615.15 1455.38Q588.37 1464.30 536.10 1494.90L536.10 1494.90Q494.02 1522.95 481.91 1531.24Q469.80 1539.53 463.42 1551L463.42 1551Q443.02 1587.97 374.17 1531.88L374.17 1531.88Q343.57 1505.10 359.51 1485.97Q375.45 1466.85 451.95 1432.42L451.95 1432.42Q525.90 1400.55 564.79 1387.16Q603.67 1373.78 634.27 1361.03L634.27 1361.03L662.32 1349.55L663.60 1299.82Q667.42 1247.55 671.25 1232.25L671.25 1232.25L676.35 1216.95L645.75 1229.70Q559.05 1261.57 543.75 1246.28L543.75 1246.28Q536.10 1238.63 566.70 1215.67L566.70 1215.67Q587.10 1200.38 604.31 1184.44Q621.52 1168.50 631.72 1159.57L631.72 1159.57Q645.75 1149.38 696.11 1093.91Q746.47 1038.45 757.95 1021.87L757.95 1021.87Q763.05 1015.50 780.90 1004.66Q798.75 993.82 812.77 991.27ZM1229.70 1485.97L1229.70 1485.97Q1236.07 1466.85 1236.07 1463.03Q1236.07 1459.20 1218.22 1459.20L1218.22 1459.20Q1113.67 1464.30 1079.89 1470.04Q1046.10 1475.77 1025.70 1488.52L1025.70 1488.52Q1010.40 1500 1012.95 1516.57L1012.95 1516.57L1021.87 1561.20Q1032.07 1627.50 1049.92 1654.28L1049.92 1654.28Q1055.02 1663.20 1061.40 1665.11Q1067.77 1667.03 1084.35 1664.47L1084.35 1664.47Q1109.85 1661.92 1118.14 1649.17Q1126.42 1636.42 1162.13 1599.45L1162.13 1599.45Q1209.30 1551 1229.70 1485.97ZM2210.18 1436.25L2210.18 1436.25Q2216.55 1428.60 2221.65 1431.15Q2226.75 1433.70 2239.50 1451.55L2239.50 1451.55Q2254.80 1470.67 2258.63 1473.22L2258.63 1473.22Q2272.65 1483.42 2261.81 1508.92Q2250.97 1534.42 2221.65 1563.75L2221.65 1563.75L2203.80 1581.60L2270.10 1579.05Q2331.30 1575.22 2363.18 1583.51Q2395.05 1591.80 2467.73 1624.95L2467.73 1624.95L2504.70 1644.08L2509.80 1681.05Q2514.90 1718.03 2507.25 1738.42Q2499.60 1758.83 2498.33 1823.85Q2497.05 1888.88 2492.59 1897.16Q2488.13 1905.45 2481.11 1936.05Q2474.10 1966.65 2461.35 1979.40Q2448.60 1992.15 2448.60 2001.08Q2448.60 2010 2423.10 2027.85Q2397.60 2045.70 2375.93 2069.93L2375.93 2069.93Q2360.63 2086.50 2356.16 2088.41Q2351.70 2090.32 2344.05 2082.68L2344.05 2082.68Q2333.85 2073.75 2333.85 2068.01Q2333.85 2062.28 2317.91 2046.34Q2301.98 2030.40 2301.98 2021.47Q2301.98 2012.55 2295.60 2006.17L2295.60 2006.17Q2289.23 2001.08 2253.53 2001.08Q2217.82 2001.08 2179.57 2006.17L2179.57 2006.17Q2141.32 2011.28 2128.57 2012.55Q2115.82 2013.83 2109.45 2022.75L2109.45 2022.75Q2101.80 2032.95 2096.06 2031.04Q2090.32 2029.13 2078.85 2012.55L2078.85 2012.55Q2043.15 1964.10 2021.47 1734.60L2021.47 1734.60Q2018.93 1696.35 2025.30 1675.31Q2031.68 1654.28 2052.07 1638.97L2052.07 1638.97Q2075.03 1621.13 2096.70 1614.75L2096.70 1614.75Q2115.82 1609.65 2127.94 1591.16Q2140.05 1572.67 2182.13 1494.90L2182.13 1494.90Q2187.22 1487.25 2196.79 1465.57Q2206.35 1443.90 2210.18 1436.25ZM2345.32 1659.38L2345.32 1659.38Q2318.55 1647.90 2233.76 1653.64Q2148.97 1659.38 2110.72 1677.22L2110.72 1677.22L2090.32 1686.15L2090.32 1730.78Q2090.32 1777.95 2097.34 1777.95Q2104.35 1777.95 2106.90 1774.13L2106.90 1774.13Q2113.28 1758.83 2184.04 1737.15Q2254.80 1715.47 2275.20 1719.30L2275.20 1719.30Q2289.23 1723.13 2296.24 1736.51Q2303.25 1749.90 2296.88 1765.20L2296.88 1765.20Q2291.78 1780.50 2287.95 1794.53L2287.95 1794.53Q2282.85 1822.58 2216.55 1832.78L2216.55 1832.78Q2127.30 1845.53 2113.28 1837.88Q2099.25 1830.22 2099.25 1840.42L2099.25 1840.42Q2099.25 1848.08 2103.07 1867.20L2103.07 1867.20L2118.38 1918.20Q2123.47 1943.70 2124.75 1944.34Q2126.03 1944.97 2146.43 1937.33L2146.43 1937.33Q2179.57 1923.30 2247.15 1918.84Q2314.73 1914.38 2321.10 1924.58L2321.10 1924.58Q2332.57 1943.70 2342.78 1904.17L2342.78 1904.17Q2358.07 1844.25 2358.07 1715.47L2358.07 1715.47Q2358.07 1679.78 2356.16 1671.49Q2354.25 1663.20 2345.32 1659.38ZM1752.45 1336.80L1752.45 1336.80Q1752.45 1321.50 1797.08 1341.90L1797.08 1341.90Q1818.75 1350.82 1830.22 1363.57L1830.22 1363.57Q1855.72 1387.80 1837.88 1406.92L1837.88 1406.92Q1830.22 1415.85 1824.49 1432.42Q1818.75 1449 1814.92 1459.20L1814.92 1459.20Q1807.28 1478.32 1800.90 1539.53L1800.90 1539.53Q1797.08 1590.53 1791.97 1607.74Q1786.88 1624.95 1785.60 1693.80L1785.60 1693.80Q1785.60 1786.88 1776.67 1827.67L1776.67 1827.67Q1774.13 1848.08 1779.22 1848.08Q1784.33 1848.08 1813.65 1814.29Q1842.97 1780.50 1851.26 1772.21Q1859.55 1763.92 1901.63 1707.83L1901.63 1707.83Q1953.90 1638.97 1953.90 1658.10L1953.90 1658.10Q1953.90 1663.20 1948.80 1672.76Q1943.70 1682.33 1934.14 1712.29Q1924.58 1742.25 1918.84 1750.54Q1913.10 1758.83 1909.28 1767.11Q1905.45 1775.40 1894.61 1791.34Q1883.78 1807.28 1879.95 1815.56Q1876.13 1823.85 1864.65 1842.97L1864.65 1842.97Q1845.53 1872.30 1793.25 1975.58L1793.25 1975.58L1777.95 2003.63Q1769.03 2021.47 1769.03 2029.76Q1769.03 2038.05 1748.63 2053.35L1748.63 2053.35Q1719.30 2078.85 1700.17 2066.10Q1681.05 2053.35 1661.92 1998.53L1661.92 1998.53Q1646.63 1950.08 1656.83 1936.05L1656.83 1936.05Q1663.20 1927.13 1682.96 1883.78Q1702.72 1840.42 1706.55 1828.95L1706.55 1828.95Q1720.58 1758.83 1720.58 1576.50L1720.58 1576.50Q1720.58 1445.17 1718.03 1442.63L1718.03 1442.63Q1715.47 1438.80 1693.80 1454.74Q1672.13 1470.67 1663.20 1482.15L1663.20 1482.15Q1640.25 1512.75 1624.31 1517.21Q1608.38 1521.67 1587.97 1502.55L1587.97 1502.55Q1579.05 1493.63 1576.50 1487.25Q1573.95 1480.88 1575.22 1465.57L1575.22 1465.57Q1576.50 1442.63 1593.08 1428.60Q1609.65 1414.57 1616.03 1414.57Q1622.40 1414.57 1622.40 1408.84Q1622.40 1403.10 1627.50 1403.10Q1632.60 1403.10 1670.21 1379.51Q1707.83 1355.92 1730.14 1348.91Q1752.45 1341.90 1752.45 1336.80ZM1769.03 1089.45L1769.03 1089.45Q1788.15 1083.07 1793.25 1083.07Q1798.35 1083.07 1806 1086.90L1806 1086.90Q1816.20 1092 1836.60 1097.10L1836.60 1097.10Q1885.05 1111.13 1895.25 1162.13Q1905.45 1213.13 1864.65 1246.28L1864.65 1246.28Q1845.53 1262.85 1820.03 1248.82L1820.03 1248.82Q1809.83 1243.72 1781.14 1208.02Q1752.45 1172.32 1752.45 1165.95L1752.45 1165.95Q1752.45 1160.85 1744.80 1143L1744.80 1143Q1735.88 1123.88 1742.25 1109.21Q1748.63 1094.55 1769.03 1089.45ZM1992.15 1359.75L1992.15 1233.53Q1992.15 1106.02 2001.71 1080.52Q2011.28 1055.02 2012.55 1055.02L2012.55 1055.02Q2016.38 1055.02 2028.49 1065.86Q2040.60 1076.70 2048.25 1086.90L2048.25 1086.90Q2057.18 1100.92 2057.18 1132.80L2057.18 1132.80Q2057.18 1158.30 2062.28 1162.13Q2067.38 1165.95 2081.40 1155.75L2081.40 1155.75Q2096.70 1148.10 2131.13 1136.63Q2165.55 1125.15 2174.47 1128.97L2174.47 1128.97Q2197.43 1134.07 2189.78 1178.70L2189.78 1178.70Q2187.22 1201.65 2175.75 1208.02L2175.75 1208.02Q2108.18 1233.53 2071.20 1238.63L2071.20 1238.63L2050.80 1241.17L2052.07 1310.03Q2054.63 1380.15 2059.72 1376.32L2059.72 1376.32Q2080.13 1366.13 2147.70 1315.13L2147.70 1315.13Q2192.32 1280.70 2192.32 1306.20L2192.32 1306.20Q2192.32 1338.07 2072.47 1463.03L2072.47 1463.03Q2057.18 1477.05 2057.18 1482.15Q2057.18 1487.25 2029.13 1517.85L2029.13 1517.85Q1989.60 1561.20 1966.65 1556.10Q1943.70 1551 1943.70 1496.17L1943.70 1496.17Q1943.70 1478.32 1937.33 1465.57L1937.33 1465.57Q1934.78 1455.38 1939.24 1436.89Q1943.70 1418.40 1950.08 1418.40L1950.08 1418.40Q1952.63 1418.40 1973.03 1389.07L1973.03 1389.07L1992.15 1359.75ZM2285.40 986.17L2285.40 986.17Q2285.40 968.32 2308.35 988.72L2308.35 988.72Q2313.45 993.82 2317.28 997.65L2317.28 997.65Q2336.40 1019.32 2335.13 1037.81Q2333.85 1056.30 2333.21 1095.19Q2332.57 1134.07 2332.57 1164.67Q2332.57 1195.27 2333.85 1195.27L2333.85 1195.27Q2337.68 1195.27 2361.26 1167.22Q2384.85 1139.17 2391.23 1134.07L2391.23 1134.07Q2400.15 1126.42 2415.45 1104.75Q2430.75 1083.07 2435.85 1070.32L2435.85 1070.32Q2446.05 1048.65 2460.71 1050.56Q2475.38 1052.47 2500.88 1074.15L2500.88 1074.15Q2530.20 1100.92 2530.20 1109.85L2530.20 1109.85Q2528.93 1118.77 2515.54 1133.44Q2502.15 1148.10 2483.03 1159.57L2483.03 1159.57Q2461.35 1173.60 2452.43 1182.52L2452.43 1182.52Q2440.95 1194 2351.70 1266.67L2351.70 1266.67Q2333.85 1279.42 2330.66 1285.16Q2327.48 1290.90 2331.30 1307.47L2331.30 1307.47Q2333.85 1329.15 2350.43 1358.47L2350.43 1358.47Q2367 1392.90 2393.78 1404.38Q2420.55 1415.85 2481.75 1418.40L2481.75 1418.40Q2542.95 1419.67 2565.90 1414.57L2565.90 1414.57Q2585.03 1409.47 2592.04 1399.91Q2599.05 1390.35 2622 1341.90L2622 1341.90Q2638.57 1307.47 2650.05 1299.82L2650.05 1299.82Q2657.70 1296 2660.89 1297.91Q2664.07 1299.82 2667.90 1312.57L2667.90 1312.57Q2676.82 1331.70 2676.82 1353.38Q2676.82 1375.05 2683.20 1378.88L2683.20 1378.88Q2708.70 1395.45 2698.50 1443.90L2698.50 1443.90Q2693.40 1465.57 2683.20 1479.60Q2673 1493.63 2643.68 1511.47L2643.68 1511.47Q2597.78 1542.07 2502.15 1535.70L2502.15 1535.70Q2383.57 1530.60 2327.48 1480.88L2327.48 1480.88Q2318.55 1471.95 2301.98 1436.25Q2285.40 1400.55 2279.03 1376.32L2279.03 1376.32Q2272.65 1344.45 2267.55 1336.16Q2262.45 1327.88 2249.70 1330.42L2249.70 1330.42Q2236.95 1334.25 2236.95 1329.15L2236.95 1329.15Q2236.95 1326.60 2253.53 1302.38L2253.53 1302.38L2268.82 1279.42L2268.82 1151.92Q2268.82 1025.70 2277.11 1010.40Q2285.40 995.10 2285.40 986.17Z"/>
  </svg>