<svg xmlns="http://www.w3.org/2000/svg" viewBox="0 0 3000 3000" width="3000" height="3000">
    <path fill="#000000" d="M365.25 1127.70L365.25 1089.45L1355.92 1089.45L1355.92 1127.70L365.25 1127.70ZM300.22 1669.58L300.22 1632.60L1426.05 1632.60L1426.05 1669.58L300.22 1669.58ZM465.97 1220.78L465.97 1220.78L499.12 1209.30Q528.45 1260.30 556.50 1318.95Q584.55 1377.60 606.86 1432.43Q629.17 1487.25 639.37 1526.78L639.37 1526.78L604.95 1542.08Q593.47 1500 571.80 1445.18Q550.12 1390.35 522.71 1331.06Q495.30 1271.78 465.97 1220.78ZM1219.50 1201.65L1219.50 1201.65L1259.02 1215.67Q1234.80 1270.50 1204.84 1331.70Q1174.88 1392.90 1144.27 1450.91Q1113.67 1508.93 1084.35 1552.28L1084.35 1552.28L1053.75 1538.25Q1081.80 1494.90 1113.04 1435.61Q1144.27 1376.33 1172.32 1313.85Q1200.38 1251.38 1219.50 1201.65ZM839.55 2145.15L839.55 1099.65L877.80 1099.65L877.80 2145.15L839.55 2145.15ZM1637.70 1385.25L1637.70 1153.20L2634.75 1153.20L2634.75 1385.25L2597.78 1385.25L2597.78 1191.45L1674.67 1191.45L1674.67 1385.25L1637.70 1385.25ZM2382.30 1507.65L2382.30 1507.65L2419.28 1516.58Q2364.45 1696.35 2260.54 1817.48Q2156.63 1938.60 2006.18 2014.46Q1855.72 2090.33 1661.92 2138.78L1661.92 2138.78Q1659.38 2133.68 1654.28 2127.94Q1649.17 2122.20 1642.80 2115.83Q1636.42 2109.45 1631.33 2105.63L1631.33 2105.63Q1828.95 2062.28 1978.76 1988.33Q2128.57 1914.38 2229.30 1797.08Q2330.03 1679.78 2382.30 1507.65ZM1600.72 1535.70L1600.72 1498.72L2680.65 1498.72L2680.65 1535.70L1600.72 1535.70ZM2058.45 1006.58L2058.45 1006.58L2095.43 997.65Q2118.38 1038.45 2142.60 1087.54Q2166.82 1136.63 2179.57 1168.50L2179.57 1168.50L2143.88 1182.53Q2131.13 1149.38 2106.90 1099.01Q2082.68 1048.65 2058.45 1006.58ZM1770.30 1757.55L1770.30 1757.55L1799.63 1726.95Q1910.55 1761.38 2028.49 1804.73Q2146.43 1848.08 2258.63 1896.53Q2370.82 1944.98 2467.09 1994.06Q2563.35 2043.15 2632.20 2089.05L2632.20 2089.05L2599.05 2124.75Q2532.75 2080.13 2437.13 2029.76Q2341.50 1979.40 2229.30 1929.68Q2117.10 1879.95 1999.16 1835.96Q1881.22 1791.98 1770.30 1757.55ZM1811.10 1757.55L1770.30 1757.55Q1807.28 1711.65 1848.08 1652.36Q1888.88 1593.08 1929.68 1526.78Q1970.47 1460.47 2005.54 1394.81Q2040.60 1329.15 2066.10 1270.50L2066.10 1270.50L2100.53 1278.15Q2073.75 1338.08 2038.05 1403.74Q2002.35 1469.40 1962.83 1534.43Q1923.30 1599.45 1883.78 1656.83Q1844.25 1714.20 1811.10 1757.55L1811.10 1757.55Z"/>
  </svg>