<svg xmlns="http://www.w3.org/2000/svg" viewBox="0 0 3000 3000" width="3000" height="3000">
    <path fill="#000000" d="M808.95 1587.98L375.45 1607.10L334.65 1608.38Q311.70 1608.38 305.32 1602L305.32 1602Q268.35 1562.48 268.35 1536.97L268.35 1536.97Q268.35 1528.05 278.55 1528.05L278.55 1528.05Q283.65 1528.05 293.85 1531.88Q304.05 1535.70 334.65 1535.70L334.65 1535.70L348.67 1535.70L810.22 1516.58L812.77 1048.65L534.82 1063.95Q524.62 1065.22 513.15 1065.22L513.15 1065.22L490.20 1065.22Q481.27 1065.22 472.35 1062.67Q463.42 1060.13 446.85 1036.54Q430.27 1012.95 430.27 1000.20Q430.27 987.45 439.20 987.45L439.20 987.45Q444.30 987.45 455.14 990.64Q465.97 993.83 494.02 993.83L494.02 993.83L509.32 993.83L1148.10 956.85Q1183.80 954.30 1195.91 949.84Q1208.02 945.38 1220.14 945.38Q1232.25 945.38 1248.19 956.21Q1264.12 967.05 1274.96 981.08Q1285.80 995.10 1285.80 1004.02L1285.80 1004.02Q1285.80 1020.60 1253.92 1023.15L1253.92 1023.15L895.65 1043.55L894.37 1512.75L1310.02 1494.90Q1344.45 1492.35 1357.20 1487.89Q1369.95 1483.43 1383.97 1483.43Q1398 1483.43 1413.94 1495.54Q1429.88 1507.65 1439.44 1521.68Q1449 1535.70 1449 1543.35L1449 1543.35Q1449 1558.65 1417.13 1562.48L1417.13 1562.48L893.10 1585.43L891.82 2044.43Q891.82 2076.30 865.69 2076.30Q839.55 2076.30 819.15 2061Q798.75 2045.70 798.75 2022.75L798.75 2022.75Q798.75 2015.10 803.21 1991.51Q807.67 1967.93 807.67 1925.85L807.67 1925.85L808.95 1587.98ZM1128.97 1125.15L1128.97 1113.67Q1128.97 1094.55 1145.55 1094.55L1145.55 1094.55Q1173.60 1094.55 1210.57 1127.70L1210.57 1127.70Q1225.88 1140.45 1225.88 1150.01Q1225.88 1159.58 1197.19 1209.94Q1168.50 1260.30 1099.01 1348.91Q1029.52 1437.53 983.62 1460.47L983.62 1460.47Q972.15 1468.13 965.77 1468.13Q959.40 1468.13 959.40 1460.47Q959.40 1452.83 986.81 1413.30Q1014.22 1373.78 1048.65 1313.85L1048.65 1313.85Q1128.97 1177.43 1128.97 1125.15L1128.97 1125.15ZM647.02 1427.33L647.02 1427.33Q593.47 1318.95 505.50 1210.58L505.50 1210.58Q490.20 1188.90 490.20 1179.34Q490.20 1169.78 508.05 1158.30Q525.90 1146.83 536.10 1146.83Q546.30 1146.83 569.25 1171.05Q592.20 1195.28 619.61 1231.61Q647.02 1267.95 672.52 1304.93Q698.02 1341.90 714.60 1369.31Q731.17 1396.72 731.17 1405.01Q731.17 1413.30 710.14 1431.15Q689.10 1449 673.80 1449Q658.50 1449 647.02 1427.33ZM1818.75 1112.40L1818.75 1112.40L2091.60 1095.83L2091.60 981.08Q2091.60 956.85 2078.21 937.73Q2064.82 918.60 2064.82 913.50L2064.82 913.50Q2064.82 902.03 2083.95 902.03L2083.95 902.03L2099.25 904.57Q2180.85 919.88 2180.85 949.20L2180.85 949.20L2178.30 1090.72L2581.20 1066.50L2590.13 1066.50Q2615.63 1066.50 2636.66 1080.53Q2657.70 1094.55 2657.70 1108.58Q2657.70 1122.60 2648.78 1130.89Q2639.85 1139.17 2606.06 1189.54Q2572.28 1239.90 2527.65 1288.35Q2483.03 1336.80 2465.18 1336.80L2465.18 1336.80Q2458.80 1336.80 2458.80 1325.33Q2458.80 1313.85 2488.76 1260.30Q2518.73 1206.75 2541.68 1143L2541.68 1143L1794.53 1186.35Q1756.28 1290.90 1718.03 1357.20L1718.03 1357.20Q1706.55 1372.50 1699.54 1372.50Q1692.53 1372.50 1678.50 1364.85L1678.50 1364.85Q1641.53 1345.72 1641.53 1327.88L1641.53 1327.88Q1641.53 1321.50 1658.74 1294.09Q1675.95 1266.68 1704 1194.64Q1732.05 1122.60 1752.45 1055.03L1752.45 1055.03Q1758.83 1033.35 1777.31 1033.35Q1795.80 1033.35 1812.38 1044.19Q1828.95 1055.03 1828.95 1068.41Q1828.95 1081.80 1818.75 1112.40ZM2593.95 1410.75L2593.95 1410.75L2632.20 1399.28Q2652.60 1399.28 2688.30 1438.80L2688.30 1438.80Q2702.32 1454.10 2702.32 1463.03L2702.32 1463.03Q2702.32 1475.78 2675.55 1479.60L2675.55 1479.60L2389.95 1493.63Q2321.10 1659.38 2211.45 1776.68L2211.45 1776.68Q2395.05 1857 2556.98 1950.08L2556.98 1950.08Q2586.30 1966.65 2586.30 1989.60L2586.30 1989.60L2583.75 2002.35Q2572.28 2044.43 2549.32 2044.43L2549.32 2044.43Q2535.30 2044.43 2513.63 2030.40L2513.63 2030.40Q2346.60 1923.30 2151.53 1835.33L2151.53 1835.33Q2044.43 1924.58 1896.53 1975.58L1896.53 1975.58Q1799.63 2008.73 1733.33 2018.29Q1667.03 2027.85 1664.47 2027.85L1664.47 2027.85Q1632.60 2027.85 1632.60 2013.83L1632.60 2013.83Q1632.60 1995.98 1695.08 1979.40Q1757.55 1962.83 1823.85 1939.88L1823.85 1939.88Q1959 1892.70 2072.47 1799.63L2072.47 1799.63Q1920.75 1733.33 1879.95 1729.50L1879.95 1729.50Q1862.10 1726.95 1851.90 1698.90L1851.90 1698.90Q1848.08 1687.43 1848.08 1677.23Q1848.08 1667.03 1872.30 1628.14Q1896.53 1589.25 1934.78 1515.30L1934.78 1515.30L1650.45 1529.33Q1618.58 1529.33 1609.65 1520.40L1609.65 1520.40Q1573.95 1484.70 1573.95 1459.20L1573.95 1459.20Q1573.95 1450.28 1579.05 1450.28Q1584.15 1450.28 1595.63 1454.74Q1607.10 1459.20 1641.53 1459.20L1641.53 1459.20L1655.55 1459.20L1973.03 1443.90Q2012.55 1363.58 2032.31 1301.74Q2052.07 1239.90 2052.07 1219.50L2052.07 1219.50L2052.07 1206.75Q2052.07 1194 2064.19 1194Q2076.30 1194 2094.79 1203.56Q2113.28 1213.13 2127.94 1227.79Q2142.60 1242.45 2142.60 1258.39Q2142.60 1274.33 2064.82 1438.80L2064.82 1438.80L2560.80 1415.85Q2578.65 1414.58 2593.95 1410.75ZM1937.33 1669.58L1937.33 1669.58Q2048.25 1707.83 2133.68 1743.53L2133.68 1743.53Q2230.57 1638.98 2290.50 1498.72L2290.50 1498.72L2027.85 1510.20Q1971.75 1618.58 1937.33 1669.58Z"/>
  </svg>