<svg xmlns="http://www.w3.org/2000/svg" viewBox="0 0 3000 3000" width="3000" height="3000">
    <path fill="#000000" d="M1336 1603L1336 1603L1722 1585Q1686 1669 1620 1771Q1554 1873 1490 1943L1490 1943Q1422 1913 1344 1884Q1266 1855 1204 1835L1204 1835Q1234 1791 1269 1727Q1304 1663 1336 1603ZM1904 1577L1904 1577L2346 1555Q2362 1553 2380 1546Q2398 1539 2398 1519Q2398 1499 2374 1473Q2350 1447 2322 1426Q2294 1405 2276 1405L2276 1405Q2270 1405 2269 1406Q2268 1407 2266 1407L2266 1407Q2236 1417 2213 1423Q2190 1429 2164 1431L2164 1431L1406 1467Q1452 1365 1479 1306Q1506 1247 1513 1224Q1520 1201 1520 1193L1520 1193Q1520 1167 1495 1141Q1470 1115 1438 1099Q1406 1083 1386 1083L1386 1083Q1354 1083 1354 1115L1354 1115L1354 1135Q1354 1165 1337 1218Q1320 1271 1297 1328Q1274 1385 1256 1427Q1238 1469 1234 1475L1234 1475L744 1499L722 1499Q702 1499 681 1497Q660 1495 640 1487L640 1487Q634 1485 626 1485L626 1485Q604 1485 604 1511L604 1511Q604 1541 626 1571Q648 1601 660 1612Q672 1623 692 1628Q712 1633 736 1633L736 1633Q746 1633 756 1632Q766 1631 776 1631L776 1631L1162 1613Q1146 1643 1117 1695Q1088 1747 1054 1799L1054 1799Q1046 1813 1040 1826Q1034 1839 1034 1857L1034 1857Q1034 1871 1040 1891L1040 1891Q1060 1943 1091 1946Q1122 1949 1140 1957L1140 1957Q1204 1981 1267 2005Q1330 2029 1376 2049L1376 2049Q1294 2115 1200 2166Q1106 2217 1003 2253Q900 2289 780 2321L780 2321Q740 2331 718 2348Q696 2365 696 2381L696 2381Q696 2415 758 2415L758 2415Q762 2415 813 2408Q864 2401 946 2384Q1028 2367 1126 2333Q1224 2299 1329 2244Q1434 2189 1524 2115L1524 2115Q1654 2173 1796 2248Q1938 2323 2084 2417L2084 2417Q2120 2441 2146 2441L2146 2441Q2178 2441 2192 2415Q2206 2389 2212 2365L2212 2365L2216 2345Q2216 2317 2202 2300Q2188 2283 2164 2271L2164 2271Q2018 2187 1884 2121Q1750 2055 1636 2005L1636 2005Q1708 1929 1782 1810Q1856 1691 1904 1577ZM970 1095L970 1095L2116 1029Q2104 1061 2077 1119Q2050 1177 2022 1229L2022 1229Q1992 1279 1992 1307L1992 1307Q1992 1331 2014 1331L2014 1331Q2048 1331 2120 1253Q2192 1175 2288 1031L2288 1031Q2298 1017 2313 1003Q2328 989 2328 967L2328 967Q2328 933 2291 908Q2254 883 2210 883L2210 883L2196 883L1576 921L1580 711Q1580 683 1553 666Q1526 649 1495 641Q1464 633 1442 629L1442 629L1416 625Q1374 625 1374 655L1374 655Q1374 667 1386 683L1386 683Q1416 727 1416 761L1416 761L1416 929L1018 953L1024 925Q1028 897 1028 893L1028 893Q1028 871 1008 857Q988 843 966 837Q944 831 932 831L932 831Q898 831 884 873L884 873Q852 979 809 1091Q766 1203 718 1281L718 1281Q710 1291 710 1305L710 1305Q710 1327 732 1345Q754 1363 777 1375Q800 1387 808 1387L808 1387Q824 1387 835 1377Q846 1367 852 1357L852 1357Q886 1299 917 1229Q948 1159 970 1095Z"/>
  </svg>