<svg xmlns="http://www.w3.org/2000/svg" viewBox="0 0 3000 3000" width="3000" height="3000">
    <path fill="#000000" d="M365.25 1127.70L365.25 1089.45L1355.92 1089.45L1355.92 1127.70L365.25 1127.70ZM300.22 1669.58L300.22 1632.60L1426.05 1632.60L1426.05 1669.58L300.22 1669.58ZM465.97 1220.78L465.97 1220.78L499.12 1209.30Q528.45 1260.30 556.50 1318.95Q584.55 1377.60 606.86 1432.43Q629.17 1487.25 639.37 1526.78L639.37 1526.78L604.95 1542.08Q593.47 1500 571.80 1445.18Q550.12 1390.35 522.71 1331.06Q495.30 1271.78 465.97 1220.78ZM1219.50 1201.65L1219.50 1201.65L1259.02 1215.67Q1234.80 1270.50 1204.84 1331.70Q1174.88 1392.90 1144.27 1450.91Q1113.67 1508.93 1084.35 1552.28L1084.35 1552.28L1053.75 1538.25Q1081.80 1494.90 1113.04 1435.61Q1144.27 1376.33 1172.32 1313.85Q1200.38 1251.38 1219.50 1201.65ZM839.55 2145.15L839.55 1099.65L877.80 1099.65L877.80 2145.15L839.55 2145.15ZM1637.70 1385.25L1637.70 1153.20L2634.75 1153.20L2634.75 1385.25L2597.78 1385.25L2597.78 1191.45L1674.67 1191.45L1674.67 1385.25L1637.70 1385.25ZM2401.43 1380.15L2401.43 1380.15L2439.68 1387.80Q2409.07 1566.30 2347.88 1693.80Q2286.68 1821.30 2190.41 1908.64Q2094.15 1995.98 1959 2052.71Q1823.85 2109.45 1644.08 2146.43L1644.08 2146.43Q1641.53 2142.60 1636.42 2136.22Q1631.33 2129.85 1625.59 2123.47Q1619.85 2117.10 1614.75 2113.28L1614.75 2113.28Q1797.08 2080.13 1931.59 2025.94Q2066.10 1971.75 2160.45 1886.33Q2254.80 1800.90 2313.45 1676.59Q2372.10 1552.28 2401.43 1380.15ZM1600.72 1554.83L1600.72 1516.58L2680.65 1516.58L2680.65 1554.83L1600.72 1554.83ZM2058.45 1006.58L2058.45 1006.58L2089.05 995.10Q2115.82 1034.63 2144.51 1083.08Q2173.20 1131.53 2187.22 1162.13L2187.22 1162.13L2156.63 1179.97Q2140.05 1146.83 2112.64 1097.10Q2085.22 1047.38 2058.45 1006.58ZM1770.30 1757.55L1770.30 1757.55L1798.35 1726.95Q1911.83 1761.38 2031.68 1806Q2151.53 1850.63 2266.91 1902.26Q2382.30 1953.90 2481.75 2006.81Q2581.20 2059.72 2652.60 2109.45L2652.60 2109.45L2619.45 2142.60Q2550.60 2094.15 2453.06 2041.24Q2355.53 1988.33 2240.14 1936.05Q2124.75 1883.78 2004.26 1837.88Q1883.78 1791.98 1770.30 1757.55ZM1813.65 1757.55L1770.30 1757.55Q1806 1711.65 1846.16 1651.09Q1886.33 1590.53 1925.21 1523.59Q1964.10 1456.65 1998.53 1390.35Q2032.95 1324.05 2057.18 1265.40L2057.18 1265.40L2094.15 1273.05Q2068.65 1334.25 2034.22 1400.55Q1999.80 1466.85 1960.91 1532.51Q1922.03 1598.18 1884.41 1656.19Q1846.80 1714.20 1813.65 1757.55L1813.65 1757.55Z"/>
  </svg>