<svg xmlns="http://www.w3.org/2000/svg" viewBox="0 0 3000 3000" width="3000" height="3000">
    <path fill="#000000" d="M316.80 1158.30L316.80 1121.33L824.25 1121.33L824.25 1158.30L316.80 1158.30ZM1002.75 1153.20L1002.75 1116.22L1267.95 1116.22L1267.95 1153.20L1002.75 1153.20ZM885.45 1820.03L885.45 1781.78L1352.10 1781.78L1352.10 1820.03L885.45 1820.03ZM332.10 1301.10L332.10 1264.13L806.40 1264.13L806.40 1301.10L332.10 1301.10ZM290.02 1451.55L290.02 1414.58L842.10 1414.58L842.10 1451.55L290.02 1451.55ZM817.87 1595.63L817.87 1558.65L1454.10 1558.65L1454.10 1595.63L817.87 1595.63ZM390.75 1749.90L390.75 1711.65L751.57 1711.65L751.57 1749.90L390.75 1749.90ZM390.75 1913.10L390.75 1876.13L751.57 1876.13L751.57 1913.10L390.75 1913.10ZM547.57 1441.35L547.57 996.38L584.55 996.38L584.55 1441.35L547.57 1441.35ZM372.90 2146.43L372.90 1552.28L750.30 1552.28L750.30 1589.25L409.87 1589.25L409.87 2146.43L372.90 2146.43ZM735.00 2091.60L735.00 1552.28L771.97 1552.28L771.97 2091.60Q771.97 2112 765.60 2123.47Q759.22 2134.95 741.37 2138.78L741.37 2138.78Q723.52 2143.88 687.82 2145.15Q652.12 2146.43 588.37 2146.43L588.37 2146.43Q587.10 2140.05 582.64 2130.49Q578.17 2120.93 573.07 2112L573.07 2112Q625.35 2113.28 663.60 2113.28Q701.85 2113.28 713.32 2113.28L713.32 2113.28Q735.00 2112 735.00 2091.60L735.00 2091.60ZM893.10 1377.60L893.10 1339.35L1366.13 1339.35L1366.13 1873.58L1329.15 1873.58L1329.15 1377.60L893.10 1377.60ZM1094.55 2085.22L1094.55 1354.65L1132.80 1354.65L1132.80 2085.22Q1132.80 2110.72 1124.51 2122.84Q1116.22 2134.95 1095.82 2140.05L1095.82 2140.05Q1076.70 2145.15 1035.90 2145.79Q995.10 2146.43 924.97 2146.43L924.97 2146.43Q923.70 2140.05 919.24 2129.21Q914.77 2118.38 909.67 2109.45L909.67 2109.45Q969.60 2110.72 1012.95 2110.72Q1056.30 2110.72 1070.32 2110.72L1070.32 2110.72Q1084.35 2109.45 1089.45 2104.35Q1094.55 2099.25 1094.55 2085.22L1094.55 2085.22ZM1048.65 996.38L1048.65 996.38L1084.35 1005.30Q1043.55 1107.30 982.99 1201.01Q922.42 1294.72 854.85 1362.30L854.85 1362.30Q852.30 1358.47 846.56 1354.01Q840.82 1349.55 835.09 1344.45Q829.35 1339.35 824.25 1336.80L824.25 1336.80Q891.82 1273.05 951.11 1183.16Q1010.40 1093.28 1048.65 996.38ZM1256.47 1125.15L1256.47 1116.22L1264.12 1116.22L1270.50 1113.67L1294.72 1130.25Q1275.60 1173.60 1248.19 1218.22Q1220.77 1262.85 1191.45 1302.38Q1162.13 1341.90 1135.35 1372.50L1135.35 1372.50Q1130.25 1368.68 1121.96 1364.21Q1113.67 1359.75 1107.30 1357.20L1107.30 1357.20Q1134.07 1327.88 1162.13 1287.71Q1190.17 1247.55 1215.04 1204.84Q1239.90 1162.13 1256.47 1125.15L1256.47 1125.15ZM1877.40 2013.83L1877.40 1344.45L1915.65 1344.45L1915.65 2015.10Q1915.65 2058.45 1935.41 2072.47Q1955.18 2086.50 2017.65 2086.50L2017.65 2086.50Q2032.95 2086.50 2074.39 2086.50Q2115.82 2086.50 2166.19 2086.50Q2216.55 2086.50 2261.18 2086.50Q2305.80 2086.50 2326.20 2086.50L2326.20 2086.50Q2373.38 2086.50 2396.32 2063.55Q2419.28 2040.60 2428.20 1977.49Q2437.13 1914.38 2442.23 1794.53L2442.23 1794.53Q2448.60 1798.35 2454.98 1802.81Q2461.35 1807.28 2468.36 1809.83Q2475.38 1812.38 2480.48 1814.93L2480.48 1814.93Q2475.38 1936.05 2463.26 2003.63Q2451.15 2071.20 2419.91 2097.97Q2388.68 2124.75 2323.65 2124.75L2323.65 2124.75Q2314.73 2124.75 2284.13 2124.75Q2253.53 2124.75 2212.09 2124.75Q2170.65 2124.75 2129.85 2124.75Q2089.05 2124.75 2059.09 2124.75Q2029.13 2124.75 2021.47 2124.75L2021.47 2124.75Q1966.65 2124.75 1935.41 2115.83Q1904.18 2106.90 1890.79 2082.68Q1877.40 2058.45 1877.40 2013.83L1877.40 2013.83ZM1700.17 1459.20L1700.17 1459.20L1734.60 1468.13Q1724.40 1535.70 1704.64 1621.76Q1684.88 1707.83 1659.38 1793.25Q1633.88 1878.68 1603.28 1943.70L1603.28 1943.70L1567.58 1925.85Q1599.45 1862.10 1625.59 1778.59Q1651.72 1695.08 1670.85 1610.29Q1689.97 1525.50 1700.17 1459.20ZM2502.15 1445.18L2502.15 1445.18L2536.57 1434.97Q2574.82 1511.47 2610.53 1598.81Q2646.23 1686.15 2674.28 1769.66Q2702.32 1853.18 2716.35 1919.48L2716.35 1919.48L2680.65 1930.95Q2666.63 1864.65 2638.57 1780.50Q2610.53 1696.35 2575.46 1608.38Q2540.40 1520.40 2502.15 1445.18ZM1953.90 1088.17L1953.90 1088.17L1979.40 1067.78Q2040.60 1112.40 2104.99 1165.95Q2169.38 1219.50 2225.47 1272.41Q2281.57 1325.33 2316 1366.13L2316 1366.13L2291.78 1390.35Q2256.07 1349.55 2199.97 1296.64Q2143.88 1243.72 2079.49 1188.26Q2015.10 1132.80 1953.90 1088.17Z"/>
  </svg>