<svg xmlns="http://www.w3.org/2000/svg" viewBox="0 0 3000 3000" width="3000" height="3000">
    <path fill="#000000" d="M1550 1144L1550 1144L1636 1154L1862 1140Q1950 1032 2036 888L2036 888L1736 906Q1618 1058 1526 1136L1526 1136Q1492 1164 1477 1164Q1462 1164 1462 1147Q1462 1130 1482 1104L1482 1104Q1612 942 1673 824Q1734 706 1752 638Q1770 570 1770 562L1770 562L1770 538Q1770 520 1780 520Q1790 520 1816 536L1816 536Q1894 578 1894 614Q1894 650 1802 808L1802 808L2100 788L2126 786Q2152 786 2179 808Q2206 830 2206 846Q2206 862 2192 873Q2178 884 2117 970Q2056 1056 1990 1132L1990 1132L2196 1120L2212 1118Q2230 1118 2258 1142Q2286 1166 2286 1184Q2286 1202 2282 1211Q2278 1220 2276 1230L2276 1230L2258 1394L2284 1392Q2336 1388 2350 1383Q2364 1378 2383 1378Q2402 1378 2434 1412L2434 1412Q2458 1442 2458 1462Q2458 1482 2412 1486L2412 1486L2248 1494L2226 1692Q2274 1748 2274 1767Q2274 1786 2257 1790Q2240 1794 2212 1796L2212 1796L1942 1810L1938 2206L1940 2264Q1940 2336 1882 2362L1882 2362Q1860 2372 1842 2372L1842 2372Q1802 2372 1679 2263Q1556 2154 1556 2116L1556 2116Q1556 2102 1574 2102Q1592 2102 1645 2138Q1698 2174 1818 2222L1818 2222L1822 1816L1684 1822L1660 1822Q1640 1822 1602 1810Q1564 1798 1544 1738L1544 1738Q1538 1722 1538 1713Q1538 1704 1550 1704L1550 1704L1636 1714L1652 1714L1824 1706L1824 1516L1532 1532Q1476 1532 1451 1494Q1426 1456 1426 1437Q1426 1418 1440 1418L1440 1418Q1446 1418 1467 1424Q1488 1430 1524 1430L1524 1430L1544 1430L1826 1416L1828 1246L1682 1254Q1670 1256 1660 1256L1660 1256L1642 1256Q1572 1256 1542 1176L1542 1176Q1538 1164 1538 1154Q1538 1144 1550 1144ZM682 788L682 788Q742 800 780 800L780 800L790 800L998 788L998 700Q998 638 983 610Q968 582 968 576L968 576Q968 562 1006 562Q1044 562 1080 579Q1116 596 1116 632L1116 632L1116 780L1234 774Q1256 772 1281 765Q1306 758 1321 757Q1336 756 1360 770L1360 770Q1420 804 1420 836L1420 836Q1420 858 1378 862L1378 862L1116 878L1114 1000L1204 994Q1238 992 1258 984Q1278 976 1287 976Q1296 976 1316 988L1316 988Q1376 1026 1376 1054L1376 1054Q1376 1074 1336 1078L1336 1078L1114 1092L1114 1210L1340 1198Q1382 1196 1400 1188Q1418 1180 1431 1180Q1444 1180 1482 1208Q1520 1236 1520 1261Q1520 1286 1480 1290L1480 1290L718 1334L684 1334Q640 1334 622 1320L622 1320L594 1284Q574 1260 574 1241Q574 1222 583 1222Q592 1222 610 1227Q628 1232 670 1232L670 1232L688 1232L1002 1216L1000 1098L888 1106L848 1108Q812 1108 796 1096L796 1096Q740 1054 740 1016L740 1016Q740 1004 750 1004Q760 1004 782 1010Q804 1016 834 1016L834 1016L1000 1006L1000 884L816 896L780 898Q710 898 680 832L680 832Q670 808 670 798Q670 788 682 788ZM2138 1400L2152 1228L1946 1240L1944 1410L2138 1400ZM1372 1512L1378 2192L1382 2254Q1382 2298 1349 2323Q1316 2348 1298 2348Q1280 2348 1231 2323Q1182 2298 1128 2260L1128 2260Q994 2172 994 2138L994 2138Q994 2126 1009 2126Q1024 2126 1089 2151Q1154 2176 1260 2204L1260 2204L1258 1944L858 1960L850 2288Q848 2338 818 2338L818 2338Q796 2338 758 2318Q720 2298 720 2266L720 2266Q720 2252 727 2218Q734 2184 736 2120L736 2120L756 1554L756 1534Q756 1476 743 1444Q730 1412 730 1402Q730 1392 747 1392Q764 1392 870 1426L870 1426L1284 1406L1296 1406Q1330 1406 1354 1426Q1378 1446 1378 1470L1378 1470L1372 1512ZM2114 1690L2130 1500L1944 1510L1942 1698L2114 1690ZM1256 1614L1256 1510L868 1530L866 1630L1256 1614ZM1258 1840L1258 1714L864 1730L860 1856L1258 1840Z"/>
  </svg>