<svg xmlns="http://www.w3.org/2000/svg" viewBox="0 0 3000 3000" width="3000" height="3000">
    <path fill="#000000" d="M868 1621L986 1613L982 1837L862 1843L868 1621ZM1936 1617L2100 1607L2086 1771L1934 1781L1936 1617ZM1116 1609L1238 1601L1240 1827L1112 1833L1116 1609ZM860 1967L1240 1951L1242 2253Q1220 2247 1164 2230Q1108 2213 1050 2189L1050 2189Q1018 2179 1004 2179L1004 2179Q974 2179 974 2203L974 2203Q974 2225 1003 2253Q1032 2281 1074 2310Q1116 2339 1159 2365Q1202 2391 1239 2408Q1276 2425 1290 2425L1290 2425Q1310 2425 1347 2397Q1384 2369 1384 2319L1384 2319Q1384 2305 1382 2290Q1380 2275 1380 2257L1380 2257L1374 1591Q1374 1581 1377 1571Q1380 1561 1380 1549L1380 1549Q1380 1525 1354 1499Q1328 1473 1288 1473L1288 1473L1276 1473L860 1493Q812 1477 782 1468Q752 1459 731 1459Q710 1459 710 1483L710 1483Q710 1491 714 1502Q718 1513 722 1527L722 1527Q736 1565 736 1613L736 1613L736 1633L716 2185Q714 2247 702 2305L702 2305Q700 2313 700 2325L700 2325Q700 2361 737 2387Q774 2413 800 2413Q826 2413 838 2395Q850 2377 850 2353L850 2353L860 1967ZM1938 1349L2122 1335L2110 1483L1936 1493L1938 1349ZM1674 1923L1792 1917L1788 2279Q1750 2267 1701 2241Q1652 2215 1606 2185L1606 2185Q1576 2163 1554 2163L1554 2163Q1526 2163 1526 2189L1526 2189Q1526 2205 1550 2237Q1574 2269 1611 2305Q1648 2341 1688 2377Q1728 2413 1765 2436Q1802 2459 1826 2459L1826 2459Q1860 2459 1896 2430Q1932 2401 1932 2339L1932 2339Q1932 2325 1931 2310Q1930 2295 1930 2281L1930 2281L1934 1911L2196 1897Q2226 1895 2248 1891Q2270 1887 2270 1863L2270 1863Q2270 1837 2222 1781L2222 1781L2242 1601L2414 1591Q2472 1587 2472 1553L2472 1553Q2472 1531 2443 1496Q2414 1461 2378 1461L2378 1461Q2364 1461 2356 1463L2356 1463Q2342 1469 2326 1471Q2310 1473 2286 1475L2286 1475L2256 1477L2272 1327Q2274 1319 2278 1309Q2282 1299 2282 1287L2282 1287Q2282 1257 2252 1231L2252 1231Q2234 1211 2216 1205L2216 1205Q2220 1203 2228 1199L2228 1199Q2246 1189 2263 1169Q2280 1149 2280 1127L2280 1127Q2280 1113 2259 1082Q2238 1051 2208 1011Q2178 971 2144 934Q2110 897 2080 871L2080 871Q2060 855 2046 849L2046 849Q2116 831 2184 809L2184 809Q2208 799 2208 773Q2208 747 2189 715Q2170 683 2147 658Q2124 633 2106 633L2106 633Q2090 633 2074 655L2074 655Q2048 693 2028 703L2028 703Q1956 741 1865 774Q1774 807 1690 827L1690 827Q1678 817 1633 799Q1588 781 1560 781L1560 781Q1528 781 1528 811L1528 811Q1528 823 1530 831L1530 831Q1536 849 1538 863Q1540 877 1540 891L1540 891Q1540 921 1525 973Q1510 1025 1489 1081Q1468 1137 1448 1181L1448 1181Q1434 1209 1434 1235L1434 1235Q1434 1243 1438 1249L1438 1249Q1424 1243 1412 1243L1412 1243Q1402 1243 1394 1247L1394 1247Q1366 1259 1326 1261L1326 1261L1118 1273L1118 1177L1328 1163Q1380 1157 1380 1127L1380 1127Q1380 1105 1359 1085Q1338 1065 1315 1051Q1292 1037 1278 1037L1278 1037Q1268 1037 1262 1041L1262 1041Q1228 1053 1196 1055L1196 1055L1118 1061L1120 965L1370 949Q1424 943 1424 911L1424 911Q1424 891 1404 870Q1384 849 1358 834Q1332 819 1312 819L1312 819Q1308 819 1306 820Q1304 821 1300 821L1300 821Q1284 825 1265 830Q1246 835 1226 837L1226 837L1120 845L1120 707Q1120 663 1086 647Q1052 631 1020 628Q988 625 984 625L984 625Q950 625 950 649L950 649Q950 659 958 675L958 675Q968 695 974 719Q980 743 980 775L980 775L980 851L790 863L780 863Q740 863 694 853L694 853Q692 853 689 852Q686 851 682 851L682 851Q658 851 658 868Q658 885 670 913Q682 941 709 963Q736 985 780 985L780 985Q790 985 799 984Q808 983 816 983L816 983L982 973L982 1067L862 1075Q856 1075 849 1076Q842 1077 834 1077L834 1077Q806 1077 768 1067L768 1067Q762 1065 752 1065L752 1065Q728 1065 728 1089L728 1089Q728 1093 729 1098Q730 1103 732 1109L732 1109Q740 1127 756 1146Q772 1165 786 1177L786 1177Q798 1187 815 1190Q832 1193 848 1193L848 1193Q858 1193 868 1192Q878 1191 888 1191L888 1191L982 1185L984 1277L690 1293L672 1293Q658 1293 638 1291Q618 1289 602 1285L602 1285Q596 1283 586 1283L586 1283Q564 1283 564 1307L564 1307Q564 1337 583 1364Q602 1391 616 1403L616 1403Q628 1415 645 1418Q662 1421 686 1421L686 1421L720 1421L1466 1379Q1518 1373 1518 1337L1518 1337Q1518 1321 1500 1300Q1482 1279 1458 1261L1458 1261Q1456 1259 1454 1259L1454 1259Q1458 1259 1460 1259L1460 1259Q1484 1259 1518 1219L1518 1219Q1568 1155 1608 1088Q1648 1021 1690 919L1690 919Q1730 915 1778 907L1778 907Q1770 911 1760 917L1760 917Q1736 937 1736 954Q1736 971 1746 987L1746 987Q1768 1025 1784 1070Q1800 1115 1814 1161L1814 1161Q1828 1211 1868 1211L1868 1211L1888 1207Q1910 1205 1933 1190Q1956 1175 1956 1147L1956 1147Q1956 1141 1943 1103Q1930 1065 1908 1018Q1886 971 1860 935L1860 935Q1840 905 1820 899L1820 899Q1868 889 1922 879L1922 879Q1960 869 1998 861L1998 861Q1996 863 1992 863L1992 863Q1968 883 1968 911L1968 911Q1968 927 1980 945L1980 945Q2080 1067 2146 1169L2146 1169Q2162 1195 2178 1205L2178 1205L1662 1241Q1654 1241 1645 1242Q1636 1243 1626 1243L1626 1243Q1600 1243 1570 1237L1570 1237Q1562 1235 1555 1234Q1548 1233 1544 1233L1544 1233Q1516 1233 1516 1257L1516 1257Q1516 1263 1517 1269Q1518 1275 1520 1281L1520 1281Q1544 1343 1577 1355Q1610 1367 1632 1367L1632 1367Q1642 1367 1651 1367Q1660 1367 1674 1365L1674 1365L1798 1357L1796 1499L1534 1513L1514 1513Q1480 1513 1452 1505L1452 1505Q1446 1503 1441 1502Q1436 1501 1430 1501L1430 1501Q1404 1501 1404 1527L1404 1527Q1404 1539 1406 1547L1406 1547Q1418 1573 1426 1586Q1434 1599 1446 1609L1446 1609Q1464 1625 1480 1631Q1496 1637 1522 1637L1522 1637Q1530 1637 1539 1636Q1548 1635 1560 1635L1560 1635L1794 1623L1792 1787L1642 1795L1626 1795Q1608 1795 1591 1792Q1574 1789 1556 1787L1556 1787Q1550 1785 1540 1785L1540 1785Q1516 1785 1516 1807L1516 1807Q1516 1817 1522 1835L1522 1835Q1530 1855 1558 1889Q1586 1923 1644 1923L1644 1923L1674 1923Z"/>
  </svg>