<svg xmlns="http://www.w3.org/2000/svg" viewBox="0 0 3000 3000" width="3000" height="3000">
    <path fill="#000000" d="M1448 1702L1448 1642L2428 1642L2428 1702L1448 1702ZM1864 2420L1864 1374L1924 1374L1924 2418Q1924 2454 1914 2471Q1904 2488 1878 2498L1878 2498Q1852 2504 1803 2506Q1754 2508 1678 2508L1678 2508Q1676 2496 1668 2479Q1660 2462 1652 2448L1652 2448Q1722 2450 1771 2450Q1820 2450 1838 2448L1838 2448Q1864 2448 1864 2420L1864 2420ZM2284 738L2284 738L2334 788Q2228 820 2081 848Q1934 876 1774 898Q1614 920 1464 936L1464 936Q1462 926 1456 912Q1450 898 1444 888L1444 888Q1592 870 1750 846Q1908 822 2049 795Q2190 768 2284 738ZM1544 1400L1544 1340L2274 1340L2274 2020L1544 2020L1544 1962L2216 1962L2216 1400L1544 1400ZM1524 1012L1524 1012L1574 996Q1614 1058 1648 1136Q1682 1214 1696 1270L1696 1270L1640 1290Q1626 1232 1594 1154Q1562 1076 1524 1012ZM1786 972L1786 972L1840 958Q1874 1024 1901 1103Q1928 1182 1938 1238L1938 1238L1880 1256Q1872 1198 1846 1119Q1820 1040 1786 972ZM2264 920L2264 920L2320 948Q2282 1024 2235 1110Q2188 1196 2146 1256L2146 1256L2102 1230Q2128 1188 2159 1133Q2190 1078 2218 1021Q2246 964 2264 920ZM654 964L654 906L1386 906L1386 964L654 964ZM708 1188L708 1130L1336 1130L1336 1188L708 1188ZM614 1424L614 1366L1418 1366L1418 1424L614 1424ZM748 1892L748 1832L1286 1832L1286 1892L748 1892ZM748 2148L748 2090L1286 2090L1286 2148L748 2148ZM996 1408L996 710L1056 710L1056 1408L996 1408ZM1264 2430L1264 1584L1324 1584L1324 2430Q1324 2462 1313 2480Q1302 2498 1274 2504L1274 2504Q1248 2512 1192 2514Q1136 2516 1036 2516L1036 2516Q1034 2506 1026 2491Q1018 2476 1010 2462L1010 2462Q1092 2464 1152 2464Q1212 2464 1232 2464L1232 2464Q1264 2462 1264 2430L1264 2430ZM750 1642L750 1584L1288 1584L1288 1642L750 1642ZM720 2048L720 1584L778 1584L778 2048Q778 2124 770 2208Q762 2292 737 2374Q712 2456 658 2526L658 2526Q656 2518 649 2510Q642 2502 634 2493Q626 2484 618 2480L618 2480Q688 2386 704 2270Q720 2154 720 2048L720 2048Z"/>
  </svg>