<svg xmlns="http://www.w3.org/2000/svg" viewBox="0 0 3000 3000" width="3000" height="3000">
    <path fill="#000000" d="M988.72 1363.58L988.72 997.65L1025.70 997.65L1025.70 1363.58L988.72 1363.58ZM704.40 1993.43L704.40 1345.72L1294.72 1345.72L1294.72 1383.97L741.37 1383.97L741.37 1993.43L704.40 1993.43ZM1279.42 1933.50L1279.42 1345.72L1317.67 1345.72L1317.67 1933.50Q1317.67 1953.90 1310.66 1965.38Q1303.65 1976.85 1284.52 1983.23L1284.52 1983.23Q1265.40 1988.33 1225.88 1989.60Q1186.35 1990.88 1118.77 1990.88L1118.77 1990.88Q1117.50 1983.23 1113.04 1973.03Q1108.57 1962.83 1103.47 1953.90L1103.47 1953.90Q1159.57 1955.18 1201.65 1955.18Q1243.72 1955.18 1256.47 1955.18L1256.47 1955.18Q1270.50 1953.90 1274.96 1950.08Q1279.42 1946.25 1279.42 1933.50L1279.42 1933.50ZM720.97 1566.30L720.97 1528.05L1307.47 1528.05L1307.47 1566.30L720.97 1566.30ZM720.97 1752.45L720.97 1714.20L1301.10 1714.20L1301.10 1752.45L720.97 1752.45ZM324.45 1065.22L324.45 1065.22L352.50 1046.10Q393.30 1076.70 432.82 1114.31Q472.35 1151.92 506.14 1189.54Q539.92 1227.15 560.32 1259.03L560.32 1259.03L529.72 1280.70Q510.60 1248.83 476.81 1210.58Q443.02 1172.33 403.50 1134.08Q363.97 1095.83 324.45 1065.22ZM309.15 1483.43L519.52 1483.43L519.52 1981.95L481.27 1981.95L481.27 1520.40L309.15 1520.40L309.15 1483.43ZM685.27 1069.05L685.27 1069.05L715.87 1055.03Q756.67 1103.47 789.19 1162.76Q821.70 1222.05 835.72 1266.67L835.72 1266.67L801.30 1281.97Q787.27 1237.35 754.76 1177.42Q722.25 1117.50 685.27 1069.05ZM1296.00 1053.75L1296.00 1053.75L1332.97 1070.32Q1301.10 1125.15 1262.85 1186.99Q1224.60 1248.83 1190.17 1293.45L1190.17 1293.45L1159.57 1279.42Q1182.52 1248.83 1208.66 1209.30Q1234.80 1169.78 1257.75 1128.34Q1280.70 1086.90 1296.00 1053.75ZM516.97 1961.55L516.97 1961.55Q546.30 1961.55 572.44 1981.95Q598.57 2002.35 645.75 2031.68L645.75 2031.68Q705.67 2064.83 784.72 2075.03Q863.77 2085.22 967.05 2085.22L967.05 2085.22Q1048.65 2085.22 1135.35 2082.68Q1222.05 2080.13 1303.65 2076.30Q1385.25 2072.47 1449 2068.65L1449 2068.65Q1446.45 2072.47 1443.90 2080.13Q1441.35 2087.78 1439.44 2095.43Q1437.52 2103.08 1436.25 2110.72L1436.25 2110.72Q1396.72 2113.28 1336.80 2115.19Q1276.87 2117.10 1209.30 2119.01Q1141.72 2120.93 1077.97 2122.20Q1014.22 2123.47 968.32 2123.47L968.32 2123.47Q859.95 2123.47 775.80 2112Q691.65 2100.53 630.45 2063.55L630.45 2063.55Q594.75 2041.88 566.70 2019.56Q538.65 1997.25 516.97 1997.25L516.97 1997.25Q492.75 1997.25 462.79 2014.46Q432.82 2031.68 398.40 2062.28Q363.97 2092.88 325.72 2132.40L325.72 2132.40L298.95 2100.53Q339.75 2062.28 377.36 2030.40Q414.97 1998.53 450.67 1980.04Q486.37 1961.55 516.97 1961.55ZM1979.40 1159.58L1979.40 1159.58L2011.28 1145.55Q2045.70 1183.80 2075.66 1230.97Q2105.63 1278.15 2117.10 1315.13L2117.10 1315.13L2083.95 1331.70Q2071.20 1294.72 2041.88 1246.28Q2012.55 1197.83 1979.40 1159.58ZM2217.82 1141.72L2217.82 1141.72L2250.97 1131.53Q2284.13 1172.33 2308.99 1224.60Q2333.85 1276.88 2341.50 1313.85L2341.50 1313.85L2305.80 1326.60Q2296.88 1288.35 2272.65 1236.71Q2248.43 1185.08 2217.82 1141.72ZM1899.08 1649.18L1899.08 1612.20L2703.60 1612.20L2703.60 1649.18L1899.08 1649.18ZM2031.68 1450.28L2031.68 1412.03L2628.38 1412.03L2628.38 1450.28L2031.68 1450.28ZM2267.55 1933.50L2267.55 1432.43L2305.80 1432.43L2305.80 1933.50L2267.55 1933.50ZM2569.73 1111.13L2569.73 1111.13L2606.70 1130.25Q2571 1185.08 2527.65 1246.91Q2484.30 1308.75 2446.05 1352.10L2446.05 1352.10L2418 1336.80Q2443.50 1307.47 2471.55 1267.31Q2499.60 1227.15 2525.74 1185.71Q2551.88 1144.28 2569.73 1111.13ZM2585.03 1002.75L2585.03 1002.75L2622 1030.80Q2559.53 1047.38 2476.65 1061.40Q2393.78 1075.42 2300.70 1085.63Q2207.63 1095.83 2111.36 1104.11Q2015.10 1112.40 1924.58 1117.50L1924.58 1117.50Q1923.30 1111.13 1920.75 1101.56Q1918.20 1092 1914.38 1084.35L1914.38 1084.35Q2002.35 1079.25 2097.34 1071.60Q2192.32 1063.95 2283.49 1053.11Q2374.65 1042.28 2452.43 1029.53Q2530.20 1016.78 2585.03 1002.75ZM1576.50 1452.83L1794.53 1452.83L1794.53 1974.30L1757.55 1974.30L1757.55 1491.08L1576.50 1491.08L1576.50 1452.83ZM1604.55 1112.40L1604.55 1112.40L1630.05 1085.63Q1672.13 1108.58 1715.47 1136.63Q1758.83 1164.67 1796.44 1192.72Q1834.05 1220.78 1858.28 1245L1858.28 1245L1832.78 1275.60Q1808.55 1251.38 1770.30 1222.05Q1732.05 1192.72 1688.70 1164.04Q1645.35 1135.35 1604.55 1112.40ZM1776.67 1944.98L1776.67 1944.98Q1808.55 1944.98 1837.88 1968.56Q1867.20 1992.15 1923.30 2029.13L1923.30 2029.13Q1988.33 2069.93 2068.01 2082.68Q2147.70 2095.43 2256.07 2095.43L2256.07 2095.43Q2316 2095.43 2376.56 2094.15Q2437.13 2092.88 2497.05 2090.33Q2556.98 2087.78 2611.80 2084.59Q2666.63 2081.40 2715.07 2077.58L2715.07 2077.58Q2712.53 2082.68 2709.34 2089.69Q2706.15 2096.70 2704.88 2104.35Q2703.60 2112 2702.32 2119.65L2702.32 2119.65Q2673 2120.93 2619.45 2123.47Q2565.90 2126.03 2500.88 2127.30Q2435.85 2128.58 2371.46 2129.85Q2307.07 2131.13 2256.07 2131.13L2256.07 2131.13Q2140.05 2131.13 2055.26 2115.83Q1970.47 2100.53 1902.90 2057.18L1902.90 2057.18Q1867.20 2031.68 1833.41 2004.90Q1799.63 1978.13 1776.67 1978.13L1776.67 1978.13Q1753.72 1978.13 1725.04 1999.80Q1696.35 2021.48 1662.56 2057.81Q1628.78 2094.15 1591.80 2141.33L1591.80 2141.33L1563.75 2114.55Q1624.95 2041.88 1677.86 1993.43Q1730.78 1944.98 1776.67 1944.98ZM2086.50 1332.97L2086.50 1332.97L2128.57 1339.35Q2095.43 1392.90 2045.06 1446.45Q1994.70 1500 1923.30 1544.63L1923.30 1544.63Q1918.20 1538.25 1909.91 1531.24Q1901.63 1524.22 1893.97 1521.68L1893.97 1521.68Q1960.28 1480.88 2009.36 1429.88Q2058.45 1378.88 2086.50 1332.97ZM1981.95 1947.53L1981.95 1702.73L2020.20 1702.73L2020.20 1909.28L2562.07 1909.28L2562.07 1702.73L2600.32 1702.73L2600.32 1947.53L1981.95 1947.53Z"/>
  </svg>