<svg xmlns="http://www.w3.org/2000/svg" viewBox="0 0 3000 3000" width="3000" height="3000">
    <path fill="#000000" d="M1266.67 1284.53L1270.50 1763.93L1271.77 1797.08Q1271.77 1823.85 1254.56 1839.79Q1237.35 1855.73 1223.96 1855.73Q1210.57 1855.73 1185.07 1842.34Q1159.57 1828.95 1127.70 1809.19Q1095.82 1789.43 1065.86 1767.11Q1035.90 1744.80 1016.77 1726.95Q997.65 1709.10 997.65 1701.45Q997.65 1693.80 1012.31 1693.80Q1026.97 1693.80 1044.82 1704L1044.82 1704Q1125.15 1737.15 1192.72 1756.28L1192.72 1756.28L1191.45 1585.43L825.52 1600.73L822.97 1802.18Q822.97 1828.95 805.12 1828.95L805.12 1828.95Q793.65 1828.95 764.32 1814.29Q735.00 1799.63 735.00 1776.68L735.00 1776.68Q735.00 1769.03 739.46 1751.18Q743.92 1733.33 745.20 1691.25L745.20 1691.25L755.40 1312.58Q755.40 1274.33 745.84 1255.20Q736.27 1236.08 736.27 1228.43Q736.27 1220.78 752.85 1220.78Q769.42 1220.78 834.45 1241.18L834.45 1241.18L959.40 1233.53L961.95 969.60Q961.95 945.38 950.47 927.52Q939.00 909.67 939.00 900.75Q939.00 891.83 948.56 891.83Q958.12 891.83 979.80 895.65L979.80 895.65Q1042.27 907.13 1042.27 939L1042.27 939L1034.63 1228.43L1201.65 1216.95L1218.22 1215.68Q1243.72 1215.68 1257.75 1232.89Q1271.77 1250.10 1271.77 1260.30L1271.77 1260.30L1266.67 1284.53ZM1190.17 1371.22L1188.90 1287.08L830.62 1308.75L829.35 1392.90L1190.17 1371.22ZM1191.45 1521.68L1190.17 1433.70L828.07 1454.10L826.80 1536.97L1191.45 1521.68ZM612.60 1191.45L612.60 1191.45Q588.37 1222.05 574.35 1222.05Q560.32 1222.05 541.20 1197.83L541.20 1197.83Q474.90 1111.13 395.85 1039.72L395.85 1039.72Q380.55 1024.42 380.55 1016.14Q380.55 1007.85 392.02 993.19Q403.50 978.52 416.25 978.52Q429.00 978.52 451.95 996.38Q474.90 1014.23 503.59 1040.36Q532.27 1066.50 559.05 1093.91Q585.82 1121.33 603.67 1143.64Q621.52 1165.95 621.52 1173.60Q621.52 1181.25 612.60 1191.45ZM296.40 1311.30L296.40 1311.30Q327.00 1316.40 337.20 1316.40L337.20 1316.40L352.50 1316.40Q357.60 1316.40 362.70 1315.13L362.70 1315.13L553.95 1294.72L564.15 1294.72Q589.65 1294.72 603.67 1310.66Q617.70 1326.60 617.70 1338.71Q617.70 1350.83 594.75 1368.68L594.75 1368.68Q593.47 1369.95 581.36 1385.89Q569.25 1401.83 551.40 1424.14Q533.55 1446.45 504.86 1484.70Q476.17 1522.95 476.17 1529.33Q476.17 1535.70 482.55 1538.25L482.55 1538.25Q557.77 1585.43 584.55 1612.20Q611.32 1638.98 611.32 1660.01Q611.32 1681.05 602.40 1698.90L602.40 1698.90Q582.00 1733.33 490.20 1811.10L490.20 1811.10Q545.02 1813.65 665.51 1838.51Q786.00 1863.38 1015.50 1897.16Q1245 1930.95 1413.30 1930.95L1413.30 1930.95L1419.67 1930.95Q1449 1930.95 1449 1941.15L1449 1941.15Q1449 1943.70 1441.35 1961.55L1441.35 1961.55Q1420.95 2011.28 1385.25 2011.28L1385.25 2011.28L1376.32 2011.28Q1165.95 2004.90 755.40 1928.40L755.40 1928.40Q654.67 1910.55 587.10 1895.89Q519.52 1881.23 457.05 1881.23Q394.57 1881.23 332.10 1902.90L332.10 1902.90Q320.62 1906.73 312.97 1906.73Q305.32 1906.73 292.57 1899.08Q279.82 1891.43 279.82 1853.18L279.82 1853.18Q279.82 1836.60 299.59 1829.59Q319.35 1822.58 389.47 1814.93L389.47 1814.93Q457.05 1756.28 525.90 1673.40L525.90 1673.40Q528.45 1668.30 528.45 1667.03L528.45 1667.03Q528.45 1651.73 435.37 1590.53L435.37 1590.53Q400.95 1567.58 400.95 1542.08Q400.95 1516.58 432.82 1471.31Q464.70 1426.05 505.50 1369.95L505.50 1369.95L390.75 1383.97Q378.00 1385.25 367.80 1386.53Q357.60 1387.80 341.02 1387.80Q324.45 1387.80 311.70 1370.59Q298.95 1353.38 293.85 1336.80L293.85 1336.80L288.75 1318.95Q288.75 1311.30 296.40 1311.30ZM1218.22 944.10L1218.22 944.10Q1242.45 944.10 1266.04 967.69Q1289.62 991.27 1289.62 1000.84Q1289.62 1010.40 1266.67 1042.28Q1243.72 1074.15 1185.71 1130.89Q1127.70 1187.63 1104.75 1187.63L1104.75 1187.63Q1097.10 1187.63 1097.10 1178.70Q1097.10 1169.78 1127.06 1128.97Q1157.02 1088.17 1181.89 1044.19Q1206.75 1000.20 1206.75 972.15Q1206.75 944.10 1218.22 944.10ZM820.42 1157.03L820.42 1157.03Q779.62 1094.55 724.80 1039.72L724.80 1039.72Q713.32 1028.25 713.32 1020.60Q713.32 1012.95 723.52 996.38Q733.72 979.80 747.75 979.80Q761.77 979.80 785.36 1001.48Q808.95 1023.15 834.45 1052.47Q859.95 1081.80 877.80 1107.30Q895.65 1132.80 895.65 1142.36Q895.65 1151.92 878.44 1167.22Q861.22 1182.53 849.11 1182.53Q837.00 1182.53 820.42 1157.03ZM2233.13 1650.45L2233.13 1580.33L1960.28 1593.08Q1902.90 1593.08 1890.15 1529.33L1890.15 1529.33Q1888.88 1526.78 1888.88 1522.31Q1888.88 1517.85 1892.70 1517.85Q1896.53 1517.85 1909.91 1521.68Q1923.30 1525.50 1943.70 1525.50L1943.70 1525.50L1975.58 1525.50L2233.13 1514.03L2231.85 1449L2231.85 1410.75L2092.88 1418.40Q2038.05 1465.58 1983.22 1502.55L1983.22 1502.55Q1962.83 1516.58 1953.90 1516.58L1953.90 1516.58Q1941.15 1516.58 1941.15 1505.10Q1941.15 1493.63 1987.05 1449Q2032.95 1404.38 2080.13 1334.25L2080.13 1334.25Q2087.78 1322.78 2094.15 1288.35L2094.15 1288.35Q2096.70 1274.33 2106.90 1274.33L2106.90 1274.33Q2115.82 1275.60 2130.49 1285.80Q2145.15 1296 2155.99 1310.66Q2166.82 1325.33 2164.91 1333.61Q2163 1341.90 2161.09 1343.81Q2159.18 1345.72 2157.90 1349.55L2157.90 1349.55L2456.25 1332.97Q2488.13 1331.70 2508.53 1326.60Q2528.93 1321.50 2536.57 1321.50Q2544.23 1321.50 2558.89 1330.43Q2573.55 1339.35 2583.75 1351.46Q2593.95 1363.58 2593.95 1372.50L2593.95 1372.50Q2593.95 1390.35 2568.45 1392.90L2568.45 1392.90L2308.35 1406.93L2308.35 1436.25L2309.63 1510.20L2549.32 1498.72Q2581.20 1497.45 2599.69 1492.35Q2618.18 1487.25 2622 1487.25L2622 1487.25L2628.38 1487.25Q2647.50 1487.25 2667.90 1504.46Q2688.30 1521.68 2688.30 1535.70L2688.30 1535.70Q2688.30 1556.10 2661.53 1558.65L2661.53 1558.65L2309.63 1576.50L2309.63 1624.95L2310.90 1742.25L2488.13 1732.05L2489.40 1669.58Q2489.40 1630.05 2481.75 1611.56Q2474.10 1593.08 2474.10 1589.25L2474.10 1589.25Q2474.10 1580.33 2485.58 1580.33L2485.58 1580.33Q2488.13 1580.33 2507.25 1585.43L2507.25 1585.43Q2565.90 1598.18 2565.90 1632.60L2565.90 1632.60L2560.80 1853.18Q2560.80 1879.95 2539.76 1879.95Q2518.73 1879.95 2498.96 1867.20Q2479.20 1854.45 2479.20 1836.60L2479.20 1836.60L2485.58 1795.80L2101.80 1822.58Q2080.13 1823.85 2066.74 1828.95Q2053.35 1834.05 2043.79 1834.05Q2034.22 1834.05 2017.01 1822.58Q1999.80 1811.10 1999.80 1799.63Q1999.80 1788.15 2005.54 1769.03Q2011.28 1749.90 2011.28 1716.75L2011.28 1716.75L2012.55 1688.70Q2012.55 1649.18 2001.71 1633.88Q1990.88 1618.58 1990.88 1610.93Q1990.88 1603.28 2001.08 1603.28Q2011.28 1603.28 2032.95 1608.38L2032.95 1608.38Q2090.32 1619.85 2090.32 1651.73L2090.32 1651.73L2090.32 1654.28L2083.95 1755L2234.40 1746.08L2233.13 1650.45ZM2006.18 1074.15L1993.43 1074.15Q1951.35 1074.15 1951.35 1059.49Q1951.35 1044.83 2002.35 1037.17L2002.35 1037.17Q2275.20 995.10 2475.38 930.07L2475.38 930.07Q2493.23 924.98 2504.06 907.76Q2514.90 890.55 2524.46 890.55Q2534.03 890.55 2546.78 906.49Q2559.53 922.42 2569.09 942.82Q2578.65 963.23 2578.65 976.61Q2578.65 990 2560.80 995.10L2560.80 995.10Q2294.32 1058.85 2006.18 1074.15L2006.18 1074.15ZM1571.40 1317.68L1571.40 1317.68Q1602 1322.78 1617.30 1322.78L1617.30 1322.78L1836.60 1299.83Q1853.17 1299.83 1869.75 1313.85Q1886.33 1327.88 1886.33 1339.99Q1886.33 1352.10 1877.40 1359.75L1877.40 1359.75L1863.38 1375.05Q1860.83 1378.88 1842.34 1402.46Q1823.85 1426.05 1784.96 1478.33Q1746.08 1530.60 1746.08 1536.97Q1746.08 1543.35 1752.45 1547.18L1752.45 1547.18Q1827.67 1595.63 1853.81 1622.40Q1879.95 1649.18 1879.95 1668.30Q1879.95 1687.43 1872.30 1704L1872.30 1704Q1854.45 1739.70 1758.83 1827.68L1758.83 1827.68Q1818.75 1830.23 1932.86 1853.81Q2046.97 1877.40 2280.94 1913.10Q2514.90 1948.80 2688.30 1948.80L2688.30 1948.80L2694.68 1948.80Q2724 1948.80 2724 1959L2724 1959Q2724 1961.55 2715.71 1978.13Q2707.43 1994.70 2692.76 2010Q2678.10 2025.30 2660.25 2025.30L2660.25 2025.30L2651.32 2025.30Q2494.50 2020.20 2312.18 1990.88L2312.18 1990.88Q2007.45 1939.88 1918.84 1920.75Q1830.22 1901.63 1801.54 1897.16Q1772.85 1892.70 1724.40 1892.70Q1675.95 1892.70 1607.10 1915.65L1607.10 1915.65Q1595.63 1919.48 1587.34 1919.48Q1579.05 1919.48 1566.94 1911.19Q1554.83 1902.90 1554.83 1879.95Q1554.83 1857 1565.03 1848.71Q1575.22 1840.43 1658.10 1831.50L1658.10 1831.50Q1737.15 1761.38 1798.35 1683.60L1798.35 1683.60Q1800.90 1678.50 1800.90 1677.23L1800.90 1677.23Q1800.90 1660.65 1707.83 1599.45L1707.83 1599.45Q1674.67 1577.78 1674.67 1551.64Q1674.67 1525.50 1705.91 1480.24Q1737.15 1434.97 1777.95 1376.33L1777.95 1376.33L1659.38 1390.35Q1641.53 1392.90 1635.15 1392.90Q1628.78 1392.90 1614.75 1389.08Q1600.72 1385.25 1586.06 1372.50Q1571.40 1359.75 1565.03 1334.25L1565.03 1334.25Q1563.75 1331.70 1563.75 1326.60L1563.75 1326.60Q1563.75 1317.68 1571.40 1317.68ZM2078.85 1248.83L2078.85 1248.83Q2041.88 1199.10 1989.60 1151.92L1989.60 1151.92Q1980.68 1144.28 1980.04 1131.53Q1979.40 1118.78 1994.70 1106.66Q2010 1094.55 2015.74 1094.55Q2021.47 1094.55 2043.79 1111.13Q2066.10 1127.70 2090.96 1151.29Q2115.82 1174.88 2133.04 1193.36Q2150.25 1211.85 2150.25 1223.33Q2150.25 1234.80 2135.59 1252.01Q2120.93 1269.22 2108.81 1269.86Q2096.70 1270.50 2078.85 1248.83ZM2257.35 1236.08L2257.35 1236.08Q2233.13 1177.43 2212.09 1145.55Q2191.05 1113.67 2191.05 1103.47Q2191.05 1093.28 2206.35 1083.71Q2221.65 1074.15 2232.49 1074.15Q2243.32 1074.15 2259.90 1095.83Q2276.48 1117.50 2293.69 1146.19Q2310.90 1174.88 2322.38 1197.83Q2333.85 1220.78 2333.85 1228.43Q2333.85 1236.08 2316 1248.83Q2298.15 1261.58 2282.85 1261.58Q2267.55 1261.58 2257.35 1236.08ZM2582.48 1094.55L2582.48 1094.55Q2541.68 1162.13 2462.63 1224.60Q2383.57 1287.08 2361.90 1287.08L2361.90 1287.08Q2351.70 1287.08 2351.70 1276.88Q2351.70 1266.68 2379.75 1234.80L2379.75 1234.80Q2442.23 1165.95 2481.75 1089.45L2481.75 1089.45Q2489.40 1074.15 2489.40 1041L2489.40 1041Q2489.40 1025.70 2501.51 1025.70Q2513.63 1025.70 2532.75 1035.90Q2551.88 1046.10 2567.81 1060.76Q2583.75 1075.42 2583.75 1084.35Q2583.75 1093.28 2582.48 1094.55ZM1772.85 1183.80L1772.85 1183.80Q1711.65 1104.75 1632.60 1033.35L1632.60 1033.35Q1616.03 1019.33 1616.03 1009.13Q1616.03 998.92 1631.96 985.54Q1647.90 972.15 1657.46 972.15Q1667.03 972.15 1689.34 989.36Q1711.65 1006.58 1740.34 1033.35Q1769.03 1060.13 1797.08 1088.17Q1825.13 1116.22 1842.97 1138.54Q1860.83 1160.85 1860.83 1169.14Q1860.83 1177.43 1844.89 1197.83Q1828.95 1218.22 1813.65 1218.22Q1798.35 1218.22 1772.85 1183.80Z"/>
  </svg>