<svg xmlns="http://www.w3.org/2000/svg" viewBox="0 0 3000 3000" width="3000" height="3000">
    <path fill="#000000" d="M1010.40 1352.10L1010.40 997.65L1047.38 997.65L1047.38 1352.10L1010.40 1352.10ZM1301.10 1928.40L1301.10 1329.15L1338.07 1329.15L1338.07 1927.13Q1338.07 1948.80 1331.70 1960.28Q1325.32 1971.75 1306.20 1978.13L1306.20 1978.13Q1285.80 1983.23 1246.91 1984.50Q1208.02 1985.78 1140.45 1984.50L1140.45 1984.50Q1139.17 1976.85 1134.71 1967.29Q1130.25 1957.73 1125.15 1950.08L1125.15 1950.08Q1181.25 1951.35 1222.69 1951.35Q1264.12 1951.35 1276.87 1950.08L1276.87 1950.08Q1290.90 1948.80 1296.00 1944.98Q1301.10 1941.15 1301.10 1928.40L1301.10 1928.40ZM722.25 1043.55L722.25 1043.55L754.12 1030.80Q791.10 1079.25 821.06 1139.17Q851.02 1199.10 863.77 1243.72L863.77 1243.72L829.35 1257.75Q816.60 1213.13 787.27 1152.56Q757.95 1092 722.25 1043.55ZM1293.45 1028.25L1293.45 1028.25L1331.70 1044.82Q1299.82 1099.65 1260.94 1161.49Q1222.05 1223.33 1187.63 1267.95L1187.63 1267.95L1157.02 1255.20Q1179.97 1224.60 1206.11 1184.44Q1232.25 1144.28 1255.20 1102.84Q1278.15 1061.40 1293.45 1028.25ZM752.85 1367.40L752.85 1329.15L1321.50 1329.15L1321.50 1367.40L752.85 1367.40ZM740.10 1590.53L740.10 1329.15L777.07 1329.15L777.07 1591.80Q777.07 1637.70 773.25 1688.70Q769.42 1739.70 757.95 1793.25Q746.47 1846.80 724.16 1897.16Q701.85 1947.53 666.15 1992.15L666.15 1992.15Q663.60 1987.05 658.50 1981.95Q653.40 1976.85 648.30 1971.11Q643.20 1965.38 639.37 1962.83L639.37 1962.83Q684.00 1908 705.04 1843.61Q726.07 1779.23 733.09 1713.56Q740.10 1647.90 740.10 1590.53L740.10 1590.53ZM838.27 1803.45L819.15 1763.93Q882.90 1749.90 965.77 1731.41Q1048.65 1712.93 1141.09 1690.61Q1233.52 1668.30 1325.32 1646.63L1325.32 1646.63L1330.42 1681.05Q1199.10 1714.20 1069.69 1746.08Q940.27 1777.95 838.27 1803.45L838.27 1803.45ZM853.57 1503.83L853.57 1503.83L867.60 1474.50Q930.07 1488.53 997.65 1508.93Q1065.22 1529.33 1125.15 1552.28Q1185.07 1575.22 1225.88 1596.90L1225.88 1596.90L1213.13 1631.33Q1172.32 1608.38 1111.76 1584.79Q1051.20 1561.20 983.62 1539.53Q916.05 1517.85 853.57 1503.83ZM351.22 1015.50L351.22 1015.50L381.82 1000.20Q409.87 1032.07 439.84 1068.41Q469.80 1104.75 496.57 1138.54Q523.35 1172.33 538.65 1199.10L538.65 1199.10L508.05 1218.22Q491.47 1191.45 464.70 1156.39Q437.92 1121.33 408.60 1083.71Q379.27 1046.10 351.22 1015.50ZM291.30 1326.60L291.30 1288.35L579.45 1288.35L579.45 1326.60L291.30 1326.60ZM460.87 1922.03L487.65 1902.90Q532.27 1984.50 607.50 2024.66Q682.72 2064.83 789.82 2077.58Q896.92 2090.33 1034.63 2090.33L1034.63 2090.33Q1100.92 2090.33 1174.24 2089.05Q1247.55 2087.78 1318.31 2084.59Q1389.07 2081.40 1446.45 2077.58L1446.45 2077.58Q1442.63 2082.68 1439.44 2090.33Q1436.25 2097.97 1434.34 2105.63Q1432.42 2113.28 1431.15 2119.65L1431.15 2119.65Q1378.88 2122.20 1311.30 2124.75Q1243.72 2127.30 1172.96 2127.94Q1102.20 2128.58 1035.90 2128.58L1035.90 2128.58Q923.70 2128.58 833.17 2120.93Q742.65 2113.28 672.52 2091.60Q602.40 2069.93 550.12 2029.13Q497.85 1988.33 460.87 1922.03L460.87 1922.03ZM552.67 1624.95L552.67 1614.75L561.60 1614.75L570.52 1613.47L592.20 1622.40Q559.05 1818.75 482.55 1948.80Q406.05 2078.85 304.05 2150.25L304.05 2150.25Q301.50 2145.15 295.76 2139.41Q290.02 2133.68 284.92 2128.58Q279.82 2123.47 274.72 2120.93L274.72 2120.93Q375.45 2053.35 449.40 1929.68Q523.35 1806 552.67 1624.95L552.67 1624.95ZM302.77 1668.30L302.77 1668.30L302.77 1631.33L339.75 1614.75L573.07 1614.75L573.07 1651.72L376.72 1651.72Q349.95 1651.72 329.55 1656.83Q309.15 1661.93 302.77 1668.30ZM302.77 1668.30L302.77 1668.30Q301.50 1661.93 297.04 1653Q292.57 1644.08 288.75 1634.51Q284.92 1624.95 281.10 1619.85L281.10 1619.85Q293.85 1616.03 308.51 1608.38Q323.17 1600.72 338.47 1582.88L338.47 1582.88Q355.05 1567.58 385.01 1529.96Q414.97 1492.35 449.40 1447.09Q483.82 1401.83 513.79 1359.75Q543.75 1317.68 560.32 1293.45L560.32 1293.45L560.32 1290.90L579.45 1281.97L612.60 1299.83Q588.37 1331.70 554.59 1376.33Q520.80 1420.95 483.19 1468.13Q445.57 1515.30 409.87 1558.65Q374.17 1602 344.85 1632.60L344.85 1632.60Q344.85 1632.60 338.47 1635.79Q332.10 1638.97 323.81 1644.71Q315.52 1650.45 309.15 1656.19Q302.77 1661.93 302.77 1668.30ZM1902.90 1691.25L1902.90 1650.45L2679.38 1650.45L2679.38 1691.25L1902.90 1691.25ZM2094.15 1483.43L2094.15 1446.45L2623.28 1446.45L2623.28 1483.43L2094.15 1483.43ZM2284.13 1956.45L2284.13 1461.75L2322.38 1461.75L2322.38 1956.45L2284.13 1956.45ZM2141.32 1143L2141.32 1143L2170.65 1127.70Q2205.07 1150.65 2242.05 1179.34Q2279.03 1208.03 2311.54 1237.35Q2344.05 1266.67 2363.18 1290.90L2363.18 1290.90L2333.85 1310.03Q2314.73 1285.80 2282.85 1256.47Q2250.97 1227.15 2214 1197.19Q2177.03 1167.22 2141.32 1143ZM2113.28 1394.18L2113.28 1394.18L2151.53 1403.10Q2124.75 1460.47 2087.78 1515.94Q2050.80 1571.40 2012.55 1610.93L2012.55 1610.93Q2008.73 1608.38 2002.35 1604.55Q1995.98 1600.72 1989.60 1596.90Q1983.22 1593.08 1978.13 1590.53L1978.13 1590.53Q2018.93 1549.72 2053.99 1499.36Q2089.05 1449 2113.28 1394.18ZM2305.80 995.10L2305.80 995.10L2351.70 1004.03Q2281.57 1071.60 2174.47 1139.81Q2067.38 1208.03 1927.13 1262.85L1927.13 1262.85Q1922.03 1256.47 1914.38 1248.83Q1906.72 1241.17 1900.35 1236.08L1900.35 1236.08Q2036.78 1186.35 2141.96 1121.33Q2247.15 1056.30 2305.80 995.10ZM2562.07 1090.72L2562.07 1081.80L2571 1081.80L2579.93 1079.25L2602.88 1095.83Q2553.15 1173.60 2474.74 1236.08Q2396.32 1298.55 2300.70 1346.36Q2205.07 1394.18 2103.07 1427.33Q2001.08 1460.47 1905.45 1479.60L1905.45 1479.60Q1904.18 1470.68 1897.80 1461.11Q1891.43 1451.55 1885.05 1446.45L1885.05 1446.45Q1979.40 1429.88 2078.85 1398.64Q2178.30 1367.40 2272.01 1322.14Q2365.73 1276.88 2440.95 1218.86Q2516.18 1160.85 2562.07 1090.72L2562.07 1090.72ZM2179.57 1120.05L2214 1081.80L2574.82 1081.80L2574.82 1120.05L2179.57 1120.05ZM1987.05 1978.13L1987.05 1734.60L2025.30 1734.60L2025.30 1941.15L2567.18 1941.15L2567.18 1734.60L2605.43 1734.60L2605.43 1978.13L1987.05 1978.13ZM1965.38 1338.08L1960.28 1303.65L2193.60 1262.85L2198.70 1298.55L1965.38 1338.08ZM1621.13 1012.95L1621.13 1012.95L1651.72 997.65Q1692.53 1046.10 1734.60 1102.84Q1776.67 1159.58 1798.35 1200.38L1798.35 1200.38L1766.47 1218.22Q1751.17 1191.45 1726.95 1155.75Q1702.72 1120.05 1674.67 1082.44Q1646.63 1044.82 1621.13 1012.95ZM1563.75 1326.60L1563.75 1288.35L1835.33 1288.35L1835.33 1326.60L1563.75 1326.60ZM1734.60 1920.75L1760.10 1902.90Q1804.72 1984.50 1880.59 2024.66Q1956.45 2064.83 2064.19 2077.58Q2171.93 2090.33 2310.90 2090.33L2310.90 2090.33Q2377.20 2090.33 2450.51 2089.05Q2523.83 2087.78 2594.59 2085.22Q2665.35 2082.68 2724 2077.58L2724 2077.58Q2720.18 2082.68 2717.63 2089.69Q2715.07 2096.70 2713.16 2104.35Q2711.25 2112 2709.98 2117.10L2709.98 2117.10Q2656.43 2119.65 2588.85 2122.20Q2521.28 2124.75 2449.88 2125.39Q2378.48 2126.03 2312.18 2126.03L2312.18 2126.03Q2198.70 2126.03 2108.18 2118.38Q2017.65 2110.72 1946.89 2089.05Q1876.13 2067.38 1823.85 2027.21Q1771.58 1987.05 1734.60 1920.75L1734.60 1920.75ZM1811.10 1624.95L1811.10 1614.75L1820.03 1614.75L1828.95 1613.47L1851.90 1622.40Q1820.03 1814.93 1747.99 1944.34Q1675.95 2073.75 1579.05 2145.15L1579.05 2145.15Q1576.50 2140.05 1570.76 2134.95Q1565.03 2129.85 1559.92 2124.11Q1554.83 2118.38 1549.72 2115.83L1549.72 2115.83Q1644.08 2048.25 1713.56 1925.21Q1783.05 1802.18 1811.10 1624.95L1811.10 1624.95ZM1577.78 1668.30L1577.78 1668.30L1577.78 1631.33L1614.75 1614.75L1830.22 1614.75L1830.22 1651.72L1650.45 1651.72Q1624.95 1651.72 1604.55 1656.83Q1584.15 1661.93 1577.78 1668.30ZM1577.78 1668.30L1577.78 1668.30Q1576.50 1661.93 1572.04 1653Q1567.58 1644.08 1563.75 1634.51Q1559.92 1624.95 1556.10 1619.85L1556.10 1619.85Q1568.85 1616.03 1583.51 1608.38Q1598.17 1600.72 1612.20 1584.15L1612.20 1584.15Q1627.50 1568.85 1654.91 1531.24Q1682.33 1493.63 1713.56 1447.72Q1744.80 1401.83 1772.21 1359.75Q1799.63 1317.68 1814.92 1293.45L1814.92 1293.45L1814.92 1290.90L1832.78 1281.97L1865.92 1298.55Q1844.25 1330.43 1813.01 1375.05Q1781.78 1419.68 1747.35 1467.49Q1712.92 1515.30 1679.78 1558.65Q1646.63 1602 1619.85 1632.60L1619.85 1632.60Q1619.85 1632.60 1613.47 1635.79Q1607.10 1638.97 1598.81 1644.71Q1590.53 1650.45 1584.15 1656.19Q1577.78 1661.93 1577.78 1668.30Z"/>
  </svg>