<svg xmlns="http://www.w3.org/2000/svg" viewBox="0 0 3000 3000" width="3000" height="3000">
    <path fill="#000000" d="M770.70 1607.10L770.70 1607.10Q780.90 1596.90 785.36 1596.26Q789.82 1595.63 807.67 1583.51Q825.52 1571.40 863.77 1558.01Q902.02 1544.63 911.59 1544.63Q921.15 1544.63 930.71 1549.72Q940.27 1554.82 940.27 1561.20L940.27 1561.20Q940.27 1566.30 949.20 1573.31Q958.12 1580.32 956.85 1611.56Q955.57 1642.80 953.66 1645.99Q951.75 1649.17 923.70 1642.16Q895.65 1635.15 877.80 1637.70L877.80 1637.70Q796.20 1654.28 771.97 1631.33L771.97 1631.33Q765.60 1622.40 765.60 1619.21Q765.60 1616.03 770.70 1607.10ZM476.17 1220.77L476.17 1220.77Q482.55 1216.95 493.39 1214.40Q504.22 1211.85 510.60 1213.13Q516.97 1214.40 516.97 1218.22L516.97 1218.22Q516.97 1223.32 527.17 1223.32L527.17 1223.32Q542.47 1223.32 571.16 1240.54Q599.85 1257.75 606.22 1269.22L606.22 1269.22Q611.32 1281.97 624.07 1293.45L624.07 1293.45Q634.27 1304.92 633.64 1310.66Q633.00 1316.40 621.52 1327.88L621.52 1327.88Q610.05 1341.90 610.05 1345.72Q610.05 1349.55 599.85 1358.47Q589.65 1367.40 589.65 1363.57Q589.65 1359.75 583.91 1365.49Q578.17 1371.22 570.52 1368.04Q562.87 1364.85 562.87 1370.59Q562.87 1376.32 548.21 1376.32Q533.55 1376.32 531.00 1383.97L531.00 1383.97Q527.17 1392.90 522.07 1392.26Q516.97 1391.63 516.97 1382.70L516.97 1382.70Q516.97 1373.78 502.31 1361.66Q487.65 1349.55 487.65 1343.81Q487.65 1338.07 463.42 1317.67L463.42 1317.67L423.90 1283.25Q408.60 1269.22 402.22 1269.22L402.22 1269.22Q395.85 1269.22 394.57 1262.85Q393.30 1256.47 396.49 1249.46Q399.67 1242.45 404.77 1238.63L404.77 1238.63Q413.70 1233.53 438.56 1230.34Q463.42 1227.15 476.17 1220.77ZM694.20 1131.52L694.20 1131.52Q704.40 1118.77 724.80 1125.15Q745.20 1131.52 766.87 1153.20L766.87 1153.20Q792.37 1177.42 800.02 1177.42L800.02 1177.42Q806.40 1177.42 808.31 1195.27Q810.22 1213.13 807.67 1233.53Q805.12 1253.92 798.75 1257.75L798.75 1257.75Q778.35 1274.32 748.39 1271.14Q718.42 1267.95 703.12 1246.28L703.12 1246.28Q684.00 1220.77 680.17 1206.11Q676.35 1191.45 680.17 1168.50L680.17 1168.50Q686.55 1139.17 694.20 1131.52ZM875.25 954.30L875.25 954.30Q888.00 928.80 907.12 958.13L907.12 958.13Q917.32 972.15 936.45 983.62L936.45 983.62Q954.30 993.82 956.85 1000.84Q959.40 1007.85 953.02 1026.97L953.02 1026.97Q944.10 1047.38 941.55 1134.07L941.55 1134.07L940.27 1219.50L955.57 1209.30Q990.00 1187.63 1037.17 1135.35Q1084.35 1083.07 1098.38 1052.47L1098.38 1052.47Q1106.02 1039.72 1123.88 1039.72L1123.88 1039.72Q1136.63 1039.72 1150.65 1048.01Q1164.67 1056.30 1164.67 1063.95L1164.67 1063.95Q1164.67 1067.77 1179.97 1082.44Q1195.27 1097.10 1195.27 1107.30Q1195.27 1117.50 1172.32 1141.09Q1149.38 1164.67 1149.38 1172.32L1149.38 1172.32Q1149.38 1188.90 1122.60 1195.27L1122.60 1195.27Q1108.57 1199.10 1108.57 1203.56Q1108.57 1208.02 1100.92 1208.02Q1093.27 1208.02 1093.27 1213.13Q1093.27 1218.22 1088.17 1218.22Q1083.07 1218.22 1026.97 1255.20L1026.97 1255.20L969.60 1292.17L1005.30 1294.72Q1039.72 1298.55 1053.75 1296L1053.75 1296Q1067.77 1293.45 1097.10 1303.65Q1126.42 1313.85 1140.45 1326.60L1140.45 1326.60Q1163.40 1350.82 1146.82 1396.72L1146.82 1396.72Q1137.90 1419.67 1136.63 1582.88Q1135.35 1746.08 1130.25 1760.10Q1125.15 1774.13 1125.15 1791.97Q1125.15 1809.83 1119.41 1812.38Q1113.67 1814.92 1113.67 1826.40Q1113.67 1837.88 1074.15 1877.40L1074.15 1877.40Q1048.65 1900.35 1039.09 1906.09Q1029.52 1911.83 1024.42 1907.36Q1019.32 1902.90 1009.12 1883.78L1009.12 1883.78Q995.10 1853.17 941.55 1811.10L941.55 1811.10Q919.87 1794.53 919.87 1788.15L919.87 1788.15Q919.87 1780.50 933.90 1777.31Q947.92 1774.13 968.32 1776.67L968.32 1776.67Q1005.30 1781.78 1024.42 1733.33L1024.42 1733.33Q1033.35 1710.38 1032.07 1587.97L1032.07 1587.97Q1032.07 1357.20 1020.60 1349.55L1020.60 1349.55Q1014.22 1345.72 1001.47 1345.09Q988.72 1344.45 963.86 1342.54Q939.00 1340.63 930.71 1343.81Q922.42 1347 900.75 1348.28Q879.07 1349.55 862.50 1355.92L862.50 1355.92Q803.85 1378.88 796.20 1391.63L796.20 1391.63Q791.10 1396.72 784.72 1396.72Q778.35 1396.72 778.35 1421.59Q778.35 1446.45 774.52 1454.74Q770.70 1463.03 780.90 1463.03L780.90 1463.03Q791.10 1463.03 806.40 1450.28L806.40 1450.28Q821.70 1437.53 844.65 1432.42Q867.60 1427.32 897.56 1416.49Q927.52 1405.65 941.55 1409.47L941.55 1409.47Q954.30 1412.03 962.59 1427.96Q970.87 1443.90 970.87 1463.03L970.87 1463.03Q970.87 1479.60 963.86 1486.61Q956.85 1493.63 940.27 1493.63L940.27 1493.63Q922.42 1492.35 889.91 1498.72Q857.40 1505.10 847.20 1511.47L847.20 1511.47Q819.15 1524.22 791.10 1511.47L791.10 1511.47Q780.90 1505.10 777.71 1505.10Q774.52 1505.10 769.42 1512.75L769.42 1512.75Q756.67 1530.60 759.22 1668.30L759.22 1668.30Q761.77 1738.42 754.76 1753.09Q747.75 1767.75 747.75 1795.80Q747.75 1823.85 739.46 1830.22Q731.17 1836.60 731.17 1843.61Q731.17 1850.63 724.80 1850.63L724.80 1850.63Q719.70 1850.63 728.62 1855.72L728.62 1855.72Q729.90 1855.72 731.17 1857L731.17 1857L780.90 1878.67Q842.10 1908 954.30 1933.50L954.30 1933.50Q1029.52 1951.35 1078.61 1957.09Q1127.70 1962.83 1229.70 1964.10L1229.70 1964.10Q1310.02 1965.38 1329.79 1967.29Q1349.55 1969.20 1369.95 1979.40L1369.95 1979.40Q1389.07 1988.33 1394.81 1992.79Q1400.55 1997.25 1399.27 2003.63L1399.27 2003.63Q1398 2016.38 1379.51 2020.84Q1361.02 2025.30 1348.91 2038.05Q1336.80 2050.80 1322.77 2055.90L1322.77 2055.90Q1289.62 2069.93 1269.22 2101.80L1269.22 2101.80Q1241.17 2143.88 1071.60 2106.90L1071.60 2106.90Q923.70 2077.57 814.05 2025.30L814.05 2025.30Q738.82 1990.88 720.97 1983.86Q703.12 1976.85 689.10 1966.65L689.10 1966.65Q653.40 1942.42 571.80 1942.42L571.80 1942.42Q515.70 1942.42 487.65 1954.54Q459.60 1966.65 441.75 1999.80L441.75 1999.80Q426.45 2026.58 413.70 2033.59Q400.95 2040.60 390.11 2031.67Q379.27 2022.75 378.64 1995.34Q378.00 1967.92 386.92 1960.28L386.92 1960.28Q394.57 1951.35 389.47 1947.53L389.47 1947.53Q384.37 1943.70 390.75 1930.31Q397.12 1916.92 406.05 1916.92L406.05 1916.92Q418.80 1916.92 495.30 1834.05L495.30 1834.05L516.97 1811.10L494.02 1776.67Q472.35 1740.97 463.42 1730.78L463.42 1730.78Q445.57 1709.10 445.57 1684.24Q445.57 1659.38 453.86 1611.56Q462.15 1563.75 472.35 1536.97L472.35 1536.97Q481.27 1506.38 481.27 1505.10L481.27 1505.10Q481.27 1497.45 437.92 1524.22L437.92 1524.22Q404.77 1544.63 400.95 1545.26Q397.12 1545.90 379.27 1561.20L379.27 1561.20Q362.70 1573.95 356.32 1573.95Q349.95 1573.95 337.20 1562.47L337.20 1562.47Q327.00 1552.28 326.36 1544.63Q325.72 1536.97 330.82 1519.13L330.82 1519.13Q333.37 1508.92 371.62 1485.97Q409.87 1463.03 460.87 1442.63L460.87 1442.63Q492.75 1428.60 502.95 1419.67L502.95 1419.67Q513.15 1409.47 542.47 1413.94Q571.80 1418.40 584.55 1433.70L584.55 1433.70Q592.20 1442.63 596.02 1470.04Q599.85 1497.45 596.02 1512.75L596.02 1512.75Q592.20 1531.88 538.65 1590.53L538.65 1590.53Q516.97 1613.47 516.97 1622.40Q516.97 1631.33 511.87 1633.88Q506.77 1636.42 506.77 1646.63L506.77 1646.63Q506.77 1659.38 539.92 1719.94Q573.07 1780.50 585.82 1794.53L585.82 1794.53Q603.67 1811.10 611.32 1825.13L611.32 1825.13Q616.42 1834.05 624.07 1837.24Q631.72 1840.42 661.05 1842.97L661.05 1842.97Q701.85 1846.80 710.77 1849.35L710.77 1849.35Q715.87 1850.63 716.51 1849.99Q717.15 1849.35 713.32 1845.53L713.32 1845.53Q694.20 1821.30 700.57 1709.10L700.57 1709.10Q704.40 1637.70 706.95 1632.60L706.95 1632.60Q715.87 1618.58 723.52 1470.67L723.52 1470.67Q727.35 1410.75 731.17 1395.45Q735.00 1380.15 749.66 1366.13Q764.32 1352.10 801.30 1332.34Q838.27 1312.57 854.85 1308.75L854.85 1308.75Q868.87 1304.92 868.87 1292.17Q868.87 1279.42 863.77 1279.42Q858.67 1279.42 848.47 1255.20Q838.27 1230.97 833.17 1222.05L833.17 1222.05Q828.07 1213.13 831.26 1208.02Q834.45 1202.92 840.82 1202.92L840.82 1202.92Q853.57 1202.92 857.40 1182.52Q861.22 1162.13 861.22 1088.17L861.22 1088.17Q862.50 1015.50 865.05 993.19Q867.60 970.87 875.25 954.30ZM1723.13 1383.97L1723.13 1383.97Q1760.10 1369.95 1767.75 1365.49Q1775.40 1361.03 1776.04 1361.03Q1776.67 1361.03 1802.17 1366.13L1802.17 1366.13L1827.67 1371.22L1830.22 1404.38Q1835.33 1434.97 1831.50 1445.81Q1827.67 1456.65 1813.65 1465.57L1813.65 1465.57Q1798.35 1473.22 1796.44 1487.89Q1794.53 1502.55 1786.88 1524.22L1786.88 1524.22Q1774.13 1580.32 1812.38 1688.70L1812.38 1688.70Q1821.30 1710.38 1859.55 1751.17L1859.55 1751.17Q1897.80 1788.15 1904.18 1801.54Q1910.55 1814.92 1908 1841.70L1908 1841.70L1904.18 1869.75L1924.58 1872.30Q1944.97 1876.13 1993.43 1888.88L1993.43 1888.88Q2048.25 1902.90 2170.65 1925.85L2170.65 1925.85Q2210.18 1933.50 2250.34 1935.41Q2290.50 1937.33 2424.38 1937.33L2424.38 1937.33Q2583.75 1937.33 2634.75 1942.42Q2685.75 1947.53 2695.95 1964.10L2695.95 1964.10Q2702.32 1971.75 2700.41 1976.21Q2698.50 1980.67 2690.85 1993.42L2690.85 1993.42Q2666.63 2024.03 2650.05 2024.03L2650.05 2024.03Q2643.68 2025.30 2606.06 2042.51Q2568.45 2059.72 2546.78 2073.75L2546.78 2073.75Q2531.48 2083.95 2518.73 2099.25L2518.73 2099.25L2504.70 2114.55L2440.95 2106.90Q2377.20 2101.80 2322.38 2099.25L2322.38 2099.25Q2277.75 2096.70 2245.24 2089.05Q2212.72 2081.40 2147.70 2059.72L2147.70 2059.72Q2089.05 2039.33 2048.25 2027.21Q2007.45 2015.10 1950.08 1993.42L1950.08 1993.42Q1876.13 1965.38 1823.21 1967.92Q1770.30 1970.47 1751.17 2002.35L1751.17 2002.35Q1719.30 2053.35 1686.15 2011.28L1686.15 2011.28Q1670.85 1990.88 1668.30 1961.55L1668.30 1961.55Q1667.03 1938.60 1668.94 1932.86Q1670.85 1927.13 1684.88 1916.92L1684.88 1916.92Q1720.58 1888.88 1769.03 1871.03L1769.03 1871.03L1808.55 1857L1799.63 1844.25Q1774.13 1807.28 1753.72 1753.72L1753.72 1753.72Q1737.15 1707.83 1730.78 1674.04Q1724.40 1640.25 1721.85 1577.78L1721.85 1577.78L1719.30 1493.63L1698.90 1505.10Q1677.22 1516.57 1653 1533.15L1653 1533.15Q1628.78 1549.72 1616.66 1550.36Q1604.55 1551 1589.25 1535.70L1589.25 1535.70Q1573.95 1519.13 1575.22 1493.63Q1576.50 1468.13 1584.15 1460.47L1584.15 1460.47Q1605.83 1445.17 1653 1419.04Q1700.17 1392.90 1723.13 1383.97ZM2129.85 1118.77L2129.85 1118.77Q2136.22 1107.30 2184.68 1127.70L2184.68 1127.70Q2225.47 1145.55 2234.40 1153.84Q2243.32 1162.13 2243.32 1183.80L2243.32 1183.80Q2243.32 1229.70 2201.25 1239.90L2201.25 1239.90Q2188.50 1241.17 2183.40 1239.26Q2178.30 1237.35 2168.10 1225.88L2168.10 1225.88Q2151.53 1208.02 2136.86 1178.06Q2122.20 1148.10 2128.57 1141.72L2128.57 1141.72Q2133.68 1134.07 2129.85 1128.34Q2126.03 1122.60 2129.85 1118.77ZM1723.13 1113.67L1723.13 1113.67Q1748.63 1103.47 1763.92 1106.02L1763.92 1106.02Q1854.45 1120.05 1854.45 1134.07L1854.45 1134.07Q1854.45 1141.72 1862.74 1146.82Q1871.03 1151.92 1875.49 1174.24Q1879.95 1196.55 1874.85 1202.92L1874.85 1202.92Q1869.75 1208.02 1869.75 1218.22Q1869.75 1228.42 1849.35 1248.19Q1828.95 1267.95 1808.55 1267.95L1808.55 1267.95Q1794.53 1267.95 1785.60 1262.21Q1776.67 1256.47 1753.72 1236.07L1753.72 1236.07Q1720.58 1202.92 1720.58 1199.10Q1720.58 1195.27 1704.64 1174.88Q1688.70 1154.47 1693.80 1137.90L1693.80 1137.90Q1697.63 1127.70 1702.09 1123.24Q1706.55 1118.77 1723.13 1113.67ZM2368.28 1097.10L2368.28 1097.10Q2379.75 1069.05 2425.65 1098.38L2425.65 1098.38Q2465.18 1126.42 2471.55 1144.27Q2477.93 1162.13 2456.25 1187.63L2456.25 1187.63Q2444.78 1199.10 2437.13 1203.56Q2429.48 1208.02 2412.90 1209.30L2412.90 1209.30Q2387.40 1211.85 2360.63 1234.80L2360.63 1234.80Q2294.32 1284.53 2248.43 1304.92L2248.43 1304.92Q2217.82 1318.95 2219.10 1322.78L2219.10 1322.78Q2225.47 1324.05 2275.84 1316.40Q2326.20 1308.75 2341.50 1311.30L2341.50 1311.30L2375.93 1316.40L2395.05 1320.22L2395.05 1350.82Q2395.05 1375.05 2393.14 1380.15Q2391.23 1385.25 2379.75 1390.35L2379.75 1390.35Q2364.45 1396.72 2327.48 1394.17L2327.48 1394.17Q2293.05 1390.35 2293.05 1396.72L2293.05 1396.72Q2293.05 1399.28 2300.70 1409.47L2300.70 1409.47Q2310.90 1423.50 2293.05 1461.75L2293.05 1461.75Q2286.68 1480.88 2293.69 1487.25Q2300.70 1493.63 2327.48 1489.80L2327.48 1489.80Q2471.55 1465.57 2508.53 1484.70L2508.53 1484.70Q2517.45 1488.52 2521.28 1505.74Q2525.10 1522.95 2521.28 1536.97L2521.28 1536.97Q2518.73 1548.45 2504.70 1554.19Q2490.68 1559.92 2475.38 1554.82L2475.38 1554.82Q2460.07 1552.28 2403.34 1551.64Q2346.60 1551 2326.20 1553.55L2326.20 1553.55Q2307.07 1558.65 2305.80 1567.57L2305.80 1567.57Q2301.98 1586.70 2297.51 1639.61Q2293.05 1692.53 2294.32 1693.80L2294.32 1693.80Q2296.88 1697.63 2324.29 1700.81Q2351.70 1704 2354.25 1701.45L2354.25 1701.45Q2355.53 1698.90 2356.80 1654.28L2356.80 1654.28Q2356.80 1621.13 2362.54 1593.71Q2368.28 1566.30 2375.93 1566.30L2375.93 1566.30Q2384.85 1566.30 2401.43 1575.86Q2418 1585.42 2424.38 1595.63L2424.38 1595.63Q2433.30 1609.65 2444.78 1619.85L2444.78 1619.85Q2469 1638.97 2465.18 1707.83L2465.18 1707.83Q2463.90 1738.42 2460.71 1752.45Q2457.53 1766.47 2444.78 1791.97L2444.78 1791.97Q2425.65 1827.67 2414.81 1830.22Q2403.98 1832.78 2382.30 1811.10L2382.30 1811.10L2358.07 1786.88L2285.40 1786.88Q2206.35 1786.88 2136.86 1802.17Q2067.38 1817.47 2048.25 1839.15L2048.25 1839.15Q2039.33 1849.35 2030.40 1849.35L2030.40 1849.35Q2021.47 1849.35 2010 1837.24Q1998.53 1825.13 1998.53 1814.92L1998.53 1814.92Q1998.53 1803.45 1994.70 1800.90L1994.70 1800.90Q1989.60 1797.08 1992.79 1769.03Q1995.98 1740.97 2003.63 1733.33L2003.63 1733.33Q2012.55 1723.13 2016.38 1712.92L2016.38 1712.92Q2021.47 1704 2027.85 1657.46Q2034.22 1610.92 2031.68 1608.38L2031.68 1608.38Q2029.13 1605.83 2003.63 1618.58Q1978.13 1631.33 1969.20 1638.97L1969.20 1638.97Q1959 1649.17 1941.15 1653L1941.15 1653Q1922.03 1655.55 1911.19 1644.71Q1900.35 1633.88 1902.90 1616.03L1902.90 1616.03Q1902.90 1605.83 1909.91 1600.09Q1916.93 1594.35 1944.97 1580.32L1944.97 1580.32Q1994.70 1556.10 2147.70 1519.13L2147.70 1519.13L2177.03 1512.75L2178.30 1478.32Q2179.57 1445.17 2184.04 1440.71Q2188.50 1436.25 2188.50 1426.05L2188.50 1426.05Q2188.50 1409.47 2133.68 1436.25L2133.68 1436.25Q2105.63 1447.72 2094.15 1445.17Q2082.68 1442.63 2059.72 1460.47L2059.72 1460.47Q2003.63 1503.82 1953.90 1516.57L1953.90 1516.57Q1937.33 1520.40 1937.33 1512.75L1937.33 1512.75Q1937.33 1493.63 1965.38 1455.38L1965.38 1455.38Q1978.13 1438.80 1978.13 1434.97Q1978.13 1431.15 1992.79 1412.66Q2007.45 1394.17 2022.11 1364.21Q2036.78 1334.25 2044.43 1331.70L2044.43 1331.70Q2055.90 1329.15 2057.18 1321.50Q2058.45 1313.85 2048.25 1308.75L2048.25 1308.75Q2016.38 1297.28 1993.43 1243.72Q1970.47 1190.17 1989.60 1172.32L1989.60 1172.32Q1997.25 1163.40 2021.47 1176.15Q2045.70 1188.90 2064.82 1210.57L2064.82 1210.57Q2078.85 1225.88 2082.68 1234.16Q2086.50 1242.45 2086.50 1260.30L2086.50 1260.30Q2086.50 1281.97 2092.88 1290.90Q2099.25 1299.82 2120.93 1311.30L2120.93 1311.30Q2137.50 1320.22 2137.50 1332.97Q2137.50 1345.72 2146.43 1345.72L2146.43 1345.72Q2160.45 1345.72 2254.80 1242.45Q2349.15 1139.17 2349.15 1123.88L2349.15 1123.88Q2349.15 1118.77 2355.53 1114.95Q2361.90 1111.13 2368.28 1097.10ZM2179.57 1605.83L2179.57 1605.83Q2179.57 1581.60 2173.84 1578.41Q2168.10 1575.22 2138.78 1581.60L2138.78 1581.60Q2118.38 1586.70 2119.65 1590.53L2119.65 1590.53Q2119.65 1593.07 2126.03 1596.90L2126.03 1596.90Q2147.70 1608.38 2131.13 1627.50L2131.13 1627.50Q2123.47 1636.42 2120.93 1654.28Q2118.38 1672.13 2110.09 1697.63Q2101.80 1723.13 2101.80 1724.40L2101.80 1724.40Q2101.80 1724.40 2108.18 1723.76Q2114.55 1723.13 2126.03 1721.85Q2137.50 1720.58 2152.80 1718.03L2152.80 1718.03Q2163 1716.75 2165.55 1709.74Q2168.10 1702.72 2171.93 1674.67L2171.93 1674.67Q2179.57 1636.42 2179.57 1605.83ZM2027.85 1113.67L2041.88 1097.10Q2055.90 1080.52 2110.09 1025.06Q2164.28 969.60 2164.28 965.14Q2164.28 960.67 2170.65 957.49Q2177.03 954.30 2208.90 954.30L2208.90 954.30Q2230.57 953.02 2238.22 955.57Q2245.88 958.13 2254.80 967.05L2254.80 967.05Q2267.55 981.07 2267.55 1002.75Q2267.55 1024.42 2254.80 1038.45L2254.80 1038.45Q2245.88 1046.10 2238.86 1048.65Q2231.85 1051.20 2214 1051.20L2214 1051.20Q2192.32 1051.20 2161.72 1060.76Q2131.13 1070.32 2122.20 1080.52L2122.20 1080.52Q2115.82 1086.90 2110.09 1086.90Q2104.35 1086.90 2092.24 1099.01Q2080.13 1111.13 2054.63 1112.40L2054.63 1112.40L2027.85 1113.67Z"/>
  </svg>