<svg xmlns="http://www.w3.org/2000/svg" viewBox="0 0 3000 3000" width="3000" height="3000">
    <path fill="#000000" d="M991.99 2031.67Q730.52 2029.17 649.58 1998.05L649.58 1998.05Q568.65 1965.67 527.56 1919.60L527.56 1919.60Q403.05 2025.44 355.74 2025.44L355.74 2025.44Q307.18 2025.44 307.18 1973.14L307.18 1973.14Q307.18 1932.06 366.94 1903.42L366.94 1903.42L461.57 1857.35L461.57 1635.72Q461.57 1597.12 422.97 1597.12L422.97 1597.12L361.96 1597.12Q307.18 1597.12 307.18 1549.80L307.18 1549.80Q307.18 1502.49 361.96 1502.49L361.96 1502.49L451.61 1502.49Q507.64 1502.49 533.79 1527.39Q559.94 1552.29 557.45 1607.08L557.45 1607.08L557.45 1821.24Q587.33 1867.31 649.58 1898.44L649.58 1898.44Q715.58 1932.06 897.36 1933.30L897.36 1933.30L1086.62 1935.79Q1125.22 1937.04 1216.11 1932.06L1216.11 1932.06Q1236.04 1932.06 1278.99 1930.19Q1321.95 1928.32 1355.57 1928.32L1355.57 1928.32L1370.51 1928.32Q1417.82 1928.32 1417.82 1979.37L1417.82 1979.37Q1417.82 2034.16 1348.10 2034.16L1348.10 2034.16L991.99 2031.67ZM515.11 1370.51Q505.15 1370.51 475.27 1356.81L475.27 1356.81L378.15 1313.23Q333.33 1292.07 333.33 1265.92L333.33 1265.92Q333.33 1216.11 385.62 1216.11L385.62 1216.11Q415.50 1216.11 492.70 1250.98L492.70 1250.98Q564.92 1287.08 564.92 1319.46L564.92 1319.46Q564.92 1370.51 515.11 1370.51L515.11 1370.51ZM563.67 1142.65Q546.24 1142.65 521.34 1126.46L521.34 1126.46Q472.78 1095.34 432.93 1077.91L432.93 1077.91Q391.85 1059.23 391.85 1031.84L391.85 1031.84Q391.85 980.79 440.41 980.79L440.41 980.79Q469.04 980.79 540.01 1018.14L540.01 1018.14Q614.72 1055.49 614.72 1090.36L614.72 1090.36Q614.72 1142.65 563.67 1142.65L563.67 1142.65ZM780.32 1577.20L1216.11 1577.20L1216.11 1483.81L780.32 1483.81L780.32 1577.20ZM733.01 1885.99Q684.45 1885.99 684.45 1826.22L684.45 1826.22L684.45 1329.42Q684.45 1272.14 710.60 1246.00Q736.74 1219.85 790.28 1223.58L790.28 1223.58L947.17 1223.58L947.17 1014.40Q947.17 952.15 996.97 952.15L996.97 952.15Q1046.78 952.15 1046.78 1011.91L1046.78 1011.91L1046.78 1223.58L1208.64 1223.58Q1267.16 1223.58 1292.69 1249.11Q1318.21 1274.63 1314.48 1329.42L1314.48 1329.42L1314.48 1761.47Q1319.46 1826.22 1288.33 1856.10Q1257.20 1885.99 1189.97 1885.99L1189.97 1885.99L1116.50 1885.99Q1059.23 1885.99 1059.23 1834.94L1059.23 1834.94Q1059.23 1785.13 1116.50 1785.13L1116.50 1785.13L1175.02 1785.13Q1193.70 1785.13 1204.91 1773.93Q1216.11 1762.72 1216.11 1742.80L1216.11 1742.80L1216.11 1658.13L780.32 1658.13L780.32 1826.22Q780.32 1885.99 733.01 1885.99L733.01 1885.99ZM780.32 1404.13L1216.11 1404.13L1216.11 1346.85Q1216.11 1309.50 1178.76 1309.50L1178.76 1309.50L817.68 1309.50Q780.32 1309.50 780.32 1346.85L780.32 1346.85L780.32 1404.13ZM813.94 1182.50Q789.04 1182.50 755.42 1130.20L755.42 1130.20Q731.76 1092.85 719.93 1065.45Q708.11 1038.06 708.11 1029.35L708.11 1029.35Q708.11 987.01 756.67 987.01L756.67 987.01Q784.06 987.01 826.39 1060.47L826.39 1060.47Q842.58 1087.87 852.54 1110.90Q862.50 1133.94 862.50 1141.41L862.50 1141.41Q862.50 1182.50 813.94 1182.50L813.94 1182.50ZM1187.48 1183.74Q1137.67 1183.74 1137.67 1142.65L1137.67 1142.65Q1137.67 1136.43 1150.12 1102.81L1150.12 1102.81L1198.68 1008.18Q1216.11 975.81 1247.24 975.81L1247.24 975.81Q1293.31 975.81 1293.31 1021.88L1293.31 1021.88Q1293.31 1029.35 1282.73 1053.63Q1272.14 1077.91 1254.71 1109.03L1254.71 1109.03Q1213.62 1183.74 1187.48 1183.74L1187.48 1183.74ZM2035.40 1873.54Q1979.37 1873.54 1953.85 1850.50Q1928.32 1827.47 1930.81 1777.66L1930.81 1777.66L1930.81 1700.46Q1930.81 1651.90 1980.62 1651.90L1980.62 1651.90Q2030.42 1651.90 2030.42 1701.71L2030.42 1701.71L2030.42 1752.76Q2030.42 1783.89 2064.04 1786.38L2064.04 1786.38L2240.84 1786.38L2240.84 1629.49L1912.13 1629.49Q1862.33 1629.49 1862.33 1585.91L1862.33 1585.91Q1862.33 1542.33 1912.13 1542.33L1912.13 1542.33L2240.84 1542.33L2240.84 1452.69L2070.26 1452.69Q2017.97 1533.62 1989.33 1533.62L1989.33 1533.62Q1968.16 1533.62 1956.34 1523.66Q1944.51 1513.70 1944.51 1496.26L1944.51 1496.26Q1944.51 1480.08 1990.58 1429.03L1990.58 1429.03Q2016.72 1399.15 2035.40 1371.75L2035.40 1371.75L1929.57 1391.67L1894.70 1396.66Q1873.54 1399.15 1862.95 1387.32Q1852.37 1375.49 1852.37 1353.08L1852.37 1353.08Q1852.37 1313.23 1914.62 1308.25L1914.62 1308.25Q2010.50 1300.78 2087.70 1284.59L2087.70 1284.59L2059.06 1265.92L2024.19 1247.24Q1995.56 1232.30 1995.56 1214.87L1995.56 1214.87Q1995.56 1181.25 2035.40 1181.25L2035.40 1181.25Q2061.55 1181.25 2183.57 1260.94L2183.57 1260.94L2279.44 1229.81L2173.61 1171.29Q2156.18 1161.33 2148.71 1153.86Q2141.24 1146.39 2141.24 1137.67L2141.24 1137.67Q2141.24 1102.81 2181.08 1102.81L2181.08 1102.81Q2203.49 1102.81 2350.42 1181.25L2350.42 1181.25L2365.36 1191.21L2479.91 1122.73Q2506.05 1107.79 2506.05 1100.32L2506.05 1100.32Q2506.05 1095.34 2499.83 1095.34L2499.83 1095.34L2106.37 1095.34Q1963.18 1197.44 1918.36 1197.44L1918.36 1197.44Q1876.03 1197.44 1876.03 1153.86L1876.03 1153.86Q1876.03 1125.22 1932.06 1100.32L1932.06 1100.32Q2030.42 1055.49 2149.95 953.39L2149.95 953.39Q2167.38 938.45 2181.08 931.60Q2194.78 924.76 2208.47 924.76L2208.47 924.76Q2233.37 924.76 2247.07 934.72Q2260.77 944.68 2260.77 962.11L2260.77 962.11Q2260.77 969.58 2251.43 981.41Q2242.09 993.24 2220.92 1011.91L2220.92 1011.91L2582.01 1011.91Q2666.67 1011.91 2666.67 1059.23L2666.67 1059.23Q2666.67 1120.24 2504.81 1211.13L2504.81 1211.13Q2339.21 1303.27 2130.03 1350.59L2130.03 1350.59L2121.31 1365.53L2591.97 1365.53Q2641.77 1365.53 2641.77 1409.11L2641.77 1409.11Q2641.77 1452.69 2591.97 1452.69L2591.97 1452.69L2339.21 1452.69L2339.21 1542.33L2650.49 1542.33Q2701.54 1542.33 2701.54 1585.91L2701.54 1585.91Q2701.54 1629.49 2650.49 1629.49L2650.49 1629.49L2339.21 1629.49L2339.21 1786.38L2521.00 1786.38Q2554.61 1786.38 2554.61 1752.76L2554.61 1752.76L2554.61 1701.71Q2554.61 1650.66 2606.91 1650.66L2606.91 1650.66Q2657.96 1650.66 2657.96 1701.71L2657.96 1701.71L2657.96 1777.66Q2657.96 1828.71 2631.81 1852.37Q2605.66 1876.03 2550.88 1873.54L2550.88 1873.54L2035.40 1873.54ZM2247.07 2030.42Q2024.19 2030.42 1932.06 2005.52L1932.06 2005.52Q1841.16 1980.62 1780.15 1920.85L1780.15 1920.85L1777.66 1919.60Q1656.88 2024.19 1619.53 2024.19L1619.53 2024.19Q1570.97 2024.19 1570.97 1966.92L1570.97 1966.92Q1570.97 1927.08 1627.00 1904.66L1627.00 1904.66L1715.41 1858.59L1715.41 1623.27Q1715.41 1584.67 1676.81 1584.67L1676.81 1584.67L1619.53 1584.67Q1594.63 1584.67 1582.80 1573.46Q1570.97 1562.26 1570.97 1538.60L1570.97 1538.60Q1570.97 1514.94 1582.80 1504.36Q1594.63 1493.77 1619.53 1493.77L1619.53 1493.77L1706.69 1493.77Q1761.47 1493.77 1785.75 1516.19Q1810.03 1538.60 1807.54 1589.65L1807.54 1589.65L1807.54 1831.20Q1848.63 1878.52 1884.74 1894.70L1884.74 1894.70Q1966.92 1930.81 2133.76 1937.04L2133.76 1937.04L2655.47 1934.55Q2704.03 1934.55 2704.03 1980.62L2704.03 1980.62Q2704.03 2031.67 2631.81 2031.67L2631.81 2031.67L2247.07 2030.42ZM1773.93 1353.08Q1758.98 1353.08 1717.90 1330.66L1717.90 1330.66Q1670.58 1304.52 1624.51 1290.82L1624.51 1290.82Q1607.08 1285.84 1598.36 1272.77Q1589.65 1259.69 1589.65 1243.51L1589.65 1243.51Q1589.65 1194.95 1638.21 1194.95L1638.21 1194.95Q1658.13 1194.95 1741.55 1229.81L1741.55 1229.81Q1822.49 1264.67 1822.49 1302.03L1822.49 1302.03Q1822.49 1353.08 1773.93 1353.08L1773.93 1353.08ZM1823.73 1121.48Q1810.03 1121.48 1758.98 1092.85L1758.98 1092.85L1694.24 1059.23Q1648.17 1035.57 1648.17 1005.69L1648.17 1005.69Q1648.17 957.13 1695.48 957.13L1695.48 957.13Q1711.67 957.13 1793.85 993.24L1793.85 993.24Q1832.45 1010.67 1852.37 1029.97Q1872.29 1049.27 1872.29 1069.19L1872.29 1069.19Q1872.29 1121.48 1823.73 1121.48L1823.73 1121.48Z"/>
  </svg>