<svg xmlns="http://www.w3.org/2000/svg" viewBox="0 0 3000 3000" width="3000" height="3000">
    <path fill="#000000" d="M1324.05 1308.75L1326.60 1779.23L1329.15 1825.13Q1329.15 1853.18 1311.94 1867.84Q1294.72 1882.50 1280.70 1882.50L1280.70 1882.50Q1251.37 1882.50 1186.35 1827.68Q1121.32 1772.85 1121.32 1752.45L1121.32 1752.45Q1121.32 1744.80 1134.71 1744.80Q1148.10 1744.80 1176.79 1762.01Q1205.47 1779.23 1256.47 1798.35L1256.47 1798.35L1256.47 1626.23L1052.47 1635.15L1048.65 1842.98Q1048.65 1868.48 1026.97 1868.48L1026.97 1868.48Q1002.75 1868.48 986.81 1854.45Q970.87 1840.43 970.87 1830.86Q970.87 1821.30 974.70 1804.09Q978.52 1786.88 978.52 1756.28L978.52 1756.28L986.17 1334.25L986.17 1317.68Q986.17 1310.03 984.90 1303.65L984.90 1303.65Q983.62 1304.93 969.60 1322.78Q955.57 1340.63 921.79 1380.15Q888.00 1419.67 870.15 1419.67L870.15 1419.67Q862.50 1419.67 862.50 1408.20Q862.50 1396.72 876.52 1377.60L876.52 1377.60Q951.75 1280.70 1009.12 1158.30L1009.12 1158.30L924.97 1163.40L908.40 1163.40Q871.42 1163.40 859.31 1151.92Q847.20 1140.45 840.19 1123.88Q833.17 1107.30 833.17 1099.65Q833.17 1092 840.19 1092Q847.20 1092 861.86 1095.83Q876.52 1099.65 903.30 1099.65L903.30 1099.65L912.22 1099.65L1035.90 1092Q1077.97 988.73 1077.97 963.86Q1077.97 939 1074.79 928.16Q1071.60 917.32 1071.60 913.50L1071.60 913.50Q1071.60 904.57 1080.52 904.57L1080.52 904.57Q1084.35 904.57 1104.75 910.95L1104.75 910.95Q1159.57 928.80 1159.57 954.94Q1159.57 981.08 1113.67 1086.90L1113.67 1086.90L1301.10 1074.15Q1334.25 1070.33 1343.17 1067.78Q1352.10 1065.22 1360.39 1065.22Q1368.67 1065.22 1382.70 1074.15L1382.70 1074.15Q1419.67 1095.83 1419.67 1116.22L1419.67 1116.22Q1419.67 1131.53 1391.63 1134.08L1391.63 1134.08L1081.80 1153.20Q1056.30 1204.20 1020.60 1253.93L1020.60 1253.93Q1041 1257.75 1058.85 1264.13L1058.85 1264.13L1265.40 1250.10L1279.42 1250.10Q1297.27 1250.10 1312.57 1262.85Q1327.88 1275.60 1327.88 1289.63L1327.88 1289.63L1324.05 1308.75ZM441.75 1074.15L429.00 2010Q429.00 2043.15 411.15 2043.15L411.15 2043.15Q400.95 2043.15 385.65 2038.05L385.65 2038.05Q346.12 2022.75 346.12 1994.70L346.12 1994.70Q346.12 1990.88 346.12 1987.05Q346.12 1983.23 349.95 1963.46Q353.77 1943.70 353.77 1885.05L353.77 1885.05L363.97 1088.17Q363.97 1037.17 354.41 1015.50Q344.85 993.83 344.85 986.81Q344.85 979.80 358.87 979.80Q372.90 979.80 443.02 1006.58L443.02 1006.58L603.67 991.27L621.52 990Q636.82 990 645.75 998.92L645.75 998.92Q667.42 1014.23 667.42 1025.70Q667.42 1037.17 661.69 1043.55Q655.95 1049.92 627.90 1111.76Q599.85 1173.60 575.62 1213.76Q551.40 1253.93 551.40 1259.03Q551.40 1264.13 555.22 1270.50L555.22 1270.50Q649.57 1381.43 649.57 1515.30L649.57 1515.30Q649.57 1563.75 629.81 1593.71Q610.05 1623.68 590.92 1623.68L590.92 1623.68Q555.22 1623.68 497.85 1561.20Q440.47 1498.72 440.47 1471.95L440.47 1471.95Q440.47 1465.58 448.12 1465.58Q455.77 1465.58 488.29 1489.80Q520.80 1514.03 543.11 1523.59Q565.42 1533.15 567.97 1533.15L567.97 1533.15Q576.90 1533.15 576.90 1492.35Q576.90 1451.55 558.41 1399.91Q539.92 1348.28 496.57 1301.10L496.57 1301.10Q482.55 1283.25 482.55 1266.04Q482.55 1248.83 507.41 1202.29Q532.27 1155.75 567.97 1062.67L567.97 1062.67L441.75 1074.15ZM763.05 1290.90L763.05 1290.90Q722.25 1220.78 668.70 1162.13L668.70 1162.13Q655.95 1146.83 655.95 1137.90Q655.95 1128.97 671.25 1116.86Q686.55 1104.75 695.47 1104.75Q704.40 1104.75 721.61 1120.69Q738.82 1136.63 758.59 1160.85Q778.35 1185.08 796.84 1209.94Q815.32 1234.80 826.80 1253.93Q838.27 1273.05 838.27 1281.97Q838.27 1290.90 819.79 1304.29Q801.30 1317.68 789.82 1317.68Q778.35 1317.68 763.05 1290.90ZM1256.47 1409.47L1256.47 1313.85L1057.57 1326.60L1056.30 1420.95L1256.47 1409.47ZM715.87 1842.98L715.87 1842.98Q814.05 1748.63 814.05 1734.60L814.05 1734.60Q814.05 1723.13 743.92 1679.78L743.92 1679.78Q717.15 1663.20 717.15 1646.63Q717.15 1630.05 723.52 1615.39Q729.90 1600.73 797.47 1506.38L797.47 1506.38L746.47 1515.30Q736.27 1517.85 718.42 1517.85Q700.57 1517.85 686.55 1503.19Q672.52 1488.53 667.42 1472.59Q662.32 1456.65 662.32 1452.19Q662.32 1447.72 669.97 1447.72L669.97 1447.72Q689.10 1451.55 710.77 1451.55Q732.45 1451.55 745.20 1449L745.20 1449L839.55 1437.53L851.02 1437.53Q884.17 1437.53 895.65 1466.85L895.65 1466.85Q899.47 1475.78 899.47 1482.15Q899.47 1488.53 892.46 1494.90Q885.45 1501.28 839.55 1557.38Q793.65 1613.48 793.65 1623.04Q793.65 1632.60 798.75 1636.43L798.75 1636.43Q853.57 1668.30 873.97 1688.06Q894.37 1707.83 894.37 1723.76Q894.37 1739.70 890.55 1752.45L890.55 1752.45Q881.62 1779.23 792.37 1854.45L792.37 1854.45Q1136.63 1925.85 1460.47 1941.15L1460.47 1941.15Q1489.80 1942.43 1489.80 1953.90L1489.80 1953.90Q1489.80 1961.55 1482.15 1976.85L1482.15 1976.85Q1464.30 2015.10 1426.05 2015.10L1426.05 2015.10L1414.57 2015.10Q1066.50 1981.95 777.07 1918.20L777.07 1918.20Q732.45 1909.28 684.00 1909.28Q635.55 1909.28 615.15 1915.01Q594.75 1920.75 585.82 1920.75L585.82 1920.75Q552.67 1920.75 552.67 1877.40L552.67 1877.40Q552.67 1853.18 584.55 1846.80Q616.42 1840.43 654.67 1840.43Q692.92 1840.43 715.87 1842.98ZM1256.47 1567.58L1256.47 1469.40L1055.02 1479.60L1053.75 1577.78L1256.47 1567.58ZM1673.40 1869.75L1794.53 1820.03Q1893.97 1776.68 1929.68 1758.83Q1965.38 1740.98 1976.21 1738.43Q1987.05 1735.88 1987.05 1742.25L1987.05 1742.25Q1989.60 1770.30 1840.42 1867.84Q1691.25 1965.38 1660.65 1967.93L1660.65 1967.93Q1653 1969.20 1637.70 1953.90Q1622.40 1938.60 1610.92 1919.48Q1599.45 1900.35 1598.17 1890.15L1598.17 1890.15Q1598.17 1885.05 1609.65 1883.78L1609.65 1883.78L1622.40 1882.50Q1640.25 1881.23 1673.40 1869.75L1673.40 1869.75ZM2346.60 1951.35L2349.15 1951.35Q2356.80 1951.35 2356.80 1946.25L2356.80 1946.25Q2363.18 1918.20 2366.36 1882.50Q2369.55 1846.80 2369.55 1807.28L2369.55 1807.28Q2369.55 1760.10 2365.73 1712.93L2365.73 1712.93Q2275.20 1786.88 2180.85 1841.06Q2086.50 1895.25 1980.68 1923.30L1980.68 1923.30Q1965.38 1927.13 1955.18 1927.13L1955.18 1927.13Q1941.15 1927.13 1941.15 1920.75L1941.15 1920.75Q1941.15 1909.28 1969.20 1895.25L1969.20 1895.25Q2077.57 1837.88 2170.65 1776.04Q2263.73 1714.20 2354.25 1627.50L2354.25 1627.50Q2350.43 1609.65 2345.32 1593.71Q2340.23 1577.78 2332.57 1562.48L2332.57 1562.48Q2235.68 1635.15 2159.18 1674.04Q2082.68 1712.93 2049.53 1721.85Q2016.38 1730.78 2011.28 1730.78L2011.28 1730.78Q1998.53 1730.78 1998.53 1724.40L1998.53 1724.40Q1998.53 1711.65 2027.85 1696.35L2027.85 1696.35Q2085.22 1663.20 2155.35 1615.39Q2225.47 1567.58 2299.43 1501.28L2299.43 1501.28Q2290.50 1489.80 2282.85 1478.33Q2275.20 1466.85 2265 1456.65L2265 1456.65Q2211.45 1493.63 2164.28 1517.85Q2117.10 1542.08 2085.22 1553.55Q2053.35 1565.03 2046.97 1565.03L2046.97 1565.03Q2034.22 1565.03 2034.22 1558.65L2034.22 1558.65Q2034.22 1547.18 2061 1530.60L2061 1530.60Q2128.57 1485.97 2180.21 1449Q2231.85 1412.03 2277.75 1366.13L2277.75 1366.13L2076.30 1377.60L2059.72 1377.60Q2054.63 1377.60 2048.89 1377.60Q2043.15 1377.60 2038.05 1376.33L2038.05 1376.33Q2017.65 1373.78 2005.54 1351.46Q1993.43 1329.15 1993.43 1317.68L1993.43 1317.68Q1993.43 1308.75 2002.35 1308.75L2002.35 1308.75Q2007.45 1308.75 2011.28 1310.03L2011.28 1310.03Q2020.20 1312.58 2032.31 1313.85Q2044.43 1315.13 2055.90 1315.13L2055.90 1315.13L2069.93 1315.13L2381.03 1294.72Q2391.23 1274.33 2400.15 1252.65Q2409.07 1230.97 2418 1214.40L2418 1214.40L2203.80 1229.70Q2189.78 1230.97 2178.30 1233.53Q2166.82 1236.08 2156.63 1236.08L2156.63 1236.08Q2136.22 1236.08 2127.30 1216.95Q2118.38 1197.83 2118.38 1187.63Q2118.38 1177.43 2123.47 1169.14Q2128.57 1160.85 2136.22 1144.28L2136.22 1144.28L2212.72 969.60Q2220.38 951.75 2220.38 935.17L2220.38 935.17Q2220.38 922.42 2216.55 913.50L2216.55 913.50Q2215.28 909.67 2214.64 906.49Q2214 903.30 2214 902.03L2214 902.03Q2214 891.83 2222.93 891.83L2222.93 891.83Q2225.47 891.83 2245.24 897.56Q2265 903.30 2283.49 914.77Q2301.98 926.25 2301.98 944.10L2301.98 944.10Q2301.98 953.02 2295.60 968.33L2295.60 968.33L2273.93 1019.33L2499.60 1002.75Q2504.70 1002.75 2509.16 1002.11Q2513.63 1001.48 2517.45 1001.48L2517.45 1001.48Q2536.57 1001.48 2552.51 1017.41Q2568.45 1033.35 2568.45 1042.28Q2568.45 1051.20 2562.71 1059.49Q2556.98 1067.78 2553.15 1077.97L2553.15 1077.97Q2532.75 1131.53 2508.53 1181.25Q2484.30 1230.97 2460.07 1290.90L2460.07 1290.90L2588.85 1284.53Q2604.15 1283.25 2614.99 1281.97Q2625.82 1280.70 2636.03 1276.88L2636.03 1276.88Q2639.85 1275.60 2643.68 1274.96Q2647.50 1274.33 2651.32 1274.33L2651.32 1274.33Q2664.07 1274.33 2676.82 1285.80Q2689.57 1297.28 2698.50 1310.03Q2707.43 1322.78 2707.43 1327.88L2707.43 1327.88Q2707.43 1340.63 2671.73 1343.18L2671.73 1343.18L2383.57 1359.75Q2367 1375.05 2351.70 1389.08Q2336.40 1403.10 2319.82 1417.13L2319.82 1417.13Q2370.82 1477.05 2398.88 1545.90L2398.88 1545.90Q2430.75 1525.50 2465.18 1499.36Q2499.60 1473.22 2525.10 1445.81Q2550.60 1418.40 2555.70 1392.90L2555.70 1392.90Q2559.53 1380.15 2567.18 1380.15L2567.18 1380.15Q2577.38 1380.15 2589.49 1396.72Q2601.60 1413.30 2610.53 1431.15Q2619.45 1449 2619.45 1454.10L2619.45 1454.10Q2619.45 1464.30 2570.36 1505.10Q2521.28 1545.90 2421.82 1602L2421.82 1602Q2479.20 1659.38 2528.29 1700.81Q2577.38 1742.25 2629.01 1776.68Q2680.65 1811.10 2743.13 1848.08L2743.13 1848.08Q2762.25 1857 2762.25 1867.20L2762.25 1867.20Q2762.25 1871.03 2751.41 1883.78Q2740.57 1896.53 2727.19 1907.36Q2713.80 1918.20 2703.60 1918.20L2703.60 1918.20Q2698.50 1918.20 2695.31 1915.65Q2692.13 1913.10 2688.30 1911.83L2688.30 1911.83Q2610.53 1862.10 2554.43 1811.74Q2498.33 1761.38 2435.85 1697.63L2435.85 1697.63Q2439.68 1723.13 2440.95 1749.26Q2442.23 1775.40 2442.23 1800.90L2442.23 1800.90Q2442.23 1804.73 2441.59 1830.23Q2440.95 1855.73 2439.04 1890.79Q2437.13 1925.85 2432.66 1958.36Q2428.20 1990.88 2418 2007.45L2418 2007.45Q2395.05 2046.98 2370.82 2046.98L2370.82 2046.98Q2350.43 2046.98 2316.64 2027.85Q2282.85 2008.73 2249.06 1981.31Q2215.28 1953.90 2191.69 1927.76Q2168.10 1901.63 2168.10 1888.88L2168.10 1888.88Q2168.10 1882.50 2175.75 1882.50L2175.75 1882.50Q2188.50 1882.50 2207.63 1892.70L2207.63 1892.70Q2243.32 1913.10 2277.11 1927.13Q2310.90 1941.15 2346.60 1951.35L2346.60 1951.35ZM2476.65 1066.50L2244.60 1083.08L2206.35 1167.22L2444.78 1151.92Q2454.98 1130.25 2462.63 1109.21Q2470.28 1088.17 2476.65 1066.50L2476.65 1066.50ZM1836.60 1563.75L1836.60 1563.75Q1893.97 1553.55 1934.14 1545.26Q1974.30 1536.97 1990.24 1538.25Q2006.18 1539.53 2004.90 1549.73L2004.90 1549.73Q2003.63 1567.58 1917.56 1602.64Q1831.50 1637.70 1758.83 1659.38Q1686.15 1681.05 1674.04 1679.78Q1661.92 1678.50 1655.55 1670.85L1655.55 1670.85Q1635.15 1641.53 1629.41 1620.49Q1623.67 1599.45 1623.67 1596.90L1623.67 1596.90Q1624.95 1585.43 1635.15 1586.70L1635.15 1586.70L1651.72 1587.98Q1679.78 1590.53 1705.28 1589.25L1705.28 1589.25Q1751.17 1517.85 1789.42 1449L1789.42 1449L1804.72 1422.22Q1711.65 1355.93 1619.85 1313.85L1619.85 1313.85Q1599.45 1303.65 1596.90 1293.45Q1594.35 1283.25 1602.64 1263.49Q1610.92 1243.72 1623.04 1241.18Q1635.15 1238.63 1658.10 1247.55L1658.10 1247.55Q1661.92 1250.10 1667.03 1251.38L1667.03 1251.38Q1770.30 1094.55 1791.97 1035.90L1791.97 1035.90Q1813.65 977.25 1813.65 949.20L1813.65 949.20L1813.65 936.45Q1813.65 922.42 1823.85 922.42L1823.85 922.42Q1830.22 922.42 1846.80 932.63L1846.80 932.63Q1893.97 961.95 1893.97 988.73L1893.97 988.73Q1886.33 1020.60 1846.80 1094.55L1846.80 1094.55Q1809.83 1163.40 1728.22 1285.80L1728.22 1285.80L1757.55 1302.38Q1809.83 1334.25 1844.25 1357.20L1844.25 1357.20Q1924.58 1216.95 1932.22 1179.97L1932.22 1179.97Q1934.78 1168.50 1936.05 1149.38Q1937.33 1130.25 1944.34 1130.25Q1951.35 1130.25 1966.65 1140.45L1966.65 1140.45Q2012.55 1168.50 2013.83 1196.55L2013.83 1196.55Q2013.83 1205.47 2010 1214.40L2010 1214.40Q1904.18 1405.65 1797.08 1571.40L1797.08 1571.40Q1816.20 1567.58 1836.60 1563.75Z"/>
  </svg>