<svg xmlns="http://www.w3.org/2000/svg" viewBox="0 0 3000 3000" width="3000" height="3000">
    <path fill="#000000" d="M593.47 1745.44L1118.77 1721.21L1109.85 1906.09L599.85 1920.11L593.47 1745.44ZM585.82 1505.74L1128.97 1478.96L1121.32 1633.24L592.20 1657.46L585.82 1505.74ZM578.17 1264.76L1139.17 1234.16L1131.52 1389.71L583.27 1416.49L578.17 1264.76ZM604.95 2070.56L602.40 2010.64L1200.38 1995.34Q1216.95 1994.06 1230.34 1990.88Q1243.72 1987.69 1243.72 1971.11L1243.72 1971.11Q1243.72 1959.64 1234.80 1944.34Q1225.88 1929.04 1208.02 1906.09L1208.02 1906.09L1243.72 1230.34Q1245 1225.24 1249.46 1217.59Q1253.92 1209.94 1253.92 1197.19L1253.92 1197.19Q1253.92 1178.06 1230.34 1159.58Q1206.75 1141.09 1164.67 1141.09L1164.67 1141.09L1154.47 1141.09L780.90 1161.49Q805.12 1135.99 837.00 1098.38Q868.87 1060.76 888.00 1032.71Q907.12 1004.66 907.12 993.19L907.12 993.19Q907.12 974.06 887.36 957.49Q867.60 940.91 844.65 930.08Q821.70 919.24 807.67 919.24L807.67 919.24Q786.00 919.24 786.00 942.19L786.00 942.19L786.00 947.29Q787.27 951.11 787.27 954.94Q787.27 958.76 787.27 962.59L787.27 962.59Q787.27 979.16 778.99 1002.75Q770.70 1026.34 743.92 1065.22Q717.15 1104.11 663.60 1167.86L663.60 1167.86L569.25 1172.96Q490.20 1144.91 468.52 1144.91Q446.85 1144.91 446.85 1158.94Q446.85 1172.96 458.32 1192.09L458.32 1192.09Q465.97 1207.39 471.07 1224.60Q476.17 1241.81 477.45 1262.21L477.45 1262.21L497.85 1945.61L497.85 1964.74Q497.85 1985.14 496.57 2004.90Q495.30 2024.66 492.75 2041.24L492.75 2041.24L492.75 2047.61Q492.75 2068.01 508.05 2080.13Q523.35 2092.24 541.20 2098.61Q559.05 2104.99 571.80 2104.99L571.80 2104.99Q604.95 2104.99 604.95 2074.39L604.95 2074.39L604.95 2070.56ZM1969.20 2006.81L1990.88 2006.81L2679.38 1980.04Q2694.68 1978.76 2706.15 1973.03Q2717.63 1967.29 2717.63 1953.26Q2717.63 1939.24 2702.32 1922.66Q2687.03 1906.09 2669.18 1894.61Q2651.32 1883.14 2639.85 1883.14L2639.85 1883.14Q2637.30 1883.14 2635.39 1883.78Q2633.48 1884.41 2630.93 1884.41L2630.93 1884.41Q2614.35 1888.24 2599.05 1889.51Q2583.75 1890.79 2571 1892.06L2571 1892.06L2303.25 1904.81L2305.80 1634.51L2550.60 1619.21Q2565.90 1617.94 2576.74 1612.84Q2587.57 1607.74 2587.57 1593.71Q2587.57 1579.69 2572.91 1563.11Q2558.25 1546.54 2541.04 1535.70Q2523.83 1524.86 2512.35 1524.86L2512.35 1524.86Q2504.70 1524.86 2500.88 1526.14L2500.88 1526.14Q2485.58 1531.24 2470.91 1531.88Q2456.25 1532.51 2442.23 1533.79L2442.23 1533.79L2307.07 1543.99L2308.35 1336.16Q2308.35 1315.76 2300.06 1305.56Q2291.78 1295.36 2263.73 1285.16L2263.73 1285.16Q2231.85 1272.41 2212.72 1272.41L2212.72 1272.41Q2194.88 1272.41 2194.88 1286.44L2194.88 1286.44Q2194.88 1294.09 2198.70 1299.19L2198.70 1299.19Q2207.63 1314.49 2210.18 1325.96Q2212.72 1337.44 2212.72 1357.84L2212.72 1357.84L2211.45 1550.36L2039.33 1563.11L2032.95 1563.11Q2021.47 1563.11 2005.54 1559.93Q1989.60 1556.74 1975.58 1551.64L1975.58 1551.64Q1971.75 1550.36 1966.65 1550.36L1966.65 1550.36Q1953.90 1550.36 1953.90 1564.39Q1953.90 1578.41 1966.01 1600.09Q1978.13 1621.76 1987.05 1631.96L1987.05 1631.96Q2002.35 1649.81 2040.60 1649.81L2040.60 1649.81Q2046.97 1649.81 2052.71 1649.18Q2058.45 1648.54 2064.82 1648.54L2064.82 1648.54L2211.45 1639.61L2208.90 1907.36L1965.38 1918.84L1959 1918.84Q1947.53 1918.84 1931.59 1915.65Q1915.65 1912.46 1901.63 1907.36L1901.63 1907.36Q1897.80 1906.09 1892.70 1906.09L1892.70 1906.09Q1888.88 1906.09 1886.33 1907.36L1886.33 1907.36L1888.88 1521.04Q1933.50 1462.39 1975.58 1397.36Q2017.65 1332.34 2053.35 1266.04L2053.35 1266.04L2618.18 1231.61Q2650.05 1227.79 2650.05 1204.84L2650.05 1204.84Q2650.05 1186.99 2632.84 1172.33Q2615.63 1157.66 2597.14 1147.46Q2578.65 1137.26 2567.18 1137.26L2567.18 1137.26Q2559.53 1137.26 2554.43 1138.54L2554.43 1138.54Q2536.57 1143.64 2520 1145.55Q2503.43 1147.46 2491.95 1148.74L2491.95 1148.74L2099.25 1172.96Q2131.13 1109.21 2151.53 1051.84Q2171.93 994.46 2171.93 989.36L2171.93 989.36Q2171.93 970.24 2150.89 956.21Q2129.85 942.19 2108.18 933.90Q2086.50 925.61 2080.13 925.61L2080.13 925.61Q2062.28 925.61 2062.28 943.46L2062.28 943.46Q2062.28 946.01 2062.91 947.92Q2063.55 949.84 2063.55 952.39L2063.55 952.39Q2064.82 957.49 2064.82 967.69L2064.82 967.69Q2064.82 986.81 2055.26 1018.05Q2045.70 1049.29 2032.31 1084.35Q2018.93 1119.41 2007.45 1146.83Q1995.98 1174.24 1992.15 1180.61L1992.15 1180.61L1744.80 1195.91L1728.22 1195.91Q1715.47 1195.91 1699.54 1194.64Q1683.60 1193.36 1669.58 1190.81L1669.58 1190.81Q1668.30 1190.81 1667.03 1190.17Q1665.75 1189.54 1661.92 1189.54L1661.92 1189.54Q1644.08 1189.54 1644.08 1206.11L1644.08 1206.11Q1644.08 1212.49 1646.63 1216.31L1646.63 1216.31Q1664.47 1263.49 1686.79 1274.33Q1709.10 1285.16 1729.50 1285.16L1729.50 1285.16Q1739.70 1285.16 1751.17 1284.53Q1762.65 1283.89 1775.40 1282.61L1775.40 1282.61L1946.25 1272.41Q1933.50 1295.36 1912.46 1330.43Q1891.43 1365.49 1874.85 1390.99L1874.85 1390.99Q1878.67 1394.81 1866.56 1389.08Q1854.45 1383.34 1839.15 1382.06L1839.15 1382.06Q1826.40 1379.51 1816.84 1377.60Q1807.28 1375.69 1799.63 1375.69L1799.63 1375.69Q1777.95 1375.69 1777.95 1392.26L1777.95 1392.26Q1777.95 1401.19 1784.33 1411.39L1784.33 1411.39Q1790.70 1422.86 1794.53 1433.70Q1798.35 1444.54 1798.35 1457.29L1798.35 1457.29L1797.08 1503.19Q1742.25 1577.14 1681.05 1645.35Q1619.85 1713.56 1557.38 1765.84L1557.38 1765.84Q1528.05 1791.34 1528.05 1806.64L1528.05 1806.64Q1528.05 1820.66 1543.35 1820.66L1543.35 1820.66Q1563.75 1820.66 1597.54 1798.99Q1631.33 1777.31 1670.85 1744.80Q1710.38 1712.29 1747.35 1677.23Q1784.33 1642.16 1795.80 1630.69L1795.80 1630.69L1791.97 1932.86Q1791.97 1953.26 1790.06 1978.76Q1788.15 2004.26 1785.60 2032.31L1785.60 2032.31Q1785.60 2033.59 1784.96 2036.14Q1784.33 2038.69 1784.33 2042.51L1784.33 2042.51Q1784.33 2070.56 1811.10 2085.22Q1837.88 2099.89 1855.72 2099.89L1855.72 2099.89Q1885.05 2099.89 1885.05 2059.09L1885.05 2059.09L1886.33 1945.61Q1887.60 1949.44 1890.15 1953.26L1890.15 1953.26Q1899.08 1973.66 1911.83 1990.24L1911.83 1990.24Q1922.03 2000.44 1936.05 2003.63Q1950.08 2006.81 1969.20 2006.81L1969.20 2006.81Z"/>
  </svg>