<svg xmlns="http://www.w3.org/2000/svg" viewBox="0 0 3000 3000" width="3000" height="3000">
    <path fill="#000000" d="M858.67 1128.97L858.67 1090.72L1433.70 1090.72L1433.70 1128.97L858.67 1128.97ZM1042.27 1264.13L1042.27 1225.88L1381.42 1225.88L1381.42 1264.13L1042.27 1264.13ZM935.17 1432.43L935.17 1394.18L1424.77 1394.18L1424.77 1432.43L935.17 1432.43ZM1168.50 1413.30L1168.50 1256.47L1206.75 1256.47L1206.75 1413.30L1168.50 1413.30ZM1080.52 996.38L1080.52 996.38L1117.50 1004.03Q1085.63 1120.05 1028.89 1216.31Q972.15 1312.58 898.20 1380.15L898.20 1380.15Q895.65 1376.33 890.55 1371.22Q885.45 1366.13 879.71 1361.03Q873.97 1355.93 868.87 1352.10L868.87 1352.10Q941.55 1289.63 996.37 1197.19Q1051.20 1104.75 1080.52 996.38ZM1315.13 1962.83L1315.13 1511.47L1352.10 1511.47L1352.10 1961.55Q1352.10 1980.68 1346.36 1990.88Q1340.63 2001.08 1326.60 2006.18L1326.60 2006.18Q1310.02 2011.28 1279.42 2012.55Q1248.82 2013.83 1196.55 2013.83L1196.55 2013.83Q1195.27 2006.18 1190.81 1996.61Q1186.35 1987.05 1181.25 1979.40L1181.25 1979.40Q1223.32 1980.68 1255.20 1980.68Q1287.07 1980.68 1297.27 1979.40L1297.27 1979.40Q1315.13 1979.40 1315.13 1962.83L1315.13 1962.83ZM987.45 1548.45L987.45 1511.47L1326.60 1511.47L1326.60 1548.45L987.45 1548.45ZM968.32 1706.55L968.32 1511.47L1006.57 1511.47L1006.57 1707.83Q1006.57 1753.73 1000.20 1808.55Q993.82 1863.38 975.97 1916.93Q958.12 1970.48 922.42 2013.83L922.42 2013.83Q919.87 2010 914.14 2006.18Q908.40 2002.35 902.66 1998.53Q896.92 1994.70 891.82 1993.43L891.82 1993.43Q926.25 1950.08 942.19 1900.99Q958.12 1851.90 963.22 1801.54Q968.32 1751.18 968.32 1706.55L968.32 1706.55ZM1047.38 1888.88L1024.42 1851.90Q1083.07 1834.05 1160.85 1807.91Q1238.63 1781.78 1321.50 1753.73L1321.50 1753.73L1329.15 1786.88Q1253.92 1814.93 1181.89 1841.06Q1109.85 1867.20 1047.38 1888.88L1047.38 1888.88ZM1060.13 1626.22L1060.13 1626.22L1079.25 1596.90Q1131.52 1621.13 1184.44 1649.18Q1237.35 1677.23 1269.22 1700.18L1269.22 1700.18L1248.82 1733.33Q1216.95 1709.10 1162.76 1677.86Q1108.57 1646.63 1060.13 1626.22ZM339.75 2142.60L339.75 1049.92L625.35 1049.92L625.35 1086.90L378.00 1086.90L378.00 2142.60L339.75 2142.60ZM611.32 1058.85L611.32 1049.92L618.97 1049.92L626.62 1047.38L650.85 1065.22Q622.80 1139.17 588.37 1225.88Q553.95 1312.58 519.52 1391.63L519.52 1391.63Q594.75 1475.78 619.61 1547.17Q644.47 1618.58 644.47 1681.05L644.47 1681.05Q644.47 1721.85 634.91 1758.19Q625.35 1794.53 602.40 1811.10L602.40 1811.10Q583.27 1826.40 546.30 1828.95L546.30 1828.95Q527.17 1830.23 505.50 1830.86Q483.82 1831.50 463.42 1830.23L463.42 1830.23Q462.15 1822.58 458.96 1811.74Q455.77 1800.90 450.67 1791.98L450.67 1791.98Q476.17 1794.53 497.21 1795.16Q518.25 1795.80 534.82 1794.53L534.82 1794.53Q561.60 1793.25 579.45 1781.78L579.45 1781.78Q594.75 1769.03 601.12 1740.34Q607.50 1711.65 606.22 1681.05L606.22 1681.05Q606.22 1621.13 580.72 1551.64Q555.22 1482.15 477.45 1396.72L477.45 1396.72Q504.22 1336.80 529.09 1276.88Q553.95 1216.95 574.99 1160.85Q596.02 1104.75 611.32 1058.85L611.32 1058.85ZM675.07 1026.97L675.07 1026.97L706.95 1014.22Q738.82 1061.40 771.34 1116.22Q803.85 1171.05 820.42 1209.30L820.42 1209.30L787.27 1225.88Q770.70 1185.08 737.55 1128.97Q704.40 1072.88 675.07 1026.97ZM654.67 1330.43L654.67 1293.45L825.52 1293.45L825.52 1330.43L654.67 1330.43ZM751.57 1900.35L783.45 1883.78Q817.87 1970.48 873.97 2016.38Q930.07 2062.28 1009.12 2078.85Q1088.17 2095.43 1191.45 2095.43L1191.45 2095.43Q1232.25 2095.43 1277.51 2094.15Q1322.77 2092.88 1367.40 2090.96Q1412.02 2089.05 1449 2085.22L1449 2085.22Q1445.17 2090.33 1441.99 2097.97Q1438.80 2105.63 1437.52 2112.64Q1436.25 2119.65 1434.97 2126.03L1434.97 2126.03Q1383.97 2129.85 1317.67 2131.13Q1251.37 2132.40 1191.45 2132.40L1191.45 2132.40Q1075.42 2132.40 991.91 2113.91Q908.40 2095.43 850.39 2045.06Q792.37 1994.70 751.57 1900.35L751.57 1900.35ZM810.22 1623.68L810.22 1613.47L819.15 1613.47L826.80 1612.20L848.47 1621.13Q820.42 1813.65 754.12 1943.06Q687.82 2072.47 597.30 2143.88L597.30 2143.88Q594.75 2138.78 589.65 2133.68Q584.55 2128.58 580.09 2122.84Q575.62 2117.10 570.52 2114.55L570.52 2114.55Q658.50 2046.98 721.61 1923.94Q784.72 1800.90 810.22 1623.68L810.22 1623.68ZM677.62 1667.03L677.62 1667.03L677.62 1630.05L714.60 1613.47L825.52 1613.47L825.52 1650.45L740.10 1650.45Q720.97 1650.45 702.49 1655.55Q684.00 1660.65 677.62 1667.03ZM677.62 1667.03L677.62 1667.03Q676.35 1660.65 672.52 1651.72Q668.70 1642.80 664.24 1633.24Q659.77 1623.68 655.95 1618.58L655.95 1618.58Q668.70 1614.75 681.45 1608.38Q694.20 1602 703.12 1585.43L703.12 1585.43Q710.77 1572.68 726.07 1535.70Q741.37 1498.72 759.22 1452.19Q777.07 1405.65 792.37 1362.94Q807.67 1320.22 815.32 1297.28L815.32 1297.28L815.32 1293.45L830.62 1285.80L863.77 1297.28Q851.02 1326.60 833.17 1371.22Q815.32 1415.85 794.92 1464.30Q774.52 1512.75 754.76 1556.74Q735.00 1600.72 718.42 1628.78L718.42 1628.78Q718.42 1628.78 712.05 1632.60Q705.67 1636.43 698.02 1642.16Q690.37 1647.90 684.00 1654.28Q677.62 1660.65 677.62 1667.03ZM2003.63 1452.83L2003.63 1415.85L2730.38 1415.85L2730.38 1452.83L2003.63 1452.83ZM2184.68 1126.42L2184.68 1088.17L2568.45 1088.17L2568.45 1126.42L2184.68 1126.42ZM2134.95 1312.58L2134.95 1274.33L2535.30 1274.33L2535.30 1312.58L2134.95 1312.58ZM2365.73 1423.50L2365.73 1423.50L2401.43 1436.25Q2359.35 1484.70 2301.34 1530.60Q2243.32 1576.50 2180.21 1616.03Q2117.10 1655.55 2055.90 1684.88L2055.90 1684.88Q2053.35 1681.05 2048.25 1675.31Q2043.15 1669.58 2038.05 1663.84Q2032.95 1658.10 2027.85 1654.28L2027.85 1654.28Q2090.32 1627.50 2153.44 1591.16Q2216.55 1554.83 2272.01 1512.11Q2327.48 1469.40 2365.73 1423.50ZM2247.15 1554.83L2247.15 1554.83L2272.65 1535.70Q2335.13 1586.70 2375.29 1653Q2415.45 1719.30 2435.21 1790.70Q2454.98 1862.10 2456.89 1927.76Q2458.80 1993.43 2444.78 2043.15Q2430.75 2092.88 2402.70 2115.83L2402.70 2115.83Q2381.03 2133.68 2359.99 2140.05Q2338.95 2146.43 2307.07 2146.43L2307.07 2146.43Q2290.50 2146.43 2267.55 2145.79Q2244.60 2145.15 2219.10 2143.88L2219.10 2143.88Q2219.10 2137.50 2215.91 2126.66Q2212.72 2115.83 2208.90 2108.18L2208.90 2108.18Q2235.68 2110.72 2260.54 2112Q2285.40 2113.28 2300.70 2113.28L2300.70 2113.28Q2322.38 2113.28 2340.23 2110.09Q2358.07 2106.90 2374.65 2092.88L2374.65 2092.88Q2398.88 2073.75 2410.99 2029.13Q2423.10 1984.50 2421.19 1923.94Q2419.28 1863.38 2400.79 1797.08Q2382.30 1730.78 2344.69 1667.66Q2307.07 1604.55 2247.15 1554.83ZM2341.50 1640.25L2341.50 1640.25L2370.82 1659.38Q2336.40 1696.35 2284.76 1735.88Q2233.13 1775.40 2175.75 1809.19Q2118.38 1842.98 2066.10 1865.93L2066.10 1865.93Q2061 1858.28 2053.99 1848.08Q2046.97 1837.88 2040.60 1831.50L2040.60 1831.50Q2091.60 1812.38 2148.97 1781.78Q2206.35 1751.18 2257.35 1713.56Q2308.35 1675.95 2341.50 1640.25ZM2402.70 1785.60L2402.70 1785.60L2432.03 1804.73Q2387.40 1860.83 2319.19 1917.56Q2250.97 1974.30 2172.56 2020.84Q2094.15 2067.38 2017.65 2096.70L2017.65 2096.70Q2013.83 2089.05 2006.81 2080.13Q1999.80 2071.20 1992.15 2064.83L1992.15 2064.83Q2067.38 2039.33 2145.79 1994.70Q2224.20 1950.08 2292.41 1895.25Q2360.63 1840.43 2402.70 1785.60ZM2550.60 1095.83L2550.60 1088.17L2555.70 1088.17L2563.35 1084.35L2590.13 1090.72Q2582.48 1137.90 2571 1197.83Q2559.53 1257.75 2546.78 1318.31Q2534.03 1378.88 2522.55 1431.15L2522.55 1431.15L2485.58 1426.05Q2498.33 1375.05 2511.08 1312.58Q2523.83 1250.10 2534.66 1191.45Q2545.50 1132.80 2550.60 1095.83L2550.60 1095.83ZM2652.60 1543.35L2652.60 1543.35L2681.93 1566.30Q2642.40 1594.35 2593.31 1623.04Q2544.23 1651.72 2493.86 1677.23Q2443.50 1702.73 2400.15 1721.85L2400.15 1721.85L2373.38 1700.18Q2418 1679.78 2469.64 1652.36Q2521.28 1624.95 2569.73 1596.26Q2618.18 1567.58 2652.60 1543.35ZM2491.95 1654.28L2525.10 1645.35Q2541.68 1730.78 2571 1810.46Q2600.32 1890.15 2640.49 1952.63Q2680.65 2015.10 2731.65 2050.80L2731.65 2050.80Q2725.28 2055.90 2717.63 2064.83Q2709.98 2073.75 2703.60 2080.13L2703.60 2080.13Q2652.60 2039.33 2611.16 1973.66Q2569.73 1908 2539.76 1825.13Q2509.80 1742.25 2491.95 1654.28L2491.95 1654.28ZM2193.60 991.28L2193.60 991.28L2233.13 996.38Q2222.93 1047.38 2208.26 1105.39Q2193.60 1163.40 2179.57 1217.59Q2165.55 1271.78 2152.80 1312.58L2152.80 1312.58L2114.55 1312.58Q2128.57 1270.50 2142.60 1214.40Q2156.63 1158.30 2170.01 1099.65Q2183.40 1041 2193.60 991.28ZM1886.33 1475.78L1886.33 1475.78L1922.03 1466.85Q1942.43 1507.65 1960.28 1553.55Q1978.13 1599.45 1992.79 1642.16Q2007.45 1684.88 2015.10 1716.75L2015.10 1716.75L1976.85 1729.50Q1969.20 1697.63 1955.18 1653.64Q1941.15 1609.65 1923.30 1563.11Q1905.45 1516.58 1886.33 1475.78ZM1757.55 1798.35L1757.55 1798.35L1794.53 1793.25Q1806 1859.55 1816.84 1936.69Q1827.67 2013.83 1830.22 2069.93L1830.22 2069.93L1793.25 2076.30Q1790.70 2020.20 1780.50 1942.43Q1770.30 1864.65 1757.55 1798.35ZM1626.22 1795.80L1626.22 1795.80L1665.75 1803.45Q1651.72 1883.78 1631.96 1967.29Q1612.20 2050.80 1591.80 2110.72L1591.80 2110.72Q1586.70 2108.18 1574.59 2103.08Q1562.47 2097.97 1554.83 2095.43L1554.83 2095.43Q1579.05 2034.23 1596.26 1953.90Q1613.47 1873.58 1626.22 1795.80ZM1570.13 1445.18L1570.13 1445.18Q1568.85 1440.08 1566.30 1431.79Q1563.75 1423.50 1561.20 1415.21Q1558.65 1406.93 1556.10 1401.83L1556.10 1401.83Q1570.13 1399.28 1587.34 1379.51Q1604.55 1359.75 1624.95 1329.15L1624.95 1329.15Q1640.25 1310.03 1672.76 1258.39Q1705.28 1206.75 1742.89 1137.26Q1780.50 1067.78 1809.83 996.38L1809.83 996.38L1849.35 1014.22Q1795.80 1125.15 1733.33 1231.61Q1670.85 1338.08 1607.10 1417.13L1607.10 1417.13L1607.10 1417.13Q1607.10 1417.13 1601.36 1419.68Q1595.63 1422.22 1588.61 1426.69Q1581.60 1431.15 1575.86 1435.61Q1570.13 1440.08 1570.13 1445.18ZM1570.13 1445.18L1570.13 1445.18L1570.13 1409.47L1599.45 1394.18L1822.58 1371.22Q1821.30 1380.15 1821.30 1389.71Q1821.30 1399.28 1821.30 1405.65L1821.30 1405.65Q1743.53 1415.85 1696.35 1422.22Q1649.17 1428.60 1624.31 1432.43Q1599.45 1436.25 1587.97 1439.44Q1576.50 1442.63 1570.13 1445.18ZM1577.78 1724.40L1577.78 1724.40Q1576.50 1719.30 1573.95 1711.65Q1571.40 1704 1568.85 1695.71Q1566.30 1687.43 1563.75 1682.33L1563.75 1682.33Q1580.33 1679.78 1602 1655.55Q1623.67 1631.33 1651.72 1595.63L1651.72 1595.63Q1667.03 1577.78 1696.35 1537.61Q1725.67 1497.45 1762.65 1442.63Q1799.63 1387.80 1838.51 1324.05Q1877.40 1260.30 1909.28 1196.55L1909.28 1196.55L1947.53 1214.40Q1897.80 1303.65 1842.34 1390.99Q1786.88 1478.33 1729.50 1556.10Q1672.13 1633.88 1613.47 1697.63L1613.47 1697.63L1613.47 1698.90Q1613.47 1698.90 1608.38 1700.81Q1603.28 1702.73 1595.63 1706.55Q1587.97 1710.38 1582.88 1714.84Q1577.78 1719.30 1577.78 1724.40ZM1577.78 1724.40L1577.78 1724.40L1577.78 1689.98L1608.38 1670.85L1966.65 1621.13Q1965.38 1628.78 1966.01 1638.97Q1966.65 1649.18 1967.93 1655.55L1967.93 1655.55Q1841.70 1674.68 1767.11 1686.79Q1692.53 1698.90 1654.28 1705.28Q1616.03 1711.65 1600.72 1716.11Q1585.42 1720.58 1577.78 1724.40ZM1900.35 1775.40L1900.35 1775.40L1933.50 1766.48Q1957.72 1826.40 1980.68 1897.16Q2003.63 1967.93 2013.83 2018.93L2013.83 2018.93L1978.13 2029.13Q1967.93 1976.85 1944.97 1906.09Q1922.03 1835.33 1900.35 1775.40Z"/>
  </svg>