<svg xmlns="http://www.w3.org/2000/svg" viewBox="0 0 3000 3000" width="3000" height="3000">
    <path fill="#000000" d="M1238.53 2035.40Q1010.67 2035.40 940.94 2008.01L940.94 2008.01Q866.24 1979.37 817.68 1919.60L817.68 1919.60Q685.69 2032.91 655.81 2032.91L655.81 2032.91Q608.50 2032.91 608.50 1978.13L608.50 1978.13Q608.50 1964.43 625.93 1950.11Q643.36 1935.79 685.69 1909.64L685.69 1909.64L767.87 1858.59L767.87 1629.49Q767.87 1612.06 757.29 1603.97Q746.70 1595.87 723.05 1595.87L723.05 1595.87Q693.16 1595.87 680.09 1584.67Q667.02 1573.46 667.02 1551.05L667.02 1551.05Q667.02 1506.23 719.31 1506.23L719.31 1506.23L766.63 1506.23Q857.52 1506.23 857.52 1599.61L857.52 1599.61L857.52 1852.37Q888.65 1897.19 962.11 1922.09L962.11 1922.09Q1028.10 1944.51 1201.17 1944.51L1201.17 1944.51L1385.45 1939.53Q1434.01 1937.04 1434.01 1986.84L1434.01 1986.84Q1434.01 2035.40 1323.19 2035.40L1323.19 2035.40L1238.53 2035.40ZM386.87 2069.02Q363.21 2069.02 352.62 2055.94Q342.04 2042.87 342.04 2014.23L342.04 2014.23L342.04 1087.87Q342.04 1030.59 367.57 1003.20Q393.09 975.81 446.63 978.30L446.63 978.30L592.31 978.30Q680.71 978.30 680.71 1040.55L680.71 1040.55Q680.71 1077.91 578.61 1295.80L578.61 1295.80Q556.20 1343.12 556.20 1363.04L556.20 1363.04Q556.20 1366.77 561.18 1373.62Q566.16 1380.47 569.90 1385.45L569.90 1385.45Q664.53 1512.45 664.53 1631.98L664.53 1631.98Q664.53 1801.32 497.68 1801.32L497.68 1801.32Q450.37 1801.32 450.37 1747.78L450.37 1747.78Q450.37 1705.44 496.44 1701.71L496.44 1701.71Q532.54 1699.22 551.22 1678.67Q569.90 1658.13 569.90 1622.02L569.90 1622.02Q569.90 1521.17 492.70 1415.33L492.70 1415.33Q471.53 1386.69 471.53 1368.02L471.53 1368.02Q471.53 1346.85 501.42 1278.37L501.42 1278.37Q507.64 1262.18 513.24 1248.49Q518.85 1234.79 523.83 1222.34L523.83 1222.34Q533.79 1191.21 546.24 1165.06L546.24 1165.06L559.94 1133.94L572.39 1090.36L572.39 1086.62Q572.39 1077.91 564.29 1073.55Q556.20 1069.19 542.50 1069.19L542.50 1069.19L472.78 1069.19Q436.67 1069.19 434.18 1107.79L434.18 1107.79L434.18 2014.23Q434.18 2069.02 386.87 2069.02L386.87 2069.02ZM772.85 1397.90Q755.42 1397.90 735.50 1380.47L735.50 1380.47L706.86 1356.81Q678.22 1333.15 665.77 1319.46Q653.32 1305.76 653.32 1295.80L653.32 1295.80Q653.32 1250.98 700.63 1250.98L700.63 1250.98Q716.82 1250.98 767.87 1285.84L767.87 1285.84Q818.92 1321.95 818.92 1349.34L818.92 1349.34Q818.92 1397.90 772.85 1397.90L772.85 1397.90ZM1214.87 1902.17Q1171.29 1902.17 1171.29 1861.08L1171.29 1861.08Q1171.29 1818.75 1212.38 1818.75L1212.38 1818.75L1252.22 1818.75Q1288.33 1818.75 1288.33 1777.66L1288.33 1777.66L1288.33 1736.57L1023.12 1736.57L1023.12 1854.86Q1023.12 1900.93 980.79 1900.93L980.79 1900.93Q958.37 1900.93 947.79 1889.72Q937.21 1878.52 937.21 1854.86L937.21 1854.86L937.21 1500Q937.21 1416.58 1024.37 1416.58L1024.37 1416.58L1288.33 1416.58Q1374.24 1416.58 1374.24 1500L1374.24 1500L1374.24 1800.07Q1374.24 1856.10 1349.96 1881.01Q1325.68 1905.91 1270.90 1902.17L1270.90 1902.17L1214.87 1902.17ZM1023.12 1665.60L1288.33 1665.60L1288.33 1612.06L1023.12 1612.06L1023.12 1665.60ZM1023.12 1541.09L1288.33 1541.09L1288.33 1523.66Q1288.33 1492.53 1258.45 1492.53L1258.45 1492.53L1054.25 1492.53Q1023.12 1492.53 1023.12 1523.66L1023.12 1523.66L1023.12 1541.09ZM825.15 1140.16Q803.98 1140.16 785.30 1117.75L785.30 1117.75L747.95 1086.62Q706.86 1053.00 706.86 1028.10L706.86 1028.10Q706.86 987.01 754.17 987.01L754.17 987.01Q776.59 987.01 821.41 1025.61L821.41 1025.61Q869.97 1066.70 869.97 1091.60L869.97 1091.60Q869.97 1140.16 825.15 1140.16L825.15 1140.16ZM1000.71 1370.51Q982.03 1370.51 971.45 1361.17Q960.86 1351.83 960.86 1335.64L960.86 1335.64Q960.86 1298.29 1003.20 1298.29L1003.20 1298.29L1386.69 1298.29Q1427.78 1298.29 1427.78 1335.64L1427.78 1335.64Q1427.78 1370.51 1386.69 1370.51L1386.69 1370.51L1000.71 1370.51ZM883.67 1346.85Q841.33 1346.85 841.33 1303.27L841.33 1303.27Q841.33 1282.10 867.48 1260.94L867.48 1260.94Q963.35 1180.00 1019.38 1081.64L1019.38 1081.64L1040.55 1041.80L1066.70 972.07Q1081.64 929.74 1116.50 929.74L1116.50 929.74Q1161.33 929.74 1161.33 968.33L1161.33 968.33Q1161.33 977.05 1151.37 1000.09Q1141.41 1023.12 1125.22 1049.27L1125.22 1049.27L1114.01 1081.64L1056.74 1171.29L1036.82 1197.44Q923.51 1346.85 883.67 1346.85L883.67 1346.85ZM1128.96 1315.72L1128.96 1206.15L1214.87 1206.15L1214.87 1315.72L1128.96 1315.72ZM942.19 1097.83Q922.27 1097.83 911.06 1087.87Q899.85 1077.91 899.85 1060.47L899.85 1060.47Q899.85 1043.04 911.06 1033.08Q922.27 1023.12 942.19 1023.12L942.19 1023.12L1070.43 1023.12L1033.08 1097.83L942.19 1097.83ZM1000.71 1226.07L1051.76 1156.35L1349.34 1156.35Q1387.94 1156.35 1387.94 1191.21L1387.94 1191.21Q1387.94 1226.07 1349.34 1226.07L1349.34 1226.07L1000.71 1226.07ZM1087.87 1097.83L1125.22 1023.12L1384.20 1023.12Q1405.37 1023.12 1415.95 1033.08Q1426.54 1043.04 1426.54 1060.47L1426.54 1060.47Q1426.54 1097.83 1384.20 1097.83L1384.20 1097.83L1087.87 1097.83ZM2270.73 2070.26Q2223.41 2070.26 2223.41 2020.46L2223.41 2020.46Q2223.41 1970.65 2308.08 1969.41L2308.08 1969.41Q2341.70 1968.16 2356.02 1943.26Q2370.34 1918.36 2370.34 1867.31L2370.34 1867.31Q2370.34 1831.20 2359.13 1746.53L2359.13 1746.53Q2347.92 1669.34 2322.40 1617.04Q2296.88 1564.75 2253.30 1529.88L2253.30 1529.88Q2178.59 1573.46 2125.67 1595.87Q2072.75 1618.29 2047.85 1618.29L2047.85 1618.29Q2029.17 1618.29 2019.84 1608.95Q2010.50 1599.61 2010.50 1578.44L2010.50 1578.44Q2010.50 1565.99 2026.68 1554.79Q2042.87 1543.58 2082.71 1526.15L2082.71 1526.15Q2204.74 1473.85 2285.67 1416.58L2285.67 1416.58L2408.94 1414.09L2319.29 1488.79Q2379.05 1549.80 2411.43 1624.51L2411.43 1624.51L2415.16 1625.76Q2524.73 1526.15 2549.63 1495.02L2549.63 1495.02Q2572.05 1466.38 2591.97 1466.38L2591.97 1466.38Q2640.53 1466.38 2640.53 1513.70L2640.53 1513.70Q2640.53 1549.80 2474.93 1671.83L2474.93 1671.83L2474.93 1674.32Q2535.94 1752.76 2576.40 1795.09Q2616.87 1837.43 2676.64 1873.54L2676.64 1873.54Q2711.50 1893.46 2711.50 1922.09L2711.50 1922.09Q2711.50 1948.24 2697.80 1961.94Q2684.11 1975.63 2661.69 1975.63L2661.69 1975.63Q2635.55 1975.63 2568.31 1908.40L2568.31 1908.40Q2521.00 1861.08 2452.51 1749.02L2452.51 1749.02L2448.78 1750.27Q2457.50 1797.58 2457.50 1858.59L2457.50 1858.59Q2457.50 1974.39 2420.14 2020.46L2420.14 2020.46Q2381.54 2070.26 2270.73 2070.26L2270.73 2070.26ZM1610.82 1948.24Q1563.50 1948.24 1563.50 1904.66L1563.50 1904.66Q1563.50 1887.23 1574.71 1861.08L1574.71 1861.08Q1607.08 1778.91 1610.82 1661.87L1610.82 1661.87Q1613.31 1604.59 1656.88 1604.59L1656.88 1604.59Q1678.05 1604.59 1689.26 1617.66Q1700.46 1630.74 1700.46 1653.15L1700.46 1653.15Q1700.46 1716.65 1678.05 1831.20L1678.05 1831.20Q1665.60 1890.97 1649.41 1919.60Q1633.23 1948.24 1610.82 1948.24L1610.82 1948.24ZM1790.11 2069.02Q1745.29 2069.02 1745.29 2017.97L1745.29 2017.97L1745.29 1523.66L1834.94 1513.70L1834.94 2017.97Q1834.94 2069.02 1790.11 2069.02L1790.11 2069.02ZM1948.24 1857.35Q1930.81 1857.35 1918.98 1844.27Q1907.15 1831.20 1903.42 1806.30L1903.42 1806.30Q1900.93 1795.09 1899.68 1784.51Q1898.44 1773.93 1897.19 1763.96L1897.19 1763.96Q1889.72 1711.67 1882.25 1671.83L1882.25 1671.83Q1879.76 1664.36 1879.76 1659.38Q1879.76 1654.39 1878.52 1651.90L1878.52 1651.90Q1877.27 1648.17 1877.27 1639.45L1877.27 1639.45Q1877.27 1622.02 1889.72 1611.44Q1902.17 1600.85 1922.09 1600.85L1922.09 1600.85Q1953.22 1600.85 1964.43 1643.19L1964.43 1643.19Q1979.37 1696.73 1994.31 1805.05L1994.31 1805.05Q1996.80 1827.47 1983.73 1842.41Q1970.65 1857.35 1948.24 1857.35L1948.24 1857.35ZM1618.29 1546.07Q1593.38 1548.56 1580.93 1535.49Q1568.48 1522.41 1568.48 1497.51L1568.48 1497.51Q1568.48 1476.34 1592.14 1463.89Q1615.80 1451.44 1659.38 1451.44L1659.38 1451.44L1692.99 1451.44L1750.27 1447.71Q1874.78 1440.23 1933.30 1437.74L1933.30 1437.74L1954.47 1509.96L1618.29 1546.07ZM1968.16 2021.70Q1925.83 2021.70 1925.83 1975.63L1925.83 1975.63Q1925.83 1954.47 1939.53 1943.26L1939.53 1943.26Q1950.73 1932.06 1996.80 1915.87L1996.80 1915.87Q2212.21 1838.67 2364.11 1686.77L2364.11 1686.77L2381.54 1773.93Q2304.35 1852.37 2159.91 1942.02L2159.91 1942.02Q2016.72 2021.70 1968.16 2021.70L1968.16 2021.70ZM2046.61 1816.26Q2006.76 1816.26 2006.76 1770.19L2006.76 1770.19Q2006.76 1739.06 2082.71 1709.18L2082.71 1709.18Q2214.70 1655.64 2319.29 1565.99L2319.29 1565.99L2360.38 1627.00Q2269.48 1709.18 2182.32 1761.47L2182.32 1761.47Q2136.25 1788.87 2101.39 1802.56Q2066.53 1816.26 2046.61 1816.26L2046.61 1816.26ZM1981.86 1559.77Q1963.18 1559.77 1947.00 1532.37L1947.00 1532.37Q1938.28 1513.70 1922.72 1475.72Q1907.15 1437.74 1893.46 1399.15L1893.46 1399.15Q1884.74 1376.73 1884.74 1365.53L1884.74 1365.53Q1884.74 1328.17 1922.09 1328.17L1922.09 1328.17Q1951.98 1328.17 1986.84 1411.60L1986.84 1411.60Q2003.03 1450.20 2013.61 1478.21Q2024.19 1506.23 2024.19 1514.94L2024.19 1514.94Q2024.19 1559.77 1981.86 1559.77L1981.86 1559.77ZM1747.78 1334.40Q1670.58 1263.43 1613.31 1222.34L1613.31 1222.34Q1579.69 1199.93 1579.69 1176.27L1579.69 1176.27Q1579.69 1131.45 1624.51 1131.45L1624.51 1131.45Q1639.45 1131.45 1661.87 1148.88L1661.87 1148.88L1664.36 1147.63Q1710.42 1069.19 1742.80 983.28L1742.80 983.28Q1762.72 932.23 1798.83 932.23L1798.83 932.23Q1849.88 932.23 1849.88 979.54L1849.88 979.54Q1849.88 1020.63 1729.10 1196.19L1729.10 1196.19L1792.60 1253.47L1796.34 1254.71L1866.06 1131.45Q1889.72 1089.11 1920.85 1089.11L1920.85 1089.11Q1969.41 1089.11 1969.41 1133.94L1969.41 1133.94Q1969.41 1167.55 1831.20 1360.55L1831.20 1360.55L1745.29 1475.10L1649.41 1480.08L1747.78 1334.40ZM2049.10 1431.52Q2025.44 1431.52 2015.48 1420.94Q2005.52 1410.35 2005.52 1387.94L2005.52 1387.94Q2005.52 1345.61 2049.10 1345.61L2049.10 1345.61L2661.69 1345.61Q2705.27 1345.61 2705.27 1387.94L2705.27 1387.94Q2705.27 1410.35 2695.31 1420.94Q2685.35 1431.52 2661.69 1431.52L2661.69 1431.52L2049.10 1431.52ZM2528.47 1384.20L2435.08 1364.28L2451.27 1280.86L2149.95 1280.86Q2066.53 1280.86 2066.53 1218.60L2066.53 1218.60Q2066.53 1197.44 2078.98 1158.84L2078.98 1158.84Q2088.94 1130.20 2122.56 978.30L2122.56 978.30Q2132.52 934.72 2168.63 934.72L2168.63 934.72Q2193.53 934.72 2205.98 946.55Q2218.43 958.37 2214.70 980.79L2214.70 980.79L2208.47 1018.14L2493.60 1018.14Q2578.27 1018.14 2578.27 1092.85L2578.27 1092.85Q2578.27 1130.20 2528.47 1384.20L2528.47 1384.20ZM2466.21 1198.68L2479.91 1126.46L2479.91 1120.24Q2479.91 1100.32 2450.02 1100.32L2450.02 1100.32L2187.30 1100.32L2171.12 1171.29Q2169.87 1175.02 2169.87 1181.25L2169.87 1181.25Q2169.87 1198.68 2189.79 1198.68L2189.79 1198.68L2466.21 1198.68Z"/>
  </svg>