<svg xmlns="http://www.w3.org/2000/svg" viewBox="0 0 3000 3000" width="3000" height="3000">
    <path fill="#000000" d="M482.55 1505.10L482.55 1466.85L1270.50 1466.85L1270.50 1505.10L482.55 1505.10ZM482.55 1785.60L482.55 1748.63L1270.50 1748.63L1270.50 1785.60L482.55 1785.60ZM482.55 2069.93L482.55 2031.68L1270.50 2031.68L1270.50 2069.93L482.55 2069.93ZM457.05 2148.97L457.05 1179.97L1289.62 1179.97L1289.62 2138.78L1252.65 2138.78L1252.65 1216.95L495.30 1216.95L495.30 2148.97L457.05 2148.97ZM840.82 993.83L840.82 993.83L877.80 1004.03Q858.67 1055.03 837.64 1110.49Q816.60 1165.95 794.92 1206.75L794.92 1206.75L764.32 1199.10Q777.07 1171.05 791.74 1134.08Q806.40 1097.10 819.79 1060.13Q833.17 1023.15 840.82 993.83ZM1589.25 1252.65L1589.25 1214.40L2685.75 1214.40L2685.75 1252.65L1589.25 1252.65ZM1964.10 1646.63L1964.10 1609.65L2639.85 1609.65L2639.85 1646.63L1964.10 1646.63ZM1913.10 2117.10L1913.10 2078.85L2689.57 2078.85L2689.57 2117.10L1913.10 2117.10ZM2279.03 2100.53L2279.03 1329.15L2316 1329.15L2316 2100.53L2279.03 2100.53ZM2025.30 997.65L2025.30 997.65L2063.55 1007.85Q2021.47 1145.55 1956.45 1281.97Q1891.43 1418.40 1801.54 1537.61Q1711.65 1656.83 1593.08 1746.08L1593.08 1746.08Q1590.53 1742.25 1586.06 1737.15Q1581.60 1732.05 1576.50 1726.31Q1571.40 1720.58 1567.58 1718.03L1567.58 1718.03Q1654.28 1653 1725.67 1570.13Q1797.08 1487.25 1853.81 1392.90Q1910.55 1298.55 1953.90 1198.46Q1997.25 1098.38 2025.30 997.65ZM1775.40 2138.78L1775.40 1514.03L1812.38 1514.03L1812.38 2138.78L1775.40 2138.78Z"/>
  </svg>