<svg xmlns="http://www.w3.org/2000/svg" viewBox="0 0 3000 3000" width="3000" height="3000">
    <path fill="#000000" d="M1236.07 1181.25L1200.38 1860.83Q1236.07 1905.45 1236.07 1919.48Q1236.07 1933.50 1225.88 1936.05Q1215.67 1938.60 1200.38 1939.88L1200.38 1939.88L594.75 1955.18L597.30 2022.75L597.30 2026.58Q597.30 2049.53 569.25 2049.53Q541.20 2049.53 520.80 2032.95Q500.40 2016.38 500.40 1999.80L500.40 1999.80L500.40 1993.43Q505.50 1962.83 505.50 1916.93L505.50 1916.93L505.50 1897.80L485.10 1214.40Q482.55 1173.60 468.52 1148.10Q454.50 1122.60 454.50 1113.67Q454.50 1104.75 471.71 1104.75Q488.92 1104.75 567.97 1132.80L567.97 1132.80L667.42 1127.70Q794.92 975.98 794.92 921.15L794.92 921.15L794.92 905.85Q794.92 902.03 793.65 898.20L793.65 898.20L793.65 894.38Q793.65 879.08 807.04 879.08Q820.42 879.08 842.10 889.28L842.10 889.28Q899.47 916.05 899.47 945.38L899.47 945.38Q899.47 963.23 849.75 1023.15Q800.02 1083.08 761.77 1122.60L761.77 1122.60L1154.47 1100.92L1164.67 1100.92Q1204.20 1100.92 1225.24 1117.50Q1246.27 1134.08 1246.27 1146.83Q1246.27 1159.58 1241.81 1167.22Q1237.35 1174.88 1236.07 1181.25L1236.07 1181.25ZM1139.17 1349.55L1146.82 1178.70L570.52 1209.30L575.62 1376.33L1139.17 1349.55ZM1128.97 1593.08L1136.63 1423.50L578.17 1450.28L584.55 1617.30L1128.97 1593.08ZM1117.50 1865.93L1126.42 1665.75L585.82 1689.98L592.20 1879.95L1117.50 1865.93ZM2072.47 926.25L2072.47 926.25Q2072.47 910.95 2071.20 898.20Q2069.93 885.45 2080.13 885.45L2080.13 885.45Q2085.22 885.45 2105.63 893.10L2105.63 893.10Q2164.28 914.77 2164.28 941.55L2164.28 941.55Q2164.28 945.38 2143.88 1002.11Q2123.47 1058.85 2086.50 1134.08L2086.50 1134.08L2491.95 1108.58Q2535.30 1104.75 2548.05 1100.92Q2560.80 1097.10 2568.45 1097.10Q2576.10 1097.10 2593.95 1107.30L2593.95 1107.30Q2642.40 1132.80 2642.40 1157.03L2642.40 1157.03Q2642.40 1173.60 2618.18 1176.15L2618.18 1176.15L2048.25 1210.58Q1976.85 1345.72 1881.22 1470.68L1881.22 1470.68L1877.40 2011.28Q1877.40 2044.43 1855.72 2044.43L1855.72 2044.43Q1840.42 2044.43 1816.20 2031.04Q1791.97 2017.65 1791.97 1994.70L1791.97 1994.70Q1799.63 1933.50 1799.63 1885.05L1799.63 1885.05L1803.45 1562.48Q1751.17 1621.13 1688.70 1672.13L1688.70 1672.13Q1575.22 1765.20 1543.35 1765.20L1543.35 1765.20Q1535.70 1765.20 1535.70 1756.28Q1535.70 1747.35 1580.33 1709.10Q1624.95 1670.85 1686.79 1602.64Q1748.63 1534.43 1804.72 1457.93L1804.72 1457.93L1806 1409.47Q1806 1390.35 1795.80 1370.59Q1785.60 1350.83 1785.60 1343.18Q1785.60 1335.53 1795.80 1335.53Q1806 1335.53 1816.20 1336.80L1816.20 1336.80L1837.88 1341.90Q1864.65 1344.45 1876.13 1355.93L1876.13 1355.93Q1928.40 1273.05 1959 1215.68L1959 1215.68L1774.13 1227.15Q1751.17 1229.70 1730.78 1229.70Q1710.38 1229.70 1690.61 1220.14Q1670.85 1210.58 1653 1165.95L1653 1165.95Q1651.72 1163.40 1651.72 1158.30L1651.72 1158.30Q1651.72 1149.38 1661.92 1149.38L1661.92 1149.38Q1693.80 1155.75 1728.22 1155.75L1728.22 1155.75L1744.80 1155.75L1997.25 1140.45Q2072.47 970.88 2072.47 926.25ZM2295.60 1864.65L2571 1851.90Q2585.03 1850.63 2593.95 1849.99Q2602.88 1849.35 2639.85 1842.98L2639.85 1842.98Q2661.53 1842.98 2695.95 1879.95L2695.95 1879.95Q2709.98 1893.98 2709.98 1904.18L2709.98 1904.18Q2709.98 1922.03 2679.38 1924.58L2679.38 1924.58L1990.88 1951.35L1969.20 1951.35Q1929.68 1951.35 1918.20 1936.05L1918.20 1936.05Q1887.60 1900.35 1887.60 1872.30L1887.60 1872.30Q1887.60 1865.93 1892.06 1865.93Q1896.53 1865.93 1913.10 1872.30Q1929.68 1878.68 1959 1878.68L1959 1878.68L1965.38 1878.68L2216.55 1867.20L2219.10 1584.15L2064.82 1593.08L2040.60 1594.35Q2006.18 1594.35 1995.34 1582.24Q1984.50 1570.13 1973.03 1549.09Q1961.55 1528.05 1961.55 1519.13Q1961.55 1510.20 1966.01 1510.20Q1970.47 1510.20 1987.05 1516.58Q2003.63 1522.95 2032.95 1522.95L2032.95 1522.95L2039.33 1522.95L2219.10 1510.20L2220.38 1310.03Q2220.38 1273.05 2205.07 1247.55L2205.07 1247.55Q2202.53 1243.72 2202.53 1237.99Q2202.53 1232.25 2216.55 1232.25Q2230.57 1232.25 2258.63 1243.09Q2286.68 1253.93 2293.69 1262.21Q2300.70 1270.50 2300.70 1288.35L2300.70 1288.35L2299.43 1503.83L2442.23 1493.63Q2456.25 1492.35 2471.55 1491.71Q2486.85 1491.08 2496.41 1487.89Q2505.98 1484.70 2513.63 1484.70Q2521.28 1484.70 2537.21 1494.90Q2553.15 1505.10 2566.54 1519.76Q2579.93 1534.43 2579.93 1544.63L2579.93 1544.63Q2579.93 1561.20 2550.60 1563.75L2550.60 1563.75L2298.15 1579.05L2295.60 1864.65Z"/>
  </svg>