<svg xmlns="http://www.w3.org/2000/svg" viewBox="0 0 3000 3000" width="3000" height="3000">
    <path fill="#000000" d="M704.40 1367.40L704.40 1367.40Q712.05 1357.20 717.15 1358.47Q722.25 1359.75 735.00 1376.32L735.00 1376.32Q750.30 1395.45 747.75 1405.65L747.75 1405.65Q746.47 1417.13 751.57 1417.13L751.57 1417.13Q757.95 1417.13 779.62 1408.20L779.62 1408.20Q873.97 1369.95 924.97 1366.13L924.97 1366.13Q959.40 1362.30 974.06 1368.04Q988.72 1373.78 998.92 1391.63L998.92 1391.63Q1019.32 1426.05 996.37 1460.47L996.37 1460.47L982.35 1480.88L940.27 1483.42Q856.12 1489.80 826.80 1512.75L826.80 1512.75Q814.05 1521.67 807.04 1521.04Q800.02 1520.40 778.35 1507.65L778.35 1507.65Q755.40 1492.35 750.30 1492.35Q745.20 1492.35 745.20 1563.75L745.20 1563.75Q745.20 1631.33 751.57 1631.33L751.57 1631.33Q825.52 1599.45 894.37 1589.25L894.37 1589.25Q953.02 1582.88 954.30 1580.96Q955.57 1579.05 969.60 1583.51Q983.62 1587.97 992.55 1608.38L992.55 1608.38Q1009.12 1642.80 991.27 1668.30L991.27 1668.30Q983.62 1678.50 976.61 1681.05Q969.60 1683.60 946.65 1683.60L946.65 1683.60Q848.47 1686.15 817.87 1712.92L817.87 1712.92Q808.95 1720.58 804.49 1721.21Q800.02 1721.85 784.72 1718.03L784.72 1718.03Q765.60 1712.92 765.60 1709.10Q765.60 1705.28 752.85 1696.35L752.85 1696.35Q745.20 1691.25 743.92 1691.25Q742.65 1691.25 741.37 1697.63L741.37 1697.63Q741.37 1706.55 735.00 1782.41Q728.62 1858.28 733.72 1863.38Q738.82 1868.47 756.67 1862.10L756.67 1862.10Q787.27 1848.08 874.61 1833.41Q961.95 1818.75 1007.85 1818.75L1007.85 1818.75Q1037.17 1818.75 1044.19 1820.66Q1051.20 1822.58 1056.30 1831.50L1056.30 1831.50Q1063.95 1845.53 1067.77 1867.20L1067.77 1867.20Q1070.32 1879.95 1067.77 1886.96Q1065.22 1893.97 1056.30 1904.17L1056.30 1904.17L1039.72 1922.03L963.22 1919.47Q886.72 1916.92 861.86 1925.21Q837.00 1933.50 815.96 1936.69Q794.92 1939.88 789.82 1946.25L789.82 1946.25Q778.35 1961.55 757.95 1946.25L757.95 1946.25Q745.20 1937.33 736.27 1940.51Q727.35 1943.70 714.60 1961.55L714.60 1961.55Q698.02 1983.22 695.47 1983.22L695.47 1983.22Q682.72 1983.22 677.62 1953.90L677.62 1953.90Q672.52 1924.58 658.50 1878.67L658.50 1878.67Q653.40 1859.55 662.32 1846.80L662.32 1846.80Q675.07 1827.67 679.54 1774.13Q684.00 1720.58 684.00 1595.63L684.00 1595.63Q685.27 1473.22 689.10 1426.05Q692.92 1378.88 704.40 1367.40ZM842.10 955.57L842.10 955.57Q853.57 932.63 867.60 937.09Q881.62 941.55 910.95 974.70L910.95 974.70Q945.37 1011.67 945.37 1020.60L945.37 1020.60Q945.37 1029.52 930.71 1046.10Q916.05 1062.67 908.40 1062.67L908.40 1062.67Q902.02 1062.67 889.91 1083.07Q877.80 1103.47 868.87 1116.86Q859.95 1130.25 856.76 1137.90Q853.57 1145.55 823.61 1181.89Q793.65 1218.22 800.66 1218.22Q807.67 1218.22 848.47 1206.75L848.47 1206.75Q888.00 1196.55 954.94 1192.72Q1021.87 1188.90 1076.70 1192.72L1076.70 1192.72Q1113.67 1195.27 1130.89 1199.10Q1148.10 1202.92 1171.05 1214.40L1171.05 1214.40Q1210.57 1233.53 1222.05 1246.91Q1233.52 1260.30 1232.25 1289.63L1232.25 1289.63Q1230.97 1321.50 1220.77 1350.82L1220.77 1350.82Q1200.38 1404.38 1211.85 1593.07L1211.85 1593.07Q1215.67 1677.22 1215.67 1763.92Q1215.67 1850.63 1211.85 1874.85L1211.85 1874.85Q1206.75 1900.35 1205.47 1918.20L1205.47 1918.20Q1202.92 1987.05 1181.25 2031.67L1181.25 2031.67Q1172.32 2052.07 1145.55 2083.31Q1118.77 2114.55 1099.65 2126.03L1099.65 2126.03Q1088.17 2133.68 1079.89 2131.13Q1071.60 2128.57 1071.60 2119.65L1071.60 2119.65Q1071.60 2113.28 1030.80 2072.47L1030.80 2072.47L964.50 2006.17Q940.27 1980.67 940.27 1975.58L940.27 1975.58Q940.27 1969.20 953.02 1968.56Q965.77 1967.92 974.70 1974.30L974.70 1974.30Q982.35 1978.13 1021.24 1966.65Q1060.13 1955.17 1067.77 1946.25L1067.77 1946.25Q1076.70 1938.60 1088.17 1893.97Q1099.65 1849.35 1104.75 1800.90L1104.75 1800.90Q1112.40 1743.53 1098.38 1577.78L1098.38 1577.78Q1097.10 1556.10 1090.72 1415.21Q1084.35 1274.32 1081.80 1271.78L1081.80 1271.78Q1077.97 1267.95 997.01 1269.86Q916.05 1271.78 895.65 1278.15L895.65 1278.15Q857.40 1285.80 822.97 1297.91Q788.55 1310.03 787.27 1315.13L787.27 1315.13Q780.90 1330.42 746.47 1304.92L746.47 1304.92L732.45 1292.17L673.80 1350.82Q629.17 1394.17 571.80 1435.61Q514.42 1477.05 499.12 1477.05L499.12 1477.05Q490.20 1477.05 495.30 1470.67L495.30 1470.67Q496.57 1466.85 501.67 1459.20L501.67 1459.20Q516.97 1440.07 527.17 1427.32L527.17 1427.32Q542.47 1412.03 629.17 1301.10L629.17 1301.10Q667.42 1250.10 671.25 1245Q675.07 1239.90 704.40 1200.38L704.40 1200.38Q736.27 1155.75 782.17 1071.60L782.17 1071.60L816.60 1007.85Q834.45 974.70 842.10 955.57ZM2092.88 954.30L2092.88 954.30Q2112 939 2146.43 972.15L2146.43 972.15Q2175.75 1000.20 2183.40 1014.86Q2191.05 1029.52 2188.50 1052.47L2188.50 1052.47Q2185.95 1079.25 2180.85 1081.16Q2175.75 1083.07 2175.75 1093.27Q2175.75 1103.47 2166.82 1125.79Q2157.90 1148.10 2161.72 1151.29Q2165.55 1154.47 2199.97 1147.46Q2234.40 1140.45 2300.70 1139.17Q2367 1137.90 2386.13 1136.63L2386.13 1136.63Q2430.75 1135.35 2458.80 1155.75L2458.80 1155.75Q2476.65 1169.77 2481.11 1180.61Q2485.58 1191.45 2484.30 1214.40L2484.30 1214.40Q2481.75 1242.45 2469 1255.20L2469 1255.20L2456.25 1267.95L2424.38 1256.47Q2392.50 1245 2354.25 1239.90Q2316 1234.80 2287.95 1230.34Q2259.90 1225.88 2238.86 1230.97Q2217.82 1236.07 2197.43 1230.97L2197.43 1230.97Q2175.75 1225.88 2154.71 1232.89Q2133.68 1239.90 2131.13 1252.65L2131.13 1252.65Q2128.57 1261.57 2116.46 1277.51Q2104.35 1293.45 2090.96 1322.14Q2077.57 1350.82 2068.01 1353.38Q2058.45 1355.92 2050.80 1373.78L2050.80 1373.78Q2046.97 1385.25 2024.03 1421.59Q2001.08 1457.92 1989.60 1469.40L1989.60 1469.40Q1984.50 1477.05 1969.20 1500L1969.20 1500L1953.90 1521.67L1976.85 1540.80Q1997.25 1558.65 1997.25 1564.39Q1997.25 1570.13 2004.90 1575.22L2004.90 1575.22Q2012.55 1582.88 2012.55 1607.74Q2012.55 1632.60 2003.63 1654.28L2003.63 1654.28Q1997.25 1674.67 1997.25 1698.26Q1997.25 1721.85 1991.51 1739.70Q1985.78 1757.55 1984.50 1816.20L1984.50 1816.20L1983.22 1877.40L2001.08 1877.40Q2018.93 1877.40 2027.85 1871.03L2027.85 1871.03Q2034.22 1864.65 2071.20 1855.72Q2108.18 1846.80 2140.05 1844.25L2140.05 1844.25Q2171.93 1840.42 2183.40 1826.40Q2194.88 1812.38 2197.43 1772.85L2197.43 1772.85Q2202.53 1730.78 2205.07 1715.47L2205.07 1715.47Q2206.35 1704 2204.44 1701.45Q2202.53 1698.90 2191.05 1698.90L2191.05 1698.90Q2175.75 1698.90 2154.07 1684.24Q2132.40 1669.58 2118.38 1651.72L2118.38 1651.72Q2110.72 1642.80 2107.54 1630.69Q2104.35 1618.58 2104.99 1610.29Q2105.63 1602 2110.72 1602L2110.72 1602Q2119.65 1602 2122.20 1592.44Q2124.75 1582.88 2171.93 1567.57L2171.93 1567.57L2217.82 1552.28L2215.28 1503.82L2214 1412.03Q2212.72 1368.67 2221.65 1357.20L2221.65 1357.20Q2234.40 1340.63 2261.18 1347.64Q2287.95 1354.65 2312.18 1380.15L2312.18 1380.15Q2330.03 1400.55 2333.85 1413.30Q2337.68 1426.05 2333.85 1470.67L2333.85 1470.67Q2331.30 1522.95 2337.68 1522.95L2337.68 1522.95Q2338.95 1522.95 2341.50 1521.67L2341.50 1521.67Q2361.90 1515.30 2393.14 1524.86Q2424.38 1534.42 2435.21 1552.28Q2446.05 1570.13 2443.50 1598.17Q2440.95 1626.22 2426.93 1637.70L2426.93 1637.70Q2414.18 1647.90 2376.56 1644.08Q2338.95 1640.25 2336.40 1647.90Q2333.85 1655.55 2330.03 1738.42L2330.03 1738.42L2326.20 1820.03L2368.28 1823.85Q2403.98 1826.40 2455.61 1823.85Q2507.25 1821.30 2522.55 1814.92L2522.55 1814.92Q2536.57 1809.83 2548.05 1817.47Q2559.53 1825.13 2581.20 1828.95L2581.20 1828.95Q2597.78 1831.50 2616.26 1842.34Q2634.75 1853.17 2634.75 1859.55L2634.75 1859.55Q2634.75 1864.65 2627.10 1877.40Q2619.45 1890.15 2619.45 1898.44Q2619.45 1906.72 2601.60 1925.85L2601.60 1925.85Q2588.85 1937.33 2581.84 1941.15Q2574.82 1944.97 2562.07 1944.97L2562.07 1944.97Q2539.13 1944.97 2514.90 1939.88L2514.90 1939.88Q2446.05 1922.03 2239.50 1928.40L2239.50 1928.40L2101.80 1930.95L2071.20 1948.80L2040.60 1965.38L2016.38 1957.72Q1990.88 1948.80 1985.78 1948.80Q1980.68 1948.80 1983.22 2013.83L1983.22 2013.83Q1985.78 2062.28 1984.50 2072.47Q1983.22 2082.68 1974.30 2090.32L1974.30 2090.32Q1967.93 2097.97 1948.80 2107.54Q1929.68 2117.10 1922.03 2117.10L1922.03 2117.10Q1919.47 2117.10 1919.47 2108.18Q1919.47 2099.25 1908 2086.50L1908 2086.50Q1897.80 2077.57 1895.89 2067.38Q1893.97 2057.18 1893.97 2025.30L1893.97 2025.30Q1893.97 1976.85 1901.63 1962.83L1901.63 1962.83Q1908 1953.90 1909.91 1927.13Q1911.83 1900.35 1918.20 1779.22L1918.20 1779.22Q1922.03 1695.08 1939.88 1614.75L1939.88 1614.75Q1944.97 1602 1947.53 1580.32Q1950.08 1558.65 1950.71 1545.90Q1951.35 1533.15 1950.08 1530.60L1950.08 1530.60Q1944.97 1530.60 1913.10 1568.85L1913.10 1568.85Q1832.78 1665.75 1766.47 1719.30L1766.47 1719.30Q1744.80 1737.15 1738.42 1744.80L1738.42 1744.80Q1725.67 1756.28 1689.34 1779.22Q1653 1802.17 1646.63 1799.63L1646.63 1799.63Q1630.05 1795.80 1651.72 1771.58L1651.72 1771.58Q1660.65 1761.38 1678.50 1740.97L1678.50 1740.97Q1779.22 1638.97 1804.72 1607.10Q1830.22 1575.22 1877.40 1503.82L1877.40 1503.82Q1943.70 1403.10 1973.03 1326.60L1973.03 1326.60L1989.60 1287.07Q1997.25 1270.50 1997.25 1264.13L1997.25 1264.13Q1997.25 1248.82 1951.35 1271.78L1951.35 1271.78Q1925.85 1283.25 1914.38 1296L1914.38 1296Q1909.28 1304.92 1905.45 1305.56Q1901.63 1306.20 1895.25 1299.82L1895.25 1299.82Q1879.95 1290.90 1861.46 1273.69Q1842.97 1256.47 1835.33 1246.28L1835.33 1246.28Q1830.22 1238.63 1831.50 1234.16Q1832.78 1229.70 1842.97 1219.50L1842.97 1219.50Q1871.03 1190.17 1948.80 1179.97L1948.80 1179.97Q1979.40 1177.42 2006.18 1172.32L2006.18 1172.32Q2030.40 1168.50 2038.69 1153.20Q2046.97 1137.90 2066.10 1063.95L2066.10 1063.95Q2082.68 997.65 2077.57 987.45L2077.57 987.45Q2069.93 973.42 2092.88 954.30Z"/>
  </svg>