<svg xmlns="http://www.w3.org/2000/svg" viewBox="0 0 3000 3000" width="3000" height="3000">
    <path fill="#000000" d="M1125.15 947.92L1125.15 947.92Q1125.15 967.05 967.05 1084.35L967.05 1084.35L1187.63 1070.33Q1229.70 1066.50 1241.17 1062.04Q1252.65 1057.58 1259.02 1057.58Q1265.40 1057.58 1278.15 1063.95L1278.15 1063.95Q1316.40 1081.80 1316.40 1108.58L1316.40 1108.58Q1316.40 1125.15 1294.72 1127.70L1294.72 1127.70L488.92 1177.43L455.77 1178.70Q403.50 1178.70 388.20 1122.60L388.20 1122.60Q386.92 1120.05 386.92 1114.95Q386.92 1109.85 393.30 1109.85L393.30 1109.85L395.85 1109.85Q423.90 1114.95 445.57 1114.95L445.57 1114.95L870.15 1089.45Q939.00 1030.80 1018.05 947.92L1018.05 947.92Q1026.97 937.73 1039.72 893.10L1039.72 893.10Q1043.55 881.63 1054.39 881.63Q1065.22 881.63 1082.44 893.74Q1099.65 905.85 1112.40 921.79Q1125.15 937.73 1125.15 947.92ZM601.12 967.05L601.12 967.05Q592.20 960.67 592.20 949.20Q592.20 937.73 602.40 924.34Q612.60 910.95 624.07 910.95Q635.55 910.95 661.69 928.16Q687.82 945.38 716.51 969.60Q745.20 993.83 766.24 1016.14Q787.27 1038.45 787.27 1051.84Q787.27 1065.22 770.70 1077.97Q754.12 1090.72 742.65 1090.72Q731.17 1090.72 699.94 1055.66Q668.70 1020.60 601.12 967.05ZM1195.27 1511.47L1195.27 1511.47Q1154.47 1459.20 1154.47 1447.72Q1154.47 1436.25 1165.95 1426.69Q1177.42 1417.13 1188.90 1417.13Q1200.38 1417.13 1208.02 1426.69Q1215.67 1436.25 1235.44 1460.47Q1255.20 1484.70 1294.72 1536.34Q1334.25 1587.98 1334.25 1607.10Q1334.25 1626.23 1315.76 1635.15Q1297.27 1644.08 1284.52 1644.08Q1271.77 1644.08 1263.49 1624.95Q1255.20 1605.83 1227.15 1559.93L1227.15 1559.93Q1080.52 1598.18 991.27 1616.03Q902.02 1633.88 900.75 1633.88L900.75 1633.88Q865.05 1633.88 842.10 1565.03L842.10 1565.03Q842.10 1561.20 849.75 1561.20L849.75 1561.20L856.12 1561.20Q862.50 1562.48 872.70 1562.48Q882.90 1562.48 893.10 1562.48Q903.30 1562.48 912.22 1561.20L912.22 1561.20Q945.37 1526.78 1009.12 1451.55L1009.12 1451.55Q908.40 1376.33 866.32 1353.38L866.32 1353.38Q847.20 1341.90 847.20 1332.97Q847.20 1324.05 857.40 1307.47Q867.60 1290.90 880.99 1290.90Q894.37 1290.90 905.85 1298.55L905.85 1298.55L937.72 1320.22Q1007.85 1215.68 1007.85 1167.22L1007.85 1167.22Q1007.85 1151.92 1018.05 1151.92Q1028.25 1151.92 1046.10 1160.85L1046.10 1160.85Q1090.72 1183.80 1090.72 1206.75L1090.72 1206.75Q1090.72 1214.40 1053.75 1264.13Q1016.77 1313.85 983.62 1353.38L983.62 1353.38Q992.55 1359.75 1051.20 1405.65L1051.20 1405.65Q1132.80 1304.93 1141.09 1283.25Q1149.38 1261.58 1149.38 1247.55L1149.38 1247.55L1149.38 1236.08Q1149.38 1220.78 1162.13 1220.78L1162.13 1220.78Q1167.22 1220.78 1183.80 1232.25L1183.80 1232.25Q1233.52 1262.85 1233.52 1285.80L1233.52 1285.80Q1233.52 1290.90 1206.75 1326.60L1206.75 1326.60Q1132.80 1428.60 997.65 1549.73L997.65 1549.73Q1090.72 1536.97 1195.27 1511.47ZM729.90 1535.70L729.90 1535.70Q698.02 1482.15 698.02 1479.60L698.02 1479.60Q698.02 1465.58 715.87 1457.93Q733.72 1450.28 737.55 1450.28L737.55 1450.28Q750.30 1450.28 799.39 1525.50Q848.47 1600.73 848.47 1618.58Q848.47 1636.43 825.52 1647.90L825.52 1647.90Q812.77 1655.55 802.57 1655.55L802.57 1655.55Q786.00 1655.55 777.07 1631.33Q768.15 1607.10 755.40 1585.43L755.40 1585.43Q620.25 1626.23 544.39 1642.80Q468.52 1659.38 457.05 1659.38Q445.57 1659.38 425.17 1640.25L425.17 1640.25Q395.85 1610.93 395.85 1598.18Q395.85 1585.43 404.77 1585.43L404.77 1585.43L407.32 1585.43Q413.70 1586.70 418.80 1586.70L418.80 1586.70L431.55 1586.70Q446.85 1586.70 464.70 1584.15L464.70 1584.15Q496.57 1552.28 523.35 1522.31Q550.12 1492.35 574.35 1465.58L574.35 1465.58Q515.70 1415.85 434.10 1364.85L434.10 1364.85Q417.52 1353.38 417.52 1342.54Q417.52 1331.70 428.36 1317.68Q439.20 1303.65 448.12 1303.65Q457.05 1303.65 472.35 1312.58L472.35 1312.58L509.32 1336.80Q580.72 1242.45 580.72 1195.28L580.72 1195.28L580.72 1186.35Q580.72 1173.60 590.92 1173.60L590.92 1173.60Q617.70 1173.60 650.85 1206.75L650.85 1206.75Q663.60 1219.50 663.60 1227.15L663.60 1227.15Q663.60 1245 555.22 1369.95L555.22 1369.95Q582.00 1389.08 617.70 1419.67L617.70 1419.67Q703.12 1320.22 710.77 1299.83Q718.42 1279.43 718.42 1261.58Q718.42 1243.72 729.90 1243.72L729.90 1243.72Q736.27 1243.72 754.12 1253.93L754.12 1253.93Q805.12 1283.25 805.12 1303.65L805.12 1303.65Q805.12 1308.75 749.66 1375.69Q694.20 1442.63 553.95 1571.40L553.95 1571.40Q635.55 1558.65 729.90 1535.70ZM912.22 1845.53L912.22 1845.53Q854.85 1783.05 783.45 1724.40L783.45 1724.40Q771.97 1714.20 771.97 1705.28Q771.97 1696.35 782.81 1679.78Q793.65 1663.20 803.21 1663.20Q812.77 1663.20 831.90 1675.31Q851.02 1687.43 876.52 1706.55Q902.02 1725.68 926.89 1747.35Q951.75 1769.03 967.69 1786.88Q983.62 1804.73 983.62 1815.56Q983.62 1826.40 966.41 1844.25Q949.20 1862.10 937.72 1862.10Q926.25 1862.10 912.22 1845.53ZM1354.65 1906.73L1354.65 1906.73Q1279.42 1817.48 1187.63 1739.70L1187.63 1739.70Q1169.77 1724.40 1169.77 1716.75Q1169.77 1709.10 1181.25 1691.25Q1192.72 1673.40 1205.47 1673.40Q1218.22 1673.40 1243.09 1690.61Q1267.95 1707.83 1299.19 1734.60Q1330.42 1761.38 1360.39 1790.06Q1390.35 1818.75 1409.47 1841.06Q1428.60 1863.38 1428.60 1876.76Q1428.60 1890.15 1408.20 1907.36Q1387.80 1924.58 1378.88 1924.58Q1369.95 1924.58 1354.65 1906.73ZM397.12 1971.75L397.12 1971.75Q384.37 1992.15 369.07 1992.15Q353.77 1992.15 335.92 1978.13Q318.07 1964.10 318.07 1952.63Q318.07 1941.15 342.30 1908L342.30 1908Q404.77 1822.58 450.67 1707.83L450.67 1707.83Q459.60 1683.60 474.26 1683.60Q488.92 1683.60 505.50 1693.80Q522.07 1704 522.07 1717.39Q522.07 1730.78 502.95 1774.13L502.95 1774.13Q462.15 1872.30 397.12 1971.75ZM1236.07 1966.65L1236.07 1966.65Q1236.07 2016.38 1127.70 2022.75L1127.70 2022.75Q1081.80 2026.58 1018.05 2026.58L1018.05 2026.58Q831.90 2026.58 743.92 1979.40L743.92 1979.40Q662.32 1937.33 613.87 1841.70L613.87 1841.70Q578.17 1772.85 578.17 1737.15L578.17 1737.15Q578.17 1716.75 612.60 1712.93L612.60 1712.93L624.07 1711.65Q641.92 1711.65 649.57 1737.15L649.57 1737.15Q673.80 1814.93 715.87 1861.46Q757.95 1908 831.90 1927.76Q905.85 1947.53 998.92 1947.53Q1092 1947.53 1109.21 1944.98Q1126.42 1942.43 1126.42 1936.05L1126.42 1936.05L1100.92 1879.95Q1069.05 1804.73 1069.05 1781.78Q1069.05 1758.83 1079.25 1758.83L1079.25 1758.83Q1093.27 1758.83 1118.14 1799.63Q1143 1840.43 1214.40 1923.30L1214.40 1923.30Q1236.07 1951.35 1236.07 1966.65ZM2189.78 1820.03L2189.78 1820.03Q2289.23 1747.35 2349.15 1679.78L2349.15 1679.78L2012.55 1700.18L1998.53 1700.18Q2061 1749.90 2189.78 1820.03ZM2078.85 1468.13L2078.85 1468.13L2416.73 1450.28Q2449.88 1447.72 2471.55 1442.63Q2493.23 1437.53 2501.51 1437.53Q2509.80 1437.53 2528.93 1446.45L2528.93 1446.45Q2581.20 1468.13 2581.20 1491.08L2581.20 1491.08Q2581.20 1506.38 2549.32 1508.93L2549.32 1508.93L2050.80 1533.15Q2030.40 1584.15 2004.90 1627.50L2004.90 1627.50L2395.05 1608.38L2406.53 1608.38Q2429.48 1608.38 2444.14 1623.04Q2458.80 1637.70 2458.80 1654.28Q2458.80 1670.85 2451.15 1677.23L2451.15 1677.23L2437.13 1691.25Q2350.43 1790.70 2259.90 1854.45L2259.90 1854.45Q2458.80 1941.15 2681.93 1983.23L2681.93 1983.23Q2716.35 1989.60 2716.35 1999.80Q2716.35 2010 2699.78 2026.58L2699.78 2026.58Q2666.63 2062.28 2630.93 2058.45L2630.93 2058.45Q2392.50 1997.25 2189.78 1900.35L2189.78 1900.35Q1983.22 2017.65 1767.75 2053.35L1767.75 2053.35Q1728.22 2059.72 1724.40 2059.72L1724.40 2059.72Q1701.45 2059.72 1704 2043.15L1704 2043.15Q1704 2026.58 1738.42 2016.38L1738.42 2016.38Q1973.03 1948.80 2117.10 1863.38L2117.10 1863.38Q2094.15 1850.63 2069.93 1837.88L2069.93 1837.88Q1979.40 1783.05 1925.85 1735.88L1925.85 1735.88L1923.30 1742.25Q1786.88 1901.63 1595.63 1985.78L1595.63 1985.78Q1551 2007.45 1552.28 1987.05L1552.28 1987.05Q1552.28 1974.30 1581.60 1955.18L1581.60 1955.18Q1812.38 1802.18 1910.55 1633.88L1910.55 1633.88Q1962.83 1544.63 1965.38 1536.97L1965.38 1536.97L1777.95 1545.90L1739.70 1547.18Q1688.70 1547.18 1667.03 1503.83L1667.03 1503.83Q1655.55 1478.33 1659.38 1478.33L1659.38 1478.33L1665.75 1478.33Q1668.30 1478.33 1682.33 1481.51Q1696.35 1484.70 1728.22 1484.70L1728.22 1484.70L1747.35 1484.70L1989.60 1471.95Q2007.45 1420.95 2008.73 1405.65L2008.73 1405.65Q2008.73 1390.35 2002.35 1378.88L2002.35 1378.88Q1987.05 1349.55 2015.74 1347.64Q2044.43 1345.72 2069.93 1359.11Q2095.43 1372.50 2095.43 1394.18L2095.43 1394.18Q2091.60 1423.50 2078.85 1468.13ZM1905.45 1247.55L1905.45 1247.55Q1858.28 1182.53 1808.55 1137.90L1808.55 1137.90Q1807.28 1134.08 1803.45 1130.25Q1799.63 1126.42 1799.63 1118.14Q1799.63 1109.85 1813.65 1099.01Q1827.67 1088.17 1838.51 1088.17Q1849.35 1088.17 1861.46 1098.38Q1873.58 1108.58 1892.70 1127.06Q1911.83 1145.55 1932.22 1165.95Q1952.63 1186.35 1965.38 1202.29Q1978.13 1218.22 1978.13 1225.88Q1978.13 1233.53 1963.46 1249.46Q1948.80 1265.40 1934.14 1265.40Q1919.47 1265.40 1905.45 1247.55ZM2097.97 1058.85L2099.25 1058.85Q2126.03 1058.85 2184.68 1177.43L2184.68 1177.43Q2196.15 1202.93 2196.15 1212.49Q2196.15 1222.05 2176.39 1232.25Q2156.63 1242.45 2141.32 1242.45Q2126.03 1242.45 2119.65 1223.33L2119.65 1223.33Q2096.70 1153.20 2061 1102.20L2061 1102.20Q2055.90 1090.72 2055.90 1084.35L2055.90 1084.35Q2055.90 1069.05 2087.78 1061.40L2087.78 1061.40Q2096.70 1058.85 2097.97 1058.85L2097.97 1058.85ZM2386.13 1213.13L2365.73 1236.08L2591.40 1220.78Q2607.98 1218.22 2618.81 1217.59Q2629.65 1216.95 2648.78 1230.34Q2667.90 1243.72 2668.54 1256.47Q2669.18 1269.22 2660.89 1274.33Q2652.60 1279.43 2646.23 1285.80L2646.23 1285.80Q2599.05 1344.45 2555.70 1380.15L2555.70 1380.15Q2488.13 1436.25 2488.13 1403.10L2488.13 1403.10Q2488.13 1387.80 2514.90 1350.83Q2541.68 1313.85 2551.88 1290.90L2551.88 1290.90L1760.10 1341.90Q1748.63 1377.60 1730.78 1410.11Q1712.92 1442.63 1705.91 1450.28Q1698.90 1457.93 1686.79 1457.93Q1674.67 1457.93 1653.64 1443.90Q1632.60 1429.88 1632.60 1419.67Q1632.60 1409.47 1638.97 1400.55L1638.97 1400.55Q1689.97 1331.70 1707.83 1242.45L1707.83 1242.45Q1711.65 1215.68 1728.22 1215.68L1728.22 1215.68Q1746.08 1213.13 1767.11 1220.14Q1788.15 1227.15 1788.15 1236.08Q1788.15 1245 1786.24 1248.19Q1784.33 1251.38 1783.05 1256.47L1783.05 1256.47L1779.22 1276.88L2240.78 1245L2287.95 1242.45Q2393.78 1089.45 2400.15 1041L2400.15 1041Q2400.15 1018.05 2409.07 1016.77L2409.07 1016.77Q2430.75 1016.77 2460.07 1033.99Q2489.40 1051.20 2490.04 1065.22Q2490.68 1079.25 2453.70 1129.61Q2416.73 1179.97 2386.13 1213.13L2386.13 1213.13ZM1756.28 1089.45L1746.08 1089.45Q1697.63 1090.72 1696.35 1074.15L1696.35 1074.15Q1696.35 1057.58 1753.72 1048.65L1753.72 1048.65Q2156.63 984.90 2414.18 912.23L2414.18 912.23Q2446.05 903.30 2456.25 886.72L2456.25 886.72Q2465.18 876.53 2472.19 876.53Q2479.20 876.53 2502.79 902.66Q2526.38 928.80 2530.20 956.85L2530.20 956.85Q2530.20 972.15 2509.80 977.25L2509.80 977.25Q2124.75 1061.40 1756.28 1089.45L1756.28 1089.45Z"/>
  </svg>