<svg xmlns="http://www.w3.org/2000/svg" viewBox="0 0 3000 3000" width="3000" height="3000">
    <path fill="#000000" d="M307.87 1196.55L307.87 1158.30L1427.32 1158.30L1427.32 1196.55L307.87 1196.55ZM545.02 1014.22L545.02 1014.22L576.90 1000.20Q612.60 1038.45 647.66 1086.90Q682.72 1135.35 699.30 1168.50L699.30 1168.50L666.15 1187.63Q649.57 1151.92 614.51 1102.84Q579.45 1053.75 545.02 1014.22ZM680.17 1549.72L680.17 1549.72L710.77 1534.43Q738.82 1562.47 766.24 1596.90Q793.65 1631.33 815.96 1664.47Q838.27 1697.63 849.75 1724.40L849.75 1724.40L816.60 1743.53Q803.85 1716.75 782.17 1682.96Q760.50 1649.18 733.72 1614.11Q706.95 1579.05 680.17 1549.72ZM1215.67 1543.35L1215.67 1543.35L1248.82 1528.05Q1279.42 1559.92 1308.75 1598.18Q1338.07 1636.43 1362.30 1674.04Q1386.52 1711.65 1399.27 1740.98L1399.27 1740.98L1366.13 1760.10Q1353.38 1729.50 1329.15 1691.89Q1304.92 1654.28 1275.60 1614.75Q1246.27 1575.22 1215.67 1543.35ZM1120.05 997.65L1120.05 997.65L1154.47 1015.50Q1127.70 1058.85 1093.91 1105.39Q1060.13 1151.92 1029.52 1186.35L1029.52 1186.35L1001.47 1169.78Q1020.60 1146.83 1042.91 1116.22Q1065.22 1085.63 1085.63 1053.75Q1106.02 1021.88 1120.05 997.65ZM613.87 2049.53L613.87 1817.48L650.85 1817.48L650.85 2049.53Q650.85 2071.20 667.42 2078.85Q684.00 2086.50 742.65 2086.50L742.65 2086.50Q756.67 2086.50 796.20 2086.50Q835.72 2086.50 884.17 2086.50Q932.62 2086.50 974.70 2086.50Q1016.77 2086.50 1035.90 2086.50L1035.90 2086.50Q1069.05 2086.50 1085.63 2076.30Q1102.20 2066.10 1108.57 2031.04Q1114.95 1995.98 1117.50 1923.30L1117.50 1923.30Q1123.88 1927.13 1130.25 1930.95Q1136.63 1934.78 1143 1936.69Q1149.38 1938.60 1154.47 1941.15L1154.47 1941.15Q1151.92 2015.10 1142.36 2055.26Q1132.80 2095.43 1109.21 2110.09Q1085.63 2124.75 1038.45 2124.75L1038.45 2124.75Q1032.07 2124.75 1002.11 2124.75Q972.15 2124.75 932.62 2124.75Q893.10 2124.75 852.94 2124.75Q812.77 2124.75 782.81 2124.75Q752.85 2124.75 746.47 2124.75L746.47 2124.75Q695.47 2124.75 666.15 2119.65Q636.82 2114.55 625.35 2097.97Q613.87 2081.40 613.87 2049.53L613.87 2049.53ZM792.37 1806L792.37 1806L821.70 1789.43Q858.67 1822.58 897.56 1865.29Q936.45 1908 956.85 1939.88L956.85 1939.88L928.80 1959Q907.12 1927.13 868.24 1883.78Q829.35 1840.43 792.37 1806ZM1216.95 1798.35L1216.95 1798.35L1247.55 1783.05Q1276.87 1823.85 1307.47 1870.39Q1338.07 1916.93 1364.85 1959.64Q1391.63 2002.35 1408.20 2032.95L1408.20 2032.95L1377.60 2054.63Q1361.02 2022.75 1333.61 1978.13Q1306.20 1933.50 1276.24 1886.33Q1246.27 1839.15 1216.95 1798.35ZM439.20 1802.18L439.20 1802.18L471.07 1814.93Q458.32 1854.45 439.20 1902.26Q420.07 1950.08 396.49 1995.34Q372.90 2040.60 344.85 2075.03L344.85 2075.03L311.70 2055.90Q339.75 2024.03 363.97 1979.40Q388.20 1934.78 407.32 1888.24Q426.45 1841.70 439.20 1802.18ZM355.05 1507.65L355.05 1507.65Q353.77 1502.55 351.22 1494.26Q348.67 1485.97 346.12 1477.69Q343.57 1469.40 341.02 1464.30L341.02 1464.30Q369.07 1460.47 402.22 1420.95L402.22 1420.95Q416.25 1408.20 445.57 1373.78Q474.90 1339.35 509.96 1293.45Q545.02 1247.55 571.80 1200.38L571.80 1200.38L610.05 1218.22Q559.05 1296 503.59 1363.58Q448.12 1431.15 393.30 1479.60L393.30 1479.60L393.30 1480.88Q393.30 1480.88 387.56 1483.43Q381.82 1485.97 374.17 1489.80Q366.52 1493.63 360.79 1498.09Q355.05 1502.55 355.05 1507.65ZM355.05 1505.10L355.05 1505.10L355.05 1470.68L386.92 1454.10L663.60 1433.70Q662.32 1442.63 662.32 1452.19Q662.32 1461.75 662.32 1468.13L662.32 1468.13Q565.42 1477.05 507.41 1482.79Q449.40 1488.53 418.80 1492.35Q388.20 1496.18 374.81 1499.36Q361.42 1502.55 355.05 1505.10ZM352.50 1737.15L352.50 1737.15Q351.22 1732.05 348.67 1723.76Q346.12 1715.48 343.57 1707.19Q341.02 1698.90 338.47 1693.80L338.47 1693.80Q356.32 1691.25 383.10 1673.40Q409.87 1655.55 443.02 1628.78L443.02 1628.78Q460.87 1614.75 495.94 1582.24Q531.00 1549.72 576.26 1505.74Q621.52 1461.75 669.97 1410.11Q718.42 1358.47 761.77 1304.93L761.77 1304.93L798.75 1325.33Q699.30 1438.80 596.02 1538.25Q492.75 1637.70 390.75 1710.38L390.75 1710.38L390.75 1711.65Q390.75 1711.65 385.01 1713.56Q379.27 1715.48 371.62 1719.30Q363.97 1723.13 358.24 1727.59Q352.50 1732.05 352.50 1737.15ZM352.50 1737.15L352.50 1737.15L352.50 1702.73L385.65 1686.15L793.65 1647.90Q793.65 1656.83 794.92 1667.03Q796.20 1677.23 797.47 1683.60L797.47 1683.60Q653.40 1697.63 567.97 1706.55Q482.55 1715.48 439.20 1720.58Q395.85 1725.68 378.64 1729.50Q361.42 1733.33 352.50 1737.15ZM866.32 1507.65L866.32 1507.65Q865.05 1502.55 862.50 1494.26Q859.95 1485.97 857.40 1477.69Q854.85 1469.40 852.30 1464.30L852.30 1464.30Q880.35 1460.47 913.50 1420.95L913.50 1420.95Q927.52 1408.20 956.85 1373.78Q986.17 1339.35 1020.60 1293.45Q1055.02 1247.55 1081.80 1200.38L1081.80 1200.38L1121.32 1218.22Q1070.32 1296 1014.86 1363.58Q959.40 1431.15 903.30 1479.60L903.30 1479.60L903.30 1480.88Q903.30 1480.88 897.56 1483.43Q891.82 1485.97 884.81 1489.80Q877.80 1493.63 872.06 1498.09Q866.32 1502.55 866.32 1507.65ZM866.32 1507.65L866.32 1507.65L866.32 1473.22L896.92 1456.65L1182.52 1434.97Q1181.25 1443.90 1180.61 1454.10Q1179.97 1464.30 1181.25 1470.68L1181.25 1470.68Q1081.80 1479.60 1021.87 1485.34Q961.95 1491.08 930.71 1494.90Q899.47 1498.72 886.09 1501.91Q872.70 1505.10 866.32 1507.65ZM884.17 1734.60L884.17 1734.60Q882.90 1729.50 880.35 1721.21Q877.80 1712.93 875.25 1704.64Q872.70 1696.35 870.15 1691.25L870.15 1691.25Q888.00 1688.70 913.50 1670.85Q939.00 1653 969.60 1626.22L969.60 1626.22Q987.45 1612.20 1021.87 1580.96Q1056.30 1549.72 1100.29 1505.74Q1144.27 1461.75 1190.81 1410.75Q1237.35 1359.75 1278.15 1307.47L1278.15 1307.47L1317.67 1326.60Q1220.77 1438.80 1120.69 1537.61Q1020.60 1636.43 921.15 1707.83L921.15 1707.83L921.15 1709.10Q921.15 1709.10 915.41 1711.01Q909.67 1712.93 902.66 1716.75Q895.65 1720.58 889.91 1725.04Q884.17 1729.50 884.17 1734.60ZM884.17 1734.60L884.17 1734.60L884.17 1701.45L916.05 1683.60L1331.70 1645.35Q1331.70 1653 1332.34 1663.84Q1332.97 1674.68 1334.25 1681.05L1334.25 1681.05Q1187.63 1695.08 1101.56 1704Q1015.50 1712.93 971.51 1718.03Q927.52 1723.13 909.67 1726.95Q891.82 1730.78 884.17 1734.60ZM1626.22 1494.90L1626.22 1306.20L2656.43 1306.20L2656.43 1494.90L2618.18 1494.90L2618.18 1343.18L1664.47 1343.18L1664.47 1494.90L1626.22 1494.90ZM1795.80 1141.72L1795.80 1141.72L1830.22 1135.35Q1851.90 1179.97 1871.66 1232.89Q1891.43 1285.80 1899.08 1321.50L1899.08 1321.50L1863.38 1332.97Q1855.72 1296 1836.60 1241.81Q1817.47 1187.63 1795.80 1141.72ZM2087.78 1131.53L2087.78 1131.53L2120.93 1126.42Q2140.05 1173.60 2157.26 1227.79Q2174.47 1281.97 2183.40 1317.68L2183.40 1317.68L2148.97 1326.60Q2140.05 1289.63 2122.84 1234.16Q2105.63 1178.70 2087.78 1131.53ZM2562.07 1012.95L2562.07 1012.95L2582.48 1046.10Q2502.15 1061.40 2392.50 1073.51Q2282.85 1085.63 2158.54 1094.55Q2034.22 1103.47 1907.36 1109.21Q1780.50 1114.95 1664.47 1117.50L1664.47 1117.50Q1663.20 1109.85 1660.01 1099.65Q1656.83 1089.45 1654.28 1081.80L1654.28 1081.80Q1769.03 1079.25 1895.89 1073.51Q2022.75 1067.78 2147.06 1058.85Q2271.38 1049.92 2379.11 1038.45Q2486.85 1026.97 2562.07 1012.95ZM2458.80 1103.47L2458.80 1103.47L2495.78 1120.05Q2466.45 1173.60 2428.84 1232.25Q2391.23 1290.90 2358.07 1331.70L2358.07 1331.70L2327.48 1318.95Q2349.15 1290.90 2374.01 1252.65Q2398.88 1214.40 2421.19 1174.88Q2443.50 1135.35 2458.80 1103.47ZM1911.83 1740.98L1941.15 1723.13Q2007.45 1820.03 2119.65 1892.70Q2231.85 1965.38 2374.01 2012.55Q2516.18 2059.72 2669.18 2080.13L2669.18 2080.13Q2665.35 2085.22 2660.89 2091.60Q2656.43 2097.97 2652.60 2104.99Q2648.78 2112 2646.23 2118.38L2646.23 2118.38Q2494.50 2095.43 2351.70 2045.70Q2208.90 1995.98 2094.79 1919.48Q1980.68 1842.98 1911.83 1740.98L1911.83 1740.98ZM1914.38 1757.55L1914.38 1719.30L2477.93 1719.30L2477.93 1757.55L1914.38 1757.55ZM2462.63 1728.23L2462.63 1719.30L2471.55 1719.30L2480.48 1716.75L2500.88 1734.60Q2439.68 1842.98 2335.76 1917.56Q2231.85 1992.15 2104.35 2039.96Q1976.85 2087.78 1844.25 2115.83L1844.25 2115.83Q1842.97 2110.72 1839.79 2104.35Q1836.60 2097.97 1832.78 2090.96Q1828.95 2083.95 1826.40 2080.13L1826.40 2080.13Q1956.45 2055.90 2081.40 2011.28Q2206.35 1966.65 2306.44 1896.53Q2406.53 1826.40 2462.63 1728.23L2462.63 1728.23ZM1701.45 1576.50L1701.45 1538.25L2573.55 1538.25L2573.55 1576.50L1701.45 1576.50ZM2013.83 1396.72L2013.83 1396.72L2050.80 1403.10Q1998.53 1664.47 1888.24 1841.70Q1777.95 2018.93 1590.53 2129.85L1590.53 2129.85Q1589.25 2126.03 1584.79 2119.65Q1580.33 2113.28 1575.22 2106.26Q1570.13 2099.25 1566.30 2095.43L1566.30 2095.43Q1749.90 1994.70 1857 1820.66Q1964.10 1646.63 2013.83 1396.72Z"/>
  </svg>