<svg xmlns="http://www.w3.org/2000/svg" viewBox="0 0 3000 3000" width="3000" height="3000">
    <path fill="#000000" d="M2098 2307L2098 2307Q2098 2279 2062 2231L2062 2231Q2012 2173 1970 2120Q1928 2067 1898 2018Q1868 1969 1840 1969Q1812 1969 1812 2009L1812 2009Q1812 2035 1827 2081Q1842 2127 1863 2175Q1884 2223 1898 2251L1898 2251L1902 2261Q1900 2259 1880 2263L1880 2263Q1860 2265 1754 2265L1754 2265Q1570 2265 1456 2235Q1342 2205 1278 2134Q1214 2063 1178 1943L1178 1943Q1162 1895 1126 1895L1126 1895L1106 1897Q1086 1899 1064 1910Q1042 1921 1042 1951L1042 1951Q1042 1965 1055 2011Q1068 2057 1099 2117Q1130 2177 1181 2238Q1232 2299 1308 2337L1308 2337Q1392 2383 1518 2398Q1644 2413 1764 2413L1764 2413Q1844 2413 1918 2408Q1992 2403 2045 2381Q2098 2359 2098 2307ZM780 2321L780 2321Q828 2247 873 2163Q918 2079 948 2009Q978 1939 978 1915L978 1915Q978 1889 956 1875Q934 1861 915 1856Q896 1851 890 1851L890 1851Q860 1851 842 1897L842 1897Q810 1981 762 2068Q714 2155 654 2235L654 2235Q634 2263 634 2283L634 2283Q634 2309 666 2334Q698 2359 728 2359L728 2359Q756 2359 780 2321ZM2312 2253L2312 2253Q2328 2253 2348 2236Q2368 2219 2384 2198Q2400 2177 2400 2159Q2400 2141 2368 2104Q2336 2067 2289 2022Q2242 1977 2193 1934Q2144 1891 2103 1863Q2062 1835 2042 1835L2042 1835Q2012 1835 1991 1867Q1970 1899 1970 1911L1970 1911Q1970 1933 2002 1961L2002 1961Q2146 2081 2262 2221L2262 2221Q2290 2253 2312 2253ZM1674 2119L1674 2119Q1702 2091 1702 2069L1702 2069Q1702 2049 1675 2019Q1648 1989 1609 1954Q1570 1919 1529 1889Q1488 1859 1456 1839L1456 1839Q1444 1831 1432 1825L1432 1825Q1440 1821 1448 1817L1448 1817Q1490 1797 1490 1765L1490 1765Q1490 1757 1484 1741L1484 1741Q1490 1751 1496 1759L1496 1759Q1522 1797 1560 1797L1560 1797Q1564 1797 1634 1783Q1704 1769 1820 1743Q1936 1717 2066 1683L2066 1683Q2078 1701 2093 1726Q2108 1751 2121 1782Q2134 1813 2168 1813L2168 1813Q2184 1813 2218 1797Q2252 1781 2252 1747L2252 1747Q2252 1725 2225 1682Q2198 1639 2162 1591Q2126 1543 2095 1505Q2064 1467 2054 1455L2054 1455Q2036 1433 2008 1433L2008 1433Q1990 1433 1970 1447L1970 1447Q1946 1469 1946 1493L1946 1493Q1946 1511 1960 1531L1960 1531Q1974 1547 1986 1565Q1998 1583 2002 1585L2002 1585Q1856 1621 1748 1635L1748 1635Q1842 1551 1925 1460Q2008 1369 2051 1310Q2094 1251 2094 1239L2094 1239Q2094 1213 2067 1187Q2040 1161 2011 1143Q1982 1125 1970 1125L1970 1125Q1938 1125 1938 1161L1938 1161L1938 1179Q1938 1199 1929 1223Q1920 1247 1887 1291Q1854 1335 1794 1411L1794 1411Q1776 1395 1750 1374Q1724 1353 1708 1343L1708 1343Q1752 1291 1789 1240Q1826 1189 1864 1131L1864 1131Q1870 1119 1870 1115L1870 1115Q1870 1091 1845 1069Q1820 1047 1792 1031L1792 1031Q1786 1029 1782 1027L1782 1027L2180 1003Q2224 997 2224 961L2224 961Q2224 931 2202 911Q2180 891 2157 880Q2134 869 2122 869Q2110 869 2104 873L2104 873Q2080 881 2056 884Q2032 887 2010 889L2010 889L1704 909Q1764 865 1815 823Q1866 781 1889 759Q1912 737 1918 726Q1924 715 1924 709L1924 709Q1924 689 1902 662Q1880 635 1851 614Q1822 593 1800 593L1800 593Q1776 593 1766 619L1766 619Q1758 647 1752 668Q1746 689 1736 701L1736 701Q1686 753 1631 807Q1576 861 1508 919L1508 919L1356 929Q1360 925 1364 923L1364 923Q1394 899 1394 867L1394 867Q1394 847 1359 810Q1324 773 1279 734Q1234 695 1191 667Q1148 639 1128 639L1128 639Q1102 639 1083 664Q1064 689 1064 713L1064 713Q1064 735 1082 749L1082 749Q1142 797 1178 829Q1214 861 1264 915L1264 915Q1272 925 1282 933L1282 933L884 957Q876 957 866 958Q856 959 846 959L846 959Q830 959 811 957Q792 955 770 951L770 951L764 951Q742 951 742 966Q742 981 744 987L744 987Q758 1033 782 1054Q806 1075 829 1079Q852 1083 862 1083L862 1083Q874 1083 887 1082Q900 1081 914 1081L914 1081L1046 1073Q1046 1077 1046 1083L1046 1083L1046 1097Q1046 1123 1022 1177Q998 1231 944 1303L944 1303L894 1271Q868 1255 852 1255L852 1255Q830 1255 810 1281Q790 1307 790 1331L790 1331Q790 1351 822 1373L822 1373Q870 1403 922 1439Q974 1475 1030 1523L1030 1523Q1002 1555 960 1602Q918 1649 870 1695L870 1695Q860 1697 848 1698Q836 1699 820 1699L820 1699Q812 1699 805 1699Q798 1699 788 1697L788 1697L782 1697Q756 1697 756 1721L756 1721Q756 1727 758 1733L758 1733Q772 1769 807 1803Q842 1837 872 1837L872 1837Q884 1837 949 1823Q1014 1809 1116 1783Q1218 1757 1326 1723L1326 1723Q1342 1749 1356 1789L1356 1789Q1368 1819 1386 1827L1386 1827Q1376 1835 1366 1849L1366 1849Q1346 1879 1346 1895L1346 1895Q1346 1917 1368 1937L1368 1937Q1480 2027 1568 2125L1568 2125Q1594 2155 1618 2155Q1642 2155 1674 2119ZM1492 1659L1492 1659L1480 1659Q1456 1659 1456 1677L1456 1677Q1456 1683 1456 1683L1456 1683L1458 1685Q1458 1687 1460 1689L1460 1689Q1440 1653 1412 1611L1412 1611Q1380 1559 1342 1515L1342 1515Q1336 1503 1325 1494Q1314 1485 1300 1485L1300 1485Q1296 1485 1263 1499Q1230 1513 1230 1543L1230 1543Q1230 1549 1237 1561Q1244 1573 1274 1623L1274 1623Q1216 1637 1147 1651Q1078 1665 1054 1669L1054 1669Q1244 1493 1333 1386Q1422 1279 1422 1267L1422 1267Q1422 1243 1393 1219Q1364 1195 1335 1178Q1306 1161 1292 1161L1292 1161Q1262 1161 1262 1194Q1262 1227 1253 1251Q1244 1275 1210 1317Q1176 1359 1114 1433L1114 1433Q1098 1417 1073 1397Q1048 1377 1036 1369L1036 1369Q1068 1333 1112 1281Q1156 1229 1194 1165L1194 1165Q1200 1153 1200 1147L1200 1147Q1200 1131 1178 1108Q1156 1085 1128 1067L1128 1067Q1128 1067 1128 1067L1128 1067L1720 1031Q1716 1039 1716 1053L1716 1053Q1716 1085 1697 1134Q1678 1183 1614 1277L1614 1277L1574 1249Q1554 1235 1532 1235L1532 1235Q1502 1235 1483 1265Q1464 1295 1464 1311L1464 1311Q1464 1333 1500 1355L1500 1355Q1554 1385 1607 1424Q1660 1463 1712 1501L1712 1501Q1686 1531 1650 1574Q1614 1617 1572 1659L1572 1659Q1564 1661 1552 1661Q1540 1661 1528 1661L1528 1661Q1520 1661 1511 1661Q1502 1661 1492 1659Z"/>
  </svg>