<svg xmlns="http://www.w3.org/2000/svg" viewBox="0 0 3000 3000" width="3000" height="3000">
    <path fill="#000000" d="M1682 1980L1682 1980Q1698 1978 1706 1976L1706 1976Q1714 1976 1750 1992Q1786 2008 1790 2016L1790 2016Q1794 2022 1846 2048L1846 2048Q1936 2090 1980 2154L1980 2154Q2004 2192 2039 2239Q2074 2286 2080 2302L2080 2302Q2086 2318 2075 2342Q2064 2366 2050 2386L2050 2386Q2036 2396 2016 2428L2016 2428Q1988 2470 1950 2482Q1912 2494 1816 2494L1816 2494Q1736 2494 1616 2478Q1496 2462 1460 2444L1460 2444Q1388 2412 1313 2352Q1238 2292 1238 2266L1238 2266Q1238 2252 1226 2244L1226 2244Q1210 2230 1184 2148L1184 2148Q1174 2118 1184 2094Q1194 2070 1206 2070L1206 2070Q1226 2070 1318 2182L1318 2182Q1348 2218 1400 2246L1400 2246L1454 2270L1610 2270L1768 2270L1814 2248Q1858 2224 1862 2218L1862 2218Q1868 2208 1823 2147Q1778 2086 1742 2060L1742 2060Q1640 1992 1682 1980ZM940 2132L1014 2024Q1050 1976 1056 1976L1056 1976Q1064 1976 1075 1988Q1086 2000 1090 2010L1090 2010Q1096 2020 1081 2049Q1066 2078 1075 2078Q1084 2078 1092 2070Q1100 2062 1118 2058L1118 2058Q1130 2054 1133 2057Q1136 2060 1136 2076L1136 2076Q1136 2098 1113 2141Q1090 2184 1081 2227Q1072 2270 1066 2289Q1060 2308 1052 2338L1052 2338Q1048 2364 1026 2382Q1004 2400 976 2400L976 2400Q956 2400 940 2373Q924 2346 924 2311Q924 2276 912 2234L912 2234L902 2192L940 2132ZM1356 1864L1356 1864Q1370 1858 1409 1861Q1448 1864 1476 1872L1476 1872Q1534 1890 1616 1870L1616 1870Q1638 1864 1638 1874L1638 1874Q1638 1886 1610 1928Q1582 1970 1582 1976Q1582 1982 1559 2014Q1536 2046 1536 2054L1536 2054Q1536 2062 1511 2066Q1486 2070 1472 2062L1472 2062Q1456 2052 1419 2016Q1382 1980 1364 1954L1364 1954Q1350 1936 1348 1902Q1346 1868 1356 1864ZM1832 1830L1832 1830Q1852 1798 1944 1820L1944 1820Q1982 1828 2053 1864Q2124 1900 2132 1916L2132 1916Q2160 1958 2148 2003Q2136 2048 2090 2070L2090 2070Q2056 2084 2040 2081Q2024 2078 1994 2046L1994 2046Q1964 2014 1949 2001Q1934 1988 1908 1949Q1882 1910 1852 1878L1852 1878Q1828 1858 1826 1850Q1824 1842 1832 1830ZM1598 672L1598 672Q1598 648 1620 629Q1642 610 1653 614Q1664 618 1680 618Q1696 618 1736 659Q1776 700 1797 718Q1818 736 1818 748L1818 748Q1818 768 1797 792Q1776 816 1752 824L1752 824Q1722 838 1667 893Q1612 948 1605 948Q1598 948 1598 956Q1598 964 1626 960L1626 960Q1716 944 1920 936L1920 936Q1992 932 2014 941Q2036 950 2054 986L2054 986Q2070 1026 2068 1044Q2066 1062 2042 1086L2042 1086Q2002 1126 1948 1102L1948 1102Q1928 1096 1842 1085Q1756 1074 1712 1072L1712 1072L1674 1072L1696 1094Q1718 1120 1715 1141Q1712 1162 1682 1192L1682 1192Q1652 1224 1613 1276Q1574 1328 1574 1338L1574 1338Q1574 1348 1605 1343Q1636 1338 1652 1348L1652 1348Q1672 1356 1687 1335Q1702 1314 1750 1220L1750 1220Q1774 1170 1782 1161Q1790 1152 1810 1152L1810 1152Q1832 1152 1856 1163Q1880 1174 1884 1188L1884 1188Q1892 1206 1886 1222Q1880 1238 1854 1266L1854 1266Q1818 1304 1778 1365Q1738 1426 1731 1426Q1724 1426 1720 1440L1720 1440Q1716 1456 1693 1498Q1670 1540 1652 1560L1652 1560Q1606 1624 1616 1636L1616 1636Q1624 1644 1662 1640L1662 1640Q1690 1640 1738 1619Q1786 1598 1786 1588L1786 1588Q1786 1578 1777 1558Q1768 1538 1760 1538L1760 1538Q1752 1538 1747 1515Q1742 1492 1748 1476Q1754 1460 1762 1458Q1770 1456 1808 1460L1808 1460Q1856 1466 1875 1474Q1894 1482 1936 1520L1936 1520Q1990 1566 1999 1594Q2008 1622 1990 1672L1990 1672Q1984 1690 1954 1707Q1924 1724 1904 1724L1904 1724Q1890 1724 1856 1690L1856 1690L1824 1656L1766 1716Q1718 1762 1690 1777Q1662 1792 1584 1810L1584 1810Q1534 1824 1515 1804Q1496 1784 1494 1710L1494 1710L1494 1640L1526 1602Q1558 1564 1563 1552Q1568 1540 1586 1506L1586 1506Q1606 1474 1605 1466Q1604 1458 1582 1458L1582 1458Q1560 1458 1560 1465Q1560 1472 1524 1485Q1488 1498 1468 1498L1468 1498Q1454 1502 1449 1497Q1444 1492 1440 1474L1440 1474Q1438 1446 1440 1402L1440 1402Q1444 1372 1451 1357Q1458 1342 1488 1312L1488 1312Q1534 1260 1584 1173Q1634 1086 1620 1078L1620 1078Q1610 1070 1504 1079Q1398 1088 1280 1104L1280 1104Q1158 1122 1218 1132L1218 1132Q1222 1134 1224 1134L1224 1134Q1242 1136 1257 1151Q1272 1166 1261 1190Q1250 1214 1237 1224Q1224 1234 1182 1298L1182 1298L1110 1400Q1080 1440 1084 1444Q1088 1448 1136 1429Q1184 1410 1206 1414L1206 1414Q1224 1418 1233 1410Q1242 1402 1268 1352L1268 1352Q1294 1304 1336 1232L1336 1232Q1366 1184 1377 1172Q1388 1160 1402 1160L1402 1160Q1426 1160 1448 1192L1448 1192Q1466 1220 1462 1240Q1458 1260 1426 1284L1426 1284Q1396 1310 1344 1394Q1292 1478 1282 1490L1282 1490Q1262 1520 1308 1504L1308 1504Q1336 1492 1371 1509Q1406 1526 1436 1568L1436 1568Q1456 1598 1461 1612Q1466 1626 1466 1652L1466 1652Q1464 1718 1416 1718L1416 1718Q1398 1718 1377 1707Q1356 1696 1346 1682L1346 1682Q1338 1672 1322 1698L1322 1698Q1282 1750 1192 1806L1192 1806Q1140 1842 1121 1847Q1102 1852 1082 1838L1082 1838Q1070 1830 1068 1816Q1066 1802 1066 1754L1066 1754Q1066 1680 1077 1670Q1088 1660 1088 1649Q1088 1638 1096 1638L1096 1638Q1102 1638 1123 1602Q1144 1566 1142 1562L1142 1562Q1138 1560 1109 1579Q1080 1598 1074 1598Q1068 1598 1030 1634L1030 1634Q998 1664 982 1667Q966 1670 944 1654L944 1654Q930 1644 927 1632Q924 1620 924 1578L924 1578Q924 1466 970 1454L970 1454Q990 1450 1014 1416L1014 1416Q1112 1282 1112 1274L1112 1274Q1112 1270 1134 1236Q1156 1202 1169 1168Q1182 1134 1172 1130L1172 1130Q1156 1126 1102 1152Q1048 1178 1026 1202L1026 1202Q1002 1228 985 1229Q968 1230 946 1211Q924 1192 888 1188L888 1188Q826 1176 866 1142L866 1142Q898 1116 977 1093Q1056 1070 1128 1046Q1200 1022 1200 1016L1200 1016Q1200 1008 1186 994L1186 994Q1174 980 1139 928Q1104 876 1104 872L1104 872Q1104 868 1090 852L1090 852Q1080 840 1083 812Q1086 784 1102 780L1102 780Q1112 776 1171 791Q1230 806 1242 814L1242 814Q1262 836 1318 806L1318 806Q1344 792 1344 798L1344 798Q1344 800 1342 804L1342 804Q1336 818 1320 842L1320 842Q1308 856 1307 864Q1306 872 1314 888L1314 888Q1326 912 1326 954L1326 954Q1326 984 1329 989Q1332 994 1348 994L1348 994Q1370 994 1400 968L1400 968Q1440 936 1482 891Q1524 846 1534 822L1534 822Q1598 698 1598 672ZM1278 1540L1278 1540Q1278 1520 1264 1530L1264 1530Q1260 1538 1256 1546L1256 1546Q1252 1562 1217 1609Q1182 1656 1182 1662L1182 1662Q1182 1668 1195 1669Q1208 1670 1228 1665Q1248 1660 1268 1650L1268 1650Q1302 1634 1306 1625Q1310 1616 1292 1582L1292 1582Q1278 1552 1278 1540Z"/>
  </svg>