<svg xmlns="http://www.w3.org/2000/svg" viewBox="0 0 3000 3000" width="3000" height="3000">
    <path fill="#000000" d="M1010.40 1975.58L1010.40 1975.58L1032.07 1950.08Q1104.75 1974.30 1176.79 2002.35Q1248.82 2030.40 1311.94 2058.45Q1375.05 2086.50 1422.22 2110.72L1422.22 2110.72L1395.45 2140.05Q1349.55 2114.55 1287.71 2086.50Q1225.88 2058.45 1155.11 2029.76Q1084.35 2001.08 1010.40 1975.58ZM300.22 1892.70L300.22 1855.73L1426.05 1855.73L1426.05 1892.70L300.22 1892.70ZM338.47 1163.40L338.47 1126.42L1391.63 1126.42L1391.63 1163.40L338.47 1163.40ZM681.45 1947.53L681.45 1947.53L723.52 1966.65Q672.52 2001.08 605.59 2034.23Q538.65 2067.38 467.89 2095.43Q397.12 2123.47 333.37 2143.88L333.37 2143.88Q330.82 2138.78 322.54 2129.21Q314.25 2119.65 307.87 2114.55L307.87 2114.55Q371.62 2094.15 442.39 2066.74Q513.15 2039.33 576.90 2008.73Q640.65 1978.13 681.45 1947.53ZM511.87 1457.93L511.87 1420.95L1209.30 1420.95L1209.30 1457.93L511.87 1457.93ZM511.87 1595.63L511.87 1558.65L1209.30 1558.65L1209.30 1595.63L511.87 1595.63ZM511.87 1735.88L511.87 1698.90L1209.30 1698.90L1209.30 1735.88L511.87 1735.88ZM496.57 1882.50L496.57 1267.95L1230.97 1267.95L1230.97 1882.50L1194 1882.50L1194 1306.20L533.55 1306.20L533.55 1882.50L496.57 1882.50ZM838.27 996.38L838.27 996.38L880.35 1004.03Q873.97 1049.92 866.96 1102.84Q859.95 1155.75 852.30 1205.47Q844.65 1255.20 837.00 1292.17L837.00 1292.17L802.57 1284.53Q810.22 1247.55 817.24 1195.91Q824.25 1144.28 829.99 1090.72Q835.72 1037.17 838.27 996.38ZM1877.40 2013.83L1877.40 1344.45L1915.65 1344.45L1915.65 2015.10Q1915.65 2058.45 1935.41 2072.47Q1955.18 2086.50 2017.65 2086.50L2017.65 2086.50Q2032.95 2086.50 2074.39 2086.50Q2115.82 2086.50 2166.19 2086.50Q2216.55 2086.50 2261.18 2086.50Q2305.80 2086.50 2326.20 2086.50L2326.20 2086.50Q2373.38 2086.50 2396.32 2063.55Q2419.28 2040.60 2428.20 1977.49Q2437.13 1914.38 2442.23 1794.53L2442.23 1794.53Q2448.60 1798.35 2454.98 1802.81Q2461.35 1807.28 2468.36 1809.83Q2475.38 1812.38 2480.48 1814.93L2480.48 1814.93Q2475.38 1936.05 2463.26 2003.63Q2451.15 2071.20 2419.91 2097.97Q2388.68 2124.75 2323.65 2124.75L2323.65 2124.75Q2314.73 2124.75 2284.13 2124.75Q2253.53 2124.75 2212.09 2124.75Q2170.65 2124.75 2129.85 2124.75Q2089.05 2124.75 2059.09 2124.75Q2029.13 2124.75 2021.47 2124.75L2021.47 2124.75Q1966.65 2124.75 1935.41 2115.83Q1904.18 2106.90 1890.79 2082.68Q1877.40 2058.45 1877.40 2013.83L1877.40 2013.83ZM1700.17 1459.20L1700.17 1459.20L1734.60 1468.13Q1724.40 1535.70 1704.64 1621.76Q1684.88 1707.83 1659.38 1793.25Q1633.88 1878.68 1603.28 1943.70L1603.28 1943.70L1567.58 1925.85Q1599.45 1862.10 1625.59 1778.59Q1651.72 1695.08 1670.85 1610.29Q1689.97 1525.50 1700.17 1459.20ZM2502.15 1445.18L2502.15 1445.18L2536.57 1434.97Q2574.82 1511.47 2610.53 1598.81Q2646.23 1686.15 2674.28 1769.66Q2702.32 1853.18 2716.35 1919.48L2716.35 1919.48L2680.65 1930.95Q2666.63 1864.65 2638.57 1780.50Q2610.53 1696.35 2575.46 1608.38Q2540.40 1520.40 2502.15 1445.18ZM1953.90 1088.17L1953.90 1088.17L1979.40 1067.78Q2040.60 1112.40 2104.99 1165.95Q2169.38 1219.50 2225.47 1272.41Q2281.57 1325.33 2316 1366.13L2316 1366.13L2291.78 1390.35Q2256.07 1349.55 2199.97 1296.64Q2143.88 1243.72 2079.49 1188.26Q2015.10 1132.80 1953.90 1088.17Z"/>
  </svg>