<svg xmlns="http://www.w3.org/2000/svg" viewBox="0 0 3000 3000" width="3000" height="3000">
    <path fill="#000000" d="M884.17 1924.58L884.17 1924.58Q893.10 1918.20 917.96 1920.11Q942.82 1922.03 967.05 1929.67L967.05 1929.67Q998.92 1941.15 1013.59 1939.88Q1028.25 1938.60 1037.17 1946.89Q1046.10 1955.17 1069.69 1967.92Q1093.27 1980.67 1113.67 2002.35L1113.67 2002.35Q1127.70 2020.20 1130.25 2027.21Q1132.80 2034.22 1131.52 2054.63L1131.52 2054.63Q1127.70 2106.90 1098.38 2114.55L1098.38 2114.55Q1085.63 2118.38 1061.40 2106.26Q1037.17 2094.15 1015.50 2071.20L1015.50 2071.20Q990.00 2048.25 953.02 2015.10L953.02 2015.10Q928.80 1993.42 912.22 1978.76Q895.65 1964.10 887.36 1952.63Q879.07 1941.15 879.07 1934.78Q879.07 1928.40 884.17 1924.58ZM839.55 954.30L839.55 954.30Q842.10 947.92 855.49 958.76Q868.87 969.60 875.25 969.60Q881.62 969.60 886.09 981.07Q890.55 992.55 896.92 1000.20L896.92 1000.20Q919.87 1025.70 924.34 1035.90Q928.80 1046.10 926.25 1067.77L926.25 1067.77L922.42 1095.82L981.07 1093.27Q1020.60 1089.45 1032.07 1087.54Q1043.55 1085.63 1047.38 1076.70L1047.38 1076.70Q1056.30 1067.77 1072.24 1070.32Q1088.17 1072.88 1125.15 1076.70L1125.15 1076.70Q1163.40 1083.07 1177.42 1088.17Q1191.45 1093.27 1202.92 1108.57L1202.92 1108.57Q1228.42 1141.72 1210.57 1173.60L1210.57 1173.60Q1197.82 1195.27 1180.61 1197.19Q1163.40 1199.10 1118.77 1185.07L1118.77 1185.07Q1014.22 1151.92 953.02 1151.92L953.02 1151.92L918.60 1151.92L884.17 1186.35Q851.02 1223.32 842.10 1226.51Q833.17 1229.70 830.62 1236.07L830.62 1236.07Q828.07 1238.63 839.55 1239.90L839.55 1239.90Q854.85 1241.17 903.30 1241.17L903.30 1241.17Q954.30 1241.17 970.24 1243.09Q986.17 1245 1002.75 1253.92L1002.75 1253.92Q1024.42 1265.40 1034.63 1265.40Q1044.82 1265.40 1062.04 1278.15Q1079.25 1290.90 1086.90 1301.10L1086.90 1301.10Q1102.20 1326.60 1079.25 1380.15L1079.25 1380.15Q1074.15 1392.90 1072.88 1440.07Q1071.60 1487.25 1067.77 1548.45Q1063.95 1609.65 1062.67 1675.95L1062.67 1675.95L1060.13 1742.25L1116.22 1746.08Q1171.05 1748.63 1266.67 1749.90L1266.67 1749.90L1361.02 1753.72L1377.60 1769.03Q1392.90 1784.33 1392.90 1791.97Q1392.90 1799.63 1397.36 1802.81Q1401.82 1806 1401.82 1832.78L1401.82 1832.78Q1401.82 1869.75 1383.34 1876.13Q1364.85 1882.50 1311.30 1862.10L1311.30 1862.10Q1273.05 1848.08 1204.84 1837.88Q1136.63 1827.67 1083.07 1827.67L1083.07 1827.67L1046.10 1826.40L1030.80 1850.63Q1019.32 1864.65 1011.67 1869.11Q1004.02 1873.58 984.90 1878.67L984.90 1878.67Q956.85 1883.78 946.65 1879.95Q936.45 1876.13 931.35 1857L931.35 1857Q922.42 1831.50 910.31 1827.04Q898.20 1822.58 856.12 1826.40L856.12 1826.40Q848.47 1826.40 828.07 1867.20L828.07 1867.20Q810.22 1900.35 799.39 1915.65Q788.55 1930.95 760.50 1959L760.50 1959Q720.97 1998.53 688.46 2020.84Q655.95 2043.15 599.85 2069.93L599.85 2069.93Q527.17 2105.63 499.12 2109.45L499.12 2109.45L474.90 2112L532.27 2055.90Q601.12 1990.88 667.42 1908L667.42 1908Q712.05 1851.90 705.67 1844.25L705.67 1844.25Q696.75 1836.60 613.87 1854.45Q531.00 1872.30 490.20 1890.15L490.20 1890.15Q473.62 1899.08 470.44 1899.08Q467.25 1899.08 449.40 1917.56Q431.55 1936.05 418.80 1936.05L418.80 1936.05Q404.77 1936.05 374.17 1918.84Q343.57 1901.63 341.02 1893.97L341.02 1893.97Q335.92 1881.22 329.55 1872.30L329.55 1872.30Q318.07 1859.55 325.09 1848.08Q332.10 1836.60 356.32 1826.40L356.32 1826.40Q400.95 1809.83 474.26 1795.16Q547.57 1780.50 585.82 1780.50L585.82 1780.50L610.05 1780.50L607.50 1744.80Q603.67 1721.85 606.22 1711.01Q608.77 1700.17 620.25 1675.95L620.25 1675.95L636.82 1642.80L636.82 1493.63Q636.82 1347 641.92 1338.07L641.92 1338.07Q645.75 1329.15 668.70 1310.66Q691.65 1292.17 706.95 1283.25L706.95 1283.25Q720.97 1273.05 736.27 1242.45L736.27 1242.45Q768.15 1174.88 768.15 1167.22L768.15 1167.22Q766.87 1164.67 754.76 1164.67Q742.65 1164.67 727.35 1167.22Q712.05 1169.77 709.50 1172.32L709.50 1172.32Q704.40 1177.42 697.39 1177.42Q690.37 1177.42 657.22 1194L657.22 1194L624.07 1209.30L602.40 1197.82Q582.00 1187.63 582.00 1172.96Q582.00 1158.30 596.02 1153.20L596.02 1153.20Q659.77 1125.15 727.35 1116.22L727.35 1116.22Q786.00 1109.85 792.37 1103.47L792.37 1103.47Q797.47 1098.38 807.04 1070.32Q816.60 1042.27 816.60 1032.07L816.60 1032.07Q816.60 1025.70 826.16 992.55Q835.72 959.40 839.55 954.30ZM933.90 1318.95L933.90 1318.95Q926.25 1312.57 899.47 1310.66Q872.70 1308.75 852.30 1312.57L852.30 1312.57Q778.35 1327.88 745.84 1343.81Q713.32 1359.75 706.95 1383.97L706.95 1383.97Q698.02 1415.85 705.67 1415.85L705.67 1415.85Q706.95 1415.85 709.50 1413.30L709.50 1413.30Q719.70 1409.47 768.15 1394.17L768.15 1394.17Q842.10 1369.95 869.51 1368.04Q896.92 1366.13 910.95 1382.70L910.95 1382.70Q924.97 1396.72 930.07 1391.63L930.07 1391.63Q935.17 1385.25 936.45 1354.01Q937.72 1322.78 933.90 1318.95ZM930.07 1493.63L930.07 1461.75L930.07 1429.88L895.65 1429.88Q872.70 1427.32 827.44 1435.61Q782.17 1443.90 763.05 1451.55L763.05 1451.55Q747.75 1457.92 724.80 1457.92L724.80 1457.92L700.57 1457.92L701.85 1480.88Q701.85 1507.65 708.22 1510.84Q714.60 1514.03 743.92 1501.28L743.92 1501.28Q777.07 1483.42 805.12 1475.77L805.12 1475.77Q830.62 1468.13 861.86 1467.49Q893.10 1466.85 897.56 1473.86Q902.02 1480.88 916.05 1487.25L916.05 1487.25L930.07 1493.63ZM935.17 1563.75L935.17 1563.75L935.17 1530.60L912.22 1531.88L853.57 1534.42Q819.15 1535.70 802.57 1543.35L802.57 1543.35Q782.17 1552.28 759.22 1554.19Q736.27 1556.10 722.25 1548.45L722.25 1548.45Q706.95 1539.53 701.21 1543.99Q695.47 1548.45 698.02 1566.30L698.02 1566.30Q701.85 1585.42 701.85 1608.38L701.85 1608.38L700.57 1633.88L738.82 1616.03Q796.20 1587.97 844.01 1580.32Q891.82 1572.67 909.67 1587.97L909.67 1587.97Q926.25 1600.72 930.71 1596.26Q935.17 1591.80 935.17 1563.75ZM935.17 1746.08L935.17 1696.35L935.17 1644.08L919.87 1645.35Q884.17 1646.63 833.81 1655.55Q783.45 1664.47 777.07 1670.85L777.07 1670.85Q770.70 1674.67 746.47 1678.50Q722.25 1682.33 713.96 1673.40Q705.67 1664.47 702.49 1667.66Q699.30 1670.85 694.20 1718.03L694.20 1718.03L687.82 1763.92L719.70 1761.38Q750.30 1757.55 756.67 1751.81Q763.05 1746.08 765.60 1725.67L765.60 1725.67Q768.15 1687.42 784.72 1678.50L784.72 1678.50Q788.55 1677.22 791.10 1679.78L791.10 1679.78Q796.20 1686.15 808.95 1686.15L808.95 1686.15Q819.15 1686.15 829.99 1694.44Q840.82 1702.72 840.82 1711.65L840.82 1711.65Q840.82 1716.75 845.92 1716.75Q851.02 1716.75 853.57 1734.60L853.57 1734.60Q856.12 1748.63 859.95 1751.17Q863.77 1753.72 880.35 1753.72L880.35 1753.72Q903.30 1753.72 918.60 1749.90L918.60 1749.90L935.17 1746.08ZM2347.88 1547.17L2347.88 1547.17Q2335.13 1528.05 2335.13 1516.57Q2335.13 1505.10 2340.23 1505.10L2340.23 1505.10Q2347.88 1505.10 2375.29 1530.60Q2402.70 1556.10 2414.18 1573.95L2414.18 1573.95Q2430.75 1599.45 2440.95 1611.56Q2451.15 1623.67 2451.15 1629.41Q2451.15 1635.15 2456.89 1640.89Q2462.63 1646.63 2475.38 1667.03L2475.38 1667.03Q2497.05 1702.72 2530.20 1721.85L2530.20 1721.85Q2559.53 1737.15 2523.83 1789.42L2523.83 1789.42Q2504.70 1817.47 2502.15 1831.50L2502.15 1831.50Q2495.78 1853.17 2471.55 1867.84Q2447.32 1882.50 2396.32 1892.70L2396.32 1892.70Q2296.88 1911.83 2190.41 1895.25Q2083.95 1878.67 2016.38 1835.33L2016.38 1835.33Q1967.93 1802.17 1926.49 1746.71Q1885.05 1691.25 1872.30 1640.25L1872.30 1640.25Q1865.92 1610.92 1866.56 1577.14Q1867.20 1543.35 1876.13 1543.35L1876.13 1543.35Q1879.95 1543.35 1900.35 1577.78L1900.35 1577.78Q1933.50 1633.88 1981.31 1673.40Q2029.13 1712.92 2077.57 1724.40L2077.57 1724.40Q2109.45 1733.33 2183.40 1735.88Q2257.35 1738.42 2299.43 1732.05L2299.43 1732.05Q2333.85 1726.95 2363.81 1718.66Q2393.78 1710.38 2397.60 1701.45L2397.60 1701.45Q2401.43 1697.63 2398.88 1675.95Q2396.32 1654.28 2389.31 1641.53Q2382.30 1628.78 2382.30 1621.13L2382.30 1621.13Q2382.30 1612.20 2370.82 1587.97Q2359.35 1563.75 2347.88 1547.17ZM1732.05 1460.47L1732.05 1460.47Q1734.60 1452.82 1738.42 1452.82Q1742.25 1452.82 1756.28 1460.47L1756.28 1460.47Q1769.03 1469.40 1770.30 1485.97Q1771.58 1502.55 1776.67 1503.82Q1781.78 1505.10 1797.71 1490.44Q1813.65 1475.77 1816.20 1478.32L1816.20 1478.32Q1817.47 1482.15 1811.10 1503.19Q1804.72 1524.22 1799.63 1530.60L1799.63 1530.60Q1793.25 1540.80 1793.25 1551Q1793.25 1561.20 1781.14 1582.24Q1769.03 1603.28 1769.03 1619.21Q1769.03 1635.15 1763.92 1637.70Q1758.83 1640.25 1758.83 1656.19Q1758.83 1672.13 1752.45 1681.69Q1746.08 1691.25 1746.08 1704L1746.08 1704Q1746.08 1714.20 1731.41 1730.14Q1716.75 1746.08 1704 1749.90L1704 1749.90Q1691.25 1753.72 1679.14 1749.26Q1667.03 1744.80 1664.47 1738.42L1664.47 1738.42Q1661.92 1729.50 1653 1720.58L1653 1720.58Q1644.08 1711.65 1644.08 1656.19Q1644.08 1600.72 1653 1581.60L1653 1581.60Q1663.20 1565.03 1663.20 1559.92L1663.20 1559.92Q1663.20 1557.38 1680.41 1532.51Q1697.63 1507.65 1705.28 1501.28L1705.28 1501.28Q1709.10 1497.45 1719.30 1482.15Q1729.50 1466.85 1732.05 1460.47ZM2403.98 1340.63L2403.98 1340.63Q2409.07 1334.25 2460.07 1345.72L2460.07 1345.72Q2483.03 1350.82 2542.95 1375.05Q2602.88 1399.28 2615.63 1408.20L2615.63 1408.20Q2658.98 1438.80 2680.65 1471.95L2680.65 1471.95Q2692.13 1491.07 2692.13 1531.88L2692.13 1531.88Q2692.13 1561.20 2690.21 1571.40Q2688.30 1581.60 2679.38 1593.07L2679.38 1593.07Q2669.18 1610.92 2658.34 1614.75Q2647.50 1618.58 2628.38 1616.03L2628.38 1616.03Q2611.80 1613.47 2599.69 1603.28Q2587.57 1593.07 2564.63 1561.20L2564.63 1561.20Q2531.48 1516.57 2507.25 1466.85L2507.25 1466.85Q2491.95 1438.80 2474.74 1417.13Q2457.53 1395.45 2418 1358.47L2418 1358.47Q2401.43 1345.72 2403.98 1340.63ZM1979.40 1242.45L1979.40 1242.45Q1984.50 1236.07 2018.93 1245Q2053.35 1253.92 2072.47 1266.67L2072.47 1266.67Q2086.50 1278.15 2108.81 1283.89Q2131.13 1289.63 2156.63 1281.34Q2182.13 1273.05 2201.25 1260.30L2201.25 1260.30Q2219.10 1247.55 2221.65 1250.10L2221.65 1250.10Q2221.65 1253.92 2212.72 1265.40L2212.72 1265.40Q2194.88 1288.35 2192.32 1312.57L2192.32 1312.57Q2191.05 1325.32 2171.93 1362.30L2171.93 1362.30Q2141.32 1417.13 2097.97 1417.13L2097.97 1417.13Q2073.75 1417.13 2047.61 1396.09Q2021.47 1375.05 2010 1348.28L2010 1348.28Q1974.30 1253.92 1979.40 1242.45Z"/>
  </svg>