<svg xmlns="http://www.w3.org/2000/svg" viewBox="0 0 3000 3000" width="3000" height="3000">
    <path fill="#000000" d="M457.84 1890.97Q408.03 1890.97 385.00 1865.44Q361.96 1839.92 365.70 1786.38L365.70 1786.38L365.70 1380.47Q365.70 1319.46 416.75 1319.46L416.75 1319.46Q441.65 1319.46 454.10 1334.40Q466.55 1349.34 466.55 1380.47L466.55 1380.47L466.55 1758.98Q466.55 1802.56 507.64 1805.05L507.64 1805.05L1363.04 1805.05Q1402.88 1805.05 1402.88 1847.39L1402.88 1847.39Q1402.88 1890.97 1363.04 1890.97L1363.04 1890.97L457.84 1890.97ZM347.02 2069.02Q323.36 2071.51 309.67 2058.44Q295.97 2045.36 295.97 2019.21L295.97 2019.21Q295.97 2001.78 309.05 1990.58Q322.12 1979.37 345.78 1976.88L345.78 1976.88Q445.39 1965.67 528.19 1947.00Q610.99 1928.32 653.32 1912.13L653.32 1912.13L686.94 1900.93Q690.67 1899.68 698.14 1899.68L698.14 1899.68Q714.33 1899.68 726.78 1914.62Q739.23 1929.57 737.99 1949.49L737.99 1949.49Q736.74 1978.13 657.68 2008.01Q578.61 2037.89 431.69 2057.81L431.69 2057.81L347.02 2069.02ZM1356.81 2064.04Q1307.01 2064.04 1137.67 2025.44L1137.67 2025.44Q996.97 1994.31 973.32 1974.39L973.32 1974.39Q959.62 1963.18 959.62 1944.51L959.62 1944.51Q959.62 1923.34 974.56 1911.51Q989.50 1899.68 1008.18 1903.42L1008.18 1903.42L1025.61 1907.15Q1156.35 1944.51 1363.04 1969.41L1363.04 1969.41Q1405.37 1974.39 1405.37 2009.25L1405.37 2009.25Q1405.37 2064.04 1356.81 2064.04L1356.81 2064.04ZM1150.12 1688.01Q1181.25 1688.01 1181.25 1649.41L1181.25 1649.41L1181.25 1618.29L653.32 1618.29L653.32 1649.41Q653.32 1684.28 684.45 1688.01L684.45 1688.01L1150.12 1688.01ZM652.08 1761.47Q601.03 1761.47 577.99 1734.70Q554.96 1707.93 557.45 1649.41L557.45 1649.41L557.45 1392.92Q557.45 1333.15 579.86 1305.76Q602.27 1278.37 652.08 1282.10L652.08 1282.10L1182.50 1282.10Q1234.79 1282.10 1257.82 1308.87Q1280.86 1335.64 1278.37 1392.92L1278.37 1392.92L1278.37 1649.41Q1278.37 1710.42 1255.96 1737.19Q1233.54 1763.96 1182.50 1761.47L1182.50 1761.47L652.08 1761.47ZM653.32 1551.05L1181.25 1551.05L1181.25 1485.06L653.32 1485.06L653.32 1551.05ZM653.32 1416.58L1181.25 1416.58L1181.25 1392.92Q1181.25 1358.06 1150.12 1356.81L1150.12 1356.81L684.45 1356.81Q653.32 1356.81 653.32 1392.92L653.32 1392.92L653.32 1416.58ZM752.93 1231.05Q622.19 1231.05 528.81 1218.60L528.81 1218.60Q444.14 1207.40 444.14 1122.73L444.14 1122.73L444.14 984.52Q444.14 927.25 493.95 927.25L493.95 927.25Q518.85 927.25 531.92 942.19Q545.00 957.13 543.75 984.52L543.75 984.52Q542.50 1011.91 542.50 1056.74L542.50 1056.74Q542.50 1105.30 543.75 1116.50L543.75 1116.50Q545.00 1127.71 549.98 1133.94Q554.96 1140.16 569.90 1142.65L569.90 1142.65Q628.42 1151.37 787.79 1151.37L787.79 1151.37L840.09 1151.37Q903.59 1151.37 935.96 1150.12L935.96 1150.12Q1033.08 1150.12 1080.40 1148.88L1080.40 1148.88Q1132.69 1147.63 1159.46 1141.41Q1186.23 1135.18 1195.57 1124.60Q1204.91 1114.01 1204.91 1096.58L1204.91 1096.58Q1204.91 1072.92 1218.60 1060.47Q1232.30 1048.02 1253.47 1048.02L1253.47 1048.02Q1277.12 1048.02 1290.82 1062.34Q1304.52 1076.66 1304.52 1099.07L1304.52 1099.07Q1304.52 1183.74 1252.22 1206.15L1252.22 1206.15Q1204.91 1226.07 1031.84 1228.56L1031.84 1228.56Q847.56 1231.05 752.93 1231.05L752.93 1231.05ZM513.87 1019.38Q949.66 995.73 1142.65 948.41L1142.65 948.41Q1155.10 945.92 1158.84 945.92L1158.84 945.92Q1177.51 945.92 1188.10 959.62Q1198.68 973.32 1198.68 991.99L1198.68 991.99Q1198.68 1028.10 1158.84 1035.57L1158.84 1035.57Q974.56 1067.94 720.56 1081.64L720.56 1081.64L517.60 1092.85L513.87 1019.38ZM2158.67 2035.40Q2037.89 2035.40 1979.99 2027.31Q1922.09 2019.21 1896.57 1992.44Q1871.04 1965.67 1871.04 1908.40L1871.04 1908.40L1871.04 1246.00Q1871.04 1211.13 1884.74 1194.95Q1898.44 1178.76 1927.08 1178.76L1927.08 1178.76Q1983.11 1178.76 1983.11 1246.00L1983.11 1246.00L1983.11 1858.59Q1983.11 1895.95 1998.67 1911.51Q2014.23 1927.08 2049.10 1931.43Q2083.96 1935.79 2167.38 1935.79L2167.38 1935.79Q2311.82 1935.79 2336.72 1922.09L2336.72 1922.09Q2354.15 1912.13 2362.87 1881.63Q2371.58 1851.12 2372.83 1791.36L2372.83 1791.36Q2372.83 1765.21 2386.52 1750.27Q2400.22 1735.33 2426.37 1735.33L2426.37 1735.33Q2455.00 1735.33 2467.46 1750.27Q2479.91 1765.21 2481.15 1793.85L2481.15 1793.85Q2482.40 1894.70 2460.61 1948.86Q2438.82 2003.03 2391.50 2017.97L2391.50 2017.97Q2335.47 2035.40 2158.67 2035.40L2158.67 2035.40ZM1640.70 1852.37Q1615.80 1852.37 1599.61 1841.78Q1583.42 1831.20 1580.93 1815.01L1580.93 1815.01Q1578.44 1791.36 1590.89 1755.25L1590.89 1755.25Q1622.02 1671.83 1636.96 1589.65Q1651.90 1507.47 1661.87 1396.66L1661.87 1396.66Q1664.36 1371.75 1677.43 1358.68Q1690.50 1345.61 1714.16 1345.61L1714.16 1345.61Q1741.55 1345.61 1755.87 1360.55Q1770.19 1375.49 1768.95 1401.64L1768.95 1401.64Q1765.21 1500 1748.40 1605.21Q1731.59 1710.42 1704.20 1791.36L1704.20 1791.36Q1694.24 1820.00 1677.43 1836.18Q1660.62 1852.37 1640.70 1852.37L1640.70 1852.37ZM2639.28 1792.60Q2618.12 1792.60 2601.93 1778.91L2601.93 1778.91Q2588.23 1766.46 2553.37 1663.11L2553.37 1663.11Q2522.24 1572.22 2467.46 1470.12L2467.46 1470.12Q2418.90 1380.47 2418.90 1360.55L2418.90 1360.55Q2418.90 1313.23 2474.93 1313.23L2474.93 1313.23Q2513.53 1313.23 2608.15 1492.53L2608.15 1492.53Q2701.54 1668.09 2701.54 1740.31L2701.54 1740.31Q2701.54 1760.23 2682.86 1776.42L2682.86 1776.42Q2662.94 1792.60 2639.28 1792.60L2639.28 1792.60ZM2291.89 1181.25Q2254.54 1184.99 2218.43 1160.08L2218.43 1160.08Q2156.18 1116.50 2047.85 1044.29L2047.85 1044.29Q2030.42 1033.08 2024.19 1020.63Q2017.97 1008.18 2019.21 990.75L2019.21 990.75Q2021.70 973.32 2036.65 959.00Q2051.59 944.68 2072.75 944.68L2072.75 944.68Q2085.21 944.68 2096.41 949.66L2096.41 949.66Q2139.99 967.09 2195.40 999.46Q2250.81 1031.84 2299.37 1066.70L2299.37 1066.70Q2320.53 1080.40 2328.63 1093.47Q2336.72 1106.54 2336.72 1125.22L2336.72 1125.22Q2336.72 1148.88 2323.65 1163.82Q2310.57 1178.76 2291.89 1181.25L2291.89 1181.25Z"/>
  </svg>