<svg xmlns="http://www.w3.org/2000/svg" viewBox="0 0 3000 3000" width="3000" height="3000">
    <path fill="#000000" d="M1533.20 2339.84Q1343.75 2339.84 1252.93 2327.15Q1162.11 2314.45 1122.07 2272.46Q1082.03 2230.47 1082.03 2140.63L1082.03 2140.63L1082.03 1101.56Q1082.03 1046.88 1103.52 1021.48Q1125 996.09 1169.92 996.09L1169.92 996.09Q1257.81 996.09 1257.81 1101.56L1257.81 1101.56L1257.81 2062.50Q1257.81 2121.09 1282.23 2145.51Q1306.64 2169.92 1361.33 2176.76Q1416.02 2183.59 1546.88 2183.59L1546.88 2183.59Q1773.44 2183.59 1812.50 2162.11L1812.50 2162.11Q1839.84 2146.48 1853.52 2098.63Q1867.19 2050.78 1869.14 1957.03L1869.14 1957.03Q1869.14 1916.02 1890.63 1892.58Q1912.11 1869.14 1953.13 1869.14L1953.13 1869.14Q1998.05 1869.14 2017.58 1892.58Q2037.11 1916.02 2039.06 1960.94L2039.06 1960.94Q2041.02 2119.14 2006.84 2204.10Q1972.66 2289.06 1898.44 2312.50L1898.44 2312.50Q1810.55 2339.84 1533.20 2339.84L1533.20 2339.84ZM720.70 2052.73Q681.64 2052.73 656.25 2036.13Q630.86 2019.53 626.95 1994.14L626.95 1994.14Q623.05 1957.03 642.58 1900.39L642.58 1900.39Q691.41 1769.53 714.84 1640.63Q738.28 1511.72 753.91 1337.89L753.91 1337.89Q757.81 1298.83 778.32 1278.32Q798.83 1257.81 835.94 1257.81L835.94 1257.81Q878.91 1257.81 901.37 1281.25Q923.83 1304.69 921.88 1345.70L921.88 1345.70Q916.02 1500 889.65 1665.04Q863.28 1830.08 820.31 1957.03L820.31 1957.03Q804.69 2001.95 778.32 2027.34Q751.95 2052.73 720.70 2052.73L720.70 2052.73ZM2287.11 1958.98Q2253.91 1958.98 2228.52 1937.50L2228.52 1937.50Q2207.03 1917.97 2152.34 1755.86L2152.34 1755.86Q2103.52 1613.28 2017.58 1453.13L2017.58 1453.13Q1941.41 1312.50 1941.41 1281.25L1941.41 1281.25Q1941.41 1207.03 2029.30 1207.03L2029.30 1207.03Q2089.84 1207.03 2238.28 1488.28L2238.28 1488.28Q2384.77 1763.67 2384.77 1876.95L2384.77 1876.95Q2384.77 1908.20 2355.47 1933.59L2355.47 1933.59Q2324.22 1958.98 2287.11 1958.98L2287.11 1958.98ZM1742.19 1000Q1683.59 1005.86 1626.95 966.80L1626.95 966.80Q1529.30 898.44 1359.38 785.16L1359.38 785.16Q1332.03 767.58 1322.27 748.05Q1312.50 728.52 1314.45 701.17L1314.45 701.17Q1318.36 673.83 1341.80 651.37Q1365.23 628.91 1398.44 628.91L1398.44 628.91Q1417.97 628.91 1435.55 636.72L1435.55 636.72Q1503.91 664.06 1590.82 714.84Q1677.73 765.63 1753.91 820.31L1753.91 820.31Q1787.11 841.80 1799.80 862.30Q1812.50 882.81 1812.50 912.11L1812.50 912.11Q1812.50 949.22 1791.99 972.66Q1771.48 996.09 1742.19 1000L1742.19 1000Z"/>
  </svg>