<svg xmlns="http://www.w3.org/2000/svg" viewBox="0 0 3000 3000" width="3000" height="3000">
    <path fill="#000000" d="M1830 1574L1830 1574Q1810 1544 1810 1526Q1810 1508 1818 1508L1818 1508Q1830 1508 1873 1548Q1916 1588 1934 1616L1934 1616Q1960 1656 1976 1675Q1992 1694 1992 1703Q1992 1712 2001 1721Q2010 1730 2030 1762L2030 1762Q2064 1818 2116 1848L2116 1848Q2162 1872 2106 1954L2106 1954Q2076 1998 2072 2020L2072 2020Q2062 2054 2024 2077Q1986 2100 1906 2116L1906 2116Q1750 2146 1583 2120Q1416 2094 1310 2026L1310 2026Q1234 1974 1169 1887Q1104 1800 1084 1720L1084 1720Q1074 1674 1075 1621Q1076 1568 1090 1568L1090 1568Q1096 1568 1128 1622L1128 1622Q1180 1710 1255 1772Q1330 1834 1406 1852L1406 1852Q1456 1866 1572 1870Q1688 1874 1754 1864L1754 1864Q1808 1856 1855 1843Q1902 1830 1908 1816L1908 1816Q1914 1810 1910 1776Q1906 1742 1895 1722Q1884 1702 1884 1690L1884 1690Q1884 1676 1866 1638Q1848 1600 1830 1574ZM864 1438L864 1438Q868 1426 874 1426Q880 1426 902 1438L902 1438Q922 1452 924 1478Q926 1504 934 1506Q942 1508 967 1485Q992 1462 996 1466L996 1466Q998 1472 988 1505Q978 1538 970 1548L970 1548Q960 1564 960 1580Q960 1596 941 1629Q922 1662 922 1687Q922 1712 914 1716Q906 1720 906 1745Q906 1770 896 1785Q886 1800 886 1820L886 1820Q886 1836 863 1861Q840 1886 820 1892L820 1892Q800 1898 781 1891Q762 1884 758 1874L758 1874Q754 1860 740 1846L740 1846Q726 1832 726 1745Q726 1658 740 1628L740 1628Q756 1602 756 1594L756 1594Q756 1590 783 1551Q810 1512 822 1502L822 1502Q828 1496 844 1472Q860 1448 864 1438ZM1918 1250L1918 1250Q1926 1240 2006 1258L2006 1258Q2042 1266 2136 1304Q2230 1342 2250 1356L2250 1356Q2318 1404 2352 1456L2352 1456Q2370 1486 2370 1550L2370 1550Q2370 1596 2367 1612Q2364 1628 2350 1646L2350 1646Q2334 1674 2317 1680Q2300 1686 2270 1682L2270 1682Q2244 1678 2225 1662Q2206 1646 2170 1596L2170 1596Q2118 1526 2080 1448L2080 1448Q2056 1404 2029 1370Q2002 1336 1940 1278L1940 1278Q1914 1258 1918 1250ZM1252 1096L1252 1096Q1260 1086 1314 1100Q1368 1114 1398 1134L1398 1134Q1420 1152 1455 1161Q1490 1170 1530 1157Q1570 1144 1600 1124L1600 1124Q1628 1104 1632 1108L1632 1108Q1632 1114 1618 1132L1618 1132Q1590 1168 1586 1206L1586 1206Q1584 1226 1554 1284L1554 1284Q1506 1370 1438 1370L1438 1370Q1400 1370 1359 1337Q1318 1304 1300 1262L1300 1262Q1244 1114 1252 1096Z"/>
  </svg>