<svg xmlns="http://www.w3.org/2000/svg" viewBox="0 0 3000 3000" width="3000" height="3000">
    <path fill="#000000" d="M1578 1200L1578 1200Q1404 1022 1214 870L1214 870Q1196 856 1196 840L1196 840Q1196 816 1223 792Q1250 768 1269 768Q1288 768 1300 778L1300 778Q1502 930 1670 1090L1670 1090Q1692 1108 1692 1138Q1692 1168 1665 1194Q1638 1220 1618 1220Q1598 1220 1578 1200ZM1096 1246L1096 1236Q1096 1202 1109 1188Q1122 1174 1160 1172L1160 1172L1168 1172Q1202 1172 1217 1186Q1232 1200 1234 1240L1234 1240Q1238 1424 1268 1570L1268 1570Q1322 1844 1524 1962L1524 1962Q1700 2066 1910 2066L1910 2066Q1974 2066 1974 2050L1974 2050L1896 1860Q1810 1648 1810 1578L1810 1578Q1810 1548 1826 1548L1826 1548Q1854 1548 1900 1638L1900 1638Q1992 1818 2124 2014L2124 2014Q2164 2072 2164 2115Q2164 2158 2094 2189Q2024 2220 1928 2220L1928 2220Q1902 2220 1878 2216L1878 2216Q1496 2170 1316 1972L1316 1972Q1160 1804 1120 1516L1120 1516Q1100 1386 1096 1246L1096 1246ZM2402 1648L2402 1648Q2420 1672 2420 1693Q2420 1714 2389 1745Q2358 1776 2334 1776Q2310 1776 2288 1746L2288 1746Q2122 1502 1946 1304L1946 1304Q1932 1290 1932 1270Q1932 1250 1960 1226Q1988 1202 2009 1202Q2030 1202 2054 1226L2054 1226Q2234 1420 2402 1648ZM836 1248L836 1248Q920 1248 920 1300L920 1300Q920 1328 872 1509Q824 1690 732 1888L732 1888Q714 1926 686 1926L686 1926L664 1920Q594 1902 594 1856L594 1856Q594 1842 628 1770L628 1770Q724 1574 788 1290L788 1290Q796 1248 836 1248Z"/>
  </svg>