<svg xmlns="http://www.w3.org/2000/svg" viewBox="0 0 3000 3000" width="3000" height="3000">
    <path fill="#000000" d="M343.29 2069.02Q318.38 2071.51 305.93 2058.44Q293.48 2045.36 293.48 2020.46L293.48 2020.46Q293.48 1978.13 349.51 1971.90L349.51 1971.90Q568.65 1949.49 760.40 1889.72L760.40 1889.72Q672.00 1829.96 609.74 1745.29L609.74 1745.29Q431.69 1873.54 379.39 1873.54L379.39 1873.54Q330.83 1873.54 330.83 1829.96L330.83 1829.96Q330.83 1811.28 342.66 1798.21Q354.49 1785.13 379.39 1775.17L379.39 1775.17Q559.94 1704.20 678.22 1578.44L678.22 1578.44Q619.70 1570.97 619.70 1517.43L619.70 1517.43L619.70 1368.02Q619.70 1344.36 630.29 1333.78Q640.87 1323.19 664.53 1323.19L664.53 1323.19Q709.35 1323.19 709.35 1366.77L709.35 1366.77L709.35 1477.59Q709.35 1500 734.25 1503.74L734.25 1503.74Q767.87 1507.47 914.79 1507.47L914.79 1507.47Q998.22 1507.47 1020.63 1496.26L1020.63 1496.26Q1029.35 1492.53 1031.84 1460.16L1031.84 1460.16Q1033.08 1441.48 1044.91 1430.90Q1056.74 1420.31 1075.42 1420.31L1075.42 1420.31Q1121.48 1420.31 1121.48 1460.16L1121.48 1460.16Q1121.48 1522.41 1090.36 1553.54L1090.36 1553.54Q1060.47 1582.18 917.29 1582.18L917.29 1582.18L787.79 1582.18L731.76 1644.43L1147.63 1644.43Q1186.23 1644.43 1208.02 1660.62Q1229.81 1676.81 1229.81 1700.46L1229.81 1700.46Q1229.81 1732.84 1189.97 1763.96L1189.97 1763.96Q1152.61 1792.60 1089.73 1831.82Q1026.86 1871.04 978.30 1895.95L978.30 1895.95Q1131.45 1940.77 1335.64 1954.47L1335.64 1954.47Q1431.52 1960.69 1431.52 2009.25L1431.52 2009.25Q1431.52 2064.04 1366.77 2064.04L1366.77 2064.04Q1274.63 2064.04 1126.46 2030.42L1126.46 2030.42Q964.60 1994.31 863.75 1947.00L863.75 1947.00Q668.26 2029.17 401.81 2061.55L401.81 2061.55L343.29 2069.02ZM460.33 1583.42Q437.92 1583.42 426.09 1572.22Q414.26 1561.01 414.26 1546.07L414.26 1546.07Q414.26 1536.11 417.99 1528.64L417.99 1528.64L474.02 1405.37Q498.93 1350.59 527.56 1350.59L527.56 1350.59Q569.90 1350.59 569.90 1391.67L569.90 1391.67Q569.90 1412.84 532.54 1496.26L532.54 1496.26Q493.95 1583.42 460.33 1583.42L460.33 1583.42ZM903.59 1833.69Q1049.27 1762.72 1072.92 1739.06L1072.92 1739.06Q1077.91 1734.08 1077.91 1730.35L1077.91 1730.35Q1077.91 1725.37 1067.94 1725.37L1067.94 1725.37L701.88 1725.37Q761.65 1801.32 864.99 1852.37L864.99 1852.37L903.59 1833.69ZM904.83 1458.91Q881.18 1458.91 847.56 1424.05L847.56 1424.05L822.66 1399.15Q797.75 1374.24 797.75 1361.79L797.75 1361.79Q797.75 1321.95 842.58 1321.95L842.58 1321.95Q862.50 1321.95 908.57 1361.79L908.57 1361.79Q949.66 1396.66 949.66 1416.58L949.66 1416.58Q949.66 1458.91 904.83 1458.91L904.83 1458.91ZM360.72 1487.55Q310.91 1487.55 310.91 1431.52L310.91 1431.52L310.91 1326.93Q310.91 1263.43 339.55 1234.17Q368.19 1204.91 430.44 1207.40L430.44 1207.40L522.58 1207.40Q485.23 1142.65 485.23 1130.20L485.23 1130.20Q485.23 1091.60 530.05 1091.60L530.05 1091.60Q548.73 1091.60 572.39 1119.62Q596.04 1147.63 632.15 1207.40L632.15 1207.40L823.90 1207.40L794.02 1160.08Q774.10 1127.71 774.10 1118.99L774.10 1118.99Q774.10 1079.15 825.15 1079.15L825.15 1079.15Q856.27 1079.15 873.71 1104.05L873.71 1104.05L938.45 1207.40L1069.19 1207.40L1112.77 1133.94Q1158.84 1057.98 1193.70 1057.98L1193.70 1057.98Q1247.24 1057.98 1247.24 1095.34L1247.24 1095.34Q1247.24 1112.77 1173.78 1207.40L1173.78 1207.40L1289.58 1207.40Q1353.08 1207.40 1382.34 1236.04Q1411.60 1264.67 1407.86 1326.93L1407.86 1326.93L1407.86 1431.52Q1407.86 1487.55 1358.06 1487.55L1358.06 1487.55Q1309.50 1487.55 1309.50 1431.52L1309.50 1431.52L1309.50 1335.64Q1309.50 1294.56 1265.92 1292.07L1265.92 1292.07L454.10 1292.07Q413.01 1292.07 410.52 1335.64L410.52 1335.64L410.52 1431.52Q410.52 1487.55 360.72 1487.55L360.72 1487.55ZM1270.90 1572.22Q1247.24 1572.22 1213.62 1523.66L1213.62 1523.66Q1172.53 1463.89 1138.92 1429.03L1138.92 1429.03Q1097.83 1386.69 1097.83 1365.53L1097.83 1365.53Q1097.83 1351.83 1109.03 1342.49Q1120.24 1333.15 1135.18 1333.15L1135.18 1333.15Q1152.61 1333.15 1176.89 1353.08Q1201.17 1373.00 1242.26 1419.07L1242.26 1419.07Q1318.21 1503.74 1318.21 1528.64L1318.21 1528.64Q1318.21 1572.22 1270.90 1572.22L1270.90 1572.22ZM424.22 1075.42Q383.13 1075.42 364.45 1063.59Q345.78 1051.76 345.78 1028.10L345.78 1028.10Q345.78 1004.44 363.21 993.24Q380.64 982.03 421.73 982.03L421.73 982.03L608.50 982.03Q990.75 982.03 1222.34 938.45L1222.34 938.45Q1252.22 932.23 1273.39 932.23L1273.39 932.23Q1324.44 932.23 1324.44 980.79L1324.44 980.79Q1324.44 1023.12 1243.51 1031.84L1243.51 1031.84Q888.65 1075.42 424.22 1075.42L424.22 1075.42ZM1618.29 1300.78Q1568.48 1300.78 1568.48 1260.94L1568.48 1260.94Q1568.48 1219.85 1618.29 1219.85L1618.29 1219.85L1881.01 1219.85L1854.86 1125.22L1851.12 1109.03L1684.28 1109.03Q1634.47 1109.03 1634.47 1069.19L1634.47 1069.19Q1634.47 1028.10 1684.28 1028.10L1684.28 1028.10L2076.49 1028.10L2076.49 975.81Q2076.49 932.23 2133.76 932.23L2133.76 932.23Q2189.79 932.23 2189.79 975.81L2189.79 975.81L2189.79 1028.10L2588.23 1028.10Q2639.28 1028.10 2639.28 1069.19L2639.28 1069.19Q2639.28 1109.03 2588.23 1109.03L2588.23 1109.03L2402.71 1109.03L2375.32 1219.85L2656.71 1219.85Q2706.52 1219.85 2706.52 1260.94L2706.52 1260.94Q2706.52 1300.78 2656.71 1300.78L2656.71 1300.78L1618.29 1300.78ZM1635.72 2016.72Q1582.18 2016.72 1582.18 1968.16L1582.18 1968.16Q1582.18 1954.47 1612.06 1900.93L1612.06 1900.93Q1641.94 1844.90 1659.38 1800.07L1659.38 1800.07Q1674.32 1761.47 1706.69 1761.47L1706.69 1761.47Q1756.49 1761.47 1756.49 1807.54L1756.49 1807.54Q1756.49 1836.18 1714.16 1928.32L1714.16 1928.32Q1694.24 1970.65 1673.69 1993.69Q1653.15 2016.72 1635.72 2016.72L1635.72 2016.72ZM2118.82 2041.63Q1978.13 2041.63 1937.04 2031.67L1937.04 2031.67Q1873.54 2016.72 1873.54 1948.24L1873.54 1948.24L1873.54 1782.64Q1873.54 1730.35 1923.34 1730.35L1923.34 1730.35Q1973.14 1730.35 1973.14 1782.64L1973.14 1782.64L1973.14 1905.91Q1973.14 1938.28 2006.76 1944.51L2006.76 1944.51Q2031.67 1949.49 2161.16 1949.49L2161.16 1949.49Q2174.85 1949.49 2204.74 1947.00L2204.74 1947.00L2248.32 1944.51Q2319.29 1940.77 2328.00 1872.29L2328.00 1872.29Q2331.74 1842.41 2344.19 1829.33Q2356.64 1816.26 2381.54 1816.26L2381.54 1816.26Q2408.94 1816.26 2422.01 1829.96Q2435.08 1843.65 2435.08 1873.54L2435.08 1873.54Q2435.08 1980.62 2372.83 2016.72L2372.83 2016.72Q2330.49 2041.63 2118.82 2041.63L2118.82 2041.63ZM2182.32 1867.31Q2157.42 1867.31 2123.80 1822.49L2123.80 1822.49L2091.43 1783.89Q2077.73 1767.70 2077.73 1757.74L2077.73 1757.74Q2077.73 1714.16 2123.80 1714.16L2123.80 1714.16Q2141.24 1714.16 2187.30 1756.49L2187.30 1756.49Q2230.88 1797.58 2230.88 1818.75L2230.88 1818.75Q2230.88 1867.31 2182.32 1867.31L2182.32 1867.31ZM2427.61 1635.72Q2463.72 1635.72 2463.72 1602.10L2463.72 1602.10L2463.72 1569.73L1807.54 1569.73L1807.54 1602.10Q1807.54 1634.47 1842.41 1635.72L1842.41 1635.72L2427.61 1635.72ZM1806.30 1707.93Q1752.76 1707.93 1727.23 1683.65Q1701.71 1659.38 1705.44 1608.33L1705.44 1608.33L1705.44 1460.16Q1705.44 1407.86 1729.10 1384.20Q1752.76 1360.55 1806.30 1360.55L1806.30 1360.55L2466.21 1360.55Q2521.00 1360.55 2546.52 1384.83Q2572.05 1409.11 2568.31 1460.16L2568.31 1460.16L2568.31 1608.33Q2568.31 1660.62 2544.03 1684.28Q2519.75 1707.93 2466.21 1707.93L2466.21 1707.93L1806.30 1707.93ZM1807.54 1497.51L2463.72 1497.51L2463.72 1467.63Q2463.72 1434.01 2427.61 1432.76L2427.61 1432.76L1842.41 1432.76Q1807.54 1432.76 1807.54 1467.63L1807.54 1467.63L1807.54 1497.51ZM2638.04 1999.29Q2609.40 1999.29 2588.23 1961.94L2588.23 1961.94Q2565.82 1919.60 2501.07 1831.20L2501.07 1831.20Q2483.64 1807.54 2483.64 1795.09L2483.64 1795.09Q2483.64 1752.76 2530.96 1752.76L2530.96 1752.76Q2557.10 1752.76 2624.34 1837.43L2624.34 1837.43Q2691.58 1920.85 2691.58 1947.00L2691.58 1947.00Q2691.58 1999.29 2638.04 1999.29L2638.04 1999.29ZM1985.60 1219.85L2271.97 1219.85L2298.12 1109.03L1956.96 1109.03L1985.60 1219.85Z"/>
  </svg>