<svg xmlns="http://www.w3.org/2000/svg" viewBox="0 0 3000 3000" width="3000" height="3000">
    <path fill="#000000" d="M351.22 1494.90L351.22 1306.20L1381.42 1306.20L1381.42 1494.90L1343.17 1494.90L1343.17 1343.18L389.47 1343.18L389.47 1494.90L351.22 1494.90ZM520.80 1141.72L520.80 1141.72L555.22 1135.35Q576.90 1179.97 596.66 1232.89Q616.42 1285.80 624.07 1321.50L624.07 1321.50L588.37 1332.97Q580.72 1296 561.60 1241.81Q542.47 1187.63 520.80 1141.72ZM812.77 1131.53L812.77 1131.53L845.92 1126.42Q865.05 1173.60 882.26 1227.79Q899.47 1281.97 908.40 1317.68L908.40 1317.68L873.97 1326.60Q865.05 1289.63 847.84 1234.16Q830.62 1178.70 812.77 1131.53ZM1287.07 1012.95L1287.07 1012.95L1307.47 1046.10Q1227.15 1061.40 1117.50 1073.51Q1007.85 1085.63 883.54 1094.55Q759.22 1103.47 632.36 1109.21Q505.50 1114.95 389.47 1117.50L389.47 1117.50Q388.20 1109.85 385.01 1099.65Q381.82 1089.45 379.27 1081.80L379.27 1081.80Q494.02 1079.25 620.89 1073.51Q747.75 1067.78 872.06 1058.85Q996.37 1049.92 1104.11 1038.45Q1211.85 1026.97 1287.07 1012.95ZM1183.80 1103.47L1183.80 1103.47L1220.77 1120.05Q1191.45 1173.60 1153.84 1232.25Q1116.22 1290.90 1083.07 1331.70L1083.07 1331.70L1052.47 1318.95Q1074.15 1290.90 1099.01 1252.65Q1123.88 1214.40 1146.19 1174.88Q1168.50 1135.35 1183.80 1103.47ZM636.82 1740.98L666.15 1723.13Q732.45 1820.03 844.65 1892.70Q956.85 1965.38 1099.01 2012.55Q1241.17 2059.72 1394.17 2080.13L1394.17 2080.13Q1390.35 2085.22 1385.89 2091.60Q1381.42 2097.97 1377.60 2104.99Q1373.77 2112 1371.22 2118.38L1371.22 2118.38Q1219.50 2095.43 1076.70 2045.70Q933.90 1995.98 819.79 1919.48Q705.67 1842.98 636.82 1740.98L636.82 1740.98ZM639.37 1757.55L639.37 1719.30L1202.92 1719.30L1202.92 1757.55L639.37 1757.55ZM1187.63 1728.23L1187.63 1719.30L1196.55 1719.30L1205.47 1716.75L1225.88 1734.60Q1164.67 1842.98 1060.76 1917.56Q956.85 1992.15 829.35 2039.96Q701.85 2087.78 569.25 2115.83L569.25 2115.83Q567.97 2110.72 564.79 2104.35Q561.60 2097.97 557.77 2090.96Q553.95 2083.95 551.40 2080.13L551.40 2080.13Q681.45 2055.90 806.40 2011.28Q931.35 1966.65 1031.44 1896.53Q1131.52 1826.40 1187.63 1728.23L1187.63 1728.23ZM426.45 1576.50L426.45 1538.25L1298.55 1538.25L1298.55 1576.50L426.45 1576.50ZM738.82 1396.72L738.82 1396.72L775.80 1403.10Q723.52 1664.47 613.24 1841.70Q502.95 2018.93 315.52 2129.85L315.52 2129.85Q314.25 2126.03 309.79 2119.65Q305.32 2113.28 300.22 2106.26Q295.12 2099.25 291.30 2095.43L291.30 2095.43Q474.90 1994.70 582.00 1820.66Q689.10 1646.63 738.82 1396.72ZM1895.25 2063.55L1895.25 1868.48L1932.22 1868.48L1932.22 2064.83Q1932.22 2085.22 1948.16 2091.60Q1964.10 2097.97 2018.93 2097.97L2018.93 2097.97Q2031.68 2097.97 2068.65 2097.97Q2105.63 2097.97 2151.53 2097.97Q2197.43 2097.97 2236.95 2097.97Q2276.48 2097.97 2294.32 2097.97L2294.32 2097.97Q2326.20 2097.97 2340.86 2088.41Q2355.53 2078.85 2361.26 2046.34Q2367 2013.83 2369.55 1946.25L2369.55 1946.25Q2378.48 1951.35 2388.68 1955.18Q2398.88 1959 2407.80 1961.55L2407.80 1961.55Q2405.25 2032.95 2395.69 2070.56Q2386.13 2108.18 2363.81 2122.20Q2341.50 2136.22 2296.88 2136.22L2296.88 2136.22Q2290.50 2136.22 2262.45 2136.22Q2234.40 2136.22 2196.79 2136.22Q2159.18 2136.22 2121.56 2136.22Q2083.95 2136.22 2055.90 2136.22Q2027.85 2136.22 2021.47 2136.22L2021.47 2136.22Q1971.75 2136.22 1944.34 2131.13Q1916.93 2126.03 1906.09 2110.09Q1895.25 2094.15 1895.25 2063.55L1895.25 2063.55ZM2036.78 1823.85L2036.78 1823.85L2062.28 1803.45Q2097.97 1825.13 2136.22 1852.54Q2174.47 1879.95 2207.63 1908Q2240.78 1936.05 2261.18 1959L2261.18 1959L2234.40 1984.50Q2214 1960.28 2180.85 1932.23Q2147.70 1904.18 2110.09 1875.49Q2072.47 1846.80 2036.78 1823.85ZM2460.07 1868.48L2460.07 1868.48L2489.40 1851.90Q2525.10 1883.78 2560.16 1922.03Q2595.23 1960.28 2624.55 1997.89Q2653.88 2035.50 2670.45 2066.10L2670.45 2066.10L2639.85 2085.22Q2623.28 2054.63 2594.59 2017.01Q2565.90 1979.40 2530.84 1939.88Q2495.78 1900.35 2460.07 1868.48ZM1753.72 1867.20L1753.72 1867.20L1785.60 1881.23Q1760.10 1936.05 1723.13 2001.08Q1686.15 2066.10 1637.70 2110.72L1637.70 2110.72L1605.83 2091.60Q1654.28 2049.53 1692.53 1985.14Q1730.78 1920.75 1753.72 1867.20ZM1653 1150.65L1653 1113.67L2620.73 1113.67L2620.73 1150.65L1653 1150.65ZM1599.45 1355.93L1599.45 1318.95L2684.48 1318.95L2684.48 1355.93L1599.45 1355.93ZM1858.28 1168.50L1858.28 1168.50L1892.70 1155.75Q1915.65 1190.17 1935.41 1231.61Q1955.18 1273.05 1964.10 1303.65L1964.10 1303.65L1925.85 1317.68Q1919.47 1285.80 1900.35 1244.36Q1881.22 1202.92 1858.28 1168.50ZM2383.57 1151.92L2383.57 1151.92L2419.28 1165.95Q2397.60 1213.13 2373.38 1260.94Q2349.15 1308.75 2323.65 1345.72L2323.65 1345.72L2290.50 1330.43Q2313.45 1293.45 2340.23 1241.81Q2367 1190.17 2383.57 1151.92ZM2489.40 1632.60L1791.97 1632.60L1791.97 1755L2489.40 1755L2489.40 1632.60ZM2489.40 1474.50L1791.97 1474.50L1791.97 1594.35L2489.40 1594.35L2489.40 1474.50ZM1753.72 1791.98L1753.72 1437.53L2527.65 1437.53L2527.65 1791.98L1753.72 1791.98ZM2089.05 1004.03L2089.05 1004.03L2122.20 990Q2147.70 1019.33 2172.56 1056.94Q2197.43 1094.55 2210.18 1122.60L2210.18 1122.60L2174.47 1139.17Q2161.72 1111.13 2137.50 1072.88Q2113.28 1034.63 2089.05 1004.03Z"/>
  </svg>