<svg xmlns="http://www.w3.org/2000/svg" viewBox="0 0 3000 3000" width="3000" height="3000">
    <path fill="#000000" d="M1374 1318L1374 1318Q1386 1294 1420 1316L1420 1316Q1444 1334 1452 1344Q1460 1354 1464 1376L1464 1376Q1470 1402 1480 1418L1480 1418Q1504 1450 1480 1470L1480 1470Q1468 1478 1468 1494L1468 1494Q1468 1506 1474 1508Q1480 1510 1506 1506L1506 1506Q1542 1498 1618 1494L1618 1494Q1682 1490 1713 1500Q1744 1510 1760 1540L1760 1540Q1788 1584 1756 1620L1756 1620L1738 1638L1606 1632Q1488 1626 1459 1632Q1430 1638 1416 1672L1416 1672Q1408 1700 1392 1738L1392 1738Q1372 1776 1374 1798Q1376 1820 1400 1846L1400 1846Q1426 1874 1445 1902Q1464 1930 1491 1959Q1518 1988 1526 1978L1526 1978Q1546 1956 1566 1868L1566 1868L1576 1824L1514 1828Q1454 1832 1438 1824L1438 1824Q1398 1800 1446 1770L1446 1770Q1482 1750 1540 1742L1540 1742Q1596 1734 1609 1728Q1622 1722 1660 1716L1660 1716Q1688 1710 1696 1714Q1704 1718 1724 1738L1724 1738Q1748 1766 1761 1789Q1774 1812 1767 1818Q1760 1824 1755 1852Q1750 1880 1738 1896Q1726 1912 1726 1940Q1726 1968 1707 1997Q1688 2026 1688 2036Q1688 2046 1678 2068L1678 2068Q1666 2084 1673 2093Q1680 2102 1726 2130L1726 2130Q1766 2160 1817 2188Q1868 2216 1880 2216L1880 2216Q1888 2216 1958 2245Q2028 2274 2056 2290L2056 2290Q2096 2308 2102 2308L2102 2308Q2118 2308 2148 2334Q2178 2360 2184 2376L2184 2376Q2192 2404 2188 2408Q2184 2412 2132 2423Q2080 2434 2036 2458Q1992 2482 1968 2482L1968 2482Q1948 2482 1888 2454Q1828 2426 1798 2402L1798 2402Q1770 2380 1742 2366L1742 2366Q1708 2346 1622 2272L1622 2272Q1546 2208 1538 2228L1538 2228Q1536 2234 1484 2268L1484 2268Q1382 2338 1287 2370Q1192 2402 1170 2376L1170 2376Q1160 2364 1184 2342L1184 2342Q1238 2294 1244 2294L1244 2294Q1254 2294 1308 2254Q1362 2214 1392 2184L1392 2184Q1438 2142 1445 2122Q1452 2102 1434 2076L1434 2076Q1364 1970 1346 1930L1346 1930Q1342 1916 1340 1917Q1338 1918 1326 1932L1326 1932Q1310 1952 1306 1972L1306 1972Q1300 1996 1277 2042Q1254 2088 1244 2096L1244 2096Q1232 2108 1232 2118Q1232 2128 1226 2128Q1220 2128 1178 2182L1178 2182Q1118 2254 1048 2317Q978 2380 924 2408L924 2408Q872 2438 876 2424L876 2424Q876 2416 890 2404L890 2404Q910 2386 910 2378Q910 2370 944 2326L944 2326Q1008 2246 1036 2188L1036 2188Q1048 2164 1068 2133Q1088 2102 1093 2090Q1098 2078 1108 2062L1108 2062Q1130 2024 1134 2012L1134 2012Q1138 2000 1150 1976L1150 1976Q1196 1872 1220 1788L1220 1788Q1234 1740 1245 1714Q1256 1688 1255 1680Q1254 1672 1238 1672L1238 1672Q1224 1672 1198 1700Q1172 1728 1156 1728L1156 1728Q1138 1728 1099 1695Q1060 1662 1060 1648Q1060 1634 1076 1620L1076 1620Q1088 1610 1164 1580Q1240 1550 1272 1544L1272 1544Q1292 1542 1299 1531Q1306 1520 1324 1476L1324 1476Q1348 1410 1357 1372Q1366 1334 1374 1318ZM1358 920L1358 920Q1394 892 1498 960L1498 960Q1522 978 1527 986Q1532 994 1530 1030L1530 1030Q1530 1060 1526 1071Q1522 1082 1510 1092L1510 1092Q1488 1108 1472 1108L1472 1108Q1456 1108 1427 1085Q1398 1062 1398 1052L1398 1052Q1398 1046 1376 1017Q1354 988 1344 962L1344 962Q1338 944 1340 937Q1342 930 1358 920ZM1792 844L1792 844Q1812 836 1817 836Q1822 836 1836 850L1836 850Q1852 866 1857 866Q1862 866 1889 891Q1916 916 1922 948L1922 948Q1924 968 1920 978Q1916 988 1900 1004L1900 1004Q1874 1030 1863 1030Q1852 1030 1822 1060L1822 1060Q1792 1090 1708 1144L1708 1144Q1692 1156 1648 1176L1648 1176L1606 1198L1712 1204Q1818 1210 1876 1224L1876 1224Q1958 1240 2028 1230L2028 1230Q2052 1226 2061 1229Q2070 1232 2088 1250L2088 1250Q2116 1278 2144 1292L2144 1292Q2166 1302 2182 1331Q2198 1360 2198 1390L2198 1390Q2198 1426 2152 1454Q2106 1482 2082 1460L2082 1460Q2070 1448 1974 1452L1974 1452Q1958 1454 1944 1469Q1930 1484 1919 1484Q1908 1484 1899 1496Q1890 1508 1872 1508L1872 1508Q1858 1508 1857 1506Q1856 1504 1862 1490L1862 1490Q1872 1474 1892 1446L1892 1446Q1944 1372 1936 1362L1936 1362Q1904 1330 1652 1300L1652 1300Q1444 1274 1306 1304L1306 1304Q1222 1320 1170 1328Q1118 1336 1078 1356Q1038 1376 1030 1376L1030 1376Q1018 1376 1003 1399Q988 1422 984 1448L984 1448Q980 1480 969 1528Q958 1576 958 1662L958 1662L958 1746L934 1770Q890 1804 860 1776L860 1776Q834 1758 822 1719Q810 1680 804 1596L804 1596Q802 1562 806 1543Q810 1524 836 1472L836 1472Q872 1396 891 1370Q910 1344 910 1338L910 1338Q910 1330 926 1319Q942 1308 948 1312L948 1312Q954 1320 1014 1298L1014 1298Q1050 1282 1122 1262Q1194 1242 1206 1242L1206 1242L1194 1230Q1176 1216 1161 1179Q1146 1142 1133 1117Q1120 1092 1126 1060L1126 1060Q1132 1018 1141 1011Q1150 1004 1176 1018L1176 1018Q1202 1032 1239 1068Q1276 1104 1292 1134L1292 1134Q1302 1154 1302 1162Q1302 1170 1294 1190L1294 1190Q1278 1216 1283 1216Q1288 1216 1332 1205Q1376 1194 1421 1194Q1466 1194 1481 1180Q1496 1166 1526 1142L1526 1142Q1574 1108 1586 1080L1586 1080Q1590 1070 1629 1028Q1668 986 1691 958Q1714 930 1744 898Q1774 866 1774 859Q1774 852 1792 844ZM1464 648L1464 648Q1484 626 1492 624Q1500 622 1512 636L1512 636Q1526 654 1554 654L1554 654Q1610 654 1610 720L1610 720Q1610 748 1595 767Q1580 786 1558 786L1558 786Q1544 786 1492 810L1492 810Q1426 842 1254 902L1254 902Q1128 944 1114 944L1114 944Q1074 944 1194 860L1194 860Q1306 784 1358 743Q1410 702 1464 648Z"/>
  </svg>