<svg xmlns="http://www.w3.org/2000/svg" viewBox="0 0 3000 3000" width="3000" height="3000">
    <path fill="#000000" d="M782.17 1383.97L782.17 1383.97Q789.82 1368.67 811.50 1382.70L811.50 1382.70Q826.80 1394.17 831.90 1400.55Q837.00 1406.92 839.55 1420.95L839.55 1420.95Q843.37 1437.53 849.75 1447.72L849.75 1447.72Q865.05 1468.13 849.75 1480.88L849.75 1480.88Q842.10 1485.97 842.10 1496.17L842.10 1496.17Q842.10 1503.82 845.92 1505.10Q849.75 1506.38 866.32 1503.82L866.32 1503.82Q889.27 1498.72 937.72 1496.17L937.72 1496.17Q978.52 1493.63 998.29 1500Q1018.05 1506.38 1028.25 1525.50L1028.25 1525.50Q1046.10 1553.55 1025.70 1576.50L1025.70 1576.50L1014.22 1587.97L930.07 1584.15Q854.85 1580.32 836.36 1584.15Q817.87 1587.97 808.95 1609.65L808.95 1609.65Q803.85 1627.50 793.65 1651.72L793.65 1651.72Q780.90 1675.95 782.17 1689.97Q783.45 1704 798.75 1720.58L798.75 1720.58Q815.32 1738.42 827.44 1756.28Q839.55 1774.13 856.76 1792.61Q873.97 1811.10 879.07 1804.72L879.07 1804.72Q891.82 1790.70 904.57 1734.60L904.57 1734.60L910.95 1706.55L871.42 1709.10Q833.17 1711.65 822.97 1706.55L822.97 1706.55Q797.47 1691.25 828.07 1672.13L828.07 1672.13Q851.02 1659.38 888.00 1654.28L888.00 1654.28Q923.70 1649.17 931.99 1645.35Q940.27 1641.53 964.50 1637.70L964.50 1637.70Q982.35 1633.88 987.45 1636.42Q992.55 1638.97 1005.30 1651.72L1005.30 1651.72Q1020.60 1669.58 1028.89 1684.24Q1037.17 1698.90 1032.71 1702.72Q1028.25 1706.55 1025.06 1724.40Q1021.87 1742.25 1014.22 1752.45Q1006.57 1762.65 1006.57 1780.50Q1006.57 1798.35 994.46 1816.84Q982.35 1835.33 982.35 1841.70Q982.35 1848.08 975.97 1862.10L975.97 1862.10Q968.32 1872.30 972.79 1878.04Q977.25 1883.78 1006.57 1901.63L1006.57 1901.63Q1032.07 1920.75 1064.59 1938.60Q1097.10 1956.45 1104.75 1956.45L1104.75 1956.45Q1109.85 1956.45 1154.47 1974.94Q1199.10 1993.42 1216.95 2003.63L1216.95 2003.63Q1242.45 2015.10 1246.27 2015.10L1246.27 2015.10Q1256.47 2015.10 1275.60 2031.67Q1294.72 2048.25 1298.55 2058.45L1298.55 2058.45Q1303.65 2076.30 1301.10 2078.85Q1298.55 2081.40 1265.40 2088.41Q1232.25 2095.43 1204.20 2110.72Q1176.15 2126.03 1160.85 2126.03L1160.85 2126.03Q1148.10 2126.03 1109.85 2108.18Q1071.60 2090.32 1052.47 2075.03L1052.47 2075.03Q1034.63 2061 1016.77 2052.07L1016.77 2052.07Q995.10 2039.33 940.27 1992.15L940.27 1992.15Q891.82 1951.35 886.72 1964.10L886.72 1964.10Q885.45 1967.92 852.30 1989.60L852.30 1989.60Q787.27 2034.22 726.71 2054.63Q666.15 2075.03 652.12 2058.45L652.12 2058.45Q645.75 2050.80 661.05 2036.78L661.05 2036.78Q695.47 2006.17 699.30 2006.17L699.30 2006.17Q705.67 2006.17 740.10 1980.67Q774.52 1955.17 793.65 1936.05L793.65 1936.05Q822.97 1909.28 827.44 1896.53Q831.90 1883.78 820.42 1867.20L820.42 1867.20Q775.80 1799.63 764.32 1774.13L764.32 1774.13Q761.77 1765.20 760.50 1765.84Q759.22 1766.47 751.57 1775.40L751.57 1775.40Q741.37 1788.15 738.82 1800.90L738.82 1800.90Q735.00 1816.20 720.34 1845.53Q705.67 1874.85 699.30 1879.95L699.30 1879.95Q691.65 1887.60 691.65 1893.97Q691.65 1900.35 687.82 1900.35Q684.00 1900.35 657.22 1934.78L657.22 1934.78Q618.97 1980.67 574.35 2020.84Q529.72 2061 495.30 2078.85L495.30 2078.85Q462.15 2097.97 464.70 2089.05L464.70 2089.05Q464.70 2083.95 473.62 2076.30L473.62 2076.30Q486.37 2064.82 486.37 2059.72Q486.37 2054.63 508.05 2026.58L508.05 2026.58Q548.85 1975.58 566.70 1938.60L566.70 1938.60Q574.35 1923.30 587.10 1903.54Q599.85 1883.78 603.04 1876.13Q606.22 1868.47 612.60 1858.28L612.60 1858.28Q626.62 1834.05 629.17 1826.40L629.17 1826.40Q631.72 1818.75 639.37 1803.45L639.37 1803.45Q668.70 1737.15 684.00 1683.60L684.00 1683.60Q692.92 1653 699.94 1636.42Q706.95 1619.85 706.31 1614.75Q705.67 1609.65 695.47 1609.65L695.47 1609.65Q686.55 1609.65 669.97 1627.50Q653.40 1645.35 643.20 1645.35L643.20 1645.35Q631.72 1645.35 606.86 1624.31Q582.00 1603.28 582.00 1594.35Q582.00 1585.42 592.20 1576.50L592.20 1576.50Q599.85 1570.13 648.30 1551Q696.75 1531.88 717.15 1528.05L717.15 1528.05Q729.90 1526.78 734.36 1519.76Q738.82 1512.75 750.30 1484.70L750.30 1484.70Q765.60 1442.63 771.34 1418.40Q777.07 1394.17 782.17 1383.97ZM771.97 1130.25L771.97 1130.25Q794.92 1112.40 861.22 1155.75L861.22 1155.75Q876.52 1167.22 879.71 1172.32Q882.90 1177.42 881.62 1200.38L881.62 1200.38Q881.62 1219.50 879.07 1226.51Q876.52 1233.53 868.87 1239.90L868.87 1239.90Q854.85 1250.10 844.65 1250.10L844.65 1250.10Q834.45 1250.10 815.96 1235.44Q797.47 1220.77 797.47 1214.40L797.47 1214.40Q797.47 1210.57 783.45 1192.09Q769.42 1173.60 763.05 1157.02L763.05 1157.02Q759.22 1145.55 760.50 1141.09Q761.77 1136.63 771.97 1130.25ZM1048.65 1081.80L1048.65 1081.80Q1061.40 1076.70 1064.59 1076.70Q1067.77 1076.70 1076.70 1085.63L1076.70 1085.63Q1086.90 1095.82 1090.09 1095.82Q1093.27 1095.82 1110.49 1111.76Q1127.70 1127.70 1131.52 1148.10L1131.52 1148.10Q1132.80 1160.85 1130.25 1167.22Q1127.70 1173.60 1117.50 1183.80L1117.50 1183.80Q1100.92 1200.38 1093.91 1200.38Q1086.90 1200.38 1067.77 1219.50L1067.77 1219.50Q1048.65 1238.63 995.10 1273.05L995.10 1273.05Q984.90 1280.70 956.85 1293.45L956.85 1293.45L930.07 1307.47L997.65 1311.30Q1065.22 1315.13 1102.20 1324.05L1102.20 1324.05Q1154.47 1334.25 1199.10 1327.88L1199.10 1327.88Q1214.40 1325.32 1220.14 1327.24Q1225.88 1329.15 1237.35 1340.63L1237.35 1340.63Q1255.20 1358.47 1273.05 1367.40L1273.05 1367.40Q1287.07 1373.78 1297.27 1392.26Q1307.47 1410.75 1307.47 1429.88L1307.47 1429.88Q1307.47 1452.82 1278.15 1470.67Q1248.82 1488.52 1233.52 1474.50L1233.52 1474.50Q1225.88 1466.85 1164.67 1469.40L1164.67 1469.40Q1154.47 1470.67 1145.55 1480.24Q1136.63 1489.80 1129.61 1489.80Q1122.60 1489.80 1116.86 1497.45Q1111.13 1505.10 1099.65 1505.10L1099.65 1505.10Q1090.72 1505.10 1090.09 1503.82Q1089.45 1502.55 1093.27 1493.63L1093.27 1493.63Q1099.65 1483.42 1112.40 1465.57L1112.40 1465.57Q1145.55 1418.40 1140.45 1412.03L1140.45 1412.03Q1120.05 1391.63 959.40 1372.50L959.40 1372.50Q826.80 1355.92 738.82 1375.05L738.82 1375.05Q685.27 1385.25 652.12 1390.35Q618.97 1395.45 593.47 1408.20Q567.97 1420.95 562.87 1420.95L562.87 1420.95Q555.22 1420.95 545.66 1435.61Q536.10 1450.28 533.55 1466.85L533.55 1466.85Q531.00 1487.25 523.99 1517.85Q516.97 1548.45 516.97 1603.28L516.97 1603.28L516.97 1656.83L501.67 1672.13Q473.62 1693.80 454.50 1675.95L454.50 1675.95Q437.92 1664.47 430.27 1639.61Q422.62 1614.75 418.80 1561.20L418.80 1561.20Q417.52 1539.53 420.07 1527.41Q422.62 1515.30 439.20 1482.15L439.20 1482.15Q462.15 1433.70 474.26 1417.13Q486.37 1400.55 486.37 1396.72L486.37 1396.72Q486.37 1391.63 496.57 1384.61Q506.77 1377.60 510.60 1380.15L510.60 1380.15Q514.42 1385.25 552.67 1371.22L552.67 1371.22Q575.62 1361.03 621.52 1348.28Q667.42 1335.53 675.07 1335.53L675.07 1335.53L667.42 1327.88Q655.95 1318.95 646.39 1295.36Q636.82 1271.78 628.54 1255.84Q620.25 1239.90 624.07 1219.50L624.07 1219.50Q627.90 1192.72 633.64 1188.26Q639.37 1183.80 655.95 1192.72L655.95 1192.72Q672.52 1201.65 696.11 1224.60Q719.70 1247.55 729.90 1266.67L729.90 1266.67Q736.27 1279.42 736.27 1284.53Q736.27 1289.63 731.17 1302.38L731.17 1302.38Q720.97 1318.95 724.16 1318.95Q727.35 1318.95 755.40 1311.94Q783.45 1304.92 812.14 1304.92Q840.82 1304.92 850.39 1296Q859.95 1287.07 879.07 1271.78L879.07 1271.78Q909.67 1250.10 917.32 1232.25L917.32 1232.25Q919.87 1225.88 944.74 1199.10Q969.60 1172.32 984.26 1154.47Q998.92 1136.63 1018.05 1116.22Q1037.17 1095.82 1037.17 1091.36Q1037.17 1086.90 1048.65 1081.80ZM839.55 956.85L839.55 956.85Q852.30 942.82 857.40 941.55Q862.50 940.27 870.15 949.20L870.15 949.20Q879.07 960.67 896.92 960.67L896.92 960.67Q932.62 960.67 932.62 1002.75L932.62 1002.75Q932.62 1020.60 923.06 1032.71Q913.50 1044.82 899.47 1044.82L899.47 1044.82Q890.55 1044.82 857.40 1060.13L857.40 1060.13Q815.32 1080.52 705.67 1118.77L705.67 1118.77Q625.35 1145.55 616.42 1145.55L616.42 1145.55Q590.92 1145.55 667.42 1092L667.42 1092Q738.82 1043.55 771.97 1017.41Q805.12 991.27 839.55 956.85ZM1812.38 1869.75L1812.38 1869.75Q1826.40 1857 1846.80 1835.33Q1867.20 1813.65 1873.58 1816.20L1873.58 1816.20Q1881.22 1820.03 1875.49 1911.83Q1869.75 2003.63 1859.55 2016.38L1859.55 2016.38Q1855.72 2024.03 1835.96 2035.50Q1816.20 2046.97 1807.28 2046.97L1807.28 2046.97Q1804.72 2046.97 1795.80 2036.78L1795.80 2036.78Q1779.22 2017.65 1774.13 2001.71Q1769.03 1985.78 1767.75 1952.63L1767.75 1952.63Q1767.75 1918.20 1773.49 1906.09Q1779.22 1893.97 1812.38 1869.75ZM2220.38 1813.65L2220.38 1813.65Q2222.93 1808.55 2236.31 1816.20Q2249.70 1823.85 2272.65 1834.05Q2295.60 1844.25 2343.41 1876.13Q2391.23 1908 2396.32 1908L2396.32 1908Q2402.70 1908 2445.41 1951.35Q2488.13 1994.70 2493.86 2006.17Q2499.60 2017.65 2491.95 2061L2491.95 2061Q2485.58 2096.70 2405.25 2118.38Q2324.93 2140.05 2236.95 2128.57L2236.95 2128.57Q2191.05 2122.20 2179.57 2117.10L2179.57 2117.10L2133.68 2095.43Q2095.43 2077.57 2066.10 2048.25L2066.10 2048.25Q2004.90 1989.60 2004.90 1971.75L2004.90 1971.75Q2004.90 1964.10 1999.16 1960.91Q1993.43 1957.72 1988.33 1935.41Q1983.22 1913.10 1981.95 1895.25Q1980.68 1877.40 1984.50 1874.85L1984.50 1874.85Q1989.60 1874.85 2035.50 1919.47L2035.50 1919.47Q2075.03 1961.55 2092.88 1974.30Q2110.72 1987.05 2138.78 1994.70L2138.78 1994.70Q2175.75 2008.72 2233.13 2003.63Q2290.50 1998.53 2327.48 1980.67L2327.48 1980.67Q2349.15 1967.92 2337.68 1941.79Q2326.20 1915.65 2285.40 1885.05L2285.40 1885.05Q2254.80 1859.55 2236.31 1839.79Q2217.82 1820.03 2220.38 1813.65ZM2041.88 1760.10L2041.88 1760.10Q2040.60 1747.35 2041.88 1744.16Q2043.15 1740.97 2052.07 1740.97L2052.07 1740.97Q2081.40 1740.97 2126.03 1763.92L2126.03 1763.92Q2142.60 1771.58 2161.72 1765.20Q2180.85 1758.83 2188.50 1752.45L2188.50 1752.45Q2196.15 1742.25 2198.70 1744.80L2198.70 1744.80Q2201.25 1748.63 2191.05 1762.65L2191.05 1762.65Q2177.03 1779.22 2177.03 1804.09Q2177.03 1828.95 2169.38 1846.16Q2161.72 1863.38 2146.43 1863.38L2146.43 1863.38Q2114.55 1863.38 2080.13 1829.59Q2045.70 1795.80 2041.88 1760.10ZM2351.70 1679.78L2351.70 1679.78Q2367 1670.85 2415.45 1691.25L2415.45 1691.25Q2453.70 1705.28 2460.71 1705.28Q2467.73 1705.28 2490.68 1728.22L2490.68 1728.22L2514.90 1751.17L2514.90 1790.70Q2514.90 1817.47 2512.99 1824.49Q2511.08 1831.50 2498.33 1844.25L2498.33 1844.25Q2488.13 1854.45 2481.75 1856.36Q2475.38 1858.28 2465.18 1857L2465.18 1857Q2449.88 1853.17 2434.57 1835.33L2434.57 1835.33Q2364.45 1757.55 2328.75 1729.50L2328.75 1729.50Q2282.85 1693.80 2326.20 1688.70L2326.20 1688.70Q2342.78 1684.88 2351.70 1679.78ZM2174.47 1401.82L2174.47 1401.82Q2201.25 1395.45 2243.32 1410.11Q2285.40 1424.78 2307.07 1447.72L2307.07 1447.72Q2337.68 1480.88 2324.93 1508.92L2324.93 1508.92Q2316 1526.78 2316 1538.89Q2316 1551 2309.63 1556.74Q2303.25 1562.47 2300.70 1582.88L2300.70 1582.88Q2294.32 1636.42 2280.30 1667.03L2280.30 1667.03Q2273.93 1679.78 2257.99 1695.08Q2242.05 1710.38 2231.85 1710.38L2231.85 1710.38Q2226.75 1710.38 2219.10 1718.03L2219.10 1718.03Q2202.53 1733.33 2175.75 1706.55L2175.75 1706.55Q2164.28 1695.08 2156.63 1693.16Q2148.97 1691.25 2123.47 1691.25L2123.47 1691.25Q2087.78 1691.25 2052.07 1700.17L2052.07 1700.17Q2027.85 1709.10 2020.84 1712.92Q2013.83 1716.75 2012.55 1724.40L2012.55 1724.40Q2012.55 1732.05 2009.36 1735.24Q2006.18 1738.42 1995.98 1739.70L1995.98 1739.70Q1980.68 1740.97 1969.20 1724.40L1969.20 1724.40Q1952.63 1701.45 1942.43 1623.67L1942.43 1623.67Q1936.05 1572.67 1930.95 1561.20Q1925.85 1549.72 1922.66 1522.31Q1919.47 1494.90 1911.83 1486.61Q1904.18 1478.32 1906.72 1471.31Q1909.28 1464.30 1950.08 1443.90L1950.08 1443.90Q2031.68 1403.10 2120.93 1409.47L2120.93 1409.47Q2156.63 1410.75 2161.09 1406.92Q2165.55 1403.10 2174.47 1401.82ZM2142.60 1452.82L2142.60 1452.82Q2101.80 1445.17 2078.85 1452.82L2078.85 1452.82Q2066.10 1456.65 2043.79 1456.65Q2021.47 1456.65 2001.08 1468.13L2001.08 1468.13Q1984.50 1475.77 1979.40 1487.89Q1974.30 1500 1974.30 1528.05L1974.30 1528.05Q1974.30 1538.25 1980.68 1541.44Q1987.05 1544.63 1990.88 1536.97L1990.88 1536.97Q1993.43 1533.15 2017.01 1526.14Q2040.60 1519.13 2046.97 1515.30L2046.97 1515.30Q2055.90 1510.20 2087.78 1510.84Q2119.65 1511.47 2128.57 1517.85L2128.57 1517.85Q2156.63 1536.97 2140.05 1561.20L2140.05 1561.20Q2133.68 1568.85 2125.39 1572.04Q2117.10 1575.22 2090.32 1577.78L2090.32 1577.78Q2052.07 1580.32 2025.30 1589.25L2025.30 1589.25L1995.98 1599.45L1998.53 1626.22Q2001.08 1653 2002.99 1655.55Q2004.90 1658.10 2026.58 1649.17L2026.58 1649.17Q2043.15 1642.80 2080.76 1634.51Q2118.38 1626.22 2136.22 1623.67L2136.22 1623.67Q2145.15 1623.67 2148.34 1619.85Q2151.53 1616.03 2154.07 1604.55L2154.07 1604.55Q2180.85 1469.40 2173.20 1460.47L2173.20 1460.47Q2169.38 1456.65 2142.60 1452.82ZM2011.28 941.55L2011.28 941.55Q2020.20 932.63 2035.50 935.17L2035.50 935.17Q2082.68 942.82 2108.18 965.77L2108.18 965.77Q2123.47 979.80 2127.94 987.45Q2132.40 995.10 2134.95 1020.60L2134.95 1020.60Q2137.50 1056.30 2139.41 1058.21Q2141.32 1060.13 2157.90 1055.66Q2174.47 1051.20 2197.43 1051.20Q2220.38 1051.20 2224.84 1046.74Q2229.30 1042.27 2263.73 1048.01Q2298.15 1053.75 2312.18 1067.77L2312.18 1067.77Q2335.13 1090.72 2319.82 1113.67L2319.82 1113.67Q2312.18 1123.88 2298.79 1125.15Q2285.40 1126.42 2275.20 1117.50L2275.20 1117.50Q2266.28 1109.85 2250.97 1109.85L2250.97 1109.85L2235.68 1109.85L2250.97 1128.97Q2284.13 1169.77 2262.45 1185.07L2262.45 1185.07Q2253.53 1191.45 2236.31 1215.04Q2219.10 1238.63 2199.97 1257.75L2199.97 1257.75Q2171.93 1287.07 2188.50 1292.17L2188.50 1292.17Q2191.05 1292.17 2196.15 1290.90L2196.15 1290.90Q2217.82 1287.07 2272.65 1274.32L2272.65 1274.32Q2294.32 1269.22 2335.13 1266.67Q2375.93 1264.13 2426.93 1253.92L2426.93 1253.92Q2526.38 1230.97 2560.80 1255.20L2560.80 1255.20Q2576.10 1266.67 2578.01 1269.86Q2579.93 1273.05 2587.57 1273.05L2587.57 1273.05Q2592.68 1273.05 2610.53 1290.90Q2628.38 1308.75 2630.93 1317.67L2630.93 1317.67Q2641.13 1345.72 2614.35 1372.50L2614.35 1372.50Q2600.32 1385.25 2588.85 1384.61Q2577.38 1383.97 2548.05 1369.95L2548.05 1369.95Q2522.55 1357.20 2509.16 1357.20Q2495.78 1357.20 2474.74 1350.19Q2453.70 1343.17 2350.43 1343.17L2350.43 1343.17Q2199.97 1343.17 2039.33 1376.32L2039.33 1376.32Q1981.95 1389.07 1959 1392.90L1959 1392.90Q1923.30 1399.28 1858.28 1417.76Q1793.25 1436.25 1775.40 1446.45L1775.40 1446.45Q1711.65 1479.60 1695.08 1475.77L1695.08 1475.77Q1679.78 1471.95 1661.29 1456.65Q1642.80 1441.35 1640.25 1428.60L1640.25 1428.60Q1638.97 1419.67 1645.35 1408.84Q1651.72 1398 1659.38 1398L1659.38 1398Q1663.20 1398 1688.70 1386.53Q1714.20 1375.05 1743.53 1371.22L1743.53 1371.22Q1799.63 1364.85 1947.53 1322.78L1947.53 1322.78L1967.93 1317.67L1952.63 1294.72Q1934.78 1270.50 1923.94 1242.45Q1913.10 1214.40 1915.65 1202.92L1915.65 1202.92Q1920.75 1188.90 1934.14 1188.90Q1947.53 1188.90 1959 1196.55L1959 1196.55Q1966.65 1204.20 1986.41 1205.47Q2006.18 1206.75 2018.93 1202.92L2018.93 1202.92Q2029.13 1200.38 2029.13 1202.92L2029.13 1202.92Q2029.13 1205.47 2022.75 1216.95L2022.75 1216.95Q2017.65 1229.70 2027.21 1239.90Q2036.78 1250.10 2036.78 1269.22Q2036.78 1288.35 2026.58 1296L2026.58 1296Q2012.55 1304.92 2022.75 1311.30L2022.75 1311.30Q2030.40 1313.85 2039.33 1310.03L2039.33 1310.03Q2071.20 1296 2141.32 1182.52L2141.32 1182.52L2165.55 1143Q2182.13 1114.95 2182.13 1109.85L2182.13 1109.85Q2179.57 1106.02 2163.64 1106.66Q2147.70 1107.30 2127.94 1110.49Q2108.18 1113.67 2101.80 1117.50L2101.80 1117.50Q2094.15 1126.42 2078.85 1122.60L2078.85 1122.60Q2059.72 1117.50 2043.15 1121.32Q2026.58 1125.15 1990.88 1140.45L1990.88 1140.45Q1971.75 1150.65 1963.46 1150.65Q1955.18 1150.65 1941.15 1157.02L1941.15 1157.02Q1930.95 1162.13 1920.11 1160.85Q1909.28 1159.57 1906.72 1150.65L1906.72 1150.65Q1904.18 1141.72 1899.71 1134.07Q1895.25 1126.42 1897.80 1117.50L1897.80 1117.50Q1900.35 1112.40 1936.05 1097.74Q1971.75 1083.07 2002.35 1075.42L2002.35 1075.42Q2026.58 1069.05 2030.40 1065.86Q2034.22 1062.67 2021.47 1033.35Q2008.73 1004.02 2006.18 977.89Q2003.63 951.75 2011.28 941.55Z"/>
  </svg>