<svg xmlns="http://www.w3.org/2000/svg" viewBox="0 0 3000 3000" width="3000" height="3000">
    <path fill="#000000" d="M380.64 1773.93Q324.61 1773.93 324.61 1726.61L324.61 1726.61Q324.61 1679.30 380.64 1679.30L380.64 1679.30L476.51 1679.30L476.51 1461.40L349.51 1461.40Q292.24 1461.40 292.24 1415.33L292.24 1415.33Q292.24 1366.77 349.51 1366.77L349.51 1366.77L476.51 1366.77L476.51 1186.23Q373.17 1300.78 337.06 1300.78L337.06 1300.78Q292.24 1300.78 292.24 1250.98L292.24 1250.98Q292.24 1228.56 344.53 1183.74L344.53 1183.74Q434.18 1106.54 505.15 989.50L505.15 989.50Q541.26 929.74 577.37 929.74L577.37 929.74Q627.17 929.74 627.17 969.58L627.17 969.58Q627.17 993.24 581.10 1055.49L581.10 1055.49L1343.12 1055.49Q1404.13 1055.49 1404.13 1104.05L1404.13 1104.05Q1404.13 1151.37 1346.85 1151.37L1346.85 1151.37L1252.22 1151.37L1252.22 1366.77L1374.24 1366.77Q1432.76 1366.77 1432.76 1415.33L1432.76 1415.33Q1432.76 1461.40 1374.24 1461.40L1374.24 1461.40L1252.22 1461.40L1252.22 1679.30L1344.36 1679.30Q1400.39 1679.30 1400.39 1726.61L1400.39 1726.61Q1400.39 1773.93 1344.36 1773.93L1344.36 1773.93L380.64 1773.93ZM370.68 2060.30Q317.14 2060.30 317.14 2009.25L317.14 2009.25Q317.14 2000.54 327.10 1983.11Q337.06 1965.67 339.55 1960.69L339.55 1960.69Q370.68 1907.15 393.09 1849.88L393.09 1849.88Q408.03 1815.01 441.65 1815.01L441.65 1815.01Q495.19 1815.01 495.19 1858.59L495.19 1858.59Q495.19 1908.40 425.46 2020.46L425.46 2020.46Q401.81 2060.30 370.68 2060.30L370.68 2060.30ZM736.74 2054.08Q691.92 2054.08 681.96 2008.01L681.96 2008.01L650.83 1874.78Q650.83 1827.47 700.63 1827.47L700.63 1827.47Q734.25 1827.47 755.42 1883.50L755.42 1883.50Q789.04 1973.14 789.04 2001.78L789.04 2001.78Q789.04 2054.08 736.74 2054.08L736.74 2054.08ZM1026.86 2052.83Q985.77 2052.83 970.83 2000.54L970.83 2000.54Q953.39 1945.75 935.96 1904.66L935.96 1904.66Q923.51 1878.52 923.51 1864.82L923.51 1864.82Q923.51 1818.75 973.32 1818.75L973.32 1818.75Q1004.44 1818.75 1023.12 1856.10L1023.12 1856.10Q1079.15 1971.90 1079.15 1999.29L1079.15 1999.29Q1079.15 2052.83 1026.86 2052.83L1026.86 2052.83ZM569.90 1679.30L703.13 1679.30L703.13 1461.40L569.90 1461.40L569.90 1679.30ZM795.26 1679.30L928.49 1679.30L928.49 1461.40L795.26 1461.40L795.26 1679.30ZM1351.83 2057.81Q1320.70 2057.81 1300.78 2020.46L1300.78 2020.46Q1248.49 1919.60 1227.32 1885.99L1227.32 1885.99Q1213.62 1864.82 1213.62 1853.61L1213.62 1853.61Q1213.62 1831.20 1227.32 1821.24Q1241.02 1811.28 1269.65 1811.28L1269.65 1811.28Q1293.31 1811.28 1320.70 1849.88L1320.70 1849.88Q1409.11 1975.63 1409.11 2001.78L1409.11 2001.78Q1409.11 2057.81 1351.83 2057.81L1351.83 2057.81ZM569.90 1366.77L703.13 1366.77L703.13 1151.37L569.90 1151.37L569.90 1366.77ZM1021.88 1679.30L1158.84 1679.30L1158.84 1461.40L1021.88 1461.40L1021.88 1679.30ZM795.26 1366.77L928.49 1366.77L928.49 1151.37L795.26 1151.37L795.26 1366.77ZM1021.88 1366.77L1158.84 1366.77L1158.84 1151.37L1021.88 1151.37L1021.88 1366.77ZM1786.38 2069.02Q1741.55 2069.02 1741.55 2019.21L1741.55 2019.21L1741.55 1486.30Q1702.95 1630.74 1671.20 1699.22Q1639.45 1767.70 1609.57 1767.70L1609.57 1767.70Q1590.89 1767.70 1579.69 1757.74Q1568.48 1747.78 1568.48 1731.59L1568.48 1731.59Q1568.48 1699.22 1583.42 1675.56L1583.42 1675.56Q1685.52 1511.21 1730.35 1280.86L1730.35 1280.86L1623.27 1280.86Q1572.22 1280.86 1572.22 1233.54L1572.22 1233.54Q1572.22 1187.48 1623.27 1187.48L1623.27 1187.48L1741.55 1187.48L1741.55 982.03Q1741.55 932.23 1787.62 932.23L1787.62 932.23Q1832.45 932.23 1832.45 982.03L1832.45 982.03L1832.45 1187.48L1928.32 1187.48Q1981.86 1187.48 1981.86 1234.79L1981.86 1234.79Q1981.86 1280.86 1928.32 1280.86L1928.32 1280.86L1832.45 1280.86L1832.45 1446.46Q1843.65 1434.01 1859.84 1434.01L1859.84 1434.01Q1882.25 1434.01 1919.60 1509.96L1919.60 1509.96Q1956.96 1585.91 1956.96 1602.10L1956.96 1602.10Q1956.96 1640.70 1917.11 1640.70L1917.11 1640.70Q1905.91 1640.70 1897.19 1631.36Q1888.48 1622.02 1882.25 1603.34L1882.25 1603.34Q1866.06 1557.28 1838.67 1497.51L1838.67 1497.51L1832.45 1486.30L1832.45 2019.21Q1832.45 2069.02 1786.38 2069.02L1786.38 2069.02ZM1935.79 2020.46Q1882.25 2020.46 1882.25 1975.63L1882.25 1975.63Q1882.25 1929.57 1929.57 1929.57L1929.57 1929.57L2652.98 1929.57Q2706.52 1929.57 2706.52 1974.39L2706.52 1974.39Q2706.52 2020.46 2659.20 2020.46L2659.20 2020.46L1935.79 2020.46ZM2056.57 1787.62Q1971.90 1787.62 1971.90 1702.95L1971.90 1702.95L1971.90 1431.52Q1971.90 1345.61 2054.08 1345.61L2054.08 1345.61L2142.48 1345.61Q2227.15 1345.61 2227.15 1431.52L2227.15 1431.52L2227.15 1702.95Q2227.15 1787.62 2144.97 1787.62L2144.97 1787.62L2056.57 1787.62ZM2115.09 1710.42Q2146.22 1710.42 2148.71 1676.81L2148.71 1676.81L2148.71 1456.42Q2148.71 1424.05 2115.09 1422.80L2115.09 1422.80L2083.96 1422.80Q2052.83 1422.80 2050.34 1456.42L2050.34 1456.42L2050.34 1676.81Q2050.34 1707.93 2083.96 1710.42L2083.96 1710.42L2115.09 1710.42ZM2183.57 1908.40Q2137.50 1908.40 2137.50 1862.33L2137.50 1862.33Q2137.50 1822.49 2179.83 1821.24L2179.83 1821.24Q2240.84 1817.50 2258.28 1798.83L2258.28 1798.83Q2268.24 1788.87 2273.22 1729.72Q2278.20 1670.58 2283.18 1537.35L2283.18 1537.35Q2286.91 1436.50 2286.91 1334.40L2286.91 1334.40Q2286.91 1295.80 2260.77 1295.80L2260.77 1295.80L2153.69 1295.80Q2125.05 1295.80 2108.86 1283.97Q2092.68 1272.14 2092.68 1250.98L2092.68 1250.98Q2092.68 1239.77 2098.90 1221.09L2098.90 1221.09L2151.20 1074.17L2250.81 1075.42L2239.60 1096.58L2220.92 1151.37Q2218.43 1158.84 2214.07 1171.29Q2209.72 1183.74 2209.72 1191.21L2209.72 1191.21Q2209.72 1206.15 2228.39 1206.15L2228.39 1206.15L2306.84 1206.15Q2381.54 1206.15 2381.54 1283.35L2381.54 1283.35Q2381.54 1410.35 2375.32 1565.99L2375.32 1565.99Q2371.58 1670.58 2363.49 1738.44Q2355.40 1806.30 2346.68 1828.71L2346.68 1828.71Q2315.55 1908.40 2183.57 1908.40L2183.57 1908.40ZM2428.86 1874.78Q2387.77 1874.78 2387.77 1829.96L2387.77 1829.96Q2387.77 1811.28 2410.18 1787.62L2410.18 1787.62Q2453.76 1742.80 2508.54 1643.19L2508.54 1643.19Q2463.72 1562.26 2425.12 1506.23L2425.12 1506.23Q2405.20 1476.34 2405.20 1466.38L2405.20 1466.38Q2405.20 1430.27 2443.80 1430.27L2443.80 1430.27Q2471.19 1430.27 2549.63 1553.54L2549.63 1553.54L2563.33 1512.45Q2600.68 1397.90 2600.68 1375.49L2600.68 1375.49Q2600.68 1358.06 2582.01 1358.06L2582.01 1358.06L2450.02 1358.06Q2405.20 1358.06 2405.20 1315.72L2405.20 1315.72Q2405.20 1273.39 2450.02 1273.39L2450.02 1273.39L2623.10 1273.39Q2692.82 1273.39 2692.82 1338.13L2692.82 1338.13L2687.84 1373.00Q2655.47 1522.41 2603.17 1639.45L2603.17 1639.45L2675.39 1766.46Q2694.07 1797.58 2694.07 1818.75L2694.07 1818.75Q2694.07 1861.08 2649.24 1861.08L2649.24 1861.08Q2618.12 1861.08 2598.19 1813.77L2598.19 1813.77L2555.86 1727.86Q2467.46 1874.78 2428.86 1874.78L2428.86 1874.78ZM1960.69 1092.85Q1908.40 1092.85 1908.40 1048.02L1908.40 1048.02Q1908.40 1001.95 1954.47 1001.95L1954.47 1001.95L2630.57 1001.95Q2684.11 1001.95 2684.11 1048.02L2684.11 1048.02Q2684.11 1092.85 2636.79 1092.85L2636.79 1092.85L1960.69 1092.85Z"/>
  </svg>