<svg xmlns="http://www.w3.org/2000/svg" viewBox="0 0 3000 3000" width="3000" height="3000">
    <path fill="#000000" d="M576.90 996.38L576.90 996.38L612.60 1006.58Q578.17 1075.42 532.27 1141.72Q486.37 1208.03 434.74 1265.40Q383.10 1322.78 329.55 1368.68L329.55 1368.68Q327.00 1364.85 321.26 1359.75Q315.52 1354.65 309.15 1349.55Q302.77 1344.45 297.67 1341.90L297.67 1341.90Q379.27 1278.15 453.86 1187.63Q528.45 1097.10 576.90 996.38ZM471.07 1194L497.85 1155.75L1376.32 1155.75L1376.32 1194L471.07 1194ZM349.95 1500L349.95 1461.75L1396.72 1461.75L1396.72 1500L349.95 1500ZM301.50 1809.83L301.50 1771.58L1420.95 1771.58L1420.95 1809.83L301.50 1809.83ZM735.00 1788.15L735.00 1293.45L771.97 1293.45L771.97 1788.15L735.00 1788.15ZM519.52 1794.53L519.52 1293.45L556.50 1293.45L556.50 1794.53L519.52 1794.53ZM969.60 1794.53L969.60 1293.45L1007.85 1293.45L1007.85 1794.53L969.60 1794.53ZM1195.27 1794.53L1195.27 1293.45L1232.25 1293.45L1232.25 1794.53L1195.27 1794.53ZM682.72 1909.28L682.72 1909.28L717.15 1908Q729.90 1962.83 738.19 2025.30Q746.47 2087.78 747.75 2128.58L747.75 2128.58L710.77 2133.68Q710.77 2104.35 706.95 2066.10Q703.12 2027.85 697.39 1986.41Q691.65 1944.98 682.72 1909.28ZM949.20 1906.73L949.20 1906.73L983.62 1899.08Q1002.75 1934.78 1020.60 1976.21Q1038.45 2017.65 1052.47 2056.54Q1066.50 2095.43 1072.88 2124.75L1072.88 2124.75L1037.17 2134.95Q1025.70 2090.33 1001.47 2025.94Q977.25 1961.55 949.20 1906.73ZM1215.67 1896.53L1215.67 1896.53L1251.37 1888.88Q1274.32 1925.85 1297.27 1969.20Q1320.22 2012.55 1340.63 2053.99Q1361.02 2095.43 1373.77 2124.75L1373.77 2124.75L1336.80 2138.78Q1325.32 2108.18 1304.92 2066.10Q1284.52 2024.03 1261.57 1979.40Q1238.63 1934.78 1215.67 1896.53ZM469.80 1888.88L469.80 1888.88L502.95 1896.53Q488.92 1934.78 469.80 1979.40Q450.67 2024.03 429.64 2066.10Q408.60 2108.18 385.65 2141.33L385.65 2141.33L352.50 2129.85Q375.45 2097.97 397.12 2057.18Q418.80 2016.38 437.92 1972.39Q457.05 1928.40 469.80 1888.88ZM1586.70 1288.35L1586.70 1251.38L1919.47 1251.38L1919.47 1288.35L1586.70 1288.35ZM1748.63 2145.15L1748.63 998.92L1790.70 998.92L1790.70 2145.15L1748.63 2145.15ZM1746.08 1261.58L1746.08 1261.58L1783.05 1270.50Q1770.30 1344.45 1749.26 1427.33Q1728.22 1510.20 1702.72 1590.53Q1677.22 1670.85 1649.17 1739.70Q1621.13 1808.55 1591.80 1857L1591.80 1857Q1587.97 1851.90 1582.24 1845.53Q1576.50 1839.15 1570.76 1833.41Q1565.03 1827.68 1559.92 1825.13L1559.92 1825.13Q1587.97 1779.23 1616.03 1713.56Q1644.08 1647.90 1669.58 1571.40Q1695.08 1494.90 1714.84 1415.21Q1734.60 1335.53 1746.08 1261.58ZM1752.45 1380.15L1781.78 1357.20Q1789.42 1368.68 1807.28 1398Q1825.13 1427.33 1846.16 1461.75Q1867.20 1496.18 1884.41 1525.50Q1901.63 1554.83 1909.28 1568.85L1909.28 1568.85L1876.13 1607.10Q1868.47 1587.97 1851.90 1556.10Q1835.33 1524.22 1816.20 1488.53Q1797.08 1452.83 1779.86 1423.50Q1762.65 1394.18 1752.45 1380.15L1752.45 1380.15ZM2419.28 1391.63L2419.28 1354.65L2662.80 1354.65L2662.80 1391.63L2419.28 1391.63ZM2425.65 1496.18L2425.65 1496.18L2454.98 1477.05Q2504.70 1539.53 2554.43 1612.84Q2604.15 1686.15 2644.95 1756.28Q2685.75 1826.40 2707.43 1881.23L2707.43 1881.23L2675.55 1900.35Q2652.60 1845.53 2612.44 1774.76Q2572.28 1704 2523.83 1630.69Q2475.38 1557.38 2425.65 1496.18ZM1959 1918.20L1959 1380.15L2161.72 1380.15L2161.72 1417.13L1995.98 1417.13L1995.98 1918.20L1959 1918.20ZM2646.23 1366.13L2646.23 1354.65L2655.15 1354.65L2664.07 1353.38L2685.75 1362.30Q2653.88 1566.30 2581.84 1709.10Q2509.80 1851.90 2412.90 1930.95L2412.90 1930.95Q2410.35 1925.85 2404.61 1920.75Q2398.88 1915.65 2393.78 1909.91Q2388.68 1904.18 2383.57 1901.63L2383.57 1901.63Q2477.93 1826.40 2547.41 1690.61Q2616.90 1554.83 2646.23 1366.13L2646.23 1366.13ZM1876.13 2096.70L1876.13 2059.72L2715.07 2059.72L2715.07 2096.70L1876.13 2096.70ZM1930.95 1085.63L1930.95 1048.65L2697.23 1048.65L2697.23 1085.63L1930.95 1085.63ZM2157.90 1299.83L2169.38 1262.85L2338.95 1262.85L2338.95 1299.83L2157.90 1299.83ZM2327.48 1273.05L2327.48 1262.85L2364.45 1262.85Q2364.45 1262.85 2364.45 1267.95Q2364.45 1273.05 2364.45 1279.42Q2364.45 1285.80 2364.45 1289.63L2364.45 1289.63Q2360.63 1470.68 2357.44 1593.08Q2354.25 1715.48 2349.15 1790.70Q2344.05 1865.93 2336.40 1904.81Q2328.75 1943.70 2317.28 1959L2317.28 1959Q2305.80 1975.58 2291.14 1981.95Q2276.48 1988.33 2254.80 1989.60L2254.80 1989.60Q2236.95 1989.60 2205.71 1988.96Q2174.47 1988.33 2143.88 1985.78L2143.88 1985.78Q2142.60 1976.85 2140.05 1966.01Q2137.50 1955.18 2132.40 1948.80L2132.40 1948.80Q2170.65 1950.08 2203.80 1950.71Q2236.95 1951.35 2249.70 1951.35L2249.70 1951.35Q2262.45 1952.63 2270.74 1950.08Q2279.03 1947.53 2285.40 1937.33L2285.40 1937.33Q2294.32 1924.58 2300.70 1885.05Q2307.07 1845.53 2311.54 1769.66Q2316 1693.80 2319.82 1572.04Q2323.65 1450.28 2327.48 1273.05L2327.48 1273.05ZM2224.20 1063.95L2224.20 1063.95L2262.45 1063.95Q2243.32 1122.60 2221.65 1188.90Q2199.97 1255.20 2182.13 1299.83L2182.13 1299.83L2142.60 1299.83Q2163 1251.38 2185.31 1185.71Q2207.63 1120.05 2224.20 1063.95ZM2145.15 1802.18L2145.15 1380.15L2182.13 1380.15L2182.13 1839.15L1976.85 1839.15L1976.85 1802.18L2145.15 1802.18Z"/>
  </svg>