<svg xmlns="http://www.w3.org/2000/svg" viewBox="0 0 3000 3000" width="3000" height="3000">
    <path fill="#000000" d="M802.57 1716.75L802.57 1716.75Q807.67 1593.07 810.22 1581.60Q812.77 1570.13 819.15 1541.44Q825.52 1512.75 827.44 1505.74Q829.35 1498.72 853.57 1498.72L853.57 1498.72Q886.72 1498.72 905.21 1530.60Q923.70 1562.47 903.30 1586.70L903.30 1586.70Q886.72 1604.55 873.97 1719.30L873.97 1719.30Q861.22 1839.15 984.90 1874.85L984.90 1874.85Q1024.42 1887.60 1084.99 1888.88Q1145.55 1890.15 1186.35 1882.50L1186.35 1882.50Q1214.40 1876.13 1246.27 1855.09Q1278.15 1834.05 1290.90 1813.65L1290.90 1813.65Q1298.55 1799.63 1312.57 1756.28Q1326.60 1712.92 1332.97 1688.70L1332.97 1688.70Q1336.80 1672.13 1344.45 1672.13L1344.45 1672.13Q1352.10 1672.13 1364.85 1688.70Q1377.60 1705.28 1377.60 1715.47Q1377.60 1725.67 1386.52 1758.83Q1395.45 1791.97 1395.45 1857L1395.45 1857Q1395.45 1910.55 1388.44 1939.88Q1381.42 1969.20 1361.02 1989.60L1361.02 1989.60L1334.25 2018.92Q1316.40 2039.33 1283.25 2045.70Q1250.10 2052.07 1167.22 2052.07L1167.22 2052.07Q1085.63 2052.07 1038.45 2044.42Q991.27 2036.78 944.10 2012.55L944.10 2012.55Q863.77 1973.03 842.10 1932.22L842.10 1932.22Q829.35 1908 825.52 1897.80L825.52 1897.80Q806.40 1867.20 803.21 1840.42Q800.02 1813.65 802.57 1716.75ZM747.75 1140.45L747.75 1140.45Q756.67 1131.52 779.62 1144.27L779.62 1144.27Q792.37 1150.65 817.87 1208.66Q843.37 1266.67 843.37 1290.90L843.37 1290.90Q845.92 1303.65 850.39 1306.84Q854.85 1310.03 880.35 1310.03L880.35 1310.03Q1019.32 1316.40 1085.63 1322.78L1085.63 1322.78Q1146.82 1329.15 1183.80 1330.42L1183.80 1330.42L1220.77 1331.70L1234.80 1358.47Q1265.40 1418.40 1241.17 1441.35L1241.17 1441.35Q1213.13 1471.95 1162.13 1441.35L1162.13 1441.35Q1099.65 1405.65 896.92 1395.45L896.92 1395.45L826.80 1391.63L822.97 1412.03Q819.15 1431.15 807.04 1475.14Q794.92 1519.13 791.10 1533.15Q787.27 1547.17 780.26 1555.46Q773.25 1563.75 760.50 1604.55Q747.75 1645.35 740.10 1665.11Q732.45 1684.88 732.45 1690.61Q732.45 1696.35 706.95 1735.24Q681.45 1774.13 678.90 1780.50L678.90 1780.50Q675.07 1795.80 620.89 1853.17Q566.70 1910.55 542.47 1928.40L542.47 1928.40Q511.87 1950.08 428.36 1991.51Q344.85 2032.95 337.20 2031.67L337.20 2031.67Q327.00 2030.40 330.82 2020.20L330.82 2020.20Q332.10 2016.38 343.57 1999.80L343.57 1999.80Q379.27 1944.97 497.85 1841.70L497.85 1841.70Q569.25 1777.95 620.25 1668.30Q671.25 1558.65 684.00 1438.80L684.00 1438.80Q685.27 1415.85 680.81 1413.30Q676.35 1410.75 643.20 1417.13L643.20 1417.13Q542.47 1437.53 519.52 1466.85L519.52 1466.85Q494.02 1500 445.57 1482.15L445.57 1482.15Q423.90 1477.05 409.87 1460.47Q395.85 1443.90 395.85 1427.32L395.85 1427.32Q395.85 1398 462.79 1371.86Q529.72 1345.72 654.67 1330.42L654.67 1330.42Q696.75 1324.05 703.12 1320.86Q709.50 1317.67 709.50 1296L709.50 1296Q709.50 1270.50 718.42 1225.24Q727.35 1179.97 736.27 1172.32L736.27 1172.32Q743.92 1163.40 743.92 1154.47Q743.92 1145.55 747.75 1140.45ZM921.15 1021.87L921.15 1021.87Q949.20 1015.50 994.46 1016.14Q1039.72 1016.77 1044.82 1023.15L1044.82 1023.15Q1081.80 1067.77 1090.72 1093.91Q1099.65 1120.05 1081.80 1139.17L1081.80 1139.17Q1072.88 1150.65 1034.63 1148.10Q996.37 1145.55 958.12 1136.63L958.12 1136.63Q893.10 1120.05 865.69 1116.86Q838.27 1113.67 786.00 1117.50L786.00 1117.50Q666.15 1123.88 634.27 1144.27L634.27 1144.27Q615.15 1157.02 592.84 1138.54Q570.52 1120.05 567.97 1092L567.97 1092Q566.70 1076.70 570.52 1072.88Q574.35 1069.05 597.30 1061.40L597.30 1061.40Q654.67 1042.27 794.92 1032.07L794.92 1032.07Q896.92 1026.97 921.15 1021.87ZM1823.85 1046.10L1823.85 1046.10Q1835.33 1030.80 1874.85 1052.47L1874.85 1052.47Q1895.25 1063.95 1899.71 1069.69Q1904.18 1075.42 1906.72 1093.27L1906.72 1093.27Q1909.28 1114.95 1916.93 1132.80L1916.93 1132.80Q1923.30 1153.20 1922.03 1158.94Q1920.75 1164.67 1909.28 1181.25L1909.28 1181.25Q1895.25 1200.38 1895.25 1215.67L1895.25 1215.67Q1895.25 1228.42 1897.16 1229.70Q1899.08 1230.97 1910.55 1229.70L1910.55 1229.70Q1961.55 1219.50 1980.68 1228.42L1980.68 1228.42Q1995.98 1236.07 1995.98 1250.10L1995.98 1250.10Q1995.98 1273.05 1976.21 1291.54Q1956.45 1310.03 1929.68 1310.03L1929.68 1310.03Q1909.28 1310.03 1897.16 1315.76Q1885.05 1321.50 1887.60 1332.34Q1890.15 1343.17 1893.34 1359.11Q1896.53 1375.05 1902.90 1383.97L1902.90 1383.97Q1910.55 1395.45 1907.36 1405.65Q1904.18 1415.85 1887.60 1433.70L1887.60 1433.70Q1865.92 1457.92 1865.92 1464.30Q1865.92 1470.67 1929.68 1477.05L1929.68 1477.05Q2015.10 1484.70 2021.47 1503.82L2021.47 1503.82Q2025.30 1512.75 2015.10 1535.70Q2004.90 1558.65 1993.43 1568.85L1993.43 1568.85Q1981.95 1577.78 1964.74 1581.60Q1947.53 1585.42 1937.33 1579.69Q1927.13 1573.95 1907.36 1563.11Q1887.60 1552.28 1874.85 1543.99Q1862.10 1535.70 1857 1535.70Q1851.90 1535.70 1851.90 1603.28Q1851.90 1670.85 1845.53 1687.42L1845.53 1687.42Q1841.70 1701.45 1842.34 1783.69Q1842.97 1865.92 1848.08 1869.75L1848.08 1869.75Q1849.35 1872.30 1880.59 1841.70Q1911.83 1811.10 1941.79 1777.95Q1971.75 1744.80 1971.75 1740.97L1971.75 1740.97Q1971.75 1738.42 1985.78 1717.39Q1999.80 1696.35 1999.80 1690.61Q1999.80 1684.88 2013.83 1656.83L2013.83 1656.83Q2024.03 1635.15 2027.85 1617.94Q2031.68 1600.72 2043.15 1530.60L2043.15 1530.60Q2059.72 1424.78 2068.65 1331.70L2068.65 1331.70Q2072.47 1280.70 2075.66 1268.59Q2078.85 1256.47 2073.75 1250.10L2073.75 1250.10Q2069.93 1245 2072.47 1224.60Q2075.03 1204.20 2080.13 1200.38L2080.13 1200.38Q2092.88 1186.35 2206.35 1157.02Q2319.82 1127.70 2338.95 1132.80L2338.95 1132.80Q2350.43 1135.35 2366.36 1157.66Q2382.30 1179.97 2401.43 1191.45L2401.43 1191.45Q2402.70 1191.45 2403.98 1192.72L2403.98 1192.72Q2421.82 1204.20 2421.19 1212.49Q2420.55 1220.77 2400.15 1260.30L2400.15 1260.30Q2398.88 1262.85 2397.60 1265.40L2397.60 1265.40Q2386.13 1284.53 2382.30 1284.53Q2378.48 1284.53 2355.53 1316.40Q2332.57 1348.28 2310.90 1368.67L2310.90 1368.67Q2305.80 1375.05 2301.98 1380.79Q2298.15 1386.53 2296.24 1389.71Q2294.32 1392.90 2295.60 1394.17L2295.60 1394.17Q2300.70 1396.72 2337.68 1396.72L2337.68 1396.72Q2367 1395.45 2385.49 1401.19Q2403.98 1406.92 2420.55 1423.50L2420.55 1423.50Q2434.57 1436.25 2434.57 1461.75L2434.57 1461.75Q2434.57 1492.35 2415.45 1522.95L2415.45 1522.95Q2406.53 1538.25 2406.53 1547.17L2406.53 1547.17Q2405.25 1553.55 2384.85 1600.09Q2364.45 1646.63 2347.88 1681.05L2347.88 1681.05Q2333.85 1707.83 2332.57 1716.11Q2331.30 1724.40 2340.23 1734.60L2340.23 1734.60Q2350.43 1744.80 2393.78 1774.13Q2437.13 1803.45 2458.80 1813.65L2458.80 1813.65Q2528.93 1846.80 2559.53 1853.17L2559.53 1853.17Q2585.03 1859.55 2600.32 1865.92L2600.32 1865.92Q2646.23 1886.33 2693.40 1897.80L2693.40 1897.80Q2766.07 1911.83 2760.98 1929.67L2760.98 1929.67Q2759.70 1933.50 2755.88 1937.33L2755.88 1937.33Q2746.95 1942.42 2746.95 1947.53L2746.95 1947.53Q2746.95 1960.28 2717.63 1960.28L2717.63 1960.28Q2701.05 1960.28 2696.59 1964.10Q2692.13 1967.92 2661.53 1970.47L2661.53 1970.47Q2623.28 1973.03 2576.10 1999.80L2576.10 1999.80Q2542.95 2018.92 2490.68 2001.08L2490.68 2001.08Q2467.73 1992.15 2402.70 1950.08Q2337.68 1908 2310.90 1883.78L2310.90 1883.78L2273.93 1850.63Q2256.07 1834.05 2245.24 1837.88Q2234.40 1841.70 2202.53 1872.30L2202.53 1872.30Q2168.10 1906.72 2165.55 1906.72Q2163 1906.72 2127.94 1930.31Q2092.88 1953.90 2087.78 1953.90Q2082.68 1953.90 2058.45 1962.83L2058.45 1962.83Q2040.60 1969.20 2020.20 1967.29Q1999.80 1965.38 1999.80 1957.72L1999.80 1957.72Q1999.80 1950.08 2013.19 1939.88Q2026.58 1929.67 2059.72 1900.35L2059.72 1900.35L2108.18 1858.28Q2132.40 1839.15 2159.18 1808.55Q2185.95 1777.95 2189.78 1766.47L2189.78 1766.47Q2192.32 1756.28 2173.20 1720.58L2173.20 1720.58Q2134.95 1646.63 2126.03 1621.13L2126.03 1621.13Q2120.93 1603.28 2117.10 1600.72L2117.10 1600.72Q2114.55 1599.45 2106.90 1612.20Q2099.25 1624.95 2090.96 1644.08Q2082.68 1663.20 2077.57 1677.22L2077.57 1677.22Q2071.20 1697.63 2065.46 1704.64Q2059.72 1711.65 2042.51 1747.35Q2025.30 1783.05 2003.63 1802.17L2003.63 1802.17L1970.47 1831.50Q1960.28 1840.42 1930.95 1859.55Q1901.63 1878.67 1890.79 1889.51Q1879.95 1900.35 1859.55 1909.28L1859.55 1909.28L1841.70 1916.92L1841.70 1953.90Q1841.70 1980.67 1839.15 1988.33Q1836.60 1995.97 1826.40 2008.72L1826.40 2008.72Q1809.83 2026.58 1804.72 2026.58L1804.72 2026.58Q1797.08 2026.58 1778.59 2004.90Q1760.10 1983.22 1760.10 1976.85L1760.10 1976.85Q1760.10 1966.65 1752.45 1956.45L1752.45 1956.45Q1742.25 1941.15 1755 1888.88L1755 1888.88Q1760.10 1869.75 1760.10 1814.29Q1760.10 1758.83 1764.56 1681.69Q1769.03 1604.55 1767.75 1603.28L1767.75 1603.28Q1766.47 1603.28 1748.63 1620.49Q1730.78 1637.70 1707.83 1661.92Q1684.88 1686.15 1668.30 1704L1668.30 1704Q1642.80 1733.33 1617.94 1745.44Q1593.08 1757.55 1579.05 1768.39Q1565.03 1779.22 1543.35 1789.42L1543.35 1789.42Q1529.33 1797.08 1526.14 1797.08Q1522.95 1797.08 1519.13 1790.70L1519.13 1790.70Q1514.03 1781.78 1514.03 1779.86Q1514.03 1777.95 1565.66 1725.04Q1617.30 1672.13 1627.50 1657.46Q1637.70 1642.80 1665.75 1607.10L1665.75 1607.10Q1697.63 1568.85 1712.92 1543.35Q1728.22 1517.85 1755 1465.57L1755 1465.57L1789.42 1394.17Q1793.25 1385.25 1796.44 1361.66Q1799.63 1338.07 1791.97 1338.07L1791.97 1338.07Q1781.78 1338.07 1752.45 1349.55Q1723.13 1361.03 1709.10 1371.22L1709.10 1371.22Q1693.80 1382.70 1683.60 1383.34Q1673.40 1383.97 1654.28 1375.05L1654.28 1375.05Q1641.53 1371.22 1633.88 1358.47L1633.88 1358.47Q1627.50 1350.82 1627.50 1347Q1627.50 1343.17 1633.88 1332.97L1633.88 1332.97Q1641.53 1317.67 1660.65 1308.75L1660.65 1308.75Q1677.22 1299.82 1735.24 1280.70Q1793.25 1261.57 1800.90 1261.57L1800.90 1261.57Q1816.20 1261.57 1811.10 1151.92L1811.10 1151.92Q1808.55 1099.65 1811.10 1079.89Q1813.65 1060.13 1823.85 1046.10ZM2281.57 1224.60L2281.57 1224.60L2282.85 1210.57L2253.53 1209.30Q2199.97 1209.30 2174.47 1222.05L2174.47 1222.05Q2165.55 1227.15 2150.25 1227.15L2150.25 1227.15Q2140.05 1227.15 2133.68 1236.07Q2127.30 1245 2134.95 1252.65L2134.95 1252.65Q2142.60 1262.85 2152.80 1327.88L2152.80 1327.88Q2155.35 1343.17 2150.89 1352.10Q2146.43 1361.03 2144.51 1412.03Q2142.60 1463.03 2146.43 1466.21Q2150.25 1469.40 2155.35 1479.60Q2160.45 1489.80 2164.28 1497.45Q2168.10 1505.10 2176.39 1522.95Q2184.68 1540.80 2196.15 1558.01Q2207.63 1575.22 2217.82 1596.90L2217.82 1596.90Q2225.47 1613.47 2235.68 1627.50Q2245.88 1641.53 2250.97 1641.53L2250.97 1641.53Q2258.63 1641.53 2279.03 1584.15L2279.03 1584.15Q2285.40 1567.57 2286.68 1514.03Q2287.95 1460.47 2282.85 1455.38L2282.85 1455.38Q2280.30 1451.55 2260.54 1452.82Q2240.78 1454.10 2229.30 1459.20L2229.30 1459.20Q2215.28 1465.57 2206.35 1475.77L2206.35 1475.77Q2191.05 1493.63 2177.03 1478.32L2177.03 1478.32Q2168.10 1468.13 2170.01 1450.28Q2171.93 1432.42 2183.40 1414.57L2183.40 1414.57Q2198.70 1395.45 2198.70 1393.54Q2198.70 1391.63 2211.45 1371.22L2211.45 1371.22Q2234.40 1335.53 2258.63 1285.80L2258.63 1285.80Q2281.57 1241.17 2281.57 1224.60Z"/>
  </svg>