<svg xmlns="http://www.w3.org/2000/svg" viewBox="0 0 3000 3000" width="3000" height="3000">
    <path fill="#000000" d="M975.97 1923.94L975.97 1923.94Q975.97 1912.46 959.40 1890.79Q942.82 1869.11 917.32 1843.61Q891.82 1818.11 866.32 1794.53Q840.82 1770.94 822.34 1752.45Q803.85 1733.96 798.75 1730.14L798.75 1730.14Q783.45 1717.39 769.42 1717.39L769.42 1717.39Q757.95 1717.39 739.46 1732.05Q720.97 1746.71 720.97 1764.56L720.97 1764.56Q720.97 1778.59 740.10 1795.16L740.10 1795.16Q773.25 1824.49 811.50 1870.39Q849.75 1916.29 885.45 1962.19L885.45 1962.19Q900.75 1981.31 917.32 1981.31Q933.90 1981.31 954.94 1960.28Q975.97 1939.24 975.97 1923.94ZM932.62 1408.84L932.62 1408.84L1362.30 1385.89Q1377.60 1384.61 1392.26 1378.88Q1406.92 1373.14 1406.92 1357.84L1406.92 1357.84Q1406.92 1347.64 1392.26 1329.79Q1377.60 1311.94 1357.84 1297.28Q1338.07 1282.61 1320.22 1282.61L1320.22 1282.61Q1313.85 1282.61 1310.02 1285.16L1310.02 1285.16Q1297.27 1288.99 1286.44 1290.90Q1275.60 1292.81 1264.12 1294.09L1264.12 1294.09L880.35 1317.04Q893.10 1255.84 902.66 1181.89Q912.22 1107.94 916.05 1032.71L916.05 1032.71L916.05 1027.61Q916.05 1005.94 905.21 991.91Q894.37 977.89 866.32 967.69L866.32 967.69Q826.80 951.11 807.67 951.11L807.67 951.11Q787.27 951.11 787.27 967.69L787.27 967.69Q787.27 975.34 792.37 985.54L792.37 985.54Q797.47 997.01 802.57 1010.40Q807.67 1023.79 807.67 1040.36L807.67 1040.36L807.67 1045.46Q801.30 1188.26 771.97 1322.14L771.97 1322.14L434.10 1342.54L417.52 1342.54Q404.77 1342.54 390.75 1341.26Q376.72 1339.99 362.70 1337.44L362.70 1337.44Q361.42 1337.44 360.15 1336.80Q358.87 1336.16 356.32 1336.16L356.32 1336.16Q341.02 1336.16 341.02 1351.46L341.02 1351.46Q341.02 1357.84 342.30 1361.66L342.30 1361.66Q358.87 1413.94 380.55 1424.78Q402.22 1435.61 422.62 1435.61L422.62 1435.61Q432.82 1435.61 442.39 1434.97Q451.95 1434.34 462.15 1434.34L462.15 1434.34L747.75 1419.04Q713.32 1540.16 652.12 1641.53Q590.92 1742.89 520.16 1818.75Q449.40 1894.61 386.29 1943.70Q323.17 1992.79 282.37 2019.56L282.37 2019.56Q267.07 2029.76 259.42 2039.33Q251.77 2048.89 251.77 2057.81L251.77 2057.81Q251.77 2074.39 268.99 2074.39Q286.20 2074.39 327.64 2056.54Q369.07 2038.69 425.81 2003.63Q482.55 1968.56 545.66 1914.38Q608.77 1860.19 669.97 1786.88Q731.17 1713.56 777.07 1621.76L777.07 1621.76Q800.02 1575.86 819.15 1526.14Q838.27 1476.41 848.47 1440.71L848.47 1440.71Q899.47 1550.36 970.24 1652.36Q1041 1754.36 1112.40 1828.95Q1183.80 1903.54 1243.72 1953.90Q1303.65 2004.26 1343.81 2029.13Q1383.97 2053.99 1391.63 2053.99L1391.63 2053.99Q1400.55 2053.99 1420.95 2044.43Q1441.35 2034.86 1460.47 2020.84Q1479.60 2006.81 1479.60 1991.51Q1479.60 1976.21 1452.82 1963.46L1452.82 1963.46Q1349.55 1909.91 1252.01 1824.49Q1154.47 1739.06 1071.60 1630.05Q988.72 1521.04 932.62 1408.84ZM1802.17 1577.14L1802.17 1577.14L1799.63 1957.09Q1799.63 1981.31 1797.71 1997.89Q1795.80 2014.46 1793.25 2028.49L1793.25 2028.49Q1791.97 2033.59 1791.97 2043.79L1791.97 2043.79Q1791.97 2062.91 1806 2075.66Q1820.03 2088.41 1837.24 2095.43Q1854.45 2102.44 1865.92 2102.44L1865.92 2102.44Q1893.97 2102.44 1893.97 2064.19L1893.97 2064.19L1887.60 1588.61Q1918.20 1609.01 1958.36 1640.25Q1998.53 1671.49 2038.05 1705.91L2038.05 1705.91Q2050.80 1718.66 2061 1718.66L2061 1718.66Q2075.03 1718.66 2085.22 1704.64Q2095.43 1690.61 2101.16 1675.95Q2106.90 1661.29 2106.90 1654.91L2106.90 1654.91Q2106.90 1644.71 2099.25 1635.79Q2091.60 1626.86 2068.01 1609.01Q2044.43 1591.16 2003.63 1564.39L2003.63 1564.39Q2003.63 1563.11 2019.56 1546.54Q2035.50 1529.96 2053.35 1510.20Q2071.20 1490.44 2083.95 1472.59Q2096.70 1454.74 2096.70 1443.26L2096.70 1443.26Q2096.70 1426.69 2082.04 1412.66Q2067.38 1398.64 2050.16 1389.08Q2032.95 1379.51 2018.93 1379.51Q2004.90 1379.51 2004.90 1399.91L2004.90 1399.91Q2004.90 1417.76 1990.24 1443.90Q1975.58 1470.04 1957.72 1492.99Q1939.88 1515.94 1936.05 1521.04L1936.05 1521.04Q1928.40 1517.21 1913.10 1509.56Q1897.80 1501.91 1887.60 1495.54L1887.60 1495.54L1887.60 1471.31Q1916.93 1430.51 1946.89 1383.97Q1976.85 1337.44 2003.63 1286.44L2003.63 1286.44Q2007.45 1281.34 2015.10 1272.41Q2022.75 1263.49 2022.75 1252.01L2022.75 1252.01Q2022.75 1234.16 2002.99 1218.86Q1983.22 1203.56 1962.83 1203.56L1962.83 1203.56Q1959 1203.56 1953.90 1203.56Q1948.80 1203.56 1942.43 1204.84L1942.43 1204.84L1665.75 1231.61Q1660.65 1232.89 1655.55 1232.89Q1650.45 1232.89 1644.08 1232.89L1644.08 1232.89Q1622.40 1232.89 1607.10 1227.79L1607.10 1227.79Q1603.28 1226.51 1598.17 1226.51L1598.17 1226.51Q1584.15 1226.51 1584.15 1240.54L1584.15 1240.54Q1584.15 1245.64 1591.16 1264.13Q1598.17 1282.61 1616.66 1299.83Q1635.15 1317.04 1665.75 1317.04L1665.75 1317.04Q1672.13 1317.04 1680.41 1316.40Q1688.70 1315.76 1697.63 1314.49L1697.63 1314.49L1896.53 1292.81Q1840.42 1401.19 1756.28 1507.01Q1672.13 1612.84 1565.03 1726.31L1565.03 1726.31Q1542.08 1750.54 1542.08 1764.56Q1542.08 1778.59 1556.10 1778.59L1556.10 1778.59Q1568.85 1778.59 1606.46 1754.36Q1644.08 1730.14 1698.26 1681.69Q1752.45 1633.24 1802.17 1577.14ZM2383.57 1234.16L2383.57 1234.16L2551.88 1222.69Q2549.32 1445.81 2531.48 1638.34Q2513.63 1830.86 2476.65 1971.11L2476.65 1971.11Q2476.65 1973.66 2475.38 1973.66L2475.38 1973.66L2474.10 1973.66Q2474.10 1973.66 2472.82 1972.39L2472.82 1972.39Q2432.03 1959.64 2391.86 1939.88Q2351.70 1920.11 2310.90 1895.89L2310.90 1895.89Q2300.70 1888.24 2291.14 1885.69Q2281.57 1883.14 2273.93 1883.14L2273.93 1883.14Q2252.25 1883.14 2252.25 1900.99L2252.25 1900.99Q2252.25 1909.91 2272.01 1932.23Q2291.78 1954.54 2320.46 1981.95Q2349.15 2009.36 2381.03 2034.23Q2412.90 2059.09 2441.59 2076.30Q2470.28 2093.51 2488.13 2093.51L2488.13 2093.51Q2516.18 2093.51 2546.14 2064.83Q2576.10 2036.14 2588.85 1954.54L2588.85 1954.54Q2611.80 1824.49 2627.74 1638.98Q2643.68 1453.46 2647.50 1220.14L2647.50 1220.14Q2647.50 1215.04 2650.05 1206.75Q2652.60 1198.46 2652.60 1188.26L2652.60 1188.26Q2652.60 1172.96 2637.30 1153.20Q2622 1133.44 2588.85 1133.44L2588.85 1133.44L2574.82 1133.44L2127.30 1162.76Q2122.20 1162.76 2117.10 1163.40Q2112 1164.04 2105.63 1164.04L2105.63 1164.04Q2082.68 1164.04 2064.82 1158.94L2064.82 1158.94Q2059.72 1157.66 2053.35 1157.66L2053.35 1157.66Q2035.50 1157.66 2035.50 1174.24L2035.50 1174.24Q2035.50 1178.06 2038.05 1186.99L2038.05 1186.99Q2044.43 1201.01 2061.64 1225.88Q2078.85 1250.74 2115.82 1250.74L2115.82 1250.74Q2123.47 1250.74 2133.68 1250.10Q2143.88 1249.46 2154.07 1248.19L2154.07 1248.19L2280.30 1239.26Q2271.38 1379.51 2236.95 1505.10Q2202.53 1630.69 2155.35 1732.05Q2108.18 1833.41 2057.18 1908.64Q2006.18 1983.86 1965.38 2032.31L1965.38 2032.31Q1941.15 2057.81 1941.15 2074.39L1941.15 2074.39Q1941.15 2092.24 1960.28 2092.24Q1979.40 2092.24 2023.39 2053.99Q2067.38 2015.74 2123.47 1943.70Q2179.57 1871.66 2235.04 1767.11Q2290.50 1662.56 2330.66 1526.78Q2370.82 1390.99 2383.57 1234.16ZM1922.03 1175.51L1922.03 1175.51Q1944.97 1152.56 1944.97 1138.54L1944.97 1138.54Q1944.97 1125.79 1925.85 1102.84Q1906.72 1079.89 1879.31 1054.39Q1851.90 1028.89 1823.85 1003.39Q1795.80 977.89 1774.13 960.04L1774.13 960.04Q1758.83 948.56 1746.08 948.56L1746.08 948.56Q1735.88 948.56 1715.47 963.23Q1695.08 977.89 1695.08 997.01L1695.08 997.01Q1695.08 1007.21 1706.55 1018.69L1706.55 1018.69Q1748.63 1058.21 1786.24 1096.46Q1823.85 1134.71 1855.72 1175.51L1855.72 1175.51Q1863.38 1184.44 1870.39 1190.81Q1877.40 1197.19 1886.33 1197.19L1886.33 1197.19Q1900.35 1197.19 1922.03 1175.51Z"/>
  </svg>