<svg xmlns="http://www.w3.org/2000/svg" viewBox="0 0 3000 3000" width="3000" height="3000">
    <path fill="#000000" d="M309.15 1392.90L309.15 1355.93L1417.13 1355.93L1417.13 1392.90L309.15 1392.90ZM685.27 1854.45L685.27 1854.45L712.05 1832.78Q763.05 1871.03 816.60 1918.20Q870.15 1965.38 916.69 2010.64Q963.22 2055.90 991.27 2091.60L991.27 2091.60L961.95 2119.65Q933.90 2082.68 888.00 2036.14Q842.10 1989.60 789.19 1941.79Q736.27 1893.98 685.27 1854.45ZM868.87 1381.43L904.57 1371.22Q949.20 1544.63 1024.42 1692.53Q1099.65 1840.43 1206.11 1949.44Q1312.57 2058.45 1450.27 2117.10L1450.27 2117.10Q1445.17 2120.93 1439.44 2126.66Q1433.70 2132.40 1429.24 2138.14Q1424.77 2143.88 1420.95 2150.25L1420.95 2150.25Q1283.25 2086.50 1175.51 1973.66Q1067.77 1860.83 991.27 1710.38Q914.77 1559.92 868.87 1381.43L868.87 1381.43ZM844.65 998.92L844.65 998.92L882.90 998.92Q882.90 1075.42 879.07 1172.33Q875.25 1269.22 859.95 1377.60Q844.65 1485.97 809.59 1596.26Q774.52 1706.55 712.69 1809.19Q650.85 1911.83 553.95 1998.53Q457.05 2085.22 316.80 2145.15L316.80 2145.15Q311.70 2138.78 303.41 2130.49Q295.12 2122.20 288.75 2117.10L288.75 2117.10Q427.72 2059.72 523.35 1974.94Q618.97 1890.15 679.54 1789.43Q740.10 1688.70 773.89 1580.33Q807.67 1471.95 822.97 1366.13Q838.27 1260.30 841.46 1165.95Q844.65 1071.60 844.65 998.92ZM2011.28 1153.20L2011.28 1116.22L2647.50 1116.22L2647.50 1153.20L2011.28 1153.20ZM2627.10 1127.70L2627.10 1116.22L2665.35 1116.22Q2665.35 1116.22 2665.35 1121.96Q2665.35 1127.70 2665.35 1134.71Q2665.35 1141.72 2665.35 1145.55L2665.35 1145.55Q2656.43 1398 2647.50 1571.40Q2638.57 1744.80 2627.74 1853.18Q2616.90 1961.55 2602.24 2020.20Q2587.57 2078.85 2567.18 2101.80L2567.18 2101.80Q2550.60 2122.20 2530.20 2129.85Q2509.80 2137.50 2480.48 2138.78L2480.48 2138.78Q2449.88 2138.78 2398.88 2138.14Q2347.88 2137.50 2291.78 2132.40L2291.78 2132.40Q2290.50 2122.20 2287.95 2111.36Q2285.40 2100.53 2279.03 2092.88L2279.03 2092.88Q2345.32 2097.97 2400.15 2099.89Q2454.98 2101.80 2477.93 2101.80L2477.93 2101.80Q2495.78 2101.80 2508.53 2097.97Q2521.28 2094.15 2532.75 2081.40L2532.75 2081.40Q2550.60 2062.28 2565.26 2004.26Q2579.93 1946.25 2590.76 1836.60Q2601.60 1726.95 2610.53 1552.91Q2619.45 1378.88 2627.10 1127.70L2627.10 1127.70ZM2270.10 1128.97L2270.10 1128.97L2309.63 1131.53Q2300.70 1315.13 2282.85 1468.13Q2265 1621.13 2228.66 1745.44Q2192.32 1869.75 2129.85 1970.48Q2067.38 2071.20 1971.75 2150.25L1971.75 2150.25Q1969.20 2146.43 1962.83 2141.33Q1956.45 2136.22 1950.71 2131.13Q1944.97 2126.03 1939.88 2123.47L1939.88 2123.47Q2035.50 2049.53 2096.70 1951.35Q2157.90 1853.18 2192.96 1729.50Q2228.03 1605.83 2245.24 1456.01Q2262.45 1306.20 2270.10 1128.97ZM1783.05 2142.60L1783.05 1548.45L1821.30 1503.83L1821.30 2142.60L1783.05 2142.60ZM1995.98 1471.95L1995.98 1471.95L2030.40 1497.45Q1999.80 1534.43 1962.19 1572.68Q1924.58 1610.93 1893.97 1638.97L1893.97 1638.97L1867.20 1618.58Q1897.80 1589.25 1936.05 1546.54Q1974.30 1503.83 1995.98 1471.95ZM1573.95 1270.50L1573.95 1233.53L1951.35 1233.53L1951.35 1270.50L1573.95 1270.50ZM1786.88 1540.80L1813.65 1517.85Q1827.67 1531.88 1855.09 1564.39Q1882.50 1596.90 1913.74 1635.15Q1944.97 1673.40 1971.75 1706.55Q1998.53 1739.70 2010 1755L2010 1755L1980.68 1788.15Q1967.93 1769.03 1941.79 1733.96Q1915.65 1698.90 1885.05 1660.65Q1854.45 1622.40 1828.31 1589.25Q1802.17 1556.10 1786.88 1540.80L1786.88 1540.80ZM1944.97 1246.28L1944.97 1233.53L1955.18 1233.53L1964.10 1230.97L1989.60 1247.55Q1948.80 1352.10 1882.50 1453.46Q1816.20 1554.83 1739.70 1641.53Q1663.20 1728.23 1590.53 1790.70L1590.53 1790.70Q1587.97 1785.60 1582.24 1779.23Q1576.50 1772.85 1570.76 1767.75Q1565.03 1762.65 1559.92 1760.10L1559.92 1760.10Q1632.60 1701.45 1706.55 1617.94Q1780.50 1534.43 1844.25 1438.16Q1908 1341.90 1944.97 1246.28L1944.97 1246.28ZM1725.67 1018.05L1725.67 1018.05L1752.45 1002.75Q1785.60 1042.28 1817.47 1092Q1849.35 1141.72 1863.38 1177.42L1863.38 1177.42L1834.05 1196.55Q1817.47 1159.58 1786.88 1109.85Q1756.28 1060.13 1725.67 1018.05Z"/>
  </svg>