<svg xmlns="http://www.w3.org/2000/svg" viewBox="0 0 3000 3000" width="3000" height="3000">
    <path fill="#000000" d="M350.76 2047.85Q322.12 2047.85 309.67 2034.78Q297.22 2021.70 297.22 1991.82L297.22 1991.82Q297.22 1958.20 360.72 1927.08L360.72 1927.08Q543.75 1838.67 650.21 1689.26Q756.67 1539.84 786.55 1341.87L786.55 1341.87L374.41 1341.87Q308.42 1341.87 308.42 1289.58L308.42 1289.58Q308.42 1236.04 374.41 1236.04L374.41 1236.04L799.00 1236.04Q806.47 1140.16 806.47 995.73L806.47 995.73Q806.47 934.72 862.50 934.72L862.50 934.72Q916.04 934.72 916.04 996.97L916.04 996.97Q914.79 1089.11 906.08 1228.56L906.08 1228.56L906.08 1236.04L1349.34 1236.04Q1415.33 1236.04 1415.33 1289.58L1415.33 1289.58Q1415.33 1341.87 1349.34 1341.87L1349.34 1341.87L926.00 1341.87Q960.86 1486.30 1076.66 1645.68L1076.66 1645.68Q1199.93 1813.77 1381.71 1919.60L1381.71 1919.60Q1427.78 1947.00 1427.78 1980.62L1427.78 1980.62Q1427.78 2011.74 1414.09 2026.68Q1400.39 2041.63 1370.51 2041.63L1370.51 2041.63Q1336.89 2041.63 1233.54 1963.18L1233.54 1963.18Q1099.07 1861.08 1008.18 1730.97Q917.29 1600.85 873.71 1455.18L873.71 1455.18L867.48 1455.18Q821.41 1615.80 745.46 1731.59L745.46 1731.59Q649.58 1876.03 533.79 1955.71L533.79 1955.71Q400.56 2047.85 350.76 2047.85L350.76 2047.85ZM952.15 2020.46Q934.72 2020.46 921.02 2012.99Q907.32 2005.52 894.87 1990.58L894.87 1990.58Q813.94 1899.68 781.57 1861.08L781.57 1861.08Q772.85 1849.88 769.74 1841.16Q766.63 1832.45 767.87 1815.01L767.87 1815.01Q769.12 1800.07 781.57 1790.73Q794.02 1781.40 818.92 1781.40L818.92 1781.40Q853.78 1781.40 926.00 1862.33L926.00 1862.33Q968.33 1909.64 985.14 1933.92Q1001.95 1958.20 1001.95 1974.39L1001.95 1974.39Q1001.95 1995.56 987.63 2008.01Q973.32 2020.46 952.15 2020.46L952.15 2020.46ZM2384.03 2054.08Q2326.76 2054.08 2326.76 1996.80L2326.76 1996.80Q2326.76 1944.51 2398.97 1943.26L2398.97 1943.26Q2476.17 1940.77 2499.83 1924.58L2499.83 1924.58Q2513.53 1920.85 2523.49 1843.03Q2533.45 1765.21 2539.67 1590.89L2539.67 1590.89L2549.63 1180.00Q2550.88 1122.73 2496.09 1122.73L2496.09 1122.73L2102.64 1122.73Q2042.87 1122.73 2042.87 1071.68L2042.87 1071.68Q2042.87 1021.88 2102.64 1021.88L2102.64 1021.88L2532.20 1021.88Q2593.21 1021.88 2623.10 1049.27Q2652.98 1076.66 2652.98 1132.69L2652.98 1132.69L2644.26 1538.60Q2636.79 1848.63 2609.40 1954.47L2609.40 1954.47Q2583.25 2054.08 2384.03 2054.08L2384.03 2054.08ZM2024.19 1776.42Q2010.50 1776.42 1951.98 1724.12L1951.98 1724.12Q1890.97 1670.58 1890.97 1654.39L1890.97 1654.39Q1890.97 1612.06 1934.55 1612.06L1934.55 1612.06Q1960.69 1612.06 2014.23 1660.62L2014.23 1660.62Q2069.02 1710.42 2069.02 1729.10L2069.02 1729.10Q2069.02 1776.42 2024.19 1776.42L2024.19 1776.42ZM1817.50 2069.02Q1768.95 2069.02 1768.95 2015.48L1768.95 2015.48L1768.95 1570.97Q1653.15 1689.26 1613.31 1689.26L1613.31 1689.26Q1569.73 1689.26 1569.73 1639.45L1569.73 1639.45Q1569.73 1608.33 1607.08 1580.93L1607.08 1580.93Q1716.65 1502.49 1827.47 1376.73L1827.47 1376.73Q1934.55 1255.96 1934.55 1234.79L1934.55 1234.79Q1934.55 1219.85 1914.62 1219.85L1914.62 1219.85L1638.21 1219.85Q1579.69 1219.85 1579.69 1173.78L1579.69 1173.78Q1579.69 1148.88 1594.01 1137.67Q1608.33 1126.46 1638.21 1126.46L1638.21 1126.46L1770.19 1126.46L1770.19 982.03Q1770.19 933.47 1820.00 933.47L1820.00 933.47Q1868.55 933.47 1868.55 982.03L1868.55 982.03L1868.55 1126.46L1968.16 1126.46Q2059.06 1126.46 2059.06 1189.97L2059.06 1189.97Q2059.06 1213.62 1995.56 1305.76L1995.56 1305.76Q1937.04 1391.67 1864.82 1471.36L1864.82 1471.36L1864.82 2015.48Q1864.82 2069.02 1817.50 2069.02L1817.50 2069.02ZM1937.04 1582.18Q1893.46 1582.18 1893.46 1537.35L1893.46 1537.35Q1893.46 1516.19 1923.34 1495.02L1923.34 1495.02Q1940.77 1483.81 1962.56 1459.53Q1984.35 1435.25 1989.33 1429.03L1989.33 1429.03Q2011.74 1402.88 2034.16 1402.88L2034.16 1402.88Q2081.47 1402.88 2081.47 1446.46L2081.47 1446.46Q2081.47 1470.12 2020.46 1526.15L2020.46 1526.15Q1956.96 1582.18 1937.04 1582.18L1937.04 1582.18ZM2024.19 2049.10Q1974.39 2049.10 1974.39 1993.07L1974.39 1993.07Q1974.39 1966.92 2008.01 1937.04L2008.01 1937.04Q2130.03 1824.98 2177.34 1678.05L2177.34 1678.05Q2228.39 1521.17 2225.90 1091.60L2225.90 1091.60L2326.76 1094.09Q2328.00 1420.31 2286.91 1627.00L2286.91 1627.00Q2248.32 1822.49 2123.80 1973.14L2123.80 1973.14Q2092.68 2010.50 2067.15 2029.80Q2041.63 2049.10 2024.19 2049.10L2024.19 2049.10Z"/>
  </svg>