<svg xmlns="http://www.w3.org/2000/svg" viewBox="0 0 3000 3000" width="3000" height="3000">
    <path fill="#000000" d="M643.20 1827.67L643.20 1827.67Q669.97 1821.30 682.09 1823.21Q694.20 1825.13 728.62 1840.42L728.62 1840.42Q766.87 1857 780.90 1871.03Q794.92 1885.05 794.92 1909.28L794.92 1909.28Q794.92 1922.03 791.10 1929.67Q787.27 1937.33 769.42 1953.90L769.42 1953.90Q751.57 1970.47 745.20 1973.03Q738.82 1975.58 726.07 1973.03L726.07 1973.03Q709.50 1967.92 696.75 1953.90L696.75 1953.90L658.50 1909.28Q633.00 1879.95 633.00 1874.85Q633.00 1869.75 622.80 1857L622.80 1857Q612.60 1844.25 617.06 1838.51Q621.52 1832.78 643.20 1827.67ZM699.30 1012.95L699.30 1012.95Q704.40 1006.57 727.35 1017.41Q750.30 1028.25 763.05 1042.27L763.05 1042.27Q773.25 1053.75 775.16 1065.86Q777.07 1077.97 775.80 1136.63L775.80 1136.63Q774.52 1215.67 768.15 1246.28L768.15 1246.28Q768.15 1247.55 766.87 1250.10L766.87 1250.10Q761.77 1280.70 771.34 1285.80Q780.90 1290.90 847.20 1290.90L847.20 1290.90Q853.57 1290.90 856.12 1289.63L856.12 1289.63Q944.10 1288.35 953.02 1284.53L953.02 1284.53Q964.50 1276.88 993.82 1278.79Q1023.15 1280.70 1043.55 1289.63L1043.55 1289.63Q1067.77 1302.38 1074.79 1302.38Q1081.80 1302.38 1094.55 1315.76Q1107.30 1329.15 1107.30 1361.03L1107.30 1361.03Q1107.30 1382.70 1104.11 1389.07Q1100.92 1395.45 1088.17 1406.92L1088.17 1406.92Q1070.32 1422.22 1061.40 1422.22Q1052.47 1422.22 1019.32 1405.65L1019.32 1405.65Q974.70 1380.15 895.65 1367.40L895.65 1367.40Q851.02 1361.03 814.69 1368.67Q778.35 1376.32 775.16 1378.88Q771.97 1381.42 783.45 1390.99Q794.92 1400.55 805.12 1432.42L805.12 1432.42Q816.60 1466.85 833.17 1500L833.17 1500Q842.10 1516.57 842.10 1524.22Q842.10 1531.88 846.56 1533.79Q851.02 1535.70 866.32 1559.29Q881.62 1582.88 931.35 1634.51Q981.07 1686.15 987.45 1696.35L987.45 1696.35Q1001.47 1716.75 1091.36 1765.84Q1181.25 1814.92 1245 1837.88L1245 1837.88Q1279.42 1849.35 1308.75 1864.01Q1338.07 1878.67 1364.85 1881.22L1364.85 1881.22Q1413.30 1888.88 1434.97 1914.38L1434.97 1914.38Q1443.90 1923.30 1431.79 1936.69Q1419.67 1950.08 1399.27 1952.63L1399.27 1952.63Q1367.40 1955.17 1320.86 1983.22Q1274.32 2011.28 1262.85 2035.50L1262.85 2035.50Q1253.92 2052.07 1242.45 2055.26Q1230.97 2058.45 1209.30 2048.25L1209.30 2048.25Q1186.35 2038.05 1167.86 2031.04Q1149.38 2024.03 1081.80 1980.67L1081.80 1980.67Q970.87 1906.72 896.92 1811.10L896.92 1811.10Q871.42 1776.67 868.87 1774.13L868.87 1774.13Q847.20 1755 814.69 1701.45Q782.17 1647.90 764.32 1603.28L764.32 1603.28Q746.47 1561.20 738.82 1553.55Q731.17 1545.90 731.17 1538.25L731.17 1538.25Q731.17 1529.32 726.07 1534.42L726.07 1534.42Q720.97 1536.97 718.42 1545.90L718.42 1545.90Q715.87 1558.65 708.22 1565.03Q700.57 1571.40 700.57 1582.88Q700.57 1594.35 692.92 1603.91Q685.27 1613.47 685.27 1623.67L685.27 1623.67Q685.27 1633.88 659.14 1684.24Q633.00 1734.60 613.87 1757.55L613.87 1757.55Q593.47 1788.15 583.27 1802.17L583.27 1802.17Q569.25 1826.40 534.82 1850.63L534.82 1850.63Q511.87 1867.20 480.00 1895.25Q448.12 1923.30 431.55 1931.59Q414.97 1939.88 362.70 1969.20L362.70 1969.20Q287.47 2012.55 287.47 1999.80L287.47 1999.80Q287.47 1995.97 291.30 1993.42L291.30 1993.42Q300.22 1990.88 340.39 1948.16Q380.55 1905.45 394.57 1885.05L394.57 1885.05Q414.97 1855.72 418.80 1854.45Q422.62 1853.17 434.10 1833.41Q445.57 1813.65 450.67 1807.28L450.67 1807.28Q492.75 1755 516.97 1709.10L516.97 1709.10Q533.55 1677.22 546.30 1656.19Q559.05 1635.15 575.62 1582.88Q592.20 1530.60 598.57 1511.47L598.57 1511.47Q618.97 1456.65 625.35 1418.40L625.35 1418.40Q626.62 1403.10 625.99 1399.91Q625.35 1396.72 618.97 1399.28L618.97 1399.28Q608.77 1401.82 587.10 1405.65L587.10 1405.65Q567.97 1409.47 550.12 1421.59Q532.27 1433.70 527.17 1446.45Q522.07 1459.20 511.87 1459.20Q501.67 1459.20 478.72 1446.45Q455.77 1433.70 439.20 1418.40L439.20 1418.40Q420.07 1401.82 416.25 1401.82Q412.42 1401.82 426.45 1381.42L426.45 1381.42Q455.77 1336.80 589.65 1317.67L589.65 1317.67Q635.55 1312.57 643.84 1308.75Q652.12 1304.92 655.95 1292.17L655.95 1292.17Q675.07 1202.92 678.90 1145.55L678.90 1145.55Q685.27 1090.72 690.37 1072.24Q695.47 1053.75 695.47 1034.63Q695.47 1015.50 699.30 1012.95ZM1906.72 1012.95L1906.72 1012.95Q1934.78 1005.30 1953.26 1011.67Q1971.75 1018.05 2010 1030.16Q2048.25 1042.27 2068.65 1060.13L2068.65 1060.13Q2082.68 1076.70 2085.86 1087.54Q2089.05 1098.38 2080.13 1112.40L2080.13 1112.40Q2072.47 1123.88 2069.93 1144.91Q2067.38 1165.95 2055.90 1179.97L2055.90 1179.97L2045.70 1194L2076.30 1209.30Q2105.63 1223.32 2115.82 1243.72L2115.82 1243.72Q2124.75 1261.57 2121.56 1268.59Q2118.38 1275.60 2099.25 1280.70L2099.25 1280.70Q2085.22 1285.80 2073.11 1296Q2061 1306.20 2061 1313.85L2061 1313.85Q2059.72 1320.22 2044.43 1339.35L2044.43 1339.35Q2035.50 1352.10 2031.04 1362.30Q2026.58 1372.50 2029.13 1380.15Q2031.68 1387.80 2039.33 1387.80L2039.33 1387.80Q2052.07 1387.80 2080.13 1400.55L2080.13 1400.55Q2120.93 1417.13 2134.31 1450.28Q2147.70 1483.42 2132.40 1526.78L2132.40 1526.78Q2122.20 1556.10 2105.63 1561.84Q2089.05 1567.57 2057.18 1549.72L2057.18 1549.72Q2032.95 1536.97 2025.30 1536.97L2025.30 1536.97Q2015.10 1536.97 1971.75 1479.60L1971.75 1479.60Q1960.28 1465.57 1952.63 1469.40L1952.63 1469.40Q1948.80 1474.50 1955.18 1484.06Q1961.55 1493.63 1955.18 1506.38Q1948.80 1519.13 1947.53 1552.28L1947.53 1552.28L1946.25 1586.70L1980.68 1593.07Q2015.10 1600.72 2025.30 1612.20L2025.30 1612.20L2045.70 1637.70Q2068.65 1665.75 2061 1692.53L2061 1692.53Q2057.18 1709.10 2040.60 1723.76Q2024.03 1738.42 2006.18 1742.25L2006.18 1742.25Q1990.88 1744.80 1984.50 1741.61Q1978.13 1738.42 1965.38 1725.67L1965.38 1725.67Q1944.97 1705.28 1939.24 1709.10Q1933.50 1712.92 1932.86 1754.36Q1932.22 1795.80 1925.21 1890.79Q1918.20 1985.78 1922.03 1988.33L1922.03 1988.33Q1922.03 1988.33 1924.58 1986.41Q1927.13 1984.50 1930.95 1979.40Q1934.78 1974.30 1938.60 1967.92L1938.60 1967.92Q1955.18 1944.97 1962.83 1936.05L1962.83 1936.05L2003.63 1892.70Q2077.57 1814.92 2096.70 1788.15L2096.70 1788.15Q2115.82 1763.92 2131.13 1747.99Q2146.43 1732.05 2148.97 1722.49Q2151.53 1712.92 2156.63 1712.92Q2161.72 1712.92 2161.72 1704.64Q2161.72 1696.35 2168.74 1687.42Q2175.75 1678.50 2185.95 1654.91Q2196.15 1631.33 2203.16 1622.40Q2210.18 1613.47 2210.18 1605.83Q2210.18 1598.17 2214 1593.07Q2217.82 1587.97 2236.31 1545.26Q2254.80 1502.55 2261.81 1488.52Q2268.82 1474.50 2268.82 1464.30Q2268.82 1454.10 2273.93 1446.45L2273.93 1446.45Q2287.95 1434.97 2261.18 1446.45L2261.18 1446.45Q2254.80 1450.28 2246.51 1447.72Q2238.22 1445.17 2217.82 1432.42L2217.82 1432.42Q2154.07 1387.80 2228.03 1366.13L2228.03 1366.13Q2299.43 1344.45 2442.23 1341.90L2442.23 1341.90Q2527.65 1339.35 2548.69 1341.26Q2569.73 1343.17 2605.43 1354.65L2605.43 1354.65Q2655.15 1368.67 2662.80 1382.70Q2670.45 1396.72 2681.93 1409.47Q2693.40 1422.22 2702.32 1441.35L2702.32 1441.35Q2708.70 1454.10 2707.43 1460.47Q2706.15 1466.85 2699.78 1482.15L2699.78 1482.15Q2689.57 1503.82 2685.75 1503.82L2685.75 1503.82Q2679.38 1503.82 2671.73 1522.95Q2664.07 1542.07 2660.25 1559.92L2660.25 1559.92Q2657.70 1587.97 2648.78 1612.20L2648.78 1612.20Q2634.75 1656.83 2620.73 1765.20L2620.73 1765.20Q2613.07 1823.85 2564.63 1896.53L2564.63 1896.53Q2546.78 1920.75 2525.10 1944.97Q2503.43 1969.20 2497.69 1969.20Q2491.95 1969.20 2491.95 1974.30Q2491.95 1979.40 2484.94 1979.40Q2477.93 1979.40 2468.36 1990.24Q2458.80 2001.08 2453.70 2001.08Q2448.60 2001.08 2439.68 2012.55L2439.68 2012.55Q2434.57 2020.20 2427.56 2021.47Q2420.55 2022.75 2395.05 2020.20L2395.05 2020.20Q2373.38 2018.92 2365.73 2015.10Q2358.07 2011.28 2354.25 2003.63L2354.25 2003.63Q2346.60 1990.88 2342.14 1990.88Q2337.68 1990.88 2337.68 1979.40Q2337.68 1967.92 2330.03 1965.38Q2322.38 1962.83 2322.38 1955.81Q2322.38 1948.80 2306.44 1934.14Q2290.50 1919.47 2290.50 1915.01Q2290.50 1910.55 2277.75 1893.34Q2265 1876.13 2261.18 1857L2261.18 1857L2259.90 1837.88L2287.95 1840.42Q2313.45 1841.70 2348.51 1853.17Q2383.57 1864.65 2392.50 1862.10L2392.50 1862.10Q2403.98 1855.72 2447.96 1785.60Q2491.95 1715.47 2491.95 1700.17L2491.95 1700.17Q2491.95 1689.97 2500.88 1663.20L2500.88 1663.20Q2511.08 1626.22 2520 1538.25Q2528.93 1450.28 2525.10 1437.53L2525.10 1437.53Q2520 1426.05 2492.59 1418.40Q2465.18 1410.75 2434.57 1413.30L2434.57 1413.30Q2423.10 1414.57 2423.10 1429.88L2423.10 1429.88Q2423.10 1438.80 2414.18 1469.40Q2405.25 1500 2397.60 1514.03L2397.60 1514.03Q2392.50 1522.95 2375.93 1558.01Q2359.35 1593.07 2347.24 1612.20Q2335.13 1631.33 2331.30 1637.70L2331.30 1637.70Q2316 1667.03 2245.88 1740.97L2245.88 1740.97Q2136.22 1857 2031.68 1939.88L2031.68 1939.88Q2011.28 1955.17 2002.35 1964.10Q1993.43 1973.03 1958.36 1996.61Q1923.30 2020.20 1914.38 2036.78L1914.38 2036.78Q1908 2046.97 1902.26 2050.80Q1896.53 2054.63 1879.95 2057.18L1879.95 2057.18Q1860.83 2059.72 1855.09 2058.45Q1849.35 2057.18 1841.70 2048.25L1841.70 2048.25Q1830.22 2035.50 1828.95 2025.30L1828.95 2025.30Q1814.92 1960.28 1821.30 1959L1821.30 1959Q1825.13 1957.72 1825.13 1945.61Q1825.13 1933.50 1834.05 1918.20L1834.05 1918.20Q1851.90 1877.40 1858.28 1800.90L1858.28 1800.90Q1862.10 1737.15 1868.47 1677.22L1868.47 1677.22Q1877.40 1610.92 1868.47 1610.92L1868.47 1610.92Q1865.92 1612.20 1860.83 1619.85L1860.83 1619.85Q1855.72 1630.05 1830.22 1654.28L1830.22 1654.28Q1701.45 1788.15 1670.85 1817.47Q1640.25 1846.80 1633.88 1846.80L1633.88 1846.80Q1626.22 1846.80 1604.55 1854.45Q1582.88 1862.10 1575.22 1862.10L1575.22 1862.10Q1552.28 1863.38 1604.55 1804.72L1604.55 1804.72Q1608.38 1802.17 1612.20 1798.35L1612.20 1798.35Q1649.17 1760.10 1682.33 1718.03L1682.33 1718.03Q1723.13 1663.20 1788.15 1585.42L1788.15 1585.42Q1802.17 1567.57 1835.33 1521.04Q1868.47 1474.50 1868.47 1469.40L1868.47 1469.40Q1868.47 1468.13 1884.41 1440.71Q1900.35 1413.30 1900.35 1407.56Q1900.35 1401.82 1916.93 1378.24Q1933.50 1354.65 1933.50 1347Q1933.50 1339.35 1939.88 1334.25L1939.88 1334.25Q1950.08 1325.32 1948.16 1318.95Q1946.25 1312.57 1934.78 1315.13L1934.78 1315.13Q1916.93 1320.22 1884.41 1336.16Q1851.90 1352.10 1851.90 1354.65L1851.90 1354.65Q1851.90 1359.75 1842.34 1363.57Q1832.78 1367.40 1812.38 1383.97L1812.38 1383.97Q1788.15 1408.20 1764.56 1405.01Q1740.97 1401.82 1725.67 1375.05L1725.67 1375.05Q1702.72 1336.80 1728.22 1322.78L1728.22 1322.78Q1744.80 1313.85 1806.64 1289.63Q1868.47 1265.40 1883.78 1261.57L1883.78 1261.57Q1905.45 1257.75 1942.43 1241.17Q1979.40 1224.60 1984.50 1215.67L1984.50 1215.67Q1990.88 1208.02 2004.90 1202.92L2004.90 1202.92Q2015.10 1200.38 2015.10 1197.82L2015.10 1197.82Q2010 1191.45 1944.97 1190.17L1944.97 1190.17Q1936.05 1190.17 1934.78 1186.35Q1933.50 1182.52 1933.50 1169.77L1933.50 1169.77Q1934.78 1148.10 1920.75 1128.97Q1906.72 1109.85 1867.20 1075.42L1867.20 1075.42Q1818.75 1034.63 1906.72 1012.95Z"/>
  </svg>