<svg xmlns="http://www.w3.org/2000/svg" viewBox="0 0 3000 3000" width="3000" height="3000">
    <path fill="#000000" d="M356.32 1296L356.32 1296Q381.82 1302.38 417.52 1302.38L417.52 1302.38L434.10 1302.38L778.35 1281.97Q808.95 1141.72 815.32 997.65L815.32 997.65L815.32 992.55Q815.32 967.05 805.12 946.65Q794.92 926.25 794.92 918.60Q794.92 910.95 810.22 910.95Q825.52 910.95 857.40 923.70Q889.27 936.45 898.84 948.56Q908.40 960.67 908.40 979.80L908.40 979.80L908.40 984.90Q900.75 1137.90 870.15 1276.88L870.15 1276.88L1264.12 1253.93Q1294.72 1251.38 1304.92 1246.91Q1315.13 1242.45 1325.32 1242.45Q1335.52 1242.45 1354.01 1255.84Q1372.50 1269.22 1385.89 1285.80Q1399.27 1302.38 1399.27 1311.30L1399.27 1311.30Q1399.27 1326.60 1362.30 1330.43L1362.30 1330.43L919.87 1354.65Q1049.92 1608.38 1247.55 1783.05L1247.55 1783.05Q1345.72 1868.48 1449 1922.03L1449 1922.03Q1471.95 1933.50 1471.95 1944.34Q1471.95 1955.18 1442.63 1976.85Q1413.30 1998.53 1391.63 1998.53L1391.63 1998.53Q1386.52 1998.53 1347 1974.30L1347 1974.30Q1246.27 1911.83 1117.50 1775.40L1117.50 1775.40Q954.30 1603.28 847.20 1371.22L847.20 1371.22Q778.35 1596.90 666.79 1731.41Q555.22 1865.93 421.35 1948.80L421.35 1948.80Q365.25 1984.50 325.09 2001.71Q284.92 2018.93 272.17 2018.93Q259.42 2018.93 259.42 2011.28L259.42 2011.28Q259.42 1994.70 293.85 1973.03L293.85 1973.03Q413.70 1896.53 525.90 1775.40L525.90 1775.40Q691.65 1600.73 757.95 1363.58L757.95 1363.58L462.15 1378.88L422.62 1380.15Q403.50 1380.15 384.37 1370.59Q365.25 1361.03 349.95 1311.30L349.95 1311.30Q348.67 1308.75 348.67 1302.38Q348.67 1296 356.32 1296ZM891.82 1909.28L891.82 1909.28Q798.75 1789.43 745.20 1742.25L745.20 1742.25Q728.62 1726.95 728.62 1714.84Q728.62 1702.73 744.56 1689.98Q760.50 1677.23 770.70 1677.23Q780.90 1677.23 789.82 1684.88Q798.75 1692.53 817.24 1710.38Q835.72 1728.23 861.22 1751.81Q886.72 1775.40 911.59 1800.90Q936.45 1826.40 952.39 1846.80Q968.32 1867.20 968.32 1878.04Q968.32 1888.88 949.84 1907.36Q931.35 1925.85 917.96 1925.85Q904.57 1925.85 891.82 1909.28ZM1711.65 965.77L1711.65 965.77Q1702.72 956.85 1702.72 945.38Q1702.72 933.90 1720.58 921.15Q1738.42 908.40 1747.35 908.40Q1756.28 908.40 1773.49 922.42Q1790.70 936.45 1818.75 961.31Q1846.80 986.17 1874.21 1011.67Q1901.63 1037.17 1919.47 1058.85Q1937.33 1080.53 1937.33 1091.36Q1937.33 1102.20 1917.56 1121.96Q1897.80 1141.72 1886.96 1141.72Q1876.13 1141.72 1846.80 1103.47Q1817.47 1065.22 1711.65 965.77ZM2476.65 1933.50L2476.65 1933.50Q2484.30 1933.50 2484.30 1924.58L2484.30 1924.58Q2554.43 1659.38 2559.53 1167.22L2559.53 1167.22L2375.93 1178.70Q2352.98 1480.88 2228.03 1716.75L2228.03 1716.75Q2173.20 1820.03 2117.74 1891.43Q2062.28 1962.83 2019.56 1999.80Q1976.85 2036.78 1962.83 2036.78Q1948.80 2036.78 1948.80 2026.58L1948.80 2026.58Q1948.80 2012.55 1980.68 1976.85Q2012.55 1941.15 2063.55 1864.65L2063.55 1864.65Q2265 1566.30 2287.95 1183.80L2287.95 1183.80L2152.80 1192.72Q2132.40 1195.28 2107.54 1195.28Q2082.68 1195.28 2066.10 1172.33L2066.10 1172.33Q2043.15 1137.90 2043.15 1127.70Q2043.15 1117.50 2053.35 1117.50L2053.35 1117.50Q2058.45 1117.50 2069.93 1120.69Q2081.40 1123.88 2105.63 1123.88L2105.63 1123.88L2574.82 1093.28L2588.85 1093.28Q2618.18 1093.28 2631.56 1110.49Q2644.95 1127.70 2644.95 1140.45L2644.95 1140.45L2639.85 1172.33Q2632.20 1614.75 2581.20 1905.45L2581.20 1905.45Q2568.45 1984.50 2541.04 2011.28Q2513.63 2038.05 2493.23 2038.05Q2472.82 2038.05 2431.39 2013.19Q2389.95 1988.33 2324.93 1927.76Q2259.90 1867.20 2259.90 1853.18L2259.90 1853.18Q2259.90 1842.98 2274.56 1842.98Q2289.23 1842.98 2344.69 1876.76Q2400.15 1910.55 2470.28 1932.23L2470.28 1932.23Q2472.82 1933.50 2476.65 1933.50ZM1990.88 1517.85L1990.88 1517.85Q2077.57 1573.95 2088.41 1586.70Q2099.25 1599.45 2099.25 1605.83Q2099.25 1612.20 2094.15 1624.95L2094.15 1624.95Q2080.13 1663.20 2061 1663.20L2061 1663.20Q2053.35 1663.20 2012.55 1625.59Q1971.75 1587.98 1879.95 1526.78L1879.95 1526.78L1886.33 2016.38Q1886.33 2046.98 1865.92 2046.98L1865.92 2046.98Q1837.88 2046.98 1818.75 2029.13Q1799.63 2011.28 1799.63 1999.16Q1799.63 1987.05 1803.45 1967.93Q1807.28 1948.80 1807.28 1909.28L1807.28 1909.28L1809.83 1508.93Q1696.35 1638.98 1602 1698.90L1602 1698.90Q1566.30 1723.13 1558.01 1723.13Q1549.72 1723.13 1549.72 1714.20Q1549.72 1705.28 1570.13 1683.60L1570.13 1683.60Q1678.50 1570.13 1762.65 1463.66Q1846.80 1357.20 1909.28 1236.08L1909.28 1236.08L1696.35 1259.03Q1678.50 1261.58 1658.10 1261.58Q1637.70 1261.58 1621.13 1246.28Q1604.55 1230.97 1598.17 1213.76Q1591.80 1196.55 1591.80 1191.45Q1591.80 1186.35 1596.90 1186.35Q1602 1186.35 1611.56 1189.54Q1621.13 1192.72 1635.15 1192.72L1635.15 1192.72L1655.55 1192.72Q1661.92 1192.72 1667.03 1191.45L1667.03 1191.45L1943.70 1164.67Q1950.08 1163.40 1953.90 1163.40L1953.90 1163.40L1962.83 1163.40Q1980.68 1163.40 1997.89 1176.79Q2015.10 1190.18 2015.10 1201.65Q2015.10 1213.13 2008.09 1220.78Q2001.08 1228.43 1974.94 1276.88Q1948.80 1325.33 1879.95 1420.95L1879.95 1420.95L1879.95 1452.83L1937.33 1483.43Q2012.55 1398 2012.55 1352.10L2012.55 1352.10Q2012.55 1339.35 2021.47 1339.35Q2030.40 1339.35 2045.70 1348.28L2045.70 1348.28Q2089.05 1372.50 2089.05 1396.09Q2089.05 1419.67 1990.88 1517.85Z"/>
  </svg>