<svg xmlns="http://www.w3.org/2000/svg" viewBox="0 0 3000 3000" width="3000" height="3000">
    <path fill="#000000" d="M834.45 942.82L834.45 942.82Q845.92 933.90 857.40 937.09Q868.87 940.27 895.65 945.38L895.65 945.38Q921.15 951.75 931.99 961.31Q942.82 970.87 938.36 984.26Q933.90 997.65 931.35 1019.32L931.35 1019.32L930.07 1039.72L973.42 1034.63Q1015.50 1030.80 1026.97 1030.80L1026.97 1030.80Q1048.65 1032.07 1057.57 1056.94Q1066.50 1081.80 1052.47 1100.92L1052.47 1100.92Q1044.82 1111.13 1000.20 1112.40Q955.57 1113.67 941.55 1121.32L941.55 1121.32Q930.07 1125.15 928.16 1131.52Q926.25 1137.90 924.97 1164.67L924.97 1164.67Q921.15 1204.20 919.87 1211.85L919.87 1211.85Q918.60 1214.40 922.42 1215.04Q926.25 1215.67 937.09 1216.95Q947.92 1218.22 966.41 1218.86Q984.90 1219.50 1015.50 1219.50L1015.50 1219.50Q1112.40 1220.77 1143.64 1225.24Q1174.88 1229.70 1181.89 1223.96Q1188.90 1218.22 1229.70 1224.60L1229.70 1224.60Q1279.42 1230.97 1294.72 1236.71Q1310.02 1242.45 1316.40 1255.20L1316.40 1255.20Q1331.70 1296 1320.22 1312.57L1320.22 1312.57Q1311.30 1322.78 1310.66 1331.70Q1310.02 1340.63 1297.27 1353.38L1297.27 1353.38Q1289.62 1363.57 1278.79 1365.49Q1267.95 1367.40 1238.63 1367.40L1238.63 1367.40Q1195.27 1367.40 1155.75 1382.70L1155.75 1382.70L1114.95 1398L1118.77 1428.60Q1121.32 1452.82 1120.05 1458.56Q1118.77 1464.30 1107.30 1473.22L1107.30 1473.22Q1090.72 1484.70 1069.05 1482.15L1069.05 1482.15Q1049.92 1477.05 1007.85 1478.32Q965.77 1479.60 961.95 1483.42Q958.12 1487.25 964.50 1507.65Q970.87 1528.05 979.80 1540.80L979.80 1540.80Q990.00 1556.10 1030.16 1564.39Q1070.32 1572.67 1108.57 1570.13L1108.57 1570.13Q1151.92 1565.03 1169.14 1549.72Q1186.35 1534.42 1186.35 1500L1186.35 1500Q1186.35 1468.13 1195.27 1464.30L1195.27 1464.30Q1202.92 1460.47 1210.57 1471.31Q1218.22 1482.15 1218.22 1498.72L1218.22 1498.72Q1218.22 1514.03 1229.70 1548.45L1229.70 1548.45Q1245 1589.25 1236.07 1623.04Q1227.15 1656.83 1196.55 1672.13L1196.55 1672.13Q1177.42 1682.33 1135.35 1684.88L1135.35 1684.88L1092 1688.70L1090.72 1712.92Q1090.72 1738.42 1083.71 1785.60Q1076.70 1832.78 1080.52 1836.60L1080.52 1836.60Q1083.07 1837.88 1097.74 1823.21Q1112.40 1808.55 1128.97 1788.15Q1145.55 1767.75 1153.20 1753.72L1153.20 1753.72Q1165.95 1728.22 1176.15 1728.22Q1186.35 1728.22 1186.35 1724.40L1186.35 1724.40Q1186.35 1718.03 1196.55 1718.03Q1206.75 1718.03 1219.50 1723.13L1219.50 1723.13Q1271.77 1743.53 1281.34 1749.90Q1290.90 1756.28 1290.90 1776.67L1290.90 1776.67Q1290.90 1794.53 1267.95 1815.56Q1245 1836.60 1232.25 1836.60L1232.25 1836.60Q1218.22 1836.60 1140.45 1889.51Q1062.67 1942.42 1055.02 1959L1055.02 1959Q1046.10 1978.13 1048.01 1980.67Q1049.92 1983.22 1089.45 1981.95L1089.45 1981.95Q1143 1979.40 1254.56 1992.79Q1366.13 2006.17 1376.32 2016.38L1376.32 2016.38Q1381.42 2025.30 1382.06 2043.79Q1382.70 2062.28 1376.32 2073.75L1376.32 2073.75Q1363.57 2097.97 1345.72 2101.16Q1327.88 2104.35 1290.90 2091.60L1290.90 2091.60Q1230.97 2072.47 1190.81 2068.01Q1150.65 2063.55 1041 2064.82L1041 2064.82Q777.07 2066.10 714.60 2101.80L714.60 2101.80Q691.65 2115.82 680.17 2115.82L680.17 2115.82Q653.40 2115.82 643.84 2083.95Q634.27 2052.07 657.22 2039.33L657.22 2039.33Q680.17 2024.03 729.26 2011.28Q778.35 1998.53 805.12 1999.80L805.12 1999.80Q826.80 2001.08 833.17 1994.70Q839.55 1988.33 835.72 1967.92L835.72 1967.92L829.35 1943.70L800.02 1943.70Q775.80 1943.70 760.50 1931.59Q745.20 1919.47 731.17 1887.60L731.17 1887.60Q705.67 1828.95 728.62 1808.55L728.62 1808.55Q737.55 1800.90 759.22 1808.55Q780.90 1816.20 793.01 1816.84Q805.12 1817.47 813.41 1828.31Q821.70 1839.15 824.89 1835.96Q828.07 1832.78 828.71 1755Q829.35 1677.22 839.55 1663.20L839.55 1663.20Q856.12 1636.42 884.17 1664.47L884.17 1664.47L900.75 1678.50L900.75 1832.78L900.75 1987.05L914.77 1985.78Q927.52 1984.50 949.20 1969.20L949.20 1969.20Q964.50 1957.72 968.32 1950.71Q972.15 1943.70 972.15 1916.92L972.15 1916.92Q977.25 1714.20 981.07 1677.22L981.07 1677.22Q984.90 1667.03 981.71 1661.29Q978.52 1655.55 965.77 1647.90L965.77 1647.90Q917.32 1612.20 900.75 1542.07L900.75 1542.07Q890.55 1498.72 889.27 1492.35L889.27 1492.35Q888.00 1489.80 853.57 1500Q819.15 1510.20 800.02 1519.13L800.02 1519.13Q788.55 1526.78 782.81 1526.14Q777.07 1525.50 764.32 1516.57L764.32 1516.57Q743.92 1503.82 747.11 1492.99Q750.30 1482.15 750.30 1474.50L750.30 1474.50Q750.30 1469.40 784.72 1454.10Q819.15 1438.80 851.02 1429.88L851.02 1429.88L889.27 1422.22L889.27 1372.50Q889.27 1325.32 898.20 1320.22L898.20 1320.22Q919.87 1307.47 941.55 1326.60L941.55 1326.60Q951.75 1340.63 950.47 1371.22Q949.20 1401.82 954.94 1406.29Q960.67 1410.75 1007.85 1408.20L1007.85 1408.20L1055.02 1405.65L1106.02 1355.92Q1153.20 1307.47 1151.92 1302.38L1151.92 1302.38Q1146.82 1290.90 1052.47 1285.80Q958.12 1280.70 895.65 1288.35L895.65 1288.35L826.80 1296Q796.20 1299.82 751.57 1315.13L751.57 1315.13L708.22 1326.60L705.67 1366.13Q703.12 1405.65 696.75 1454.10L696.75 1454.10L687.82 1535.70Q678.90 1617.30 667.42 1669.58L667.42 1669.58Q658.50 1705.28 653.40 1730.78Q648.30 1756.28 637.46 1777.95Q626.62 1799.63 626.62 1806.64Q626.62 1813.65 610.69 1837.24Q594.75 1860.83 594.75 1869.11Q594.75 1877.40 578.17 1897.16Q561.60 1916.92 557.77 1927.13L557.77 1927.13Q550.12 1951.35 520.16 1988.33Q490.20 2025.30 450.67 2059.72L450.67 2059.72Q369.07 2131.13 347.40 2131.13L347.40 2131.13Q339.75 2131.13 342.30 2123.47L342.30 2123.47Q344.85 2118.38 357.60 2095.43L357.60 2095.43Q375.45 2061 412.42 2011.28L412.42 2011.28Q488.92 1902.90 532.27 1777.95L532.27 1777.95Q571.80 1667.03 590.92 1514.03L590.92 1514.03Q598.57 1454.10 604.31 1414.57Q610.05 1375.05 608.77 1369.95Q607.50 1364.85 590.92 1372.50L590.92 1372.50Q564.15 1385.25 537.37 1372.50L537.37 1372.50Q519.52 1363.57 523.35 1344.45Q527.17 1325.32 552.67 1310.03L552.67 1310.03Q579.45 1294.72 625.35 1277.51Q671.25 1260.30 700.57 1255.20L700.57 1255.20L780.90 1236.07L824.25 1228.42L822.97 1089.45Q821.70 987.45 822.97 968.32Q824.25 949.20 834.45 942.82ZM2168.10 1599.45L2168.10 1599.45Q2188.50 1594.35 2224.20 1597.54Q2259.90 1600.72 2270.10 1608.38L2270.10 1608.38Q2279.03 1616.03 2286.04 1631.96Q2293.05 1647.90 2293.05 1660.65L2293.05 1660.65Q2293.05 1688.70 2266.28 1705.28L2266.28 1705.28Q2254.80 1711.65 2248.43 1711.65Q2242.05 1711.65 2222.93 1706.55L2222.93 1706.55Q2199.97 1698.90 2179.57 1698.26Q2159.18 1697.63 2154.71 1703.36Q2150.25 1709.10 2160.45 1746.71Q2170.65 1784.33 2163 1827.67L2163 1827.67Q2148.97 1929.67 2164.28 1924.58L2164.28 1924.58Q2171.93 1922.03 2367 1913.10L2367 1913.10Q2418 1911.83 2440.95 1919.47L2440.95 1919.47Q2485.58 1933.50 2499.60 1968.56Q2513.63 2003.63 2485.58 2026.58L2485.58 2026.58Q2467.73 2041.88 2444.78 2048.25L2444.78 2048.25Q2426.93 2052.07 2416.09 2051.44Q2405.25 2050.80 2379.75 2041.88L2379.75 2041.88Q2351.70 2032.95 2326.20 2031.04Q2300.70 2029.13 2192.32 2030.40L2192.32 2030.40Q2044.43 2031.67 1979.40 2041.88L1979.40 2041.88Q1877.40 2059.72 1877.40 2081.40L1877.40 2081.40Q1877.40 2087.78 1863.38 2084.59Q1849.35 2081.40 1848.08 2086.50L1848.08 2086.50Q1844.25 2094.15 1836.60 2090.32Q1828.95 2086.50 1811.10 2068.65L1811.10 2068.65Q1793.25 2050.80 1782.41 2026.58Q1771.58 2002.35 1775.40 1994.70L1775.40 1994.70Q1779.22 1988.33 1804.72 1984.50Q1830.22 1980.67 1857.64 1970.47Q1885.05 1960.28 1947.53 1951.35L1947.53 1951.35L2007.45 1942.42L2010 1895.25Q2010 1848.08 2015.10 1815.56Q2020.20 1783.05 2024.03 1749.90L2024.03 1749.90L2027.85 1718.03L2011.28 1721.85Q1995.98 1726.95 1985.78 1726.31Q1975.58 1725.67 1953.90 1733.33L1953.90 1733.33L1932.22 1739.70L1910.55 1718.03Q1887.60 1693.80 1887.60 1689.97L1887.60 1689.97Q1890.15 1675.95 1922.03 1654.91Q1953.90 1633.88 1976.85 1628.78L1976.85 1628.78Q2146.43 1604.55 2168.10 1599.45ZM2188.50 1395.45L2201.25 1382.70Q2215.28 1368.67 2228.03 1368.67L2228.03 1368.67Q2245.88 1368.67 2300.06 1383.34Q2354.25 1398 2367 1406.92L2367 1406.92Q2384.85 1417.13 2405.25 1428.60L2405.25 1428.60Q2434.57 1441.35 2441.59 1454.74Q2448.60 1468.13 2446.05 1502.55L2446.05 1502.55Q2442.23 1534.42 2433.94 1549.72Q2425.65 1565.03 2405.25 1571.40L2405.25 1571.40Q2382.30 1579.05 2363.81 1572.04Q2345.32 1565.03 2319.82 1539.53L2319.82 1539.53Q2289.23 1507.65 2265 1486.61Q2240.78 1465.57 2215.28 1431.15L2215.28 1431.15L2188.50 1395.45ZM1904.18 1446.45L1904.18 1446.45Q1904.18 1440.07 1922.03 1411.39Q1939.88 1382.70 1940.51 1364.85Q1941.15 1347 1954.54 1330.42Q1967.93 1313.85 1979.40 1313.85L1979.40 1313.85Q1998.53 1313.85 2027.21 1341.90Q2055.90 1369.95 2062.28 1395.45L2062.28 1395.45Q2066.10 1412.03 2054.63 1429.88Q2043.15 1447.72 2025.30 1454.10L2025.30 1454.10Q2003.63 1463.03 2003.63 1469.40Q2003.63 1475.77 1982.59 1492.35Q1961.55 1508.92 1948.80 1522.95L1948.80 1522.95L1896.53 1568.85Q1858.28 1600.72 1855.72 1605.83L1855.72 1605.83Q1849.35 1610.92 1821.94 1626.86Q1794.53 1642.80 1789.42 1642.80L1789.42 1642.80Q1781.78 1642.80 1781.14 1640.25Q1780.50 1637.70 1785.60 1631.33L1785.60 1631.33Q1793.25 1617.30 1793.25 1611.56Q1793.25 1605.83 1818.75 1579.05L1818.75 1579.05Q1836.60 1559.92 1870.39 1507.01Q1904.18 1454.10 1904.18 1446.45ZM2031.68 981.07L2031.68 981.07Q2031.68 967.05 2080.13 991.27L2080.13 991.27Q2145.15 1025.70 2150.25 1092L2150.25 1092Q2152.80 1125.15 2157.90 1130.89Q2163 1136.63 2216.55 1143.64Q2270.10 1150.65 2299.43 1157.66Q2328.75 1164.67 2361.90 1169.14Q2395.05 1173.60 2408.44 1178.70Q2421.82 1183.80 2460.07 1185.07L2460.07 1185.07Q2528.93 1187.63 2576.10 1210.57L2576.10 1210.57Q2586.30 1215.67 2590.13 1222.05Q2593.95 1228.42 2596.50 1246.28L2596.50 1246.28Q2606.70 1306.20 2568.45 1335.53L2568.45 1335.53Q2549.32 1349.55 2547.41 1353.38Q2545.50 1357.20 2522.55 1357.20Q2499.60 1357.20 2476.65 1341.90L2476.65 1341.90Q2439.68 1312.57 2410.35 1338.07L2410.35 1338.07Q2358.07 1378.88 2342.78 1378.88L2342.78 1378.88Q2330.03 1378.88 2335.13 1369.95L2335.13 1369.95Q2337.68 1366.13 2346.60 1354.65L2346.60 1354.65Q2382.30 1308.75 2382.30 1276.88L2382.30 1276.88Q2382.30 1257.75 2372.74 1251.38Q2363.18 1245 2324.93 1237.35L2324.93 1237.35Q2291.78 1229.70 2266.28 1220.14Q2240.78 1210.57 2188.50 1206.75L2188.50 1206.75L2136.22 1202.92L2115.82 1222.05Q2095.43 1243.72 2090.32 1243.72L2090.32 1243.72Q2083.95 1243.72 2068.01 1232.89Q2052.07 1222.05 2052.07 1218.22L2052.07 1218.22Q2052.07 1204.20 2042.51 1201.65Q2032.95 1199.10 2003.63 1204.20L2003.63 1204.20Q1973.03 1209.30 1923.94 1222.69Q1874.85 1236.07 1858.28 1245L1858.28 1245Q1836.60 1253.92 1822.58 1320.22L1822.58 1320.22L1808.55 1385.25Q1800.90 1420.95 1798.35 1446.45L1798.35 1446.45Q1797.08 1470.67 1780.50 1485.34Q1763.92 1500 1738.42 1500L1738.42 1500Q1723.13 1500 1715.47 1496.81Q1707.83 1493.63 1695.08 1477.05L1695.08 1477.05Q1681.05 1460.47 1677.86 1451.55Q1674.67 1442.63 1677.22 1414.57L1677.22 1414.57Q1679.78 1378.88 1680.41 1373.78Q1681.05 1368.67 1688.70 1361.03L1688.70 1361.03Q1696.35 1354.65 1716.11 1313.85Q1735.88 1273.05 1746.08 1256.47Q1756.28 1239.90 1769.03 1216.31Q1781.78 1192.72 1791.97 1183.80L1791.97 1183.80Q1799.63 1176.15 1801.54 1176.15Q1803.45 1176.15 1808.55 1183.80L1808.55 1183.80Q1820.03 1199.10 1848.08 1185.07L1848.08 1185.07Q1885.05 1167.22 1970.47 1151.92L1970.47 1151.92L2021.47 1141.72L2018.93 1092Q2015.10 1043.55 2011.28 1023.15Q2007.45 1002.75 2019.56 995.10Q2031.68 987.45 2031.68 981.07Z"/>
  </svg>