<svg xmlns="http://www.w3.org/2000/svg" viewBox="0 0 3000 3000" width="3000" height="3000">
    <path fill="#000000" d="M843.37 1150.65L843.37 1113.67L1329.15 1113.67L1329.15 1150.65L843.37 1150.65ZM421.35 1304.93L421.35 1266.67L1372.50 1266.67L1372.50 1304.93L421.35 1304.93ZM445.57 2108.18L445.57 2071.20L1401.82 2071.20L1401.82 2108.18L445.57 2108.18ZM826.80 1289.63L826.80 997.65L863.77 997.65L863.77 1289.63L826.80 1289.63ZM779.62 2087.78L779.62 1672.13L817.87 1672.13L817.87 2087.78L779.62 2087.78ZM1019.32 2087.78L1019.32 1672.13L1057.57 1672.13L1057.57 2087.78L1019.32 2087.78ZM534.82 1494.90L529.72 1457.93L1219.50 1389.08L1223.32 1426.05L534.82 1494.90ZM400.95 1581.60L400.95 1266.67L439.20 1266.67L439.20 1581.60Q439.20 1644.08 434.74 1716.11Q430.27 1788.15 418.16 1863.38Q406.05 1938.60 383.10 2010.64Q360.15 2082.68 321.90 2143.88L321.90 2143.88Q319.35 2140.05 313.61 2136.22Q307.87 2132.40 302.14 2127.94Q296.40 2123.47 291.30 2122.20L291.30 2122.20Q328.27 2061 350.59 1992.15Q372.90 1923.30 383.74 1851.26Q394.57 1779.23 397.76 1710.38Q400.95 1641.53 400.95 1581.60L400.95 1581.60ZM1362.30 1275.60L1362.30 1266.67L1369.95 1266.67L1378.88 1264.13L1401.82 1274.33Q1385.25 1318.95 1366.76 1366.13Q1348.27 1413.30 1330.42 1446.45L1330.42 1446.45L1297.27 1434.97Q1315.13 1403.10 1332.34 1359.75Q1349.55 1316.40 1362.30 1275.60L1362.30 1275.60ZM562.87 1934.78L562.87 1693.80L599.85 1693.80L599.85 1896.53L803.85 1896.53L803.85 1934.78L562.87 1934.78ZM1256.47 1896.53L1256.47 1693.80L1293.45 1693.80L1293.45 1934.78L1043.55 1934.78L1043.55 1896.53L1256.47 1896.53ZM825.52 1514.03L825.52 1297.28L863.77 1297.28L863.77 1514.03Q863.77 1543.35 873.34 1554.19Q882.90 1565.03 914.77 1565.03L914.77 1565.03Q927.52 1565.03 961.31 1565.03Q995.10 1565.03 1039.09 1565.03Q1083.07 1565.03 1126.42 1565.03Q1169.77 1565.03 1204.20 1565.03Q1238.63 1565.03 1251.37 1565.03L1251.37 1565.03Q1266.67 1565.03 1286.44 1564.39Q1306.20 1563.75 1325.96 1562.47Q1345.72 1561.20 1357.20 1559.92L1357.20 1559.92Q1358.47 1568.85 1359.75 1578.41Q1361.02 1587.97 1362.30 1594.35L1362.30 1594.35Q1349.55 1596.90 1319.59 1598.18Q1289.62 1599.45 1253.92 1599.45L1253.92 1599.45Q1239.90 1599.45 1203.56 1599.45Q1167.22 1599.45 1121.32 1599.45Q1075.42 1599.45 1030.80 1599.45Q986.17 1599.45 953.66 1599.45Q921.15 1599.45 914.77 1599.45L914.77 1599.45Q879.07 1599.45 859.95 1591.16Q840.82 1582.88 833.17 1564.39Q825.52 1545.90 825.52 1514.03L825.52 1514.03ZM2118.38 2096.70L2118.38 1714.20L2156.63 1714.20L2156.63 2096.70L2118.38 2096.70ZM1614.75 1420.95L1614.75 1158.30L2653.88 1158.30L2653.88 1383.97L2615.63 1383.97L2615.63 1196.55L1653 1196.55L1653 1420.95L1614.75 1420.95ZM1695.08 1732.05L1695.08 1695.08L2555.70 1695.08L2555.70 1732.05L1695.08 1732.05ZM1608.38 2117.10L1608.38 2078.85L2671.73 2078.85L2671.73 2117.10L1608.38 2117.10ZM2058.45 1005.30L2058.45 1005.30L2094.15 993.83Q2123.47 1035.90 2152.16 1087.54Q2180.85 1139.17 2194.88 1173.60L2194.88 1173.60L2159.18 1188.90Q2145.15 1151.92 2116.46 1100.29Q2087.78 1048.65 2058.45 1005.30ZM1995.98 1185.08L1995.98 1185.08L2035.50 1185.08Q2027.85 1276.88 2006.81 1343.81Q1985.78 1410.75 1945.61 1459.20Q1905.45 1507.65 1838.51 1539.53Q1771.58 1571.40 1672.13 1593.08L1672.13 1593.08Q1670.85 1587.97 1667.66 1583.51Q1664.47 1579.05 1660.01 1573.95Q1655.55 1568.85 1651.72 1565.03L1651.72 1565.03Q1748.63 1545.90 1812.38 1515.94Q1876.13 1485.97 1914.38 1440.71Q1952.63 1395.45 1971.11 1332.34Q1989.60 1269.22 1995.98 1185.08ZM2254.80 1451.55L2254.80 1188.90L2293.05 1188.90L2293.05 1451.55Q2293.05 1479.60 2300.70 1490.44Q2308.35 1501.28 2335.13 1501.28L2335.13 1501.28Q2347.88 1501.28 2382.30 1501.28Q2416.73 1501.28 2458.80 1501.28Q2500.88 1501.28 2535.94 1501.28Q2571 1501.28 2583.75 1501.28L2583.75 1501.28Q2601.60 1501.28 2628.38 1500Q2655.15 1498.72 2669.18 1496.18L2669.18 1496.18Q2670.45 1505.10 2671.73 1515.30Q2673 1525.50 2674.28 1531.88L2674.28 1531.88Q2662.80 1534.43 2638.57 1535.06Q2614.35 1535.70 2586.30 1535.70L2586.30 1535.70Q2572.28 1535.70 2535.30 1535.70Q2498.33 1535.70 2454.98 1535.70Q2411.63 1535.70 2377.20 1535.70Q2342.78 1535.70 2335.13 1535.70L2335.13 1535.70Q2304.53 1535.70 2286.68 1528.05Q2268.82 1520.40 2261.81 1501.91Q2254.80 1483.43 2254.80 1451.55L2254.80 1451.55Z"/>
  </svg>