<svg xmlns="http://www.w3.org/2000/svg" viewBox="0 0 3000 3000" width="3000" height="3000">
    <path fill="#000000" d="M709.35 2066.53Q679.47 2066.53 665.15 2054.08Q650.83 2041.63 650.83 2014.23L650.83 2014.23Q650.83 1961.94 706.86 1961.94L706.86 1961.94L769.12 1961.94Q817.68 1961.94 820.17 1910.89L820.17 1910.89L820.17 1304.52Q820.17 1257.20 776.59 1254.71L776.59 1254.71L490.21 1254.71Q432.93 1254.71 432.93 1206.15L432.93 1206.15Q432.93 1157.59 490.21 1157.59L490.21 1157.59L817.68 1157.59Q874.95 1157.59 899.85 1181.87Q924.76 1206.15 921.02 1260.94L921.02 1260.94L921.02 1323.19Q967.09 1436.50 1011.91 1504.98L1011.91 1504.98Q1156.35 1371.75 1237.28 1283.35L1237.28 1283.35Q1272.14 1243.51 1299.54 1243.51L1299.54 1243.51Q1356.81 1243.51 1356.81 1298.29L1356.81 1298.29Q1356.81 1356.81 1057.98 1577.20L1057.98 1577.20Q1181.25 1745.29 1377.98 1843.65L1377.98 1843.65Q1429.03 1868.55 1429.03 1905.91L1429.03 1905.91Q1429.03 1965.67 1374.24 1965.67L1374.24 1965.67Q1333.15 1965.67 1234.79 1893.46L1234.79 1893.46Q1039.31 1752.76 921.02 1506.23L921.02 1506.23L921.02 1943.26Q930.98 2076.49 796.51 2066.53L796.51 2066.53L709.35 2066.53ZM344.53 1971.90Q295.97 1971.90 295.97 1915.87L295.97 1915.87Q295.97 1882.25 343.29 1853.61L343.29 1853.61Q456.59 1786.38 526.32 1676.81L526.32 1676.81Q596.04 1567.24 596.04 1521.17L596.04 1521.17Q596.04 1506.23 587.33 1499.38Q578.61 1492.53 558.69 1492.53L558.69 1492.53L369.43 1492.53Q312.16 1492.53 312.16 1443.97L312.16 1443.97Q312.16 1394.17 369.43 1394.17L369.43 1394.17L609.74 1394.17Q705.62 1394.17 705.62 1467.63L705.62 1467.63Q705.62 1534.86 648.34 1660.62L648.34 1660.62Q593.55 1782.64 493.95 1878.52L493.95 1878.52Q396.83 1971.90 344.53 1971.90L344.53 1971.90ZM1014.40 1112.77Q996.97 1112.77 921.02 1089.11L921.02 1089.11Q832.62 1062.96 728.03 1039.31L728.03 1039.31Q667.02 1025.61 638.38 1015.65L638.38 1015.65Q620.95 1009.42 620.95 982.03L620.95 982.03Q620.95 960.86 635.27 947.17Q649.58 933.47 674.49 933.47L674.49 933.47Q723.05 933.47 954.64 994.48L954.64 994.48Q1065.45 1024.37 1065.45 1059.23L1065.45 1059.23Q1065.45 1112.77 1014.40 1112.77L1014.40 1112.77ZM1942.02 2012.99Q1882.25 2012.99 1882.25 1961.94L1882.25 1961.94Q1882.25 1912.13 1942.02 1912.13L1942.02 1912.13L2438.82 1912.13L2476.17 1376.73Q2477.42 1356.81 2463.10 1346.23Q2448.78 1335.64 2421.39 1335.64L2421.39 1335.64L2149.95 1335.64L2102.64 1597.12Q2076.49 1747.78 2065.28 1776.42L2065.28 1776.42Q2059.06 1791.36 2045.98 1798.83Q2032.91 1806.30 2016.72 1806.30L2016.72 1806.30Q1970.65 1806.30 1970.65 1762.72L1970.65 1762.72L1976.88 1726.61Q2027.93 1490.04 2087.70 1087.87L2087.70 1087.87L1996.80 1087.87Q1937.04 1087.87 1937.04 1036.82L1937.04 1036.82Q1937.04 987.01 1996.80 987.01L1996.80 987.01L2620.61 987.01Q2681.62 987.01 2681.62 1036.82L2681.62 1036.82Q2681.62 1087.87 2620.61 1087.87L2620.61 1087.87L2189.79 1087.87L2183.57 1120.24L2166.14 1241.02L2462.48 1241.02Q2508.54 1241.02 2533.45 1254.71L2533.45 1254.71Q2585.74 1282.10 2582.01 1335.64L2582.01 1335.64L2543.41 1912.13L2646.75 1912.13Q2705.27 1912.13 2705.27 1961.94L2705.27 1961.94Q2705.27 2012.99 2646.75 2012.99L2646.75 2012.99L1942.02 2012.99ZM1793.85 2071.51Q1742.80 2071.51 1742.80 2011.74L1742.80 2011.74L1742.80 989.50Q1742.80 929.74 1793.85 929.74L1793.85 929.74Q1844.90 929.74 1844.90 989.50L1844.90 989.50L1844.90 2011.74Q1844.90 2071.51 1793.85 2071.51L1793.85 2071.51ZM1620.78 1534.86Q1564.75 1534.86 1573.46 1477.59L1573.46 1477.59Q1594.63 1344.36 1594.63 1198.68L1594.63 1198.68Q1594.63 1147.63 1602.10 1128.96L1602.10 1128.96Q1609.57 1109.03 1641.94 1109.03L1641.94 1109.03Q1686.77 1109.03 1686.77 1158.84L1686.77 1158.84Q1686.77 1310.74 1675.56 1421.56L1675.56 1421.56Q1664.36 1534.86 1620.78 1534.86L1620.78 1534.86ZM2340.45 1798.83Q2331.74 1798.83 2308.08 1785.13L2308.08 1785.13L2253.30 1750.27L2217.19 1725.37Q2156.18 1692.99 2156.18 1665.60L2156.18 1665.60Q2156.18 1619.53 2202.25 1619.53L2202.25 1619.53Q2219.68 1619.53 2336.72 1688.01L2336.72 1688.01Q2386.52 1716.65 2386.52 1749.02L2386.52 1749.02Q2386.52 1798.83 2340.45 1798.83L2340.45 1798.83ZM1966.92 1303.27Q1935.79 1303.27 1900.93 1228.56L1900.93 1228.56L1881.01 1192.46Q1859.84 1155.10 1859.84 1142.65L1859.84 1142.65Q1859.84 1125.22 1870.42 1115.26Q1881.01 1105.30 1899.68 1105.30L1899.68 1105.30Q1924.58 1105.30 1959.45 1158.84L1959.45 1158.84Q2012.99 1243.51 2012.99 1258.45L2012.99 1258.45Q2012.99 1303.27 1966.92 1303.27L1966.92 1303.27ZM2351.66 1573.46Q2345.43 1573.46 2330.49 1565.99Q2315.55 1558.52 2299.37 1548.56L2299.37 1548.56Q2269.48 1531.13 2229.64 1502.49L2229.64 1502.49Q2210.96 1490.04 2201.62 1480.70Q2192.29 1471.36 2192.29 1461.40L2192.29 1461.40Q2192.29 1411.60 2238.35 1411.60L2238.35 1411.60Q2249.56 1411.60 2269.48 1421.56L2269.48 1421.56L2300.61 1438.99Q2397.73 1493.77 2397.73 1523.66L2397.73 1523.66Q2397.73 1573.46 2351.66 1573.46L2351.66 1573.46Z"/>
  </svg>