<svg xmlns="http://www.w3.org/2000/svg" viewBox="0 0 3000 3000" width="3000" height="3000">
    <path fill="#000000" d="M302.77 1543.35L302.77 1506.38L686.55 1506.38L686.55 1543.35L302.77 1543.35ZM457.05 1301.10L457.05 1264.13L863.77 1264.13L863.77 1301.10L457.05 1301.10ZM844.65 1331.70L877.80 1324.05Q922.42 1488.53 1000.20 1627.50Q1077.97 1766.48 1188.26 1868.48Q1298.55 1970.48 1438.80 2022.75L1438.80 2022.75Q1434.97 2026.58 1429.88 2031.68Q1424.77 2036.78 1420.31 2042.51Q1415.85 2048.25 1412.02 2053.35L1412.02 2053.35Q1271.77 1995.98 1160.85 1892.06Q1049.92 1788.15 970.87 1645.35Q891.82 1502.55 844.65 1331.70L844.65 1331.70ZM1358.47 1345.72L1358.47 1345.72L1392.90 1367.40Q1340.63 1419.68 1275.60 1477.05Q1210.57 1534.43 1143.64 1587.97Q1076.70 1641.53 1016.77 1682.33L1016.77 1682.33L990.00 1661.93Q1048.65 1621.13 1116.22 1566.30Q1183.80 1511.47 1248.19 1453.46Q1312.57 1395.45 1358.47 1345.72ZM843.37 2076.30L843.37 1264.13L881.62 1264.13L881.62 2076.30Q881.62 2104.35 872.70 2117.10Q863.77 2129.85 842.10 2136.22L842.10 2136.22Q820.42 2141.33 773.89 2141.96Q727.35 2142.60 648.30 2142.60L648.30 2142.60Q647.02 2136.22 642.56 2124.75Q638.10 2113.28 633.00 2104.35L633.00 2104.35Q677.62 2105.63 715.24 2106.26Q752.85 2106.90 778.99 2106.26Q805.12 2105.63 815.32 2105.63L815.32 2105.63Q831.90 2104.35 837.64 2098.61Q843.37 2092.88 843.37 2076.30L843.37 2076.30ZM590.92 1028.25L590.92 1028.25L608.77 997.65Q669.97 1012.95 736.91 1032.71Q803.85 1052.47 868.24 1075.42Q932.62 1098.38 988.72 1122.60Q1044.82 1146.83 1084.35 1168.50L1084.35 1168.50L1069.05 1205.47Q1028.25 1183.80 972.15 1159.58Q916.05 1135.35 851.66 1111.13Q787.27 1086.90 720.34 1065.86Q653.40 1044.82 590.92 1028.25ZM671.25 1516.58L671.25 1506.38L680.17 1506.38L689.10 1503.83L712.05 1515.30Q676.35 1644.08 613.87 1747.99Q551.40 1851.90 472.99 1930.95Q394.57 2010 309.15 2062.28L309.15 2062.28Q305.32 2057.18 300.86 2052.08Q296.40 2046.98 290.66 2041.24Q284.92 2035.50 279.82 2031.68L279.82 2031.68Q365.25 1983.23 442.39 1908Q519.52 1832.78 579.45 1733.96Q639.37 1635.15 671.25 1516.58L671.25 1516.58ZM1748.63 2142.60L1748.63 996.38L1786.88 996.38L1786.88 2142.60L1748.63 2142.60ZM1621.13 1236.08L1621.13 1236.08L1656.83 1242.45Q1653 1290.90 1644.08 1350.19Q1635.15 1409.47 1621.13 1467.49Q1607.10 1525.50 1587.97 1570.13L1587.97 1570.13L1551 1558.65Q1570.13 1516.58 1584.15 1460.47Q1598.17 1404.38 1607.74 1345.09Q1617.30 1285.80 1621.13 1236.08ZM1835.33 1210.58L1835.33 1210.58L1865.92 1196.55Q1887.60 1232.25 1907.36 1273.05Q1927.13 1313.85 1942.43 1351.46Q1957.72 1389.08 1965.38 1417.13L1965.38 1417.13L1932.22 1437.53Q1924.58 1408.20 1909.28 1369.31Q1893.97 1330.43 1874.85 1288.35Q1855.72 1246.28 1835.33 1210.58ZM2006.18 1112.40L2006.18 1075.42L2681.93 1075.42L2681.93 1112.40L2006.18 1112.40ZM1957.72 2061L1957.72 2022.75L2712.53 2022.75L2712.53 2061L1957.72 2061ZM2560.80 1604.55L2114.55 1604.55L2114.55 1842.98L2560.80 1842.98L2560.80 1604.55ZM2560.80 1330.43L2114.55 1330.43L2114.55 1567.58L2560.80 1567.58L2560.80 1330.43ZM2077.57 1881.23L2077.57 1293.45L2599.05 1293.45L2599.05 1881.23L2077.57 1881.23Z"/>
  </svg>