<svg xmlns="http://www.w3.org/2000/svg" viewBox="0 0 3000 3000" width="3000" height="3000">
    <path fill="#000000" d="M622 1568L622 1510L1224 1510L1224 1568L622 1568ZM864 1188L864 1130L1502 1130L1502 1188L864 1188ZM1472 1236L1524 1224Q1594 1482 1716 1700Q1838 1918 2011 2078Q2184 2238 2404 2320L2404 2320Q2398 2326 2390 2334Q2382 2342 2375 2351Q2368 2360 2362 2368L2362 2368Q2142 2278 1968 2115Q1794 1952 1670 1728Q1546 1504 1472 1236L1472 1236ZM2278 1258L2278 1258L2332 1292Q2250 1374 2148 1464Q2046 1554 1941 1638Q1836 1722 1742 1786L1742 1786L1700 1754Q1792 1690 1898 1604Q2004 1518 2105 1427Q2206 1336 2278 1258ZM1470 2404L1470 1130L1530 1130L1530 2404Q1530 2448 1516 2468Q1502 2488 1468 2498L1468 2498Q1434 2506 1361 2507Q1288 2508 1164 2508L1164 2508Q1162 2498 1155 2480Q1148 2462 1140 2448L1140 2448Q1210 2450 1269 2451Q1328 2452 1369 2451Q1410 2450 1426 2450L1426 2450Q1452 2448 1461 2439Q1470 2430 1470 2404L1470 2404ZM1074 760L1074 760L1102 712Q1198 736 1303 767Q1408 798 1509 834Q1610 870 1698 908Q1786 946 1848 980L1848 980L1824 1038Q1760 1004 1672 966Q1584 928 1483 890Q1382 852 1277 819Q1172 786 1074 760ZM1200 1526L1200 1510L1214 1510L1228 1506L1264 1524Q1208 1726 1110 1889Q1012 2052 889 2176Q766 2300 632 2382L632 2382Q626 2374 619 2366Q612 2358 603 2349Q594 2340 586 2334L586 2334Q720 2258 841 2140Q962 2022 1056 1867Q1150 1712 1200 1526L1200 1526Z"/>
  </svg>