<svg xmlns="http://www.w3.org/2000/svg" viewBox="0 0 3000 3000" width="3000" height="3000">
    <path fill="#000000" d="M302.77 1543.35L302.77 1506.38L686.55 1506.38L686.55 1543.35L302.77 1543.35ZM457.05 1301.10L457.05 1264.13L863.77 1264.13L863.77 1301.10L457.05 1301.10ZM844.65 1331.70L877.80 1324.05Q922.42 1488.53 1000.20 1627.50Q1077.97 1766.48 1188.26 1868.48Q1298.55 1970.48 1438.80 2022.75L1438.80 2022.75Q1434.97 2026.58 1429.88 2031.68Q1424.77 2036.78 1420.31 2042.51Q1415.85 2048.25 1412.02 2053.35L1412.02 2053.35Q1271.77 1995.98 1160.85 1892.06Q1049.92 1788.15 970.87 1645.35Q891.82 1502.55 844.65 1331.70L844.65 1331.70ZM1358.47 1345.72L1358.47 1345.72L1392.90 1367.40Q1340.63 1419.68 1275.60 1477.05Q1210.57 1534.43 1143.64 1587.97Q1076.70 1641.53 1016.77 1682.33L1016.77 1682.33L990.00 1661.93Q1048.65 1621.13 1116.22 1566.30Q1183.80 1511.47 1248.19 1453.46Q1312.57 1395.45 1358.47 1345.72ZM843.37 2076.30L843.37 1264.13L881.62 1264.13L881.62 2076.30Q881.62 2104.35 872.70 2117.10Q863.77 2129.85 842.10 2136.22L842.10 2136.22Q820.42 2141.33 773.89 2141.96Q727.35 2142.60 648.30 2142.60L648.30 2142.60Q647.02 2136.22 642.56 2124.75Q638.10 2113.28 633.00 2104.35L633.00 2104.35Q677.62 2105.63 715.24 2106.26Q752.85 2106.90 778.99 2106.26Q805.12 2105.63 815.32 2105.63L815.32 2105.63Q831.90 2104.35 837.64 2098.61Q843.37 2092.88 843.37 2076.30L843.37 2076.30ZM590.92 1028.25L590.92 1028.25L608.77 997.65Q669.97 1012.95 736.91 1032.71Q803.85 1052.47 868.24 1075.42Q932.62 1098.38 988.72 1122.60Q1044.82 1146.83 1084.35 1168.50L1084.35 1168.50L1069.05 1205.47Q1028.25 1183.80 972.15 1159.58Q916.05 1135.35 851.66 1111.13Q787.27 1086.90 720.34 1065.86Q653.40 1044.82 590.92 1028.25ZM671.25 1516.58L671.25 1506.38L680.17 1506.38L689.10 1503.83L712.05 1515.30Q676.35 1644.08 613.87 1747.99Q551.40 1851.90 472.99 1930.95Q394.57 2010 309.15 2062.28L309.15 2062.28Q305.32 2057.18 300.86 2052.08Q296.40 2046.98 290.66 2041.24Q284.92 2035.50 279.82 2031.68L279.82 2031.68Q365.25 1983.23 442.39 1908Q519.52 1832.78 579.45 1733.96Q639.37 1635.15 671.25 1516.58L671.25 1516.58ZM1919.47 1123.88L1919.47 1085.63L2697.23 1085.63L2697.23 1123.88L1919.47 1123.88ZM1862.10 2101.80L1862.10 2064.83L2712.53 2064.83L2712.53 2101.80L1862.10 2101.80ZM2163 1100.92L2163 1100.92L2199.97 1106.03Q2183.40 1197.83 2161.09 1306.20Q2138.78 1414.58 2114.55 1524.22Q2090.32 1633.88 2068.01 1732.69Q2045.70 1831.50 2026.58 1904.18L2026.58 1904.18L1985.78 1900.35Q2006.18 1826.40 2029.76 1726.95Q2053.35 1627.50 2077.57 1517.21Q2101.80 1406.93 2124.11 1298.55Q2146.43 1190.17 2163 1100.92ZM2122.20 1377.60L2129.85 1339.35L2546.78 1339.35L2546.78 1377.60L2122.20 1377.60ZM2094.15 1497.45L2094.15 1497.45L2120.93 1469.40Q2179.57 1493.63 2242.69 1526.14Q2305.80 1558.65 2361.90 1592.44Q2418 1626.22 2453.70 1656.83L2453.70 1656.83L2425.65 1688.70Q2389.95 1659.38 2334.49 1624.31Q2279.03 1589.25 2216.55 1556.10Q2154.07 1522.95 2094.15 1497.45ZM2044.43 1707.83L2044.43 1707.83L2072.47 1682.33Q2131.13 1710.38 2193.60 1746.08Q2256.07 1781.78 2310.90 1818.75Q2365.73 1855.73 2401.43 1886.33L2401.43 1886.33L2372.10 1916.93Q2337.68 1886.33 2282.85 1848.71Q2228.03 1811.10 2166.19 1773.49Q2104.35 1735.88 2044.43 1707.83ZM2535.30 1339.35L2535.30 1339.35L2571 1339.35Q2560.80 1426.05 2548.05 1527.41Q2535.30 1628.78 2520.64 1732.05Q2505.98 1835.33 2491.95 1926.49Q2477.93 2017.65 2466.45 2085.22L2466.45 2085.22L2430.75 2085.22Q2443.50 2016.38 2458.16 1923.94Q2472.82 1831.50 2486.85 1728.23Q2500.88 1624.95 2513.63 1524.22Q2526.38 1423.50 2535.30 1339.35ZM1734.60 2142.60L1734.60 996.38L1772.85 996.38L1772.85 2142.60L1734.60 2142.60ZM1616.03 1236.08L1616.03 1236.08L1653 1242.45Q1651.72 1296 1643.44 1357.84Q1635.15 1419.68 1619.21 1477.05Q1603.28 1534.43 1577.78 1575.22L1577.78 1575.22L1544.63 1558.65Q1568.85 1520.40 1584.15 1465.58Q1599.45 1410.75 1607.10 1350.83Q1614.75 1290.90 1616.03 1236.08ZM1818.75 1210.58L1818.75 1210.58L1851.90 1197.83Q1871.03 1234.80 1888.24 1277.51Q1905.45 1320.22 1918.84 1359.75Q1932.22 1399.28 1938.60 1428.60L1938.60 1428.60L1904.18 1449Q1897.80 1418.40 1884.41 1376.96Q1871.03 1335.53 1854.45 1292.17Q1837.88 1248.83 1818.75 1210.58Z"/>
  </svg>