<svg xmlns="http://www.w3.org/2000/svg" viewBox="0 0 3000 3000" width="3000" height="3000">
    <path fill="#000000" d="M858 1529L858 1529L1174 1503Q1092 1701 933 1892Q774 2083 584 2219L584 2219Q544 2245 544 2271L544 2271Q544 2295 576 2295L576 2295Q596 2295 658 2266Q720 2237 807 2178Q894 2119 991 2026Q1088 1933 1181 1802Q1274 1671 1346 1501L1346 1501Q1350 1497 1363 1483Q1376 1469 1376 1445L1376 1445Q1376 1409 1337 1383Q1298 1357 1266 1357L1266 1357Q1260 1357 1253 1357Q1246 1357 1238 1359L1238 1359L814 1395L788 1395Q752 1395 710 1389L710 1389Q708 1389 704 1388Q700 1387 694 1387L694 1387Q666 1387 666 1409L666 1409Q666 1417 674 1433L674 1433Q708 1505 743 1519Q778 1533 793 1533Q808 1533 824 1532Q840 1531 858 1529ZM1102 1183L1464 1155L1460 2259Q1396 2241 1319 2212Q1242 2183 1164 2147L1164 2147Q1136 2133 1118 2133L1118 2133Q1086 2133 1086 2158Q1086 2183 1122 2217Q1158 2251 1212 2291Q1266 2331 1324 2367Q1382 2403 1434 2427Q1486 2451 1514 2451L1514 2451Q1552 2451 1587 2420Q1622 2389 1622 2327L1622 2327Q1622 2309 1621 2290Q1620 2271 1620 2251L1620 2251L1622 1587Q1738 1761 1917 1944Q2096 2127 2290 2255L2290 2255Q2308 2269 2326 2269L2326 2269Q2354 2269 2385 2250Q2416 2231 2438 2207Q2460 2183 2460 2173L2460 2173Q2460 2151 2418 2131L2418 2131Q2084 1951 1832 1639L1832 1639Q1888 1603 1963 1544Q2038 1485 2104 1426Q2170 1367 2214 1322Q2258 1277 2258 1261L2258 1261Q2258 1239 2237 1209Q2216 1179 2188 1154Q2160 1129 2140 1129L2140 1129Q2112 1129 2106 1169L2106 1169Q2104 1187 2097 1204Q2090 1221 2074 1239L2074 1239Q2010 1321 1926 1394Q1842 1467 1748 1533L1748 1533Q1722 1495 1689 1444Q1656 1393 1624 1341L1624 1341L1624 1143Q1624 1133 1629 1121Q1634 1109 1634 1095L1634 1095Q1634 1055 1595 1032Q1556 1009 1524 1009L1524 1009Q1518 1009 1511 1010Q1504 1011 1496 1011L1496 1011L1058 1045Q1046 1045 1033 1046Q1020 1047 1008 1047L1008 1047Q978 1047 950 1041L950 1041Q948 1041 945 1040Q942 1039 938 1039L938 1039Q908 1039 908 1065L908 1065Q908 1073 921 1102Q934 1131 962 1159Q990 1187 1034 1187L1034 1187Q1048 1187 1064 1186Q1080 1185 1102 1183L1102 1183ZM1720 985L1720 985Q1744 985 1766 950Q1788 915 1788 881L1788 881Q1788 845 1736 823L1736 823Q1710 809 1656 787Q1602 765 1536 739Q1470 713 1406 689Q1342 665 1294 650Q1246 635 1230 635L1230 635Q1196 635 1176 689L1176 689Q1170 709 1170 723L1170 723Q1170 757 1216 773L1216 773Q1324 809 1444 859Q1564 909 1678 971L1678 971Q1702 985 1720 985Z"/>
  </svg>