<svg xmlns="http://www.w3.org/2000/svg" viewBox="0 0 3000 3000" width="3000" height="3000">
    <path fill="#000000" d="M453.22 1518.49L453.22 1518.49L654.67 1501.91Q602.40 1628.14 501.04 1749.90Q399.67 1871.66 278.55 1958.36L278.55 1958.36Q253.05 1974.94 253.05 1991.51L253.05 1991.51Q253.05 2006.81 273.45 2006.81L273.45 2006.81Q286.20 2006.81 325.72 1988.33Q365.25 1969.84 420.71 1932.23Q476.17 1894.61 538.01 1835.33Q599.85 1776.04 659.14 1692.53Q718.42 1609.01 764.32 1500.64L764.32 1500.64Q766.87 1498.09 775.16 1489.16Q783.45 1480.24 783.45 1464.94L783.45 1464.94Q783.45 1441.99 758.59 1425.41Q733.72 1408.84 713.32 1408.84L713.32 1408.84Q709.50 1408.84 705.04 1408.84Q700.57 1408.84 695.47 1410.11L695.47 1410.11L425.17 1433.06L408.60 1433.06Q385.65 1433.06 358.87 1429.24L358.87 1429.24Q357.60 1429.24 355.05 1428.60Q352.50 1427.96 348.67 1427.96L348.67 1427.96Q330.82 1427.96 330.82 1441.99L330.82 1441.99Q330.82 1447.09 335.92 1457.29L335.92 1457.29Q357.60 1503.19 379.91 1512.11Q402.22 1521.04 411.79 1521.04Q421.35 1521.04 431.55 1520.40Q441.75 1519.76 453.22 1518.49ZM608.77 1297.91L839.55 1280.06L837.00 1983.86Q796.20 1972.39 747.11 1953.90Q698.02 1935.41 648.30 1912.46L648.30 1912.46Q630.45 1903.54 618.97 1903.54L618.97 1903.54Q598.57 1903.54 598.57 1919.48Q598.57 1935.41 621.52 1957.09Q644.47 1978.76 678.90 2004.26Q713.32 2029.76 750.30 2052.71Q787.27 2075.66 820.42 2090.96Q853.57 2106.26 871.42 2106.26L871.42 2106.26Q895.65 2106.26 917.96 2086.50Q940.27 2066.74 940.27 2027.21L940.27 2027.21Q940.27 2015.74 939.64 2003.63Q939.00 1991.51 939.00 1978.76L939.00 1978.76L940.27 1555.46Q1014.22 1666.39 1128.34 1783.05Q1242.45 1899.71 1366.13 1981.31L1366.13 1981.31Q1377.60 1990.24 1389.07 1990.24L1389.07 1990.24Q1406.92 1990.24 1426.69 1978.13Q1446.45 1966.01 1460.47 1950.71Q1474.50 1935.41 1474.50 1929.04L1474.50 1929.04Q1474.50 1915.01 1447.72 1902.26L1447.72 1902.26Q1234.80 1787.51 1074.15 1588.61L1074.15 1588.61Q1109.85 1565.66 1157.66 1528.05Q1205.47 1490.44 1247.55 1452.83Q1289.62 1415.21 1317.67 1386.53Q1345.72 1357.84 1345.72 1347.64L1345.72 1347.64Q1345.72 1333.61 1332.34 1314.49Q1318.95 1295.36 1301.10 1279.43Q1283.25 1263.49 1270.50 1263.49L1270.50 1263.49Q1252.65 1263.49 1248.82 1288.99L1248.82 1288.99Q1247.55 1300.46 1243.09 1311.30Q1238.63 1322.14 1228.42 1333.61L1228.42 1333.61Q1187.63 1385.89 1134.07 1432.43Q1080.52 1478.96 1020.60 1521.04L1020.60 1521.04Q1004.02 1496.81 982.99 1464.30Q961.95 1431.79 941.55 1398.64L941.55 1398.64L941.55 1272.41Q941.55 1266.04 944.74 1258.39Q947.92 1250.74 947.92 1241.81L947.92 1241.81Q947.92 1216.31 923.06 1201.65Q898.20 1186.99 877.80 1186.99L877.80 1186.99Q873.97 1186.99 869.51 1187.63Q865.05 1188.26 859.95 1188.26L859.95 1188.26L580.72 1209.94Q573.07 1209.94 564.79 1210.58Q556.50 1211.21 548.85 1211.21L548.85 1211.21Q529.72 1211.21 511.87 1207.39L511.87 1207.39Q510.60 1207.39 508.69 1206.75Q506.77 1206.11 504.22 1206.11L504.22 1206.11Q485.10 1206.11 485.10 1222.69L485.10 1222.69Q485.10 1227.79 493.39 1246.28Q501.67 1264.76 519.52 1282.61Q537.37 1300.46 565.42 1300.46L565.42 1300.46Q574.35 1300.46 584.55 1299.83Q594.75 1299.19 608.77 1297.91L608.77 1297.91ZM1002.75 1171.69L1002.75 1171.69Q1018.05 1171.69 1032.07 1149.38Q1046.10 1127.06 1046.10 1105.39L1046.10 1105.39Q1046.10 1082.44 1012.95 1068.41L1012.95 1068.41Q996.37 1059.49 961.95 1045.46Q927.52 1031.44 885.45 1014.86Q843.37 998.29 802.57 982.99Q761.77 967.69 731.17 958.13Q700.57 948.56 690.37 948.56L690.37 948.56Q668.70 948.56 655.95 982.99L655.95 982.99Q652.12 995.74 652.12 1004.66L652.12 1004.66Q652.12 1026.34 681.45 1036.54L681.45 1036.54Q750.30 1059.49 826.80 1091.36Q903.30 1123.24 975.97 1162.76L975.97 1162.76Q991.27 1171.69 1002.75 1171.69ZM1621.13 1594.99L1621.13 1594.99Q1645.35 1594.99 1653 1565.66L1653 1565.66Q1688.70 1413.94 1697.63 1249.46L1697.63 1249.46Q1697.63 1230.34 1688.70 1220.78Q1679.78 1211.21 1644.08 1207.39L1644.08 1207.39Q1610.92 1207.39 1609.65 1244.36L1609.65 1244.36Q1596.90 1412.66 1558.65 1537.61L1558.65 1537.61Q1556.10 1546.54 1556.10 1552.91L1556.10 1552.91Q1556.10 1569.49 1570.76 1579.05Q1585.42 1588.61 1600.09 1591.80Q1614.75 1594.99 1621.13 1594.99ZM1973.03 1471.31L1973.03 1471.31Q1984.50 1471.31 2002.35 1463.66L2002.35 1463.66Q2036.78 1449.64 2036.78 1429.24L2036.78 1429.24Q2036.78 1411.39 1994.70 1317.04L1994.70 1317.04Q1957.72 1232.89 1944.34 1206.75Q1930.95 1180.61 1911.83 1180.61L1911.83 1180.61Q1901.63 1180.61 1879.31 1192.09Q1857 1203.56 1857 1218.86L1857 1218.86Q1857 1229.06 1864.65 1240.54L1864.65 1240.54Q1900.35 1311.94 1942.43 1443.26L1942.43 1443.26Q1952.63 1471.31 1973.03 1471.31ZM1961.55 2020.84L1961.55 2020.84L2729.10 1999.16Q2766.07 1995.34 2766.07 1974.94L2766.07 1974.94Q2766.07 1960.91 2751.41 1943.70Q2736.75 1926.49 2718.90 1913.74Q2701.05 1900.99 2688.30 1900.99L2688.30 1900.99Q2683.20 1900.99 2671.73 1903.54L2671.73 1903.54Q2652.60 1909.91 2610.53 1912.46L2610.53 1912.46L2458.80 1916.29Q2494.50 1784.96 2525.10 1649.81L2525.10 1649.81Q2586.30 1379.51 2592.04 1369.31Q2597.78 1359.11 2597.78 1347.64L2597.78 1347.64Q2597.78 1327.24 2575.46 1311.94Q2553.15 1296.64 2513.63 1296.64L2513.63 1296.64L2229.30 1313.21Q2261.18 1203.56 2280.30 1123.24L2280.30 1123.24Q2660.25 1100.29 2673 1095.83Q2685.75 1091.36 2685.75 1077.34L2685.75 1077.34Q2685.75 1060.76 2669.18 1044.83Q2652.60 1028.89 2634.11 1017.41Q2615.63 1005.94 2606.70 1005.94Q2597.78 1005.94 2586.30 1009.76L2586.30 1009.76Q2562.07 1018.69 2528.93 1021.24L2528.93 1021.24L2038.05 1049.29Q2011.28 1049.29 1985.78 1041.64L1985.78 1041.64Q1980.68 1040.36 1974.30 1040.36L1974.30 1040.36Q1956.45 1040.36 1956.45 1055.66Q1956.45 1070.96 1969.84 1091.36Q1983.22 1111.76 1994.70 1123.24Q2006.18 1134.71 2039.33 1137.26L2039.33 1137.26Q2053.35 1137.26 2178.30 1129.61L2178.30 1129.61Q2072.47 1580.96 2004.90 1717.39L2004.90 1717.39Q1997.25 1733.96 1997.25 1742.89L1997.25 1742.89Q1997.25 1767.11 2020.84 1787.51Q2044.43 1807.91 2063.55 1807.91L2063.55 1807.91Q2083.95 1807.91 2092.88 1783.69L2092.88 1783.69L2106.90 1736.51L2358.07 1723.76Q2391.23 1719.94 2391.23 1696.99L2391.23 1696.99Q2391.23 1685.51 2379.11 1670.85Q2367 1656.19 2351.06 1643.44Q2335.13 1630.69 2319.82 1630.69L2319.82 1630.69Q2313.45 1630.69 2309.63 1633.24L2309.63 1633.24Q2293.05 1638.34 2136.22 1647.26L2136.22 1647.26L2159.18 1570.76L2389.95 1556.74Q2421.82 1552.91 2421.82 1529.96L2421.82 1529.96Q2421.82 1519.76 2409.71 1505.10Q2397.60 1490.44 2381.03 1477.69Q2364.45 1464.94 2349.15 1464.94L2349.15 1464.94Q2344.05 1464.94 2335.13 1470.04L2335.13 1470.04Q2317.28 1476.41 2284.13 1476.41L2284.13 1476.41L2183.40 1484.06L2206.35 1405.01L2484.30 1387.16Q2411.63 1726.31 2356.80 1918.84L2356.80 1918.84L1966.65 1930.31Q1933.50 1930.31 1900.35 1918.84L1900.35 1918.84Q1896.53 1917.56 1891.43 1917.56L1891.43 1917.56Q1874.85 1917.56 1874.85 1936.69L1874.85 1936.69L1876.13 1941.79Q1892.70 2020.84 1961.55 2020.84ZM1793.25 2106.26L1813.65 2111.36Q1841.70 2111.36 1841.70 2078.21L1841.70 2078.21L1845.53 982.99Q1845.53 948.56 1752.45 931.99L1752.45 931.99Q1726.95 931.99 1726.95 949.84L1726.95 949.84Q1726.95 958.76 1737.79 972.79Q1748.63 986.81 1748.63 1016.14L1748.63 1016.14L1742.25 1950.71Q1742.25 1985.14 1732.05 2033.59L1732.05 2033.59Q1730.78 2038.69 1730.78 2048.89L1730.78 2048.89Q1730.78 2089.69 1793.25 2106.26L1793.25 2106.26Z"/>
  </svg>