<svg xmlns="http://www.w3.org/2000/svg" viewBox="0 0 3000 3000" width="3000" height="3000">
    <path fill="#000000" d="M1220 686L1220 686Q1182 674 1182 648L1182 648Q1182 636 1188 618L1188 618Q1204 572 1230 572L1230 572Q1278 572 1652 724L1652 724Q1706 746 1741 762Q1776 778 1776 807Q1776 836 1757 867Q1738 898 1722 898Q1706 898 1587 833Q1468 768 1220 686ZM938 976L938 976Q978 984 1008 984L1008 984L1524 946Q1552 946 1587 966Q1622 986 1622 1020L1622 1020L1612 1068L1612 1270Q1696 1404 1746 1474L1746 1474Q1960 1326 2084 1172L2084 1172Q2114 1134 2118 1100Q2122 1066 2139 1066Q2156 1066 2180 1088L2180 1088Q2246 1148 2246 1186L2246 1186Q2246 1210 2138 1306L2138 1306Q1946 1474 1814 1562L1814 1562Q2076 1886 2412 2066L2412 2066Q2448 2084 2448 2098L2448 2098Q2448 2104 2428 2124L2428 2124Q2374 2182 2326 2182L2326 2182Q2312 2182 2296 2170L2296 2170Q2104 2042 1926 1860Q1748 1678 1610 1472L1610 1472L1608 2176L1610 2252Q1610 2308 1579 2336Q1548 2364 1518 2364Q1488 2364 1438 2341Q1388 2318 1330 2282Q1272 2246 1219 2206Q1166 2166 1132 2134Q1098 2102 1098 2086Q1098 2070 1116 2070Q1134 2070 1224 2113Q1314 2156 1472 2200L1472 2200L1476 1068L1100 1096Q1060 1100 1027 1100Q994 1100 969 1075Q944 1050 932 1023Q920 996 920 990L920 990Q920 976 938 976ZM694 1324L694 1324Q758 1332 788 1332L788 1332L814 1332L1240 1296Q1248 1294 1254 1294L1254 1294L1276 1294Q1294 1294 1329 1317Q1364 1340 1364 1365Q1364 1390 1352 1402Q1340 1414 1336 1420L1336 1420Q1206 1728 982 1942L982 1942Q810 2108 654 2180L654 2180Q594 2208 575 2208Q556 2208 556 2196L556 2196Q556 2176 590 2154L590 2154Q782 2016 942 1824Q1102 1632 1192 1414L1192 1414L856 1442Q820 1446 800 1446Q780 1446 748 1433Q716 1420 684 1352L684 1352Q678 1340 678 1332Q678 1324 694 1324Z"/>
  </svg>