<svg xmlns="http://www.w3.org/2000/svg" viewBox="0 0 3000 3000" width="3000" height="3000">
    <path fill="#000000" d="M1082 718L1082 718L1140 734Q1074 902 986 1062Q898 1222 797 1361Q696 1500 588 1610L588 1610Q584 1604 577 1595Q570 1586 562 1576Q554 1566 546 1562L546 1562Q654 1458 753 1323Q852 1188 937 1033Q1022 878 1082 718ZM860 2508L860 1196L914 1140L918 1142L918 2508L860 2508ZM1422 1772L1422 1714L2172 1714L2172 1772L1422 1772ZM2154 1724L2154 1714L2168 1714L2180 1708L2224 1732Q2164 1806 2086 1900Q2008 1994 1923 2092Q1838 2190 1760 2278L1760 2278L1710 2250Q1788 2164 1872 2066Q1956 1968 2031 1877Q2106 1786 2154 1724L2154 1724ZM1694 710L1694 710L1750 720Q1718 842 1677 984Q1636 1126 1593 1271Q1550 1416 1510 1546Q1470 1676 1436 1772L1436 1772L1370 1772Q1406 1672 1450 1540Q1494 1408 1538 1262Q1582 1116 1622 973Q1662 830 1694 710ZM1192 1024L1192 964L2306 964L2306 1024L1192 1024ZM1078 1406L1078 1346L2386 1346L2386 1406L1078 1406ZM1476 2100L1476 2100L1526 2064Q1618 2124 1714 2196Q1810 2268 1892 2338Q1974 2408 2024 2464L2024 2464L1972 2508Q1920 2450 1838 2377Q1756 2304 1661 2231Q1566 2158 1476 2100Z"/>
  </svg>