<svg xmlns="http://www.w3.org/2000/svg" viewBox="0 0 3000 3000" width="3000" height="3000">
    <path fill="#000000" d="M1590 2219L1590 2219Q1622 2219 1648 2188Q1674 2157 1674 2133L1674 2133Q1674 2111 1639 2079Q1604 2047 1557 2015Q1510 1983 1470 1959L1470 1959Q1454 1951 1444 1945L1444 1945L1886 1927L1888 2275Q1852 2273 1792 2259Q1732 2245 1672 2225L1672 2225Q1646 2217 1626 2217L1626 2217Q1592 2217 1592 2241Q1592 2265 1637 2299Q1682 2333 1742 2366Q1802 2399 1859 2423Q1916 2447 1944 2447L1944 2447Q1988 2447 2011 2415Q2034 2383 2034 2347L2034 2347Q2034 2333 2033 2315Q2032 2297 2032 2277L2032 2277L2030 1923L2380 1907Q2406 1905 2428 1896Q2450 1887 2450 1865L2450 1865Q2450 1849 2432 1827Q2414 1805 2390 1787Q2366 1769 2342 1769L2342 1769Q2330 1769 2322 1771L2322 1771Q2282 1781 2240 1783L2240 1783L2028 1793L2028 1737Q2028 1705 2000 1689L2000 1689Q1972 1675 1946 1667L1946 1667Q2038 1657 2142 1645L2142 1645Q2194 1713 2215 1730Q2236 1747 2250 1747L2250 1747Q2266 1747 2299 1723Q2332 1699 2332 1667L2332 1667Q2332 1645 2308 1621L2308 1621Q2232 1547 2192 1509L2192 1509Q2160 1479 2142 1463L2142 1463L2162 1463Q2186 1461 2205 1457Q2224 1453 2224 1431Q2224 1409 2184 1357L2184 1357L2222 1081Q2224 1077 2229 1068Q2234 1059 2234 1041L2234 1041Q2234 1013 2203 988Q2172 963 2140 963L2140 963Q2128 963 2122 965L2122 965L1788 985L1788 913L2256 887Q2312 881 2312 849L2312 849Q2312 829 2292 807Q2272 785 2248 770Q2224 755 2204 755L2204 755Q2200 755 2197 756Q2194 757 2190 757L2190 757Q2170 761 2151 765Q2132 769 2116 771L2116 771L1788 789L1788 669Q1788 647 1774 633Q1760 619 1720 603L1720 603Q1680 591 1656 591L1656 591Q1618 591 1618 619L1618 619Q1618 629 1626 641L1626 641Q1646 677 1646 711L1646 711L1646 795L1272 817L1252 817Q1222 817 1188 811L1188 811Q1182 809 1172 809L1172 809Q1166 809 1162 811L1162 811Q1166 799 1172 787L1172 787Q1192 733 1192 723L1192 723Q1192 699 1165 678Q1138 657 1105 643Q1072 629 1052 629L1052 629Q1016 629 1016 661L1016 661Q1016 665 1017 667Q1018 669 1018 673L1018 673Q1020 681 1021 688Q1022 695 1022 703L1022 703Q1022 727 993 809Q964 891 909 1013Q854 1135 771 1283Q688 1431 582 1589L582 1589Q556 1629 556 1651L556 1651Q556 1677 580 1677L580 1677Q608 1677 658 1626Q708 1575 767 1501Q826 1427 856 1383L856 1383L848 2207Q848 2237 845 2261Q842 2285 838 2313L838 2313Q836 2321 836 2335L836 2335Q836 2373 861 2395Q886 2417 912 2426Q938 2435 944 2435L944 2435Q992 2435 992 2381L992 2381L990 1177Q1016 1131 1050 1058Q1084 985 1116 913L1116 913Q1134 873 1150 839L1150 839Q1152 851 1160 871L1160 871Q1172 901 1198 927L1198 927Q1218 941 1262 941L1262 941L1296 941L1648 919L1648 991L1366 1009Q1314 993 1284 987Q1254 981 1236 981L1236 981Q1204 981 1204 1005L1204 1005Q1204 1013 1209 1020Q1214 1027 1218 1037L1218 1037Q1234 1065 1240 1125L1240 1125L1264 1375Q1264 1383 1265 1391Q1266 1399 1266 1407L1266 1407Q1266 1417 1265 1428Q1264 1439 1262 1455L1262 1455Q1262 1457 1261 1461Q1260 1465 1260 1471L1260 1471Q1260 1511 1303 1533Q1346 1555 1370 1555L1370 1555Q1410 1555 1410 1509L1410 1509L1410 1501L1410 1499L1652 1485L1652 1571Q1560 1579 1451 1584Q1342 1589 1240 1593L1240 1593Q1222 1593 1197 1592Q1172 1591 1148 1585L1148 1585Q1142 1583 1134 1583L1134 1583Q1112 1583 1112 1605L1112 1605Q1112 1625 1134 1660Q1156 1695 1172 1711L1172 1711Q1192 1731 1232 1731L1232 1731Q1234 1731 1468 1715L1468 1715Q1618 1703 1860 1677L1860 1677Q1858 1681 1858 1687L1858 1687Q1858 1695 1866 1711L1866 1711Q1876 1731 1881 1758Q1886 1785 1886 1799L1886 1799L1158 1831L1138 1831Q1124 1831 1106 1829Q1088 1827 1074 1823L1074 1823Q1068 1821 1058 1821L1058 1821Q1036 1821 1036 1845L1036 1845Q1036 1855 1047 1882Q1058 1909 1083 1934Q1108 1959 1146 1959L1146 1959Q1154 1959 1164 1958Q1174 1957 1184 1957L1184 1957L1388 1949Q1380 1955 1372 1965L1372 1965Q1352 1993 1352 2013L1352 2013Q1352 2031 1374 2045L1374 2045Q1452 2103 1544 2195L1544 2195Q1568 2219 1590 2219ZM1394 1305L1650 1289L1650 1369L1402 1385L1394 1305ZM1786 1283L2060 1269L2054 1351L1786 1365L1786 1283ZM1378 1123L1648 1105L1650 1179L1386 1197L1378 1123ZM1788 1099L2078 1081L2072 1157L1786 1173L1788 1099ZM1786 1563L1786 1481L2054 1469Q2052 1471 2050 1473L2050 1473Q2032 1501 2032 1513L2032 1513Q2032 1531 2044 1545L2044 1545Q1996 1551 1923 1554Q1850 1557 1786 1563L1786 1563ZM2056 1559L2048 1549Q2050 1551 2052 1553L2052 1553L2056 1559Z"/>
  </svg>