<svg xmlns="http://www.w3.org/2000/svg" viewBox="0 0 3000 3000" width="3000" height="3000">
    <path fill="#000000" d="M1660.16 1685.55L1660.16 1523.44L1312.50 1523.44Q1169.92 1523.44 1169.92 1373.05L1169.92 1373.05L1169.92 1123.05Q1169.92 978.52 1316.41 978.52L1316.41 978.52L1660.16 978.52L1660.16 892.58L1226.56 892.58Q1150.39 892.58 1150.39 828.13L1150.39 828.13Q1150.39 763.67 1226.56 763.67L1226.56 763.67L1660.16 763.67L1660.16 695.31Q1660.16 615.23 1734.38 615.23L1734.38 615.23Q1810.55 615.23 1810.55 695.31L1810.55 695.31L1810.55 763.67L2279.30 763.67Q2355.47 763.67 2355.47 828.13L2355.47 828.13Q2355.47 892.58 2279.30 892.58L2279.30 892.58L1810.55 892.58L1810.55 978.52L2154.30 978.52Q2302.73 978.52 2302.73 1128.91L2302.73 1128.91L2302.73 1373.05Q2302.73 1458.98 2254.88 1491.21Q2207.03 1523.44 2103.52 1523.44L2103.52 1523.44L1810.55 1523.44L1810.55 1683.59L1660.16 1685.55ZM949.22 2384.77Q908.20 2384.77 888.67 2361.33Q869.14 2337.89 869.14 2289.06L869.14 2289.06L869.14 1263.67L1025.39 968.75L1025.39 2289.06Q1025.39 2337.89 1006.84 2361.33Q988.28 2384.77 949.22 2384.77L949.22 2384.77ZM1521.48 2277.34Q1501.95 2277.34 1480.47 2260.74Q1458.98 2244.14 1427.73 2208.98L1427.73 2208.98L1367.19 2136.72Q1333.98 2097.66 1333.98 2076.17L1333.98 2076.17Q1333.98 2009.77 1408.20 2009.77L1408.20 2009.77Q1445.31 2009.77 1523.44 2087.89L1523.44 2087.89Q1601.56 2169.92 1601.56 2205.08L1601.56 2205.08Q1601.56 2277.34 1521.48 2277.34L1521.48 2277.34ZM636.72 1562.50Q605.47 1537.11 605.47 1507.81L605.47 1507.81Q605.47 1480.47 628.91 1449.22L628.91 1449.22Q720.70 1318.36 774.41 1225.59Q828.13 1132.81 882.81 1013.67L882.81 1013.67Q945.31 878.91 1005.86 677.73L1005.86 677.73Q1021.48 617.19 1083.98 617.19L1083.98 617.19Q1093.75 617.19 1113.28 621.09L1113.28 621.09Q1167.97 634.77 1167.97 691.41L1167.97 691.41Q1167.97 707.03 1162.11 728.52L1162.11 728.52Q1142.58 796.88 1077.15 948.24Q1011.72 1099.61 922.85 1263.67Q833.98 1427.73 746.09 1537.11L746.09 1537.11Q710.94 1578.13 677.73 1578.13L677.73 1578.13Q658.20 1578.13 636.72 1562.50L636.72 1562.50ZM1154.30 1970.70Q1082.03 1970.70 1082.03 1906.25L1082.03 1906.25Q1082.03 1841.80 1154.30 1841.80L1154.30 1841.80L2312.50 1841.80Q2384.77 1841.80 2384.77 1906.25L2384.77 1906.25Q2384.77 1970.70 2312.50 1970.70L2312.50 1970.70L1154.30 1970.70ZM1802.73 2384.77Q1712.89 2384.77 1712.89 2310.55L1712.89 2310.55Q1712.89 2236.33 1802.73 2236.33L1802.73 2236.33L1900.39 2236.33Q1933.59 2236.33 1953.13 2218.75Q1972.66 2201.17 1972.66 2169.92L1972.66 2169.92L1972.66 1673.83L2121.09 1673.83L2121.09 2210.94Q2121.09 2306.64 2081.05 2345.70Q2041.02 2384.77 1945.31 2384.77L1945.31 2384.77L1802.73 2384.77ZM1207.03 1763.67Q1126.95 1765.63 1126.95 1697.27L1126.95 1697.27Q1126.95 1664.06 1146.48 1647.46Q1166.02 1630.86 1197.27 1630.86L1197.27 1630.86Q1689.45 1626.95 2191.41 1603.52L2191.41 1603.52L2216.80 1707.03Q1785.16 1746.09 1207.03 1763.67L1207.03 1763.67ZM1365.23 1406.25L1660.16 1406.25L1660.16 1304.69L1314.45 1304.69L1314.45 1355.47Q1314.45 1378.91 1328.13 1392.58Q1341.80 1406.25 1365.23 1406.25L1365.23 1406.25ZM1314.45 1191.41L1660.16 1191.41L1660.16 1095.70L1365.23 1095.70Q1314.45 1095.70 1314.45 1144.53L1314.45 1144.53L1314.45 1191.41ZM2289.06 1769.53Q2263.67 1769.53 2227.54 1743.16Q2191.41 1716.80 2134.77 1666.02L2134.77 1666.02L2078.13 1617.19Q2050.78 1593.75 2041.02 1581.05Q2031.25 1568.36 2031.25 1556.64L2031.25 1556.64Q2031.25 1537.11 2041.99 1521.48Q2052.73 1505.86 2080.08 1505.86L2080.08 1505.86Q2119.14 1505.86 2172.85 1538.09Q2226.56 1570.31 2308.59 1638.67L2308.59 1638.67Q2347.66 1669.92 2347.66 1708.98L2347.66 1708.98Q2347.66 1734.38 2330.08 1751.95Q2312.50 1769.53 2289.06 1769.53L2289.06 1769.53ZM2105.47 1406.25Q2130.86 1406.25 2144.53 1392.58Q2158.20 1378.91 2158.20 1353.52L2158.20 1353.52L2158.20 1304.69L1810.55 1304.69L1810.55 1406.25L2105.47 1406.25ZM1810.55 1191.41L2158.20 1191.41L2158.20 1146.48Q2158.20 1095.70 2105.47 1095.70L2105.47 1095.70L1810.55 1095.70L1810.55 1191.41Z"/>
  </svg>