<svg xmlns="http://www.w3.org/2000/svg" viewBox="0 0 3000 3000" width="3000" height="3000">
    <path fill="#000000" d="M1582 1040L1446 1048Q1432 1050 1418 1050L1418 1050L1376 1050Q1332 1050 1296 982L1296 982Q1282 954 1282 942Q1282 930 1289 930Q1296 930 1319 938Q1342 946 1396 946L1396 946L1412 946L1612 934L1680 704Q1698 644 1680 594L1680 594Q1674 576 1676 568L1676 568Q1680 556 1698 558L1698 558Q1724 562 1772 590L1772 590Q1810 610 1816 626Q1822 642 1814 674L1814 674L1740 928L2038 910Q2092 908 2116 898Q2140 888 2152 888Q2164 888 2209 921Q2254 954 2254 980L2254 980Q2254 1000 2204 1004L2204 1004L1708 1032L1640 1266L2236 1236Q2294 1232 2318 1223Q2342 1214 2354 1214Q2366 1214 2391 1234Q2416 1254 2436 1277Q2456 1300 2456 1310L2456 1310Q2456 1330 2404 1334L2404 1334L1606 1378L1534 1628L2144 1588L2166 1588Q2206 1588 2233 1610Q2260 1632 2260 1654L2260 1654Q2260 1670 2246 1684Q2232 1698 2228 1704L2228 1704Q2082 1898 1846 2114L1846 2114Q1854 2120 1864 2128L1864 2128Q1986 2224 2011 2247Q2036 2270 2036 2284L2036 2284Q2040 2308 2013 2339Q1986 2370 1970 2370L1970 2370Q1952 2372 1922 2342L1922 2342Q1826 2252 1716 2160Q1606 2068 1512 2004L1512 2004Q1490 1988 1488 1974L1488 1974Q1486 1952 1504 1929Q1522 1906 1536 1904L1536 1904Q1554 1902 1632 1956L1632 1956Q1682 1990 1756 2046L1756 2046Q1946 1884 2082 1696L2082 1696L1530 1734Q1498 1736 1482 1738L1482 1738Q1474 1742 1464 1740L1464 1740Q1438 1738 1408 1704Q1378 1670 1388 1638L1388 1638L1394 1622Q1434 1540 1464 1440L1464 1440L1480 1384L1230 1398Q1174 1398 1145 1370Q1116 1342 1100 1292L1100 1292Q1098 1288 1098 1280Q1098 1272 1106 1272Q1114 1272 1138 1280Q1162 1288 1212 1288L1212 1288L1230 1288L1512 1274L1582 1040ZM1098 598L1098 598L1098 590Q1098 570 1121 570Q1144 570 1174 584L1174 584Q1254 618 1254 656L1254 656Q1254 664 1224 730L1224 730Q1146 914 1030 1098L1030 1098L1036 2324Q1036 2366 1000 2366L1000 2366Q970 2366 931 2340Q892 2314 892 2276L892 2276Q892 2266 899 2233Q906 2200 906 2144L906 2144L910 1274Q834 1378 723 1488Q612 1598 578 1598L578 1598Q566 1598 566 1584Q566 1570 594 1532L594 1532Q784 1296 956 978L956 978Q1026 848 1064 756Q1102 664 1102 639Q1102 614 1098 598Z"/>
  </svg>