<svg xmlns="http://www.w3.org/2000/svg" viewBox="0 0 3000 3000" width="3000" height="3000">
    <path fill="#000000" d="M652.12 1035.90L652.12 1035.90Q663.60 1010.40 698.02 1041L698.02 1041Q715.87 1056.30 722.25 1056.30L722.25 1056.30Q728.62 1056.30 745.20 1074.15Q761.77 1092 764.32 1103.47L764.32 1103.47Q769.42 1130.25 747.75 1151.92L747.75 1151.92L706.95 1187.63Q677.62 1214.40 654.67 1251.38L654.67 1251.38L622.80 1303.65L599.85 1338.07Q546.30 1423.50 527.17 1445.17L527.17 1445.17Q511.87 1463.03 511.87 1466.21Q511.87 1469.40 483.82 1500L483.82 1500Q460.87 1521.67 378.00 1584.79Q295.12 1647.90 288.75 1647.90L288.75 1647.90Q282.37 1647.90 282.37 1635.15L282.37 1635.15Q282.37 1624.95 297.67 1607.10Q312.97 1589.25 356.32 1544.63L356.32 1544.63Q384.37 1516.57 424.54 1459.84Q464.70 1403.10 490.20 1354.65L490.20 1354.65Q506.77 1324.05 513.15 1315.13L513.15 1315.13Q516.97 1311.30 536.74 1271.14Q556.50 1230.97 565.42 1211.85L565.42 1211.85Q569.25 1204.20 574.35 1196.55Q579.45 1188.90 608.14 1126.42Q636.82 1063.95 641.29 1056.30Q645.75 1048.65 652.12 1035.90ZM950.47 1208.02L963.22 1139.17Q975.97 1070.32 979.16 1043.55Q982.35 1016.77 991.27 990.00Q1000.20 963.22 1009.12 963.22L1009.12 963.22Q1018.05 963.22 1041.64 981.07Q1065.22 998.92 1067.77 1006.57L1067.77 1006.57Q1079.25 1034.63 1062.67 1098.38L1062.67 1098.38Q1052.47 1132.80 1048.65 1164.67L1048.65 1164.67L1044.82 1194L1080.52 1188.90Q1116.22 1185.07 1128.97 1181.25L1128.97 1181.25Q1158.30 1169.77 1187.63 1181.25L1187.63 1181.25Q1202.92 1186.35 1205.47 1206.75Q1208.02 1227.15 1197.82 1251.38L1197.82 1251.38Q1191.45 1265.40 1186.99 1270.50Q1182.52 1275.60 1171.05 1276.88L1171.05 1276.88Q1088.17 1288.35 1056.30 1293.45L1056.30 1293.45Q1030.80 1296 1030.80 1305.56Q1030.80 1315.13 1023.15 1345.09Q1015.50 1375.05 1018.69 1379.51Q1021.87 1383.97 1050.56 1381.42Q1079.25 1378.88 1157.66 1375.69Q1236.07 1372.50 1264.12 1368.67L1264.12 1368.67Q1317.67 1359.75 1382.70 1362.30L1382.70 1362.30Q1394.17 1363.57 1417.76 1385.89Q1441.35 1408.20 1441.99 1427.32Q1442.63 1446.45 1420.95 1473.22L1420.95 1473.22Q1406.92 1488.52 1399.91 1492.99Q1392.90 1497.45 1381.42 1497.45L1381.42 1497.45Q1362.30 1497.45 1354.65 1493.63L1354.65 1493.63Q1325.32 1479.60 1283.25 1473.86Q1241.17 1468.13 1205.47 1474.50L1205.47 1474.50Q1188.90 1477.05 1124.51 1482.15Q1060.13 1487.25 1023.15 1496.17L1023.15 1496.17Q1000.20 1503.82 993.19 1507.65Q986.17 1511.47 979.80 1524.22L979.80 1524.22Q973.42 1543.35 960.67 1567.57Q947.92 1591.80 947.92 1594.35L947.92 1594.35Q949.20 1595.63 968.96 1595.63Q988.72 1595.63 1024.42 1593.07Q1060.13 1590.53 1102.20 1586.70L1102.20 1586.70Q1151.92 1581.60 1171.05 1587.34Q1190.17 1593.07 1215.67 1619.85L1215.67 1619.85Q1243.72 1649.17 1248.82 1663.20Q1253.92 1677.22 1246.27 1698.90L1246.27 1698.90Q1238.63 1721.85 1232.25 1733.33L1232.25 1733.33Q1220.77 1755 1193.36 1793.89Q1165.95 1832.78 1155.75 1842.97L1155.75 1842.97Q1140.45 1858.28 1140.45 1864.01Q1140.45 1869.75 1100.92 1908L1100.92 1908L1061.40 1943.70L1081.80 1959Q1099.65 1970.47 1104.11 1985.14Q1108.57 1999.80 1112.40 2053.35L1112.40 2053.35Q1114.95 2090.32 1106.66 2097.97Q1098.38 2105.63 1056.30 2105.63L1056.30 2105.63L1014.22 2105.63L977.25 2067.38Q888.00 1974.30 879.07 1956.45L879.07 1956.45Q875.25 1943.70 875.89 1923.30Q876.52 1902.90 882.90 1897.80L882.90 1897.80Q896.92 1886.33 959.40 1911.83L959.40 1911.83Q977.25 1920.75 985.54 1916.92Q993.82 1913.10 1006.57 1892.70L1006.57 1892.70Q1023.15 1862.10 1049.29 1809.19Q1075.42 1756.28 1080.52 1735.88L1080.52 1735.88Q1093.27 1689.97 1081.80 1692.53L1081.80 1692.53Q1076.70 1697.63 1046.10 1696.35L1046.10 1696.35Q1019.32 1696.35 973.42 1705.91Q927.52 1715.47 909.67 1725.67L909.67 1725.67Q893.10 1733.33 876.52 1747.99Q859.95 1762.65 851.02 1762.65L851.02 1762.65Q845.92 1762.65 837.00 1746.08Q828.07 1729.50 825.52 1714.20L825.52 1714.20Q817.87 1674.67 811.50 1665.75L811.50 1665.75Q806.40 1659.38 815.32 1645.35Q824.25 1631.33 826.16 1616.03Q828.07 1600.72 839.55 1585.42L839.55 1585.42Q865.05 1551 865.05 1534.42L865.05 1534.42Q865.05 1531.88 857.40 1530.60Q849.75 1529.32 838.91 1530.60Q828.07 1531.88 819.15 1534.42L819.15 1534.42Q805.12 1539.53 775.16 1542.07Q745.20 1544.63 722.25 1552.28L722.25 1552.28Q684.00 1565.03 655.95 1535.70L655.95 1535.70Q644.47 1524.22 635.55 1523.59Q626.62 1522.95 624.07 1535.70L624.07 1535.70Q621.52 1547.17 618.34 1632.60Q615.15 1718.03 610.05 1780.50Q604.95 1842.97 603.04 1890.15Q601.12 1937.33 587.10 1966.65L587.10 1966.65Q566.70 2008.72 556.50 1994.70L556.50 1994.70Q551.40 1984.50 539.92 1973.03L539.92 1973.03Q523.35 1957.72 518.25 1920.75L518.25 1920.75Q516.97 1905.45 506.77 1868.47L506.77 1868.47Q499.12 1840.42 499.12 1834.69Q499.12 1828.95 506.77 1821.30L506.77 1821.30Q516.97 1813.65 528.45 1789.42L528.45 1789.42Q534.82 1774.13 538.01 1740.97Q541.20 1707.83 546.30 1599.45L546.30 1599.45Q552.67 1469.40 557.77 1436.25Q562.87 1403.10 580.72 1392.90L580.72 1392.90Q596.02 1382.70 613.24 1403.10Q630.45 1423.50 630.45 1452.82L630.45 1452.82Q630.45 1477.05 634.91 1477.05Q639.37 1477.05 662.32 1469.40Q685.27 1461.75 708.22 1456.65Q731.17 1451.55 765.60 1441.35L765.60 1441.35L849.75 1417.13L904.57 1400.55Q909.67 1399.28 917.96 1369.31Q926.25 1339.35 926.25 1322.78L926.25 1322.78Q926.25 1311.30 924.97 1308.75Q923.70 1306.20 918.60 1308.75L918.60 1308.75Q902.02 1312.57 857.40 1318.31Q812.77 1324.05 805.12 1322.78L805.12 1322.78Q773.25 1312.57 770.70 1283.25L770.70 1283.25Q769.42 1269.22 771.34 1264.13Q773.25 1259.03 787.27 1252.65L787.27 1252.65Q801.30 1245 854.21 1229.70Q907.12 1214.40 932.62 1210.57L932.62 1210.57L950.47 1208.02ZM2078.85 1012.95L2078.85 1012.95Q2129.85 1007.85 2134.95 1006.57Q2140.05 1005.30 2174.47 1004.02L2174.47 1004.02L2208.90 1004.02L2235.68 1030.80Q2261.18 1058.85 2263.73 1070.32L2263.73 1070.32Q2271.38 1100.92 2239.50 1118.77L2239.50 1118.77Q2197.43 1144.27 2170.65 1163.40L2170.65 1163.40Q2150.25 1177.42 2136.22 1187.63L2136.22 1187.63Q2085.22 1214.40 2075.03 1227.15Q2064.82 1239.90 2073.75 1261.57L2073.75 1261.57Q2077.57 1270.50 2083.95 1271.78Q2090.32 1273.05 2115.82 1271.78L2115.82 1271.78Q2152.80 1270.50 2174.47 1276.88L2174.47 1276.88Q2189.78 1280.70 2192.96 1280.06Q2196.15 1279.42 2196.15 1271.78L2196.15 1271.78Q2196.15 1261.57 2202.53 1245L2202.53 1245L2207.63 1229.70L2222.93 1246.28Q2240.78 1265.40 2240.78 1270.50L2240.78 1270.50Q2240.78 1279.42 2264.36 1333.61Q2287.95 1387.80 2294.32 1387.80L2294.32 1387.80Q2299.43 1387.80 2300.06 1383.34Q2300.70 1378.88 2330.03 1347Q2359.35 1315.13 2381.66 1286.44Q2403.98 1257.75 2409.71 1252.01Q2415.45 1246.28 2418 1237.99Q2420.55 1229.70 2434.57 1224.60L2434.57 1224.60Q2443.50 1220.77 2447.96 1222.69Q2452.43 1224.60 2467.73 1239.90L2467.73 1239.90Q2485.58 1261.57 2489.40 1274.32Q2493.23 1287.07 2499.60 1294.72L2499.60 1294.72Q2504.70 1299.82 2503.43 1303.65Q2502.15 1307.47 2493.23 1315.13L2493.23 1315.13Q2476.65 1330.42 2425.65 1363.57Q2374.65 1396.72 2347.88 1410.75L2347.88 1410.75Q2316 1427.32 2314.73 1429.88L2314.73 1429.88Q2313.45 1431.15 2330.66 1466.21Q2347.88 1501.28 2359.35 1516.57L2359.35 1516.57Q2368.28 1531.88 2373.38 1542.07L2373.38 1542.07Q2379.75 1558.65 2394.41 1579.69Q2409.07 1600.72 2419.28 1608.38L2419.28 1608.38Q2433.30 1621.13 2442.23 1630.05L2442.23 1630.05Q2512.35 1706.55 2520 1706.55L2520 1706.55Q2526.38 1706.55 2526.38 1712.92Q2526.38 1719.30 2544.23 1730.78Q2562.07 1742.25 2567.18 1747.99Q2572.28 1753.72 2606.70 1770.30Q2641.13 1786.88 2658.98 1799.63L2658.98 1799.63Q2694.68 1826.40 2702.32 1822.58L2702.32 1822.58Q2706.15 1820.03 2715.71 1830.22Q2725.28 1840.42 2734.20 1846.80L2734.20 1846.80Q2746.95 1854.45 2745.68 1862.10Q2744.40 1869.75 2730.38 1876.13L2730.38 1876.13Q2712.53 1883.78 2701.05 1883.78L2701.05 1883.78Q2685.75 1883.78 2646.86 1894.61Q2607.98 1905.45 2587.57 1914.38L2587.57 1914.38Q2565.90 1927.13 2544.23 1923.30L2544.23 1923.30Q2527.65 1920.75 2498.96 1903.54Q2470.28 1886.33 2451.15 1868.47L2451.15 1868.47Q2437.13 1854.45 2430.75 1850.63L2430.75 1850.63Q2426.93 1846.80 2390.59 1800.90Q2354.25 1755 2345.32 1738.42L2345.32 1738.42Q2338.95 1728.22 2318.55 1689.97L2318.55 1689.97Q2296.88 1645.35 2289.86 1634.51Q2282.85 1623.67 2280.30 1623.67L2280.30 1623.67Q2277.75 1623.67 2262.45 1646.63Q2247.15 1669.58 2238.22 1668.30L2238.22 1668.30Q2211.45 1664.47 2161.72 1670.21Q2112 1675.95 2106.90 1684.88L2106.90 1684.88Q2103.07 1689.97 2103.07 1720.58L2103.07 1720.58Q2103.07 1753.72 2092.88 1823.21Q2082.68 1892.70 2073.75 1920.75L2073.75 1920.75Q2064.82 1951.35 2053.35 1970.47L2053.35 1970.47Q2016.38 2035.50 2008.73 2035.50L2008.73 2035.50Q2004.90 2035.50 1988.33 2050.80L1988.33 2050.80Q1961.55 2073.75 1961.55 2058.45L1961.55 2058.45Q1961.55 2052.07 1948.80 2041.24Q1936.05 2030.40 1936.05 2020.20Q1936.05 2010 1931.59 2010Q1927.13 2010 1901.63 1983.22L1901.63 1983.22L1863.38 1942.42Q1850.63 1930.95 1836.60 1898.44Q1822.58 1865.92 1817.47 1858.28L1817.47 1858.28Q1813.65 1848.08 1816.20 1848.08L1816.20 1848.08Q1821.30 1848.08 1832.78 1860.83L1832.78 1860.83Q1844.25 1873.58 1850.63 1873.58Q1857 1873.58 1870.39 1880.59Q1883.78 1887.60 1909.28 1891.42L1909.28 1891.42L1934.78 1893.97L1950.08 1871.03Q1966.65 1846.80 1974.30 1825.13L1974.30 1825.13Q1979.40 1808.55 1981.31 1772.85Q1983.22 1737.15 1978.13 1733.33L1978.13 1733.33Q1975.58 1729.50 1962.19 1734.60Q1948.80 1739.70 1938.60 1747.35L1938.60 1747.35Q1924.58 1760.10 1918.84 1760.10Q1913.10 1760.10 1894.61 1769.66Q1876.13 1779.22 1866.56 1778.59Q1857 1777.95 1846.80 1763.92L1846.80 1763.92Q1835.33 1748.63 1827.04 1740.34Q1818.75 1732.05 1820.66 1730.14Q1822.58 1728.22 1813.01 1718.66Q1803.45 1709.10 1803.45 1703.36Q1803.45 1697.63 1798.35 1695.08L1798.35 1695.08Q1783.05 1691.25 1813.65 1677.22L1813.65 1677.22Q1817.47 1675.95 1821.30 1674.67L1821.30 1674.67Q1845.53 1665.75 1853.17 1660.01Q1860.83 1654.28 1872.30 1649.81Q1883.78 1645.35 1898.44 1637.06Q1913.10 1628.78 1941.15 1618.58L1941.15 1618.58Q1971.75 1607.10 1978.76 1600.09Q1985.78 1593.07 1981.95 1576.50L1981.95 1576.50Q1979.40 1559.92 1967.93 1559.92Q1956.45 1559.92 1933.50 1547.17L1933.50 1547.17Q1897.80 1529.32 1885.69 1506.38Q1873.58 1483.42 1887.60 1465.57L1887.60 1465.57Q1909.28 1438.80 1970.47 1422.22L1970.47 1422.22Q1983.22 1415.85 1986.41 1412.66Q1989.60 1409.47 1989.60 1399.28L1989.60 1399.28Q1989.60 1382.70 1985.78 1380.15L1985.78 1380.15Q1981.95 1377.60 1953.26 1384.61Q1924.58 1391.63 1918.20 1396.72L1918.20 1396.72Q1913.10 1401.82 1898.44 1401.19Q1883.78 1400.55 1872.30 1395.45L1872.30 1395.45Q1860.83 1390.35 1853.17 1414.57L1853.17 1414.57Q1848.08 1436.25 1845.53 1473.22L1845.53 1473.22Q1844.25 1522.95 1839.15 1532.51Q1834.05 1542.07 1820.66 1584.79Q1807.28 1627.50 1800.90 1635.79Q1794.53 1644.08 1794.53 1660.01Q1794.53 1675.95 1786.88 1682.33Q1779.22 1688.70 1779.22 1696.99Q1779.22 1705.28 1772.85 1709.10Q1766.47 1712.92 1756.91 1730.14Q1747.35 1747.35 1743.53 1753.72L1743.53 1753.72L1721.85 1780.50Q1705.28 1803.45 1705.28 1808.55L1705.28 1808.55Q1705.28 1813.65 1656.19 1857.64Q1607.10 1901.63 1581.60 1919.47L1581.60 1919.47Q1530.60 1955.17 1529.33 1938.60L1529.33 1938.60Q1526.78 1929.67 1549.72 1908L1549.72 1908Q1572.67 1886.33 1572.67 1881.86Q1572.67 1877.40 1593.71 1849.99Q1614.75 1822.58 1617.94 1814.92Q1621.13 1807.28 1631.33 1791.97Q1641.53 1776.67 1645.99 1767.75Q1650.45 1758.83 1660.65 1743.53Q1670.85 1728.22 1674.04 1720.58Q1677.22 1712.92 1688.70 1695.08L1688.70 1695.08Q1707.83 1665.75 1719.30 1614.75L1719.30 1614.75L1743.53 1524.22Q1770.30 1422.22 1761.38 1422.22L1761.38 1422.22Q1755 1422.22 1714.84 1443.26Q1674.67 1464.30 1670.85 1468.13L1670.85 1468.13Q1664.47 1475.77 1648.54 1475.14Q1632.60 1474.50 1618.58 1465.57L1618.58 1465.57Q1599.45 1454.10 1602 1443.90L1602 1443.90Q1603.28 1441.35 1607.10 1441.35L1607.10 1441.35Q1612.20 1441.35 1612.20 1432.42Q1612.20 1423.50 1621.13 1413.30L1621.13 1413.30Q1631.33 1405.65 1698.90 1371.86Q1766.47 1338.07 1772.85 1338.07L1772.85 1338.07Q1777.95 1338.07 1785.60 1330.42L1785.60 1330.42Q1790.70 1325.32 1796.44 1325.32Q1802.17 1325.32 1820.03 1331.70L1820.03 1331.70Q1846.80 1339.35 1846.80 1345.72L1846.80 1345.72Q1846.80 1349.55 1848.08 1351.46Q1849.35 1353.38 1853.17 1352.10Q1857 1350.82 1863.38 1348.91Q1869.75 1347 1879.95 1343.17L1879.95 1343.17L1946.25 1316.40Q1976.85 1303.65 1981.95 1299.19Q1987.05 1294.72 1988.33 1281.97L1988.33 1281.97Q1989.60 1264.13 1982.59 1261.57Q1975.58 1259.03 1975.58 1249.46Q1975.58 1239.90 1967.93 1220.14Q1960.28 1200.38 1965.38 1188.90L1965.38 1188.90Q1970.47 1177.42 1981.95 1177.42Q1993.43 1177.42 2029.13 1187.63L2029.13 1187.63Q2044.43 1191.45 2048.89 1189.54Q2053.35 1187.63 2064.82 1174.88L2064.82 1174.88Q2083.95 1151.92 2108.18 1120.05Q2132.40 1088.17 2132.40 1084.35L2132.40 1084.35Q2128.57 1081.80 2099.25 1082.44Q2069.93 1083.07 2033.59 1086.26Q1997.25 1089.45 1989.60 1092L1989.60 1092Q1978.13 1097.10 1927.13 1113.04Q1876.13 1128.97 1872.30 1136.63L1872.30 1136.63Q1863.38 1151.92 1830.22 1131.52L1830.22 1131.52Q1820.03 1126.42 1807.28 1107.94Q1794.53 1089.45 1790.70 1076.70L1790.70 1076.70Q1788.15 1067.77 1791.97 1065.22Q1795.80 1062.67 1816.20 1058.85L1816.20 1058.85Q1845.53 1052.47 1877.40 1044.82L1877.40 1044.82Q1970.47 1025.70 2078.85 1012.95ZM2206.35 1428.60L2206.35 1428.60Q2196.15 1390.35 2196.15 1369.95L2196.15 1369.95Q2193.60 1355.92 2188.50 1355.92L2188.50 1355.92Q2184.68 1361.03 2140.05 1361.03L2140.05 1361.03L2096.70 1361.03L2096.70 1376.32Q2096.70 1390.35 2098.61 1392.90Q2100.53 1395.45 2112 1396.72L2112 1396.72Q2126.03 1398 2138.78 1406.92Q2151.53 1415.85 2151.53 1424.78L2151.53 1424.78Q2151.53 1432.42 2159.81 1444.54Q2168.10 1456.65 2165.55 1466.85L2165.55 1466.85Q2163 1477.05 2141.32 1492.35Q2119.65 1507.65 2105.63 1508.92L2105.63 1508.92Q2095.43 1511.47 2092.88 1515.94Q2090.32 1520.40 2092.88 1539.53L2092.88 1539.53Q2094.15 1566.30 2098.61 1570.76Q2103.07 1575.22 2133.04 1570.76Q2163 1566.30 2169.38 1561.20L2169.38 1561.20Q2174.47 1554.82 2184.68 1554.82Q2194.88 1554.82 2199.97 1559.92L2199.97 1559.92Q2203.80 1563.75 2217.82 1566.30Q2231.85 1568.85 2242.69 1569.49Q2253.53 1570.13 2254.80 1567.57L2254.80 1567.57Q2254.80 1563.75 2243.32 1537.61Q2231.85 1511.47 2229.30 1503.19Q2226.75 1494.90 2215.28 1497.45L2215.28 1497.45Q2208.90 1500 2207.63 1498.72Q2206.35 1497.45 2208.90 1492.35L2208.90 1492.35Q2214 1477.05 2214 1466.85Q2214 1456.65 2206.35 1428.60Z"/>
  </svg>