<svg xmlns="http://www.w3.org/2000/svg" viewBox="0 0 3000 3000" width="3000" height="3000">
    <path fill="#000000" d="M964.60 1618.29L964.60 1514.94L742.97 1514.94Q652.08 1514.94 652.08 1419.07L652.08 1419.07L652.08 1259.69Q652.08 1167.55 745.46 1167.55L745.46 1167.55L964.60 1167.55L964.60 1112.77L688.18 1112.77Q639.62 1112.77 639.62 1071.68L639.62 1071.68Q639.62 1030.59 688.18 1030.59L688.18 1030.59L964.60 1030.59L964.60 987.01Q964.60 935.96 1011.91 935.96L1011.91 935.96Q1060.47 935.96 1060.47 987.01L1060.47 987.01L1060.47 1030.59L1359.30 1030.59Q1407.86 1030.59 1407.86 1071.68L1407.86 1071.68Q1407.86 1112.77 1359.30 1112.77L1359.30 1112.77L1060.47 1112.77L1060.47 1167.55L1279.61 1167.55Q1374.24 1167.55 1374.24 1263.43L1374.24 1263.43L1374.24 1419.07Q1374.24 1473.85 1343.74 1494.40Q1313.23 1514.94 1247.24 1514.94L1247.24 1514.94L1060.47 1514.94L1060.47 1617.04L964.60 1618.29ZM511.38 2064.04Q485.23 2064.04 472.78 2049.10Q460.33 2034.16 460.33 2003.03L460.33 2003.03L460.33 1349.34L559.94 1161.33L559.94 2003.03Q559.94 2034.16 548.11 2049.10Q536.28 2064.04 511.38 2064.04L511.38 2064.04ZM876.20 1995.56Q863.75 1995.56 850.05 1984.97Q836.35 1974.39 816.43 1951.98L816.43 1951.98L777.83 1905.91Q756.67 1881.01 756.67 1867.31L756.67 1867.31Q756.67 1824.98 803.98 1824.98L803.98 1824.98Q827.64 1824.98 877.44 1874.78L877.44 1874.78Q927.25 1927.08 927.25 1949.49L927.25 1949.49Q927.25 1995.56 876.20 1995.56L876.20 1995.56ZM312.16 1539.84Q292.24 1523.66 292.24 1504.98L292.24 1504.98Q292.24 1487.55 307.18 1467.63L307.18 1467.63Q365.70 1384.20 399.94 1325.06Q434.18 1265.92 469.04 1189.97L469.04 1189.97Q508.89 1104.05 547.49 975.81L547.49 975.81Q557.45 937.21 597.29 937.21L597.29 937.21Q603.52 937.21 615.97 939.70L615.97 939.70Q650.83 948.41 650.83 984.52L650.83 984.52Q650.83 994.48 647.09 1008.18L647.09 1008.18Q634.64 1051.76 592.93 1148.25Q551.22 1244.75 494.57 1349.34Q437.92 1453.93 381.88 1523.66L381.88 1523.66Q359.47 1549.80 338.31 1549.80L338.31 1549.80Q325.85 1549.80 312.16 1539.84L312.16 1539.84ZM642.11 1800.07Q596.04 1800.07 596.04 1758.98L596.04 1758.98Q596.04 1717.90 642.11 1717.90L642.11 1717.90L1380.47 1717.90Q1426.54 1717.90 1426.54 1758.98L1426.54 1758.98Q1426.54 1800.07 1380.47 1800.07L1380.47 1800.07L642.11 1800.07ZM1055.49 2064.04Q998.22 2064.04 998.22 2016.72L998.22 2016.72Q998.22 1969.41 1055.49 1969.41L1055.49 1969.41L1117.75 1969.41Q1138.92 1969.41 1151.37 1958.20Q1163.82 1947.00 1163.82 1927.08L1163.82 1927.08L1163.82 1610.82L1258.45 1610.82L1258.45 1953.22Q1258.45 2014.23 1232.92 2039.14Q1207.40 2064.04 1146.39 2064.04L1146.39 2064.04L1055.49 2064.04ZM675.73 1668.09Q624.68 1669.34 624.68 1625.76L624.68 1625.76Q624.68 1604.59 637.13 1594.01Q649.58 1583.42 669.51 1583.42L669.51 1583.42Q983.28 1580.93 1303.27 1565.99L1303.27 1565.99L1319.46 1631.98Q1044.29 1656.88 675.73 1668.09L675.73 1668.09ZM776.59 1440.23L964.60 1440.23L964.60 1375.49L744.21 1375.49L744.21 1407.86Q744.21 1422.80 752.93 1431.52Q761.65 1440.23 776.59 1440.23L776.59 1440.23ZM744.21 1303.27L964.60 1303.27L964.60 1242.26L776.59 1242.26Q744.21 1242.26 744.21 1273.39L744.21 1273.39L744.21 1303.27ZM1365.53 1671.83Q1349.34 1671.83 1326.31 1655.02Q1303.27 1638.21 1267.16 1605.83L1267.16 1605.83L1231.05 1574.71Q1213.62 1559.77 1207.40 1551.67Q1201.17 1543.58 1201.17 1536.11L1201.17 1536.11Q1201.17 1523.66 1208.02 1513.70Q1214.87 1503.74 1232.30 1503.74L1232.30 1503.74Q1257.20 1503.74 1291.44 1524.28Q1325.68 1544.82 1377.98 1588.40L1377.98 1588.40Q1402.88 1608.33 1402.88 1633.23L1402.88 1633.23Q1402.88 1649.41 1391.67 1660.62Q1380.47 1671.83 1365.53 1671.83L1365.53 1671.83ZM1248.49 1440.23Q1264.67 1440.23 1273.39 1431.52Q1282.10 1422.80 1282.10 1406.62L1282.10 1406.62L1282.10 1375.49L1060.47 1375.49L1060.47 1440.23L1248.49 1440.23ZM1060.47 1303.27L1282.10 1303.27L1282.10 1274.63Q1282.10 1242.26 1248.49 1242.26L1248.49 1242.26L1060.47 1242.26L1060.47 1303.27ZM1980.62 2069.02Q1920.85 2069.02 1920.85 2016.72L1920.85 2016.72Q1920.85 1963.18 1980.62 1963.18L1980.62 1963.18L2030.42 1963.18Q2072.75 1963.18 2075.24 1918.36L2075.24 1918.36L2075.24 1808.79L1897.19 1808.79Q1848.63 1808.79 1848.63 1763.96L1848.63 1763.96Q1848.63 1719.14 1897.19 1719.14L1897.19 1719.14L2075.24 1719.14L2075.24 1619.53L1966.92 1619.53Q1918.36 1619.53 1918.36 1577.20L1918.36 1577.20Q1918.36 1534.86 1966.92 1534.86L1966.92 1534.86L2075.24 1534.86L2075.24 1440.23L1960.69 1440.23Q1913.38 1440.23 1913.38 1396.66L1913.38 1396.66Q1913.38 1353.08 1960.69 1353.08L1960.69 1353.08L2075.24 1353.08L2075.24 1280.86Q2075.24 1250.98 2085.21 1228.56L2085.21 1228.56Q2092.68 1211.13 2146.22 1189.97L2146.22 1189.97Q2215.94 1162.57 2263.26 1133.94L2263.26 1133.94Q2273.22 1127.71 2283.18 1122.73Q2293.14 1117.75 2301.86 1111.52L2301.86 1111.52Q2337.96 1092.85 2359.13 1076.66L2359.13 1076.66L1766.46 1076.66Q1705.44 1076.66 1705.44 1026.86L1705.44 1026.86Q1705.44 978.30 1766.46 978.30L1766.46 978.30L2464.97 978.30Q2559.59 978.30 2559.59 1036.82L2559.59 1036.82Q2559.59 1062.96 2463.72 1126.46L2463.72 1126.46Q2369.09 1188.72 2202.25 1258.45L2202.25 1258.45Q2177.34 1268.41 2174.85 1298.29L2174.85 1298.29L2174.85 1353.08L2278.20 1353.08Q2326.76 1353.08 2326.76 1396.66L2326.76 1396.66Q2326.76 1440.23 2278.20 1440.23L2278.20 1440.23L2174.85 1440.23L2174.85 1534.86L2270.73 1534.86Q2319.29 1534.86 2319.29 1577.20L2319.29 1577.20Q2319.29 1619.53 2270.73 1619.53L2270.73 1619.53L2174.85 1619.53L2174.85 1719.14L2340.45 1719.14Q2387.77 1719.14 2387.77 1763.96L2387.77 1763.96Q2387.77 1808.79 2340.45 1808.79L2340.45 1808.79L2174.85 1808.79L2174.85 1944.51Q2174.85 2011.74 2145.59 2042.87Q2116.33 2074.00 2052.83 2069.02L2052.83 2069.02L1980.62 2069.02ZM1620.78 1978.13Q1569.73 1978.13 1569.73 1923.34L1569.73 1923.34Q1569.73 1898.44 1608.33 1858.59L1608.33 1858.59Q1688.01 1771.44 1735.33 1666.22Q1782.64 1561.01 1798.83 1430.27L1798.83 1430.27Q1801.32 1412.84 1801.32 1396.66L1801.32 1396.66Q1801.32 1361.79 1763.96 1361.79L1763.96 1361.79L1631.98 1361.79Q1574.71 1361.79 1574.71 1314.48L1574.71 1314.48Q1574.71 1267.16 1631.98 1267.16L1631.98 1267.16L1806.30 1267.16Q1900.93 1267.16 1900.93 1348.10L1900.93 1348.10Q1900.93 1443.97 1863.57 1585.91L1863.57 1585.91Q1823.73 1735.33 1745.29 1853.61L1745.29 1853.61Q1663.11 1978.13 1620.78 1978.13L1620.78 1978.13ZM2652.98 1971.90Q2605.66 1971.90 2518.51 1854.86L2518.51 1854.86Q2428.86 1734.08 2384.03 1594.63L2384.03 1594.63Q2340.45 1458.91 2340.45 1274.63L2340.45 1274.63Q2340.45 1223.58 2385.28 1223.58L2385.28 1223.58Q2413.92 1223.58 2425.12 1238.53L2425.12 1238.53Q2433.84 1250.98 2435.08 1295.80L2435.08 1295.80Q2438.82 1369.26 2452.51 1456.42L2452.51 1456.42Q2521.00 1390.43 2575.78 1324.44L2575.78 1324.44Q2595.70 1300.78 2618.12 1300.78L2618.12 1300.78Q2669.17 1300.78 2669.17 1349.34L2669.17 1349.34Q2669.17 1390.43 2476.17 1553.54L2476.17 1553.54Q2533.45 1751.51 2676.64 1862.33L2676.64 1862.33Q2705.27 1884.74 2705.27 1910.89L2705.27 1910.89Q2705.27 1971.90 2652.98 1971.90L2652.98 1971.90Z"/>
  </svg>