<svg xmlns="http://www.w3.org/2000/svg" viewBox="0 0 3000 3000" width="3000" height="3000">
    <path fill="#000000" d="M810.22 950.47L810.22 950.47Q822.97 949.20 825.52 947.92L825.52 947.92Q834.45 947.92 851.02 959.40Q867.60 970.87 882.90 988.72L882.90 988.72L907.12 1015.50L905.85 1092Q904.57 1167.22 900.75 1176.15L900.75 1176.15Q899.47 1179.97 929.44 1181.25Q959.40 1182.52 991.27 1180.61Q1023.15 1178.70 1029.52 1173.60L1029.52 1173.60Q1044.82 1159.57 1095.82 1172.32L1095.82 1172.32Q1126.42 1179.97 1136.63 1186.35Q1146.82 1192.72 1146.82 1199.10L1146.82 1199.10Q1146.82 1208.02 1155.75 1208.02L1155.75 1208.02Q1160.85 1208.02 1160.85 1209.30Q1160.85 1210.57 1155.75 1219.50L1155.75 1219.50Q1146.82 1228.42 1146.82 1239.90Q1146.82 1251.38 1130.25 1257.75L1130.25 1257.75Q1118.77 1261.57 1113.04 1260.94Q1107.30 1260.30 1086.90 1251.38L1086.90 1251.38Q1067.77 1241.17 1055.66 1239.26Q1043.55 1237.35 1006.57 1237.35L1006.57 1237.35Q951.75 1237.35 930.07 1233.53L930.07 1233.53Q909.67 1229.70 905.21 1235.44Q900.75 1241.17 898.20 1270.50L898.20 1270.50L898.20 1299.82L919.87 1318.95Q969.60 1363.57 1006.57 1420.95L1006.57 1420.95Q1029.52 1451.55 1041 1465.57L1041 1465.57Q1094.55 1522.95 1116.22 1539.53L1116.22 1539.53Q1149.38 1566.30 1177.42 1593.07L1177.42 1593.07Q1215.67 1627.50 1297.27 1675.95L1297.27 1675.95Q1330.42 1697.63 1338.07 1704Q1345.72 1710.38 1395.45 1738.42L1395.45 1738.42Q1433.70 1760.10 1440.71 1765.84Q1447.72 1771.58 1449 1784.33L1449 1784.33Q1450.27 1800.90 1443.26 1807.28Q1436.25 1813.65 1392.26 1818.11Q1348.27 1822.58 1330.42 1828.95L1330.42 1828.95Q1310.02 1836.60 1299.19 1834.69Q1288.35 1832.78 1262.85 1821.30L1262.85 1821.30Q1241.17 1809.83 1201.01 1780.50Q1160.85 1751.17 1149.38 1738.42L1149.38 1738.42Q1145.55 1734.60 1134.07 1725.67L1134.07 1725.67Q1118.77 1716.75 1062.67 1659.38Q1006.57 1602 1006.57 1596.90L1006.57 1596.90Q1006.57 1595.63 977.25 1557.38Q947.92 1519.13 945.37 1515.30L945.37 1515.30Q941.55 1512.75 928.16 1487.25Q914.77 1461.75 910.95 1459.20Q907.12 1456.65 907.12 1449Q907.12 1441.35 898.20 1432.42L898.20 1432.42Q891.82 1426.05 889.27 1427.32Q886.72 1428.60 882.90 1441.35L882.90 1441.35Q880.35 1460.47 881.62 1526.78Q882.90 1593.07 879.07 1621.76Q875.25 1650.45 877.80 1661.92L877.80 1661.92Q879.07 1673.40 884.17 1674.04Q889.27 1674.67 917.32 1674.67L917.32 1674.67Q956.85 1674.67 977.25 1670.85L977.25 1670.85Q1014.22 1660.65 1023.79 1663.20Q1033.35 1665.75 1052.47 1684.88L1052.47 1684.88Q1076.70 1706.55 1076.70 1718.03L1076.70 1718.03Q1076.70 1724.40 1065.22 1732.69Q1053.75 1740.97 1046.10 1740.97L1046.10 1740.97Q1037.17 1740.97 1039.72 1749.90L1039.72 1749.90Q1041 1749.90 1039.09 1751.17Q1037.17 1752.45 1029.52 1753.72Q1021.87 1755 1005.94 1754.36Q990.00 1753.72 963.22 1753.72L963.22 1753.72Q882.90 1752.45 880.99 1755.64Q879.07 1758.83 876.52 1860.19Q873.97 1961.55 870.15 1990.88L870.15 1990.88Q868.87 2024.03 858.67 2055.26Q848.47 2086.50 834.45 2101.80L834.45 2101.80Q820.42 2117.10 813.41 2119.01Q806.40 2120.93 800.02 2109.45L800.02 2109.45Q792.37 2100.53 788.55 2100.53L788.55 2100.53Q769.42 2100.53 756.67 2040.60Q743.92 1980.67 751.57 1930.95L751.57 1930.95Q756.67 1893.97 757.95 1870.39Q759.22 1846.80 761.77 1812.38L761.77 1812.38L766.87 1780.50L750.30 1780.50Q717.15 1780.50 680.17 1793.25L680.17 1793.25Q653.40 1800.90 635.55 1793.25L635.55 1793.25Q620.25 1784.33 604.95 1753.72L604.95 1753.72Q590.92 1732.05 596.66 1725.67Q602.40 1719.30 638.10 1714.20L638.10 1714.20Q675.07 1709.10 717.79 1698.90Q760.50 1688.70 768.15 1684.88L768.15 1684.88Q770.70 1682.33 771.97 1636.42Q773.25 1590.53 771.97 1545.90Q770.70 1501.28 768.15 1502.55L768.15 1502.55Q761.77 1503.82 753.49 1519.76Q745.20 1535.70 735.00 1545.26Q724.80 1554.82 722.25 1561.20L722.25 1561.20Q720.97 1565.03 695.47 1593.71Q669.97 1622.40 652.12 1642.80L652.12 1642.80Q635.55 1658.10 609.41 1678.50Q583.27 1698.90 565.42 1715.47L565.42 1715.47Q550.12 1729.50 504.86 1760.10Q459.60 1790.70 437.92 1798.35L437.92 1798.35Q421.35 1807.28 403.50 1815.56Q385.65 1823.85 377.36 1827.04Q369.07 1830.22 362.06 1830.22Q355.05 1830.22 330.82 1842.97L330.82 1842.97Q320.62 1848.08 306.60 1853.17Q292.57 1858.28 284.29 1858.28Q276.00 1858.28 274.72 1857L274.72 1857Q274.72 1851.90 293.85 1836.60L293.85 1836.60Q328.27 1807.28 346.12 1793.25L346.12 1793.25Q360.15 1779.22 402.22 1748.63L402.22 1748.63Q514.42 1658.10 525.90 1640.25L525.90 1640.25Q536.10 1623.67 589.65 1563.75L589.65 1563.75Q608.77 1542.07 608.77 1536.97L608.77 1536.97Q608.77 1533.15 629.17 1511.47L629.17 1511.47Q635.55 1503.82 658.50 1468.13L658.50 1468.13L695.47 1412.03Q708.22 1394.17 710.77 1382.06Q713.32 1369.95 727.35 1343.17L727.35 1343.17Q765.60 1259.03 765.60 1256.47L765.60 1256.47Q763.05 1255.20 752.85 1255.84Q742.65 1256.47 727.99 1259.03Q713.32 1261.57 710.77 1264.13L710.77 1264.13Q706.95 1267.95 680.17 1276.88Q653.40 1285.80 635.55 1303.01Q617.70 1320.22 615.15 1320.22L615.15 1320.22Q607.50 1320.22 587.74 1301.10Q567.97 1281.97 560.32 1269.22L560.32 1269.22Q552.67 1250.10 553.95 1248.19Q555.22 1246.28 589.65 1234.80L589.65 1234.80Q631.72 1220.77 708.22 1206.75L708.22 1206.75Q743.92 1199.10 757.31 1194.64Q770.70 1190.17 781.54 1190.17Q792.37 1190.17 793.01 1185.71Q793.65 1181.25 796.20 1095.82L796.20 1095.82Q797.47 1007.85 797.47 979.80L797.47 979.80Q798.75 961.95 800.66 956.85Q802.57 951.75 810.22 950.47ZM2463.90 1760.10L2463.90 1760.10Q2477.93 1749.90 2532.11 1755.64Q2586.30 1761.38 2616.90 1779.22L2616.90 1779.22Q2638.57 1790.70 2654.51 1804.09Q2670.45 1817.47 2667.26 1822.58Q2664.07 1827.67 2674.28 1844.89Q2684.48 1862.10 2695.95 1869.75L2695.95 1869.75Q2709.98 1879.95 2702.32 1879.95Q2694.68 1879.95 2673 1910.55L2673 1910.55Q2652.60 1938.60 2642.40 1943.70Q2632.20 1948.80 2609.25 1943.70L2609.25 1943.70Q2583.75 1938.60 2567.18 1927.13Q2550.60 1915.65 2488.13 1858.28L2488.13 1858.28Q2454.98 1828.95 2453.70 1804.72L2453.70 1804.72Q2452.43 1770.30 2463.90 1760.10ZM2104.35 1756.28L2104.35 1756.28Q2104.35 1749.90 2110.09 1748.63Q2115.82 1747.35 2124.75 1752.45L2124.75 1752.45Q2146.43 1765.20 2143.88 1859.55L2143.88 1859.55Q2140.05 1915.65 2134.31 1928.40Q2128.57 1941.15 2101.80 1953.90L2101.80 1953.90Q2086.50 1962.83 2080.13 1962.83Q2073.75 1962.83 2063.55 1957.72L2063.55 1957.72Q2048.25 1950.08 2041.88 1940.51Q2035.50 1930.95 2031.68 1915.65L2031.68 1915.65Q2026.58 1882.50 2050.80 1832.78L2050.80 1832.78Q2061 1811.10 2075.66 1790.06Q2090.32 1769.03 2097.97 1765.20L2097.97 1765.20Q2104.35 1762.65 2104.35 1756.28ZM2286.68 1660.65L2286.68 1660.65Q2290.50 1653 2314.73 1654.91Q2338.95 1656.83 2341.50 1664.47L2341.50 1664.47Q2342.78 1668.30 2350.43 1668.30L2350.43 1668.30Q2363.18 1668.30 2366.36 1692.53Q2369.55 1716.75 2370.82 1818.75L2370.82 1818.75Q2370.82 1952.63 2365.73 1978.13L2365.73 1978.13Q2360.63 2017.65 2312.18 2066.10L2312.18 2066.10Q2299.43 2078.85 2293.05 2080.13Q2286.68 2081.40 2265 2078.85L2265 2078.85Q2234.40 2073.75 2234.40 2064.82Q2234.40 2055.90 2227.39 2049.53Q2220.38 2043.15 2220.38 2038.05L2220.38 2038.05Q2220.38 2034.22 2195.51 1998.53Q2170.65 1962.83 2164.28 1957.72L2164.28 1957.72Q2155.35 1948.80 2156.63 1924.58L2156.63 1924.58Q2157.90 1910.55 2196.15 1929.67L2196.15 1929.67Q2206.35 1936.05 2215.28 1942.42L2215.28 1942.42Q2239.50 1960.28 2252.25 1959L2252.25 1959Q2266.28 1957.72 2270.10 1929.67Q2273.93 1901.63 2276.48 1788.15L2276.48 1788.15Q2279.03 1667.03 2286.68 1660.65ZM1827.67 1580.32L1827.67 1580.32Q1850.63 1557.38 1850.63 1584.15L1850.63 1584.15Q1849.35 1609.65 1828.95 1654.28L1828.95 1654.28Q1804.72 1704 1797.71 1733.96Q1790.70 1763.92 1790.70 1800.90L1790.70 1800.90Q1791.97 1845.53 1799.63 1854.45Q1807.28 1863.38 1807.28 1881.86Q1807.28 1900.35 1800.90 1906.72L1800.90 1906.72Q1791.97 1913.10 1791.97 1919.47Q1791.97 1925.85 1774.13 1943.70Q1756.28 1961.55 1733.33 1964.10Q1710.38 1966.65 1692.53 1955.17L1692.53 1955.17Q1681.05 1947.53 1657.46 1911.83Q1633.88 1876.13 1633.88 1865.92L1633.88 1865.92Q1633.88 1858.28 1621.76 1848.71Q1609.65 1839.15 1616.66 1832.78Q1623.67 1826.40 1623.67 1816.84Q1623.67 1807.28 1631.33 1807.28Q1638.97 1807.28 1638.97 1797.71Q1638.97 1788.15 1668.94 1758.83Q1698.90 1729.50 1721.21 1706.55Q1743.53 1683.60 1758.83 1669.58Q1774.13 1655.55 1783.05 1638.97L1783.05 1638.97Q1798.35 1614.75 1827.67 1580.32ZM1617.30 1340.63L1617.30 1340.63Q1626.22 1336.80 1649.17 1347.64Q1672.13 1358.47 1686.15 1356.56Q1700.17 1354.65 1726.95 1367.40L1726.95 1367.40L1752.45 1381.42L1752.45 1412.03Q1752.45 1463.03 1723.76 1481.51Q1695.08 1500 1655.55 1473.22L1655.55 1473.22Q1602 1438.80 1579.05 1403.10L1579.05 1403.10Q1552.28 1359.75 1617.30 1340.63ZM2016.38 1359.75L2032.95 1270.50Q2041.88 1222.05 2054.63 1194Q2067.38 1165.95 2071.84 1165.95Q2076.30 1165.95 2085.86 1191.45Q2095.43 1216.95 2104.35 1233.53L2104.35 1233.53Q2122.20 1261.57 2097.97 1391.63L2097.97 1391.63Q2087.78 1450.28 2083.95 1497.45Q2080.13 1544.63 2076.30 1551.64Q2072.47 1558.65 2069.29 1583.51Q2066.10 1608.38 2061 1623.67Q2055.90 1638.97 2055.90 1651.72Q2055.90 1664.47 2048.89 1681.69Q2041.88 1698.90 2035.50 1719.30Q2029.13 1739.70 2018.93 1751.81Q2008.73 1763.92 2006.18 1779.86Q2003.63 1795.80 1998.53 1795.80Q1993.43 1795.80 1993.43 1805.36Q1993.43 1814.92 1977.49 1835.33Q1961.55 1855.72 1961.55 1859.55L1961.55 1859.55Q1961.55 1867.20 1937.33 1904.17Q1913.10 1941.15 1896.53 1961.55L1896.53 1961.55Q1826.40 2044.42 1813.65 2044.42L1813.65 2044.42Q1803.45 2044.42 1803.45 2035.50Q1803.45 2026.58 1812.38 2013.83L1812.38 2013.83Q1822.58 1999.80 1826.40 1990.88L1826.40 1990.88Q1836.60 1969.20 1849.35 1953.90L1849.35 1953.90Q1858.28 1942.42 1879.95 1897.80Q1901.63 1853.17 1911.83 1827.67L1911.83 1827.67Q1936.05 1762.65 1957.09 1694.44Q1978.13 1626.22 1978.13 1609.65L1978.13 1609.65Q1978.13 1595.63 1981.95 1582.88L1981.95 1582.88Q1989.60 1562.47 2001.08 1465.57L2001.08 1465.57Q2008.73 1401.82 2016.38 1359.75L2016.38 1359.75ZM2280.30 1127.70L2280.30 1127.70Q2293.05 1117.50 2300.06 1120.05Q2307.07 1122.60 2326.20 1143L2326.20 1143Q2338.95 1158.30 2343.41 1167.22Q2347.88 1176.15 2347.88 1190.17L2347.88 1190.17Q2347.88 1213.13 2328.75 1232.25Q2309.63 1251.38 2311.54 1253.92Q2313.45 1256.47 2374.65 1261.57L2374.65 1261.57Q2430.75 1267.95 2490.04 1282.61Q2549.32 1297.28 2566.54 1310.66Q2583.75 1324.05 2592.68 1343.17L2592.68 1343.17Q2600.32 1355.92 2600.32 1362.94Q2600.32 1369.95 2596.50 1383.97L2596.50 1383.97Q2588.85 1406.92 2579.93 1415.85L2579.93 1415.85Q2573.55 1423.50 2566.54 1448.36Q2559.53 1473.22 2559.53 1489.80L2559.53 1489.80Q2559.53 1500 2555.06 1500Q2550.60 1500 2528.29 1546.54Q2505.98 1593.07 2502.15 1600.72L2502.15 1600.72Q2484.30 1631.33 2484.30 1647.90L2484.30 1647.90Q2484.30 1661.92 2474.10 1670.21Q2463.90 1678.50 2428.20 1689.97L2428.20 1689.97Q2400.15 1700.17 2393.78 1696.35Q2387.40 1692.53 2375.93 1665.75L2375.93 1665.75Q2358.07 1621.13 2309.63 1628.78L2309.63 1628.78Q2285.40 1632.60 2282.21 1637.70Q2279.03 1642.80 2265 1642.80Q2250.97 1642.80 2242.05 1650.45Q2233.13 1658.10 2214 1655.55Q2194.88 1653 2180.85 1640.25Q2166.82 1627.50 2169.38 1609.65L2169.38 1609.65Q2171.93 1593.07 2164.91 1555.46Q2157.90 1517.85 2146.43 1488.52L2146.43 1488.52Q2112 1401.82 2112.64 1373.14Q2113.28 1344.45 2148.97 1310.03L2148.97 1310.03Q2197.43 1265.40 2210.18 1237.35L2210.18 1237.35Q2221.65 1213.13 2245.24 1181.89Q2268.82 1150.65 2268.82 1143.64Q2268.82 1136.63 2280.30 1127.70ZM2405.25 1341.90L2405.25 1341.90Q2351.70 1316.40 2258.63 1331.70L2258.63 1331.70Q2203.80 1341.90 2196.15 1347.64Q2188.50 1353.38 2188.50 1383.97L2188.50 1383.97Q2188.50 1406.92 2190.41 1411.39Q2192.32 1415.85 2199.97 1413.30L2199.97 1413.30Q2214 1410.75 2263.73 1398L2263.73 1398Q2312.18 1383.97 2327.48 1383.97Q2342.78 1383.97 2358.07 1399.28L2358.07 1399.28Q2384.85 1427.32 2350.43 1451.55L2350.43 1451.55Q2331.30 1464.30 2309.63 1461.75L2309.63 1461.75Q2286.68 1459.20 2250.34 1465.57Q2214 1471.95 2214 1478.32L2214 1478.32Q2216.55 1491.07 2226.11 1517.85Q2235.68 1544.63 2242.05 1548.45L2242.05 1548.45Q2250.97 1557.38 2294.32 1549.72L2294.32 1549.72L2363.18 1540.80Q2381.03 1536.97 2385.49 1533.79Q2389.95 1530.60 2395.05 1517.85L2395.05 1517.85Q2401.43 1497.45 2409.07 1478.32L2409.07 1478.32Q2434.57 1413.30 2432.03 1377.60L2432.03 1377.60Q2430.75 1362.30 2426.29 1356.56Q2421.82 1350.82 2405.25 1341.90ZM1786.88 1029.52L1786.88 1029.52Q1799.63 1024.42 1818.11 1027.61Q1836.60 1030.80 1847.44 1037.81Q1858.28 1044.82 1873.58 1044.82L1873.58 1044.82Q1887.60 1044.82 1908.64 1056.30Q1929.68 1067.77 1937.96 1079.89Q1946.25 1092 1948.80 1112.40L1948.80 1112.40Q1950.08 1126.42 1948.16 1134.07Q1946.25 1141.72 1933.50 1155.75L1933.50 1155.75Q1906.72 1192.72 1874.85 1186.35L1874.85 1186.35Q1864.65 1183.80 1839.15 1160.21Q1813.65 1136.63 1795.80 1113.67L1795.80 1113.67Q1781.78 1093.27 1766.47 1083.71Q1751.17 1074.15 1751.17 1060.13L1751.17 1060.13Q1751.17 1048.65 1758.83 1041.64Q1766.47 1034.63 1786.88 1029.52ZM2289.23 991.27L2289.23 991.27Q2335.13 988.72 2347.88 987.45L2347.88 987.45Q2364.45 987.45 2392.50 996.37Q2420.55 1005.30 2434.57 1015.50L2434.57 1015.50Q2446.05 1025.70 2449.24 1030.16Q2452.43 1034.63 2447.32 1043.55L2447.32 1043.55Q2443.50 1056.30 2442.86 1070.32Q2442.23 1084.35 2430.75 1100.92L2430.75 1100.92Q2420.55 1112.40 2414.81 1113.67Q2409.07 1114.95 2383.57 1112.40L2383.57 1112.40Q2324.93 1104.75 2277.11 1108.57Q2229.30 1112.40 2220.38 1122.60L2220.38 1122.60Q2215.28 1132.80 2201.25 1132.16Q2187.22 1131.52 2173.20 1120.05L2173.20 1120.05Q2115.82 1072.88 2117.10 1061.40L2117.10 1061.40Q2119.65 1053.75 2120.29 1049.29Q2120.93 1044.82 2146.43 1033.35L2146.43 1033.35Q2228.03 997.65 2289.23 991.27Z"/>
  </svg>