<svg xmlns="http://www.w3.org/2000/svg" viewBox="0 0 3000 3000" width="3000" height="3000">
    <path fill="#000000" d="M1626.95 2394.53Q1531.25 2394.53 1531.25 2316.41L1531.25 2316.41Q1531.25 2236.33 1609.38 2236.33L1609.38 2236.33L1677.73 2236.33Q1708.98 2236.33 1724.61 2218.75Q1740.23 2201.17 1740.23 2169.92L1740.23 2169.92L1740.23 1775.39L1539.06 1775.39Q1453.13 1775.39 1414.06 1736.33Q1375 1697.27 1378.91 1615.23L1378.91 1615.23L1378.91 1193.36Q1378.91 1107.42 1417.97 1068.36Q1457.03 1029.30 1539.06 1033.20L1539.06 1033.20L1699.22 1033.20L1748.05 853.52L1347.66 853.52Q1285.16 853.52 1275.39 904.30L1275.39 904.30L1269.53 1087.89L1263.67 1341.80Q1259.77 1607.42 1250 1712.89L1250 1712.89Q1228.52 1935.55 1158.20 2128.91L1158.20 2128.91Q1091.80 2312.50 1003.91 2312.50L1003.91 2312.50Q921.88 2312.50 921.88 2224.61L921.88 2224.61Q921.88 2193.36 953.13 2148.44L953.13 2148.44Q1093.75 1945.31 1111.33 1503.91L1111.33 1503.91L1115.23 904.30Q1115.23 701.17 1304.69 701.17L1304.69 701.17L2300.78 701.17Q2392.58 701.17 2392.58 777.34L2392.58 777.34Q2392.58 853.52 2300.78 853.52L2300.78 853.52L1910.16 853.52L1851.56 1033.20L2134.77 1033.20Q2220.70 1033.20 2259.77 1072.27Q2298.83 1111.33 2294.92 1193.36L2294.92 1193.36L2294.92 1615.23Q2294.92 1699.22 2255.86 1739.26Q2216.80 1779.30 2134.77 1775.39L2134.77 1775.39L1890.63 1775.39L1890.63 2205.08Q1890.63 2298.83 1850.59 2345.70Q1810.55 2392.58 1722.66 2394.53L1722.66 2394.53L1626.95 2394.53ZM724.61 2361.33Q638.67 2361.33 638.67 2277.34L638.67 2277.34Q638.67 2246.09 675.78 2160.16L675.78 2160.16Q695.31 2119.14 757.81 1925.78L757.81 1925.78L796.88 1804.69L820.31 1734.38Q830.08 1701.17 839.84 1676.76Q849.61 1652.34 855.47 1646.48L855.47 1646.48Q873.05 1628.91 902.34 1628.91L902.34 1628.91Q980.47 1628.91 980.47 1707.03L980.47 1707.03Q980.47 1771.48 851.56 2167.97L851.56 2167.97Q791.02 2361.33 724.61 2361.33L724.61 2361.33ZM1291.02 2300.78Q1216.80 2300.78 1216.80 2220.70L1216.80 2220.70Q1216.80 2193.36 1294.92 2105.47L1294.92 2105.47Q1367.19 2023.44 1425.78 1908.20L1425.78 1908.20Q1458.98 1841.80 1503.91 1841.80L1503.91 1841.80Q1576.17 1841.80 1576.17 1910.16L1576.17 1910.16Q1576.17 1972.66 1460.94 2134.77L1460.94 2134.77Q1343.75 2300.78 1291.02 2300.78L1291.02 2300.78ZM886.72 1388.67Q859.38 1388.67 746.09 1339.84L746.09 1339.84Q634.77 1289.06 634.77 1242.19L634.77 1242.19Q634.77 1160.16 718.75 1160.16L718.75 1160.16Q757.81 1160.16 859.38 1201.17L859.38 1201.17Q958.98 1240.23 958.98 1302.73L958.98 1302.73Q958.98 1388.67 886.72 1388.67L886.72 1388.67ZM958.98 894.53Q939.45 894.53 791.02 822.27L791.02 822.27Q718.75 785.16 718.75 738.28L718.75 738.28Q718.75 656.25 802.73 656.25L802.73 656.25Q851.56 656.25 947.27 707.03L947.27 707.03Q1039.06 757.81 1039.06 808.59L1039.06 808.59Q1039.06 894.53 958.98 894.53L958.98 894.53ZM2312.50 2285.16Q2255.86 2285.16 2136.72 2125L2136.72 2125Q2015.63 1958.98 2015.63 1912.11L2015.63 1912.11Q2015.63 1845.70 2093.75 1845.70L2093.75 1845.70Q2144.53 1845.70 2177.73 1908.20L2177.73 1908.20Q2238.28 2015.63 2326.17 2095.70L2326.17 2095.70Q2359.38 2125 2375.98 2153.32Q2392.58 2181.64 2392.58 2201.17L2392.58 2201.17Q2392.58 2285.16 2312.50 2285.16L2312.50 2285.16ZM2083.98 1646.48Q2138.67 1646.48 2142.58 1587.89L2142.58 1587.89L2142.58 1460.94L1523.44 1460.94L1523.44 1587.89Q1523.44 1642.58 1582.03 1646.48L1582.03 1646.48L2083.98 1646.48ZM1523.44 1335.94L2142.58 1335.94L2142.58 1220.70Q2142.58 1164.06 2083.98 1162.11L2083.98 1162.11L1582.03 1162.11Q1527.34 1162.11 1523.44 1220.70L1523.44 1220.70L1523.44 1335.94Z"/>
  </svg>