<svg xmlns="http://www.w3.org/2000/svg" viewBox="0 0 3000 3000" width="3000" height="3000">
    <path fill="#000000" d="M996 972L996 972Q904 862 796 772L796 772Q768 748 768 732Q768 716 788 692Q808 668 827 668Q846 668 880 691Q914 714 957 750Q1000 786 1040 825Q1080 864 1106 895Q1132 926 1132 944Q1132 962 1103 993Q1074 1024 1058 1024Q1042 1024 996 972ZM2264 788L1380 844Q1380 1224 1350 1429Q1320 1634 1268 1789Q1216 1944 1155 2058Q1094 2172 1042 2235Q990 2298 962 2298L962 2298Q950 2298 950 2280Q950 2262 974 2224L974 2224Q1212 1828 1248 1244L1248 1244Q1256 1090 1256 962L1256 962L1256 880Q1250 766 1228 716L1228 716Q1226 708 1226 702L1226 702Q1226 688 1248 688Q1270 688 1380 736L1380 736L2114 686Q2154 684 2179 677Q2204 670 2221 670Q2238 670 2263 688Q2288 706 2305 727Q2322 748 2322 758L2322 758Q2322 784 2264 788L2264 788ZM1526 1680L1526 1680Q1532 1626 1532 1616L1532 1616L1532 1596Q1532 1588 1530 1580L1530 1580L1500 1228Q1496 1160 1478 1125Q1460 1090 1460 1080Q1460 1070 1483 1070Q1506 1070 1608 1104L1608 1104L1694 1098Q1746 1010 1765 944Q1784 878 1784 864L1784 864L1784 852Q1784 828 1801 828Q1818 828 1848 842L1848 842Q1920 878 1920 907Q1920 936 1820 1090L1820 1090L2122 1070L2144 1068Q2164 1068 2194 1088Q2224 1108 2224 1128Q2224 1148 2218 1158Q2212 1168 2210 1178L2210 1178L2162 1558Q2212 1616 2212 1633Q2212 1650 2196 1653Q2180 1656 2152 1658L2152 1658L1914 1670L1920 2192L1924 2264Q1924 2310 1893 2330Q1862 2350 1836 2350Q1810 2350 1734 2302Q1658 2254 1604 2200Q1550 2146 1550 2132Q1550 2118 1566 2118Q1582 2118 1648 2152Q1714 2186 1800 2206L1800 2206L1796 1678L1646 1686L1648 1706L1648 1716Q1648 1754 1620 1754L1620 1754Q1598 1754 1562 1734Q1526 1714 1526 1680ZM742 1120L742 1120Q946 1252 980 1289Q1014 1326 1014 1344Q1014 1362 994 1395Q974 1428 953 1428Q932 1428 859 1359Q786 1290 722 1246Q658 1202 647 1194Q636 1186 636 1172Q636 1158 655 1131Q674 1104 695 1104Q716 1104 742 1120ZM2072 1312L2086 1176L1610 1206L1620 1338L2072 1312ZM2048 1562L2064 1408L1628 1432L1638 1586L2048 1562ZM728 2210L718 2210Q714 2208 682 2200L682 2200Q592 2174 592 2142L592 2142Q592 2134 630 2107Q668 2080 700 2032L700 2032Q816 1866 984 1552L984 1552Q1014 1496 1038 1496L1038 1496Q1054 1496 1054 1519Q1054 1542 1010 1674Q966 1806 794 2144L794 2144Q780 2176 765 2193Q750 2210 728 2210L728 2210ZM2324 2176L2324 2176Q2308 2176 2282 2138L2282 2138Q2182 1976 2062 1838L2062 1838Q2040 1812 2040 1794Q2040 1776 2067 1757Q2094 1738 2107 1738Q2120 1738 2154 1771Q2188 1804 2230 1855Q2272 1906 2311 1958Q2350 2010 2376 2049Q2402 2088 2402 2104Q2402 2120 2385 2138Q2368 2156 2349 2166Q2330 2176 2324 2176ZM1510 1804L1510 1776Q1510 1756 1524 1756Q1538 1756 1568 1772L1568 1772Q1652 1812 1652 1850L1652 1850Q1652 1856 1648 1864L1648 1864Q1478 2126 1340 2220L1340 2220Q1318 2234 1305 2234Q1292 2234 1292 2217Q1292 2200 1338 2136L1338 2136Q1462 1968 1506 1842L1506 1842Q1510 1826 1510 1804L1510 1804Z"/>
  </svg>