<svg xmlns="http://www.w3.org/2000/svg" viewBox="0 0 3000 3000" width="3000" height="3000">
    <path fill="#000000" d="M2012 1908L2012 1908Q2034 1892 2119 1901Q2204 1910 2252 1938L2252 1938Q2286 1956 2311 1977Q2336 1998 2331 2006Q2326 2014 2342 2041Q2358 2068 2376 2080L2376 2080Q2398 2096 2386 2096Q2374 2096 2340 2144L2340 2144Q2308 2188 2292 2196Q2276 2204 2240 2196L2240 2196Q2200 2188 2174 2170Q2148 2152 2050 2062L2050 2062Q1998 2016 1996 1978L1996 1978Q1994 1924 2012 1908ZM1448 1902L1448 1902Q1448 1892 1457 1890Q1466 1888 1480 1896L1480 1896Q1514 1916 1510 2064L1510 2064Q1504 2152 1495 2172Q1486 2192 1444 2212L1444 2212Q1420 2226 1410 2226Q1400 2226 1384 2218L1384 2218Q1360 2206 1350 2191Q1340 2176 1334 2152L1334 2152Q1326 2100 1364 2022L1364 2022Q1380 1988 1403 1955Q1426 1922 1438 1916L1438 1916Q1448 1912 1448 1902ZM1734 1752L1734 1752Q1740 1740 1778 1743Q1816 1746 1820 1758L1820 1758Q1822 1764 1834 1764L1834 1764Q1854 1764 1859 1802Q1864 1840 1866 2000L1866 2000Q1866 2210 1858 2250L1858 2250Q1850 2312 1774 2388L1774 2388Q1754 2408 1744 2410Q1734 2412 1700 2408L1700 2408Q1652 2400 1652 2386Q1652 2372 1641 2362Q1630 2352 1630 2344L1630 2344Q1630 2338 1591 2282Q1552 2226 1542 2218L1542 2218Q1528 2204 1530 2166L1530 2166Q1532 2144 1592 2174L1592 2174Q1608 2184 1622 2194L1622 2194Q1660 2222 1680 2220L1680 2220Q1702 2218 1708 2174Q1714 2130 1718 1952L1718 1952Q1722 1762 1734 1752ZM1014 1626L1014 1626Q1050 1590 1050 1632L1050 1632Q1048 1672 1016 1742L1016 1742Q978 1820 967 1867Q956 1914 956 1972L956 1972Q958 2042 970 2056Q982 2070 982 2099Q982 2128 972 2138L972 2138Q958 2148 958 2158Q958 2168 930 2196Q902 2224 866 2228Q830 2232 802 2214L802 2214Q784 2202 747 2146Q710 2090 710 2074L710 2074Q710 2062 691 2047Q672 2032 683 2022Q694 2012 694 1997Q694 1982 706 1982Q718 1982 718 1967Q718 1952 765 1906Q812 1860 847 1824Q882 1788 906 1766Q930 1744 944 1718L944 1718Q968 1680 1014 1626ZM684 1250L684 1250Q698 1244 734 1261Q770 1278 792 1275Q814 1272 856 1292L856 1292L896 1314L896 1362Q896 1442 851 1471Q806 1500 744 1458L744 1458Q660 1404 624 1348L624 1348Q582 1280 684 1250ZM1310 1280L1336 1140Q1350 1064 1370 1020Q1390 976 1397 976Q1404 976 1419 1016Q1434 1056 1448 1082L1448 1082Q1476 1126 1438 1330L1438 1330Q1422 1422 1416 1496Q1410 1570 1404 1581Q1398 1592 1393 1631Q1388 1670 1380 1694Q1372 1718 1372 1738Q1372 1758 1361 1785Q1350 1812 1340 1844Q1330 1876 1314 1895Q1298 1914 1294 1939Q1290 1964 1282 1964Q1274 1964 1274 1979Q1274 1994 1249 2026Q1224 2058 1224 2064L1224 2064Q1224 2076 1186 2134Q1148 2192 1122 2224L1122 2224Q1012 2354 992 2354L992 2354Q976 2354 976 2340Q976 2326 990 2306L990 2306Q1006 2284 1012 2270L1012 2270Q1028 2236 1048 2212L1048 2212Q1062 2194 1096 2124Q1130 2054 1146 2014L1146 2014Q1184 1912 1217 1805Q1250 1698 1250 1672L1250 1672Q1250 1650 1256 1630L1256 1630Q1268 1598 1286 1446L1286 1446Q1298 1346 1310 1280L1310 1280ZM1724 916L1724 916Q1744 900 1755 904Q1766 908 1796 940L1796 940Q1816 964 1823 978Q1830 992 1830 1014L1830 1014Q1830 1050 1800 1080Q1770 1110 1773 1114Q1776 1118 1872 1126L1872 1126Q1960 1136 2053 1159Q2146 1182 2173 1203Q2200 1224 2214 1254L2214 1254Q2226 1274 2226 1285Q2226 1296 2220 1318L2220 1318Q2208 1354 2194 1368L2194 1368Q2184 1380 2173 1419Q2162 1458 2162 1484L2162 1484Q2162 1500 2155 1500Q2148 1500 2113 1573Q2078 1646 2072 1658L2072 1658Q2044 1706 2044 1732L2044 1732Q2044 1754 2028 1767Q2012 1780 1956 1798L1956 1798Q1912 1814 1902 1808Q1892 1802 1874 1760L1874 1760Q1846 1690 1770 1702L1770 1702Q1732 1708 1727 1716Q1722 1724 1700 1724Q1678 1724 1664 1736Q1650 1748 1620 1744Q1590 1740 1568 1720Q1546 1700 1550 1672L1550 1672Q1554 1646 1543 1587Q1532 1528 1514 1482L1514 1482Q1460 1346 1461 1301Q1462 1256 1518 1202L1518 1202Q1594 1132 1614 1088L1614 1088Q1632 1050 1669 1001Q1706 952 1706 941Q1706 930 1724 916ZM1920 1252L1920 1252Q1836 1212 1690 1236L1690 1236Q1604 1252 1592 1261Q1580 1270 1580 1318L1580 1318Q1580 1354 1583 1361Q1586 1368 1598 1364L1598 1364Q1620 1360 1698 1340L1698 1340Q1774 1318 1798 1318Q1822 1318 1846 1342L1846 1342Q1888 1386 1834 1424L1834 1424Q1804 1444 1770 1440L1770 1440Q1734 1436 1677 1446Q1620 1456 1620 1466L1620 1466Q1624 1486 1639 1528Q1654 1570 1664 1576L1664 1576Q1678 1590 1746 1578L1746 1578L1854 1564Q1882 1558 1889 1553Q1896 1548 1904 1528L1904 1528Q1914 1496 1926 1466L1926 1466Q1966 1364 1962 1308L1962 1308Q1960 1284 1953 1275Q1946 1266 1920 1252ZM950 762L950 762Q970 754 999 759Q1028 764 1045 775Q1062 786 1086 786L1086 786Q1108 786 1141 804Q1174 822 1187 841Q1200 860 1204 892L1204 892Q1206 914 1203 926Q1200 938 1180 960L1180 960Q1138 1018 1088 1008L1088 1008Q1072 1004 1032 967Q992 930 964 894L964 894Q942 862 918 847Q894 832 894 810L894 810Q894 792 906 781Q918 770 950 762ZM1738 702L1738 702Q1810 698 1830 696L1830 696Q1856 696 1900 710Q1944 724 1966 740L1966 740Q1984 756 1989 763Q1994 770 1986 784L1986 784Q1980 804 1979 826Q1978 848 1960 874L1960 874Q1944 892 1935 894Q1926 896 1886 892L1886 892Q1794 880 1719 886Q1644 892 1630 908L1630 908Q1622 924 1600 923Q1578 922 1556 904L1556 904Q1466 830 1468 812L1468 812Q1472 800 1473 793Q1474 786 1514 768L1514 768Q1642 712 1738 702Z"/>
  </svg>