<svg xmlns="http://www.w3.org/2000/svg" viewBox="0 0 3000 3000" width="3000" height="3000">
    <path fill="#000000" d="M1220 860L1220 802L2386 802L2386 860L1220 860ZM1192 1346L1192 802L1252 802L1252 1346Q1252 1474 1243 1622Q1234 1770 1207 1923Q1180 2076 1127 2223Q1074 2370 986 2496L986 2496Q982 2490 973 2484Q964 2478 955 2472Q946 2466 938 2464L938 2464Q1024 2340 1075 2197Q1126 2054 1151 1906Q1176 1758 1184 1615Q1192 1472 1192 1346L1192 1346ZM2232 1508L1472 1508L1472 1750L2232 1750L2232 1508ZM2232 1210L1472 1210L1472 1448L2232 1448L2232 1210ZM1414 1810L1414 1150L2290 1150L2290 1810L1414 1810ZM1522 1954L1522 1954L1580 1970Q1544 2044 1498 2119Q1452 2194 1402 2261Q1352 2328 1302 2380L1302 2380Q1298 2374 1288 2368Q1278 2362 1268 2354Q1258 2346 1250 2342L1250 2342Q1328 2266 1400 2164Q1472 2062 1522 1954ZM2086 1968L2086 1968L2138 1946Q2186 2008 2236 2079Q2286 2150 2330 2216Q2374 2282 2402 2330L2402 2330L2346 2360Q2320 2310 2276 2243Q2232 2176 2183 2103Q2134 2030 2086 1968ZM1818 924L1818 924L1878 944Q1858 1008 1835 1077Q1812 1146 1790 1194L1790 1194L1744 1176Q1762 1124 1784 1051Q1806 978 1818 924ZM1816 2426L1816 1766L1874 1766L1874 2426Q1874 2460 1863 2477Q1852 2494 1824 2502L1824 2502Q1794 2510 1731 2512Q1668 2514 1562 2512L1562 2512Q1560 2502 1554 2487Q1548 2472 1540 2458L1540 2458Q1630 2460 1695 2460Q1760 2460 1780 2460L1780 2460Q1816 2458 1816 2426L1816 2426ZM696 778L696 778L734 740Q792 776 856 818Q920 860 977 901Q1034 942 1072 972L1072 972L1036 1020Q998 988 940 946Q882 904 818 859Q754 814 696 778ZM596 1316L596 1316L632 1276Q692 1308 757 1347Q822 1386 881 1423Q940 1460 980 1490L980 1490L946 1538Q906 1508 847 1469Q788 1430 722 1389Q656 1348 596 1316ZM704 2482L654 2442Q702 2364 760 2255Q818 2146 876 2025Q934 1904 982 1796L982 1796L1028 1832Q984 1936 928 2053Q872 2170 814 2282Q756 2394 704 2482L704 2482Z"/>
  </svg>