<svg xmlns="http://www.w3.org/2000/svg" viewBox="0 0 3000 3000" width="3000" height="3000">
    <path fill="#000000" d="M787.27 1070.33L584.55 1081.80L546.30 1083.08L533.55 1083.08Q502.95 1079.25 486.37 1055.66Q469.80 1032.08 469.80 1019.33Q469.80 1006.58 478.72 1006.58L478.72 1006.58Q482.55 1006.58 495.94 1010.40Q509.32 1014.23 542.47 1014.23L542.47 1014.23L559.05 1014.23L1108.57 982.35Q1143 979.80 1155.75 974.06Q1168.50 968.33 1178.06 968.33Q1187.63 968.33 1204.84 981.08Q1222.05 993.83 1234.80 1009.76Q1247.55 1025.70 1247.55 1033.35L1247.55 1033.35Q1247.55 1044.83 1214.40 1047.38L1214.40 1047.38L872.70 1066.50Q870.15 1216.95 852.30 1327.88L852.30 1327.88L1232.25 1308.75Q1271.77 1304.93 1283.89 1300.46Q1296.00 1296 1304.29 1296Q1312.57 1296 1330.42 1308.75L1330.42 1308.75Q1375.05 1340.63 1375.05 1359.75L1375.05 1359.75Q1375.05 1375.05 1343.17 1377.60L1343.17 1377.60L838.27 1403.10Q792.37 1619.85 687.82 1749.90Q583.27 1879.95 429.00 1957.73L429.00 1957.73Q366.52 1989.60 323.81 2003.63Q281.10 2017.65 274.72 2017.65L274.72 2017.65Q258.15 2017.65 258.15 2006.18L258.15 2006.18Q258.15 1992.15 290.02 1975.58L290.02 1975.58Q529.72 1854.45 643.20 1675.95L643.20 1675.95Q718.42 1558.65 751.57 1406.93L751.57 1406.93L458.32 1422.22Q446.85 1423.50 436.65 1423.50L436.65 1423.50L420.07 1423.50Q403.50 1423.50 380.55 1415.21Q357.60 1406.93 341.02 1362.30L341.02 1362.30Q338.47 1354.65 338.47 1352.10L338.47 1352.10Q338.47 1343.18 348.67 1343.18L348.67 1343.18Q353.77 1343.18 365.89 1346.36Q378.00 1349.55 408.60 1349.55L408.60 1349.55L427.72 1349.55L766.87 1332.97Q784.72 1224.60 787.27 1070.33L787.27 1070.33ZM955.57 1846.80L955.57 1850.63Q955.57 1897.80 995.74 1909.28Q1035.90 1920.75 1128.97 1920.75Q1222.05 1920.75 1253.92 1914.38Q1285.80 1908 1300.46 1897.80Q1315.13 1887.60 1328.51 1855.09Q1341.90 1822.58 1367.40 1660.65L1367.40 1660.65Q1375.05 1605.83 1389.07 1605.83L1389.07 1605.83Q1412.02 1605.83 1412.02 1767.75L1412.02 1767.75Q1412.02 1844.25 1402.46 1890.79Q1392.90 1937.33 1363.57 1961.55Q1334.25 1985.78 1277.51 1994.70Q1220.77 2003.63 1148.74 2003.63Q1076.70 2003.63 1032.07 2001.08Q987.45 1998.53 951.75 1987.05L951.75 1987.05Q873.97 1960.28 873.97 1868.48L873.97 1868.48L873.97 1862.10L884.17 1502.55Q884.17 1466.85 873.97 1454.10Q863.77 1441.35 863.77 1434.97L863.77 1434.97Q863.77 1424.78 879.71 1424.78Q895.65 1424.78 923.70 1432.42Q951.75 1440.08 958.76 1447.72Q965.77 1455.38 965.77 1471.95L965.77 1471.95L955.57 1846.80ZM2012.55 1063.95L2012.55 1063.95L2011.28 1057.58Q2011.28 1048.65 2021.47 1048.65L2021.47 1048.65Q2027.85 1048.65 2041.24 1052.47Q2054.63 1056.30 2080.13 1056.30L2080.13 1056.30L2091.60 1056.30L2491.95 1020.60L2498.33 1020.60Q2523.83 1020.60 2542.95 1032.71Q2562.07 1044.83 2562.07 1057.58Q2562.07 1070.33 2555.70 1079.25Q2549.32 1088.17 2545.50 1098.38L2545.50 1098.38L2454.98 1322.78L2571 1316.40L2585.03 1316.40Q2613.07 1316.40 2629.01 1332.34Q2644.95 1348.28 2644.95 1358.47Q2644.95 1368.68 2637.30 1376.33Q2629.65 1383.97 2610.53 1434.34Q2591.40 1484.70 2547.41 1566.94Q2503.43 1649.18 2451.15 1718.03L2451.15 1718.03Q2564.63 1841.70 2739.30 1942.43L2739.30 1942.43Q2764.80 1956.45 2764.80 1964.74Q2764.80 1973.03 2752.69 1986.41Q2740.57 1999.80 2725.28 2010.64Q2709.98 2021.48 2701.05 2021.48Q2692.13 2021.48 2644.95 1989.60L2644.95 1989.60Q2522.55 1909.28 2403.98 1776.68L2403.98 1776.68Q2289.23 1905.45 2155.35 1971.75L2155.35 1971.75Q2101.80 1999.80 2068.65 2011.28Q2035.50 2022.75 2032.95 2022.75L2032.95 2022.75Q2020.20 2022.75 2020.20 2015.10L2020.20 2015.10Q2020.20 2002.35 2048.25 1985.78L2048.25 1985.78Q2230.57 1873.58 2355.53 1719.30L2355.53 1719.30Q2281.57 1628.78 2197.43 1479.60L2197.43 1479.60Q2197.43 1496.18 2175.75 1568.85L2175.75 1568.85Q2106.90 1799.63 1993.43 1929.68L1993.43 1929.68Q1978.13 1948.80 1967.29 1948.80Q1956.45 1948.80 1956.45 1937.96Q1956.45 1927.13 1965.38 1913.10L1965.38 1913.10Q2131.13 1613.48 2169.38 1122.60L2169.38 1122.60L2127.30 1126.42Q2106.90 1128.97 2087.14 1128.97Q2067.38 1128.97 2047.61 1118.78Q2027.85 1108.58 2012.55 1063.95ZM2537.85 1390.35L2443.50 1395.45Q2432.03 1396.72 2422.46 1399.28Q2412.90 1401.83 2402.06 1401.83Q2391.23 1401.83 2375.29 1389.08Q2359.35 1376.33 2359.35 1362.30Q2359.35 1348.28 2364.45 1336.80L2364.45 1336.80L2458.80 1095.83L2248.43 1114.95Q2236.95 1264.13 2219.10 1373.78L2219.10 1373.78Q2307.07 1542.08 2400.15 1659.38L2400.15 1659.38Q2483.03 1539.53 2537.85 1390.35L2537.85 1390.35ZM1596.90 1237.35L1596.90 1237.35L1624.95 1242.45Q1636.42 1243.72 1645.35 1243.72L1645.35 1243.72L1656.83 1243.72Q1660.65 1243.72 1665.75 1242.45L1665.75 1242.45L1818.75 1228.43L1821.30 981.08Q1821.30 955.58 1809.83 937.09Q1798.35 918.60 1798.35 914.77L1798.35 914.77Q1798.35 903.30 1814.29 903.30Q1830.22 903.30 1857.64 913.50Q1885.05 923.70 1890.79 931.99Q1896.53 940.27 1896.53 954.30L1896.53 954.30L1892.70 1220.78L1953.90 1215.68Q1985.78 1213.13 1994.70 1208.66Q2003.63 1204.20 2011.28 1204.20Q2018.93 1204.20 2034.22 1214.40L2034.22 1214.40Q2073.75 1241.18 2073.75 1259.03L2073.75 1259.03Q2073.75 1273.05 2045.70 1275.60L2045.70 1275.60L1892.70 1289.63L1891.43 1395.45Q1905.45 1375.05 1918.20 1375.05L1918.20 1375.05Q1939.88 1375.05 2000.44 1461.75Q2061 1548.45 2061 1559.29Q2061 1570.13 2044.43 1587.98Q2027.85 1605.83 2011.91 1605.83Q1995.98 1605.83 1987.05 1585.43L1987.05 1585.43Q1933.50 1488.53 1890.15 1432.42L1890.15 1432.42L1882.50 2020.20Q1882.50 2052.08 1860.83 2052.08L1860.83 2052.08Q1859.55 2052.08 1844.25 2047.61Q1828.95 2043.15 1813.65 2031.68Q1798.35 2020.20 1798.35 2004.90Q1798.35 1989.60 1804.09 1966.01Q1809.83 1942.43 1809.83 1905.45L1809.83 1905.45L1811.10 1864.65Q1811.10 1526.78 1818.75 1450.28L1818.75 1450.28L1818.75 1438.80Q1798.35 1508.93 1728.22 1611.56Q1658.10 1714.20 1616.03 1756.28Q1573.95 1798.35 1564.39 1798.35Q1554.83 1798.35 1554.83 1786.88Q1554.83 1775.40 1567.58 1758.83L1567.58 1758.83Q1706.55 1565.03 1804.72 1298.55L1804.72 1298.55L1692.53 1308.75Q1679.78 1310.03 1669.58 1311.30Q1659.38 1312.58 1642.80 1312.58Q1626.22 1312.58 1599.45 1275.60L1599.45 1275.60Q1580.33 1237.35 1596.90 1237.35Z"/>
  </svg>