<svg xmlns="http://www.w3.org/2000/svg" viewBox="0 0 3000 3000" width="3000" height="3000">
    <path fill="#000000" d="M845.92 2031.04L845.92 2031.04Q845.92 2018.29 826.16 1985.14Q806.40 1951.99 778.35 1909.91Q750.30 1867.84 724.80 1835.96L724.80 1835.96Q706.95 1813.01 689.10 1813.01L689.10 1813.01Q681.45 1813.01 661.69 1823.85Q641.92 1834.69 641.92 1855.09L641.92 1855.09Q641.92 1869.11 652.12 1884.41L652.12 1884.41Q681.45 1922.66 707.59 1965.38Q733.72 2008.09 752.85 2050.16L752.85 2050.16Q765.60 2080.76 786.00 2080.76L786.00 2080.76Q789.82 2080.76 803.85 2075.03Q817.87 2069.29 831.90 2058.45Q845.92 2047.61 845.92 2031.04ZM327.00 2055.26L327.00 2055.26Q327.00 2065.46 336.56 2078.85Q346.12 2092.24 359.51 2103.71Q372.90 2115.19 386.29 2115.19Q399.67 2115.19 421.35 2091.60Q443.02 2068.01 468.52 2032.95Q494.02 1997.89 517.61 1960.91Q541.20 1923.94 557.14 1892.70Q573.07 1861.46 573.07 1847.44L573.07 1847.44Q573.07 1828.31 542.47 1813.01L542.47 1813.01Q528.45 1804.09 515.70 1804.09L515.70 1804.09Q494.02 1804.09 481.27 1833.41L481.27 1833.41Q458.32 1886.96 420.71 1937.33Q383.10 1987.69 342.30 2027.21L342.30 2027.21Q327.00 2042.51 327.00 2055.26ZM1028.25 2059.09L1028.25 2059.09Q1046.10 2084.59 1062.67 2084.59L1062.67 2084.59Q1075.42 2084.59 1099.01 2069.29Q1122.60 2053.99 1122.60 2033.59L1122.60 2033.59Q1122.60 2023.39 1106.66 1999.16Q1090.72 1974.94 1066.50 1943.70Q1042.27 1912.46 1012.95 1879.95Q983.62 1847.44 955.57 1819.39L955.57 1819.39Q937.72 1801.54 923.70 1801.54L923.70 1801.54Q908.40 1801.54 892.46 1816.20Q876.52 1830.86 876.52 1847.44L876.52 1847.44Q876.52 1861.46 891.82 1876.76L891.82 1876.76Q926.25 1916.29 961.95 1962.83Q997.65 2009.36 1028.25 2059.09ZM1432.42 2056.54L1432.42 2056.54Q1432.42 2045.06 1410.11 2015.74Q1387.80 1986.41 1354.65 1950.71Q1321.50 1915.01 1286.44 1880.59Q1251.37 1846.16 1222.69 1822.58Q1194 1798.99 1181.25 1798.99L1181.25 1798.99Q1160.85 1798.99 1147.46 1820.03Q1134.07 1841.06 1134.07 1848.71L1134.07 1848.71Q1134.07 1864.01 1151.92 1879.31L1151.92 1879.31Q1201.65 1926.49 1250.74 1982.59Q1299.82 2038.69 1339.35 2090.96L1339.35 2090.96Q1355.92 2111.36 1371.22 2111.36L1371.22 2111.36Q1377.60 2111.36 1391.63 2104.35Q1405.65 2097.34 1419.04 2085.22Q1432.42 2073.11 1432.42 2056.54ZM610.05 1529.96L720.97 1523.59L724.80 1699.54L620.25 1704.64L610.05 1529.96ZM814.05 1519.76L916.05 1514.66L913.50 1691.89L817.87 1696.99L814.05 1519.76ZM1006.57 1510.84L1125.15 1504.46L1112.40 1684.24L1001.47 1689.34L1006.57 1510.84ZM473.62 1793.89L473.62 1793.89L1330.42 1760.74Q1344.45 1759.46 1356.56 1755Q1368.67 1750.54 1368.67 1737.79Q1368.67 1725.04 1355.92 1709.74Q1343.17 1694.44 1325.96 1682.33Q1308.75 1670.21 1293.45 1670.21L1293.45 1670.21Q1284.52 1670.21 1279.42 1671.49L1279.42 1671.49Q1267.95 1676.59 1255.20 1677.86Q1242.45 1679.14 1228.42 1680.41L1228.42 1680.41L1201.65 1681.69L1215.67 1500.64L1404.38 1491.71Q1419.67 1490.44 1431.15 1485.34Q1442.63 1480.24 1442.63 1466.21L1442.63 1466.21Q1442.63 1450.91 1427.32 1434.97Q1412.02 1419.04 1393.54 1408.20Q1375.05 1397.36 1364.85 1397.36L1364.85 1397.36Q1358.47 1397.36 1349.55 1399.91L1349.55 1399.91Q1336.80 1405.01 1323.41 1406.29Q1310.02 1407.56 1296.00 1408.84L1296.00 1408.84L1220.77 1412.66L1233.52 1253.29L1233.52 1249.46Q1233.52 1230.34 1216.31 1218.86Q1199.10 1207.39 1179.97 1202.29Q1160.85 1197.19 1148.10 1197.19L1148.10 1197.19Q1123.88 1197.19 1123.88 1215.04L1123.88 1215.04Q1123.88 1222.69 1128.97 1230.34L1128.97 1230.34Q1140.45 1252.01 1140.45 1276.24L1140.45 1276.24L1140.45 1283.89L1130.25 1416.49L1009.12 1422.86L1014.22 1255.84Q1014.22 1236.71 1005.30 1227.79Q996.37 1218.86 969.60 1209.30Q942.82 1199.74 921.79 1199.74Q900.75 1199.74 900.75 1217.59L900.75 1217.59Q900.75 1225.24 905.85 1232.89L905.85 1232.89Q919.87 1258.39 919.87 1286.44L919.87 1286.44L917.32 1426.69L812.77 1431.79L808.95 1271.14Q808.95 1252.01 800.66 1243.09Q792.37 1234.16 765.60 1224.60Q738.82 1215.04 720.97 1215.04L720.97 1215.04Q698.02 1215.04 698.02 1232.89L698.02 1232.89Q698.02 1237.99 703.12 1248.19L703.12 1248.19Q717.15 1273.69 717.15 1301.74L717.15 1301.74L719.70 1435.61L604.95 1441.99L598.57 1337.44Q597.30 1314.49 580.09 1304.93Q562.87 1295.36 545.02 1292.81L545.02 1292.81Q531.00 1290.26 523.35 1290.26L523.35 1290.26Q560.32 1257.11 599.85 1215.04L599.85 1215.04L1261.57 1179.34Q1275.60 1178.06 1286.44 1172.96Q1297.27 1167.86 1297.27 1155.11L1297.27 1155.11Q1297.27 1146.19 1286.44 1132.16Q1275.60 1118.14 1259.02 1106.03Q1242.45 1093.91 1223.32 1093.91L1223.32 1093.91Q1214.40 1093.91 1209.30 1095.19L1209.30 1095.19Q1185.07 1101.56 1158.30 1104.11L1158.30 1104.11L666.15 1133.44Q696.75 1092.64 722.89 1051.20Q749.02 1009.76 749.02 999.56Q749.02 989.36 735.00 973.42Q720.97 957.49 702.49 943.46Q684.00 929.44 666.15 929.44Q648.30 929.44 648.30 956.21L648.30 956.21Q648.30 975.34 626.62 1019.33Q604.95 1063.31 566.70 1118.78Q528.45 1174.24 481.27 1231.61Q434.10 1288.99 383.10 1333.61L383.10 1333.61Q352.50 1360.39 352.50 1378.24L352.50 1378.24Q352.50 1392.26 367.80 1392.26L367.80 1392.26Q379.27 1392.26 413.70 1371.86L413.70 1371.86Q446.85 1352.74 491.47 1317.04L491.47 1317.04Q492.75 1322.14 496.57 1327.24L496.57 1327.24Q510.60 1346.36 513.15 1373.14L513.15 1373.14L518.25 1445.81L381.82 1452.19L370.35 1452.19Q346.12 1452.19 321.90 1445.81L321.90 1445.81Q316.80 1444.54 311.70 1444.54L311.70 1444.54Q296.40 1444.54 296.40 1458.56L296.40 1458.56Q296.40 1467.49 305.32 1488.53Q314.25 1509.56 332.10 1527.41L332.10 1527.41Q344.85 1540.16 376.72 1540.16L376.72 1540.16Q383.10 1540.16 390.11 1539.53Q397.12 1538.89 404.77 1538.89L404.77 1538.89L522.07 1532.51L531.00 1707.19L449.40 1711.01L439.20 1711.01Q414.97 1711.01 393.30 1704.64L393.30 1704.64Q389.47 1703.36 384.37 1703.36L384.37 1703.36Q370.35 1703.36 370.35 1718.66L370.35 1718.66Q370.35 1726.31 377.36 1743.53Q384.37 1760.74 399.67 1782.41L399.67 1782.41Q411.15 1795.16 444.30 1795.16L444.30 1795.16Q450.67 1795.16 458.32 1794.53Q465.97 1793.89 473.62 1793.89ZM1979.40 2018.29L1979.40 2018.29L2711.25 2000.44Q2725.28 1999.16 2736.75 1995.34Q2748.23 1991.51 2748.23 1978.76L2748.23 1978.76Q2748.23 1967.29 2733.56 1950.71Q2718.90 1934.14 2701.05 1920.11Q2683.20 1906.09 2670.45 1906.09L2670.45 1906.09Q2665.35 1906.09 2653.88 1908.64L2653.88 1908.64Q2638.57 1913.74 2623.91 1915.65Q2609.25 1917.56 2595.23 1917.56L2595.23 1917.56L1952.63 1934.14Q1939.88 1934.14 1919.47 1932.23Q1899.08 1930.31 1881.22 1926.49L1881.22 1926.49Q1879.95 1926.49 1878.67 1925.85Q1877.40 1925.21 1874.85 1925.21L1874.85 1925.21Q1860.83 1925.21 1860.83 1940.51L1860.83 1940.51Q1860.83 1953.26 1871.03 1970.48Q1881.22 1987.69 1893.97 2000.44Q1906.72 2013.19 1914.38 2017.01L1914.38 2017.01Q1920.75 2018.29 1927.76 2018.93Q1934.78 2019.56 1942.43 2019.56Q1950.08 2019.56 1959.64 2018.93Q1969.20 2018.29 1979.40 2018.29ZM2045.70 1476.41L2131.13 1468.76L2123.47 1628.14L2059.72 1633.24L2045.70 1476.41ZM2066.10 1718.66L2064.82 1708.46L2196.15 1702.09Q2212.72 1700.81 2225.47 1698.26Q2238.22 1695.71 2238.22 1680.41L2238.22 1680.41Q2238.22 1663.84 2206.35 1630.69L2206.35 1630.69L2219.10 1463.66Q2220.38 1459.84 2223.56 1454.74Q2226.75 1449.64 2226.75 1440.71L2226.75 1440.71Q2226.75 1419.04 2208.26 1405.01Q2189.78 1390.99 2168.10 1390.99L2168.10 1390.99L2157.90 1390.99L2030.40 1401.19Q2003.63 1388.44 1984.50 1383.97Q1965.38 1379.51 1953.90 1379.51L1953.90 1379.51Q1932.22 1379.51 1932.22 1396.09L1932.22 1396.09Q1932.22 1403.74 1939.88 1413.94L1939.88 1413.94Q1946.25 1424.14 1952.63 1438.80Q1959 1453.46 1960.28 1467.49L1960.28 1467.49L1975.58 1647.26L1975.58 1662.56Q1975.58 1672.76 1974.94 1682.33Q1974.30 1691.89 1973.03 1704.64L1973.03 1704.64L1973.03 1711.01Q1973.03 1732.69 1999.80 1744.80Q2026.58 1756.91 2041.88 1756.91Q2057.18 1756.91 2061.64 1747.35Q2066.10 1737.79 2066.10 1727.59L2066.10 1727.59L2066.10 1718.66ZM2453.70 1369.31L2453.70 1369.31L2555.70 1360.39Q2550.60 1398.64 2536.57 1447.09Q2522.55 1495.54 2509.80 1528.69L2509.80 1528.69Q2484.30 1485.34 2456.25 1419.04L2456.25 1419.04Q2447.32 1396.09 2428.20 1396.09L2428.20 1396.09Q2414.18 1396.09 2396.32 1407.56Q2378.48 1419.04 2378.48 1433.06L2378.48 1433.06Q2378.48 1440.71 2391.86 1470.04Q2405.25 1499.36 2426.29 1538.89Q2447.32 1578.41 2469 1616.66L2469 1616.66Q2421.82 1711.01 2352.98 1790.06L2352.98 1790.06Q2331.30 1816.84 2331.30 1832.14Q2331.30 1847.44 2346.60 1847.44L2346.60 1847.44Q2360.63 1847.44 2389.31 1825.13Q2418 1802.81 2453.06 1765.20Q2488.13 1727.59 2512.35 1688.06L2512.35 1688.06Q2551.88 1747.99 2575.46 1779.86Q2599.05 1811.74 2611.16 1820.03Q2623.28 1828.31 2630.93 1828.31L2630.93 1828.31Q2643.68 1828.31 2666.63 1815.56Q2689.57 1802.81 2689.57 1784.96L2689.57 1784.96Q2689.57 1774.76 2675.55 1760.74L2675.55 1760.74Q2644.95 1726.31 2614.99 1687.43Q2585.03 1648.54 2558.25 1609.01L2558.25 1609.01Q2590.13 1550.36 2613.07 1485.34Q2636.03 1420.31 2648.78 1359.11L2648.78 1359.11Q2650.05 1355.29 2655.15 1348.28Q2660.25 1341.26 2660.25 1329.79L2660.25 1329.79Q2660.25 1313.21 2646.86 1302.38Q2633.48 1291.54 2618.81 1285.16Q2604.15 1278.79 2596.50 1278.79L2596.50 1278.79Q2593.95 1278.79 2589.49 1278.79Q2585.03 1278.79 2581.20 1280.06L2581.20 1280.06L2447.32 1292.81Q2440.95 1294.09 2433.94 1294.09Q2426.93 1294.09 2420.55 1294.09L2420.55 1294.09Q2406.53 1294.09 2397.60 1292.81Q2388.68 1291.54 2383.57 1290.26Q2378.48 1288.99 2372.10 1288.99L2372.10 1288.99Q2363.18 1288.99 2359.35 1294.09L2359.35 1294.09Q2355.53 1280.06 2342.78 1271.14L2342.78 1271.14Q2324.93 1258.39 2307.07 1258.39L2307.07 1258.39Q2303.25 1258.39 2299.43 1259.03Q2295.60 1259.66 2291.78 1259.66L2291.78 1259.66L2178.30 1268.59L2228.03 1147.46L2614.35 1121.96Q2628.38 1120.69 2640.49 1117.50Q2652.60 1114.31 2652.60 1099.01L2652.60 1099.01Q2652.60 1084.99 2637.94 1068.41Q2623.28 1051.84 2605.43 1040.36Q2587.57 1028.89 2574.82 1028.89L2574.82 1028.89Q2567.18 1028.89 2554.43 1032.71L2554.43 1032.71Q2540.40 1037.81 2527.01 1040.36Q2513.63 1042.91 2497.05 1044.19L2497.05 1044.19L1973.03 1078.61L1957.72 1078.61Q1930.95 1078.61 1909.28 1073.51L1909.28 1073.51Q1908 1073.51 1906.72 1072.88Q1905.45 1072.24 1902.90 1072.24L1902.90 1072.24Q1886.33 1072.24 1886.33 1086.26L1886.33 1086.26Q1886.33 1099.01 1899.71 1116.86Q1913.10 1134.71 1929.68 1152.56L1929.68 1152.56Q1941.15 1164.04 1960.28 1164.04L1960.28 1164.04Q1967.93 1164.04 1978.13 1163.40Q1988.33 1162.76 2001.08 1161.49L2001.08 1161.49L2134.95 1153.84L2078.85 1283.89Q2076.30 1292.81 2073.11 1299.19Q2069.93 1305.56 2069.93 1313.21L2069.93 1313.21Q2069.93 1331.06 2090.32 1345.72Q2110.72 1360.39 2122.20 1360.39L2122.20 1360.39Q2134.95 1360.39 2142.60 1355.29Q2150.25 1350.19 2163 1348.91L2163 1348.91L2265 1341.26Q2265 1452.19 2259.90 1579.69Q2254.80 1707.19 2224.20 1816.84L2224.20 1816.84Q2222.93 1820.66 2221.65 1820.66L2221.65 1820.66Q2217.82 1820.66 2216.55 1819.39L2216.55 1819.39Q2191.05 1810.46 2159.18 1798.35Q2127.30 1786.24 2100.53 1774.76L2100.53 1774.76Q2087.78 1768.39 2077.57 1768.39L2077.57 1768.39Q2059.72 1768.39 2059.72 1783.69L2059.72 1783.69Q2059.72 1797.71 2082.68 1821.94Q2105.63 1846.16 2136.22 1868.48Q2166.82 1890.79 2194.88 1907.36Q2222.93 1923.94 2238.22 1923.94L2238.22 1923.94Q2257.35 1923.94 2281.57 1904.81L2281.57 1904.81Q2301.98 1886.96 2310.90 1864.65Q2319.82 1842.34 2324.93 1805.36L2324.93 1805.36Q2335.13 1746.71 2340.86 1664.48Q2346.60 1582.24 2350.43 1495.54Q2354.25 1408.84 2354.25 1336.16L2354.25 1336.16Q2354.25 1329.79 2356.80 1322.14L2356.80 1322.14Q2359.35 1318.31 2359.35 1314.49L2359.35 1314.49Q2360.63 1318.31 2361.90 1323.41L2361.90 1323.41Q2368.28 1339.99 2382.30 1355.93Q2396.32 1371.86 2421.82 1371.86L2421.82 1371.86Q2428.20 1371.86 2436.49 1371.22Q2444.78 1370.59 2453.70 1369.31ZM1816.20 2068.01L1816.20 2068.01L1822.58 1526.14Q1826.40 1532.51 1842.97 1563.11Q1859.55 1593.71 1873.58 1625.59L1873.58 1625.59Q1885.05 1652.36 1902.90 1652.36L1902.90 1652.36Q1909.28 1652.36 1922.03 1646.63Q1934.78 1640.89 1946.89 1631.33Q1959 1621.76 1959 1606.46L1959 1606.46Q1959 1596.26 1946.89 1575.86Q1934.78 1555.46 1918.84 1531.24Q1902.90 1507.01 1887.60 1484.70Q1872.30 1462.39 1864.65 1452.19L1864.65 1452.19Q1850.63 1433.06 1835.33 1433.06L1835.33 1433.06Q1827.67 1433.06 1823.85 1435.61L1823.85 1435.61L1825.13 1351.46L1953.90 1339.99Q1987.05 1336.16 1987.05 1313.21L1987.05 1313.21Q1987.05 1303.01 1974.94 1288.99Q1962.83 1274.96 1946.89 1264.13Q1930.95 1253.29 1918.20 1253.29L1918.20 1253.29Q1910.55 1253.29 1906.72 1254.56L1906.72 1254.56Q1887.60 1262.21 1863.38 1264.76L1863.38 1264.76L1825.13 1267.31L1828.95 1016.14Q1828.95 999.56 1821.30 990.64Q1813.65 981.71 1785.60 970.24L1785.60 970.24Q1757.55 960.04 1743.53 960.04L1743.53 960.04Q1720.58 960.04 1720.58 977.89L1720.58 977.89Q1720.58 985.54 1725.67 993.19L1725.67 993.19Q1732.05 1003.39 1735.88 1014.86Q1739.70 1026.34 1739.70 1039.09L1739.70 1039.09L1737.15 1273.69L1628.78 1282.61Q1623.67 1282.61 1618.58 1283.25Q1613.47 1283.89 1607.10 1283.89L1607.10 1283.89Q1590.53 1283.89 1571.40 1280.06L1571.40 1280.06Q1570.13 1280.06 1568.21 1279.43Q1566.30 1278.79 1563.75 1278.79L1563.75 1278.79Q1547.17 1278.79 1547.17 1294.09L1547.17 1294.09Q1547.17 1296.64 1553.55 1313.85Q1559.92 1331.06 1574.59 1348.91Q1589.25 1366.76 1616.03 1366.76L1616.03 1366.76Q1624.95 1366.76 1635.15 1366.13Q1645.35 1365.49 1655.55 1364.21L1655.55 1364.21L1715.47 1359.11Q1677.22 1482.79 1627.50 1601.36Q1577.78 1719.94 1522.95 1809.19L1522.95 1809.19Q1510.20 1830.86 1510.20 1846.16Q1510.20 1861.46 1525.50 1861.46L1525.50 1861.46Q1539.53 1861.46 1569.49 1828.95Q1599.45 1796.44 1635.15 1743.53Q1670.85 1690.61 1704 1626.86L1704 1626.86Q1729.50 1577.14 1732.05 1578.41L1732.05 1578.41L1735.88 1524.86Q1735.88 1536.34 1734.60 1550.36L1734.60 1550.36Q1733.33 1570.76 1733.33 1582.24L1733.33 1582.24Q1733.33 1638.34 1732.69 1704Q1732.05 1769.66 1732.05 1828.95Q1732.05 1888.24 1732.05 1925.21L1732.05 1925.21L1730.78 1963.46Q1730.78 1980.04 1728.86 1996.61Q1726.95 2013.19 1721.85 2029.76L1721.85 2029.76Q1720.58 2034.86 1719.94 2039.33Q1719.30 2043.79 1719.30 2047.61L1719.30 2047.61Q1719.30 2070.56 1734.60 2082.68Q1749.90 2094.79 1765.84 2100.53Q1781.78 2106.26 1786.88 2106.26L1786.88 2106.26Q1816.20 2106.26 1816.20 2068.01ZM1732.05 1582.24L1732.05 1578.41Q1733.33 1578.41 1732.05 1582.24L1732.05 1582.24Z"/>
  </svg>