<svg xmlns="http://www.w3.org/2000/svg" viewBox="0 0 3000 3000" width="3000" height="3000">
    <path fill="#000000" d="M300.22 1515.30L300.22 1478.33L1426.05 1478.33L1426.05 1515.30L300.22 1515.30ZM381.82 1126.42L381.82 1088.17L1349.55 1088.17L1349.55 1126.42L381.82 1126.42ZM886.72 2024.03L886.72 1502.55L923.70 1502.55L923.70 2025.30Q923.70 2058.45 941.55 2069.29Q959.40 2080.13 1016.77 2080.13L1016.77 2080.13Q1030.80 2080.13 1069.69 2080.13Q1108.57 2080.13 1156.39 2080.13Q1204.20 2080.13 1245.64 2080.13Q1287.07 2080.13 1306.20 2080.13L1306.20 2080.13Q1343.17 2080.13 1361.66 2064.19Q1380.15 2048.25 1387.16 2001.08Q1394.17 1953.90 1396.72 1862.10L1396.72 1862.10Q1403.10 1865.93 1409.47 1869.75Q1415.85 1873.58 1422.86 1876.13Q1429.88 1878.68 1434.97 1879.95L1434.97 1879.95Q1431.15 1974.30 1420.95 2026.58Q1410.75 2078.85 1384.61 2098.61Q1358.47 2118.38 1306.20 2118.38L1306.20 2118.38Q1298.55 2118.38 1269.22 2118.38Q1239.90 2118.38 1201.01 2118.38Q1162.13 2118.38 1122.60 2118.38Q1083.07 2118.38 1054.39 2118.38Q1025.70 2118.38 1019.32 2118.38L1019.32 2118.38Q968.32 2118.38 939.00 2110.72Q909.67 2103.08 898.20 2082.68Q886.72 2062.28 886.72 2024.03L886.72 2024.03ZM828.07 1099.65L828.07 1099.65L863.77 1099.65Q861.22 1187.63 854.85 1285.16Q848.47 1382.70 831.26 1482.79Q814.05 1582.88 778.99 1680.41Q743.92 1777.95 684.64 1865.29Q625.35 1952.63 534.82 2025.30Q444.30 2097.97 315.52 2147.70L315.52 2147.70Q310.42 2141.33 302.77 2133.04Q295.12 2124.75 288.75 2119.65L288.75 2119.65Q417.52 2071.20 506.77 2001.08Q596.02 1930.95 654.67 1844.89Q713.32 1758.83 747.11 1663.84Q780.90 1568.85 797.47 1470.68Q814.05 1372.50 819.79 1278.15Q825.52 1183.80 828.07 1099.65ZM1596.90 1288.35L1596.90 1251.38L1990.88 1251.38L1990.88 1288.35L1596.90 1288.35ZM1788.15 2142.60L1788.15 996.38L1825.13 996.38L1825.13 2142.60L1788.15 2142.60ZM1785.60 1261.58L1785.60 1261.58L1818.75 1270.50Q1802.17 1347 1776.67 1429.24Q1751.17 1511.47 1719.94 1591.16Q1688.70 1670.85 1654.28 1739.06Q1619.85 1807.28 1585.42 1854.45L1585.42 1854.45Q1582.88 1849.35 1577.78 1843.61Q1572.67 1837.88 1566.94 1832.78Q1561.20 1827.68 1556.10 1825.13L1556.10 1825.13Q1590.53 1780.50 1624.31 1715.48Q1658.10 1650.45 1689.34 1573.95Q1720.58 1497.45 1745.44 1417.13Q1770.30 1336.80 1785.60 1261.58ZM1798.35 1358.47L1822.58 1339.35Q1832.78 1352.10 1855.09 1384.61Q1877.40 1417.13 1902.26 1456.01Q1927.13 1494.90 1948.80 1527.41Q1970.47 1559.92 1979.40 1575.22L1979.40 1575.22L1951.35 1608.38Q1941.15 1589.25 1920.11 1553.55Q1899.08 1517.85 1875.49 1478.33Q1851.90 1438.80 1830.86 1406.29Q1809.83 1373.78 1798.35 1358.47L1798.35 1358.47ZM2169.38 1090.72L2169.38 1090.72L2210.18 1092Q2202.53 1276.88 2188.50 1433.06Q2174.47 1589.25 2144.51 1718.66Q2114.55 1848.08 2061.64 1953.90Q2008.73 2059.72 1923.30 2146.43L1923.30 2146.43Q1920.75 2142.60 1914.38 2138.14Q1908 2133.68 1901.63 2129.21Q1895.25 2124.75 1890.15 2122.20L1890.15 2122.20Q2003.63 2015.10 2061 1865.29Q2118.38 1715.48 2140.69 1521.68Q2163 1327.88 2169.38 1090.72ZM1999.80 1121.33L1999.80 1083.08L2507.25 1083.08L2507.25 1121.33L1999.80 1121.33ZM2393.78 1489.80L2410.35 1451.55L2641.13 1451.55L2641.13 1489.80L2393.78 1489.80ZM2625.82 1461.75L2625.82 1451.55L2634.75 1451.55L2643.68 1450.28L2667.90 1461.75Q2627.10 1642.80 2549.32 1776.68Q2471.55 1910.55 2368.91 2001.71Q2266.28 2092.88 2147.70 2148.97L2147.70 2148.97Q2145.15 2143.88 2140.05 2138.14Q2134.95 2132.40 2129.21 2126.66Q2123.47 2120.93 2118.38 2118.38L2118.38 2118.38Q2236.95 2064.83 2338.31 1976.85Q2439.68 1888.88 2514.26 1760.74Q2588.85 1632.60 2625.82 1461.75L2625.82 1461.75ZM2157.90 1366.13L2191.05 1357.20Q2231.85 1530.60 2302.61 1681.69Q2373.38 1832.78 2477.93 1943.70Q2582.48 2054.63 2720.18 2109.45L2720.18 2109.45Q2715.07 2113.28 2709.98 2119.01Q2704.88 2124.75 2699.78 2130.49Q2694.68 2136.22 2690.85 2141.33L2690.85 2141.33Q2551.88 2081.40 2447.32 1967.93Q2342.78 1854.45 2271.38 1700.18Q2199.97 1545.90 2157.90 1366.13L2157.90 1366.13ZM2491.95 1083.08L2491.95 1083.08L2534.03 1083.08Q2516.18 1148.10 2495.14 1223.33Q2474.10 1298.55 2453.70 1368.68Q2433.30 1438.80 2416.73 1489.80L2416.73 1489.80L2375.93 1489.80Q2395.05 1437.53 2416.09 1366.76Q2437.13 1296 2457.53 1220.78Q2477.93 1145.55 2491.95 1083.08Z"/>
  </svg>