<svg xmlns="http://www.w3.org/2000/svg" viewBox="0 0 3000 3000" width="3000" height="3000">
    <path fill="#000000" d="M345.78 2054.08Q319.63 2054.08 304.69 2041.00Q289.75 2027.93 289.75 2005.52L289.75 2005.52Q289.75 1980.62 308.42 1949.49L308.42 1949.49Q394.34 1806.30 394.34 1410.35L394.34 1410.35L394.34 1272.14Q394.34 1157.59 521.34 1157.59L521.34 1157.59L781.57 1157.59L781.57 984.52Q781.57 962.11 795.26 948.41Q808.96 934.72 833.86 934.72L833.86 934.72Q858.76 934.72 873.08 948.41Q887.40 962.11 887.40 984.52L887.40 984.52L887.40 1008.18L1257.20 1008.18Q1307.01 1008.18 1307.01 1051.76L1307.01 1051.76Q1307.01 1094.09 1257.20 1094.09L1257.20 1094.09L887.40 1094.09L887.40 1157.59L1293.31 1157.59Q1351.83 1157.59 1378.60 1183.12Q1405.37 1208.64 1401.64 1264.67L1401.64 1264.67L1401.64 1354.32Q1401.64 1402.88 1350.59 1402.88L1350.59 1402.88Q1300.78 1402.88 1300.78 1354.32L1300.78 1354.32L1300.78 1287.08Q1300.78 1267.16 1290.20 1257.20Q1279.61 1247.24 1260.94 1247.24L1260.94 1247.24L556.20 1247.24Q526.32 1247.24 512.00 1259.07Q497.68 1270.90 497.68 1295.80L497.68 1295.80L497.68 1400.39Q497.68 1751.51 447.88 1902.17L447.88 1902.17Q396.83 2054.08 345.78 2054.08L345.78 2054.08ZM500.17 2047.85Q447.88 2047.85 447.88 2001.78L447.88 2001.78Q447.88 1956.96 500.17 1956.96L500.17 1956.96L757.91 1956.96L757.91 1884.74L662.04 1884.74Q604.76 1884.74 578.61 1864.82Q552.47 1844.90 552.47 1800.07L552.47 1800.07L552.47 1690.50Q552.47 1669.34 564.92 1657.51Q577.37 1645.68 597.29 1645.68L597.29 1645.68Q619.70 1645.68 631.53 1657.51Q643.36 1669.34 643.36 1690.50L643.36 1690.50L643.36 1778.91Q643.36 1790.11 657.68 1796.96Q672.00 1803.81 695.65 1803.81L695.65 1803.81L757.91 1803.81L757.91 1664.36Q757.91 1618.29 805.22 1618.29L805.22 1618.29Q850.05 1618.29 850.05 1664.36L850.05 1664.36L850.05 1956.96L988.26 1956.96L988.26 1664.36Q988.26 1618.29 1034.33 1618.29L1034.33 1618.29Q1081.64 1618.29 1081.64 1664.36L1081.64 1664.36L1081.64 1803.81L1150.12 1803.81Q1173.78 1803.81 1188.72 1796.96Q1203.66 1790.11 1203.66 1778.91L1203.66 1778.91L1203.66 1691.75Q1203.66 1670.58 1214.87 1658.13Q1226.07 1645.68 1249.73 1645.68L1249.73 1645.68Q1295.80 1645.68 1295.80 1691.75L1295.80 1691.75L1295.80 1800.07Q1295.80 1844.90 1269.65 1864.82Q1243.51 1884.74 1187.48 1884.74L1187.48 1884.74L1081.64 1884.74L1081.64 1956.96L1377.98 1956.96Q1404.13 1956.96 1417.82 1968.79Q1431.52 1980.62 1431.52 2001.78L1431.52 2001.78Q1431.52 2047.85 1377.98 2047.85L1377.98 2047.85L500.17 2047.85ZM1020.63 1589.65Q858.76 1589.65 826.39 1578.44L826.39 1578.44Q765.38 1557.28 765.38 1498.75L765.38 1498.75L765.38 1420.31L579.86 1432.76Q556.20 1434.01 545.62 1424.67Q535.03 1415.33 535.03 1394.17L535.03 1394.17Q535.03 1355.57 581.10 1351.83L581.10 1351.83L765.38 1339.38L765.38 1219.85L864.99 1219.85L864.99 1333.15L1198.68 1307.01Q1246.00 1303.27 1246.00 1345.61L1246.00 1345.61Q1246.00 1384.20 1198.68 1387.94L1198.68 1387.94L864.99 1412.84L864.99 1460.16Q864.99 1490.04 892.38 1497.51L892.38 1497.51Q921.02 1504.98 1010.67 1504.98L1010.67 1504.98Q1177.51 1504.98 1209.89 1495.02L1209.89 1495.02Q1218.60 1492.53 1225.45 1481.95Q1232.30 1471.36 1234.79 1455.18L1234.79 1455.18Q1239.77 1432.76 1250.98 1424.67Q1262.18 1416.58 1282.10 1416.58L1282.10 1416.58Q1309.50 1416.58 1321.95 1427.16Q1334.40 1437.74 1334.40 1471.36L1334.40 1471.36Q1334.40 1517.43 1308.25 1546.07Q1282.10 1574.71 1229.81 1582.18L1229.81 1582.18Q1177.51 1589.65 1020.63 1589.65L1020.63 1589.65ZM1639.45 2019.21Q1579.69 2019.21 1579.69 1971.90L1579.69 1971.90Q1579.69 1923.34 1639.45 1923.34L1639.45 1923.34L2078.98 1923.34L2078.98 1686.77L1722.88 1686.77Q1664.36 1686.77 1664.36 1640.70L1664.36 1640.70Q1664.36 1594.63 1722.88 1594.63L1722.88 1594.63L2553.37 1594.63Q2611.89 1594.63 2611.89 1640.70L2611.89 1640.70Q2611.89 1686.77 2553.37 1686.77L2553.37 1686.77L2179.83 1686.77L2179.83 1923.34L2636.79 1923.34Q2695.31 1923.34 2695.31 1971.90L2695.31 1971.90Q2695.31 2019.21 2636.79 2019.21L2636.79 2019.21L1639.45 2019.21ZM1715.41 1519.92Q1668.09 1519.92 1668.09 1470.12L1668.09 1470.12Q1668.09 1431.52 1727.86 1420.31L1727.86 1420.31Q1826.22 1401.64 1877.27 1343.12L1877.27 1343.12Q1930.81 1279.61 1933.30 1128.96L1933.30 1128.96L2030.42 1133.94L2025.44 1176.27Q2011.74 1302.03 1979.37 1363.04L1979.37 1363.04Q1942.02 1436.50 1853.61 1477.59L1853.61 1477.59Q1761.47 1519.92 1715.41 1519.92L1715.41 1519.92ZM1645.68 1356.81Q1594.63 1356.81 1594.63 1299.54L1594.63 1299.54L1594.63 1180.00Q1585.91 1055.49 1712.92 1061.72L1712.92 1061.72L2074.00 1061.72L2074.00 985.77Q2074.00 933.47 2128.78 933.47L2128.78 933.47Q2157.42 933.47 2170.50 945.92Q2183.57 958.37 2183.57 985.77L2183.57 985.77L2183.57 1061.72L2560.84 1061.72Q2625.59 1061.72 2654.85 1089.73Q2684.11 1117.75 2679.13 1180.00L2679.13 1180.00L2679.13 1297.05Q2679.13 1354.32 2628.08 1354.32L2628.08 1354.32Q2578.27 1354.32 2578.27 1297.05L2578.27 1297.05L2578.27 1204.91Q2578.27 1180.00 2565.20 1166.93Q2552.12 1153.86 2527.22 1153.86L2527.22 1153.86L1746.53 1153.86Q1696.73 1153.86 1696.73 1204.91L1696.73 1204.91L1696.73 1299.54Q1696.73 1356.81 1645.68 1356.81L1645.68 1356.81ZM2374.07 1500Q2243.33 1500 2218.43 1483.81L2218.43 1483.81Q2189.79 1465.14 2188.55 1422.80L2188.55 1422.80L2188.55 1133.94L2286.91 1133.94L2286.91 1368.02Q2286.91 1410.35 2357.89 1410.35L2357.89 1410.35Q2417.65 1410.35 2441.31 1400.39L2441.31 1400.39Q2455.00 1394.17 2462.48 1343.12L2462.48 1343.12Q2468.70 1297.05 2509.79 1297.05L2509.79 1297.05Q2558.35 1297.05 2558.35 1340.63L2558.35 1340.63Q2558.35 1434.01 2521.00 1467.63L2521.00 1467.63Q2484.89 1500 2374.07 1500L2374.07 1500Z"/>
  </svg>