<svg xmlns="http://www.w3.org/2000/svg" viewBox="0 0 3000 3000" width="3000" height="3000">
    <path fill="#000000" d="M843.37 1150.65L843.37 1113.67L1329.15 1113.67L1329.15 1150.65L843.37 1150.65ZM421.35 1304.93L421.35 1266.67L1372.50 1266.67L1372.50 1304.93L421.35 1304.93ZM445.57 2113.28L445.57 2076.30L1401.82 2076.30L1401.82 2113.28L445.57 2113.28ZM826.80 1289.63L826.80 997.65L863.77 997.65L863.77 1289.63L826.80 1289.63ZM769.42 2096.70L769.42 1681.05L807.67 1681.05L807.67 2096.70L769.42 2096.70ZM1010.40 2096.70L1010.40 1681.05L1047.38 1681.05L1047.38 2096.70L1010.40 2096.70ZM534.82 1498.72L529.72 1461.75L1211.85 1394.18L1216.95 1429.88L534.82 1498.72ZM826.80 1542.08L826.80 1296L863.77 1296L863.77 1542.08Q863.77 1566.30 881.62 1573.31Q899.47 1580.33 961.95 1580.33L961.95 1580.33Q974.70 1580.33 1006.57 1580.33Q1038.45 1580.33 1080.52 1580.33Q1122.60 1580.33 1165.95 1580.33Q1209.30 1580.33 1243.72 1580.33Q1278.15 1580.33 1294.72 1580.33L1294.72 1580.33Q1324.05 1580.33 1338.71 1573.95Q1353.38 1567.58 1359.11 1545.90Q1364.85 1524.22 1367.40 1479.60L1367.40 1479.60Q1375.05 1484.70 1385.89 1488.53Q1396.72 1492.35 1404.38 1494.90L1404.38 1494.90Q1401.82 1544.63 1392.90 1571.40Q1383.97 1598.18 1362.30 1608.38Q1340.63 1618.58 1297.27 1618.58L1297.27 1618.58Q1289.62 1618.58 1256.47 1618.58Q1223.32 1618.58 1177.42 1618.58Q1131.52 1618.58 1086.26 1618.58Q1041 1618.58 1007.85 1618.58Q974.70 1618.58 967.05 1618.58L967.05 1618.58Q912.22 1618.58 881.62 1613.47Q851.02 1608.38 838.91 1591.80Q826.80 1575.22 826.80 1542.08L826.80 1542.08ZM400.95 1581.60L400.95 1266.67L439.20 1266.67L439.20 1581.60Q439.20 1644.08 434.74 1716.11Q430.27 1788.15 418.16 1863.38Q406.05 1938.60 383.10 2010.64Q360.15 2082.68 321.90 2143.88L321.90 2143.88Q319.35 2140.05 313.61 2136.22Q307.87 2132.40 302.14 2127.94Q296.40 2123.47 291.30 2122.20L291.30 2122.20Q328.27 2061 350.59 1992.15Q372.90 1923.30 383.74 1851.26Q394.57 1779.23 397.76 1710.38Q400.95 1641.53 400.95 1581.60L400.95 1581.60ZM1362.30 1275.60L1362.30 1266.67L1369.95 1266.67L1378.88 1264.13L1401.82 1274.33Q1385.25 1318.95 1366.76 1366.13Q1348.27 1413.30 1330.42 1446.45L1330.42 1446.45L1297.27 1434.97Q1315.13 1403.10 1332.34 1359.75Q1349.55 1316.40 1362.30 1275.60L1362.30 1275.60ZM536.10 1758.83L536.10 1758.83L570.52 1746.08Q594.75 1781.78 618.34 1824.49Q641.92 1867.20 661.05 1907.36Q680.17 1947.53 690.37 1978.13L690.37 1978.13L654.67 1994.70Q645.75 1962.83 626.62 1922.03Q607.50 1881.23 583.91 1837.88Q560.32 1794.53 536.10 1758.83ZM1265.40 1735.88L1265.40 1735.88L1299.82 1753.73Q1265.40 1813.65 1222.05 1881.86Q1178.70 1950.08 1140.45 1998.53L1140.45 1998.53L1112.40 1983.23Q1137.90 1950.08 1165.95 1906.73Q1194 1863.38 1220.77 1818.11Q1247.55 1772.85 1265.40 1735.88ZM2119.65 2090.33L2119.65 1651.72L2157.90 1651.72L2157.90 2090.33L2119.65 2090.33ZM1614.75 1426.05L1614.75 1163.40L2664.07 1163.40L2664.07 1389.08L2625.82 1389.08L2625.82 1201.65L1653 1201.65L1653 1426.05L1614.75 1426.05ZM1719.30 1670.85L1719.30 1633.88L2563.35 1633.88L2563.35 1670.85L1719.30 1670.85ZM1608.38 2103.08L1608.38 2066.10L2671.73 2066.10L2671.73 2103.08L1608.38 2103.08ZM2249.70 1334.25L2249.70 1334.25L2271.38 1312.58Q2321.10 1339.35 2374.65 1370.59Q2428.20 1401.83 2479.84 1434.34Q2531.48 1466.85 2576.10 1497.45Q2620.73 1528.05 2652.60 1552.28L2652.60 1552.28L2630.93 1580.33Q2599.05 1554.83 2554.43 1524.22Q2509.80 1493.63 2458.16 1459.84Q2406.53 1426.05 2352.98 1393.54Q2299.43 1361.03 2249.70 1334.25ZM1998.53 1302.38L1998.53 1302.38L2026.58 1324.05Q1980.68 1368.68 1924.58 1415.85Q1868.47 1463.03 1801.54 1507.01Q1734.60 1551 1655.55 1585.43L1655.55 1585.43L1628.78 1558.65Q1749.90 1510.20 1842.34 1439.44Q1934.78 1368.68 1998.53 1302.38ZM2068.65 1005.30L2068.65 1005.30L2105.63 992.55Q2131.13 1035.90 2158.54 1088.81Q2185.95 1141.72 2201.25 1176.15L2201.25 1176.15L2164.28 1194Q2148.97 1157.03 2122.20 1103.47Q2095.43 1049.92 2068.65 1005.30Z"/>
  </svg>