<svg xmlns="http://www.w3.org/2000/svg" viewBox="0 0 3000 3000" width="3000" height="3000">
    <path fill="#000000" d="M529.72 2048.89L552.67 2048.89L1419.67 2019.56Q1454.10 2015.74 1454.10 1988.96L1454.10 1988.96Q1454.10 1974.94 1439.44 1959.64Q1424.77 1944.34 1408.20 1934.78Q1391.63 1925.21 1381.42 1925.21L1381.42 1925.21Q1375.05 1925.21 1371.22 1926.49L1371.22 1926.49Q1355.92 1931.59 1338.71 1934.78Q1321.50 1937.96 1306.20 1939.24L1306.20 1939.24L1056.30 1948.16L1060.13 1862.74L1271.77 1856.36Q1307.47 1852.54 1307.47 1828.31L1307.47 1828.31Q1307.47 1814.29 1289.62 1796.44L1289.62 1796.44Q1276.87 1782.41 1266.67 1777.31L1266.67 1777.31L1275.60 1643.44L1275.60 1639.61Q1275.60 1614.11 1254.56 1600.73Q1233.52 1587.34 1213.13 1583.51Q1192.72 1579.69 1187.63 1579.69L1187.63 1579.69Q1168.50 1579.69 1168.50 1596.26L1168.50 1596.26Q1168.50 1602.64 1173.60 1612.84L1173.60 1612.84Q1181.25 1628.14 1183.80 1642.16Q1186.35 1656.19 1186.35 1670.21L1186.35 1670.21L1186.35 1681.69L1179.97 1779.86L1173.60 1779.86Q1167.22 1781.14 1158.30 1781.14L1158.30 1781.14L1062.67 1782.41L1070.32 1601.36Q1070.32 1586.06 1053.75 1574.59Q1037.17 1563.11 1018.69 1558.01Q1000.20 1552.91 988.72 1552.91L988.72 1552.91Q968.32 1552.91 968.32 1569.49L968.32 1569.49Q968.32 1575.86 970.87 1579.69L970.87 1579.69Q975.97 1593.71 976.61 1609.65Q977.25 1625.59 977.25 1643.44L977.25 1643.44L970.87 1950.71L889.27 1953.26L885.45 1611.56Q881.62 1589.89 862.50 1581.60Q843.37 1573.31 823.61 1570.76Q803.85 1568.21 798.75 1568.21L798.75 1568.21Q771.97 1568.21 771.97 1586.06L771.97 1586.06Q771.97 1593.71 779.62 1605.19L779.62 1605.19Q798.75 1630.69 798.75 1666.39L798.75 1666.39L800.02 1792.61L685.27 1800.26L696.75 1674.04L696.75 1668.94Q696.75 1647.26 678.26 1637.06Q659.77 1626.86 641.29 1623.04Q622.80 1619.21 613.87 1619.21L613.87 1619.21Q593.47 1619.21 593.47 1634.51L593.47 1634.51Q593.47 1640.89 598.57 1648.54L598.57 1648.54Q603.67 1661.29 606.22 1672.76Q608.77 1684.24 608.77 1695.71L608.77 1695.71Q608.77 1700.81 608.14 1705.28Q607.50 1709.74 607.50 1714.84L607.50 1714.84L607.50 1736.51Q606.22 1756.91 604.31 1781.78Q602.40 1806.64 598.57 1820.66L598.57 1820.66Q597.30 1824.49 596.66 1828.31Q596.02 1832.14 596.02 1835.96L596.02 1835.96Q596.02 1856.36 613.87 1872.30Q631.72 1888.24 645.75 1888.24L645.75 1888.24Q655.95 1888.24 666.79 1883.78Q677.62 1879.31 698.02 1878.04L698.02 1878.04L800.02 1871.66L801.30 1955.81L545.02 1964.74Q538.65 1964.74 532.91 1965.38Q527.17 1966.01 520.80 1966.01L520.80 1966.01Q506.77 1966.01 494.02 1964.10Q481.27 1962.19 467.25 1959.64L467.25 1959.64Q465.97 1959.64 464.70 1959Q463.42 1958.36 459.60 1958.36L459.60 1958.36Q446.85 1958.36 446.85 1971.11L446.85 1971.11Q446.85 1976.21 448.12 1980.04L448.12 1980.04Q459.60 2022.11 478.72 2035.50Q497.85 2048.89 529.72 2048.89L529.72 2048.89ZM1215.67 1531.24L1215.67 1531.24L1232.25 1528.69Q1255.20 1519.76 1255.20 1501.91L1255.20 1501.91Q1255.20 1494.26 1246.27 1481.51Q1237.35 1468.76 1223.96 1457.93Q1210.57 1447.09 1195.27 1447.09L1195.27 1447.09Q1187.63 1447.09 1182.52 1448.36L1182.52 1448.36Q1158.30 1456.01 1111.13 1463.66Q1063.95 1471.31 969.60 1471.31L969.60 1471.31Q904.57 1471.31 887.36 1466.21Q870.15 1461.11 870.15 1443.26L870.15 1443.26L870.15 1416.49L1151.92 1393.54Q1162.13 1392.26 1171.69 1387.16Q1181.25 1382.06 1181.25 1369.31L1181.25 1369.31Q1181.25 1354.01 1160.21 1334.25Q1139.17 1314.49 1118.77 1314.49L1118.77 1314.49Q1109.85 1314.49 1099.65 1319.59L1099.65 1319.59Q1083.07 1327.24 1060.13 1328.51L1060.13 1328.51L870.15 1343.81L870.15 1303.01Q870.15 1282.61 849.75 1272.41L849.75 1272.41Q835.72 1264.76 821.70 1260.94L821.70 1260.94L1288.35 1240.54Q1255.20 1292.81 1206.75 1342.54L1206.75 1342.54Q1186.35 1362.94 1186.35 1378.24L1186.35 1378.24Q1186.35 1394.81 1204.20 1394.81L1204.20 1394.81Q1218.22 1394.81 1243.09 1379.51Q1267.95 1364.21 1297.27 1341.90Q1326.60 1319.59 1353.38 1294.72Q1380.15 1269.86 1398.64 1248.83Q1417.13 1227.79 1417.13 1217.59L1417.13 1217.59Q1417.13 1195.91 1390.35 1177.42Q1363.57 1158.94 1339.35 1158.94L1339.35 1158.94L1327.88 1158.94L903.30 1178.06L904.57 1114.31L1225.88 1093.91Q1242.45 1092.64 1253.92 1086.90Q1265.40 1081.16 1265.40 1068.41L1265.40 1068.41Q1265.40 1054.39 1251.37 1041.64Q1237.35 1028.89 1221.41 1019.33Q1205.47 1009.76 1195.27 1009.76L1195.27 1009.76Q1190.17 1009.76 1181.25 1012.31L1181.25 1012.31Q1171.05 1016.14 1161.49 1017.41Q1151.92 1018.69 1140.45 1019.96L1140.45 1019.96L905.85 1035.26L907.12 963.86Q907.12 940.91 888.64 928.80Q870.15 916.69 849.11 912.86Q828.07 909.04 815.32 909.04L815.32 909.04Q791.10 909.04 791.10 924.34L791.10 924.34Q791.10 929.44 796.20 937.09L796.20 937.09Q806.40 951.11 810.22 961.95Q814.05 972.79 814.05 989.36L814.05 989.36L814.05 1181.89L565.42 1193.36Q523.35 1172.96 499.76 1164.67Q476.17 1156.39 464.70 1156.39L464.70 1156.39Q449.40 1156.39 449.40 1171.69L449.40 1171.69Q449.40 1179.34 453.22 1190.81L453.22 1190.81Q459.60 1206.11 462.15 1229.06Q464.70 1252.01 464.70 1274.96L464.70 1274.96Q464.70 1394.81 455.14 1517.85Q445.57 1640.89 408.60 1766.48Q371.62 1892.06 286.20 2020.84L286.20 2020.84Q265.80 2050.16 265.80 2065.46L265.80 2065.46Q265.80 2082.04 281.10 2082.04L281.10 2082.04Q293.85 2082.04 314.25 2065.46L314.25 2065.46Q386.92 1994.06 434.10 1920.11Q481.27 1846.16 509.96 1755.64Q538.65 1665.11 551.40 1545.90Q564.15 1426.69 565.42 1272.41L565.42 1272.41L761.77 1263.49Q760.50 1266.04 760.50 1268.59L760.50 1268.59Q760.50 1276.24 766.87 1285.16L766.87 1285.16Q775.80 1295.36 780.26 1306.84Q784.72 1318.31 784.72 1331.06L784.72 1331.06L784.72 1350.19L643.20 1362.94L634.27 1362.94Q625.35 1362.94 614.51 1361.03Q603.67 1359.11 592.20 1357.84L592.20 1357.84L590.92 1356.56Q589.65 1356.56 587.10 1356.56L587.10 1356.56Q573.07 1356.56 573.07 1370.59L573.07 1370.59Q573.07 1376.96 574.35 1382.06L574.35 1382.06Q582.00 1399.91 592.20 1411.39L592.20 1411.39Q607.50 1426.69 618.34 1430.51Q629.17 1434.34 644.47 1434.34L644.47 1434.34Q649.57 1434.34 655.31 1434.34Q661.05 1434.34 666.15 1433.06L666.15 1433.06L783.45 1424.14L783.45 1450.91Q783.45 1543.99 889.27 1546.54L889.27 1546.54Q903.30 1546.54 916.69 1547.18Q930.07 1547.81 944.10 1547.81L944.10 1547.81Q1002.75 1547.81 1066.50 1543.99Q1130.25 1540.16 1215.67 1531.24ZM1664.47 2053.99L1691.25 2053.99L2678.10 2023.39Q2692.13 2022.11 2702.96 2016.38Q2713.80 2010.64 2713.80 1996.61L2713.80 1996.61Q2713.80 1981.31 2699.14 1964.74Q2684.48 1948.16 2666.63 1936.69Q2648.78 1925.21 2637.30 1925.21L2637.30 1925.21Q2630.93 1925.21 2627.10 1926.49L2627.10 1926.49Q2613.07 1931.59 2601.60 1934.14Q2590.13 1936.69 2577.38 1936.69L2577.38 1936.69L2177.03 1948.16L2177.03 1739.06L2456.25 1727.59L2458.80 1727.59Q2471.55 1726.31 2481.75 1719.94Q2491.95 1713.56 2491.95 1700.81Q2491.95 1688.06 2478.56 1672.76Q2465.18 1657.46 2448.60 1644.71Q2432.03 1631.96 2418 1631.96L2418 1631.96Q2410.35 1631.96 2406.53 1634.51L2406.53 1634.51Q2393.78 1638.34 2381.66 1640.25Q2369.55 1642.16 2358.07 1643.44L2358.07 1643.44L1868.47 1665.11L1858.28 1665.11Q1836.60 1665.11 1809.83 1658.74L1809.83 1658.74Q1804.72 1657.46 1798.35 1657.46L1798.35 1657.46Q1783.05 1657.46 1783.05 1672.76L1783.05 1672.76Q1783.05 1682.96 1790.70 1702.09Q1798.35 1721.21 1825.13 1744.16L1825.13 1744.16Q1835.33 1751.81 1860.83 1751.81L1860.83 1751.81Q1867.20 1751.81 1876.13 1751.18Q1885.05 1750.54 1895.25 1750.54L1895.25 1750.54L2077.57 1742.89L2080.13 1950.71L1664.47 1962.19L1654.28 1962.19Q1623.67 1962.19 1600.72 1953.26L1600.72 1953.26Q1596.90 1951.99 1590.53 1951.99L1590.53 1951.99Q1573.95 1951.99 1573.95 1969.84L1573.95 1969.84Q1573.95 1976.21 1575.22 1980.04L1575.22 1980.04Q1580.33 1995.34 1587.97 2009.36L1587.97 2009.36Q1599.45 2029.76 1621.13 2046.34L1621.13 2046.34Q1632.60 2053.99 1664.47 2053.99L1664.47 2053.99ZM1980.68 1282.61L1980.68 1282.61Q1980.68 1291.54 1971.11 1318.31Q1961.55 1345.09 1932.22 1386.53Q1902.90 1427.96 1847.44 1478.96Q1791.97 1529.96 1698.90 1584.79L1698.90 1584.79Q1673.40 1601.36 1673.40 1615.39L1673.40 1615.39Q1673.40 1631.96 1695.08 1631.96L1695.08 1631.96Q1697.63 1631.96 1723.76 1624.95Q1749.90 1617.94 1792.61 1599.45Q1835.33 1580.96 1885.69 1549.09Q1936.05 1517.21 1987.05 1468.13Q2038.05 1419.04 2078.85 1347.64L2078.85 1347.64Q2081.40 1343.81 2083.31 1339.35Q2085.22 1334.89 2085.22 1329.79L2085.22 1329.79Q2085.22 1317.04 2070.56 1299.19Q2055.90 1281.34 2036.78 1267.31Q2017.65 1253.29 1999.80 1253.29Q1981.95 1253.29 1981.95 1273.69L1981.95 1273.69Q1981.95 1278.79 1980.68 1282.61ZM2277.75 1427.96L2277.75 1427.96L2277.75 1421.59L2281.57 1294.09Q2281.57 1272.41 2259.26 1261.58Q2236.95 1250.74 2215.28 1246.28Q2193.60 1241.81 2187.22 1241.81L2187.22 1241.81Q2164.28 1241.81 2164.28 1258.39L2164.28 1258.39Q2164.28 1266.04 2171.93 1277.51Q2179.57 1288.99 2180.85 1301.10Q2182.13 1313.21 2182.13 1325.96L2182.13 1325.96L2180.85 1434.34L2180.85 1439.44Q2180.85 1496.81 2208.26 1528.05Q2235.68 1559.29 2298.15 1561.84L2298.15 1561.84Q2308.35 1561.84 2317.91 1562.47Q2327.48 1563.11 2337.68 1563.11L2337.68 1563.11Q2395.05 1563.11 2452.43 1556.74Q2509.80 1550.36 2565.90 1541.44L2565.90 1541.44Q2595.23 1536.34 2595.23 1510.84L2595.23 1510.84Q2595.23 1492.99 2580.56 1477.69Q2565.90 1462.39 2549.32 1453.46Q2532.75 1444.54 2523.83 1444.54L2523.83 1444.54Q2518.73 1444.54 2511.08 1448.36L2511.08 1448.36Q2488.13 1458.56 2456.25 1464.30Q2424.38 1470.04 2395.69 1471.95Q2367 1473.86 2351.70 1473.86L2351.70 1473.86Q2344.05 1473.86 2336.40 1473.22Q2328.75 1472.59 2319.82 1472.59L2319.82 1472.59Q2294.32 1470.04 2286.04 1460.47Q2277.75 1450.91 2277.75 1427.96ZM1783.05 1255.84L1783.05 1255.84L2567.18 1203.56Q2553.15 1235.44 2530.20 1278.79Q2507.25 1322.14 2479.20 1366.76L2479.20 1366.76Q2465.18 1388.44 2465.18 1403.74L2465.18 1403.74Q2465.18 1420.31 2480.48 1420.31L2480.48 1420.31Q2498.33 1420.31 2542.95 1376.96Q2587.57 1333.61 2667.90 1217.59L2667.90 1217.59Q2671.73 1212.49 2681.93 1201.65Q2692.13 1190.81 2692.13 1174.24L2692.13 1174.24Q2692.13 1147.46 2668.54 1130.25Q2644.95 1113.04 2628.38 1113.04L2628.38 1113.04Q2624.55 1113.04 2620.73 1113.67Q2616.90 1114.31 2613.07 1114.31L2613.07 1114.31L2189.78 1143.64L2191.05 994.46Q2191.05 974.06 2183.40 963.23Q2175.75 952.39 2143.88 942.19Q2112 931.99 2095.43 931.99L2095.43 931.99Q2068.65 931.99 2068.65 951.11L2068.65 951.11Q2068.65 961.31 2076.30 972.79L2076.30 972.79Q2085.22 988.09 2088.41 1000.20Q2091.60 1012.31 2091.60 1022.51L2091.60 1022.51L2092.88 1150.01L1804.72 1169.14Q1807.28 1160.21 1810.46 1143Q1813.65 1125.79 1813.65 1114.31L1813.65 1114.31Q1813.65 1107.94 1806 1092Q1798.35 1076.06 1755 1076.06L1755 1076.06Q1738.42 1076.06 1731.41 1085.63Q1724.40 1095.19 1721.85 1111.76L1721.85 1111.76Q1709.10 1178.06 1682.96 1255.84Q1656.83 1333.61 1621.13 1398.64L1621.13 1398.64Q1613.47 1410.11 1613.47 1420.31L1613.47 1420.31Q1613.47 1436.89 1628.78 1447.72Q1644.08 1458.56 1658.74 1464.30Q1673.40 1470.04 1675.95 1470.04L1675.95 1470.04Q1693.80 1470.04 1706.55 1445.81L1706.55 1445.81Q1730.78 1397.36 1750.54 1347.64Q1770.30 1297.91 1783.05 1255.84Z"/>
  </svg>