<svg xmlns="http://www.w3.org/2000/svg" viewBox="0 0 3000 3000" width="3000" height="3000">
    <path fill="#000000" d="M473.62 1283.25L472.35 1227.15Q468.52 1160.85 462.79 1145.55Q457.05 1130.25 457.05 1123.24Q457.05 1116.22 471.07 1116.22Q485.10 1116.22 564.15 1153.20L564.15 1153.20L821.70 1141.72L821.70 945.38Q821.70 916.05 802.57 889.28L802.57 889.28Q798.75 882.90 798.75 880.35L798.75 880.35Q798.75 872.70 809.59 872.70Q820.42 872.70 842.10 877.80L842.10 877.80Q904.57 890.55 904.57 919.88L904.57 919.88L903.30 992.55L1140.45 977.25Q1169.77 974.70 1180.61 970.88Q1191.45 967.05 1197.19 967.05Q1202.92 967.05 1216.95 975.98L1216.95 975.98Q1257.75 1000.20 1257.75 1018.05L1257.75 1018.05Q1257.75 1033.35 1225.88 1035.90L1225.88 1035.90L902.02 1056.30L900.75 1137.90L1327.88 1118.78L1341.90 1118.78Q1367.40 1118.78 1387.16 1138.54Q1406.92 1158.30 1406.92 1168.50Q1406.92 1178.70 1390.35 1196.55L1390.35 1196.55Q1358.47 1234.80 1298.55 1284.53Q1238.63 1334.25 1222.05 1334.25Q1205.47 1334.25 1205.47 1324.05L1205.47 1324.05Q1205.47 1310.03 1227.15 1285.80L1227.15 1285.80Q1275.60 1236.08 1302.37 1185.08L1302.37 1185.08L557.77 1216.95Q557.77 1457.93 531.00 1589.25Q504.22 1720.58 457.05 1823.21Q409.87 1925.85 327.00 2016.38L327.00 2016.38Q321.90 2021.48 320.62 2024.03L320.62 2024.03Q297.67 2045.70 286.84 2045.70Q276.00 2045.70 276.00 2032.31Q276.00 2018.93 295.12 1990.88L295.12 1990.88Q473.62 1719.30 473.62 1283.25L473.62 1283.25ZM593.47 1339.35L593.47 1339.35L620.25 1344.45Q630.45 1345.72 640.65 1345.72L640.65 1345.72L649.57 1345.72L800.02 1332.97L800.02 1293.45Q800.02 1267.95 783.45 1242.45L783.45 1242.45Q779.62 1234.80 779.62 1228.43Q779.62 1222.05 789.82 1222.05Q800.02 1222.05 819.15 1224.60L819.15 1224.60Q875.25 1234.80 875.25 1267.95L875.25 1267.95L875.25 1326.60L1067.77 1310.03Q1092 1308.75 1105.39 1302.38Q1118.77 1296 1125.15 1296Q1131.52 1296 1145.55 1304.93L1145.55 1304.93Q1183.80 1329.15 1183.80 1348.28L1183.80 1348.28Q1183.80 1362.30 1158.30 1366.13L1158.30 1366.13L875.25 1390.35L875.25 1434.97Q875.25 1459.20 895.65 1464.94Q916.05 1470.68 990.64 1470.68Q1065.22 1470.68 1112.40 1464.30Q1159.57 1457.93 1178.06 1452.19Q1196.55 1446.45 1208.02 1446.45Q1219.50 1446.45 1238.63 1464.94Q1257.75 1483.43 1257.75 1498.72L1257.75 1498.72Q1257.75 1519.13 1222.05 1522.95L1222.05 1522.95Q1080.52 1539.53 951.75 1539.53L951.75 1539.53L896.92 1538.25Q798.75 1535.70 798.75 1447.72L798.75 1447.72L798.75 1396.72L671.25 1406.93Q666.15 1408.20 661.05 1408.20L661.05 1408.20L643.20 1408.20Q608.77 1408.20 592.20 1362.30L592.20 1362.30Q587.10 1350.83 587.10 1345.09Q587.10 1339.35 593.47 1339.35ZM806.40 1590.53L806.40 1590.53Q891.82 1590.53 891.82 1628.78L891.82 1628.78L895.65 1933.50L988.72 1930.95L1000.20 1656.83L1000.20 1645.35Q1000.20 1616.03 993.19 1599.45Q986.17 1582.88 986.17 1579.05L986.17 1579.05Q986.17 1568.85 998.92 1568.85Q1011.67 1568.85 1030.80 1575.23L1030.80 1575.23Q1081.80 1591.80 1081.80 1617.30L1081.80 1617.30L1081.80 1619.85L1062.67 1928.40L1336.80 1919.48Q1371.22 1916.93 1389.07 1911.19Q1406.92 1905.45 1413.30 1905.45Q1419.67 1905.45 1434.97 1915.65L1434.97 1915.65Q1477.05 1941.15 1477.05 1961.55Q1477.05 1981.95 1450.27 1984.50L1450.27 1984.50L542.47 2013.83L519.52 2013.83Q490.20 2013.83 472.99 2001.71Q455.77 1989.60 445.57 1950.08L445.57 1950.08Q444.30 1947.53 444.30 1943.06Q444.30 1938.60 449.40 1938.60L449.40 1938.60Q487.65 1946.25 510.60 1946.25L510.60 1946.25L534.82 1944.98L819.15 1936.05L816.60 1682.33Q816.60 1642.80 796.20 1616.03L796.20 1616.03Q791.10 1609.65 791.10 1603.28L791.10 1603.28Q791.10 1590.53 806.40 1590.53ZM1242.45 1621.13L1242.45 1621.13Q1262.85 1621.13 1298.55 1660.65L1298.55 1660.65Q1311.30 1675.95 1311.30 1686.15Q1311.30 1696.35 1285.16 1732.05Q1259.02 1767.75 1196.55 1821.30L1196.55 1821.30Q1131.52 1881.23 1108.57 1881.23L1108.57 1881.23Q1099.65 1881.23 1099.65 1871.66Q1099.65 1862.10 1111.13 1847.44Q1122.60 1832.78 1140.45 1810.46Q1158.30 1788.15 1177.42 1757.55L1177.42 1757.55Q1223.32 1687.43 1229.70 1636.43L1229.70 1636.43Q1232.25 1621.13 1242.45 1621.13ZM696.75 1864.65L696.75 1864.65Q658.50 1785.60 601.12 1710.38L601.12 1710.38Q594.75 1700.18 594.75 1689.34Q594.75 1678.50 610.69 1665.75Q626.62 1653 636.82 1653Q647.02 1653 662.96 1670.85Q678.90 1688.70 698.02 1714.84Q717.15 1740.98 734.36 1768.39Q751.57 1795.80 762.41 1816.20Q773.25 1836.60 773.25 1844.25Q773.25 1851.90 754.12 1867.84Q735.00 1883.78 720.97 1883.78Q706.95 1883.78 696.75 1864.65ZM2491.95 1507.65L2491.95 1507.65Q2344.05 1381.43 2219.10 1307.47L2219.10 1307.47Q2205.07 1299.83 2205.07 1292.81Q2205.07 1285.80 2208.90 1275.60L2208.90 1275.60Q2217.82 1243.72 2238.22 1243.72L2238.22 1243.72Q2244.60 1243.72 2287.95 1266.68L2287.95 1266.68Q2402.70 1325.33 2537.85 1429.88L2537.85 1429.88Q2553.15 1441.35 2553.15 1457.93Q2553.15 1474.50 2535.94 1494.26Q2518.73 1514.03 2509.80 1514.03Q2500.88 1514.03 2491.95 1507.65ZM2013.83 1339.35L2013.83 1339.35Q1930.95 1419.67 1855.09 1466.21Q1779.22 1512.75 1727.59 1532.51Q1675.95 1552.28 1663.20 1552.28Q1650.45 1552.28 1650.45 1543.99Q1650.45 1535.70 1670.85 1521.68L1670.85 1521.68Q1827.67 1419.67 1914.38 1313.85L1914.38 1313.85Q1936.05 1288.35 1936.05 1262.85Q1936.05 1237.35 1949.44 1237.35Q1962.83 1237.35 1980.68 1253.93Q1998.53 1270.50 2011.91 1290.26Q2025.30 1310.03 2025.30 1318.95Q2025.30 1327.88 2013.83 1339.35ZM2484.30 1602L2484.30 1602Q2484.30 1617.30 2458.80 1621.13L2458.80 1621.13L2456.25 1621.13L2169.38 1632.60L2169.38 1908L2577.38 1896.53Q2601.60 1896.53 2616.90 1890.79Q2632.20 1885.05 2639.21 1885.05Q2646.23 1885.05 2662.80 1895.25L2662.80 1895.25Q2706.15 1924.58 2706.15 1948.80L2706.15 1948.80Q2706.15 1965.38 2678.10 1967.93L2678.10 1967.93L1691.25 1998.53L1664.47 1998.53Q1635.15 1998.53 1624.95 1992.15L1624.95 1992.15Q1595.63 1969.20 1582.88 1929.68L1582.88 1929.68Q1581.60 1927.13 1581.60 1919.48Q1581.60 1911.83 1588.61 1911.83Q1595.63 1911.83 1609.01 1916.93Q1622.40 1922.03 1654.28 1922.03L1654.28 1922.03L1664.47 1922.03L2087.78 1910.55L2085.22 1636.43L1895.25 1644.08L1860.83 1645.35Q1837.88 1645.35 1830.22 1638.98L1830.22 1638.98Q1790.70 1605.83 1790.70 1573.95L1790.70 1573.95Q1790.70 1566.30 1797.08 1566.30Q1803.45 1566.30 1819.39 1570.13Q1835.33 1573.95 1858.28 1573.95L1858.28 1573.95L1868.47 1573.95L2358.07 1552.28Q2392.50 1548.45 2402.06 1544.63Q2411.63 1540.80 2420.55 1540.80Q2429.48 1540.80 2444.78 1552.28L2444.78 1552.28Q2484.30 1581.60 2484.30 1602ZM2182.13 1103.47L2613.07 1074.15L2628.38 1072.88Q2642.40 1072.88 2663.44 1088.17Q2684.48 1103.47 2684.48 1121.96Q2684.48 1140.45 2674.91 1150.01Q2665.35 1159.58 2661.53 1164.67L2661.53 1164.67Q2581.20 1280.70 2538.49 1322.78Q2495.78 1364.85 2484.30 1364.85Q2472.82 1364.85 2472.82 1355.93L2472.82 1355.93Q2472.82 1343.18 2507.25 1288.99Q2541.68 1234.80 2578.65 1146.83L2578.65 1146.83L1776.67 1200.38Q1744.80 1306.20 1700.17 1394.18L1700.17 1394.18Q1688.70 1414.58 1675.95 1414.58L1675.95 1414.58Q1674.67 1414.58 1660.65 1409.47L1660.65 1409.47Q1621.13 1394.18 1621.13 1372.50L1621.13 1372.50Q1621.13 1364.85 1642.80 1326.60Q1664.47 1288.35 1690.61 1210.58Q1716.75 1132.80 1724.40 1091.36Q1732.05 1049.92 1737.15 1042.91Q1742.25 1035.90 1767.75 1035.90Q1793.25 1035.90 1799.63 1048.65Q1806 1061.40 1806 1074.15Q1806 1086.90 1794.53 1130.25L1794.53 1130.25L2100.53 1109.85L2099.25 974.70Q2099.25 947.92 2087.78 929.44Q2076.30 910.95 2076.30 903.30L2076.30 903.30Q2076.30 891.83 2093.51 891.83Q2110.72 891.83 2140.69 901.39Q2170.65 910.95 2177.03 919.88Q2183.40 928.80 2183.40 946.65L2183.40 946.65L2182.13 1103.47Z"/>
  </svg>