<svg xmlns="http://www.w3.org/2000/svg" viewBox="0 0 3000 3000" width="3000" height="3000">
    <path fill="#000000" d="M746 1238L746 1238L746 1200Q746 1188 744 1174L744 1174L718 880Q714 820 694 788Q674 756 674 739Q674 722 709 722Q744 722 836 760L836 760L1226 728L1242 728Q1286 728 1310 751Q1334 774 1334 789Q1334 804 1328 812Q1322 820 1320 830L1320 830L1278 1138Q1322 1188 1322 1205Q1322 1222 1306 1227Q1290 1232 1268 1234L1268 1234L1108 1246L1106 1486L1162 1482Q1202 1478 1222 1471Q1242 1464 1254 1464Q1266 1464 1290 1478L1290 1478Q1348 1514 1348 1548L1348 1548Q1348 1574 1304 1578L1304 1578L1104 1590L1100 1992Q1168 1970 1236 1948Q1304 1926 1347 1910Q1390 1894 1407 1894Q1424 1894 1424 1912L1424 1912Q1424 1944 1247 2028Q1070 2112 889 2180Q708 2248 681 2248Q654 2248 626 2225Q598 2202 578 2175Q558 2148 558 2134L558 2134Q558 2126 604 2121Q650 2116 700 2104L700 2104L730 2096L714 1530Q710 1484 695 1460Q680 1436 680 1426L680 1426Q680 1410 702 1410Q724 1410 754 1418L754 1418Q834 1436 834 1474L834 1474L842 2068Q876 2058 911 2049Q946 2040 980 2030L980 2030L986 1254L868 1264L872 1304L872 1312Q872 1350 842 1350L842 1350Q802 1350 772 1326Q742 1302 744 1273Q746 1244 746 1238ZM1162 1138L1190 836L836 864L860 1162L1162 1138ZM1758 882L1758 882Q1506 942 1428 942L1428 942Q1402 942 1402 924Q1402 906 1481 880Q1560 854 1662 814L1662 814Q1898 726 2028 650L2028 650Q2062 632 2078 597Q2094 562 2107 562Q2120 562 2144 588L2144 588Q2208 662 2208 710L2208 710Q2208 728 2192 738L2192 738Q2050 796 1896 842L1896 842Q1884 1104 1862 1274L1862 1274L2150 1258Q2214 1254 2233 1246Q2252 1238 2265 1238Q2278 1238 2304 1256Q2330 1274 2351 1298Q2372 1322 2372 1338L2372 1338Q2372 1360 2322 1364L2322 1364L1898 1388Q1998 1644 2131 1860Q2264 2076 2458 2248L2458 2248Q2480 2266 2480 2280Q2480 2294 2458 2312L2458 2312Q2400 2354 2378 2354Q2356 2354 2340 2338L2340 2338Q2176 2166 2053 1961Q1930 1756 1824 1496L1824 1496Q1750 1846 1544 2078L1544 2078Q1396 2248 1246 2324L1246 2324Q1192 2352 1188 2352L1188 2352Q1172 2352 1172 2335Q1172 2318 1206 2286L1206 2286Q1568 1964 1670 1584L1670 1584Q1698 1484 1714 1398L1714 1398L1518 1408Q1482 1412 1442 1412Q1402 1412 1384 1396L1384 1396Q1346 1360 1334 1333Q1322 1306 1322 1298Q1322 1290 1333 1290Q1344 1290 1367 1296Q1390 1302 1434 1302L1434 1302L1730 1284Q1754 1074 1758 882Z"/>
  </svg>