<svg xmlns="http://www.w3.org/2000/svg" viewBox="0 0 3000 3000" width="3000" height="3000">
    <path fill="#000000" d="M1148 866L746 866L746 1304L1148 1304L1148 866ZM686 1362L686 808L1206 808L1206 1362L686 1362ZM924 2270L924 1326L982 1326L982 2270L924 2270ZM692 2332L692 1610L752 1610L752 2332L692 2332ZM620 2398L602 2338Q724 2304 894 2251Q1064 2198 1246 2142L1246 2142L1254 2200Q1084 2252 917 2304Q750 2356 620 2398L620 2398ZM942 1766L942 1708L1234 1708L1234 1766L942 1766ZM1444 1910L1444 1850L2318 1850L2318 1910L1444 1910ZM1444 2160L1444 2102L2318 2102L2318 2160L1444 2160ZM1450 2416L1450 2358L2386 2358L2386 2416L1450 2416ZM1538 1398L1538 1398L1598 1416Q1560 1508 1506 1607Q1452 1706 1387 1799Q1322 1892 1252 1966L1252 1966Q1246 1962 1237 1955Q1228 1948 1219 1942Q1210 1936 1202 1932L1202 1932Q1274 1860 1338 1770Q1402 1680 1454 1583Q1506 1486 1538 1398ZM1472 1602L1474 1602L2364 1602L2364 1660L1474 1660L1474 2508L1416 2508L1416 1662L1472 1602ZM1870 2390L1870 1620L1930 1620L1930 2390L1870 2390ZM1788 1428L1788 1428L1840 1410Q1874 1460 1906 1519Q1938 1578 1952 1620L1952 1620L1896 1644Q1882 1600 1852 1539Q1822 1478 1788 1428ZM1372 1320L1332 1274Q1400 1240 1491 1191Q1582 1142 1680 1090L1680 1090L1696 1136Q1612 1186 1529 1233Q1446 1280 1372 1320L1372 1320ZM1364 930L1364 930L1402 898Q1460 924 1525 961Q1590 998 1630 1026L1630 1026L1592 1062Q1554 1034 1489 996Q1424 958 1364 930ZM1746 1310L1746 762L1806 762L1806 1310Q1806 1338 1798 1354Q1790 1370 1762 1380L1762 1380Q1736 1388 1683 1390Q1630 1392 1544 1392L1544 1392Q1542 1380 1535 1364Q1528 1348 1520 1336L1520 1336Q1596 1338 1648 1338Q1700 1338 1718 1336L1718 1336Q1736 1334 1741 1329Q1746 1324 1746 1310L1746 1310ZM1316 822L1316 762L1776 762L1776 822L1316 822ZM1928 1296L1886 1250Q1950 1220 2038 1172Q2126 1124 2222 1072L2222 1072L2236 1122Q2158 1166 2079 1211Q2000 1256 1928 1296L1928 1296ZM1934 928L1934 928L1970 898Q2026 926 2088 965Q2150 1004 2188 1032L2188 1032L2150 1068Q2114 1040 2052 999Q1990 958 1934 928ZM2276 1324L2276 760L2334 760L2334 1324Q2334 1354 2326 1370Q2318 1386 2290 1396L2290 1396Q2264 1404 2212 1406Q2160 1408 2072 1408L2072 1408Q2070 1394 2063 1379Q2056 1364 2048 1350L2048 1350Q2124 1352 2177 1352Q2230 1352 2246 1350L2246 1350Q2276 1350 2276 1324L2276 1324ZM1866 820L1866 760L2300 760L2300 820L1866 820Z"/>
  </svg>