<svg xmlns="http://www.w3.org/2000/svg" viewBox="0 0 3000 3000" width="3000" height="3000">
    <path fill="#000000" d="M965.77 1312.57L965.77 1312.57Q968.32 1308.75 978.52 1308.75L978.52 1308.75Q986.17 1308.75 1010.40 1334.89Q1034.63 1361.03 1034.63 1369.95L1034.63 1369.95Q1034.63 1380.15 1046.10 1408.20L1046.10 1408.20Q1046.10 1409.47 1046.10 1410.75L1046.10 1410.75Q1053.75 1432.42 1067.77 1434.34Q1081.80 1436.25 1153.20 1429.88L1153.20 1429.88Q1160.85 1428.60 1163.40 1428.60L1163.40 1428.60Q1236.07 1420.95 1239.90 1420.95Q1243.72 1420.95 1264.12 1438.80L1264.12 1438.80Q1280.70 1454.10 1283.89 1468.13Q1287.07 1482.15 1276.87 1506.38L1276.87 1506.38Q1255.20 1562.47 1195.27 1530.60L1195.27 1530.60Q1171.05 1516.57 1121.32 1512.75L1121.32 1512.75Q1043.55 1505.10 1037.17 1520.40L1037.17 1520.40Q1034.63 1528.05 1042.27 1549.09Q1049.92 1570.13 1049.92 1580.96Q1049.92 1591.80 1085.63 1640.25L1085.63 1640.25Q1154.47 1735.88 1190.17 1765.84Q1225.88 1795.80 1325.32 1846.80L1325.32 1846.80Q1348.27 1859.55 1368.04 1874.85Q1387.80 1890.15 1394.17 1890.15L1394.17 1890.15Q1399.27 1890.15 1423.50 1915.01Q1447.72 1939.88 1447.72 1946.25L1447.72 1946.25Q1447.72 1952.63 1434.34 1957.72Q1420.95 1962.83 1401.82 1962.83L1401.82 1962.83Q1378.88 1961.55 1355.92 1968.56Q1332.97 1975.58 1312.57 1979.40Q1292.17 1983.22 1273.05 1993.42L1273.05 1993.42L1252.65 2002.35L1225.88 1989.60Q1172.32 1964.10 1114.95 1902.90Q1057.57 1841.70 1016.77 1762.65L1016.77 1762.65Q1001.47 1737.15 998.92 1737.15Q996.37 1737.15 986.17 1753.72L986.17 1753.72Q973.42 1775.40 946.65 1807.28Q919.87 1839.15 914.77 1839.15L914.77 1839.15Q910.95 1839.15 900.75 1848.08L900.75 1848.08Q865.05 1881.22 810.86 1913.10Q756.67 1944.97 713.32 1959L713.32 1959Q685.27 1967.92 680.17 1971.75L680.17 1971.75Q673.80 1978.13 640.01 1980.04Q606.22 1981.95 603.67 1978.13L603.67 1978.13Q601.12 1971.75 608.77 1967.92L608.77 1967.92Q618.97 1965.38 670.61 1934.14Q722.25 1902.90 741.37 1890.15L741.37 1890.15Q761.77 1876.13 787.27 1851.90Q812.77 1827.67 820.42 1822.58L820.42 1822.58Q839.55 1809.83 871.42 1751.17Q903.30 1692.53 910.95 1659.38L910.95 1659.38Q940.27 1522.95 928.80 1522.95L928.80 1522.95Q918.60 1522.95 895.01 1533.79Q871.42 1544.63 859.95 1553.55L859.95 1553.55Q840.82 1568.85 827.44 1570.76Q814.05 1572.67 794.92 1563.75L794.92 1563.75Q784.72 1558.65 779.62 1556.10Q774.52 1553.55 770.06 1553.55Q765.60 1553.55 764.96 1555.46Q764.32 1557.38 764.32 1563.75L764.32 1563.75Q764.32 1585.42 723.52 1590.53L723.52 1590.53Q689.10 1596.90 680.81 1604.55Q672.52 1612.20 669.97 1638.97L669.97 1638.97Q667.42 1673.40 664.24 1689.97Q661.05 1706.55 666.79 1706.55Q672.52 1706.55 726.07 1686.15L726.07 1686.15Q810.22 1654.28 820.42 1660.65L820.42 1660.65Q828.07 1665.75 819.15 1680.41Q810.22 1695.08 811.50 1700.17L811.50 1700.17Q814.05 1709.10 754.12 1756.28Q694.20 1803.45 680.17 1803.45L680.17 1803.45Q671.25 1803.45 657.86 1813.65Q644.47 1823.85 636.82 1823.85L636.82 1823.85Q629.17 1823.85 606.86 1834.69Q584.55 1845.53 573.07 1854.45L573.07 1854.45Q567.97 1858.28 516.97 1883.78L516.97 1883.78Q444.30 1923.30 421.35 1943.70L421.35 1943.70Q383.10 1981.95 327.00 1951.35L327.00 1951.35Q307.87 1941.15 291.94 1920.75Q276.00 1900.35 278.55 1890.15L278.55 1890.15Q279.82 1881.22 323.17 1860.83L323.17 1860.83Q395.85 1822.58 406.05 1814.92L406.05 1814.92Q407.32 1813.65 402.86 1806.64Q398.40 1799.63 395.21 1716.11Q392.02 1632.60 384.37 1591.80L384.37 1591.80Q378.00 1552.28 381.82 1527.41Q385.65 1502.55 400.95 1502.55L400.95 1502.55Q431.55 1502.55 448.12 1525.50Q464.70 1548.45 472.35 1602L472.35 1602Q476.17 1632.60 481.91 1645.99Q487.65 1659.38 491.47 1718.66Q495.30 1777.95 497.21 1777.95Q499.12 1777.95 520.80 1769.03L520.80 1769.03L542.47 1757.55L545.02 1689.97Q548.85 1622.40 543.75 1538.25L543.75 1538.25Q542.47 1478.32 543.75 1463.03Q545.02 1447.72 553.95 1432.42L553.95 1432.42Q566.70 1412.03 575.62 1409.47L575.62 1409.47Q596.02 1403.10 626.62 1422.86Q657.22 1442.63 657.22 1460.47L657.22 1460.47Q657.22 1480.88 661.05 1489.16Q664.87 1497.45 673.80 1496.17L673.80 1496.17Q685.27 1492.35 722.25 1485.97L722.25 1485.97L759.22 1479.60L770.70 1494.90L782.17 1507.65L820.42 1489.80Q859.95 1471.95 895.01 1463.66Q930.07 1455.38 936.45 1452.19Q942.82 1449 945.37 1405.65L945.37 1405.65Q950.47 1338.07 965.77 1312.57ZM1024.42 1076.70L1024.42 1076.70Q1035.90 1069.05 1039.72 1069.05Q1043.55 1069.05 1057.57 1074.15L1057.57 1074.15Q1081.80 1085.63 1105.39 1102.84Q1128.97 1120.05 1137.90 1132.80L1137.90 1132.80Q1145.55 1145.55 1144.27 1162.76Q1143 1179.97 1132.80 1192.72L1132.80 1192.72Q1123.88 1202.92 1037.81 1245.64Q951.75 1288.35 919.87 1298.55L919.87 1298.55Q884.17 1310.03 879.07 1313.85L879.07 1313.85Q867.60 1322.78 826.80 1326.60Q786.00 1330.42 782.17 1325.32L782.17 1325.32Q779.62 1320.22 819.15 1290.26Q858.67 1260.30 873.97 1247.55Q889.27 1234.80 910.95 1219.50L910.95 1219.50Q933.90 1201.65 966.41 1168.50Q998.92 1135.35 1005.30 1121.32L1005.30 1121.32Q1014.22 1104.75 1014.22 1094.55Q1014.22 1084.35 1024.42 1076.70ZM499.12 1080.52L499.12 1080.52Q531.00 1067.77 546.30 1066.50Q561.60 1065.22 612.60 1066.50L612.60 1066.50Q681.45 1067.77 716.51 1077.34Q751.57 1086.90 774.52 1109.85L774.52 1109.85Q788.55 1125.15 795.56 1143Q802.57 1160.85 796.20 1165.95L796.20 1165.95Q791.10 1169.77 782.81 1184.44Q774.52 1199.10 774.52 1204.20L774.52 1204.20Q774.52 1210.57 766.87 1216.95Q759.22 1223.32 759.22 1234.16Q759.22 1245 736.27 1265.40Q713.32 1285.80 713.32 1298.55L713.32 1298.55Q713.32 1321.50 691.01 1335.53Q668.70 1349.55 633.00 1349.55L633.00 1349.55Q610.05 1349.55 573.07 1364.85L573.07 1364.85Q545.02 1376.32 539.92 1380.79Q534.82 1385.25 534.82 1398L534.82 1398Q534.82 1433.70 505.50 1418.40L505.50 1418.40Q492.75 1413.30 486.37 1401.19Q480.00 1389.07 468.52 1355.92L468.52 1355.92Q427.72 1230.97 427.72 1159.57L427.72 1159.57Q427.72 1134.07 429.64 1125.79Q431.55 1117.50 440.47 1108.57L440.47 1108.57Q455.77 1094.55 499.12 1080.52ZM639.37 1125.15L639.37 1125.15Q636.82 1120.05 587.74 1120.69Q538.65 1121.32 525.90 1126.42L525.90 1126.42Q510.60 1134.07 506.14 1142.36Q501.67 1150.65 496.57 1177.42L496.57 1177.42Q488.92 1208.02 496.57 1241.81Q504.22 1275.60 506.77 1287.07L506.77 1287.07L508.05 1297.28L542.47 1285.80Q576.90 1273.05 586.46 1273.05Q596.02 1273.05 608.77 1264.76Q621.52 1256.47 621.52 1237.35Q621.52 1218.22 631.72 1174.24Q641.92 1130.25 639.37 1125.15ZM1721.85 1190.17L1721.85 1190.17Q1730.78 1182.52 1730.78 1175.51Q1730.78 1168.50 1737.79 1168.50Q1744.80 1168.50 1750.54 1160.85Q1756.28 1153.20 1795.80 1160.85L1795.80 1160.85Q1835.33 1168.50 1853.17 1179.34Q1871.03 1190.17 1876.13 1211.85L1876.13 1211.85Q1888.88 1262.85 1840.42 1307.47L1840.42 1307.47Q1813.65 1332.97 1813.65 1338.07Q1813.65 1343.17 1808.55 1350.82Q1803.45 1358.47 1790.06 1343.17Q1776.67 1327.88 1776.67 1313.85Q1776.67 1299.82 1772.85 1296.64Q1769.03 1293.45 1765.84 1272.41Q1762.65 1251.38 1748.63 1237.35L1748.63 1237.35Q1724.40 1210.57 1720.58 1203.56Q1716.75 1196.55 1721.85 1190.17ZM2250.97 975.97L2250.97 975.97Q2262.45 963.22 2266.91 963.22Q2271.38 963.22 2301.34 993.82Q2331.30 1024.42 2335.13 1045.46Q2338.95 1066.50 2343.41 1089.45Q2347.88 1112.40 2351.70 1131.52L2351.70 1131.52Q2352.98 1145.55 2357.44 1148.74Q2361.90 1151.92 2382.30 1153.20L2382.30 1153.20Q2411.63 1158.30 2426.93 1172.32L2426.93 1172.32Q2447.32 1191.45 2442.23 1206.75L2442.23 1206.75Q2440.95 1209.30 2438.40 1209.30L2438.40 1209.30Q2432.03 1209.30 2432.03 1221.41Q2432.03 1233.53 2422.46 1248.82Q2412.90 1264.13 2381.03 1269.22L2381.03 1269.22L2351.70 1275.60L2347.88 1301.10Q2344.05 1327.88 2344.05 1359.75L2344.05 1359.75L2342.78 1394.17L2373.38 1391.63Q2402.70 1387.80 2411.63 1382.70Q2420.55 1377.60 2458.80 1377.60L2458.80 1377.60Q2518.73 1378.88 2544.23 1406.29Q2569.73 1433.70 2549.32 1477.05L2549.32 1477.05Q2541.68 1496.17 2523.83 1501.28Q2505.98 1506.38 2451.15 1501.28L2451.15 1501.28Q2346.60 1494.90 2340.23 1514.03L2340.23 1514.03Q2337.68 1524.22 2338.31 1604.55Q2338.95 1684.88 2338.31 1729.50Q2337.68 1774.13 2340.23 1806Q2342.78 1837.88 2335.13 1840.42Q2327.48 1842.97 2327.48 1853.17L2327.48 1853.17Q2327.48 1860.83 2311.54 1878.67Q2295.60 1896.53 2286.68 1896.53L2286.68 1896.53Q2275.20 1896.53 2259.26 1884.41Q2243.32 1872.30 2238.22 1860.83L2238.22 1860.83Q2233.13 1848.08 2233.13 1833.41Q2233.13 1818.75 2226.11 1800.90Q2219.10 1783.05 2222.93 1730.78L2222.93 1730.78Q2236.95 1561.20 2230.57 1530.60L2230.57 1530.60Q2226.75 1521.67 2223.56 1520.40Q2220.38 1519.13 2207.63 1520.40L2207.63 1520.40Q2128.57 1533.15 2120.93 1539.53L2120.93 1539.53Q2115.82 1545.90 2110.09 1583.51Q2104.35 1621.13 2092.88 1649.81Q2081.40 1678.50 2081.40 1684.88Q2081.40 1691.25 2063.55 1729.50Q2045.70 1767.75 2008.73 1804.72L2008.73 1804.72L1974.30 1842.97L2008.73 1855.72Q2117.10 1897.80 2228.03 1909.28L2228.03 1909.28Q2375.93 1923.30 2564.63 1924.58L2564.63 1924.58Q2636.03 1924.58 2662.16 1928.40Q2688.30 1932.22 2698.50 1941.15L2698.50 1941.15Q2706.15 1947.53 2704.88 1955.81Q2703.60 1964.10 2697.23 1964.10L2697.23 1964.10Q2689.57 1964.10 2689.57 1969.20Q2689.57 1974.30 2673.64 1980.04Q2657.70 1985.78 2657.70 1990.24Q2657.70 1994.70 2648.78 1997.25L2648.78 1997.25Q2618.18 2008.72 2569.09 2043.15Q2520 2077.57 2511.08 2095.43L2511.08 2095.43Q2507.25 2104.35 2495.14 2104.99Q2483.03 2105.63 2446.05 2100.53L2446.05 2100.53Q2414.18 2095.43 2350.43 2087.78L2350.43 2087.78Q2271.38 2077.57 2150.25 2039.96Q2029.13 2002.35 1955.18 1966.65L1955.18 1966.65Q1892.70 1936.05 1823.85 1919.47L1823.85 1919.47Q1790.70 1911.83 1774.13 1911.83Q1757.55 1911.83 1739.70 1922.03L1739.70 1922.03Q1721.85 1932.22 1705.91 1939.88Q1689.97 1947.53 1681.05 1967.92L1681.05 1967.92Q1669.58 1993.42 1664.47 1999.16Q1659.38 2004.90 1649.17 2008.72L1649.17 2008.72Q1640.25 2011.28 1635.15 2009.36Q1630.05 2007.45 1619.85 1997.25L1619.85 1997.25Q1604.55 1980.67 1599.45 1980.67Q1594.35 1980.67 1594.35 1974.30Q1594.35 1967.92 1584.15 1961.55L1584.15 1961.55Q1579.05 1956.45 1579.05 1953.90Q1579.05 1951.35 1584.15 1946.25L1584.15 1946.25Q1594.35 1937.33 1594.35 1925.85L1594.35 1925.85Q1594.35 1916.92 1613.47 1898.44Q1632.60 1879.95 1660.65 1860.83L1660.65 1860.83Q1687.42 1842.97 1696.99 1828.95Q1706.55 1814.92 1721.85 1794.53L1721.85 1794.53Q1732.05 1781.78 1732.69 1777.31Q1733.33 1772.85 1729.50 1766.47L1729.50 1766.47Q1687.42 1719.30 1687.42 1581.60L1687.42 1581.60Q1687.42 1519.13 1683.60 1519.13L1683.60 1519.13Q1674.67 1519.13 1651.72 1533.79Q1628.78 1548.45 1622.40 1558.65L1622.40 1558.65Q1613.47 1573.95 1600.09 1569.49Q1586.70 1565.03 1573.95 1542.07L1573.95 1542.07Q1567.58 1530.60 1570.13 1514.03L1570.13 1514.03Q1573.95 1503.82 1582.24 1495.54Q1590.53 1487.25 1618.58 1471.95L1618.58 1471.95Q1665.75 1446.45 1688.70 1437.53Q1711.65 1428.60 1716.75 1423.50L1716.75 1423.50Q1721.85 1418.40 1748.63 1419.04Q1775.40 1419.67 1783.05 1426.05L1783.05 1426.05Q1800.90 1441.35 1807.28 1482.15Q1813.65 1522.95 1799.63 1535.70L1799.63 1535.70Q1786.88 1545.90 1766.47 1576.50Q1746.08 1607.10 1746.08 1616.03L1746.08 1616.03Q1746.08 1627.50 1739.70 1632.60L1739.70 1632.60Q1730.78 1637.70 1740.34 1670.21Q1749.90 1702.72 1770.30 1721.85L1770.30 1721.85Q1828.95 1781.78 1828.95 1800.90L1828.95 1800.90Q1828.95 1812.38 1834.05 1814.92Q1839.15 1817.47 1865.92 1821.30L1865.92 1821.30Q1906.72 1828.95 1915.65 1827.67Q1924.58 1826.40 1924.58 1813.65L1924.58 1813.65Q1924.58 1799.63 1936.05 1786.88L1936.05 1786.88Q1961.55 1760.10 1995.34 1662.56Q2029.13 1565.03 2018.93 1556.10L2018.93 1556.10Q2015.10 1552.28 1990.24 1558.65Q1965.38 1565.03 1941.15 1576.50L1941.15 1576.50L1906.72 1593.07L1881.22 1575.22Q1857 1558.65 1857 1551Q1857 1543.35 1848.08 1534.42L1848.08 1534.42Q1825.13 1508.92 1900.35 1483.42L1900.35 1483.42Q1924.58 1474.50 1964.10 1465.57L1964.10 1465.57Q2029.13 1449 2034.86 1439.44Q2040.60 1429.88 2043.15 1371.22L2043.15 1371.22Q2045.70 1315.13 2038.05 1315.13L2038.05 1315.13Q2032.95 1313.85 2018.93 1322.78L2018.93 1322.78Q2007.45 1329.15 2002.99 1328.51Q1998.53 1327.88 1987.05 1317.67L1987.05 1317.67Q1961.55 1298.55 1952.63 1288.35Q1943.70 1278.15 1947.53 1269.22L1947.53 1269.22Q1950.08 1260.30 1950.08 1252.65L1950.08 1252.65Q1950.08 1248.82 1980.04 1232.25Q2010 1215.67 2030.40 1211.85L2030.40 1211.85L2044.43 1209.30L2044.43 1149.38Q2044.43 1109.85 2046.34 1098.38Q2048.25 1086.90 2054.63 1081.80L2054.63 1081.80Q2066.10 1071.60 2086.50 1079.25L2086.50 1079.25Q2112 1085.63 2133.68 1113.04Q2155.35 1140.45 2155.35 1165.95L2155.35 1165.95Q2155.35 1183.80 2156.63 1183.80L2156.63 1183.80Q2164.28 1183.80 2193.60 1176.79Q2222.93 1169.77 2225.47 1165.95L2225.47 1165.95Q2231.85 1162.13 2228.03 1092L2228.03 1092Q2226.75 1035.90 2231.21 1014.86Q2235.68 993.82 2250.97 975.97ZM2228.03 1340.63L2228.03 1340.63Q2228.03 1288.35 2223.56 1281.97Q2219.10 1275.60 2180.85 1284.53L2180.85 1284.53Q2159.18 1289.63 2154.71 1297.91Q2150.25 1306.20 2141.32 1366.13L2141.32 1366.13Q2133.68 1410.75 2137.50 1414.57L2137.50 1414.57Q2140.05 1417.13 2172.56 1413.30Q2205.07 1409.47 2221.65 1405.65L2221.65 1405.65Q2228.03 1404.38 2228.03 1340.63Z"/>
  </svg>