<svg xmlns="http://www.w3.org/2000/svg" viewBox="0 0 3000 3000" width="3000" height="3000">
    <path fill="#000000" d="M1662 1206L1662 1206Q1666 1200 1682 1200L1682 1200Q1694 1200 1732 1241Q1770 1282 1770 1296L1770 1296Q1770 1312 1788 1356L1788 1356Q1788 1358 1788 1360L1788 1360Q1800 1394 1822 1397Q1844 1400 1956 1390L1956 1390Q1968 1388 1972 1388L1972 1388Q2086 1376 2092 1376Q2098 1376 2130 1404L2130 1404Q2156 1428 2161 1450Q2166 1472 2150 1510L2150 1510Q2116 1598 2022 1548L2022 1548Q1984 1526 1906 1520L1906 1520Q1784 1508 1774 1532L1774 1532Q1770 1544 1782 1577Q1794 1610 1794 1627Q1794 1644 1850 1720L1850 1720Q1958 1870 2014 1917Q2070 1964 2226 2044L2226 2044Q2262 2064 2293 2088Q2324 2112 2334 2112L2334 2112Q2342 2112 2380 2151Q2418 2190 2418 2200L2418 2200Q2418 2210 2397 2218Q2376 2226 2346 2226L2346 2226Q2310 2224 2274 2235Q2238 2246 2206 2252Q2174 2258 2144 2274L2144 2274L2112 2288L2070 2268Q1986 2228 1896 2132Q1806 2036 1742 1912L1742 1912Q1718 1872 1714 1872Q1710 1872 1694 1898L1694 1898Q1674 1932 1632 1982Q1590 2032 1582 2032L1582 2032Q1576 2032 1560 2046L1560 2046Q1504 2098 1419 2148Q1334 2198 1266 2220L1266 2220Q1222 2234 1214 2240L1214 2240Q1204 2250 1151 2253Q1098 2256 1094 2250L1094 2250Q1090 2240 1102 2234L1102 2234Q1118 2230 1199 2181Q1280 2132 1310 2112L1310 2112Q1342 2090 1382 2052Q1422 2014 1434 2006L1434 2006Q1464 1986 1514 1894Q1564 1802 1576 1750L1576 1750Q1622 1536 1604 1536L1604 1536Q1588 1536 1551 1553Q1514 1570 1496 1584L1496 1584Q1466 1608 1445 1611Q1424 1614 1394 1600L1394 1600Q1378 1592 1370 1588Q1362 1584 1355 1584Q1348 1584 1347 1587Q1346 1590 1346 1600L1346 1600Q1346 1634 1282 1642L1282 1642Q1228 1652 1215 1664Q1202 1676 1198 1718L1198 1718Q1194 1772 1189 1798Q1184 1824 1193 1824Q1202 1824 1286 1792L1286 1792Q1418 1742 1434 1752L1434 1752Q1446 1760 1432 1783Q1418 1806 1420 1814L1420 1814Q1424 1828 1330 1902Q1236 1976 1214 1976L1214 1976Q1200 1976 1179 1992Q1158 2008 1146 2008L1146 2008Q1134 2008 1099 2025Q1064 2042 1046 2056L1046 2056Q1038 2062 958 2102L958 2102Q844 2164 808 2196L808 2196Q748 2256 660 2208L660 2208Q630 2192 605 2160Q580 2128 584 2112L584 2112Q586 2098 654 2066L654 2066Q768 2006 784 1994L784 1994Q786 1992 779 1981Q772 1970 767 1839Q762 1708 750 1644L750 1644Q740 1582 746 1543Q752 1504 776 1504L776 1504Q824 1504 850 1540Q876 1576 888 1660L888 1660Q894 1708 903 1729Q912 1750 918 1843Q924 1936 927 1936Q930 1936 964 1922L964 1922L998 1904L1002 1798Q1008 1692 1000 1560L1000 1560Q998 1466 1000 1442Q1002 1418 1016 1394L1016 1394Q1036 1362 1050 1358L1050 1358Q1082 1348 1130 1379Q1178 1410 1178 1438L1178 1438Q1178 1470 1184 1483Q1190 1496 1204 1494L1204 1494Q1222 1488 1280 1478L1280 1478L1338 1468L1356 1492L1374 1512L1434 1484Q1496 1456 1551 1443Q1606 1430 1616 1425Q1626 1420 1630 1352L1630 1352Q1638 1246 1662 1206ZM1754 836L1754 836Q1772 824 1778 824Q1784 824 1806 832L1806 832Q1844 850 1881 877Q1918 904 1932 924L1932 924Q1944 944 1942 971Q1940 998 1924 1018L1924 1018Q1910 1034 1775 1101Q1640 1168 1590 1184L1590 1184Q1534 1202 1526 1208L1526 1208Q1508 1222 1444 1228Q1380 1234 1374 1226L1374 1226Q1370 1218 1432 1171Q1494 1124 1518 1104Q1542 1084 1576 1060L1576 1060Q1612 1032 1663 980Q1714 928 1724 906L1724 906Q1738 880 1738 864Q1738 848 1754 836ZM930 842L930 842Q980 822 1004 820Q1028 818 1108 820L1108 820Q1216 822 1271 837Q1326 852 1362 888L1362 888Q1384 912 1395 940Q1406 968 1396 976L1396 976Q1388 982 1375 1005Q1362 1028 1362 1036L1362 1036Q1362 1046 1350 1056Q1338 1066 1338 1083Q1338 1100 1302 1132Q1266 1164 1266 1184L1266 1184Q1266 1220 1231 1242Q1196 1264 1140 1264L1140 1264Q1104 1264 1046 1288L1046 1288Q1002 1306 994 1313Q986 1320 986 1340L986 1340Q986 1396 940 1372L940 1372Q920 1364 910 1345Q900 1326 882 1274L882 1274Q818 1078 818 966L818 966Q818 926 821 913Q824 900 838 886L838 886Q862 864 930 842ZM1150 912L1150 912Q1146 904 1069 905Q992 906 972 914L972 914Q948 926 941 939Q934 952 926 994L926 994Q914 1042 926 1095Q938 1148 942 1166L942 1166L944 1182L998 1164Q1052 1144 1067 1144Q1082 1144 1102 1131Q1122 1118 1122 1088Q1122 1058 1138 989Q1154 920 1150 912Z"/>
  </svg>