<svg xmlns="http://www.w3.org/2000/svg" viewBox="0 0 3000 3000" width="3000" height="3000">
    <path fill="#000000" d="M765.60 1661.92L765.60 1661.92Q789.82 1658.10 850.39 1660.01Q910.95 1661.92 921.15 1664.47L921.15 1664.47Q928.80 1668.30 928.80 1672.13Q928.80 1675.95 942.82 1678.50L942.82 1678.50Q954.30 1682.33 964.50 1693.16Q974.70 1704 974.70 1712.92L974.70 1712.92Q974.70 1723.13 954.94 1746.08Q935.17 1769.03 927.52 1783.05L927.52 1783.05Q922.42 1791.97 923.70 1797.08Q924.97 1802.17 932.62 1811.10L932.62 1811.10Q944.10 1826.40 943.46 1834.69Q942.82 1842.97 927.52 1854.45L927.52 1854.45Q913.50 1867.20 898.84 1870.39Q884.17 1873.58 851.02 1873.58L851.02 1873.58Q824.25 1872.30 796.20 1878.67Q768.15 1885.05 768.15 1892.06Q768.15 1899.08 750.94 1906.09Q733.72 1913.10 726.07 1910.55L726.07 1910.55Q717.15 1908 717.15 1903.54Q717.15 1899.08 702.49 1880.59Q687.82 1862.10 677.62 1828.31Q667.42 1794.53 654.67 1769.03L654.67 1769.03Q638.10 1735.88 642.56 1709.10Q647.02 1682.33 667.42 1681.05L667.42 1681.05Q678.90 1681.05 706.95 1673.40Q735.00 1665.75 765.60 1661.92ZM853.57 1725.67L853.57 1725.67Q853.57 1723.13 808.95 1723.13L808.95 1723.13Q722.25 1724.40 717.15 1743.53L717.15 1743.53Q715.87 1751.17 731.17 1779.22L731.17 1779.22L745.20 1806L771.97 1806Q789.82 1806 796.84 1802.81Q803.85 1799.63 815.32 1785.60L815.32 1785.60Q826.80 1772.85 840.19 1751.81Q853.57 1730.78 853.57 1725.67ZM722.25 937.72L722.25 937.72Q741.37 931.35 805.12 950.47L805.12 950.47Q840.82 961.95 862.50 983.62L862.50 983.62Q877.80 1000.20 882.26 1011.04Q886.72 1021.87 891.82 1053.75L891.82 1053.75Q893.10 1069.05 896.92 1072.88Q900.75 1076.70 916.05 1077.97L916.05 1077.97Q937.72 1080.52 1035.90 1079.25L1035.90 1079.25L1135.35 1079.25L1154.47 1097.10L1172.32 1116.22L1159.57 1132.80Q1137.90 1160.85 1121.32 1163.40Q1104.75 1165.95 1032.07 1155.75L1032.07 1155.75Q990.00 1149.38 986.81 1153.20Q983.62 1157.02 995.10 1168.50L995.10 1168.50Q1002.75 1178.70 1004.02 1186.35Q1005.30 1194 1001.47 1225.88L1001.47 1225.88Q996.37 1269.22 996.37 1287.07Q996.37 1304.92 993.82 1429.88L993.82 1429.88L990.00 1553.55L1025.70 1565.03Q1062.67 1575.22 1092 1581.60L1092 1581.60Q1134.07 1590.53 1186.99 1613.47Q1239.90 1636.42 1260.30 1655.55L1260.30 1655.55Q1276.87 1669.58 1279.42 1682.33L1279.42 1682.33Q1281.97 1691.25 1273.05 1739.70Q1264.12 1788.15 1256.47 1811.10L1256.47 1811.10Q1251.37 1826.40 1248.19 1838.51Q1245 1850.63 1239.26 1858.28Q1233.52 1865.92 1225.24 1885.05Q1216.95 1904.17 1216.95 1910.55Q1216.95 1916.92 1204.84 1939.88Q1192.72 1962.83 1186.99 1974.94Q1181.25 1987.05 1169.14 2003.63Q1157.02 2020.20 1157.02 2029.13L1157.02 2029.13Q1155.75 2048.25 1116.22 2076.30L1116.22 2076.30Q1098.38 2087.78 1096.46 2090.96Q1094.55 2094.15 1069.05 2113.28L1069.05 2113.28Q1018.05 2155.35 970.87 2101.80L970.87 2101.80Q960.67 2087.78 960.67 2066.10L960.67 2066.10Q960.67 2041.88 951.11 2024.03Q941.55 2006.17 924.97 1999.80L924.97 1999.80Q908.40 1993.42 895.01 1975.58Q881.62 1957.72 873.97 1951.35Q866.32 1944.97 872.70 1939.88L872.70 1939.88Q886.72 1929.67 955.57 1941.15L955.57 1941.15Q998.92 1948.80 1016.77 1944.97Q1034.63 1941.15 1055.02 1920.75L1055.02 1920.75Q1074.15 1900.35 1082.44 1885.69Q1090.72 1871.03 1099.65 1840.42L1099.65 1840.42Q1127.70 1755 1116.22 1705.28L1116.22 1705.28Q1111.13 1677.22 1102.20 1670.85L1102.20 1670.85Q1090.72 1659.38 1019.96 1641.53Q949.20 1623.67 899.47 1617.30L899.47 1617.30Q854.85 1612.20 789.82 1618.58L789.82 1618.58Q737.55 1624.95 722.25 1628.14Q706.95 1631.33 690.37 1644.08L690.37 1644.08Q677.62 1653 666.15 1646.63Q654.67 1640.25 638.10 1644.08L638.10 1644.08Q608.77 1649.17 564.79 1674.04Q520.80 1698.90 516.97 1712.92L516.97 1712.92Q514.42 1724.40 522.07 1763.92Q529.72 1803.45 537.37 1820.03L537.37 1820.03Q545.02 1835.33 550.12 1862.10L550.12 1862.10Q560.32 1915.65 573.07 1938.60L573.07 1938.60Q578.17 1950.08 578.17 1955.81Q578.17 1961.55 569.25 1976.85L569.25 1976.85Q548.85 2015.10 525.90 2003.63L525.90 2003.63Q508.05 1995.97 494.02 1957.09Q480.00 1918.20 480.00 1876.13L480.00 1876.13Q480.00 1845.53 474.26 1828.31Q468.52 1811.10 464.70 1790.70Q460.87 1770.30 453.22 1740.97L453.22 1740.97Q429.00 1651.72 476.17 1651.72L476.17 1651.72Q492.75 1651.72 510.60 1638.97L510.60 1638.97Q564.15 1604.55 617.70 1586.70L617.70 1586.70Q652.12 1573.95 654.04 1568.21Q655.95 1562.47 659.77 1517.85L659.77 1517.85Q663.60 1488.52 662.96 1480.88Q662.32 1473.22 655.95 1471.95L655.95 1471.95Q648.30 1469.40 644.47 1460.47Q640.65 1451.55 643.20 1443.26Q645.75 1434.97 653.40 1434.97L653.40 1434.97Q667.42 1434.97 671.25 1339.99Q675.07 1245 663.60 1237.35L663.60 1237.35Q653.40 1230.97 660.41 1227.79Q667.42 1224.60 668.70 1213.13L668.70 1213.13Q671.25 1200.38 676.99 1195.91Q682.72 1191.45 708.22 1182.52L708.22 1182.52Q736.27 1171.05 742.65 1178.70Q749.02 1186.35 754.12 1186.35L754.12 1186.35Q760.50 1186.35 764.96 1221.41Q769.42 1256.47 765.60 1262.85L765.60 1262.85Q763.05 1266.67 764.32 1266.67Q765.60 1266.67 770.70 1265.40L770.70 1265.40Q851.02 1229.70 871.42 1236.07L871.42 1236.07Q884.17 1238.63 884.17 1230.97L884.17 1230.97Q885.45 1214.40 884.81 1179.34Q884.17 1144.27 881.62 1143L881.62 1143Q872.70 1135.35 848.47 1158.30L848.47 1158.30Q834.45 1171.05 826.80 1172.96Q819.15 1174.88 805.12 1165.95L805.12 1165.95Q792.37 1158.30 783.45 1158.30Q774.52 1158.30 736.27 1165.95L736.27 1165.95Q682.72 1177.42 660.41 1183.80Q638.10 1190.17 608.77 1205.47L608.77 1205.47Q578.17 1222.05 539.92 1205.47L539.92 1205.47Q529.72 1200.38 525.90 1195.91Q522.07 1191.45 522.07 1182.52L522.07 1182.52Q522.07 1167.22 542.47 1153.20L542.47 1153.20Q580.72 1128.97 694.20 1103.47L694.20 1103.47Q735.00 1093.27 737.55 1092Q740.10 1090.72 715.87 1043.55Q691.65 996.37 690.37 977.25L690.37 977.25Q690.37 964.50 691.65 960.04Q692.92 955.57 701.85 954.30L701.85 954.30Q712.05 951.75 712.05 947.29Q712.05 942.82 722.25 937.72ZM884.17 1349.55L884.17 1349.55Q884.17 1316.40 880.35 1311.30Q876.52 1306.20 854.85 1315.13L854.85 1315.13Q839.55 1321.50 810.22 1325.32L810.22 1325.32Q786.00 1327.88 770.70 1335.53Q755.40 1343.17 760.50 1352.10L760.50 1352.10Q763.05 1357.20 755.40 1359.75Q747.75 1362.30 750.30 1370.59Q752.85 1378.88 761.14 1378.88Q769.42 1378.88 777.71 1386.53Q786.00 1394.17 807.67 1385.25L807.67 1385.25Q826.80 1380.15 844.65 1379.51Q862.50 1378.88 866.32 1383.97L866.32 1383.97Q868.87 1389.07 876.52 1389.07Q884.17 1389.07 884.17 1349.55ZM872.70 1502.55L872.70 1502.55Q872.70 1492.35 872.70 1484.06Q872.70 1475.77 872.06 1470.04Q871.42 1464.30 870.15 1464.30L870.15 1464.30Q866.32 1466.85 830.62 1475.14Q794.92 1483.42 770.70 1488.52L770.70 1488.52Q754.12 1489.80 749.02 1492.99Q743.92 1496.17 740.10 1508.92L740.10 1508.92Q731.17 1526.78 732.45 1539.53L732.45 1539.53L735.00 1553.55L798.75 1551Q861.22 1549.72 865.69 1545.26Q870.15 1540.80 872.70 1502.55ZM2034.22 1038.45L2034.22 1038.45Q2044.43 1030.80 2053.35 1032.07Q2062.28 1033.35 2086.50 1044.82L2086.50 1044.82Q2120.93 1060.13 2126.03 1082.44Q2131.13 1104.75 2106.90 1128.97L2106.90 1128.97Q2073.75 1160.85 2025.30 1182.52L2025.30 1182.52Q2006.18 1191.45 1989.60 1205.47L1989.60 1205.47Q1971.75 1222.05 1937.33 1241.81Q1902.90 1261.57 1876.13 1270.50L1876.13 1270.50Q1835.33 1284.53 1835.33 1274.32L1835.33 1274.32Q1835.33 1261.57 1890.15 1206.75L1890.15 1206.75Q1944.97 1151.92 1956.45 1137.90L1956.45 1137.90Q2010 1072.88 2018.93 1058.85L2018.93 1058.85Q2024.03 1047.38 2034.22 1038.45ZM2226.75 954.30L2226.75 954.30Q2257.35 935.17 2296.88 955.57L2296.88 955.57Q2317.28 965.77 2324.29 987.45Q2331.30 1009.12 2331.30 1067.77L2331.30 1067.77Q2332.57 1132.80 2333.21 1158.94Q2333.85 1185.07 2326.20 1228.42L2326.20 1228.42Q2322.38 1257.75 2322.38 1267.95Q2322.38 1278.15 2327.48 1289.63L2327.48 1289.63Q2336.40 1307.47 2345.32 1304.92Q2354.25 1302.38 2376.56 1299.19Q2398.88 1296 2423.10 1285.80L2423.10 1285.80Q2442.23 1279.42 2483.66 1274.32Q2525.10 1269.22 2539.13 1274.32L2539.13 1274.32Q2553.15 1276.88 2565.90 1288.99Q2578.65 1301.10 2581.20 1313.85L2581.20 1313.85Q2585.03 1326.60 2590.13 1329.15L2590.13 1329.15Q2592.68 1332.97 2593.31 1351.46Q2593.95 1369.95 2591.40 1380.15L2591.40 1380.15Q2588.85 1391.63 2571 1400.55L2571 1400.55Q2555.70 1409.47 2532.75 1410.11Q2509.80 1410.75 2415.45 1406.92L2415.45 1406.92Q2345.32 1404.38 2333.85 1410.11Q2322.38 1415.85 2324.93 1450.28L2324.93 1450.28Q2327.48 1487.25 2326.20 1516.57L2326.20 1516.57Q2324.93 1607.10 2336.40 1784.33L2336.40 1784.33Q2340.23 1845.53 2338.31 1932.22Q2336.40 2018.92 2331.30 2054.63L2331.30 2054.63Q2322.38 2108.18 2286.68 2120.93L2286.68 2120.93Q2268.82 2126.03 2262.45 2119.65Q2256.07 2113.28 2253.53 2085.22L2253.53 2085.22Q2249.70 2057.18 2244.60 2029.76Q2239.50 2002.35 2238.22 1781.78L2238.22 1781.78Q2234.40 1452.82 2219.10 1434.97L2219.10 1434.97Q2216.55 1431.15 2201.89 1431.79Q2187.22 1432.42 2138.78 1441.35L2138.78 1441.35Q2100.53 1449 2076.30 1461.75L2076.30 1461.75Q2054.63 1474.50 2050.16 1489.16Q2045.70 1503.82 2041.88 1570.13L2041.88 1570.13Q2038.05 1636.42 2025.30 1681.69Q2012.55 1726.95 1985.78 1776.67L1985.78 1776.67Q1967.93 1809.83 1964.10 1816.20L1964.10 1816.20Q1953.90 1840.42 1882.50 1893.97L1882.50 1893.97Q1844.25 1922.03 1811.10 1952.63L1811.10 1952.63Q1760.10 2001.08 1760.10 1978.13L1760.10 1978.13Q1760.10 1971.75 1786.88 1923.30Q1813.65 1874.85 1820.03 1865.92L1820.03 1865.92Q1837.88 1845.53 1870.39 1797.08Q1902.90 1748.63 1902.90 1743.53L1902.90 1743.53Q1902.90 1738.42 1916.93 1691.89Q1930.95 1645.35 1934.78 1579.05L1934.78 1579.05L1939.88 1512.75L1918.20 1515.30Q1901.63 1517.85 1870.39 1534.42Q1839.15 1551 1821.30 1566.30L1821.30 1566.30Q1806 1579.05 1786.24 1579.05Q1766.47 1579.05 1730.78 1567.57L1730.78 1567.57Q1700.17 1556.10 1692.53 1549.09Q1684.88 1542.07 1681.05 1526.78L1681.05 1526.78Q1679.78 1516.57 1681.69 1511.47Q1683.60 1506.38 1696.35 1497.45L1696.35 1497.45Q1723.13 1477.05 1792.61 1445.81Q1862.10 1414.57 1911.83 1400.55L1911.83 1400.55L1941.15 1392.90L1944.97 1340.63Q1947.53 1288.35 1951.35 1274.32Q1955.18 1260.30 1969.20 1256.47Q1983.22 1252.65 1995.98 1260.30L1995.98 1260.30Q2006.18 1266.67 2019.56 1292.81Q2032.95 1318.95 2032.95 1331.70L2032.95 1331.70Q2032.95 1340.63 2043.15 1348.28L2043.15 1348.28Q2049.53 1355.92 2062.91 1354.65Q2076.30 1353.38 2157.90 1338.07L2157.90 1338.07Q2208.90 1326.60 2212.72 1326.60L2212.72 1326.60Q2215.28 1326.60 2215.28 1246.91Q2215.28 1167.22 2214 1085.63Q2212.72 1004.02 2210.18 997.65L2210.18 997.65Q2205.07 988.72 2210.18 975.97Q2215.28 963.22 2226.75 954.30Z"/>
  </svg>