<svg xmlns="http://www.w3.org/2000/svg" viewBox="0 0 3000 3000" width="3000" height="3000">
    <path fill="#000000" d="M1326 942L1328 1082Q1328 1214 1320 1378L1320 1378L1740 1358L1740 682Q1740 634 1718 606Q1696 578 1696 572L1696 572Q1696 558 1724 558Q1752 558 1799 574Q1846 590 1858 603Q1870 616 1870 642L1870 642L1870 1352L2194 1334Q2244 1330 2270 1321Q2296 1312 2307 1312Q2318 1312 2344 1332L2344 1332Q2418 1382 2418 1418L2418 1418Q2418 1440 2370 1444L2370 1444L1870 1472L1872 2326Q1872 2376 1844 2376L1844 2376Q1836 2376 1806 2364L1806 2364Q1724 2334 1724 2280L1724 2280L1724 2270Q1724 2264 1732 2230Q1740 2196 1740 2140L1740 2140L1740 1478L1310 1498Q1270 1838 1088 2068L1088 2068Q946 2244 792 2320L792 2320Q734 2348 716 2348Q698 2348 698 2330Q698 2312 744 2278L744 2278Q994 2088 1110 1776L1110 1776Q1162 1638 1178 1504L1178 1504L792 1526Q772 1528 756 1528L756 1528L724 1528Q676 1528 648 1501Q620 1474 609 1444Q598 1414 598 1410L598 1410Q598 1398 616 1398L616 1398L628 1398Q664 1410 720 1410L720 1410L740 1410L1188 1386Q1194 1262 1194 1180L1194 1180L1194 1066Q1194 1032 1192 1000L1192 1000Q1064 1054 961 1083Q858 1112 828 1112Q798 1112 798 1098L798 1098Q798 1072 876 1040Q954 1008 1117 925Q1280 842 1410 742L1410 742Q1454 708 1470 664L1470 664Q1480 646 1495 646Q1510 646 1535 671Q1560 696 1578 727Q1596 758 1596 777Q1596 796 1586 802L1586 802Q1498 858 1326 942L1326 942Z"/>
  </svg>