<svg xmlns="http://www.w3.org/2000/svg" viewBox="0 0 3000 3000" width="3000" height="3000">
    <path fill="#000000" d="M1320 1585L1728 1565L1728 2215Q1728 2243 1724 2273Q1720 2303 1714 2331L1714 2331Q1712 2337 1712 2344Q1712 2351 1712 2355L1712 2355Q1712 2393 1741 2416Q1770 2439 1802 2451Q1834 2463 1844 2463L1844 2463Q1884 2463 1884 2401L1884 2401L1882 1559L2370 1531Q2392 1529 2411 1522Q2430 1515 2430 1493L2430 1493Q2430 1469 2405 1442Q2380 1415 2351 1395Q2322 1375 2302 1375L2302 1375Q2296 1375 2291 1376Q2286 1377 2282 1379L2282 1379Q2242 1393 2194 1397L2194 1397L1882 1415L1882 717Q1882 687 1867 671Q1852 655 1806 639L1806 639Q1754 621 1720 621L1720 621Q1684 621 1684 647L1684 647Q1684 657 1698 677L1698 677Q1714 695 1721 713Q1728 731 1728 757L1728 757L1728 1421L1332 1441Q1336 1371 1338 1299Q1340 1227 1340 1157L1340 1157Q1340 1123 1339 1088Q1338 1053 1338 1025L1338 1025Q1402 993 1469 958Q1536 923 1592 887L1592 887Q1608 877 1608 853Q1608 829 1589 796Q1570 763 1542 736Q1514 709 1492 709L1492 709Q1472 709 1460 733L1460 733Q1448 765 1434 780Q1420 795 1402 807L1402 807Q1344 853 1248 911Q1152 969 1050 1021Q948 1073 868 1105L868 1105Q786 1139 786 1173L786 1173Q786 1199 830 1199L830 1199Q860 1199 964 1170Q1068 1141 1182 1093L1182 1093Q1182 1107 1182 1141Q1182 1175 1182 1209L1182 1209Q1182 1337 1176 1449L1176 1449L740 1473L720 1473Q700 1473 677 1471Q654 1469 630 1461L630 1461L616 1461Q586 1461 586 1485L586 1485Q586 1491 598 1523Q610 1555 644 1589L644 1589Q672 1615 724 1615L724 1615Q738 1615 755 1615Q772 1615 792 1613L792 1613L1164 1591Q1150 1711 1099 1848Q1048 1985 959 2114Q870 2243 736 2343L736 2343Q686 2381 686 2409L686 2409Q686 2435 711 2435Q736 2435 797 2405Q858 2375 937 2312Q1016 2249 1096 2149Q1176 2049 1238 1907Q1300 1765 1320 1585L1320 1585Z"/>
  </svg>