<svg xmlns="http://www.w3.org/2000/svg" viewBox="0 0 3000 3000" width="3000" height="3000">
    <path fill="#000000" d="M723.52 1768.39L979.80 1754.36L968.32 1841.06L731.17 1849.99L723.52 1768.39ZM737.55 1939.24L736.27 1930.31L1039.72 1918.84Q1055.02 1917.56 1068.41 1915.01Q1081.80 1912.46 1081.80 1897.16Q1081.80 1881.86 1055.02 1848.71L1055.02 1848.71L1076.70 1751.81Q1077.97 1746.71 1081.16 1742.25Q1084.35 1737.79 1084.35 1728.86L1084.35 1728.86Q1084.35 1711.01 1065.22 1693.16Q1046.10 1675.31 1023.15 1675.31L1023.15 1675.31Q1020.60 1675.31 1016.77 1675.95Q1012.95 1676.59 1007.85 1676.59L1007.85 1676.59L713.32 1693.16Q682.72 1681.69 662.96 1677.23Q643.20 1672.76 631.72 1672.76L631.72 1672.76Q610.05 1672.76 610.05 1688.06L610.05 1688.06Q610.05 1695.71 617.70 1707.19L617.70 1707.19Q627.90 1726.31 631.72 1762.01L631.72 1762.01L641.92 1884.41Q643.20 1893.34 643.20 1903.54Q643.20 1913.74 643.20 1923.94L643.20 1923.94Q643.20 1946.89 657.86 1959Q672.52 1971.11 689.10 1975.58Q705.67 1980.04 712.05 1980.04L712.05 1980.04Q737.55 1980.04 737.55 1946.89L737.55 1946.89L737.55 1939.24ZM508.05 1635.79L1225.88 1603.91L1220.77 1991.51Q1195.27 1985.14 1155.75 1977.49Q1116.22 1969.84 1076.70 1955.81L1076.70 1955.81Q1056.30 1949.44 1046.10 1949.44L1046.10 1949.44Q1025.70 1949.44 1025.70 1964.74L1025.70 1964.74Q1025.70 1978.76 1048.65 1996.61Q1071.60 2014.46 1102.84 2031.68Q1134.07 2048.89 1167.22 2065.46Q1200.38 2082.04 1225.88 2091.60Q1251.37 2101.16 1257.75 2101.16L1257.75 2101.16Q1279.42 2101.16 1299.82 2080.76Q1320.22 2060.36 1320.22 2036.14L1320.22 2036.14Q1320.22 2027.21 1318.95 2017.01Q1317.67 2006.81 1317.67 1994.06L1317.67 1994.06L1321.50 1601.36Q1321.50 1592.44 1324.05 1586.06Q1326.60 1579.69 1326.60 1570.76Q1326.60 1561.84 1314.49 1542.08Q1302.37 1522.31 1269.22 1522.31L1269.22 1522.31L1256.47 1522.31L501.67 1556.74Q440.47 1532.51 418.80 1532.51L418.80 1532.51Q395.85 1532.51 395.85 1551.64L395.85 1551.64Q395.85 1556.74 398.40 1565.66L398.40 1565.66Q404.77 1582.24 409.24 1598.81Q413.70 1615.39 413.70 1635.79L413.70 1635.79Q413.70 1835.96 407.96 1932.23Q402.22 2028.49 400.95 2037.41L400.95 2037.41L400.95 2039.96Q399.67 2041.24 399.67 2045.06L399.67 2045.06Q399.67 2068.01 427.09 2085.86Q454.50 2103.71 477.45 2103.71L477.45 2103.71Q506.77 2103.71 506.77 2062.91L506.77 2062.91L508.05 1635.79ZM694.20 1319.59L1012.95 1299.19L995.10 1383.34L700.57 1398.64L694.20 1319.59ZM708.22 1481.51L708.22 1478.96L1079.25 1462.39Q1094.55 1461.11 1108.57 1458.56Q1122.60 1456.01 1122.60 1440.71L1122.60 1440.71Q1122.60 1424.14 1088.17 1390.99L1088.17 1390.99L1113.67 1290.26Q1114.95 1285.16 1118.77 1279.43Q1122.60 1273.69 1122.60 1266.04L1122.60 1266.04Q1122.60 1254.56 1105.39 1235.44Q1088.17 1216.31 1058.85 1216.31L1058.85 1216.31L1047.38 1216.31L690.37 1239.26Q624.07 1222.69 602.40 1222.69L602.40 1222.69Q579.45 1222.69 579.45 1239.26L579.45 1239.26Q579.45 1245.64 583.27 1252.01Q587.10 1258.39 590.92 1267.31L590.92 1267.31Q594.75 1274.96 599.21 1296.64Q603.67 1318.31 606.22 1343.18Q608.77 1368.04 610.69 1385.89Q612.60 1403.74 612.60 1406.29L612.60 1406.29L612.60 1422.86Q612.60 1431.79 612.60 1440.71Q612.60 1449.64 611.32 1457.29L611.32 1457.29L611.32 1464.94Q611.32 1487.89 625.99 1499.36Q640.65 1510.84 657.22 1515.94Q673.80 1521.04 681.45 1521.04L681.45 1521.04Q699.30 1521.04 703.76 1510.20Q708.22 1499.36 708.22 1489.16L708.22 1489.16L708.22 1481.51ZM451.95 1189.54L451.95 1189.54L1313.85 1141.09Q1327.88 1139.81 1339.35 1135.35Q1350.82 1130.89 1350.82 1118.14L1350.82 1118.14Q1350.82 1109.21 1338.71 1094.55Q1326.60 1079.89 1310.66 1067.14Q1294.72 1054.39 1279.42 1054.39L1279.42 1054.39Q1271.77 1054.39 1267.95 1055.66L1267.95 1055.66Q1256.47 1059.49 1245.64 1062.04Q1234.80 1064.59 1222.05 1065.86L1222.05 1065.86L895.65 1083.71L896.92 982.99Q896.92 966.41 887.36 956.85Q877.80 947.29 847.20 935.81L847.20 935.81Q815.32 925.61 800.02 925.61L800.02 925.61Q775.80 925.61 775.80 943.46L775.80 943.46Q775.80 949.84 780.90 960.04L780.90 960.04Q796.20 984.26 796.20 1012.31L796.20 1012.31L797.47 1088.81L426.45 1109.21L412.42 1109.21Q392.02 1109.21 370.35 1105.39L370.35 1105.39L362.70 1105.39Q346.12 1105.39 346.12 1121.96L346.12 1121.96L352.50 1138.54Q360.15 1155.11 375.45 1172.96Q390.75 1190.81 418.80 1190.81L418.80 1190.81Q425.17 1190.81 434.10 1190.17Q443.02 1189.54 451.95 1189.54ZM2022.75 1554.19L2282.85 1541.44L2282.85 1955.81Q2282.85 1973.66 2280.30 1992.79Q2277.75 2011.91 2273.93 2029.76L2273.93 2029.76Q2272.65 2033.59 2272.65 2038.05Q2272.65 2042.51 2272.65 2045.06L2272.65 2045.06Q2272.65 2069.29 2291.14 2083.95Q2309.63 2098.61 2330.03 2106.26Q2350.43 2113.91 2356.80 2113.91L2356.80 2113.91Q2382.30 2113.91 2382.30 2074.39L2382.30 2074.39L2381.03 1537.61L2692.13 1519.76Q2706.15 1518.49 2718.26 1514.03Q2730.38 1509.56 2730.38 1495.54L2730.38 1495.54Q2730.38 1480.24 2714.44 1463.03Q2698.50 1445.81 2680.01 1433.06Q2661.53 1420.31 2648.78 1420.31L2648.78 1420.31Q2644.95 1420.31 2641.76 1420.95Q2638.57 1421.59 2636.03 1422.86L2636.03 1422.86Q2610.53 1431.79 2579.93 1434.34L2579.93 1434.34L2381.03 1445.81L2381.03 1000.84Q2381.03 981.71 2371.46 971.51Q2361.90 961.31 2332.57 951.11L2332.57 951.11Q2299.43 939.64 2277.75 939.64L2277.75 939.64Q2254.80 939.64 2254.80 956.21L2254.80 956.21Q2254.80 962.59 2263.73 975.34L2263.73 975.34Q2273.93 986.81 2278.39 998.29Q2282.85 1009.76 2282.85 1026.34L2282.85 1026.34L2282.85 1449.64L2030.40 1462.39Q2032.95 1417.76 2034.22 1371.86Q2035.50 1325.96 2035.50 1281.34L2035.50 1281.34Q2035.50 1259.66 2034.86 1237.35Q2034.22 1215.04 2034.22 1197.19L2034.22 1197.19Q2075.03 1176.79 2117.74 1154.47Q2160.45 1132.16 2196.15 1109.21L2196.15 1109.21Q2206.35 1102.84 2206.35 1087.54Q2206.35 1072.24 2194.24 1051.20Q2182.13 1030.16 2164.28 1012.95Q2146.43 995.74 2132.40 995.74L2132.40 995.74Q2119.65 995.74 2112 1011.04L2112 1011.04Q2104.35 1031.44 2095.43 1041Q2086.50 1050.56 2075.03 1058.21L2075.03 1058.21Q2038.05 1087.54 1976.85 1124.51Q1915.65 1161.49 1850.63 1194.64Q1785.60 1227.79 1734.60 1248.19L1734.60 1248.19Q1682.33 1269.86 1682.33 1291.54L1682.33 1291.54Q1682.33 1308.11 1710.38 1308.11L1710.38 1308.11Q1729.50 1308.11 1795.80 1289.63Q1862.10 1271.14 1934.78 1240.54L1934.78 1240.54Q1934.78 1249.46 1934.78 1271.14Q1934.78 1292.81 1934.78 1314.49L1934.78 1314.49Q1934.78 1396.09 1930.95 1467.49L1930.95 1467.49L1653 1482.79L1640.25 1482.79Q1627.50 1482.79 1612.84 1481.51Q1598.17 1480.24 1582.88 1475.14L1582.88 1475.14L1573.95 1475.14Q1554.83 1475.14 1554.83 1490.44L1554.83 1490.44Q1554.83 1494.26 1562.47 1514.66Q1570.13 1535.06 1591.80 1556.74L1591.80 1556.74Q1609.65 1573.31 1642.80 1573.31L1642.80 1573.31Q1651.72 1573.31 1662.56 1573.31Q1673.40 1573.31 1686.15 1572.04L1686.15 1572.04L1923.30 1558.01Q1914.38 1634.51 1881.86 1721.85Q1849.35 1809.19 1792.61 1891.43Q1735.88 1973.66 1650.45 2037.41L1650.45 2037.41Q1618.58 2061.64 1618.58 2079.49L1618.58 2079.49Q1618.58 2096.06 1634.51 2096.06Q1650.45 2096.06 1689.34 2076.94Q1728.22 2057.81 1778.59 2017.65Q1828.95 1977.49 1879.95 1913.74Q1930.95 1849.99 1970.47 1759.46Q2010 1668.94 2022.75 1554.19L2022.75 1554.19Z"/>
  </svg>