<svg xmlns="http://www.w3.org/2000/svg" viewBox="0 0 3000 3000" width="3000" height="3000">
    <path fill="#000000" d="M1925.78 2380.86Q1839.84 2380.86 1839.84 2277.34L1839.84 2277.34L1839.84 1505.86L1269.53 1505.86Q1257.81 1818.36 1156.25 2007.81L1156.25 2007.81Q1052.73 2199.22 841.80 2316.41L841.80 2316.41Q757.81 2363.28 726.56 2363.28L726.56 2363.28Q642.58 2363.28 642.58 2271.48L642.58 2271.48Q642.58 2220.70 707.03 2187.50L707.03 2187.50Q1015.63 2025.39 1076.17 1783.20L1076.17 1783.20Q1099.61 1693.36 1109.38 1505.86L1109.38 1505.86L710.94 1505.86Q611.33 1505.86 611.33 1425.78L611.33 1425.78Q611.33 1345.70 710.94 1345.70L710.94 1345.70L1111.33 1345.70L1111.33 908.20Q847.66 958.98 785.16 958.98L785.16 958.98Q703.13 958.98 703.13 880.86L703.13 880.86Q703.13 851.56 718.75 833.01Q734.38 814.45 759.77 810.55L759.77 810.55Q1271.48 746.09 1468.75 652.34L1468.75 652.34Q1509.77 632.81 1546.88 632.81L1546.88 632.81Q1580.08 632.81 1599.61 655.27Q1619.14 677.73 1615.23 714.84L1615.23 714.84Q1611.33 753.91 1527.34 790.04Q1443.36 826.17 1271.48 867.19L1271.48 867.19L1271.48 1345.70L1839.84 1345.70L1839.84 726.56Q1839.84 619.14 1925.78 619.14L1925.78 619.14Q2011.72 619.14 2011.72 726.56L2011.72 726.56L2011.72 1345.70L2287.11 1345.70Q2388.67 1345.70 2388.67 1427.73L2388.67 1427.73Q2388.67 1505.86 2287.11 1505.86L2287.11 1505.86L2011.72 1505.86L2011.72 2277.34Q2011.72 2380.86 1925.78 2380.86L1925.78 2380.86Z"/>
  </svg>