<svg xmlns="http://www.w3.org/2000/svg" viewBox="0 0 3000 3000" width="3000" height="3000">
    <path fill="#000000" d="M1313.85 1085.63L451.95 1134.08L418.80 1135.35Q379.27 1135.35 360.15 1088.17L360.15 1088.17L353.77 1072.88Q353.77 1065.22 362.70 1065.22L362.70 1065.22L369.07 1065.22Q390.75 1069.05 412.42 1069.05L412.42 1069.05L426.45 1069.05L805.12 1048.65L803.85 964.50Q803.85 933.90 787.27 908.40L787.27 908.40Q783.45 900.75 783.45 895.65L783.45 895.65Q783.45 885.45 798.75 885.45Q814.05 885.45 844.01 895.65Q873.97 905.85 881.62 913.50Q889.27 921.15 889.27 935.17L889.27 935.17L888.00 1043.55L1222.05 1025.70Q1246.27 1023.15 1259.66 1018.69Q1273.05 1014.23 1282.61 1014.23Q1292.17 1014.23 1306.20 1025.70L1306.20 1025.70Q1343.17 1053.75 1343.17 1071.60L1343.17 1071.60Q1343.17 1083.08 1313.85 1085.63L1313.85 1085.63ZM700.57 1433.70L700.57 1441.35Q700.57 1465.58 681.45 1465.58L681.45 1465.58Q655.95 1465.58 637.46 1450.91Q618.97 1436.25 618.97 1417.13L618.97 1417.13L618.97 1409.47Q620.25 1401.83 620.25 1392.90L620.25 1392.90L620.25 1358.47Q620.25 1355.93 613.87 1294.72Q607.50 1233.53 600.49 1220.14Q593.47 1206.75 590.29 1201.01Q587.10 1195.28 587.10 1191.45L587.10 1191.45Q587.10 1182.53 604.95 1182.53Q622.80 1182.53 689.10 1199.10L689.10 1199.10L1047.38 1176.15L1058.85 1176.15Q1084.35 1176.15 1099.65 1192.72Q1114.95 1209.30 1114.95 1216.31Q1114.95 1223.33 1111.76 1228.43Q1108.57 1233.53 1106.02 1239.90L1106.02 1239.90L1079.25 1345.72Q1114.95 1380.15 1114.95 1390.99Q1114.95 1401.83 1104.11 1403.74Q1093.27 1405.65 1079.25 1406.93L1079.25 1406.93L699.30 1423.50L700.57 1433.70ZM1001.47 1343.18L1021.87 1243.72L685.27 1264.13L694.20 1358.47L1001.47 1343.18ZM407.32 1997.25L407.32 1997.25Q421.35 1913.10 421.35 1587.98L421.35 1587.98Q421.35 1554.83 412.42 1531.24Q403.50 1507.65 403.50 1503.83L403.50 1503.83Q403.50 1492.35 421.35 1492.35Q439.20 1492.35 500.40 1516.58L500.40 1516.58L1256.47 1482.15L1269.22 1482.15Q1298.55 1482.15 1308.75 1499.36Q1318.95 1516.58 1318.95 1522.95L1318.95 1522.95L1313.85 1553.55L1310.02 1946.25L1312.57 1988.33Q1312.57 2010 1294.72 2027.85Q1276.87 2045.70 1264.76 2045.70Q1252.65 2045.70 1212.49 2030.40Q1172.32 2015.10 1107.30 1976.85L1107.30 1976.85Q1033.35 1937.33 1033.35 1916.93L1033.35 1916.93Q1033.35 1909.28 1044.19 1909.28Q1055.02 1909.28 1084.35 1919.48Q1113.67 1929.68 1153.84 1937.33Q1194 1944.98 1228.42 1952.63L1228.42 1952.63L1233.52 1548.45L500.40 1580.33L499.12 2015.10Q499.12 2048.25 478.09 2048.25Q457.05 2048.25 432.19 2032.31Q407.32 2016.38 407.32 1997.25ZM712.05 1653L1007.85 1636.43L1023.15 1635.15Q1043.55 1635.15 1060.13 1651.09Q1076.70 1667.03 1076.70 1677.23Q1076.70 1687.43 1073.51 1691.89Q1070.32 1696.35 1069.05 1702.73L1069.05 1702.73L1047.38 1802.18Q1074.15 1836.60 1074.15 1847.44Q1074.15 1858.28 1063.95 1860.19Q1053.75 1862.10 1039.72 1863.38L1039.72 1863.38L728.62 1874.85L729.90 1891.43L729.90 1899.08Q729.90 1924.58 712.05 1924.58L712.05 1924.58Q685.27 1924.58 668.06 1909.91Q650.85 1895.25 650.85 1879.95L650.85 1879.95L650.85 1855.73Q650.85 1845.53 649.57 1835.33L649.57 1835.33L639.37 1712.93Q635.55 1675.95 626.62 1660.65Q617.70 1645.35 617.70 1638.98Q617.70 1632.60 636.82 1632.60Q655.95 1632.60 712.05 1653L712.05 1653ZM974.70 1800.90L988.72 1698.90L715.87 1712.93L723.52 1809.83L974.70 1800.90ZM2026.58 1144.28L2027.85 1233.53Q2027.85 1317.68 2022.75 1422.22L2022.75 1422.22L2290.50 1409.47L2290.50 978.52Q2290.50 947.92 2276.48 930.07Q2262.45 912.23 2262.45 908.40L2262.45 908.40Q2262.45 899.47 2280.30 899.47Q2298.15 899.47 2328.11 909.67Q2358.07 919.88 2365.73 928.16Q2373.38 936.45 2373.38 953.02L2373.38 953.02L2373.38 1405.65L2579.93 1394.18Q2611.80 1391.63 2628.38 1385.89Q2644.95 1380.15 2651.96 1380.15Q2658.98 1380.15 2675.55 1392.90L2675.55 1392.90Q2722.73 1424.78 2722.73 1447.72L2722.73 1447.72Q2722.73 1461.75 2692.13 1464.30L2692.13 1464.30L2373.38 1482.15L2374.65 2026.58Q2374.65 2058.45 2356.80 2058.45L2356.80 2058.45Q2351.70 2058.45 2332.57 2050.80L2332.57 2050.80Q2280.30 2031.68 2280.30 1997.25L2280.30 1997.25L2280.30 1990.88Q2280.30 1987.05 2285.40 1965.38Q2290.50 1943.70 2290.50 1908L2290.50 1908L2290.50 1485.97L2016.38 1498.72Q1990.88 1715.48 1874.85 1862.10L1874.85 1862.10Q1784.33 1974.30 1686.15 2022.75L1686.15 2022.75Q1649.17 2040.60 1637.70 2040.60Q1626.22 2040.60 1626.22 2029.13Q1626.22 2017.65 1655.55 1995.98L1655.55 1995.98Q1814.92 1874.85 1888.88 1675.95L1888.88 1675.95Q1922.03 1587.98 1932.22 1502.55L1932.22 1502.55L1686.15 1516.58Q1673.40 1517.85 1663.20 1517.85L1663.20 1517.85L1642.80 1517.85Q1612.20 1517.85 1594.35 1500.64Q1576.50 1483.43 1569.49 1464.30Q1562.47 1445.18 1562.47 1442.63L1562.47 1442.63Q1562.47 1434.97 1573.95 1434.97L1573.95 1434.97L1581.60 1434.97Q1604.55 1442.63 1640.25 1442.63L1640.25 1442.63L1653 1442.63L1938.60 1427.33Q1942.43 1348.28 1942.43 1296L1942.43 1296L1942.43 1223.33Q1942.43 1201.65 1941.15 1181.25L1941.15 1181.25Q1859.55 1215.68 1793.89 1234.16Q1728.22 1252.65 1709.10 1252.65Q1689.97 1252.65 1689.97 1243.72L1689.97 1243.72Q1689.97 1227.15 1739.70 1206.75Q1789.42 1186.35 1893.34 1133.44Q1997.25 1080.53 2080.13 1016.77L2080.13 1016.77Q2108.18 995.10 2118.38 967.05L2118.38 967.05Q2124.75 955.58 2134.31 955.58Q2143.88 955.58 2159.81 971.51Q2175.75 987.45 2187.22 1007.21Q2198.70 1026.97 2198.70 1039.09Q2198.70 1051.20 2192.32 1055.03L2192.32 1055.03Q2136.22 1090.72 2026.58 1144.28L2026.58 1144.28Z"/>
  </svg>