<svg xmlns="http://www.w3.org/2000/svg" viewBox="0 0 3000 3000" width="3000" height="3000">
    <path fill="#000000" d="M1338 776L1338 776Q1354 764 1368 766Q1382 768 1420 786L1420 786Q1474 810 1482 845Q1490 880 1452 918L1452 918Q1400 968 1324 1002L1324 1002Q1294 1016 1268 1038L1268 1038Q1240 1064 1186 1095Q1132 1126 1090 1140L1090 1140Q1026 1162 1026 1146L1026 1146Q1026 1126 1112 1040L1112 1040Q1198 954 1216 932L1216 932Q1300 830 1314 808L1314 808Q1322 790 1338 776ZM1640 644L1640 644Q1688 614 1750 646L1750 646Q1782 662 1793 696Q1804 730 1804 822L1804 822Q1806 924 1807 965Q1808 1006 1796 1074L1796 1074Q1790 1120 1790 1136Q1790 1152 1798 1170L1798 1170Q1812 1198 1826 1194Q1840 1190 1875 1185Q1910 1180 1948 1164L1948 1164Q1978 1154 2043 1146Q2108 1138 2130 1146L2130 1146Q2152 1150 2172 1169Q2192 1188 2196 1208L2196 1208Q2202 1228 2210 1232L2210 1232Q2214 1238 2215 1267Q2216 1296 2212 1312L2212 1312Q2208 1330 2180 1344L2180 1344Q2156 1358 2120 1359Q2084 1360 1936 1354L1936 1354Q1826 1350 1808 1359Q1790 1368 1794 1422L1794 1422Q1798 1480 1796 1526L1796 1526Q1794 1668 1812 1946L1812 1946Q1818 2042 1815 2178Q1812 2314 1804 2370L1804 2370Q1790 2454 1734 2474L1734 2474Q1706 2482 1696 2472Q1686 2462 1682 2418L1682 2418Q1676 2374 1668 2331Q1660 2288 1658 1942L1658 1942Q1652 1426 1628 1398L1628 1398Q1624 1392 1601 1393Q1578 1394 1502 1408L1502 1408Q1442 1420 1404 1440L1404 1440Q1370 1460 1363 1483Q1356 1506 1350 1610L1350 1610Q1344 1714 1324 1785Q1304 1856 1262 1934L1262 1934Q1234 1986 1228 1996L1228 1996Q1212 2034 1100 2118L1100 2118Q1040 2162 988 2210L988 2210Q908 2286 908 2250L908 2250Q908 2240 950 2164Q992 2088 1002 2074L1002 2074Q1030 2042 1081 1966Q1132 1890 1132 1882L1132 1882Q1132 1874 1154 1801Q1176 1728 1182 1624L1182 1624L1190 1520L1156 1524Q1130 1528 1081 1554Q1032 1580 1004 1604L1004 1604Q980 1624 949 1624Q918 1624 862 1606L862 1606Q814 1588 802 1577Q790 1566 784 1542L784 1542Q782 1526 785 1518Q788 1510 808 1496L808 1496Q850 1464 959 1415Q1068 1366 1146 1344L1146 1344L1192 1332L1198 1250Q1202 1168 1208 1146Q1214 1124 1236 1118Q1258 1112 1278 1124L1278 1124Q1294 1134 1315 1175Q1336 1216 1336 1236L1336 1236Q1336 1250 1352 1262L1352 1262Q1362 1274 1383 1272Q1404 1270 1532 1246L1532 1246Q1612 1228 1618 1228L1618 1228Q1622 1228 1622 1103Q1622 978 1620 850Q1618 722 1614 712L1614 712Q1606 698 1614 678Q1622 658 1640 644Z"/>
  </svg>