<svg xmlns="http://www.w3.org/2000/svg" viewBox="0 0 3000 3000" width="3000" height="3000">
    <path fill="#000000" d="M306.60 1182.53L306.60 1144.28L1414.57 1144.28L1414.57 1182.53L306.60 1182.53ZM1169.77 1315.13L561.60 1315.13L561.60 1477.05L1169.77 1477.05L1169.77 1315.13ZM523.35 1514.03L523.35 1276.88L1206.75 1276.88L1206.75 1514.03L523.35 1514.03ZM363.97 2143.88L363.97 1605.83L1344.45 1605.83L1344.45 1642.80L400.95 1642.80L400.95 2143.88L363.97 2143.88ZM1324.05 2083.95L1324.05 1605.83L1361.02 1605.83L1361.02 2082.68Q1361.02 2103.08 1355.29 2112.64Q1349.55 2122.20 1332.97 2128.58L1332.97 2128.58Q1317.67 2133.68 1285.16 2134.31Q1252.65 2134.95 1196.55 2134.95L1196.55 2134.95Q1195.27 2127.30 1190.81 2117.74Q1186.35 2108.18 1181.25 2101.80L1181.25 2101.80Q1211.85 2101.80 1237.35 2101.80Q1262.85 2101.80 1280.70 2101.80Q1298.55 2101.80 1304.92 2101.80L1304.92 2101.80Q1324.05 2100.53 1324.05 2083.95L1324.05 2083.95ZM816.60 1002.75L816.60 1002.75L844.65 997.65Q861.22 1038.45 876.52 1085.63Q891.82 1132.80 898.20 1162.13L898.20 1162.13L868.87 1173.60Q861.22 1140.45 845.92 1092Q830.62 1043.55 816.60 1002.75ZM608.77 1784.33L608.77 1747.35L1116.22 1747.35L1116.22 1987.05L608.77 1987.05L608.77 1950.08L1079.25 1950.08L1079.25 1784.33L608.77 1784.33ZM592.20 2062.28L592.20 1747.35L630.45 1747.35L630.45 2062.28L592.20 2062.28ZM1877.40 1512.75L1877.40 1154.47L1915.65 1154.47L1915.65 1512.75Q1915.65 1602 1904.81 1688.06Q1893.97 1774.13 1861.46 1855.73Q1828.95 1937.33 1763.92 2011.28Q1698.90 2085.22 1589.25 2148.97L1589.25 2148.97Q1586.70 2143.88 1582.24 2139.41Q1577.78 2134.95 1572.67 2129.85Q1567.58 2124.75 1562.47 2122.20L1562.47 2122.20Q1669.58 2059.72 1732.69 1988.33Q1795.80 1916.93 1827.04 1839.15Q1858.28 1761.38 1867.84 1679.14Q1877.40 1596.90 1877.40 1512.75L1877.40 1512.75ZM2370.82 2146.43L2370.82 1026.97L2409.07 1026.97L2409.07 2146.43L2370.82 2146.43ZM1575.22 1558.65L1575.22 1520.40L2701.05 1520.40L2701.05 1558.65L1575.22 1558.65ZM2155.35 1029.53L2155.35 1029.53L2191.05 1057.57Q2122.20 1095.83 2024.66 1130.89Q1927.13 1165.95 1818.75 1195.91Q1710.38 1225.88 1605.83 1250.10L1605.83 1250.10Q1604.55 1243.72 1600.09 1234.80Q1595.63 1225.88 1590.53 1219.50L1590.53 1219.50Q1692.53 1195.28 1800.26 1165.31Q1908 1135.35 2002.35 1100.92Q2096.70 1066.50 2155.35 1029.53Z"/>
  </svg>