<svg xmlns="http://www.w3.org/2000/svg" viewBox="0 0 3000 3000" width="3000" height="3000">
    <path fill="#000000" d="M803.85 2138.78L803.85 1154.47L840.82 1154.47L840.82 2138.78L803.85 2138.78ZM376.72 1107.30L376.72 1070.32L1113.67 1070.32L1113.67 1107.30L376.72 1107.30ZM292.57 1584.15L292.57 1547.17L1114.95 1547.17L1114.95 1584.15L292.57 1584.15ZM494.02 1521.68L494.02 1288.35L531.00 1288.35L531.00 1521.68Q531.00 1599.45 523.99 1681.05Q516.97 1762.65 495.30 1843.61Q473.62 1924.58 429.64 2001.71Q385.65 2078.85 310.42 2148.97L310.42 2148.97Q307.87 2143.88 302.77 2139.41Q297.67 2134.95 291.94 2131.13Q286.20 2127.30 281.10 2124.75L281.10 2124.75Q353.77 2057.18 397.12 1982.59Q440.47 1908 460.87 1829.59Q481.27 1751.18 487.65 1673.40Q494.02 1595.63 494.02 1521.68L494.02 1521.68ZM1327.88 1083.08L1327.88 1083.08L1358.47 1107.30Q1320.22 1149.38 1270.50 1194Q1220.77 1238.63 1179.97 1270.50L1179.97 1270.50L1154.47 1251.38Q1181.25 1228.42 1213.76 1199.10Q1246.27 1169.78 1276.87 1139.17Q1307.47 1108.58 1327.88 1083.08ZM1112.40 1247.55L1112.40 1247.55L1136.63 1218.22Q1182.52 1233.53 1231.61 1255.20Q1280.70 1276.88 1324.69 1299.19Q1368.67 1321.50 1398 1341.90L1398 1341.90L1375.05 1375.05Q1347 1354.65 1303.01 1331.06Q1259.02 1307.47 1209.30 1285.16Q1159.57 1262.85 1112.40 1247.55ZM1339.35 1613.47L1339.35 1613.47L1371.22 1637.70Q1331.70 1682.33 1280.70 1729.50Q1229.70 1776.68 1186.35 1811.10L1186.35 1811.10L1160.85 1790.70Q1188.90 1767.75 1222.05 1736.51Q1255.20 1705.28 1286.44 1672.13Q1317.67 1638.97 1339.35 1613.47ZM1117.50 1784.33L1117.50 1784.33L1141.72 1757.55Q1188.90 1774.13 1238.63 1797.08Q1288.35 1820.03 1332.97 1844.25Q1377.60 1868.48 1406.92 1890.15L1406.92 1890.15L1383.97 1923.30Q1354.65 1901.63 1310.02 1876.13Q1265.40 1850.63 1215.04 1826.40Q1164.67 1802.18 1117.50 1784.33ZM1089.45 1070.32L1089.45 1070.32L1127.70 1070.32Q1134.07 1160.85 1148.10 1241.81Q1162.13 1322.78 1188.90 1385.89Q1215.67 1449 1257.75 1486.61Q1299.82 1524.22 1362.30 1529.33L1362.30 1529.33Q1376.32 1530.60 1383.97 1503.19Q1391.63 1475.78 1394.17 1419.68L1394.17 1419.68Q1403.10 1426.05 1411.39 1430.51Q1419.67 1434.97 1427.32 1437.53L1427.32 1437.53Q1420.95 1508.93 1405.65 1540.16Q1390.35 1571.40 1355.92 1566.30L1355.92 1566.30Q1283.25 1558.65 1234.80 1516.58Q1186.35 1474.50 1157.02 1406.29Q1127.70 1338.08 1112.40 1252.01Q1097.10 1165.95 1089.45 1070.32ZM1095.82 1547.17L1095.82 1547.17L1134.07 1547.17Q1137.90 1663.20 1149.38 1763.93Q1160.85 1864.65 1186.99 1939.88Q1213.13 2015.10 1259.02 2059.72Q1304.92 2104.35 1377.60 2110.72L1377.60 2110.72Q1391.63 2112 1400.55 2076.30Q1409.47 2040.60 1414.57 1966.65L1414.57 1966.65Q1422.22 1973.03 1431.15 1976.85Q1440.07 1980.68 1447.72 1983.23L1447.72 1983.23Q1441.35 2077.58 1426.05 2115.19Q1410.75 2152.80 1371.22 2146.43L1371.22 2146.43Q1303.65 2140.05 1256.47 2106.90Q1209.30 2073.75 1179.34 2018.29Q1149.38 1962.83 1132.16 1889.51Q1114.95 1816.20 1107.30 1729.50Q1099.65 1642.80 1095.82 1547.17ZM696.75 1179.97L696.75 1179.97L733.72 1205.47Q686.55 1236.08 620.89 1263.49Q555.22 1290.90 481.27 1314.49Q407.32 1338.08 337.20 1357.20L337.20 1357.20Q335.92 1350.83 332.10 1341.90Q328.27 1332.97 323.17 1326.60L323.17 1326.60Q390.75 1307.47 462.15 1284.53Q533.55 1261.58 595.39 1234.80Q657.22 1208.03 696.75 1179.97ZM2012.55 1103.47L2012.55 1066.50L2294.32 1066.50L2294.32 1103.47L2012.55 1103.47ZM2272.65 2064.83L2272.65 1066.50L2309.63 1066.50L2309.63 2063.55Q2309.63 2091.60 2300.70 2104.99Q2291.78 2118.38 2271.38 2123.47L2271.38 2123.47Q2250.97 2128.58 2208.26 2129.85Q2165.55 2131.13 2095.43 2131.13L2095.43 2131.13Q2092.88 2123.47 2088.41 2111.36Q2083.95 2099.25 2078.85 2090.33L2078.85 2090.33Q2138.78 2091.60 2185.31 2092.24Q2231.85 2092.88 2245.88 2091.60L2245.88 2091.60Q2259.90 2090.33 2266.28 2084.59Q2272.65 2078.85 2272.65 2064.83L2272.65 2064.83ZM2363.18 1103.47L2363.18 1066.50L2651.32 1066.50L2651.32 1103.47L2363.18 1103.47ZM2632.20 2069.93L2632.20 1066.50L2669.18 1066.50L2669.18 2068.65Q2669.18 2096.70 2660.89 2110.09Q2652.60 2123.47 2630.93 2129.85L2630.93 2129.85Q2610.53 2134.95 2565.90 2136.22Q2521.28 2137.50 2449.88 2137.50L2449.88 2137.50Q2447.32 2128.58 2442.86 2117.10Q2438.40 2105.63 2433.30 2096.70L2433.30 2096.70Q2495.78 2097.97 2542.95 2097.97Q2590.13 2097.97 2605.43 2096.70L2605.43 2096.70Q2632.20 2095.43 2632.20 2069.93L2632.20 2069.93ZM1557.38 1285.80L1557.38 1248.83L2002.35 1248.83L2002.35 1285.80L1557.38 1285.80ZM1577.78 1530.60L1577.78 1493.63L1994.70 1493.63L1994.70 1530.60L1577.78 1530.60ZM1603.28 1018.05L1603.28 1018.05L1640.25 1009.13Q1661.92 1056.30 1682.33 1109.85Q1702.72 1163.40 1712.92 1202.92L1712.92 1202.92L1672.13 1215.67Q1663.20 1176.15 1642.80 1120.69Q1622.40 1065.22 1603.28 1018.05ZM1937.33 998.92L1937.33 998.92L1978.13 1012.95Q1950.08 1075.42 1915.65 1148.74Q1881.22 1222.05 1849.35 1273.05L1849.35 1273.05L1816.20 1261.58Q1836.60 1227.15 1859.55 1180.61Q1882.50 1134.08 1903.54 1085.63Q1924.58 1037.17 1937.33 998.92ZM1767.75 1617.30L1767.75 1259.03L1804.72 1259.03L1804.72 1617.30Q1804.72 1679.78 1798.35 1751.18Q1791.97 1822.58 1769.03 1894.61Q1746.08 1966.65 1698.26 2032.31Q1650.45 2097.97 1567.58 2148.97L1567.58 2148.97Q1565.03 2143.88 1560.56 2138.78Q1556.10 2133.68 1552.28 2128.58Q1548.45 2123.47 1544.63 2119.65L1544.63 2119.65Q1623.67 2073.75 1668.94 2011.91Q1714.20 1950.08 1735.24 1881.23Q1756.28 1812.38 1762.01 1744.16Q1767.75 1675.95 1767.75 1617.30L1767.75 1617.30ZM1548.45 1793.25L1548.45 1756.28L1993.43 1756.28L1993.43 1793.25L1548.45 1793.25ZM2024.03 1285.80L2024.03 1285.80L2052.07 1269.22Q2080.13 1303.65 2107.54 1343.81Q2134.95 1383.97 2157.90 1422.22Q2180.85 1460.47 2193.60 1488.53L2193.60 1488.53L2165.55 1510.20Q2151.53 1480.88 2128.57 1441.99Q2105.63 1403.10 2078.21 1361.66Q2050.80 1320.22 2024.03 1285.80ZM1981.95 1929.68L1956.45 1901.63Q2004.90 1858.28 2074.39 1792.61Q2143.88 1726.95 2215.28 1656.83L2215.28 1656.83L2231.85 1687.43Q2168.10 1749.90 2103.07 1813.65Q2038.05 1877.40 1981.95 1929.68L1981.95 1929.68ZM2378.48 1288.35L2378.48 1288.35L2407.80 1271.78Q2434.57 1306.20 2461.35 1345.72Q2488.13 1385.25 2510.44 1422.22Q2532.75 1459.20 2545.50 1487.25L2545.50 1487.25L2516.18 1508.93Q2503.43 1479.60 2481.11 1441.35Q2458.80 1403.10 2432.03 1362.94Q2405.25 1322.78 2378.48 1288.35ZM2358.07 1897.80L2332.57 1872.30Q2377.20 1831.50 2441.59 1770.94Q2505.98 1710.38 2572.28 1644.08L2572.28 1644.08L2588.85 1675.95Q2530.20 1734.60 2470.28 1791.98Q2410.35 1849.35 2358.07 1897.80L2358.07 1897.80Z"/>
  </svg>