<svg xmlns="http://www.w3.org/2000/svg" viewBox="0 0 3000 3000" width="3000" height="3000">
    <path fill="#000000" d="M1293.45 1610.29L1293.45 1610.29Q1299.82 1602.64 1299.82 1591.16Q1299.82 1579.69 1288.35 1564.39L1288.35 1564.39Q1275.60 1549.09 1260.30 1537.61L1260.30 1537.61Q1289.62 1543.99 1313.85 1543.99L1313.85 1543.99Q1366.13 1543.99 1382.70 1503.83Q1399.27 1463.66 1399.27 1365.49L1399.27 1365.49Q1399.27 1311.94 1394.81 1288.35Q1390.35 1264.76 1382.70 1257.11L1382.70 1257.11L1375.05 1249.46Q1354.65 1249.46 1345.72 1303.01L1345.72 1303.01Q1340.63 1334.89 1331.70 1373.14Q1322.77 1411.39 1310.02 1444.54L1310.02 1444.54Q1308.75 1448.36 1303.65 1448.36L1303.65 1448.36L1298.55 1448.36Q1256.47 1443.26 1213.13 1424.14Q1169.77 1405.01 1136.63 1367.40Q1103.47 1329.79 1093.27 1286.44L1093.27 1286.44Q1168.50 1320.86 1239.90 1368.04L1239.90 1368.04Q1259.02 1380.79 1267.95 1380.79L1267.95 1380.79Q1281.97 1380.79 1290.90 1366.13Q1299.82 1351.46 1303.65 1338.71L1303.65 1338.71L1306.20 1325.96Q1306.20 1308.11 1284.52 1295.36L1284.52 1295.36Q1219.50 1262.21 1145.55 1230.34L1145.55 1230.34Q1158.30 1226.51 1176.15 1213.76L1176.15 1213.76Q1204.20 1194.64 1231.61 1167.86Q1259.02 1141.09 1280.06 1116.22Q1301.10 1091.36 1301.10 1078.61Q1301.10 1065.86 1288.99 1050.56Q1276.87 1035.26 1261.57 1023.79Q1246.27 1012.31 1236.07 1012.31L1236.07 1012.31Q1220.77 1012.31 1216.95 1033.99L1216.95 1033.99Q1213.13 1059.49 1199.10 1088.81Q1185.07 1118.14 1166.59 1144.28Q1148.10 1170.41 1133.44 1189.54Q1118.77 1208.66 1118.77 1218.86L1118.77 1218.86L1118.77 1218.86Q1098.38 1211.21 1077.97 1202.29L1077.97 1202.29Q1076.70 1193.36 1076.70 1179.34Q1076.70 1165.31 1076.70 1152.56L1076.70 1152.56Q1076.70 1138.54 1076.70 1123.88Q1076.70 1109.21 1077.97 1097.74L1077.97 1097.74Q1079.25 1090.09 1083.07 1080.53Q1086.90 1070.96 1086.90 1060.76L1086.90 1060.76Q1086.90 1033.99 1062.67 1020.60Q1038.45 1007.21 1021.87 1007.21L1021.87 1007.21Q1019.32 1007.21 1015.50 1007.85Q1011.67 1008.49 1006.57 1008.49L1006.57 1008.49L543.75 1046.74Q536.10 1048.01 528.45 1048.01Q520.80 1048.01 514.42 1048.01L514.42 1048.01Q497.85 1048.01 483.82 1046.10Q469.80 1044.19 453.22 1041.64L453.22 1041.64L448.12 1041.64Q429.00 1041.64 429.00 1059.49L429.00 1059.49L435.37 1078.61Q443.02 1097.74 460.24 1117.50Q477.45 1137.26 506.77 1137.26L506.77 1137.26Q516.97 1137.26 529.72 1135.99Q542.47 1134.71 557.77 1133.44L557.77 1133.44L978.52 1096.46Q979.80 1204.84 1000.20 1293.45Q1020.60 1382.06 1086.90 1445.81L1086.90 1445.81Q1121.32 1477.69 1163.40 1499.36L1163.40 1499.36Q1194 1517.21 1224.60 1527.41L1224.60 1527.41Q1218.22 1531.24 1216.95 1540.16L1216.95 1540.16Q1215.67 1556.74 1204.84 1589.89Q1194 1623.04 1143 1693.16L1143 1693.16Q1132.80 1708.46 1131.52 1722.49L1131.52 1722.49Q1104.75 1709.74 1075.42 1696.99L1075.42 1696.99Q1074.15 1682.96 1073.51 1663.84Q1072.88 1644.71 1072.88 1626.86L1072.88 1626.86Q1072.88 1605.19 1072.88 1584.15Q1072.88 1563.11 1074.15 1543.99L1074.15 1543.99Q1074.15 1536.34 1078.61 1527.41Q1083.07 1518.49 1083.07 1508.29L1083.07 1508.29Q1083.07 1499.36 1068.41 1477.69Q1053.75 1456.01 1012.95 1456.01L1012.95 1456.01L1001.47 1456.01L858.67 1468.76L858.67 1189.54Q858.67 1167.86 840.19 1155.11Q821.70 1142.36 800.66 1135.99Q779.62 1129.61 770.70 1129.61L770.70 1129.61Q751.57 1129.61 751.57 1146.19L751.57 1146.19Q751.57 1148.74 752.21 1150.01Q752.85 1151.29 752.85 1153.84L752.85 1153.84Q765.60 1199.74 765.60 1237.99L765.60 1237.99L766.87 1477.69L621.52 1489.16Q624.07 1454.74 624.71 1412.66Q625.35 1370.59 625.35 1336.16L625.35 1336.16Q650.85 1323.41 679.54 1306.20Q708.22 1288.99 736.27 1271.14L736.27 1271.14Q754.12 1262.21 754.12 1244.36L754.12 1244.36Q754.12 1227.79 742.01 1209.94Q729.90 1192.09 713.96 1178.06Q698.02 1164.04 689.10 1164.04Q680.17 1164.04 675.07 1171.05Q669.97 1178.06 666.15 1185.71L666.15 1185.71Q658.50 1206.11 627.90 1233.53Q597.30 1260.94 557.14 1287.71Q516.97 1314.49 478.09 1336.16Q439.20 1357.84 416.25 1369.31L416.25 1369.31Q369.07 1393.54 369.07 1411.39L369.07 1411.39Q369.07 1426.69 390.75 1426.69L390.75 1426.69Q425.17 1426.69 532.27 1380.79L532.27 1380.79Q532.27 1384.61 532.27 1400.55Q532.27 1416.49 532.27 1434.34L532.27 1434.34Q532.27 1450.91 532.27 1468.76Q532.27 1486.61 531.00 1498.09L531.00 1498.09L429.00 1507.01Q420.07 1508.29 410.51 1508.93Q400.95 1509.56 390.75 1509.56Q380.55 1509.56 369.07 1508.29Q357.60 1507.01 344.85 1504.46L344.85 1504.46Q341.02 1503.19 334.65 1503.19L334.65 1503.19Q318.07 1503.19 318.07 1519.76L318.07 1519.76Q318.07 1524.86 325.09 1542.71Q332.10 1560.56 348.04 1577.78Q363.97 1594.99 390.75 1594.99L390.75 1594.99Q404.77 1594.99 444.30 1591.16L444.30 1591.16L525.90 1584.79Q519.52 1682.96 494.66 1760.74Q469.80 1838.51 428.36 1898.44Q386.92 1958.36 332.10 2013.19L332.10 2013.19Q316.80 2025.94 309.79 2037.41Q302.77 2048.89 302.77 2057.81L302.77 2057.81Q302.77 2074.39 320.62 2074.39L320.62 2074.39Q324.45 2074.39 353.77 2060.36Q383.10 2046.34 424.54 2013.19Q465.97 1980.04 507.41 1922.66Q548.85 1865.29 580.09 1777.95Q611.32 1690.61 617.70 1575.86L617.70 1575.86L766.87 1563.11L768.15 1855.09Q768.15 1898.44 765.60 1939.88Q763.05 1981.31 756.67 2029.76L756.67 2029.76Q756.67 2031.04 756.04 2033.59Q755.40 2036.14 755.40 2039.96L755.40 2039.96Q755.40 2062.91 772.61 2076.94Q789.82 2090.96 808.31 2097.97Q826.80 2104.99 830.62 2104.99L830.62 2104.99Q858.67 2104.99 858.67 2070.56L858.67 2070.56L858.67 1554.19L979.80 1543.99L979.80 1573.31Q979.80 1644.71 985.54 1716.11Q991.27 1787.51 1014.86 1851.90Q1038.45 1916.29 1093.27 1967.29L1093.27 1967.29Q1143 2013.19 1197.82 2039.96Q1252.65 2066.74 1297.27 2076.94Q1341.90 2087.14 1361.02 2087.14L1361.02 2087.14Q1378.88 2087.14 1395.45 2082.04Q1412.02 2076.94 1424.14 2057.18Q1436.25 2037.41 1441.99 1994.06Q1447.72 1950.71 1447.72 1876.76L1447.72 1876.76Q1447.72 1847.44 1445.81 1818.75Q1443.90 1790.06 1438.80 1768.39Q1433.70 1746.71 1420.95 1746.71L1420.95 1746.71Q1400.55 1746.71 1390.35 1811.74L1390.35 1811.74Q1378.88 1876.76 1371.22 1912.46Q1363.57 1948.16 1357.84 1962.83Q1352.10 1977.49 1348.91 1980.04Q1345.72 1982.59 1343.17 1982.59L1343.17 1982.59L1339.35 1982.59Q1296.00 1974.94 1243.09 1955.18Q1190.17 1935.41 1147.46 1892.06Q1104.75 1848.71 1092 1788.79L1092 1788.79Q1127.70 1805.36 1171.69 1830.23Q1215.67 1855.09 1265.40 1890.79L1265.40 1890.79Q1283.25 1903.54 1294.72 1903.54L1294.72 1903.54Q1308.75 1903.54 1317.67 1890.15Q1326.60 1876.76 1331.06 1862.74Q1335.52 1848.71 1335.52 1842.34L1335.52 1842.34Q1335.52 1824.49 1310.02 1811.74L1310.02 1811.74Q1257.75 1782.41 1200.38 1754.36L1200.38 1754.36Q1181.25 1745.44 1159.57 1735.24L1159.57 1735.24Q1171.05 1730.14 1187.63 1718.66L1187.63 1718.66Q1213.13 1699.54 1241.81 1670.21Q1270.50 1640.89 1293.45 1610.29ZM2228.03 1612.84L2228.03 1612.84L2226.75 1962.19Q2208.90 1955.81 2178.30 1944.98Q2147.70 1934.14 2118.38 1917.56L2118.38 1917.56Q2092.88 1904.81 2080.13 1904.81L2080.13 1904.81Q2062.28 1904.81 2062.28 1920.11L2062.28 1920.11Q2062.28 1934.14 2087.14 1959.64Q2112 1985.14 2145.15 2011.91Q2178.30 2038.69 2209.54 2058.45Q2240.78 2078.21 2256.07 2078.21L2256.07 2078.21Q2272.65 2078.21 2294.96 2059.72Q2317.28 2041.24 2317.28 2009.36L2317.28 2009.36Q2317.28 2000.44 2316 1991.51Q2314.73 1982.59 2314.73 1971.11L2314.73 1971.11L2314.73 1814.29Q2318.55 1816.84 2326.20 1816.84L2326.20 1816.84Q2338.95 1816.84 2377.84 1791.98Q2416.73 1767.11 2469.64 1716.11Q2522.55 1665.11 2562.07 1606.46L2562.07 1606.46L2559.53 1972.39Q2546.78 1968.56 2514.26 1954.54Q2481.75 1940.51 2449.88 1923.94L2449.88 1923.94Q2424.38 1908.64 2406.53 1908.64L2406.53 1908.64Q2389.95 1908.64 2389.95 1922.66L2389.95 1922.66Q2389.95 1937.96 2415.45 1964.74Q2440.95 1991.51 2475.38 2018.93Q2509.80 2046.34 2541.68 2066.10Q2573.55 2085.86 2588.85 2085.86L2588.85 2085.86Q2602.88 2085.86 2625.82 2067.38Q2648.78 2048.89 2648.78 2018.29L2648.78 2018.29Q2648.78 2010.64 2647.50 2001.08Q2646.23 1991.51 2646.23 1981.31L2646.23 1981.31L2651.32 1104.11Q2651.32 1097.74 2653.88 1090.72Q2656.43 1083.71 2656.43 1074.79L2656.43 1074.79Q2656.43 1067.14 2651.96 1057.58Q2647.50 1048.01 2636.03 1037.81L2636.03 1037.81Q2618.18 1026.34 2599.05 1026.34L2599.05 1026.34L2590.13 1026.34L2421.82 1040.36L2407.80 1040.36Q2386.13 1040.36 2364.45 1036.54L2364.45 1036.54Q2360.63 1035.26 2349.79 1035.26Q2338.95 1035.26 2338.95 1048.01L2338.95 1048.01Q2338.95 1050.56 2347.88 1073.51Q2356.80 1096.46 2375.93 1114.31L2375.93 1114.31Q2384.85 1125.79 2407.80 1125.79L2407.80 1125.79Q2414.18 1125.79 2421.19 1125.79Q2428.20 1125.79 2438.40 1124.51L2438.40 1124.51L2564.63 1114.31L2564.63 1121.96Q2518.73 1203.56 2462.63 1274.96Q2406.53 1346.36 2352.98 1402.46L2352.98 1402.46Q2322.38 1433.06 2322.38 1448.36L2322.38 1448.36Q2322.38 1462.39 2337.68 1462.39L2337.68 1462.39Q2354.25 1462.39 2395.69 1433.70Q2437.13 1405.01 2486.85 1356.56Q2536.57 1308.11 2563.35 1269.86L2563.35 1269.86L2562.07 1458.56Q2511.08 1546.54 2452.43 1623.04Q2393.78 1699.54 2342.78 1754.36L2342.78 1754.36Q2322.38 1774.76 2314.73 1788.79L2314.73 1788.79L2317.28 1125.79Q2317.28 1118.14 2319.19 1111.13Q2321.10 1104.11 2321.10 1096.46L2321.10 1096.46Q2321.10 1074.79 2303.89 1062.04Q2286.68 1049.29 2268.82 1049.29L2268.82 1049.29L2257.35 1049.29L2087.78 1063.31L2073.75 1063.31Q2052.07 1063.31 2030.40 1059.49L2030.40 1059.49Q2026.58 1058.21 2015.10 1058.21L2015.10 1058.21Q2013.83 1058.21 2012.55 1058.21L2012.55 1058.21Q2018.93 1042.91 2018.93 1036.54L2018.93 1036.54Q2018.93 1014.86 1999.80 999.56Q1980.68 984.26 1960.91 975.34Q1941.15 966.41 1934.78 966.41L1934.78 966.41Q1914.38 966.41 1914.38 995.74L1914.38 995.74L1914.38 1002.11Q1914.38 1009.76 1907.36 1035.26Q1900.35 1060.76 1879.95 1109.85Q1859.55 1158.94 1816.20 1232.89L1816.20 1232.89L1672.13 1243.09L1664.47 1243.09Q1651.72 1243.09 1638.97 1241.81Q1626.22 1240.54 1614.75 1239.26L1614.75 1239.26L1607.10 1239.26Q1591.80 1239.26 1591.80 1252.01L1591.80 1252.01Q1591.80 1260.94 1598.17 1276.88Q1604.55 1292.81 1616.66 1307.47Q1628.78 1322.14 1645.35 1324.69L1645.35 1324.69L1658.10 1324.69Q1664.47 1324.69 1673.40 1324.69Q1682.33 1324.69 1692.53 1323.41L1692.53 1323.41L1785.60 1315.76L1785.60 1412.66L1701.45 1420.31Q1697.63 1420.31 1692.53 1420.95Q1687.42 1421.59 1682.33 1421.59L1682.33 1421.59Q1663.20 1421.59 1644.08 1417.76L1644.08 1417.76Q1641.53 1417.76 1639.61 1417.13Q1637.70 1416.49 1633.88 1416.49L1633.88 1416.49Q1621.13 1416.49 1621.13 1429.24L1621.13 1429.24Q1621.13 1448.36 1642.16 1475.14Q1663.20 1501.91 1702.72 1501.91L1702.72 1501.91Q1705.28 1501.91 1709.74 1501.28Q1714.20 1500.64 1718.03 1500.64L1718.03 1500.64L1783.05 1495.54Q1781.78 1523.59 1779.86 1558.65Q1777.95 1593.71 1775.40 1620.49L1775.40 1620.49Q1701.45 1639.61 1642.80 1653.64Q1584.15 1667.66 1562.47 1667.66L1562.47 1667.66Q1559.92 1667.66 1556.10 1667.03Q1552.28 1666.39 1549.72 1666.39L1549.72 1666.39L1545.90 1666.39Q1533.15 1666.39 1533.15 1679.14L1533.15 1679.14Q1533.15 1689.34 1542.08 1707.19Q1551 1725.04 1567.58 1739.06Q1584.15 1753.09 1607.10 1753.09L1607.10 1753.09Q1619.85 1753.09 1633.24 1750.54Q1646.63 1747.99 1677.22 1737.79Q1707.83 1727.59 1760.10 1709.74L1760.10 1709.74Q1742.25 1800.26 1698.26 1876.76Q1654.28 1953.26 1572.67 2032.31L1572.67 2032.31Q1554.83 2050.16 1554.83 2064.19Q1554.83 2078.21 1570.13 2078.21Q1585.42 2078.21 1599.45 2068.01L1599.45 2068.01Q1716.75 1990.24 1774.76 1892.70Q1832.78 1795.16 1853.17 1675.31L1853.17 1675.31Q1928.40 1648.54 1975.58 1628.14Q2022.75 1607.74 2046.34 1595.63Q2069.93 1583.51 2078.21 1574.59Q2086.50 1565.66 2086.50 1559.29L2086.50 1559.29Q2086.50 1543.99 2061 1543.99L2061 1543.99Q2048.25 1543.99 2024.03 1550.36L2024.03 1550.36Q1985.78 1561.84 1941.79 1573.95Q1897.80 1586.06 1864.65 1596.26L1864.65 1596.26Q1865.92 1579.69 1868.47 1547.81Q1871.03 1515.94 1872.30 1490.44L1872.30 1490.44L1981.95 1481.51Q2006.18 1480.24 2013.83 1468.76L2013.83 1468.76Q2016.38 1478.96 2029.13 1478.96L2029.13 1478.96Q2046.97 1478.96 2104.35 1434.34Q2161.72 1389.71 2229.30 1296.64L2229.30 1296.64L2228.03 1464.94Q2157.90 1577.14 2085.22 1661.93Q2012.55 1746.71 1953.90 1801.54L1953.90 1801.54Q1924.58 1827.04 1924.58 1846.16L1924.58 1846.16Q1924.58 1860.19 1939.88 1860.19L1939.88 1860.19Q1951.35 1860.19 1967.93 1851.26L1967.93 1851.26Q1992.15 1842.34 2038.69 1805.36Q2085.22 1768.39 2140.69 1713.56Q2196.15 1658.74 2228.03 1612.84ZM1820.03 1185.71L1820.03 1185.71Q1820.03 1172.96 1801.54 1144.91Q1783.05 1116.86 1758.83 1084.35Q1734.60 1051.84 1711.65 1027.61Q1688.70 1003.39 1677.22 1003.39L1677.22 1003.39Q1663.20 1003.39 1646.63 1018.05Q1630.05 1032.71 1630.05 1046.74L1630.05 1046.74Q1630.05 1058.21 1642.80 1074.79L1642.80 1074.79Q1663.20 1099.01 1688.06 1135.35Q1712.92 1171.69 1729.50 1204.84L1729.50 1204.84Q1744.80 1234.16 1762.65 1234.16L1762.65 1234.16Q1775.40 1234.16 1797.71 1219.50Q1820.03 1204.84 1820.03 1185.71ZM2018.93 1449.64L2018.93 1449.64Q2016.38 1433.06 1993.43 1416.49L1993.43 1416.49Q1962.83 1394.81 1946.25 1394.81L1946.25 1394.81Q1941.15 1394.81 1937.33 1397.36L1937.33 1397.36Q1919.47 1403.74 1892.70 1405.01L1892.70 1405.01L1874.85 1406.29L1877.40 1310.66L2017.65 1300.46Q2024.03 1300.46 2027.85 1299.19L2027.85 1299.19Q2052.07 1294.09 2052.07 1274.96L2052.07 1274.96Q2052.07 1262.21 2038.69 1248.19Q2025.30 1234.16 2010 1224.60Q1994.70 1215.04 1984.50 1215.04L1984.50 1215.04Q1976.85 1215.04 1973.03 1216.31L1973.03 1216.31Q1953.90 1222.69 1929.68 1225.24L1929.68 1225.24L1908 1226.51Q1927.13 1201.01 1954.54 1158.30Q1981.95 1115.59 1999.80 1081.16L1999.80 1081.16Q2002.35 1077.34 2004.90 1073.51L2004.90 1073.51Q2006.18 1079.89 2012.55 1096.46L2012.55 1096.46Q2020.20 1116.86 2041.88 1137.26L2041.88 1137.26Q2052.07 1150.01 2082.68 1150.01L2082.68 1150.01Q2087.78 1150.01 2094.79 1150.01Q2101.80 1150.01 2108.18 1148.74L2108.18 1148.74L2229.30 1138.54L2229.30 1146.19Q2127.30 1322.14 2040.60 1419.04L2040.60 1419.04Q2025.30 1436.89 2018.93 1449.64Z"/>
  </svg>