<svg xmlns="http://www.w3.org/2000/svg" viewBox="0 0 3000 3000" width="3000" height="3000">
    <path fill="#000000" d="M716.80 2365.23Q636.72 2365.23 636.72 2285.16L636.72 2285.16Q636.72 2238.28 691.41 2208.98L691.41 2208.98Q847.66 2128.91 896.48 2009.77L896.48 2009.77Q923.83 1947.27 931.64 1851.56L931.64 1851.56L902.34 1855.47Q697.27 1894.53 679.69 1894.53L679.69 1894.53Q607.42 1894.53 607.42 1820.31L607.42 1820.31Q607.42 1753.91 685.55 1742.19L685.55 1742.19L939.45 1705.08L941.41 1484.38L742.19 1484.38Q666.02 1484.38 666.02 1416.02L666.02 1416.02Q666.02 1380.86 684.57 1364.26Q703.13 1347.66 742.19 1347.66L742.19 1347.66L943.36 1347.66L941.41 1121.09L707.03 1121.09Q621.09 1121.09 621.09 1050.78L621.09 1050.78Q621.09 1013.67 641.60 997.07Q662.11 980.47 707.03 980.47L707.03 980.47L1054.69 980.47Q1097.66 843.75 1134.77 687.50L1134.77 687.50Q1154.30 607.42 1222.66 607.42L1222.66 607.42Q1302.73 607.42 1302.73 673.83L1302.73 673.83Q1302.73 710.94 1181.64 980.47L1181.64 980.47L1263.67 980.47Q1351.56 980.47 1351.56 1052.73L1351.56 1052.73Q1351.56 1121.09 1263.67 1121.09L1263.67 1121.09L1083.98 1121.09L1083.98 1347.66L1240.23 1347.66Q1316.41 1347.66 1316.41 1416.02L1316.41 1416.02Q1316.41 1484.38 1240.23 1484.38L1240.23 1484.38L1083.98 1484.38L1085.94 1685.55L1255.86 1658.20Q1285.16 1654.30 1300.78 1672.85Q1316.41 1691.41 1316.41 1726.56L1316.41 1726.56Q1316.41 1775.39 1259.77 1791.02L1259.77 1791.02L1078.13 1824.22Q1060.55 2013.67 1013.67 2109.38L1013.67 2109.38Q964.84 2208.98 843.75 2302.73L843.75 2302.73Q759.77 2365.23 716.80 2365.23L716.80 2365.23ZM1292.97 2011.72Q1216.80 2011.72 1216.80 1931.64L1216.80 1931.64Q1216.80 1892.58 1378.91 1777.34L1378.91 1777.34Q1421.88 1746.09 1480.47 1687.50L1480.47 1687.50Q1513.67 1654.30 1546.88 1654.30L1546.88 1654.30Q1613.28 1654.30 1613.28 1716.80L1613.28 1716.80Q1613.28 1738.28 1579.10 1778.32Q1544.92 1818.36 1472.66 1884.77L1472.66 1884.77Q1333.98 2011.72 1292.97 2011.72L1292.97 2011.72ZM1451.17 2375Q1363.28 2375 1363.28 2296.88L1363.28 2296.88Q1363.28 2220.70 1451.17 2220.70L1451.17 2220.70L1556.64 2220.70Q1625 2220.70 1626.95 2148.44L1626.95 2148.44L1626.95 912.11Q1626.95 857.42 1568.36 853.52L1568.36 853.52L1414.06 853.52Q1324.22 853.52 1324.22 777.34L1324.22 777.34Q1324.22 703.13 1414.06 703.13L1414.06 703.13L1619.14 703.13Q1773.44 703.13 1773.44 865.23L1773.44 865.23L1773.44 2181.64Q1773.44 2283.20 1726.56 2331.05Q1679.69 2378.91 1580.08 2375L1580.08 2375L1451.17 2375ZM855.47 947.27Q828.13 947.27 809.57 928.71Q791.02 910.16 777.34 869.14L777.34 869.14L714.84 708.98L710.94 683.59Q707.03 656.25 725.59 641.60Q744.14 626.95 779.30 626.95L779.30 626.95Q828.13 626.95 857.42 695.31L857.42 695.31Q925.78 855.47 925.78 878.91L925.78 878.91Q925.78 947.27 855.47 947.27L855.47 947.27ZM1882.81 1953.13Q1810.55 1953.13 1810.55 1867.19L1810.55 1867.19Q1810.55 1832.03 1941.41 1732.42L1941.41 1732.42L2019.53 1660.16Q2064.45 1617.19 2093.75 1617.19L2093.75 1617.19Q2160.16 1617.19 2160.16 1687.50L2160.16 1687.50Q2160.16 1728.52 2041.02 1839.84L2041.02 1839.84Q1919.92 1953.13 1882.81 1953.13L1882.81 1953.13ZM1507.81 1433.59Q1462.89 1433.59 1410.16 1291.02L1410.16 1291.02L1365.23 1175.78L1361.33 1150.39Q1357.42 1125 1375.98 1110.35Q1394.53 1095.70 1429.69 1095.70L1429.69 1095.70Q1474.61 1095.70 1505.86 1171.88L1505.86 1171.88L1529.30 1220.70Q1583.98 1332.03 1583.98 1369.14L1583.98 1369.14Q1583.98 1433.59 1507.81 1433.59L1507.81 1433.59ZM2005.86 2375Q1914.06 2375 1914.06 2296.88L1914.06 2296.88Q1914.06 2218.75 2005.86 2218.75L2005.86 2218.75L2097.66 2218.75Q2166.02 2218.75 2169.92 2144.53L2169.92 2144.53L2169.92 914.06Q2169.92 882.81 2155.27 869.14Q2140.63 855.47 2111.33 853.52L2111.33 853.52L1894.53 853.52Q1808.59 853.52 1808.59 777.34L1808.59 777.34Q1808.59 703.13 1894.53 703.13L1894.53 703.13L2164.06 703.13Q2250 703.13 2289.06 742.19Q2328.13 781.25 2324.22 867.19L2324.22 867.19L2324.22 2181.64Q2324.22 2283.20 2277.34 2331.05Q2230.47 2378.91 2126.95 2375L2126.95 2375L2005.86 2375ZM2035.16 1419.92Q1986.33 1419.92 1958.98 1349.61L1958.98 1349.61L1906.25 1220.70L1888.67 1179.69Q1875 1142.58 1875 1138.67L1875 1138.67Q1875 1074.22 1949.22 1074.22L1949.22 1074.22Q1994.14 1074.22 2050.78 1195.31L2050.78 1195.31Q2107.42 1320.31 2107.42 1345.70L2107.42 1345.70Q2107.42 1419.92 2035.16 1419.92L2035.16 1419.92Z"/>
  </svg>