<svg xmlns="http://www.w3.org/2000/svg" viewBox="0 0 3000 3000" width="3000" height="3000">
    <path fill="#000000" d="M770.70 1089.45L770.70 1089.45Q788.55 1077.97 797.47 1083.07L797.47 1083.07Q797.47 1088.17 828.07 1099.65L828.07 1099.65Q885.45 1117.50 885.45 1145.55L885.45 1145.55Q885.45 1154.47 873.97 1178.70Q862.50 1202.92 856.12 1208.02L856.12 1208.02Q849.75 1210.57 844.01 1269.86Q838.27 1329.15 837.00 1377.60Q835.72 1426.05 842.10 1432.42L842.10 1432.42Q847.20 1432.42 850.39 1416.49Q853.57 1400.55 871.42 1390.35L871.42 1390.35Q902.02 1369.95 956.21 1306.84Q1010.40 1243.72 1015.50 1218.22L1015.50 1218.22Q1019.32 1202.92 1025.06 1201.65Q1030.80 1200.38 1052.47 1213.13L1052.47 1213.13Q1077.97 1224.60 1084.35 1237.99Q1090.72 1251.38 1086.90 1281.97L1086.90 1281.97Q1083.07 1317.67 1071.60 1324.05Q1060.13 1330.42 1035.26 1352.10Q1010.40 1373.78 993.82 1380.79Q977.25 1387.80 951.75 1410.11Q926.25 1432.42 922.42 1432.42Q918.60 1432.42 918.60 1440.07Q918.60 1447.72 975.97 1465.57L975.97 1465.57Q1066.50 1494.90 1102.20 1524.22L1102.20 1524.22Q1112.40 1533.15 1114.95 1540.16Q1117.50 1547.17 1117.50 1567.57L1117.50 1567.57Q1117.50 1598.17 1112.40 1601.36Q1107.30 1604.55 1107.30 1614.75L1107.30 1614.75Q1107.30 1626.22 1093.91 1634.51Q1080.52 1642.80 1061.40 1644.08L1061.40 1644.08Q1044.82 1647.90 1036.54 1642.80Q1028.25 1637.70 1004.02 1608.38L1004.02 1608.38Q987.45 1585.42 978.52 1578.41Q969.60 1571.40 946.65 1557.38L946.65 1557.38Q916.05 1540.80 884.81 1509.56Q853.57 1478.32 847.20 1478.32L847.20 1478.32Q835.72 1478.32 848.47 1528.05L848.47 1528.05Q865.05 1587.97 880.99 1616.66Q896.92 1645.35 931.35 1684.88L931.35 1684.88Q963.22 1718.03 984.90 1742.25L984.90 1742.25Q1032.07 1797.08 1135.35 1841.70L1135.35 1841.70Q1188.90 1863.38 1223.32 1863.38L1223.32 1863.38Q1262.85 1863.38 1274.32 1849.35Q1285.80 1835.33 1308.75 1758.83L1308.75 1758.83Q1315.13 1726.95 1315.13 1714.20L1315.13 1714.20Q1315.13 1696.35 1325.32 1707.83L1325.32 1707.83Q1330.42 1714.20 1332.97 1729.50L1332.97 1729.50Q1343.17 1788.15 1347 1827.67L1347 1827.67Q1350.82 1860.83 1358.47 1869.75Q1366.13 1878.67 1369.95 1897.16Q1373.77 1915.65 1381.42 1930.95L1381.42 1930.95Q1387.80 1943.70 1380.79 1960.28Q1373.77 1976.85 1347 2011.28L1347 2011.28Q1324.05 2043.15 1299.19 2050.16Q1274.32 2057.18 1210.57 2057.18L1210.57 2057.18Q1151.92 2055.90 1126.42 2046.97Q1100.92 2038.05 1043.55 1998.53L1043.55 1998.53Q977.25 1955.17 953.02 1934.14Q928.80 1913.10 884.17 1863.38L884.17 1863.38Q857.40 1831.50 828.07 1791.34Q798.75 1751.17 793.65 1737.15L793.65 1737.15Q791.10 1728.22 769.42 1684.88L769.42 1684.88Q724.80 1591.80 723.52 1427.32L723.52 1427.32Q723.52 1331.70 729.90 1273.05Q736.27 1214.40 732.45 1206.75L732.45 1206.75Q728.62 1191.45 648.94 1207.39Q569.25 1223.32 550.12 1242.45L550.12 1242.45Q538.65 1251.38 532.91 1251.38Q527.17 1251.38 504.22 1278.79Q481.27 1306.20 473.62 1306.20Q465.97 1306.20 441.75 1293.45L441.75 1293.45Q409.87 1273.05 409.87 1234.80L409.87 1234.80Q409.87 1225.88 450.04 1197.82Q490.20 1169.77 520.80 1158.30L520.80 1158.30Q566.70 1140.45 692.92 1116.22L692.92 1116.22Q761.77 1099.65 770.70 1089.45ZM2120.93 1420.95L2120.93 1420.95Q2155.35 1410.75 2182.76 1424.78Q2210.18 1438.80 2210.18 1466.85L2210.18 1466.85Q2210.18 1482.15 2198.70 1505.10L2198.70 1505.10Q2191.05 1519.13 2185.95 1522.31Q2180.85 1525.50 2166.82 1525.50L2166.82 1525.50Q2143.88 1525.50 2105.63 1508.92L2105.63 1508.92Q2054.63 1487.25 2059.09 1462.39Q2063.55 1437.53 2120.93 1420.95ZM2415.45 1443.90L2415.45 1443.90Q2449.88 1426.05 2475.38 1415.21Q2500.88 1404.38 2504.70 1404.38L2504.70 1404.38Q2512.35 1404.38 2526.38 1413.94Q2540.40 1423.50 2544.23 1432.42L2544.23 1432.42Q2545.50 1445.17 2541.68 1468.76Q2537.85 1492.35 2531.48 1500L2531.48 1500Q2527.65 1506.38 2493.23 1511.47Q2458.80 1516.57 2433.30 1516.57L2433.30 1516.57Q2415.45 1516.57 2398.24 1507.01Q2381.03 1497.45 2381.03 1480.88L2381.03 1480.88Q2381.03 1466.85 2386.13 1461.75Q2391.23 1456.65 2415.45 1443.90ZM2381.03 1228.42L2381.03 1228.42Q2381.03 1208.02 2399.51 1195.27Q2418 1182.52 2433.94 1177.42Q2449.88 1172.32 2517.45 1174.88L2517.45 1174.88Q2562.07 1174.88 2576.74 1178.06Q2591.40 1181.25 2610.53 1191.45L2610.53 1191.45Q2637.30 1206.75 2651.96 1220.14Q2666.63 1233.53 2675.55 1233.53L2675.55 1233.53Q2703.60 1233.53 2681.93 1279.42L2681.93 1279.42Q2670.45 1304.92 2664.07 1358.47Q2657.70 1412.03 2660.25 1454.10L2660.25 1454.10Q2669.18 1584.15 2669.18 1832.78L2669.18 1832.78Q2669.18 1891.42 2664.07 1913.10Q2658.98 1934.78 2633.48 1983.22L2633.48 1983.22Q2614.35 2022.75 2590.76 2041.24Q2567.18 2059.72 2554.43 2071.20L2554.43 2071.20Q2541.68 2083.95 2535.94 2082.68Q2530.20 2081.40 2525.10 2068.01Q2520 2054.63 2499.60 2026.58Q2479.20 1998.53 2469 1989.60Q2458.80 1980.67 2458.80 1976.85Q2458.80 1973.03 2433.30 1943.70L2433.30 1943.70Q2406.53 1910.55 2410.35 1904.81Q2414.18 1899.08 2457.53 1910.55L2457.53 1910.55Q2522.55 1927.13 2541.68 1904.17L2541.68 1904.17Q2574.82 1867.20 2574.82 1737.15L2574.82 1737.15Q2574.82 1651.72 2565.90 1651.72L2565.90 1651.72Q2564.63 1651.72 2562.07 1656.83L2562.07 1656.83Q2558.25 1660.65 2509.80 1682.33Q2461.35 1704 2432.03 1724.40L2432.03 1724.40Q2409.07 1738.42 2393.78 1740.34Q2378.48 1742.25 2340.23 1733.33L2340.23 1733.33L2326.20 1729.50L2326.20 1776.67Q2326.20 1830.22 2303.25 1882.50L2303.25 1882.50L2286.68 1920.75Q2276.48 1948.80 2237.59 1983.22Q2198.70 2017.65 2196.15 2017.65Q2193.60 2017.65 2193.60 2007.45Q2193.60 1997.25 2185.31 1990.24Q2177.03 1983.22 2177.03 1973.66Q2177.03 1964.10 2168.74 1953.90Q2160.45 1943.70 2160.45 1934.78Q2160.45 1925.85 2152.16 1922.66Q2143.88 1919.47 2143.88 1902.90Q2143.88 1886.33 2134.95 1878.67L2134.95 1878.67Q2131.13 1876.13 2128.57 1869.11Q2126.03 1862.10 2126.66 1857Q2127.30 1851.90 2132.40 1851.90L2132.40 1851.90Q2136.22 1851.90 2160.45 1860.83L2160.45 1860.83Q2178.30 1867.20 2182.76 1866.56Q2187.22 1865.92 2197.43 1857L2197.43 1857Q2224.20 1828.95 2228.03 1684.88L2228.03 1684.88Q2229.30 1586.70 2225.47 1586.70L2225.47 1586.70Q2220.38 1586.70 2182.13 1640.25Q2143.88 1693.80 2143.88 1701.45L2143.88 1701.45Q2143.88 1707.83 2117.10 1742.89Q2090.32 1777.95 2072.47 1795.80L2072.47 1795.80Q2049.53 1817.47 2042.51 1821.30Q2035.50 1825.13 2013.83 1822.58L2013.83 1822.58Q1959 1817.47 1948.80 1789.42L1948.80 1789.42Q1943.70 1777.95 1946.89 1771.58Q1950.08 1765.20 1967.93 1751.17L1967.93 1751.17L2021.47 1700.17Q2101.80 1627.50 2141.32 1596.90L2141.32 1596.90Q2157.90 1584.15 2177.03 1567.57L2177.03 1567.57L2214 1533.15L2230.57 1517.85L2234.40 1410.75Q2239.50 1276.88 2234.40 1273.05L2234.40 1273.05Q2231.85 1270.50 2199.34 1278.15Q2166.82 1285.80 2160.45 1290.90L2160.45 1290.90Q2137.50 1308.75 2114.55 1298.55L2114.55 1298.55Q2099.25 1294.72 2099.25 1276.88L2099.25 1276.88Q2099.25 1265.40 2104.35 1260.30Q2109.45 1255.20 2133.68 1245L2133.68 1245Q2238.22 1197.82 2286.68 1229.70L2286.68 1229.70L2327.48 1255.20L2347.88 1269.22L2345.32 1335.53Q2342.78 1401.82 2339.59 1484.70Q2336.40 1567.57 2330.03 1602L2330.03 1602Q2322.38 1651.72 2333.85 1651.72L2333.85 1651.72Q2336.40 1651.72 2365.73 1633.24Q2395.05 1614.75 2400.79 1614.75Q2406.53 1614.75 2447.32 1591.80L2447.32 1591.80Q2504.70 1557.38 2553.15 1552.28L2553.15 1552.28L2565.90 1551L2565.90 1482.15Q2567.18 1412.03 2569.09 1322.14Q2571 1232.25 2565.26 1226.51Q2559.53 1220.77 2517.45 1218.22L2517.45 1218.22Q2457.53 1213.13 2424.38 1245L2424.38 1245Q2409.07 1260.30 2395.05 1255.20Q2381.03 1250.10 2381.03 1228.42ZM1698.90 1061.40L1698.90 1061.40Q1705.28 1051.20 1734.60 1062.67Q1763.92 1074.15 1777.95 1093.27L1777.95 1093.27Q1789.42 1106.02 1792.61 1106.02Q1795.80 1106.02 1807.28 1116.86Q1818.75 1127.70 1818.75 1164.67L1818.75 1164.67Q1818.75 1195.27 1813.01 1205.47Q1807.28 1215.67 1781.78 1218.22L1781.78 1218.22Q1760.10 1220.77 1753.09 1214.40Q1746.08 1208.02 1725.67 1167.22L1725.67 1167.22Q1711.65 1136.63 1702.72 1102.84Q1693.80 1069.05 1698.90 1061.40ZM1976.85 988.72L1976.85 988.72Q1988.33 983.62 1996.61 986.17Q2004.90 988.72 2030.40 1004.02L2030.40 1004.02Q2054.63 1016.77 2059.09 1021.87Q2063.55 1026.97 2063.55 1046.10L2063.55 1046.10Q2063.55 1066.50 2059.09 1074.79Q2054.63 1083.07 2031.68 1104.75L2031.68 1104.75Q2001.08 1136.63 1959 1172.32L1959 1172.32Q1909.28 1215.67 1916.93 1219.50L1916.93 1219.50Q1922.03 1223.32 1951.35 1219.50L1951.35 1219.50Q1992.15 1216.95 2018.93 1211.85L2018.93 1211.85Q2041.88 1209.30 2053.35 1218.22Q2064.82 1227.15 2067.38 1252.65L2067.38 1252.65Q2073.75 1290.90 2055.90 1301.10Q2038.05 1311.30 1969.20 1306.20L1969.20 1306.20Q1930.95 1303.65 1893.97 1304.92Q1857 1306.20 1853.17 1312.57L1853.17 1312.57Q1851.90 1312.57 1852.54 1313.85Q1853.17 1315.13 1856.36 1317.67Q1859.55 1320.22 1862.10 1321.50L1862.10 1321.50Q1872.30 1326.60 1888.88 1344.45Q1905.45 1362.30 1909.28 1372.50Q1913.10 1382.70 1930.95 1382.70L1930.95 1382.70Q1947.53 1382.70 1953.90 1390.99Q1960.28 1399.28 1966.65 1431.15L1966.65 1431.15Q1971.75 1463.03 1966.65 1471.95Q1961.55 1480.88 1936.05 1484.70L1936.05 1484.70Q1918.20 1487.25 1913.74 1492.35Q1909.28 1497.45 1904.18 1519.13L1904.18 1519.13Q1895.25 1544.63 1899.71 1552.28Q1904.18 1559.92 1923.30 1553.55L1923.30 1553.55Q1943.70 1548.45 2000.44 1549.72Q2057.18 1551 2064.19 1557.38Q2071.20 1563.75 2075.03 1582.24Q2078.85 1600.72 2076.30 1614.75L2076.30 1614.75Q2075.03 1623.67 2070.56 1626.22Q2066.10 1628.78 2049.53 1630.05L2049.53 1630.05Q2026.58 1631.33 1981.95 1622.40L1981.95 1622.40Q1899.08 1607.10 1896.53 1637.70L1896.53 1637.70Q1895.25 1650.45 1887.60 1674.67L1887.60 1674.67Q1862.10 1756.28 1862.10 1769.03L1862.10 1769.03Q1862.10 1777.95 1846.16 1802.17Q1830.22 1826.40 1825.76 1842.97Q1821.30 1859.55 1807.91 1877.40Q1794.53 1895.25 1794.53 1900.35Q1794.53 1905.45 1786.24 1908.64Q1777.95 1911.83 1777.95 1923.30L1777.95 1923.30Q1777.95 1937.33 1718.66 1995.97Q1659.38 2054.63 1642.16 2058.45Q1624.95 2062.28 1621.13 2058.45Q1617.30 2054.63 1624.95 2041.88L1624.95 2041.88Q1633.88 2024.03 1661.29 1983.86Q1688.70 1943.70 1695.08 1938.60L1695.08 1938.60Q1701.45 1934.78 1701.45 1928.40Q1701.45 1922.03 1707.83 1913.10L1707.83 1913.10Q1716.75 1902.90 1739.70 1850.63Q1762.65 1798.35 1769.03 1771.58L1769.03 1771.58Q1794.53 1675.95 1794.53 1656.83L1794.53 1656.83Q1794.53 1640.25 1774.13 1651.72L1774.13 1651.72Q1766.47 1655.55 1760.10 1659.38L1760.10 1659.38Q1747.35 1673.40 1716.75 1681.05Q1686.15 1688.70 1670.85 1702.72L1670.85 1702.72Q1644.08 1734.60 1608.38 1712.92L1608.38 1712.92Q1576.50 1695.08 1584.15 1670.85L1584.15 1670.85Q1585.42 1659.38 1628.14 1640.25Q1670.85 1621.13 1715.47 1609.65L1715.47 1609.65Q1758.83 1596.90 1780.50 1587.97L1780.50 1587.97L1800.90 1580.32L1800.90 1542.07Q1800.90 1508.92 1793.25 1504.46Q1785.60 1500 1762.65 1517.85L1762.65 1517.85Q1737.15 1535.70 1713.56 1529.32Q1689.97 1522.95 1677.22 1492.35L1677.22 1492.35Q1668.30 1473.22 1673.40 1460.47Q1678.50 1447.72 1695.08 1447.72L1695.08 1447.72Q1711.65 1447.72 1724.40 1438.80L1724.40 1438.80Q1748.63 1420.95 1798.35 1405.65L1798.35 1405.65Q1809.83 1401.82 1813.01 1396.72Q1816.20 1391.63 1818.75 1373.78L1818.75 1373.78Q1822.58 1347 1826.40 1332.97L1826.40 1332.97Q1827.67 1324.05 1824.49 1323.41Q1821.30 1322.78 1803.45 1324.05L1803.45 1324.05Q1776.67 1329.15 1762.65 1336.16Q1748.63 1343.17 1742.89 1343.17Q1737.15 1343.17 1707.19 1362.94Q1677.22 1382.70 1664.47 1382.70L1664.47 1382.70Q1650.45 1382.70 1637.06 1366.76Q1623.67 1350.82 1624.95 1335.53L1624.95 1335.53Q1626.22 1324.05 1633.24 1318.31Q1640.25 1312.57 1668.30 1298.55L1668.30 1298.55Q1707.83 1278.15 1762.65 1260.30Q1817.47 1242.45 1817.47 1237.99Q1817.47 1233.53 1849.35 1190.81Q1881.22 1148.10 1892.06 1122.60Q1902.90 1097.10 1908.64 1088.81Q1914.38 1080.52 1923.94 1060.76Q1933.50 1041 1950.71 1016.77Q1967.93 992.55 1976.85 988.72Z"/>
  </svg>