<svg xmlns="http://www.w3.org/2000/svg" viewBox="0 0 3000 3000" width="3000" height="3000">
    <path fill="#000000" d="M710 1306L710 1306Q766 1314 786 1314L786 1314L960 1302L960 1124L800 1136Q786 1138 772 1138L772 1138L730 1138Q688 1130 664 1072L664 1072Q656 1048 656 1036L656 1036Q656 1028 668 1028L668 1028L680 1028Q728 1034 758 1034L758 1034L770 1034L1004 1018Q1026 984 1094 842Q1162 700 1162 644L1162 644L1162 634Q1162 600 1182 600L1182 600Q1188 600 1216 612L1216 612Q1298 648 1298 696L1298 696Q1298 724 1227 835Q1156 946 1110 1010L1110 1010L1164 1006Q1204 1002 1222 996Q1240 990 1251 990Q1262 990 1284 1004L1284 1004Q1344 1042 1344 1068L1344 1068Q1344 1100 1302 1100L1302 1100L1080 1116L1076 1292L1132 1288Q1176 1286 1193 1279Q1210 1272 1224 1272Q1238 1272 1278 1301Q1318 1330 1318 1352L1318 1352Q1318 1380 1272 1384L1272 1384L1072 1398Q1070 1464 1058 1596L1058 1596Q1062 1596 1104 1584L1104 1584L1202 1556Q1340 1520 1361 1520Q1382 1520 1382 1533Q1382 1546 1356 1564L1356 1564Q1308 1592 1044 1692L1044 1692Q996 1962 856 2128L856 2128Q778 2220 650 2306L650 2306Q630 2318 615 2318Q600 2318 600 2304Q600 2290 622 2268L622 2268Q744 2148 818 2023Q892 1898 924 1734L924 1734Q712 1810 672 1810Q632 1810 609 1785Q586 1760 575 1734Q564 1708 564 1703Q564 1698 572 1698L572 1698L578 1698L598 1700Q670 1700 942 1626L942 1626Q952 1552 956 1406L956 1406L842 1414L818 1416Q762 1416 732 1378Q702 1340 702 1323Q702 1306 710 1306ZM870 956L870 956Q812 850 764 789Q716 728 716 713Q716 698 738 678Q760 658 777 658Q794 658 828 694Q862 730 899 780Q936 830 963 874Q990 918 990 933Q990 948 965 971Q940 994 915 994Q890 994 870 956ZM2292 810L2286 2196L2290 2244Q2290 2274 2262 2307Q2234 2340 2207 2340Q2180 2340 2127 2309Q2074 2278 1983 2201Q1892 2124 1892 2096L1892 2096Q1892 2082 1907 2082Q1922 2082 1998 2123Q2074 2164 2170 2194L2170 2194L2174 812L1972 832Q1936 836 1905 836Q1874 836 1857 820Q1840 804 1824 775Q1808 746 1808 734Q1808 722 1822 722L1822 722L1830 722Q1894 730 1904 730L1904 730L1920 730Q1926 730 1934 728L1934 728L2194 704Q2204 702 2212 702L2212 702L2224 702Q2270 702 2285 729Q2300 756 2300 766L2300 766L2292 810ZM1770 846L1768 2168L1772 2218Q1772 2250 1742 2283Q1712 2316 1684 2316L1684 2316Q1634 2316 1510 2212L1510 2212Q1390 2108 1390 2080L1390 2080Q1390 2066 1407 2066Q1424 2066 1483 2097Q1542 2128 1652 2170L1652 2170L1652 850L1466 870Q1426 874 1397 874Q1368 874 1347 855Q1326 836 1314 803Q1302 770 1302 768L1302 768Q1302 756 1311 756Q1320 756 1337 761Q1354 766 1378 766L1378 766L1412 766Q1420 766 1428 764L1428 764L1670 738Q1680 736 1688 736L1688 736L1700 736Q1738 736 1758 761Q1778 786 1778 800L1778 800L1770 846ZM2014 1350L2014 1350Q1944 1226 1852 1112L1852 1112Q1834 1090 1834 1074Q1834 1058 1857 1039Q1880 1020 1894 1020Q1908 1020 1936 1048Q1964 1076 1996 1119Q2028 1162 2059 1206Q2090 1250 2109 1283Q2128 1316 2128 1333Q2128 1350 2098 1368Q2068 1386 2052 1386Q2036 1386 2014 1350ZM1554 1238Q1580 1280 1597 1313Q1614 1346 1614 1362Q1614 1378 1584 1398Q1554 1418 1536 1418Q1518 1418 1481 1340Q1444 1262 1395 1197Q1346 1132 1346 1117Q1346 1102 1367 1084Q1388 1066 1404 1066Q1420 1066 1445 1092Q1470 1118 1499 1157Q1528 1196 1554 1238ZM1894 1696L1894 1696Q2004 1576 2090 1452L2090 1452Q2116 1414 2136 1414L2136 1414Q2148 1414 2148 1440Q2148 1466 2082 1591Q2016 1716 1979 1775Q1942 1834 1904 1834Q1866 1834 1826 1808Q1786 1782 1786 1774Q1786 1766 1824 1747Q1862 1728 1894 1696ZM1616 1464L1616 1464Q1630 1464 1630 1492Q1630 1520 1542 1650Q1454 1780 1404 1846Q1354 1912 1326 1912L1326 1912Q1280 1912 1218 1864L1218 1864Q1202 1854 1202 1842Q1202 1830 1224 1821Q1246 1812 1284 1788L1284 1788Q1376 1732 1568 1498L1568 1498Q1596 1464 1616 1464Z"/>
  </svg>