<svg xmlns="http://www.w3.org/2000/svg" viewBox="0 0 3000 3000" width="3000" height="3000">
    <path fill="#000000" d="M684.00 981.08L684.00 981.08Q659.77 973.42 659.77 956.85L659.77 956.85Q659.77 949.20 663.60 937.73L663.60 937.73Q673.80 908.40 690.37 908.40L690.37 908.40Q720.97 908.40 959.40 1005.30L959.40 1005.30Q993.82 1019.33 1016.14 1029.53Q1038.45 1039.72 1038.45 1058.21Q1038.45 1076.70 1026.34 1096.46Q1014.22 1116.22 1004.02 1116.22Q993.82 1116.22 917.96 1074.79Q842.10 1033.35 684.00 981.08ZM504.22 1165.95L504.22 1165.95Q529.72 1171.05 548.85 1171.05L548.85 1171.05L877.80 1146.83Q895.65 1146.83 917.96 1159.58Q940.27 1172.33 940.27 1194L940.27 1194L933.90 1224.60L933.90 1353.38Q987.45 1438.80 1019.32 1483.43L1019.32 1483.43Q1155.75 1389.08 1234.80 1290.90L1234.80 1290.90Q1253.92 1266.68 1256.47 1245Q1259.02 1223.33 1269.86 1223.33Q1280.70 1223.33 1296.00 1237.35L1296.00 1237.35Q1338.07 1275.60 1338.07 1299.83L1338.07 1299.83Q1338.07 1315.13 1269.22 1376.33L1269.22 1376.33Q1146.82 1483.43 1062.67 1539.53L1062.67 1539.53Q1229.70 1746.08 1443.90 1860.83L1443.90 1860.83Q1466.85 1872.30 1466.85 1881.23L1466.85 1881.23Q1466.85 1885.05 1454.10 1897.80L1454.10 1897.80Q1419.67 1934.78 1389.07 1934.78L1389.07 1934.78Q1380.15 1934.78 1369.95 1927.13L1369.95 1927.13Q1247.55 1845.53 1134.07 1729.50Q1020.60 1613.48 932.62 1482.15L932.62 1482.15L931.35 1930.95L932.62 1979.40Q932.62 2015.10 912.86 2032.95Q893.10 2050.80 873.97 2050.80Q854.85 2050.80 822.97 2036.14Q791.10 2021.48 754.12 1998.53Q717.15 1975.58 683.36 1950.08Q649.57 1924.58 627.90 1904.18Q606.22 1883.78 606.22 1873.58Q606.22 1863.38 617.70 1863.38Q629.17 1863.38 686.55 1890.79Q743.92 1918.20 844.65 1946.25L844.65 1946.25L847.20 1224.60L607.50 1242.45Q582.00 1245 560.96 1245Q539.92 1245 523.99 1229.06Q508.05 1213.13 500.40 1195.91Q492.75 1178.70 492.75 1174.88L492.75 1174.88Q492.75 1165.95 504.22 1165.95ZM348.67 1387.80L348.67 1387.80Q389.47 1392.90 408.60 1392.90L408.60 1392.90L425.17 1392.90L696.75 1369.95Q701.85 1368.68 705.67 1368.68L705.67 1368.68L719.70 1368.68Q731.17 1368.68 753.49 1383.34Q775.80 1398 775.80 1413.94Q775.80 1429.88 768.15 1437.53Q760.50 1445.18 757.95 1449L757.95 1449Q675.07 1645.35 532.27 1781.78L532.27 1781.78Q422.62 1887.60 323.17 1933.50L323.17 1933.50Q284.92 1951.35 272.81 1951.35Q260.70 1951.35 260.70 1943.70L260.70 1943.70Q260.70 1930.95 282.37 1916.93L282.37 1916.93Q404.77 1828.95 506.77 1706.55Q608.77 1584.15 666.15 1445.18L666.15 1445.18L451.95 1463.03Q429.00 1465.58 416.25 1465.58Q403.50 1465.58 383.10 1457.29Q362.70 1449 342.30 1405.65L342.30 1405.65Q338.47 1398 338.47 1392.90Q338.47 1387.80 348.67 1387.80ZM1742.25 1886.33L1748.63 961.95Q1748.63 933.90 1737.15 917.32Q1725.67 900.75 1725.67 896.92L1725.67 896.92Q1725.67 885.45 1744.16 885.45Q1762.65 885.45 1789.42 893.74Q1816.20 902.03 1821.94 910.95Q1827.67 919.88 1827.67 932.63L1827.67 932.63L1823.85 2017.65Q1823.85 2048.25 1799.63 2048.25L1799.63 2048.25Q1781.78 2048.25 1756.28 2032.95Q1730.78 2017.65 1730.78 1989.60L1730.78 1989.60Q1730.78 1983.23 1736.51 1963.46Q1742.25 1943.70 1742.25 1886.33L1742.25 1886.33ZM2614.35 1065.22L2091.60 1095.83Q2081.40 1097.10 2071.20 1097.10L2071.20 1097.10L2054.63 1097.10Q2029.13 1097.10 2022.75 1091.36Q2016.38 1085.63 1997.89 1067.14Q1979.40 1048.65 1979.40 1033.35Q1979.40 1018.05 1985.78 1018.05Q1992.15 1018.05 2006.18 1021.24Q2020.20 1024.42 2048.25 1024.42L2048.25 1024.42L2064.82 1024.42L2503.43 1000.20Q2532.75 997.65 2549.96 991.91Q2567.18 986.17 2572.28 986.17Q2577.38 986.17 2593.95 997.65L2593.95 997.65Q2643.68 1028.25 2643.68 1047.38L2643.68 1047.38Q2643.68 1061.40 2614.35 1065.22L2614.35 1065.22ZM1956.45 1414.58L1956.45 1414.58Q1937.33 1414.58 1930.95 1385.25L1930.95 1385.25Q1906.72 1279.43 1867.20 1196.55L1867.20 1196.55Q1859.55 1182.53 1859.55 1173.60L1859.55 1173.60Q1859.55 1160.85 1877.40 1154.47Q1895.25 1148.10 1902.90 1148.10L1902.90 1148.10Q1923.30 1148.10 1966.65 1252.65Q2010 1357.20 2010 1378.88Q2010 1400.55 1988.96 1407.56Q1967.93 1414.58 1956.45 1414.58ZM1642.80 1173.60L1642.80 1173.60L1655.55 1174.88Q1675.95 1177.43 1682.33 1184.44Q1688.70 1191.45 1688.70 1205.47L1688.70 1205.47L1688.70 1210.58Q1681.05 1357.20 1642.80 1516.58L1642.80 1516.58Q1637.70 1540.80 1616.03 1540.80Q1594.35 1540.80 1577.78 1529.33Q1561.20 1517.85 1561.20 1508.93Q1561.20 1500 1573.31 1460.47Q1585.42 1420.95 1599.45 1345.72Q1613.47 1270.50 1616.66 1229.06Q1619.85 1187.63 1624.31 1180.61Q1628.78 1173.60 1642.80 1173.60ZM2076.30 1720.58L2076.30 1720.58Q2081.40 1679.78 2081.40 1651.73L2081.40 1651.73L2081.40 1633.88L2059.72 1315.13Q2055.90 1270.50 2043.15 1248.19Q2030.40 1225.88 2030.40 1217.59Q2030.40 1209.30 2048.25 1209.30Q2066.10 1209.30 2141.32 1236.08L2141.32 1236.08L2526.38 1214.40L2537.85 1214.40Q2564.63 1214.40 2583.75 1246.28L2583.75 1246.28Q2591.40 1257.75 2591.40 1264.13Q2591.40 1270.50 2586.94 1277.51Q2582.48 1284.53 2581.20 1290.90L2581.20 1290.90L2549.32 1635.15Q2586.30 1674.68 2586.30 1688.70Q2586.30 1702.73 2574.19 1704.64Q2562.07 1706.55 2544.23 1707.83L2544.23 1707.83L2164.28 1724.40L2165.55 1739.70L2165.55 1743.53Q2165.55 1771.58 2142.60 1771.58L2142.60 1771.58Q2113.28 1771.58 2094.79 1755.64Q2076.30 1739.70 2076.30 1720.58ZM2491.95 1418.40L2500.88 1289.63L2138.78 1308.75L2146.43 1436.25L2491.95 1418.40ZM2475.38 1638.98L2485.58 1491.08L2151.53 1507.65L2160.45 1651.73L2475.38 1638.98ZM2707.43 1930.95L2017.65 1951.35Q1992.15 1953.90 1974.94 1953.90Q1957.72 1953.90 1941.79 1938.60Q1925.85 1923.30 1916.29 1905.45Q1906.72 1887.60 1906.72 1879.31Q1906.72 1871.03 1914.38 1871.03Q1922.03 1871.03 1937.96 1874.85Q1953.90 1878.68 1980.68 1878.68L1980.68 1878.68L1990.88 1878.68L2599.05 1859.55Q2627.10 1859.55 2643.04 1854.45Q2658.98 1849.35 2668.54 1849.35Q2678.10 1849.35 2694.68 1861.46Q2711.25 1873.58 2724.64 1888.88Q2738.03 1904.18 2738.03 1913.10L2738.03 1913.10Q2738.03 1928.40 2707.43 1930.95L2707.43 1930.95Z"/>
  </svg>