<svg xmlns="http://www.w3.org/2000/svg" viewBox="0 0 3000 3000" width="3000" height="3000">
    <path fill="#000000" d="M604.95 1436.25L604.95 1436.25Q621.52 1428.60 627.90 1429.24Q634.27 1429.88 657.22 1441.35L657.22 1441.35Q675.07 1450.28 681.45 1450.28Q687.82 1450.28 700.57 1468.13L700.57 1468.13L714.60 1485.97L694.20 1528.05Q673.80 1568.85 673.80 1575.22Q673.80 1581.60 666.79 1595.63Q659.77 1609.65 650.85 1630.69Q641.92 1651.72 634.27 1665.75L634.27 1665.75Q597.30 1739.70 576.26 1771.58Q555.22 1803.45 520.80 1837.88L520.80 1837.88Q476.17 1881.22 423.26 1916.29Q370.35 1951.35 353.77 1948.80L353.77 1948.80Q346.12 1947.53 343.57 1939.24Q341.02 1930.95 348.67 1924.58L348.67 1924.58Q358.87 1911.83 408.60 1848.71Q458.32 1785.60 474.90 1760.10L474.90 1760.10Q520.80 1695.08 547.57 1623.67L547.57 1623.67L561.60 1587.97Q567.97 1573.95 566.06 1563.11Q564.15 1552.28 557.77 1552.28L557.77 1552.28Q543.75 1552.28 502.95 1589.25L502.95 1589.25Q472.35 1618.58 468.52 1618.58Q464.70 1618.58 464.70 1627.50L464.70 1627.50Q464.70 1636.42 452.59 1643.44Q440.47 1650.45 431.55 1647.90L431.55 1647.90Q421.35 1644.08 397.76 1622.40Q374.17 1600.72 371.62 1591.80L371.62 1591.80Q369.07 1587.97 383.10 1577.14Q397.12 1566.30 432.82 1540.80L432.82 1540.80Q496.57 1498.72 516.97 1489.80Q537.37 1480.88 540.56 1476.41Q543.75 1471.95 560.96 1462.39Q578.17 1452.82 581.36 1450.28Q584.55 1447.72 604.95 1436.25ZM654.67 968.32L654.67 968.32Q655.95 967.05 670.61 958.76Q685.27 950.47 729.90 950.47Q774.52 950.47 796.84 963.22Q819.15 975.97 826.80 978.52L826.80 978.52Q835.72 982.35 851.66 1011.04Q867.60 1039.72 867.60 1055.02L867.60 1055.02Q867.60 1076.70 848.47 1110.49Q829.35 1144.27 815.32 1144.27L815.32 1144.27Q808.95 1144.27 845.92 1178.70L845.92 1178.70Q872.70 1206.75 879.71 1221.41Q886.72 1236.07 875.25 1245L875.25 1245Q861.22 1257.75 847.20 1335.53L847.20 1335.53Q840.82 1366.13 840.82 1420.95Q840.82 1475.77 847.20 1475.77L847.20 1475.77Q862.50 1475.77 916.05 1423.50L916.05 1423.50Q941.55 1396.72 989.36 1334.89Q1037.17 1273.05 1047.38 1247.55L1047.38 1247.55Q1058.85 1228.42 1058.85 1225.88L1058.85 1225.88Q1061.40 1223.32 1069.69 1227.15Q1077.97 1230.97 1088.17 1238.63Q1098.38 1246.28 1103.47 1253.92L1103.47 1253.92Q1113.67 1269.22 1127.70 1280.70Q1141.72 1292.17 1144.27 1312.57L1144.27 1312.57Q1146.82 1326.60 1144.27 1333.61Q1141.72 1340.63 1130.25 1355.92L1130.25 1355.92Q1113.67 1377.60 1077.97 1406.92Q1042.27 1436.25 1040.36 1440.07Q1038.45 1443.90 1014.86 1461.11Q991.27 1478.32 970.87 1496.17L970.87 1496.17Q918.60 1540.80 907.12 1545.90L907.12 1545.90Q903.30 1548.45 903.30 1558.01Q903.30 1567.57 907.12 1567.57L907.12 1567.57Q912.22 1567.57 940.27 1602L940.27 1602Q993.82 1665.75 1025.70 1686.15L1025.70 1686.15Q1047.38 1701.45 1053.75 1707.83L1053.75 1707.83Q1060.13 1714.20 1118.77 1753.72Q1177.42 1793.25 1200.38 1806L1200.38 1806Q1232.25 1822.58 1282.61 1844.89Q1332.97 1867.20 1338.07 1867.20Q1343.17 1867.20 1362.30 1890.15L1362.30 1890.15Q1385.25 1914.38 1381.42 1925.85Q1377.60 1937.33 1341.90 1942.42L1341.90 1942.42Q1287.07 1948.80 1250.10 1967.92L1250.10 1967.92Q1236.07 1975.58 1230.34 1975.58Q1224.60 1975.58 1212.49 1982.59Q1200.38 1989.60 1188.90 1985.78L1188.90 1985.78Q1174.88 1981.95 1135.99 1959Q1097.10 1936.05 1080.52 1923.30L1080.52 1923.30Q1062.67 1906.72 1051.20 1896.53L1051.20 1896.53Q1018.05 1871.03 970.87 1822.58Q923.70 1774.13 917.32 1758.83L917.32 1758.83Q912.22 1746.08 879.07 1696.35L879.07 1696.35Q856.12 1664.47 856.12 1660.65Q856.12 1656.83 851.02 1649.81Q845.92 1642.80 840.19 1638.34Q834.45 1633.88 833.17 1636.42L833.17 1636.42Q829.35 1638.97 828.71 1816.20Q828.07 1993.42 825.52 2004.90L825.52 2004.90Q811.50 2081.40 760.50 2106.90L760.50 2106.90Q733.72 2120.93 719.70 2117.74Q705.67 2114.55 694.20 2092.88L694.20 2092.88Q682.72 2073.75 671.25 2067.38L671.25 2067.38Q647.02 2050.80 627.26 2034.22Q607.50 2017.65 607.50 2012.55L607.50 2012.55Q607.50 2004.90 596.02 1992.15L596.02 1992.15Q585.82 1976.85 590.92 1976.85L590.92 1976.85Q593.47 1976.85 602.40 1980.67L602.40 1980.67Q612.60 1985.78 660.41 1985.78Q708.22 1985.78 714.60 1979.40L714.60 1979.40Q728.62 1969.20 734.36 1907.36Q740.10 1845.53 742.65 1678.50L742.65 1678.50L746.47 1468.13L732.45 1441.35Q718.42 1414.57 718.42 1409.47Q718.42 1404.38 710.77 1398.64Q703.12 1392.90 703.12 1380.15L703.12 1380.15Q703.12 1372.50 706.95 1369.95Q710.77 1367.40 726.07 1368.67L726.07 1368.67L747.75 1369.95L751.57 1315.13Q756.67 1260.30 752.85 1257.75L752.85 1257.75Q751.57 1256.47 717.15 1267.31Q682.72 1278.15 661.05 1288.35L661.05 1288.35Q644.47 1294.72 618.97 1313.21Q593.47 1331.70 584.55 1343.17L584.55 1343.17Q576.90 1350.82 573.07 1351.46Q569.25 1352.10 560.32 1348.28L560.32 1348.28Q547.57 1341.90 528.45 1324.05L528.45 1324.05Q496.57 1293.45 516.97 1278.15L516.97 1278.15Q527.17 1269.22 583.27 1241.81Q639.37 1214.40 658.50 1208.02L658.50 1208.02Q692.92 1196.55 757.95 1162.13L757.95 1162.13Q778.35 1151.92 782.81 1146.82Q787.27 1141.72 784.72 1138.54Q782.17 1135.35 765.60 1126.42L765.60 1126.42Q740.10 1113.67 724.80 1117.50L724.80 1117.50Q714.60 1118.77 712.05 1117.50Q709.50 1116.22 709.50 1107.30L709.50 1107.30Q709.50 1094.55 719.70 1081.80Q729.90 1069.05 729.90 1066.50Q729.90 1063.95 703.12 1037.17L703.12 1037.17Q687.82 1019.32 669.34 995.10Q650.85 970.87 654.67 968.32ZM2401.43 1753.72L2401.43 1753.72Q2514.90 1749.90 2517.45 1747.35Q2520 1744.80 2573.55 1747.35Q2627.10 1749.90 2656.43 1765.20L2656.43 1765.20L2687.03 1781.78L2692.13 1813.65Q2695.95 1845.53 2708.06 1864.01Q2720.18 1882.50 2713.80 1891.42L2713.80 1891.42Q2703.60 1908 2685.75 1910.55Q2667.90 1913.10 2619.45 1908L2619.45 1908Q2577.38 1901.63 2551.88 1898.44Q2526.38 1895.25 2520 1890.15L2520 1890.15Q2505.98 1879.95 2273.93 1879.95L2273.93 1879.95Q2163 1879.95 2116.46 1885.69Q2069.93 1891.42 2026.58 1911.83L2026.58 1911.83Q1997.25 1925.85 1985.78 1924.58Q1974.30 1923.30 1951.35 1902.90L1951.35 1902.90L1920.75 1877.40Q1910.55 1871.03 1907.36 1871.03Q1904.18 1871.03 1895.25 1860.83L1895.25 1860.83L1883.78 1851.90L1895.25 1832.78Q1901.63 1820.03 1911.19 1814.92Q1920.75 1809.83 1944.97 1800.90L1944.97 1800.90Q2006.18 1781.78 2126.03 1769.03L2126.03 1769.03Q2261.18 1756.28 2401.43 1753.72ZM1661.92 1298.55L1661.92 1298.55Q1669.58 1290.90 1672.76 1290.90Q1675.95 1290.90 1688.70 1297.28L1688.70 1297.28L1705.28 1307.47L1702.72 1361.03Q1701.45 1413.30 1704.64 1413.30Q1707.83 1413.30 1723.13 1404.38Q1738.42 1395.45 1741.61 1398Q1744.80 1400.55 1736.51 1424.14Q1728.22 1447.72 1724.40 1475.77L1724.40 1475.77Q1710.38 1563.75 1701.45 1572.67L1701.45 1572.67Q1697.63 1576.50 1697.63 1593.07L1697.63 1593.07Q1697.63 1609.65 1672.76 1630.69Q1647.90 1651.72 1628.78 1651.72L1628.78 1651.72Q1608.38 1651.72 1596.90 1632.60Q1585.42 1613.47 1565.03 1548.45L1565.03 1548.45Q1558.65 1524.22 1560.56 1492.99Q1562.47 1461.75 1572.67 1447.72L1572.67 1447.72Q1576.50 1441.35 1602 1395.45L1602 1395.45Q1644.08 1316.40 1661.92 1298.55ZM2236.95 1276.88L2236.95 1276.88Q2285.40 1269.22 2307.71 1269.86Q2330.03 1270.50 2386.13 1280.70L2386.13 1280.70Q2488.13 1298.55 2516.18 1329.15L2516.18 1329.15Q2527.65 1339.35 2528.29 1359.11Q2528.93 1378.88 2520 1394.17L2520 1394.17Q2513.63 1409.47 2513.63 1415.85Q2513.63 1422.22 2500.88 1450.28Q2488.13 1478.32 2484.94 1496.81Q2481.75 1515.30 2474.74 1530.60Q2467.73 1545.90 2455.61 1579.69Q2443.50 1613.47 2419.28 1637.70Q2395.05 1661.92 2382.94 1665.75Q2370.82 1669.58 2359.35 1656.83L2359.35 1656.83Q2347.88 1642.80 2345.32 1636.42L2345.32 1636.42Q2344.05 1628.78 2268.82 1631.33Q2193.60 1633.88 2182.13 1642.80L2182.13 1642.80Q2156.63 1664.47 2128.57 1603.28L2128.57 1603.28L2109.45 1558.65Q2094.15 1524.22 2084.59 1482.79Q2075.03 1441.35 2068.65 1420.31Q2062.28 1399.28 2069.93 1382.70Q2077.57 1366.13 2077.57 1351.46Q2077.57 1336.80 2094.15 1324.05L2094.15 1324.05Q2120.93 1302.38 2148.34 1294.09Q2175.75 1285.80 2236.95 1276.88ZM2338.95 1347L2338.95 1347Q2309.63 1332.97 2242.69 1341.26Q2175.75 1349.55 2145.15 1369.95L2145.15 1369.95Q2136.22 1376.32 2134.95 1380.79Q2133.68 1385.25 2136.22 1403.10L2136.22 1403.10Q2140.05 1426.05 2142.60 1429.88Q2145.15 1433.70 2177.03 1423.50L2177.03 1423.50Q2207.63 1413.30 2244.60 1408.20Q2281.57 1403.10 2295.60 1406.92L2295.60 1406.92Q2318.55 1410.75 2317.91 1432.42Q2317.28 1454.10 2294.32 1466.85L2294.32 1466.85Q2277.75 1477.05 2258.63 1477.05L2258.63 1477.05Q2245.88 1477.05 2206.99 1487.25Q2168.10 1497.45 2163 1502.55L2163 1502.55Q2160.45 1505.10 2169.38 1530.60L2169.38 1530.60Q2169.38 1531.88 2170.65 1535.70L2170.65 1535.70Q2177.03 1552.28 2185.31 1554.82Q2193.60 1557.38 2240.78 1552.28L2240.78 1552.28Q2250.97 1551 2254.80 1551L2254.80 1551Q2304.53 1547.17 2314.73 1543.99Q2324.93 1540.80 2324.93 1533.15L2324.93 1533.15Q2324.93 1521.67 2332.57 1507.65L2332.57 1507.65Q2342.78 1488.52 2350.43 1450.91Q2358.07 1413.30 2356.80 1386.53L2356.80 1386.53Q2355.53 1363.57 2352.34 1357.84Q2349.15 1352.10 2338.95 1347ZM1910.55 1245L1910.55 1245Q1929.68 1239.90 1960.28 1241.81Q1990.88 1243.72 2008.73 1252.65L2008.73 1252.65Q2022.75 1257.75 2028.49 1271.78Q2034.22 1285.80 2038.05 1321.50L2038.05 1321.50Q2040.60 1354.65 2032.95 1372.50L2032.95 1372.50Q2008.73 1419.67 1983.22 1419.67L1983.22 1419.67Q1970.47 1419.67 1961.55 1410.11Q1952.63 1400.55 1940.51 1376.32Q1928.40 1352.10 1909.28 1327.88L1909.28 1327.88Q1893.97 1311.30 1885.05 1287.71Q1876.13 1264.13 1883.78 1256.47L1883.78 1256.47Q1887.60 1252.65 1910.55 1245ZM2248.43 1057.57L2248.43 1057.57Q2363.18 1043.55 2416.73 1060.13L2416.73 1060.13Q2449.88 1071.60 2456.25 1081.80L2456.25 1081.80Q2470.28 1106.02 2440.95 1141.72L2440.95 1141.72L2426.93 1159.57L2359.35 1162.13Q2261.18 1165.95 2212.72 1194L2212.72 1194Q2192.32 1206.75 2177.03 1206.75L2177.03 1206.75Q2164.28 1206.75 2143.24 1194Q2122.20 1181.25 2113.28 1168.50L2113.28 1168.50Q2106.90 1158.30 2094.15 1144.27L2094.15 1144.27Q2078.85 1128.97 2081.40 1116.86Q2083.95 1104.75 2106.90 1094.55L2106.90 1094.55Q2160.45 1067.77 2248.43 1057.57ZM1830.22 1006.57L1830.22 1006.57Q1851.90 1005.30 1870.39 1015.50Q1888.88 1025.70 1899.08 1043.55L1899.08 1043.55Q1906.72 1056.30 1904.81 1065.22Q1902.90 1074.15 1892.70 1090.72L1892.70 1090.72Q1879.95 1112.40 1879.95 1132.16Q1879.95 1151.92 1872.30 1158.30L1872.30 1158.30Q1868.47 1162.13 1866.56 1200.38Q1864.65 1238.63 1860.83 1419.67L1860.83 1419.67Q1858.28 1540.80 1853.17 1565.66Q1848.08 1590.53 1848.08 1624.31Q1848.08 1658.10 1842.34 1708.46Q1836.60 1758.83 1834.69 1872.94Q1832.78 1987.05 1828.95 2021.47L1828.95 2021.47Q1826.40 2045.70 1822.58 2050.80Q1818.75 2055.90 1804.72 2059.72L1804.72 2059.72Q1766.47 2069.93 1753.72 2030.40L1753.72 2030.40Q1747.35 2011.28 1743.53 2011.28L1743.53 2011.28Q1740.97 2011.28 1740.34 1995.34Q1739.70 1979.40 1740.97 1956.45Q1742.25 1933.50 1746.08 1914.38L1746.08 1914.38Q1771.58 1795.80 1785.60 1362.30L1785.60 1362.30Q1797.08 1038.45 1806 1018.05L1806 1018.05Q1812.38 1007.85 1830.22 1006.57Z"/>
  </svg>