<svg xmlns="http://www.w3.org/2000/svg" viewBox="0 0 3000 3000" width="3000" height="3000">
    <path fill="#000000" d="M1259.77 2388.67Q1212.89 2388.67 1190.43 2369.14Q1167.97 2349.61 1167.97 2306.64L1167.97 2306.64Q1167.97 2224.61 1255.86 2224.61L1255.86 2224.61L1353.52 2224.61Q1429.69 2224.61 1433.59 2144.53L1433.59 2144.53L1433.59 1193.36Q1433.59 1119.14 1365.23 1115.23L1365.23 1115.23L916.02 1115.23Q826.17 1115.23 826.17 1039.06L826.17 1039.06Q826.17 962.89 916.02 962.89L916.02 962.89L1429.69 962.89Q1519.53 962.89 1558.59 1000.98Q1597.66 1039.06 1591.80 1125L1591.80 1125L1591.80 1222.66Q1664.06 1400.39 1734.38 1507.81L1734.38 1507.81Q1960.94 1298.83 2087.89 1160.16L2087.89 1160.16Q2142.58 1097.66 2185.55 1097.66L2185.55 1097.66Q2275.39 1097.66 2275.39 1183.59L2275.39 1183.59Q2275.39 1275.39 1806.64 1621.09L1806.64 1621.09Q2000 1884.77 2308.59 2039.06L2308.59 2039.06Q2388.67 2078.13 2388.67 2136.72L2388.67 2136.72Q2388.67 2230.47 2302.73 2230.47L2302.73 2230.47Q2238.28 2230.47 2083.98 2117.19L2083.98 2117.19Q1777.34 1896.48 1591.80 1509.77L1591.80 1509.77L1591.80 2195.31Q1607.42 2404.30 1396.48 2388.67L1396.48 2388.67L1259.77 2388.67ZM687.50 2240.23Q611.33 2240.23 611.33 2152.34L611.33 2152.34Q611.33 2099.61 685.55 2054.69L685.55 2054.69Q863.28 1949.22 972.66 1777.34L972.66 1777.34Q1082.03 1605.47 1082.03 1533.20L1082.03 1533.20Q1082.03 1509.77 1068.36 1499.02Q1054.69 1488.28 1023.44 1488.28L1023.44 1488.28L726.56 1488.28Q636.72 1488.28 636.72 1412.11L636.72 1412.11Q636.72 1333.98 726.56 1333.98L726.56 1333.98L1103.52 1333.98Q1253.91 1333.98 1253.91 1449.22L1253.91 1449.22Q1253.91 1554.69 1164.06 1751.95L1164.06 1751.95Q1078.13 1943.36 921.88 2093.75L921.88 2093.75Q769.53 2240.23 687.50 2240.23L687.50 2240.23ZM1738.28 892.58Q1710.94 892.58 1591.80 855.47L1591.80 855.47Q1453.13 814.45 1289.06 777.34L1289.06 777.34Q1193.36 755.86 1148.44 740.23L1148.44 740.23Q1121.09 730.47 1121.09 687.50L1121.09 687.50Q1121.09 654.30 1143.55 632.81Q1166.02 611.33 1205.08 611.33L1205.08 611.33Q1281.25 611.33 1644.53 707.03L1644.53 707.03Q1818.36 753.91 1818.36 808.59L1818.36 808.59Q1818.36 892.58 1738.28 892.58L1738.28 892.58Z"/>
  </svg>