<svg xmlns="http://www.w3.org/2000/svg" viewBox="0 0 3000 3000" width="3000" height="3000">
    <path fill="#000000" d="M1096 1400L1096 1400Q1122 1388 1132 1389Q1142 1390 1178 1408L1178 1408Q1206 1422 1216 1422Q1226 1422 1246 1450L1246 1450L1268 1478L1236 1544Q1204 1608 1204 1618Q1204 1628 1193 1650Q1182 1672 1168 1705Q1154 1738 1142 1760L1142 1760Q1084 1876 1051 1926Q1018 1976 964 2030L964 2030Q894 2098 811 2153Q728 2208 702 2204L702 2204Q690 2202 686 2189Q682 2176 694 2166L694 2166Q710 2146 788 2047Q866 1948 892 1908L892 1908Q964 1806 1006 1694L1006 1694L1028 1638Q1038 1616 1035 1599Q1032 1582 1022 1582L1022 1582Q1000 1582 936 1640L936 1640Q888 1686 882 1686Q876 1686 876 1700L876 1700Q876 1714 857 1725Q838 1736 824 1732L824 1732Q808 1726 771 1692Q734 1658 730 1644L730 1644Q726 1638 748 1621Q770 1604 826 1564L826 1564Q926 1498 958 1484Q990 1470 995 1463Q1000 1456 1027 1441Q1054 1426 1059 1422Q1064 1418 1096 1400ZM1174 666L1174 666Q1176 664 1199 651Q1222 638 1292 638Q1362 638 1397 658Q1432 678 1444 682L1444 682Q1458 688 1483 733Q1508 778 1508 802L1508 802Q1508 836 1478 889Q1448 942 1426 942L1426 942Q1416 942 1474 996L1474 996Q1516 1040 1527 1063Q1538 1086 1520 1100L1520 1100Q1498 1120 1476 1242L1476 1242Q1466 1290 1466 1376Q1466 1462 1476 1462L1476 1462Q1500 1462 1584 1380L1584 1380Q1624 1338 1699 1241Q1774 1144 1790 1104L1790 1104Q1808 1074 1808 1070L1808 1070Q1812 1066 1825 1072Q1838 1078 1854 1090Q1870 1102 1878 1114L1878 1114Q1894 1138 1916 1156Q1938 1174 1942 1206L1942 1206Q1946 1228 1942 1239Q1938 1250 1920 1274L1920 1274Q1894 1308 1838 1354Q1782 1400 1779 1406Q1776 1412 1739 1439Q1702 1466 1670 1494L1670 1494Q1588 1564 1570 1572L1570 1572Q1564 1576 1564 1591Q1564 1606 1570 1606L1570 1606Q1578 1606 1622 1660L1622 1660Q1706 1760 1756 1792L1756 1792Q1790 1816 1800 1826L1800 1826Q1810 1836 1902 1898Q1994 1960 2030 1980L2030 1980Q2080 2006 2159 2041Q2238 2076 2246 2076Q2254 2076 2284 2112L2284 2112Q2320 2150 2314 2168Q2308 2186 2252 2194L2252 2194Q2166 2204 2108 2234L2108 2234Q2086 2246 2077 2246Q2068 2246 2049 2257Q2030 2268 2012 2262L2012 2262Q1990 2256 1929 2220Q1868 2184 1842 2164L1842 2164Q1814 2138 1796 2122L1796 2122Q1744 2082 1670 2006Q1596 1930 1586 1906L1586 1906Q1578 1886 1526 1808L1526 1808Q1490 1758 1490 1752Q1490 1746 1482 1735Q1474 1724 1465 1717Q1456 1710 1454 1714L1454 1714Q1448 1718 1447 1996Q1446 2274 1442 2292L1442 2292Q1420 2412 1340 2452L1340 2452Q1298 2474 1276 2469Q1254 2464 1236 2430L1236 2430Q1218 2400 1200 2390L1200 2390Q1162 2364 1131 2338Q1100 2312 1100 2304L1100 2304Q1100 2292 1082 2272L1082 2272Q1066 2248 1074 2248L1074 2248Q1078 2248 1092 2254L1092 2254Q1108 2262 1183 2262Q1258 2262 1268 2252L1268 2252Q1290 2236 1299 2139Q1308 2042 1312 1780L1312 1780L1318 1450L1296 1408Q1274 1366 1274 1358Q1274 1350 1262 1341Q1250 1332 1250 1312L1250 1312Q1250 1300 1256 1296Q1262 1292 1286 1294L1286 1294L1320 1296L1326 1210Q1334 1124 1328 1120L1328 1120Q1326 1118 1272 1135Q1218 1152 1184 1168L1184 1168Q1158 1178 1118 1207Q1078 1236 1064 1254L1064 1254Q1052 1266 1046 1267Q1040 1268 1026 1262L1026 1262Q1006 1252 976 1224L976 1224Q926 1176 958 1152L958 1152Q974 1138 1062 1095Q1150 1052 1180 1042L1180 1042Q1234 1024 1336 970L1336 970Q1368 954 1375 946Q1382 938 1378 933Q1374 928 1348 914L1348 914Q1308 894 1284 900L1284 900Q1268 902 1264 900Q1260 898 1260 884L1260 884Q1260 864 1276 844Q1292 824 1292 820Q1292 816 1250 774L1250 774Q1226 746 1197 708Q1168 670 1174 666Z"/>
  </svg>