<svg xmlns="http://www.w3.org/2000/svg" viewBox="0 0 3000 3000" width="3000" height="3000">
    <path fill="#000000" d="M1170 772L1170 772Q1188 732 1242 780L1242 780Q1270 804 1280 804L1280 804Q1290 804 1316 832Q1342 860 1346 878L1346 878Q1354 920 1320 954L1320 954L1256 1010Q1210 1052 1174 1110L1174 1110L1124 1192L1088 1246Q1004 1380 974 1414L974 1414Q950 1442 950 1447Q950 1452 906 1500L906 1500Q870 1534 740 1633Q610 1732 600 1732L600 1732Q590 1732 590 1712L590 1712Q590 1696 614 1668Q638 1640 706 1570L706 1570Q750 1526 813 1437Q876 1348 916 1272L916 1272Q942 1224 952 1210L952 1210Q958 1204 989 1141Q1020 1078 1034 1048L1034 1048Q1040 1036 1048 1024Q1056 1012 1101 914Q1146 816 1153 804Q1160 792 1170 772ZM1638 1042L1658 934Q1678 826 1683 784Q1688 742 1702 700Q1716 658 1730 658L1730 658Q1744 658 1781 686Q1818 714 1822 726L1822 726Q1840 770 1814 870L1814 870Q1798 924 1792 974L1792 974L1786 1020L1842 1012Q1898 1006 1918 1000L1918 1000Q1964 982 2010 1000L2010 1000Q2034 1008 2038 1040Q2042 1072 2026 1110L2026 1110Q2016 1132 2009 1140Q2002 1148 1984 1150L1984 1150Q1854 1168 1804 1176L1804 1176Q1764 1180 1764 1195Q1764 1210 1752 1257Q1740 1304 1745 1311Q1750 1318 1795 1314Q1840 1310 1963 1305Q2086 1300 2130 1294L2130 1294Q2214 1280 2316 1284L2316 1284Q2334 1286 2371 1321Q2408 1356 2409 1386Q2410 1416 2376 1458L2376 1458Q2354 1482 2343 1489Q2332 1496 2314 1496L2314 1496Q2284 1496 2272 1490L2272 1490Q2226 1468 2160 1459Q2094 1450 2038 1460L2038 1460Q2012 1464 1911 1472Q1810 1480 1752 1494L1752 1494Q1716 1506 1705 1512Q1694 1518 1684 1538L1684 1538Q1674 1568 1654 1606Q1634 1644 1634 1648L1634 1648Q1636 1650 1667 1650Q1698 1650 1754 1646Q1810 1642 1876 1636L1876 1636Q1954 1628 1984 1637Q2014 1646 2054 1688L2054 1688Q2098 1734 2106 1756Q2114 1778 2102 1812L2102 1812Q2090 1848 2080 1866L2080 1866Q2062 1900 2019 1961Q1976 2022 1960 2038L1960 2038Q1936 2062 1936 2071Q1936 2080 1874 2140L1874 2140L1812 2196L1844 2220Q1872 2238 1879 2261Q1886 2284 1892 2368L1892 2368Q1896 2426 1883 2438Q1870 2450 1804 2450L1804 2450L1738 2450L1680 2390Q1540 2244 1526 2216L1526 2216Q1520 2196 1521 2164Q1522 2132 1532 2124L1532 2124Q1554 2106 1652 2146L1652 2146Q1680 2160 1693 2154Q1706 2148 1726 2116L1726 2116Q1752 2068 1793 1985Q1834 1902 1842 1870L1842 1870Q1862 1798 1844 1802L1844 1802Q1836 1810 1788 1808L1788 1808Q1746 1808 1674 1823Q1602 1838 1574 1854L1574 1854Q1548 1866 1522 1889Q1496 1912 1482 1912L1482 1912Q1474 1912 1460 1886Q1446 1860 1442 1836L1442 1836Q1430 1774 1420 1760L1420 1760Q1412 1750 1426 1728Q1440 1706 1443 1682Q1446 1658 1464 1634L1464 1634Q1504 1580 1504 1554L1504 1554Q1504 1550 1492 1548Q1480 1546 1463 1548Q1446 1550 1432 1554L1432 1554Q1410 1562 1363 1566Q1316 1570 1280 1582L1280 1582Q1220 1602 1176 1556L1176 1556Q1158 1538 1144 1537Q1130 1536 1126 1556L1126 1556Q1122 1574 1117 1708Q1112 1842 1104 1940Q1096 2038 1093 2112Q1090 2186 1068 2232L1068 2232Q1036 2298 1020 2276L1020 2276Q1012 2260 994 2242L994 2242Q968 2218 960 2160L960 2160Q958 2136 942 2078L942 2078Q930 2034 930 2025Q930 2016 942 2004L942 2004Q958 1992 976 1954L976 1954Q986 1930 991 1878Q996 1826 1004 1656L1004 1656Q1014 1452 1022 1400Q1030 1348 1058 1332L1058 1332Q1082 1316 1109 1348Q1136 1380 1136 1426L1136 1426Q1136 1464 1143 1464Q1150 1464 1186 1452Q1222 1440 1258 1432Q1294 1424 1348 1408L1348 1408L1480 1370L1566 1344Q1574 1342 1587 1295Q1600 1248 1600 1222L1600 1222Q1600 1204 1598 1200Q1596 1196 1588 1200L1588 1200Q1562 1206 1492 1215Q1422 1224 1410 1222L1410 1222Q1360 1206 1356 1160L1356 1160Q1354 1138 1357 1130Q1360 1122 1382 1112L1382 1112Q1404 1100 1487 1076Q1570 1052 1610 1046L1610 1046L1638 1042Z"/>
  </svg>