<svg xmlns="http://www.w3.org/2000/svg" viewBox="0 0 3000 3000" width="3000" height="3000">
    <path fill="#000000" d="M914.77 1206.75L828.07 1211.85Q819.15 1213.13 810.22 1213.13L810.22 1213.13L783.45 1213.13Q755.40 1213.13 732.45 1169.78L732.45 1169.78Q723.52 1151.92 723.52 1144.28Q723.52 1136.63 727.99 1136.63Q732.45 1136.63 747.11 1141.72Q761.77 1146.83 796.20 1146.83L796.20 1146.83L806.40 1146.83L933.90 1139.17L977.25 992.55Q988.72 954.30 977.25 922.42L977.25 922.42Q973.42 910.95 974.70 905.85L974.70 905.85Q977.25 898.20 988.72 899.47L988.72 899.47Q1005.30 902.03 1035.90 919.88L1035.90 919.88Q1060.13 932.63 1063.95 942.82Q1067.77 953.02 1062.67 973.42L1062.67 973.42L1015.50 1135.35L1205.47 1123.88Q1239.90 1122.60 1255.20 1116.22Q1270.50 1109.85 1278.15 1109.85Q1285.80 1109.85 1314.49 1130.89Q1343.17 1151.92 1343.17 1168.50L1343.17 1168.50Q1343.17 1181.25 1311.30 1183.80L1311.30 1183.80L995.10 1201.65L951.75 1350.83L1331.70 1331.70Q1368.67 1329.15 1383.97 1323.41Q1399.27 1317.68 1406.92 1317.68Q1414.57 1317.68 1430.51 1330.43Q1446.45 1343.18 1459.20 1357.84Q1471.95 1372.50 1471.95 1378.88L1471.95 1378.88Q1471.95 1391.63 1438.80 1394.18L1438.80 1394.18L930.07 1422.22L884.17 1581.60L1273.05 1556.10L1287.07 1556.10Q1312.57 1556.10 1329.79 1570.13Q1347 1584.15 1347 1598.18L1347 1598.18Q1347 1608.38 1338.07 1617.30Q1329.15 1626.23 1326.60 1630.05L1326.60 1630.05Q1233.52 1753.73 1083.07 1891.43L1083.07 1891.43Q1088.17 1895.25 1094.55 1900.35L1094.55 1900.35Q1172.32 1961.55 1188.26 1976.21Q1204.20 1990.88 1204.20 1999.80L1204.20 1999.80Q1206.75 2015.10 1189.54 2034.86Q1172.32 2054.63 1162.13 2054.63L1162.13 2054.63Q1150.65 2055.90 1131.52 2036.78L1131.52 2036.78Q1070.32 1979.40 1000.20 1920.75Q930.07 1862.10 870.15 1821.30L870.15 1821.30Q856.12 1811.10 854.85 1802.18L854.85 1802.18Q853.57 1788.15 865.05 1773.49Q876.52 1758.83 885.45 1757.55L885.45 1757.55Q896.92 1756.28 946.65 1790.70L946.65 1790.70Q978.52 1812.38 1025.70 1848.08L1025.70 1848.08Q1146.82 1744.80 1233.52 1624.95L1233.52 1624.95L881.62 1649.18Q861.22 1650.45 851.02 1651.73L851.02 1651.73Q845.92 1654.28 839.55 1653L839.55 1653Q822.97 1651.73 803.85 1630.05Q784.72 1608.38 791.10 1587.98L791.10 1587.98L794.92 1577.78Q820.42 1525.50 839.55 1461.75L839.55 1461.75L849.75 1426.05L690.37 1434.97Q654.67 1434.97 636.19 1417.13Q617.70 1399.28 607.50 1367.40L607.50 1367.40Q606.22 1364.85 606.22 1359.75Q606.22 1354.65 611.32 1354.65Q616.42 1354.65 631.72 1359.75Q647.02 1364.85 678.90 1364.85L678.90 1364.85L690.37 1364.85L870.15 1355.93L914.77 1206.75ZM606.22 924.98L606.22 924.98L606.22 919.88Q606.22 907.13 620.89 907.13Q635.55 907.13 654.67 916.05L654.67 916.05Q705.67 937.73 705.67 961.95L705.67 961.95Q705.67 967.05 686.55 1009.13L686.55 1009.13Q636.82 1126.42 562.87 1243.72L562.87 1243.72L566.70 2025.30Q566.70 2052.08 543.75 2052.08L543.75 2052.08Q524.62 2052.08 499.76 2035.50Q474.90 2018.93 474.90 1994.70L474.90 1994.70Q474.90 1988.33 479.36 1967.29Q483.82 1946.25 483.82 1910.55L483.82 1910.55L486.37 1355.93Q437.92 1422.22 367.16 1492.35Q296.40 1562.48 274.72 1562.48L274.72 1562.48Q267.07 1562.48 267.07 1553.55Q267.07 1544.63 284.92 1520.40L284.92 1520.40Q406.05 1369.95 515.70 1167.22L515.70 1167.22Q560.32 1084.35 584.55 1025.70Q608.77 967.05 608.77 951.11Q608.77 935.17 606.22 924.98ZM2253.53 1373.78L2160.45 1380.15Q2168.10 1423.50 2173.20 1470.68L2173.20 1470.68L2197.43 1469.40Q2235.68 1466.85 2250.34 1461.11Q2265 1455.38 2273.29 1455.38Q2281.57 1455.38 2295.60 1466.85L2295.60 1466.85Q2328.75 1493.63 2328.75 1512.75L2328.75 1512.75Q2328.75 1524.22 2301.98 1526.78L2301.98 1526.78L2178.30 1533.15Q2180.85 1558.65 2182.13 1584.15Q2183.40 1609.65 2184.68 1635.15L2184.68 1635.15L2280.30 1631.33Q2316 1628.78 2331.94 1623.04Q2347.88 1617.30 2356.80 1617.30Q2365.73 1617.30 2389.31 1637.70Q2412.90 1658.10 2412.90 1670.85Q2412.90 1683.60 2404.61 1687.43Q2396.32 1691.25 2384.85 1692.53L2384.85 1692.53L2185.95 1700.18L2185.95 1846.80Q2185.95 1994.70 2142.60 2030.40L2142.60 2030.40Q2123.47 2044.43 2108.18 2044.43Q2092.88 2044.43 2045.70 2021.48Q1998.53 1998.53 1933.50 1948.16Q1868.47 1897.80 1868.47 1883.78L1868.47 1883.78Q1868.47 1874.85 1879.95 1874.85Q1891.43 1874.85 1951.99 1902.90Q2012.55 1930.95 2085.22 1946.25L2085.22 1946.25L2087.78 1946.25Q2094.15 1946.25 2096.70 1936.05L2096.70 1936.05Q2112 1835.33 2112 1702.73L2112 1702.73L1967.93 1707.83L1942.43 1709.10Q1906.72 1709.10 1896.53 1696.35L1896.53 1696.35Q1865.92 1659.38 1865.92 1638.98L1865.92 1638.98Q1865.92 1632.60 1870.39 1632.60Q1874.85 1632.60 1890.79 1638.34Q1906.72 1644.08 1936.05 1644.08L1936.05 1644.08L1946.25 1644.08L2112 1637.70L2106.90 1535.70L2011.28 1540.80Q1980.68 1540.80 1964.10 1526.78Q1947.53 1512.75 1941.79 1496.81Q1936.05 1480.88 1936.05 1474.50Q1936.05 1468.13 1939.24 1468.13Q1942.43 1468.13 1954.54 1473.86Q1966.65 1479.60 1999.80 1479.60L1999.80 1479.60L2013.83 1479.60L2101.80 1474.50L2090.32 1385.25L2053.35 1387.80Q2045.70 1389.08 2038.05 1389.08L2038.05 1389.08L2025.30 1389.08Q1989.60 1389.08 1971.11 1366.13Q1952.63 1343.18 1952.63 1331.70Q1952.63 1320.22 1957.09 1320.22Q1961.55 1320.22 1975.58 1325.33Q1989.60 1330.43 2013.83 1330.43L2013.83 1330.43L2078.85 1325.33Q2067.38 1257.75 2050.80 1212.49Q2034.22 1167.22 2034.22 1159.58L2034.22 1159.58Q2034.22 1140.45 2053.99 1134.08Q2073.75 1127.70 2081.40 1127.70L2081.40 1127.70Q2099.25 1127.70 2109.45 1164.67L2109.45 1164.67Q2229.30 1089.45 2312.18 1014.23L2312.18 1014.23L1901.63 1042.28Q1876.13 1044.83 1857.64 1044.83Q1839.15 1044.83 1823.21 1030.80Q1807.28 1016.77 1798.35 999.56Q1789.42 982.35 1789.42 974.06Q1789.42 965.77 1795.80 965.77Q1802.17 965.77 1813.01 968.96Q1823.85 972.15 1845.53 972.15L1845.53 972.15L2365.73 939L2373.38 939Q2397.60 939 2430.75 975.98L2430.75 975.98Q2442.23 990 2442.23 998.92Q2442.23 1007.85 2430.75 1014.86Q2419.28 1021.88 2410.35 1028.25L2410.35 1028.25Q2273.93 1144.28 2129.85 1234.80L2129.85 1234.80Q2132.40 1242.45 2150.25 1318.95L2150.25 1318.95L2165.55 1317.68Q2188.50 1315.13 2201.25 1310.03Q2214 1304.93 2222.29 1304.93Q2230.57 1304.93 2255.44 1322.14Q2280.30 1339.35 2280.30 1358.47L2280.30 1358.47Q2280.30 1371.22 2253.53 1373.78L2253.53 1373.78ZM2434.57 1446.45L2434.57 1446.45Q2554.43 1677.23 2732.93 1806L2732.93 1806Q2752.05 1818.75 2752.05 1827.04Q2752.05 1835.33 2737.39 1846.16Q2722.73 1857 2704.24 1865.29Q2685.75 1873.58 2675.55 1873.58Q2665.35 1873.58 2655.15 1863.38L2655.15 1863.38Q2523.83 1743.53 2426.29 1582.88Q2328.75 1422.22 2272.65 1237.35L2272.65 1237.35Q2268.82 1227.15 2268.82 1218.86Q2268.82 1210.58 2280.94 1202.29Q2293.05 1194 2312.18 1194Q2331.30 1194 2337.68 1214.40L2337.68 1214.40Q2365.73 1298.55 2403.98 1385.25L2403.98 1385.25Q2471.55 1336.80 2510.44 1292.81Q2549.32 1248.83 2552.51 1223.96Q2555.70 1199.10 2567.18 1199.10L2567.18 1199.10Q2581.20 1199.10 2606.06 1229.06Q2630.93 1259.03 2630.93 1270.50Q2630.93 1281.97 2611.16 1301.74Q2591.40 1321.50 2562.71 1346.36Q2534.03 1371.22 2504.70 1393.54Q2475.38 1415.85 2455.61 1431.15Q2435.85 1446.45 2434.57 1446.45ZM1627.50 1276.88L1627.50 1276.88Q1668.30 1281.97 1687.42 1281.97L1687.42 1281.97L1704 1281.97L1874.85 1267.95L1883.78 1267.95Q1905.45 1267.95 1923.30 1283.25Q1941.15 1298.55 1941.15 1311.94Q1941.15 1325.33 1933.50 1332.34Q1925.85 1339.35 1924.58 1343.18L1924.58 1343.18Q1876.13 1548.45 1767.75 1697.63L1767.75 1697.63Q1682.33 1816.20 1603.28 1868.48L1603.28 1868.48Q1572.67 1888.88 1564.39 1888.88Q1556.10 1888.88 1556.10 1878.04Q1556.10 1867.20 1570.13 1853.18L1570.13 1853.18Q1783.05 1627.50 1844.25 1339.35L1844.25 1339.35L1728.22 1348.28Q1705.28 1350.83 1688.70 1350.83L1688.70 1350.83Q1646.63 1350.83 1621.13 1294.72L1621.13 1294.72Q1617.30 1287.08 1617.30 1281.97Q1617.30 1276.88 1627.50 1276.88Z"/>
  </svg>