<svg xmlns="http://www.w3.org/2000/svg" viewBox="0 0 3000 3000" width="3000" height="3000">
    <path fill="#000000" d="M1322.77 1422.22L713.32 1422.22L713.32 1530.60L1322.77 1530.60L1322.77 1422.22ZM1322.77 1278.15L713.32 1278.15L713.32 1385.25L1322.77 1385.25L1322.77 1278.15ZM676.35 1568.85L676.35 1241.17L1359.75 1241.17L1359.75 1568.85L676.35 1568.85ZM610.05 1719.30L604.95 1679.78Q694.20 1678.50 812.14 1676.59Q930.07 1674.68 1063.31 1671.49Q1196.55 1668.30 1330.42 1664.47L1330.42 1664.47L1327.88 1698.90Q1197.82 1702.73 1067.77 1706.55Q937.72 1710.38 820.42 1713.56Q703.12 1716.75 610.05 1719.30L610.05 1719.30ZM1181.25 1586.70L1181.25 1586.70L1209.30 1566.30Q1251.37 1590.53 1294.72 1621.13Q1338.07 1651.72 1376.32 1682.96Q1414.57 1714.20 1438.80 1739.70L1438.80 1739.70L1408.20 1765.20Q1385.25 1739.70 1347.64 1707.83Q1310.02 1675.95 1266.67 1644.08Q1223.32 1612.20 1181.25 1586.70ZM995.10 1688.70L995.10 1006.58L1032.07 1006.58L1032.07 1687.43L995.10 1688.70ZM582.00 1850.63L582.00 1813.65L1438.80 1813.65L1438.80 1850.63L582.00 1850.63ZM1202.92 2083.95L1202.92 1688.70L1239.90 1688.70L1239.90 2083.95Q1239.90 2109.45 1232.25 2121.56Q1224.60 2133.68 1202.92 2138.78L1202.92 2138.78Q1179.97 2143.88 1132.80 2144.51Q1085.63 2145.15 1007.85 2145.15L1007.85 2145.15Q1006.57 2137.50 1001.47 2127.30Q996.37 2117.10 991.27 2108.18L991.27 2108.18Q1039.72 2109.45 1077.34 2110.09Q1114.95 2110.72 1140.45 2110.09Q1165.95 2109.45 1177.42 2108.18L1177.42 2108.18Q1194 2106.90 1198.46 2101.80Q1202.92 2096.70 1202.92 2083.95L1202.92 2083.95ZM741.37 1900.35L741.37 1900.35L769.42 1879.95Q816.60 1915.65 865.05 1963.46Q913.50 2011.28 940.27 2045.70L940.27 2045.70L910.95 2072.47Q885.45 2035.50 837.64 1987.05Q789.82 1938.60 741.37 1900.35ZM624.07 1144.28L624.07 1107.30L1423.50 1107.30L1423.50 1144.28L624.07 1144.28ZM596.02 1001.47L596.02 1001.47L633.00 1011.67Q590.92 1118.78 534.82 1220.78Q478.72 1322.78 414.34 1411.39Q349.95 1500 281.10 1570.13L281.10 1570.13Q278.55 1566.30 274.09 1560.56Q269.62 1554.83 264.52 1548.45Q259.42 1542.08 254.32 1539.53L254.32 1539.53Q323.17 1473.22 386.29 1387.16Q449.40 1301.10 503.59 1202.29Q557.77 1103.47 596.02 1001.47ZM454.50 2142.60L454.50 1306.20L488.92 1270.50L491.47 1271.78L491.47 2142.60L454.50 2142.60ZM2131.13 2057.18L2131.13 1298.55L2169.38 1298.55L2169.38 2055.90Q2169.38 2085.22 2159.18 2098.61Q2148.97 2112 2123.47 2118.38L2123.47 2118.38Q2099.25 2123.47 2046.97 2124.75Q1994.70 2126.03 1908 2126.03L1908 2126.03Q1905.45 2117.10 1900.99 2105.63Q1896.53 2094.15 1890.15 2085.22L1890.15 2085.22Q1967.93 2086.50 2025.30 2087.14Q2082.68 2087.78 2100.53 2086.50L2100.53 2086.50Q2118.38 2085.22 2124.75 2078.85Q2131.13 2072.47 2131.13 2057.18L2131.13 2057.18ZM1769.03 1109.85L1769.03 1072.88L2494.50 1072.88L2494.50 1109.85L1769.03 1109.85ZM2488.13 1080.53L2488.13 1072.88L2497.05 1072.88L2505.98 1070.32L2535.30 1089.45Q2488.13 1135.35 2424.38 1179.34Q2360.63 1223.33 2291.14 1260.94Q2221.65 1298.55 2156.63 1325.33L2156.63 1325.33Q2151.53 1318.95 2144.51 1311.30Q2137.50 1303.65 2131.13 1298.55L2131.13 1298.55Q2194.88 1274.33 2262.45 1237.99Q2330.03 1201.65 2389.31 1160.85Q2448.60 1120.05 2488.13 1080.53L2488.13 1080.53ZM1946.25 1473.22L1946.25 1436.25L2346.60 1436.25L2346.60 1473.22L1946.25 1473.22ZM1604.55 1386.53L1604.55 1348.28L1902.90 1348.28L1902.90 1386.53L1604.55 1386.53ZM1925.85 1670.85L1925.85 1633.88L2365.73 1633.88L2365.73 1670.85L1925.85 1670.85ZM1865.92 1872.30L1865.92 1834.05L2423.10 1834.05L2423.10 1872.30L1865.92 1872.30ZM2622 1280.70L2622 1280.70L2653.88 1308.75Q2606.70 1357.20 2544.23 1409.47Q2481.75 1461.75 2429.48 1498.72L2429.48 1498.72L2406.53 1474.50Q2440.95 1450.28 2480.48 1415.85Q2520 1381.43 2557.61 1345.72Q2595.23 1310.03 2622 1280.70ZM2406.53 1474.50L2443.50 1465.58Q2465.18 1581.60 2504.06 1686.15Q2542.95 1790.70 2597.78 1871.66Q2652.60 1952.63 2721.45 1999.80L2721.45 1999.80Q2716.35 2003.63 2710.61 2009.36Q2704.88 2015.10 2699.78 2020.84Q2694.68 2026.58 2690.85 2032.95L2690.85 2032.95Q2619.45 1980.68 2563.99 1895.89Q2508.53 1811.10 2469.64 1702.73Q2430.75 1594.35 2406.53 1474.50L2406.53 1474.50ZM1892.70 1359.75L1892.70 1348.28L1901.63 1348.28L1910.55 1345.72L1934.78 1357.20Q1908 1515.30 1858.28 1643.44Q1808.55 1771.58 1743.53 1867.84Q1678.50 1964.10 1603.28 2027.85L1603.28 2027.85Q1599.45 2024.03 1593.08 2019.56Q1586.70 2015.10 1580.33 2011.28Q1573.95 2007.45 1567.58 2004.90L1567.58 2004.90Q1644.08 1943.70 1708.46 1849.35Q1772.85 1755 1820.66 1631.33Q1868.47 1507.65 1892.70 1359.75L1892.70 1359.75Z"/>
  </svg>