<svg xmlns="http://www.w3.org/2000/svg" viewBox="0 0 3000 3000" width="3000" height="3000">
    <path fill="#000000" d="M2222 1378L1266 1378L1266 1548L2222 1548L2222 1378ZM2222 1152L1266 1152L1266 1320L2222 1320L2222 1152ZM1208 1608L1208 1094L2280 1094L2280 1608L1208 1608ZM1104 1844L1096 1782Q1236 1780 1421 1777Q1606 1774 1815 1769Q2024 1764 2234 1758L2234 1758L2230 1812Q2026 1818 1822 1824Q1618 1830 1434 1835Q1250 1840 1104 1844L1104 1844ZM2000 1636L2000 1636L2044 1604Q2110 1642 2178 1690Q2246 1738 2306 1787Q2366 1836 2404 1876L2404 1876L2356 1916Q2320 1876 2261 1826Q2202 1776 2134 1726Q2066 1676 2000 1636ZM1708 1796L1708 726L1766 726L1766 1794L1708 1796ZM1060 2050L1060 1992L2404 1992L2404 2050L1060 2050ZM2034 2416L2034 1796L2092 1796L2092 2416Q2092 2456 2080 2475Q2068 2494 2034 2502L2034 2502Q1998 2510 1924 2511Q1850 2512 1728 2512L1728 2512Q1726 2500 1718 2484Q1710 2468 1702 2454L1702 2454Q1778 2456 1837 2457Q1896 2458 1936 2457Q1976 2456 1994 2454L1994 2454Q2020 2452 2027 2444Q2034 2436 2034 2416L2034 2416ZM1310 2128L1310 2128L1354 2096Q1428 2152 1504 2227Q1580 2302 1622 2356L1622 2356L1576 2398Q1536 2340 1461 2264Q1386 2188 1310 2128ZM1126 942L1126 884L2380 884L2380 942L1126 942ZM1082 718L1082 718L1140 734Q1074 902 986 1062Q898 1222 797 1361Q696 1500 588 1610L588 1610Q584 1604 577 1595Q570 1586 562 1576Q554 1566 546 1562L546 1562Q654 1458 753 1323Q852 1188 937 1033Q1022 878 1082 718ZM860 2508L860 1196L914 1140L918 1142L918 2508L860 2508Z"/>
  </svg>