<svg xmlns="http://www.w3.org/2000/svg" viewBox="0 0 3000 3000" width="3000" height="3000">
    <path fill="#000000" d="M596.02 1001.47L596.02 1001.47L633.00 1011.67Q590.92 1118.78 534.82 1220.78Q478.72 1322.78 414.34 1411.39Q349.95 1500 281.10 1570.13L281.10 1570.13Q278.55 1566.30 274.09 1560.56Q269.62 1554.83 264.52 1548.45Q259.42 1542.08 254.32 1539.53L254.32 1539.53Q323.17 1473.22 386.29 1387.16Q449.40 1301.10 503.59 1202.29Q557.77 1103.47 596.02 1001.47ZM454.50 2142.60L454.50 1306.20L488.92 1270.50L491.47 1271.78L491.47 2142.60L454.50 2142.60ZM812.77 1673.40L812.77 1636.43L1290.90 1636.43L1290.90 1673.40L812.77 1673.40ZM1279.42 1642.80L1279.42 1636.43L1288.35 1636.43L1296.00 1632.60L1324.05 1647.90Q1285.80 1695.08 1236.07 1755Q1186.35 1814.93 1132.16 1877.40Q1077.97 1939.88 1028.25 1995.98L1028.25 1995.98L996.37 1978.13Q1046.10 1923.30 1099.65 1860.83Q1153.20 1798.35 1201.01 1740.34Q1248.82 1682.33 1279.42 1642.80L1279.42 1642.80ZM986.17 996.38L986.17 996.38L1021.87 1002.75Q1001.47 1080.53 975.34 1171.05Q949.20 1261.58 921.79 1354.01Q894.37 1446.45 868.87 1529.33Q843.37 1612.20 821.70 1673.40L821.70 1673.40L779.62 1673.40Q802.57 1609.65 830.62 1525.50Q858.67 1441.35 886.72 1348.28Q914.77 1255.20 940.27 1164.04Q965.77 1072.88 986.17 996.38ZM666.15 1196.55L666.15 1158.30L1376.32 1158.30L1376.32 1196.55L666.15 1196.55ZM593.47 1440.08L593.47 1401.83L1427.32 1401.83L1427.32 1440.08L593.47 1440.08ZM847.20 1882.50L847.20 1882.50L879.07 1859.55Q937.72 1897.80 998.92 1943.70Q1060.13 1989.60 1112.40 2034.23Q1164.67 2078.85 1196.55 2114.55L1196.55 2114.55L1163.40 2142.60Q1130.25 2105.63 1077.97 2059.09Q1025.70 2012.55 965.14 1966.01Q904.57 1919.48 847.20 1882.50ZM2131.13 2057.18L2131.13 1298.55L2169.38 1298.55L2169.38 2055.90Q2169.38 2085.22 2159.18 2098.61Q2148.97 2112 2123.47 2118.38L2123.47 2118.38Q2099.25 2123.47 2046.97 2124.75Q1994.70 2126.03 1908 2126.03L1908 2126.03Q1905.45 2117.10 1900.99 2105.63Q1896.53 2094.15 1890.15 2085.22L1890.15 2085.22Q1967.93 2086.50 2025.30 2087.14Q2082.68 2087.78 2100.53 2086.50L2100.53 2086.50Q2118.38 2085.22 2124.75 2078.85Q2131.13 2072.47 2131.13 2057.18L2131.13 2057.18ZM1769.03 1109.85L1769.03 1072.88L2494.50 1072.88L2494.50 1109.85L1769.03 1109.85ZM2488.13 1080.53L2488.13 1072.88L2497.05 1072.88L2505.98 1070.32L2535.30 1089.45Q2488.13 1135.35 2424.38 1179.34Q2360.63 1223.33 2291.14 1260.94Q2221.65 1298.55 2156.63 1325.33L2156.63 1325.33Q2151.53 1318.95 2144.51 1311.30Q2137.50 1303.65 2131.13 1298.55L2131.13 1298.55Q2194.88 1274.33 2262.45 1237.99Q2330.03 1201.65 2389.31 1160.85Q2448.60 1120.05 2488.13 1080.53L2488.13 1080.53ZM1956.45 1473.22L1956.45 1436.25L2345.32 1436.25L2345.32 1473.22L1956.45 1473.22ZM1604.55 1386.53L1604.55 1348.28L1902.90 1348.28L1902.90 1386.53L1604.55 1386.53ZM1936.05 1670.85L1936.05 1633.88L2364.45 1633.88L2364.45 1670.85L1936.05 1670.85ZM1876.13 1872.30L1876.13 1834.05L2421.82 1834.05L2421.82 1872.30L1876.13 1872.30ZM2652.60 1336.80L2652.60 1336.80L2683.20 1364.85Q2652.60 1401.83 2613.71 1442.63Q2574.82 1483.43 2534.66 1520.40Q2494.50 1557.38 2460.07 1585.43L2460.07 1585.43L2434.57 1563.75Q2469 1534.43 2509.16 1494.90Q2549.32 1455.38 2587.57 1413.30Q2625.82 1371.22 2652.60 1336.80ZM2364.45 1307.47L2402.70 1299.83Q2426.93 1450.28 2469 1584.15Q2511.08 1718.03 2573.55 1820.66Q2636.03 1923.30 2718.90 1983.23L2718.90 1983.23Q2713.80 1987.05 2708.06 1993.43Q2702.32 1999.80 2696.59 2005.54Q2690.85 2011.28 2687.03 2016.38L2687.03 2016.38Q2602.88 1950.08 2539.76 1842.98Q2476.65 1735.88 2433.94 1598.81Q2391.23 1461.75 2364.45 1307.47L2364.45 1307.47ZM1892.70 1359.75L1892.70 1348.28L1901.63 1348.28L1910.55 1345.72L1934.78 1357.20Q1908 1515.30 1858.28 1643.44Q1808.55 1771.58 1743.53 1867.84Q1678.50 1964.10 1603.28 2027.85L1603.28 2027.85Q1599.45 2024.03 1593.08 2019.56Q1586.70 2015.10 1580.33 2011.28Q1573.95 2007.45 1567.58 2004.90L1567.58 2004.90Q1644.08 1943.70 1708.46 1849.35Q1772.85 1755 1820.66 1631.33Q1868.47 1507.65 1892.70 1359.75L1892.70 1359.75Z"/>
  </svg>