<svg xmlns="http://www.w3.org/2000/svg" viewBox="0 0 3000 3000" width="3000" height="3000">
    <path fill="#000000" d="M919.87 1958.36L919.87 1958.36Q940.27 1958.36 956.85 1938.60Q973.42 1918.84 973.42 1903.54L973.42 1903.54Q973.42 1889.51 951.11 1869.11Q928.80 1848.71 898.84 1828.31Q868.87 1807.91 843.37 1792.61L843.37 1792.61Q833.17 1787.51 826.80 1783.69L826.80 1783.69L1108.57 1772.21L1109.85 1994.06Q1086.90 1992.79 1048.65 1983.86Q1010.40 1974.94 972.15 1962.19L972.15 1962.19Q955.57 1957.09 942.82 1957.09L942.82 1957.09Q921.15 1957.09 921.15 1972.39Q921.15 1987.69 949.84 2009.36Q978.52 2031.04 1016.77 2052.08Q1055.02 2073.11 1091.36 2088.41Q1127.70 2103.71 1145.55 2103.71L1145.55 2103.71Q1173.60 2103.71 1188.26 2083.31Q1202.92 2062.91 1202.92 2039.96L1202.92 2039.96Q1202.92 2031.04 1202.29 2019.56Q1201.65 2008.09 1201.65 1995.34L1201.65 1995.34L1200.38 1769.66L1423.50 1759.46Q1440.07 1758.19 1454.10 1752.45Q1468.13 1746.71 1468.13 1732.69L1468.13 1732.69Q1468.13 1722.49 1456.65 1708.46Q1445.17 1694.44 1429.88 1682.96Q1414.57 1671.49 1399.27 1671.49L1399.27 1671.49Q1391.63 1671.49 1386.52 1672.76L1386.52 1672.76Q1361.02 1679.14 1334.25 1680.41L1334.25 1680.41L1199.10 1686.79L1199.10 1651.09Q1199.10 1630.69 1181.25 1620.49L1181.25 1620.49Q1163.40 1611.56 1146.82 1606.46L1146.82 1606.46Q1205.47 1600.09 1271.77 1592.44L1271.77 1592.44Q1304.92 1635.79 1318.31 1646.63Q1331.70 1657.46 1340.63 1657.46L1340.63 1657.46Q1350.82 1657.46 1371.86 1642.16Q1392.90 1626.86 1392.90 1606.46L1392.90 1606.46Q1392.90 1592.44 1377.60 1577.14L1377.60 1577.14Q1329.15 1529.96 1303.65 1505.74L1303.65 1505.74Q1283.25 1486.61 1271.77 1476.41L1271.77 1476.41L1284.52 1476.41Q1299.82 1475.14 1311.94 1472.59Q1324.05 1470.04 1324.05 1456.01Q1324.05 1441.99 1298.55 1408.84L1298.55 1408.84L1322.77 1232.89Q1324.05 1230.34 1327.24 1224.60Q1330.42 1218.86 1330.42 1207.39L1330.42 1207.39Q1330.42 1189.54 1310.66 1173.60Q1290.90 1157.66 1270.50 1157.66L1270.50 1157.66Q1262.85 1157.66 1259.02 1158.94L1259.02 1158.94L1046.10 1171.69L1046.10 1125.79L1344.45 1109.21Q1380.15 1105.39 1380.15 1084.99L1380.15 1084.99Q1380.15 1072.24 1367.40 1058.21Q1354.65 1044.19 1339.35 1034.63Q1324.05 1025.06 1311.30 1025.06L1311.30 1025.06Q1308.75 1025.06 1306.84 1025.70Q1304.92 1026.34 1302.37 1026.34L1302.37 1026.34Q1289.62 1028.89 1277.51 1031.44Q1265.40 1033.99 1255.20 1035.26L1255.20 1035.26L1046.10 1046.74L1046.10 970.24Q1046.10 956.21 1037.17 947.29Q1028.25 938.36 1002.75 928.16L1002.75 928.16Q977.25 920.51 961.95 920.51L961.95 920.51Q937.72 920.51 937.72 938.36L937.72 938.36Q937.72 944.74 942.82 952.39L942.82 952.39Q955.57 975.34 955.57 997.01L955.57 997.01L955.57 1050.56L717.15 1064.59L704.40 1064.59Q685.27 1064.59 663.60 1060.76L663.60 1060.76Q659.77 1059.49 653.40 1059.49L653.40 1059.49Q649.57 1059.49 647.02 1060.76L647.02 1060.76Q649.57 1053.11 653.40 1045.46L653.40 1045.46Q666.15 1011.04 666.15 1004.66L666.15 1004.66Q666.15 989.36 648.94 975.98Q631.72 962.59 610.69 953.66Q589.65 944.74 576.90 944.74L576.90 944.74Q553.95 944.74 553.95 965.14L553.95 965.14Q553.95 967.69 554.59 968.96Q555.22 970.24 555.22 972.79L555.22 972.79Q556.50 977.89 557.14 982.35Q557.77 986.81 557.77 991.91L557.77 991.91Q557.77 1007.21 539.29 1059.49Q520.80 1111.76 485.74 1189.54Q450.67 1267.31 397.76 1361.66Q344.85 1456.01 277.27 1556.74L277.27 1556.74Q260.70 1582.24 260.70 1596.26L260.70 1596.26Q260.70 1612.84 276.00 1612.84L276.00 1612.84Q293.85 1612.84 325.72 1580.33Q357.60 1547.81 395.21 1500.64Q432.82 1453.46 451.95 1425.41L451.95 1425.41L446.85 1950.71Q446.85 1969.84 444.94 1985.14Q443.02 2000.44 440.47 2018.29L440.47 2018.29Q439.20 2023.39 439.20 2032.31L439.20 2032.31Q439.20 2056.54 455.14 2070.56Q471.07 2084.59 487.65 2090.33Q504.22 2096.06 508.05 2096.06L508.05 2096.06Q538.65 2096.06 538.65 2061.64L538.65 2061.64L537.37 1294.09Q553.95 1264.76 575.62 1218.22Q597.30 1171.69 617.70 1125.79L617.70 1125.79Q629.17 1100.29 639.37 1078.61L639.37 1078.61Q640.65 1086.26 645.75 1099.01L645.75 1099.01Q653.40 1118.14 669.97 1134.71L669.97 1134.71Q682.72 1143.64 710.77 1143.64L710.77 1143.64L732.45 1143.64L956.85 1129.61L956.85 1175.51L777.07 1186.99Q743.92 1176.79 724.80 1172.96Q705.67 1169.14 694.20 1169.14L694.20 1169.14Q673.80 1169.14 673.80 1184.44L673.80 1184.44Q673.80 1189.54 676.99 1194Q680.17 1198.46 682.72 1204.84L682.72 1204.84Q692.92 1222.69 696.75 1260.94L696.75 1260.94L712.05 1420.31Q712.05 1425.41 712.69 1430.51Q713.32 1435.61 713.32 1440.71L713.32 1440.71Q713.32 1447.09 712.69 1454.10Q712.05 1461.11 710.77 1471.31L710.77 1471.31Q710.77 1472.59 710.14 1475.14Q709.50 1477.69 709.50 1481.51L709.50 1481.51Q709.50 1507.01 736.91 1521.04Q764.32 1535.06 779.62 1535.06L779.62 1535.06Q805.12 1535.06 805.12 1505.74L805.12 1505.74L805.12 1500.64L805.12 1499.36L959.40 1490.44L959.40 1545.26Q900.75 1550.36 831.26 1553.55Q761.77 1556.74 696.75 1559.29L696.75 1559.29Q685.27 1559.29 669.34 1558.65Q653.40 1558.01 638.10 1554.19L638.10 1554.19Q634.27 1552.91 629.17 1552.91L629.17 1552.91Q615.15 1552.91 615.15 1566.94L615.15 1566.94Q615.15 1579.69 629.17 1602Q643.20 1624.31 653.40 1634.51L653.40 1634.51Q666.15 1647.26 691.65 1647.26L691.65 1647.26Q692.92 1647.26 842.10 1637.06L842.10 1637.06Q937.72 1629.41 1092 1612.84L1092 1612.84Q1090.72 1615.39 1090.72 1619.21L1090.72 1619.21Q1090.72 1624.31 1095.82 1634.51L1095.82 1634.51Q1102.20 1647.26 1105.39 1664.48Q1108.57 1681.69 1108.57 1690.61L1108.57 1690.61L644.47 1711.01L631.72 1711.01Q622.80 1711.01 611.32 1709.74Q599.85 1708.46 590.92 1705.91L590.92 1705.91Q587.10 1704.64 580.72 1704.64L580.72 1704.64Q566.70 1704.64 566.70 1719.94L566.70 1719.94Q566.70 1726.31 573.71 1743.53Q580.72 1760.74 596.66 1776.68Q612.60 1792.61 636.82 1792.61L636.82 1792.61Q641.92 1792.61 648.30 1791.98Q654.67 1791.34 661.05 1791.34L661.05 1791.34L791.10 1786.24Q786.00 1790.06 780.90 1796.44L780.90 1796.44Q768.15 1814.29 768.15 1827.04L768.15 1827.04Q768.15 1838.51 782.17 1847.44L782.17 1847.44Q831.90 1884.41 890.55 1943.06L890.55 1943.06Q905.85 1958.36 919.87 1958.36ZM794.92 1375.69L958.12 1365.49L958.12 1416.49L800.02 1426.69L794.92 1375.69ZM1044.82 1361.66L1219.50 1352.74L1215.67 1405.01L1044.82 1413.94L1044.82 1361.66ZM784.72 1259.66L956.85 1248.19L958.12 1295.36L789.82 1306.84L784.72 1259.66ZM1046.10 1244.36L1230.97 1232.89L1227.15 1281.34L1044.82 1291.54L1046.10 1244.36ZM1044.82 1540.16L1044.82 1487.89L1215.67 1480.24Q1214.40 1481.51 1213.13 1482.79L1213.13 1482.79Q1201.65 1500.64 1201.65 1508.29L1201.65 1508.29Q1201.65 1519.76 1209.30 1528.69L1209.30 1528.69Q1178.70 1532.51 1132.16 1534.43Q1085.63 1536.34 1044.82 1540.16L1044.82 1540.16ZM1216.95 1537.61L1211.85 1531.24Q1213.13 1532.51 1214.40 1533.79L1214.40 1533.79L1216.95 1537.61ZM1729.50 1403.74L1729.50 1403.74L1834.05 1396.09Q1804.72 1533.79 1737.79 1658.10Q1670.85 1782.41 1565.03 1895.89L1565.03 1895.89Q1548.45 1912.46 1548.45 1926.49L1548.45 1926.49Q1548.45 1944.34 1566.30 1944.34L1566.30 1944.34Q1575.22 1944.34 1607.10 1923.30Q1638.97 1902.26 1682.96 1858.91Q1726.95 1815.56 1774.13 1749.90Q1821.30 1684.24 1863.38 1595.63Q1905.45 1507.01 1932.22 1393.54L1932.22 1393.54Q1932.22 1390.99 1941.15 1384.61L1941.15 1384.61Q1943.70 1382.06 1944.97 1378.24L1944.97 1378.24Q1947.53 1396.09 1965.38 1419.04L1965.38 1419.04Q1985.78 1444.54 2025.30 1444.54L2025.30 1444.54Q2031.68 1444.54 2038.69 1444.54Q2045.70 1444.54 2054.63 1443.26L2054.63 1443.26L2083.95 1440.71L2092.88 1514.66L2013.83 1519.76L1999.80 1519.76Q1987.05 1519.76 1974.30 1517.85Q1961.55 1515.94 1951.35 1512.11L1951.35 1512.11Q1943.70 1508.29 1941.15 1508.29L1941.15 1508.29Q1928.40 1508.29 1928.40 1519.13Q1928.40 1529.96 1934.78 1547.81Q1941.15 1565.66 1959.64 1580.96Q1978.13 1596.26 2011.28 1596.26L2011.28 1596.26Q2017.65 1596.26 2023.39 1595.63Q2029.13 1594.99 2035.50 1594.99L2035.50 1594.99L2100.53 1591.16Q2101.80 1609.01 2102.44 1634.51Q2103.07 1660.01 2104.35 1677.86L2104.35 1677.86L1946.25 1684.24L1936.05 1684.24Q1923.30 1684.24 1908.64 1681.69Q1893.97 1679.14 1879.95 1674.04L1879.95 1674.04Q1876.13 1672.76 1871.03 1672.76L1871.03 1672.76Q1858.28 1672.76 1858.28 1686.79L1858.28 1686.79Q1858.28 1699.54 1868.47 1716.75Q1878.67 1733.96 1888.88 1747.99L1888.88 1747.99Q1899.08 1758.19 1912.46 1761.38Q1925.85 1764.56 1942.43 1764.56L1942.43 1764.56Q1948.80 1764.56 1955.18 1763.93Q1961.55 1763.29 1967.93 1763.29L1967.93 1763.29L2104.35 1758.19Q2104.35 1764.56 2103.07 1804.09Q2101.80 1843.61 2098.61 1892.06Q2095.43 1940.51 2089.05 1982.59L2089.05 1982.59L2087.78 1986.41L2086.50 1986.41Q2052.07 1978.76 2004.90 1961.55Q1957.72 1944.34 1911.83 1923.94L1911.83 1923.94Q1892.70 1915.01 1881.22 1915.01L1881.22 1915.01Q1860.83 1915.01 1860.83 1931.59L1860.83 1931.59Q1860.83 1943.06 1881.86 1962.83Q1902.90 1982.59 1933.50 2005.54Q1964.10 2028.49 1997.89 2049.53Q2031.68 2070.56 2061.64 2085.22Q2091.60 2099.89 2108.81 2099.89Q2126.03 2099.89 2146.43 2083.95Q2166.82 2068.01 2180.21 2024.03Q2193.60 1980.04 2193.60 1894.61L2193.60 1894.61L2193.60 1755.64L2384.85 1747.99Q2398.88 1746.71 2409.71 1741.61Q2420.55 1736.51 2420.55 1722.49L2420.55 1722.49Q2420.55 1713.56 2409.71 1698.90Q2398.88 1684.24 2383.57 1670.85Q2368.28 1657.46 2351.70 1657.46L2351.70 1657.46Q2346.60 1657.46 2337.68 1660.01L2337.68 1660.01Q2314.73 1668.94 2280.30 1671.49L2280.30 1671.49L2192.32 1675.31Q2191.05 1657.46 2189.78 1631.96Q2188.50 1606.46 2187.22 1588.61L2187.22 1588.61L2301.98 1582.24Q2316 1580.96 2326.20 1576.50Q2336.40 1572.04 2336.40 1558.01L2336.40 1558.01Q2336.40 1550.36 2325.56 1535.70Q2314.73 1521.04 2299.43 1508.29Q2284.13 1495.54 2268.82 1495.54L2268.82 1495.54Q2263.73 1495.54 2254.80 1498.09L2254.80 1498.09Q2242.05 1503.19 2228.03 1505.74Q2214 1508.29 2197.43 1509.56L2197.43 1509.56L2179.57 1510.84Q2178.30 1495.54 2175.11 1472.59Q2171.93 1449.64 2169.38 1435.61L2169.38 1435.61L2253.53 1429.24Q2287.95 1425.41 2287.95 1406.29L2287.95 1406.29Q2287.95 1394.81 2275.84 1380.15Q2263.73 1365.49 2248.43 1355.29Q2233.13 1345.09 2220.38 1345.09L2220.38 1345.09Q2212.72 1345.09 2208.90 1347.64L2208.90 1347.64Q2196.15 1351.46 2186.59 1354.01Q2177.03 1356.56 2164.28 1357.84L2164.28 1357.84L2156.63 1359.11Q2152.80 1343.81 2148.34 1322.14Q2143.88 1300.46 2138.78 1286.44L2138.78 1286.44Q2184.68 1257.11 2229.30 1226.51Q2273.93 1195.91 2318.55 1161.49Q2363.18 1127.06 2415.45 1082.44L2415.45 1082.44Q2423.10 1076.06 2436.49 1067.78Q2449.88 1059.49 2449.88 1045.46L2449.88 1045.46Q2449.88 1035.26 2436.49 1019.96Q2423.10 1004.66 2405.89 991.91Q2388.68 979.16 2373.38 979.16L2373.38 979.16L2365.73 979.16L1876.13 1011.04Q1867.20 1011.04 1860.19 1011.67Q1853.17 1012.31 1845.53 1012.31L1845.53 1012.31Q1825.13 1012.31 1807.28 1007.21L1807.28 1007.21Q1803.45 1005.94 1797.08 1005.94L1797.08 1005.94Q1781.78 1005.94 1781.78 1021.24L1781.78 1021.24Q1781.78 1031.44 1791.34 1050.56Q1800.90 1069.69 1818.75 1084.99Q1836.60 1100.29 1860.83 1100.29L1860.83 1100.29Q1868.47 1100.29 1878.67 1099.65Q1888.88 1099.01 1902.90 1097.74L1902.90 1097.74L2290.50 1070.96Q2267.55 1091.36 2215.91 1130.25Q2164.28 1169.14 2114.55 1201.01L2114.55 1201.01Q2108.18 1185.71 2101.16 1176.79Q2094.15 1167.86 2080.13 1167.86L2080.13 1167.86Q2072.47 1167.86 2049.53 1175.51Q2026.58 1183.16 2026.58 1207.39L2026.58 1207.39Q2026.58 1215.04 2029.13 1223.33Q2031.68 1231.61 2034.22 1237.99L2034.22 1237.99Q2045.70 1269.86 2055.26 1303.65Q2064.82 1337.44 2069.93 1366.76L2069.93 1366.76L2031.68 1369.31Q2026.58 1369.31 2022.75 1369.95Q2018.93 1370.59 2013.83 1370.59L2013.83 1370.59Q2002.35 1370.59 1990.24 1368.04Q1978.13 1365.49 1967.93 1361.66L1967.93 1361.66Q1962.83 1360.39 1957.72 1360.39L1957.72 1360.39Q1951.35 1360.39 1948.80 1362.94L1948.80 1362.94Q1948.80 1362.94 1948.80 1361.66L1948.80 1361.66Q1948.80 1342.54 1928.40 1325.33Q1908 1308.11 1883.78 1308.11L1883.78 1308.11L1874.85 1308.11L1704 1322.14L1687.42 1322.14Q1664.47 1322.14 1637.70 1318.31L1637.70 1318.31Q1636.42 1318.31 1633.88 1317.68Q1631.33 1317.04 1627.50 1317.04L1627.50 1317.04Q1609.65 1317.04 1609.65 1331.06L1609.65 1331.06Q1609.65 1336.16 1614.75 1346.36L1614.75 1346.36Q1630.05 1380.79 1649.81 1393.54Q1669.58 1406.29 1688.70 1406.29L1688.70 1406.29Q1697.63 1406.29 1707.83 1405.65Q1718.03 1405.01 1729.50 1403.74ZM2447.32 1501.91L2447.32 1501.91Q2438.40 1501.91 2459.44 1485.97Q2480.48 1470.04 2509.80 1447.72Q2539.13 1425.41 2567.81 1399.91Q2596.50 1374.41 2617.54 1353.38Q2638.57 1332.34 2638.57 1320.86L2638.57 1320.86Q2638.57 1304.29 2615.63 1276.24L2615.63 1276.24Q2585.03 1239.26 2567.18 1239.26Q2549.32 1239.26 2545.50 1266.04Q2541.68 1292.81 2504.06 1336.16Q2466.45 1379.51 2407.80 1421.59L2407.80 1421.59Q2392.50 1387.16 2375.93 1344.45Q2359.35 1301.74 2345.32 1259.66L2345.32 1259.66Q2336.40 1234.16 2309.63 1234.16L2309.63 1234.16Q2290.50 1234.16 2275.84 1244.36Q2261.18 1254.56 2261.18 1268.59L2261.18 1268.59Q2261.18 1276.24 2265 1287.71L2265 1287.71Q2321.10 1472.59 2419.28 1634.51Q2517.45 1796.44 2650.05 1916.29L2650.05 1916.29Q2662.80 1929.04 2674.91 1929.04Q2687.03 1929.04 2706.79 1920.11Q2726.55 1911.19 2743.13 1899.08Q2759.70 1886.96 2759.70 1876.76L2759.70 1876.76Q2759.70 1862.74 2736.75 1847.44L2736.75 1847.44Q2637.30 1776.04 2565.26 1683.60Q2493.23 1591.16 2447.32 1501.91Z"/>
  </svg>