<svg xmlns="http://www.w3.org/2000/svg" viewBox="0 0 3000 3000" width="3000" height="3000">
    <path fill="#000000" d="M904.57 2069.29L904.57 1838.51L1139.17 1828.31Q1179.97 1825.76 1179.97 1797.71L1179.97 1797.71Q1179.97 1787.51 1169.14 1772.21Q1158.30 1756.91 1141.09 1744.80Q1123.88 1732.69 1103.47 1732.69L1103.47 1732.69Q1098.38 1732.69 1086.90 1735.24L1086.90 1735.24Q1074.15 1740.34 1062.67 1742.89Q1051.20 1745.44 1034.63 1746.71L1034.63 1746.71L904.57 1751.81L904.57 1380.79Q992.55 1518.49 1113.67 1638.98Q1234.80 1759.46 1387.80 1858.91L1387.80 1858.91Q1394.17 1862.74 1400.55 1866.56Q1406.92 1870.39 1415.85 1870.39L1415.85 1870.39Q1429.88 1870.39 1447.72 1860.19Q1465.57 1849.99 1480.88 1837.24Q1496.17 1824.49 1496.17 1816.84L1496.17 1816.84Q1496.17 1806.64 1474.50 1793.89L1474.50 1793.89Q1315.13 1711.01 1185.07 1577.78Q1055.02 1444.54 945.37 1299.19L945.37 1299.19L1322.77 1278.79Q1338.07 1277.51 1350.19 1272.41Q1362.30 1267.31 1362.30 1255.84Q1362.30 1244.36 1347.64 1227.79Q1332.97 1211.21 1313.85 1197.83Q1294.72 1184.44 1279.42 1184.44L1279.42 1184.44Q1274.32 1184.44 1265.40 1186.99L1265.40 1186.99Q1252.65 1192.09 1237.99 1194Q1223.32 1195.91 1211.85 1197.19L1211.85 1197.19L904.57 1215.04L904.57 972.79Q904.57 953.66 889.27 942.19Q873.97 930.71 855.49 926.25Q837.00 921.79 822.97 920.51L822.97 920.51L810.22 917.96Q786.00 917.96 786.00 934.54L786.00 934.54Q786.00 942.19 793.65 953.66L793.65 953.66Q808.95 975.34 808.95 1004.66L808.95 1004.66L808.95 1220.14L471.07 1239.26L451.95 1239.26Q437.92 1239.26 425.17 1237.99Q412.42 1236.71 402.22 1234.16L402.22 1234.16Q398.40 1232.89 392.02 1232.89L392.02 1232.89Q374.17 1232.89 374.17 1249.46L374.17 1249.46Q374.17 1253.29 376.72 1262.21L376.72 1262.21Q394.57 1309.39 421.35 1317.68Q448.12 1325.96 463.42 1325.96L463.42 1325.96Q471.07 1325.96 480.64 1325.96Q490.20 1325.96 501.67 1324.69L501.67 1324.69L760.50 1310.66Q695.47 1426.69 611.96 1533.15Q528.45 1639.61 443.02 1722.49Q357.60 1805.36 278.55 1864.01L278.55 1864.01Q255.60 1883.14 255.60 1897.16L255.60 1897.16Q255.60 1913.74 271.54 1913.74Q287.47 1913.74 342.94 1884.41Q398.40 1855.09 478.09 1791.34Q557.77 1727.59 648.30 1626.23Q738.82 1524.86 808.95 1402.46L808.95 1402.46L808.95 1755.64L644.47 1762.01Q639.37 1762.01 634.27 1762.65Q629.17 1763.29 622.80 1763.29L622.80 1763.29Q601.12 1763.29 576.90 1756.91L576.90 1756.91Q573.07 1755.64 567.97 1755.64L567.97 1755.64Q555.22 1755.64 555.22 1765.20Q555.22 1774.76 556.50 1778.59L556.50 1778.59Q559.05 1788.79 567.34 1806Q575.62 1823.21 587.10 1833.41L587.10 1833.41Q602.40 1848.71 639.37 1848.71L639.37 1848.71L662.32 1848.71L808.95 1842.34L808.95 1963.46Q808.95 1983.86 806.40 2002.99Q803.85 2022.11 800.02 2039.96L800.02 2039.96Q798.75 2045.06 798.75 2051.44L798.75 2051.44Q798.75 2070.56 810.86 2082.04Q822.97 2093.51 840.82 2102.44Q858.67 2111.36 871.42 2111.36L871.42 2111.36Q904.57 2111.36 904.57 2069.29L904.57 2069.29ZM2136.22 1723.76L2136.22 1723.76L2136.22 1741.61Q2136.22 1749.26 2135.59 1754.36Q2134.95 1759.46 2133.68 1763.29L2133.68 1763.29Q2118.38 1809.19 2087.78 1859.55Q2057.18 1909.91 2016.38 1966.01L2016.38 1966.01Q1997.25 1991.51 1997.25 2008.09L1997.25 2008.09Q1997.25 2023.39 2012.55 2023.39L2012.55 2023.39Q2024.03 2023.39 2039.33 2013.19Q2054.63 2002.99 2055.90 2001.71L2055.90 2001.71Q2104.35 1963.46 2150.89 1905.45Q2197.43 1847.44 2238.22 1783.69L2238.22 1783.69Q2242.05 1776.04 2242.05 1770.94L2242.05 1770.94Q2242.05 1754.36 2223.56 1739.06Q2205.07 1723.76 2184.04 1713.56Q2163 1703.36 2154.07 1703.36L2154.07 1703.36Q2136.22 1703.36 2136.22 1723.76ZM2720.18 1929.04L2720.18 1929.04Q2720.18 1920.11 2702.96 1894.61Q2685.75 1869.11 2660.89 1835.33Q2636.03 1801.54 2608.61 1769.03Q2581.20 1736.51 2558.25 1714.20Q2535.30 1691.89 2525.10 1691.89L2525.10 1691.89Q2513.63 1691.89 2493.86 1705.91Q2474.10 1719.94 2474.10 1737.79L2474.10 1737.79Q2474.10 1749.26 2489.40 1768.39L2489.40 1768.39Q2565.90 1856.36 2629.65 1958.36L2629.65 1958.36Q2648.78 1986.41 2662.80 1986.41L2662.80 1986.41Q2667.90 1986.41 2681.93 1979.40Q2695.95 1972.39 2708.06 1959Q2720.18 1945.61 2720.18 1929.04ZM1637.70 2008.09L1637.70 2008.09L1645.35 2008.09Q1663.20 2008.09 1674.04 1995.34Q1684.88 1982.59 1693.80 1962.19L1693.80 1962.19Q1730.78 1889.51 1776.04 1792.61Q1821.30 1695.71 1853.17 1598.81L1853.17 1598.81Q1860.83 1575.86 1860.83 1561.84L1860.83 1561.84Q1860.83 1537.61 1842.97 1537.61L1842.97 1537.61Q1822.58 1537.61 1802.17 1577.14L1802.17 1577.14Q1775.40 1626.86 1742.89 1684.24Q1710.38 1741.61 1676.59 1797.08Q1642.80 1852.54 1610.92 1897.16L1610.92 1897.16Q1602 1909.91 1591.16 1918.20Q1580.33 1926.49 1567.58 1936.69L1567.58 1936.69Q1551 1948.16 1551 1957.09L1551 1957.09Q1551 1972.39 1572.04 1983.86Q1593.08 1995.34 1613.47 2001.08Q1633.88 2006.81 1637.70 2008.09ZM2226.75 1512.11L2488.13 1496.81L2480.48 1579.69L2233.13 1594.99L2226.75 1512.11ZM2215.28 1368.04L2502.15 1348.91L2495.78 1420.31L2221.65 1436.89L2215.28 1368.04ZM1786.88 1509.56L1786.88 1509.56Q1806 1509.56 1820.66 1485.97Q1835.33 1462.39 1835.33 1447.09L1835.33 1447.09Q1835.33 1434.34 1819.39 1417.13Q1803.45 1399.91 1765.20 1371.86Q1726.95 1343.81 1658.10 1299.19L1658.10 1299.19Q1640.25 1287.71 1627.50 1287.71L1627.50 1287.71Q1607.10 1287.71 1593.08 1307.47Q1579.05 1327.24 1579.05 1339.99L1579.05 1339.99Q1579.05 1351.46 1587.34 1357.84Q1595.63 1364.21 1605.83 1370.59L1605.83 1370.59Q1644.08 1397.36 1680.41 1426.69Q1716.75 1456.01 1752.45 1490.44L1752.45 1490.44Q1772.85 1509.56 1786.88 1509.56ZM2239.50 1674.04L2318.55 1668.94L2321.10 1987.69Q2276.48 1977.49 2216.55 1946.89L2216.55 1946.89Q2191.05 1934.14 2178.30 1934.14L2178.30 1934.14Q2161.72 1934.14 2161.72 1948.16Q2161.72 1962.19 2183.40 1983.86L2183.40 1983.86Q2233.13 2034.86 2282.85 2066.10Q2332.57 2097.34 2352.98 2097.34L2352.98 2097.34Q2370.82 2097.34 2393.14 2082.68Q2415.45 2068.01 2415.45 2034.86L2415.45 2034.86Q2415.45 2024.66 2414.18 2013.19Q2412.90 2001.71 2412.90 1988.96L2412.90 1988.96L2409.07 1663.84L2553.15 1656.19Q2572.28 1654.91 2585.66 1652.36Q2599.05 1649.81 2599.05 1634.51Q2599.05 1619.21 2567.18 1582.24L2567.18 1582.24L2597.78 1343.81Q2599.05 1338.71 2602.88 1332.34Q2606.70 1325.96 2606.70 1315.76L2606.70 1315.76Q2606.70 1294.09 2585.03 1279.43Q2563.35 1264.76 2548.05 1264.76L2548.05 1264.76Q2542.95 1264.76 2539.76 1265.40Q2536.57 1266.04 2534.03 1266.04L2534.03 1266.04L2356.80 1277.51Q2367 1260.94 2382.30 1234.16Q2397.60 1207.39 2410.35 1179.34L2410.35 1179.34Q2412.90 1176.79 2412.90 1169.14L2412.90 1169.14Q2412.90 1156.39 2396.96 1143.64Q2381.03 1130.89 2361.90 1121.96L2361.90 1121.96Q2358.07 1119.41 2355.53 1119.41L2355.53 1119.41L2624.55 1101.56Q2669.18 1099.01 2669.18 1074.79L2669.18 1074.79Q2669.18 1065.86 2657.06 1051.20Q2644.95 1036.54 2627.74 1023.79Q2610.53 1011.04 2592.68 1011.04L2592.68 1011.04Q2588.85 1011.04 2584.39 1011.67Q2579.93 1012.31 2573.55 1013.59L2573.55 1013.59Q2553.15 1019.96 2528.93 1021.24L2528.93 1021.24L2062.28 1053.11Q1992.15 1022.51 1973.03 1022.51L1973.03 1022.51Q1955.18 1022.51 1955.18 1039.09L1955.18 1039.09Q1955.18 1044.19 1957.09 1049.29Q1959 1054.39 1960.28 1060.76L1960.28 1060.76Q1969.20 1082.44 1971.11 1104.11Q1973.03 1125.79 1974.30 1152.56L1974.30 1152.56L1974.30 1204.84Q1974.30 1286.44 1968.56 1383.97Q1962.83 1481.51 1944.34 1587.97Q1925.85 1694.44 1890.79 1800.26Q1855.72 1906.09 1795.80 2005.54L1795.80 2005.54Q1779.22 2031.04 1779.22 2047.61Q1779.22 2064.19 1794.53 2064.19L1794.53 2064.19Q1816.20 2064.19 1850.63 2022.11Q1885.05 1980.04 1924.58 1906.73Q1964.10 1833.41 1997.25 1733.96Q2030.40 1634.51 2046.97 1518.49L2046.97 1518.49Q2059.72 1433.06 2064.19 1327.88Q2068.65 1222.69 2068.65 1137.26L2068.65 1137.26L2313.45 1121.96Q2310.90 1127.06 2310.90 1134.71L2310.90 1134.71L2310.90 1142.36Q2310.90 1150.01 2298.79 1191.45Q2286.68 1232.89 2256.07 1283.89L2256.07 1283.89L2207.63 1287.71Q2142.60 1266.04 2123.47 1266.04Q2104.35 1266.04 2104.35 1281.34L2104.35 1281.34Q2104.35 1287.71 2108.18 1295.36Q2112 1303.01 2117.10 1311.94L2117.10 1311.94Q2122.20 1323.41 2125.39 1338.08Q2128.57 1352.74 2129.85 1374.41L2129.85 1374.41L2148.97 1600.09Q2150.25 1605.19 2150.25 1609.65Q2150.25 1614.11 2150.25 1619.21L2150.25 1619.21Q2150.25 1628.14 2149.61 1635.15Q2148.97 1642.16 2147.70 1651.09L2147.70 1651.09Q2147.70 1652.36 2147.06 1655.55Q2146.43 1658.74 2146.43 1662.56L2146.43 1662.56Q2146.43 1689.34 2171.93 1703.36Q2197.43 1717.39 2214 1717.39L2214 1717.39Q2239.50 1717.39 2239.50 1685.51L2239.50 1685.51L2239.50 1679.14L2239.50 1674.04ZM1858.28 1252.01L1858.28 1252.01Q1869.75 1252.01 1881.22 1239.90Q1892.70 1227.79 1901.63 1213.76Q1910.55 1199.74 1910.55 1189.54Q1910.55 1179.34 1892.70 1158.30Q1874.85 1137.26 1849.35 1112.40Q1823.85 1087.54 1796.44 1063.95Q1769.03 1040.36 1746.08 1025.06Q1723.13 1009.76 1711.65 1009.76L1711.65 1009.76Q1692.53 1009.76 1677.86 1027.61Q1663.20 1045.46 1663.20 1058.85Q1663.20 1072.24 1683.60 1090.09L1683.60 1090.09Q1720.58 1119.41 1751.81 1150.65Q1783.05 1181.89 1823.85 1230.34L1823.85 1230.34Q1841.70 1252.01 1858.28 1252.01Z"/>
  </svg>