<svg xmlns="http://www.w3.org/2000/svg" viewBox="0 0 3000 3000" width="3000" height="3000">
    <path fill="#000000" d="M315.52 1325.33L315.52 1287.08L1412.02 1287.08L1412.02 1325.33L315.52 1325.33ZM514.42 1883.78L514.42 1845.53L1211.85 1845.53L1211.85 1883.78L514.42 1883.78ZM842.10 2145.15L842.10 998.92L880.35 998.92L880.35 2145.15L842.10 2145.15ZM786.00 1294.72L786.00 1294.72L819.15 1307.47Q766.87 1437.53 687.19 1557.38Q607.50 1677.23 512.51 1774.13Q417.52 1871.03 318.07 1930.95L318.07 1930.95Q315.52 1925.85 310.42 1920.11Q305.32 1914.38 300.22 1909.28Q295.12 1904.18 290.02 1900.35L290.02 1900.35Q389.47 1845.53 483.82 1751.18Q578.17 1656.83 657.22 1538.25Q736.27 1419.68 786.00 1294.72ZM902.02 1310.03L933.90 1298.55Q983.62 1426.05 1063.31 1543.99Q1143 1661.93 1241.81 1754.36Q1340.63 1846.80 1446.45 1899.08L1446.45 1899.08Q1441.35 1902.90 1436.25 1908Q1431.15 1913.10 1426.69 1918.84Q1422.22 1924.58 1418.40 1929.68L1418.40 1929.68Q1312.57 1873.58 1214.40 1777.95Q1116.22 1682.33 1035.26 1561.84Q954.30 1441.35 902.02 1310.03L902.02 1310.03ZM1959 1092L1959 1055.03L2702.32 1055.03L2702.32 1092L1959 1092ZM1941.15 1401.83L1941.15 1055.03L1979.40 1055.03L1979.40 1401.83Q1979.40 1483.43 1973.66 1577.78Q1967.93 1672.13 1950.71 1769.66Q1933.50 1867.20 1899.71 1960.91Q1865.92 2054.63 1809.83 2134.95L1809.83 2134.95Q1807.28 2131.13 1801.54 2127.30Q1795.80 2123.47 1790.06 2119.65Q1784.33 2115.83 1779.22 2114.55L1779.22 2114.55Q1834.05 2035.50 1866.56 1944.34Q1899.08 1853.18 1915.01 1758.83Q1930.95 1664.47 1936.05 1573.31Q1941.15 1482.15 1941.15 1401.83L1941.15 1401.83ZM2604.15 1505.10L2119.65 1505.10L2119.65 1659.38L2604.15 1659.38L2604.15 1505.10ZM2604.15 1315.13L2119.65 1315.13L2119.65 1466.85L2604.15 1466.85L2604.15 1315.13ZM2082.68 1697.63L2082.68 1276.88L2641.13 1276.88L2641.13 1697.63L2082.68 1697.63ZM2151.53 1789.43L2151.53 1789.43L2188.50 1799.63Q2165.55 1846.80 2136.22 1894.61Q2106.90 1942.43 2075.03 1985.14Q2043.15 2027.85 2011.28 2061L2011.28 2061Q2008.73 2057.18 2002.35 2053.35Q1995.98 2049.53 1989.60 2044.43Q1983.22 2039.33 1978.13 2036.78L1978.13 2036.78Q2027.85 1988.33 2073.75 1923.30Q2119.65 1858.28 2151.53 1789.43ZM2511.08 1798.35L2511.08 1798.35L2544.23 1784.33Q2574.82 1823.85 2606.70 1869.11Q2638.57 1914.38 2666.63 1956.45Q2694.68 1998.53 2712.53 2029.13L2712.53 2029.13L2676.82 2048.25Q2660.25 2016.38 2632.20 1973.66Q2604.15 1930.95 2572.91 1884.41Q2541.68 1837.88 2511.08 1798.35ZM2340.23 1132.80L2340.23 1132.80L2378.48 1145.55Q2365.73 1186.35 2351.06 1230.34Q2336.40 1274.33 2322.38 1304.93L2322.38 1304.93L2293.05 1293.45Q2304.53 1260.30 2318.55 1213.76Q2332.57 1167.22 2340.23 1132.80ZM2338.95 2090.33L2338.95 1669.58L2375.93 1669.58L2375.93 2090.33Q2375.93 2112 2368.91 2122.84Q2361.90 2133.68 2344.05 2138.78L2344.05 2138.78Q2324.93 2143.88 2284.76 2145.15Q2244.60 2146.43 2177.03 2145.15L2177.03 2145.15Q2175.75 2138.78 2171.93 2129.21Q2168.10 2119.65 2163 2110.72L2163 2110.72Q2220.38 2112 2261.81 2112Q2303.25 2112 2316 2112L2316 2112Q2338.95 2110.72 2338.95 2090.33L2338.95 2090.33ZM1624.95 1039.72L1624.95 1039.72L1649.17 1015.50Q1686.15 1038.45 1726.95 1065.22Q1767.75 1092 1804.09 1118.14Q1840.42 1144.28 1864.65 1163.40L1864.65 1163.40L1841.70 1194Q1817.47 1173.60 1780.50 1146.83Q1743.53 1120.05 1702.72 1091.36Q1661.92 1062.67 1624.95 1039.72ZM1561.20 1382.70L1561.20 1382.70L1584.15 1357.20Q1622.40 1377.60 1663.84 1402.46Q1705.28 1427.33 1742.89 1450.91Q1780.50 1474.50 1806 1493.63L1806 1493.63L1784.33 1524.22Q1758.83 1505.10 1721.21 1480.24Q1683.60 1455.38 1641.53 1429.24Q1599.45 1403.10 1561.20 1382.70ZM1630.05 2126.03L1598.17 2100.53Q1628.78 2050.80 1665.75 1981.31Q1702.72 1911.83 1739.70 1834.69Q1776.67 1757.55 1807.28 1688.70L1807.28 1688.70L1836.60 1711.65Q1808.55 1777.95 1772.85 1852.54Q1737.15 1927.13 1700.17 1998.53Q1663.20 2069.93 1630.05 2126.03L1630.05 2126.03Z"/>
  </svg>