<svg xmlns="http://www.w3.org/2000/svg" viewBox="0 0 3000 3000" width="3000" height="3000">
    <path fill="#000000" d="M622.80 1723.13L622.80 1723.13L644.47 1721.85L816.60 1715.48L816.60 1326.60Q732.45 1471.95 642.56 1573.31Q552.67 1674.68 473.62 1737.79Q394.57 1800.90 340.39 1829.59Q286.20 1858.28 274.72 1858.28Q263.25 1858.28 263.25 1848.71Q263.25 1839.15 283.65 1822.58L283.65 1822.58Q458.32 1693.80 617.70 1489.80L617.70 1489.80Q701.85 1382.70 774.52 1253.93L774.52 1253.93L501.67 1269.22Q490.20 1270.50 480.00 1270.50L480.00 1270.50L463.42 1270.50Q449.40 1270.50 425.17 1262.85Q400.95 1255.20 384.37 1211.85L384.37 1211.85Q381.82 1204.20 381.82 1201.65L381.82 1201.65Q381.82 1192.72 392.02 1192.72L392.02 1192.72Q397.12 1192.72 408.60 1195.91Q420.07 1199.10 451.95 1199.10L451.95 1199.10L471.07 1199.10L816.60 1179.97L816.60 956.85Q816.60 924.98 805.12 908.40Q793.65 891.83 793.65 886.72L793.65 886.72Q793.65 877.80 808.95 877.80L808.95 877.80L821.70 880.35Q861.22 884.17 879.07 896.92Q896.92 909.67 896.92 924.98L896.92 924.98L896.92 1174.88L1211.85 1157.03Q1252.65 1153.20 1264.12 1148.74Q1275.60 1144.28 1283.89 1144.28Q1292.17 1144.28 1310.02 1157.03Q1327.88 1169.78 1341.26 1184.44Q1354.65 1199.10 1354.65 1206.75L1354.65 1206.75Q1354.65 1220.78 1322.77 1223.33L1322.77 1223.33L930.07 1245Q1048.65 1401.83 1179.34 1535.70Q1310.02 1669.58 1470.67 1752.45L1470.67 1752.45Q1488.52 1762.65 1488.52 1767.75Q1488.52 1772.85 1463.66 1793.89Q1438.80 1814.93 1423.50 1814.93Q1408.20 1814.93 1391.63 1804.73L1391.63 1804.73Q1239.90 1705.28 1119.41 1585.43Q998.92 1465.58 896.92 1306.20L896.92 1306.20L896.92 1711.65L1034.63 1706.55Q1066.50 1704 1083.07 1698.26Q1099.65 1692.53 1110.49 1692.53Q1121.32 1692.53 1137.26 1703.36Q1153.20 1714.20 1162.76 1728.23Q1172.32 1742.25 1172.32 1749.90L1172.32 1749.90Q1172.32 1770.30 1139.17 1772.85L1139.17 1772.85L896.92 1783.05L896.92 2021.48Q896.92 2055.90 871.42 2055.90Q845.92 2055.90 816.60 2029.13L816.60 2029.13Q806.40 2018.93 806.40 2008.73Q806.40 1998.53 811.50 1975.58Q816.60 1952.63 816.60 1915.65L816.60 1915.65L816.60 1786.88L662.32 1793.25L639.37 1793.25Q604.95 1793.25 593.47 1781.78L593.47 1781.78Q571.80 1760.10 564.15 1728.23L564.15 1728.23Q562.87 1725.68 562.87 1720.58Q562.87 1715.48 567.34 1715.48Q571.80 1715.48 585.82 1719.30Q599.85 1723.13 622.80 1723.13ZM1816.20 1163.40L1816.20 1163.40Q1757.55 1093.28 1688.70 1035.90L1688.70 1035.90Q1670.85 1020.60 1670.85 1010.40Q1670.85 1000.20 1683.60 984.90Q1696.35 969.60 1708.46 969.60Q1720.58 969.60 1742.25 984.26Q1763.92 998.92 1791.34 1021.88Q1818.75 1044.83 1844.25 1069.69Q1869.75 1094.55 1886.33 1114.31Q1902.90 1134.08 1902.90 1145.55Q1902.90 1157.03 1884.41 1176.79Q1865.92 1196.55 1855.72 1196.55Q1845.53 1196.55 1816.20 1163.40ZM2624.55 1046.10L2061 1081.80Q2061 1324.05 2041.88 1454.74Q2022.75 1585.43 1989.60 1684.24Q1956.45 1783.05 1917.56 1855.73Q1878.67 1928.40 1845.53 1968.56Q1812.38 2008.73 1794.53 2008.73L1794.53 2008.73Q1786.88 2008.73 1786.88 1997.25Q1786.88 1985.78 1802.17 1961.55L1802.17 1961.55Q1953.90 1709.10 1976.85 1336.80L1976.85 1336.80Q1981.95 1238.63 1981.95 1157.03L1981.95 1157.03L1981.95 1104.75Q1978.13 1032.08 1964.10 1000.20L1964.10 1000.20Q1962.83 995.10 1962.83 991.27L1962.83 991.27Q1962.83 982.35 1976.85 982.35Q1990.88 982.35 2061 1012.95L2061 1012.95L2528.93 981.08Q2554.43 979.80 2570.36 975.34Q2586.30 970.88 2597.14 970.88Q2607.98 970.88 2623.91 982.35Q2639.85 993.83 2650.69 1007.21Q2661.53 1020.60 2661.53 1026.97L2661.53 1026.97Q2661.53 1043.55 2624.55 1046.10L2624.55 1046.10ZM2154.07 1614.75L2154.07 1614.75Q2157.90 1580.33 2157.90 1573.95L2157.90 1573.95L2157.90 1561.20Q2157.90 1556.10 2156.63 1551L2156.63 1551L2137.50 1326.60Q2134.95 1283.25 2123.47 1260.94Q2112 1238.63 2112 1232.25Q2112 1225.88 2126.66 1225.88Q2141.32 1225.88 2206.35 1247.55L2206.35 1247.55L2261.18 1243.72Q2294.32 1187.63 2306.44 1145.55Q2318.55 1103.47 2318.55 1094.55L2318.55 1094.55L2318.55 1086.90Q2318.55 1071.60 2329.39 1071.60Q2340.23 1071.60 2359.35 1080.53L2359.35 1080.53Q2405.25 1103.47 2405.25 1121.96Q2405.25 1140.45 2341.50 1238.63L2341.50 1238.63L2534.03 1225.88L2548.05 1224.60Q2560.80 1224.60 2579.93 1237.35Q2599.05 1250.10 2599.05 1262.85Q2599.05 1275.60 2595.23 1281.97Q2591.40 1288.35 2590.13 1294.72L2590.13 1294.72L2559.53 1536.97Q2591.40 1573.95 2591.40 1584.79Q2591.40 1595.63 2581.20 1597.54Q2571 1599.45 2553.15 1600.73L2553.15 1600.73L2401.43 1608.38L2405.25 1941.15L2407.80 1987.05Q2407.80 2016.38 2388.04 2029.13Q2368.28 2041.88 2351.70 2041.88Q2335.13 2041.88 2286.68 2011.28Q2238.22 1980.68 2203.80 1946.25Q2169.38 1911.83 2169.38 1902.90Q2169.38 1893.98 2179.57 1893.98Q2189.78 1893.98 2231.85 1915.65Q2273.93 1937.33 2328.75 1950.08L2328.75 1950.08L2326.20 1613.48L2230.57 1618.58L2231.85 1631.33L2231.85 1637.70Q2231.85 1661.93 2214 1661.93L2214 1661.93Q2199.97 1661.93 2177.03 1649.18Q2154.07 1636.43 2154.07 1614.75ZM1654.28 1257.75L1654.28 1257.75Q1784.33 1341.90 1806 1365.49Q1827.67 1389.08 1827.67 1400.55Q1827.67 1412.03 1814.92 1433.06Q1802.17 1454.10 1788.79 1454.10Q1775.40 1454.10 1728.86 1410.11Q1682.33 1366.13 1641.53 1338.08Q1600.72 1310.03 1593.71 1304.93Q1586.70 1299.83 1586.70 1290.90Q1586.70 1281.97 1598.81 1264.76Q1610.92 1247.55 1624.31 1247.55Q1637.70 1247.55 1654.28 1257.75ZM2502.15 1380.15L2511.08 1293.45L2207.63 1312.58L2214 1396.72L2502.15 1380.15ZM2486.85 1539.53L2497.05 1441.35L2219.10 1456.65L2225.47 1554.83L2486.85 1539.53ZM1645.35 1952.63L1638.97 1952.63Q1636.42 1951.35 1616.03 1946.25L1616.03 1946.25Q1558.65 1929.68 1558.65 1909.28L1558.65 1909.28Q1558.65 1904.18 1582.88 1886.96Q1607.10 1869.75 1627.50 1839.15L1627.50 1839.15Q1701.45 1733.33 1808.55 1533.15L1808.55 1533.15Q1827.67 1497.45 1842.97 1497.45L1842.97 1497.45Q1853.17 1497.45 1853.17 1512.11Q1853.17 1526.78 1825.13 1610.93Q1797.08 1695.08 1687.42 1910.55L1687.42 1910.55Q1678.50 1930.95 1668.94 1941.79Q1659.38 1952.63 1645.35 1952.63L1645.35 1952.63ZM2662.80 1930.95L2662.80 1930.95Q2652.60 1930.95 2636.03 1906.73L2636.03 1906.73Q2572.28 1803.45 2495.78 1715.48L2495.78 1715.48Q2481.75 1698.90 2481.75 1687.43Q2481.75 1675.95 2498.96 1663.84Q2516.18 1651.73 2524.46 1651.73Q2532.75 1651.73 2554.43 1672.76Q2576.10 1693.80 2602.88 1726.31Q2629.65 1758.83 2654.51 1791.98Q2679.38 1825.13 2695.95 1849.99Q2712.53 1874.85 2712.53 1885.05Q2712.53 1895.25 2701.69 1906.73Q2690.85 1918.20 2678.74 1924.58Q2666.63 1930.95 2662.80 1930.95ZM2143.88 1693.80L2143.88 1675.95Q2143.88 1663.20 2152.80 1663.20Q2161.72 1663.20 2180.85 1673.40L2180.85 1673.40Q2234.40 1698.90 2234.40 1723.13L2234.40 1723.13Q2234.40 1726.95 2231.85 1732.05L2231.85 1732.05Q2123.47 1899.08 2035.50 1959L2035.50 1959Q2021.47 1967.93 2013.19 1967.93Q2004.90 1967.93 2004.90 1957.09Q2004.90 1946.25 2034.22 1905.45L2034.22 1905.45Q2113.28 1798.35 2141.32 1718.03L2141.32 1718.03Q2143.88 1707.83 2143.88 1693.80L2143.88 1693.80Z"/>
  </svg>