<svg xmlns="http://www.w3.org/2000/svg" viewBox="0 0 3000 3000" width="3000" height="3000">
    <path fill="#000000" d="M856.27 2066.53Q805.22 2066.53 805.22 2004.27L805.22 2004.27L805.22 1862.33L617.21 1862.33Q563.67 1862.33 563.67 1813.77L563.67 1813.77Q563.67 1765.21 617.21 1765.21L617.21 1765.21L805.22 1765.21L805.22 1241.02L908.57 1241.02L908.57 1765.21L1106.54 1765.21Q1133.94 1765.21 1146.39 1777.04Q1158.84 1788.87 1158.84 1815.01L1158.84 1815.01Q1158.84 1862.33 1106.54 1862.33L1106.54 1862.33L908.57 1862.33L908.57 2004.27Q908.57 2066.53 856.27 2066.53L856.27 2066.53ZM350.76 1871.04Q295.97 1871.04 295.97 1813.77L295.97 1813.77Q295.97 1780.15 334.57 1754.00L334.57 1754.00Q467.80 1661.87 586.08 1519.92L586.08 1519.92Q718.07 1361.79 766.63 1246.00L766.63 1246.00L866.24 1246.00Q785.30 1401.64 707.48 1511.21Q629.66 1620.78 548.73 1707.93L548.73 1707.93Q399.32 1871.04 350.76 1871.04L350.76 1871.04ZM1373.00 1864.82Q1319.46 1864.82 1168.80 1712.92L1168.80 1712.92Q1079.15 1622.02 1001.95 1514.94Q924.76 1407.86 850.05 1243.51L850.05 1243.51L935.96 1243.51Q999.46 1394.17 1128.96 1532.37L1128.96 1532.37Q1260.94 1671.83 1381.71 1742.80L1381.71 1742.80Q1429.03 1770.19 1429.03 1805.05L1429.03 1805.05Q1429.03 1864.82 1373.00 1864.82L1373.00 1864.82ZM371.92 1259.69Q312.16 1259.69 312.16 1211.13L312.16 1211.13Q312.16 1162.57 371.92 1162.57L371.92 1162.57L1356.81 1162.57Q1416.58 1162.57 1416.58 1211.13L1416.58 1211.13Q1416.58 1259.69 1356.81 1259.69L1356.81 1259.69L371.92 1259.69ZM805.22 999.46Q805.22 933.47 857.52 933.47L857.52 933.47Q908.57 933.47 908.57 999.46L908.57 999.46L908.57 1177.51L805.22 1177.51L805.22 999.46ZM2218.43 2070.26Q2157.42 2070.26 2157.42 2020.46L2157.42 2020.46Q2157.42 1969.41 2207.23 1969.41L2207.23 1969.41L2250.81 1969.41Q2270.73 1969.41 2280.69 1958.20Q2290.65 1947.00 2290.65 1927.08L2290.65 1927.08L2290.65 1675.56L2162.40 1675.56Q2107.62 1675.56 2082.71 1650.66Q2057.81 1625.76 2060.30 1573.46L2060.30 1573.46L2060.30 1304.52Q2060.30 1249.73 2085.21 1224.83Q2110.11 1199.93 2162.40 1202.42L2162.40 1202.42L2264.50 1202.42L2295.63 1087.87L2040.38 1087.87Q2000.54 1087.87 1994.31 1120.24L1994.31 1120.24L1990.58 1237.28L1986.84 1399.15Q1984.35 1568.48 1978.13 1635.72L1978.13 1635.72Q1964.43 1777.66 1919.60 1900.93L1919.60 1900.93Q1877.27 2017.97 1821.24 2017.97L1821.24 2017.97Q1768.95 2017.97 1768.95 1961.94L1768.95 1961.94Q1768.95 1942.02 1788.87 1913.38L1788.87 1913.38Q1878.52 1783.89 1889.72 1502.49L1889.72 1502.49L1892.21 1120.24Q1892.21 990.75 2012.99 990.75L2012.99 990.75L2648.00 990.75Q2706.52 990.75 2706.52 1039.31L2706.52 1039.31Q2706.52 1087.87 2648.00 1087.87L2648.00 1087.87L2398.97 1087.87L2361.62 1202.42L2542.16 1202.42Q2596.95 1202.42 2621.85 1227.32Q2646.75 1252.22 2644.26 1304.52L2644.26 1304.52L2644.26 1573.46Q2644.26 1627.00 2619.36 1652.53Q2594.46 1678.05 2542.16 1675.56L2542.16 1675.56L2386.52 1675.56L2386.52 1949.49Q2386.52 2009.25 2361.00 2039.14Q2335.47 2069.02 2279.44 2070.26L2279.44 2070.26L2218.43 2070.26ZM1643.19 2049.10Q1588.40 2049.10 1588.40 1995.56L1588.40 1995.56Q1588.40 1975.63 1612.06 1920.85L1612.06 1920.85Q1624.51 1894.70 1664.36 1771.44L1664.36 1771.44L1689.26 1694.24L1704.20 1649.41Q1710.42 1628.25 1716.65 1612.68Q1722.88 1597.12 1726.61 1593.38L1726.61 1593.38Q1737.82 1582.18 1756.49 1582.18L1756.49 1582.18Q1806.30 1582.18 1806.30 1631.98L1806.30 1631.98Q1806.30 1673.07 1724.12 1925.83L1724.12 1925.83Q1685.52 2049.10 1643.19 2049.10L1643.19 2049.10ZM2004.27 2010.50Q1956.96 2010.50 1956.96 1959.45L1956.96 1959.45Q1956.96 1942.02 2006.76 1885.99L2006.76 1885.99Q2052.83 1833.69 2090.19 1760.23L2090.19 1760.23Q2111.35 1717.90 2139.99 1717.90L2139.99 1717.90Q2186.06 1717.90 2186.06 1761.47L2186.06 1761.47Q2186.06 1801.32 2112.60 1904.66L2112.60 1904.66Q2037.89 2010.50 2004.27 2010.50L2004.27 2010.50ZM1746.53 1429.03Q1729.10 1429.03 1656.88 1397.90L1656.88 1397.90Q1585.91 1365.53 1585.91 1335.64L1585.91 1335.64Q1585.91 1283.35 1639.45 1283.35L1639.45 1283.35Q1664.36 1283.35 1729.10 1309.50L1729.10 1309.50Q1792.60 1334.40 1792.60 1374.24L1792.60 1374.24Q1792.60 1429.03 1746.53 1429.03L1746.53 1429.03ZM1792.60 1114.01Q1780.15 1114.01 1685.52 1067.94L1685.52 1067.94Q1639.45 1044.29 1639.45 1014.40L1639.45 1014.40Q1639.45 962.11 1692.99 962.11L1692.99 962.11Q1724.12 962.11 1785.13 994.48L1785.13 994.48Q1843.65 1026.86 1843.65 1059.23L1843.65 1059.23Q1843.65 1114.01 1792.60 1114.01L1792.60 1114.01ZM2655.47 2000.54Q2619.36 2000.54 2543.41 1898.44L2543.41 1898.44Q2466.21 1792.60 2466.21 1762.72L2466.21 1762.72Q2466.21 1720.39 2516.02 1720.39L2516.02 1720.39Q2548.39 1720.39 2569.56 1760.23L2569.56 1760.23Q2608.15 1828.71 2664.18 1879.76L2664.18 1879.76Q2685.35 1898.44 2695.94 1916.49Q2706.52 1934.55 2706.52 1947.00L2706.52 1947.00Q2706.52 2000.54 2655.47 2000.54L2655.47 2000.54ZM2509.79 1593.38Q2544.65 1593.38 2547.14 1556.03L2547.14 1556.03L2547.14 1475.10L2152.44 1475.10L2152.44 1556.03Q2152.44 1590.89 2189.79 1593.38L2189.79 1593.38L2509.79 1593.38ZM2152.44 1395.41L2547.14 1395.41L2547.14 1321.95Q2547.14 1285.84 2509.79 1284.59L2509.79 1284.59L2189.79 1284.59Q2154.93 1284.59 2152.44 1321.95L2152.44 1321.95L2152.44 1395.41Z"/>
  </svg>