<svg xmlns="http://www.w3.org/2000/svg" viewBox="0 0 3000 3000" width="3000" height="3000">
    <path fill="#000000" d="M1498 1851L1498 1851L1498 1879Q1498 1891 1497 1899Q1496 1907 1494 1913L1494 1913Q1470 1985 1422 2064Q1374 2143 1310 2231L1310 2231Q1280 2271 1280 2297L1280 2297Q1280 2321 1304 2321L1304 2321Q1322 2321 1346 2305Q1370 2289 1372 2287L1372 2287Q1448 2227 1521 2136Q1594 2045 1658 1945L1658 1945Q1664 1933 1664 1925L1664 1925Q1664 1899 1635 1875Q1606 1851 1573 1835Q1540 1819 1526 1819L1526 1819Q1498 1819 1498 1851ZM2414 2173L2414 2173Q2414 2159 2387 2119Q2360 2079 2321 2026Q2282 1973 2239 1922Q2196 1871 2160 1836Q2124 1801 2108 1801L2108 1801Q2090 1801 2059 1823Q2028 1845 2028 1873L2028 1873Q2028 1891 2052 1921L2052 1921Q2172 2059 2272 2219L2272 2219Q2302 2263 2324 2263L2324 2263Q2332 2263 2354 2252Q2376 2241 2395 2220Q2414 2199 2414 2173ZM716 2297L716 2297L728 2297Q756 2297 773 2277Q790 2257 804 2225L804 2225Q862 2111 933 1959Q1004 1807 1054 1655L1054 1655Q1066 1619 1066 1597L1066 1597Q1066 1559 1038 1559L1038 1559Q1006 1559 974 1621L974 1621Q932 1699 881 1789Q830 1879 777 1966Q724 2053 674 2123L674 2123Q660 2143 643 2156Q626 2169 606 2185L606 2185Q580 2203 580 2217L580 2217Q580 2241 613 2259Q646 2277 678 2286Q710 2295 716 2297ZM1640 1519L2050 1495L2038 1625L1650 1649L1640 1519ZM1622 1293L2072 1263L2062 1375L1632 1401L1622 1293ZM950 1515L950 1515Q980 1515 1003 1478Q1026 1441 1026 1417L1026 1417Q1026 1397 1001 1370Q976 1343 916 1299Q856 1255 748 1185L748 1185Q720 1167 700 1167L700 1167Q668 1167 646 1198Q624 1229 624 1249L624 1249Q624 1267 637 1277Q650 1287 666 1297L666 1297Q726 1339 783 1385Q840 1431 896 1485L896 1485Q928 1515 950 1515ZM1660 1773L1784 1765L1788 2265Q1718 2249 1624 2201L1624 2201Q1584 2181 1564 2181L1564 2181Q1538 2181 1538 2203Q1538 2225 1572 2259L1572 2259Q1650 2339 1728 2388Q1806 2437 1838 2437L1838 2437Q1866 2437 1901 2414Q1936 2391 1936 2339L1936 2339Q1936 2323 1934 2305Q1932 2287 1932 2267L1932 2267L1926 1757L2152 1745Q2182 1743 2203 1739Q2224 1735 2224 1711Q2224 1687 2174 1629L2174 1629L2222 1255Q2224 1247 2230 1237Q2236 1227 2236 1211L2236 1211Q2236 1177 2202 1154Q2168 1131 2144 1131L2144 1131Q2136 1131 2131 1132Q2126 1133 2122 1133L2122 1133L1844 1151Q1860 1125 1884 1083Q1908 1041 1928 997L1928 997Q1932 993 1932 981L1932 981Q1932 961 1907 941Q1882 921 1852 907L1852 907Q1846 903 1842 903L1842 903L2264 875Q2334 871 2334 833L2334 833Q2334 819 2315 796Q2296 773 2269 753Q2242 733 2214 733L2214 733Q2208 733 2201 734Q2194 735 2184 737L2184 737Q2152 747 2114 749L2114 749L1382 799Q1272 751 1242 751L1242 751Q1214 751 1214 777L1214 777Q1214 785 1217 793Q1220 801 1222 811L1222 811Q1236 845 1239 879Q1242 913 1244 955L1244 955L1244 1037Q1244 1165 1235 1318Q1226 1471 1197 1638Q1168 1805 1113 1971Q1058 2137 964 2293L964 2293Q938 2333 938 2359Q938 2385 962 2385L962 2385Q996 2385 1050 2319Q1104 2253 1166 2138Q1228 2023 1280 1867Q1332 1711 1358 1529L1358 1529Q1378 1395 1385 1230Q1392 1065 1392 931L1392 931L1776 907Q1772 915 1772 927L1772 927L1772 939Q1772 951 1753 1016Q1734 1081 1686 1161L1686 1161L1610 1167Q1508 1133 1478 1133Q1448 1133 1448 1157L1448 1157Q1448 1167 1454 1179Q1460 1191 1468 1205L1468 1205Q1476 1223 1481 1246Q1486 1269 1488 1303L1488 1303L1518 1657Q1520 1665 1520 1672Q1520 1679 1520 1687L1520 1687Q1520 1701 1519 1712Q1518 1723 1516 1737L1516 1737Q1516 1739 1515 1744Q1514 1749 1514 1755L1514 1755Q1514 1797 1554 1819Q1594 1841 1620 1841L1620 1841Q1660 1841 1660 1791L1660 1791L1660 1781L1660 1773ZM1062 1111L1062 1111Q1080 1111 1098 1092Q1116 1073 1130 1051Q1144 1029 1144 1013Q1144 997 1116 964Q1088 931 1048 892Q1008 853 965 816Q922 779 886 755Q850 731 832 731L832 731Q802 731 779 759Q756 787 756 808Q756 829 788 857L788 857Q846 903 895 952Q944 1001 1008 1077L1008 1077Q1036 1111 1062 1111Z"/>
  </svg>