<svg xmlns="http://www.w3.org/2000/svg" viewBox="0 0 3000 3000" width="3000" height="3000">
    <path fill="#000000" d="M610.99 2069.02Q562.43 2069.02 562.43 2009.25L562.43 2009.25L562.43 1537.35Q516.36 1666.85 445.39 1771.44L445.39 1771.44Q374.41 1874.78 344.53 1874.78L344.53 1874.78Q293.48 1874.78 293.48 1821.24L293.48 1821.24Q293.48 1802.56 325.85 1763.96L325.85 1763.96Q481.49 1579.69 553.71 1366.77L553.71 1366.77L352.00 1366.77Q298.46 1366.77 298.46 1316.97L298.46 1316.97Q298.46 1268.41 352.00 1268.41L352.00 1268.41L562.43 1268.41L562.43 1067.94L660.79 1054.25L660.79 1268.41L812.70 1268.41Q867.48 1268.41 867.48 1318.21L867.48 1318.21Q867.48 1366.77 812.70 1366.77L812.70 1366.77L660.79 1366.77L660.79 1508.72Q670.75 1483.81 696.90 1483.81L696.90 1483.81Q705.62 1483.81 729.90 1505.60Q754.17 1527.39 789.04 1568.48L789.04 1568.48Q828.88 1614.55 846.94 1640.70Q864.99 1666.85 864.99 1680.54L864.99 1680.54Q864.99 1726.61 817.68 1726.61L817.68 1726.61Q790.28 1726.61 761.65 1676.81L761.65 1676.81Q735.50 1630.74 685.69 1573.46L685.69 1573.46Q673.24 1559.77 660.79 1534.86L660.79 1534.86L660.79 2009.25Q660.79 2069.02 610.99 2069.02L610.99 2069.02ZM360.72 1105.30Q338.31 1106.54 326.48 1094.71Q314.65 1082.89 314.65 1057.98L314.65 1057.98Q314.65 1015.65 379.39 1011.91L379.39 1011.91Q608.50 996.97 750.44 952.15L750.44 952.15L805.22 937.21Q857.52 937.21 857.52 989.50L857.52 989.50Q857.52 1025.61 820.17 1039.31L820.17 1039.31Q762.89 1059.23 629.66 1077.91L629.66 1077.91Q507.64 1095.34 360.72 1105.30L360.72 1105.30ZM1023.12 1989.33Q954.64 1989.33 923.51 1958.83Q892.38 1928.32 896.12 1862.33L896.12 1862.33L896.12 1197.44Q887.40 1060.47 1023.12 1070.43L1023.12 1070.43L1257.20 1070.43Q1394.17 1060.47 1384.20 1197.44L1384.20 1197.44L1384.20 1862.33Q1384.20 1932.06 1353.70 1963.18Q1323.19 1994.31 1257.20 1989.33L1257.20 1989.33L1023.12 1989.33ZM1224.83 1887.23Q1279.61 1887.23 1279.61 1831.20L1279.61 1831.20L1279.61 1228.56Q1279.61 1173.78 1224.83 1173.78L1224.83 1173.78L1055.49 1173.78Q998.22 1173.78 999.46 1228.56L999.46 1228.56L999.46 1831.20Q999.46 1887.23 1055.49 1887.23L1055.49 1887.23L1224.83 1887.23ZM2136.25 2035.40Q2031.67 2035.40 2031.67 1930.81L2031.67 1930.81L2031.67 1674.32Q2031.67 1572.22 2133.76 1570.97L2133.76 1570.97L2214.70 1570.97L2222.17 1541.09Q2243.33 1457.67 2288.16 1457.67L2288.16 1457.67Q2335.47 1457.67 2335.47 1496.26L2335.47 1496.26Q2335.47 1517.43 2306.84 1570.97L2306.84 1570.97L2532.20 1570.97Q2589.48 1570.97 2615.00 1595.87Q2640.53 1620.78 2636.79 1675.56L2636.79 1675.56L2636.79 1929.57Q2636.79 1986.84 2611.89 2012.99Q2586.99 2039.14 2532.20 2035.40L2532.20 2035.40L2136.25 2035.40ZM1707.93 2021.70Q1610.82 2021.70 1610.82 1928.32L1610.82 1928.32L1610.82 1744.04Q1610.82 1648.17 1707.93 1648.17L1707.93 1648.17L1859.84 1648.17Q1956.96 1648.17 1956.96 1744.04L1956.96 1744.04L1956.96 1925.83Q1956.96 2021.70 1859.84 2021.70L1859.84 2021.70L1707.93 2021.70ZM1833.69 1937.04Q1862.33 1937.04 1864.82 1904.66L1864.82 1904.66L1864.82 1765.21Q1864.82 1734.08 1833.69 1734.08L1833.69 1734.08L1734.08 1734.08Q1702.95 1734.08 1701.71 1765.21L1701.71 1765.21L1701.71 1904.66Q1701.71 1937.04 1734.08 1937.04L1734.08 1937.04L1833.69 1937.04ZM1655.64 1574.71Q1605.83 1574.71 1605.83 1529.88L1605.83 1529.88Q1605.83 1482.57 1655.64 1482.57L1655.64 1482.57L1904.66 1482.57Q1954.47 1482.57 1954.47 1529.88L1954.47 1529.88Q1954.47 1574.71 1904.66 1574.71L1904.66 1574.71L1655.64 1574.71ZM1655.64 1407.86Q1605.83 1407.86 1605.83 1360.55L1605.83 1360.55Q1605.83 1315.72 1655.64 1315.72L1655.64 1315.72L1902.17 1315.72Q1951.98 1315.72 1951.98 1361.79L1951.98 1361.79Q1951.98 1407.86 1902.17 1407.86L1902.17 1407.86L1655.64 1407.86ZM2504.81 1950.73Q2538.43 1950.73 2540.92 1914.62L2540.92 1914.62L2540.92 1839.92L2128.78 1839.92L2128.78 1915.87Q2128.78 1948.24 2166.14 1950.73L2166.14 1950.73L2504.81 1950.73ZM1620.78 1244.75Q1565.99 1244.75 1565.99 1197.44L1565.99 1197.44Q1565.99 1150.12 1620.78 1150.12L1620.78 1150.12L1939.53 1150.12Q1994.31 1150.12 1994.31 1197.44L1994.31 1197.44Q1994.31 1244.75 1939.53 1244.75L1939.53 1244.75L1620.78 1244.75ZM2128.78 1760.23L2540.92 1760.23L2540.92 1689.26Q2540.92 1658.13 2504.81 1655.64L2504.81 1655.64L2166.14 1655.64Q2131.27 1655.64 2128.78 1689.26L2128.78 1689.26L2128.78 1760.23ZM1653.15 1077.91Q1602.10 1077.91 1602.10 1030.59L1602.10 1030.59Q1602.10 983.28 1653.15 983.28L1653.15 983.28L1913.38 983.28Q1965.67 983.28 1965.67 1030.59L1965.67 1030.59Q1965.67 1077.91 1913.38 1077.91L1913.38 1077.91L1653.15 1077.91ZM2000.54 1498.75Q1953.22 1498.75 1953.22 1451.44L1953.22 1451.44Q1953.22 1411.60 2044.12 1391.67L2044.12 1391.67L2044.12 989.50Q2044.12 937.21 2091.43 937.21L2091.43 937.21Q2139.99 937.21 2139.99 989.50L2139.99 989.50L2139.99 1094.09L2269.48 1094.09Q2325.51 1094.09 2325.51 1140.16L2325.51 1140.16Q2325.51 1184.99 2269.48 1184.99L2269.48 1184.99L2139.99 1184.99L2139.99 1371.75L2264.50 1339.38L2290.65 1334.40Q2309.33 1330.66 2318.66 1341.87Q2328.00 1353.08 2328.00 1375.49L2328.00 1375.49Q2328.00 1407.86 2273.22 1422.80L2273.22 1422.80L2209.72 1442.72Q2030.42 1498.75 2000.54 1498.75L2000.54 1498.75ZM2532.20 1490.04Q2431.35 1490.04 2397.73 1476.34L2397.73 1476.34Q2355.40 1458.91 2355.40 1406.62L2355.40 1406.62L2355.40 983.28Q2355.40 932.23 2403.96 932.23L2403.96 932.23Q2451.27 932.23 2451.27 989.50L2451.27 989.50L2451.27 1125.22L2565.82 1061.72Q2606.91 1039.31 2620.61 1039.31L2620.61 1039.31Q2669.17 1039.31 2669.17 1087.87L2669.17 1087.87Q2669.17 1102.81 2651.73 1117.13Q2634.30 1131.45 2598.19 1150.12L2598.19 1150.12Q2553.37 1172.53 2451.27 1214.87L2451.27 1214.87L2451.27 1351.83Q2451.27 1397.90 2516.02 1397.90L2516.02 1397.90Q2568.31 1397.90 2583.25 1392.92L2583.25 1392.92Q2601.93 1386.69 2608.15 1334.40L2608.15 1334.40Q2613.13 1280.86 2656.71 1280.86L2656.71 1280.86Q2706.52 1280.86 2706.52 1330.66L2706.52 1330.66Q2706.52 1416.58 2665.43 1460.16L2665.43 1460.16Q2638.04 1490.04 2532.20 1490.04L2532.20 1490.04Z"/>
  </svg>