<svg xmlns="http://www.w3.org/2000/svg" viewBox="0 0 3000 3000" width="3000" height="3000">
    <path fill="#000000" d="M1037.17 1337.44L1301.10 1324.69L1276.87 1695.71L1047.38 1703.36L1037.17 1337.44ZM1051.20 1833.41L1049.92 1793.89L1358.47 1782.41Q1376.32 1781.14 1391.63 1778.59Q1406.92 1776.04 1406.92 1760.74L1406.92 1760.74Q1406.92 1750.54 1398 1735.88Q1389.07 1721.21 1369.95 1703.36L1369.95 1703.36L1401.82 1314.49Q1403.10 1309.39 1406.29 1304.29Q1409.47 1299.19 1409.47 1288.99L1409.47 1288.99Q1409.47 1269.86 1386.52 1251.38Q1363.57 1232.89 1345.72 1232.89L1345.72 1232.89Q1341.90 1232.89 1338.71 1233.53Q1335.52 1234.16 1334.25 1234.16L1334.25 1234.16L1025.70 1250.74Q954.30 1226.51 935.17 1226.51Q916.05 1226.51 916.05 1241.81L916.05 1241.81Q916.05 1246.91 919.24 1252.65Q922.42 1258.39 924.97 1266.04L924.97 1266.04Q932.62 1281.34 937.09 1295.36Q941.55 1309.39 942.82 1325.96L942.82 1325.96L953.02 1728.86Q953.02 1745.44 953.02 1763.29Q953.02 1781.14 950.47 1802.81L950.47 1802.81L950.47 1809.19Q950.47 1842.34 993.82 1860.19L993.82 1860.19Q1014.22 1867.84 1026.97 1867.84L1026.97 1867.84Q1051.20 1867.84 1051.20 1838.51L1051.20 1838.51L1051.20 1833.41ZM671.25 1443.26L671.25 1402.46L875.25 1384.61Q909.67 1380.79 909.67 1360.39L909.67 1360.39Q909.67 1348.91 896.92 1333.61Q884.17 1318.31 866.96 1306.84Q849.75 1295.36 833.17 1295.36L833.17 1295.36Q825.52 1295.36 820.42 1296.64L820.42 1296.64Q793.65 1305.56 764.32 1308.11L764.32 1308.11L671.25 1315.76L671.25 1132.16Q710.77 1118.14 755.40 1096.46Q800.02 1074.79 840.82 1054.39L840.82 1054.39Q852.30 1049.29 852.30 1032.71L852.30 1032.71Q852.30 1013.59 838.91 991.91Q825.52 970.24 809.59 953.66Q793.65 937.09 780.90 937.09L780.90 937.09Q769.42 937.09 761.77 953.66L761.77 953.66Q756.67 965.14 750.94 972.79Q745.20 980.44 732.45 988.09L732.45 988.09Q661.05 1030.16 561.60 1082.44Q462.15 1134.71 355.05 1176.79L355.05 1176.79Q325.72 1188.26 325.72 1207.39Q325.72 1226.51 352.50 1226.51L352.50 1226.51Q358.87 1226.51 370.35 1225.24Q381.82 1223.96 405.41 1218.22Q429.00 1212.49 472.99 1199.10Q516.97 1185.71 580.72 1164.04L580.72 1164.04L579.45 1323.41L400.95 1338.71L384.37 1338.71Q358.87 1338.71 333.37 1334.89L333.37 1334.89L332.10 1333.61Q329.55 1333.61 327.00 1333.61L327.00 1333.61Q310.42 1333.61 310.42 1348.91L310.42 1348.91Q310.42 1355.29 311.70 1359.11L311.70 1359.11Q323.17 1389.71 338.47 1404.38Q353.77 1419.04 368.44 1421.59Q383.10 1424.14 392.02 1424.14L392.02 1424.14Q398.40 1424.14 407.96 1424.14Q417.52 1424.14 429.00 1422.86L429.00 1422.86L542.47 1412.66Q499.12 1513.39 427.72 1626.86Q356.32 1740.34 279.82 1844.89L279.82 1844.89Q265.80 1865.29 265.80 1883.14Q265.80 1900.99 281.10 1900.99Q296.40 1900.99 325.72 1874.85Q355.05 1848.71 393.94 1806.64Q432.82 1764.56 472.99 1712.29Q513.15 1660.01 546.30 1605.19L546.30 1605.19Q579.45 1552.91 579.45 1555.46L579.45 1555.46L584.55 1513.39Q583.27 1533.79 581.36 1559.93Q579.45 1586.06 579.45 1607.74L579.45 1607.74Q579.45 1654.91 578.81 1712.29Q578.17 1769.66 577.54 1821.94Q576.90 1874.21 576.90 1907.36L576.90 1907.36L576.90 1940.51Q576.90 1960.91 574.99 1980.04Q573.07 1999.16 570.52 2017.01L570.52 2017.01Q569.25 2020.84 569.25 2025.30Q569.25 2029.76 569.25 2032.31L569.25 2032.31Q569.25 2056.54 594.75 2076.30Q620.25 2096.06 641.92 2096.06L641.92 2096.06Q671.25 2096.06 671.25 2055.26L671.25 2055.26L671.25 1542.71Q699.30 1566.94 736.27 1610.29Q773.25 1653.64 812.77 1704.64L812.77 1704.64Q833.17 1730.14 848.47 1730.14L848.47 1730.14Q856.12 1730.14 870.15 1721.85Q884.17 1713.56 896.92 1700.18Q909.67 1686.79 909.67 1674.04Q909.67 1661.29 889.27 1634.51Q868.87 1607.74 837.64 1576.50Q806.40 1545.26 774.52 1514.66Q742.65 1484.06 715.87 1464.30Q689.10 1444.54 676.35 1444.54L676.35 1444.54Q669.97 1444.54 671.25 1443.26L671.25 1443.26ZM579.45 1555.46L579.45 1555.46Q579.45 1555.46 579.45 1555.46L579.45 1555.46ZM2203.80 1860.19L2505.98 1847.44L2499.60 1950.71L2210.18 1960.91L2203.80 1860.19ZM1746.08 1778.59L1887.60 1768.39L1874.85 1920.11L1758.83 1925.21L1746.08 1778.59ZM1765.20 2025.94L1763.92 2008.09L1948.80 2000.44Q1964.10 1999.16 1977.49 1996.61Q1990.88 1994.06 1990.88 1978.76L1990.88 1978.76Q1990.88 1962.19 1961.55 1921.39L1961.55 1921.39L1983.22 1762.01Q1984.50 1756.91 1987.69 1751.81Q1990.88 1746.71 1990.88 1736.51L1990.88 1736.51Q1990.88 1717.39 1968.56 1699.54Q1946.25 1681.69 1928.40 1681.69L1928.40 1681.69Q1924.58 1681.69 1921.39 1682.33Q1918.20 1682.96 1915.65 1682.96L1915.65 1682.96L1740.97 1694.44Q1665.75 1666.39 1645.35 1666.39L1645.35 1666.39Q1626.22 1666.39 1626.22 1681.69L1626.22 1681.69Q1626.22 1686.79 1630.05 1694.44Q1633.88 1702.09 1638.97 1711.01L1638.97 1711.01Q1653 1736.51 1656.83 1777.31L1656.83 1777.31L1669.58 1939.24L1669.58 1954.54Q1669.58 1966.01 1668.94 1978.13Q1668.30 1990.24 1667.03 2002.99L1667.03 2002.99L1667.03 2010.64Q1667.03 2031.04 1680.41 2042.51Q1693.80 2053.99 1709.74 2059.72Q1725.67 2065.46 1734.60 2065.46L1734.60 2065.46Q1765.20 2065.46 1765.20 2029.76L1765.20 2029.76L1765.20 2025.94ZM2194.88 1690.61L2516.18 1674.04L2509.80 1765.84L2201.25 1782.41L2194.88 1690.61ZM1740.97 1611.56L1740.97 1611.56L1951.35 1597.54Q1962.83 1596.26 1973.03 1589.25Q1983.22 1582.24 1983.22 1569.49L1983.22 1569.49Q1983.22 1560.56 1973.03 1545.90Q1962.83 1531.24 1948.16 1519.13Q1933.50 1507.01 1916.93 1507.01L1916.93 1507.01Q1911.83 1507.01 1905.45 1509.56L1905.45 1509.56Q1893.97 1513.39 1883.14 1515.94Q1872.30 1518.49 1860.83 1519.76L1860.83 1519.76L1712.92 1528.69L1697.63 1528.69Q1684.88 1528.69 1673.40 1527.41Q1661.92 1526.14 1655.55 1523.59Q1649.17 1521.04 1645.35 1521.04L1645.35 1521.04Q1632.60 1521.04 1632.60 1537.61L1632.60 1537.61L1637.70 1558.01Q1644.08 1578.41 1670.85 1603.91L1670.85 1603.91Q1683.60 1611.56 1701.45 1612.84L1701.45 1612.84L1714.20 1612.84Q1720.58 1612.84 1727.59 1612.84Q1734.60 1612.84 1740.97 1611.56ZM2215.28 2062.91L2214 2038.69L2577.38 2028.49Q2614.35 2028.49 2614.35 2008.09Q2614.35 1987.69 2579.93 1953.26L2579.93 1953.26L2607.98 1680.41Q2609.25 1675.31 2611.80 1668.30Q2614.35 1661.29 2614.35 1651.09L2614.35 1651.09Q2614.35 1625.59 2590.76 1607.74Q2567.18 1589.89 2548.05 1589.89L2548.05 1589.89Q2539.13 1589.89 2535.30 1591.16L2535.30 1591.16L2300.70 1605.19Q2310.90 1594.99 2330.03 1572.68Q2349.15 1550.36 2369.55 1519.76L2369.55 1519.76Q2372.10 1515.94 2374.01 1510.84Q2375.93 1505.74 2375.93 1500.64L2375.93 1500.64Q2375.93 1485.34 2362.54 1470.67Q2349.15 1456.01 2333.21 1447.09Q2317.28 1438.16 2304.53 1438.16L2304.53 1438.16Q2286.68 1438.16 2284.13 1459.84L2284.13 1459.84Q2284.13 1464.94 2282.85 1466.21L2282.85 1466.21Q2281.57 1476.41 2265.64 1515.30Q2249.70 1554.19 2203.80 1610.29L2203.80 1610.29L2188.50 1611.56Q2122.20 1582.24 2103.07 1582.24L2103.07 1582.24Q2085.22 1582.24 2085.22 1598.81L2085.22 1598.81Q2085.22 1605.19 2087.14 1611.56Q2089.05 1617.94 2091.60 1626.86L2091.60 1626.86Q2097.97 1645.99 2101.80 1663.20Q2105.63 1680.41 2106.90 1707.19L2106.90 1707.19L2124.75 1946.89Q2126.03 1954.54 2126.03 1961.55Q2126.03 1968.56 2126.03 1974.94L2126.03 1974.94Q2126.03 1988.96 2125.39 1999.80Q2124.75 2010.64 2123.47 2022.11L2123.47 2022.11Q2123.47 2025.94 2122.84 2029.76Q2122.20 2033.59 2122.20 2036.14L2122.20 2036.14Q2122.20 2055.26 2135.59 2067.38Q2148.97 2079.49 2163.64 2085.86Q2178.30 2092.24 2187.22 2092.24L2187.22 2092.24Q2215.28 2092.24 2215.28 2065.46L2215.28 2065.46L2215.28 2062.91ZM1739.70 1456.01L1739.70 1456.01L1953.90 1440.71Q1956.45 1440.71 1960.28 1439.44L1960.28 1439.44Q1955.18 1443.26 1955.18 1450.91L1955.18 1450.91Q1955.18 1456.01 1966.65 1475.14Q1978.13 1494.26 1995.34 1512.11Q2012.55 1529.96 2031.68 1529.96L2031.68 1529.96Q2043.15 1529.96 2079.49 1514.66Q2115.82 1499.36 2163.64 1476.41Q2211.45 1453.46 2256.71 1428.60Q2301.98 1403.74 2333.85 1382.06L2333.85 1382.06Q2349.15 1371.86 2356.80 1362.94L2356.80 1362.94L2356.80 1366.76L2356.80 1370.59Q2356.80 1429.24 2383.57 1455.38Q2410.35 1481.51 2449.24 1486.61Q2488.13 1491.71 2521.28 1491.71L2521.28 1491.71Q2597.78 1491.71 2641.13 1482.15Q2684.48 1472.59 2704.24 1451.55Q2724 1430.51 2727.82 1394.18Q2731.65 1357.84 2731.65 1308.11L2731.65 1308.11Q2731.65 1282.61 2731.01 1254.56Q2730.38 1226.51 2726.55 1204.84Q2722.73 1183.16 2707.43 1183.16L2707.43 1183.16Q2687.03 1183.16 2679.38 1234.16L2679.38 1234.16Q2667.90 1305.56 2658.34 1338.71Q2648.78 1371.86 2637.94 1381.43Q2627.10 1390.99 2611.80 1394.81L2611.80 1394.81Q2591.40 1398.64 2567.18 1401.19Q2542.95 1403.74 2517.45 1403.74L2517.45 1403.74Q2484.30 1403.74 2464.54 1396.72Q2444.78 1389.71 2444.78 1355.29L2444.78 1355.29L2446.05 1267.31Q2490.68 1246.91 2545.50 1215.68Q2600.32 1184.44 2642.40 1153.84L2642.40 1153.84Q2647.50 1151.29 2653.24 1144.28Q2658.98 1137.26 2658.98 1125.79L2658.98 1125.79Q2658.98 1113.04 2649.41 1093.28Q2639.85 1073.51 2626.46 1056.30Q2613.07 1039.09 2599.05 1039.09Q2585.03 1039.09 2579.93 1058.21L2579.93 1058.21Q2573.55 1087.54 2560.80 1101.56L2560.80 1101.56Q2542.95 1119.41 2505.98 1146.19Q2469 1172.96 2447.32 1183.16L2447.32 1183.16L2449.88 995.74L2449.88 993.19Q2449.88 980.44 2444.14 970.24Q2438.40 960.04 2411.63 951.11Q2384.85 942.19 2366.36 942.19Q2347.88 942.19 2347.88 958.76L2347.88 958.76Q2347.88 963.86 2352.98 974.06L2352.98 974.06Q2361.90 990.64 2361.90 1011.04L2361.90 1011.04L2356.80 1332.34Q2351.70 1329.79 2344.05 1329.79L2344.05 1329.79Q2330.03 1329.79 2303.25 1342.54L2303.25 1342.54Q2270.10 1356.56 2233.13 1369.31Q2196.15 1382.06 2170.65 1389.71L2170.65 1389.71L2173.20 1232.89L2303.25 1223.96Q2341.50 1221.41 2341.50 1198.46L2341.50 1198.46Q2341.50 1185.71 2330.03 1171.05Q2318.55 1156.39 2303.25 1146.83Q2287.95 1137.26 2275.20 1137.26L2275.20 1137.26Q2272.65 1137.26 2267.55 1137.26Q2262.45 1137.26 2257.35 1141.09L2257.35 1141.09Q2247.15 1143.64 2238.22 1145.55Q2229.30 1147.46 2216.55 1148.74L2216.55 1148.74L2173.20 1152.56L2174.47 1023.79Q2174.47 1011.04 2169.38 999.56Q2164.28 988.09 2136.22 977.89L2136.22 977.89Q2108.18 968.96 2092.88 968.96L2092.88 968.96Q2069.93 968.96 2069.93 985.54L2069.93 985.54Q2069.93 989.36 2073.75 997.01L2073.75 997.01Q2080.13 1008.49 2083.31 1021.88Q2086.50 1035.26 2086.50 1046.74L2086.50 1046.74L2083.95 1413.94Q2077.57 1415.21 2068.01 1418.40Q2058.45 1421.59 2049.53 1424.14L2049.53 1424.14Q2034.22 1427.96 2016.38 1431.15Q1998.53 1434.34 1984.50 1434.34L1984.50 1434.34L1979.40 1434.34Q1975.58 1434.34 1971.75 1434.34L1971.75 1434.34Q1974.30 1434.34 1975.58 1433.06L1975.58 1433.06Q1985.78 1425.41 1985.78 1412.66L1985.78 1412.66Q1985.78 1398.64 1973.03 1384.61Q1960.28 1370.59 1944.97 1361.03Q1929.68 1351.46 1920.75 1351.46L1920.75 1351.46Q1916.93 1351.46 1908 1354.01L1908 1354.01Q1897.80 1357.84 1886.33 1359.75Q1874.85 1361.66 1863.38 1362.94L1863.38 1362.94L1712.92 1374.41L1700.17 1374.41Q1688.70 1374.41 1677.22 1373.14Q1665.75 1371.86 1653 1369.31L1653 1369.31Q1651.72 1369.31 1650.45 1368.68Q1649.17 1368.04 1646.63 1368.04L1646.63 1368.04Q1632.60 1368.04 1632.60 1383.34L1632.60 1383.34Q1632.60 1396.09 1642.80 1415.21Q1653 1434.34 1670.85 1449.64L1670.85 1449.64Q1681.05 1457.29 1709.10 1457.29L1709.10 1457.29Q1715.47 1457.29 1722.49 1457.29Q1729.50 1457.29 1739.70 1456.01ZM1656.83 1300.46L1656.83 1300.46L2021.47 1274.96Q2034.22 1273.69 2045.06 1268.59Q2055.90 1263.49 2055.90 1249.46L2055.90 1249.46Q2055.90 1232.89 2040.60 1218.22Q2025.30 1203.56 2007.45 1193.36Q1989.60 1183.16 1978.13 1183.16L1978.13 1183.16Q1973.03 1183.16 1964.10 1185.71L1964.10 1185.71Q1951.35 1190.81 1937.33 1193.36Q1923.30 1195.91 1911.83 1198.46L1911.83 1198.46L1630.05 1216.31Q1624.95 1216.31 1619.85 1216.95Q1614.75 1217.59 1608.38 1217.59L1608.38 1217.59Q1586.70 1217.59 1568.85 1212.49L1568.85 1212.49Q1563.75 1211.21 1557.38 1211.21L1557.38 1211.21Q1542.08 1211.21 1542.08 1225.24L1542.08 1225.24Q1542.08 1227.79 1551 1250.74Q1559.92 1273.69 1585.42 1292.81L1585.42 1292.81Q1594.35 1301.74 1621.13 1301.74L1621.13 1301.74Q1628.78 1301.74 1637.06 1301.74Q1645.35 1301.74 1656.83 1300.46ZM1877.40 1175.51L1877.40 1175.51Q1892.70 1175.51 1903.54 1162.76Q1914.38 1150.01 1920.11 1135.99Q1925.85 1121.96 1925.85 1114.31L1925.85 1114.31Q1925.85 1100.29 1917.56 1092.64Q1909.28 1084.99 1895.25 1077.34L1895.25 1077.34Q1822.58 1033.99 1772.85 1012.95Q1723.13 991.91 1710.38 991.91L1710.38 991.91Q1692.53 991.91 1683.60 1004.66Q1674.67 1017.41 1672.13 1028.89Q1669.58 1040.36 1669.58 1042.91L1669.58 1042.91Q1669.58 1065.86 1698.90 1077.34L1698.90 1077.34Q1735.88 1092.64 1772.21 1114.31Q1808.55 1135.99 1846.80 1162.76L1846.80 1162.76Q1854.45 1167.86 1862.74 1171.69Q1871.03 1175.51 1877.40 1175.51Z"/>
  </svg>