<svg xmlns="http://www.w3.org/2000/svg" viewBox="0 0 3000 3000" width="3000" height="3000">
    <path fill="#000000" d="M935.17 1984.50L935.17 1947.53L1345.72 1947.53L1345.72 1984.50L935.17 1984.50ZM919.87 2094.15L919.87 1114.95L1358.47 1114.95L1358.47 2085.22L1321.50 2085.22L1321.50 1151.92L956.85 1151.92L956.85 2094.15L919.87 2094.15ZM569.25 2142.60L569.25 1085.63L606.22 1085.63L606.22 2142.60L569.25 2142.60ZM297.67 1408.20L297.67 1371.22L866.32 1371.22L866.32 1408.20L297.67 1408.20ZM569.25 1381.43L569.25 1381.43L602.40 1394.18Q578.17 1465.58 542.47 1541.44Q506.77 1617.30 464.06 1689.98Q421.35 1762.65 376.72 1824.49Q332.10 1886.33 290.02 1929.68L290.02 1929.68Q284.92 1922.03 277.27 1911.83Q269.62 1901.63 263.25 1896.53L263.25 1896.53Q304.05 1855.73 348.67 1797.08Q393.30 1738.43 435.37 1668.94Q477.45 1599.45 511.87 1525.50Q546.30 1451.55 569.25 1381.43ZM814.05 1010.40L814.05 1010.40L843.37 1039.72Q783.45 1063.95 696.11 1084.35Q608.77 1104.75 513.15 1120.05Q417.52 1135.35 329.55 1145.55L329.55 1145.55Q328.27 1139.17 324.45 1130.25Q320.62 1121.33 316.80 1113.67L316.80 1113.67Q403.50 1102.20 497.85 1086.90Q592.20 1071.60 676.35 1051.84Q760.50 1032.07 814.05 1010.40ZM582.00 1471.95L606.22 1451.55Q618.97 1464.30 642.56 1491.71Q666.15 1519.13 695.47 1554.19Q724.80 1589.25 754.12 1623.68Q783.45 1658.10 806.40 1686.15Q829.35 1714.20 839.55 1728.23L839.55 1728.23L810.22 1758.83Q794.92 1737.15 764.32 1696.99Q733.72 1656.83 698.02 1611.56Q662.32 1566.30 630.45 1528.05Q598.57 1489.80 582.00 1471.95L582.00 1471.95ZM1624.95 1415.85L1624.95 1378.88L1969.20 1378.88L1969.20 1415.85L1624.95 1415.85ZM1624.95 1577.78L1624.95 1540.80L1969.20 1540.80L1969.20 1577.78L1624.95 1577.78ZM1571.40 1256.47L1571.40 1218.22L2022.75 1218.22L2022.75 1256.47L1571.40 1256.47ZM1638.97 1743.53L1638.97 1705.28L1975.58 1705.28L1975.58 2062.28L1638.97 2062.28L1638.97 2024.03L1936.05 2024.03L1936.05 1743.53L1638.97 1743.53ZM1622.40 2128.58L1622.40 1705.28L1660.65 1705.28L1660.65 2128.58L1622.40 2128.58ZM1711.65 1011.67L1711.65 1011.67L1742.25 992.55Q1771.58 1029.53 1800.90 1073.51Q1830.22 1117.50 1845.53 1150.65L1845.53 1150.65L1812.38 1173.60Q1797.08 1140.45 1768.39 1093.91Q1739.70 1047.38 1711.65 1011.67ZM2136.22 1891.43L2136.22 1854.45L2620.73 1854.45L2620.73 1891.43L2136.22 1891.43ZM2136.22 2096.70L2136.22 2059.72L2620.73 2059.72L2620.73 2096.70L2136.22 2096.70ZM2110.72 2145.15L2110.72 1654.28L2639.85 1654.28L2639.85 2140.05L2602.88 2140.05L2602.88 1692.53L2148.97 1692.53L2148.97 2145.15L2110.72 2145.15ZM2342.78 1520.40L2342.78 1520.40L2379.75 1534.43Q2363.18 1570.13 2345.32 1607.74Q2327.48 1645.35 2309.63 1673.40L2309.63 1673.40L2279.03 1661.93Q2294.32 1632.60 2313.45 1591.80Q2332.57 1551 2342.78 1520.40ZM2108.18 1230.97L2108.18 1194L2340.23 1194L2340.23 1230.97L2108.18 1230.97ZM2396.32 1459.20L2396.32 993.83L2433.30 993.83L2433.30 1459.20Q2433.30 1479.60 2441.59 1485.97Q2449.88 1492.35 2479.20 1492.35L2479.20 1492.35Q2488.13 1492.35 2518.09 1492.35Q2548.05 1492.35 2579.93 1492.35Q2611.80 1492.35 2623.28 1492.35L2623.28 1492.35Q2639.85 1492.35 2648.14 1484.06Q2656.43 1475.78 2659.61 1449Q2662.80 1422.22 2664.07 1368.68L2664.07 1368.68Q2670.45 1373.78 2680.65 1378.24Q2690.85 1382.70 2699.78 1385.25L2699.78 1385.25Q2697.23 1470.68 2683.20 1500Q2669.18 1529.33 2625.82 1529.33L2625.82 1529.33Q2620.73 1529.33 2599.69 1529.33Q2578.65 1529.33 2552.51 1529.33Q2526.38 1529.33 2505.98 1529.33Q2485.58 1529.33 2480.48 1529.33L2480.48 1529.33Q2448.60 1529.33 2430.11 1524.22Q2411.63 1519.13 2403.98 1503.83Q2396.32 1488.53 2396.32 1459.20L2396.32 1459.20ZM2071.20 1545.90L2071.20 1545.90L2071.20 1511.47L2097.97 1489.80L2346.60 1437.53Q2345.32 1445.18 2345.96 1453.46Q2346.60 1461.75 2347.88 1468.13L2347.88 1468.13Q2261.18 1489.80 2208.90 1503.83Q2156.63 1517.85 2129.21 1525.50Q2101.80 1533.15 2089.69 1537.61Q2077.57 1542.08 2071.20 1545.90ZM2071.20 1545.90L2071.20 1545.90Q2069.93 1539.53 2066.74 1532.51Q2063.55 1525.50 2060.36 1517.85Q2057.18 1510.20 2053.35 1505.10L2053.35 1505.10Q2064.82 1502.55 2077.57 1493.63Q2090.32 1484.70 2090.32 1452.83L2090.32 1452.83L2090.32 1010.40L2127.30 1010.40L2127.30 1512.75Q2127.30 1512.75 2119.01 1515.30Q2110.72 1517.85 2099.25 1522.95Q2087.78 1528.05 2079.49 1533.79Q2071.20 1539.53 2071.20 1545.90ZM2414.18 1232.25L2414.18 1195.28L2678.10 1195.28L2678.10 1232.25L2414.18 1232.25Z"/>
  </svg>