<svg xmlns="http://www.w3.org/2000/svg" viewBox="0 0 3000 3000" width="3000" height="3000">
    <path fill="#000000" d="M716 1320L716 956L2280 956L2280 1320L2222 1320L2222 1016L774 1016L774 1320L716 1320ZM1914 1312L1914 1312L1974 1324Q1926 1604 1830 1804Q1734 2004 1583 2141Q1432 2278 1220 2367Q1008 2456 726 2514L726 2514Q722 2508 714 2498Q706 2488 697 2478Q688 2468 680 2462L680 2462Q966 2410 1177 2325Q1388 2240 1536 2106Q1684 1972 1776 1777Q1868 1582 1914 1312ZM658 1586L658 1526L2352 1526L2352 1586L658 1586ZM1376 726L1376 726L1424 708Q1466 770 1511 846Q1556 922 1578 970L1578 970L1530 998Q1504 946 1461 868Q1418 790 1376 726ZM924 1904L924 1904L968 1856Q1146 1910 1334 1980Q1522 2050 1703 2131Q1884 2212 2040 2295Q2196 2378 2308 2456L2308 2456L2256 2508Q2148 2432 1995 2349Q1842 2266 1661 2184Q1480 2102 1291 2030Q1102 1958 924 1904ZM992 1904L924 1904Q980 1832 1043 1737Q1106 1642 1167 1537Q1228 1432 1282 1328Q1336 1224 1374 1132L1374 1132L1432 1144Q1392 1240 1338 1344Q1284 1448 1223 1551Q1162 1654 1103 1745Q1044 1836 992 1904L992 1904Z"/>
  </svg>