<svg xmlns="http://www.w3.org/2000/svg" viewBox="0 0 3000 3000" width="3000" height="3000">
    <path fill="#000000" d="M2199.22 2386.72Q2167.97 2386.72 2070.31 2330.08L2070.31 2330.08Q1929.69 2248.05 1662.11 2125L1662.11 2125Q1339.84 2371.09 802.73 2371.09L802.73 2371.09Q744.14 2371.09 715.82 2349.61Q687.50 2328.13 687.50 2283.20L687.50 2283.20Q687.50 2238.28 720.70 2220.70L720.70 2220.70Q746.09 2208.98 894.53 2205.08L894.53 2205.08Q1082.03 2201.17 1233.40 2161.13Q1384.77 2121.09 1492.19 2054.69L1492.19 2054.69Q1345.70 1992.19 1066.41 1910.16L1066.41 1910.16Q1011.72 1894.53 984.38 1869.14Q957.03 1843.75 957.03 1804.69L957.03 1804.69Q957.03 1769.53 980.47 1720.70L980.47 1720.70L1091.80 1500L732.42 1500Q640.63 1500 640.63 1427.73L640.63 1427.73Q640.63 1353.52 732.42 1353.52L732.42 1353.52L1164.06 1353.52L1281.25 1076.17Q1306.64 1013.67 1357.42 1013.67L1357.42 1013.67Q1400.39 1013.67 1423.83 1034.18Q1447.27 1054.69 1447.27 1093.75L1447.27 1093.75Q1447.27 1121.09 1343.75 1353.52L1343.75 1353.52L2273.44 1353.52Q2365.23 1353.52 2365.23 1427.73L2365.23 1427.73Q2365.23 1500 2273.44 1500L2273.44 1500L2021.48 1500Q1957.03 1804.69 1791.02 2000L1791.02 2000Q1964.84 2066.41 2228.52 2203.13L2228.52 2203.13Q2294.92 2238.28 2294.92 2292.97L2294.92 2292.97Q2294.92 2333.98 2269.53 2360.35Q2244.14 2386.72 2199.22 2386.72L2199.22 2386.72ZM1636.72 1939.45Q1796.88 1785.16 1855.47 1500L1855.47 1500L1273.44 1500L1160.16 1720.70Q1152.34 1736.33 1152.34 1751.95L1152.34 1751.95Q1152.34 1785.16 1193.36 1796.88L1193.36 1796.88Q1324.22 1832.03 1587.89 1923.83L1587.89 1923.83Q1609.38 1929.69 1636.72 1939.45L1636.72 1939.45ZM732.42 1269.53Q652.34 1269.53 652.34 1179.69L652.34 1179.69L652.34 1007.81Q644.53 902.34 691.41 855.47Q738.28 808.59 843.75 816.41L843.75 816.41L1404.30 816.41L1404.30 695.31Q1404.30 611.33 1490.23 611.33L1490.23 611.33Q1574.22 611.33 1574.22 695.31L1574.22 695.31L1574.22 816.41L2160.16 816.41Q2265.63 808.59 2312.50 855.47Q2359.38 902.34 2351.56 1007.81L2351.56 1007.81L2351.56 1179.69Q2351.56 1226.56 2332.03 1248.05Q2312.50 1269.53 2273.44 1269.53L2273.44 1269.53Q2234.38 1269.53 2214.84 1248.05Q2195.31 1226.56 2195.31 1179.69L2195.31 1179.69L2195.31 1041.02Q2195.31 1000 2173.83 978.52Q2152.34 957.03 2113.28 958.98L2113.28 958.98L890.63 958.98Q806.64 958.98 810.55 1041.02L810.55 1041.02L810.55 1179.69Q810.55 1269.53 732.42 1269.53L732.42 1269.53Z"/>
  </svg>