<svg xmlns="http://www.w3.org/2000/svg" viewBox="0 0 3000 3000" width="3000" height="3000">
    <path fill="#000000" d="M571.80 1269.22L571.80 1269.22Q571.80 1253.92 598.57 1269.22L598.57 1269.22Q607.50 1275.60 615.15 1284.53L615.15 1284.53Q625.35 1293.45 636.82 1290.90L636.82 1290.90Q654.67 1285.80 659.14 1288.35Q663.60 1290.90 664.87 1306.20L664.87 1306.20Q666.15 1326.60 675.07 1338.07L675.07 1338.07Q686.55 1353.38 678.90 1386.53Q671.25 1419.67 652.12 1436.25L652.12 1436.25Q644.47 1443.90 640.01 1443.90Q635.55 1443.90 622.80 1434.97L622.80 1434.97Q603.67 1423.50 601.12 1414.57Q598.57 1405.65 587.10 1387.80L587.10 1387.80Q571.80 1362.30 563.51 1323.41Q555.22 1284.53 564.15 1280.70L564.15 1280.70Q571.80 1278.15 571.80 1269.22ZM755.40 1108.57L755.40 1108.57Q766.87 1095.82 798.75 1114.95L798.75 1114.95Q811.50 1123.88 825.52 1132.16Q839.55 1140.45 852.30 1163.40L852.30 1163.40Q858.67 1178.70 861.22 1194.64Q863.77 1210.57 863.77 1261.57L863.77 1261.57Q863.77 1338.07 867.60 1339.35L867.60 1339.35Q872.70 1341.90 878.44 1337.44Q884.17 1332.97 896.92 1315.13L896.92 1315.13Q987.45 1195.27 987.45 1165.95L987.45 1165.95Q986.17 1158.30 990.00 1153.84Q993.82 1149.38 1005.30 1146.82L1005.30 1146.82Q1019.32 1143 1023.79 1144.27Q1028.25 1145.55 1039.72 1157.02L1039.72 1157.02Q1057.57 1172.32 1068.41 1178.06Q1079.25 1183.80 1090.72 1206.75Q1102.20 1229.70 1098.38 1242.45L1098.38 1242.45Q1088.17 1273.05 1061.40 1281.97L1061.40 1281.97Q1041 1289.63 1025.70 1302.38Q1010.40 1315.13 975.34 1335.53Q940.27 1355.92 903.94 1383.34Q867.60 1410.75 863.77 1419.67L863.77 1419.67Q856.12 1434.97 873.97 1438.80L873.97 1438.80Q891.82 1440.07 954.30 1434.97L954.30 1434.97Q1035.90 1429.88 1074.15 1424.78Q1112.40 1419.67 1185.07 1419.67Q1257.75 1419.67 1257.75 1413.94Q1257.75 1408.20 1266.67 1408.20Q1275.60 1408.20 1292.17 1398L1292.17 1398Q1326.60 1377.60 1343.17 1404.38L1343.17 1404.38Q1353.38 1420.95 1375.05 1432.42Q1396.72 1443.90 1408.20 1457.92L1408.20 1457.92L1418.40 1471.95L1406.92 1492.35Q1396.72 1510.20 1375.05 1519.13L1375.05 1519.13Q1359.75 1522.95 1353.38 1522.95Q1347 1522.95 1332.97 1514.03L1332.97 1514.03Q1313.85 1505.10 1288.35 1500L1288.35 1500Q1237.35 1493.63 1142.36 1492.99Q1047.38 1492.35 1002.75 1497.45L1002.75 1497.45Q968.32 1503.82 918.60 1508.92Q868.87 1514.03 862.50 1516.57Q856.12 1519.13 853.57 1632.60L853.57 1632.60Q847.20 1799.63 842.10 1859.55L842.10 1859.55Q839.55 1888.88 833.81 1954.54Q828.07 2020.20 823.61 2038.69Q819.15 2057.18 816.60 2069.93Q814.05 2082.68 801.30 2097.97L801.30 2097.97Q791.10 2109.45 788.55 2110.09Q786.00 2110.72 779.62 2103.07L779.62 2103.07Q770.70 2091.60 768.15 2074.39Q765.60 2057.18 760.50 2026.58L760.50 2026.58Q755.40 2004.90 749.66 1931.59Q743.92 1858.28 742.65 1826.40L742.65 1826.40Q742.65 1799.63 743.29 1728.86Q743.92 1658.10 742.65 1626.86Q741.37 1595.63 740.10 1561.20L740.10 1561.20Q740.10 1536.97 738.19 1533.15Q736.27 1529.32 726.07 1529.32L726.07 1529.32Q710.77 1529.32 685.27 1536.97Q659.77 1544.63 603.67 1552.28L603.67 1552.28Q480.00 1568.85 408.60 1619.85L408.60 1619.85Q394.57 1628.78 384.37 1628.78L384.37 1628.78Q374.17 1628.78 355.05 1619.85Q335.92 1610.92 324.45 1600.72L324.45 1600.72Q302.77 1581.60 306.60 1568.85L306.60 1568.85Q306.60 1565.03 310.42 1565.03L310.42 1565.03Q316.80 1565.03 356.32 1548.45L356.32 1548.45Q467.25 1500 718.42 1461.75L718.42 1461.75L742.65 1457.92L745.20 1288.35Q747.75 1117.50 755.40 1108.57ZM821.70 984.90L821.70 984.90Q894.37 978.52 896.92 974.06Q899.47 969.60 910.31 963.86Q921.15 958.13 930.07 958.13L930.07 958.13Q940.27 958.13 970.24 973.42Q1000.20 988.72 1009.12 996.37L1009.12 996.37Q1019.32 1009.12 1017.41 1028.89Q1015.50 1048.65 1006.57 1057.57L1006.57 1057.57Q982.35 1076.70 967.05 1061.40L967.05 1061.40Q959.40 1055.02 898.20 1056.94Q837.00 1058.85 801.30 1067.77L801.30 1067.77Q760.50 1079.25 754.12 1083.71Q747.75 1088.17 705.67 1092Q663.60 1095.82 645.75 1086.90L645.75 1086.90Q627.90 1080.52 610.69 1063.95Q593.47 1047.38 593.47 1041L593.47 1041Q593.47 1032.07 674.44 1012.95Q755.40 993.82 821.70 984.90ZM2055.90 1313.85L2055.90 1313.85Q2063.55 1310.03 2067.38 1310.03L2067.38 1310.03Q2078.85 1308.75 2100.53 1350.82L2100.53 1350.82Q2112 1375.05 2115.82 1408.20Q2119.65 1441.35 2110.72 1450.28L2110.72 1450.28Q2094.15 1469.40 2086.50 1505.10L2086.50 1505.10Q2082.68 1528.05 2078.85 1536.97L2078.85 1536.97Q2076.30 1543.35 2086.50 1545.90L2086.50 1545.90Q2094.15 1545.90 2117.10 1545.90L2117.10 1545.90L2156.63 1545.90L2166.82 1524.22Q2177.03 1503.82 2177.03 1492.35Q2177.03 1480.88 2188.50 1480.88L2188.50 1480.88Q2211.45 1480.88 2225.47 1516.57L2225.47 1516.57L2235.68 1539.53L2324.93 1542.07Q2415.45 1547.17 2471.55 1542.07L2471.55 1542.07Q2569.73 1534.42 2602.88 1553.55L2602.88 1553.55Q2627.10 1568.85 2630.29 1603.28Q2633.48 1637.70 2611.80 1655.55L2611.80 1655.55Q2597.78 1669.58 2583.11 1669.58Q2568.45 1669.58 2525.10 1655.55L2525.10 1655.55Q2480.48 1641.53 2401.43 1637.70L2401.43 1637.70Q2268.82 1627.50 2254.80 1640.25L2254.80 1640.25Q2247.15 1646.63 2244.60 1669.58L2244.60 1669.58Q2242.05 1691.25 2233.13 1719.94Q2224.20 1748.63 2219.10 1756.28L2219.10 1756.28Q2212.72 1763.92 2202.53 1806L2202.53 1806Q2199.97 1818.75 2209.54 1827.67Q2219.10 1836.60 2263.73 1867.20L2263.73 1867.20Q2304.53 1895.25 2312.81 1902.90Q2321.10 1910.55 2340.23 1922.03L2340.23 1922.03Q2365.73 1939.88 2393.78 1970.47Q2421.82 2001.08 2421.82 2010L2421.82 2010Q2421.82 2015.10 2429.48 2018.29Q2437.13 2021.47 2437.13 2041.24Q2437.13 2061 2429.48 2064.19Q2421.82 2067.38 2421.82 2073.11Q2421.82 2078.85 2400.15 2103.07L2400.15 2103.07Q2386.13 2119.65 2379.11 2122.84Q2372.10 2126.03 2352.98 2126.03L2352.98 2126.03Q2323.65 2126.03 2307.71 2117.74Q2291.78 2109.45 2280.30 2087.78Q2268.82 2066.10 2238.86 2027.21Q2208.90 1988.33 2193.60 1978.13L2193.60 1978.13Q2179.57 1967.92 2156.63 1949.44Q2133.68 1930.95 2131.13 1930.95L2131.13 1930.95Q2126.03 1930.95 2102.44 1946.25Q2078.85 1961.55 2059.72 1978.13L2059.72 1978.13Q2029.13 2004.90 2001.08 2022.11Q1973.03 2039.33 1967.29 2047.61Q1961.55 2055.90 1956.45 2055.90Q1951.35 2055.90 1925.21 2072.47Q1899.08 2089.05 1862.74 2106.26Q1826.40 2123.47 1820.03 2117.10L1820.03 2117.10Q1814.92 2112 1826.40 2100.53Q1837.88 2089.05 1897.80 2035.50L1897.80 2035.50Q1928.40 2008.72 1947.53 1983.22L1947.53 1983.22L1979.40 1943.70Q1989.60 1929.67 1991.51 1924.58Q1993.43 1919.47 2004.90 1902.26Q2016.38 1885.05 2016.38 1879.95L2016.38 1879.95Q2016.38 1874.85 1988.33 1867.84Q1960.28 1860.83 1939.88 1860.83L1939.88 1860.83Q1916.93 1860.83 1909.28 1855.09Q1901.63 1849.35 1901.63 1831.50L1901.63 1831.50Q1901.63 1816.20 1896.53 1812.38L1896.53 1812.38Q1883.78 1804.72 1924.58 1711.65L1924.58 1711.65Q1951.35 1647.90 1948.16 1644.71Q1944.97 1641.53 1907.36 1645.99Q1869.75 1650.45 1858.28 1654.28L1858.28 1654.28Q1849.35 1660.65 1817.47 1665.75L1817.47 1665.75Q1793.25 1670.85 1766.47 1681.05Q1739.70 1691.25 1733.33 1698.90L1733.33 1698.90Q1716.75 1715.47 1677.22 1689.97L1677.22 1689.97Q1659.38 1678.50 1650.45 1663.20Q1641.53 1647.90 1645.35 1638.97L1645.35 1638.97Q1649.17 1624.95 1711.65 1608.38L1711.65 1608.38Q1827.67 1577.78 1867.20 1573.95L1867.20 1573.95Q1890.15 1572.67 1932.22 1565.03L1932.22 1565.03Q1964.10 1559.92 1970.47 1557.38Q1976.85 1554.82 1980.68 1545.90L1980.68 1545.90Q1998.53 1450.28 2018.93 1400.55L2018.93 1400.55Q2027.85 1383.97 2027.85 1369.95L2027.85 1369.95Q2027.85 1355.92 2037.41 1336.80Q2046.97 1317.67 2055.90 1313.85ZM2128.57 1654.28L2128.57 1654.28Q2128.57 1633.88 2124.75 1632.60L2124.75 1632.60Q2114.55 1631.33 2077.57 1635.79Q2040.60 1640.25 2036.78 1642.80L2036.78 1642.80Q2032.95 1647.90 2022.11 1674.67Q2011.28 1701.45 2008.73 1715.47L2008.73 1715.47Q2006.18 1728.22 2016.38 1735.88Q2026.58 1743.53 2058.45 1756.28L2058.45 1756.28Q2096.70 1767.75 2096.70 1755L2096.70 1755Q2096.70 1749.90 2103.07 1734.60L2103.07 1734.60Q2128.57 1675.95 2128.57 1654.28ZM1999.80 977.25L1999.80 977.25Q1999.80 942.82 2001.08 941.55Q2002.35 940.27 2039.96 942.19Q2077.57 944.10 2083.95 950.47L2083.95 950.47L2117.10 987.45L2142.60 1016.77L2141.32 1047.38Q2138.78 1076.70 2143.88 1084.99Q2148.97 1093.27 2171.93 1097.10L2171.93 1097.10Q2265 1106.02 2331.30 1121.32L2331.30 1121.32Q2354.25 1125.15 2396.96 1127.70Q2439.68 1130.25 2451.15 1137.90Q2462.63 1145.55 2484.30 1157.02L2484.30 1157.02Q2526.38 1178.70 2537.85 1190.17Q2549.32 1201.65 2550.60 1222.05L2550.60 1222.05Q2553.15 1243.72 2537.85 1266.67L2537.85 1266.67Q2521.28 1292.17 2506.61 1299.19Q2491.95 1306.20 2462.63 1303.65L2462.63 1303.65Q2430.75 1299.82 2412.90 1299.82L2412.90 1299.82Q2401.43 1299.82 2356.80 1308.75Q2312.18 1317.67 2280.30 1327.88L2280.30 1327.88Q2276.48 1329.15 2275.20 1327.88Q2273.93 1326.60 2275.20 1322.78L2275.20 1322.78Q2277.75 1313.85 2292.41 1293.45Q2307.07 1273.05 2314.73 1267.31Q2322.38 1261.57 2331.94 1239.26Q2341.50 1216.95 2337.68 1211.85L2337.68 1211.85Q2335.13 1204.20 2286.68 1189.54Q2238.22 1174.88 2191.05 1167.22L2191.05 1167.22L2137.50 1158.30L2118.38 1173.60Q2099.25 1190.17 2094.79 1190.17Q2090.32 1190.17 2073.75 1174.88L2073.75 1174.88Q2061 1164.67 2054.63 1162.76Q2048.25 1160.85 2022.75 1163.40L2022.75 1163.40Q1989.60 1167.22 1969.84 1173.60Q1950.08 1179.97 1939.88 1179.97L1939.88 1179.97Q1927.13 1179.97 1895.89 1190.17Q1864.65 1200.38 1850.63 1210.57L1850.63 1210.57Q1831.50 1220.77 1831.50 1236.71Q1831.50 1252.65 1823.85 1265.40Q1816.20 1278.15 1816.20 1295.36Q1816.20 1312.57 1810.46 1329.15Q1804.72 1345.72 1810.46 1368.67Q1816.20 1391.63 1808.55 1404.38L1808.55 1404.38Q1793.25 1436.25 1760.10 1436.25L1760.10 1436.25Q1737.15 1436.25 1720.58 1414.57Q1704 1392.90 1700.17 1355.92L1700.17 1355.92Q1697.63 1332.97 1699.54 1322.78Q1701.45 1312.57 1711.65 1292.17L1711.65 1292.17Q1725.67 1262.85 1734.60 1239.90L1734.60 1239.90Q1749.90 1199.10 1764.56 1182.52Q1779.22 1165.95 1797.08 1165.95L1797.08 1165.95Q1809.83 1165.95 1845.53 1148.10Q1881.22 1130.25 1920.75 1121.96Q1960.28 1113.67 1983.86 1106.66Q2007.45 1099.65 2015.10 1099.65L2015.10 1099.65Q2027.85 1099.65 2016.38 1079.25L2016.38 1079.25Q1999.80 1049.92 1999.80 977.25Z"/>
  </svg>