<svg xmlns="http://www.w3.org/2000/svg" viewBox="0 0 3000 3000" width="3000" height="3000">
    <path fill="#000000" d="M1251.37 1424.14L1251.37 1424.14Q1251.37 1411.39 1230.97 1382.06Q1210.57 1352.74 1181.25 1317.04Q1151.92 1281.34 1120.69 1246.91Q1089.45 1212.49 1067.77 1189.54L1067.77 1189.54Q1051.20 1172.96 1038.45 1172.96L1038.45 1172.96Q1024.42 1172.96 1005.94 1188.90Q987.45 1204.84 987.45 1219.50Q987.45 1234.16 1002.75 1250.74L1002.75 1250.74Q1042.27 1296.64 1084.99 1351.46Q1127.70 1406.29 1155.75 1453.46L1155.75 1453.46Q1172.32 1478.96 1188.90 1478.96Q1205.47 1478.96 1228.42 1461.11Q1251.37 1443.26 1251.37 1424.14ZM612.60 1189.54L612.60 1189.54L612.60 1202.29Q612.60 1225.24 603.67 1243.09L603.67 1243.09Q571.80 1301.74 532.91 1359.11Q494.02 1416.49 450.67 1467.49L450.67 1467.49Q430.27 1492.99 430.27 1508.29Q430.27 1523.59 446.85 1523.59Q463.42 1523.59 495.94 1497.45Q528.45 1471.31 565.42 1433.70Q602.40 1396.09 638.10 1355.29Q673.80 1314.49 696.75 1281.34Q719.70 1248.19 719.70 1234.16L719.70 1234.16Q719.70 1217.59 702.49 1202.29Q685.27 1186.99 665.51 1175.51Q645.75 1164.04 633.00 1164.04L633.00 1164.04Q612.60 1164.04 612.60 1189.54ZM899.47 2092.24L900.75 1640.89L1417.13 1617.94Q1432.42 1616.66 1444.54 1610.29Q1456.65 1603.91 1456.65 1589.89L1456.65 1589.89Q1456.65 1580.96 1445.81 1565.66Q1434.97 1550.36 1417.76 1536.97Q1400.55 1523.59 1377.60 1523.59L1377.60 1523.59Q1368.67 1523.59 1363.57 1524.86L1363.57 1524.86Q1349.55 1529.96 1336.16 1531.88Q1322.77 1533.79 1310.02 1535.06L1310.02 1535.06L902.02 1552.91L903.30 1099.01L1253.92 1078.61Q1269.22 1077.34 1281.34 1071.60Q1293.45 1065.86 1293.45 1053.11Q1293.45 1040.36 1281.34 1025.06Q1269.22 1009.76 1252.01 997.65Q1234.80 985.54 1215.67 985.54L1215.67 985.54Q1206.75 985.54 1201.65 986.81L1201.65 986.81Q1187.63 991.91 1174.24 993.82Q1160.85 995.74 1148.10 997.01L1148.10 997.01L509.32 1033.99L494.02 1033.99Q482.55 1033.99 470.44 1032.71Q458.32 1031.44 449.40 1028.89L449.40 1028.89Q445.57 1027.61 439.20 1027.61L439.20 1027.61Q422.62 1027.61 422.62 1042.91L422.62 1042.91Q422.62 1048.01 429.00 1064.59Q435.37 1081.16 446.85 1097.74Q458.32 1114.31 474.90 1119.41L474.90 1119.41Q480.00 1120.69 485.74 1120.69Q491.47 1120.69 496.57 1120.69L496.57 1120.69Q505.50 1120.69 515.06 1120.69Q524.62 1120.69 536.10 1119.41L536.10 1119.41L805.12 1104.11L802.57 1556.74L348.67 1575.86L334.65 1575.86Q321.90 1575.86 310.42 1574.59Q298.95 1573.31 288.75 1569.49L288.75 1569.49Q284.92 1568.21 278.55 1568.21L278.55 1568.21Q260.70 1568.21 260.70 1584.79L260.70 1584.79Q260.70 1598.81 272.17 1618.58Q283.65 1638.34 300.22 1654.91L300.22 1654.91Q309.15 1663.84 334.65 1663.84L334.65 1663.84Q343.57 1663.84 353.14 1663.20Q362.70 1662.56 375.45 1662.56L375.45 1662.56L801.30 1643.44L800.02 1973.66Q800.02 2014.46 792.37 2056.54L792.37 2056.54Q791.10 2061.64 791.10 2070.56L791.10 2070.56Q791.10 2097.34 808.31 2110.72Q825.52 2124.11 844.01 2127.94Q862.50 2131.76 866.32 2131.76L866.32 2131.76Q899.47 2131.76 899.47 2092.24L899.47 2092.24ZM2032.95 1565.66L2032.95 1565.66L2279.03 1554.19Q2256.07 1607.74 2214 1672.76Q2171.93 1737.79 2131.13 1782.41L2131.13 1782.41Q2087.78 1763.29 2038.05 1744.80Q1988.33 1726.31 1948.80 1713.56L1948.80 1713.56Q1967.93 1685.51 1990.24 1644.71Q2012.55 1603.91 2032.95 1565.66ZM2395.05 1549.09L2395.05 1549.09L2676.82 1535.06Q2687.03 1533.79 2698.50 1529.33Q2709.98 1524.86 2709.98 1512.11Q2709.98 1499.36 2694.68 1482.79Q2679.38 1466.21 2661.53 1452.83Q2643.68 1439.44 2632.20 1439.44L2632.20 1439.44Q2628.38 1439.44 2627.74 1440.08Q2627.10 1440.71 2625.82 1440.71L2625.82 1440.71Q2606.70 1447.09 2592.04 1450.91Q2577.38 1454.74 2560.80 1456.01L2560.80 1456.01L2077.57 1478.96Q2106.90 1413.94 2124.11 1376.33Q2141.32 1338.71 2145.79 1324.05Q2150.25 1309.39 2150.25 1304.29L2150.25 1304.29Q2150.25 1287.71 2134.31 1271.14Q2118.38 1254.56 2097.97 1244.36Q2077.57 1234.16 2064.82 1234.16L2064.82 1234.16Q2044.43 1234.16 2044.43 1254.56L2044.43 1254.56L2044.43 1267.31Q2044.43 1286.44 2033.59 1320.22Q2022.75 1354.01 2008.09 1390.35Q1993.43 1426.69 1981.95 1453.46Q1970.47 1480.24 1967.93 1484.06L1967.93 1484.06L1655.55 1499.36L1641.53 1499.36Q1628.78 1499.36 1615.39 1498.09Q1602 1496.81 1589.25 1491.71L1589.25 1491.71Q1585.42 1490.44 1580.33 1490.44L1580.33 1490.44Q1566.30 1490.44 1566.30 1507.01L1566.30 1507.01Q1566.30 1526.14 1580.33 1545.26Q1594.35 1564.39 1602 1571.40Q1609.65 1578.41 1622.40 1581.60Q1635.15 1584.79 1650.45 1584.79L1650.45 1584.79Q1656.83 1584.79 1663.20 1584.15Q1669.58 1583.51 1675.95 1583.51L1675.95 1583.51L1922.03 1572.04Q1911.83 1591.16 1893.34 1624.31Q1874.85 1657.46 1853.17 1690.61L1853.17 1690.61Q1848.08 1699.54 1844.25 1707.83Q1840.42 1716.11 1840.42 1727.59L1840.42 1727.59Q1840.42 1736.51 1844.25 1749.26L1844.25 1749.26Q1857 1782.41 1876.76 1784.33Q1896.53 1786.24 1908 1791.34L1908 1791.34Q1948.80 1806.64 1988.96 1821.94Q2029.13 1837.24 2058.45 1849.99L2058.45 1849.99Q2006.18 1892.06 1946.25 1924.58Q1886.33 1957.09 1820.66 1980.04Q1755 2002.99 1678.50 2023.39L1678.50 2023.39Q1653 2029.76 1638.97 2040.60Q1624.95 2051.44 1624.95 2061.64L1624.95 2061.64Q1624.95 2083.31 1664.47 2083.31L1664.47 2083.31Q1667.03 2083.31 1699.54 2078.85Q1732.05 2074.39 1784.33 2063.55Q1836.60 2052.71 1899.08 2031.04Q1961.55 2009.36 2028.49 1974.30Q2095.43 1939.24 2152.80 1892.06L2152.80 1892.06Q2235.68 1929.04 2326.20 1976.85Q2416.73 2024.66 2509.80 2084.59L2509.80 2084.59Q2532.75 2099.89 2549.32 2099.89L2549.32 2099.89Q2569.73 2099.89 2578.65 2083.31Q2587.57 2066.74 2591.40 2051.44L2591.40 2051.44L2593.95 2038.69Q2593.95 2020.84 2585.03 2010Q2576.10 1999.16 2560.80 1991.51L2560.80 1991.51Q2467.73 1937.96 2382.30 1895.89Q2296.88 1853.81 2224.20 1821.94L2224.20 1821.94Q2270.10 1773.49 2317.28 1697.63Q2364.45 1621.76 2395.05 1549.09ZM1799.63 1241.81L1799.63 1241.81L2530.20 1199.74Q2522.55 1220.14 2505.34 1257.11Q2488.13 1294.09 2470.28 1327.24L2470.28 1327.24Q2451.15 1359.11 2451.15 1376.96L2451.15 1376.96Q2451.15 1392.26 2465.18 1392.26L2465.18 1392.26Q2486.85 1392.26 2532.75 1342.54Q2578.65 1292.81 2639.85 1201.01L2639.85 1201.01Q2646.23 1192.09 2655.79 1183.16Q2665.35 1174.24 2665.35 1160.21L2665.35 1160.21Q2665.35 1138.54 2641.76 1122.60Q2618.18 1106.66 2590.13 1106.66L2590.13 1106.66L2581.20 1106.66L2185.95 1130.89L2188.50 997.01Q2188.50 979.16 2171.29 968.32Q2154.07 957.49 2134.31 952.39Q2114.55 947.29 2100.53 944.74L2100.53 944.74L2083.95 942.19Q2057.18 942.19 2057.18 961.31L2057.18 961.31Q2057.18 968.96 2064.82 979.16L2064.82 979.16Q2083.95 1007.21 2083.95 1028.89L2083.95 1028.89L2083.95 1135.99L1830.22 1151.29L1834.05 1133.44Q1836.60 1115.59 1836.60 1113.04L1836.60 1113.04Q1836.60 1099.01 1823.85 1090.09Q1811.10 1081.16 1797.08 1077.34Q1783.05 1073.51 1775.40 1073.51L1775.40 1073.51Q1753.72 1073.51 1744.80 1100.29L1744.80 1100.29Q1724.40 1167.86 1696.99 1239.26Q1669.58 1310.66 1638.97 1360.39L1638.97 1360.39Q1633.88 1366.76 1633.88 1375.69L1633.88 1375.69Q1633.88 1389.71 1647.90 1401.19Q1661.92 1412.66 1676.59 1420.31Q1691.25 1427.96 1696.35 1427.96L1696.35 1427.96Q1706.55 1427.96 1713.56 1421.59Q1720.58 1415.21 1724.40 1408.84L1724.40 1408.84Q1746.08 1371.86 1765.84 1327.24Q1785.60 1282.61 1799.63 1241.81Z"/>
  </svg>