<svg xmlns="http://www.w3.org/2000/svg" viewBox="0 0 3000 3000" width="3000" height="3000">
    <path fill="#000000" d="M1000 892L1000 892L1428 866L1428 686Q1428 648 1407 618Q1386 588 1386 580L1386 580Q1386 562 1416 562L1416 562L1440 566Q1568 590 1568 636L1568 636L1564 858L2196 820L2210 820Q2250 820 2283 842Q2316 864 2316 886Q2316 908 2302 921Q2288 934 2235 1013Q2182 1092 2112 1168Q2042 1244 2014 1244L2014 1244Q2004 1244 2004 1226Q2004 1208 2051 1124Q2098 1040 2134 940L2134 940L962 1008Q902 1172 842 1276L842 1276Q824 1300 813 1300Q802 1300 780 1288L780 1288Q722 1258 722 1230L722 1230Q722 1220 749 1177Q776 1134 820 1021Q864 908 896 802L896 802Q906 768 935 768Q964 768 990 785Q1016 802 1016 823Q1016 844 1000 892ZM2216 1360L2216 1360L2276 1342Q2308 1342 2364 1404L2364 1404Q2386 1428 2386 1442L2386 1442Q2386 1462 2344 1468L2344 1468L1896 1490Q1788 1750 1616 1934L1616 1934Q1904 2060 2158 2206L2158 2206Q2204 2232 2204 2268L2204 2268L2200 2288Q2182 2354 2146 2354L2146 2354Q2124 2354 2090 2332L2090 2332Q1828 2164 1522 2026L1522 2026Q1354 2166 1122 2246L1122 2246Q970 2298 866 2313Q762 2328 758 2328L758 2328Q708 2328 708 2306L708 2306Q708 2278 806 2252Q904 2226 1008 2190L1008 2190Q1220 2116 1398 1970L1398 1970Q1160 1866 1096 1860L1096 1860Q1068 1856 1052 1812L1052 1812Q1046 1794 1046 1778Q1046 1762 1084 1701Q1122 1640 1182 1524L1182 1524L736 1546Q686 1546 672 1532L672 1532Q616 1476 616 1436L616 1436Q616 1422 624 1422Q632 1422 650 1429Q668 1436 722 1436L722 1436L744 1436L1242 1412Q1304 1286 1335 1189Q1366 1092 1366 1060L1366 1060L1366 1040Q1366 1020 1385 1020Q1404 1020 1433 1035Q1462 1050 1485 1073Q1508 1096 1508 1121Q1508 1146 1386 1404L1386 1404L2164 1368Q2192 1366 2216 1360ZM1186 1766L1186 1766Q1360 1826 1494 1882L1494 1882Q1646 1718 1740 1498L1740 1498L1328 1516Q1240 1686 1186 1766Z"/>
  </svg>