<svg xmlns="http://www.w3.org/2000/svg" viewBox="0 0 3000 3000" width="3000" height="3000">
    <path fill="#000000" d="M716 1320L716 956L2280 956L2280 1320L2222 1320L2222 1016L774 1016L774 1320L716 1320ZM1884 1512L1884 1512L1942 1526Q1856 1808 1693 1998Q1530 2188 1294 2307Q1058 2426 754 2502L754 2502Q750 2494 742 2485Q734 2476 724 2466Q714 2456 706 2450L706 2450Q1016 2382 1251 2266Q1486 2150 1644 1966Q1802 1782 1884 1512ZM658 1556L658 1498L2352 1498L2352 1556L658 1556ZM1376 726L1376 726L1434 712Q1470 776 1508 853Q1546 930 1566 980L1566 980L1510 1002Q1490 950 1452 871Q1414 792 1376 726ZM924 1904L924 1904L970 1856Q1144 1910 1329 1978Q1514 2046 1690 2122Q1866 2198 2017 2275Q2168 2352 2276 2424L2276 2424L2224 2480Q2120 2410 1970 2331Q1820 2252 1644 2174Q1468 2096 1283 2027Q1098 1958 924 1904ZM988 1904L924 1904Q982 1832 1046 1739Q1110 1646 1174 1542Q1238 1438 1293 1335Q1348 1232 1388 1140L1388 1140L1442 1152Q1400 1246 1344 1349Q1288 1452 1226 1554Q1164 1656 1102 1746Q1040 1836 988 1904L988 1904Z"/>
  </svg>