<svg xmlns="http://www.w3.org/2000/svg" viewBox="0 0 3000 3000" width="3000" height="3000">
    <path fill="#000000" d="M857.52 2065.28Q802.73 2065.28 802.73 2003.03L802.73 2003.03L802.73 1680.54L365.70 1680.54Q334.57 1680.54 320.25 1668.71Q305.93 1656.88 305.93 1631.98L305.93 1631.98Q305.93 1583.42 365.70 1583.42L365.70 1583.42L802.73 1583.42L802.73 1055.49L912.30 1055.49L912.30 1583.42L1358.06 1583.42Q1419.07 1583.42 1419.07 1631.98L1419.07 1631.98Q1419.07 1680.54 1358.06 1680.54L1358.06 1680.54L912.30 1680.54L912.30 2003.03Q912.30 2035.40 899.23 2050.34Q886.16 2065.28 857.52 2065.28L857.52 2065.28ZM449.12 1487.55Q441.65 1490.04 426.71 1490.04L426.71 1490.04Q388.11 1490.04 380.64 1445.21L380.64 1445.21Q378.15 1430.27 386.87 1415.95Q395.58 1401.64 415.50 1381.71L415.50 1381.71Q467.80 1335.64 543.75 1226.07L543.75 1226.07Q564.92 1188.72 592.31 1180.00L592.31 1180.00Q597.29 1178.76 607.25 1178.76L607.25 1178.76Q630.91 1178.76 644.60 1190.59Q658.30 1202.42 658.30 1227.32L658.30 1227.32Q658.30 1272.14 573.63 1374.24L573.63 1374.24Q485.23 1482.57 449.12 1487.55L449.12 1487.55ZM425.46 1100.32Q368.19 1100.32 368.19 1051.76L368.19 1051.76Q368.19 1003.20 425.46 1003.20L425.46 1003.20L1285.84 1003.20Q1346.85 1003.20 1346.85 1051.76L1346.85 1051.76Q1346.85 1100.32 1285.84 1100.32L1285.84 1100.32L425.46 1100.32ZM1273.39 1481.32Q1234.79 1468.87 1147.63 1366.77L1147.63 1366.77Q1066.70 1270.90 1066.70 1229.81L1066.70 1229.81Q1066.70 1207.40 1079.15 1194.32Q1091.60 1181.25 1112.77 1181.25L1112.77 1181.25Q1117.75 1181.25 1130.20 1183.74L1130.20 1183.74Q1148.88 1187.48 1173.78 1219.85L1173.78 1219.85Q1229.81 1295.80 1315.72 1377.98L1315.72 1377.98Q1329.42 1392.92 1335.02 1404.75Q1340.63 1416.58 1338.13 1430.27L1338.13 1430.27Q1328.17 1482.57 1288.33 1482.57L1288.33 1482.57Q1278.37 1482.57 1273.39 1481.32L1273.39 1481.32ZM2583.25 2065.28Q2563.33 2065.28 2501.07 2029.17L2501.07 2029.17Q2411.43 1976.88 2240.84 1898.44L2240.84 1898.44Q2035.40 2055.32 1692.99 2055.32L1692.99 2055.32Q1655.64 2055.32 1637.59 2041.63Q1619.53 2027.93 1619.53 1999.29L1619.53 1999.29Q1619.53 1970.65 1640.70 1959.45L1640.70 1959.45Q1656.88 1951.98 1751.51 1949.49L1751.51 1949.49Q1871.04 1947.00 1967.54 1921.47Q2064.04 1895.95 2132.52 1853.61L2132.52 1853.61Q2039.14 1813.77 1861.08 1761.47L1861.08 1761.47Q1826.22 1751.51 1808.79 1735.33Q1791.36 1719.14 1791.36 1694.24L1791.36 1694.24Q1791.36 1671.83 1806.30 1640.70L1806.30 1640.70L1877.27 1500L1648.17 1500Q1589.65 1500 1589.65 1453.93L1589.65 1453.93Q1589.65 1406.62 1648.17 1406.62L1648.17 1406.62L1923.34 1406.62L1998.05 1229.81Q2014.23 1189.97 2046.61 1189.97L2046.61 1189.97Q2074.00 1189.97 2088.94 1203.04Q2103.88 1216.11 2103.88 1241.02L2103.88 1241.02Q2103.88 1258.45 2037.89 1406.62L2037.89 1406.62L2630.57 1406.62Q2689.09 1406.62 2689.09 1453.93L2689.09 1453.93Q2689.09 1500 2630.57 1500L2630.57 1500L2469.95 1500Q2428.86 1694.24 2323.02 1818.75L2323.02 1818.75Q2433.84 1861.08 2601.93 1948.24L2601.93 1948.24Q2644.26 1970.65 2644.26 2005.52L2644.26 2005.52Q2644.26 2031.67 2628.08 2048.47Q2611.89 2065.28 2583.25 2065.28L2583.25 2065.28ZM2224.66 1780.15Q2326.76 1681.79 2364.11 1500L2364.11 1500L1993.07 1500L1920.85 1640.70Q1915.87 1650.66 1915.87 1660.62L1915.87 1660.62Q1915.87 1681.79 1942.02 1689.26L1942.02 1689.26Q2025.44 1711.67 2193.53 1770.19L2193.53 1770.19Q2207.23 1773.93 2224.66 1780.15L2224.66 1780.15ZM1648.17 1353.08Q1597.12 1353.08 1597.12 1295.80L1597.12 1295.80L1597.12 1186.23Q1592.14 1118.99 1622.02 1089.11Q1651.90 1059.23 1719.14 1064.21L1719.14 1064.21L2076.49 1064.21L2076.49 987.01Q2076.49 933.47 2131.27 933.47L2131.27 933.47Q2184.81 933.47 2184.81 987.01L2184.81 987.01L2184.81 1064.21L2558.35 1064.21Q2625.59 1059.23 2655.47 1089.11Q2685.35 1118.99 2680.37 1186.23L2680.37 1186.23L2680.37 1295.80Q2680.37 1325.68 2667.92 1339.38Q2655.47 1353.08 2630.57 1353.08L2630.57 1353.08Q2605.66 1353.08 2593.21 1339.38Q2580.76 1325.68 2580.76 1295.80L2580.76 1295.80L2580.76 1207.40Q2580.76 1181.25 2567.07 1167.55Q2553.37 1153.86 2528.47 1155.10L2528.47 1155.10L1749.02 1155.10Q1695.48 1155.10 1697.97 1207.40L1697.97 1207.40L1697.97 1295.80Q1697.97 1353.08 1648.17 1353.08L1648.17 1353.08Z"/>
  </svg>