<svg xmlns="http://www.w3.org/2000/svg" viewBox="0 0 3000 3000" width="3000" height="3000">
    <path fill="#000000" d="M1372 1208L1372 1208Q1384 1202 1390 1202L1390 1202Q1408 1200 1442 1266L1442 1266Q1460 1304 1466 1356Q1472 1408 1458 1422L1458 1422Q1432 1452 1420 1508L1420 1508Q1414 1544 1408 1558L1408 1558Q1404 1568 1420 1572L1420 1572Q1432 1572 1468 1572L1468 1572L1530 1572L1546 1538Q1562 1506 1562 1488Q1562 1470 1580 1470L1580 1470Q1616 1470 1638 1526L1638 1526L1654 1562L1794 1566Q1936 1574 2024 1566L2024 1566Q2178 1554 2230 1584L2230 1584Q2268 1608 2273 1662Q2278 1716 2244 1744L2244 1744Q2222 1766 2199 1766Q2176 1766 2108 1744L2108 1744Q2038 1722 1914 1716L1914 1716Q1706 1700 1684 1720L1684 1720Q1672 1730 1668 1766L1668 1766Q1664 1800 1650 1845Q1636 1890 1628 1902L1628 1902Q1618 1914 1602 1980L1602 1980Q1598 2000 1613 2014Q1628 2028 1698 2076L1698 2076Q1762 2120 1775 2132Q1788 2144 1818 2162L1818 2162Q1858 2190 1902 2238Q1946 2286 1946 2300L1946 2300Q1946 2308 1958 2313Q1970 2318 1970 2349Q1970 2380 1958 2385Q1946 2390 1946 2399Q1946 2408 1912 2446L1912 2446Q1890 2472 1879 2477Q1868 2482 1838 2482L1838 2482Q1792 2482 1767 2469Q1742 2456 1724 2422Q1706 2388 1659 2327Q1612 2266 1588 2250L1588 2250Q1566 2234 1530 2205Q1494 2176 1490 2176L1490 2176Q1482 2176 1445 2200Q1408 2224 1378 2250L1378 2250Q1330 2292 1286 2319Q1242 2346 1233 2359Q1224 2372 1216 2372Q1208 2372 1167 2398Q1126 2424 1069 2451Q1012 2478 1002 2468L1002 2468Q994 2460 1012 2442Q1030 2424 1124 2340L1124 2340Q1172 2298 1202 2258L1202 2258L1252 2196Q1268 2174 1271 2166Q1274 2158 1292 2131Q1310 2104 1310 2096L1310 2096Q1310 2088 1266 2077Q1222 2066 1190 2066L1190 2066Q1154 2066 1142 2057Q1130 2048 1130 2020L1130 2020Q1130 1996 1122 1990L1122 1990Q1102 1978 1166 1832L1166 1832Q1208 1732 1203 1727Q1198 1722 1139 1729Q1080 1736 1062 1742L1062 1742Q1048 1752 998 1760L998 1760Q960 1768 918 1784Q876 1800 866 1812L866 1812Q840 1838 778 1798L778 1798Q750 1780 736 1756Q722 1732 728 1718L728 1718Q734 1696 832 1670L832 1670Q1014 1622 1076 1616L1076 1616Q1112 1614 1178 1602L1178 1602Q1228 1594 1238 1590Q1248 1586 1254 1572L1254 1572Q1282 1422 1314 1344L1314 1344Q1328 1318 1328 1296L1328 1296Q1328 1274 1343 1244Q1358 1214 1372 1208ZM1486 1742L1486 1742Q1486 1710 1480 1708L1480 1708Q1464 1706 1406 1713Q1348 1720 1342 1724L1342 1724Q1336 1732 1319 1774Q1302 1816 1298 1838L1298 1838Q1294 1858 1310 1870Q1326 1882 1376 1902L1376 1902Q1436 1920 1436 1900L1436 1900Q1436 1892 1446 1868L1446 1868Q1486 1776 1486 1742ZM1284 680L1284 680Q1284 626 1286 624Q1288 622 1347 625Q1406 628 1416 638L1416 638L1468 696L1508 742L1506 790Q1502 836 1510 849Q1518 862 1554 868L1554 868Q1700 882 1804 906L1804 906Q1840 912 1907 916Q1974 920 1992 932Q2010 944 2044 962L2044 962Q2110 996 2128 1014Q2146 1032 2148 1064L2148 1064Q2152 1098 2128 1134L2128 1134Q2102 1174 2079 1185Q2056 1196 2010 1192L2010 1192Q1960 1186 1932 1186L1932 1186Q1914 1186 1844 1200Q1774 1214 1724 1230L1724 1230Q1718 1232 1716 1230Q1714 1228 1716 1222L1716 1222Q1720 1208 1743 1176Q1766 1144 1778 1135Q1790 1126 1805 1091Q1820 1056 1814 1048L1814 1048Q1810 1036 1734 1013Q1658 990 1584 978L1584 978L1500 964L1470 988Q1440 1014 1433 1014Q1426 1014 1400 990L1400 990Q1380 974 1370 971Q1360 968 1320 972L1320 972Q1268 978 1237 988Q1206 998 1190 998L1190 998Q1170 998 1121 1014Q1072 1030 1050 1046L1050 1046Q1020 1062 1020 1087Q1020 1112 1008 1132Q996 1152 996 1179Q996 1206 987 1232Q978 1258 987 1294Q996 1330 984 1350L984 1350Q960 1400 908 1400L908 1400Q872 1400 846 1366Q820 1332 814 1274L814 1274Q810 1238 813 1222Q816 1206 832 1174L832 1174Q854 1128 868 1092L868 1092Q892 1028 915 1002Q938 976 966 976L966 976Q986 976 1042 948Q1098 920 1160 907Q1222 894 1259 883Q1296 872 1308 872L1308 872Q1328 872 1310 840L1310 840Q1284 794 1284 680Z"/>
  </svg>