<svg xmlns="http://www.w3.org/2000/svg" viewBox="0 0 3000 3000" width="3000" height="3000">
    <path fill="#000000" d="M947.17 2064.04Q891.14 2064.04 891.14 2017.97L891.14 2017.97Q891.14 1993.07 904.21 1981.24Q917.29 1969.41 945.92 1969.41L945.92 1969.41L990.75 1969.41Q1034.33 1969.41 1036.82 1924.58L1036.82 1924.58L1036.82 1808.79L893.63 1808.79Q847.56 1808.79 847.56 1765.21L847.56 1765.21Q847.56 1722.88 893.63 1722.88L893.63 1722.88L1036.82 1722.88L1036.82 1604.59L858.76 1604.59Q811.45 1604.59 811.45 1562.26L811.45 1562.26Q811.45 1518.68 858.76 1518.68L858.76 1518.68L1036.82 1518.68L1036.82 1407.86L904.83 1407.86Q857.52 1407.86 857.52 1365.53L857.52 1365.53Q857.52 1321.95 904.83 1321.95L904.83 1321.95L1257.20 1321.95Q1310.74 1321.95 1335.02 1345.61Q1359.30 1369.26 1355.57 1421.56L1355.57 1421.56L1355.57 1518.68L1386.69 1518.68Q1431.52 1518.68 1431.52 1562.26L1431.52 1562.26Q1431.52 1604.59 1386.69 1604.59L1386.69 1604.59L1355.57 1604.59L1355.57 1707.93Q1355.57 1762.72 1332.53 1787.62Q1309.50 1812.52 1257.20 1808.79L1257.20 1808.79L1127.71 1808.79L1127.71 1949.49Q1127.71 2011.74 1100.32 2039.76Q1072.92 2067.77 1013.16 2064.04L1013.16 2064.04L947.17 2064.04ZM416.75 1848.63L416.75 1768.95L724.29 1768.95L724.29 1848.63L416.75 1848.63ZM391.85 2060.30Q348.27 2060.30 348.27 2011.74L348.27 2011.74L348.27 1568.48Q348.27 1516.19 371.92 1491.91Q395.58 1467.63 446.63 1470.12L446.63 1470.12L694.41 1470.12Q746.70 1470.12 770.36 1493.77Q794.02 1517.43 791.53 1568.48L791.53 1568.48L791.53 1947.00Q791.53 2003.03 766.63 2031.04Q741.72 2059.06 688.18 2059.06L688.18 2059.06L627.17 2059.06Q576.12 2059.06 576.12 2012.99L576.12 2012.99Q576.12 1965.67 627.17 1965.67L627.17 1965.67L665.77 1965.67Q684.45 1965.67 694.41 1955.09Q704.37 1944.51 704.37 1925.83L704.37 1925.83L704.37 1585.91Q704.37 1552.29 670.75 1552.29L670.75 1552.29L470.29 1552.29Q436.67 1552.29 436.67 1585.91L436.67 1585.91L436.67 2011.74Q436.67 2060.30 391.85 2060.30L391.85 2060.30ZM416.75 1700.46L416.75 1620.78L724.29 1620.78L724.29 1700.46L416.75 1700.46ZM338.31 1415.33Q292.24 1415.33 292.24 1374.24L292.24 1374.24Q292.24 1333.15 338.31 1333.15L338.31 1333.15L525.07 1333.15L525.07 1258.45L389.36 1258.45Q345.78 1258.45 345.78 1219.85L345.78 1219.85Q345.78 1181.25 389.36 1181.25L389.36 1181.25L525.07 1181.25L525.07 1109.03L358.23 1109.03Q312.16 1109.03 312.16 1067.94L312.16 1067.94Q312.16 1026.86 358.23 1026.86L358.23 1026.86L525.07 1026.86L525.07 979.54Q525.07 930.98 569.90 930.98L569.90 930.98Q615.97 930.98 615.97 979.54L615.97 979.54L615.97 1026.86L777.83 1026.86Q825.15 1026.86 825.15 1067.94L825.15 1067.94Q825.15 1109.03 777.83 1109.03L777.83 1109.03L615.97 1109.03L615.97 1181.25L736.74 1181.25Q780.32 1181.25 780.32 1219.85L780.32 1219.85Q780.32 1258.45 736.74 1258.45L736.74 1258.45L615.97 1258.45L615.97 1333.15L791.53 1333.15Q838.84 1333.15 838.84 1374.24L838.84 1374.24Q838.84 1415.33 791.53 1415.33L791.53 1415.33L338.31 1415.33ZM1226.07 1722.88Q1244.75 1722.88 1254.71 1712.29Q1264.67 1701.71 1265.92 1683.03L1265.92 1683.03L1265.92 1604.59L1127.71 1604.59L1127.71 1722.88L1226.07 1722.88ZM1127.71 1518.68L1265.92 1518.68L1265.92 1450.20Q1265.92 1410.35 1226.07 1407.86L1226.07 1407.86L1127.71 1407.86L1127.71 1518.68ZM960.86 1302.03Q934.72 1302.03 923.51 1282.10L923.51 1282.10L877.44 1147.63Q876.20 1121.48 886.16 1109.66Q896.12 1097.83 918.53 1097.83L918.53 1097.83Q948.41 1097.83 978.30 1172.53L978.30 1172.53Q991.99 1206.15 999.46 1226.70Q1006.93 1247.24 1006.93 1257.20L1006.93 1257.20Q1006.93 1278.37 995.10 1290.20Q983.28 1302.03 960.86 1302.03L960.86 1302.03ZM1125.22 1287.08Q1102.81 1287.08 1089.11 1268.41L1089.11 1268.41L1044.29 1131.45Q1044.29 1092.85 1086.62 1092.85L1086.62 1092.85Q1115.26 1092.85 1143.90 1157.59L1143.90 1157.59Q1170.04 1214.87 1170.04 1242.26L1170.04 1242.26Q1170.04 1287.08 1125.22 1287.08L1125.22 1287.08ZM891.14 1075.42Q841.33 1075.42 841.33 1033.08L841.33 1033.08Q841.33 990.75 923.51 987.01L923.51 987.01Q1155.10 975.81 1280.86 950.90L1280.86 950.90L1330.66 940.94Q1375.49 940.94 1375.49 985.77L1375.49 985.77Q1375.49 1020.63 1340.63 1029.35L1340.63 1029.35Q1303.27 1039.31 1209.89 1050.51L1209.89 1050.51Q1118.99 1060.47 1053.00 1065.45L1053.00 1065.45L1026.86 1067.94Q943.43 1075.42 891.14 1075.42L891.14 1075.42ZM1279.61 1294.56Q1236.04 1294.56 1236.04 1255.96L1236.04 1255.96L1241.02 1232.30L1283.35 1100.32Q1293.31 1071.68 1328.17 1071.68L1328.17 1071.68Q1353.08 1071.68 1365.53 1083.51Q1377.98 1095.34 1374.24 1117.75L1374.24 1117.75Q1363.04 1184.99 1323.19 1264.67L1323.19 1264.67Q1308.25 1294.56 1279.61 1294.56L1279.61 1294.56ZM2158.67 2035.40Q2037.89 2035.40 1979.99 2027.31Q1922.09 2019.21 1896.57 1992.44Q1871.04 1965.67 1871.04 1908.40L1871.04 1908.40L1871.04 1246.00Q1871.04 1211.13 1884.74 1194.95Q1898.44 1178.76 1927.08 1178.76L1927.08 1178.76Q1983.11 1178.76 1983.11 1246.00L1983.11 1246.00L1983.11 1858.59Q1983.11 1895.95 1998.67 1911.51Q2014.23 1927.08 2049.10 1931.43Q2083.96 1935.79 2167.38 1935.79L2167.38 1935.79Q2311.82 1935.79 2336.72 1922.09L2336.72 1922.09Q2354.15 1912.13 2362.87 1881.63Q2371.58 1851.12 2372.83 1791.36L2372.83 1791.36Q2372.83 1765.21 2386.52 1750.27Q2400.22 1735.33 2426.37 1735.33L2426.37 1735.33Q2455.00 1735.33 2467.46 1750.27Q2479.91 1765.21 2481.15 1793.85L2481.15 1793.85Q2482.40 1894.70 2460.61 1948.86Q2438.82 2003.03 2391.50 2017.97L2391.50 2017.97Q2335.47 2035.40 2158.67 2035.40L2158.67 2035.40ZM1640.70 1852.37Q1615.80 1852.37 1599.61 1841.78Q1583.42 1831.20 1580.93 1815.01L1580.93 1815.01Q1578.44 1791.36 1590.89 1755.25L1590.89 1755.25Q1622.02 1671.83 1636.96 1589.65Q1651.90 1507.47 1661.87 1396.66L1661.87 1396.66Q1664.36 1371.75 1677.43 1358.68Q1690.50 1345.61 1714.16 1345.61L1714.16 1345.61Q1741.55 1345.61 1755.87 1360.55Q1770.19 1375.49 1768.95 1401.64L1768.95 1401.64Q1765.21 1500 1748.40 1605.21Q1731.59 1710.42 1704.20 1791.36L1704.20 1791.36Q1694.24 1820.00 1677.43 1836.18Q1660.62 1852.37 1640.70 1852.37L1640.70 1852.37ZM2639.28 1792.60Q2618.12 1792.60 2601.93 1778.91L2601.93 1778.91Q2588.23 1766.46 2553.37 1663.11L2553.37 1663.11Q2522.24 1572.22 2467.46 1470.12L2467.46 1470.12Q2418.90 1380.47 2418.90 1360.55L2418.90 1360.55Q2418.90 1313.23 2474.93 1313.23L2474.93 1313.23Q2513.53 1313.23 2608.15 1492.53L2608.15 1492.53Q2701.54 1668.09 2701.54 1740.31L2701.54 1740.31Q2701.54 1760.23 2682.86 1776.42L2682.86 1776.42Q2662.94 1792.60 2639.28 1792.60L2639.28 1792.60ZM2291.89 1181.25Q2254.54 1184.99 2218.43 1160.08L2218.43 1160.08Q2156.18 1116.50 2047.85 1044.29L2047.85 1044.29Q2030.42 1033.08 2024.19 1020.63Q2017.97 1008.18 2019.21 990.75L2019.21 990.75Q2021.70 973.32 2036.65 959.00Q2051.59 944.68 2072.75 944.68L2072.75 944.68Q2085.21 944.68 2096.41 949.66L2096.41 949.66Q2139.99 967.09 2195.40 999.46Q2250.81 1031.84 2299.37 1066.70L2299.37 1066.70Q2320.53 1080.40 2328.63 1093.47Q2336.72 1106.54 2336.72 1125.22L2336.72 1125.22Q2336.72 1148.88 2323.65 1163.82Q2310.57 1178.76 2291.89 1181.25L2291.89 1181.25Z"/>
  </svg>