<svg xmlns="http://www.w3.org/2000/svg" viewBox="0 0 3000 3000" width="3000" height="3000">
    <path fill="#000000" d="M459.60 1577.14L534.82 1572.04L532.27 1714.84L455.77 1718.66L459.60 1577.14ZM1140.45 1574.59L1245 1568.21L1236.07 1672.76L1139.17 1679.14L1140.45 1574.59ZM617.70 1569.49L695.47 1564.39L696.75 1708.46L615.15 1712.29L617.70 1569.49ZM454.50 1797.71L696.75 1787.51L698.02 1980.04Q684.00 1976.21 648.30 1965.38Q612.60 1954.54 575.62 1939.24L575.62 1939.24Q555.22 1932.86 546.30 1932.86L546.30 1932.86Q527.17 1932.86 527.17 1948.16L527.17 1948.16Q527.17 1962.19 545.66 1980.04Q564.15 1997.89 590.92 2016.38Q617.70 2034.86 645.11 2051.44Q672.52 2068.01 696.11 2078.85Q719.70 2089.69 728.62 2089.69L728.62 2089.69Q741.37 2089.69 764.96 2071.84Q788.55 2053.99 788.55 2022.11L788.55 2022.11Q788.55 2013.19 787.27 2003.63Q786.00 1994.06 786.00 1982.59L786.00 1982.59L782.17 1558.01Q782.17 1551.64 784.09 1545.26Q786.00 1538.89 786.00 1531.24L786.00 1531.24Q786.00 1515.94 769.42 1499.36Q752.85 1482.79 727.35 1482.79L727.35 1482.79L719.70 1482.79L454.50 1495.54Q423.90 1485.34 404.77 1479.60Q385.65 1473.86 372.26 1473.86Q358.87 1473.86 358.87 1489.16L358.87 1489.16Q358.87 1494.26 361.42 1501.28Q363.97 1508.29 366.52 1517.21L366.52 1517.21Q375.45 1541.44 375.45 1572.04L375.45 1572.04L375.45 1584.79L362.70 1936.69Q361.42 1976.21 353.77 2013.19L353.77 2013.19Q352.50 2018.29 352.50 2025.94L352.50 2025.94Q352.50 2048.89 376.09 2065.46Q399.67 2082.04 416.25 2082.04Q432.82 2082.04 440.47 2070.56Q448.12 2059.09 448.12 2043.79L448.12 2043.79L454.50 1797.71ZM1141.72 1403.74L1259.02 1394.81L1251.37 1489.16L1140.45 1495.54L1141.72 1403.74ZM973.42 1769.66L1048.65 1765.84L1046.10 1996.61Q1021.87 1988.96 990.64 1972.39Q959.40 1955.81 930.07 1936.69L930.07 1936.69Q910.95 1922.66 896.92 1922.66L896.92 1922.66Q879.07 1922.66 879.07 1939.24L879.07 1939.24Q879.07 1949.44 894.37 1969.84Q909.67 1990.24 933.26 2013.19Q956.85 2036.14 982.35 2059.09Q1007.85 2082.04 1031.44 2096.70Q1055.02 2111.36 1070.32 2111.36L1070.32 2111.36Q1092 2111.36 1114.95 2092.88Q1137.90 2074.39 1137.90 2034.86L1137.90 2034.86Q1137.90 2025.94 1137.26 2016.38Q1136.63 2006.81 1136.63 1997.89L1136.63 1997.89L1139.17 1762.01L1306.20 1753.09Q1325.32 1751.81 1339.35 1749.26Q1353.38 1746.71 1353.38 1731.41L1353.38 1731.41Q1353.38 1714.84 1322.77 1679.14L1322.77 1679.14L1335.52 1564.39L1445.17 1558.01Q1482.15 1555.46 1482.15 1533.79L1482.15 1533.79Q1482.15 1519.76 1463.66 1497.45Q1445.17 1475.14 1422.22 1475.14L1422.22 1475.14Q1413.30 1475.14 1408.20 1476.41L1408.20 1476.41Q1399.27 1480.24 1389.07 1481.51Q1378.88 1482.79 1363.57 1484.06L1363.57 1484.06L1344.45 1485.34L1354.65 1389.71Q1355.92 1384.61 1358.47 1378.24Q1361.02 1371.86 1361.02 1364.21L1361.02 1364.21Q1361.02 1345.09 1341.90 1328.51L1341.90 1328.51Q1330.42 1315.76 1318.95 1311.94L1318.95 1311.94Q1321.50 1310.66 1326.60 1308.11L1326.60 1308.11Q1338.07 1301.74 1348.91 1288.99Q1359.75 1276.24 1359.75 1262.21L1359.75 1262.21Q1359.75 1253.29 1346.36 1233.53Q1332.97 1213.76 1313.85 1188.26Q1294.72 1162.76 1273.05 1139.17Q1251.37 1115.59 1232.25 1099.01L1232.25 1099.01Q1219.50 1088.81 1210.57 1084.99L1210.57 1084.99Q1255.20 1073.51 1298.55 1059.49L1298.55 1059.49Q1313.85 1053.11 1313.85 1036.54Q1313.85 1019.96 1301.74 999.56Q1289.62 979.16 1274.96 963.23Q1260.30 947.29 1248.82 947.29L1248.82 947.29Q1238.63 947.29 1228.42 961.31L1228.42 961.31Q1211.85 985.54 1199.10 991.91L1199.10 991.91Q1153.20 1016.14 1095.19 1037.17Q1037.17 1058.21 983.62 1070.96L983.62 1070.96Q975.97 1064.59 947.29 1053.11Q918.60 1041.64 900.75 1041.64L900.75 1041.64Q880.35 1041.64 880.35 1060.76L880.35 1060.76Q880.35 1068.41 881.62 1073.51L881.62 1073.51Q885.45 1084.99 886.72 1093.91Q888.00 1102.84 888.00 1111.76L888.00 1111.76Q888.00 1130.89 878.44 1164.04Q868.87 1197.19 855.49 1232.89Q842.10 1268.59 829.35 1296.64L829.35 1296.64Q820.42 1314.49 820.42 1331.06L820.42 1331.06Q820.42 1336.16 822.97 1339.99L822.97 1339.99Q814.05 1336.16 806.40 1336.16L806.40 1336.16Q800.02 1336.16 794.92 1338.71L794.92 1338.71Q777.07 1346.36 751.57 1347.64L751.57 1347.64L618.97 1355.29L618.97 1294.09L752.85 1285.16Q786.00 1281.34 786.00 1262.21L786.00 1262.21Q786.00 1248.19 772.61 1235.44Q759.22 1222.69 744.56 1213.76Q729.90 1204.84 720.97 1204.84L720.97 1204.84Q714.60 1204.84 710.77 1207.39L710.77 1207.39Q689.10 1215.04 668.70 1216.31L668.70 1216.31L618.97 1220.14L620.25 1158.94L779.62 1148.74Q814.05 1144.91 814.05 1124.51L814.05 1124.51Q814.05 1111.76 801.30 1098.38Q788.55 1084.99 771.97 1075.42Q755.40 1065.86 742.65 1065.86L742.65 1065.86Q740.10 1065.86 738.82 1066.50Q737.55 1067.14 735.00 1067.14L735.00 1067.14Q724.80 1069.69 712.69 1072.88Q700.57 1076.06 687.82 1077.34L687.82 1077.34L620.25 1082.44L620.25 994.46Q620.25 966.41 598.57 956.21Q576.90 946.01 556.50 944.10Q536.10 942.19 533.55 942.19L533.55 942.19Q511.87 942.19 511.87 957.49L511.87 957.49Q511.87 963.86 516.97 974.06L516.97 974.06Q523.35 986.81 527.17 1002.11Q531.00 1017.41 531.00 1037.81L531.00 1037.81L531.00 1086.26L409.87 1093.91L403.50 1093.91Q378.00 1093.91 348.67 1087.54L348.67 1087.54Q347.40 1087.54 345.49 1086.90Q343.57 1086.26 341.02 1086.26L341.02 1086.26Q325.72 1086.26 325.72 1097.10Q325.72 1107.94 333.37 1125.79Q341.02 1143.64 358.24 1157.66Q375.45 1171.69 403.50 1171.69L403.50 1171.69Q409.87 1171.69 415.61 1171.05Q421.35 1170.41 426.45 1170.41L426.45 1170.41L532.27 1164.04L532.27 1223.96L455.77 1229.06Q451.95 1229.06 447.49 1229.70Q443.02 1230.34 437.92 1230.34L437.92 1230.34Q420.07 1230.34 395.85 1223.96L395.85 1223.96Q392.02 1222.69 385.65 1222.69L385.65 1222.69Q370.35 1222.69 370.35 1237.99L370.35 1237.99Q370.35 1240.54 370.99 1243.72Q371.62 1246.91 372.90 1250.74L372.90 1250.74Q378.00 1262.21 388.20 1274.33Q398.40 1286.44 407.32 1294.09L407.32 1294.09Q414.97 1300.46 425.81 1302.38Q436.65 1304.29 446.85 1304.29L446.85 1304.29Q453.22 1304.29 459.60 1303.65Q465.97 1303.01 472.35 1303.01L472.35 1303.01L532.27 1299.19L533.55 1357.84L346.12 1368.04L334.65 1368.04Q325.72 1368.04 312.97 1366.76Q300.22 1365.49 290.02 1362.94L290.02 1362.94Q286.20 1361.66 279.82 1361.66L279.82 1361.66Q265.80 1361.66 265.80 1376.96L265.80 1376.96Q265.80 1396.09 277.91 1413.30Q290.02 1430.51 298.95 1438.16L298.95 1438.16Q306.60 1445.81 317.44 1447.72Q328.27 1449.64 343.57 1449.64L343.57 1449.64L365.25 1449.64L840.82 1422.86Q873.97 1419.04 873.97 1396.09L873.97 1396.09Q873.97 1385.89 862.50 1372.50Q851.02 1359.11 835.72 1347.64L835.72 1347.64Q834.45 1346.36 833.17 1346.36L833.17 1346.36Q835.72 1346.36 837.00 1346.36L837.00 1346.36Q852.30 1346.36 873.97 1320.86L873.97 1320.86Q905.85 1280.06 931.35 1237.35Q956.85 1194.64 983.62 1129.61L983.62 1129.61Q1009.12 1127.06 1039.72 1121.96L1039.72 1121.96Q1034.63 1124.51 1028.25 1128.34L1028.25 1128.34Q1012.95 1141.09 1012.95 1151.92Q1012.95 1162.76 1019.32 1172.96L1019.32 1172.96Q1033.35 1197.19 1043.55 1225.88Q1053.75 1254.56 1062.67 1283.89L1062.67 1283.89Q1071.60 1315.76 1097.10 1315.76L1097.10 1315.76L1109.85 1313.21Q1123.88 1311.94 1138.54 1302.38Q1153.20 1292.81 1153.20 1274.96L1153.20 1274.96Q1153.20 1271.14 1144.91 1246.91Q1136.63 1222.69 1122.60 1192.72Q1108.57 1162.76 1092 1139.81L1092 1139.81Q1079.25 1120.69 1066.50 1116.86L1066.50 1116.86Q1097.10 1110.49 1131.52 1104.11L1131.52 1104.11Q1155.75 1097.74 1179.97 1092.64L1179.97 1092.64Q1178.70 1093.91 1176.15 1093.91L1176.15 1093.91Q1160.85 1106.66 1160.85 1124.51L1160.85 1124.51Q1160.85 1134.71 1168.50 1146.19L1168.50 1146.19Q1232.25 1223.96 1274.32 1288.99L1274.32 1288.99Q1284.52 1305.56 1294.72 1311.94L1294.72 1311.94L965.77 1334.89Q960.67 1334.89 954.94 1335.53Q949.20 1336.16 942.82 1336.16L942.82 1336.16Q926.25 1336.16 907.12 1332.34L907.12 1332.34Q902.02 1331.06 897.56 1330.43Q893.10 1329.79 890.55 1329.79L890.55 1329.79Q872.70 1329.79 872.70 1345.09L872.70 1345.09Q872.70 1348.91 873.34 1352.74Q873.97 1356.56 875.25 1360.39L875.25 1360.39Q890.55 1399.91 911.59 1407.56Q932.62 1415.21 946.65 1415.21L946.65 1415.21Q953.02 1415.21 958.76 1415.21Q964.50 1415.21 973.42 1413.94L973.42 1413.94L1052.47 1408.84L1051.20 1499.36L884.17 1508.29L871.42 1508.29Q849.75 1508.29 831.90 1503.19L831.90 1503.19Q828.07 1501.91 824.89 1501.28Q821.70 1500.64 817.87 1500.64L817.87 1500.64Q801.30 1500.64 801.30 1517.21L801.30 1517.21Q801.30 1524.86 802.57 1529.96L802.57 1529.96Q810.22 1546.54 815.32 1554.83Q820.42 1563.11 828.07 1569.49L828.07 1569.49Q839.55 1579.69 849.75 1583.51Q859.95 1587.34 876.52 1587.34L876.52 1587.34Q881.62 1587.34 887.36 1586.70Q893.10 1586.06 900.75 1586.06L900.75 1586.06L1049.92 1578.41L1048.65 1682.96L953.02 1688.06L942.82 1688.06Q931.35 1688.06 920.51 1686.15Q909.67 1684.24 898.20 1682.96L898.20 1682.96Q894.37 1681.69 888.00 1681.69L888.00 1681.69Q872.70 1681.69 872.70 1695.71L872.70 1695.71Q872.70 1702.09 876.52 1713.56L876.52 1713.56Q881.62 1726.31 899.47 1747.99Q917.32 1769.66 954.30 1769.66L954.30 1769.66L973.42 1769.66ZM1602 1823.21L1617.30 1827.04Q1641.53 1827.04 1654.28 1798.99L1654.28 1798.99Q1687.42 1728.86 1710.38 1663.84Q1733.33 1598.81 1747.35 1545.26Q1761.38 1491.71 1768.39 1458.56Q1775.40 1425.41 1775.40 1420.31Q1775.40 1415.21 1772.85 1405.65Q1770.30 1396.09 1756.91 1387.80Q1743.53 1379.51 1714.20 1379.51L1714.20 1379.51Q1697.63 1379.51 1688.06 1388.44Q1678.50 1397.36 1675.95 1412.66L1675.95 1412.66Q1654.28 1508.29 1625.59 1589.89Q1596.90 1671.49 1559.92 1749.26L1559.92 1749.26Q1552.28 1764.56 1552.28 1774.76L1552.28 1774.76Q1552.28 1796.44 1569.49 1807.91Q1586.70 1819.39 1602 1823.21L1602 1823.21ZM2731.65 1670.21L2731.65 1670.21Q2731.65 1654.91 2718.90 1637.06L2718.90 1637.06Q2667.90 1568.21 2613.07 1501.28Q2558.25 1434.34 2495.78 1368.04L2495.78 1368.04Q2477.93 1350.19 2462.63 1350.19L2462.63 1350.19Q2446.05 1350.19 2425.65 1367.40Q2405.25 1384.61 2405.25 1402.46L2405.25 1402.46Q2405.25 1416.49 2416.73 1427.96L2416.73 1427.96Q2479.20 1499.36 2530.84 1566.94Q2582.48 1634.51 2633.48 1708.46L2633.48 1708.46Q2650.05 1731.41 2666.63 1731.41L2666.63 1731.41Q2687.03 1731.41 2709.34 1709.10Q2731.65 1686.79 2731.65 1670.21ZM1872.30 1379.51L1872.30 1379.51L1872.30 1385.89Q1874.85 1476.41 1886.96 1560.56Q1899.08 1644.71 1929.04 1719.30Q1959 1793.89 2013.83 1854.45Q2068.65 1915.01 2157.90 1955.81Q2247.15 1996.61 2377.20 2011.91L2377.20 2011.91Q2384.85 2013.19 2393.14 2013.83Q2401.43 2014.46 2410.35 2014.46L2410.35 2014.46Q2472.82 2014.46 2520.64 1993.43Q2568.45 1972.39 2568.45 1936.69L2568.45 1936.69Q2568.45 1909.91 2541.68 1871.66L2541.68 1871.66Q2457.53 1746.71 2398.88 1631.96L2398.88 1631.96Q2368.28 1570.76 2345.32 1570.76L2345.32 1570.76Q2327.48 1570.76 2327.48 1597.54L2327.48 1597.54Q2327.48 1621.76 2342.78 1671.49Q2358.07 1721.21 2381.66 1779.86Q2405.25 1838.51 2429.48 1893.34L2429.48 1893.34L2432.03 1899.71L2423.10 1899.71Q2414.18 1900.99 2398.88 1900.99L2398.88 1900.99Q2341.50 1900.99 2276.48 1884.41Q2211.45 1867.84 2155.99 1835.33Q2100.53 1802.81 2066.10 1755.64L2066.10 1755.64Q2015.10 1682.96 1996.61 1590.53Q1978.13 1498.09 1975.58 1382.06L1975.58 1382.06Q1974.30 1352.74 1962.19 1341.90Q1950.08 1331.06 1925.85 1331.06L1925.85 1331.06L1920.75 1331.06Q1892.70 1332.34 1882.50 1343.81Q1872.30 1355.29 1872.30 1379.51ZM2211.45 1376.96L2211.45 1376.96Q2228.03 1376.96 2247.79 1358.47Q2267.55 1339.99 2267.55 1315.76L2267.55 1315.76Q2267.55 1294.09 2250.97 1281.34L2250.97 1281.34Q2192.32 1225.24 2134.31 1176.15Q2076.30 1127.06 2015.10 1081.16L2015.10 1081.16Q2004.90 1073.51 1990.88 1073.51L1990.88 1073.51Q1975.58 1073.51 1955.81 1090.72Q1936.05 1107.94 1936.05 1127.06L1936.05 1127.06Q1936.05 1141.09 1950.08 1152.56L1950.08 1152.56Q2013.83 1203.56 2068.65 1252.65Q2123.47 1301.74 2182.13 1361.66L2182.13 1361.66Q2197.43 1376.96 2211.45 1376.96Z"/>
  </svg>