<svg xmlns="http://www.w3.org/2000/svg" viewBox="0 0 3000 3000" width="3000" height="3000">
    <path fill="#000000" d="M894.37 1273.05L894.37 1273.05L949.20 1279.43L1093.27 1270.50Q1149.38 1201.65 1204.20 1109.85L1204.20 1109.85L1012.95 1121.33Q937.72 1218.22 879.07 1267.95L879.07 1267.95Q857.40 1285.80 847.84 1285.80Q838.27 1285.80 838.27 1274.96Q838.27 1264.13 851.02 1247.55L851.02 1247.55Q933.90 1144.28 972.79 1069.05Q1011.67 993.83 1023.15 950.48Q1034.63 907.13 1034.63 902.03L1034.63 902.03L1034.63 886.72Q1034.63 875.25 1041 875.25Q1047.38 875.25 1063.95 885.45L1063.95 885.45Q1113.67 912.23 1113.67 935.17Q1113.67 958.13 1055.02 1058.85L1055.02 1058.85L1245 1046.10L1261.57 1044.83Q1278.15 1044.83 1295.36 1058.85Q1312.57 1072.88 1312.57 1083.08Q1312.57 1093.28 1303.65 1100.29Q1294.72 1107.30 1255.84 1162.13Q1216.95 1216.95 1174.88 1265.40L1174.88 1265.40L1306.20 1257.75L1316.40 1256.47Q1327.88 1256.47 1345.72 1271.78Q1363.57 1287.08 1363.57 1298.55Q1363.57 1310.03 1361.02 1315.76Q1358.47 1321.50 1357.20 1327.88L1357.20 1327.88L1345.72 1432.42L1362.30 1431.15Q1395.45 1428.60 1404.38 1425.41Q1413.30 1422.22 1425.41 1422.22Q1437.52 1422.22 1457.92 1443.90L1457.92 1443.90Q1473.22 1463.03 1473.22 1475.78Q1473.22 1488.53 1443.90 1491.08L1443.90 1491.08L1339.35 1496.18L1325.32 1622.40Q1355.92 1658.10 1355.92 1670.21Q1355.92 1682.33 1345.09 1684.88Q1334.25 1687.43 1316.40 1688.70L1316.40 1688.70L1144.27 1697.63L1141.72 1950.08L1143 1987.05Q1143 2032.95 1106.02 2049.53L1106.02 2049.53Q1092 2055.90 1080.52 2055.90L1080.52 2055.90Q1055.02 2055.90 976.61 1986.41Q898.20 1916.93 898.20 1892.70L898.20 1892.70Q898.20 1883.78 909.67 1883.78Q921.15 1883.78 954.94 1906.73Q988.72 1929.68 1065.22 1960.28L1065.22 1960.28L1067.77 1701.45L979.80 1705.28L964.50 1705.28Q951.75 1705.28 927.52 1697.63Q903.30 1689.98 890.55 1651.73L890.55 1651.73Q886.72 1641.53 886.72 1635.79Q886.72 1630.05 894.37 1630.05L894.37 1630.05L949.20 1636.43L959.40 1636.43L1069.05 1631.33L1069.05 1510.20L882.90 1520.40Q847.20 1520.40 831.26 1496.18Q815.32 1471.95 815.32 1459.84Q815.32 1447.72 824.25 1447.72L824.25 1447.72Q828.07 1447.72 841.46 1451.55Q854.85 1455.38 877.80 1455.38L877.80 1455.38L890.55 1455.38L1070.32 1446.45L1071.60 1338.08L978.52 1343.18Q970.87 1344.45 964.50 1344.45L964.50 1344.45L953.02 1344.45Q908.40 1344.45 889.27 1293.45L889.27 1293.45Q886.72 1285.80 886.72 1279.43Q886.72 1273.05 894.37 1273.05ZM341.02 1046.10L341.02 1046.10Q379.27 1053.75 403.50 1053.75L403.50 1053.75L409.87 1053.75L542.47 1046.10L542.47 990Q542.47 950.48 532.91 932.63Q523.35 914.77 523.35 910.95L523.35 910.95Q523.35 902.03 547.57 902.03Q571.80 902.03 594.75 912.86Q617.70 923.70 617.70 946.65L617.70 946.65L617.70 1041L692.92 1037.17Q706.95 1035.90 722.89 1031.44Q738.82 1026.97 748.39 1026.34Q757.95 1025.70 773.25 1034.63L773.25 1034.63Q811.50 1056.30 811.50 1076.70L811.50 1076.70Q811.50 1090.72 784.72 1093.28L784.72 1093.28L617.70 1103.47L616.42 1181.25L673.80 1177.43Q695.47 1176.15 708.22 1171.05Q720.97 1165.95 726.71 1165.95Q732.45 1165.95 745.20 1173.60L745.20 1173.60Q783.45 1197.83 783.45 1215.68L783.45 1215.68Q783.45 1228.43 757.95 1230.97L757.95 1230.97L616.42 1239.90L616.42 1315.13L760.50 1307.47Q787.27 1306.20 798.75 1301.10Q810.22 1296 818.51 1296Q826.80 1296 851.02 1313.85Q875.25 1331.70 875.25 1347.64Q875.25 1363.58 849.75 1366.13L849.75 1366.13L363.97 1394.18L342.30 1394.18Q314.25 1394.18 302.77 1385.25L302.77 1385.25L284.92 1362.30Q272.17 1347 272.17 1334.89Q272.17 1322.78 277.91 1322.78Q283.65 1322.78 295.12 1325.96Q306.60 1329.15 333.37 1329.15L333.37 1329.15L344.85 1329.15L545.02 1318.95L543.75 1243.72L472.35 1248.83L446.85 1250.10Q423.90 1250.10 413.70 1242.45L413.70 1242.45Q378.00 1215.68 378.00 1191.45L378.00 1191.45Q378.00 1183.80 384.37 1183.80Q390.75 1183.80 404.77 1187.63Q418.80 1191.45 437.92 1191.45L437.92 1191.45L543.75 1185.08L543.75 1107.30L426.45 1114.95L403.50 1116.22Q358.87 1116.22 339.75 1074.15L339.75 1074.15Q333.37 1058.85 333.37 1052.47Q333.37 1046.10 341.02 1046.10ZM1269.22 1436.25L1278.15 1326.60L1146.82 1334.25L1145.55 1442.63L1269.22 1436.25ZM780.90 1507.65L784.72 1941.15L787.27 1980.68Q787.27 2008.73 766.24 2024.66Q745.20 2040.60 733.72 2040.60Q722.25 2040.60 691.01 2024.66Q659.77 2008.73 625.35 1984.50L625.35 1984.50Q539.92 1928.40 539.92 1906.73L539.92 1906.73Q539.92 1899.08 549.49 1899.08Q559.05 1899.08 600.49 1915.01Q641.92 1930.95 709.50 1948.80L709.50 1948.80L708.22 1783.05L453.22 1793.25L448.12 2002.35Q446.85 2034.23 427.72 2034.23L427.72 2034.23Q413.70 2034.23 389.47 2021.48Q365.25 2008.73 365.25 1988.33L365.25 1988.33Q365.25 1979.40 369.71 1957.73Q374.17 1936.05 375.45 1895.25L375.45 1895.25L388.20 1534.43L388.20 1521.68Q388.20 1484.70 379.91 1464.30Q371.62 1443.90 371.62 1437.53Q371.62 1431.15 382.46 1431.15Q393.30 1431.15 460.87 1452.83L460.87 1452.83L724.80 1440.08L732.45 1440.08Q754.12 1440.08 769.42 1452.83Q784.72 1465.58 784.72 1480.88L784.72 1480.88L780.90 1507.65ZM1253.92 1621.13L1264.12 1500L1145.55 1506.38L1144.27 1626.23L1253.92 1621.13ZM706.95 1572.68L706.95 1506.38L459.60 1519.13L458.32 1582.88L706.95 1572.68ZM708.22 1716.75L708.22 1636.43L457.05 1646.63L454.50 1726.95L708.22 1716.75ZM2187.22 1308.75L2187.22 1308.75Q2076.30 1195.28 1955.18 1098.38L1955.18 1098.38Q1943.70 1089.45 1943.70 1079.25L1943.70 1079.25Q1943.70 1063.95 1960.91 1048.65Q1978.13 1033.35 1990.24 1033.35Q2002.35 1033.35 2010 1039.72L2010 1039.72Q2138.78 1136.63 2245.88 1238.63L2245.88 1238.63Q2259.90 1250.10 2259.90 1269.22Q2259.90 1288.35 2242.69 1304.93Q2225.47 1321.50 2212.72 1321.50Q2199.97 1321.50 2187.22 1308.75ZM1879.95 1338.08L1879.95 1331.70Q1879.95 1310.03 1888.24 1301.10Q1896.53 1292.18 1920.75 1290.90L1920.75 1290.90L1925.85 1290.90Q1947.53 1290.90 1957.09 1299.83Q1966.65 1308.75 1967.93 1334.25L1967.93 1334.25Q1970.47 1451.55 1989.60 1544.63L1989.60 1544.63Q2024.03 1719.30 2152.80 1794.53L2152.80 1794.53Q2265 1860.83 2398.88 1860.83L2398.88 1860.83Q2439.68 1860.83 2439.68 1850.63L2439.68 1850.63L2389.95 1729.50Q2335.13 1594.35 2335.13 1549.73L2335.13 1549.73Q2335.13 1530.60 2345.32 1530.60L2345.32 1530.60Q2363.18 1530.60 2392.50 1587.98L2392.50 1587.98Q2451.15 1702.73 2535.30 1827.68L2535.30 1827.68Q2560.80 1864.65 2560.80 1892.06Q2560.80 1919.48 2516.18 1939.24Q2471.55 1959 2410.35 1959L2410.35 1959Q2393.78 1959 2378.48 1956.45L2378.48 1956.45Q2134.95 1927.13 2020.20 1800.90L2020.20 1800.90Q1920.75 1693.80 1895.25 1510.20L1895.25 1510.20Q1882.50 1427.33 1879.95 1338.08L1879.95 1338.08ZM2712.53 1594.35L2712.53 1594.35Q2724 1609.65 2724 1623.04Q2724 1636.43 2704.24 1656.19Q2684.48 1675.95 2669.18 1675.95Q2653.88 1675.95 2639.85 1656.83L2639.85 1656.83Q2534.03 1501.28 2421.82 1375.05L2421.82 1375.05Q2412.90 1366.13 2412.90 1353.38Q2412.90 1340.63 2430.75 1325.33Q2448.60 1310.03 2461.99 1310.03Q2475.38 1310.03 2490.68 1325.33L2490.68 1325.33Q2605.43 1449 2712.53 1594.35ZM1714.20 1339.35L1714.20 1339.35Q1767.75 1339.35 1767.75 1372.50L1767.75 1372.50Q1767.75 1390.35 1737.15 1505.74Q1706.55 1621.13 1647.90 1747.35L1647.90 1747.35Q1636.42 1771.58 1618.58 1771.58L1618.58 1771.58L1604.55 1767.75Q1559.92 1756.28 1559.92 1726.95L1559.92 1726.95Q1559.92 1718.03 1581.60 1672.13L1581.60 1672.13Q1642.80 1547.18 1683.60 1366.13L1683.60 1366.13Q1688.70 1339.35 1714.20 1339.35Z"/>
  </svg>