<svg xmlns="http://www.w3.org/2000/svg" viewBox="0 0 3000 3000" width="3000" height="3000">
    <path fill="#000000" d="M644 964L644 906L1440 906L1440 964L644 964ZM1720 956L1720 898L2136 898L2136 956L1720 956ZM1536 2002L1536 1942L2268 1942L2268 2002L1536 2002ZM668 1188L668 1130L1412 1130L1412 1188L668 1188ZM602 1424L602 1366L1468 1366L1468 1424L602 1424ZM1430 1650L1430 1592L2428 1592L2428 1650L1430 1650ZM760 1892L760 1832L1326 1832L1326 1892L760 1892ZM760 2148L760 2090L1326 2090L1326 2148L760 2148ZM1006 1408L1006 710L1064 710L1064 1408L1006 1408ZM732 2514L732 1582L1324 1582L1324 1640L790 1640L790 2514L732 2514ZM1300 2428L1300 1582L1358 1582L1358 2428Q1358 2460 1348 2478Q1338 2496 1310 2502L1310 2502Q1282 2510 1226 2512Q1170 2514 1070 2514L1070 2514Q1068 2504 1061 2489Q1054 2474 1046 2460L1046 2460Q1128 2462 1188 2462Q1248 2462 1266 2462L1266 2462Q1300 2460 1300 2428L1300 2428ZM1548 1308L1548 1248L2290 1248L2290 2086L2232 2086L2232 1308L1548 1308ZM1864 2418L1864 1272L1924 1272L1924 2418Q1924 2458 1911 2477Q1898 2496 1866 2504L1866 2504Q1836 2512 1772 2513Q1708 2514 1598 2514L1598 2514Q1596 2504 1589 2487Q1582 2470 1574 2456L1574 2456Q1668 2458 1736 2458Q1804 2458 1826 2458L1826 2458Q1848 2456 1856 2448Q1864 2440 1864 2418L1864 2418ZM1792 710L1792 710L1848 724Q1784 884 1689 1031Q1594 1178 1488 1284L1488 1284Q1484 1278 1475 1271Q1466 1264 1457 1256Q1448 1248 1440 1244L1440 1244Q1546 1144 1639 1003Q1732 862 1792 710ZM2118 912L2118 898L2130 898L2140 894L2178 920Q2148 988 2105 1058Q2062 1128 2016 1190Q1970 1252 1928 1300L1928 1300Q1920 1294 1907 1287Q1894 1280 1884 1276L1884 1276Q1926 1230 1970 1167Q2014 1104 2053 1037Q2092 970 2118 912L2118 912Z"/>
  </svg>