<svg xmlns="http://www.w3.org/2000/svg" viewBox="0 0 3000 3000" width="3000" height="3000">
    <path fill="#000000" d="M1702 732L1702 732Q1728 688 1731 688Q1734 688 1778 708L1778 708Q1882 754 1796 842L1796 842Q1770 868 1764 868Q1758 868 1691 912Q1624 956 1600 976L1600 976Q1578 994 1536 1030L1536 1030Q1426 1128 1416 1128L1416 1128Q1388 1128 1514 978L1514 978Q1526 964 1536 954L1536 954Q1642 828 1702 732ZM1034 664L1034 664Q1048 646 1064 649Q1080 652 1108 676L1108 676L1140 708L1140 776L1140 846L1224 840Q1300 834 1319 844Q1338 854 1342 898L1342 898Q1346 954 1324 968Q1302 982 1250 958L1250 958Q1184 930 1162 937Q1140 944 1140 996L1140 996L1140 1040L1180 1034Q1208 1030 1216 1032Q1224 1034 1236 1052L1236 1052Q1254 1074 1252 1116L1252 1116L1250 1156L1200 1156L1148 1156L1138 1198Q1130 1240 1134 1250L1134 1250Q1136 1262 1326 1262Q1516 1262 1534 1250Q1552 1238 1608 1213Q1664 1188 1694 1156L1694 1156Q1804 1038 1828 1002L1828 1002Q1848 972 1847 961Q1846 950 1824 950L1824 950Q1800 950 1794 934L1794 934Q1782 916 1795 893Q1808 870 1830 866L1830 866Q1856 862 1924 868Q1992 874 1994 884L1994 884Q1998 892 2006 892L2006 892Q2048 892 2046 976L2046 976Q2044 1018 2035 1032Q2026 1046 2000 1046L2000 1046Q1976 1046 1943 1067Q1910 1088 1890 1098L1890 1098Q1824 1132 1824 1144L1824 1144Q1824 1150 1890 1156L1890 1156Q1962 1160 2041 1187Q2120 1214 2156 1244L2156 1244Q2168 1252 2168 1298L2168 1298L2168 1346L2212 1352Q2256 1356 2280 1352L2280 1352Q2308 1346 2344 1358Q2380 1370 2388 1384L2388 1384Q2396 1412 2381 1449Q2366 1486 2344 1486L2344 1486Q2330 1486 2284 1474Q2238 1462 2194 1462L2194 1462Q2168 1462 2159 1465Q2150 1468 2148 1482L2148 1482Q2144 1500 2129 1538Q2114 1576 2124 1594L2124 1594Q2136 1614 2133 1647Q2130 1680 2114 1700L2114 1700Q2104 1714 2095 1719Q2086 1724 2064 1722L2064 1722Q2034 1722 2015 1727Q1996 1732 1967 1718Q1938 1704 1902 1710L1902 1710Q1856 1716 1848 1733Q1840 1750 1844 1840L1844 1840Q1850 1948 1859 2030Q1868 2112 1863 2136Q1858 2160 1852 2214L1852 2214Q1846 2318 1772 2388L1772 2388Q1738 2418 1718 2430Q1698 2442 1664 2454L1664 2454Q1638 2462 1638 2451Q1638 2440 1613 2426Q1588 2412 1568 2381Q1548 2350 1499 2326Q1450 2302 1430 2280L1430 2280L1376 2220Q1342 2184 1336 2166L1336 2166Q1332 2154 1326 2151Q1320 2148 1316 2155Q1312 2162 1312 2174L1312 2174Q1312 2192 1301 2209Q1290 2226 1286 2244L1286 2244Q1280 2262 1254 2292Q1228 2322 1204 2338L1204 2338Q1188 2346 1181 2343Q1174 2340 1146 2304L1146 2304Q1108 2258 1108 2253Q1108 2248 1088 2236L1088 2236Q1068 2226 1066 2207Q1064 2188 1080 2174L1080 2174Q1098 2164 1115 2164Q1132 2164 1148 2126L1148 2126Q1160 2100 1162 2069Q1164 2038 1160 1920L1160 1920Q1156 1750 1150 1710Q1144 1670 1144 1614L1144 1614Q1146 1560 1135 1544Q1124 1528 1088 1528L1088 1528Q1058 1528 1012 1538Q966 1548 946 1558L946 1558Q912 1576 912 1638L912 1638Q912 1668 922 1672Q932 1676 970 1658L970 1658Q1002 1644 1034 1642Q1066 1640 1076 1654L1076 1654Q1088 1666 1082 1704Q1076 1742 1060 1750L1060 1750Q1046 1758 1006 1766L1006 1766Q932 1774 914 1780Q896 1786 896 1800L896 1800Q896 1816 892 1842L892 1842Q890 1866 903 1868Q916 1870 968 1854L968 1854Q1052 1826 1074 1846L1074 1846Q1086 1858 1083 1891Q1080 1924 1070 1944L1070 1944Q1058 1962 1041 1966Q1024 1970 912 1978L912 1978L892 1978L894 2106Q896 2192 894 2215Q892 2238 882 2251Q872 2264 867 2265Q862 2266 854 2258L854 2258Q810 2214 830 2056L830 2056Q838 1996 844 1882L844 1882Q846 1798 854 1698Q862 1598 868 1594L868 1594Q872 1590 862 1580L862 1580Q852 1568 860 1543Q868 1518 884 1502L884 1502Q942 1448 1080 1434L1080 1434Q1144 1426 1215 1448Q1286 1470 1310 1506L1310 1506Q1324 1530 1326 1545Q1328 1560 1314 1600L1314 1600Q1300 1640 1306 1836L1306 1836Q1310 2010 1319 2061Q1328 2112 1360 2130L1360 2130Q1388 2144 1433 2159Q1478 2174 1508 2188L1508 2188Q1536 2204 1592 2205Q1648 2206 1664 2194L1664 2194Q1692 2170 1694 1910L1694 1910Q1694 1746 1688 1742L1688 1742Q1686 1738 1668 1744L1668 1744Q1642 1750 1586 1766L1586 1766Q1552 1776 1536 1777Q1520 1778 1496 1772L1496 1772Q1456 1760 1465 1752Q1474 1744 1474 1734Q1474 1724 1490 1708L1490 1708Q1504 1694 1565 1668Q1626 1642 1658 1636L1658 1636L1690 1628L1694 1568Q1702 1508 1696 1502L1696 1502Q1692 1492 1602 1516Q1512 1540 1468 1562L1468 1562Q1442 1576 1430 1576Q1418 1576 1402 1560L1402 1560L1384 1546L1404 1526Q1424 1506 1426 1500L1426 1500Q1438 1470 1670 1406L1670 1406Q1698 1400 1694 1390L1694 1390Q1684 1346 1684 1327Q1684 1308 1696 1294L1696 1294Q1718 1268 1698 1270L1698 1270Q1688 1270 1668 1274L1668 1274Q1624 1286 1594 1303Q1564 1320 1564 1332L1564 1332Q1564 1352 1549 1378Q1534 1404 1520 1408L1520 1408Q1506 1414 1450 1392L1450 1392Q1320 1342 1014 1378L1014 1378Q890 1394 825 1414Q760 1434 698 1472L698 1472Q682 1484 675 1483Q668 1482 640 1462L640 1462Q616 1442 612 1434Q608 1426 614 1414L614 1414Q626 1386 641 1373Q656 1360 692 1352L692 1352Q738 1340 795 1323Q852 1306 924 1292L924 1292Q972 1284 985 1278Q998 1272 994 1264L994 1264Q992 1246 992 1211Q992 1176 990 1170L990 1170Q986 1162 957 1174Q928 1186 928 1196L928 1196Q928 1202 912 1202L912 1202Q896 1202 872 1178Q848 1154 852 1140L852 1140Q856 1126 886 1106Q916 1086 956 1072L956 1072L1000 1060L1006 1006Q1012 956 1002 947Q992 938 924 960Q856 982 848 996L848 996Q840 1008 824 998L824 998Q796 980 800 955Q804 930 836 910L836 910Q858 898 907 883Q956 868 986 866L986 866Q1000 864 1003 856Q1006 848 1006 814L1006 814Q1010 688 1034 664ZM1926 1262L1926 1262Q1902 1250 1835 1250Q1768 1250 1742 1260L1742 1260Q1724 1268 1732 1270L1732 1270Q1734 1272 1738 1272L1738 1272Q1756 1276 1804 1328L1804 1328L1856 1378L1890 1372Q1926 1364 1932 1364Q1938 1364 1946 1337Q1954 1310 1954 1294L1954 1294Q1954 1274 1926 1262ZM1916 1482L1916 1482Q1912 1468 1891 1470Q1870 1472 1858 1486L1858 1486Q1842 1504 1842 1550L1842 1550Q1844 1580 1847 1589Q1850 1598 1862 1598L1862 1598Q1880 1602 1892 1582L1892 1582Q1902 1568 1912 1530Q1922 1492 1916 1482Z"/>
  </svg>