<svg xmlns="http://www.w3.org/2000/svg" viewBox="0 0 3000 3000" width="3000" height="3000">
    <path fill="#000000" d="M991.27 1010.40L991.27 1010.40Q1007.85 982.35 1009.76 982.35Q1011.67 982.35 1039.72 995.10L1039.72 995.10Q1106.02 1024.42 1051.20 1080.52L1051.20 1080.52Q1034.63 1097.10 1030.80 1097.10Q1026.97 1097.10 984.26 1125.15Q941.55 1153.20 926.25 1165.95L926.25 1165.95Q912.22 1177.42 885.45 1200.38L885.45 1200.38Q815.32 1262.85 808.95 1262.85L808.95 1262.85Q791.10 1262.85 871.42 1167.22L871.42 1167.22Q879.07 1158.30 885.45 1151.92L885.45 1151.92Q953.02 1071.60 991.27 1010.40ZM565.42 967.05L565.42 967.05Q574.35 955.57 584.55 957.49Q594.75 959.40 612.60 974.70L612.60 974.70L633.00 995.10L633.00 1038.45L633.00 1083.07L686.55 1079.25Q735.00 1075.42 747.11 1081.80Q759.22 1088.17 761.77 1116.22L761.77 1116.22Q764.32 1151.92 750.30 1160.85Q736.27 1169.77 703.12 1154.47L703.12 1154.47Q661.05 1136.63 647.02 1141.09Q633.00 1145.55 633.00 1178.70L633.00 1178.70L633.00 1206.75L658.50 1202.92Q676.35 1200.38 681.45 1201.65Q686.55 1202.92 694.20 1214.40L694.20 1214.40Q705.67 1228.42 704.40 1255.20L704.40 1255.20L703.12 1280.70L671.25 1280.70L638.10 1280.70L631.72 1307.47Q626.62 1334.25 629.17 1340.63L629.17 1340.63Q630.45 1348.28 751.57 1348.28Q872.70 1348.28 884.17 1340.63Q895.65 1332.97 931.35 1317.04Q967.05 1301.10 986.17 1280.70L986.17 1280.70Q1056.30 1205.47 1071.60 1182.52L1071.60 1182.52Q1084.35 1163.40 1083.71 1156.39Q1083.07 1149.38 1069.05 1149.38L1069.05 1149.38Q1053.75 1149.38 1049.92 1139.17L1049.92 1139.17Q1042.27 1127.70 1050.56 1113.04Q1058.85 1098.38 1072.88 1095.82L1072.88 1095.82Q1089.45 1093.27 1132.80 1097.10Q1176.15 1100.92 1177.42 1107.30L1177.42 1107.30Q1179.97 1112.40 1185.07 1112.40L1185.07 1112.40Q1211.85 1112.40 1210.57 1165.95L1210.57 1165.95Q1209.30 1192.72 1203.56 1201.65Q1197.82 1210.57 1181.25 1210.57L1181.25 1210.57Q1165.95 1210.57 1144.91 1223.96Q1123.88 1237.35 1111.13 1243.72L1111.13 1243.72Q1069.05 1265.40 1069.05 1273.05L1069.05 1273.05Q1069.05 1276.88 1111.13 1280.70L1111.13 1280.70Q1157.02 1283.25 1207.39 1300.46Q1257.75 1317.67 1280.70 1336.80L1280.70 1336.80Q1288.35 1341.90 1288.35 1371.22L1288.35 1371.22L1288.35 1401.82L1316.40 1405.65Q1344.45 1408.20 1359.75 1405.65L1359.75 1405.65Q1377.60 1401.82 1400.55 1409.47Q1423.50 1417.13 1428.60 1426.05L1428.60 1426.05Q1433.70 1443.90 1424.14 1467.49Q1414.57 1491.07 1400.55 1491.07L1400.55 1491.07Q1391.63 1491.07 1362.30 1483.42Q1332.97 1475.77 1304.92 1475.77L1304.92 1475.77Q1288.35 1475.77 1282.61 1477.69Q1276.87 1479.60 1275.60 1488.52L1275.60 1488.52Q1273.05 1500 1263.49 1524.22Q1253.92 1548.45 1260.30 1559.92L1260.30 1559.92Q1267.95 1572.67 1266.04 1593.71Q1264.12 1614.75 1253.92 1627.50L1253.92 1627.50Q1247.55 1636.42 1241.81 1639.61Q1236.07 1642.80 1222.05 1641.53L1222.05 1641.53Q1202.92 1641.53 1190.81 1644.71Q1178.70 1647.90 1160.21 1638.97Q1141.72 1630.05 1118.77 1633.88L1118.77 1633.88Q1089.45 1637.70 1084.35 1648.54Q1079.25 1659.38 1081.80 1716.75L1081.80 1716.75Q1085.63 1785.60 1091.36 1837.88Q1097.10 1890.15 1093.91 1905.45Q1090.72 1920.75 1086.90 1955.17L1086.90 1955.17Q1083.07 2021.47 1035.90 2066.10L1035.90 2066.10Q1014.22 2085.22 1001.47 2092.88Q988.72 2100.53 967.05 2108.18L967.05 2108.18Q950.47 2113.28 950.47 2106.26Q950.47 2099.25 934.54 2090.32Q918.60 2081.40 905.85 2061.64Q893.10 2041.88 861.86 2026.58Q830.62 2011.28 817.87 1997.25L817.87 1997.25L783.45 1959Q761.77 1936.05 757.95 1924.58L757.95 1924.58Q755.40 1916.92 751.57 1915.01Q747.75 1913.10 745.20 1917.56Q742.65 1922.03 742.65 1929.67L742.65 1929.67Q742.65 1941.15 735.64 1951.99Q728.62 1962.83 726.07 1974.30L726.07 1974.30Q722.25 1985.78 705.67 2004.90Q689.10 2024.03 673.80 2034.22L673.80 2034.22Q663.60 2039.33 659.14 2037.41Q654.67 2035.50 636.82 2012.55L636.82 2012.55Q612.60 1983.22 612.60 1980.04Q612.60 1976.85 599.85 1969.20L599.85 1969.20Q587.10 1962.83 585.82 1950.71Q584.55 1938.60 594.75 1929.67L594.75 1929.67Q606.22 1923.30 617.06 1923.30Q627.90 1923.30 638.10 1899.08L638.10 1899.08Q645.75 1882.50 647.02 1862.74Q648.30 1842.97 645.75 1767.75L645.75 1767.75Q643.20 1659.38 639.37 1633.88Q635.55 1608.38 635.55 1572.67L635.55 1572.67Q636.82 1538.25 629.81 1528.05Q622.80 1517.85 599.85 1517.85L599.85 1517.85Q580.72 1517.85 551.40 1524.22Q522.07 1530.60 509.32 1536.97L509.32 1536.97Q487.65 1548.45 487.65 1587.97L487.65 1587.97Q487.65 1607.10 494.02 1609.65Q500.40 1612.20 524.62 1600.72L524.62 1600.72Q545.02 1591.80 565.42 1590.53Q585.82 1589.25 592.20 1598.17L592.20 1598.17Q599.85 1605.83 596.02 1630.05Q592.20 1654.28 582.00 1659.38L582.00 1659.38Q573.07 1664.47 547.57 1669.58L547.57 1669.58Q500.40 1674.67 488.92 1678.50Q477.45 1682.33 477.45 1691.25L477.45 1691.25Q477.45 1701.45 474.90 1718.03L474.90 1718.03Q473.62 1733.33 481.91 1734.60Q490.20 1735.88 523.35 1725.67L523.35 1725.67Q576.90 1707.83 590.92 1720.58L590.92 1720.58Q598.57 1728.22 596.66 1749.26Q594.75 1770.30 588.37 1783.05L588.37 1783.05Q580.72 1794.53 569.89 1797.08Q559.05 1799.63 487.65 1804.72L487.65 1804.72L474.90 1804.72L476.17 1886.33Q477.45 1941.15 476.17 1955.81Q474.90 1970.47 468.52 1978.76Q462.15 1987.05 458.96 1987.69Q455.77 1988.33 450.67 1983.22L450.67 1983.22Q422.62 1955.17 435.37 1854.45L435.37 1854.45Q440.47 1816.20 444.30 1743.53L444.30 1743.53Q445.57 1689.97 450.67 1626.22Q455.77 1562.47 459.60 1559.92L459.60 1559.92Q462.15 1557.38 455.77 1551L455.77 1551Q449.40 1543.35 454.50 1527.41Q459.60 1511.47 469.80 1501.28L469.80 1501.28Q506.77 1466.85 594.75 1457.92L594.75 1457.92Q635.55 1452.82 680.81 1466.85Q726.07 1480.88 741.37 1503.82L741.37 1503.82Q750.30 1519.13 751.57 1528.69Q752.85 1538.25 743.92 1563.75L743.92 1563.75Q735.00 1589.25 738.82 1714.20L738.82 1714.20Q741.37 1825.13 747.11 1857.64Q752.85 1890.15 773.25 1901.63L773.25 1901.63Q791.10 1910.55 819.79 1920.11Q848.47 1929.67 867.60 1938.60L867.60 1938.60Q885.45 1948.80 921.15 1949.44Q956.85 1950.08 967.05 1942.42L967.05 1942.42Q984.90 1927.13 986.17 1761.38L986.17 1761.38Q986.17 1656.83 982.35 1654.28L982.35 1654.28Q981.07 1651.72 969.60 1655.55L969.60 1655.55Q953.02 1659.38 917.32 1669.58L917.32 1669.58Q895.65 1675.95 885.45 1676.59Q875.25 1677.22 859.95 1673.40L859.95 1673.40Q834.45 1665.75 840.19 1660.65Q845.92 1655.55 845.92 1649.17Q845.92 1642.80 856.12 1632.60L856.12 1632.60Q865.05 1623.67 903.94 1607.10Q942.82 1590.53 963.22 1586.70L963.22 1586.70L983.62 1581.60L986.17 1543.35Q991.27 1505.10 987.45 1501.28L987.45 1501.28Q984.90 1494.90 927.52 1510.20Q870.15 1525.50 842.10 1539.53L842.10 1539.53Q825.52 1548.45 817.87 1548.45Q810.22 1548.45 800.02 1538.25L800.02 1538.25L788.55 1529.32L801.30 1516.57Q814.05 1503.82 815.32 1500L815.32 1500Q822.97 1480.88 970.87 1440.07L970.87 1440.07Q988.72 1436.25 986.17 1429.88L986.17 1429.88Q979.80 1401.82 979.80 1389.71Q979.80 1377.60 987.45 1368.67L987.45 1368.67Q1001.47 1352.10 988.72 1353.38L988.72 1353.38Q982.35 1353.38 969.60 1355.92L969.60 1355.92Q941.55 1363.57 922.42 1374.41Q903.30 1385.25 903.30 1392.90L903.30 1392.90Q903.30 1405.65 893.74 1422.22Q884.17 1438.80 875.25 1441.35L875.25 1441.35Q866.32 1445.17 830.62 1431.15L830.62 1431.15Q747.75 1399.28 552.67 1422.22L552.67 1422.22Q473.62 1432.42 432.19 1445.17Q390.75 1457.92 351.22 1482.15L351.22 1482.15Q341.02 1489.80 336.56 1489.16Q332.10 1488.52 314.25 1475.77L314.25 1475.77Q298.95 1463.03 296.40 1457.92Q293.85 1452.82 297.67 1445.17L297.67 1445.17Q305.32 1427.32 314.89 1419.04Q324.45 1410.75 347.40 1405.65L347.40 1405.65Q376.72 1398 413.06 1387.16Q449.40 1376.32 495.30 1367.40L495.30 1367.40Q525.90 1362.30 534.19 1358.47Q542.47 1354.65 539.92 1349.55L539.92 1349.55Q538.65 1338.07 538.65 1315.76Q538.65 1293.45 537.37 1289.63L537.37 1289.63Q534.82 1284.53 516.34 1292.17Q497.85 1299.82 497.85 1306.20L497.85 1306.20Q497.85 1310.03 487.65 1310.03L487.65 1310.03Q477.45 1310.03 462.15 1294.72Q446.85 1279.42 449.40 1270.50L449.40 1270.50Q451.95 1261.57 471.07 1248.82Q490.20 1236.07 515.70 1227.15L515.70 1227.15L543.75 1219.50L547.57 1185.07Q551.40 1153.20 545.02 1147.46Q538.65 1141.72 495.30 1155.75Q451.95 1169.77 446.85 1178.70L446.85 1178.70Q441.75 1186.35 431.55 1179.97L431.55 1179.97Q413.70 1168.50 416.25 1152.56Q418.80 1136.63 439.20 1123.88L439.20 1123.88Q453.22 1116.22 484.46 1106.66Q515.70 1097.10 534.82 1095.82L534.82 1095.82Q543.75 1094.55 545.66 1089.45Q547.57 1084.35 547.57 1062.67L547.57 1062.67Q550.12 982.35 565.42 967.05ZM1134.07 1348.28L1134.07 1348.28Q1118.77 1340.63 1076.06 1340.63Q1033.35 1340.63 1016.77 1347L1016.77 1347Q1005.30 1352.10 1010.40 1353.38L1010.40 1353.38Q1011.67 1354.65 1014.22 1354.65L1014.22 1354.65Q1025.70 1357.20 1056.30 1390.35L1056.30 1390.35L1089.45 1422.22L1111.13 1418.40Q1134.07 1413.30 1137.90 1413.30Q1141.72 1413.30 1146.82 1396.09Q1151.92 1378.88 1151.92 1368.67L1151.92 1368.67Q1151.92 1355.92 1134.07 1348.28ZM1127.70 1488.52L1127.70 1488.52Q1125.15 1479.60 1111.76 1480.88Q1098.38 1482.15 1090.72 1491.07L1090.72 1491.07Q1080.52 1502.55 1080.52 1531.88L1080.52 1531.88Q1081.80 1551 1083.71 1556.74Q1085.63 1562.47 1093.27 1562.47L1093.27 1562.47Q1104.75 1565.03 1112.40 1552.28L1112.40 1552.28Q1118.77 1543.35 1125.15 1519.13Q1131.52 1494.90 1127.70 1488.52ZM2347.88 1547.17L2347.88 1547.17Q2335.13 1528.05 2335.13 1516.57Q2335.13 1505.10 2340.23 1505.10L2340.23 1505.10Q2347.88 1505.10 2375.29 1530.60Q2402.70 1556.10 2414.18 1573.95L2414.18 1573.95Q2430.75 1599.45 2440.95 1611.56Q2451.15 1623.67 2451.15 1629.41Q2451.15 1635.15 2456.89 1640.89Q2462.63 1646.63 2475.38 1667.03L2475.38 1667.03Q2497.05 1702.72 2530.20 1721.85L2530.20 1721.85Q2559.53 1737.15 2523.83 1789.42L2523.83 1789.42Q2504.70 1817.47 2502.15 1831.50L2502.15 1831.50Q2495.78 1853.17 2471.55 1867.84Q2447.32 1882.50 2396.32 1892.70L2396.32 1892.70Q2296.88 1911.83 2190.41 1895.25Q2083.95 1878.67 2016.38 1835.33L2016.38 1835.33Q1967.93 1802.17 1926.49 1746.71Q1885.05 1691.25 1872.30 1640.25L1872.30 1640.25Q1865.92 1610.92 1866.56 1577.14Q1867.20 1543.35 1876.13 1543.35L1876.13 1543.35Q1879.95 1543.35 1900.35 1577.78L1900.35 1577.78Q1933.50 1633.88 1981.31 1673.40Q2029.13 1712.92 2077.57 1724.40L2077.57 1724.40Q2109.45 1733.33 2183.40 1735.88Q2257.35 1738.42 2299.43 1732.05L2299.43 1732.05Q2333.85 1726.95 2363.81 1718.66Q2393.78 1710.38 2397.60 1701.45L2397.60 1701.45Q2401.43 1697.63 2398.88 1675.95Q2396.32 1654.28 2389.31 1641.53Q2382.30 1628.78 2382.30 1621.13L2382.30 1621.13Q2382.30 1612.20 2370.82 1587.97Q2359.35 1563.75 2347.88 1547.17ZM1732.05 1460.47L1732.05 1460.47Q1734.60 1452.82 1738.42 1452.82Q1742.25 1452.82 1756.28 1460.47L1756.28 1460.47Q1769.03 1469.40 1770.30 1485.97Q1771.58 1502.55 1776.67 1503.82Q1781.78 1505.10 1797.71 1490.44Q1813.65 1475.77 1816.20 1478.32L1816.20 1478.32Q1817.47 1482.15 1811.10 1503.19Q1804.72 1524.22 1799.63 1530.60L1799.63 1530.60Q1793.25 1540.80 1793.25 1551Q1793.25 1561.20 1781.14 1582.24Q1769.03 1603.28 1769.03 1619.21Q1769.03 1635.15 1763.92 1637.70Q1758.83 1640.25 1758.83 1656.19Q1758.83 1672.13 1752.45 1681.69Q1746.08 1691.25 1746.08 1704L1746.08 1704Q1746.08 1714.20 1731.41 1730.14Q1716.75 1746.08 1704 1749.90L1704 1749.90Q1691.25 1753.72 1679.14 1749.26Q1667.03 1744.80 1664.47 1738.42L1664.47 1738.42Q1661.92 1729.50 1653 1720.58L1653 1720.58Q1644.08 1711.65 1644.08 1656.19Q1644.08 1600.72 1653 1581.60L1653 1581.60Q1663.20 1565.03 1663.20 1559.92L1663.20 1559.92Q1663.20 1557.38 1680.41 1532.51Q1697.63 1507.65 1705.28 1501.28L1705.28 1501.28Q1709.10 1497.45 1719.30 1482.15Q1729.50 1466.85 1732.05 1460.47ZM2403.98 1340.63L2403.98 1340.63Q2409.07 1334.25 2460.07 1345.72L2460.07 1345.72Q2483.03 1350.82 2542.95 1375.05Q2602.88 1399.28 2615.63 1408.20L2615.63 1408.20Q2658.98 1438.80 2680.65 1471.95L2680.65 1471.95Q2692.13 1491.07 2692.13 1531.88L2692.13 1531.88Q2692.13 1561.20 2690.21 1571.40Q2688.30 1581.60 2679.38 1593.07L2679.38 1593.07Q2669.18 1610.92 2658.34 1614.75Q2647.50 1618.58 2628.38 1616.03L2628.38 1616.03Q2611.80 1613.47 2599.69 1603.28Q2587.57 1593.07 2564.63 1561.20L2564.63 1561.20Q2531.48 1516.57 2507.25 1466.85L2507.25 1466.85Q2491.95 1438.80 2474.74 1417.13Q2457.53 1395.45 2418 1358.47L2418 1358.47Q2401.43 1345.72 2403.98 1340.63ZM1979.40 1242.45L1979.40 1242.45Q1984.50 1236.07 2018.93 1245Q2053.35 1253.92 2072.47 1266.67L2072.47 1266.67Q2086.50 1278.15 2108.81 1283.89Q2131.13 1289.63 2156.63 1281.34Q2182.13 1273.05 2201.25 1260.30L2201.25 1260.30Q2219.10 1247.55 2221.65 1250.10L2221.65 1250.10Q2221.65 1253.92 2212.72 1265.40L2212.72 1265.40Q2194.88 1288.35 2192.32 1312.57L2192.32 1312.57Q2191.05 1325.32 2171.93 1362.30L2171.93 1362.30Q2141.32 1417.13 2097.97 1417.13L2097.97 1417.13Q2073.75 1417.13 2047.61 1396.09Q2021.47 1375.05 2010 1348.28L2010 1348.28Q1974.30 1253.92 1979.40 1242.45Z"/>
  </svg>