<svg xmlns="http://www.w3.org/2000/svg" viewBox="0 0 3000 3000" width="3000" height="3000">
    <path fill="#000000" d="M1632.81 2384.77Q1544.92 2384.77 1544.92 2312.50L1544.92 2312.50Q1544.92 2273.44 1565.43 2254.88Q1585.94 2236.33 1630.86 2236.33L1630.86 2236.33L1701.17 2236.33Q1769.53 2236.33 1773.44 2166.02L1773.44 2166.02L1773.44 1984.38L1548.83 1984.38Q1476.56 1984.38 1476.56 1916.02L1476.56 1916.02Q1476.56 1849.61 1548.83 1849.61L1548.83 1849.61L1773.44 1849.61L1773.44 1664.06L1494.14 1664.06Q1419.92 1664.06 1419.92 1597.66L1419.92 1597.66Q1419.92 1529.30 1494.14 1529.30L1494.14 1529.30L1773.44 1529.30L1773.44 1355.47L1566.41 1355.47Q1492.19 1355.47 1492.19 1289.06L1492.19 1289.06Q1492.19 1220.70 1566.41 1220.70L1566.41 1220.70L2119.14 1220.70Q2203.13 1220.70 2241.21 1257.81Q2279.30 1294.92 2273.44 1376.95L2273.44 1376.95L2273.44 1529.30L2322.27 1529.30Q2392.58 1529.30 2392.58 1597.66L2392.58 1597.66Q2392.58 1664.06 2322.27 1664.06L2322.27 1664.06L2273.44 1664.06L2273.44 1826.17Q2273.44 1912.11 2237.30 1951.17Q2201.17 1990.23 2119.14 1984.38L2119.14 1984.38L1916.02 1984.38L1916.02 2205.08Q1916.02 2302.73 1873.05 2346.68Q1830.08 2390.63 1736.33 2384.77L1736.33 2384.77L1632.81 2384.77ZM800.78 2046.88L800.78 1921.88L1283.20 1921.88L1283.20 2046.88L800.78 2046.88ZM761.72 2378.91Q693.36 2378.91 693.36 2302.73L693.36 2302.73L693.36 1607.42Q693.36 1525.39 730.47 1487.30Q767.58 1449.22 847.66 1453.13L847.66 1453.13L1236.33 1453.13Q1318.36 1453.13 1355.47 1490.23Q1392.58 1527.34 1388.67 1607.42L1388.67 1607.42L1388.67 2201.17Q1388.67 2289.06 1349.61 2333.01Q1310.55 2376.95 1226.56 2376.95L1226.56 2376.95L1130.86 2376.95Q1050.78 2376.95 1050.78 2304.69L1050.78 2304.69Q1050.78 2230.47 1130.86 2230.47L1130.86 2230.47L1191.41 2230.47Q1220.70 2230.47 1236.33 2213.87Q1251.95 2197.27 1251.95 2167.97L1251.95 2167.97L1251.95 1634.77Q1251.95 1582.03 1199.22 1582.03L1199.22 1582.03L884.77 1582.03Q832.03 1582.03 832.03 1634.77L832.03 1634.77L832.03 2302.73Q832.03 2378.91 761.72 2378.91L761.72 2378.91ZM800.78 1814.45L800.78 1689.45L1283.20 1689.45L1283.20 1814.45L800.78 1814.45ZM677.73 1367.19Q605.47 1367.19 605.47 1302.73L605.47 1302.73Q605.47 1238.28 677.73 1238.28L677.73 1238.28L970.70 1238.28L970.70 1121.09L757.81 1121.09Q689.45 1121.09 689.45 1060.55L689.45 1060.55Q689.45 1000 757.81 1000L757.81 1000L970.70 1000L970.70 886.72L708.98 886.72Q636.72 886.72 636.72 822.27L636.72 822.27Q636.72 757.81 708.98 757.81L708.98 757.81L970.70 757.81L970.70 683.59Q970.70 607.42 1041.02 607.42L1041.02 607.42Q1113.28 607.42 1113.28 683.59L1113.28 683.59L1113.28 757.81L1367.19 757.81Q1441.41 757.81 1441.41 822.27L1441.41 822.27Q1441.41 886.72 1367.19 886.72L1367.19 886.72L1113.28 886.72L1113.28 1000L1302.73 1000Q1371.09 1000 1371.09 1060.55L1371.09 1060.55Q1371.09 1121.09 1302.73 1121.09L1302.73 1121.09L1113.28 1121.09L1113.28 1238.28L1388.67 1238.28Q1462.89 1238.28 1462.89 1302.73L1462.89 1302.73Q1462.89 1367.19 1388.67 1367.19L1388.67 1367.19L677.73 1367.19ZM2070.31 1849.61Q2099.61 1849.61 2115.23 1833.01Q2130.86 1816.41 2132.81 1787.11L2132.81 1787.11L2132.81 1664.06L1916.02 1664.06L1916.02 1849.61L2070.31 1849.61ZM1916.02 1529.30L2132.81 1529.30L2132.81 1421.88Q2132.81 1359.38 2070.31 1355.47L2070.31 1355.47L1916.02 1355.47L1916.02 1529.30ZM1654.30 1189.45Q1613.28 1189.45 1595.70 1158.20L1595.70 1158.20L1523.44 947.27Q1521.48 906.25 1537.11 887.70Q1552.73 869.14 1587.89 869.14L1587.89 869.14Q1634.77 869.14 1681.64 986.33L1681.64 986.33Q1703.13 1039.06 1714.84 1071.29Q1726.56 1103.52 1726.56 1119.14L1726.56 1119.14Q1726.56 1152.34 1708.01 1170.90Q1689.45 1189.45 1654.30 1189.45L1654.30 1189.45ZM1912.11 1166.02Q1876.95 1166.02 1855.47 1136.72L1855.47 1136.72L1785.16 921.88Q1785.16 861.33 1851.56 861.33L1851.56 861.33Q1896.48 861.33 1941.41 962.89L1941.41 962.89Q1982.42 1052.73 1982.42 1095.70L1982.42 1095.70Q1982.42 1166.02 1912.11 1166.02L1912.11 1166.02ZM1544.92 833.98Q1466.80 833.98 1466.80 767.58L1466.80 767.58Q1466.80 701.17 1595.70 695.31L1595.70 695.31Q1958.98 677.73 2156.25 638.67L2156.25 638.67L2234.38 623.05Q2304.69 623.05 2304.69 693.36L2304.69 693.36Q2304.69 748.05 2250 761.72L2250 761.72Q2191.41 777.34 2044.92 794.92L2044.92 794.92Q1902.34 810.55 1798.83 818.36L1798.83 818.36L1757.81 822.27Q1626.95 833.98 1544.92 833.98L1544.92 833.98ZM2154.30 1177.73Q2085.94 1177.73 2085.94 1117.19L2085.94 1117.19L2093.75 1080.08L2160.16 873.05Q2175.78 828.13 2230.47 828.13L2230.47 828.13Q2269.53 828.13 2289.06 846.68Q2308.59 865.23 2302.73 900.39L2302.73 900.39Q2285.16 1005.86 2222.66 1130.86L2222.66 1130.86Q2199.22 1177.73 2154.30 1177.73L2154.30 1177.73Z"/>
  </svg>