<svg xmlns="http://www.w3.org/2000/svg" viewBox="0 0 3000 3000" width="3000" height="3000">
    <path fill="#000000" d="M829.35 1628.78L829.35 1590.53L1454.10 1590.53L1454.10 1628.78L829.35 1628.78ZM1094.55 2086.50L1094.55 1419.68L1132.80 1419.68L1132.80 2085.22Q1132.80 2108.18 1126.42 2119.01Q1120.05 2129.85 1103.47 2136.22L1103.47 2136.22Q1086.90 2140.05 1055.66 2141.33Q1024.42 2142.60 975.97 2142.60L975.97 2142.60Q974.70 2134.95 969.60 2124.11Q964.50 2113.28 959.40 2104.35L959.40 2104.35Q1004.02 2105.63 1035.26 2105.63Q1066.50 2105.63 1077.97 2104.35L1077.97 2104.35Q1094.55 2104.35 1094.55 2086.50L1094.55 2086.50ZM1362.30 1014.22L1362.30 1014.22L1394.17 1046.10Q1326.60 1066.50 1232.89 1084.35Q1139.17 1102.20 1037.17 1116.22Q935.17 1130.25 839.55 1140.45L839.55 1140.45Q838.27 1134.08 834.45 1125.15Q830.62 1116.22 826.80 1109.85L826.80 1109.85Q921.15 1098.38 1021.87 1083.08Q1122.60 1067.78 1212.49 1050.56Q1302.37 1033.35 1362.30 1014.22ZM890.55 1436.25L890.55 1398L1355.92 1398L1355.92 1831.50L890.55 1831.50L890.55 1794.53L1318.95 1794.53L1318.95 1436.25L890.55 1436.25ZM877.80 1188.90L877.80 1188.90L909.67 1178.70Q935.17 1218.22 956.85 1267.95Q978.52 1317.68 987.45 1353.38L987.45 1353.38L951.75 1366.13Q942.82 1329.15 922.42 1279.42Q902.02 1229.70 877.80 1188.90ZM1044.82 1163.40L1044.82 1163.40L1079.25 1154.47Q1100.92 1196.55 1118.14 1246.91Q1135.35 1297.28 1141.72 1332.97L1141.72 1332.97L1104.75 1344.45Q1099.65 1307.47 1083.07 1257.11Q1066.50 1206.75 1044.82 1163.40ZM1349.55 1130.25L1349.55 1130.25L1385.25 1148.10Q1361.02 1196.55 1331.06 1251.38Q1301.10 1306.20 1274.32 1344.45L1274.32 1344.45L1246.27 1327.88Q1262.85 1301.10 1282.61 1266.04Q1302.37 1230.97 1320.22 1194.64Q1338.07 1158.30 1349.55 1130.25ZM323.17 1158.30L323.17 1121.33L789.82 1121.33L789.82 1158.30L323.17 1158.30ZM357.60 1301.10L357.60 1264.13L757.95 1264.13L757.95 1301.10L357.60 1301.10ZM297.67 1451.55L297.67 1414.58L810.22 1414.58L810.22 1451.55L297.67 1451.55ZM383.10 1749.90L383.10 1711.65L726.07 1711.65L726.07 1749.90L383.10 1749.90ZM383.10 1913.10L383.10 1876.13L726.07 1876.13L726.07 1913.10L383.10 1913.10ZM541.20 1441.35L541.20 996.38L579.45 996.38L579.45 1441.35L541.20 1441.35ZM712.05 2092.88L712.05 1553.55L750.30 1553.55L750.30 2092.88Q750.30 2113.28 743.29 2124.75Q736.27 2136.22 718.42 2140.05L718.42 2140.05Q701.85 2145.15 666.15 2146.43Q630.45 2147.70 566.70 2147.70L566.70 2147.70Q565.42 2141.33 560.32 2131.76Q555.22 2122.20 550.12 2113.28L550.12 2113.28Q602.40 2114.55 640.65 2114.55Q678.90 2114.55 691.65 2114.55L691.65 2114.55Q712.05 2113.28 712.05 2092.88L712.05 2092.88ZM384.37 1590.53L384.37 1553.55L727.35 1553.55L727.35 1590.53L384.37 1590.53ZM365.25 1849.35L365.25 1553.55L402.22 1553.55L402.22 1849.35Q402.22 1897.80 397.12 1951.35Q392.02 2004.90 376.09 2057.18Q360.15 2109.45 325.72 2154.08L325.72 2154.08Q324.45 2148.97 319.99 2143.88Q315.52 2138.78 310.42 2133.04Q305.32 2127.30 300.22 2124.75L300.22 2124.75Q344.85 2064.83 355.05 1990.88Q365.25 1916.93 365.25 1849.35L365.25 1849.35ZM1877.40 2013.83L1877.40 1344.45L1915.65 1344.45L1915.65 2015.10Q1915.65 2058.45 1935.41 2072.47Q1955.18 2086.50 2017.65 2086.50L2017.65 2086.50Q2032.95 2086.50 2074.39 2086.50Q2115.82 2086.50 2166.19 2086.50Q2216.55 2086.50 2261.18 2086.50Q2305.80 2086.50 2326.20 2086.50L2326.20 2086.50Q2373.38 2086.50 2396.32 2063.55Q2419.28 2040.60 2428.20 1977.49Q2437.13 1914.38 2442.23 1794.53L2442.23 1794.53Q2448.60 1798.35 2454.98 1802.81Q2461.35 1807.28 2468.36 1809.83Q2475.38 1812.38 2480.48 1814.93L2480.48 1814.93Q2475.38 1936.05 2463.26 2003.63Q2451.15 2071.20 2419.91 2097.97Q2388.68 2124.75 2323.65 2124.75L2323.65 2124.75Q2314.73 2124.75 2284.13 2124.75Q2253.53 2124.75 2212.09 2124.75Q2170.65 2124.75 2129.85 2124.75Q2089.05 2124.75 2059.09 2124.75Q2029.13 2124.75 2021.47 2124.75L2021.47 2124.75Q1966.65 2124.75 1935.41 2115.83Q1904.18 2106.90 1890.79 2082.68Q1877.40 2058.45 1877.40 2013.83L1877.40 2013.83ZM1700.17 1459.20L1700.17 1459.20L1734.60 1468.13Q1724.40 1535.70 1704.64 1621.76Q1684.88 1707.83 1659.38 1793.25Q1633.88 1878.68 1603.28 1943.70L1603.28 1943.70L1567.58 1925.85Q1599.45 1862.10 1625.59 1778.59Q1651.72 1695.08 1670.85 1610.29Q1689.97 1525.50 1700.17 1459.20ZM2502.15 1445.18L2502.15 1445.18L2536.57 1434.97Q2574.82 1511.47 2610.53 1598.81Q2646.23 1686.15 2674.28 1769.66Q2702.32 1853.18 2716.35 1919.48L2716.35 1919.48L2680.65 1930.95Q2666.63 1864.65 2638.57 1780.50Q2610.53 1696.35 2575.46 1608.38Q2540.40 1520.40 2502.15 1445.18ZM1953.90 1088.17L1953.90 1088.17L1979.40 1067.78Q2040.60 1112.40 2104.99 1165.95Q2169.38 1219.50 2225.47 1272.41Q2281.57 1325.33 2316 1366.13L2316 1366.13L2291.78 1390.35Q2256.07 1349.55 2199.97 1296.64Q2143.88 1243.72 2079.49 1188.26Q2015.10 1132.80 1953.90 1088.17Z"/>
  </svg>