<svg xmlns="http://www.w3.org/2000/svg" viewBox="0 0 3000 3000" width="3000" height="3000">
    <path fill="#000000" d="M722 2060L722 2002L2188 2002L2188 2060L722 2060ZM2162 2012L2162 2002L2224 2002Q2224 2002 2223 2015Q2222 2028 2220 2038L2220 2038Q2194 2248 2167 2345Q2140 2442 2102 2476L2102 2476Q2080 2494 2056 2499Q2032 2504 1992 2506L1992 2506Q1954 2506 1878 2504Q1802 2502 1714 2496L1714 2496Q1712 2484 1707 2468Q1702 2452 1694 2438L1694 2438Q1788 2446 1870 2449Q1952 2452 1978 2452L1978 2452Q2038 2452 2056 2436L2056 2436Q2090 2410 2114 2315Q2138 2220 2162 2012L2162 2012ZM1450 1862L1450 1862L1512 1862Q1484 2002 1426 2110Q1368 2218 1268 2298Q1168 2378 1014 2432Q860 2486 638 2518L638 2518Q636 2508 626 2491Q616 2474 608 2464L608 2464Q826 2434 975 2384Q1124 2334 1220 2260Q1316 2186 1370 2087Q1424 1988 1450 1862ZM744 866L744 808L2086 808L2086 866L744 866ZM2072 822L2072 808L2088 808L2104 804L2150 838Q2074 890 1972 937Q1870 984 1762 1021Q1654 1058 1554 1084L1554 1084Q1548 1074 1536 1062Q1524 1050 1514 1042L1514 1042Q1612 1018 1716 983Q1820 948 1914 906Q2008 864 2072 822L2072 822ZM1076 1006L1076 1006L1114 956Q1210 968 1314 985Q1418 1002 1521 1025Q1624 1048 1715 1073Q1806 1098 1874 1126L1874 1126L1838 1180Q1772 1154 1683 1128Q1594 1102 1490 1079Q1386 1056 1280 1037Q1174 1018 1076 1006ZM1456 1842L1456 1180L1516 1180L1516 1842L1456 1842ZM828 1466L828 1408L2142 1408L2142 1466L828 1466ZM828 1718L828 1658L2142 1658L2142 1718L828 1718ZM796 1862L796 1158L2176 1158L2176 1862L2118 1862L2118 1218L856 1218L856 1862L796 1862Z"/>
  </svg>