<svg xmlns="http://www.w3.org/2000/svg" viewBox="0 0 3000 3000" width="3000" height="3000">
    <path fill="#000000" d="M1950 2259L1950 2259L1948 2259Q1882 2239 1805 2212Q1728 2185 1668 2159L1668 2159Q1648 2147 1634 2144Q1620 2141 1608 2141L1608 2141Q1578 2141 1578 2165L1578 2165Q1578 2185 1611 2217Q1644 2249 1694 2285Q1744 2321 1797 2355Q1850 2389 1898 2411Q1946 2433 1972 2433L1972 2433Q2006 2433 2048 2403L2048 2403Q2064 2391 2080 2372Q2096 2353 2114 2309Q2132 2265 2152 2177Q2172 2089 2196 1943L2196 1943Q2198 1935 2205 1923Q2212 1911 2212 1891L2212 1891L2206 1871Q2198 1849 2178 1827Q2158 1805 2112 1805L2112 1805Q2104 1805 2097 1806Q2090 1807 2080 1807L2080 1807L1580 1823Q1562 1843 1572 1821Q1582 1799 1582 1781L1582 1781Q1582 1753 1552 1731L1552 1731Q1536 1715 1516 1705L1516 1705Q1518 1705 1520 1705L1520 1705Q1544 1705 1551 1688Q1558 1671 1558 1649L1558 1649L1558 1529L1990 1511L1984 1625Q1950 1617 1901 1604Q1852 1591 1798 1575L1798 1575Q1772 1569 1756 1569L1756 1569Q1722 1569 1722 1593L1722 1593Q1722 1613 1762 1644Q1802 1675 1854 1706Q1906 1737 1956 1760Q2006 1783 2028 1783L2028 1783Q2064 1783 2085 1760Q2106 1737 2117 1710Q2128 1683 2128 1663L2128 1663L2128 1613L2150 1093Q2152 1083 2156 1072Q2160 1061 2160 1045L2160 1045Q2160 1033 2153 1017Q2146 1001 2128 985L2128 985Q2112 975 2096 973Q2080 971 2064 971L2064 971L2040 971L1690 989Q1726 975 1817 925Q1908 875 2002 815L2002 815Q2014 809 2029 793Q2044 777 2044 755L2044 755Q2044 717 2010 694Q1976 671 1938 671L1938 671Q1920 671 1914 673L1914 673L998 733Q990 733 983 734Q976 735 968 735L968 735Q946 735 918 729L918 729Q910 727 905 727Q900 727 896 727L896 727Q870 727 870 747L870 747Q870 755 885 787Q900 819 928 843L928 843Q946 859 982 859L982 859Q992 859 1002 859Q1012 859 1028 857L1028 857L1762 809Q1736 825 1665 866Q1594 907 1520 941L1520 941Q1452 915 1390 891Q1328 867 1276 853L1276 853Q1266 851 1259 850Q1252 849 1246 849L1246 849Q1220 849 1207 870Q1194 891 1192 909L1192 909L1188 927Q1188 957 1226 971L1226 971Q1270 983 1312 997L1312 997Q1330 1003 1338 1005L1338 1005L1012 1019Q966 995 938 985Q910 975 894 975L894 975Q864 975 864 1003L864 1003Q864 1011 867 1019Q870 1027 872 1035L872 1035Q882 1057 884 1080Q886 1103 886 1137L886 1137L896 1607Q896 1671 888 1719L888 1719Q886 1725 886 1739L886 1739Q886 1765 910 1782Q934 1799 960 1806Q986 1813 994 1813L994 1813Q1034 1813 1034 1759L1034 1759L1030 1547L1422 1533Q1422 1541 1421 1561Q1420 1581 1416 1597L1416 1597Q1414 1605 1414 1612Q1414 1619 1414 1625L1414 1625Q1414 1651 1436 1667L1436 1667Q1442 1673 1448 1677L1448 1677Q1448 1677 1446 1677L1446 1677Q1420 1677 1420 1705L1420 1705Q1420 1715 1422 1721Q1424 1727 1424 1732Q1424 1737 1424 1741L1424 1741Q1424 1761 1413 1789Q1402 1817 1396 1831L1396 1831L892 1849Q880 1849 854 1847Q828 1845 806 1837L806 1837Q800 1835 790 1835L790 1835Q764 1835 764 1861L764 1861Q764 1865 775 1899Q786 1933 820 1961L820 1961Q834 1973 852 1976Q870 1979 892 1979L892 1979Q904 1979 918 1978Q932 1977 946 1977L946 1977L1316 1963Q1230 2087 1065 2185Q900 2283 692 2357L692 2357Q628 2381 628 2411L628 2411Q628 2439 674 2439L674 2439L736 2429Q796 2419 892 2391Q988 2363 1100 2308Q1212 2253 1319 2167Q1426 2081 1500 1959L1500 1959L2036 1939Q2026 2011 2007 2096Q1988 2181 1954 2257L1954 2257Q1954 2259 1950 2259ZM1028 1343L1424 1325L1424 1417L1028 1431L1028 1343ZM1558 1321L1998 1299L1994 1395L1558 1413L1558 1321ZM1024 1141L1422 1121L1422 1209L1026 1227L1024 1141ZM1558 1115L2006 1097L2002 1183L1558 1205L1558 1115Z"/>
  </svg>