<svg xmlns="http://www.w3.org/2000/svg" viewBox="0 0 3000 3000" width="3000" height="3000">
    <path fill="#000000" d="M456.59 1690.50Q408.03 1690.50 408.03 1636.96L408.03 1636.96L408.03 1285.84Q408.03 1199.93 500.17 1199.93L500.17 1199.93L855.03 1199.93Q754.17 1172.53 642.11 1148.88L642.11 1148.88Q602.27 1140.16 602.27 1111.52L602.27 1111.52Q602.27 1070.43 637.13 1070.43L637.13 1070.43Q647.09 1070.43 652.08 1071.68L652.08 1071.68Q735.50 1087.87 850.05 1116.50L850.05 1116.50L913.55 1133.94Q1000.71 1099.07 1045.53 1079.15L1045.53 1079.15L1072.92 1067.94Q1082.89 1064.21 1082.89 1056.74L1082.89 1056.74Q1082.89 1049.27 1069.19 1049.27L1069.19 1049.27L430.44 1049.27Q405.54 1049.27 393.71 1038.68Q381.88 1028.10 381.88 1005.69L381.88 1005.69Q381.88 962.11 430.44 962.11L430.44 962.11L1238.53 962.11Q1267.16 962.11 1283.97 975.18Q1300.78 988.26 1300.78 1008.18L1300.78 1008.18Q1300.78 1020.63 1292.07 1033.70Q1283.35 1046.78 1265.92 1055.49L1265.92 1055.49Q1156.35 1116.50 1013.16 1168.80L1013.16 1168.80Q1023.12 1175.02 1027.48 1181.25Q1031.84 1187.48 1035.57 1197.44L1035.57 1197.44L1035.57 1199.93L1249.73 1199.93Q1341.87 1199.93 1341.87 1285.84L1341.87 1285.84L1341.87 1638.21Q1341.87 1689.26 1293.31 1689.26L1293.31 1689.26Q1242.26 1689.26 1242.26 1638.21L1242.26 1638.21L1242.26 1577.20L914.79 1577.20L914.79 1600.85Q914.79 1622.02 902.34 1633.23Q889.89 1644.43 867.48 1644.43L867.48 1644.43Q843.82 1644.43 830.75 1633.23Q817.68 1622.02 817.68 1600.85L817.68 1600.85L817.68 1577.20L507.64 1577.20L507.64 1636.96Q507.64 1664.36 495.19 1677.43Q482.74 1690.50 456.59 1690.50L456.59 1690.50ZM349.51 2064.04Q320.87 2064.04 307.80 2052.21Q294.73 2040.38 294.73 2015.48L294.73 2015.48Q294.73 1990.58 307.18 1979.37Q319.63 1968.16 350.76 1966.92L350.76 1966.92Q508.89 1958.20 606.01 1917.11Q703.13 1876.03 740.48 1807.54L740.48 1807.54L369.43 1807.54Q323.36 1807.54 323.36 1765.21L323.36 1765.21Q323.36 1722.88 369.43 1722.88L369.43 1722.88L762.89 1722.88L770.36 1685.52Q777.83 1643.19 820.17 1643.19L820.17 1643.19Q847.56 1643.19 861.25 1657.51Q874.95 1671.83 872.46 1699.22L872.46 1699.22L869.97 1722.88L1285.84 1722.88Q1381.71 1722.88 1381.71 1801.32L1381.71 1801.32Q1381.71 1885.99 1361.79 1945.75Q1341.87 2005.52 1307.01 2026.68L1307.01 2026.68Q1278.37 2044.12 1235.41 2050.96Q1192.46 2057.81 1131.45 2057.81L1131.45 2057.81Q1109.03 2057.81 1049.27 2055.32L1049.27 2055.32Q1014.40 2054.08 1000.09 2042.87Q985.77 2031.67 985.77 2009.25L985.77 2009.25Q985.77 1984.35 998.84 1970.03Q1011.91 1955.71 1036.82 1956.96L1036.82 1956.96Q1107.79 1960.69 1141.41 1960.69L1141.41 1960.69Q1180.00 1960.69 1224.83 1953.22L1224.83 1953.22Q1265.92 1945.75 1273.39 1842.41L1273.39 1842.41Q1274.63 1822.49 1267.16 1815.01Q1259.69 1807.54 1239.77 1807.54L1239.77 1807.54L851.29 1807.54Q825.15 1871.04 774.10 1921.47Q723.05 1971.90 653.32 2001.78L653.32 2001.78Q507.64 2064.04 349.51 2064.04L349.51 2064.04ZM507.64 1500L817.68 1500L817.68 1432.76L507.64 1432.76L507.64 1500ZM507.64 1356.81L817.68 1356.81L817.68 1284.59L542.50 1284.59Q507.64 1284.59 507.64 1318.21L507.64 1318.21L507.64 1356.81ZM914.79 1500L1242.26 1500L1242.26 1432.76L914.79 1432.76L914.79 1500ZM914.79 1356.81L1242.26 1356.81L1242.26 1318.21Q1242.26 1284.59 1207.40 1284.59L1207.40 1284.59L914.79 1284.59L914.79 1356.81ZM2151.20 2060.30Q2102.64 2060.30 2102.64 2008.01L2102.64 2008.01Q2102.64 1973.14 2143.73 1953.22L2143.73 1953.22Q2278.20 1889.72 2349.17 1803.81L2349.17 1803.81Q2259.52 1665.60 2238.35 1369.26L2238.35 1369.26Q2171.12 1486.30 2142.48 1486.30L2142.48 1486.30Q2100.15 1486.30 2100.15 1435.25L2100.15 1435.25Q2100.15 1419.07 2133.76 1369.26L2133.76 1369.26Q2248.32 1193.70 2293.14 984.52L2293.14 984.52Q2304.35 933.47 2342.94 933.47L2342.94 933.47Q2371.58 933.47 2384.66 944.06Q2397.73 954.64 2397.73 975.81L2397.73 975.81Q2397.73 1016.89 2331.74 1176.27L2331.74 1176.27L2656.71 1176.27Q2705.27 1176.27 2705.27 1227.32L2705.27 1227.32Q2705.27 1277.12 2656.71 1277.12L2656.71 1277.12L2598.19 1277.12Q2585.74 1467.63 2562.08 1582.18L2562.08 1582.18Q2537.18 1700.46 2469.95 1806.30L2469.95 1806.30Q2542.16 1882.25 2659.20 1940.77L2659.20 1940.77Q2705.27 1964.43 2705.27 1998.05L2705.27 1998.05Q2705.27 2024.19 2684.11 2041.63L2684.11 2041.63Q2667.92 2056.57 2655.47 2056.57L2655.47 2056.57Q2621.85 2056.57 2540.92 1996.80L2540.92 1996.80Q2452.51 1932.06 2410.18 1884.74L2410.18 1884.74Q2349.17 1950.73 2268.24 2005.52L2268.24 2005.52Q2187.30 2060.30 2151.20 2060.30L2151.20 2060.30ZM1756.49 1797.58L1980.62 1752.76L1980.62 1655.64L1756.49 1655.64L1756.49 1797.58ZM2026.68 2070.26Q1980.62 2070.26 1980.62 2015.48L1980.62 2015.48L1980.62 1842.41L1659.38 1925.83Q1633.23 1933.30 1617.04 1933.30L1617.04 1933.30Q1567.24 1933.30 1567.24 1877.27L1567.24 1877.27Q1567.24 1828.71 1627.00 1820.00L1627.00 1820.00Q1635.72 1818.75 1644.43 1817.50Q1653.15 1816.26 1661.87 1815.01L1661.87 1815.01L1661.87 1277.12L1615.80 1277.12Q1567.24 1277.12 1567.24 1231.05L1567.24 1231.05Q1567.24 1184.99 1618.29 1184.99L1618.29 1184.99L1820.00 1184.99L1820.00 1072.92L1675.56 1072.92Q1622.02 1072.92 1622.02 1026.86L1622.02 1026.86Q1622.02 1003.20 1636.34 991.37Q1650.66 979.54 1675.56 979.54L1675.56 979.54L2067.77 979.54Q2093.92 979.54 2108.24 991.37Q2122.56 1003.20 2122.56 1026.86L2122.56 1026.86Q2122.56 1072.92 2067.77 1072.92L2067.77 1072.92L1919.60 1072.92L1919.60 1184.99L2131.27 1184.99Q2182.32 1184.99 2182.32 1231.05L2182.32 1231.05Q2182.32 1277.12 2131.27 1277.12L2131.27 1277.12L2075.24 1277.12L2075.24 2015.48Q2075.24 2070.26 2026.68 2070.26L2026.68 2070.26ZM1756.49 1572.22L1980.62 1572.22L1980.62 1465.14L1756.49 1465.14L1756.49 1572.22ZM1756.49 1381.71L1980.62 1381.71L1980.62 1277.12L1756.49 1277.12L1756.49 1381.71ZM2407.69 1720.39Q2492.36 1578.44 2499.83 1277.12L2499.83 1277.12L2316.80 1277.12Q2328.00 1580.93 2407.69 1720.39L2407.69 1720.39Z"/>
  </svg>