<svg xmlns="http://www.w3.org/2000/svg" viewBox="0 0 3000 3000" width="3000" height="3000">
    <path fill="#000000" d="M1692 638L1692 638Q1698 630 1777 643Q1856 656 1894 672L1894 672Q1916 682 1916 726Q1916 770 1892 796L1892 796Q1882 810 1872 813Q1862 816 1828 810L1828 810Q1794 806 1779 811Q1764 816 1722 838L1722 838Q1664 872 1642 880L1642 880Q1622 890 1621 895Q1620 900 1638 922L1638 922Q1650 934 1666 940Q1682 946 1742 950L1742 950Q1826 958 1848 950L1848 950Q1870 942 1921 943Q1972 944 1996 952L1996 952Q2020 962 2038 994L2038 994Q2052 1016 2053 1032Q2054 1048 2046 1096L2046 1096Q2038 1164 2038 1352L2038 1352Q2038 1490 2033 1549Q2028 1608 2010 1630L2010 1630Q2000 1644 2000 1656L2000 1656Q2000 1676 1985 1703Q1970 1730 1954 1746L1954 1746Q1914 1778 1972 1806L1972 1806Q2006 1824 2015 1836Q2024 1848 2024 1878L2024 1878Q2024 1940 1984 1962L1984 1962Q1976 1968 1976 1987Q1976 2006 1964 2021Q1952 2036 1950 2053Q1948 2070 1942 2078Q1936 2086 1926 2115Q1916 2144 1868 2216Q1820 2288 1820 2300Q1820 2312 1788 2346L1788 2346Q1728 2402 1648 2416L1648 2416Q1622 2422 1612 2403Q1602 2384 1599 2366Q1596 2348 1587 2331Q1578 2314 1572 2314L1572 2314Q1564 2314 1538 2287Q1512 2260 1512 2252L1512 2252Q1512 2238 1484 2213Q1456 2188 1456 2176L1456 2176Q1456 2160 1482 2168L1482 2168Q1496 2174 1534 2186L1534 2186Q1604 2214 1640 2191Q1676 2168 1718 2072L1718 2072Q1766 1964 1778 1870L1778 1870Q1782 1850 1777 1844Q1772 1838 1748 1828L1748 1828Q1706 1812 1647 1816Q1588 1820 1588 1840L1588 1840Q1588 1848 1553 1906Q1518 1964 1510 1976L1510 1976Q1492 2022 1384 2143Q1276 2264 1236 2282L1236 2282Q1204 2300 1183 2318Q1162 2336 1109 2373Q1056 2410 1042 2424L1042 2424Q1024 2440 989 2458Q954 2476 948 2472L948 2472Q944 2470 946 2465Q948 2460 955 2452Q962 2444 972 2432L972 2432Q1002 2400 1006 2391Q1010 2382 1088 2298L1088 2298Q1238 2136 1238 2120L1238 2120Q1238 2114 1254 2102L1254 2102Q1268 2086 1298 2033Q1328 1980 1348 1936L1348 1936Q1352 1924 1366 1898L1366 1898Q1396 1854 1376 1858L1376 1858Q1360 1858 1324 1872L1324 1872Q1280 1890 1246 1882Q1212 1874 1202 1858L1202 1858Q1194 1846 1195 1840Q1196 1834 1210 1818L1210 1818Q1228 1800 1283 1777Q1338 1754 1392 1742L1392 1742Q1424 1734 1434 1728Q1444 1722 1452 1704L1452 1704Q1464 1676 1464 1664Q1464 1652 1476 1630L1476 1630Q1510 1564 1518 1482L1518 1482Q1522 1428 1515 1422Q1508 1416 1470 1434L1470 1434Q1438 1450 1423 1451Q1408 1452 1382 1439Q1356 1426 1345 1410Q1334 1394 1346 1382L1346 1382Q1360 1362 1484 1318L1484 1318Q1510 1308 1516 1302Q1522 1296 1522 1278L1522 1278Q1522 1258 1519 1256Q1516 1254 1496 1258L1496 1258Q1470 1264 1440 1272L1440 1272Q1376 1292 1354 1272L1354 1272Q1346 1262 1346 1236L1346 1236Q1346 1216 1353 1208Q1360 1200 1398 1186L1398 1186Q1448 1162 1494 1146L1494 1146Q1526 1138 1531 1131Q1536 1124 1542 1096L1542 1096Q1544 1062 1531 1046Q1518 1030 1480 1030L1480 1030Q1420 1030 1374 1059Q1328 1088 1328 1124L1328 1124Q1328 1150 1320 1190Q1312 1230 1308 1294L1308 1294Q1298 1488 1287 1550Q1276 1612 1253 1630Q1230 1648 1217 1642Q1204 1636 1186 1600L1186 1600Q1166 1554 1169 1543Q1172 1532 1163 1507Q1154 1482 1163 1436Q1172 1390 1179 1245Q1186 1100 1194 1090Q1202 1080 1196 1073Q1190 1066 1198 1044L1198 1044Q1204 1030 1212 1027Q1220 1024 1252 1024L1252 1024Q1294 1024 1334 1005Q1374 986 1396 978L1396 978Q1436 968 1414 944L1414 944Q1402 928 1402 916Q1402 904 1393 897Q1384 890 1392 866Q1400 842 1416 826L1416 826Q1438 806 1528 848L1528 848Q1552 860 1560 860Q1568 860 1578 850L1578 850Q1594 834 1594 827Q1594 820 1619 789Q1644 758 1644 740L1644 740Q1644 728 1634 727Q1624 726 1572 730L1572 730Q1502 734 1488 734L1488 734Q1462 732 1336 758L1336 758Q1292 768 1270 782L1270 782Q1232 808 1202 780L1202 780Q1182 760 1185 747Q1188 734 1216 720L1216 720Q1292 680 1402 668L1402 668Q1478 660 1490 657Q1502 654 1595 648Q1688 642 1692 638ZM1848 1056L1848 1056Q1840 1048 1792 1036Q1744 1024 1709 1024Q1674 1024 1668 1043Q1662 1062 1648 1066L1648 1066Q1624 1074 1656 1098L1656 1098Q1676 1112 1696 1112L1696 1112Q1720 1112 1739 1131Q1758 1150 1758 1174L1758 1174Q1760 1200 1748 1212Q1736 1224 1706 1224L1706 1224Q1682 1224 1669 1235Q1656 1246 1662 1262L1662 1262Q1666 1272 1722 1272L1722 1272Q1764 1272 1774 1277Q1784 1282 1792 1296L1792 1296Q1802 1318 1804 1340Q1806 1362 1796 1368Q1786 1374 1736 1370L1736 1370Q1698 1370 1689 1374Q1680 1378 1672 1394L1672 1394Q1658 1418 1658 1471Q1658 1524 1651 1544Q1644 1564 1656 1604L1656 1604Q1668 1634 1667 1642Q1666 1650 1652 1668L1652 1668Q1620 1714 1644 1722L1644 1722Q1654 1724 1707 1728Q1760 1732 1800 1738L1800 1738Q1850 1744 1848 1730L1848 1730Q1848 1726 1844 1720L1844 1720Q1824 1696 1806 1656L1806 1656Q1796 1640 1766 1616L1766 1616Q1702 1570 1708 1546Q1714 1522 1790 1516L1790 1516Q1834 1512 1841 1509Q1848 1506 1856 1488L1856 1488Q1860 1462 1870 1310L1870 1310Q1884 1084 1848 1056Z"/>
  </svg>