<svg xmlns="http://www.w3.org/2000/svg" viewBox="0 0 3000 3000" width="3000" height="3000">
    <path fill="#000000" d="M366.52 1857L366.52 1820.03L1301.10 1820.03L1301.10 1857L366.52 1857ZM1284.52 1826.40L1284.52 1820.03L1324.05 1820.03Q1324.05 1820.03 1323.41 1828.31Q1322.77 1836.60 1321.50 1842.98L1321.50 1842.98Q1304.92 1976.85 1287.71 2038.69Q1270.50 2100.53 1246.27 2122.20L1246.27 2122.20Q1232.25 2133.68 1216.95 2136.86Q1201.65 2140.05 1176.15 2141.33L1176.15 2141.33Q1151.92 2141.33 1103.47 2140.05Q1055.02 2138.78 998.92 2134.95L998.92 2134.95Q997.65 2127.30 994.46 2117.10Q991.27 2106.90 986.17 2097.97L986.17 2097.97Q1046.10 2103.08 1098.38 2104.99Q1150.65 2106.90 1167.22 2106.90L1167.22 2106.90Q1205.47 2106.90 1216.95 2096.70L1216.95 2096.70Q1238.63 2080.13 1253.92 2019.56Q1269.22 1959 1284.52 1826.40L1284.52 1826.40ZM830.62 1730.78L830.62 1730.78L870.15 1730.78Q852.30 1820.03 815.32 1888.88Q778.35 1957.73 714.60 2008.73Q650.85 2059.72 552.67 2094.15Q454.50 2128.58 312.97 2148.97L312.97 2148.97Q311.70 2142.60 305.32 2131.76Q298.95 2120.93 293.85 2114.55L293.85 2114.55Q432.82 2095.43 527.81 2063.55Q622.80 2031.68 684.00 1984.50Q745.20 1937.33 779.62 1874.21Q814.05 1811.10 830.62 1730.78ZM380.55 1095.83L380.55 1058.85L1236.07 1058.85L1236.07 1095.83L380.55 1095.83ZM1227.15 1067.78L1227.15 1058.85L1237.35 1058.85L1247.55 1056.30L1276.87 1077.97Q1228.42 1111.13 1163.40 1141.09Q1098.38 1171.05 1029.52 1194.64Q960.67 1218.22 896.92 1234.80L896.92 1234.80Q893.10 1228.42 885.45 1220.78Q877.80 1213.13 871.42 1208.03L871.42 1208.03Q933.90 1192.72 1000.20 1170.41Q1066.50 1148.10 1126.42 1121.33Q1186.35 1094.55 1227.15 1067.78L1227.15 1067.78ZM592.20 1185.08L592.20 1185.08L616.42 1153.20Q677.62 1160.85 743.92 1171.69Q810.22 1182.53 875.89 1197.19Q941.55 1211.85 999.56 1227.79Q1057.57 1243.72 1100.92 1261.58L1100.92 1261.58L1077.97 1296Q1035.90 1279.42 979.16 1262.85Q922.42 1246.28 856.12 1231.61Q789.82 1216.95 722.25 1204.84Q654.67 1192.72 592.20 1185.08ZM834.45 1718.03L834.45 1296L872.70 1296L872.70 1718.03L834.45 1718.03ZM434.10 1478.33L434.10 1441.35L1271.77 1441.35L1271.77 1478.33L434.10 1478.33ZM434.10 1638.97L434.10 1600.72L1271.77 1600.72L1271.77 1638.97L434.10 1638.97ZM413.70 1730.78L413.70 1281.97L1293.45 1281.97L1293.45 1730.78L1256.47 1730.78L1256.47 1320.22L451.95 1320.22L451.95 1730.78L413.70 1730.78ZM1581.60 1325.33L1581.60 1287.08L2194.88 1287.08L2194.88 1325.33L1581.60 1325.33ZM1720.58 1529.33L1720.58 1492.35L2041.88 1492.35L2041.88 1529.33L1720.58 1529.33ZM1715.47 1738.43L1715.47 1701.45L2046.97 1701.45L2046.97 1738.43L1715.47 1738.43ZM2276.48 1312.58L2276.48 1274.33L2716.35 1274.33L2716.35 1312.58L2276.48 1312.58ZM2031.68 2147.70L2031.68 1310.03L2068.65 1310.03L2068.65 2147.70L2031.68 2147.70ZM1695.08 1960.28L1695.08 1313.85L1732.05 1313.85L1732.05 1960.28L1695.08 1960.28ZM1567.58 2002.35L1558.65 1962.83Q1635.15 1952.63 1735.88 1937.33Q1836.60 1922.03 1950.08 1904.18Q2063.55 1886.33 2177.03 1868.48L2177.03 1868.48L2179.57 1901.63Q2069.93 1919.48 1959.64 1937.96Q1849.35 1956.45 1749.26 1973.03Q1649.17 1989.60 1567.58 2002.35L1567.58 2002.35ZM2332.57 997.65L2332.57 997.65L2372.10 1005.30Q2352.98 1100.92 2323.65 1211.21Q2294.32 1321.50 2254.16 1426.69Q2214 1531.88 2159.18 1616.03L2159.18 1616.03Q2155.35 1613.47 2149.61 1610.29Q2143.88 1607.10 2137.50 1603.28Q2131.13 1599.45 2126.03 1598.18L2126.03 1598.18Q2180.85 1515.30 2221.01 1412.03Q2261.18 1308.75 2288.59 1200.38Q2316 1092 2332.57 997.65ZM2253.53 1348.28L2282.85 1320.22Q2294.32 1436.25 2319.82 1552.91Q2345.32 1669.58 2393.78 1777.31Q2442.23 1885.05 2521.91 1973.03Q2601.60 2061 2722.73 2118.38L2722.73 2118.38Q2718.90 2122.20 2713.80 2127.30Q2708.70 2132.40 2704.24 2137.50Q2699.78 2142.60 2695.95 2147.70L2695.95 2147.70Q2574.82 2086.50 2495.14 1997.25Q2415.45 1908 2367 1800.26Q2318.55 1692.53 2292.41 1577.14Q2266.28 1461.75 2253.53 1348.28L2253.53 1348.28ZM2555.70 1285.80L2555.70 1285.80L2593.95 1290.90Q2568.45 1500 2517.45 1660.65Q2466.45 1821.30 2379.11 1940.51Q2291.78 2059.72 2155.35 2146.43L2155.35 2146.43Q2152.80 2142.60 2147.06 2137.50Q2141.32 2132.40 2134.95 2127.30Q2128.57 2122.20 2123.47 2119.65L2123.47 2119.65Q2261.18 2039.33 2347.88 1922.03Q2434.57 1804.73 2483.03 1646.63Q2531.48 1488.53 2555.70 1285.80ZM1649.17 1114.95L1649.17 1076.70L2032.95 1076.70L2032.95 1114.95L1649.17 1114.95ZM2018.93 1084.35L2018.93 1076.70L2024.03 1076.70L2031.68 1074.15L2057.18 1079.25Q2048.25 1132.80 2034.86 1192.72Q2021.47 1252.65 2007.45 1303.65L2007.45 1303.65L1971.75 1297.28Q1980.68 1264.13 1989.60 1224.60Q1998.53 1185.08 2006.81 1147.46Q2015.10 1109.85 2018.93 1084.35L2018.93 1084.35Z"/>
  </svg>