<svg xmlns="http://www.w3.org/2000/svg" viewBox="0 0 3000 3000" width="3000" height="3000">
    <path fill="#000000" d="M863.28 1798.83Q787.11 1798.83 787.11 1714.84L787.11 1714.84L787.11 1164.06Q787.11 1029.30 931.64 1029.30L931.64 1029.30L1488.28 1029.30Q1330.08 986.33 1154.30 949.22L1154.30 949.22Q1091.80 935.55 1091.80 890.63L1091.80 890.63Q1091.80 826.17 1146.48 826.17L1146.48 826.17Q1162.11 826.17 1169.92 828.13L1169.92 828.13Q1300.78 853.52 1480.47 898.44L1480.47 898.44L1580.08 925.78Q1716.80 871.09 1787.11 839.84L1787.11 839.84L1830.08 822.27Q1845.70 816.41 1845.70 804.69L1845.70 804.69Q1845.70 792.97 1824.22 792.97L1824.22 792.97L822.27 792.97Q783.20 792.97 764.65 776.37Q746.09 759.77 746.09 724.61L746.09 724.61Q746.09 656.25 822.27 656.25L822.27 656.25L2089.84 656.25Q2134.77 656.25 2161.13 676.76Q2187.50 697.27 2187.50 728.52L2187.50 728.52Q2187.50 748.05 2173.83 768.55Q2160.16 789.06 2132.81 802.73L2132.81 802.73Q1960.94 898.44 1736.33 980.47L1736.33 980.47Q1751.95 990.23 1758.79 1000Q1765.63 1009.77 1771.48 1025.39L1771.48 1025.39L1771.48 1029.30L2107.42 1029.30Q2251.95 1029.30 2251.95 1164.06L2251.95 1164.06L2251.95 1716.80Q2251.95 1796.88 2175.78 1796.88L2175.78 1796.88Q2095.70 1796.88 2095.70 1716.80L2095.70 1716.80L2095.70 1621.09L1582.03 1621.09L1582.03 1658.20Q1582.03 1691.41 1562.50 1708.98Q1542.97 1726.56 1507.81 1726.56L1507.81 1726.56Q1470.70 1726.56 1450.20 1708.98Q1429.69 1691.41 1429.69 1658.20L1429.69 1658.20L1429.69 1621.09L943.36 1621.09L943.36 1714.84Q943.36 1757.81 923.83 1778.32Q904.30 1798.83 863.28 1798.83L863.28 1798.83ZM695.31 2384.77Q650.39 2384.77 629.88 2366.21Q609.38 2347.66 609.38 2308.59L609.38 2308.59Q609.38 2269.53 628.91 2251.95Q648.44 2234.38 697.27 2232.42L697.27 2232.42Q945.31 2218.75 1097.66 2154.30Q1250 2089.84 1308.59 1982.42L1308.59 1982.42L726.56 1982.42Q654.30 1982.42 654.30 1916.02L654.30 1916.02Q654.30 1849.61 726.56 1849.61L726.56 1849.61L1343.75 1849.61L1355.47 1791.02Q1367.19 1724.61 1433.59 1724.61L1433.59 1724.61Q1476.56 1724.61 1498.05 1747.07Q1519.53 1769.53 1515.63 1812.50L1515.63 1812.50L1511.72 1849.61L2164.06 1849.61Q2314.45 1849.61 2314.45 1972.66L2314.45 1972.66Q2314.45 2105.47 2283.20 2199.22Q2251.95 2292.97 2197.27 2326.17L2197.27 2326.17Q2152.34 2353.52 2084.96 2364.26Q2017.58 2375 1921.88 2375L1921.88 2375Q1886.72 2375 1792.97 2371.09L1792.97 2371.09Q1738.28 2369.14 1715.82 2351.56Q1693.36 2333.98 1693.36 2298.83L1693.36 2298.83Q1693.36 2259.77 1713.87 2237.30Q1734.38 2214.84 1773.44 2216.80L1773.44 2216.80Q1884.77 2222.66 1937.50 2222.66L1937.50 2222.66Q1998.05 2222.66 2068.36 2210.94L2068.36 2210.94Q2132.81 2199.22 2144.53 2037.11L2144.53 2037.11Q2146.48 2005.86 2134.77 1994.14Q2123.05 1982.42 2091.80 1982.42L2091.80 1982.42L1482.42 1982.42Q1441.41 2082.03 1361.33 2161.13Q1281.25 2240.23 1171.88 2287.11L1171.88 2287.11Q943.36 2384.77 695.31 2384.77L695.31 2384.77ZM943.36 1500L1429.69 1500L1429.69 1394.53L943.36 1394.53L943.36 1500ZM943.36 1275.39L1429.69 1275.39L1429.69 1162.11L998.05 1162.11Q943.36 1162.11 943.36 1214.84L943.36 1214.84L943.36 1275.39ZM1582.03 1500L2095.70 1500L2095.70 1394.53L1582.03 1394.53L1582.03 1500ZM1582.03 1275.39L2095.70 1275.39L2095.70 1214.84Q2095.70 1162.11 2041.02 1162.11L2041.02 1162.11L1582.03 1162.11L1582.03 1275.39Z"/>
  </svg>