<svg xmlns="http://www.w3.org/2000/svg" viewBox="0 0 3000 3000" width="3000" height="3000">
    <path fill="#000000" d="M1190.17 1270.50L1192.72 1187.63L891.82 1199.10L891.82 1284.53L1190.17 1270.50ZM821.70 1432.42L821.70 1345.72L553.95 1357.20L553.95 1441.35L821.70 1432.42ZM1185.07 1418.40L1187.63 1329.15L891.82 1343.18L891.82 1429.88L1185.07 1418.40ZM820.42 1287.08L820.42 1202.93L551.40 1215.68L552.67 1298.55L820.42 1287.08ZM894.37 1667.03L1232.25 1655.55L1252.65 1654.28Q1293.45 1654.28 1304.92 1691.25L1304.92 1691.25L1308.75 1702.73Q1308.75 1711.65 1304.29 1719.30Q1299.82 1726.95 1285.16 1815.56Q1270.50 1904.18 1250.74 1954.54Q1230.97 2004.90 1206.75 2022.11Q1182.52 2039.33 1165.31 2039.33Q1148.10 2039.33 1108.57 2021.48Q1069.05 2003.63 994.46 1948.80Q919.87 1893.98 919.87 1876.13L919.87 1876.13Q919.87 1868.48 933.90 1868.48Q947.92 1868.48 991.27 1889.51Q1034.63 1910.55 1146.82 1943.70L1146.82 1943.70L1149.38 1943.70Q1157.02 1943.70 1159.57 1937.33L1159.57 1937.33Q1194 1859.55 1213.13 1724.40L1213.13 1724.40L858.67 1737.15Q770.70 1879.95 604.95 1960.28L604.95 1960.28Q485.10 2018.93 374.17 2036.78L374.17 2036.78L335.92 2043.15Q314.25 2043.15 314.25 2032.95L314.25 2032.95Q314.25 2018.93 349.95 2006.18L349.95 2006.18Q483.82 1957.73 589.65 1895.25Q695.47 1832.78 760.50 1739.70L760.50 1739.70L474.90 1749.90Q422.62 1749.90 407.32 1704L407.32 1704Q400.95 1683.60 400.95 1682.33L400.95 1682.33Q400.95 1673.40 407.96 1673.40Q414.97 1673.40 427.72 1677.86Q440.47 1682.33 474.90 1682.33L474.90 1682.33L801.30 1670.85Q821.70 1626.23 821.70 1614.75L821.70 1614.75L821.70 1599.45L819.15 1582.88Q819.15 1572.68 827.44 1572.68Q835.72 1572.68 854.85 1581.60L854.85 1581.60Q907.12 1605.83 907.12 1631.33L907.12 1631.33Q907.12 1641.53 901.39 1653.64Q895.65 1665.75 894.37 1667.03L894.37 1667.03ZM1182.52 1492.35L1182.52 1477.05L891.82 1488.53L891.82 1547.18Q891.82 1575.23 875.25 1575.23L875.25 1575.23Q853.57 1575.23 834.45 1559.93Q815.32 1544.63 815.32 1535.70L815.32 1535.70L815.32 1524.22L821.70 1491.08L555.22 1500L557.77 1617.30Q557.77 1644.08 539.92 1644.08L539.92 1644.08Q518.25 1644.08 498.49 1630.69Q478.72 1617.30 478.72 1607.10Q478.72 1596.90 481.91 1579.05Q485.10 1561.20 485.10 1520.40L485.10 1520.40L478.72 1220.78Q478.72 1172.33 471.71 1155.75Q464.70 1139.17 464.70 1135.35L464.70 1135.35Q464.70 1125.15 479.36 1125.15Q494.02 1125.15 550.12 1153.20L550.12 1153.20L801.30 1143Q741.37 1121.33 690.37 1107.30L690.37 1107.30Q671.25 1100.92 671.25 1088.17L671.25 1088.17Q676.35 1063.95 682.09 1054.39Q687.82 1044.83 704.40 1044.83Q720.97 1044.83 875.25 1104.75L875.25 1104.75Q959.40 1065.22 1058.85 1001.48L1058.85 1001.48L560.32 1034.63Q551.40 1035.90 545.02 1035.90L545.02 1035.90L525.90 1035.90Q497.85 1035.90 477.45 995.10L477.45 995.10Q468.52 975.98 468.52 971.51Q468.52 967.05 474.90 967.05L474.90 967.05L482.55 967.05L523.35 972.15L1127.70 932.63Q1131.52 931.35 1147.46 931.35Q1163.40 931.35 1182.52 944.10Q1201.65 956.85 1201.65 975.98Q1201.65 995.10 1178.70 1009.13L1178.70 1009.13Q1043.55 1095.83 936.45 1136.63L936.45 1136.63L1206.75 1122.60L1222.05 1122.60Q1260.30 1122.60 1271.77 1148.10L1271.77 1148.10Q1275.60 1155.75 1275.60 1163.40Q1275.60 1171.05 1273.05 1177.43Q1270.50 1183.80 1269.22 1191.45L1269.22 1191.45L1253.92 1591.80Q1252.65 1618.58 1233.52 1618.58L1233.52 1618.58Q1211.85 1617.30 1191.45 1603.28Q1171.05 1589.25 1171.69 1579.05Q1172.32 1568.85 1176.15 1551Q1179.97 1533.15 1182.52 1492.35L1182.52 1492.35ZM2678.10 1250.10L2588.85 1255.20Q2564.63 1367.40 2531.48 1465.58Q2498.33 1563.75 2449.88 1655.55L2449.88 1655.55Q2505.98 1742.25 2576.74 1818.75Q2647.50 1895.25 2736.75 1967.93L2736.75 1967.93Q2750.78 1979.40 2750.78 1987.05L2750.78 1987.05Q2750.78 1994.70 2735.48 2004.90Q2720.18 2015.10 2704.24 2022.75Q2688.30 2030.40 2683.20 2030.40L2683.20 2030.40Q2671.73 2030.40 2638.57 2000.44Q2605.43 1970.48 2563.35 1923.94Q2521.28 1877.40 2479.84 1825.13Q2438.40 1772.85 2407.80 1726.95L2407.80 1726.95Q2365.73 1793.25 2314.73 1848.71Q2263.73 1904.18 2215.28 1945.61Q2166.82 1987.05 2129.85 2010Q2092.88 2032.95 2078.85 2032.95L2078.85 2032.95Q2068.65 2032.95 2068.65 2025.30L2068.65 2025.30Q2068.65 2012.55 2092.88 1992.15L2092.88 1992.15Q2161.72 1930.95 2234.40 1843.61Q2307.07 1756.28 2363.18 1655.55L2363.18 1655.55Q2326.20 1590.53 2296.24 1522.31Q2266.28 1454.10 2242.05 1382.70L2242.05 1382.70Q2233.13 1399.28 2215.28 1426.69Q2197.43 1454.10 2177.66 1481.51Q2157.90 1508.93 2140.69 1527.41Q2123.47 1545.90 2113.28 1545.90L2113.28 1545.90Q2108.18 1545.90 2108.18 1538.25L2108.18 1538.25Q2108.18 1524.22 2120.93 1498.72L2120.93 1498.72Q2165.55 1410.75 2201.89 1321.50Q2238.22 1232.25 2263.73 1153.84Q2289.23 1075.42 2302.61 1018.69Q2316 961.95 2316 940.27L2316 940.27Q2316 935.17 2316 930.07Q2316 924.98 2314.73 919.88L2314.73 919.88Q2314.73 907.13 2327.48 907.13L2327.48 907.13Q2341.50 907.13 2361.26 917.32Q2381.03 927.52 2396.32 942.19Q2411.63 956.85 2411.63 969.60L2411.63 969.60Q2411.63 974.70 2402.70 1001.48Q2393.78 1028.25 2381.03 1065.22Q2368.28 1102.20 2353.61 1139.81Q2338.95 1177.43 2327.48 1204.20L2327.48 1204.20L2562.07 1188.90Q2591.40 1187.63 2620.73 1176.15L2620.73 1176.15Q2628.38 1173.60 2633.48 1173.60L2633.48 1173.60Q2647.50 1173.60 2664.07 1185.08Q2680.65 1196.55 2692.13 1210.58Q2703.60 1224.60 2703.60 1232.25L2703.60 1232.25Q2703.60 1241.18 2695.95 1245Q2688.30 1248.83 2678.10 1250.10L2678.10 1250.10ZM1983.22 1354.65L1984.50 1243.72L1803.45 1255.20L1802.17 1366.13L1983.22 1354.65ZM2500.88 1260.30L2298.15 1273.05Q2295.60 1278.15 2293.05 1283.25Q2290.50 1288.35 2287.95 1294.72L2287.95 1294.72Q2312.18 1373.78 2340.23 1443.90Q2368.28 1514.03 2402.70 1577.78L2402.70 1577.78Q2437.13 1502.55 2460.07 1424.14Q2483.03 1345.72 2500.88 1260.30L2500.88 1260.30ZM1981.95 1530.60L1983.22 1415.85L1802.17 1427.33L1800.90 1542.08L1981.95 1530.60ZM1979.40 1721.85L1980.68 1590.53L1800.90 1604.55L1799.63 1767.75Q1891.43 1746.08 1979.40 1721.85L1979.40 1721.85ZM1673.40 1200.38L1946.25 1182.53L1988.33 1039.72L1743.53 1056.30Q1697.63 1056.30 1678.50 1015.50L1678.50 1015.50Q1670.85 1001.48 1670.85 993.83Q1670.85 986.17 1676.59 986.17Q1682.33 986.17 1693.16 989.36Q1704 992.55 1729.50 992.55L1729.50 992.55L1746.08 992.55L2018.93 972.15L2024.03 972.15Q2041.88 972.15 2057.81 984.26Q2073.75 996.38 2073.75 1005.94Q2073.75 1015.50 2069.29 1024.42Q2064.82 1033.35 2061 1043.55L2061 1043.55L2017.65 1178.70L2067.38 1174.88Q2085.22 1173.60 2099.89 1171.69Q2114.55 1169.78 2126.03 1164.67L2126.03 1164.67Q2133.68 1160.85 2141.32 1160.85L2141.32 1160.85Q2157.90 1160.85 2171.93 1172.96Q2185.95 1185.08 2195.51 1198.46Q2205.07 1211.85 2205.07 1218.22L2205.07 1218.22Q2205.07 1229.70 2177.03 1232.25L2177.03 1232.25L2058.45 1239.90L2057.18 1700.18Q2058.45 1700.18 2073.75 1695.08Q2089.05 1689.98 2110.09 1684.24Q2131.13 1678.50 2148.34 1674.04Q2165.55 1669.58 2170.65 1669.58L2170.65 1669.58Q2184.68 1669.58 2184.68 1677.23L2184.68 1677.23Q2184.68 1684.88 2175.11 1692.53Q2165.55 1700.18 2138.14 1712.29Q2110.72 1724.40 2057.18 1747.35L2057.18 1747.35L2057.18 2039.33Q2057.18 2059.72 2035.50 2059.72L2035.50 2059.72Q2032.95 2059.72 2015.74 2054.63Q1998.53 2049.53 1982.59 2037.41Q1966.65 2025.30 1966.65 2003.63L1966.65 2003.63Q1966.65 1997.25 1967.93 1993.43L1967.93 1993.43Q1971.75 1975.58 1974.94 1955.18Q1978.13 1934.78 1978.13 1910.55L1978.13 1910.55L1979.40 1777.95Q1920.75 1800.90 1861.46 1821.94Q1802.17 1842.98 1753.09 1858.28Q1704 1873.58 1673.40 1882.50Q1642.80 1891.43 1640.25 1891.43L1640.25 1891.43Q1636.42 1891.43 1621.13 1886.96Q1605.83 1882.50 1588.61 1865.29Q1571.40 1848.08 1557.38 1809.83L1557.38 1809.83Q1556.10 1807.28 1556.10 1803.45L1556.10 1803.45Q1556.10 1795.80 1563.75 1795.80L1563.75 1795.80Q1568.85 1795.80 1571.40 1797.08L1571.40 1797.08Q1593.08 1803.45 1617.30 1803.45L1617.30 1803.45Q1630.05 1803.45 1661.29 1798.35Q1692.53 1793.25 1725.67 1784.33L1725.67 1784.33L1728.22 1260.30L1700.17 1261.58Q1689.97 1261.58 1681.05 1262.21Q1672.13 1262.85 1665.75 1262.85L1665.75 1262.85Q1644.08 1262.85 1636.42 1255.20L1636.42 1255.20Q1626.22 1245 1616.03 1230.34Q1605.83 1215.68 1602 1202.93L1602 1202.93Q1602 1200.38 1601.36 1199.74Q1600.72 1199.10 1600.72 1197.83L1600.72 1197.83Q1600.72 1188.90 1608.38 1188.90L1608.38 1188.90Q1612.20 1188.90 1614.75 1190.18L1614.75 1190.18Q1641.53 1200.38 1667.03 1200.38L1667.03 1200.38L1673.40 1200.38Z"/>
  </svg>