<svg xmlns="http://www.w3.org/2000/svg" viewBox="0 0 3000 3000" width="3000" height="3000">
    <path fill="#000000" d="M1046.78 1584.67Q1013.16 1584.67 996.97 1570.35Q980.79 1556.03 980.79 1526.15L980.79 1526.15Q980.79 1475.10 1055.49 1475.10L1055.49 1475.10L1094.09 1475.10Q1188.72 1475.10 1209.89 1402.88L1209.89 1402.88Q1237.28 1308.25 1237.28 1127.71L1237.28 1127.71Q1237.28 1087.87 1191.21 1087.87L1191.21 1087.87L426.71 1087.87Q363.21 1087.87 363.21 1038.06L363.21 1038.06Q363.21 988.26 426.71 988.26L426.71 988.26L1233.54 988.26Q1350.59 988.26 1350.59 1082.89L1350.59 1082.89L1341.87 1226.07Q1329.42 1438.99 1287.08 1507.47L1287.08 1507.47Q1239.77 1584.67 1046.78 1584.67L1046.78 1584.67ZM363.21 1993.07Q307.18 1993.07 307.18 1947.00L307.18 1947.00Q307.18 1934.55 318.38 1912.13L318.38 1912.13Q371.92 1805.05 395.58 1725.37L395.58 1725.37Q408.03 1685.52 446.63 1685.52L446.63 1685.52Q472.78 1685.52 484.61 1696.73Q496.44 1707.93 496.44 1735.33L496.44 1735.33Q496.44 1776.42 430.44 1919.60L430.44 1919.60Q398.07 1993.07 363.21 1993.07L363.21 1993.07ZM884.91 2037.89Q681.96 2037.89 639.62 2020.46L639.62 2020.46Q601.03 2005.52 597.29 1954.47L597.29 1954.47L597.29 1694.24Q597.29 1633.23 647.09 1633.23L647.09 1633.23Q698.14 1633.23 698.14 1694.24L698.14 1694.24L698.14 1903.42Q698.14 1927.08 713.09 1932.06L713.09 1932.06Q749.19 1942.02 833.86 1942.02L833.86 1942.02Q1018.14 1942.02 1033.08 1919.60L1033.08 1919.60Q1049.27 1895.95 1054.25 1846.14L1054.25 1846.14Q1060.47 1793.85 1107.79 1793.85L1107.79 1793.85Q1160.08 1793.85 1160.08 1844.90L1160.08 1844.90Q1160.08 1951.98 1122.73 1993.07L1122.73 1993.07Q1081.64 2037.89 884.91 2037.89L884.91 2037.89ZM917.29 1803.81Q886.16 1803.81 855.03 1749.02L855.03 1749.02L822.66 1690.50Q807.71 1664.36 807.71 1654.39L807.71 1654.39Q807.71 1617.04 857.52 1617.04L857.52 1617.04Q886.16 1617.04 928.49 1673.07L928.49 1673.07Q970.83 1727.86 970.83 1755.25L970.83 1755.25Q970.83 1803.81 917.29 1803.81L917.29 1803.81ZM376.90 1610.82Q324.61 1610.82 324.61 1551.05L324.61 1551.05Q324.61 1513.70 374.41 1502.49L374.41 1502.49Q502.66 1473.85 579.24 1434.01Q655.81 1394.17 691.92 1334.40L691.92 1334.40Q731.76 1268.41 749.19 1213.62Q766.63 1158.84 775.34 1057.98L775.34 1057.98L882.42 1057.98Q871.22 1178.76 853.16 1243.51Q835.11 1308.25 791.53 1382.96L791.53 1382.96Q762.89 1432.76 711.84 1471.36Q660.79 1509.96 582.35 1546.07L582.35 1546.07Q441.65 1610.82 376.90 1610.82L376.90 1610.82ZM523.83 1278.37Q485.23 1263.43 485.23 1239.77L485.23 1239.77Q485.23 1189.97 531.30 1189.97L531.30 1189.97Q553.71 1189.97 594.80 1209.89L594.80 1209.89L759.16 1268.41L703.13 1354.32L523.83 1278.37ZM1361.79 1974.39Q1329.42 1974.39 1307.01 1932.06L1307.01 1932.06Q1262.18 1847.39 1214.87 1782.64L1214.87 1782.64Q1186.23 1744.04 1186.23 1729.10L1186.23 1729.10Q1186.23 1706.69 1197.44 1695.48Q1208.64 1684.28 1233.54 1684.28L1233.54 1684.28Q1268.41 1684.28 1343.12 1788.87L1343.12 1788.87Q1416.58 1890.97 1416.58 1924.58L1416.58 1924.58Q1416.58 1949.49 1403.50 1961.94Q1390.43 1974.39 1361.79 1974.39L1361.79 1974.39ZM929.74 1471.36Q908.57 1471.36 851.29 1435.25L851.29 1435.25L764.14 1385.45L813.94 1295.80L879.93 1328.17Q932.23 1353.08 957.75 1373.00Q983.28 1392.92 983.28 1410.35L983.28 1410.35Q983.28 1471.36 929.74 1471.36L929.74 1471.36ZM2382.79 2056.57Q2355.40 2056.57 2342.94 2044.12Q2330.49 2031.67 2330.49 2005.52L2330.49 2005.52Q2330.49 1955.71 2382.79 1955.71L2382.79 1955.71L2446.29 1955.71Q2471.19 1955.71 2485.51 1942.02Q2499.83 1928.32 2501.07 1900.93L2501.07 1900.93L2501.07 1330.66L2275.71 1330.66Q2222.17 1330.66 2222.17 1283.35L2222.17 1283.35Q2222.17 1236.04 2275.71 1236.04L2275.71 1236.04L2501.07 1236.04L2501.07 993.24Q2501.07 938.45 2548.39 938.45L2548.39 938.45Q2595.70 938.45 2595.70 993.24L2595.70 993.24L2595.70 1236.04L2652.98 1236.04Q2702.78 1236.04 2702.78 1283.35L2702.78 1283.35Q2702.78 1330.66 2652.98 1330.66L2652.98 1330.66L2595.70 1330.66L2595.70 1914.62Q2595.70 1988.09 2562.08 2021.70L2562.08 2021.70Q2525.98 2057.81 2455.00 2056.57L2455.00 2056.57L2382.79 2056.57ZM1812.52 2027.93Q1768.95 2027.93 1768.95 1983.11L1768.95 1983.11L1768.95 1319.46L1857.35 1319.46L1857.35 1983.11Q1857.35 2027.93 1812.52 2027.93L1812.52 2027.93ZM1649.41 2060.30Q1604.59 2060.30 1604.59 2015.48L1604.59 2015.48L1604.59 1359.30Q1604.59 1302.03 1630.74 1275.26Q1656.88 1248.49 1715.41 1249.73L1715.41 1249.73L2087.70 1249.73Q2148.71 1244.75 2177.34 1272.77Q2205.98 1300.78 2201.00 1359.30L2201.00 1359.30L2201.00 1949.49Q2201.00 2005.52 2176.72 2032.91Q2152.44 2060.30 2101.39 2060.30L2101.39 2060.30L2070.26 2060.30Q2049.10 2060.30 2037.27 2047.85Q2025.44 2035.40 2025.44 2012.99L2025.44 2012.99Q2025.44 1968.16 2077.73 1968.16L2077.73 1968.16Q2096.41 1968.16 2103.88 1958.83Q2111.35 1949.49 2111.35 1929.57L2111.35 1929.57L2111.35 1380.47Q2111.35 1341.87 2071.51 1341.87L2071.51 1341.87L1731.59 1341.87Q1694.24 1341.87 1694.24 1379.22L1694.24 1379.22L1694.24 2015.48Q1694.24 2060.30 1649.41 2060.30L1649.41 2060.30ZM1979.37 2027.93Q1935.79 2027.93 1935.79 1983.11L1935.79 1983.11L1935.79 1319.46L2022.95 1319.46L2022.95 1983.11Q2022.95 2027.93 1979.37 2027.93L1979.37 2027.93ZM2381.54 1749.02Q2362.87 1749.02 2350.42 1732.84Q2337.96 1716.65 2328.00 1683.03L2328.00 1683.03L2280.69 1543.58Q2276.95 1531.13 2271.35 1516.81Q2265.75 1502.49 2265.75 1498.75L2265.75 1498.75Q2265.75 1458.91 2309.33 1458.91L2309.33 1458.91Q2345.43 1458.91 2385.28 1573.46L2385.28 1573.46L2398.97 1613.31Q2427.61 1695.48 2427.61 1704.20L2427.61 1704.20Q2427.61 1749.02 2381.54 1749.02L2381.54 1749.02ZM1781.40 1267.16L1847.39 1084.13L1628.25 1084.13Q1568.48 1084.13 1568.48 1035.57L1568.48 1035.57Q1568.48 987.01 1628.25 987.01L1628.25 987.01L2197.27 987.01Q2257.03 987.01 2257.03 1035.57L2257.03 1035.57Q2257.03 1084.13 2197.27 1084.13L2197.27 1084.13L1960.69 1084.13L1883.50 1267.16L1781.40 1267.16Z"/>
  </svg>