<svg xmlns="http://www.w3.org/2000/svg" viewBox="0 0 3000 3000" width="3000" height="3000">
    <path fill="#000000" d="M1789.06 1632.81Q1736.33 1632.81 1710.94 1610.35Q1685.55 1587.89 1685.55 1541.02L1685.55 1541.02Q1685.55 1460.94 1802.73 1460.94L1802.73 1460.94L1863.28 1460.94Q2011.72 1460.94 2044.92 1347.66L2044.92 1347.66Q2087.89 1199.22 2087.89 916.02L2087.89 916.02Q2087.89 853.52 2015.63 853.52L2015.63 853.52L816.41 853.52Q716.80 853.52 716.80 775.39L716.80 775.39Q716.80 697.27 816.41 697.27L816.41 697.27L2082.03 697.27Q2265.63 697.27 2265.63 845.70L2265.63 845.70L2251.95 1070.31Q2232.42 1404.30 2166.02 1511.72L2166.02 1511.72Q2091.80 1632.81 1789.06 1632.81L1789.06 1632.81ZM716.80 2273.44Q628.91 2273.44 628.91 2201.17L628.91 2201.17Q628.91 2181.64 646.48 2146.48L646.48 2146.48Q730.47 1978.52 767.58 1853.52L767.58 1853.52Q787.11 1791.02 847.66 1791.02L847.66 1791.02Q888.67 1791.02 907.23 1808.59Q925.78 1826.17 925.78 1869.14L925.78 1869.14Q925.78 1933.59 822.27 2158.20L822.27 2158.20Q771.48 2273.44 716.80 2273.44L716.80 2273.44ZM1535.16 2343.75Q1216.80 2343.75 1150.39 2316.41L1150.39 2316.41Q1089.84 2292.97 1083.98 2212.89L1083.98 2212.89L1083.98 1804.69Q1083.98 1708.98 1162.11 1708.98L1162.11 1708.98Q1242.19 1708.98 1242.19 1804.69L1242.19 1804.69L1242.19 2132.81Q1242.19 2169.92 1265.63 2177.73L1265.63 2177.73Q1322.27 2193.36 1455.08 2193.36L1455.08 2193.36Q1744.14 2193.36 1767.58 2158.20L1767.58 2158.20Q1792.97 2121.09 1800.78 2042.97L1800.78 2042.97Q1810.55 1960.94 1884.77 1960.94L1884.77 1960.94Q1966.80 1960.94 1966.80 2041.02L1966.80 2041.02Q1966.80 2208.98 1908.20 2273.44L1908.20 2273.44Q1843.75 2343.75 1535.16 2343.75L1535.16 2343.75ZM1585.94 1976.56Q1537.11 1976.56 1488.28 1890.63L1488.28 1890.63L1437.50 1798.83Q1414.06 1757.81 1414.06 1742.19L1414.06 1742.19Q1414.06 1683.59 1492.19 1683.59L1492.19 1683.59Q1537.11 1683.59 1603.52 1771.48L1603.52 1771.48Q1669.92 1857.42 1669.92 1900.39L1669.92 1900.39Q1669.92 1976.56 1585.94 1976.56L1585.94 1976.56ZM738.28 1673.83Q656.25 1673.83 656.25 1580.08L656.25 1580.08Q656.25 1521.48 734.38 1503.91L734.38 1503.91Q935.55 1458.98 1055.66 1396.48Q1175.78 1333.98 1232.42 1240.23L1232.42 1240.23Q1294.92 1136.72 1322.27 1050.78Q1349.61 964.84 1363.28 806.64L1363.28 806.64L1531.25 806.64Q1513.67 996.09 1485.35 1097.66Q1457.03 1199.22 1388.67 1316.41L1388.67 1316.41Q1343.75 1394.53 1263.67 1455.08Q1183.59 1515.63 1060.55 1572.27L1060.55 1572.27Q839.84 1673.83 738.28 1673.83L738.28 1673.83ZM968.75 1152.34Q908.20 1128.91 908.20 1091.80L908.20 1091.80Q908.20 1013.67 980.47 1013.67L980.47 1013.67Q1015.63 1013.67 1080.08 1044.92L1080.08 1044.92L1337.89 1136.72L1250 1271.48L968.75 1152.34ZM2283.20 2244.14Q2232.42 2244.14 2197.27 2177.73L2197.27 2177.73Q2126.95 2044.92 2052.73 1943.36L2052.73 1943.36Q2007.81 1882.81 2007.81 1859.38L2007.81 1859.38Q2007.81 1824.22 2025.39 1806.64Q2042.97 1789.06 2082.03 1789.06L2082.03 1789.06Q2136.72 1789.06 2253.91 1953.13L2253.91 1953.13Q2369.14 2113.28 2369.14 2166.02L2369.14 2166.02Q2369.14 2205.08 2348.63 2224.61Q2328.13 2244.14 2283.20 2244.14L2283.20 2244.14ZM1605.47 1455.08Q1572.27 1455.08 1482.42 1398.44L1482.42 1398.44L1345.70 1320.31L1423.83 1179.69L1527.34 1230.47Q1609.38 1269.53 1649.41 1300.78Q1689.45 1332.03 1689.45 1359.38L1689.45 1359.38Q1689.45 1455.08 1605.47 1455.08L1605.47 1455.08Z"/>
  </svg>