<svg xmlns="http://www.w3.org/2000/svg" viewBox="0 0 3000 3000" width="3000" height="3000">
    <path fill="#000000" d="M1030 1016L1030 1016L1080 1038Q1038 1136 970 1243Q902 1350 804 1422L804 1422L758 1384Q852 1320 921 1215Q990 1110 1030 1016ZM1052 2350L1052 1866L1110 1866L1110 2350Q1110 2392 1141 2407Q1172 2422 1278 2422L1278 2422Q1298 2422 1351 2422Q1404 2422 1474 2422Q1544 2422 1615 2422Q1686 2422 1744 2422Q1802 2422 1830 2422L1830 2422Q1888 2422 1916 2405Q1944 2388 1956 2335Q1968 2282 1972 2174L1972 2174Q1982 2180 1992 2185Q2002 2190 2013 2194Q2024 2198 2032 2200L2032 2200Q2026 2312 2010 2374Q1994 2436 1953 2459Q1912 2482 1830 2482L1830 2482Q1818 2482 1763 2482Q1708 2482 1633 2482Q1558 2482 1483 2482Q1408 2482 1353 2482Q1298 2482 1286 2482L1286 2482Q1196 2482 1145 2472Q1094 2462 1073 2434Q1052 2406 1052 2350L1052 2350ZM1284 1768L1284 1768L1334 1740Q1396 1800 1461 1872Q1526 1944 1583 2013Q1640 2082 1676 2134L1676 2134L1626 2168Q1590 2116 1533 2046Q1476 1976 1411 1903Q1346 1830 1284 1768ZM2034 1866L2034 1866L2090 1850Q2138 1934 2187 2030Q2236 2126 2278 2216Q2320 2306 2344 2372L2344 2372L2286 2394Q2262 2328 2220 2237Q2178 2146 2130 2048Q2082 1950 2034 1866ZM856 1912L856 1912L904 1928Q882 2002 849 2092Q816 2182 776 2268Q736 2354 688 2418L688 2418L638 2394Q688 2330 729 2245Q770 2160 802 2072Q834 1984 856 1912ZM730 886L730 828L2178 828L2178 886L730 886ZM2156 840L2156 828L2216 828Q2216 828 2216 835Q2216 842 2216 851Q2216 860 2214 866L2214 866Q2198 1136 2182 1299Q2166 1462 2145 1544Q2124 1626 2094 1658L2094 1658Q2070 1682 2044 1691Q2018 1700 1972 1702L1972 1702Q1928 1702 1841 1700Q1754 1698 1658 1690L1658 1690Q1656 1676 1652 1660Q1648 1644 1640 1630L1640 1630Q1746 1640 1837 1642Q1928 1644 1958 1644L1958 1644Q2022 1646 2042 1624L2042 1624Q2070 1598 2090 1517Q2110 1436 2126 1272Q2142 1108 2156 840L2156 840ZM1538 846L1538 846L1602 846Q1572 988 1517 1130Q1462 1272 1365 1401Q1268 1530 1112 1633Q956 1736 722 1800L722 1800Q718 1790 708 1775Q698 1760 688 1752L688 1752Q872 1704 1006 1630Q1140 1556 1232 1464Q1324 1372 1384 1269Q1444 1166 1480 1058Q1516 950 1538 846Z"/>
  </svg>