<svg xmlns="http://www.w3.org/2000/svg" viewBox="0 0 3000 3000" width="3000" height="3000">
    <path fill="#000000" d="M1692 1824L1692 1824Q1692 1804 1796 1904L1796 1904Q1952 2058 1968 2058L1968 2058Q1974 2058 1993 2074Q2012 2090 2022 2090Q2032 2090 2032 2099Q2032 2108 2045 2108Q2058 2108 2092 2149Q2126 2190 2134 2208L2134 2208Q2140 2242 2092 2310L2092 2310Q2078 2328 2029 2360Q1980 2392 1940 2410L1940 2410Q1902 2428 1798 2426L1798 2426Q1642 2424 1528 2384L1528 2384Q1508 2378 1469 2355Q1430 2332 1420 2320L1420 2320Q1416 2316 1382 2290L1382 2290Q1322 2246 1263 2178Q1204 2110 1180 2058L1180 2058Q1146 1984 1141 1958Q1136 1932 1150 1924L1150 1924Q1158 1918 1162 1928Q1166 1938 1178 1938Q1190 1938 1190 1946Q1190 1954 1198 1954Q1206 1954 1278 2008L1278 2008Q1430 2124 1514 2159Q1598 2194 1728 2194L1728 2194Q1880 2194 1880 2154L1880 2154Q1880 2134 1872 2130L1872 2130Q1856 2120 1826 2040L1826 2040Q1816 2016 1774 1962L1774 1962Q1752 1932 1752 1927Q1752 1922 1722 1876Q1692 1830 1692 1824ZM922 1894L922 1894Q932 1894 937 1912Q942 1930 951 1930Q960 1930 1021 1865Q1082 1800 1086 1800Q1090 1800 1076 1820Q1062 1840 1062 1865Q1062 1890 1028 1942L1028 1942Q990 1998 979 2028Q968 2058 962 2106L962 2106Q958 2164 947 2180Q936 2196 936 2218L936 2218Q936 2240 916 2263Q896 2286 878 2288L878 2288Q862 2290 828 2284L828 2284Q802 2278 795 2271Q788 2264 782 2232L782 2232Q742 2058 786 2058L786 2058Q798 2058 800 2046L800 2046Q808 2026 860 1960Q912 1894 922 1894ZM1772 1656L1772 1656Q1802 1646 1802 1656L1802 1656Q1802 1664 1794 1664Q1786 1664 1780 1680L1780 1680Q1772 1702 1696 1784L1696 1784Q1678 1804 1646 1870Q1614 1936 1598 1952L1598 1952Q1584 1968 1547 1975Q1510 1982 1488 1976L1488 1976Q1468 1970 1405 1908Q1342 1846 1342 1834L1342 1834Q1342 1824 1331 1811Q1320 1798 1318 1772L1318 1772Q1314 1756 1319 1749Q1324 1742 1350 1736L1350 1736Q1420 1712 1510 1758L1510 1758Q1558 1784 1574 1784L1574 1784Q1620 1784 1702 1710L1702 1710Q1754 1660 1772 1656ZM1948 1620L1948 1620Q2020 1612 2088 1638L2088 1638Q2128 1654 2170 1687Q2212 1720 2212 1738L2212 1738Q2212 1748 2223 1757Q2234 1766 2238 1844L2238 1844Q2238 1900 2235 1911Q2232 1922 2214 1932L2214 1932Q2192 1946 2152 1950L2152 1950Q2124 1954 2115 1951Q2106 1948 2090 1932L2090 1932Q2070 1904 2050 1864Q2030 1824 2000 1784L2000 1784Q1950 1722 1932 1684L1932 1684Q1922 1664 1913 1664Q1904 1664 1908 1646L1908 1646Q1908 1634 1916 1630Q1924 1626 1948 1620ZM1062 1126L1062 1126Q1088 1096 1088 1087Q1088 1078 1097 1078Q1106 1078 1129 1026Q1152 974 1154 974L1154 974Q1160 974 1187 990Q1214 1006 1218 1016L1218 1016Q1226 1028 1246 1010L1246 1010Q1264 990 1264 998L1264 998Q1266 1004 1242 1056L1242 1056Q1218 1108 1196 1170L1196 1170Q1156 1280 1136 1298L1136 1298Q1126 1306 1094 1302L1094 1302Q1066 1296 1056 1276Q1046 1256 1038 1200L1038 1200Q1036 1170 1040 1157Q1044 1144 1062 1126ZM1726 680L1726 680Q1732 676 1767 683Q1802 690 1826 698L1826 698Q1866 720 1891 783Q1916 846 1896 892L1896 892Q1886 920 1880 984L1880 984Q1862 1152 1842 1228L1842 1228Q1828 1272 1828 1296Q1828 1320 1800 1406Q1772 1492 1740 1564L1740 1564Q1722 1610 1682 1645Q1642 1680 1612 1680L1612 1680Q1596 1680 1568 1684Q1540 1688 1533 1679Q1526 1670 1515 1670Q1504 1670 1486 1635Q1468 1600 1460 1587Q1452 1574 1448 1561Q1444 1548 1420 1534Q1396 1520 1396 1512Q1396 1504 1382 1504Q1368 1504 1368 1493Q1368 1482 1355 1469Q1342 1456 1338 1428L1338 1428Q1326 1372 1396 1410L1396 1410Q1432 1430 1491 1428Q1550 1426 1566 1418L1566 1418Q1584 1410 1616 1336Q1648 1262 1660 1204L1660 1204Q1710 980 1712 834L1712 834Q1712 812 1709 806Q1706 800 1682 796L1682 796Q1658 788 1594 793Q1530 798 1526 806Q1522 814 1536 852L1536 852Q1558 922 1530 972L1530 972Q1512 1012 1488 1086L1488 1086Q1468 1140 1458 1162Q1448 1184 1434 1214L1434 1214Q1402 1294 1358 1358L1358 1358Q1334 1400 1261 1475Q1188 1550 1160 1564L1160 1564Q1138 1574 1084 1618L1084 1618Q1058 1642 1020 1665Q982 1688 954 1699Q926 1710 926 1702L926 1702Q926 1664 1012 1578L1012 1578Q1062 1524 1126 1443Q1190 1362 1190 1350L1190 1350Q1190 1342 1198 1340L1198 1340Q1206 1336 1245 1271Q1284 1206 1298 1174L1298 1174Q1326 1108 1351 1024Q1376 940 1388 881Q1400 822 1388 822L1388 822Q1366 822 1314 842Q1262 862 1254 874L1254 874Q1246 888 1211 878Q1176 868 1170 850L1170 850Q1166 838 1191 810Q1216 782 1212 776L1212 776Q1204 770 1232 760L1232 760Q1262 752 1312 740L1312 740L1444 718Q1512 704 1617 694Q1722 684 1726 680Z"/>
  </svg>