<svg xmlns="http://www.w3.org/2000/svg" viewBox="0 0 3000 3000" width="3000" height="3000">
    <path fill="#000000" d="M1980 784L1680 802Q1556 1216 1228 1428L1228 1428Q1066 1532 844 1604L844 1604Q806 1616 781 1616Q756 1616 756 1602L756 1602Q756 1580 820 1550L820 1550Q972 1476 1114 1382L1114 1382Q1432 1172 1542 808L1542 808L994 840Q980 842 966 842L966 842L942 842Q894 842 868 817Q842 792 832 765Q822 738 822 729Q822 720 830 720Q838 720 857 726Q876 732 930 732L930 732L956 732L2006 670L2030 670Q2070 670 2101 691Q2132 712 2132 735Q2132 758 2122 774Q2112 790 2110 806L2110 806Q2084 1092 2014 1380L2014 1380Q1982 1522 1930 1592L1930 1592Q1896 1638 1840 1638L1840 1638Q1812 1638 1776 1620Q1740 1602 1546 1414L1546 1414Q1504 1372 1504 1358Q1504 1344 1523 1344Q1542 1344 1568 1360L1568 1360Q1796 1490 1820 1490Q1844 1490 1846 1478L1846 1478Q1956 1148 1980 784L1980 784ZM924 1176L924 1176Q1062 1072 1168 926L1168 926Q1184 906 1199 906Q1214 906 1240 927Q1266 948 1266 961Q1266 974 1241 1010Q1216 1046 1177 1093Q1138 1140 1095 1186Q1052 1232 1016 1262Q980 1292 961 1292Q942 1292 921 1263Q900 1234 900 1214Q900 1194 924 1176ZM1590 1882L1590 1882Q1500 1774 1364 1652L1364 1652Q1338 1632 1338 1616Q1338 1600 1358 1576Q1378 1552 1394 1552Q1410 1552 1444 1576Q1478 1600 1522 1638Q1566 1676 1608 1716Q1650 1756 1677 1788Q1704 1820 1704 1837Q1704 1854 1679 1881Q1654 1908 1634 1908Q1614 1908 1590 1882ZM2382 2000L2382 2000Q2348 2050 2316 2050L2316 2050Q2302 2050 2276 2020L2276 2020Q2148 1864 1996 1732L1996 1732Q1970 1708 1970 1691Q1970 1674 1988 1654L1988 1654Q2016 1626 2029 1626Q2042 1626 2082 1657Q2122 1688 2175 1734Q2228 1780 2279 1829Q2330 1878 2363 1917Q2396 1956 2396 1968Q2396 1980 2382 2000ZM768 2202L768 2202Q750 2236 728 2236L728 2236Q722 2236 700 2228L700 2228Q640 2202 640 2168L640 2168Q640 2154 654 2130L654 2130Q772 1942 832 1720L832 1720Q840 1686 872 1686Q904 1686 927 1699Q950 1712 950 1736Q950 1760 898 1912Q846 2064 768 2202ZM1912 2172L1912 2172L1860 1996Q1832 1900 1832 1875Q1832 1850 1852 1850L1852 1850Q1876 1850 1904 1908L1904 1908Q1960 2020 2056 2158L2056 2158Q2086 2202 2086 2230L2086 2230Q2086 2282 2003 2302Q1920 2322 1776 2322L1776 2322Q1454 2322 1292 2216L1292 2216Q1104 2096 1050 1764L1050 1764Q1048 1758 1048 1752L1048 1752L1048 1742Q1048 1732 1060 1714Q1072 1696 1118 1696Q1164 1696 1170 1740L1170 1740Q1196 1888 1249 1989Q1302 2090 1416 2141Q1530 2192 1736 2192L1736 2192Q1816 2192 1896 2186L1896 2186Q1912 2182 1912 2172Z"/>
  </svg>