<svg xmlns="http://www.w3.org/2000/svg" viewBox="0 0 3000 3000" width="3000" height="3000">
    <path fill="#000000" d="M1168.50 1043.55L977.25 1055.03Q898.20 1318.95 689.10 1454.10L689.10 1454.10Q585.82 1520.40 444.30 1566.30L444.30 1566.30Q420.07 1573.95 404.14 1573.95Q388.20 1573.95 388.20 1565.03L388.20 1565.03Q388.20 1551 429.00 1531.88L429.00 1531.88Q525.90 1484.70 616.42 1424.78L616.42 1424.78Q819.15 1290.90 889.27 1058.85L889.27 1058.85L539.92 1079.25Q531.00 1080.53 522.07 1080.53L522.07 1080.53L506.77 1080.53Q476.17 1080.53 459.60 1064.59Q443.02 1048.65 436.65 1031.44Q430.27 1014.23 430.27 1008.49Q430.27 1002.75 435.37 1002.75Q440.47 1002.75 452.59 1006.58Q464.70 1010.40 499.12 1010.40L499.12 1010.40L515.70 1010.40L1185.07 970.88L1200.38 970.88Q1225.88 970.88 1245.64 984.26Q1265.40 997.65 1265.40 1012.31Q1265.40 1026.97 1259.02 1037.17Q1252.65 1047.38 1251.37 1057.58L1251.37 1057.58Q1234.80 1239.90 1190.17 1423.50L1190.17 1423.50Q1169.77 1514.03 1136.63 1558.65L1136.63 1558.65Q1114.95 1587.98 1079.25 1587.98L1079.25 1587.98Q1061.40 1587.98 1038.45 1576.50Q1015.50 1565.03 891.82 1445.18L891.82 1445.18Q865.05 1418.40 865.05 1409.47Q865.05 1400.55 877.16 1400.55Q889.27 1400.55 905.85 1410.75L905.85 1410.75Q1051.20 1493.63 1066.50 1493.63Q1081.80 1493.63 1083.07 1485.97L1083.07 1485.97Q1153.20 1275.60 1168.50 1043.55L1168.50 1043.55ZM495.30 1293.45L495.30 1293.45Q583.27 1227.15 650.85 1134.08L650.85 1134.08Q661.05 1121.33 670.61 1121.33Q680.17 1121.33 696.75 1134.71Q713.32 1148.10 713.32 1156.39Q713.32 1164.67 697.39 1187.63Q681.45 1210.58 656.59 1240.54Q631.72 1270.50 604.31 1299.83Q576.90 1329.15 553.95 1348.28Q531.00 1367.40 518.89 1367.40Q506.77 1367.40 493.39 1348.91Q480.00 1330.43 480.00 1317.68Q480.00 1304.93 495.30 1293.45ZM919.87 1743.53L919.87 1743.53Q862.50 1674.68 775.80 1596.90L775.80 1596.90Q759.22 1584.15 759.22 1573.95Q759.22 1563.75 771.97 1548.45Q784.72 1533.15 794.92 1533.15Q805.12 1533.15 826.80 1548.45Q848.47 1563.75 876.52 1587.98Q904.57 1612.20 931.35 1637.70Q958.12 1663.20 975.34 1683.60Q992.55 1704 992.55 1714.84Q992.55 1725.68 976.61 1742.89Q960.67 1760.10 947.92 1760.10Q935.17 1760.10 919.87 1743.53ZM1424.77 1818.75L1424.77 1818.75Q1403.10 1850.63 1382.70 1850.63L1382.70 1850.63Q1373.77 1850.63 1357.20 1831.50L1357.20 1831.50Q1275.60 1732.05 1178.70 1647.90L1178.70 1647.90Q1162.13 1632.60 1162.13 1621.76Q1162.13 1610.93 1173.60 1598.18L1173.60 1598.18Q1191.45 1580.33 1199.74 1580.33Q1208.02 1580.33 1233.52 1600.09Q1259.02 1619.85 1292.81 1649.18Q1326.60 1678.50 1359.11 1709.74Q1391.63 1740.98 1412.66 1765.84Q1433.70 1790.70 1433.70 1798.35Q1433.70 1806 1424.77 1818.75ZM395.85 1947.53L395.85 1947.53Q384.37 1969.20 370.35 1969.20L370.35 1969.20Q366.52 1969.20 352.50 1964.10L352.50 1964.10Q314.25 1947.53 314.25 1925.85L314.25 1925.85Q314.25 1916.93 323.17 1901.63L323.17 1901.63Q398.40 1781.78 436.65 1640.25L436.65 1640.25Q441.75 1618.58 462.15 1618.58Q482.55 1618.58 497.21 1626.86Q511.87 1635.15 511.87 1650.45Q511.87 1665.75 478.72 1762.65Q445.57 1859.55 395.85 1947.53ZM1125.15 1928.40L1125.15 1928.40L1092 1816.20Q1074.15 1755 1074.15 1739.06Q1074.15 1723.13 1086.90 1723.13L1086.90 1723.13Q1102.20 1723.13 1120.05 1760.10L1120.05 1760.10Q1155.75 1831.50 1216.95 1919.48L1216.95 1919.48Q1236.07 1947.53 1236.07 1965.38L1236.07 1965.38Q1236.07 1998.53 1183.16 2011.28Q1130.25 2024.03 1038.45 2024.03L1038.45 2024.03Q833.17 2024.03 729.90 1956.45L729.90 1956.45Q610.05 1879.95 575.62 1668.30L575.62 1668.30Q574.35 1664.48 574.35 1660.65L574.35 1660.65L574.35 1654.28Q574.35 1647.90 582.00 1636.43Q589.65 1624.95 618.97 1624.95Q648.30 1624.95 652.12 1653L652.12 1653Q668.70 1747.35 702.49 1811.74Q736.27 1876.13 808.95 1908.64Q881.62 1941.15 1012.95 1941.15L1012.95 1941.15Q1063.95 1941.15 1114.95 1937.33L1114.95 1937.33Q1125.15 1934.78 1125.15 1928.40ZM2574.82 1304.93L2578.65 1950.08L2581.20 1994.70Q2581.20 2030.40 2558.25 2045.06Q2535.30 2059.72 2521.91 2059.72Q2508.53 2059.72 2464.54 2036.14Q2420.55 2012.55 2351.06 1956.45Q2281.57 1900.35 2281.57 1878.68L2281.57 1878.68Q2281.57 1871.03 2293.05 1871.03Q2304.53 1871.03 2338.95 1887.60L2338.95 1887.60Q2426.93 1933.50 2498.33 1956.45L2498.33 1956.45L2494.50 1310.03L2266.28 1322.78L2253.53 1322.78Q2212.72 1322.78 2199.97 1310.03L2199.97 1310.03Q2165.55 1275.60 2165.55 1250.10L2165.55 1250.10Q2165.55 1243.72 2170.01 1243.72Q2174.47 1243.72 2188.50 1248.19Q2202.53 1252.65 2229.30 1252.65L2229.30 1252.65L2239.50 1252.65L2493.23 1238.63L2491.95 997.65Q2491.95 964.50 2479.20 948.56Q2466.45 932.63 2466.45 925.61Q2466.45 918.60 2481.75 918.60Q2497.05 918.60 2527.65 928.80Q2558.25 939 2565.26 946.65Q2572.28 954.30 2572.28 968.33L2572.28 968.33L2573.55 1234.80L2624.55 1232.25Q2657.70 1229.70 2669.18 1224.60Q2680.65 1219.50 2692.13 1219.50Q2703.60 1219.50 2719.54 1232.25Q2735.48 1245 2746.31 1259.66Q2757.15 1274.33 2757.15 1281.97L2757.15 1281.97Q2757.15 1294.72 2726.55 1297.28L2726.55 1297.28L2574.82 1304.93ZM1619.85 1951.35L1619.85 1951.35Q1628.78 1888.88 1628.78 1864.65L1628.78 1864.65L1624.95 1406.93Q1624.95 1367.40 1611.56 1342.54Q1598.17 1317.68 1598.17 1311.30Q1598.17 1304.93 1610.92 1304.93Q1623.67 1304.93 1689.97 1335.53L1689.97 1335.53L1760.10 1331.70Q1804.72 1252.65 1821.30 1204.84Q1837.88 1157.03 1837.88 1146.19Q1837.88 1135.35 1835.33 1125.15L1835.33 1125.15L1705.28 1132.80Q1696.35 1134.08 1688.70 1134.08L1688.70 1134.08L1674.67 1134.08Q1632.60 1134.08 1623.67 1114.95L1623.67 1114.95Q1598.17 1086.90 1598.17 1067.78L1598.17 1067.78Q1598.17 1061.40 1607.10 1061.40L1607.10 1061.40L1612.20 1061.40Q1637.70 1067.78 1667.03 1067.78L1667.03 1067.78L1675.95 1067.78L2076.30 1042.28Q2105.63 1038.45 2114.55 1035.90Q2123.47 1033.35 2135.59 1033.35Q2147.70 1033.35 2168.10 1053.75Q2188.50 1074.15 2188.50 1089.45L2188.50 1089.45Q2188.50 1102.20 2161.72 1104.75L2161.72 1104.75L1896.53 1121.33Q1923.30 1139.17 1923.30 1149.38L1923.30 1149.38Q1923.30 1151.92 1900.35 1205.47Q1877.40 1259.03 1832.78 1326.60L1832.78 1326.60L2114.55 1308.75L2126.03 1308.75Q2156.63 1308.75 2173.20 1325.96Q2189.78 1343.18 2189.78 1355.29Q2189.78 1367.40 2184.68 1376.96Q2179.57 1386.53 2179.57 1395.45L2179.57 1395.45L2175.75 1881.23L2175.75 1915.65Q2175.75 1962.83 2153.44 1978.13Q2131.13 1993.43 2117.10 1993.43L2117.10 1993.43Q2091.60 1993.43 2051.44 1941.15Q2011.28 1888.88 2011.28 1878.04Q2011.28 1867.20 2018.29 1867.20Q2025.30 1867.20 2039.96 1874.85Q2054.63 1882.50 2071.20 1892.06Q2087.78 1901.63 2104.35 1909.28L2104.35 1909.28L2109.45 1376.33L2002.35 1382.70L1999.80 1916.93Q1999.80 1943.70 1981.95 1943.70L1981.95 1943.70Q1979.40 1943.70 1964.10 1938.60L1964.10 1938.60Q1922.03 1925.85 1922.03 1900.35L1922.03 1900.35Q1932.22 1839.15 1932.22 1813.65L1932.22 1813.65L1936.05 1385.25L1848.08 1390.35L1854.45 1922.03Q1854.45 1946.25 1834.05 1946.25L1834.05 1946.25Q1808.55 1946.25 1791.97 1932.23Q1775.40 1918.20 1775.40 1908Q1775.40 1897.80 1779.22 1881.23Q1783.05 1864.65 1783.05 1820.03L1783.05 1820.03L1781.78 1394.18L1692.53 1399.28L1700.17 1979.40Q1700.17 1999.80 1681.05 1999.80L1681.05 1999.80Q1672.13 1999.80 1653 1990.88L1653 1990.88Q1619.85 1975.58 1619.85 1951.35ZM2314.73 1409.47L2314.73 1409.47Q2381.03 1489.80 2417.36 1554.19Q2453.70 1618.58 2453.70 1630.69Q2453.70 1642.80 2441.59 1653.64Q2429.48 1664.48 2416.09 1669.58Q2402.70 1674.68 2398.88 1674.68L2398.88 1674.68Q2382.30 1674.68 2374.65 1655.55L2374.65 1655.55Q2321.10 1542.08 2253.53 1447.72L2253.53 1447.72Q2248.43 1441.35 2248.43 1434.34Q2248.43 1427.33 2263.09 1413.30Q2277.75 1399.28 2292.41 1399.28Q2307.07 1399.28 2314.73 1409.47Z"/>
  </svg>