<svg xmlns="http://www.w3.org/2000/svg" viewBox="0 0 3000 3000" width="3000" height="3000">
    <path fill="#000000" d="M1757.81 2351.56Q1648.44 2351.56 1648.44 2255.86L1648.44 2255.86Q1648.44 2216.80 1671.88 2193.36L1671.88 2193.36Q1691.41 2173.83 1798.83 2167.97L1798.83 2167.97Q1964.84 2160.16 2007.81 2117.19L2007.81 2117.19Q2033.20 2093.75 2052.73 1977.54Q2072.27 1861.33 2082.03 1660.16L2082.03 1660.16L2105.47 1242.19Q2107.42 1191.41 2080.08 1165.04Q2052.73 1138.67 2003.91 1138.67L2003.91 1138.67L1425.78 1138.67Q1396.48 1613.28 1246.09 1873.05L1246.09 1873.05Q1091.80 2140.63 832.03 2289.06L832.03 2289.06Q781.25 2318.36 750 2332.03Q718.75 2345.70 699.22 2345.70L699.22 2345.70Q615.23 2345.70 615.23 2251.95L615.23 2251.95Q615.23 2201.17 673.83 2171.88L673.83 2171.88Q1013.67 2000 1164.06 1671.88L1164.06 1671.88Q1201.17 1589.84 1222.66 1461.91Q1244.14 1333.98 1255.86 1138.67L1255.86 1138.67L771.48 1138.67Q718.75 1138.67 695.31 1118.16Q671.88 1097.66 671.88 1056.64L671.88 1056.64Q671.88 978.52 771.48 978.52L771.48 978.52L1263.67 978.52L1267.58 708.98Q1271.48 615.23 1351.56 615.23L1351.56 615.23Q1439.45 615.23 1439.45 716.80L1439.45 716.80Q1439.45 802.73 1435.55 978.52L1435.55 978.52L2056.64 978.52Q2177.73 978.52 2223.63 1026.37Q2269.53 1074.22 2269.53 1187.50L2269.53 1187.50Q2269.53 1404.30 2238.28 1798.83L2238.28 1798.83Q2214.84 2087.89 2183.59 2179.69L2183.59 2179.69Q2125 2351.56 1757.81 2351.56L1757.81 2351.56Z"/>
  </svg>