<svg xmlns="http://www.w3.org/2000/svg" viewBox="0 0 3000 3000" width="3000" height="3000">
    <path fill="#000000" d="M975.97 977.25L975.97 977.25Q990.00 975.97 1001.47 974.70L1001.47 974.70Q1010.40 974.70 1025.70 984.90Q1041 995.10 1041 1002.75L1041 1002.75Q1042.27 1009.12 1058.85 1026.97L1058.85 1026.97Q1079.25 1047.38 1083.07 1062.67Q1086.90 1077.97 1079.25 1111.13L1079.25 1111.13Q1074.15 1146.82 1062.67 1184.44Q1051.20 1222.05 1044.82 1224.60L1044.82 1224.60Q1038.45 1229.70 1040.36 1238.63Q1042.27 1247.55 1048.65 1251.38L1048.65 1251.38Q1057.57 1253.92 1075.42 1253.92L1075.42 1253.92Q1100.92 1253.92 1151.29 1268.59Q1201.65 1283.25 1239.90 1299.82L1239.90 1299.82Q1290.90 1325.32 1293.45 1329.15Q1296.00 1332.97 1306.20 1338.07L1306.20 1338.07Q1321.50 1347 1328.51 1369.95Q1335.52 1392.90 1331.70 1419.67L1331.70 1419.67Q1326.60 1445.17 1317.67 1506.38L1317.67 1506.38Q1301.10 1627.50 1236.07 1775.40L1236.07 1775.40Q1229.70 1793.25 1229.70 1798.35L1229.70 1798.35Q1229.70 1804.72 1203.56 1839.15Q1177.42 1873.58 1151.92 1900.35L1151.92 1900.35Q1116.22 1938.60 1072.24 1968.56Q1028.25 1998.53 1005.30 1998.53L1005.30 1998.53Q995.10 1998.53 979.80 1983.86Q964.50 1969.20 958.12 1951.35L958.12 1951.35Q921.15 1873.58 879.07 1848.08L879.07 1848.08Q862.50 1839.15 859.95 1830.86Q857.40 1822.58 837.00 1800.90L837.00 1800.90Q802.57 1765.20 819.15 1765.20L819.15 1765.20Q838.27 1765.20 866.32 1790.70L866.32 1790.70Q890.55 1811.10 945.37 1817.47L945.37 1817.47Q968.32 1821.30 977.25 1814.29Q986.17 1807.28 1018.05 1766.47L1018.05 1766.47Q1028.25 1753.72 1063.95 1672.13L1063.95 1672.13Q1072.88 1651.72 1072.88 1642.80Q1072.88 1633.88 1077.97 1628.78L1077.97 1628.78Q1085.63 1621.13 1106.66 1516.57Q1127.70 1412.03 1130.25 1364.85L1130.25 1364.85L1134.07 1329.15L1113.67 1320.22Q1090.72 1312.57 1061.40 1312.57L1061.40 1312.57Q1037.17 1310.03 1032.07 1312.57Q1026.97 1315.13 1024.42 1325.32L1024.42 1325.32Q1018.05 1348.28 986.17 1410.75L986.17 1410.75Q983.62 1419.67 979.16 1436.25Q974.70 1452.82 967.69 1459.20Q960.67 1465.57 960.67 1472.59Q960.67 1479.60 952.39 1485.97Q944.10 1492.35 944.10 1504.46Q944.10 1516.57 935.81 1523.59Q927.52 1530.60 927.52 1538.25Q927.52 1545.90 919.87 1561.20L919.87 1561.20Q895.65 1607.10 895.65 1623.67L895.65 1623.67Q895.65 1630.05 879.07 1642.80Q862.50 1655.55 862.50 1661.92L862.50 1661.92Q862.50 1673.40 819.15 1725.67L819.15 1725.67Q815.32 1732.05 787.91 1770.30Q760.50 1808.55 755.40 1808.55Q750.30 1808.55 750.30 1816.84Q750.30 1825.13 742.01 1828.31Q733.72 1831.50 733.72 1835.33L733.72 1835.33Q733.72 1846.80 639.37 1939.88L639.37 1939.88Q539.92 2036.78 450.67 2082.68L450.67 2082.68Q432.82 2091.60 414.97 2093.51Q397.12 2095.43 392.02 2087.78L392.02 2087.78Q389.47 2083.95 441.75 2034.22L441.75 2034.22Q533.55 1946.25 555.22 1918.20L555.22 1918.20Q571.80 1896.53 589.65 1878.04Q607.50 1859.55 621.52 1842.34Q635.55 1825.13 644.47 1813.65Q653.40 1802.17 653.40 1797.08Q653.40 1791.97 668.70 1772.85L668.70 1772.85Q689.10 1743.53 713.32 1692.53L713.32 1692.53Q755.40 1608.38 787.27 1525.50L787.27 1525.50Q815.32 1455.38 822.97 1438.16Q830.62 1420.95 830.62 1412.03Q830.62 1403.10 838.27 1386.53Q845.92 1369.95 851.66 1354.01Q857.40 1338.07 859.95 1327.88L859.95 1327.88Q862.50 1320.22 857.40 1320.22L857.40 1320.22Q853.57 1320.22 838.27 1322.78L838.27 1322.78Q812.77 1326.60 774.52 1340.63L774.52 1340.63Q750.30 1350.82 742.01 1356.56Q733.72 1362.30 731.17 1375.05L731.17 1375.05Q726.07 1390.35 712.05 1401.19Q698.02 1412.03 680.17 1412.03L680.17 1412.03Q663.60 1410.75 641.92 1389.71Q620.25 1368.67 620.25 1352.10Q620.25 1335.53 625.99 1335.53Q631.72 1335.53 647.02 1322.78L647.02 1322.78Q663.60 1304.92 730.54 1282.61Q797.47 1260.30 829.35 1260.30L829.35 1260.30Q849.75 1260.30 868.87 1256.47L868.87 1256.47L889.27 1253.92L910.95 1188.90Q931.35 1122.60 937.09 1081.16Q942.82 1039.72 953.02 1011.67L953.02 1011.67Q959.40 992.55 963.86 986.17Q968.32 979.80 975.97 977.25ZM2096.70 1459.20L2096.70 1459.20Q2179.57 1445.17 2243.32 1463.03L2243.32 1463.03Q2268.82 1471.95 2285.40 1471.95L2285.40 1471.95Q2298.15 1471.95 2328.75 1484.70Q2359.35 1497.45 2369.55 1507.65L2369.55 1507.65Q2381.03 1515.30 2384.85 1529.96Q2388.68 1544.63 2386.13 1553.55L2386.13 1553.55Q2381.03 1566.30 2378.48 1590.53Q2375.93 1614.75 2361.26 1645.35Q2346.60 1675.95 2332.57 1712.92Q2318.55 1749.90 2300.06 1762.65Q2281.57 1775.40 2267.55 1794.53L2267.55 1794.53Q2243.32 1828.95 2236.95 1806L2236.95 1806Q2231.85 1795.80 2220.38 1770.30L2220.38 1770.30Q2205.07 1734.60 2197.43 1748.63L2197.43 1748.63Q2192.32 1753.72 2183.40 1753.72L2183.40 1753.72Q2175.75 1753.72 2174.47 1760.10Q2173.20 1766.47 2173.20 1793.25L2173.20 1793.25L2173.20 1832.78L2215.28 1830.22Q2244.60 1828.95 2254.16 1830.86Q2263.73 1832.78 2279.03 1841.70L2279.03 1841.70Q2293.05 1850.63 2296.24 1855.72Q2299.43 1860.83 2296.88 1873.58L2296.88 1873.58Q2293.05 1891.42 2282.85 1908.64Q2272.65 1925.85 2264.36 1928.40Q2256.07 1930.95 2228.66 1921.39Q2201.25 1911.83 2184.68 1919.47L2184.68 1919.47Q2171.93 1923.30 2170.01 1929.04Q2168.10 1934.78 2169.38 1961.55L2169.38 1961.55L2170.65 1997.25L2193.60 1994.70Q2215.28 1990.88 2301.98 1988.33L2301.98 1988.33Q2378.48 1987.05 2396.96 1992.79Q2415.45 1998.53 2419.28 2024.66Q2423.10 2050.80 2418 2073.11Q2412.90 2095.43 2400.15 2101.80L2400.15 2101.80Q2392.50 2106.90 2384.21 2105.63Q2375.93 2104.35 2349.15 2096.70L2349.15 2096.70Q2322.38 2087.78 2296.24 2086.50Q2270.10 2085.22 2156.63 2085.22L2156.63 2085.22Q2003.63 2085.22 1995.98 2091.60Q1988.33 2097.97 1960.91 2106.26Q1933.50 2114.55 1916.93 2124.11Q1900.35 2133.68 1888.88 2130.49Q1877.40 2127.30 1847.44 2104.35Q1817.47 2081.40 1817.47 2076.30L1817.47 2076.30Q1816.20 2067.38 1824.49 2057.18Q1832.78 2046.97 1841.70 2044.42L1841.70 2044.42Q1879.95 2034.22 1934.78 2023.39Q1989.60 2012.55 2010 2012.55L2010 2012.55Q2032.95 2012.55 2039.33 1959L2039.33 1959L2044.43 1936.05L2026.58 1936.05Q2010 1936.05 1994.70 1943.70L1994.70 1943.70Q1984.50 1948.80 1978.76 1948.16Q1973.03 1947.53 1957.72 1941.15L1957.72 1941.15Q1920.75 1923.30 1920.75 1891.42L1920.75 1891.42Q1920.75 1881.22 1942.43 1873.58L1942.43 1873.58Q2010 1849.35 2030.40 1849.35L2030.40 1849.35Q2045.70 1849.35 2051.44 1838.51Q2057.18 1827.67 2057.18 1795.80L2057.18 1795.80L2057.18 1760.10L2044.43 1762.65Q2029.13 1765.20 2017.01 1769.03Q2004.90 1772.85 1978.13 1775.40L1978.13 1775.40Q1960.28 1777.95 1955.18 1776.04Q1950.08 1774.13 1944.97 1766.47L1944.97 1766.47Q1927.13 1740.97 1914.38 1677.22L1914.38 1677.22Q1911.83 1665.75 1899.08 1630.05L1899.08 1630.05Q1877.40 1568.85 1879.95 1552.28L1879.95 1552.28Q1883.78 1521.67 1892.70 1521.67L1892.70 1521.67Q1899.08 1521.67 1941.15 1501.28L1941.15 1501.28Q1999.80 1474.50 2096.70 1459.20ZM2212.72 1521.67L2212.72 1521.67Q2198.70 1517.85 2177.66 1516.57Q2156.63 1515.30 2142.60 1516.57Q2128.57 1517.85 2128.57 1520.40L2128.57 1520.40Q2128.57 1529.32 2152.16 1548.45Q2175.75 1567.57 2191.05 1571.40L2191.05 1571.40Q2219.10 1577.78 2221.65 1595.63Q2224.20 1613.47 2198.70 1626.22L2198.70 1626.22Q2180.85 1635.15 2175.75 1653L2175.75 1653Q2173.20 1665.75 2174.47 1670.85Q2175.75 1675.95 2185.95 1684.88L2185.95 1684.88Q2198.70 1697.63 2198.70 1703.36Q2198.70 1709.10 2205.07 1709.10L2205.07 1709.10Q2214 1709.10 2228.03 1668.94Q2242.05 1628.78 2249.70 1577.78L2249.70 1577.78Q2256.07 1545.90 2250.34 1537.61Q2244.60 1529.32 2212.72 1521.67ZM2064.82 1553.55L2064.82 1553.55L2069.93 1526.78L2054.63 1528.05Q2036.78 1528.05 2007.45 1535.06Q1978.13 1542.07 1970.47 1549.72L1970.47 1549.72Q1961.55 1554.82 1958.36 1572.04Q1955.18 1589.25 1957.72 1603.28Q1960.28 1617.30 1969.20 1617.30L1969.20 1617.30Q1975.58 1617.30 1976.85 1612.20Q1978.13 1607.10 2015.74 1597.54Q2053.35 1587.97 2057.18 1584.79Q2061 1581.60 2064.82 1553.55ZM1974.30 1641.53L1974.30 1641.53Q1970.47 1631.33 1965.38 1632.60Q1960.28 1633.88 1964.10 1644.08L1964.10 1644.08Q1978.13 1707.83 1985.78 1714.20L1985.78 1714.20Q1989.60 1718.03 2027.85 1704L2027.85 1704Q2054.63 1693.80 2060.36 1689.97Q2066.10 1686.15 2066.10 1670.85L2066.10 1670.85Q2068.65 1651.72 2063.55 1647.26Q2058.45 1642.80 2034.22 1650.45L2034.22 1650.45Q2013.83 1656.83 1995.98 1653.64Q1978.13 1650.45 1974.30 1641.53ZM1910.55 1372.50L1910.55 1372.50Q1964.10 1363.57 1987.05 1359.11Q2010 1354.65 2087.78 1349.55Q2165.55 1344.45 2224.20 1339.35Q2282.85 1334.25 2426.29 1332.34Q2569.73 1330.42 2572.28 1327.24Q2574.82 1324.05 2592.04 1324.05Q2609.25 1324.05 2632.20 1345.72L2632.20 1345.72Q2648.78 1361.03 2651.96 1368.04Q2655.15 1375.05 2653.88 1391.63L2653.88 1391.63Q2653.88 1414.57 2650.69 1420.95Q2647.50 1427.32 2629.65 1433.70L2629.65 1433.70Q2593.95 1449 2551.88 1432.42L2551.88 1432.42Q2486.85 1409.47 2396.32 1403.10Q2305.80 1396.72 2143.88 1405.65L2143.88 1405.65Q1965.38 1414.57 1859.55 1443.90L1859.55 1443.90Q1797.08 1461.75 1777.95 1466.85L1777.95 1466.85Q1751.17 1473.22 1711.65 1498.72L1711.65 1498.72Q1687.42 1514.03 1646.63 1485.97L1646.63 1485.97Q1622.40 1469.40 1621.13 1463.66Q1619.85 1457.92 1635.15 1443.90L1635.15 1443.90Q1674.67 1408.20 1910.55 1372.50ZM2208.90 941.55L2208.90 941.55Q2250.97 927.52 2301.98 950.47L2301.98 950.47Q2333.85 964.50 2337.68 970.24Q2341.50 975.97 2357.44 982.99Q2373.38 990.00 2389.95 1006.57L2389.95 1006.57Q2402.70 1018.05 2405.25 1023.79Q2407.80 1029.52 2406.53 1047.38L2406.53 1047.38Q2406.53 1071.60 2395.69 1086.90Q2384.85 1102.20 2367.64 1140.45Q2350.43 1178.70 2350.43 1186.35L2350.43 1186.35Q2350.43 1195.27 2331.30 1233.53L2331.30 1233.53Q2318.55 1261.57 2292.41 1290.26Q2266.28 1318.95 2253.53 1318.95L2253.53 1318.95Q2247.15 1318.95 2229.30 1298.55Q2211.45 1278.15 2192.32 1267.95L2192.32 1267.95Q2179.57 1261.57 2168.10 1261.57Q2156.63 1261.57 2113.28 1266.67L2113.28 1266.67Q2054.63 1274.32 2044.43 1276.88L2044.43 1276.88Q2011.28 1287.07 1998.53 1320.22L1998.53 1320.22Q1990.88 1339.35 1985.14 1339.35Q1979.40 1339.35 1960.28 1318.95Q1941.15 1298.55 1937.96 1276.24Q1934.78 1253.92 1930.31 1250.74Q1925.85 1247.55 1925.85 1236.71Q1925.85 1225.88 1913.10 1178.70L1913.10 1178.70L1895.25 1109.85Q1890.15 1089.45 1885.69 1084.99Q1881.22 1080.52 1876.13 1053.75L1876.13 1053.75Q1872.30 1035.90 1873.58 1030.80Q1874.85 1025.70 1883.78 1018.05L1883.78 1018.05Q1897.80 1006.57 1909.91 1009.12Q1922.03 1011.67 1933.50 1002.75L1933.50 1002.75Q1946.25 991.27 1983.22 979.16Q2020.20 967.05 2062.28 960.67L2062.28 960.67Q2094.15 955.57 2117.74 951.11Q2141.32 946.65 2169.38 946.01Q2197.43 945.38 2208.90 941.55ZM2233.13 1012.95L2201.25 1007.85Q2174.47 1002.75 2113.91 1002.11Q2053.35 1001.47 2034.22 1006.57L2034.22 1006.57Q2018.93 1009.12 1997.89 1019.96Q1976.85 1030.80 1971.75 1039.72L1971.75 1039.72Q1960.28 1051.20 1961.55 1099.65L1961.55 1099.65Q1964.10 1109.85 1965.38 1111.13L1965.38 1111.13Q2011.28 1086.90 2085.22 1069.05Q2159.18 1051.20 2170.65 1062.67L2170.65 1062.67Q2174.47 1065.22 2177.03 1074.15Q2179.57 1083.07 2177.66 1090.09Q2175.75 1097.10 2173.20 1097.10L2173.20 1097.10Q2169.38 1097.10 2166.82 1113.67L2166.82 1113.67Q2166.82 1125.15 2163.64 1127.70Q2160.45 1130.25 2146.43 1130.25L2146.43 1130.25Q2126.03 1131.52 2072.47 1140.45Q2018.93 1149.38 1997.25 1148.10L1997.25 1148.10Q1989.60 1148.10 1986.41 1148.74Q1983.22 1149.38 1980.04 1150.01Q1976.85 1150.65 1977.49 1152.56Q1978.13 1154.47 1979.40 1157.02L1979.40 1157.02Q1983.22 1164.67 1985.78 1181.25L1985.78 1181.25Q1989.60 1208.02 1992.15 1213.76Q1994.70 1219.50 2003.63 1216.95L2003.63 1216.95Q2152.80 1171.05 2198.70 1174.88L2198.70 1174.88Q2211.45 1174.88 2215.91 1172.96Q2220.38 1171.05 2221.65 1164.67L2221.65 1164.67Q2233.13 1093.27 2233.13 1042.27L2233.13 1042.27L2233.13 1012.95Z"/>
  </svg>