<svg xmlns="http://www.w3.org/2000/svg" viewBox="0 0 3000 3000" width="3000" height="3000">
    <path fill="#000000" d="M898.20 1223.33L1255.20 1204.20L1274.32 1202.93Q1296.00 1202.93 1315.76 1218.86Q1335.52 1234.80 1335.52 1248.19Q1335.52 1261.58 1331.70 1269.86Q1327.88 1278.15 1326.60 1284.53L1326.60 1284.53Q1316.40 1506.38 1290.26 1666.39Q1264.12 1826.40 1252.01 1876.13Q1239.90 1925.85 1232.89 1959Q1225.88 1992.15 1202.92 2013.83Q1179.97 2035.50 1153.84 2035.50Q1127.70 2035.50 1100.92 2018.93Q1074.15 2002.35 1019.96 1964.74Q965.77 1927.13 903.30 1872.30Q840.82 1817.48 840.82 1801.54Q840.82 1785.60 854.85 1785.60Q868.87 1785.60 907.76 1808.55Q946.65 1831.50 1033.35 1875.49Q1120.05 1919.48 1132.80 1919.48Q1145.55 1919.48 1146.82 1909.28L1146.82 1909.28Q1224.60 1637.70 1237.35 1281.97L1237.35 1281.97L884.17 1299.83Q830.62 1545.90 691.65 1729.50L691.65 1729.50Q582.00 1874.85 450.67 1961.55L450.67 1961.55Q395.85 1998.53 358.87 2015.10Q321.90 2031.68 310.42 2031.68Q298.95 2031.68 298.95 2019.56Q298.95 2007.45 320.62 1992.15L320.62 1992.15Q556.50 1828.95 673.80 1604.55L673.80 1604.55Q749.02 1463.03 787.27 1304.93L787.27 1304.93L527.17 1318.95L487.65 1320.22L476.17 1320.22Q453.22 1315.13 439.20 1293.45L439.20 1293.45Q416.25 1255.20 416.25 1244.36Q416.25 1233.53 426.45 1233.53L426.45 1233.53Q432.82 1233.53 448.12 1237.35Q463.42 1241.18 488.92 1241.18L488.92 1241.18L500.40 1241.18L805.12 1228.43Q826.80 1106.03 826.80 978.52L826.80 978.52Q826.80 942.82 821.70 930.71Q816.60 918.60 816.60 910.95L816.60 910.95Q816.60 898.20 831.26 898.20Q845.92 898.20 867.60 905.85L867.60 905.85Q923.70 923.70 923.70 944.10L923.70 944.10Q921.15 1092 898.20 1223.33L898.20 1223.33ZM1914.38 1261.58L1914.38 1270.50Q1914.38 1293.45 1888.88 1293.45L1888.88 1293.45Q1876.13 1293.45 1853.81 1283.89Q1831.50 1274.33 1831.50 1251.38L1831.50 1251.38L1831.50 1243.72Q1832.78 1237.35 1832.78 1229.70L1832.78 1229.70L1832.78 1218.22Q1832.78 1200.38 1830.22 1177.43L1830.22 1177.43L1813.65 1021.88Q1809.83 992.55 1798.35 972.79Q1786.88 953.02 1786.88 945.38Q1786.88 937.73 1803.45 937.73Q1820.03 937.73 1885.05 961.95L1885.05 961.95L2409.07 932.63L2419.28 932.63Q2448.60 932.63 2463.26 945.38Q2477.93 958.13 2477.93 966.41Q2477.93 974.70 2475.38 979.80Q2472.82 984.90 2471.55 988.73L2471.55 988.73L2442.23 1178.70Q2470.28 1210.58 2470.28 1222.05Q2470.28 1233.53 2460.71 1234.80Q2451.15 1236.08 2437.13 1237.35L2437.13 1237.35L1914.38 1261.58ZM2381.03 1056.30L2388.68 992.55L1888.88 1021.88L1895.25 1081.80L2381.03 1056.30ZM2365.73 1181.25L2374.65 1111.13L1900.35 1136.63L1908 1204.20L2365.73 1181.25ZM2661.53 1348.28L1704 1394.18L1675.95 1395.45Q1660.65 1395.45 1640.25 1386.53Q1619.85 1377.60 1607.10 1334.25L1607.10 1334.25Q1605.83 1331.70 1605.83 1327.24Q1605.83 1322.78 1610.92 1322.78Q1616.03 1322.78 1630.05 1325.96Q1644.08 1329.15 1669.58 1329.15L1669.58 1329.15L1686.15 1329.15L2559.53 1287.08Q2590.13 1285.80 2605.43 1281.34Q2620.73 1276.88 2624.55 1276.88Q2628.38 1276.88 2641.76 1282.61Q2655.15 1288.35 2669.18 1299.83Q2683.20 1311.30 2683.20 1326.60L2683.20 1326.60Q2683.20 1345.72 2661.53 1348.28L2661.53 1348.28ZM1618.58 1938.60L1618.58 1938.60Q1654.28 1947.53 1697.63 1947.53L1697.63 1947.53L2094.15 1938.60L2094.15 1863.38L1881.22 1869.75L1854.45 1871.03Q1826.40 1871.03 1811.74 1861.46Q1797.08 1851.90 1783.05 1812.38L1783.05 1812.38L1781.78 1804.73Q1781.78 1800.90 1784.96 1800.90Q1788.15 1800.90 1800.90 1804.73Q1813.65 1808.55 1848.08 1808.55L1848.08 1808.55L1865.92 1808.55L2095.43 1802.18L2095.43 1733.33L1893.97 1740.98L1895.25 1749.90L1895.25 1753.73Q1895.25 1772.85 1871.66 1772.85Q1848.08 1772.85 1832.14 1762.65Q1816.20 1752.45 1816.20 1734.60L1816.20 1734.60L1816.20 1728.23L1817.47 1705.28Q1817.47 1688.70 1814.92 1668.30L1814.92 1668.30L1800.90 1496.18Q1798.35 1465.58 1784.33 1440.08L1784.33 1440.08Q1781.78 1432.42 1781.78 1429.88L1781.78 1429.88Q1781.78 1420.95 1798.35 1420.95Q1814.92 1420.95 1874.85 1441.35L1874.85 1441.35L2429.48 1413.30L2443.50 1413.30Q2457.53 1413.30 2477.29 1422.86Q2497.05 1432.42 2497.05 1452.83L2497.05 1452.83Q2497.05 1460.47 2493.86 1466.85Q2490.68 1473.22 2489.40 1478.33L2489.40 1478.33L2460.07 1664.48Q2486.85 1695.08 2486.85 1706.55Q2486.85 1718.03 2457.53 1720.58L2457.53 1720.58L2169.38 1730.78L2169.38 1800.90L2382.30 1794.53Q2412.90 1791.98 2432.66 1787.51Q2452.43 1783.05 2457.53 1783.05Q2462.63 1783.05 2476.65 1789.43L2476.65 1789.43Q2513.63 1807.28 2513.63 1827.68Q2513.63 1848.08 2490.68 1850.63L2490.68 1850.63L2168.10 1860.83L2168.10 1937.33L2554.43 1928.40Q2587.57 1928.40 2605.43 1922.66Q2623.28 1916.93 2630.29 1916.93Q2637.30 1916.93 2652.60 1925.85L2652.60 1925.85Q2692.13 1947.53 2692.13 1970.48Q2692.13 1993.43 2665.35 1993.43L2665.35 1993.43L1701.45 2012.55L1688.70 2012.55Q1664.47 2012.55 1645.35 2002.99Q1626.22 1993.43 1614.75 1950.08L1614.75 1950.08Q1613.47 1947.53 1613.47 1943.06Q1613.47 1938.60 1618.58 1938.60ZM2402.70 1536.97L2410.35 1474.50L2170.65 1485.97L2170.65 1548.45L2402.70 1536.97ZM2096.70 1551L2096.70 1488.53L1874.85 1498.72L1879.95 1561.20L2096.70 1551ZM2388.68 1667.03L2396.32 1593.08L2169.38 1603.28L2169.38 1674.68L2388.68 1667.03ZM2095.43 1677.23L2095.43 1607.10L1883.78 1616.03L1890.15 1684.88L2095.43 1677.23Z"/>
  </svg>