<svg xmlns="http://www.w3.org/2000/svg" viewBox="0 0 3000 3000" width="3000" height="3000">
    <path fill="#000000" d="M1556 1066L2116 1036L2146 1034Q2180 1034 2211 1059Q2242 1084 2242 1105Q2242 1126 2236 1139Q2230 1152 2228 1162L2228 1162Q2212 1510 2171 1761Q2130 2012 2111 2090Q2092 2168 2081 2220Q2070 2272 2034 2306Q1998 2340 1957 2340Q1916 2340 1874 2314Q1832 2288 1747 2229Q1662 2170 1564 2084Q1466 1998 1466 1973Q1466 1948 1488 1948Q1510 1948 1571 1984Q1632 2020 1768 2089Q1904 2158 1924 2158Q1944 2158 1946 2142L1946 2142Q2068 1716 2088 1158L2088 1158L1534 1186Q1450 1572 1232 1860L1232 1860Q1060 2088 854 2224L854 2224Q768 2282 710 2308Q652 2334 634 2334Q616 2334 616 2315Q616 2296 650 2272L650 2272Q1020 2016 1204 1664L1204 1664Q1322 1442 1382 1194L1382 1194L974 1216L912 1218L894 1218Q858 1210 836 1176L836 1176Q800 1116 800 1099Q800 1082 816 1082L816 1082Q826 1082 850 1088Q874 1094 914 1094L914 1094L932 1094L1410 1074Q1444 882 1444 682L1444 682Q1444 626 1436 607Q1428 588 1428 576L1428 576Q1428 556 1451 556Q1474 556 1508 568L1508 568Q1596 596 1596 628L1596 628Q1592 860 1556 1066L1556 1066Z"/>
  </svg>