<svg xmlns="http://www.w3.org/2000/svg" viewBox="0 0 3000 3000" width="3000" height="3000">
    <path fill="#000000" d="M835.72 1509.56L1182.52 1489.16L1183.80 1561.84L834.45 1577.14L835.72 1509.56ZM1376.32 2065.46L1376.32 2065.46L1390.35 2065.46Q1415.85 2064.19 1427.96 2055.26Q1440.07 2046.34 1461.75 2011.91L1461.75 2011.91Q1473.22 1994.06 1473.22 1986.41L1473.22 1986.41Q1473.22 1968.56 1445.17 1968.56L1445.17 1968.56L1434.97 1968.56Q1424.77 1969.84 1412.66 1969.84Q1400.55 1969.84 1386.52 1969.84L1386.52 1969.84Q1326.60 1969.84 1246.27 1962.83Q1165.95 1955.81 1074.79 1944.34Q983.62 1932.86 893.74 1918.84Q803.85 1904.81 726.07 1891.43Q648.30 1878.04 592.20 1866.56L592.20 1866.56Q552.67 1858.91 533.55 1857.64L533.55 1857.64Q566.70 1830.86 589.65 1807.91Q612.60 1784.96 620.89 1767.75Q629.17 1750.54 629.17 1739.06L629.17 1739.06Q629.17 1709.74 601.76 1689.34Q574.35 1668.94 511.87 1633.24L511.87 1633.24Q510.60 1631.96 509.32 1630.69L509.32 1630.69Q509.32 1630.69 509.32 1630.69L509.32 1630.69Q531.00 1602.64 553.95 1574.59Q576.90 1546.54 608.77 1510.84L608.77 1510.84Q613.87 1504.46 621.52 1494.90Q629.17 1485.34 629.17 1473.86L629.17 1473.86Q629.17 1454.74 607.50 1438.16L607.50 1438.16Q598.57 1429.24 589.01 1426.69Q579.45 1424.14 570.52 1424.14L570.52 1424.14L560.32 1424.14L383.10 1439.44Q378.00 1439.44 372.26 1440.08Q366.52 1440.71 360.15 1440.71L360.15 1440.71Q349.95 1440.71 338.47 1439.44Q327.00 1438.16 315.52 1436.89L315.52 1436.89L314.25 1435.61Q311.70 1435.61 307.87 1435.61L307.87 1435.61Q291.30 1435.61 291.30 1450.91L291.30 1450.91Q291.30 1456.01 297.67 1472.59Q304.05 1489.16 319.35 1505.74Q334.65 1522.31 363.97 1522.31L363.97 1522.31Q370.35 1522.31 377.36 1521.68Q384.37 1521.04 390.75 1521.04L390.75 1521.04L495.30 1512.11Q488.92 1518.49 470.44 1542.08Q451.95 1565.66 437.92 1584.79L437.92 1584.79Q413.70 1619.21 413.70 1643.44L413.70 1643.44Q413.70 1672.76 451.95 1695.71L451.95 1695.71Q491.47 1717.39 522.07 1739.06L522.07 1739.06Q522.07 1739.06 520.80 1739.06L520.80 1739.06Q518.25 1742.89 515.70 1745.44L515.70 1745.44Q492.75 1770.94 468.52 1798.35Q444.30 1825.76 412.42 1853.81L412.42 1853.81Q346.12 1858.91 313.61 1866.56Q281.10 1874.21 270.90 1884.41Q260.70 1894.61 260.70 1907.36L260.70 1907.36L261.97 1921.39Q263.25 1935.41 272.17 1950.08Q281.10 1964.74 298.95 1964.74L298.95 1964.74Q305.32 1964.74 311.06 1962.83Q316.80 1960.91 323.17 1959.64L323.17 1959.64Q361.42 1948.16 393.94 1943.06Q426.45 1937.96 454.50 1937.96L454.50 1937.96Q488.92 1937.96 518.89 1942.43Q548.85 1946.89 578.17 1953.26L578.17 1953.26Q634.27 1963.46 716.51 1978.13Q798.75 1992.79 893.74 2008.09Q988.72 2023.39 1081.80 2036.14Q1174.88 2048.89 1252.65 2057.18Q1330.42 2065.46 1376.32 2065.46ZM838.27 1364.21L1181.25 1342.54L1182.52 1411.39L837.00 1433.06L838.27 1364.21ZM520.80 1380.79L520.80 1380.79Q537.37 1380.79 548.21 1366.76Q559.05 1352.74 565.42 1337.44Q571.80 1322.14 571.80 1318.31L571.80 1318.31Q571.80 1299.19 543.75 1280.06L543.75 1280.06Q471.07 1230.34 386.92 1184.44L386.92 1184.44Q363.97 1172.96 353.77 1172.96L353.77 1172.96Q339.75 1172.96 330.82 1184.44Q321.90 1195.91 318.07 1208.03Q314.25 1220.14 314.25 1225.24L314.25 1225.24Q314.25 1241.81 338.47 1257.11L338.47 1257.11Q376.72 1280.06 414.34 1306.84Q451.95 1333.61 487.65 1364.21L487.65 1364.21Q497.85 1370.59 505.50 1375.69Q513.15 1380.79 520.80 1380.79ZM1279.42 1264.76L1279.42 1264.76Q1294.72 1280.06 1307.47 1280.06Q1320.22 1280.06 1337.44 1264.13Q1354.65 1248.19 1354.65 1223.96L1354.65 1223.96Q1354.65 1207.39 1340.63 1193.36L1340.63 1193.36Q1334.25 1186.99 1313.85 1169.14Q1293.45 1151.29 1266.04 1128.97Q1238.63 1106.66 1210.57 1085.63Q1182.52 1064.59 1160.21 1049.92Q1137.90 1035.26 1127.70 1035.26L1127.70 1035.26Q1108.57 1035.26 1096.46 1055.66Q1084.35 1076.06 1084.35 1084.99L1084.35 1084.99Q1084.35 1097.74 1097.10 1107.94L1097.10 1107.94Q1151.92 1147.46 1195.91 1185.08Q1239.90 1222.69 1279.42 1264.76ZM900.75 1121.96L900.75 1121.96Q908.40 1110.49 908.40 1101.56L908.40 1101.56Q908.40 1083.71 891.19 1067.14Q873.97 1050.56 854.85 1039.09Q835.72 1027.61 825.52 1027.61L825.52 1027.61Q807.67 1027.61 807.67 1054.39L807.67 1054.39Q807.67 1084.99 797.47 1101.56L797.47 1101.56Q764.32 1151.29 727.35 1193.36Q690.37 1235.44 648.30 1274.96L648.30 1274.96Q629.17 1291.54 629.17 1305.56L629.17 1305.56Q629.17 1320.86 645.75 1320.86L645.75 1320.86Q667.42 1320.86 709.50 1292.81L709.50 1292.81Q718.42 1286.44 728.62 1278.79L728.62 1278.79Q729.90 1286.44 736.27 1300.46L736.27 1300.46Q742.65 1314.49 745.20 1328.51Q747.75 1342.54 747.75 1360.39L747.75 1360.39L737.55 1739.06Q736.27 1779.86 728.62 1810.46L728.62 1810.46Q727.35 1815.56 727.35 1824.49L727.35 1824.49Q727.35 1838.51 736.27 1849.99Q745.20 1861.46 766.87 1871.66L766.87 1871.66Q792.37 1884.41 805.12 1884.41L805.12 1884.41Q830.62 1884.41 830.62 1849.99L830.62 1849.99L833.17 1656.19L1183.80 1640.89L1185.07 1793.89Q1158.30 1786.24 1122.60 1773.49Q1086.90 1760.74 1048.65 1745.44L1048.65 1745.44Q1035.90 1737.79 1026.34 1735.88Q1016.77 1733.96 1009.12 1733.96L1009.12 1733.96Q990.00 1733.96 990.00 1747.35Q990.00 1760.74 1010.40 1779.86Q1030.80 1798.99 1061.40 1821.30Q1092 1843.61 1123.88 1863.38Q1155.75 1883.14 1182.52 1897.16Q1209.30 1911.19 1220.77 1911.19L1220.77 1911.19Q1239.90 1911.19 1259.66 1893.34Q1279.42 1875.49 1279.42 1844.89L1279.42 1844.89Q1279.42 1838.51 1278.79 1829.59Q1278.15 1820.66 1278.15 1811.74L1278.15 1811.74L1274.32 1332.34Q1274.32 1328.51 1276.87 1322.78Q1279.42 1317.04 1279.42 1308.11L1279.42 1308.11Q1279.42 1295.36 1263.49 1275.60Q1247.55 1255.84 1218.22 1255.84L1218.22 1255.84Q1214.40 1255.84 1210.57 1256.47Q1206.75 1257.11 1201.65 1257.11L1201.65 1257.11L1042.27 1268.59L1049.92 986.81Q1049.92 962.59 1026.97 951.11Q1004.02 939.64 981.71 935.81Q959.40 931.99 954.30 931.99L954.30 931.99Q931.35 931.99 931.35 949.84L931.35 949.84Q931.35 960.04 937.72 967.69L937.72 967.69Q945.37 980.44 949.84 991.91Q954.30 1003.39 954.30 1017.41L954.30 1017.41L951.75 1273.69L835.72 1281.34Q775.80 1262.21 752.85 1260.94L752.85 1260.94Q775.80 1241.81 801.30 1218.86L801.30 1218.86Q852.30 1172.96 900.75 1121.96ZM575.62 1202.29L575.62 1202.29Q593.47 1202.29 611.96 1182.53Q630.45 1162.76 630.45 1144.91L630.45 1144.91Q630.45 1130.89 610.69 1112.40Q590.92 1093.91 561.60 1074.15Q532.27 1054.39 503.59 1035.90Q474.90 1017.41 451.31 1005.30Q427.72 993.19 421.35 993.19L421.35 993.19Q406.05 993.19 390.75 1017.41L390.75 1017.41Q381.82 1031.44 381.82 1044.19L381.82 1044.19Q381.82 1063.31 402.22 1073.51L402.22 1073.51Q439.20 1097.74 476.81 1128.34Q514.42 1158.94 546.30 1186.99L546.30 1186.99Q561.60 1202.29 575.62 1202.29ZM2642.40 2066.74L2642.40 2066.74L2656.43 2066.74Q2680.65 2065.46 2693.40 2057.18Q2706.15 2048.89 2726.55 2013.19L2726.55 2013.19Q2730.38 2005.54 2733.56 1999.16Q2736.75 1992.79 2736.75 1987.69L2736.75 1987.69Q2736.75 1969.84 2709.98 1969.84L2709.98 1969.84L2699.78 1969.84Q2689.57 1971.11 2678.10 1971.11Q2666.63 1971.11 2653.88 1971.11L2653.88 1971.11Q2593.95 1971.11 2514.26 1964.10Q2434.57 1957.09 2344.69 1945.61Q2254.80 1934.14 2165.55 1920.75Q2076.30 1907.36 1998.53 1893.34Q1920.75 1879.31 1865.92 1867.84L1865.92 1867.84Q1841.70 1861.46 1816.84 1858.91Q1791.97 1856.36 1788.15 1856.36L1788.15 1856.36Q1822.58 1825.76 1844.89 1802.18Q1867.20 1778.59 1873.58 1764.56Q1879.95 1750.54 1879.95 1737.79L1879.95 1737.79Q1879.95 1719.94 1874.21 1709.74Q1868.47 1699.54 1843.61 1682.96Q1818.75 1666.39 1766.47 1633.24L1766.47 1633.24Q1763.92 1631.96 1762.65 1630.69L1762.65 1630.69Q1784.33 1602.64 1807.28 1574.59Q1830.22 1546.54 1859.55 1510.84L1859.55 1510.84Q1865.92 1504.46 1874.85 1494.90Q1883.78 1485.34 1883.78 1473.86L1883.78 1473.86Q1883.78 1458.56 1872.30 1447.72Q1860.83 1436.89 1846.80 1429.88Q1832.78 1422.86 1826.40 1422.86L1826.40 1422.86Q1821.30 1422.86 1818.11 1423.50Q1814.92 1424.14 1812.38 1424.14L1812.38 1424.14L1651.72 1439.44Q1645.35 1440.71 1640.25 1440.71Q1635.15 1440.71 1628.78 1440.71L1628.78 1440.71Q1607.10 1440.71 1587.97 1436.89L1587.97 1436.89Q1586.70 1436.89 1584.79 1436.25Q1582.88 1435.61 1580.33 1435.61L1580.33 1435.61Q1563.75 1435.61 1563.75 1452.19L1563.75 1452.19Q1563.75 1475.14 1584.15 1499.36Q1604.55 1523.59 1635.15 1523.59L1635.15 1523.59Q1642.80 1523.59 1652.36 1522.95Q1661.92 1522.31 1673.40 1521.04L1673.40 1521.04L1748.63 1513.39Q1739.70 1522.31 1722.49 1543.99Q1705.28 1565.66 1691.25 1584.79L1691.25 1584.79Q1667.03 1619.21 1667.03 1643.44L1667.03 1643.44Q1667.03 1672.76 1705.28 1695.71L1705.28 1695.71Q1724.40 1705.91 1744.80 1718.66Q1765.20 1731.41 1777.95 1741.61L1777.95 1741.61Q1780.50 1742.89 1780.50 1744.16L1780.50 1744.16L1779.22 1746.71Q1758.83 1770.94 1729.50 1799.63Q1700.17 1828.31 1664.47 1857.64L1664.47 1857.64Q1590.53 1865.29 1565.03 1874.21Q1539.53 1883.14 1539.53 1906.09L1539.53 1906.09Q1539.53 1911.19 1542.08 1924.58Q1544.63 1937.96 1552.28 1951.99Q1559.92 1966.01 1576.50 1966.01L1576.50 1966.01Q1587.97 1966.01 1603.28 1960.91L1603.28 1960.91Q1638.97 1948.16 1670.85 1943.70Q1702.72 1939.24 1730.78 1939.24L1730.78 1939.24Q1763.92 1939.24 1793.89 1943.70Q1823.85 1948.16 1851.90 1954.54L1851.90 1954.54Q1906.72 1964.74 1988.33 1979.40Q2069.93 1994.06 2163.64 2009.36Q2257.35 2024.66 2349.15 2037.41Q2440.95 2050.16 2518.73 2058.45Q2596.50 2066.74 2642.40 2066.74ZM1789.42 1379.51L1789.42 1379.51Q1804.72 1379.51 1816.20 1366.13Q1827.67 1352.74 1834.05 1338.71Q1840.42 1324.69 1840.42 1318.31L1840.42 1318.31Q1840.42 1304.29 1821.30 1286.44Q1802.17 1268.59 1774.13 1250.10Q1746.08 1231.61 1718.03 1214.40Q1689.97 1197.19 1667.03 1185.71Q1644.08 1174.24 1636.42 1174.24Q1628.78 1174.24 1609.01 1190.17Q1589.25 1206.11 1589.25 1223.96L1589.25 1223.96Q1589.25 1232.89 1596.90 1241.18Q1604.55 1249.46 1616.03 1257.11L1616.03 1257.11Q1650.45 1278.79 1685.51 1304.93Q1720.58 1331.06 1757.55 1364.21L1757.55 1364.21Q1776.67 1379.51 1789.42 1379.51ZM1844.25 1203.56L1844.25 1203.56Q1859.55 1203.56 1878.67 1182.53Q1897.80 1161.49 1897.80 1146.19L1897.80 1146.19Q1897.80 1133.44 1879.31 1113.67Q1860.83 1093.91 1833.41 1074.15Q1806 1054.39 1778.59 1036.54Q1751.17 1018.69 1730.78 1007.21Q1710.38 995.74 1702.72 995.74L1702.72 995.74Q1684.88 995.74 1669.58 1014.86Q1654.28 1033.99 1654.28 1041.64L1654.28 1041.64Q1654.28 1056.94 1679.78 1073.51L1679.78 1073.51Q1751.17 1124.51 1814.92 1186.99L1814.92 1186.99Q1831.50 1203.56 1844.25 1203.56ZM2494.50 1844.89L2489.40 1871.66L2489.40 1878.04Q2489.40 1894.61 2512.35 1913.74Q2535.30 1932.86 2556.98 1932.86L2556.98 1932.86Q2585.03 1932.86 2585.03 1900.99L2585.03 1900.99L2588.85 1702.09Q2588.85 1679.14 2569.73 1667.03Q2550.60 1654.91 2531.48 1651.09Q2512.35 1647.26 2504.70 1647.26L2504.70 1647.26Q2484.30 1647.26 2484.30 1662.56L2484.30 1662.56Q2484.30 1667.66 2486.85 1672.76L2486.85 1672.76Q2494.50 1691.89 2496.41 1705.91Q2498.33 1719.94 2498.33 1737.79L2498.33 1737.79L2497.05 1765.84L2344.05 1774.76L2345.32 1630.69L2665.35 1615.39Q2698.50 1611.56 2698.50 1586.06L2698.50 1586.06Q2698.50 1568.21 2685.11 1556.10Q2671.73 1543.99 2657.06 1536.97Q2642.40 1529.96 2633.48 1529.96L2633.48 1529.96Q2628.38 1529.96 2624.55 1530.60Q2620.73 1531.24 2616.90 1532.51L2616.90 1532.51Q2601.60 1537.61 2589.49 1538.89Q2577.38 1540.16 2555.70 1541.44L2555.70 1541.44L2345.32 1551.64L2346.60 1475.14L2539.13 1464.94Q2571 1461.11 2571 1435.61L2571 1435.61Q2571 1416.49 2549.96 1398.64Q2528.93 1380.79 2508.53 1380.79L2508.53 1380.79Q2503.43 1380.79 2499.60 1381.43Q2495.78 1382.06 2491.95 1383.34L2491.95 1383.34Q2475.38 1388.44 2460.07 1389.71Q2444.78 1390.99 2423.10 1392.26L2423.10 1392.26L2243.32 1403.74Q2244.60 1402.46 2247.15 1399.91L2247.15 1399.91Q2249.70 1394.81 2250.97 1388.44L2250.97 1388.44L2250.97 1383.34Q2250.97 1375.69 2247.79 1366.76Q2244.60 1357.84 2234.40 1347.64L2234.40 1347.64L2236.95 1348.91Q2309.63 1318.31 2391.23 1266.04Q2472.82 1213.76 2551.88 1134.71L2551.88 1134.71Q2558.25 1129.61 2571 1123.24Q2583.75 1116.86 2583.75 1100.29L2583.75 1100.29Q2583.75 1082.44 2558.89 1060.76Q2534.03 1039.09 2505.98 1039.09L2505.98 1039.09L2494.50 1039.09L2307.07 1054.39L2351.70 1012.31Q2358.07 1005.94 2358.07 995.74L2358.07 995.74Q2358.07 977.89 2344.69 961.31Q2331.30 944.74 2315.36 933.26Q2299.43 921.79 2287.31 921.79Q2275.20 921.79 2272.65 938.36L2272.65 938.36Q2270.10 953.66 2265.64 963.23Q2261.18 972.79 2250.97 984.26L2250.97 984.26Q2180.85 1056.94 2111.36 1104.75Q2041.88 1152.56 1951.35 1198.46L1951.35 1198.46Q1916.93 1215.04 1916.93 1231.61L1916.93 1231.61Q1916.93 1246.91 1939.88 1246.91L1939.88 1246.91Q1943.70 1246.91 1981.31 1237.99Q2018.93 1229.06 2078.85 1203.56L2078.85 1203.56Q2133.68 1180.61 2196.15 1139.81L2196.15 1139.81Q2185.95 1155.11 2185.95 1162.76L2185.95 1162.76Q2185.95 1178.06 2205.07 1194.64L2205.07 1194.64Q2230.57 1215.04 2259.90 1250.74L2259.90 1250.74Q2247.15 1258.39 2226.75 1269.22Q2206.35 1280.06 2192.32 1287.71L2192.32 1287.71Q2166.82 1258.39 2137.50 1230.34Q2108.18 1202.29 2091.60 1202.29L2091.60 1202.29Q2081.40 1202.29 2066.10 1214.40Q2050.80 1226.51 2050.80 1241.81L2050.80 1241.81Q2050.80 1254.56 2071.20 1272.41L2071.20 1272.41Q2083.95 1281.34 2095.43 1296Q2106.90 1310.66 2115.82 1320.86L2115.82 1320.86Q2081.40 1336.16 2035.50 1351.46Q1989.60 1366.76 1944.97 1380.79L1944.97 1380.79Q1892.70 1394.81 1892.70 1417.76L1892.70 1417.76Q1892.70 1436.89 1925.85 1436.89L1925.85 1436.89Q1944.97 1436.89 1983.22 1428.60Q2021.47 1420.31 2062.28 1408.20Q2103.07 1396.09 2133.68 1387.16L2133.68 1387.16Q2140.05 1384.61 2143.88 1383.34L2143.88 1383.34Q2115.82 1416.49 2081.40 1448.36L2081.40 1448.36Q2038.05 1485.34 1998.53 1513.39L1998.53 1513.39Q1971.75 1531.24 1971.75 1545.26Q1971.75 1559.29 1989.60 1559.29L1989.60 1559.29Q2010 1559.29 2041.24 1545.26Q2072.47 1531.24 2102.44 1513.39Q2132.40 1495.54 2147.70 1485.34L2147.70 1485.34L2256.07 1478.96L2254.80 1554.19L1997.25 1566.94L1979.40 1566.94Q1964.10 1566.94 1950.71 1565.66Q1937.33 1564.39 1923.30 1560.56L1923.30 1560.56Q1919.47 1559.29 1915.65 1559.29L1915.65 1559.29Q1902.90 1559.29 1902.90 1572.04L1902.90 1572.04Q1902.90 1577.14 1904.18 1580.96L1904.18 1580.96Q1916.93 1625.59 1935.41 1636.43Q1953.90 1647.26 1976.85 1647.26L1976.85 1647.26Q1983.22 1647.26 1991.51 1646.63Q1999.80 1645.99 2008.73 1645.99L2008.73 1645.99L2254.80 1634.51L2253.53 1778.59L2110.72 1787.51L2115.82 1718.66L2115.82 1716.11Q2115.82 1698.26 2099.89 1686.79Q2083.95 1675.31 2064.19 1668.94Q2044.43 1662.56 2031.68 1662.56L2031.68 1662.56Q2007.45 1662.56 2007.45 1680.41L2007.45 1680.41Q2007.45 1685.51 2012.55 1693.16L2012.55 1693.16Q2021.47 1708.46 2024.03 1718.66Q2026.58 1728.86 2026.58 1739.06L2026.58 1739.06L2026.58 1772.21Q2026.58 1784.96 2024.03 1797.08Q2021.47 1809.19 2017.65 1820.66L2017.65 1820.66Q2015.10 1832.14 2015.10 1837.24L2015.10 1837.24Q2015.10 1856.36 2041.88 1874.21L2041.88 1874.21Q2052.07 1881.86 2063.55 1881.86Q2075.03 1881.86 2087.78 1877.40Q2100.53 1872.94 2119.65 1871.66L2119.65 1871.66L2494.50 1844.89ZM2243.32 1130.89L2243.32 1130.89L2444.78 1116.86Q2426.93 1133.44 2390.59 1161.49Q2354.25 1189.54 2323.65 1211.21L2323.65 1211.21Q2291.78 1171.69 2270.10 1152.56L2270.10 1152.56Q2253.53 1135.99 2243.32 1130.89Z"/>
  </svg>