<svg xmlns="http://www.w3.org/2000/svg" viewBox="0 0 3000 3000" width="3000" height="3000">
    <path fill="#000000" d="M1055.02 1651.09L1237.35 1642.16L1238.63 1690.61L1053.75 1698.26L1055.02 1651.09ZM1057.57 1537.61L1237.35 1528.69L1237.35 1570.76L1056.30 1579.69L1057.57 1537.61ZM1414.57 2070.56L1414.57 2070.56L1426.05 2070.56Q1450.27 2070.56 1466.21 2057.18Q1482.15 2043.79 1489.80 2027.21Q1497.45 2010.64 1497.45 2001.71L1497.45 2001.71Q1497.45 1982.59 1460.47 1981.31L1460.47 1981.31Q1273.05 1972.39 1103.47 1950.71Q933.90 1929.04 800.02 1899.71L800.02 1899.71Q794.92 1898.44 791.10 1897.16L791.10 1897.16L802.57 1897.16Q847.20 1857.64 870.79 1830.23Q894.37 1802.81 894.37 1777.31Q894.37 1751.81 872.70 1730.78Q851.02 1709.74 794.92 1677.86L794.92 1677.86Q793.65 1676.59 793.65 1675.31L793.65 1675.31Q811.50 1645.99 833.17 1617.94Q854.85 1589.89 879.07 1560.56L879.07 1560.56Q882.90 1554.19 891.19 1547.18Q899.47 1540.16 899.47 1526.14L899.47 1526.14Q899.47 1522.31 895.01 1511.47Q890.55 1500.64 878.44 1489.16Q866.32 1477.69 843.37 1477.69L843.37 1477.69L831.90 1477.69L740.10 1489.16Q732.45 1490.44 722.89 1491.08Q713.32 1491.71 701.85 1491.71L701.85 1491.71Q694.20 1491.71 687.19 1491.08Q680.17 1490.44 673.80 1489.16L673.80 1489.16Q672.52 1489.16 670.61 1488.53Q668.70 1487.89 666.15 1487.89L666.15 1487.89Q654.67 1487.89 652.12 1495.54L652.12 1495.54Q647.02 1459.84 633.00 1425.41L633.00 1425.41Q612.60 1373.14 560.32 1310.66L560.32 1310.66Q557.77 1306.84 557.77 1304.29Q557.77 1301.74 559.05 1299.19L559.05 1299.19Q588.37 1254.56 615.15 1205.47Q641.92 1156.39 659.77 1120.05Q677.62 1083.71 677.62 1079.89L677.62 1079.89Q677.62 1065.86 660.41 1049.92Q643.20 1033.99 615.15 1033.99L615.15 1033.99L604.95 1033.99L446.85 1046.74Q379.27 1022.51 361.42 1022.51Q343.57 1022.51 343.57 1039.09L343.57 1039.09Q343.57 1045.46 346.12 1052.47Q348.67 1059.49 352.50 1069.69L352.50 1069.69Q358.87 1084.99 360.79 1108.58Q362.70 1132.16 362.70 1167.86L362.70 1167.86L352.50 1929.04Q352.50 1951.99 351.22 1973.66Q349.95 1995.34 346.12 2022.11L346.12 2022.11Q346.12 2023.39 345.49 2025.94Q344.85 2028.49 344.85 2032.31L344.85 2032.31Q344.85 2060.36 370.99 2077.58Q397.12 2094.79 413.70 2094.79L413.70 2094.79Q441.75 2094.79 441.75 2053.99L441.75 2053.99L448.12 1528.69Q451.95 1538.89 462.15 1555.46L462.15 1555.46Q476.17 1577.14 498.49 1600.09Q520.80 1623.04 543.75 1640.89Q566.70 1658.74 584.55 1658.74L584.55 1658.74Q588.37 1658.74 605.59 1653.64Q622.80 1648.54 638.74 1623.04Q654.67 1597.54 654.67 1540.16L654.67 1540.16Q654.67 1527.41 653.40 1513.39L653.40 1513.39Q654.67 1517.21 655.95 1522.31L655.95 1522.31Q662.32 1540.16 677.62 1556.74Q692.92 1573.31 722.25 1573.31L722.25 1573.31Q727.35 1573.31 733.09 1572.68Q738.82 1572.04 743.92 1570.76L743.92 1570.76L775.80 1565.66Q747.75 1603.91 731.17 1628.78Q714.60 1653.64 709.50 1665.11Q704.40 1676.59 704.40 1689.34L704.40 1689.34Q704.40 1714.84 738.82 1736.51L738.82 1736.51Q745.20 1740.34 760.50 1751.18Q775.80 1762.01 788.55 1771.58Q801.30 1781.14 801.30 1783.69L801.30 1783.69L771.97 1818.11Q742.65 1851.26 700.57 1889.51L700.57 1889.51Q644.47 1892.06 616.42 1898.44Q588.37 1904.81 579.45 1914.38Q570.52 1923.94 570.52 1936.69L570.52 1936.69Q570.52 1940.51 571.16 1945.61Q571.80 1950.71 573.07 1957.09L573.07 1957.09Q583.27 1988.96 610.05 1988.96L610.05 1988.96Q620.25 1988.96 633.00 1985.14L633.00 1985.14Q653.40 1978.76 673.80 1975.58Q694.20 1972.39 714.60 1972.39L714.60 1972.39Q750.30 1972.39 784.72 1980.04L784.72 1980.04Q930.07 2011.91 1093.91 2032.95Q1257.75 2053.99 1414.57 2070.56ZM1052.47 1768.39L1238.63 1760.74L1238.63 1849.99Q1223.32 1843.61 1201.01 1837.24Q1178.70 1830.86 1157.02 1821.94L1157.02 1821.94Q1132.80 1810.46 1122.60 1810.46L1122.60 1810.46Q1104.75 1810.46 1104.75 1825.76Q1104.75 1841.06 1125.79 1862.74Q1146.82 1884.41 1175.51 1904.18Q1204.20 1923.94 1230.97 1937.96Q1257.75 1951.99 1270.50 1951.99L1270.50 1951.99Q1274.32 1951.99 1287.07 1947.53Q1299.82 1943.06 1312.57 1928.40Q1325.32 1913.74 1325.32 1884.41L1325.32 1884.41Q1325.32 1874.21 1324.05 1862.74Q1322.77 1851.26 1322.77 1841.06L1322.77 1841.06L1318.95 1518.49Q1318.95 1514.66 1320.86 1510.20Q1322.77 1505.74 1322.77 1499.36L1322.77 1499.36Q1322.77 1486.61 1310.02 1469.40Q1297.27 1452.19 1264.12 1452.19L1264.12 1452.19L1252.65 1452.19L1052.47 1462.39Q993.82 1445.81 977.25 1445.81L977.25 1445.81Q959.40 1445.81 959.40 1459.84L959.40 1459.84Q959.40 1464.94 961.95 1471.31Q964.50 1477.69 968.32 1485.34Q972.15 1492.99 973.42 1505.74Q974.70 1518.49 974.70 1540.16L974.70 1540.16L968.32 1816.84Q968.32 1829.59 967.05 1843.61Q965.77 1857.64 961.95 1875.49L961.95 1875.49Q960.67 1880.59 960.67 1888.24L960.67 1888.24Q960.67 1911.19 984.26 1923.94Q1007.85 1936.69 1023.15 1936.69L1023.15 1936.69Q1039.72 1936.69 1044.82 1925.85Q1049.92 1915.01 1049.92 1903.54L1049.92 1903.54L1052.47 1768.39ZM1097.10 1290.26L1111.13 1288.99L1109.85 1345.09L1018.05 1351.46L1006.57 1351.46Q987.45 1351.46 978.52 1350.19L978.52 1350.19Q986.17 1342.54 1002.75 1317.68Q1019.32 1292.81 1028.25 1277.51L1028.25 1277.51L1033.35 1281.34Q1039.72 1288.99 1049.92 1290.26Q1060.13 1291.54 1070.32 1291.54L1070.32 1291.54Q1076.70 1291.54 1083.71 1290.90Q1090.72 1290.26 1097.10 1290.26L1097.10 1290.26ZM838.27 1385.89L838.27 1385.89Q838.27 1374.41 817.87 1349.55Q797.47 1324.69 770.06 1297.91Q742.65 1271.14 717.79 1250.74Q692.92 1230.34 680.17 1230.34L680.17 1230.34Q668.70 1230.34 652.12 1246.91Q635.55 1263.49 635.55 1276.24L635.55 1276.24Q635.55 1287.71 653.40 1303.01L653.40 1303.01Q676.35 1323.41 703.12 1354.01Q729.90 1384.61 750.30 1412.66L750.30 1412.66Q768.15 1435.61 783.45 1435.61L783.45 1435.61Q789.82 1435.61 802.57 1429.24Q815.32 1422.86 826.80 1410.75Q838.27 1398.64 838.27 1385.89ZM828.07 1271.14L828.07 1271.14Q842.10 1271.14 863.14 1253.93Q884.17 1236.71 884.17 1223.33Q884.17 1209.94 865.69 1184.44Q847.20 1158.94 821.70 1132.16Q796.20 1105.39 772.61 1084.99Q749.02 1064.59 736.27 1064.59Q723.52 1064.59 707.59 1076.70Q691.65 1088.81 691.65 1104.11L691.65 1104.11Q691.65 1114.31 703.12 1129.61L703.12 1129.61Q724.80 1152.56 750.94 1185.08Q777.07 1217.59 794.92 1244.36L794.92 1244.36Q811.50 1271.14 828.07 1271.14ZM1028.25 1424.14L1361.02 1405.01L1364.85 1405.01Q1400.55 1401.19 1400.55 1380.79L1400.55 1380.79Q1400.55 1370.59 1389.07 1357.20Q1377.60 1343.81 1362.94 1334.25Q1348.27 1324.69 1336.80 1324.69L1336.80 1324.69Q1330.42 1324.69 1322.77 1328.51L1322.77 1328.51Q1315.13 1331.06 1303.01 1332.97Q1290.90 1334.89 1279.42 1336.16L1279.42 1336.16L1191.45 1341.26L1192.72 1285.16L1289.62 1278.79Q1325.32 1274.96 1325.32 1257.11L1325.32 1257.11Q1325.32 1246.91 1313.85 1232.89Q1302.37 1218.86 1287.07 1209.30Q1271.77 1199.74 1259.02 1199.74L1259.02 1199.74Q1255.20 1199.74 1252.01 1200.38Q1248.82 1201.01 1246.27 1202.29L1246.27 1202.29Q1236.07 1206.11 1225.88 1208.03Q1215.67 1209.94 1206.75 1211.21L1206.75 1211.21L1083.07 1218.86Q1079.25 1218.86 1075.42 1219.50Q1071.60 1220.14 1066.50 1220.14Q1061.40 1220.14 1057.57 1218.86L1057.57 1218.86L1061.40 1218.86Q1062.67 1215.04 1070.96 1198.46Q1079.25 1181.89 1084.35 1170.41L1084.35 1170.41L1362.30 1153.84Q1398 1150.01 1398 1129.61L1398 1129.61Q1398 1119.41 1387.16 1106.66Q1376.32 1093.91 1361.02 1083.08Q1345.72 1072.24 1330.42 1072.24L1330.42 1072.24Q1321.50 1072.24 1316.40 1073.51L1316.40 1073.51Q1304.92 1077.34 1294.09 1078.61Q1283.25 1079.89 1271.77 1081.16L1271.77 1081.16L1117.50 1090.09Q1121.32 1081.16 1128.97 1060.13Q1136.63 1039.09 1143 1017.41L1143 1017.41Q1144.27 1013.59 1144.27 1005.94L1144.27 1005.94Q1144.27 989.36 1127.70 976.61Q1111.13 963.86 1092 955.57Q1072.88 947.29 1061.40 947.29L1061.40 947.29Q1042.27 947.29 1042.27 966.41L1042.27 966.41Q1042.27 975.34 1043.55 980.44L1043.55 980.44Q1047.38 990.64 1047.38 1004.66L1047.38 1004.66Q1047.38 1016.14 1043.55 1028.89L1043.55 1028.89Q1038.45 1046.74 1033.35 1065.22Q1028.25 1083.71 1024.42 1096.46L1024.42 1096.46L956.85 1100.29L947.92 1100.29Q922.42 1100.29 898.20 1093.91L898.20 1093.91Q893.10 1092.64 885.45 1092.64L885.45 1092.64Q870.15 1092.64 870.15 1106.66L870.15 1106.66Q870.15 1113.04 879.07 1132.16Q888.00 1151.29 903.30 1166.59L903.30 1166.59Q909.67 1174.24 923.70 1175.51Q937.72 1176.79 953.02 1176.79L953.02 1176.79L969.60 1176.79L993.82 1175.51Q937.72 1304.29 843.37 1416.49L843.37 1416.49Q834.45 1427.96 829.35 1438.16Q824.25 1448.36 824.25 1454.74L824.25 1454.74Q824.25 1470.04 839.55 1470.04L839.55 1470.04Q856.12 1470.04 889.91 1440.71Q923.70 1411.39 945.37 1388.44L945.37 1388.44Q955.57 1410.11 973.42 1417.13Q991.27 1424.14 1012.95 1424.14L1012.95 1424.14L1028.25 1424.14ZM448.12 1512.11L448.12 1512.11L453.22 1128.34L561.60 1120.69Q532.27 1190.81 483.82 1269.86L483.82 1269.86Q471.07 1290.26 471.07 1306.84L471.07 1306.84Q471.07 1325.96 487.65 1346.36L487.65 1346.36Q513.15 1375.69 540.56 1422.22Q567.97 1468.76 567.97 1521.04L567.97 1521.04Q567.97 1532.51 566.06 1544.63Q564.15 1556.74 562.87 1556.74L562.87 1556.74L561.60 1556.74Q550.12 1551.64 533.55 1542.71Q516.97 1533.79 501.67 1523.59L501.67 1523.59Q476.17 1505.74 462.15 1505.74L462.15 1505.74Q451.95 1505.74 448.12 1512.11ZM1556.10 2008.09L1556.10 2008.09Q1561.20 2008.09 1587.34 1985.14Q1613.47 1962.19 1651.09 1904.81Q1688.70 1847.44 1729.50 1744.16L1729.50 1744.16Q1732.05 1737.79 1733.33 1732.69Q1734.60 1727.59 1734.60 1722.49L1734.60 1722.49Q1734.60 1707.19 1716.11 1694.44Q1697.63 1681.69 1677.22 1673.40Q1656.83 1665.11 1649.17 1665.11L1649.17 1665.11Q1627.50 1665.11 1627.50 1685.51L1627.50 1685.51Q1627.50 1693.16 1630.05 1698.26L1630.05 1698.26Q1631.33 1700.81 1631.33 1705.28Q1631.33 1709.74 1631.33 1716.11L1631.33 1716.11Q1631.33 1739.06 1622.40 1772.21Q1613.47 1805.36 1600.09 1841.70Q1586.70 1878.04 1574.59 1908.64Q1562.47 1939.24 1552.91 1959Q1543.35 1978.76 1543.35 1992.79L1543.35 1992.79Q1543.35 2008.09 1556.10 2008.09ZM2003.63 1864.01L2003.63 1864.01Q2003.63 1855.09 1992.15 1805.36L1992.15 1805.36Q1989.60 1795.16 1985.78 1783.69L1985.78 1783.69Q1990.88 1786.24 1999.80 1786.24L1999.80 1786.24Q2011.28 1786.24 2059.09 1770.30Q2106.90 1754.36 2178.94 1717.39Q2250.97 1680.41 2322.38 1624.31L2322.38 1624.31Q2330.03 1644.71 2336.40 1674.04L2336.40 1674.04Q2249.70 1755.64 2157.90 1817.48Q2066.10 1879.31 1960.28 1936.69L1960.28 1936.69Q1927.13 1953.26 1927.13 1969.84L1927.13 1969.84Q1927.13 1983.86 1947.53 1983.86L1947.53 1983.86Q1965.38 1983.86 2026.58 1962.83Q2087.78 1941.79 2176.39 1893.98Q2265 1846.16 2350.43 1776.04L2350.43 1776.04Q2352.98 1807.91 2352.98 1855.09L2352.98 1855.09Q2352.98 1894.61 2349.79 1929.68Q2346.60 1964.74 2340.23 1991.51L2340.23 1991.51Q2301.98 1978.76 2269.46 1964.74Q2236.95 1950.71 2203.80 1934.14L2203.80 1934.14Q2180.85 1922.66 2166.19 1922.66Q2151.53 1922.66 2151.53 1935.41Q2151.53 1948.16 2168.74 1967.93Q2185.95 1987.69 2211.45 2010.64Q2236.95 2033.59 2265.64 2053.99Q2294.32 2074.39 2319.19 2088.41Q2344.05 2102.44 2360.63 2102.44L2360.63 2102.44Q2389.95 2102.44 2415.45 2059.09L2415.45 2059.09Q2429.48 2034.86 2434.57 1987.69Q2439.68 1940.51 2439.68 1874.21Q2439.68 1807.91 2434.57 1767.11L2434.57 1767.11Q2485.58 1820.66 2544.23 1869.75Q2602.88 1918.84 2643.04 1945.61Q2683.20 1972.39 2692.13 1972.39L2692.13 1972.39Q2703.60 1972.39 2718.90 1962.19Q2734.20 1951.99 2746.95 1937.96Q2759.70 1923.94 2759.70 1915.01L2759.70 1915.01Q2759.70 1899.71 2736.75 1889.51L2736.75 1889.51Q2674.28 1851.26 2622.64 1816.20Q2571 1781.14 2521.28 1739.70Q2471.55 1698.26 2421.82 1648.54L2421.82 1648.54Q2438.40 1639.61 2472.19 1619.21Q2505.98 1598.81 2538.49 1576.50Q2571 1554.19 2593.95 1534.43Q2616.90 1514.66 2616.90 1501.91L2616.90 1501.91Q2616.90 1487.89 2606.06 1469.40Q2595.23 1450.91 2581.84 1435.61Q2568.45 1420.31 2556.98 1420.31L2556.98 1420.31Q2541.68 1420.31 2539.13 1439.44L2539.13 1439.44Q2536.57 1450.91 2525.74 1468.13Q2514.90 1485.34 2483.03 1513.39Q2451.15 1541.44 2392.50 1579.69L2392.50 1579.69Q2381.03 1550.36 2361.26 1518.49Q2341.50 1486.61 2321.10 1464.94L2321.10 1464.94Q2331.30 1457.29 2347.88 1442.63Q2364.45 1427.96 2378.48 1415.21L2378.48 1415.21L2661.53 1398.64Q2704.88 1396.09 2704.88 1375.69L2704.88 1375.69Q2704.88 1369.31 2695.95 1355.29Q2687.03 1341.26 2672.36 1327.88Q2657.70 1314.49 2639.85 1314.49L2639.85 1314.49Q2636.03 1314.49 2632.20 1315.13Q2628.38 1315.76 2624.55 1317.04L2624.55 1317.04Q2613.07 1320.86 2602.88 1322.14Q2592.68 1323.41 2579.93 1324.69L2579.93 1324.69L2449.88 1331.06Q2458.80 1314.49 2477.29 1273.69Q2495.78 1232.89 2512.35 1194Q2528.93 1155.11 2539.76 1128.34Q2550.60 1101.56 2550.60 1099.01L2550.60 1099.01Q2550.60 1079.89 2528.93 1065.22Q2507.25 1050.56 2491.95 1050.56L2491.95 1050.56Q2488.13 1050.56 2483.66 1051.20Q2479.20 1051.84 2474.10 1051.84L2474.10 1051.84L2262.45 1065.86L2281.57 1025.06Q2284.13 1018.69 2286.68 1011.04Q2289.23 1003.39 2289.23 997.01L2289.23 997.01Q2289.23 974.06 2257.35 958.76L2257.35 958.76Q2220.38 938.36 2203.80 938.36L2203.80 938.36Q2185.95 938.36 2185.95 956.21L2185.95 956.21Q2185.95 958.76 2186.59 962.59Q2187.22 966.41 2188.50 970.24L2188.50 970.24Q2192.32 977.89 2192.32 989.36L2192.32 989.36Q2192.32 1004.66 2184.68 1021.24L2184.68 1021.24L2110.72 1195.91Q2103.07 1211.21 2096.06 1220.14Q2089.05 1229.06 2089.05 1240.54L2089.05 1240.54Q2089.05 1243.09 2095.43 1258.39Q2101.80 1273.69 2110.72 1286.44L2110.72 1286.44Q2118.38 1299.19 2134.95 1299.19L2134.95 1299.19Q2146.43 1299.19 2158.54 1296Q2170.65 1292.81 2183.40 1291.54L2183.40 1291.54L2381.03 1280.06Q2379.75 1283.89 2370.19 1302.38Q2360.63 1320.86 2351.70 1337.44L2351.70 1337.44L2049.53 1355.29L2036.78 1355.29Q2026.58 1355.29 2015.74 1354.01Q2004.90 1352.74 1994.70 1350.19L1994.70 1350.19Q1989.60 1348.91 1983.22 1348.91L1983.22 1348.91Q1966.65 1348.91 1966.65 1365.49L1966.65 1365.49Q1966.65 1369.31 1969.84 1385.89Q1973.03 1402.46 1988.96 1417.76Q2004.90 1433.06 2036.78 1433.06L2036.78 1433.06L2057.18 1433.06L2245.88 1422.86Q2214 1450.91 2164.91 1484.70Q2115.82 1518.49 2041.88 1558.01L2041.88 1558.01Q2011.28 1573.31 2011.28 1588.61L2011.28 1588.61Q2011.28 1586.06 2010 1584.79L2010 1584.79Q2001.08 1561.84 1987.69 1533.15Q1974.30 1504.46 1961.55 1479.60Q1948.80 1454.74 1941.15 1439.44L1941.15 1439.44Q1928.40 1417.76 1911.19 1417.76Q1893.97 1417.76 1876.13 1427.33Q1858.28 1436.89 1858.28 1453.46L1858.28 1453.46Q1858.28 1462.39 1864.65 1472.59L1864.65 1472.59Q1878.67 1496.81 1887.60 1519.76L1887.60 1519.76Q1853.17 1524.86 1811.74 1529.96Q1770.30 1535.06 1749.90 1537.61L1749.90 1537.61Q1766.47 1518.49 1800.26 1477.05Q1834.05 1435.61 1867.20 1391.63Q1900.35 1347.64 1928.40 1308.11Q1956.45 1268.59 1973.66 1239.26Q1990.88 1209.94 1990.88 1198.46L1990.88 1198.46Q1990.88 1183.16 1974.30 1169.14Q1957.72 1155.11 1937.96 1144.91Q1918.20 1134.71 1905.45 1134.71L1905.45 1134.71Q1883.78 1134.71 1883.78 1158.94L1883.78 1158.94L1883.78 1164.04Q1885.05 1167.86 1885.05 1171.05Q1885.05 1174.24 1885.05 1178.06L1885.05 1178.06Q1885.05 1188.26 1879.95 1202.92Q1874.85 1217.59 1857 1247.55Q1839.15 1277.51 1807.28 1323.41L1807.28 1323.41Q1793.25 1310.66 1773.49 1295.36Q1753.72 1280.06 1739.70 1269.86L1739.70 1269.86Q1785.60 1204.84 1814.92 1148.10Q1844.25 1091.36 1857.64 1056.94Q1871.03 1022.51 1871.03 1018.69L1871.03 1018.69Q1871.03 1003.39 1854.45 990.64Q1837.88 977.89 1818.75 968.96Q1799.63 960.04 1785.60 960.04L1785.60 960.04Q1766.47 960.04 1766.47 980.44L1766.47 980.44L1766.47 985.54Q1767.75 989.36 1767.75 993.19Q1767.75 997.01 1767.75 1000.84L1767.75 1000.84Q1767.75 1027.61 1752.45 1069.05Q1737.15 1110.49 1714.20 1153.84Q1691.25 1197.19 1675.95 1222.69L1675.95 1222.69L1665.75 1216.31Q1650.45 1204.84 1638.97 1204.84L1638.97 1204.84Q1624.95 1204.84 1614.75 1216.95Q1604.55 1229.06 1599.45 1241.81Q1594.35 1254.56 1594.35 1258.39L1594.35 1258.39Q1594.35 1272.41 1614.75 1287.71L1614.75 1287.71Q1646.63 1308.11 1682.96 1336.16Q1719.30 1364.21 1757.55 1396.09L1757.55 1396.09Q1734.60 1427.96 1704 1467.49Q1673.40 1507.01 1642.80 1546.54L1642.80 1546.54Q1637.70 1547.81 1629.41 1547.81Q1621.13 1547.81 1612.20 1547.81L1612.20 1547.81Q1602 1547.81 1593.08 1547.18Q1584.15 1546.54 1572.67 1545.26L1572.67 1545.26L1567.58 1545.26Q1548.45 1545.26 1548.45 1563.11L1548.45 1563.11Q1548.45 1569.49 1551 1573.31L1551 1573.31Q1568.85 1620.49 1589.89 1630.05Q1610.92 1639.61 1621.13 1639.61L1621.13 1639.61Q1622.40 1639.61 1629.41 1638.98Q1636.42 1638.34 1665.75 1633.88Q1695.08 1629.41 1755 1621.76L1755 1621.76L1755 1953.26Q1755 1969.84 1753.09 1986.41Q1751.17 2002.99 1748.63 2022.11L1748.63 2022.11Q1748.63 2023.39 1747.99 2025.30Q1747.35 2027.21 1747.35 2031.04L1747.35 2031.04Q1747.35 2051.44 1770.30 2072.47Q1793.25 2093.51 1816.20 2093.51L1816.20 2093.51Q1846.80 2093.51 1846.80 2057.81L1846.80 2057.81L1844.25 1606.46L1915.65 1592.44Q1916.93 1596.26 1920.75 1606.46Q1924.58 1616.66 1927.13 1626.86L1927.13 1626.86Q1934.78 1654.91 1959 1654.91L1959 1654.91Q1961.55 1654.91 1975.58 1653Q1989.60 1651.09 2004.26 1644.08Q2018.93 1637.06 2018.93 1619.21L2018.93 1619.21Q2018.93 1611.56 2015.10 1598.81L2015.10 1598.81Q2020.20 1603.91 2032.95 1603.91L2032.95 1603.91Q2054.63 1603.91 2096.70 1588.61Q2138.78 1573.31 2184.68 1550.36Q2230.57 1527.41 2256.07 1510.84L2256.07 1510.84Q2261.18 1515.94 2270.10 1528.05Q2279.03 1540.16 2284.13 1545.26L2284.13 1545.26Q2240.78 1584.79 2198.06 1618.58Q2155.35 1652.36 2110.09 1681.05Q2064.82 1709.74 2011.28 1739.06L2011.28 1739.06Q1985.78 1754.36 1980.68 1765.84L1980.68 1765.84Q1969.20 1727.59 1950.08 1680.41L1950.08 1680.41Q1941.15 1656.19 1920.75 1656.19L1920.75 1656.19Q1910.55 1656.19 1888.88 1663.20Q1867.20 1670.21 1867.20 1689.34L1867.20 1689.34Q1867.20 1695.71 1871.03 1707.19L1871.03 1707.19Q1883.78 1745.44 1893.97 1783.69Q1904.18 1821.94 1911.83 1866.56L1911.83 1866.56Q1918.20 1900.99 1947.53 1900.99L1947.53 1900.99Q1951.35 1900.99 1957.09 1900.35Q1962.83 1899.71 1969.20 1898.44L1969.20 1898.44Q1988.33 1893.34 1995.98 1885.05Q2003.63 1876.76 2003.63 1864.01ZM2197.43 1212.49L2228.03 1144.91L2440.95 1132.16Q2437.13 1141.09 2429.48 1162.76Q2421.82 1184.44 2415.45 1201.01L2415.45 1201.01L2197.43 1212.49Z"/>
  </svg>