<svg xmlns="http://www.w3.org/2000/svg" viewBox="0 0 3000 3000" width="3000" height="3000">
    <path fill="#000000" d="M847.20 1192.72L847.20 1154.47L1433.70 1154.47L1433.70 1192.72L847.20 1192.72ZM1011.67 1554.83L1011.67 1516.58L1349.55 1516.58L1349.55 1554.83L1011.67 1554.83ZM1011.67 1744.80L1011.67 1706.55L1349.55 1706.55L1349.55 1744.80L1011.67 1744.80ZM991.27 1980.68L991.27 1336.80L1345.72 1336.80L1345.72 1375.05L1028.25 1375.05L1028.25 1980.68L991.27 1980.68ZM1334.25 1929.68L1334.25 1336.80L1372.50 1336.80L1372.50 1928.40Q1372.50 1947.53 1366.76 1957.73Q1361.02 1967.93 1344.45 1973.03L1344.45 1973.03Q1329.15 1978.13 1298.55 1979.40Q1267.95 1980.68 1215.67 1980.68L1215.67 1980.68Q1214.40 1973.03 1209.94 1963.46Q1205.47 1953.90 1201.65 1946.25L1201.65 1946.25Q1243.72 1947.53 1275.60 1947.53Q1307.47 1947.53 1316.40 1947.53L1316.40 1947.53Q1334.25 1946.25 1334.25 1929.68L1334.25 1929.68ZM1094.55 996.38L1094.55 996.38L1132.80 1002.75Q1095.82 1167.22 1028.25 1296.64Q960.67 1426.05 862.50 1515.30L862.50 1515.30Q858.67 1512.75 852.30 1508.29Q845.92 1503.83 840.19 1499.36Q834.45 1494.90 829.35 1492.35L829.35 1492.35Q928.80 1408.20 995.10 1280.70Q1061.40 1153.20 1094.55 996.38ZM337.20 2143.88L337.20 1051.20L587.10 1051.20L587.10 1088.17L375.45 1088.17L375.45 2143.88L337.20 2143.88ZM578.17 1058.85L578.17 1051.20L583.27 1051.20L590.92 1048.65L615.15 1063.95Q598.57 1113.67 580.09 1169.14Q561.60 1224.60 541.84 1281.97Q522.07 1339.35 501.67 1392.90L501.67 1392.90Q565.42 1478.33 587.10 1549.72Q608.77 1621.13 608.77 1683.60L608.77 1683.60Q608.77 1723.13 600.49 1760.10Q592.20 1797.08 573.07 1812.38L573.07 1812.38Q562.87 1821.30 549.49 1824.49Q536.10 1827.68 522.07 1830.23L522.07 1830.23Q487.65 1834.05 451.95 1830.23L451.95 1830.23Q450.67 1823.85 447.49 1813.65Q444.30 1803.45 437.92 1794.53L437.92 1794.53Q459.60 1797.08 478.72 1797.71Q497.85 1798.35 511.87 1797.08L511.87 1797.08Q522.07 1795.80 531.64 1793.25Q541.20 1790.70 548.85 1785.60L548.85 1785.60Q562.87 1774.13 568.61 1744.16Q574.35 1714.20 574.35 1683.60L574.35 1683.60Q574.35 1624.95 552.04 1554.19Q529.72 1483.43 462.15 1398L462.15 1398Q480.00 1353.38 496.57 1308.11Q513.15 1262.85 527.81 1218.86Q542.47 1174.88 555.22 1134.08Q567.97 1093.28 578.17 1058.85L578.17 1058.85ZM635.55 1126.42L635.55 1126.42L661.05 1111.13Q701.85 1154.47 743.92 1208.66Q786.00 1262.85 806.40 1301.10L806.40 1301.10L779.62 1320.22Q759.22 1279.42 717.79 1224.60Q676.35 1169.78 635.55 1126.42ZM617.70 1498.72L797.47 1498.72L797.47 1957.73L760.50 1957.73L760.50 1535.70L617.70 1535.70L617.70 1498.72ZM775.80 1934.78L775.80 1934.78Q808.95 1934.78 834.45 1959.64Q859.95 1984.50 907.12 2017.65L907.12 2017.65Q958.12 2054.63 1015.50 2069.29Q1072.88 2083.95 1153.20 2083.95L1153.20 2083.95Q1196.55 2083.95 1248.19 2082.68Q1299.82 2081.40 1351.46 2078.21Q1403.10 2075.03 1445.17 2072.47L1445.17 2072.47Q1442.63 2076.30 1440.07 2082.68Q1437.52 2089.05 1436.25 2096.06Q1434.97 2103.08 1433.70 2109.45L1433.70 2109.45Q1413.30 2110.72 1377.60 2112Q1341.90 2113.28 1300.46 2114.55Q1259.02 2115.83 1220.14 2116.46Q1181.25 2117.10 1151.92 2117.10L1151.92 2117.10Q1066.50 2117.10 1004.02 2100.53Q941.55 2083.95 888.00 2041.88L888.00 2041.88Q853.57 2016.38 825.52 1990.24Q797.47 1964.10 775.80 1964.10L775.80 1964.10Q757.95 1964.10 733.09 1985.78Q708.22 2007.45 679.54 2044.43Q650.85 2081.40 620.25 2128.58L620.25 2128.58L592.20 2104.35Q644.47 2030.40 689.74 1982.59Q735.00 1934.78 775.80 1934.78ZM1955.18 1452.83L1955.18 1415.85L2709.98 1415.85L2709.98 1452.83L1955.18 1452.83ZM2137.50 1126.42L2137.50 1088.17L2532.75 1088.17L2532.75 1126.42L2137.50 1126.42ZM2089.05 1301.10L2089.05 1264.13L2505.98 1264.13L2505.98 1301.10L2089.05 1301.10ZM2350.43 1423.50L2350.43 1423.50L2384.85 1437.53Q2335.13 1483.43 2267.55 1525.50Q2199.97 1567.58 2125.39 1602.64Q2050.80 1637.70 1981.95 1664.47L1981.95 1664.47Q1980.68 1660.65 1975.58 1654.91Q1970.47 1649.18 1964.74 1643.44Q1959 1637.70 1953.90 1635.15L1953.90 1635.15Q2025.30 1609.65 2098.61 1577.14Q2171.93 1544.63 2237.59 1505.74Q2303.25 1466.85 2350.43 1423.50ZM2222.93 1543.35L2222.93 1543.35L2247.15 1524.22Q2310.90 1576.50 2351.70 1644.08Q2392.50 1711.65 2412.26 1783.69Q2432.03 1855.73 2433.94 1921.39Q2435.85 1987.05 2421.82 2037.41Q2407.80 2087.78 2378.48 2110.72L2378.48 2110.72Q2358.07 2131.13 2335.76 2136.86Q2313.45 2142.60 2282.85 2142.60L2282.85 2142.60Q2266.28 2142.60 2242.69 2141.96Q2219.10 2141.33 2193.60 2140.05L2193.60 2140.05Q2192.32 2133.68 2189.78 2122.84Q2187.22 2112 2183.40 2104.35L2183.40 2104.35Q2211.45 2106.90 2236.31 2108.18Q2261.18 2109.45 2276.48 2109.45L2276.48 2109.45Q2298.15 2109.45 2316.64 2106.26Q2335.13 2103.08 2351.70 2089.05L2351.70 2089.05Q2375.93 2069.93 2388.04 2024.03Q2400.15 1978.13 2398.24 1916.93Q2396.32 1855.73 2377.84 1788.79Q2359.35 1721.85 2321.10 1657.46Q2282.85 1593.08 2222.93 1543.35ZM2324.93 1640.25L2324.93 1640.25L2355.53 1659.38Q2317.28 1695.08 2259.90 1732.69Q2202.53 1770.30 2138.78 1802.18Q2075.03 1834.05 2016.38 1855.73L2016.38 1855.73Q2012.55 1848.08 2005.54 1837.88Q1998.53 1827.68 1990.88 1822.58L1990.88 1822.58Q2048.25 1804.73 2111.36 1774.76Q2174.47 1744.80 2231.21 1709.74Q2287.95 1674.68 2324.93 1640.25ZM2386.13 1785.60L2386.13 1785.60L2416.73 1804.73Q2370.82 1862.10 2298.79 1918.84Q2226.75 1975.58 2145.15 2022.11Q2063.55 2068.65 1984.50 2097.97L1984.50 2097.97Q1981.95 2089.05 1974.94 2080.13Q1967.93 2071.20 1960.28 2064.83L1960.28 2064.83Q2038.05 2039.33 2119.65 1994.70Q2201.25 1950.08 2272.01 1895.25Q2342.78 1840.43 2386.13 1785.60ZM2518.73 1095.83L2518.73 1088.17L2523.83 1088.17L2531.48 1084.35L2556.98 1090.72Q2549.32 1137.90 2537.85 1197.83Q2526.38 1257.75 2514.26 1318.31Q2502.15 1378.88 2489.40 1431.15L2489.40 1431.15L2453.70 1426.05Q2466.45 1375.05 2478.56 1312.58Q2490.68 1250.10 2501.51 1191.45Q2512.35 1132.80 2518.73 1095.83L2518.73 1095.83ZM2638.57 1543.35L2638.57 1543.35L2669.18 1566.30Q2628.38 1594.35 2576.74 1623.04Q2525.10 1651.72 2472.82 1677.23Q2420.55 1702.73 2374.65 1721.85L2374.65 1721.85L2350.43 1700.18Q2395.05 1679.78 2447.96 1652.36Q2500.88 1624.95 2551.88 1596.26Q2602.88 1567.58 2638.57 1543.35ZM2479.20 1654.28L2511.08 1645.35Q2527.65 1730.78 2556.98 1810.46Q2586.30 1890.15 2627.10 1952.63Q2667.90 2015.10 2718.90 2050.80L2718.90 2050.80Q2711.25 2055.90 2703.60 2064.83Q2695.95 2073.75 2689.57 2080.13L2689.57 2080.13Q2638.57 2039.33 2597.14 1973.66Q2555.70 1908 2526.38 1825.13Q2497.05 1742.25 2479.20 1654.28L2479.20 1654.28ZM2143.88 996.38L2143.88 996.38L2183.40 1001.47Q2173.20 1049.92 2159.81 1104.75Q2146.43 1159.58 2132.40 1211.21Q2118.38 1262.85 2106.90 1301.10L2106.90 1301.10L2068.65 1301.10Q2081.40 1260.30 2094.79 1207.39Q2108.18 1154.47 2120.93 1099.01Q2133.68 1043.55 2143.88 996.38ZM1586.70 1807.28L1586.70 1807.28Q1586.70 1802.18 1584.15 1795.16Q1581.60 1788.15 1579.05 1780.50Q1576.50 1772.85 1573.95 1767.75L1573.95 1767.75Q1590.53 1765.20 1612.84 1741.61Q1635.15 1718.03 1663.20 1682.33L1663.20 1682.33Q1677.22 1664.47 1707.19 1623.68Q1737.15 1582.88 1774.76 1527.41Q1812.38 1471.95 1851.90 1407.56Q1891.43 1343.18 1923.30 1278.15L1923.30 1278.15L1957.72 1294.72Q1881.22 1429.88 1794.53 1558.01Q1707.83 1686.15 1619.85 1781.78L1619.85 1781.78L1619.85 1781.78Q1619.85 1781.78 1614.75 1784.33Q1609.65 1786.88 1603.28 1790.70Q1596.90 1794.53 1591.80 1798.99Q1586.70 1803.45 1586.70 1807.28ZM1586.70 1807.28L1586.70 1807.28L1586.70 1771.58L1613.47 1749.90L1934.78 1670.85Q1936.05 1678.50 1937.33 1688.06Q1938.60 1697.63 1939.88 1702.73L1939.88 1702.73Q1826.40 1733.33 1759.46 1751.18Q1692.53 1769.03 1657.46 1779.86Q1622.40 1790.70 1608.38 1796.44Q1594.35 1802.18 1586.70 1807.28ZM1579.05 1505.10L1579.05 1505.10Q1579.05 1500 1576.50 1492.99Q1573.95 1485.97 1571.40 1478.96Q1568.85 1471.95 1566.30 1468.13L1566.30 1468.13Q1581.60 1465.58 1600.09 1442.63Q1618.58 1419.68 1641.53 1386.53L1641.53 1386.53Q1653 1368.68 1677.22 1330.43Q1701.45 1292.17 1731.41 1239.90Q1761.38 1187.63 1792.61 1127.70Q1823.85 1067.78 1849.35 1007.85L1849.35 1007.85L1879.95 1023.15Q1840.42 1107.30 1796.44 1189.54Q1752.45 1271.78 1705.91 1345.72Q1659.38 1419.68 1610.92 1479.60L1610.92 1479.60L1610.92 1480.88Q1610.92 1480.88 1605.83 1482.79Q1600.72 1484.70 1594.99 1488.53Q1589.25 1492.35 1584.15 1496.81Q1579.05 1501.28 1579.05 1505.10ZM1579.05 1505.10L1579.05 1505.10L1579.05 1470.68L1607.10 1452.83L1853.17 1422.22Q1851.90 1429.88 1852.54 1440.08Q1853.17 1450.28 1854.45 1455.38L1854.45 1455.38Q1769.03 1468.13 1716.75 1476.41Q1664.47 1484.70 1637.06 1489.80Q1609.65 1494.90 1597.54 1498.09Q1585.42 1501.28 1579.05 1505.10ZM1576.50 2043.15L1566.30 2007.45Q1616.03 1990.88 1678.50 1968.56Q1740.97 1946.25 1812.38 1920.75Q1883.78 1895.25 1956.45 1869.75L1956.45 1869.75L1961.55 1904.18Q1858.28 1941.15 1756.91 1978.13Q1655.55 2015.10 1576.50 2043.15L1576.50 2043.15Z"/>
  </svg>