<svg xmlns="http://www.w3.org/2000/svg" viewBox="0 0 3000 3000" width="3000" height="3000">
    <path fill="#000000" d="M657.22 1271.78L657.22 1271.78Q664.87 1265.40 694.84 1265.40Q724.80 1265.40 740.10 1279.42L740.10 1279.42Q751.57 1288.35 754.12 1296Q756.67 1303.65 756.67 1326.60L756.67 1326.60Q756.67 1355.92 748.39 1368.67Q740.10 1381.42 717.15 1383.97L717.15 1383.97Q701.85 1385.25 696.11 1383.34Q690.37 1381.42 678.90 1367.40L678.90 1367.40Q657.22 1336.80 650.21 1308.11Q643.20 1279.42 657.22 1271.78ZM953.02 991.27L953.02 991.27Q969.60 990.00 973.42 988.72L973.42 988.72Q986.17 986.17 1008.49 1008.49Q1030.80 1030.80 1030.80 1046.10L1030.80 1046.10Q1030.80 1060.13 1011.67 1095.82L1011.67 1095.82Q984.90 1145.55 997.65 1151.92L997.65 1151.92Q1000.20 1155.75 1095.82 1150.01Q1191.45 1144.27 1205.47 1148.10L1205.47 1148.10Q1229.70 1153.20 1251.37 1195.27L1251.37 1195.27Q1257.75 1209.30 1257.75 1212.49Q1257.75 1215.67 1251.37 1223.32L1251.37 1223.32Q1228.42 1243.72 1181.25 1232.25L1181.25 1232.25Q1158.30 1224.60 1095.82 1223.96Q1033.35 1223.32 995.10 1228.42L995.10 1228.42Q964.50 1234.80 962.59 1234.80Q960.67 1234.80 960.67 1239.26Q960.67 1243.72 942.82 1281.97L942.82 1281.97Q917.32 1338.07 931.35 1338.07L931.35 1338.07Q932.62 1338.07 936.45 1336.80L936.45 1336.80Q972.15 1325.32 1019.96 1324.05Q1067.77 1322.78 1094.55 1330.42L1094.55 1330.42Q1116.22 1338.07 1132.80 1341.26Q1149.38 1344.45 1159.57 1354.65L1159.57 1354.65Q1164.67 1363.57 1165.31 1386.53Q1165.95 1409.47 1162.13 1512.75L1162.13 1512.75Q1157.02 1661.92 1159.57 1747.35L1159.57 1747.35Q1162.13 1806 1160.85 1822.58Q1159.57 1839.15 1150.65 1855.72L1150.65 1855.72Q1139.17 1878.67 1139.17 1881.86Q1139.17 1885.05 1127.70 1895.25Q1116.22 1905.45 1120.05 1908Q1123.88 1910.55 1219.50 1905.45L1219.50 1905.45Q1361.02 1897.80 1386.52 1897.80Q1412.02 1897.80 1424.77 1908L1424.77 1908L1441.35 1920.75L1429.88 1934.78Q1419.67 1948.80 1382.70 1976.85L1382.70 1976.85Q1312.57 2030.40 1298.55 2052.07L1298.55 2052.07Q1288.35 2069.93 1269.22 2075.66Q1250.10 2081.40 1205.47 2078.85L1205.47 2078.85Q1121.32 2077.57 1094.55 2057.18L1094.55 2057.18Q1089.45 2052.07 1039.72 2035.50L1039.72 2035.50Q849.75 1971.75 756.67 1919.47L756.67 1919.47Q712.05 1893.97 678.90 1888.88L678.90 1888.88Q658.50 1883.78 648.94 1885.05Q639.37 1886.33 620.25 1896.53L620.25 1896.53Q590.92 1910.55 570.52 1910.55L570.52 1910.55Q559.05 1910.55 553.95 1907.36Q548.85 1904.17 545.02 1892.70L545.02 1892.70Q533.55 1865.92 538.65 1855.72Q543.75 1845.53 574.35 1831.50L574.35 1831.50Q612.60 1814.92 649.57 1812.38L649.57 1812.38L686.55 1808.55L675.07 1785.60Q657.22 1744.80 650.21 1686.15Q643.20 1627.50 652.12 1585.42L652.12 1585.42Q659.77 1559.92 656.59 1556.10Q653.40 1552.28 617.06 1573.95Q580.72 1595.63 575.62 1595.63Q570.52 1595.63 552.67 1609.01Q534.82 1622.40 519.52 1622.40L519.52 1622.40Q506.77 1622.40 494.66 1610.92Q482.55 1599.45 455.77 1559.92L455.77 1559.92Q429.00 1522.95 423.90 1522.95L423.90 1522.95Q414.97 1521.67 411.79 1567.57Q408.60 1613.47 407.32 1772.85L407.32 1772.85Q407.32 1923.30 406.05 1959Q404.77 1994.70 395.85 2012.55L395.85 2012.55Q388.20 2036.78 377.36 2038.69Q366.52 2040.60 348.67 2025.30L348.67 2025.30Q330.82 2010 321.26 1977.49Q311.70 1944.97 297.67 1916.92L297.67 1916.92L283.65 1888.88L295.12 1878.67Q307.87 1868.47 311.70 1822.58Q315.52 1776.67 320.62 1750.54Q325.72 1724.40 330.19 1674.67Q334.65 1624.95 338.47 1612.20Q342.30 1599.45 348.67 1489.80L348.67 1489.80Q361.42 1228.42 389.47 1209.30L389.47 1209.30Q398.40 1202.92 402.86 1205.47Q407.32 1208.02 421.35 1224.60L421.35 1224.60Q439.20 1242.45 441.11 1255.20Q443.02 1267.95 434.10 1311.30L434.10 1311.30Q431.55 1326.60 426.45 1365.49Q421.35 1404.38 416.25 1420.95L416.25 1420.95Q408.60 1449 424.54 1463.66Q440.47 1478.32 473.62 1471.95L473.62 1471.95Q491.47 1470.67 506.14 1459.84Q520.80 1449 520.80 1441.35L520.80 1441.35Q520.80 1433.70 529.72 1419.67L529.72 1419.67Q550.12 1378.88 506.77 1341.90L506.77 1341.90Q496.57 1332.97 495.30 1325.32Q494.02 1317.67 494.02 1292.17L494.02 1292.17Q495.30 1252.65 500.40 1247.55Q505.50 1242.45 505.50 1234.80Q505.50 1227.15 528.45 1204.20L528.45 1204.20Q545.02 1187.63 571.16 1141.09Q597.30 1094.55 593.47 1088.17L593.47 1088.17Q588.37 1085.63 548.21 1104.75Q508.05 1123.88 501.67 1123.88L501.67 1123.88Q496.57 1123.88 462.79 1137.26Q429.00 1150.65 407.32 1162.13L407.32 1162.13Q394.57 1168.50 385.65 1176.79Q376.72 1185.07 352.50 1201.01Q328.27 1216.95 321.90 1220.77L321.90 1220.77Q311.70 1224.60 301.50 1213.13Q291.30 1201.65 288.75 1183.80L288.75 1183.80Q286.20 1162.13 297.67 1151.92L297.67 1151.92Q312.97 1137.90 356.32 1116.86Q399.67 1095.82 440.47 1083.07L440.47 1083.07Q594.75 1034.63 611.32 1034.63L611.32 1034.63Q624.07 1034.63 634.27 1028.25L634.27 1028.25Q644.47 1020.60 656.59 1025.70Q668.70 1030.80 690.37 1053.75L690.37 1053.75Q706.95 1069.05 712.05 1083.07Q717.15 1097.10 717.15 1123.88L717.15 1123.88Q717.15 1146.82 704.40 1155.75L704.40 1155.75Q677.62 1171.05 610.05 1234.80L610.05 1234.80L573.07 1269.22L587.10 1285.80Q635.55 1344.45 647.02 1417.13L647.02 1417.13Q650.85 1457.92 672.52 1484.70L672.52 1484.70Q673.80 1487.25 678.90 1482.15L678.90 1482.15Q689.10 1474.50 707.59 1473.22Q726.07 1471.95 737.55 1478.32L737.55 1478.32Q752.85 1484.70 759.22 1483.42L759.22 1483.42Q763.05 1480.88 784.09 1438.80Q805.12 1396.72 824.25 1353.38L824.25 1353.38L843.37 1304.92Q849.75 1289.63 853.57 1274.32L853.57 1274.32L856.12 1259.03L825.52 1256.47Q793.65 1255.20 775.16 1243.72Q756.67 1232.25 756.67 1213.13L756.67 1213.13Q756.67 1202.92 760.50 1199.10Q764.32 1195.27 777.07 1188.90L777.07 1188.90Q802.57 1178.70 867.60 1165.95L867.60 1165.95L895.65 1160.85L908.40 1104.75Q919.87 1047.38 924.97 1035.26Q930.07 1023.15 927.52 1019.32L927.52 1019.32Q922.42 1011.67 931.35 1002.11Q940.27 992.55 953.02 991.27ZM1039.72 1489.80L1039.72 1440.07L1039.72 1391.63L1010.40 1391.63Q979.80 1391.63 953.66 1401.19Q927.52 1410.75 908.40 1408.20L908.40 1408.20Q895.65 1408.20 895.65 1408.20Q895.65 1408.20 903.30 1413.30L903.30 1413.30Q914.77 1417.13 920.51 1431.15Q926.25 1445.17 921.15 1460.47L921.15 1460.47Q918.60 1474.50 922.42 1474.50L922.42 1474.50Q923.70 1474.50 926.25 1473.22L926.25 1473.22Q973.42 1456.65 991.91 1456.65Q1010.40 1456.65 1028.25 1474.50L1028.25 1474.50L1039.72 1489.80ZM835.72 1726.95L835.72 1726.95Q842.10 1702.72 845.29 1607.10Q848.47 1511.47 842.74 1511.47Q837.00 1511.47 833.17 1522.95Q829.35 1534.42 771.97 1593.07L771.97 1593.07L713.32 1650.45L719.70 1683.60Q726.07 1714.20 738.82 1746.71Q751.57 1779.22 751.57 1799.63Q751.57 1820.03 759.22 1826.40L759.22 1826.40Q773.25 1835.33 845.29 1857.64Q917.32 1879.95 983.62 1894.61Q1049.92 1909.28 1049.92 1902.90L1049.92 1902.90Q1049.92 1896.53 1036.54 1885.05Q1023.15 1873.58 1012.95 1872.30L1012.95 1872.30Q1000.20 1871.03 1000.20 1859.55Q1000.20 1848.08 987.45 1832.78L987.45 1832.78Q968.32 1813.65 961.95 1797.08Q955.57 1780.50 954.30 1748.63L954.30 1748.63Q951.75 1712.92 954.94 1711.65Q958.12 1710.38 984.90 1735.88L984.90 1735.88Q1002.75 1753.72 1019.32 1753.72L1019.32 1753.72Q1029.52 1753.72 1033.35 1748.63Q1037.17 1743.53 1043.55 1725.67L1043.55 1725.67Q1052.47 1689.97 1049.92 1682.33Q1047.38 1674.67 1023.15 1674.67L1023.15 1674.67Q996.37 1674.67 973.42 1686.15L973.42 1686.15Q945.37 1698.90 904.57 1689.97L904.57 1689.97Q902.02 1688.70 900.11 1690.61Q898.20 1692.53 896.92 1701.45Q895.65 1710.38 895.01 1723.13Q894.37 1735.88 893.10 1760.10L893.10 1760.10Q890.55 1831.50 881.62 1840.42L881.62 1840.42Q876.52 1845.53 872.06 1846.16Q867.60 1846.80 863.14 1842.34Q858.67 1837.88 854.21 1827.04Q849.75 1816.20 843.37 1798.35L843.37 1798.35Q833.17 1765.20 831.90 1754.36Q830.62 1743.53 835.72 1726.95ZM1047.38 1534.42L1047.38 1534.42Q1044.82 1524.22 1040.36 1522.95Q1035.90 1521.67 1033.35 1526.78L1033.35 1526.78Q1030.80 1531.88 1000.20 1538.25Q969.60 1544.63 954.30 1549.72Q939.00 1554.82 923.70 1554.82L923.70 1554.82Q898.20 1554.82 898.20 1599.45L898.20 1599.45Q898.20 1614.75 901.39 1615.39Q904.57 1616.03 917.32 1609.65L917.32 1609.65Q930.07 1600.72 965.77 1598.17L965.77 1598.17Q992.55 1596.90 1005.94 1602Q1019.32 1607.10 1038.45 1623.67L1038.45 1623.67L1049.92 1633.88L1049.92 1589.25Q1049.92 1545.90 1047.38 1534.42ZM2059.72 1732.05L2059.72 1732.05Q2097.97 1688.70 2113.91 1662.56Q2129.85 1636.42 2143.24 1630.05Q2156.63 1623.67 2161.72 1622.40L2161.72 1622.40Q2169.38 1622.40 2175.11 1630.05Q2180.85 1637.70 2180.85 1647.90L2180.85 1647.90Q2180.85 1668.30 2138.14 1717.39Q2095.43 1766.47 2048.25 1802.17L2048.25 1802.17Q2020.20 1823.85 1989.60 1856.36Q1959 1888.88 1951.35 1888.88L1951.35 1888.88Q1946.25 1888.88 1945.61 1876.76Q1944.97 1864.65 1948.80 1862.10L1948.80 1862.10Q1952.63 1859.55 1974.30 1832.78L1974.30 1832.78Q2001.08 1800.90 2059.72 1732.05ZM1785.60 1069.05L1785.60 1069.05Q1807.28 1037.17 1818.75 1032.07Q1830.22 1026.97 1840.42 1034.63L1840.42 1034.63Q1853.17 1046.10 1867.84 1062.04Q1882.50 1077.97 1883.78 1084.35L1883.78 1084.35Q1891.43 1106.02 1767.75 1228.42L1767.75 1228.42Q1702.72 1290.90 1711.65 1294.72L1711.65 1294.72Q1716.75 1297.28 1756.28 1283.25L1756.28 1283.25Q1791.97 1271.78 1814.92 1276.88L1814.92 1276.88Q1841.70 1280.70 1849.99 1276.88Q1858.28 1273.05 1872.30 1248.82L1872.30 1248.82Q1892.70 1215.67 1892.70 1213.13L1892.70 1213.13Q1892.70 1206.75 1929.68 1164.04Q1966.65 1121.32 1973.03 1121.32L1973.03 1121.32Q1978.13 1121.32 1993.43 1157.02Q2008.73 1192.72 2008.73 1204.20L2008.73 1204.20Q2008.73 1211.85 1996.61 1224.60Q1984.50 1237.35 1966.65 1261.57Q1948.80 1285.80 1937.96 1291.54Q1927.13 1297.28 1915.65 1317.04Q1904.18 1336.80 1881.86 1361.66Q1859.55 1386.53 1848.08 1408.20L1848.08 1408.20Q1831.50 1434.97 1775.40 1501.28L1775.40 1501.28Q1752.45 1528.05 1752.45 1533.15L1752.45 1533.15Q1752.45 1544.63 1834.05 1521.67L1834.05 1521.67Q1890.15 1505.10 1911.83 1505.10L1911.83 1505.10Q1927.13 1505.10 1927.76 1503.82Q1928.40 1502.55 1919.47 1494.90L1919.47 1494.90Q1908 1487.25 1906.72 1473.22Q1905.45 1459.20 1918.20 1441.99Q1930.95 1424.78 1942.43 1424.78L1942.43 1424.78Q1953.90 1424.78 1978.13 1414.57Q2002.35 1404.38 2039.33 1396.72L2039.33 1396.72L2117.10 1378.88Q2156.63 1369.95 2160.45 1367.40L2160.45 1367.40Q2168.10 1363.57 2148.97 1354.65L2148.97 1354.65Q2141.32 1349.55 2136.22 1349.55L2136.22 1349.55Q2126.03 1349.55 2128.57 1341.26Q2131.13 1332.97 2113.28 1312.57L2113.28 1312.57Q2080.13 1275.60 2096.70 1248.82L2096.70 1248.82Q2104.35 1234.80 2127.30 1235.44Q2150.25 1236.07 2170.65 1239.90L2170.65 1239.90Q2185.95 1243.72 2191.05 1237.99Q2196.15 1232.25 2224.20 1178.70L2224.20 1178.70Q2236.95 1150.65 2237.59 1144.27Q2238.22 1137.90 2228.03 1128.97L2228.03 1128.97Q2206.35 1109.85 2234.40 1086.90L2234.40 1086.90Q2257.35 1067.77 2294.32 1083.07L2294.32 1083.07Q2305.80 1088.17 2324.93 1094.55L2324.93 1094.55Q2345.32 1102.20 2361.90 1114.95Q2378.48 1127.70 2378.48 1136.63L2378.48 1136.63Q2378.48 1146.82 2356.80 1171.05Q2335.13 1195.27 2321.10 1204.20L2321.10 1204.20Q2294.32 1216.95 2245.88 1256.47L2245.88 1256.47Q2235.68 1265.40 2235.04 1268.59Q2234.40 1271.78 2240.78 1285.80L2240.78 1285.80Q2247.15 1294.72 2247.15 1301.74Q2247.15 1308.75 2240.78 1324.05L2240.78 1324.05Q2234.40 1345.72 2236.31 1350.19Q2238.22 1354.65 2258.63 1350.19Q2279.03 1345.72 2401.43 1341.90L2401.43 1341.90Q2549.32 1336.80 2572.91 1337.44Q2596.50 1338.07 2609.25 1349.55L2609.25 1349.55Q2623.28 1361.03 2622.64 1373.78Q2622 1386.53 2606.70 1409.47L2606.70 1409.47Q2590.13 1434.97 2574.82 1436.89Q2559.53 1438.80 2505.98 1422.22L2505.98 1422.22Q2474.10 1410.75 2350.43 1412.66Q2226.75 1414.57 2219.10 1424.78L2219.10 1424.78Q2216.55 1431.15 2230.57 1446.45L2230.57 1446.45Q2245.88 1464.30 2243.32 1478.32Q2240.78 1492.35 2222.93 1511.47L2222.93 1511.47Q2201.25 1533.15 2201.25 1535.06Q2201.25 1536.97 2226.11 1548.45Q2250.97 1559.92 2266.91 1575.22Q2282.85 1590.53 2287.95 1589.25L2287.95 1589.25Q2290.50 1587.97 2348.51 1520.40Q2406.53 1452.82 2415.45 1438.80L2415.45 1438.80Q2418 1434.97 2454.34 1455.38Q2490.68 1475.77 2493.23 1482.15Q2495.78 1488.52 2478.56 1515.30Q2461.35 1542.07 2454.34 1542.07Q2447.32 1542.07 2447.32 1547.17L2447.32 1547.17Q2447.32 1554.82 2414.18 1584.15Q2381.03 1613.47 2361.90 1623.67L2361.90 1623.67Q2338.95 1635.15 2333.85 1642.80L2333.85 1642.80Q2328.75 1647.90 2336.40 1656.19Q2344.05 1664.47 2378.48 1691.25L2378.48 1691.25Q2452.43 1752.45 2606.70 1797.08L2606.70 1797.08Q2651.32 1809.83 2656.43 1814.92Q2661.53 1820.03 2682.56 1820.03Q2703.60 1820.03 2703.60 1830.22L2703.60 1830.22Q2703.60 1842.97 2686.39 1858.28Q2669.18 1873.58 2651.32 1876.13L2651.32 1876.13Q2632.20 1878.67 2600.32 1895.25L2600.32 1895.25L2568.45 1910.55L2530.20 1899.08Q2503.43 1890.15 2452.43 1859.55Q2401.43 1828.95 2377.20 1803.45L2377.20 1803.45Q2351.70 1781.78 2351.70 1811.10L2351.70 1811.10Q2351.70 1822.58 2355.53 1842.97L2355.53 1842.97Q2359.35 1876.13 2356.16 1920.75Q2352.98 1965.38 2345.32 1979.40L2345.32 1979.40Q2335.13 1997.25 2303.25 2035.50L2303.25 2035.50Q2296.88 2043.15 2283.49 2053.99Q2270.10 2064.82 2266.28 2064.82L2266.28 2064.82Q2261.18 2064.82 2258.63 2071.84Q2256.07 2078.85 2226.75 2088.41Q2197.43 2097.97 2179.57 2097.97L2179.57 2097.97Q2159.18 2097.97 2159.18 2089.69Q2159.18 2081.40 2148.97 2072.47Q2138.78 2063.55 2112 2025.30L2112 2025.30L2083.95 1989.60L2119.65 1993.42Q2164.28 1998.53 2189.14 1985.78Q2214 1973.03 2233.13 1934.78L2233.13 1934.78Q2242.05 1914.38 2249.70 1862.10Q2257.35 1809.83 2252.25 1779.22L2252.25 1779.22Q2242.05 1697.63 2229.30 1697.63L2229.30 1697.63Q2224.20 1697.63 2223.56 1702.72Q2222.93 1707.83 2228.03 1723.13L2228.03 1723.13Q2244.60 1766.47 2184.68 1825.13L2184.68 1825.13Q2164.28 1846.80 2049.53 1927.13L2049.53 1927.13Q2006.18 1959 1993.43 1973.03L1993.43 1973.03Q1973.03 1990.88 1974.30 1980.67L1974.30 1980.67Q1974.30 1978.13 1975.58 1975.58L1975.58 1975.58Q1979.40 1967.92 1994.06 1946.25Q2008.73 1924.58 2017.65 1918.20L2017.65 1918.20Q2026.58 1910.55 2075.66 1851.90Q2124.75 1793.25 2137.50 1775.40L2137.50 1775.40Q2157.90 1747.35 2168.74 1725.67Q2179.57 1704 2201.25 1683.60Q2222.93 1663.20 2222.93 1659.38L2222.93 1659.38Q2222.93 1651.72 2208.90 1632.60Q2194.88 1613.47 2183.40 1607.10L2183.40 1607.10Q2166.82 1596.90 2157.26 1597.54Q2147.70 1598.17 2128.57 1613.47L2128.57 1613.47Q2057.18 1672.13 1987.05 1707.83L1987.05 1707.83Q1941.15 1730.78 1927.13 1753.72Q1913.10 1776.67 1897.80 1783.05Q1882.50 1789.42 1862.10 1807.28L1862.10 1807.28Q1822.58 1842.97 1757.55 1876.13L1757.55 1876.13Q1718.03 1895.25 1683.60 1936.05L1683.60 1936.05Q1663.20 1959 1616.03 1933.50L1616.03 1933.50Q1594.35 1922.03 1584.79 1908.64Q1575.22 1895.25 1582.88 1886.33L1582.88 1886.33Q1590.53 1878.67 1598.17 1862.10L1598.17 1862.10Q1609.65 1840.42 1693.16 1801.54Q1776.67 1762.65 1864.65 1737.15L1864.65 1737.15Q1891.43 1730.78 1902.26 1725.04Q1913.10 1719.30 1926.49 1719.30Q1939.88 1719.30 1939.88 1714.20Q1939.88 1709.10 1988.33 1659.38Q2036.78 1609.65 2061 1577.14Q2085.22 1544.63 2091.60 1540.80L2091.60 1540.80Q2108.18 1524.22 2134.95 1484.06Q2161.72 1443.90 2157.90 1438.80L2157.90 1438.80Q2156.63 1436.25 2108.18 1448.36Q2059.72 1460.47 2045.06 1464.30Q2030.40 1468.13 2018.29 1480.88Q2006.18 1493.63 1990.88 1497.45L1990.88 1497.45Q1953.90 1502.55 1948.80 1514.03L1948.80 1514.03Q1956.45 1516.57 1956.45 1549.72L1956.45 1549.72Q1956.45 1585.42 1942.43 1598.81Q1928.40 1612.20 1883.78 1624.95L1883.78 1624.95L1806 1645.35Q1740.97 1664.47 1732.05 1675.95L1732.05 1675.95Q1725.67 1684.88 1705.28 1693.80Q1684.88 1702.72 1672.13 1702.72L1672.13 1702.72Q1653 1702.72 1644.08 1689.34Q1635.15 1675.95 1627.50 1638.97L1627.50 1638.97Q1621.13 1614.75 1623.04 1605.83Q1624.95 1596.90 1635.15 1576.50L1635.15 1576.50Q1649.17 1545.90 1658.10 1543.35L1658.10 1543.35Q1664.47 1542.07 1674.04 1530.60Q1683.60 1519.13 1723.76 1464.30Q1763.92 1409.47 1763.92 1403.10L1763.92 1403.10Q1760.10 1398 1739.70 1401.82Q1719.30 1405.65 1690.61 1417.76Q1661.92 1429.88 1649.17 1437.53L1649.17 1437.53Q1631.33 1450.28 1609.65 1450.28L1609.65 1450.28Q1595.63 1450.28 1590.53 1447.72Q1585.42 1445.17 1580.33 1433.70L1580.33 1433.70Q1571.40 1415.85 1571.40 1383.34Q1571.40 1350.82 1579.69 1344.45Q1587.97 1338.07 1587.97 1328.51Q1587.97 1318.95 1601.36 1308.11Q1614.75 1297.28 1631.33 1274.96Q1647.90 1252.65 1684.88 1206.75L1684.88 1206.75Q1729.50 1155.75 1785.60 1069.05ZM2178.30 1000.20L2178.30 1000.20Q2197.43 970.87 2201.25 970.87L2201.25 970.87Q2206.35 970.87 2228.03 994.46Q2249.70 1018.05 2249.70 1025.70L2249.70 1025.70Q2249.70 1033.35 2204.44 1081.16Q2159.18 1128.97 2131.13 1150.65L2131.13 1150.65Q2108.18 1169.77 2063.55 1213.13Q2018.93 1256.47 2016.38 1252.65Q2013.83 1248.82 2025.30 1225.88L2025.30 1225.88Q2036.78 1204.20 2090.96 1124.51Q2145.15 1044.82 2178.30 1000.20Z"/>
  </svg>