<svg xmlns="http://www.w3.org/2000/svg" viewBox="0 0 3000 3000" width="3000" height="3000">
    <path fill="#000000" d="M557.45 2039.14Q474.02 2039.14 440.41 2001.78L440.41 2001.78Q404.30 1961.94 404.30 1884.74L404.30 1884.74L404.30 1227.32Q404.30 1151.37 440.41 1110.28L440.41 1110.28Q472.78 1072.92 557.45 1072.92L557.45 1072.92L1171.29 1072.92Q1252.22 1072.92 1288.33 1110.28L1288.33 1110.28Q1325.68 1148.88 1325.68 1227.32L1325.68 1227.32L1325.68 1884.74Q1325.68 1963.18 1287.08 2001.78L1287.08 2001.78Q1249.73 2039.14 1171.29 2039.14L1171.29 2039.14L557.45 2039.14ZM1160.08 1943.26Q1223.58 1943.26 1223.58 1882.25L1223.58 1882.25L1223.58 1740.31L506.40 1740.31L506.40 1879.76Q506.40 1943.26 567.41 1943.26L567.41 1943.26L1160.08 1943.26ZM506.40 1643.19L1223.58 1643.19L1223.58 1453.93L506.40 1453.93L506.40 1643.19ZM506.40 1356.81L1223.58 1356.81L1223.58 1232.30Q1223.58 1170.04 1162.57 1170.04L1162.57 1170.04L569.90 1170.04Q506.40 1170.04 506.40 1229.81L506.40 1229.81L506.40 1356.81ZM740.48 1092.85Q757.91 1044.29 777.83 968.33L777.83 968.33Q791.53 922.27 831.37 922.27L831.37 922.27Q860.01 922.27 875.57 936.58Q891.14 950.90 891.14 973.32L891.14 973.32Q891.14 983.28 887.40 996.97L887.40 996.97Q881.18 1014.40 867.48 1042.42Q853.78 1070.43 838.84 1092.85L838.84 1092.85L740.48 1092.85ZM1618.29 1747.78Q1593.38 1747.78 1580.93 1734.70Q1568.48 1721.63 1568.48 1694.24L1568.48 1694.24Q1568.48 1683.03 1575.33 1672.45Q1582.18 1661.87 1597.12 1646.92L1597.12 1646.92Q1706.69 1538.60 1771.44 1440.23L1771.44 1440.23Q1818.75 1366.77 1848.63 1311.99L1848.63 1311.99L1902.17 1189.97L1640.70 1189.97Q1579.69 1189.97 1579.69 1140.16L1579.69 1140.16Q1579.69 1090.36 1640.70 1090.36L1640.70 1090.36L1938.28 1090.36L1966.92 983.28Q1980.62 929.74 2022.95 929.74L2022.95 929.74Q2076.49 929.74 2076.49 974.56L2076.49 974.56Q2076.49 995.73 2046.61 1077.91L2046.61 1077.91L2042.87 1090.36L2635.55 1090.36Q2697.80 1090.36 2697.80 1140.16L2697.80 1140.16Q2697.80 1189.97 2635.55 1189.97L2635.55 1189.97L2005.52 1189.97Q1951.98 1331.91 1861.08 1473.85L1861.08 1473.85L1795.09 1572.22Q1659.38 1747.78 1618.29 1747.78L1618.29 1747.78ZM1821.24 2064.04Q1796.34 2064.04 1783.89 2049.10Q1771.44 2034.16 1771.44 2001.78L1771.44 2001.78L1771.44 1570.97L1872.29 1424.05L1872.29 2001.78Q1872.29 2034.16 1859.84 2049.10Q1847.39 2064.04 1821.24 2064.04L1821.24 2064.04ZM1981.86 2024.19Q1924.58 2024.19 1924.58 1975.63L1924.58 1975.63Q1924.58 1927.08 1981.86 1927.08L1981.86 1927.08L2276.95 1927.08L2276.95 1610.82L2044.12 1610.82Q1984.35 1610.82 1984.35 1562.26L1984.35 1562.26Q1984.35 1514.94 2044.12 1514.94L2044.12 1514.94L2276.95 1514.94L2276.95 1316.97Q2276.95 1255.96 2328.00 1255.96L2328.00 1255.96Q2379.05 1255.96 2379.05 1316.97L2379.05 1316.97L2379.05 1514.94L2596.95 1514.94Q2657.96 1514.94 2657.96 1562.26L2657.96 1562.26Q2657.96 1610.82 2596.95 1610.82L2596.95 1610.82L2379.05 1610.82L2379.05 1927.08L2645.51 1927.08Q2705.27 1927.08 2705.27 1975.63L2705.27 1975.63Q2705.27 2024.19 2645.51 2024.19L2645.51 2024.19L1981.86 2024.19Z"/>
  </svg>