<svg xmlns="http://www.w3.org/2000/svg" viewBox="0 0 3000 3000" width="3000" height="3000">
    <path fill="#000000" d="M1380.47 1684.28Q1353.08 1684.28 1323.19 1633.23L1323.19 1633.23L919.78 1669.34Q897.36 1670.58 884.91 1657.51Q872.46 1644.43 872.46 1618.29L872.46 1618.29Q872.46 1573.46 940.94 1573.46L940.94 1573.46L982.03 1573.46L1053.00 1473.85Q957.13 1397.90 874.95 1354.32L874.95 1354.32Q843.82 1338.13 843.82 1315.72L843.82 1315.72Q843.82 1264.67 888.65 1264.67L888.65 1264.67Q903.59 1264.67 948.41 1294.56L948.41 1294.56Q993.24 1229.81 1030.59 1147.63L1030.59 1147.63L1137.67 1147.63Q1086.62 1246.00 1016.89 1335.64L1016.89 1335.64L1105.30 1397.90L1209.89 1226.07Q1222.34 1206.15 1233.54 1196.81Q1244.75 1187.48 1258.45 1187.48L1258.45 1187.48Q1310.74 1187.48 1310.74 1234.79L1310.74 1234.79Q1310.74 1255.96 1254.71 1338.13Q1198.68 1420.31 1082.89 1569.73L1082.89 1569.73L1279.61 1558.52L1250.98 1516.19Q1233.54 1490.04 1233.54 1480.08L1233.54 1480.08Q1233.54 1460.16 1246.00 1450.20Q1258.45 1440.23 1279.61 1440.23L1279.61 1440.23Q1307.01 1440.23 1369.26 1523.66L1369.26 1523.66Q1431.52 1608.33 1431.52 1636.96L1431.52 1636.96Q1431.52 1660.62 1418.44 1672.45Q1405.37 1684.28 1380.47 1684.28L1380.47 1684.28ZM361.96 2016.72Q309.67 2016.72 309.67 1961.94L309.67 1961.94Q309.67 1947.00 319.63 1930.81L319.63 1930.81Q373.17 1834.94 391.85 1760.23L391.85 1760.23Q396.83 1737.82 410.52 1725.99Q424.22 1714.16 442.90 1714.16L442.90 1714.16Q491.46 1714.16 491.46 1761.47L491.46 1761.47Q491.46 1823.73 420.48 1968.16L420.48 1968.16Q396.83 2016.72 361.96 2016.72L361.96 2016.72ZM842.58 2040.38Q675.73 2040.38 635.89 2020.46L635.89 2020.46Q597.29 2001.78 596.04 1948.24L596.04 1948.24L596.04 1750.27Q596.04 1690.50 645.85 1690.50L645.85 1690.50Q695.65 1690.50 695.65 1750.27L695.65 1750.27L695.65 1908.40Q695.65 1938.28 730.52 1942.02L730.52 1942.02Q775.34 1947.00 828.88 1947.00L828.88 1947.00Q999.46 1947.00 1029.35 1933.30L1029.35 1933.30Q1050.51 1922.09 1056.74 1864.82L1056.74 1864.82Q1059.23 1837.43 1071.68 1824.98Q1084.13 1812.52 1109.03 1812.52L1109.03 1812.52Q1137.67 1812.52 1150.12 1824.98Q1162.57 1837.43 1162.57 1866.06L1162.57 1866.06Q1162.57 1978.13 1106.54 2011.74L1106.54 2011.74Q1059.23 2040.38 842.58 2040.38L842.58 2040.38ZM909.81 1856.10Q884.91 1856.10 862.50 1812.52L862.50 1812.52Q850.05 1790.11 840.09 1774.55Q830.13 1758.98 827.64 1754.00L827.64 1754.00Q817.68 1736.57 817.68 1730.35L817.68 1730.35Q817.68 1689.26 866.24 1689.26L866.24 1689.26Q888.65 1689.26 923.51 1737.82L923.51 1737.82Q959.62 1786.38 959.62 1806.30L959.62 1806.30Q959.62 1831.20 947.79 1843.65Q935.96 1856.10 909.81 1856.10L909.81 1856.10ZM813.94 1676.81Q789.04 1676.81 764.14 1630.74L764.14 1630.74L345.78 1669.34Q323.36 1670.58 311.54 1657.51Q299.71 1644.43 299.71 1618.29L299.71 1618.29Q299.71 1573.46 366.94 1573.46L366.94 1573.46L454.10 1572.22L548.73 1455.18Q470.29 1392.92 391.85 1350.59L391.85 1350.59Q359.47 1333.15 359.47 1311.99L359.47 1311.99Q359.47 1260.94 404.30 1260.94L404.30 1260.94Q417.99 1260.94 467.80 1292.07L467.80 1292.07Q506.40 1238.53 548.73 1146.39L548.73 1146.39L655.81 1147.63Q609.74 1236.04 536.28 1335.64L536.28 1335.64L603.52 1380.47Q678.22 1280.86 709.35 1224.83L709.35 1224.83Q729.27 1187.48 762.89 1187.48L762.89 1187.48Q787.79 1187.48 802.11 1199.30Q816.43 1211.13 816.43 1233.54L816.43 1233.54Q816.43 1268.41 562.43 1568.48L562.43 1568.48L721.80 1558.52L700.63 1522.41Q698.14 1517.43 691.30 1506.23Q684.45 1495.02 684.45 1488.79L684.45 1488.79Q684.45 1448.95 725.54 1448.95L725.54 1448.95Q740.48 1448.95 759.78 1468.25Q779.08 1487.55 807.71 1527.39L807.71 1527.39Q862.50 1604.59 862.50 1633.23L862.50 1633.23Q862.50 1676.81 813.94 1676.81L813.94 1676.81ZM1359.30 1989.33Q1333.15 1989.33 1316.97 1970.65L1316.97 1970.65L1242.26 1846.14L1212.38 1805.05Q1189.97 1775.17 1189.97 1760.23L1189.97 1760.23Q1189.97 1714.16 1238.53 1714.16L1238.53 1714.16Q1257.20 1714.16 1270.90 1727.86L1270.90 1727.86L1344.36 1818.75Q1376.73 1858.59 1395.41 1891.59Q1414.09 1924.58 1414.09 1935.79L1414.09 1935.79Q1414.09 1963.18 1401.01 1976.26Q1387.94 1989.33 1359.30 1989.33L1359.30 1989.33ZM353.25 1168.80Q302.20 1168.80 302.20 1122.73L302.20 1122.73Q302.20 1077.91 353.25 1077.91L353.25 1077.91L617.21 1077.91L578.61 1006.93Q566.16 984.52 566.16 972.07L566.16 972.07Q566.16 933.47 613.48 933.47L613.48 933.47Q658.30 933.47 721.80 1077.91L721.80 1077.91L969.58 1077.91L1008.18 977.05Q1025.61 932.23 1065.45 932.23L1065.45 932.23Q1120.24 932.23 1120.24 972.07L1120.24 972.07Q1120.24 989.50 1070.43 1077.91L1070.43 1077.91L1371.75 1077.91Q1424.05 1077.91 1424.05 1122.73L1424.05 1122.73Q1424.05 1168.80 1371.75 1168.80L1371.75 1168.80L353.25 1168.80ZM1618.29 2069.02Q1593.38 2071.51 1580.93 2058.44Q1568.48 2045.36 1568.48 2020.46L1568.48 2020.46Q1568.48 1978.13 1624.51 1971.90L1624.51 1971.90Q1843.65 1949.49 2035.40 1889.72L2035.40 1889.72Q1947.00 1829.96 1884.74 1745.29L1884.74 1745.29Q1706.69 1873.54 1654.39 1873.54L1654.39 1873.54Q1605.83 1873.54 1605.83 1829.96L1605.83 1829.96Q1605.83 1811.28 1617.66 1798.21Q1629.49 1785.13 1654.39 1775.17L1654.39 1775.17Q1834.94 1704.20 1953.22 1578.44L1953.22 1578.44Q1894.70 1570.97 1894.70 1517.43L1894.70 1517.43L1894.70 1368.02Q1894.70 1344.36 1905.29 1333.78Q1915.87 1323.19 1939.53 1323.19L1939.53 1323.19Q1984.35 1323.19 1984.35 1366.77L1984.35 1366.77L1984.35 1477.59Q1984.35 1500 2009.25 1503.74L2009.25 1503.74Q2042.87 1507.47 2189.79 1507.47L2189.79 1507.47Q2273.22 1507.47 2295.63 1496.26L2295.63 1496.26Q2304.35 1492.53 2306.84 1460.16L2306.84 1460.16Q2308.08 1441.48 2319.91 1430.90Q2331.74 1420.31 2350.42 1420.31L2350.42 1420.31Q2396.48 1420.31 2396.48 1460.16L2396.48 1460.16Q2396.48 1522.41 2365.36 1553.54L2365.36 1553.54Q2335.47 1582.18 2192.29 1582.18L2192.29 1582.18L2062.79 1582.18L2006.76 1644.43L2422.63 1644.43Q2461.23 1644.43 2483.02 1660.62Q2504.81 1676.81 2504.81 1700.46L2504.81 1700.46Q2504.81 1732.84 2464.97 1763.96L2464.97 1763.96Q2427.61 1792.60 2364.73 1831.82Q2301.86 1871.04 2253.30 1895.95L2253.30 1895.95Q2406.45 1940.77 2610.64 1954.47L2610.64 1954.47Q2706.52 1960.69 2706.52 2009.25L2706.52 2009.25Q2706.52 2064.04 2641.77 2064.04L2641.77 2064.04Q2549.63 2064.04 2401.46 2030.42L2401.46 2030.42Q2239.60 1994.31 2138.75 1947.00L2138.75 1947.00Q1943.26 2029.17 1676.81 2061.55L1676.81 2061.55L1618.29 2069.02ZM1735.33 1583.42Q1712.92 1583.42 1701.09 1572.22Q1689.26 1561.01 1689.26 1546.07L1689.26 1546.07Q1689.26 1536.11 1692.99 1528.64L1692.99 1528.64L1749.02 1405.37Q1773.93 1350.59 1802.56 1350.59L1802.56 1350.59Q1844.90 1350.59 1844.90 1391.67L1844.90 1391.67Q1844.90 1412.84 1807.54 1496.26L1807.54 1496.26Q1768.95 1583.42 1735.33 1583.42L1735.33 1583.42ZM2178.59 1833.69Q2324.27 1762.72 2347.92 1739.06L2347.92 1739.06Q2352.91 1734.08 2352.91 1730.35L2352.91 1730.35Q2352.91 1725.37 2342.94 1725.37L2342.94 1725.37L1976.88 1725.37Q2036.65 1801.32 2139.99 1852.37L2139.99 1852.37L2178.59 1833.69ZM2179.83 1458.91Q2156.18 1458.91 2122.56 1424.05L2122.56 1424.05L2097.66 1399.15Q2072.75 1374.24 2072.75 1361.79L2072.75 1361.79Q2072.75 1321.95 2117.58 1321.95L2117.58 1321.95Q2137.50 1321.95 2183.57 1361.79L2183.57 1361.79Q2224.66 1396.66 2224.66 1416.58L2224.66 1416.58Q2224.66 1458.91 2179.83 1458.91L2179.83 1458.91ZM1635.72 1487.55Q1585.91 1487.55 1585.91 1431.52L1585.91 1431.52L1585.91 1326.93Q1585.91 1263.43 1614.55 1234.17Q1643.19 1204.91 1705.44 1207.40L1705.44 1207.40L1797.58 1207.40Q1760.23 1142.65 1760.23 1130.20L1760.23 1130.20Q1760.23 1091.60 1805.05 1091.60L1805.05 1091.60Q1823.73 1091.60 1847.39 1119.62Q1871.04 1147.63 1907.15 1207.40L1907.15 1207.40L2098.90 1207.40L2069.02 1160.08Q2049.10 1127.71 2049.10 1118.99L2049.10 1118.99Q2049.10 1079.15 2100.15 1079.15L2100.15 1079.15Q2131.27 1079.15 2148.71 1104.05L2148.71 1104.05L2213.45 1207.40L2344.19 1207.40L2387.77 1133.94Q2433.84 1057.98 2468.70 1057.98L2468.70 1057.98Q2522.24 1057.98 2522.24 1095.34L2522.24 1095.34Q2522.24 1112.77 2448.78 1207.40L2448.78 1207.40L2564.58 1207.40Q2628.08 1207.40 2657.34 1236.04Q2686.60 1264.67 2682.86 1326.93L2682.86 1326.93L2682.86 1431.52Q2682.86 1487.55 2633.06 1487.55L2633.06 1487.55Q2584.50 1487.55 2584.50 1431.52L2584.50 1431.52L2584.50 1335.64Q2584.50 1294.56 2540.92 1292.07L2540.92 1292.07L1729.10 1292.07Q1688.01 1292.07 1685.52 1335.64L1685.52 1335.64L1685.52 1431.52Q1685.52 1487.55 1635.72 1487.55L1635.72 1487.55ZM2545.90 1572.22Q2522.24 1572.22 2488.62 1523.66L2488.62 1523.66Q2447.53 1463.89 2413.92 1429.03L2413.92 1429.03Q2372.83 1386.69 2372.83 1365.53L2372.83 1365.53Q2372.83 1351.83 2384.03 1342.49Q2395.24 1333.15 2410.18 1333.15L2410.18 1333.15Q2427.61 1333.15 2451.89 1353.08Q2476.17 1373.00 2517.26 1419.07L2517.26 1419.07Q2593.21 1503.74 2593.21 1528.64L2593.21 1528.64Q2593.21 1572.22 2545.90 1572.22L2545.90 1572.22ZM1699.22 1075.42Q1658.13 1075.42 1639.45 1063.59Q1620.78 1051.76 1620.78 1028.10L1620.78 1028.10Q1620.78 1004.44 1638.21 993.24Q1655.64 982.03 1696.73 982.03L1696.73 982.03L1883.50 982.03Q2265.75 982.03 2497.34 938.45L2497.34 938.45Q2527.22 932.23 2548.39 932.23L2548.39 932.23Q2599.44 932.23 2599.44 980.79L2599.44 980.79Q2599.44 1023.12 2518.51 1031.84L2518.51 1031.84Q2163.65 1075.42 1699.22 1075.42L1699.22 1075.42Z"/>
  </svg>