<svg xmlns="http://www.w3.org/2000/svg" viewBox="0 0 3000 3000" width="3000" height="3000">
    <path fill="#000000" d="M1243.72 2014.46L1243.72 2014.46Q1243.72 1996.61 1220.77 1966.01L1220.77 1966.01Q1188.90 1929.04 1162.13 1895.25Q1135.35 1861.46 1116.22 1830.23Q1097.10 1798.99 1079.25 1798.99Q1061.40 1798.99 1061.40 1824.49L1061.40 1824.49Q1061.40 1841.06 1070.96 1870.39Q1080.52 1899.71 1093.91 1930.31Q1107.30 1960.91 1116.22 1978.76L1116.22 1978.76L1118.77 1985.14Q1117.50 1983.86 1104.75 1986.41L1104.75 1986.41Q1092 1987.69 1024.42 1987.69L1024.42 1987.69Q907.12 1987.69 834.45 1968.56Q761.77 1949.44 720.97 1904.18Q680.17 1858.91 657.22 1782.41L657.22 1782.41Q647.02 1751.81 624.07 1751.81L624.07 1751.81L611.32 1753.09Q598.57 1754.36 584.55 1761.38Q570.52 1768.39 570.52 1787.51L570.52 1787.51Q570.52 1796.44 578.81 1825.76Q587.10 1855.09 606.86 1893.34Q626.62 1931.59 659.14 1970.48Q691.65 2009.36 740.10 2033.59L740.10 2033.59Q793.65 2062.91 873.97 2072.47Q954.30 2082.04 1030.80 2082.04L1030.80 2082.04Q1081.80 2082.04 1128.97 2078.85Q1176.15 2075.66 1209.94 2061.64Q1243.72 2047.61 1243.72 2014.46ZM403.50 2023.39L403.50 2023.39Q434.10 1976.21 462.79 1922.66Q491.47 1869.11 510.60 1824.49Q529.72 1779.86 529.72 1764.56L529.72 1764.56Q529.72 1747.99 515.70 1739.06Q501.67 1730.14 489.56 1726.95Q477.45 1723.76 473.62 1723.76L473.62 1723.76Q454.50 1723.76 443.02 1753.09L443.02 1753.09Q422.62 1806.64 392.02 1862.10Q361.42 1917.56 323.17 1968.56L323.17 1968.56Q310.42 1986.41 310.42 1999.16L310.42 1999.16Q310.42 2015.74 330.82 2031.68Q351.22 2047.61 370.35 2047.61L370.35 2047.61Q388.20 2047.61 403.50 2023.39ZM1380.15 1980.04L1380.15 1980.04Q1390.35 1980.04 1403.10 1969.20Q1415.85 1958.36 1426.05 1944.98Q1436.25 1931.59 1436.25 1920.11Q1436.25 1908.64 1415.85 1885.05Q1395.45 1861.46 1365.49 1832.78Q1335.52 1804.09 1304.29 1776.68Q1273.05 1749.26 1246.91 1731.41Q1220.77 1713.56 1208.02 1713.56L1208.02 1713.56Q1188.90 1713.56 1175.51 1733.96Q1162.13 1754.36 1162.13 1762.01L1162.13 1762.01Q1162.13 1776.04 1182.52 1793.89L1182.52 1793.89Q1274.32 1870.39 1348.27 1959.64L1348.27 1959.64Q1366.13 1980.04 1380.15 1980.04ZM973.42 1894.61L973.42 1894.61Q991.27 1876.76 991.27 1862.74L991.27 1862.74Q991.27 1849.99 974.06 1830.86Q956.85 1811.74 931.99 1789.43Q907.12 1767.11 880.99 1747.99Q854.85 1728.86 834.45 1716.11L834.45 1716.11Q826.80 1711.01 819.15 1707.19L819.15 1707.19Q824.25 1704.64 829.35 1702.09L829.35 1702.09Q856.12 1689.34 856.12 1668.94L856.12 1668.94Q856.12 1663.84 852.30 1653.64L852.30 1653.64Q856.12 1660.01 859.95 1665.11L859.95 1665.11Q876.52 1689.34 900.75 1689.34L900.75 1689.34Q903.30 1689.34 947.92 1680.41Q992.55 1671.49 1066.50 1654.91Q1140.45 1638.34 1223.32 1616.66L1223.32 1616.66Q1230.97 1628.14 1240.54 1644.08Q1250.10 1660.01 1258.39 1679.78Q1266.67 1699.54 1288.35 1699.54L1288.35 1699.54Q1298.55 1699.54 1320.22 1689.34Q1341.90 1679.14 1341.90 1657.46L1341.90 1657.46Q1341.90 1643.44 1324.69 1616.03Q1307.47 1588.61 1284.52 1558.01Q1261.57 1527.41 1241.81 1503.19Q1222.05 1478.96 1215.67 1471.31L1215.67 1471.31Q1204.20 1457.29 1186.35 1457.29L1186.35 1457.29Q1174.88 1457.29 1162.13 1466.21L1162.13 1466.21Q1146.82 1480.24 1146.82 1495.54L1146.82 1495.54Q1146.82 1507.01 1155.75 1519.76L1155.75 1519.76Q1164.67 1529.96 1172.32 1541.44Q1179.97 1552.91 1182.52 1554.19L1182.52 1554.19Q1089.45 1577.14 1020.60 1586.06L1020.60 1586.06Q1080.52 1532.51 1133.44 1474.50Q1186.35 1416.49 1213.76 1378.88Q1241.17 1341.26 1241.17 1333.61L1241.17 1333.61Q1241.17 1317.04 1223.96 1300.46Q1206.75 1283.89 1188.26 1272.41Q1169.77 1260.94 1162.13 1260.94L1162.13 1260.94Q1141.72 1260.94 1141.72 1283.89L1141.72 1283.89L1141.72 1295.36Q1141.72 1308.11 1135.99 1323.41Q1130.25 1338.71 1109.21 1366.76Q1088.17 1394.81 1049.92 1443.26L1049.92 1443.26Q1038.45 1433.06 1021.87 1419.68Q1005.30 1406.29 995.10 1399.91L995.10 1399.91Q1023.15 1366.76 1046.74 1334.25Q1070.32 1301.74 1094.55 1264.76L1094.55 1264.76Q1098.38 1257.11 1098.38 1254.56L1098.38 1254.56Q1098.38 1239.26 1082.44 1225.24Q1066.50 1211.21 1048.65 1201.01L1048.65 1201.01Q1044.82 1199.74 1042.27 1198.46L1042.27 1198.46L1296.00 1183.16Q1324.05 1179.34 1324.05 1156.39L1324.05 1156.39Q1324.05 1137.26 1310.02 1124.51Q1296.00 1111.76 1281.34 1104.75Q1266.67 1097.74 1259.02 1097.74Q1251.37 1097.74 1247.55 1100.29L1247.55 1100.29Q1232.25 1105.39 1216.95 1107.30Q1201.65 1109.21 1187.63 1110.49L1187.63 1110.49L992.55 1123.24Q1030.80 1095.19 1063.31 1068.41Q1095.82 1041.64 1110.49 1027.61Q1125.15 1013.59 1128.97 1006.58Q1132.80 999.56 1132.80 995.74L1132.80 995.74Q1132.80 982.99 1118.77 965.77Q1104.75 948.56 1086.26 935.17Q1067.77 921.79 1053.75 921.79L1053.75 921.79Q1038.45 921.79 1032.07 938.36L1032.07 938.36Q1026.97 956.21 1023.15 969.60Q1019.32 982.99 1012.95 990.64L1012.95 990.64Q981.07 1023.79 946.01 1058.21Q910.95 1092.64 867.60 1129.61L867.60 1129.61L770.70 1135.99Q773.25 1133.44 775.80 1132.16L775.80 1132.16Q794.92 1116.86 794.92 1096.46L794.92 1096.46Q794.92 1083.71 772.61 1060.13Q750.30 1036.54 721.61 1011.67Q692.92 986.81 665.51 968.96Q638.10 951.11 625.35 951.11L625.35 951.11Q608.77 951.11 596.66 967.05Q584.55 982.99 584.55 998.29L584.55 998.29Q584.55 1012.31 596.02 1021.24L596.02 1021.24Q634.27 1051.84 657.22 1072.24Q680.17 1092.64 712.05 1127.06L712.05 1127.06Q717.15 1133.44 723.52 1138.54L723.52 1138.54L469.80 1153.84Q464.70 1153.84 458.32 1154.47Q451.95 1155.11 445.57 1155.11L445.57 1155.11Q435.37 1155.11 423.26 1153.84Q411.15 1152.56 397.12 1150.01L397.12 1150.01L393.30 1150.01Q379.27 1150.01 379.27 1159.58Q379.27 1169.14 380.55 1172.96L380.55 1172.96Q389.47 1202.29 404.77 1215.68Q420.07 1229.06 434.74 1231.61Q449.40 1234.16 455.77 1234.16L455.77 1234.16Q463.42 1234.16 471.71 1233.53Q480.00 1232.89 488.92 1232.89L488.92 1232.89L573.07 1227.79Q573.07 1230.34 573.07 1234.16L573.07 1234.16L573.07 1243.09Q573.07 1259.66 557.77 1294.09Q542.47 1328.51 508.05 1374.41L508.05 1374.41L476.17 1354.01Q459.60 1343.81 449.40 1343.81L449.40 1343.81Q435.37 1343.81 422.62 1360.39Q409.87 1376.96 409.87 1392.26L409.87 1392.26Q409.87 1405.01 430.27 1419.04L430.27 1419.04Q460.87 1438.16 494.02 1461.11Q527.17 1484.06 562.87 1514.66L562.87 1514.66Q545.02 1535.06 518.25 1565.03Q491.47 1594.99 460.87 1624.31L460.87 1624.31Q454.50 1625.59 446.85 1626.23Q439.20 1626.86 429.00 1626.86L429.00 1626.86Q423.90 1626.86 419.44 1626.86Q414.97 1626.86 408.60 1625.59L408.60 1625.59L404.77 1625.59Q388.20 1625.59 388.20 1640.89L388.20 1640.89Q388.20 1644.71 389.47 1648.54L389.47 1648.54Q398.40 1671.49 420.71 1693.16Q443.02 1714.84 462.15 1714.84L462.15 1714.84Q469.80 1714.84 511.24 1705.91Q552.67 1696.99 617.70 1680.41Q682.72 1663.84 751.57 1642.16L751.57 1642.16Q761.77 1658.74 770.70 1684.24L770.70 1684.24Q778.35 1703.36 789.82 1708.46L789.82 1708.46Q783.45 1713.56 777.07 1722.49L777.07 1722.49Q764.32 1741.61 764.32 1751.81L764.32 1751.81Q764.32 1765.84 778.35 1778.59L778.35 1778.59Q849.75 1835.96 905.85 1898.44L905.85 1898.44Q922.42 1917.56 937.72 1917.56Q953.02 1917.56 973.42 1894.61ZM857.40 1601.36L857.40 1601.36L849.75 1601.36Q834.45 1601.36 834.45 1612.84L834.45 1612.84Q834.45 1616.66 834.45 1616.66L834.45 1616.66L835.72 1617.94Q835.72 1619.21 837.00 1620.49L837.00 1620.49Q824.25 1597.54 806.40 1570.76L806.40 1570.76Q786.00 1537.61 761.77 1509.56L761.77 1509.56Q757.95 1501.91 750.94 1496.18Q743.92 1490.44 735.00 1490.44L735.00 1490.44Q732.45 1490.44 711.41 1499.36Q690.37 1508.29 690.37 1527.41L690.37 1527.41Q690.37 1531.24 694.84 1538.89Q699.30 1546.54 718.42 1578.41L718.42 1578.41Q681.45 1587.34 637.46 1596.26Q593.47 1605.19 578.17 1607.74L578.17 1607.74Q699.30 1495.54 756.04 1427.33Q812.77 1359.11 812.77 1351.46L812.77 1351.46Q812.77 1336.16 794.29 1320.86Q775.80 1305.56 757.31 1294.72Q738.82 1283.89 729.90 1283.89L729.90 1283.89Q710.77 1283.89 710.77 1304.93Q710.77 1325.96 705.04 1341.26Q699.30 1356.56 677.62 1383.34Q655.95 1410.11 616.42 1457.29L616.42 1457.29Q606.22 1447.09 590.29 1434.34Q574.35 1421.59 566.70 1416.49L566.70 1416.49Q587.10 1393.54 615.15 1360.39Q643.20 1327.24 667.42 1286.44L667.42 1286.44Q671.25 1278.79 671.25 1274.96L671.25 1274.96Q671.25 1264.76 657.22 1250.10Q643.20 1235.44 625.35 1223.96L625.35 1223.96Q625.35 1223.96 625.35 1223.96L625.35 1223.96L1002.75 1201.01Q1000.20 1206.11 1000.20 1215.04L1000.20 1215.04Q1000.20 1235.44 988.09 1266.68Q975.97 1297.91 935.17 1357.84L935.17 1357.84L909.67 1339.99Q896.92 1331.06 882.90 1331.06L882.90 1331.06Q863.77 1331.06 851.66 1350.19Q839.55 1369.31 839.55 1379.51L839.55 1379.51Q839.55 1393.54 862.50 1407.56L862.50 1407.56Q896.92 1426.69 930.71 1451.55Q964.50 1476.41 997.65 1500.64L997.65 1500.64Q981.07 1519.76 958.12 1547.18Q935.17 1574.59 908.40 1601.36L908.40 1601.36Q903.30 1602.64 895.65 1602.64Q888.00 1602.64 880.35 1602.64L880.35 1602.64Q875.25 1602.64 869.51 1602.64Q863.77 1602.64 857.40 1601.36ZM1992.15 1736.51L1992.15 1736.51L2282.85 1727.59Q2229.30 1782.41 2146.43 1837.24L2146.43 1837.24Q2104.35 1814.29 2061 1785.60Q2017.65 1756.91 1992.15 1736.51ZM2356.80 1645.99L2356.80 1645.99L2341.50 1645.99L2040.60 1658.74L2054.63 1642.16Q2063.55 1633.24 2063.55 1624.31L2063.55 1624.31Q2063.55 1609.01 2046.34 1593.71Q2029.13 1578.41 2010.64 1568.21Q1992.15 1558.01 1980.68 1558.01L1980.68 1558.01Q1962.83 1558.01 1959 1582.24L1959 1582.24Q1955.18 1612.84 1927.13 1650.45Q1899.08 1688.06 1858.91 1728.23Q1818.75 1768.39 1778.59 1802.18Q1738.42 1835.96 1711.65 1857Q1684.88 1878.04 1682.33 1879.31L1682.33 1879.31Q1656.83 1898.44 1656.83 1912.46L1656.83 1912.46Q1656.83 1927.76 1671.49 1927.76Q1686.15 1927.76 1705.28 1918.84L1705.28 1918.84Q1765.20 1890.79 1820.03 1854.45Q1874.85 1818.11 1920.75 1778.59L1920.75 1778.59Q1953.90 1809.19 1994.70 1838.51Q2035.50 1867.84 2064.82 1886.96L2064.82 1886.96Q1974.30 1939.24 1858.28 1983.23Q1742.25 2027.21 1626.22 2052.71L1626.22 2052.71Q1589.25 2061.64 1589.25 2081.40Q1589.25 2101.16 1624.95 2101.16L1624.95 2101.16L1635.15 2101.16Q1775.40 2084.59 1906.72 2044.43Q2038.05 2004.26 2151.53 1936.69L2151.53 1936.69Q2234.40 1978.76 2317.91 2010.64Q2401.43 2042.51 2470.28 2061.64Q2539.13 2080.76 2579.93 2088.41L2579.93 2088.41L2622 2097.34Q2639.85 2097.34 2657.70 2083.31Q2675.55 2069.29 2688.94 2053.35Q2702.32 2037.41 2702.32 2028.49L2702.32 2028.49Q2702.32 2011.91 2671.73 2006.81L2671.73 2006.81Q2548.05 1985.14 2435.85 1953.90Q2323.65 1922.66 2234.40 1881.86L2234.40 1881.86Q2271.38 1856.36 2314.09 1818.75Q2356.80 1781.14 2396.32 1737.79L2396.32 1737.79Q2401.43 1730.14 2414.81 1721.85Q2428.20 1713.56 2428.20 1699.54L2428.20 1699.54Q2428.20 1690.61 2409.07 1668.30Q2389.95 1645.99 2356.80 1645.99ZM1763.92 1631.96L1763.92 1631.96Q1779.22 1631.96 1795.16 1609.65Q1811.10 1587.34 1825.76 1556.10Q1840.42 1524.86 1854.45 1493.63Q1868.47 1462.39 1876.13 1440.71Q1883.78 1419.04 1885.05 1416.49L1885.05 1416.49Q1886.33 1410.11 1886.96 1405.65Q1887.60 1401.19 1887.60 1398.64L1887.60 1398.64Q1887.60 1379.51 1870.39 1371.22Q1853.17 1362.94 1839.15 1362.94L1839.15 1362.94Q1817.47 1362.94 1807.28 1388.44L1807.28 1388.44Q1791.97 1431.79 1770.94 1473.22Q1749.90 1514.66 1718.03 1554.19L1718.03 1554.19Q1707.83 1569.49 1707.83 1580.96L1707.83 1580.96Q1707.83 1597.54 1729.50 1614.75Q1751.17 1631.96 1763.92 1631.96ZM2424.38 1535.06L2424.38 1535.06Q2424.38 1515.94 2397.60 1491.71L2397.60 1491.71Q2375.93 1471.31 2352.98 1444.54Q2330.03 1417.76 2314.73 1397.36L2314.73 1397.36Q2295.60 1368.04 2280.30 1368.04Q2265 1368.04 2265 1387.16L2265 1387.16Q2265 1393.54 2277.11 1429.88Q2289.23 1466.21 2313.45 1512.11L2313.45 1512.11L2313.45 1515.94Q2313.45 1517.21 2308.35 1517.21L2308.35 1517.21Q2279.03 1521.04 2240.78 1521.04L2240.78 1521.04Q2182.13 1521.04 2129.85 1510.84Q2077.57 1500.64 2038.05 1468.76Q1998.53 1436.89 1978.13 1371.86L1978.13 1371.86Q1967.93 1343.81 1947.53 1343.81L1947.53 1343.81Q1944.97 1343.81 1939.88 1344.45Q1934.78 1345.09 1928.40 1346.36L1928.40 1346.36Q1897.80 1356.56 1897.80 1376.96L1897.80 1376.96Q1897.80 1379.51 1904.81 1403.10Q1911.83 1426.69 1929.68 1459.84Q1947.53 1492.99 1977.49 1524.22Q2007.45 1555.46 2050.80 1573.31L2050.80 1573.31Q2091.60 1589.89 2140.69 1595.63Q2189.78 1601.36 2236.95 1601.36L2236.95 1601.36Q2316 1601.36 2355.53 1590.53Q2395.05 1579.69 2409.71 1564.39Q2424.38 1549.09 2424.38 1535.06ZM2573.55 1522.31L2573.55 1522.31Q2573.55 1512.11 2558.25 1489.16L2558.25 1489.16Q2549.32 1478.96 2539.13 1466.21L2539.13 1466.21Q2560.80 1461.11 2595.23 1417.76L2595.23 1417.76Q2634.75 1369.31 2678.10 1295.36L2678.10 1295.36Q2680.65 1291.54 2689.57 1284.53Q2698.50 1277.51 2698.50 1264.76L2698.50 1264.76Q2698.50 1245.64 2679.38 1228.43Q2660.25 1211.21 2630.93 1211.21L2630.93 1211.21L2615.63 1211.21L2368.28 1226.51Q2383.57 1213.76 2414.81 1182.53Q2446.05 1151.29 2476.65 1119.41L2476.65 1119.41Q2484.30 1107.94 2484.30 1099.01L2484.30 1099.01Q2484.30 1081.16 2465.81 1067.78Q2447.32 1054.39 2428.20 1046.74L2428.20 1046.74Q2419.28 1044.19 2414.18 1041.64L2414.18 1041.64Q2458.80 1035.26 2503.43 1027.61L2503.43 1027.61Q2526.38 1022.51 2526.38 1002.11L2526.38 1002.11Q2526.38 986.81 2514.90 966.41Q2503.43 946.01 2488.76 930.08Q2474.10 914.14 2462.63 914.14L2462.63 914.14Q2452.43 914.14 2443.50 924.34L2443.50 924.34Q2426.93 944.74 2405.25 948.56L2405.25 948.56Q2256.07 980.44 2085.22 1006.58Q1914.38 1032.71 1743.53 1051.84L1743.53 1051.84Q1698.90 1056.94 1698.90 1079.25Q1698.90 1101.56 1743.53 1101.56L1743.53 1101.56L1747.35 1101.56Q1777.95 1100.29 1809.83 1099.01L1809.83 1099.01Q1806 1102.84 1803.45 1107.94L1803.45 1107.94Q1793.25 1128.34 1793.25 1132.16L1793.25 1132.16Q1793.25 1146.19 1811.10 1160.21L1811.10 1160.21Q1832.78 1176.79 1857 1197.19Q1881.22 1217.59 1904.18 1244.36L1904.18 1244.36Q1908 1249.46 1913.10 1253.29L1913.10 1253.29L1761.38 1262.21L1766.47 1231.61Q1766.47 1211.21 1753.09 1204.20Q1739.70 1197.19 1727.59 1195.91Q1715.47 1194.64 1714.20 1194.64L1714.20 1194.64Q1698.90 1194.64 1691.89 1203.56Q1684.88 1212.49 1681.05 1230.34L1681.05 1230.34Q1668.30 1287.71 1646.63 1350.19Q1624.95 1412.66 1593.08 1468.76L1593.08 1468.76Q1585.42 1480.24 1585.42 1490.44L1585.42 1490.44Q1585.42 1505.74 1599.45 1515.94Q1613.47 1526.14 1628.14 1531.24Q1642.80 1536.34 1648.54 1536.34Q1654.28 1536.34 1662.56 1530.60Q1670.85 1524.86 1681.69 1507.01Q1692.53 1489.16 1707.83 1449Q1723.13 1408.84 1742.25 1345.09L1742.25 1345.09L2574.82 1296.64Q2565.90 1322.14 2553.79 1353.38Q2541.68 1384.61 2525.10 1420.31L2525.10 1420.31Q2518.73 1431.79 2517.45 1440.71L2517.45 1440.71Q2493.23 1415.21 2467.73 1390.35Q2442.23 1365.49 2420.55 1347.64Q2398.88 1329.79 2387.40 1329.79L2387.40 1329.79Q2377.20 1329.79 2360.63 1341.90Q2344.05 1354.01 2344.05 1371.86L2344.05 1371.86Q2344.05 1382.06 2359.35 1397.36L2359.35 1397.36Q2392.50 1429.24 2426.93 1470.04Q2461.35 1510.84 2486.85 1549.09L2486.85 1549.09Q2502.15 1573.31 2517.45 1573.31L2517.45 1573.31Q2534.03 1573.31 2553.79 1553.55Q2573.55 1533.79 2573.55 1522.31ZM2236.95 1452.19L2236.95 1452.19Q2236.95 1438.16 2216.55 1416.49Q2196.15 1394.81 2168.74 1375.05Q2141.32 1355.29 2117.10 1340.63Q2092.88 1325.96 2082.68 1325.96L2082.68 1325.96Q2066.10 1325.96 2054.63 1343.81Q2043.15 1361.66 2043.15 1368.04L2043.15 1368.04Q2043.15 1378.24 2059.72 1392.26L2059.72 1392.26Q2085.22 1411.39 2112 1435.61Q2138.78 1459.84 2155.35 1482.79L2155.35 1482.79Q2171.93 1501.91 2185.95 1501.91L2185.95 1501.91Q2203.80 1501.91 2220.38 1482.15Q2236.95 1462.39 2236.95 1452.19ZM2254.80 1232.89L2189.78 1236.71Q2210.18 1225.24 2210.18 1203.56L2210.18 1203.56Q2210.18 1193.36 2197.43 1172.33Q2184.68 1151.29 2166.19 1128.34Q2147.70 1105.39 2129.85 1088.81L2129.85 1088.81Q2122.20 1082.44 2115.82 1077.34L2115.82 1077.34Q2248.43 1065.86 2384.85 1045.46L2384.85 1045.46Q2382.30 1050.56 2382.30 1056.94L2382.30 1056.94L2382.30 1062.04Q2382.30 1106.66 2254.80 1232.89L2254.80 1232.89ZM2133.68 1240.54L2133.68 1240.54L1964.10 1250.74Q1967.93 1245.64 1973.03 1240.54L1973.03 1240.54Q1985.78 1223.96 1985.78 1212.49L1985.78 1212.49Q1985.78 1202.29 1966.65 1182.53Q1947.53 1162.76 1922.03 1141.09Q1896.53 1119.41 1872.30 1104.11L1872.30 1104.11Q1865.92 1099.01 1860.83 1096.46L1860.83 1096.46Q1964.10 1091.36 2071.20 1081.16L2071.20 1081.16Q2067.38 1084.99 2063.55 1088.81L2063.55 1088.81Q2048.25 1106.66 2048.25 1117.50Q2048.25 1128.34 2059.72 1137.26L2059.72 1137.26Q2076.30 1153.84 2093.51 1177.42Q2110.72 1201.01 2123.47 1225.24L2123.47 1225.24Q2128.57 1234.16 2133.68 1240.54Z"/>
  </svg>