<svg xmlns="http://www.w3.org/2000/svg" viewBox="0 0 3000 3000" width="3000" height="3000">
    <path fill="#000000" d="M978.52 1806L978.52 1806Q988.72 1804.72 993.82 1803.45L993.82 1803.45Q998.92 1803.45 1021.87 1813.65Q1044.82 1823.85 1047.38 1828.95L1047.38 1828.95Q1049.92 1832.78 1083.07 1849.35L1083.07 1849.35Q1140.45 1876.13 1168.50 1916.92L1168.50 1916.92Q1183.80 1941.15 1206.11 1971.11Q1228.42 2001.08 1232.25 2011.28L1232.25 2011.28Q1236.07 2021.47 1229.06 2036.78Q1222.05 2052.07 1213.13 2064.82L1213.13 2064.82Q1204.20 2071.20 1191.45 2091.60L1191.45 2091.60Q1173.60 2118.38 1149.38 2126.03Q1125.15 2133.68 1063.95 2133.68L1063.95 2133.68Q1012.95 2133.68 936.45 2123.47Q859.95 2113.28 837.00 2101.80L837.00 2101.80Q791.10 2081.40 743.29 2043.15Q695.47 2004.90 695.47 1988.33L695.47 1988.33Q695.47 1979.40 687.82 1974.30L687.82 1974.30Q677.62 1965.38 661.05 1913.10L661.05 1913.10Q654.67 1893.97 661.05 1878.67Q667.42 1863.38 675.07 1863.38L675.07 1863.38Q687.82 1863.38 746.47 1934.78L746.47 1934.78Q765.60 1957.72 798.75 1975.58L798.75 1975.58L833.17 1990.88L932.62 1990.88L1033.35 1990.88L1062.67 1976.85Q1090.72 1961.55 1093.27 1957.72L1093.27 1957.72Q1097.10 1951.35 1068.41 1912.46Q1039.72 1873.58 1016.77 1857L1016.77 1857Q951.75 1813.65 978.52 1806ZM505.50 1902.90L552.67 1834.05Q575.62 1803.45 579.45 1803.45L579.45 1803.45Q584.55 1803.45 591.56 1811.10Q598.57 1818.75 601.12 1825.13L601.12 1825.13Q604.95 1831.50 595.39 1849.99Q585.82 1868.47 591.56 1868.47Q597.30 1868.47 602.40 1863.38Q607.50 1858.28 618.97 1855.72L618.97 1855.72Q626.62 1853.17 628.54 1855.09Q630.45 1857 630.45 1867.20L630.45 1867.20Q630.45 1881.22 615.79 1908.64Q601.12 1936.05 595.39 1963.46Q589.65 1990.88 585.82 2002.99Q582.00 2015.10 576.90 2034.22L576.90 2034.22Q574.35 2050.80 560.32 2062.28Q546.30 2073.75 528.45 2073.75L528.45 2073.75Q515.70 2073.75 505.50 2056.54Q495.30 2039.33 495.30 2017.01Q495.30 1994.70 487.65 1967.92L487.65 1967.92L481.27 1941.15L505.50 1902.90ZM770.70 1732.05L770.70 1732.05Q779.62 1728.22 804.49 1730.14Q829.35 1732.05 847.20 1737.15L847.20 1737.15Q884.17 1748.63 936.45 1735.88L936.45 1735.88Q950.47 1732.05 950.47 1738.42L950.47 1738.42Q950.47 1746.08 932.62 1772.85Q914.77 1799.63 914.77 1803.45Q914.77 1807.28 900.11 1827.67Q885.45 1848.08 885.45 1853.17L885.45 1853.17Q885.45 1858.28 869.51 1860.83Q853.57 1863.38 844.65 1858.28L844.65 1858.28Q834.45 1851.90 810.86 1828.95Q787.27 1806 775.80 1789.42L775.80 1789.42Q766.87 1777.95 765.60 1756.28Q764.32 1734.60 770.70 1732.05ZM1074.15 1710.38L1074.15 1710.38Q1086.90 1689.97 1145.55 1704L1145.55 1704Q1169.77 1709.10 1215.04 1732.05Q1260.30 1755 1265.40 1765.20L1265.40 1765.20Q1283.25 1791.97 1275.60 1820.66Q1267.95 1849.35 1238.63 1863.38L1238.63 1863.38Q1216.95 1872.30 1206.75 1870.39Q1196.55 1868.47 1177.42 1848.08L1177.42 1848.08Q1158.30 1827.67 1148.74 1819.39Q1139.17 1811.10 1122.60 1786.24Q1106.02 1761.38 1086.90 1740.97L1086.90 1740.97Q1071.60 1728.22 1070.32 1723.13Q1069.05 1718.03 1074.15 1710.38ZM924.97 972.15L924.97 972.15Q924.97 956.85 939.00 944.74Q953.02 932.63 960.04 935.17Q967.05 937.72 977.25 937.72Q987.45 937.72 1012.95 963.86Q1038.45 990.00 1051.84 1001.47Q1065.22 1012.95 1065.22 1020.60L1065.22 1020.60Q1065.22 1033.35 1051.84 1048.65Q1038.45 1063.95 1023.15 1069.05L1023.15 1069.05Q1004.02 1077.97 968.96 1113.04Q933.90 1148.10 929.44 1148.10Q924.97 1148.10 924.97 1153.20Q924.97 1158.30 942.82 1155.75L942.82 1155.75Q1000.20 1145.55 1130.25 1140.45L1130.25 1140.45Q1176.15 1137.90 1190.17 1143.64Q1204.20 1149.38 1215.67 1172.32L1215.67 1172.32Q1225.88 1197.82 1224.60 1209.30Q1223.32 1220.77 1208.02 1236.07L1208.02 1236.07Q1182.52 1261.57 1148.10 1246.28L1148.10 1246.28Q1135.35 1242.45 1080.52 1235.44Q1025.70 1228.42 997.65 1227.15L997.65 1227.15L973.42 1227.15L987.45 1241.17Q1001.47 1257.75 999.56 1271.14Q997.65 1284.53 978.52 1303.65L978.52 1303.65Q959.40 1324.05 934.54 1357.20Q909.67 1390.35 909.67 1396.72L909.67 1396.72Q909.67 1403.10 929.44 1399.91Q949.20 1396.72 959.40 1403.10L959.40 1403.10Q972.15 1408.20 981.71 1394.81Q991.27 1381.42 1021.87 1321.50L1021.87 1321.50Q1037.17 1289.63 1042.27 1283.89Q1047.38 1278.15 1060.13 1278.15L1060.13 1278.15Q1074.15 1278.15 1089.45 1285.16Q1104.75 1292.17 1107.30 1301.10L1107.30 1301.10Q1112.40 1312.57 1108.57 1322.78Q1104.75 1332.97 1088.17 1350.82L1088.17 1350.82Q1065.22 1375.05 1039.72 1413.94Q1014.22 1452.82 1009.76 1452.82Q1005.30 1452.82 1002.75 1461.75L1002.75 1461.75Q1000.20 1471.95 985.54 1498.72Q970.87 1525.50 959.40 1538.25L959.40 1538.25Q930.07 1579.05 936.45 1586.70L936.45 1586.70Q941.55 1591.80 965.77 1589.25L965.77 1589.25Q983.62 1589.25 1014.22 1575.86Q1044.82 1562.47 1044.82 1556.10L1044.82 1556.10Q1044.82 1549.72 1039.09 1536.97Q1033.35 1524.22 1028.25 1524.22L1028.25 1524.22Q1023.15 1524.22 1019.96 1509.56Q1016.77 1494.90 1020.60 1484.70Q1024.42 1474.50 1029.52 1473.22Q1034.63 1471.95 1058.85 1474.50L1058.85 1474.50Q1089.45 1478.32 1101.56 1483.42Q1113.67 1488.52 1140.45 1512.75L1140.45 1512.75Q1174.88 1542.07 1180.61 1559.92Q1186.35 1577.78 1174.88 1609.65L1174.88 1609.65Q1171.05 1621.13 1151.92 1631.96Q1132.80 1642.80 1120.05 1642.80L1120.05 1642.80Q1111.13 1642.80 1089.45 1621.13L1089.45 1621.13L1069.05 1599.45L1032.07 1637.70Q1001.47 1667.03 983.62 1676.59Q965.77 1686.15 916.05 1697.63L916.05 1697.63Q884.17 1706.55 872.06 1693.80Q859.95 1681.05 858.67 1633.88L858.67 1633.88L858.67 1589.25L879.07 1565.03Q899.47 1540.80 902.66 1533.15Q905.85 1525.50 917.32 1503.82L917.32 1503.82Q930.07 1483.42 929.44 1478.32Q928.80 1473.22 914.77 1473.22L914.77 1473.22Q900.75 1473.22 900.75 1477.69Q900.75 1482.15 877.80 1490.44Q854.85 1498.72 842.10 1498.72L842.10 1498.72Q833.17 1501.28 829.99 1498.09Q826.80 1494.90 824.25 1483.42L824.25 1483.42Q822.97 1465.57 824.25 1437.53L824.25 1437.53Q826.80 1418.40 831.26 1408.84Q835.72 1399.28 854.85 1380.15L854.85 1380.15Q884.17 1347 916.05 1291.54Q947.92 1236.07 939.00 1230.97L939.00 1230.97Q932.62 1225.88 865.05 1231.61Q797.47 1237.35 722.25 1247.55L722.25 1247.55Q644.47 1259.03 682.72 1265.40L682.72 1265.40Q685.27 1266.67 686.55 1266.67L686.55 1266.67Q698.02 1267.95 707.59 1277.51Q717.15 1287.07 710.14 1302.38Q703.12 1317.67 694.84 1324.05Q686.55 1330.42 659.77 1371.22L659.77 1371.22L613.87 1436.25Q594.75 1461.75 597.30 1464.30Q599.85 1466.85 630.45 1454.74Q661.05 1442.63 675.07 1445.17L675.07 1445.17Q686.55 1447.72 692.29 1442.63Q698.02 1437.53 714.60 1405.65L714.60 1405.65Q731.17 1375.05 757.95 1329.15L757.95 1329.15Q777.07 1298.55 784.09 1290.90Q791.10 1283.25 800.02 1283.25L800.02 1283.25Q815.32 1283.25 829.35 1303.65L829.35 1303.65Q840.82 1321.50 838.27 1334.25Q835.72 1347 815.32 1362.30L815.32 1362.30Q796.20 1378.88 763.05 1432.42Q729.90 1485.97 723.52 1493.63L723.52 1493.63Q710.77 1512.75 740.10 1502.55L740.10 1502.55Q757.95 1494.90 780.26 1505.74Q802.57 1516.57 821.70 1543.35L821.70 1543.35Q834.45 1562.47 837.64 1571.40Q840.82 1580.32 840.82 1596.90L840.82 1596.90Q839.55 1638.97 808.95 1638.97L808.95 1638.97Q797.47 1638.97 784.09 1631.96Q770.70 1624.95 764.32 1616.03L764.32 1616.03Q759.22 1609.65 749.02 1626.22L749.02 1626.22Q723.52 1659.38 666.15 1695.08L666.15 1695.08Q633.00 1718.03 620.89 1721.21Q608.77 1724.40 596.02 1715.47L596.02 1715.47Q588.37 1710.38 587.10 1701.45Q585.82 1692.53 585.82 1661.92L585.82 1661.92Q585.82 1614.75 592.84 1608.38Q599.85 1602 599.85 1594.99Q599.85 1587.97 604.95 1587.97L604.95 1587.97Q608.77 1587.97 622.16 1565.03Q635.55 1542.07 634.27 1539.53L634.27 1539.53Q631.72 1538.25 613.24 1550.36Q594.75 1562.47 590.92 1562.47Q587.10 1562.47 562.87 1585.42L562.87 1585.42Q542.47 1604.55 532.27 1606.46Q522.07 1608.38 508.05 1598.17L508.05 1598.17Q499.12 1591.80 497.21 1584.15Q495.30 1576.50 495.30 1549.72L495.30 1549.72Q495.30 1478.32 524.62 1470.67L524.62 1470.67Q537.37 1468.13 552.67 1446.45L552.67 1446.45Q615.15 1361.03 615.15 1355.92L615.15 1355.92Q615.15 1353.38 629.17 1331.70Q643.20 1310.03 651.49 1288.35Q659.77 1266.67 653.40 1264.13L653.40 1264.13Q643.20 1261.57 608.77 1278.15Q574.35 1294.72 560.32 1310.03L560.32 1310.03Q545.02 1326.60 534.19 1327.24Q523.35 1327.88 509.32 1315.76Q495.30 1303.65 472.35 1301.10L472.35 1301.10Q432.82 1293.45 458.32 1271.78L458.32 1271.78Q478.72 1255.20 529.09 1240.54Q579.45 1225.88 625.35 1210.57Q671.25 1195.27 671.25 1191.45L671.25 1191.45Q671.25 1186.35 662.32 1177.42L662.32 1177.42Q654.67 1168.50 632.36 1135.35Q610.05 1102.20 610.05 1099.65L610.05 1099.65Q610.05 1097.10 601.12 1086.90L601.12 1086.90Q594.75 1079.25 596.66 1061.40Q598.57 1043.55 608.77 1041L608.77 1041Q615.15 1038.45 652.76 1048.01Q690.37 1057.57 698.02 1062.67L698.02 1062.67Q710.77 1076.70 746.47 1057.57L746.47 1057.57Q763.05 1048.65 763.05 1052.47L763.05 1052.47Q763.05 1053.75 761.77 1056.30L761.77 1056.30Q757.95 1065.22 747.75 1080.52L747.75 1080.52Q740.10 1089.45 739.46 1094.55Q738.82 1099.65 743.92 1109.85L743.92 1109.85Q751.57 1125.15 751.57 1151.92L751.57 1151.92Q751.57 1171.05 753.49 1174.24Q755.40 1177.42 765.60 1177.42L765.60 1177.42Q779.62 1177.42 798.75 1160.85L798.75 1160.85Q824.25 1140.45 851.02 1111.76Q877.80 1083.07 884.17 1067.77L884.17 1067.77Q924.97 988.72 924.97 972.15ZM720.97 1525.50L720.97 1525.50Q720.97 1512.75 712.05 1519.13L712.05 1519.13Q709.50 1524.22 706.95 1529.32L706.95 1529.32Q704.40 1539.53 682.09 1569.49Q659.77 1599.45 659.77 1603.28L659.77 1603.28Q659.77 1607.10 668.06 1607.74Q676.35 1608.38 689.10 1605.19Q701.85 1602 714.60 1595.63L714.60 1595.63Q736.27 1585.42 738.82 1579.69Q741.37 1573.95 729.90 1552.28L729.90 1552.28Q720.97 1533.15 720.97 1525.50ZM2057.18 1383.97L2057.18 1383.97Q2064.82 1368.67 2086.50 1382.70L2086.50 1382.70Q2101.80 1394.17 2106.90 1400.55Q2112 1406.92 2114.55 1420.95L2114.55 1420.95Q2118.38 1437.53 2124.75 1447.72L2124.75 1447.72Q2140.05 1468.13 2124.75 1480.88L2124.75 1480.88Q2117.10 1485.97 2117.10 1496.17L2117.10 1496.17Q2117.10 1503.82 2120.93 1505.10Q2124.75 1506.38 2141.32 1503.82L2141.32 1503.82Q2164.28 1498.72 2212.72 1496.17L2212.72 1496.17Q2253.53 1493.63 2273.29 1500Q2293.05 1506.38 2303.25 1525.50L2303.25 1525.50Q2321.10 1553.55 2300.70 1576.50L2300.70 1576.50L2289.23 1587.97L2205.07 1584.15Q2129.85 1580.32 2111.36 1584.15Q2092.88 1587.97 2083.95 1609.65L2083.95 1609.65Q2078.85 1627.50 2068.65 1651.72L2068.65 1651.72Q2055.90 1675.95 2057.18 1689.97Q2058.45 1704 2073.75 1720.58L2073.75 1720.58Q2090.32 1738.42 2102.44 1756.28Q2114.55 1774.13 2131.76 1792.61Q2148.97 1811.10 2154.07 1804.72L2154.07 1804.72Q2166.82 1790.70 2179.57 1734.60L2179.57 1734.60L2185.95 1706.55L2146.43 1709.10Q2108.18 1711.65 2097.97 1706.55L2097.97 1706.55Q2072.47 1691.25 2103.07 1672.13L2103.07 1672.13Q2126.03 1659.38 2163 1654.28L2163 1654.28Q2198.70 1649.17 2206.99 1645.35Q2215.28 1641.53 2239.50 1637.70L2239.50 1637.70Q2257.35 1633.88 2262.45 1636.42Q2267.55 1638.97 2280.30 1651.72L2280.30 1651.72Q2295.60 1669.58 2303.89 1684.24Q2312.18 1698.90 2307.71 1702.72Q2303.25 1706.55 2300.06 1724.40Q2296.88 1742.25 2289.23 1752.45Q2281.57 1762.65 2281.57 1780.50Q2281.57 1798.35 2269.46 1816.84Q2257.35 1835.33 2257.35 1841.70Q2257.35 1848.08 2250.97 1862.10L2250.97 1862.10Q2243.32 1872.30 2247.79 1878.04Q2252.25 1883.78 2281.57 1901.63L2281.57 1901.63Q2307.07 1920.75 2339.59 1938.60Q2372.10 1956.45 2379.75 1956.45L2379.75 1956.45Q2384.85 1956.45 2429.48 1974.94Q2474.10 1993.42 2491.95 2003.63L2491.95 2003.63Q2517.45 2015.10 2521.28 2015.10L2521.28 2015.10Q2531.48 2015.10 2550.60 2031.67Q2569.73 2048.25 2573.55 2058.45L2573.55 2058.45Q2578.65 2076.30 2576.10 2078.85Q2573.55 2081.40 2540.40 2088.41Q2507.25 2095.43 2479.20 2110.72Q2451.15 2126.03 2435.85 2126.03L2435.85 2126.03Q2423.10 2126.03 2384.85 2108.18Q2346.60 2090.32 2327.48 2075.03L2327.48 2075.03Q2309.63 2061 2291.78 2052.07L2291.78 2052.07Q2270.10 2039.33 2215.28 1992.15L2215.28 1992.15Q2166.82 1951.35 2161.72 1964.10L2161.72 1964.10Q2160.45 1967.92 2127.30 1989.60L2127.30 1989.60Q2062.28 2034.22 2001.71 2054.63Q1941.15 2075.03 1927.13 2058.45L1927.13 2058.45Q1920.75 2050.80 1936.05 2036.78L1936.05 2036.78Q1970.47 2006.17 1974.30 2006.17L1974.30 2006.17Q1980.68 2006.17 2015.10 1980.67Q2049.53 1955.17 2068.65 1936.05L2068.65 1936.05Q2097.97 1909.28 2102.44 1896.53Q2106.90 1883.78 2095.43 1867.20L2095.43 1867.20Q2050.80 1799.63 2039.33 1774.13L2039.33 1774.13Q2036.78 1765.20 2035.50 1765.84Q2034.22 1766.47 2026.58 1775.40L2026.58 1775.40Q2016.38 1788.15 2013.83 1800.90L2013.83 1800.90Q2010 1816.20 1995.34 1845.53Q1980.68 1874.85 1974.30 1879.95L1974.30 1879.95Q1966.65 1887.60 1966.65 1893.97Q1966.65 1900.35 1962.83 1900.35Q1959 1900.35 1932.22 1934.78L1932.22 1934.78Q1893.97 1980.67 1849.35 2020.84Q1804.72 2061 1770.30 2078.85L1770.30 2078.85Q1737.15 2097.97 1739.70 2089.05L1739.70 2089.05Q1739.70 2083.95 1748.63 2076.30L1748.63 2076.30Q1761.38 2064.82 1761.38 2059.72Q1761.38 2054.63 1783.05 2026.58L1783.05 2026.58Q1823.85 1975.58 1841.70 1938.60L1841.70 1938.60Q1849.35 1923.30 1862.10 1903.54Q1874.85 1883.78 1878.04 1876.13Q1881.22 1868.47 1887.60 1858.28L1887.60 1858.28Q1901.63 1834.05 1904.18 1826.40L1904.18 1826.40Q1906.72 1818.75 1914.38 1803.45L1914.38 1803.45Q1943.70 1737.15 1959 1683.60L1959 1683.60Q1967.93 1653 1974.94 1636.42Q1981.95 1619.85 1981.31 1614.75Q1980.68 1609.65 1970.47 1609.65L1970.47 1609.65Q1961.55 1609.65 1944.97 1627.50Q1928.40 1645.35 1918.20 1645.35L1918.20 1645.35Q1906.72 1645.35 1881.86 1624.31Q1857 1603.28 1857 1594.35Q1857 1585.42 1867.20 1576.50L1867.20 1576.50Q1874.85 1570.13 1923.30 1551Q1971.75 1531.88 1992.15 1528.05L1992.15 1528.05Q2004.90 1526.78 2009.36 1519.76Q2013.83 1512.75 2025.30 1484.70L2025.30 1484.70Q2040.60 1442.63 2046.34 1418.40Q2052.07 1394.17 2057.18 1383.97ZM2046.97 1130.25L2046.97 1130.25Q2069.93 1112.40 2136.22 1155.75L2136.22 1155.75Q2151.53 1167.22 2154.71 1172.32Q2157.90 1177.42 2156.63 1200.38L2156.63 1200.38Q2156.63 1219.50 2154.07 1226.51Q2151.53 1233.53 2143.88 1239.90L2143.88 1239.90Q2129.85 1250.10 2119.65 1250.10L2119.65 1250.10Q2109.45 1250.10 2090.96 1235.44Q2072.47 1220.77 2072.47 1214.40L2072.47 1214.40Q2072.47 1210.57 2058.45 1192.09Q2044.43 1173.60 2038.05 1157.02L2038.05 1157.02Q2034.22 1145.55 2035.50 1141.09Q2036.78 1136.63 2046.97 1130.25ZM2323.65 1081.80L2323.65 1081.80Q2336.40 1076.70 2339.59 1076.70Q2342.78 1076.70 2351.70 1085.63L2351.70 1085.63Q2361.90 1095.82 2365.09 1095.82Q2368.28 1095.82 2385.49 1111.76Q2402.70 1127.70 2406.53 1148.10L2406.53 1148.10Q2407.80 1160.85 2405.25 1167.22Q2402.70 1173.60 2392.50 1183.80L2392.50 1183.80Q2375.93 1200.38 2368.91 1200.38Q2361.90 1200.38 2342.78 1219.50L2342.78 1219.50Q2323.65 1238.63 2270.10 1273.05L2270.10 1273.05Q2259.90 1280.70 2231.85 1293.45L2231.85 1293.45L2205.07 1307.47L2272.65 1311.30Q2340.23 1315.13 2377.20 1324.05L2377.20 1324.05Q2429.48 1334.25 2474.10 1327.88L2474.10 1327.88Q2489.40 1325.32 2495.14 1327.24Q2500.88 1329.15 2512.35 1340.63L2512.35 1340.63Q2530.20 1358.47 2548.05 1367.40L2548.05 1367.40Q2562.07 1373.78 2572.28 1392.26Q2582.48 1410.75 2582.48 1429.88L2582.48 1429.88Q2582.48 1452.82 2553.15 1470.67Q2523.83 1488.52 2508.53 1474.50L2508.53 1474.50Q2500.88 1466.85 2439.68 1469.40L2439.68 1469.40Q2429.48 1470.67 2420.55 1480.24Q2411.63 1489.80 2404.61 1489.80Q2397.60 1489.80 2391.86 1497.45Q2386.13 1505.10 2374.65 1505.10L2374.65 1505.10Q2365.73 1505.10 2365.09 1503.82Q2364.45 1502.55 2368.28 1493.63L2368.28 1493.63Q2374.65 1483.42 2387.40 1465.57L2387.40 1465.57Q2420.55 1418.40 2415.45 1412.03L2415.45 1412.03Q2395.05 1391.63 2234.40 1372.50L2234.40 1372.50Q2101.80 1355.92 2013.83 1375.05L2013.83 1375.05Q1960.28 1385.25 1927.13 1390.35Q1893.97 1395.45 1868.47 1408.20Q1842.97 1420.95 1837.88 1420.95L1837.88 1420.95Q1830.22 1420.95 1820.66 1435.61Q1811.10 1450.28 1808.55 1466.85L1808.55 1466.85Q1806 1487.25 1798.99 1517.85Q1791.97 1548.45 1791.97 1603.28L1791.97 1603.28L1791.97 1656.83L1776.67 1672.13Q1748.63 1693.80 1729.50 1675.95L1729.50 1675.95Q1712.92 1664.47 1705.28 1639.61Q1697.63 1614.75 1693.80 1561.20L1693.80 1561.20Q1692.53 1539.53 1695.08 1527.41Q1697.63 1515.30 1714.20 1482.15L1714.20 1482.15Q1737.15 1433.70 1749.26 1417.13Q1761.38 1400.55 1761.38 1396.72L1761.38 1396.72Q1761.38 1391.63 1771.58 1384.61Q1781.78 1377.60 1785.60 1380.15L1785.60 1380.15Q1789.42 1385.25 1827.67 1371.22L1827.67 1371.22Q1850.63 1361.03 1896.53 1348.28Q1942.43 1335.53 1950.08 1335.53L1950.08 1335.53L1942.43 1327.88Q1930.95 1318.95 1921.39 1295.36Q1911.83 1271.78 1903.54 1255.84Q1895.25 1239.90 1899.08 1219.50L1899.08 1219.50Q1902.90 1192.72 1908.64 1188.26Q1914.38 1183.80 1930.95 1192.72L1930.95 1192.72Q1947.53 1201.65 1971.11 1224.60Q1994.70 1247.55 2004.90 1266.67L2004.90 1266.67Q2011.28 1279.42 2011.28 1284.53Q2011.28 1289.63 2006.18 1302.38L2006.18 1302.38Q1995.98 1318.95 1999.16 1318.95Q2002.35 1318.95 2030.40 1311.94Q2058.45 1304.92 2087.14 1304.92Q2115.82 1304.92 2125.39 1296Q2134.95 1287.07 2154.07 1271.78L2154.07 1271.78Q2184.68 1250.10 2192.32 1232.25L2192.32 1232.25Q2194.88 1225.88 2219.74 1199.10Q2244.60 1172.32 2259.26 1154.47Q2273.93 1136.63 2293.05 1116.22Q2312.18 1095.82 2312.18 1091.36Q2312.18 1086.90 2323.65 1081.80ZM2114.55 956.85L2114.55 956.85Q2127.30 942.82 2132.40 941.55Q2137.50 940.27 2145.15 949.20L2145.15 949.20Q2154.07 960.67 2171.93 960.67L2171.93 960.67Q2207.63 960.67 2207.63 1002.75L2207.63 1002.75Q2207.63 1020.60 2198.06 1032.71Q2188.50 1044.82 2174.47 1044.82L2174.47 1044.82Q2165.55 1044.82 2132.40 1060.13L2132.40 1060.13Q2090.32 1080.52 1980.68 1118.77L1980.68 1118.77Q1900.35 1145.55 1891.43 1145.55L1891.43 1145.55Q1865.92 1145.55 1942.43 1092L1942.43 1092Q2013.83 1043.55 2046.97 1017.41Q2080.13 991.27 2114.55 956.85Z"/>
  </svg>