<svg xmlns="http://www.w3.org/2000/svg" viewBox="0 0 3000 3000" width="3000" height="3000">
    <path fill="#000000" d="M630 1024L630 964L2386 964L2386 1024L630 1024ZM1002 738L1002 738L1052 716Q1108 776 1163 852Q1218 928 1244 980L1244 980L1192 1010Q1166 954 1111 877Q1056 800 1002 738ZM1214 1578L1214 1578L1262 1554Q1306 1598 1349 1652Q1392 1706 1427 1758Q1462 1810 1480 1852L1480 1852L1428 1882Q1408 1840 1374 1787Q1340 1734 1298 1679Q1256 1624 1214 1578ZM2054 1568L2054 1568L2106 1544Q2154 1594 2200 1654Q2246 1714 2284 1773Q2322 1832 2342 1878L2342 1878L2290 1908Q2270 1860 2232 1801Q2194 1742 2148 1680Q2102 1618 2054 1568ZM1904 712L1904 712L1958 740Q1916 808 1863 881Q1810 954 1762 1008L1762 1008L1718 982Q1748 946 1783 898Q1818 850 1850 800Q1882 750 1904 712ZM1110 2362L1110 1998L1168 1998L1168 2362Q1168 2396 1194 2408Q1220 2420 1312 2420L1312 2420Q1334 2420 1396 2420Q1458 2420 1534 2420Q1610 2420 1676 2420Q1742 2420 1772 2420L1772 2420Q1824 2420 1850 2404Q1876 2388 1886 2333Q1896 2278 1900 2164L1900 2164Q1910 2170 1920 2176Q1930 2182 1940 2185Q1950 2188 1958 2192L1958 2192Q1954 2308 1939 2371Q1924 2434 1887 2457Q1850 2480 1776 2480L1776 2480Q1766 2480 1719 2480Q1672 2480 1610 2480Q1548 2480 1485 2480Q1422 2480 1375 2480Q1328 2480 1318 2480L1318 2480Q1238 2480 1192 2472Q1146 2464 1128 2438Q1110 2412 1110 2362L1110 2362ZM1390 1980L1390 1980L1436 1954Q1494 2006 1555 2073Q1616 2140 1648 2190L1648 2190L1604 2220Q1570 2170 1509 2102Q1448 2034 1390 1980ZM2056 1968L2056 1968L2104 1944Q2150 2008 2198 2081Q2246 2154 2288 2221Q2330 2288 2356 2336L2356 2336L2308 2370Q2282 2320 2239 2250Q2196 2180 2149 2106Q2102 2032 2056 1968ZM836 1974L836 1974L886 1994Q866 2056 836 2131Q806 2206 769 2277Q732 2348 688 2402L688 2402L636 2372Q680 2322 718 2252Q756 2182 786 2109Q816 2036 836 1974ZM704 1512L704 1512Q702 1504 698 1491Q694 1478 690 1465Q686 1452 682 1444L682 1444Q726 1438 778 1376L778 1376Q800 1356 846 1302Q892 1248 947 1176Q1002 1104 1044 1030L1044 1030L1104 1058Q1024 1180 937 1286Q850 1392 764 1468L764 1468L764 1470Q764 1470 755 1474Q746 1478 734 1484Q722 1490 713 1497Q704 1504 704 1512ZM704 1508L704 1508L704 1454L754 1428L1188 1396Q1186 1410 1186 1425Q1186 1440 1186 1450L1186 1450Q1034 1464 943 1473Q852 1482 804 1488Q756 1494 735 1499Q714 1504 704 1508ZM700 1872L700 1872Q698 1864 694 1851Q690 1838 686 1825Q682 1812 678 1804L678 1804Q706 1800 748 1772Q790 1744 842 1702L842 1702Q870 1680 925 1629Q980 1578 1051 1509Q1122 1440 1198 1359Q1274 1278 1342 1194L1342 1194L1400 1226Q1244 1404 1082 1560Q920 1716 760 1830L760 1830L760 1832Q760 1832 751 1835Q742 1838 730 1844Q718 1850 709 1857Q700 1864 700 1872ZM700 1872L700 1872L700 1818L752 1792L1392 1732Q1392 1746 1394 1762Q1396 1778 1398 1788L1398 1788Q1172 1810 1038 1824Q904 1838 836 1846Q768 1854 741 1860Q714 1866 700 1872ZM1506 1512L1506 1512Q1504 1504 1500 1491Q1496 1478 1492 1465Q1488 1452 1484 1444L1484 1444Q1528 1438 1580 1376L1580 1376Q1602 1356 1648 1302Q1694 1248 1748 1176Q1802 1104 1844 1030L1844 1030L1906 1058Q1826 1180 1739 1286Q1652 1392 1564 1468L1564 1468L1564 1470Q1564 1470 1555 1474Q1546 1478 1535 1484Q1524 1490 1515 1497Q1506 1504 1506 1512ZM1506 1512L1506 1512L1506 1458L1554 1432L2002 1398Q2000 1412 1999 1428Q1998 1444 2000 1454L2000 1454Q1844 1468 1750 1477Q1656 1486 1607 1492Q1558 1498 1537 1503Q1516 1508 1506 1512ZM1534 1868L1534 1868Q1532 1860 1528 1847Q1524 1834 1520 1821Q1516 1808 1512 1800L1512 1800Q1540 1796 1580 1768Q1620 1740 1668 1698L1668 1698Q1696 1676 1750 1627Q1804 1578 1873 1509Q1942 1440 2015 1360Q2088 1280 2152 1198L2152 1198L2214 1228Q2062 1404 1905 1559Q1748 1714 1592 1826L1592 1826L1592 1828Q1592 1828 1583 1831Q1574 1834 1563 1840Q1552 1846 1543 1853Q1534 1860 1534 1868ZM1534 1868L1534 1868L1534 1816L1584 1788L2236 1728Q2236 1740 2237 1757Q2238 1774 2240 1784L2240 1784Q2010 1806 1875 1820Q1740 1834 1671 1842Q1602 1850 1574 1856Q1546 1862 1534 1868Z"/>
  </svg>