<svg xmlns="http://www.w3.org/2000/svg" viewBox="0 0 3000 3000" width="3000" height="3000">
    <path fill="#000000" d="M307.87 1196.55L307.87 1158.30L1427.32 1158.30L1427.32 1196.55L307.87 1196.55ZM545.02 1014.22L545.02 1014.22L576.90 1000.20Q612.60 1038.45 647.66 1086.90Q682.72 1135.35 699.30 1168.50L699.30 1168.50L666.15 1187.63Q649.57 1151.92 614.51 1102.84Q579.45 1053.75 545.02 1014.22ZM680.17 1549.72L680.17 1549.72L710.77 1534.43Q738.82 1562.47 766.24 1596.90Q793.65 1631.33 815.96 1664.47Q838.27 1697.63 849.75 1724.40L849.75 1724.40L816.60 1743.53Q803.85 1716.75 782.17 1682.96Q760.50 1649.18 733.72 1614.11Q706.95 1579.05 680.17 1549.72ZM1215.67 1543.35L1215.67 1543.35L1248.82 1528.05Q1279.42 1559.92 1308.75 1598.18Q1338.07 1636.43 1362.30 1674.04Q1386.52 1711.65 1399.27 1740.98L1399.27 1740.98L1366.13 1760.10Q1353.38 1729.50 1329.15 1691.89Q1304.92 1654.28 1275.60 1614.75Q1246.27 1575.22 1215.67 1543.35ZM1120.05 997.65L1120.05 997.65L1154.47 1015.50Q1127.70 1058.85 1093.91 1105.39Q1060.13 1151.92 1029.52 1186.35L1029.52 1186.35L1001.47 1169.78Q1020.60 1146.83 1042.91 1116.22Q1065.22 1085.63 1085.63 1053.75Q1106.02 1021.88 1120.05 997.65ZM613.87 2049.53L613.87 1817.48L650.85 1817.48L650.85 2049.53Q650.85 2071.20 667.42 2078.85Q684.00 2086.50 742.65 2086.50L742.65 2086.50Q756.67 2086.50 796.20 2086.50Q835.72 2086.50 884.17 2086.50Q932.62 2086.50 974.70 2086.50Q1016.77 2086.50 1035.90 2086.50L1035.90 2086.50Q1069.05 2086.50 1085.63 2076.30Q1102.20 2066.10 1108.57 2031.04Q1114.95 1995.98 1117.50 1923.30L1117.50 1923.30Q1123.88 1927.13 1130.25 1930.95Q1136.63 1934.78 1143 1936.69Q1149.38 1938.60 1154.47 1941.15L1154.47 1941.15Q1151.92 2015.10 1142.36 2055.26Q1132.80 2095.43 1109.21 2110.09Q1085.63 2124.75 1038.45 2124.75L1038.45 2124.75Q1032.07 2124.75 1002.11 2124.75Q972.15 2124.75 932.62 2124.75Q893.10 2124.75 852.94 2124.75Q812.77 2124.75 782.81 2124.75Q752.85 2124.75 746.47 2124.75L746.47 2124.75Q695.47 2124.75 666.15 2119.65Q636.82 2114.55 625.35 2097.97Q613.87 2081.40 613.87 2049.53L613.87 2049.53ZM792.37 1806L792.37 1806L821.70 1789.43Q858.67 1822.58 897.56 1865.29Q936.45 1908 956.85 1939.88L956.85 1939.88L928.80 1959Q907.12 1927.13 868.24 1883.78Q829.35 1840.43 792.37 1806ZM1216.95 1798.35L1216.95 1798.35L1247.55 1783.05Q1276.87 1823.85 1307.47 1870.39Q1338.07 1916.93 1364.85 1959.64Q1391.63 2002.35 1408.20 2032.95L1408.20 2032.95L1377.60 2054.63Q1361.02 2022.75 1333.61 1978.13Q1306.20 1933.50 1276.24 1886.33Q1246.27 1839.15 1216.95 1798.35ZM439.20 1802.18L439.20 1802.18L471.07 1814.93Q458.32 1854.45 439.20 1902.26Q420.07 1950.08 396.49 1995.34Q372.90 2040.60 344.85 2075.03L344.85 2075.03L311.70 2055.90Q339.75 2024.03 363.97 1979.40Q388.20 1934.78 407.32 1888.24Q426.45 1841.70 439.20 1802.18ZM355.05 1507.65L355.05 1507.65Q353.77 1502.55 351.22 1494.26Q348.67 1485.97 346.12 1477.69Q343.57 1469.40 341.02 1464.30L341.02 1464.30Q369.07 1460.47 402.22 1420.95L402.22 1420.95Q416.25 1408.20 445.57 1373.78Q474.90 1339.35 509.96 1293.45Q545.02 1247.55 571.80 1200.38L571.80 1200.38L610.05 1218.22Q559.05 1296 503.59 1363.58Q448.12 1431.15 393.30 1479.60L393.30 1479.60L393.30 1480.88Q393.30 1480.88 387.56 1483.43Q381.82 1485.97 374.17 1489.80Q366.52 1493.63 360.79 1498.09Q355.05 1502.55 355.05 1507.65ZM355.05 1505.10L355.05 1505.10L355.05 1470.68L386.92 1454.10L663.60 1433.70Q662.32 1442.63 662.32 1452.19Q662.32 1461.75 662.32 1468.13L662.32 1468.13Q565.42 1477.05 507.41 1482.79Q449.40 1488.53 418.80 1492.35Q388.20 1496.18 374.81 1499.36Q361.42 1502.55 355.05 1505.10ZM352.50 1737.15L352.50 1737.15Q351.22 1732.05 348.67 1723.76Q346.12 1715.48 343.57 1707.19Q341.02 1698.90 338.47 1693.80L338.47 1693.80Q356.32 1691.25 383.10 1673.40Q409.87 1655.55 443.02 1628.78L443.02 1628.78Q460.87 1614.75 495.94 1582.24Q531.00 1549.72 576.26 1505.74Q621.52 1461.75 669.97 1410.11Q718.42 1358.47 761.77 1304.93L761.77 1304.93L798.75 1325.33Q699.30 1438.80 596.02 1538.25Q492.75 1637.70 390.75 1710.38L390.75 1710.38L390.75 1711.65Q390.75 1711.65 385.01 1713.56Q379.27 1715.48 371.62 1719.30Q363.97 1723.13 358.24 1727.59Q352.50 1732.05 352.50 1737.15ZM352.50 1737.15L352.50 1737.15L352.50 1702.73L385.65 1686.15L793.65 1647.90Q793.65 1656.83 794.92 1667.03Q796.20 1677.23 797.47 1683.60L797.47 1683.60Q653.40 1697.63 567.97 1706.55Q482.55 1715.48 439.20 1720.58Q395.85 1725.68 378.64 1729.50Q361.42 1733.33 352.50 1737.15ZM866.32 1507.65L866.32 1507.65Q865.05 1502.55 862.50 1494.26Q859.95 1485.97 857.40 1477.69Q854.85 1469.40 852.30 1464.30L852.30 1464.30Q880.35 1460.47 913.50 1420.95L913.50 1420.95Q927.52 1408.20 956.85 1373.78Q986.17 1339.35 1020.60 1293.45Q1055.02 1247.55 1081.80 1200.38L1081.80 1200.38L1121.32 1218.22Q1070.32 1296 1014.86 1363.58Q959.40 1431.15 903.30 1479.60L903.30 1479.60L903.30 1480.88Q903.30 1480.88 897.56 1483.43Q891.82 1485.97 884.81 1489.80Q877.80 1493.63 872.06 1498.09Q866.32 1502.55 866.32 1507.65ZM866.32 1507.65L866.32 1507.65L866.32 1473.22L896.92 1456.65L1182.52 1434.97Q1181.25 1443.90 1180.61 1454.10Q1179.97 1464.30 1181.25 1470.68L1181.25 1470.68Q1081.80 1479.60 1021.87 1485.34Q961.95 1491.08 930.71 1494.90Q899.47 1498.72 886.09 1501.91Q872.70 1505.10 866.32 1507.65ZM884.17 1734.60L884.17 1734.60Q882.90 1729.50 880.35 1721.21Q877.80 1712.93 875.25 1704.64Q872.70 1696.35 870.15 1691.25L870.15 1691.25Q888.00 1688.70 913.50 1670.85Q939.00 1653 969.60 1626.22L969.60 1626.22Q987.45 1612.20 1021.87 1580.96Q1056.30 1549.72 1100.29 1505.74Q1144.27 1461.75 1190.81 1410.75Q1237.35 1359.75 1278.15 1307.47L1278.15 1307.47L1317.67 1326.60Q1220.77 1438.80 1120.69 1537.61Q1020.60 1636.43 921.15 1707.83L921.15 1707.83L921.15 1709.10Q921.15 1709.10 915.41 1711.01Q909.67 1712.93 902.66 1716.75Q895.65 1720.58 889.91 1725.04Q884.17 1729.50 884.17 1734.60ZM884.17 1734.60L884.17 1734.60L884.17 1701.45L916.05 1683.60L1331.70 1645.35Q1331.70 1653 1332.34 1663.84Q1332.97 1674.68 1334.25 1681.05L1334.25 1681.05Q1187.63 1695.08 1101.56 1704Q1015.50 1712.93 971.51 1718.03Q927.52 1723.13 909.67 1726.95Q891.82 1730.78 884.17 1734.60ZM1609.65 1506.38L1609.65 1296L2664.07 1296L2664.07 1506.38L2625.82 1506.38L2625.82 1332.97L1647.90 1332.97L1647.90 1506.38L1609.65 1506.38ZM2565.90 997.65L2565.90 997.65L2592.68 1029.53Q2511.08 1046.10 2400.79 1059.49Q2290.50 1072.88 2165.55 1083.71Q2040.60 1094.55 1913.10 1101.56Q1785.60 1108.58 1668.30 1112.40L1668.30 1112.40Q1667.03 1104.75 1663.84 1094.55Q1660.65 1084.35 1658.10 1076.70L1658.10 1076.70Q1774.13 1072.88 1901.63 1065.86Q2029.13 1058.85 2152.80 1048.65Q2276.48 1038.45 2383.57 1025.70Q2490.68 1012.95 2565.90 997.65ZM1767.75 1134.08L1767.75 1134.08L1800.90 1120.05Q1834.05 1154.47 1860.83 1198.46Q1887.60 1242.45 1899.08 1275.60L1899.08 1275.60L1863.38 1292.17Q1853.17 1259.03 1825.76 1214.40Q1798.35 1169.78 1767.75 1134.08ZM2048.25 1111.13L2048.25 1111.13L2083.95 1099.65Q2112 1136.63 2134.95 1183.16Q2157.90 1229.70 2165.55 1264.13L2165.55 1264.13L2127.30 1276.88Q2120.93 1242.45 2098.61 1195.91Q2076.30 1149.38 2048.25 1111.13ZM2412.90 1441.35L2412.90 1441.35L2442.23 1422.22Q2479.20 1451.55 2517.45 1487.25Q2555.70 1522.95 2588.85 1558.01Q2622 1593.08 2641.13 1621.13L2641.13 1621.13L2610.53 1642.80Q2591.40 1614.75 2558.25 1579.05Q2525.10 1543.35 2487.49 1507.01Q2449.88 1470.68 2412.90 1441.35ZM2022.75 1383.97L2022.75 1383.97L2046.97 1357.20Q2099.25 1380.15 2155.35 1411.39Q2211.45 1442.63 2243.32 1468.13L2243.32 1468.13L2220.38 1498.72Q2187.22 1471.95 2131.13 1439.44Q2075.03 1406.93 2022.75 1383.97ZM2500.88 1097.10L2500.88 1097.10L2535.30 1118.78Q2502.15 1169.78 2460.07 1224.60Q2418 1279.42 2382.30 1320.22L2382.30 1320.22L2355.53 1302.38Q2378.48 1275.60 2405.89 1239.26Q2433.30 1202.92 2458.80 1164.67Q2484.30 1126.42 2500.88 1097.10ZM2461.35 1763.93L2461.35 1757.55L2472.82 1757.55L2481.75 1755L2505.98 1774.13Q2442.23 1859.55 2345.32 1922.03Q2248.43 1984.50 2129.21 2028.49Q2010 2072.47 1877.40 2101.16Q1744.80 2129.85 1609.65 2147.70L1609.65 2147.70Q1608.38 2142.60 1605.19 2136.22Q1602 2129.85 1598.17 2123.47Q1594.35 2117.10 1590.53 2113.28L1590.53 2113.28Q1723.13 2097.97 1853.17 2071.20Q1983.22 2044.43 2099.89 2001.71Q2216.55 1959 2309.63 1900.35Q2402.70 1841.70 2461.35 1763.93L2461.35 1763.93ZM1700.17 1719.30L1732.05 1701.45Q1817.47 1817.48 1964.10 1900.99Q2110.72 1984.50 2297.51 2035.50Q2484.30 2086.50 2692.13 2105.63L2692.13 2105.63Q2688.30 2110.72 2683.84 2117.10Q2679.38 2123.47 2675.55 2129.21Q2671.73 2134.95 2669.18 2141.33L2669.18 2141.33Q2514.90 2124.75 2369.55 2090.96Q2224.20 2057.18 2096.70 2004.90Q1969.20 1952.63 1867.84 1881.86Q1766.47 1811.10 1700.17 1719.30L1700.17 1719.30ZM1988.33 1647.90L1988.33 1647.90L2025.30 1661.93Q1973.03 1724.40 1904.81 1782.41Q1836.60 1840.43 1762.01 1888.88Q1687.42 1937.33 1613.47 1974.30L1613.47 1974.30Q1610.92 1970.48 1605.19 1965.38Q1599.45 1960.28 1593.08 1955.18Q1586.70 1950.08 1581.60 1947.53L1581.60 1947.53Q1658.10 1911.83 1733.33 1865.29Q1808.55 1818.75 1874.85 1763.29Q1941.15 1707.83 1988.33 1647.90ZM1924.58 1581.60L1924.58 1426.05L1962.83 1426.05L1962.83 1581.60Q1962.83 1599.45 1976.21 1605.19Q1989.60 1610.93 2036.78 1610.93L2036.78 1610.93Q2048.25 1610.93 2080.13 1610.93Q2112 1610.93 2152.16 1610.93Q2192.32 1610.93 2227.39 1610.93Q2262.45 1610.93 2277.75 1610.93L2277.75 1610.93Q2301.98 1610.93 2314.09 1604.55Q2326.20 1598.18 2331.30 1574.59Q2336.40 1551 2337.68 1502.55L2337.68 1502.55Q2345.32 1507.65 2354.89 1510.84Q2364.45 1514.03 2373.38 1516.58L2373.38 1516.58Q2370.82 1570.13 2363.18 1598.81Q2355.53 1627.50 2337.04 1637.70Q2318.55 1647.90 2282.85 1647.90L2282.85 1647.90Q2276.48 1647.90 2251.61 1647.90Q2226.75 1647.90 2193.60 1647.90Q2160.45 1647.90 2126.66 1647.90Q2092.88 1647.90 2068.65 1647.90Q2044.43 1647.90 2039.33 1647.90L2039.33 1647.90Q1994.70 1647.90 1969.20 1643.44Q1943.70 1638.97 1934.14 1624.31Q1924.58 1609.65 1924.58 1581.60L1924.58 1581.60ZM1791.97 1431.15L1791.97 1431.15L1825.13 1442.63Q1806 1505.10 1769.66 1565.66Q1733.33 1626.22 1669.58 1661.93L1669.58 1661.93L1640.25 1637.70Q1700.17 1604.55 1737.15 1548.45Q1774.13 1492.35 1791.97 1431.15ZM1867.20 1794.53L1905.45 1757.55L2474.10 1757.55L2474.10 1794.53L1867.20 1794.53Z"/>
  </svg>