<svg xmlns="http://www.w3.org/2000/svg" viewBox="0 0 3000 3000" width="3000" height="3000">
    <path fill="#000000" d="M2312.50 1789.06Q2269.53 1789.06 2222.66 1708.98L2222.66 1708.98L1589.84 1765.63Q1554.69 1767.58 1535.16 1747.07Q1515.63 1726.56 1515.63 1685.55L1515.63 1685.55Q1515.63 1615.23 1623.05 1615.23L1623.05 1615.23L1687.50 1615.23L1798.83 1458.98Q1648.44 1339.84 1519.53 1271.48L1519.53 1271.48Q1470.70 1246.09 1470.70 1210.94L1470.70 1210.94Q1470.70 1130.86 1541.02 1130.86L1541.02 1130.86Q1564.45 1130.86 1634.77 1177.73L1634.77 1177.73Q1705.08 1076.17 1763.67 947.27L1763.67 947.27L1931.64 947.27Q1851.56 1101.56 1742.19 1242.19L1742.19 1242.19L1880.86 1339.84L2044.92 1070.31Q2064.45 1039.06 2082.03 1024.41Q2099.61 1009.77 2121.09 1009.77L2121.09 1009.77Q2203.13 1009.77 2203.13 1083.98L2203.13 1083.98Q2203.13 1117.19 2115.23 1246.09Q2027.34 1375 1845.70 1609.38L1845.70 1609.38L2154.30 1591.80L2109.38 1525.39Q2082.03 1484.38 2082.03 1468.75L2082.03 1468.75Q2082.03 1437.50 2101.56 1421.88Q2121.09 1406.25 2154.30 1406.25L2154.30 1406.25Q2197.27 1406.25 2294.92 1537.11L2294.92 1537.11Q2392.58 1669.92 2392.58 1714.84L2392.58 1714.84Q2392.58 1751.95 2372.07 1770.51Q2351.56 1789.06 2312.50 1789.06L2312.50 1789.06ZM714.84 2310.55Q632.81 2310.55 632.81 2224.61L632.81 2224.61Q632.81 2201.17 648.44 2175.78L648.44 2175.78Q732.42 2025.39 761.72 1908.20L761.72 1908.20Q769.53 1873.05 791.02 1854.49Q812.50 1835.94 841.80 1835.94L841.80 1835.94Q917.97 1835.94 917.97 1910.16L917.97 1910.16Q917.97 2007.81 806.64 2234.38L806.64 2234.38Q769.53 2310.55 714.84 2310.55L714.84 2310.55ZM1468.75 2347.66Q1207.03 2347.66 1144.53 2316.41L1144.53 2316.41Q1083.98 2287.11 1082.03 2203.13L1082.03 2203.13L1082.03 1892.58Q1082.03 1798.83 1160.16 1798.83L1160.16 1798.83Q1238.28 1798.83 1238.28 1892.58L1238.28 1892.58L1238.28 2140.63Q1238.28 2187.50 1292.97 2193.36L1292.97 2193.36Q1363.28 2201.17 1447.27 2201.17L1447.27 2201.17Q1714.84 2201.17 1761.72 2179.69L1761.72 2179.69Q1794.92 2162.11 1804.69 2072.27L1804.69 2072.27Q1808.59 2029.30 1828.13 2009.77Q1847.66 1990.23 1886.72 1990.23L1886.72 1990.23Q1931.64 1990.23 1951.17 2009.77Q1970.70 2029.30 1970.70 2074.22L1970.70 2074.22Q1970.70 2250 1882.81 2302.73L1882.81 2302.73Q1808.59 2347.66 1468.75 2347.66L1468.75 2347.66ZM1574.22 2058.59Q1535.16 2058.59 1500 1990.23L1500 1990.23Q1480.47 1955.08 1464.84 1930.66Q1449.22 1906.25 1445.31 1898.44L1445.31 1898.44Q1429.69 1871.09 1429.69 1861.33L1429.69 1861.33Q1429.69 1796.88 1505.86 1796.88L1505.86 1796.88Q1541.02 1796.88 1595.70 1873.05L1595.70 1873.05Q1652.34 1949.22 1652.34 1980.47L1652.34 1980.47Q1652.34 2019.53 1633.79 2039.06Q1615.23 2058.59 1574.22 2058.59L1574.22 2058.59ZM1423.83 1777.34Q1384.77 1777.34 1345.70 1705.08L1345.70 1705.08L689.45 1765.63Q654.30 1767.58 635.74 1747.07Q617.19 1726.56 617.19 1685.55L617.19 1685.55Q617.19 1615.23 722.66 1615.23L722.66 1615.23L859.38 1613.28L1007.81 1429.69Q884.77 1332.03 761.72 1265.63L761.72 1265.63Q710.94 1238.28 710.94 1205.08L710.94 1205.08Q710.94 1125 781.25 1125L781.25 1125Q802.73 1125 880.86 1173.83L880.86 1173.83Q941.41 1089.84 1007.81 945.31L1007.81 945.31L1175.78 947.27Q1103.52 1085.94 988.28 1242.19L988.28 1242.19L1093.75 1312.50Q1210.94 1156.25 1259.77 1068.36L1259.77 1068.36Q1291.02 1009.77 1343.75 1009.77L1343.75 1009.77Q1382.81 1009.77 1405.27 1028.32Q1427.73 1046.88 1427.73 1082.03L1427.73 1082.03Q1427.73 1136.72 1029.30 1607.42L1029.30 1607.42L1279.30 1591.80L1246.09 1535.16Q1242.19 1527.34 1231.45 1509.77Q1220.70 1492.19 1220.70 1482.42L1220.70 1482.42Q1220.70 1419.92 1285.16 1419.92L1285.16 1419.92Q1308.59 1419.92 1338.87 1450.20Q1369.14 1480.47 1414.06 1542.97L1414.06 1542.97Q1500 1664.06 1500 1708.98L1500 1708.98Q1500 1777.34 1423.83 1777.34L1423.83 1777.34ZM2279.30 2267.58Q2238.28 2267.58 2212.89 2238.28L2212.89 2238.28L2095.70 2042.97L2048.83 1978.52Q2013.67 1931.64 2013.67 1908.20L2013.67 1908.20Q2013.67 1835.94 2089.84 1835.94L2089.84 1835.94Q2119.14 1835.94 2140.63 1857.42L2140.63 1857.42L2255.86 2000Q2306.64 2062.50 2335.94 2114.26Q2365.23 2166.02 2365.23 2183.59L2365.23 2183.59Q2365.23 2226.56 2344.73 2247.07Q2324.22 2267.58 2279.30 2267.58L2279.30 2267.58ZM701.17 980.47Q621.09 980.47 621.09 908.20L621.09 908.20Q621.09 837.89 701.17 837.89L701.17 837.89L1115.23 837.89L1054.69 726.56Q1035.16 691.41 1035.16 671.88L1035.16 671.88Q1035.16 611.33 1109.38 611.33L1109.38 611.33Q1179.69 611.33 1279.30 837.89L1279.30 837.89L1667.97 837.89L1728.52 679.69Q1755.86 609.38 1818.36 609.38L1818.36 609.38Q1904.30 609.38 1904.30 671.88L1904.30 671.88Q1904.30 699.22 1826.17 837.89L1826.17 837.89L2298.83 837.89Q2380.86 837.89 2380.86 908.20L2380.86 908.20Q2380.86 980.47 2298.83 980.47L2298.83 980.47L701.17 980.47Z"/>
  </svg>