<svg xmlns="http://www.w3.org/2000/svg" viewBox="0 0 3000 3000" width="3000" height="3000">
    <path fill="#000000" d="M1912 634L1912 634Q1912 664 1664 848L1664 848L2010 826Q2076 820 2094 813Q2112 806 2122 806Q2132 806 2152 816L2152 816Q2212 844 2212 886L2212 886Q2212 912 2178 916L2178 916L914 994L862 996Q780 996 756 908L756 908Q754 904 754 896Q754 888 764 888L764 888L768 888Q812 896 846 896L846 896L1512 856Q1620 764 1744 634L1744 634Q1758 618 1778 548L1778 548Q1784 530 1801 530Q1818 530 1845 549Q1872 568 1892 593Q1912 618 1912 634ZM1090 664L1090 664Q1076 654 1076 636Q1076 618 1092 597Q1108 576 1126 576Q1144 576 1185 603Q1226 630 1271 668Q1316 706 1349 741Q1382 776 1382 797Q1382 818 1356 838Q1330 858 1312 858Q1294 858 1245 803Q1196 748 1090 664ZM2022 1518L2022 1518Q1958 1436 1958 1418Q1958 1400 1976 1385Q1994 1370 2012 1370Q2030 1370 2042 1385Q2054 1400 2085 1438Q2116 1476 2178 1557Q2240 1638 2240 1668Q2240 1698 2211 1712Q2182 1726 2162 1726Q2142 1726 2129 1696Q2116 1666 2072 1594L2072 1594Q1842 1654 1702 1682Q1562 1710 1560 1710L1560 1710Q1504 1710 1468 1602L1468 1602Q1468 1596 1480 1596L1480 1596L1490 1596Q1500 1598 1516 1598Q1532 1598 1548 1598Q1564 1598 1578 1596L1578 1596Q1630 1542 1730 1424L1730 1424Q1572 1306 1506 1270L1506 1270Q1476 1252 1476 1238Q1476 1224 1492 1198Q1508 1172 1529 1172Q1550 1172 1568 1184L1568 1184L1618 1218Q1728 1054 1728 978L1728 978Q1728 954 1744 954Q1760 954 1788 968L1788 968Q1858 1004 1858 1040L1858 1040Q1858 1052 1800 1130Q1742 1208 1690 1270L1690 1270Q1704 1280 1796 1352L1796 1352Q1924 1194 1937 1160Q1950 1126 1950 1104L1950 1104L1950 1086Q1950 1062 1970 1062L1970 1062Q1978 1062 2004 1080L2004 1080Q2082 1128 2082 1164L2082 1164Q2082 1172 2040 1228L2040 1228Q1924 1388 1712 1578L1712 1578Q1858 1558 2022 1518ZM1292 1556L1292 1556Q1242 1472 1242 1468L1242 1468Q1242 1446 1270 1434Q1298 1422 1304 1422L1304 1422Q1324 1422 1401 1540Q1478 1658 1478 1686Q1478 1714 1442 1732L1442 1732Q1422 1744 1406 1744L1406 1744Q1380 1744 1366 1706Q1352 1668 1332 1634L1332 1634Q1120 1698 1001 1724Q882 1750 864 1750Q846 1750 814 1720L814 1720Q768 1674 768 1654Q768 1634 782 1634L782 1634L786 1634Q796 1636 804 1636L804 1636L824 1636Q848 1636 876 1632L876 1632Q926 1582 968 1535Q1010 1488 1048 1446L1048 1446Q956 1368 828 1288L828 1288Q802 1270 802 1253Q802 1236 819 1214Q836 1192 850 1192Q864 1192 888 1206L888 1206L946 1244Q1058 1096 1058 1022L1058 1022L1058 1008Q1058 988 1074 988L1074 988Q1116 988 1168 1040L1168 1040Q1188 1060 1188 1072L1188 1072Q1188 1100 1018 1296L1018 1296Q1060 1326 1116 1374L1116 1374Q1250 1218 1262 1186Q1274 1154 1274 1126Q1274 1098 1292 1098L1292 1098Q1302 1098 1330 1114L1330 1114Q1410 1160 1410 1192L1410 1192Q1410 1200 1323 1305Q1236 1410 1016 1612L1016 1612Q1144 1592 1292 1556ZM1578 2042L1578 2042Q1488 1944 1376 1852L1376 1852Q1358 1836 1358 1822Q1358 1808 1375 1782Q1392 1756 1407 1756Q1422 1756 1452 1775Q1482 1794 1522 1824Q1562 1854 1601 1888Q1640 1922 1665 1950Q1690 1978 1690 1995Q1690 2012 1663 2040Q1636 2068 1618 2068Q1600 2068 1578 2042ZM2272 2138L2272 2138Q2154 1998 2010 1876L2010 1876Q1982 1852 1982 1840Q1982 1828 2000 1800Q2018 1772 2038 1772Q2058 1772 2097 1799Q2136 1826 2185 1868Q2234 1910 2281 1955Q2328 2000 2358 2035Q2388 2070 2388 2091Q2388 2112 2356 2139Q2324 2166 2310 2166Q2296 2166 2272 2138ZM770 2240L770 2240Q750 2272 726 2272Q702 2272 674 2250Q646 2228 646 2210Q646 2192 684 2140L684 2140Q782 2006 854 1826L854 1826Q868 1788 891 1788Q914 1788 940 1804Q966 1820 966 1841Q966 1862 936 1930L936 1930Q872 2084 770 2240ZM2086 2232L2086 2232Q2086 2310 1916 2320L1916 2320Q1844 2326 1744 2326L1744 2326Q1452 2326 1314 2252L1314 2252Q1186 2186 1110 2036L1110 2036Q1054 1928 1054 1872L1054 1872Q1054 1840 1108 1834L1108 1834L1126 1832Q1154 1832 1166 1872L1166 1872Q1204 1994 1270 2067Q1336 2140 1452 2171Q1568 2202 1714 2202Q1860 2202 1887 2198Q1914 2194 1914 2184L1914 2184L1874 2096Q1824 1978 1824 1942Q1824 1906 1840 1906L1840 1906Q1862 1906 1901 1970Q1940 2034 2052 2164L2052 2164Q2086 2208 2086 2232Z"/>
  </svg>