<svg xmlns="http://www.w3.org/2000/svg" viewBox="0 0 3000 3000" width="3000" height="3000">
    <path fill="#000000" d="M1275.60 2106.26L1275.60 2106.26Q1297.27 2106.26 1316.40 2068.01L1316.40 2068.01Q1325.32 2050.16 1325.32 2036.78Q1325.32 2023.39 1316.40 2013.83Q1307.47 2004.26 1290.90 1995.34L1290.90 1995.34Q1168.50 1923.94 1087.54 1890.15Q1006.57 1856.36 997.65 1856.36L997.65 1856.36Q984.90 1856.36 969.60 1878.04Q954.30 1899.71 954.30 1916.29L954.30 1916.29Q954.30 1936.69 981.07 1948.16L981.07 1948.16Q1047.38 1976.21 1114.95 2014.46Q1182.52 2052.71 1248.82 2096.06L1248.82 2096.06Q1265.40 2106.26 1275.60 2106.26ZM778.35 1971.11L778.35 1971.11Q796.20 1962.19 796.20 1945.61L796.20 1945.61Q796.20 1930.31 779.62 1909.28Q763.05 1888.24 743.92 1871.66L743.92 1871.66Q737.55 1865.29 732.45 1861.46L732.45 1861.46L1357.20 1839.79Q1369.95 1838.51 1380.79 1832.78Q1391.63 1827.04 1391.63 1813.01L1391.63 1813.01Q1391.63 1797.71 1377.60 1782.41Q1363.57 1767.11 1346.36 1756.91Q1329.15 1746.71 1313.85 1746.71L1313.85 1746.71Q1306.20 1746.71 1297.27 1749.26L1297.27 1749.26Q1276.87 1755.64 1259.66 1758.19Q1242.45 1760.74 1229.70 1762.01L1229.70 1762.01L525.90 1788.79L533.55 1420.31Q533.55 1393.54 511.87 1380.15Q490.20 1366.76 468.52 1363.58Q446.85 1360.39 440.47 1360.39L440.47 1360.39Q418.80 1360.39 418.80 1376.96L418.80 1376.96Q418.80 1387.16 425.17 1397.36L425.17 1397.36Q431.55 1410.11 436.01 1423.50Q440.47 1436.89 440.47 1449.64L440.47 1449.64L432.82 1807.91Q432.82 1837.24 444.30 1851.26Q455.77 1865.29 469.16 1869.75Q482.55 1874.21 487.65 1874.21L487.65 1874.21Q497.85 1874.21 506.14 1872.30Q514.42 1870.39 525.90 1869.11L525.90 1869.11L698.02 1862.74Q694.20 1867.84 692.92 1876.76L692.92 1876.76Q686.55 1902.26 663.60 1918.84L663.60 1918.84Q610.05 1958.36 545.66 1992.79Q481.27 2027.21 408.60 2056.54L408.60 2056.54Q370.35 2073.11 370.35 2089.69L370.35 2089.69Q370.35 2107.54 400.95 2107.54L400.95 2107.54Q421.35 2107.54 480.00 2093.51Q538.65 2079.49 618.34 2048.89Q698.02 2018.29 778.35 1971.11ZM718.42 1611.56L1103.47 1592.44L1100.92 1645.99L719.70 1662.56L718.42 1611.56ZM715.87 1499.36L1107.30 1478.96L1104.75 1519.76L717.15 1538.89L715.87 1499.36ZM713.32 1387.16L1111.13 1365.49L1108.57 1407.56L714.60 1427.96L713.32 1387.16ZM720.97 1742.89L720.97 1737.79L1179.97 1718.66Q1194 1717.39 1206.75 1714.20Q1219.50 1711.01 1219.50 1695.71L1219.50 1695.71Q1219.50 1679.14 1188.90 1644.71L1188.90 1644.71L1205.47 1360.39Q1206.75 1356.56 1208.66 1350.19Q1210.57 1343.81 1210.57 1336.16L1210.57 1336.16Q1210.57 1308.11 1184.44 1297.91Q1158.30 1287.71 1137.90 1287.71L1137.90 1287.71L1128.97 1287.71L706.95 1311.94Q676.35 1297.91 654.67 1291.54Q633.00 1285.16 620.25 1285.16L620.25 1285.16Q597.30 1285.16 597.30 1304.29L597.30 1304.29Q597.30 1310.66 601.12 1319.59Q604.95 1328.51 610.05 1337.44L610.05 1337.44Q615.15 1347.64 617.70 1363.58Q620.25 1379.51 621.52 1394.81L621.52 1394.81L629.17 1643.44L629.17 1660.01Q629.17 1685.51 624.07 1711.01L624.07 1711.01L624.07 1718.66Q624.07 1739.06 649.57 1754.36Q675.07 1769.66 694.20 1769.66L694.20 1769.66Q720.97 1769.66 720.97 1742.89L720.97 1742.89ZM677.62 1158.94L677.62 1158.94L677.62 1147.46Q786.00 1134.71 889.91 1114.31Q993.82 1093.91 1120.05 1056.94L1120.05 1056.94Q1128.97 1053.11 1137.26 1046.10Q1145.55 1039.09 1145.55 1025.06L1145.55 1025.06Q1145.55 1007.21 1134.71 987.45Q1123.88 967.69 1109.85 953.02Q1095.82 938.36 1084.35 938.36Q1072.88 938.36 1067.77 949.84L1067.77 949.84Q1060.13 961.31 1046.74 973.42Q1033.35 985.54 996.37 1000.20Q959.40 1014.86 882.26 1035.26Q805.12 1055.66 678.90 1082.44L678.90 1082.44L681.45 975.34Q681.45 966.41 672.52 956.85Q663.60 947.29 635.55 939Q607.50 930.71 594.75 930.71L594.75 930.71Q574.35 930.71 574.35 946.01L574.35 946.01Q574.35 952.39 582.00 967.69L582.00 967.69Q587.10 976.61 587.74 988.73Q588.37 1000.84 588.37 1011.04L588.37 1011.04L587.10 1155.11L587.10 1158.94Q587.10 1211.21 610.69 1234.16Q634.27 1257.11 680.81 1260.94Q727.35 1264.76 794.92 1264.76L794.92 1264.76Q876.52 1264.76 964.50 1259.66Q1052.47 1254.56 1131.52 1244.36L1131.52 1244.36Q1181.25 1237.99 1203.56 1223.33Q1225.88 1208.66 1230.34 1178.06Q1234.80 1147.46 1234.80 1099.01L1234.80 1099.01Q1234.80 1068.41 1231.61 1037.17Q1228.42 1005.94 1208.02 1005.94L1208.02 1005.94Q1188.90 1005.94 1179.97 1049.29L1179.97 1049.29Q1171.05 1095.19 1164.67 1118.78Q1158.30 1142.36 1148.10 1150.65Q1137.90 1158.94 1116.22 1162.76L1116.22 1162.76Q1046.10 1174.24 963.22 1179.34Q880.35 1184.44 803.85 1184.44L803.85 1184.44Q747.75 1184.44 719.70 1182.53Q691.65 1180.61 684.64 1175.51Q677.62 1170.41 677.62 1158.94ZM1602 1823.21L1617.30 1827.04Q1641.53 1827.04 1654.28 1798.99L1654.28 1798.99Q1687.42 1728.86 1710.38 1663.84Q1733.33 1598.81 1747.35 1545.26Q1761.38 1491.71 1768.39 1458.56Q1775.40 1425.41 1775.40 1420.31Q1775.40 1415.21 1772.85 1405.65Q1770.30 1396.09 1756.91 1387.80Q1743.53 1379.51 1714.20 1379.51L1714.20 1379.51Q1697.63 1379.51 1688.06 1388.44Q1678.50 1397.36 1675.95 1412.66L1675.95 1412.66Q1654.28 1508.29 1625.59 1589.89Q1596.90 1671.49 1559.92 1749.26L1559.92 1749.26Q1552.28 1764.56 1552.28 1774.76L1552.28 1774.76Q1552.28 1796.44 1569.49 1807.91Q1586.70 1819.39 1602 1823.21L1602 1823.21ZM2731.65 1670.21L2731.65 1670.21Q2731.65 1654.91 2718.90 1637.06L2718.90 1637.06Q2667.90 1568.21 2613.07 1501.28Q2558.25 1434.34 2495.78 1368.04L2495.78 1368.04Q2477.93 1350.19 2462.63 1350.19L2462.63 1350.19Q2446.05 1350.19 2425.65 1367.40Q2405.25 1384.61 2405.25 1402.46L2405.25 1402.46Q2405.25 1416.49 2416.73 1427.96L2416.73 1427.96Q2479.20 1499.36 2530.84 1566.94Q2582.48 1634.51 2633.48 1708.46L2633.48 1708.46Q2650.05 1731.41 2666.63 1731.41L2666.63 1731.41Q2687.03 1731.41 2709.34 1709.10Q2731.65 1686.79 2731.65 1670.21ZM1872.30 1379.51L1872.30 1379.51L1872.30 1385.89Q1874.85 1476.41 1886.96 1560.56Q1899.08 1644.71 1929.04 1719.30Q1959 1793.89 2013.83 1854.45Q2068.65 1915.01 2157.90 1955.81Q2247.15 1996.61 2377.20 2011.91L2377.20 2011.91Q2384.85 2013.19 2393.14 2013.83Q2401.43 2014.46 2410.35 2014.46L2410.35 2014.46Q2472.82 2014.46 2520.64 1993.43Q2568.45 1972.39 2568.45 1936.69L2568.45 1936.69Q2568.45 1909.91 2541.68 1871.66L2541.68 1871.66Q2457.53 1746.71 2398.88 1631.96L2398.88 1631.96Q2368.28 1570.76 2345.32 1570.76L2345.32 1570.76Q2327.48 1570.76 2327.48 1597.54L2327.48 1597.54Q2327.48 1621.76 2342.78 1671.49Q2358.07 1721.21 2381.66 1779.86Q2405.25 1838.51 2429.48 1893.34L2429.48 1893.34L2432.03 1899.71L2423.10 1899.71Q2414.18 1900.99 2398.88 1900.99L2398.88 1900.99Q2341.50 1900.99 2276.48 1884.41Q2211.45 1867.84 2155.99 1835.33Q2100.53 1802.81 2066.10 1755.64L2066.10 1755.64Q2015.10 1682.96 1996.61 1590.53Q1978.13 1498.09 1975.58 1382.06L1975.58 1382.06Q1974.30 1352.74 1962.19 1341.90Q1950.08 1331.06 1925.85 1331.06L1925.85 1331.06L1920.75 1331.06Q1892.70 1332.34 1882.50 1343.81Q1872.30 1355.29 1872.30 1379.51ZM2211.45 1376.96L2211.45 1376.96Q2228.03 1376.96 2247.79 1358.47Q2267.55 1339.99 2267.55 1315.76L2267.55 1315.76Q2267.55 1294.09 2250.97 1281.34L2250.97 1281.34Q2192.32 1225.24 2134.31 1176.15Q2076.30 1127.06 2015.10 1081.16L2015.10 1081.16Q2004.90 1073.51 1990.88 1073.51L1990.88 1073.51Q1975.58 1073.51 1955.81 1090.72Q1936.05 1107.94 1936.05 1127.06L1936.05 1127.06Q1936.05 1141.09 1950.08 1152.56L1950.08 1152.56Q2013.83 1203.56 2068.65 1252.65Q2123.47 1301.74 2182.13 1361.66L2182.13 1361.66Q2197.43 1376.96 2211.45 1376.96Z"/>
  </svg>