<svg xmlns="http://www.w3.org/2000/svg" viewBox="0 0 3000 3000" width="3000" height="3000">
    <path fill="#000000" d="M1092 2306L1092 1256L1152 1256L1152 2308Q1152 2376 1183 2398Q1214 2420 1312 2420L1312 2420Q1336 2420 1401 2420Q1466 2420 1545 2420Q1624 2420 1694 2420Q1764 2420 1796 2420L1796 2420Q1870 2420 1906 2384Q1942 2348 1956 2249Q1970 2150 1978 1962L1978 1962Q1988 1968 1998 1975Q2008 1982 2019 1986Q2030 1990 2038 1994L2038 1994Q2030 2184 2011 2290Q1992 2396 1943 2438Q1894 2480 1792 2480L1792 2480Q1778 2480 1730 2480Q1682 2480 1617 2480Q1552 2480 1488 2480Q1424 2480 1377 2480Q1330 2480 1318 2480L1318 2480Q1232 2480 1183 2466Q1134 2452 1113 2414Q1092 2376 1092 2306L1092 2306ZM814 1436L814 1436L868 1450Q852 1556 821 1691Q790 1826 750 1960Q710 2094 662 2196L662 2196L606 2168Q656 2068 697 1937Q738 1806 768 1673Q798 1540 814 1436ZM2072 1414L2072 1414L2126 1398Q2186 1518 2242 1655Q2298 1792 2342 1923Q2386 2054 2408 2158L2408 2158L2352 2176Q2330 2072 2286 1940Q2242 1808 2187 1670Q2132 1532 2072 1414ZM1212 854L1212 854L1252 822Q1348 892 1449 976Q1550 1060 1638 1143Q1726 1226 1780 1290L1780 1290L1742 1328Q1686 1264 1598 1181Q1510 1098 1409 1011Q1308 924 1212 854Z"/>
  </svg>