<svg xmlns="http://www.w3.org/2000/svg" viewBox="0 0 3000 3000" width="3000" height="3000">
    <path fill="#000000" d="M1076.70 1714.20L1080.52 1627.50L662.32 1646.63L666.15 1732.05L1076.70 1714.20ZM1401.82 1769.03L395.85 1813.65L365.25 1814.93Q351.22 1814.93 328.27 1805.36Q305.32 1795.80 288.75 1747.35L288.75 1747.35Q287.47 1744.80 287.47 1740.34Q287.47 1735.88 292.57 1735.88Q297.67 1735.88 312.34 1740.34Q327.00 1744.80 357.60 1744.80L357.60 1744.80L369.07 1744.80L587.10 1735.88L564.15 1242.45Q561.60 1201.65 551.40 1183.80Q541.20 1165.95 541.20 1158.30L541.20 1158.30Q541.20 1146.83 560.96 1146.83Q580.72 1146.83 650.85 1177.43L650.85 1177.43L819.15 1167.22L820.42 1085.63L567.97 1100.92Q560.32 1102.20 552.67 1102.20L552.67 1102.20L538.65 1102.20Q506.77 1102.20 492.11 1091.36Q477.45 1080.53 469.16 1063.95Q460.87 1047.38 460.87 1039.72Q460.87 1032.08 465.97 1032.08Q471.07 1032.08 483.82 1036.54Q496.57 1041 523.35 1041L523.35 1041L533.55 1041L821.70 1023.15L821.70 969.60Q821.70 936.45 811.50 916.05Q801.30 895.65 801.30 889.28L801.30 889.28Q801.30 879.08 815.32 879.08Q829.35 879.08 858.04 888Q886.72 896.92 895.01 905.85Q903.30 914.77 903.30 927.52L903.30 927.52L899.47 1019.33L1123.88 1006.58Q1151.92 1004.02 1174.24 997.01Q1196.55 990 1205.47 990Q1214.40 990 1230.97 998.92Q1247.55 1007.85 1260.94 1020.60Q1274.32 1033.35 1274.32 1044.83Q1274.32 1056.30 1246.27 1060.13L1246.27 1060.13L896.92 1080.53L894.37 1163.40L1120.05 1149.38L1127.70 1149.38Q1146.82 1149.38 1169.77 1163.40Q1192.72 1177.43 1192.72 1188.90Q1192.72 1200.38 1188.26 1206.75Q1183.80 1213.13 1182.52 1219.50L1182.52 1219.50L1151.92 1710.38L1274.32 1705.28Q1321.50 1701.45 1339.35 1695.71Q1357.20 1689.98 1366.13 1689.98Q1375.05 1689.98 1391.63 1701.45L1391.63 1701.45Q1436.25 1729.50 1436.25 1751.18L1436.25 1751.18Q1436.25 1766.48 1401.82 1769.03L1401.82 1769.03ZM768.15 1910.55L768.15 1910.55Q625.35 1995.98 474.90 2035.50L474.90 2035.50Q414.97 2052.08 393.30 2052.08Q371.62 2052.08 371.62 2043.15L371.62 2043.15Q371.62 2031.68 404.77 2016.38L404.77 2016.38Q542.47 1955.18 662.32 1868.48L662.32 1868.48Q687.82 1849.35 692.92 1828.31Q698.02 1807.28 709.50 1807.28Q720.97 1807.28 737.55 1822.58Q754.12 1837.88 766.24 1857.64Q778.35 1877.40 778.35 1890.79Q778.35 1904.18 768.15 1910.55ZM1241.17 2041.88L1241.17 2041.88Q1089.45 1942.43 972.15 1893.98L972.15 1893.98Q950.47 1883.78 950.47 1869.11Q950.47 1854.45 963.86 1835.33Q977.25 1816.20 985.54 1816.20Q993.82 1816.20 1067.77 1847.44Q1141.72 1878.68 1215.04 1922.03Q1288.35 1965.38 1296.00 1973.03Q1303.65 1980.68 1303.65 1997.89Q1303.65 2015.10 1292.17 2032.95Q1280.70 2050.80 1267.31 2050.80Q1253.92 2050.80 1241.17 2041.88ZM659.77 1585.43L1084.35 1566.30L1089.45 1484.70L655.95 1506.38L659.77 1585.43ZM1092 1424.78L1095.82 1349.55L649.57 1372.50L653.40 1446.45L1092 1424.78ZM1098.38 1287.08L1102.20 1211.85L644.47 1237.35L647.02 1311.30L1098.38 1287.08ZM2187.22 1308.75L2187.22 1308.75Q2076.30 1195.28 1955.18 1098.38L1955.18 1098.38Q1943.70 1089.45 1943.70 1079.25L1943.70 1079.25Q1943.70 1063.95 1960.91 1048.65Q1978.13 1033.35 1990.24 1033.35Q2002.35 1033.35 2010 1039.72L2010 1039.72Q2138.78 1136.63 2245.88 1238.63L2245.88 1238.63Q2259.90 1250.10 2259.90 1269.22Q2259.90 1288.35 2242.69 1304.93Q2225.47 1321.50 2212.72 1321.50Q2199.97 1321.50 2187.22 1308.75ZM1879.95 1338.08L1879.95 1331.70Q1879.95 1310.03 1888.24 1301.10Q1896.53 1292.18 1920.75 1290.90L1920.75 1290.90L1925.85 1290.90Q1947.53 1290.90 1957.09 1299.83Q1966.65 1308.75 1967.93 1334.25L1967.93 1334.25Q1970.47 1451.55 1989.60 1544.63L1989.60 1544.63Q2024.03 1719.30 2152.80 1794.53L2152.80 1794.53Q2265 1860.83 2398.88 1860.83L2398.88 1860.83Q2439.68 1860.83 2439.68 1850.63L2439.68 1850.63L2389.95 1729.50Q2335.13 1594.35 2335.13 1549.73L2335.13 1549.73Q2335.13 1530.60 2345.32 1530.60L2345.32 1530.60Q2363.18 1530.60 2392.50 1587.98L2392.50 1587.98Q2451.15 1702.73 2535.30 1827.68L2535.30 1827.68Q2560.80 1864.65 2560.80 1892.06Q2560.80 1919.48 2516.18 1939.24Q2471.55 1959 2410.35 1959L2410.35 1959Q2393.78 1959 2378.48 1956.45L2378.48 1956.45Q2134.95 1927.13 2020.20 1800.90L2020.20 1800.90Q1920.75 1693.80 1895.25 1510.20L1895.25 1510.20Q1882.50 1427.33 1879.95 1338.08L1879.95 1338.08ZM2712.53 1594.35L2712.53 1594.35Q2724 1609.65 2724 1623.04Q2724 1636.43 2704.24 1656.19Q2684.48 1675.95 2669.18 1675.95Q2653.88 1675.95 2639.85 1656.83L2639.85 1656.83Q2534.03 1501.28 2421.82 1375.05L2421.82 1375.05Q2412.90 1366.13 2412.90 1353.38Q2412.90 1340.63 2430.75 1325.33Q2448.60 1310.03 2461.99 1310.03Q2475.38 1310.03 2490.68 1325.33L2490.68 1325.33Q2605.43 1449 2712.53 1594.35ZM1714.20 1339.35L1714.20 1339.35Q1767.75 1339.35 1767.75 1372.50L1767.75 1372.50Q1767.75 1390.35 1737.15 1505.74Q1706.55 1621.13 1647.90 1747.35L1647.90 1747.35Q1636.42 1771.58 1618.58 1771.58L1618.58 1771.58L1604.55 1767.75Q1559.92 1756.28 1559.92 1726.95L1559.92 1726.95Q1559.92 1718.03 1581.60 1672.13L1581.60 1672.13Q1642.80 1547.18 1683.60 1366.13L1683.60 1366.13Q1688.70 1339.35 1714.20 1339.35Z"/>
  </svg>