<svg xmlns="http://www.w3.org/2000/svg" viewBox="0 0 3000 3000" width="3000" height="3000">
    <path fill="#000000" d="M660 2007L684 2013Q722 2013 742 1969L742 1969Q794 1859 830 1757Q866 1655 888 1571Q910 1487 921 1435Q932 1383 932 1375Q932 1367 928 1352Q924 1337 903 1324Q882 1311 836 1311L836 1311Q810 1311 795 1325Q780 1339 776 1363L776 1363Q742 1513 697 1641Q652 1769 594 1891L594 1891Q582 1915 582 1931L582 1931Q582 1965 609 1983Q636 2001 660 2007L660 2007ZM2432 1767L2432 1767Q2432 1743 2412 1715L2412 1715Q2332 1607 2246 1502Q2160 1397 2062 1293L2062 1293Q2034 1265 2010 1265L2010 1265Q1984 1265 1952 1292Q1920 1319 1920 1347L1920 1347Q1920 1369 1938 1387L1938 1387Q2036 1499 2117 1605Q2198 1711 2278 1827L2278 1827Q2304 1863 2330 1863L2330 1863Q2362 1863 2397 1828Q2432 1793 2432 1767ZM1084 1311L1084 1311L1084 1321Q1088 1463 1107 1595Q1126 1727 1173 1844Q1220 1961 1306 2056Q1392 2151 1532 2215Q1672 2279 1876 2303L1876 2303Q1888 2305 1901 2306Q1914 2307 1928 2307L1928 2307Q2026 2307 2101 2274Q2176 2241 2176 2185L2176 2185Q2176 2143 2134 2083L2134 2083Q2002 1887 1910 1707L1910 1707Q1862 1611 1826 1611L1826 1611Q1798 1611 1798 1653L1798 1653Q1798 1691 1822 1769Q1846 1847 1883 1939Q1920 2031 1958 2117L1958 2117L1962 2127L1948 2127Q1934 2129 1910 2129L1910 2129Q1820 2129 1718 2103Q1616 2077 1529 2026Q1442 1975 1388 1901L1388 1901Q1308 1787 1279 1642Q1250 1497 1246 1315L1246 1315Q1244 1269 1225 1252Q1206 1235 1168 1235L1168 1235L1160 1235Q1116 1237 1100 1255Q1084 1273 1084 1311ZM1616 1307L1616 1307Q1642 1307 1673 1278Q1704 1249 1704 1211L1704 1211Q1704 1177 1678 1157L1678 1157Q1586 1069 1495 992Q1404 915 1308 843L1308 843Q1292 831 1270 831L1270 831Q1246 831 1215 858Q1184 885 1184 915L1184 915Q1184 937 1206 955L1206 955Q1306 1035 1392 1112Q1478 1189 1570 1283L1570 1283Q1594 1307 1616 1307Z"/>
  </svg>