<svg xmlns="http://www.w3.org/2000/svg" viewBox="0 0 3000 3000" width="3000" height="3000">
    <path fill="#000000" d="M914.77 1820.03L914.77 1820.03Q1014.22 1747.35 1074.15 1679.78L1074.15 1679.78L737.55 1700.18L723.52 1700.18Q786.00 1749.90 914.77 1820.03ZM803.85 1468.13L803.85 1468.13L1141.72 1450.28Q1174.88 1447.72 1196.55 1442.63Q1218.22 1437.53 1226.51 1437.53Q1234.80 1437.53 1253.92 1446.45L1253.92 1446.45Q1306.20 1468.13 1306.20 1491.08L1306.20 1491.08Q1306.20 1506.38 1274.32 1508.93L1274.32 1508.93L775.80 1533.15Q755.40 1584.15 729.90 1627.50L729.90 1627.50L1120.05 1608.38L1131.52 1608.38Q1154.47 1608.38 1169.14 1623.04Q1183.80 1637.70 1183.80 1654.28Q1183.80 1670.85 1176.15 1677.23L1176.15 1677.23L1162.13 1691.25Q1075.42 1790.70 984.90 1854.45L984.90 1854.45Q1183.80 1941.15 1406.92 1983.23L1406.92 1983.23Q1441.35 1989.60 1441.35 1999.80Q1441.35 2010 1424.77 2026.58L1424.77 2026.58Q1391.63 2062.28 1355.92 2058.45L1355.92 2058.45Q1117.50 1997.25 914.77 1900.35L914.77 1900.35Q708.22 2017.65 492.75 2053.35L492.75 2053.35Q453.22 2059.72 449.40 2059.72L449.40 2059.72Q426.45 2059.72 429.00 2043.15L429.00 2043.15Q429.00 2026.58 463.42 2016.38L463.42 2016.38Q698.02 1948.80 842.10 1863.38L842.10 1863.38Q819.15 1850.63 794.92 1837.88L794.92 1837.88Q704.40 1783.05 650.85 1735.88L650.85 1735.88L648.30 1742.25Q511.87 1901.63 320.62 1985.78L320.62 1985.78Q276.00 2007.45 277.27 1987.05L277.27 1987.05Q277.27 1974.30 306.60 1955.18L306.60 1955.18Q537.37 1802.18 635.55 1633.88L635.55 1633.88Q687.82 1544.63 690.37 1536.97L690.37 1536.97L502.95 1545.90L464.70 1547.18Q413.70 1547.18 392.02 1503.83L392.02 1503.83Q380.55 1478.33 384.37 1478.33L384.37 1478.33L390.75 1478.33Q393.30 1478.33 407.32 1481.51Q421.35 1484.70 453.22 1484.70L453.22 1484.70L472.35 1484.70L714.60 1471.95Q732.45 1420.95 733.72 1405.65L733.72 1405.65Q733.72 1390.35 727.35 1378.88L727.35 1378.88Q712.05 1349.55 740.74 1347.64Q769.42 1345.72 794.92 1359.11Q820.42 1372.50 820.42 1394.18L820.42 1394.18Q816.60 1423.50 803.85 1468.13ZM630.45 1247.55L630.45 1247.55Q583.27 1182.53 533.55 1137.90L533.55 1137.90Q532.27 1134.08 528.45 1130.25Q524.62 1126.42 524.62 1118.14Q524.62 1109.85 538.65 1099.01Q552.67 1088.17 563.51 1088.17Q574.35 1088.17 586.46 1098.38Q598.57 1108.58 617.70 1127.06Q636.82 1145.55 657.22 1165.95Q677.62 1186.35 690.37 1202.29Q703.12 1218.22 703.12 1225.88Q703.12 1233.53 688.46 1249.46Q673.80 1265.40 659.14 1265.40Q644.47 1265.40 630.45 1247.55ZM822.97 1058.85L824.25 1058.85Q851.02 1058.85 909.67 1177.43L909.67 1177.43Q921.15 1202.93 921.15 1212.49Q921.15 1222.05 901.39 1232.25Q881.62 1242.45 866.32 1242.45Q851.02 1242.45 844.65 1223.33L844.65 1223.33Q821.70 1153.20 786.00 1102.20L786.00 1102.20Q780.90 1090.72 780.90 1084.35L780.90 1084.35Q780.90 1069.05 812.77 1061.40L812.77 1061.40Q821.70 1058.85 822.97 1058.85L822.97 1058.85ZM1111.13 1213.13L1090.72 1236.08L1316.40 1220.78Q1332.97 1218.22 1343.81 1217.59Q1354.65 1216.95 1373.77 1230.34Q1392.90 1243.72 1393.54 1256.47Q1394.17 1269.22 1385.89 1274.33Q1377.60 1279.43 1371.22 1285.80L1371.22 1285.80Q1324.05 1344.45 1280.70 1380.15L1280.70 1380.15Q1213.13 1436.25 1213.13 1403.10L1213.13 1403.10Q1213.13 1387.80 1239.90 1350.83Q1266.67 1313.85 1276.87 1290.90L1276.87 1290.90L485.10 1341.90Q473.62 1377.60 455.77 1410.11Q437.92 1442.63 430.91 1450.28Q423.90 1457.93 411.79 1457.93Q399.67 1457.93 378.64 1443.90Q357.60 1429.88 357.60 1419.67Q357.60 1409.47 363.97 1400.55L363.97 1400.55Q414.97 1331.70 432.82 1242.45L432.82 1242.45Q436.65 1215.68 453.22 1215.68L453.22 1215.68Q471.07 1213.13 492.11 1220.14Q513.15 1227.15 513.15 1236.08Q513.15 1245 511.24 1248.19Q509.32 1251.38 508.05 1256.47L508.05 1256.47L504.22 1276.88L965.77 1245L1012.95 1242.45Q1118.77 1089.45 1125.15 1041L1125.15 1041Q1125.15 1018.05 1134.07 1016.77L1134.07 1016.77Q1155.75 1016.77 1185.07 1033.99Q1214.40 1051.20 1215.04 1065.22Q1215.67 1079.25 1178.70 1129.61Q1141.72 1179.97 1111.13 1213.13L1111.13 1213.13ZM481.27 1089.45L471.07 1089.45Q422.62 1090.72 421.35 1074.15L421.35 1074.15Q421.35 1057.58 478.72 1048.65L478.72 1048.65Q881.62 984.90 1139.17 912.23L1139.17 912.23Q1171.05 903.30 1181.25 886.72L1181.25 886.72Q1190.17 876.53 1197.19 876.53Q1204.20 876.53 1227.79 902.66Q1251.37 928.80 1255.20 956.85L1255.20 956.85Q1255.20 972.15 1234.80 977.25L1234.80 977.25Q849.75 1061.40 481.27 1089.45L481.27 1089.45ZM2276.48 1214.40L2576.10 1199.10Q2585.03 1199.10 2629.65 1190.18L2629.65 1190.18Q2648.78 1190.18 2670.45 1210.58Q2692.13 1230.97 2692.13 1245Q2692.13 1259.03 2665.35 1261.58L2665.35 1261.58L1689.97 1315.13L1658.10 1316.40Q1613.47 1316.40 1599.45 1271.78L1599.45 1271.78Q1591.80 1250.10 1591.80 1246.28Q1591.80 1242.45 1599.45 1242.45L1599.45 1242.45Q1624.95 1247.55 1650.45 1247.55L1650.45 1247.55L1664.47 1247.55L1985.78 1230.97L1955.18 1183.80Q1939.88 1163.40 1925.21 1148.74Q1910.55 1134.08 1910.55 1122.60Q1910.55 1111.13 1938.60 1093.28L1938.60 1093.28L1828.95 1099.65L1808.55 1099.65Q1779.22 1099.65 1770.30 1090.72L1770.30 1090.72Q1740.97 1061.40 1740.97 1038.45L1740.97 1038.45Q1740.97 1030.80 1747.35 1030.80L1747.35 1030.80L1797.08 1037.17L2092.88 1019.33L2090.32 954.30Q2089.05 922.42 2081.40 912.86Q2073.75 903.30 2073.75 894.38Q2073.75 885.45 2083.31 885.45Q2092.88 885.45 2112 888L2112 888Q2170.65 895.65 2170.65 928.80L2170.65 928.80L2168.10 1015.50L2416.73 1000.20Q2444.78 996.38 2454.34 993.19Q2463.90 990 2472.82 990Q2481.75 990 2497.05 998.92L2497.05 998.92Q2532.75 1020.60 2532.75 1039.09Q2532.75 1057.58 2504.70 1058.85L2504.70 1058.85L2291.78 1071.60Q2316 1079.25 2335.76 1094.55Q2355.53 1109.85 2355.53 1117.50Q2355.53 1125.15 2334.49 1152.56Q2313.45 1179.97 2276.48 1214.40L2276.48 1214.40ZM2273.93 1072.88L1959 1092Q1970.47 1094.55 2001.71 1128.97Q2032.95 1163.40 2044.43 1181.25Q2055.90 1199.10 2055.90 1208.03Q2055.90 1216.95 2044.43 1227.15L2044.43 1227.15L2197.43 1219.50Q2231.85 1178.70 2249.70 1142.36Q2267.55 1106.03 2268.19 1092Q2268.82 1077.97 2273.93 1072.88L2273.93 1072.88ZM1855.72 1686.15L1855.72 1686.15L1859.55 1658.10L1859.55 1630.05Q1859.55 1624.95 1858.28 1619.85L1858.28 1619.85L1842.97 1436.25Q1840.42 1408.20 1829.59 1383.34Q1818.75 1358.47 1818.75 1354.65L1818.75 1354.65Q1818.75 1347 1833.41 1347Q1848.08 1347 1916.93 1368.68L1916.93 1368.68L2379.75 1344.45L2388.68 1344.45Q2426.93 1344.45 2442.23 1375.05L2442.23 1375.05Q2447.32 1385.25 2447.32 1389.71Q2447.32 1394.18 2444.14 1400.55Q2440.95 1406.93 2439.68 1413.30L2439.68 1413.30L2409.07 1612.20Q2437.13 1644.08 2437.13 1655.55Q2437.13 1667.03 2428.20 1668.94Q2419.28 1670.85 2405.25 1672.13L2405.25 1672.13L1939.88 1688.70L1941.15 1704L1941.15 1707.83Q1941.15 1734.60 1918.20 1734.60L1918.20 1734.60Q1892.70 1734.60 1874.21 1718.03Q1855.72 1701.45 1855.72 1686.15ZM2351.70 1477.05L2358.07 1410.75L1918.20 1431.15L1923.30 1496.18L2351.70 1477.05ZM2337.68 1610.93L2345.32 1538.25L1928.40 1556.10L1934.78 1626.23L2337.68 1610.93ZM2175.75 1857L2175.75 1857Q2129.85 1800.90 2072.47 1758.83L2072.47 1758.83Q2058.45 1748.63 2058.45 1740.34Q2058.45 1732.05 2069.93 1716.75Q2081.40 1701.45 2096.06 1701.45Q2110.72 1701.45 2180.85 1756.28Q2250.97 1811.10 2250.97 1829.59Q2250.97 1848.08 2234.40 1864.65Q2217.82 1881.23 2206.99 1881.23Q2196.15 1881.23 2175.75 1857ZM2683.20 1927.13Q2664.07 1943.70 2654.51 1943.70Q2644.95 1943.70 2620.09 1913.74Q2595.23 1883.78 2551.24 1838.51Q2507.25 1793.25 2481.75 1772.85Q2456.25 1752.45 2456.25 1744.16Q2456.25 1735.88 2469 1719.30Q2481.75 1702.73 2491.31 1702.73Q2500.88 1702.73 2537.21 1727.59Q2573.55 1752.45 2637.94 1811.74Q2702.32 1871.03 2702.32 1890.79Q2702.32 1910.55 2683.20 1927.13ZM1607.10 1927.13L1607.10 1927.13Q1681.05 1839.15 1726.95 1738.43L1726.95 1738.43Q1737.15 1716.75 1748.63 1716.75L1748.63 1716.75Q1755 1716.75 1776.04 1726.31Q1797.08 1735.88 1797.08 1745.44Q1797.08 1755 1785.60 1780.50Q1774.13 1806 1755.64 1841.70Q1737.15 1877.40 1716.75 1912.46Q1696.35 1947.53 1677.86 1970.48Q1659.38 1993.43 1646.63 1993.43Q1633.88 1993.43 1615.39 1980.68Q1596.90 1967.93 1596.90 1954.54Q1596.90 1941.15 1607.10 1927.13ZM1904.18 1751.18L1904.18 1751.18Q1920.75 1751.18 1932.22 1776.68L1932.22 1776.68Q1962.83 1865.93 2047.61 1902.90Q2132.40 1939.88 2273.93 1939.88L2273.93 1939.88Q2305.80 1939.88 2351.70 1936.69Q2397.60 1933.50 2397.60 1929.68Q2397.60 1925.85 2391.23 1912.46Q2384.85 1899.08 2369.55 1869.11Q2354.25 1839.15 2346.60 1814.93Q2338.95 1790.70 2338.95 1777.95Q2338.95 1765.20 2346.60 1765.20L2346.60 1765.20Q2358.07 1765.20 2386.76 1804.73Q2415.45 1844.25 2486.85 1915.65L2486.85 1915.65Q2511.08 1939.88 2511.08 1955.18L2511.08 1955.18Q2511.08 2016.38 2321.10 2016.38L2321.10 2016.38Q2215.28 2016.38 2145.15 2008.09Q2075.03 1999.80 2020.20 1973.66Q1965.38 1947.53 1924.58 1899.71Q1883.78 1851.90 1864.65 1797.08L1864.65 1797.08Q1862.10 1789.43 1862.10 1781.78L1862.10 1781.78Q1862.10 1761.38 1880.59 1756.28Q1899.08 1751.18 1904.18 1751.18Z"/>
  </svg>