<svg xmlns="http://www.w3.org/2000/svg" viewBox="0 0 3000 3000" width="3000" height="3000">
    <path fill="#000000" d="M1272 1871L1272 1871L1728 1857Q1644 1943 1514 2029L1514 2029Q1448 1993 1380 1948Q1312 1903 1272 1871ZM1844 1729L1844 1729L1820 1729L1348 1749L1370 1723Q1384 1709 1384 1695L1384 1695Q1384 1671 1357 1647Q1330 1623 1301 1607Q1272 1591 1254 1591L1254 1591Q1226 1591 1220 1629L1220 1629Q1214 1677 1170 1736Q1126 1795 1063 1858Q1000 1921 937 1974Q874 2027 832 2060Q790 2093 786 2095L786 2095Q746 2125 746 2147L746 2147Q746 2171 769 2171Q792 2171 822 2157L822 2157Q916 2113 1002 2056Q1088 1999 1160 1937L1160 1937Q1212 1985 1276 2031Q1340 2077 1386 2107L1386 2107Q1244 2189 1062 2258Q880 2327 698 2367L698 2367Q640 2381 640 2412Q640 2443 696 2443L696 2443L712 2443Q932 2417 1138 2354Q1344 2291 1522 2185L1522 2185Q1652 2251 1783 2301Q1914 2351 2022 2381Q2130 2411 2194 2423L2194 2423L2260 2437Q2288 2437 2316 2415Q2344 2393 2365 2368Q2386 2343 2386 2329L2386 2329Q2386 2303 2338 2295L2338 2295Q2144 2261 1968 2212Q1792 2163 1652 2099L1652 2099Q1710 2059 1777 2000Q1844 1941 1906 1873L1906 1873Q1914 1861 1935 1848Q1956 1835 1956 1813L1956 1813Q1956 1799 1926 1764Q1896 1729 1844 1729ZM914 1707L914 1707Q938 1707 963 1672Q988 1637 1011 1588Q1034 1539 1056 1490Q1078 1441 1090 1407Q1102 1373 1104 1369L1104 1369Q1106 1359 1107 1352Q1108 1345 1108 1341L1108 1341Q1108 1311 1081 1298Q1054 1285 1032 1285L1032 1285Q998 1285 982 1325L982 1325Q958 1393 925 1458Q892 1523 842 1585L842 1585Q826 1609 826 1627L826 1627Q826 1653 860 1680Q894 1707 914 1707ZM1950 1555L1950 1555Q1950 1525 1908 1487L1908 1487Q1874 1455 1838 1413Q1802 1371 1778 1339L1778 1339Q1748 1293 1724 1293Q1700 1293 1700 1323L1700 1323Q1700 1333 1719 1390Q1738 1447 1776 1519L1776 1519L1776 1525Q1776 1527 1768 1527L1768 1527Q1722 1533 1662 1533L1662 1533Q1570 1533 1488 1517Q1406 1501 1344 1451Q1282 1401 1250 1299L1250 1299Q1234 1255 1202 1255L1202 1255Q1198 1255 1190 1256Q1182 1257 1172 1259L1172 1259Q1124 1275 1124 1307L1124 1307Q1124 1311 1135 1348Q1146 1385 1174 1437Q1202 1489 1249 1538Q1296 1587 1364 1615L1364 1615Q1428 1641 1505 1650Q1582 1659 1656 1659L1656 1659Q1780 1659 1842 1642Q1904 1625 1927 1601Q1950 1577 1950 1555ZM2184 1535L2184 1535Q2184 1519 2160 1483L2160 1483Q2146 1467 2130 1447L2130 1447Q2164 1439 2218 1371L2218 1371Q2280 1295 2348 1179L2348 1179Q2352 1173 2366 1162Q2380 1151 2380 1131L2380 1131Q2380 1101 2350 1074Q2320 1047 2274 1047L2274 1047L2250 1047L1862 1071Q1886 1051 1935 1002Q1984 953 2032 903L2032 903Q2044 885 2044 871L2044 871Q2044 843 2015 822Q1986 801 1956 789L1956 789Q1942 785 1934 781L1934 781Q2004 771 2074 759L2074 759Q2110 751 2110 719L2110 719Q2110 695 2092 663Q2074 631 2051 606Q2028 581 2010 581L2010 581Q1994 581 1980 597L1980 597Q1954 629 1920 635L1920 635Q1686 685 1418 726Q1150 767 882 797L882 797Q812 805 812 840Q812 875 882 875L882 875L888 875Q936 873 986 871L986 871Q980 877 976 885L976 885Q960 917 960 923L960 923Q960 945 988 967L988 967Q1022 993 1060 1025Q1098 1057 1134 1099L1134 1099Q1140 1107 1148 1113L1148 1113L910 1127L918 1079Q918 1047 897 1036Q876 1025 857 1023Q838 1021 836 1021L836 1021Q812 1021 801 1035Q790 1049 784 1077L784 1077Q764 1167 730 1265Q696 1363 646 1451L646 1451Q634 1469 634 1485L634 1485Q634 1509 656 1525Q678 1541 701 1549Q724 1557 733 1557Q742 1557 755 1548Q768 1539 785 1511Q802 1483 826 1420Q850 1357 880 1257L880 1257L2186 1181Q2172 1221 2153 1270Q2134 1319 2108 1375L2108 1375Q2098 1393 2096 1407L2096 1407Q2058 1367 2018 1328Q1978 1289 1944 1261Q1910 1233 1892 1233L1892 1233Q1876 1233 1850 1252Q1824 1271 1824 1299L1824 1299Q1824 1315 1848 1339L1848 1339Q1900 1389 1954 1453Q2008 1517 2048 1577L2048 1577Q2072 1615 2096 1615L2096 1615Q2122 1615 2153 1584Q2184 1553 2184 1535ZM1656 1425L1656 1425Q1656 1403 1624 1369Q1592 1335 1549 1304Q1506 1273 1468 1250Q1430 1227 1414 1227L1414 1227Q1388 1227 1370 1255Q1352 1283 1352 1293L1352 1293Q1352 1309 1378 1331L1378 1331Q1418 1361 1460 1399Q1502 1437 1528 1473L1528 1473Q1554 1503 1576 1503L1576 1503Q1604 1503 1630 1472Q1656 1441 1656 1425ZM1684 1081L1582 1087Q1614 1069 1614 1035L1614 1035Q1614 1019 1594 986Q1574 953 1545 917Q1516 881 1488 855L1488 855Q1476 845 1466 837L1466 837Q1674 819 1888 787L1888 787Q1884 795 1884 805L1884 805L1884 813Q1884 883 1684 1081L1684 1081ZM1494 1093L1494 1093L1228 1109Q1234 1101 1242 1093L1242 1093Q1262 1067 1262 1049L1262 1049Q1262 1033 1232 1002Q1202 971 1162 937Q1122 903 1084 879L1084 879Q1074 871 1066 867L1066 867Q1228 859 1396 843L1396 843Q1390 849 1384 855L1384 855Q1360 883 1360 900Q1360 917 1378 931L1378 931Q1404 957 1431 994Q1458 1031 1478 1069L1478 1069Q1486 1083 1494 1093Z"/>
  </svg>