<svg xmlns="http://www.w3.org/2000/svg" viewBox="0 0 3000 3000" width="3000" height="3000">
    <path fill="#000000" d="M1582 2002L1582 2002Q1738 1888 1832 1782L1832 1782L1304 1814L1282 1814Q1380 1892 1582 2002ZM1408 1450L1408 1450L1938 1422Q1990 1418 2024 1410Q2058 1402 2071 1402Q2084 1402 2114 1416L2114 1416Q2196 1450 2196 1486L2196 1486Q2196 1510 2146 1514L2146 1514L1364 1552Q1332 1632 1292 1700L1292 1700L1904 1670L1922 1670Q1958 1670 1981 1693Q2004 1716 2004 1742Q2004 1768 1992 1778L1992 1778L1970 1800Q1834 1956 1692 2056L1692 2056Q2004 2192 2354 2258L2354 2258Q2408 2268 2408 2284Q2408 2300 2382 2326L2382 2326Q2330 2382 2274 2376L2274 2376Q1900 2280 1582 2128L1582 2128Q1258 2312 920 2368L920 2368Q858 2378 852 2378L852 2378Q816 2378 820 2352L820 2352Q820 2326 874 2310L874 2310Q1242 2204 1468 2070L1468 2070Q1432 2050 1394 2030L1394 2030Q1252 1944 1168 1870L1168 1870L1164 1880Q950 2130 650 2262L650 2262Q580 2296 582 2264L582 2264Q582 2244 628 2214L628 2214Q990 1974 1144 1710L1144 1710Q1226 1570 1230 1558L1230 1558L936 1572L876 1574Q796 1574 762 1506L762 1506Q744 1466 750 1466L750 1466L760 1466Q764 1466 786 1471Q808 1476 858 1476L858 1476L888 1476L1268 1456Q1296 1376 1298 1352L1298 1352Q1298 1328 1288 1310L1288 1310Q1264 1264 1309 1261Q1354 1258 1394 1279Q1434 1300 1434 1334L1434 1334Q1428 1380 1408 1450ZM1136 1104L1136 1104Q1062 1002 984 932L984 932Q982 926 976 920Q970 914 970 901Q970 888 992 871Q1014 854 1031 854Q1048 854 1067 870Q1086 886 1116 915Q1146 944 1178 976Q1210 1008 1230 1033Q1250 1058 1250 1070Q1250 1082 1227 1107Q1204 1132 1181 1132Q1158 1132 1136 1104ZM1438 808L1440 808Q1482 808 1574 994L1574 994Q1592 1034 1592 1049Q1592 1064 1561 1080Q1530 1096 1506 1096Q1482 1096 1472 1066L1472 1066Q1436 956 1380 876L1380 876Q1372 858 1372 848L1372 848Q1372 824 1422 812L1422 812Q1436 808 1438 808L1438 808ZM1890 1050L1858 1086L2212 1062Q2238 1058 2255 1057Q2272 1056 2302 1077Q2332 1098 2333 1118Q2334 1138 2321 1146Q2308 1154 2298 1164L2298 1164Q2224 1256 2156 1312L2156 1312Q2050 1400 2050 1348L2050 1348Q2050 1324 2092 1266Q2134 1208 2150 1172L2150 1172L908 1252Q890 1308 862 1359Q834 1410 823 1422Q812 1434 793 1434Q774 1434 741 1412Q708 1390 708 1374Q708 1358 718 1344L718 1344Q798 1236 826 1096L826 1096Q832 1054 858 1054L858 1054Q886 1050 919 1061Q952 1072 952 1086Q952 1100 949 1105Q946 1110 944 1118L944 1118L938 1150L1662 1100L1736 1096Q1902 856 1912 780L1912 780Q1912 744 1926 742L1926 742Q1960 742 2006 769Q2052 796 2053 818Q2054 840 1996 919Q1938 998 1890 1050L1890 1050ZM902 856L886 856Q810 858 808 832L808 832Q808 806 898 792L898 792Q1530 692 1934 578L1934 578Q1984 564 2000 538L2000 538Q2014 522 2025 522Q2036 522 2073 563Q2110 604 2116 648L2116 648Q2116 672 2084 680L2084 680Q1480 812 902 856L902 856Z"/>
  </svg>