<svg xmlns="http://www.w3.org/2000/svg" viewBox="0 0 3000 3000" width="3000" height="3000">
    <path fill="#000000" d="M672 1510L672 1180L2326 1180L2326 1510L2266 1510L2266 1238L732 1238L732 1510L672 1510ZM2172 712L2172 712L2214 762Q2086 788 1913 809Q1740 830 1544 847Q1348 864 1148 875Q948 886 764 892L764 892Q762 880 757 864Q752 848 748 836L748 836Q930 830 1130 819Q1330 808 1524 792Q1718 776 1886 756Q2054 736 2172 712ZM920 926L920 926L972 904Q1024 958 1066 1027Q1108 1096 1126 1148L1126 1148L1070 1174Q1054 1122 1011 1052Q968 982 920 926ZM1360 890L1360 890L1416 872Q1460 930 1496 1003Q1532 1076 1544 1130L1544 1130L1484 1150Q1474 1096 1439 1023Q1404 950 1360 890ZM1932 1408L1932 1408L1978 1378Q2036 1424 2096 1480Q2156 1536 2208 1591Q2260 1646 2290 1690L2290 1690L2242 1724Q2212 1680 2160 1624Q2108 1568 2049 1511Q1990 1454 1932 1408ZM1320 1318L1320 1318L1358 1276Q1440 1312 1528 1361Q1616 1410 1666 1450L1666 1450L1630 1498Q1578 1456 1490 1405Q1402 1354 1320 1318ZM2070 868L2070 868L2124 902Q2072 982 2006 1068Q1940 1154 1884 1218L1884 1218L1842 1190Q1878 1148 1921 1091Q1964 1034 2004 974Q2044 914 2070 868ZM2008 1914L2008 1904L2026 1904L2040 1900L2078 1930Q1978 2064 1826 2162Q1674 2260 1487 2329Q1300 2398 1092 2443Q884 2488 672 2516L672 2516Q670 2508 665 2498Q660 2488 654 2478Q648 2468 642 2462L642 2462Q850 2438 1054 2396Q1258 2354 1441 2287Q1624 2220 1770 2128Q1916 2036 2008 1914L2008 1914ZM814 1844L864 1816Q998 1998 1228 2129Q1458 2260 1751 2340Q2044 2420 2370 2450L2370 2450Q2364 2458 2357 2468Q2350 2478 2344 2487Q2338 2496 2334 2506L2334 2506Q2092 2480 1864 2427Q1636 2374 1436 2292Q1236 2210 1077 2099Q918 1988 814 1844L814 1844ZM1266 1732L1266 1732L1324 1754Q1242 1852 1135 1943Q1028 2034 911 2110Q794 2186 678 2244L678 2244Q674 2238 665 2230Q656 2222 646 2214Q636 2206 628 2202L628 2202Q748 2146 866 2073Q984 2000 1088 1913Q1192 1826 1266 1732ZM1166 1628L1166 1384L1226 1384L1226 1628Q1226 1656 1247 1665Q1268 1674 1342 1674L1342 1674Q1360 1674 1410 1674Q1460 1674 1523 1674Q1586 1674 1641 1674Q1696 1674 1720 1674L1720 1674Q1758 1674 1777 1664Q1796 1654 1804 1617Q1812 1580 1814 1504L1814 1504Q1826 1512 1841 1517Q1856 1522 1870 1526L1870 1526Q1866 1610 1854 1655Q1842 1700 1813 1716Q1784 1732 1728 1732L1728 1732Q1718 1732 1679 1732Q1640 1732 1588 1732Q1536 1732 1483 1732Q1430 1732 1392 1732Q1354 1732 1346 1732L1346 1732Q1276 1732 1236 1725Q1196 1718 1181 1695Q1166 1672 1166 1628L1166 1628ZM958 1392L958 1392L1010 1410Q980 1508 923 1603Q866 1698 766 1754L766 1754L720 1716Q814 1664 872 1576Q930 1488 958 1392ZM1076 1962L1136 1904L2028 1904L2028 1962L1076 1962Z"/>
  </svg>