<svg xmlns="http://www.w3.org/2000/svg" viewBox="0 0 3000 3000" width="3000" height="3000">
    <path fill="#000000" d="M334.65 1506.38L334.65 1296L1389.07 1296L1389.07 1506.38L1350.82 1506.38L1350.82 1332.97L372.90 1332.97L372.90 1506.38L334.65 1506.38ZM1290.90 997.65L1290.90 997.65L1317.67 1029.53Q1236.07 1046.10 1125.79 1059.49Q1015.50 1072.88 890.55 1083.71Q765.60 1094.55 638.10 1101.56Q510.60 1108.58 393.30 1112.40L393.30 1112.40Q392.02 1104.75 388.84 1094.55Q385.65 1084.35 383.10 1076.70L383.10 1076.70Q499.12 1072.88 626.62 1065.86Q754.12 1058.85 877.80 1048.65Q1001.47 1038.45 1108.57 1025.70Q1215.67 1012.95 1290.90 997.65ZM492.75 1134.08L492.75 1134.08L525.90 1120.05Q559.05 1154.47 585.82 1198.46Q612.60 1242.45 624.07 1275.60L624.07 1275.60L588.37 1292.17Q578.17 1259.03 550.76 1214.40Q523.35 1169.78 492.75 1134.08ZM773.25 1111.13L773.25 1111.13L808.95 1099.65Q837.00 1136.63 859.95 1183.16Q882.90 1229.70 890.55 1264.13L890.55 1264.13L852.30 1276.88Q845.92 1242.45 823.61 1195.91Q801.30 1149.38 773.25 1111.13ZM1137.90 1441.35L1137.90 1441.35L1167.22 1422.22Q1204.20 1451.55 1242.45 1487.25Q1280.70 1522.95 1313.85 1558.01Q1347 1593.08 1366.13 1621.13L1366.13 1621.13L1335.52 1642.80Q1316.40 1614.75 1283.25 1579.05Q1250.10 1543.35 1212.49 1507.01Q1174.88 1470.68 1137.90 1441.35ZM747.75 1383.97L747.75 1383.97L771.97 1357.20Q824.25 1380.15 880.35 1411.39Q936.45 1442.63 968.32 1468.13L968.32 1468.13L945.37 1498.72Q912.22 1471.95 856.12 1439.44Q800.02 1406.93 747.75 1383.97ZM1225.88 1097.10L1225.88 1097.10L1260.30 1118.78Q1227.15 1169.78 1185.07 1224.60Q1143 1279.42 1107.30 1320.22L1107.30 1320.22L1080.52 1302.38Q1103.47 1275.60 1130.89 1239.26Q1158.30 1202.92 1183.80 1164.67Q1209.30 1126.42 1225.88 1097.10ZM1186.35 1763.93L1186.35 1757.55L1197.82 1757.55L1206.75 1755L1230.97 1774.13Q1167.22 1859.55 1070.32 1922.03Q973.42 1984.50 854.21 2028.49Q735.00 2072.47 602.40 2101.16Q469.80 2129.85 334.65 2147.70L334.65 2147.70Q333.37 2142.60 330.19 2136.22Q327.00 2129.85 323.17 2123.47Q319.35 2117.10 315.52 2113.28L315.52 2113.28Q448.12 2097.97 578.17 2071.20Q708.22 2044.43 824.89 2001.71Q941.55 1959 1034.63 1900.35Q1127.70 1841.70 1186.35 1763.93L1186.35 1763.93ZM425.17 1719.30L457.05 1701.45Q542.47 1817.48 689.10 1900.99Q835.72 1984.50 1022.51 2035.50Q1209.30 2086.50 1417.13 2105.63L1417.13 2105.63Q1413.30 2110.72 1408.84 2117.10Q1404.38 2123.47 1400.55 2129.21Q1396.72 2134.95 1394.17 2141.33L1394.17 2141.33Q1239.90 2124.75 1094.55 2090.96Q949.20 2057.18 821.70 2004.90Q694.20 1952.63 592.84 1881.86Q491.47 1811.10 425.17 1719.30L425.17 1719.30ZM713.32 1647.90L713.32 1647.90L750.30 1661.93Q698.02 1724.40 629.81 1782.41Q561.60 1840.43 487.01 1888.88Q412.42 1937.33 338.47 1974.30L338.47 1974.30Q335.92 1970.48 330.19 1965.38Q324.45 1960.28 318.07 1955.18Q311.70 1950.08 306.60 1947.53L306.60 1947.53Q383.10 1911.83 458.32 1865.29Q533.55 1818.75 599.85 1763.29Q666.15 1707.83 713.32 1647.90ZM649.57 1581.60L649.57 1426.05L687.82 1426.05L687.82 1581.60Q687.82 1599.45 701.21 1605.19Q714.60 1610.93 761.77 1610.93L761.77 1610.93Q773.25 1610.93 805.12 1610.93Q837.00 1610.93 877.16 1610.93Q917.32 1610.93 952.39 1610.93Q987.45 1610.93 1002.75 1610.93L1002.75 1610.93Q1026.97 1610.93 1039.09 1604.55Q1051.20 1598.18 1056.30 1574.59Q1061.40 1551 1062.67 1502.55L1062.67 1502.55Q1070.32 1507.65 1079.89 1510.84Q1089.45 1514.03 1098.38 1516.58L1098.38 1516.58Q1095.82 1570.13 1088.17 1598.81Q1080.52 1627.50 1062.04 1637.70Q1043.55 1647.90 1007.85 1647.90L1007.85 1647.90Q1001.47 1647.90 976.61 1647.90Q951.75 1647.90 918.60 1647.90Q885.45 1647.90 851.66 1647.90Q817.87 1647.90 793.65 1647.90Q769.42 1647.90 764.32 1647.90L764.32 1647.90Q719.70 1647.90 694.20 1643.44Q668.70 1638.97 659.14 1624.31Q649.57 1609.65 649.57 1581.60L649.57 1581.60ZM516.97 1431.15L516.97 1431.15L550.12 1442.63Q531.00 1505.10 494.66 1565.66Q458.32 1626.22 394.57 1661.93L394.57 1661.93L365.25 1637.70Q425.17 1604.55 462.15 1548.45Q499.12 1492.35 516.97 1431.15ZM592.20 1794.53L630.45 1757.55L1199.10 1757.55L1199.10 1794.53L592.20 1794.53ZM1895.25 2063.55L1895.25 1868.48L1932.22 1868.48L1932.22 2064.83Q1932.22 2085.22 1948.16 2091.60Q1964.10 2097.97 2018.93 2097.97L2018.93 2097.97Q2031.68 2097.97 2068.65 2097.97Q2105.63 2097.97 2151.53 2097.97Q2197.43 2097.97 2236.95 2097.97Q2276.48 2097.97 2294.32 2097.97L2294.32 2097.97Q2326.20 2097.97 2340.86 2088.41Q2355.53 2078.85 2361.26 2046.34Q2367 2013.83 2369.55 1946.25L2369.55 1946.25Q2378.48 1951.35 2388.68 1955.18Q2398.88 1959 2407.80 1961.55L2407.80 1961.55Q2405.25 2032.95 2395.69 2070.56Q2386.13 2108.18 2363.81 2122.20Q2341.50 2136.22 2296.88 2136.22L2296.88 2136.22Q2290.50 2136.22 2262.45 2136.22Q2234.40 2136.22 2196.79 2136.22Q2159.18 2136.22 2121.56 2136.22Q2083.95 2136.22 2055.90 2136.22Q2027.85 2136.22 2021.47 2136.22L2021.47 2136.22Q1971.75 2136.22 1944.34 2131.13Q1916.93 2126.03 1906.09 2110.09Q1895.25 2094.15 1895.25 2063.55L1895.25 2063.55ZM2036.78 1823.85L2036.78 1823.85L2062.28 1803.45Q2097.97 1825.13 2136.22 1852.54Q2174.47 1879.95 2207.63 1908Q2240.78 1936.05 2261.18 1959L2261.18 1959L2234.40 1984.50Q2214 1960.28 2180.85 1932.23Q2147.70 1904.18 2110.09 1875.49Q2072.47 1846.80 2036.78 1823.85ZM2460.07 1868.48L2460.07 1868.48L2489.40 1851.90Q2525.10 1883.78 2560.16 1922.03Q2595.23 1960.28 2624.55 1997.89Q2653.88 2035.50 2670.45 2066.10L2670.45 2066.10L2639.85 2085.22Q2623.28 2054.63 2594.59 2017.01Q2565.90 1979.40 2530.84 1939.88Q2495.78 1900.35 2460.07 1868.48ZM1753.72 1867.20L1753.72 1867.20L1785.60 1881.23Q1760.10 1936.05 1723.13 2001.08Q1686.15 2066.10 1637.70 2110.72L1637.70 2110.72L1605.83 2091.60Q1654.28 2049.53 1692.53 1985.14Q1730.78 1920.75 1753.72 1867.20ZM1653 1150.65L1653 1113.67L2620.73 1113.67L2620.73 1150.65L1653 1150.65ZM1599.45 1355.93L1599.45 1318.95L2684.48 1318.95L2684.48 1355.93L1599.45 1355.93ZM1858.28 1168.50L1858.28 1168.50L1892.70 1155.75Q1915.65 1190.17 1935.41 1231.61Q1955.18 1273.05 1964.10 1303.65L1964.10 1303.65L1925.85 1317.68Q1919.47 1285.80 1900.35 1244.36Q1881.22 1202.92 1858.28 1168.50ZM2383.57 1151.92L2383.57 1151.92L2419.28 1165.95Q2397.60 1213.13 2373.38 1260.94Q2349.15 1308.75 2323.65 1345.72L2323.65 1345.72L2290.50 1330.43Q2313.45 1293.45 2340.23 1241.81Q2367 1190.17 2383.57 1151.92ZM2489.40 1632.60L1791.97 1632.60L1791.97 1755L2489.40 1755L2489.40 1632.60ZM2489.40 1474.50L1791.97 1474.50L1791.97 1594.35L2489.40 1594.35L2489.40 1474.50ZM1753.72 1791.98L1753.72 1437.53L2527.65 1437.53L2527.65 1791.98L1753.72 1791.98ZM2089.05 1004.03L2089.05 1004.03L2122.20 990Q2147.70 1019.33 2172.56 1056.94Q2197.43 1094.55 2210.18 1122.60L2210.18 1122.60L2174.47 1139.17Q2161.72 1111.13 2137.50 1072.88Q2113.28 1034.63 2089.05 1004.03Z"/>
  </svg>