<svg xmlns="http://www.w3.org/2000/svg" viewBox="0 0 3000 3000" width="3000" height="3000">
    <path fill="#000000" d="M698 1492L698 1196L2314 1196L2314 1492L2254 1492L2254 1254L758 1254L758 1492L698 1492ZM964 938L964 938L1018 928Q1052 998 1083 1081Q1114 1164 1126 1220L1126 1220L1070 1238Q1058 1180 1028 1095Q998 1010 964 938ZM1422 922L1422 922L1474 914Q1504 988 1531 1073Q1558 1158 1572 1214L1572 1214L1518 1228Q1504 1170 1477 1083Q1450 996 1422 922ZM2166 736L2166 736L2198 788Q2072 812 1900 831Q1728 850 1533 864Q1338 878 1139 887Q940 896 758 900L758 900Q756 888 751 872Q746 856 742 844L742 844Q922 840 1121 831Q1320 822 1515 808Q1710 794 1879 776Q2048 758 2166 736ZM2004 878L2004 878L2062 904Q2016 988 1957 1080Q1898 1172 1846 1236L1846 1236L1798 1216Q1832 1172 1871 1112Q1910 1052 1945 990Q1980 928 2004 878ZM1146 1878L1192 1850Q1296 2002 1472 2116Q1648 2230 1871 2304Q2094 2378 2334 2410L2334 2410Q2328 2418 2321 2428Q2314 2438 2308 2449Q2302 2460 2298 2470L2298 2470Q2060 2434 1836 2356Q1612 2278 1433 2158Q1254 2038 1146 1878L1146 1878ZM1150 1904L1150 1844L2034 1844L2034 1904L1150 1904ZM2010 1858L2010 1844L2024 1844L2038 1840L2070 1868Q1974 2038 1811 2155Q1648 2272 1448 2347Q1248 2422 1040 2466L1040 2466Q1038 2458 1033 2448Q1028 2438 1022 2427Q1016 2416 1012 2410L1012 2410Q1216 2372 1412 2302Q1608 2232 1765 2122Q1922 2012 2010 1858L2010 1858ZM816 1620L816 1560L2184 1560L2184 1620L816 1620ZM1306 1338L1306 1338L1364 1348Q1282 1758 1109 2036Q936 2314 642 2488L642 2488Q640 2482 633 2472Q626 2462 618 2451Q610 2440 604 2434L604 2434Q892 2276 1060 2003Q1228 1730 1306 1338Z"/>
  </svg>