<svg xmlns="http://www.w3.org/2000/svg" viewBox="0 0 3000 3000" width="3000" height="3000">
    <path fill="#000000" d="M717.15 1736.51L717.15 1736.51L1007.85 1727.59Q954.30 1782.41 871.42 1837.24L871.42 1837.24Q829.35 1814.29 786.00 1785.60Q742.65 1756.91 717.15 1736.51ZM1081.80 1645.99L1081.80 1645.99L1066.50 1645.99L765.60 1658.74L779.62 1642.16Q788.55 1633.24 788.55 1624.31L788.55 1624.31Q788.55 1609.01 771.34 1593.71Q754.12 1578.41 735.64 1568.21Q717.15 1558.01 705.67 1558.01L705.67 1558.01Q687.82 1558.01 684.00 1582.24L684.00 1582.24Q680.17 1612.84 652.12 1650.45Q624.07 1688.06 583.91 1728.23Q543.75 1768.39 503.59 1802.18Q463.42 1835.96 436.65 1857Q409.87 1878.04 407.32 1879.31L407.32 1879.31Q381.82 1898.44 381.82 1912.46L381.82 1912.46Q381.82 1927.76 396.49 1927.76Q411.15 1927.76 430.27 1918.84L430.27 1918.84Q490.20 1890.79 545.02 1854.45Q599.85 1818.11 645.75 1778.59L645.75 1778.59Q678.90 1809.19 719.70 1838.51Q760.50 1867.84 789.82 1886.96L789.82 1886.96Q699.30 1939.24 583.27 1983.23Q467.25 2027.21 351.22 2052.71L351.22 2052.71Q314.25 2061.64 314.25 2081.40Q314.25 2101.16 349.95 2101.16L349.95 2101.16L360.15 2101.16Q500.40 2084.59 631.72 2044.43Q763.05 2004.26 876.52 1936.69L876.52 1936.69Q959.40 1978.76 1042.91 2010.64Q1126.42 2042.51 1195.27 2061.64Q1264.12 2080.76 1304.92 2088.41L1304.92 2088.41L1347 2097.34Q1364.85 2097.34 1382.70 2083.31Q1400.55 2069.29 1413.94 2053.35Q1427.32 2037.41 1427.32 2028.49L1427.32 2028.49Q1427.32 2011.91 1396.72 2006.81L1396.72 2006.81Q1273.05 1985.14 1160.85 1953.90Q1048.65 1922.66 959.40 1881.86L959.40 1881.86Q996.37 1856.36 1039.09 1818.75Q1081.80 1781.14 1121.32 1737.79L1121.32 1737.79Q1126.42 1730.14 1139.81 1721.85Q1153.20 1713.56 1153.20 1699.54L1153.20 1699.54Q1153.20 1690.61 1134.07 1668.30Q1114.95 1645.99 1081.80 1645.99ZM488.92 1631.96L488.92 1631.96Q504.22 1631.96 520.16 1609.65Q536.10 1587.34 550.76 1556.10Q565.42 1524.86 579.45 1493.63Q593.47 1462.39 601.12 1440.71Q608.77 1419.04 610.05 1416.49L610.05 1416.49Q611.32 1410.11 611.96 1405.65Q612.60 1401.19 612.60 1398.64L612.60 1398.64Q612.60 1379.51 595.39 1371.22Q578.17 1362.94 564.15 1362.94L564.15 1362.94Q542.47 1362.94 532.27 1388.44L532.27 1388.44Q516.97 1431.79 495.94 1473.22Q474.90 1514.66 443.02 1554.19L443.02 1554.19Q432.82 1569.49 432.82 1580.96L432.82 1580.96Q432.82 1597.54 454.50 1614.75Q476.17 1631.96 488.92 1631.96ZM1149.38 1535.06L1149.38 1535.06Q1149.38 1515.94 1122.60 1491.71L1122.60 1491.71Q1100.92 1471.31 1077.97 1444.54Q1055.02 1417.76 1039.72 1397.36L1039.72 1397.36Q1020.60 1368.04 1005.30 1368.04Q990.00 1368.04 990.00 1387.16L990.00 1387.16Q990.00 1393.54 1002.11 1429.88Q1014.22 1466.21 1038.45 1512.11L1038.45 1512.11L1038.45 1515.94Q1038.45 1517.21 1033.35 1517.21L1033.35 1517.21Q1004.02 1521.04 965.77 1521.04L965.77 1521.04Q907.12 1521.04 854.85 1510.84Q802.57 1500.64 763.05 1468.76Q723.52 1436.89 703.12 1371.86L703.12 1371.86Q692.92 1343.81 672.52 1343.81L672.52 1343.81Q669.97 1343.81 664.87 1344.45Q659.77 1345.09 653.40 1346.36L653.40 1346.36Q622.80 1356.56 622.80 1376.96L622.80 1376.96Q622.80 1379.51 629.81 1403.10Q636.82 1426.69 654.67 1459.84Q672.52 1492.99 702.49 1524.22Q732.45 1555.46 775.80 1573.31L775.80 1573.31Q816.60 1589.89 865.69 1595.63Q914.77 1601.36 961.95 1601.36L961.95 1601.36Q1041 1601.36 1080.52 1590.53Q1120.05 1579.69 1134.71 1564.39Q1149.38 1549.09 1149.38 1535.06ZM1298.55 1522.31L1298.55 1522.31Q1298.55 1512.11 1283.25 1489.16L1283.25 1489.16Q1274.32 1478.96 1264.12 1466.21L1264.12 1466.21Q1285.80 1461.11 1320.22 1417.76L1320.22 1417.76Q1359.75 1369.31 1403.10 1295.36L1403.10 1295.36Q1405.65 1291.54 1414.57 1284.53Q1423.50 1277.51 1423.50 1264.76L1423.50 1264.76Q1423.50 1245.64 1404.38 1228.43Q1385.25 1211.21 1355.92 1211.21L1355.92 1211.21L1340.63 1211.21L1093.27 1226.51Q1108.57 1213.76 1139.81 1182.53Q1171.05 1151.29 1201.65 1119.41L1201.65 1119.41Q1209.30 1107.94 1209.30 1099.01L1209.30 1099.01Q1209.30 1081.16 1190.81 1067.78Q1172.32 1054.39 1153.20 1046.74L1153.20 1046.74Q1144.27 1044.19 1139.17 1041.64L1139.17 1041.64Q1183.80 1035.26 1228.42 1027.61L1228.42 1027.61Q1251.37 1022.51 1251.37 1002.11L1251.37 1002.11Q1251.37 986.81 1239.90 966.41Q1228.42 946.01 1213.76 930.08Q1199.10 914.14 1187.63 914.14L1187.63 914.14Q1177.42 914.14 1168.50 924.34L1168.50 924.34Q1151.92 944.74 1130.25 948.56L1130.25 948.56Q981.07 980.44 810.22 1006.58Q639.37 1032.71 468.52 1051.84L468.52 1051.84Q423.90 1056.94 423.90 1079.25Q423.90 1101.56 468.52 1101.56L468.52 1101.56L472.35 1101.56Q502.95 1100.29 534.82 1099.01L534.82 1099.01Q531.00 1102.84 528.45 1107.94L528.45 1107.94Q518.25 1128.34 518.25 1132.16L518.25 1132.16Q518.25 1146.19 536.10 1160.21L536.10 1160.21Q557.77 1176.79 582.00 1197.19Q606.22 1217.59 629.17 1244.36L629.17 1244.36Q633.00 1249.46 638.10 1253.29L638.10 1253.29L486.37 1262.21L491.47 1231.61Q491.47 1211.21 478.09 1204.20Q464.70 1197.19 452.59 1195.91Q440.47 1194.64 439.20 1194.64L439.20 1194.64Q423.90 1194.64 416.89 1203.56Q409.87 1212.49 406.05 1230.34L406.05 1230.34Q393.30 1287.71 371.62 1350.19Q349.95 1412.66 318.07 1468.76L318.07 1468.76Q310.42 1480.24 310.42 1490.44L310.42 1490.44Q310.42 1505.74 324.45 1515.94Q338.47 1526.14 353.14 1531.24Q367.80 1536.34 373.54 1536.34Q379.27 1536.34 387.56 1530.60Q395.85 1524.86 406.69 1507.01Q417.52 1489.16 432.82 1449Q448.12 1408.84 467.25 1345.09L467.25 1345.09L1299.82 1296.64Q1290.90 1322.14 1278.79 1353.38Q1266.67 1384.61 1250.10 1420.31L1250.10 1420.31Q1243.72 1431.79 1242.45 1440.71L1242.45 1440.71Q1218.22 1415.21 1192.72 1390.35Q1167.22 1365.49 1145.55 1347.64Q1123.88 1329.79 1112.40 1329.79L1112.40 1329.79Q1102.20 1329.79 1085.63 1341.90Q1069.05 1354.01 1069.05 1371.86L1069.05 1371.86Q1069.05 1382.06 1084.35 1397.36L1084.35 1397.36Q1117.50 1429.24 1151.92 1470.04Q1186.35 1510.84 1211.85 1549.09L1211.85 1549.09Q1227.15 1573.31 1242.45 1573.31L1242.45 1573.31Q1259.02 1573.31 1278.79 1553.55Q1298.55 1533.79 1298.55 1522.31ZM961.95 1452.19L961.95 1452.19Q961.95 1438.16 941.55 1416.49Q921.15 1394.81 893.74 1375.05Q866.32 1355.29 842.10 1340.63Q817.87 1325.96 807.67 1325.96L807.67 1325.96Q791.10 1325.96 779.62 1343.81Q768.15 1361.66 768.15 1368.04L768.15 1368.04Q768.15 1378.24 784.72 1392.26L784.72 1392.26Q810.22 1411.39 837.00 1435.61Q863.77 1459.84 880.35 1482.79L880.35 1482.79Q896.92 1501.91 910.95 1501.91L910.95 1501.91Q928.80 1501.91 945.37 1482.15Q961.95 1462.39 961.95 1452.19ZM979.80 1232.89L914.77 1236.71Q935.17 1225.24 935.17 1203.56L935.17 1203.56Q935.17 1193.36 922.42 1172.33Q909.67 1151.29 891.19 1128.34Q872.70 1105.39 854.85 1088.81L854.85 1088.81Q847.20 1082.44 840.82 1077.34L840.82 1077.34Q973.42 1065.86 1109.85 1045.46L1109.85 1045.46Q1107.30 1050.56 1107.30 1056.94L1107.30 1056.94L1107.30 1062.04Q1107.30 1106.66 979.80 1232.89L979.80 1232.89ZM858.67 1240.54L858.67 1240.54L689.10 1250.74Q692.92 1245.64 698.02 1240.54L698.02 1240.54Q710.77 1223.96 710.77 1212.49L710.77 1212.49Q710.77 1202.29 691.65 1182.53Q672.52 1162.76 647.02 1141.09Q621.52 1119.41 597.30 1104.11L597.30 1104.11Q590.92 1099.01 585.82 1096.46L585.82 1096.46Q689.10 1091.36 796.20 1081.16L796.20 1081.16Q792.37 1084.99 788.55 1088.81L788.55 1088.81Q773.25 1106.66 773.25 1117.50Q773.25 1128.34 784.72 1137.26L784.72 1137.26Q801.30 1153.84 818.51 1177.42Q835.72 1201.01 848.47 1225.24L848.47 1225.24Q853.57 1234.16 858.67 1240.54ZM2248.43 1079.89L2248.43 1079.89Q2291.78 1079.89 2291.78 1025.06L2291.78 1025.06Q2286.68 974.06 2016.38 940.91L2016.38 940.91Q1976.85 943.46 1976.85 991.91L1976.85 991.91Q1978.13 1011.04 2011.28 1018.69L2011.28 1018.69Q2122.20 1040.36 2206.35 1070.96L2206.35 1070.96Q2220.38 1074.79 2229.94 1077.34Q2239.50 1079.89 2248.43 1079.89ZM2284.13 2071.84L2284.13 2071.84Q2430.75 2071.84 2469 2055.26L2469 2055.26Q2518.73 2034.86 2518.73 2002.99L2518.73 2002.99Q2518.73 1985.14 2491.31 1957.73Q2463.90 1930.31 2434.57 1895.89Q2405.25 1861.46 2383.57 1831.50Q2361.90 1801.54 2346.60 1801.54Q2331.30 1801.54 2331.30 1824.49L2331.30 1824.49Q2331.30 1855.09 2363.18 1918.84L2363.18 1918.84L2389.95 1977.49Q2389.95 1978.76 2280.30 1978.76L2280.30 1978.76Q2141.32 1978.76 2055.90 1944.98Q1970.47 1911.19 1939.88 1820.66L1939.88 1820.66Q1932.22 1802.81 1922.03 1795.16L1922.03 1795.16Q1948.80 1791.34 1948.80 1756.91L1948.80 1756.91L1948.80 1749.26Q2396.32 1731.41 2426.93 1728.86L2426.93 1728.86Q2443.50 1728.86 2443.50 1712.29L2443.50 1712.29Q2443.50 1694.44 2415.45 1665.11L2415.45 1665.11Q2447.32 1478.96 2450.51 1473.22Q2453.70 1467.49 2453.70 1458.56Q2453.70 1449.64 2437.76 1428.60Q2421.82 1407.56 2379.75 1407.56L2379.75 1407.56L1918.20 1433.06Q1849.35 1410.11 1830.22 1410.11L1830.22 1410.11Q1812.38 1410.11 1812.38 1426.69L1812.38 1426.69Q1812.38 1431.79 1816.20 1439.44L1816.20 1439.44Q1826.40 1463.66 1830.86 1476.41Q1835.33 1489.16 1844.25 1589.89L1844.25 1589.89Q1853.17 1676.59 1853.17 1691.89L1853.17 1691.89Q1853.17 1717.39 1849.35 1736.51L1849.35 1736.51Q1849.35 1754.36 1857 1765.20Q1864.65 1776.04 1885.05 1784.96L1885.05 1784.96Q1890.15 1787.51 1893.97 1788.79L1893.97 1788.79Q1854.45 1792.61 1854.45 1828.31L1854.45 1828.31Q1854.45 1833.41 1857 1844.89L1857 1844.89Q1901.63 1971.11 2024.03 2031.04L2024.03 2031.04Q2106.90 2071.84 2284.13 2071.84ZM1590.53 1997.89L1590.53 1997.89Q1590.53 2019.56 1611.56 2034.23Q1632.60 2048.89 1647.90 2048.89Q1663.20 2048.89 1682.33 2023.39Q1701.45 1997.89 1722.49 1963.46Q1743.53 1929.04 1762.01 1892.70Q1780.50 1856.36 1792.61 1828.31Q1804.72 1800.26 1804.72 1793.89L1804.72 1793.89Q1804.72 1774.76 1774.13 1759.46L1774.13 1759.46Q1766.47 1756.91 1760.74 1755Q1755 1753.09 1748.63 1753.09L1748.63 1753.09Q1732.05 1753.09 1720.58 1779.86L1720.58 1779.86Q1673.40 1885.69 1602 1968.56L1602 1968.56Q1590.53 1985.14 1590.53 1997.89ZM2211.45 1943.06L2211.45 1943.06Q2222.93 1943.06 2242.05 1925.21Q2261.18 1907.36 2261.18 1886.96L2261.18 1886.96Q2261.18 1860.19 2189.14 1805.36Q2117.10 1750.54 2095.43 1750.54L2095.43 1750.54Q2078.85 1750.54 2065.46 1768.39Q2052.07 1786.24 2052.07 1795.16L2052.07 1795.16Q2052.07 1807.91 2068.65 1820.66L2068.65 1820.66Q2141.32 1876.76 2177.03 1922.66L2177.03 1922.66Q2194.88 1943.06 2211.45 1943.06ZM2656.43 1997.89L2656.43 1997.89Q2666.63 1997.89 2679.38 1987.05Q2692.13 1976.21 2700.41 1962.19Q2708.70 1948.16 2708.70 1937.96L2708.70 1937.96Q2708.70 1913.74 2639.85 1851.26L2639.85 1851.26Q2521.28 1739.06 2493.23 1739.06L2493.23 1739.06Q2477.93 1739.06 2463.26 1758.19Q2448.60 1777.31 2448.60 1787.51L2448.60 1787.51Q2448.60 1802.81 2467.73 1818.11L2467.73 1818.11Q2546.78 1884.41 2623.28 1976.21L2623.28 1976.21Q2641.13 1997.89 2656.43 1997.89ZM2331.30 1658.74L1941.15 1675.31L1937.33 1625.59L2336.40 1606.46L2331.30 1658.74ZM2345.32 1533.79L1929.68 1554.19L1925.85 1508.29L2349.15 1487.89L2345.32 1533.79ZM1658.10 1402.46L1658.10 1402.46L2665.35 1345.09Q2698.50 1341.26 2698.50 1322.14L2698.50 1322.14Q2698.50 1314.49 2687.66 1300.46Q2676.82 1286.44 2661.53 1273.69Q2646.23 1260.94 2629.65 1260.94L2629.65 1260.94Q2585.03 1269.86 2576.10 1269.86L2576.10 1269.86L2300.70 1285.16Q2350.43 1231.61 2350.43 1215.04L2350.43 1215.04Q2350.43 1201.01 2333.85 1188.26Q2317.28 1175.51 2299.43 1167.86L2299.43 1167.86L2503.43 1155.11Q2539.13 1153.84 2539.13 1128.34L2539.13 1128.34Q2539.13 1115.59 2527.01 1102.20Q2514.90 1088.81 2498.96 1079.25Q2483.03 1069.69 2467.73 1069.69L2467.73 1069.69Q2461.35 1069.69 2457.53 1070.96L2457.53 1070.96Q2446.05 1074.79 2434.57 1076.70Q2423.10 1078.61 2116.46 1097.10Q1809.83 1115.59 1806 1116.22Q1802.17 1116.86 1797.08 1116.86L1797.08 1116.86Q1777.95 1116.86 1758.83 1111.76L1758.83 1111.76Q1753.72 1110.49 1747.35 1110.49L1747.35 1110.49Q1733.33 1110.49 1733.33 1125.79Q1733.33 1141.09 1744.16 1158.30Q1755 1175.51 1765.84 1185.71Q1776.67 1195.91 1808.55 1195.91L1808.55 1195.91L1828.95 1195.91L1938.60 1189.54Q1936.05 1190.81 1933.50 1193.36L1933.50 1193.36Q1915.65 1209.94 1915.65 1226.51L1915.65 1226.51Q1915.65 1236.71 1929.68 1250.74L1929.68 1250.74Q1964.10 1282.61 1985.78 1311.94L1985.78 1311.94L1978.13 1304.29Q1664.47 1323.41 1650.45 1323.41L1650.45 1323.41Q1626.22 1323.41 1600.72 1318.31L1600.72 1318.31Q1584.15 1318.31 1584.15 1332.34L1584.15 1332.34Q1584.15 1354.01 1609.65 1383.34L1609.65 1383.34Q1628.78 1402.46 1658.10 1402.46ZM1981.95 1186.99L1981.95 1186.99L2256.07 1170.41Q2253.53 1174.24 2253.53 1178.06L2253.53 1178.06Q2250.97 1198.46 2246.51 1211.85Q2242.05 1225.24 2229.94 1244.36Q2217.82 1263.49 2196.15 1291.54L2196.15 1291.54L2069.93 1299.19L2069.93 1287.71Q2069.93 1267.31 2024.03 1222.69L2024.03 1222.69Q1998.53 1197.19 1981.95 1186.99Z"/>
  </svg>