<svg xmlns="http://www.w3.org/2000/svg" viewBox="0 0 3000 3000" width="3000" height="3000">
    <path fill="#000000" d="M685.55 2392.58Q646.48 2396.48 626.95 2375.98Q607.42 2355.47 607.42 2316.41L607.42 2316.41Q607.42 2250 695.31 2240.23L695.31 2240.23Q1039.06 2205.08 1339.84 2111.33L1339.84 2111.33Q1201.17 2017.58 1103.52 1884.77L1103.52 1884.77Q824.22 2085.94 742.19 2085.94L742.19 2085.94Q666.02 2085.94 666.02 2017.58L666.02 2017.58Q666.02 1988.28 684.57 1967.77Q703.13 1947.27 742.19 1931.64L742.19 1931.64Q1025.39 1820.31 1210.94 1623.05L1210.94 1623.05Q1119.14 1611.33 1119.14 1527.34L1119.14 1527.34L1119.14 1292.97Q1119.14 1255.86 1135.74 1239.26Q1152.34 1222.66 1189.45 1222.66L1189.45 1222.66Q1259.77 1222.66 1259.77 1291.02L1259.77 1291.02L1259.77 1464.84Q1259.77 1500 1298.83 1505.86L1298.83 1505.86Q1351.56 1511.72 1582.03 1511.72L1582.03 1511.72Q1712.89 1511.72 1748.05 1494.14L1748.05 1494.14Q1761.72 1488.28 1765.63 1437.50L1765.63 1437.50Q1767.58 1408.20 1786.13 1391.60Q1804.69 1375 1833.98 1375L1833.98 1375Q1906.25 1375 1906.25 1437.50L1906.25 1437.50Q1906.25 1535.16 1857.42 1583.98L1857.42 1583.98Q1810.55 1628.91 1585.94 1628.91L1585.94 1628.91L1382.81 1628.91L1294.92 1726.56L1947.27 1726.56Q2007.81 1726.56 2041.99 1751.95Q2076.17 1777.34 2076.17 1814.45L2076.17 1814.45Q2076.17 1865.23 2013.67 1914.06L2013.67 1914.06Q1955.08 1958.98 1856.45 2020.51Q1757.81 2082.03 1681.64 2121.09L1681.64 2121.09Q1921.88 2191.41 2242.19 2212.89L2242.19 2212.89Q2392.58 2222.66 2392.58 2298.83L2392.58 2298.83Q2392.58 2384.77 2291.02 2384.77L2291.02 2384.77Q2146.48 2384.77 1914.06 2332.03L1914.06 2332.03Q1660.16 2275.39 1501.95 2201.17L1501.95 2201.17Q1195.31 2330.08 777.34 2380.86L777.34 2380.86L685.55 2392.58ZM869.14 1630.86Q833.98 1630.86 815.43 1613.28Q796.88 1595.70 796.88 1572.27L796.88 1572.27Q796.88 1556.64 802.73 1544.92L802.73 1544.92L890.63 1351.56Q929.69 1265.63 974.61 1265.63L974.61 1265.63Q1041.02 1265.63 1041.02 1330.08L1041.02 1330.08Q1041.02 1363.28 982.42 1494.14L982.42 1494.14Q921.88 1630.86 869.14 1630.86L869.14 1630.86ZM1564.45 2023.44Q1792.97 1912.11 1830.08 1875L1830.08 1875Q1837.89 1867.19 1837.89 1861.33L1837.89 1861.33Q1837.89 1853.52 1822.27 1853.52L1822.27 1853.52L1248.05 1853.52Q1341.80 1972.66 1503.91 2052.73L1503.91 2052.73L1564.45 2023.44ZM1566.41 1435.55Q1529.30 1435.55 1476.56 1380.86L1476.56 1380.86L1437.50 1341.80Q1398.44 1302.73 1398.44 1283.20L1398.44 1283.20Q1398.44 1220.70 1468.75 1220.70L1468.75 1220.70Q1500 1220.70 1572.27 1283.20L1572.27 1283.20Q1636.72 1337.89 1636.72 1369.14L1636.72 1369.14Q1636.72 1435.55 1566.41 1435.55L1566.41 1435.55ZM712.89 1480.47Q634.77 1480.47 634.77 1392.58L634.77 1392.58L634.77 1228.52Q634.77 1128.91 679.69 1083.01Q724.61 1037.11 822.27 1041.02L822.27 1041.02L966.80 1041.02Q908.20 939.45 908.20 919.92L908.20 919.92Q908.20 859.38 978.52 859.38L978.52 859.38Q1007.81 859.38 1044.92 903.32Q1082.03 947.27 1138.67 1041.02L1138.67 1041.02L1439.45 1041.02L1392.58 966.80Q1361.33 916.02 1361.33 902.34L1361.33 902.34Q1361.33 839.84 1441.41 839.84L1441.41 839.84Q1490.23 839.84 1517.58 878.91L1517.58 878.91L1619.14 1041.02L1824.22 1041.02L1892.58 925.78Q1964.84 806.64 2019.53 806.64L2019.53 806.64Q2103.52 806.64 2103.52 865.23L2103.52 865.23Q2103.52 892.58 1988.28 1041.02L1988.28 1041.02L2169.92 1041.02Q2269.53 1041.02 2315.43 1085.94Q2361.33 1130.86 2355.47 1228.52L2355.47 1228.52L2355.47 1392.58Q2355.47 1480.47 2277.34 1480.47L2277.34 1480.47Q2201.17 1480.47 2201.17 1392.58L2201.17 1392.58L2201.17 1242.19Q2201.17 1177.73 2132.81 1173.83L2132.81 1173.83L859.38 1173.83Q794.92 1173.83 791.02 1242.19L791.02 1242.19L791.02 1392.58Q791.02 1480.47 712.89 1480.47L712.89 1480.47ZM2140.63 1613.28Q2103.52 1613.28 2050.78 1537.11L2050.78 1537.11Q1986.33 1443.36 1933.59 1388.67L1933.59 1388.67Q1869.14 1322.27 1869.14 1289.06L1869.14 1289.06Q1869.14 1267.58 1886.72 1252.93Q1904.30 1238.28 1927.73 1238.28L1927.73 1238.28Q1955.08 1238.28 1993.16 1269.53Q2031.25 1300.78 2095.70 1373.05L2095.70 1373.05Q2214.84 1505.86 2214.84 1544.92L2214.84 1544.92Q2214.84 1613.28 2140.63 1613.28L2140.63 1613.28ZM812.50 833.98Q748.05 833.98 718.75 815.43Q689.45 796.88 689.45 759.77L689.45 759.77Q689.45 722.66 716.80 705.08Q744.14 687.50 808.59 687.50L808.59 687.50L1101.56 687.50Q1701.17 687.50 2064.45 619.14L2064.45 619.14Q2111.33 609.38 2144.53 609.38L2144.53 609.38Q2224.61 609.38 2224.61 685.55L2224.61 685.55Q2224.61 751.95 2097.66 765.63L2097.66 765.63Q1541.02 833.98 812.50 833.98L812.50 833.98Z"/>
  </svg>