<svg xmlns="http://www.w3.org/2000/svg" viewBox="0 0 3000 3000" width="3000" height="3000">
    <path fill="#000000" d="M587.10 1253.92L647.02 1232.25Q661.05 1227.15 666.79 1218.86Q672.52 1210.57 687.82 1210.57L687.82 1210.57Q699.30 1210.57 718.42 1222.69Q737.55 1234.80 737.55 1242.45L737.55 1242.45Q737.55 1248.82 745.20 1253.92L745.20 1253.92Q755.40 1261.57 754.12 1281.97Q752.85 1302.38 740.10 1312.57L740.10 1312.57Q728.62 1325.32 715.24 1350.82Q701.85 1376.32 681.45 1408.20L681.45 1408.20Q662.32 1436.25 665.51 1441.99Q668.70 1447.72 704.40 1457.92L704.40 1457.92Q736.27 1466.85 748.39 1480.88Q760.50 1494.90 764.32 1521.67L764.32 1521.67Q765.60 1551 752.85 1566.30Q740.10 1581.60 722.89 1578.41Q705.67 1575.22 685.27 1562.47L685.27 1562.47Q658.50 1543.35 652.12 1549.72Q645.75 1556.10 641.92 1603.28L641.92 1603.28Q639.37 1659.38 641.92 1723.13L641.92 1723.13Q645.75 1794.53 638.74 1863.38Q631.72 1932.22 620.25 1957.72L620.25 1957.72Q599.85 2003.63 571.80 1993.42L571.80 1993.42Q543.75 1981.95 534.82 1916.92L534.82 1916.92Q531.00 1877.40 531.64 1861.46Q532.27 1845.53 541.20 1786.88L541.20 1786.88Q552.67 1714.20 552.67 1683.60Q552.67 1653 557.77 1632.60L557.77 1632.60Q562.87 1608.38 557.77 1606.46Q552.67 1604.55 537.37 1627.50L537.37 1627.50Q519.52 1650.45 504.22 1665.75Q488.92 1681.05 467.25 1711.65L467.25 1711.65Q451.95 1735.88 404.77 1776.67Q357.60 1817.47 338.47 1825.13L338.47 1825.13Q325.72 1828.95 322.54 1823.85Q319.35 1818.75 324.45 1798.35L324.45 1798.35Q329.55 1767.75 371.62 1721.85L371.62 1721.85Q403.50 1686.15 434.74 1645.35Q465.97 1604.55 465.97 1600.72L465.97 1600.72Q465.97 1596.90 480.00 1576.50Q494.02 1556.10 499.12 1545.26Q504.22 1534.42 509.32 1525.50L509.32 1525.50Q533.55 1488.52 570.52 1419.04Q607.50 1349.55 613.87 1327.88L613.87 1327.88Q617.70 1318.95 615.15 1318.31Q612.60 1317.67 598.57 1320.22L598.57 1320.22Q578.17 1325.32 564.15 1335.53Q550.12 1345.72 522.71 1359.75Q495.30 1373.78 463.42 1398L463.42 1398Q436.65 1418.40 425.81 1421.59Q414.97 1424.78 402.22 1414.57L402.22 1414.57Q384.37 1403.10 374.17 1376.32L374.17 1376.32Q371.62 1368.67 374.17 1368.67L374.17 1368.67Q378.00 1368.67 378.00 1360.39Q378.00 1352.10 398.40 1341.90L398.40 1341.90L481.27 1301.10Q541.20 1271.78 587.10 1253.92L587.10 1253.92ZM1157.02 1153.20L1157.02 1153.20Q1174.88 1145.55 1179.34 1146.19Q1183.80 1146.82 1199.10 1159.57L1199.10 1159.57Q1216.95 1173.60 1229.70 1173.60L1229.70 1173.60Q1255.20 1173.60 1270.50 1188.90Q1285.80 1204.20 1287.07 1230.97L1287.07 1230.97Q1287.07 1260.30 1277.51 1275.60Q1267.95 1290.90 1242.45 1306.20L1242.45 1306.20Q1213.13 1320.22 1195.27 1344.45L1195.27 1344.45L1176.15 1367.40L1187.63 1386.53Q1214.40 1428.60 1196.55 1452.82L1196.55 1452.82Q1188.90 1461.75 1172.96 1463.03Q1157.02 1464.30 1095.82 1457.92L1095.82 1457.92Q1049.92 1455.38 998.92 1463.03L998.92 1463.03L947.92 1468.13L945.37 1498.72L945.37 1530.60L973.42 1524.22Q1000.20 1520.40 1072.24 1519.13Q1144.27 1517.85 1177.42 1522.95L1177.42 1522.95Q1228.42 1528.05 1312.57 1549.72L1312.57 1549.72Q1371.22 1562.47 1398 1603.28L1398 1603.28Q1403.10 1613.47 1403.10 1620.49Q1403.10 1627.50 1398 1647.90L1398 1647.90Q1390.35 1674.67 1383.97 1748.63L1383.97 1748.63Q1373.77 1865.92 1368.67 1877.40L1368.67 1877.40Q1362.30 1887.60 1346.36 1922.66Q1330.42 1957.72 1308.11 1978.76Q1285.80 1999.80 1283.25 2008.09Q1280.70 2016.38 1266.67 2025.30L1266.67 2025.30Q1209.30 2061 1197.82 2078.85L1197.82 2078.85Q1173.60 2109.45 1158.30 2072.47L1158.30 2072.47Q1149.38 2053.35 1123.24 2032.95Q1097.10 2012.55 1095.82 1997.25L1095.82 1997.25Q1095.82 1979.40 1081.16 1973.66Q1066.50 1967.92 1014.22 1970.47L1014.22 1970.47Q926.25 1970.47 898.84 1973.03Q871.42 1975.58 866.32 1983.22L866.32 1983.22Q862.50 1993.42 852.30 1993.42L852.30 1993.42Q843.37 1993.42 828.71 1980.04Q814.05 1966.65 814.05 1957.72Q814.05 1948.80 805.76 1933.50Q797.47 1918.20 792.37 1879.95L792.37 1879.95Q777.07 1771.58 763.05 1700.17L763.05 1700.17Q750.30 1637.70 757.31 1630.69Q764.32 1623.67 764.32 1616.03Q764.32 1608.38 797.47 1585.42L797.47 1585.42Q833.17 1561.20 921.15 1533.15L921.15 1533.15Q928.80 1531.88 902.02 1505.74Q875.25 1479.60 865.05 1447.09Q854.85 1414.57 845.29 1398Q835.72 1381.42 819.15 1334.25L819.15 1334.25Q798.75 1275.60 801.30 1257.11Q803.85 1238.63 830.62 1224.60L830.62 1224.60Q859.95 1210.57 916.69 1192.09Q973.42 1173.60 990.00 1173.60L990.00 1173.60Q1006.57 1173.60 1025.06 1167.86Q1043.55 1162.13 1092 1161.49Q1140.45 1160.85 1157.02 1153.20ZM1117.50 1242.45L1117.50 1242.45Q1117.50 1237.35 1109.85 1234.80Q1102.20 1232.25 1075.42 1233.53L1075.42 1233.53Q1033.35 1233.53 1011.67 1238.63Q990.00 1243.72 970.87 1245L970.87 1245Q910.95 1253.92 893.74 1267.95Q876.52 1281.97 891.82 1312.57L891.82 1312.57Q899.47 1327.88 909.67 1352.10Q919.87 1376.32 920.51 1378.24Q921.15 1380.15 940.27 1371.22Q959.40 1362.30 1018.05 1357.20L1018.05 1357.20Q1065.22 1352.10 1077.97 1347Q1090.72 1341.90 1097.10 1326.60L1097.10 1326.60Q1102.20 1311.30 1109.85 1281.34Q1117.50 1251.38 1117.50 1242.45ZM1251.37 1610.92L1228.42 1599.45Q1208.02 1586.70 1161.49 1583.51Q1114.95 1580.32 1087.54 1577.14Q1060.13 1573.95 1056.94 1577.78Q1053.75 1581.60 1063.31 1601.36Q1072.88 1621.13 1072.88 1630.05L1072.88 1630.05Q1072.88 1645.35 1080.52 1650.45Q1088.17 1655.55 1109.85 1655.55L1109.85 1655.55Q1139.17 1655.55 1149.38 1670.85L1149.38 1670.85Q1160.85 1686.15 1160.85 1706.55Q1160.85 1726.95 1148.74 1734.60Q1136.63 1742.25 1116.22 1742.25L1116.22 1742.25Q1097.10 1742.25 1092 1752.45Q1086.90 1762.65 1083.07 1800.90L1083.07 1800.90Q1080.52 1840.42 1071.60 1854.45L1071.60 1854.45Q1065.22 1865.92 1068.41 1869.75Q1071.60 1873.58 1094.55 1873.58L1094.55 1873.58Q1123.88 1873.58 1132.16 1883.14Q1140.45 1892.70 1153.20 1937.33L1153.20 1937.33Q1158.30 1956.45 1188.90 1916.92L1188.90 1916.92Q1223.32 1874.85 1235.44 1829.59Q1247.55 1784.33 1248.82 1693.80L1248.82 1693.80L1251.37 1610.92ZM970.87 1682.33L970.87 1633.88Q970.87 1631.33 970.87 1623.67L970.87 1623.67Q970.87 1590.53 961.95 1587.34Q953.02 1584.15 896.92 1600.72L896.92 1600.72Q885.45 1603.28 880.35 1604.55L880.35 1604.55Q851.02 1613.47 830.62 1632.60L830.62 1632.60L808.95 1650.45L812.77 1697.63Q814.05 1744.80 821.06 1767.11Q828.07 1789.42 837.64 1830.86Q847.20 1872.30 865.05 1892.70L865.05 1892.70L884.17 1913.10L904.57 1905.45Q924.97 1896.53 942.82 1888.88L942.82 1888.88L960.67 1883.78L960.67 1826.40Q960.67 1780.50 955.57 1773.49Q950.47 1766.47 926.25 1779.22L926.25 1779.22Q910.95 1788.15 888.00 1786.88Q865.05 1785.60 853.57 1772.85L853.57 1772.85Q842.10 1760.10 847.20 1745.44Q852.30 1730.78 876.52 1716.75Q900.75 1702.72 940.27 1691.25L940.27 1691.25L970.87 1682.33ZM580.72 997.65L580.72 997.65Q598.57 988.72 603.67 988.72L603.67 988.72Q610.05 988.72 653.40 1012.31Q696.75 1035.90 710.77 1048.65L710.77 1048.65Q726.07 1061.40 728.62 1067.77Q731.17 1074.15 731.17 1097.10L731.17 1097.10Q731.17 1165.95 680.17 1183.80L680.17 1183.80Q667.42 1188.90 661.05 1186.35Q654.67 1183.80 638.10 1173.60L638.10 1173.60Q612.60 1155.75 606.86 1134.07Q601.12 1112.40 596.02 1103.47Q590.92 1094.55 582.64 1075.42Q574.35 1056.30 562.87 1042.27L562.87 1042.27Q551.40 1026.97 555.22 1017.41Q559.05 1007.85 580.72 997.65ZM1090.72 978.52L1090.72 978.52Q1095.82 974.70 1135.35 975.97L1135.35 975.97Q1183.80 978.52 1202.92 995.74Q1222.05 1012.95 1218.22 1051.20L1218.22 1051.20Q1216.95 1081.80 1197.82 1092.64Q1178.70 1103.47 1148.10 1092L1148.10 1092Q1131.52 1085.63 1079.25 1092.64Q1026.97 1099.65 992.55 1111.13L992.55 1111.13L953.02 1125.15L928.80 1112.40Q867.60 1081.80 867.60 1053.75L867.60 1053.75Q867.60 1041 879.71 1033.99Q891.82 1026.97 926.25 1018.05L926.25 1018.05Q1085.63 984.90 1090.72 978.52ZM2106.90 1433.70L2106.90 1433.70Q2175.75 1424.78 2178.30 1421.59Q2180.85 1418.40 2191.05 1421.59Q2201.25 1424.78 2213.36 1424.78Q2225.47 1424.78 2235.68 1447.72L2235.68 1447.72L2245.88 1470.67L2234.40 1510.20Q2224.20 1549.72 2219.10 1565.03L2219.10 1565.03Q2211.45 1591.80 2215.28 1668.30Q2219.10 1744.80 2230.57 1767.75L2230.57 1767.75Q2234.40 1776.67 2234.40 1785.60L2234.40 1785.60Q2234.40 1791.97 2255.44 1822.58Q2276.48 1853.17 2290.50 1867.20L2290.50 1867.20Q2303.25 1879.95 2328.75 1892.70Q2354.25 1905.45 2368.28 1914.38L2368.28 1914.38Q2383.57 1925.85 2413.54 1933.50Q2443.50 1941.15 2458.80 1936.05L2458.80 1936.05Q2500.88 1929.67 2528.93 1897.80L2528.93 1897.80Q2540.40 1885.05 2548.69 1864.01Q2556.98 1842.97 2577.38 1772.85L2577.38 1772.85Q2590.13 1732.05 2597.78 1765.20L2597.78 1765.20Q2602.88 1786.88 2602.88 1826.40L2602.88 1826.40Q2602.88 1864.65 2604.79 1876.13Q2606.70 1887.60 2614.35 1896.53L2614.35 1896.53Q2643.68 1932.22 2650.05 1971.75L2650.05 1971.75Q2652.60 1987.05 2645.59 2002.99Q2638.57 2018.92 2638.57 2027.85L2638.57 2027.85Q2638.57 2046.97 2616.26 2073.11Q2593.95 2099.25 2565.90 2112L2565.90 2112Q2548.05 2120.93 2535.30 2122.84Q2522.55 2124.75 2490.68 2124.75L2490.68 2124.75Q2440.95 2124.75 2410.35 2113.28L2410.35 2113.28Q2375.93 2100.53 2333.21 2076.94Q2290.50 2053.35 2272.65 2038.05L2272.65 2038.05Q2252.25 2020.20 2239.50 2013.83L2239.50 2013.83Q2219.10 1999.80 2192.32 1953.90L2192.32 1953.90Q2159.18 1897.80 2134.95 1837.88L2134.95 1837.88L2120.93 1798.35Q2113.28 1784.33 2110.72 1710.38L2110.72 1710.38Q2105.63 1603.28 2129.85 1519.13L2129.85 1519.13Q2134.95 1500 2128.57 1496.17L2128.57 1496.17Q2122.20 1489.80 2093.51 1492.99Q2064.82 1496.17 2040.60 1503.82L2040.60 1503.82Q2015.10 1511.47 1984.50 1516.57L1984.50 1516.57Q1952.63 1521.67 1901.63 1543.99Q1850.63 1566.30 1831.50 1582.88L1831.50 1582.88Q1821.30 1590.53 1804.72 1600.72L1804.72 1600.72L1770.30 1622.40Q1752.45 1633.88 1735.88 1632.60L1735.88 1632.60Q1719.30 1630.05 1714.84 1624.95Q1710.38 1619.85 1707.83 1600.72L1707.83 1600.72Q1704 1580.32 1716.75 1567.57L1716.75 1567.57Q1726.95 1557.38 1795.16 1521.67Q1863.38 1485.97 1871.03 1485.97L1871.03 1485.97Q1876.13 1485.97 1901.63 1475.77L1901.63 1475.77Q1938.60 1459.20 2106.90 1433.70ZM2048.25 1238.63L2048.25 1238.63Q2069.93 1234.80 2087.78 1226.51Q2105.63 1218.22 2130.49 1218.86Q2155.35 1219.50 2163 1228.42L2163 1228.42Q2173.20 1238.63 2177.03 1267.95L2177.03 1267.95Q2178.30 1288.35 2177.03 1293.45Q2175.75 1298.55 2165.55 1307.47L2165.55 1307.47Q2151.53 1318.95 2134.95 1315.13L2134.95 1315.13Q2122.20 1312.57 2087.14 1319.59Q2052.07 1326.60 2032.95 1334.25L2032.95 1334.25Q1975.58 1362.30 1956.45 1366.76Q1937.33 1371.22 1919.47 1359.75L1919.47 1359.75Q1904.18 1350.82 1901.63 1332.97L1901.63 1332.97Q1897.80 1310.03 1900.35 1303.01Q1902.90 1296 1918.20 1285.80L1918.20 1285.80Q1934.78 1274.32 1980.04 1257.75Q2025.30 1241.17 2048.25 1238.63ZM2147.70 1020.60L2147.70 1020.60Q2165.55 1014.22 2170.65 1021.87L2170.65 1021.87Q2174.47 1026.97 2187.22 1026.97L2187.22 1026.97Q2201.25 1026.97 2215.91 1035.90Q2230.57 1044.82 2233.13 1055.02L2233.13 1055.02Q2235.68 1067.77 2233.13 1095.82L2233.13 1095.82Q2231.85 1121.32 2218.46 1128.97Q2205.07 1136.63 2157.90 1137.90L2157.90 1137.90Q2122.20 1139.17 2108.18 1141.72Q2094.15 1144.27 2069.93 1157.02L2069.93 1157.02Q2032.95 1174.88 2024.03 1174.88L2024.03 1174.88Q2004.90 1174.88 1978.13 1150.65L1978.13 1150.65Q1964.10 1136.63 1963.46 1114.95Q1962.83 1093.27 1976.85 1085.63L1976.85 1085.63Q1994.70 1074.15 2032.31 1060.76Q2069.93 1047.38 2092.88 1043.55L2092.88 1043.55Q2124.75 1037.17 2133.04 1030.16Q2141.32 1023.15 2147.70 1020.60ZM1885.05 944.10L1885.05 944.10Q1899.08 935.17 1937.33 960.67L1937.33 960.67Q1966.65 979.80 1973.66 992.55Q1980.68 1005.30 1974.30 1021.87L1974.30 1021.87Q1967.93 1039.72 1948.80 1061.40Q1929.68 1083.07 1897.80 1130.25L1897.80 1130.25Q1868.47 1169.77 1832.78 1208.02Q1797.08 1246.28 1772.85 1264.13L1772.85 1264.13Q1746.08 1283.25 1673.40 1354.65L1673.40 1354.65Q1642.80 1383.97 1633.24 1383.97Q1623.67 1383.97 1623.67 1382.06Q1623.67 1380.15 1672.76 1313.21Q1721.85 1246.28 1746.08 1209.30L1746.08 1209.30L1795.80 1132.80Q1821.30 1092 1821.30 1090.09Q1821.30 1088.17 1835.96 1063.95Q1850.63 1039.72 1859.55 1007.85L1859.55 1007.85Q1877.40 949.20 1885.05 944.10Z"/>
  </svg>