<svg xmlns="http://www.w3.org/2000/svg" viewBox="0 0 3000 3000" width="3000" height="3000">
    <path fill="#000000" d="M1068 1114L1162 1080Q1184 1072 1193 1059Q1202 1046 1226 1046L1226 1046Q1244 1046 1274 1065Q1304 1084 1304 1096L1304 1096Q1304 1106 1316 1114L1316 1114Q1332 1126 1330 1158Q1328 1190 1308 1206L1308 1206Q1290 1226 1269 1266Q1248 1306 1216 1356L1216 1356Q1186 1400 1191 1409Q1196 1418 1252 1434L1252 1434Q1302 1448 1321 1470Q1340 1492 1346 1534L1346 1534Q1348 1580 1328 1604Q1308 1628 1281 1623Q1254 1618 1222 1598L1222 1598Q1180 1568 1170 1578Q1160 1588 1154 1662L1154 1662Q1150 1750 1154 1850L1154 1850Q1160 1962 1149 2070Q1138 2178 1120 2218L1120 2218Q1088 2290 1044 2274L1044 2274Q1000 2256 986 2154L986 2154Q980 2092 981 2067Q982 2042 996 1950L996 1950Q1014 1836 1014 1788Q1014 1740 1022 1708L1022 1708Q1030 1670 1022 1667Q1014 1664 990 1700L990 1700Q962 1736 938 1760Q914 1784 880 1832L880 1832Q856 1870 782 1934Q708 1998 678 2010L678 2010Q658 2016 653 2008Q648 2000 656 1968L656 1968Q664 1920 730 1848L730 1848Q780 1792 829 1728Q878 1664 878 1658L878 1658Q878 1652 900 1620Q922 1588 930 1571Q938 1554 946 1540L946 1540Q984 1482 1042 1373Q1100 1264 1110 1230L1110 1230Q1116 1216 1112 1215Q1108 1214 1086 1218L1086 1218Q1054 1226 1032 1242Q1010 1258 967 1280Q924 1302 874 1340L874 1340Q832 1372 815 1377Q798 1382 778 1366L778 1366Q750 1348 734 1306L734 1306Q730 1294 734 1294L734 1294Q740 1294 740 1281Q740 1268 772 1252L772 1252L902 1188Q996 1142 1068 1114L1068 1114ZM1962 956L1962 956Q1990 944 1997 945Q2004 946 2028 966L2028 966Q2056 988 2076 988L2076 988Q2116 988 2140 1012Q2164 1036 2166 1078L2166 1078Q2166 1124 2151 1148Q2136 1172 2096 1196L2096 1196Q2050 1218 2022 1256L2022 1256L1992 1292L2010 1322Q2052 1388 2024 1426L2024 1426Q2012 1440 1987 1442Q1962 1444 1866 1434L1866 1434Q1794 1430 1714 1442L1714 1442L1634 1450L1630 1498L1630 1548L1674 1538Q1716 1532 1829 1530Q1942 1528 1994 1536L1994 1536Q2074 1544 2206 1578L2206 1578Q2298 1598 2340 1662L2340 1662Q2348 1678 2348 1689Q2348 1700 2340 1732L2340 1732Q2328 1774 2318 1890L2318 1890Q2302 2074 2294 2092L2294 2092Q2284 2108 2259 2163Q2234 2218 2199 2251Q2164 2284 2160 2297Q2156 2310 2134 2324L2134 2324Q2044 2380 2026 2408L2026 2408Q1988 2456 1964 2398L1964 2398Q1950 2368 1909 2336Q1868 2304 1866 2280L1866 2280Q1866 2252 1843 2243Q1820 2234 1738 2238L1738 2238Q1600 2238 1557 2242Q1514 2246 1506 2258L1506 2258Q1500 2274 1484 2274L1484 2274Q1470 2274 1447 2253Q1424 2232 1424 2218Q1424 2204 1411 2180Q1398 2156 1390 2096L1390 2096Q1366 1926 1344 1814L1344 1814Q1324 1716 1335 1705Q1346 1694 1346 1682Q1346 1670 1398 1634L1398 1634Q1454 1596 1592 1552L1592 1552Q1604 1550 1562 1509Q1520 1468 1504 1417Q1488 1366 1473 1340Q1458 1314 1432 1240L1432 1240Q1400 1148 1404 1119Q1408 1090 1450 1068L1450 1068Q1496 1046 1585 1017Q1674 988 1700 988L1700 988Q1726 988 1755 979Q1784 970 1860 969Q1936 968 1962 956ZM1900 1096L1900 1096Q1900 1088 1888 1084Q1876 1080 1834 1082L1834 1082Q1768 1082 1734 1090Q1700 1098 1670 1100L1670 1100Q1576 1114 1549 1136Q1522 1158 1546 1206L1546 1206Q1558 1230 1574 1268Q1590 1306 1591 1309Q1592 1312 1622 1298Q1652 1284 1744 1276L1744 1276Q1818 1268 1838 1260Q1858 1252 1868 1228L1868 1228Q1876 1204 1888 1157Q1900 1110 1900 1096ZM2110 1674L2074 1656Q2042 1636 1969 1631Q1896 1626 1853 1621Q1810 1616 1805 1622Q1800 1628 1815 1659Q1830 1690 1830 1704L1830 1704Q1830 1728 1842 1736Q1854 1744 1888 1744L1888 1744Q1934 1744 1950 1768L1950 1768Q1968 1792 1968 1824Q1968 1856 1949 1868Q1930 1880 1898 1880L1898 1880Q1868 1880 1860 1896Q1852 1912 1846 1972L1846 1972Q1842 2034 1828 2056L1828 2056Q1818 2074 1823 2080Q1828 2086 1864 2086L1864 2086Q1910 2086 1923 2101Q1936 2116 1956 2186L1956 2186Q1964 2216 2012 2154L2012 2154Q2066 2088 2085 2017Q2104 1946 2106 1804L2106 1804L2110 1674ZM1670 1786L1670 1710Q1670 1706 1670 1694L1670 1694Q1670 1642 1656 1637Q1642 1632 1554 1658L1554 1658Q1536 1662 1528 1664L1528 1664Q1482 1678 1450 1708L1450 1708L1416 1736L1422 1810Q1424 1884 1435 1919Q1446 1954 1461 2019Q1476 2084 1504 2116L1504 2116L1534 2148L1566 2136Q1598 2122 1626 2110L1626 2110L1654 2102L1654 2012Q1654 1940 1646 1929Q1638 1918 1600 1938L1600 1938Q1576 1952 1540 1950Q1504 1948 1486 1928L1486 1928Q1468 1908 1476 1885Q1484 1862 1522 1840Q1560 1818 1622 1800L1622 1800L1670 1786ZM1058 712L1058 712Q1086 698 1094 698L1094 698Q1104 698 1172 735Q1240 772 1262 792L1262 792Q1286 812 1290 822Q1294 832 1294 868L1294 868Q1294 976 1214 1004L1214 1004Q1194 1012 1184 1008Q1174 1004 1148 988L1148 988Q1108 960 1099 926Q1090 892 1082 878Q1074 864 1061 834Q1048 804 1030 782L1030 782Q1012 758 1018 743Q1024 728 1058 712ZM1858 682L1858 682Q1866 676 1928 678L1928 678Q2004 682 2034 709Q2064 736 2058 796L2058 796Q2056 844 2026 861Q1996 878 1948 860L1948 860Q1922 850 1840 861Q1758 872 1704 890L1704 890L1642 912L1604 892Q1508 844 1508 800L1508 800Q1508 780 1527 769Q1546 758 1600 744L1600 744Q1850 692 1858 682Z"/>
  </svg>