<svg xmlns="http://www.w3.org/2000/svg" viewBox="0 0 3000 3000" width="3000" height="3000">
    <path fill="#000000" d="M808 746L808 746L858 728Q900 796 945 874Q990 952 1010 1008L1010 1008L960 1032Q936 974 892 894Q848 814 808 746ZM1800 2374L1800 1686L1858 1686L1858 2374L1800 2374ZM2196 1128L1500 1128L1500 1428L2196 1428L2196 1128ZM1442 1488L1442 1068L2254 1068L2254 1488L1442 1488ZM1334 2514L1334 1660L2352 1660L2352 2504L2294 2504L2294 1718L1392 1718L1392 2514L1334 2514ZM1372 2058L1372 2000L2310 2000L2310 2058L1372 2058ZM1372 2406L1372 2348L2310 2348L2310 2406L1372 2406ZM1328 880L1328 822L2370 822L2370 880L1328 880ZM622 1150L622 1092L1232 1092L1232 1150L622 1150ZM962 1568L998 1532Q1018 1548 1059 1586Q1100 1624 1148 1669Q1196 1714 1235 1752Q1274 1790 1292 1808L1292 1808L1256 1860Q1236 1836 1196 1796Q1156 1756 1111 1710Q1066 1664 1025 1626Q984 1588 962 1568L962 1568ZM1214 1110L1214 1092L1228 1092L1242 1088L1276 1112Q1208 1282 1096 1439Q984 1596 853 1728Q722 1860 594 1952L594 1952Q590 1944 582 1936Q574 1928 567 1921Q560 1914 552 1910L552 1910Q678 1822 806 1695Q934 1568 1043 1417Q1152 1266 1214 1110L1214 1110ZM930 2506L930 1610L988 1534L988 2506L930 2506Z"/>
  </svg>