<svg xmlns="http://www.w3.org/2000/svg" viewBox="0 0 3000 3000" width="3000" height="3000">
    <path fill="#000000" d="M1564 2007L1802 1997L1800 2193L1574 2199L1564 2007ZM1934 1993L2196 1983L2180 2183L1932 2189L1934 1993ZM1550 1719L1804 1707L1802 1875L1560 1887L1550 1719ZM1936 1701L2220 1687L2206 1861L1934 1871L1936 1701ZM1582 2363L1580 2329L2306 2311Q2332 2309 2352 2305Q2372 2301 2372 2279L2372 2279Q2372 2255 2312 2189L2312 2189L2368 1681Q2370 1673 2373 1663Q2376 1653 2376 1641L2376 1641Q2376 1601 2343 1579Q2310 1557 2290 1557L2290 1557L2274 1557L1536 1593Q1490 1577 1460 1570Q1430 1563 1412 1563L1412 1563Q1380 1563 1380 1587L1380 1587Q1380 1595 1390 1615L1390 1615Q1402 1639 1408 1663Q1414 1687 1416 1723L1416 1723L1442 2217L1442 2237Q1442 2259 1441 2279Q1440 2299 1438 2321L1438 2321L1438 2333Q1438 2373 1464 2393Q1490 2413 1516 2419L1516 2419L1540 2425Q1582 2425 1582 2371L1582 2371L1582 2363ZM652 2233L652 2233Q674 2233 709 2172Q744 2111 782 2005Q820 1899 847 1758Q874 1617 880 1451L880 1451Q880 1421 869 1406Q858 1391 814 1377L814 1377Q776 1365 752 1365L752 1365Q716 1365 716 1391L716 1391Q716 1395 720 1409L720 1409Q730 1429 732 1447Q734 1465 734 1485L734 1485Q732 1639 706 1816Q680 1993 634 2153L634 2153Q632 2167 629 2177Q626 2187 626 2197L626 2197Q626 2233 652 2233ZM1174 1467L1174 1467L1172 1917Q1172 1965 1160 2019L1160 2019Q1158 2027 1157 2037Q1156 2047 1156 2053L1156 2053Q1156 2087 1182 2104Q1208 2121 1232 2127L1232 2127L1254 2131Q1304 2131 1304 2083L1304 2083L1310 1423Q1310 1393 1284 1375Q1258 1357 1229 1350Q1200 1343 1182 1343L1182 1343Q1146 1343 1146 1369L1146 1369Q1146 1381 1154 1393L1154 1393Q1164 1411 1169 1431Q1174 1451 1174 1467ZM1666 1165L2072 1139L2052 1319L1682 1341L1666 1165ZM780 1253L950 1241L936 2211Q936 2239 935 2267Q934 2295 928 2319L928 2319Q926 2327 925 2335Q924 2343 924 2349L924 2349Q924 2379 949 2397Q974 2415 1002 2424Q1030 2433 1042 2433L1042 2433Q1084 2433 1084 2377L1084 2377L1090 1233L1362 1215Q1386 1213 1404 1205Q1422 1197 1422 1177Q1422 1157 1401 1133Q1380 1109 1353 1091Q1326 1073 1306 1073L1306 1073Q1292 1073 1284 1075L1284 1075Q1264 1083 1242 1086Q1220 1089 1200 1091L1200 1091L740 1123L722 1123Q700 1123 680 1120Q660 1117 642 1113L642 1113Q634 1111 622 1111L622 1111Q596 1111 596 1135L596 1135Q596 1139 600 1153L600 1153Q636 1229 665 1243Q694 1257 716 1257L716 1257Q728 1257 744 1256Q760 1255 780 1253L780 1253ZM1692 1473L1692 1465L2158 1441Q2184 1439 2206 1435Q2228 1431 2228 1407L2228 1407Q2228 1381 2186 1331L2186 1331L2222 1125Q2224 1115 2228 1104Q2232 1093 2232 1080Q2232 1067 2209 1037Q2186 1007 2150 1007L2150 1007Q2146 1007 2140 1008Q2134 1009 2128 1009L2128 1009L1648 1039Q1598 1023 1566 1017Q1534 1011 1516 1011L1516 1011Q1482 1011 1482 1035L1482 1035Q1482 1049 1496 1067L1496 1067Q1508 1087 1516 1107Q1524 1127 1526 1153L1526 1153L1550 1375Q1550 1383 1551 1389Q1552 1395 1552 1403Q1552 1411 1551 1420Q1550 1429 1548 1443L1548 1443L1548 1451Q1548 1477 1569 1494Q1590 1511 1614 1520Q1638 1529 1650 1529L1650 1529Q1692 1529 1692 1473L1692 1473ZM882 959L882 959L1266 931Q1288 929 1305 920Q1322 911 1322 891Q1322 871 1301 848Q1280 825 1253 809Q1226 793 1202 793L1202 793Q1190 793 1182 797L1182 797Q1166 803 1147 806Q1128 809 1108 811L1108 811L842 831L826 831Q808 831 786 828Q764 825 744 823L744 823Q738 821 730 821L730 821Q706 821 706 845L706 845Q706 857 723 888Q740 919 774 949L774 949Q790 961 828 961L828 961Q838 961 852 961Q866 961 882 959ZM1552 935L1552 935L2282 885Q2342 881 2342 841L2342 841Q2342 829 2325 806Q2308 783 2284 762Q2260 741 2236 741L2236 741Q2230 741 2224 742Q2218 743 2212 745L2212 745Q2186 755 2152 757L2152 757L1522 799Q1514 799 1507 800Q1500 801 1492 801L1492 801Q1460 801 1438 793L1438 793Q1428 791 1421 790Q1414 789 1410 789L1410 789Q1382 789 1382 813L1382 813Q1382 819 1396 850Q1410 881 1442 909Q1474 937 1524 937L1524 937Q1530 937 1537 936Q1544 935 1552 935Z"/>
  </svg>