<svg xmlns="http://www.w3.org/2000/svg" viewBox="0 0 3000 3000" width="3000" height="3000">
    <path fill="#000000" d="M831.90 1144.28L831.90 1107.30L1343.17 1107.30L1343.17 1144.28L831.90 1144.28ZM768.15 1591.80L768.15 1554.83L1437.52 1554.83L1437.52 1591.80L768.15 1591.80ZM1089.45 2083.95L1089.45 1381.43L1127.70 1381.43L1127.70 2082.68Q1127.70 2108.18 1118.14 2120.93Q1108.57 2133.68 1086.90 2138.78L1086.90 2138.78Q1066.50 2143.88 1025.70 2145.15Q984.90 2146.43 909.67 2145.15L909.67 2145.15Q907.12 2138.78 901.39 2128.58Q895.65 2118.38 891.82 2109.45L891.82 2109.45Q935.17 2109.45 970.24 2110.09Q1005.30 2110.72 1029.52 2110.09Q1053.75 2109.45 1063.95 2109.45L1063.95 2109.45Q1077.97 2108.18 1083.71 2102.44Q1089.45 2096.70 1089.45 2083.95L1089.45 2083.95ZM1331.70 1117.50L1331.70 1107.30L1340.63 1107.30L1349.55 1103.47L1380.15 1123.88Q1347 1174.88 1302.37 1226.51Q1257.75 1278.15 1209.94 1324.69Q1162.13 1371.22 1118.77 1406.93L1118.77 1406.93Q1113.67 1400.55 1105.39 1393.54Q1097.10 1386.53 1089.45 1381.43L1089.45 1381.43Q1132.80 1348.28 1178.06 1303.01Q1223.32 1257.75 1264.12 1209.30Q1304.92 1160.85 1331.70 1117.50L1331.70 1117.50ZM329.55 1698.90L329.55 1698.90L352.50 1672.13Q411.15 1709.10 471.07 1752.45Q531.00 1795.80 587.74 1841.70Q644.47 1887.60 691.01 1930.95Q737.55 1974.30 769.42 2011.28L769.42 2011.28L745.20 2043.15Q713.32 2006.18 666.15 1961.55Q618.97 1916.93 562.87 1870.39Q506.77 1823.85 446.85 1779.86Q386.92 1735.88 329.55 1698.90ZM365.25 1704L329.55 1698.90Q351.22 1635.15 374.17 1548.45Q397.12 1461.75 418.80 1366.13Q440.47 1270.50 458.32 1175.51Q476.17 1080.53 486.37 1000.20L486.37 1000.20L523.35 1002.75Q511.87 1085.63 493.39 1181.25Q474.90 1276.88 453.22 1373.14Q431.55 1469.40 408.60 1554.83Q385.65 1640.25 365.25 1704L365.25 1704ZM692.92 1280.70L692.92 1181.25L729.90 1181.25L729.90 1280.70Q729.90 1355.93 724.16 1441.35Q718.42 1526.78 697.39 1617.30Q676.35 1707.83 632.36 1798.99Q588.37 1890.15 513.15 1978.13Q437.92 2066.10 323.17 2147.70L323.17 2147.70Q320.62 2142.60 314.89 2138.14Q309.15 2133.68 304.05 2129.85Q298.95 2126.03 293.85 2123.47L293.85 2123.47Q407.32 2043.15 481.27 1956.45Q555.22 1869.75 597.94 1781.14Q640.65 1692.53 661.05 1604.55Q681.45 1516.58 687.19 1434.97Q692.92 1353.38 692.92 1280.70L692.92 1280.70ZM292.57 1348.28L286.20 1308.75Q351.22 1306.20 434.74 1302.38Q518.25 1298.55 614.51 1292.81Q710.77 1287.08 808.95 1281.97L808.95 1281.97L808.95 1318.95Q667.42 1326.60 531.00 1334.25Q394.57 1341.90 292.57 1348.28L292.57 1348.28ZM2261.18 2008.73L2261.18 1153.20L2298.15 1153.20L2298.15 2008.73L2261.18 2008.73ZM2559.53 1576.50L2003.63 1576.50L2003.63 1698.90L2559.53 1698.90L2559.53 1576.50ZM2559.53 1420.95L2003.63 1420.95L2003.63 1539.53L2559.53 1539.53L2559.53 1420.95ZM1966.65 1735.88L1966.65 1383.97L2597.78 1383.97L2597.78 1735.88L1966.65 1735.88ZM1892.70 1257.75L1892.70 1047.38L2669.18 1047.38L2669.18 1257.75L2630.93 1257.75L2630.93 1084.35L1929.68 1084.35L1929.68 1257.75L1892.70 1257.75ZM1984.50 1275.60L1984.50 1238.63L2582.48 1238.63L2582.48 1275.60L1984.50 1275.60ZM1891.43 1882.50L1891.43 1844.25L2684.48 1844.25L2684.48 1882.50L1891.43 1882.50ZM1627.50 1012.95L1627.50 1012.95L1658.10 997.65Q1698.90 1046.10 1740.97 1102.84Q1783.05 1159.58 1804.72 1200.38L1804.72 1200.38L1772.85 1218.22Q1757.55 1191.45 1733.33 1155.75Q1709.10 1120.05 1681.05 1082.44Q1653 1044.82 1627.50 1012.95ZM1563.75 1326.60L1563.75 1288.35L1835.33 1288.35L1835.33 1326.60L1563.75 1326.60ZM1734.60 1920.75L1760.10 1902.90Q1804.72 1984.50 1880.59 2024.66Q1956.45 2064.83 2064.19 2077.58Q2171.93 2090.33 2310.90 2090.33L2310.90 2090.33Q2377.20 2090.33 2450.51 2089.05Q2523.83 2087.78 2594.59 2085.22Q2665.35 2082.68 2724 2077.58L2724 2077.58Q2720.18 2082.68 2717.63 2089.69Q2715.07 2096.70 2713.16 2104.35Q2711.25 2112 2709.98 2117.10L2709.98 2117.10Q2656.43 2119.65 2588.85 2122.20Q2521.28 2124.75 2449.88 2125.39Q2378.48 2126.03 2312.18 2126.03L2312.18 2126.03Q2198.70 2126.03 2108.18 2118.38Q2017.65 2110.72 1946.89 2089.05Q1876.13 2067.38 1823.85 2027.21Q1771.58 1987.05 1734.60 1920.75L1734.60 1920.75ZM1811.10 1624.95L1811.10 1614.75L1820.03 1614.75L1828.95 1613.47L1851.90 1622.40Q1820.03 1814.93 1747.99 1944.34Q1675.95 2073.75 1579.05 2145.15L1579.05 2145.15Q1576.50 2140.05 1570.76 2134.95Q1565.03 2129.85 1559.92 2124.11Q1554.83 2118.38 1549.72 2115.83L1549.72 2115.83Q1644.08 2048.25 1713.56 1925.21Q1783.05 1802.18 1811.10 1624.95L1811.10 1624.95ZM1577.78 1668.30L1577.78 1668.30L1577.78 1631.33L1614.75 1614.75L1830.22 1614.75L1830.22 1651.72L1650.45 1651.72Q1624.95 1651.72 1604.55 1656.83Q1584.15 1661.93 1577.78 1668.30ZM1577.78 1668.30L1577.78 1668.30Q1576.50 1661.93 1572.04 1653Q1567.58 1644.08 1563.75 1634.51Q1559.92 1624.95 1556.10 1619.85L1556.10 1619.85Q1568.85 1616.03 1583.51 1608.38Q1598.17 1600.72 1612.20 1584.15L1612.20 1584.15Q1627.50 1568.85 1654.91 1531.24Q1682.33 1493.63 1713.56 1447.72Q1744.80 1401.83 1772.21 1359.75Q1799.63 1317.68 1814.92 1293.45L1814.92 1293.45L1814.92 1290.90L1832.78 1281.97L1865.92 1298.55Q1844.25 1330.43 1813.01 1375.05Q1781.78 1419.68 1747.35 1467.49Q1712.92 1515.30 1679.78 1558.65Q1646.63 1602 1619.85 1632.60L1619.85 1632.60Q1619.85 1632.60 1613.47 1635.79Q1607.10 1638.97 1598.81 1644.71Q1590.53 1650.45 1584.15 1656.19Q1577.78 1661.93 1577.78 1668.30Z"/>
  </svg>