<svg xmlns="http://www.w3.org/2000/svg" viewBox="0 0 3000 3000" width="3000" height="3000">
    <path fill="#000000" d="M1694 2298L1694 956L1752 956L1752 2298L1694 2298ZM2162 1620L1290 1620L1290 1812L2162 1812L2162 1620ZM2162 1376L1290 1376L1290 1562L2162 1562L2162 1376ZM1232 1870L1232 1318L2222 1318L2222 1870L1232 1870ZM1116 1120L1116 790L2334 790L2334 1120L2274 1120L2274 848L1174 848L1174 1120L1116 1120ZM1260 1148L1260 1090L2198 1090L2198 1148L1260 1148ZM1114 2100L1114 2040L2358 2040L2358 2100L1114 2100ZM700 736L700 736L748 712Q812 788 878 877Q944 966 978 1030L978 1030L928 1058Q904 1016 866 960Q828 904 784 845Q740 786 700 736ZM600 1228L600 1168L1026 1168L1026 1228L600 1228ZM868 2160L908 2132Q978 2260 1097 2323Q1216 2386 1385 2406Q1554 2426 1772 2426L1772 2426Q1876 2426 1991 2424Q2106 2422 2217 2418Q2328 2414 2420 2406L2420 2406Q2414 2414 2410 2425Q2406 2436 2403 2448Q2400 2460 2398 2468L2398 2468Q2314 2472 2208 2476Q2102 2480 1990 2481Q1878 2482 1774 2482L1774 2482Q1596 2482 1454 2470Q1312 2458 1201 2424Q1090 2390 1008 2327Q926 2264 868 2160L868 2160ZM988 1696L988 1680L1002 1680L1016 1678L1052 1692Q1002 1994 889 2197Q776 2400 624 2512L624 2512Q620 2504 611 2496Q602 2488 594 2479Q586 2470 578 2466L578 2466Q726 2360 835 2167Q944 1974 988 1696L988 1696ZM622 1764L622 1764L622 1706L680 1680L1018 1680L1018 1738L736 1738Q696 1738 664 1746Q632 1754 622 1764ZM622 1764L622 1764Q620 1754 613 1740Q606 1726 600 1711Q594 1696 588 1688L588 1688Q608 1682 631 1670Q654 1658 676 1632L676 1632Q700 1608 743 1549Q786 1490 835 1418Q884 1346 927 1280Q970 1214 994 1176L994 1176L994 1172L1022 1158L1074 1184Q1040 1234 991 1304Q942 1374 888 1449Q834 1524 782 1592Q730 1660 688 1708L688 1708Q688 1708 678 1713Q668 1718 655 1727Q642 1736 632 1745Q622 1754 622 1764Z"/>
  </svg>