<svg xmlns="http://www.w3.org/2000/svg" viewBox="0 0 3000 3000" width="3000" height="3000">
    <path fill="#000000" d="M321.90 1331.70L321.90 1331.70L356.32 1330.43Q384.37 1327.88 413.06 1325.96Q441.75 1324.05 471.07 1321.50L471.07 1321.50Q508.05 1160.85 513.15 1038.45L513.15 1038.45L513.15 1024.42Q513.15 1001.48 508.69 990.64Q504.22 979.80 504.22 975.98L504.22 975.98Q504.22 964.50 516.97 964.50Q529.72 964.50 548.85 969.60L548.85 969.60Q602.40 986.17 602.40 1012.95L602.40 1012.95L602.40 1021.88Q587.10 1149.38 547.57 1315.13L547.57 1315.13Q583.27 1312.58 672.52 1301.10L672.52 1301.10L675.07 1266.68L675.07 1259.03Q675.07 1234.80 668.70 1219.50Q662.32 1204.20 662.32 1200.38L662.32 1200.38Q662.32 1190.18 673.80 1190.18Q685.27 1190.18 704.40 1194L704.40 1194Q756.67 1204.20 756.67 1239.90L756.67 1239.90L756.67 1250.10L752.85 1289.63L805.12 1281.97Q808.95 1280.70 812.77 1280.70L812.77 1280.70L819.15 1280.70Q844.65 1280.70 844.65 1293.45L844.65 1293.45Q844.65 1312.58 746.47 1335.53L746.47 1335.53Q713.32 1563.75 634.27 1714.20L634.27 1714.20Q775.80 1855.73 775.80 1877.40L775.80 1877.40Q775.80 1887.60 759.86 1906.09Q743.92 1924.58 731.17 1924.58Q718.42 1924.58 710.77 1913.10L710.77 1913.10Q662.32 1846.80 596.02 1774.13L596.02 1774.13Q538.65 1854.45 476.81 1906.73Q414.97 1959 368.44 1983.86Q321.90 2008.73 310.42 2008.73Q298.95 2008.73 298.95 2001.08L298.95 2001.08Q298.95 1988.33 321.90 1971.75L321.90 1971.75Q472.35 1858.28 550.12 1724.40L550.12 1724.40Q525.90 1697.63 502.31 1675.95Q478.72 1654.28 462.15 1638.98Q445.57 1623.68 431.55 1619.85L431.55 1619.85Q416.25 1613.48 411.15 1584.15L411.15 1584.15Q409.87 1580.33 409.87 1573.95Q409.87 1567.58 424.54 1519.76Q439.20 1471.95 455.77 1392.90L455.77 1392.90L342.30 1409.47Q319.35 1409.47 303.41 1393.54Q287.47 1377.60 279.82 1359.75Q272.17 1341.90 272.17 1335.53Q272.17 1329.15 282.37 1329.15L282.37 1329.15L288.75 1329.15Q306.60 1331.70 321.90 1331.70ZM839.55 1009.13L839.55 1009.13L900.75 1015.50L916.05 1015.50L1266.67 992.55L1275.60 992.55Q1298.55 992.55 1316.40 1008.49Q1334.25 1024.42 1334.25 1036.54Q1334.25 1048.65 1325.96 1055.66Q1317.67 1062.67 1313.85 1067.78L1313.85 1067.78Q1227.15 1197.83 1117.50 1312.58L1117.50 1312.58Q1132.80 1358.47 1144.27 1418.40L1144.27 1418.40L1349.55 1406.93Q1386.52 1404.38 1405.01 1399.28Q1423.50 1394.18 1431.15 1394.18Q1438.80 1394.18 1454.74 1404.38Q1470.67 1414.58 1482.79 1428.60Q1494.90 1442.63 1494.90 1451.55L1494.90 1451.55Q1494.90 1469.40 1464.30 1471.95L1464.30 1471.95L1157.02 1488.53Q1177.42 1619.85 1177.42 1737.79Q1177.42 1855.73 1173.60 1916.93L1173.60 1916.93Q1163.40 2046.98 1109.85 2046.98L1109.85 2046.98Q1065.22 2046.98 941.55 1957.73L941.55 1957.73Q870.15 1904.18 870.15 1881.23L870.15 1881.23Q870.15 1872.30 882.90 1872.30Q895.65 1872.30 946.65 1897.16Q997.65 1922.03 1035.90 1932.86Q1074.15 1943.70 1079.25 1943.70L1079.25 1943.70Q1095.82 1943.70 1095.82 1769.66Q1095.82 1595.63 1079.25 1493.63L1079.25 1493.63L859.95 1505.10L824.25 1506.38Q798.75 1506.38 786.00 1494.90L786.00 1494.90Q752.85 1465.58 752.85 1436.25L752.85 1436.25Q752.85 1427.33 759.22 1427.33Q765.60 1427.33 782.17 1431.15Q798.75 1434.97 824.25 1434.97L824.25 1434.97L834.45 1434.97L1066.50 1422.22Q1046.10 1321.50 1012.95 1267.95L1012.95 1267.95Q1005.30 1256.47 1005.30 1247.55L1005.30 1247.55Q1005.30 1233.53 1032.07 1220.78L1032.07 1220.78Q1046.10 1213.13 1055.02 1213.13L1055.02 1213.13Q1069.05 1213.13 1085.63 1241.18L1085.63 1241.18Q1157.02 1167.22 1223.32 1065.22L1223.32 1065.22L941.55 1084.35Q921.15 1086.90 903.30 1086.90L903.30 1086.90L896.92 1086.90Q868.87 1084.35 851.02 1058.85Q833.17 1033.35 833.17 1021.24Q833.17 1009.13 839.55 1009.13ZM666.15 1354.65L532.27 1380.15Q509.32 1474.50 481.27 1568.85L481.27 1568.85Q531.00 1612.20 583.27 1663.20L583.27 1663.20Q645.75 1520.40 666.15 1354.65L666.15 1354.65ZM2553.15 1067.78L2106.90 1098.38L2075.03 1099.65Q2041.88 1099.65 2026.58 1081.80Q2011.28 1063.95 2006.18 1046.10L2006.18 1046.10L2002.35 1028.25Q2002.35 1020.60 2008.73 1020.60Q2015.10 1020.60 2029.13 1023.79Q2043.15 1026.97 2071.20 1026.97L2071.20 1026.97L2086.50 1026.97L2456.25 1000.20Q2475.38 998.92 2514.90 990L2514.90 990Q2518.73 990 2535.30 997.65L2535.30 997.65Q2581.20 1019.33 2581.20 1046.10L2581.20 1046.10Q2581.20 1065.22 2553.15 1067.78L2553.15 1067.78ZM1572.67 1316.40L1572.67 1316.40Q1598.17 1321.50 1609.65 1321.50L1609.65 1321.50L1627.50 1321.50Q1632.60 1321.50 1637.70 1320.22L1637.70 1320.22L1814.92 1301.10Q1822.58 1299.83 1828.95 1299.83L1828.95 1299.83L1840.42 1299.83Q1854.45 1299.83 1872.94 1312.58Q1891.43 1325.33 1891.43 1339.35Q1891.43 1353.38 1883.78 1361.03L1883.78 1361.03L1869.75 1375.05Q1751.17 1526.78 1751.17 1535.06Q1751.17 1543.35 1757.55 1547.18L1757.55 1547.18Q1854.45 1603.28 1877.40 1642.80L1877.40 1642.80Q1886.33 1660.65 1886.33 1675.95Q1886.33 1691.25 1877.40 1709.10L1877.40 1709.10Q1859.55 1742.25 1765.20 1823.85L1765.20 1823.85Q1822.58 1826.40 2046.97 1869.75L2046.97 1869.75Q2435.85 1944.98 2687.03 1944.98L2687.03 1944.98L2693.40 1944.98Q2722.73 1944.98 2722.73 1956.45L2722.73 1956.45Q2722.73 1957.73 2716.35 1975.58L2716.35 1975.58Q2695.95 2026.58 2658.98 2026.58L2658.98 2026.58L2650.05 2026.58Q2490.68 2022.75 2309.63 1992.15L2309.63 1992.15Q1989.60 1937.33 1890.15 1915.65Q1790.70 1893.98 1731.41 1893.98Q1672.13 1893.98 1607.10 1916.93L1607.10 1916.93Q1595.63 1920.75 1587.97 1920.75Q1580.33 1920.75 1567.58 1913.10Q1554.83 1905.45 1554.83 1865.93L1554.83 1865.93Q1554.83 1845.53 1592.44 1838.51Q1630.05 1831.50 1661.92 1827.68L1661.92 1827.68Q1724.40 1774.13 1799.63 1683.60L1799.63 1683.60Q1802.17 1678.50 1802.17 1677.23L1802.17 1677.23Q1802.17 1669.58 1772.85 1645.35Q1743.53 1621.13 1709.10 1599.45Q1674.67 1577.78 1674.67 1552.91Q1674.67 1528.05 1704.64 1482.15Q1734.60 1436.25 1779.22 1376.33L1779.22 1376.33L1661.92 1390.35Q1651.72 1391.63 1642.80 1392.90Q1633.88 1394.18 1623.04 1394.18Q1612.20 1394.18 1603.28 1387.80L1603.28 1387.80Q1563.75 1348.28 1563.75 1324.05L1563.75 1324.05Q1563.75 1316.40 1572.67 1316.40ZM1900.35 1160.85L1900.35 1160.85Q1879.95 1191.45 1863.38 1191.45Q1846.80 1191.45 1828.95 1168.50L1828.95 1168.50Q1761.38 1080.53 1681.05 1007.85L1681.05 1007.85Q1664.47 993.83 1664.47 983.63Q1664.47 973.42 1679.78 959.40Q1695.08 945.38 1705.28 945.38Q1715.47 945.38 1737.79 962.59Q1760.10 979.80 1789.42 1005.30Q1818.75 1030.80 1846.16 1058.85Q1873.58 1086.90 1891.43 1109.85Q1909.28 1132.80 1909.28 1141.09Q1909.28 1149.38 1900.35 1160.85ZM2187.22 1364.85L2027.85 1372.50L1995.98 1373.78Q1962.83 1373.78 1947.53 1355.93Q1932.22 1338.08 1927.13 1320.22L1927.13 1320.22L1923.30 1302.38Q1923.30 1294.72 1929.68 1294.72Q1936.05 1294.72 1950.08 1297.91Q1964.10 1301.10 1992.15 1301.10L1992.15 1301.10L2007.45 1301.10L2542.95 1274.33Q2562.07 1271.78 2601.60 1264.13L2601.60 1264.13Q2605.43 1264.13 2622 1271.78L2622 1271.78Q2667.90 1294.72 2667.90 1320.22L2667.90 1320.22Q2667.90 1339.35 2639.85 1341.90L2639.85 1341.90L2285.40 1359.75Q2206.35 1549.73 2137.50 1687.43L2137.50 1687.43Q2351.70 1663.20 2458.80 1647.90L2458.80 1647.90Q2418 1566.30 2387.40 1515.30L2387.40 1515.30Q2379.75 1500 2380.39 1491.71Q2381.03 1483.43 2400.15 1469.40L2400.15 1469.40Q2437.13 1440.08 2457.53 1477.05L2457.53 1477.05Q2571 1664.48 2619.45 1774.13L2619.45 1774.13Q2632.20 1804.73 2631.56 1817.48Q2630.93 1830.23 2616.90 1841.70L2616.90 1841.70Q2560.80 1883.78 2542.95 1836.60L2542.95 1836.60Q2520 1775.40 2490.68 1714.20L2490.68 1714.20Q2057.18 1784.33 2025.94 1786.24Q1994.70 1788.15 1980.04 1786.88Q1965.38 1785.60 1949.44 1767.11Q1933.50 1748.63 1924.58 1715.48L1924.58 1715.48Q1922.03 1711.65 1922.66 1702.73Q1923.30 1693.80 1942.43 1696.99Q1961.55 1700.18 1987.05 1700.18L1987.05 1700.18L2008.73 1700.18L2041.88 1697.63Q2118.38 1538.25 2187.22 1364.85L2187.22 1364.85Z"/>
  </svg>