<svg xmlns="http://www.w3.org/2000/svg" viewBox="0 0 3000 3000" width="3000" height="3000">
    <path fill="#000000" d="M538.65 1434.34L538.65 1434.34L657.22 1411.39Q645.75 1503.19 623.44 1576.50Q601.12 1649.81 580.72 1698.26L580.72 1698.26Q536.10 1654.91 490.20 1614.11L490.20 1614.11Q502.95 1572.04 515.70 1524.22Q528.45 1476.41 538.65 1434.34ZM1165.95 1543.99L1165.95 1543.99L1464.30 1527.41Q1479.60 1526.14 1491.07 1520.40Q1502.55 1514.66 1502.55 1500.64L1502.55 1500.64Q1502.55 1487.89 1489.16 1471.95Q1475.77 1456.01 1458.56 1445.18Q1441.35 1434.34 1428.60 1434.34L1428.60 1434.34Q1423.50 1434.34 1419.67 1434.97Q1415.85 1435.61 1412.02 1436.89L1412.02 1436.89Q1399.27 1440.71 1382.70 1443.26Q1366.13 1445.81 1349.55 1447.09L1349.55 1447.09L1150.65 1458.56Q1146.82 1438.16 1139.81 1409.47Q1132.80 1380.79 1126.42 1362.94L1126.42 1362.94Q1179.97 1306.84 1227.15 1248.19Q1274.32 1189.54 1320.22 1119.41L1320.22 1119.41Q1322.77 1115.59 1332.34 1107.94Q1341.90 1100.29 1341.90 1086.26L1341.90 1086.26Q1341.90 1068.41 1321.50 1050.56Q1301.10 1032.71 1275.60 1032.71L1275.60 1032.71L1266.67 1032.71L916.05 1055.66L900.75 1055.66Q888.00 1055.66 876.52 1054.39Q865.05 1053.11 851.02 1050.56L851.02 1050.56Q847.20 1049.29 840.82 1049.29L840.82 1049.29Q825.52 1049.29 825.52 1064.59L825.52 1064.59Q825.52 1083.71 845.29 1111.76Q865.05 1139.81 896.92 1142.36L896.92 1142.36L903.30 1142.36Q912.22 1142.36 922.42 1141.72Q932.62 1141.09 942.82 1139.81L942.82 1139.81L1208.02 1121.96Q1188.90 1152.56 1155.11 1196.55Q1121.32 1240.54 1086.90 1276.24L1086.90 1276.24Q1081.80 1266.04 1074.15 1259.66Q1066.50 1253.29 1055.02 1253.29Q1043.55 1253.29 1028.25 1262.21L1028.25 1262.21Q997.65 1276.24 997.65 1295.36L997.65 1295.36Q997.65 1306.84 1006.57 1319.59L1006.57 1319.59Q1024.42 1348.91 1037.17 1389.08Q1049.92 1429.24 1057.57 1462.39L1057.57 1462.39L834.45 1475.14L824.25 1475.14Q811.50 1475.14 797.47 1473.22Q783.45 1471.31 770.70 1468.76L770.70 1468.76Q766.87 1467.49 760.50 1467.49L760.50 1467.49Q745.20 1467.49 745.20 1484.06L745.20 1484.06Q745.20 1501.91 756.67 1519.76Q768.15 1537.61 786.00 1551.64L786.00 1551.64Q792.37 1559.29 803.21 1560.56Q814.05 1561.84 824.25 1561.84L824.25 1561.84Q833.17 1561.84 842.10 1561.20Q851.02 1560.56 859.95 1560.56L859.95 1560.56L1072.88 1549.09Q1081.80 1605.19 1084.99 1670.21Q1088.17 1735.24 1088.17 1797.71L1088.17 1797.71Q1088.17 1869.11 1086.26 1908.64Q1084.35 1948.16 1081.80 1964.74Q1079.25 1981.31 1078.61 1982.59Q1077.97 1983.86 1079.25 1983.86L1079.25 1983.86Q1075.42 1983.86 1074.15 1982.59L1074.15 1982.59Q1000.20 1962.19 924.97 1926.49L924.97 1926.49Q896.92 1912.46 881.62 1912.46L881.62 1912.46Q862.50 1912.46 862.50 1929.04L862.50 1929.04Q862.50 1944.34 884.17 1966.65Q905.85 1988.96 937.72 2011.91Q969.60 2034.86 1002.75 2055.26Q1035.90 2075.66 1065.22 2089.05Q1094.55 2102.44 1108.57 2102.44L1108.57 2102.44Q1144.27 2102.44 1160.21 2064.83Q1176.15 2027.21 1180.61 1965.38Q1185.07 1903.54 1185.07 1825.76L1185.07 1825.76Q1185.07 1762.01 1180.61 1685.51Q1176.15 1609.01 1165.95 1543.99ZM803.85 1322.14L803.85 1322.14L761.77 1328.51L764.32 1297.91L764.32 1287.71Q764.32 1263.49 745.20 1250.74Q726.07 1237.99 706.31 1234.16Q686.55 1230.34 677.62 1230.34L677.62 1230.34Q654.67 1230.34 654.67 1248.19L654.67 1248.19Q654.67 1253.29 657.22 1262.21L657.22 1262.21Q662.32 1273.69 664.87 1283.89Q667.42 1294.09 667.42 1306.84L667.42 1306.84L667.42 1314.49L664.87 1342.54Q640.65 1345.09 609.41 1348.91Q578.17 1352.74 557.77 1354.01L557.77 1354.01Q574.35 1283.89 588.37 1209.30Q602.40 1134.71 610.05 1069.69L610.05 1069.69L610.05 1060.76Q610.05 1040.36 590.92 1028.25Q571.80 1016.14 551.40 1010.40Q531.00 1004.66 519.52 1004.66L519.52 1004.66Q496.57 1004.66 496.57 1023.79L496.57 1023.79Q496.57 1028.89 499.12 1037.81L499.12 1037.81Q505.50 1050.56 505.50 1072.24L505.50 1072.24L505.50 1086.26Q502.95 1139.81 492.11 1214.40Q481.27 1288.99 464.70 1361.66L464.70 1361.66Q441.75 1364.21 413.06 1366.13Q384.37 1368.04 356.32 1370.59L356.32 1370.59Q347.40 1370.59 338.47 1371.22Q329.55 1371.86 321.90 1371.86L321.90 1371.86Q312.97 1371.86 305.96 1371.22Q298.95 1370.59 288.75 1369.31L288.75 1369.31L282.37 1369.31Q264.52 1369.31 264.52 1384.61L264.52 1384.61Q264.52 1390.99 272.81 1410.11Q281.10 1429.24 298.95 1447.09Q316.80 1464.94 342.30 1464.94L342.30 1464.94Q344.85 1464.94 351.86 1464.30Q358.87 1463.66 381.82 1459.84Q404.77 1456.01 445.57 1449.64L445.57 1449.64Q440.47 1475.14 431.55 1510.20Q422.62 1545.26 412.42 1578.41L412.42 1578.41Q408.60 1591.16 405.41 1602.64Q402.22 1614.11 402.22 1624.31L402.22 1624.31Q402.22 1629.41 402.86 1633.24Q403.50 1637.06 404.77 1640.89L404.77 1640.89Q412.42 1668.94 427.09 1673.40Q441.75 1677.86 455.77 1690.61L455.77 1690.61Q473.62 1707.19 497.21 1728.86Q520.80 1750.54 541.20 1773.49L541.20 1773.49Q496.57 1847.44 436.01 1908Q375.45 1968.56 316.80 2013.19L316.80 2013.19Q291.30 2032.31 291.30 2048.89L291.30 2048.89Q291.30 2064.19 309.15 2064.19L309.15 2064.19Q324.45 2064.19 371.62 2038.69Q418.80 2013.19 481.27 1960.28Q543.75 1907.36 597.30 1834.69L597.30 1834.69Q618.97 1858.91 648.30 1893.98Q677.62 1929.04 704.40 1964.74L704.40 1964.74Q714.60 1980.04 728.62 1980.04L728.62 1980.04Q747.75 1980.04 765.60 1959Q783.45 1937.96 783.45 1925.21L783.45 1925.21Q783.45 1915.01 764.96 1891.43Q746.47 1867.84 720.97 1841.06Q695.47 1814.29 672.52 1790.70Q649.57 1767.11 643.20 1760.74L643.20 1760.74Q678.90 1694.44 707.59 1601.36Q736.27 1508.29 752.85 1389.71L752.85 1389.71Q814.05 1375.69 833.17 1363.58Q852.30 1351.46 852.30 1341.26L852.30 1341.26Q852.30 1320.86 819.15 1320.86L819.15 1320.86Q816.60 1320.86 812.14 1320.86Q807.67 1320.86 803.85 1322.14ZM2113.28 1521.04L2249.70 1513.39L2249.70 1573.31L2117.10 1579.69L2113.28 1521.04ZM2335.13 1509.56L2481.75 1501.91L2474.10 1564.39L2335.13 1570.76L2335.13 1509.56ZM2652.60 2089.69L2652.60 2089.69L2658.98 2089.69Q2685.75 2089.69 2702.32 2069.93Q2718.90 2050.16 2726.55 2031.04Q2734.20 2011.91 2734.20 2009.36L2734.20 2009.36Q2734.20 1990.24 2697.23 1990.24L2697.23 1990.24L2690.85 1990.24Q2595.23 1990.24 2484.30 1979.40Q2373.38 1968.56 2260.54 1951.35Q2147.70 1934.14 2046.97 1915.65Q1946.25 1897.16 1872.30 1883.14L1872.30 1883.14Q1844.25 1876.76 1820.03 1873.58Q1795.80 1870.39 1786.88 1870.39L1786.88 1870.39Q1825.13 1833.41 1849.99 1808.55Q1874.85 1783.69 1883.14 1769.03Q1891.43 1754.36 1891.43 1737.79Q1891.43 1721.21 1884.41 1711.01Q1877.40 1700.81 1853.17 1684.24Q1828.95 1667.66 1775.40 1633.24L1775.40 1633.24Q1772.85 1631.96 1771.58 1630.69L1771.58 1630.69Q1793.25 1602.64 1816.20 1574.59Q1839.15 1546.54 1869.75 1510.84L1869.75 1510.84Q1876.13 1504.46 1884.41 1494.90Q1892.70 1485.34 1892.70 1473.86L1892.70 1473.86Q1892.70 1453.46 1872.30 1438.16Q1851.90 1422.86 1835.33 1422.86L1835.33 1422.86Q1831.50 1422.86 1828.31 1423.50Q1825.13 1424.14 1822.58 1424.14L1822.58 1424.14L1656.83 1439.44Q1650.45 1440.71 1644.08 1440.71Q1637.70 1440.71 1631.33 1440.71L1631.33 1440.71Q1610.92 1440.71 1591.80 1436.89L1591.80 1436.89Q1590.53 1436.89 1588.61 1436.25Q1586.70 1435.61 1584.15 1435.61L1584.15 1435.61Q1567.58 1435.61 1567.58 1453.46L1567.58 1453.46L1571.40 1471.31Q1577.78 1487.89 1593.71 1505.74Q1609.65 1523.59 1641.53 1523.59L1641.53 1523.59Q1649.17 1523.59 1658.10 1522.95Q1667.03 1522.31 1678.50 1521.04L1678.50 1521.04L1757.55 1513.39Q1748.63 1522.31 1731.41 1543.99Q1714.20 1565.66 1700.17 1584.79L1700.17 1584.79Q1675.95 1619.21 1675.95 1643.44L1675.95 1643.44Q1675.95 1672.76 1714.20 1695.71L1714.20 1695.71Q1756.28 1718.66 1788.15 1741.61L1788.15 1741.61Q1790.70 1742.89 1790.70 1744.16L1790.70 1744.16L1789.42 1746.71Q1742.25 1809.19 1674.67 1871.66L1674.67 1871.66Q1621.13 1876.76 1591.80 1881.86Q1562.47 1886.96 1551.64 1895.89Q1540.80 1904.81 1540.80 1921.39L1540.80 1921.39Q1540.80 1957.09 1557.38 1973.66L1557.38 1973.66Q1567.58 1983.86 1581.60 1983.86L1581.60 1983.86Q1591.80 1983.86 1605.83 1980.04L1605.83 1980.04Q1644.08 1967.29 1676.59 1962.19Q1709.10 1957.09 1738.42 1957.09L1738.42 1957.09Q1771.58 1957.09 1800.90 1961.55Q1830.22 1966.01 1858.28 1972.39L1858.28 1972.39Q1930.95 1987.69 2030.40 2006.18Q2129.85 2024.66 2240.14 2043.15Q2350.43 2061.64 2458.16 2074.39Q2565.90 2087.14 2652.60 2089.69ZM2101.80 1394.81L2250.97 1387.16L2250.97 1440.71L2105.63 1449.64L2101.80 1394.81ZM2335.13 1383.34L2497.05 1374.41L2490.68 1429.24L2335.13 1438.16L2335.13 1383.34ZM1799.63 1380.79L1799.63 1380.79Q1816.20 1380.79 1827.04 1366.76Q1837.88 1352.74 1844.25 1337.44Q1850.63 1322.14 1850.63 1318.31L1850.63 1318.31Q1850.63 1309.39 1846.16 1301.74Q1841.70 1294.09 1825.13 1280.70Q1808.55 1267.31 1772.21 1244.36Q1735.88 1221.41 1672.13 1184.44L1672.13 1184.44Q1663.20 1179.34 1656.83 1175.51Q1650.45 1171.69 1641.53 1171.69L1641.53 1171.69Q1626.22 1171.69 1612.84 1189.54Q1599.45 1207.39 1599.45 1224.60Q1599.45 1241.81 1623.67 1257.11L1623.67 1257.11Q1658.10 1280.06 1692.53 1305.56Q1726.95 1331.06 1766.47 1364.21L1766.47 1364.21Q1776.67 1370.59 1783.69 1375.69Q1790.70 1380.79 1799.63 1380.79ZM2336.40 1923.94L2336.40 1788.79L2666.63 1776.04Q2702.32 1772.21 2702.32 1750.54L2702.32 1750.54Q2702.32 1739.06 2690.21 1724.40Q2678.10 1709.74 2662.16 1699.54Q2646.23 1689.34 2630.93 1689.34L2630.93 1689.34Q2628.38 1689.34 2623.91 1689.34Q2619.45 1689.34 2614.35 1690.61L2614.35 1690.61Q2602.88 1693.16 2590.76 1695.08Q2578.65 1696.99 2562.07 1698.26L2562.07 1698.26L2335.13 1708.46L2335.13 1645.99L2553.15 1637.06Q2564.63 1635.79 2576.10 1633.24Q2587.57 1630.69 2587.57 1616.66L2587.57 1616.66Q2587.57 1601.36 2555.70 1569.49L2555.70 1569.49L2587.57 1371.86Q2588.85 1366.76 2593.31 1359.75Q2597.78 1352.74 2597.78 1341.26L2597.78 1341.26Q2597.78 1323.41 2576.74 1310.03Q2555.70 1296.64 2535.30 1296.64L2535.30 1296.64L2523.83 1296.64L2333.85 1308.11L2333.85 1253.29L2495.78 1243.09Q2531.48 1239.26 2531.48 1218.86L2531.48 1218.86Q2531.48 1206.11 2518.09 1193.36Q2504.70 1180.61 2488.13 1170.41Q2471.55 1160.21 2457.53 1160.21L2457.53 1160.21Q2451.15 1160.21 2439.68 1164.04L2439.68 1164.04Q2426.93 1169.14 2414.81 1171.69Q2402.70 1174.24 2383.57 1175.51L2383.57 1175.51L2333.85 1179.34L2333.85 1138.54Q2333.85 1115.59 2314.73 1105.39L2314.73 1105.39Q2300.70 1097.74 2287.95 1095.19L2287.95 1095.19L2562.07 1076.06Q2558.25 1093.91 2551.24 1123.24Q2544.23 1152.56 2536.57 1179.34L2536.57 1179.34Q2531.48 1195.91 2531.48 1209.94L2531.48 1209.94Q2531.48 1236.71 2550.60 1236.71L2550.60 1236.71Q2564.63 1236.71 2581.84 1212.49Q2599.05 1188.26 2615.63 1158.30Q2632.20 1128.34 2644.95 1104.11Q2657.70 1079.89 2658.98 1076.06L2658.98 1076.06Q2660.25 1073.51 2669.81 1063.31Q2679.38 1053.11 2679.38 1040.36L2679.38 1040.36Q2679.38 1019.96 2662.16 1010.40Q2644.95 1000.84 2629.65 997.65Q2614.35 994.46 2611.80 994.46L2611.80 994.46Q2606.70 994.46 2602.24 995.10Q2597.78 995.74 2591.40 995.74L2591.40 995.74L2067.38 1030.16L2068.65 1025.06Q2068.65 1019.96 2069.93 1013.59L2069.93 1013.59Q2069.93 1009.76 2070.56 1006.58Q2071.20 1003.39 2071.20 999.56L2071.20 999.56Q2071.20 988.09 2063.55 979.80Q2055.90 971.51 2035.50 970.24L2035.50 970.24Q2031.68 968.96 2027.21 968.96Q2022.75 968.96 2020.20 968.96L2020.20 968.96Q2003.63 968.96 1997.25 977.89Q1990.88 986.81 1988.33 1002.11L1988.33 1002.11Q1978.13 1063.31 1965.38 1111.13Q1952.63 1158.94 1934.78 1203.56L1934.78 1203.56Q1928.40 1221.41 1928.40 1232.89Q1928.40 1244.36 1937.33 1252.01Q1946.25 1259.66 1959 1266.04L1959 1266.04Q1976.85 1274.96 1989.60 1274.96L1989.60 1274.96Q2001.08 1274.96 2010.64 1263.49Q2020.20 1252.01 2031.68 1216.31Q2043.15 1180.61 2055.90 1110.49L2055.90 1110.49L2235.68 1097.74Q2234.40 1100.29 2234.40 1104.11L2234.40 1104.11Q2234.40 1107.94 2238.22 1115.59L2238.22 1115.59Q2244.60 1129.61 2247.79 1146.19Q2250.97 1162.76 2250.97 1180.61L2250.97 1180.61L2250.97 1183.16L2117.10 1192.09Q2110.72 1192.09 2104.99 1192.72Q2099.25 1193.36 2094.15 1193.36L2094.15 1193.36Q2082.68 1193.36 2061 1189.54L2061 1189.54Q2059.72 1189.54 2057.81 1188.90Q2055.90 1188.26 2053.35 1188.26L2053.35 1188.26Q2036.78 1188.26 2036.78 1203.56L2036.78 1203.56Q2036.78 1206.11 2042.51 1221.41Q2048.25 1236.71 2062.28 1252.01Q2076.30 1267.31 2103.07 1267.31L2103.07 1267.31Q2109.45 1267.31 2117.10 1267.31Q2124.75 1267.31 2136.22 1266.04L2136.22 1266.04L2250.97 1258.39L2250.97 1311.94L2096.70 1320.86Q2032.95 1295.36 2013.83 1295.36L2013.83 1295.36Q1997.25 1295.36 1997.25 1310.66L1997.25 1310.66Q1997.25 1314.49 1999.16 1319.59Q2001.08 1324.69 2002.35 1331.06L2002.35 1331.06Q2010 1347.64 2013.83 1364.21Q2017.65 1380.79 2018.93 1401.19L2018.93 1401.19L2034.22 1564.39Q2035.50 1570.76 2035.50 1578.41Q2035.50 1586.06 2035.50 1592.44L2035.50 1592.44Q2035.50 1601.36 2034.86 1610.29Q2034.22 1619.21 2032.95 1628.14L2032.95 1628.14Q2031.68 1633.24 2031.68 1638.34Q2031.68 1643.44 2031.68 1645.99L2031.68 1645.99Q2031.68 1665.11 2055.90 1682.33Q2080.13 1699.54 2099.25 1699.54L2099.25 1699.54Q2126.03 1699.54 2126.03 1668.94L2126.03 1668.94L2126.03 1665.11L2124.75 1654.91L2249.70 1649.81L2249.70 1711.01L2008.73 1721.21L1993.43 1721.21Q1967.93 1721.21 1947.53 1716.11L1947.53 1716.11Q1938.60 1713.56 1936.05 1713.56L1936.05 1713.56Q1922.03 1713.56 1922.03 1727.59L1922.03 1727.59Q1922.03 1732.69 1923.30 1736.51L1923.30 1736.51Q1943.70 1801.54 1994.70 1801.54L1994.70 1801.54Q2001.08 1801.54 2009.36 1800.90Q2017.65 1800.26 2027.85 1800.26L2027.85 1800.26L2249.70 1791.34Q2249.70 1815.56 2247.79 1840.43Q2245.88 1865.29 2242.05 1895.89L2242.05 1895.89L2242.05 1903.54Q2242.05 1922.66 2257.99 1934.14Q2273.93 1945.61 2290.50 1951.35Q2307.07 1957.09 2312.18 1957.09L2312.18 1957.09Q2336.40 1957.09 2336.40 1923.94L2336.40 1923.94ZM1860.83 1211.21L1860.83 1211.21Q1873.58 1211.21 1886.33 1199.10Q1899.08 1186.99 1907.36 1172.96Q1915.65 1158.94 1915.65 1152.56L1915.65 1152.56Q1915.65 1139.81 1895.89 1120.69Q1876.13 1101.56 1848.71 1080.53Q1821.30 1059.49 1791.97 1039.72Q1762.65 1019.96 1740.34 1007.21Q1718.03 994.46 1709.10 994.46L1709.10 994.46Q1692.53 994.46 1675.95 1016.14L1675.95 1016.14Q1664.47 1032.71 1664.47 1042.91L1664.47 1042.91Q1664.47 1056.94 1687.42 1073.51L1687.42 1073.51Q1762.65 1125.79 1831.50 1193.36L1831.50 1193.36Q1849.35 1211.21 1860.83 1211.21Z"/>
  </svg>