<svg xmlns="http://www.w3.org/2000/svg" viewBox="0 0 3000 3000" width="3000" height="3000">
    <path fill="#000000" d="M1462 1533L1676 1521L1676 1615L1468 1625L1462 1533ZM1810 1515L2040 1503L2028 1601L1810 1611L1810 1515ZM2308 2425L2308 2425L2318 2425Q2360 2425 2386 2394Q2412 2363 2424 2333Q2436 2303 2436 2299L2436 2299Q2436 2269 2378 2269L2378 2269L2368 2269Q2218 2269 2044 2252Q1870 2235 1693 2208Q1516 2181 1358 2152Q1200 2123 1084 2101L1084 2101Q1040 2091 1002 2086Q964 2081 950 2081L950 2081Q1010 2023 1049 1984Q1088 1945 1101 1922Q1114 1899 1114 1873Q1114 1847 1103 1831Q1092 1815 1054 1789Q1016 1763 932 1709L932 1709Q928 1707 926 1705L926 1705Q960 1661 996 1617Q1032 1573 1080 1517L1080 1517Q1090 1507 1103 1492Q1116 1477 1116 1459L1116 1459Q1116 1427 1084 1403Q1052 1379 1026 1379L1026 1379Q1020 1379 1015 1380Q1010 1381 1006 1381L1006 1381L746 1405Q736 1407 726 1407Q716 1407 706 1407L706 1407Q674 1407 644 1401L644 1401Q642 1401 639 1400Q636 1399 632 1399L632 1399Q606 1399 606 1427L606 1427L612 1455Q622 1481 647 1509Q672 1537 722 1537L722 1537Q734 1537 748 1536Q762 1535 780 1533L780 1533L904 1521Q890 1535 863 1569Q836 1603 814 1633L814 1633Q776 1687 776 1725L776 1725Q776 1771 836 1807L836 1807Q902 1843 952 1879L952 1879Q956 1881 956 1883L956 1883L954 1887Q880 1985 774 2083L774 2083Q690 2091 644 2099Q598 2107 581 2121Q564 2135 564 2161L564 2161Q564 2217 590 2243L590 2243Q606 2259 628 2259L628 2259Q644 2259 666 2253L666 2253Q726 2233 777 2225Q828 2217 874 2217L874 2217Q926 2217 972 2224Q1018 2231 1062 2241L1062 2241Q1176 2265 1332 2294Q1488 2323 1661 2352Q1834 2381 2003 2401Q2172 2421 2308 2425ZM1444 1335L1678 1323L1678 1407L1450 1421L1444 1335ZM1810 1317L2064 1303L2054 1389L1810 1403L1810 1317ZM970 1313L970 1313Q996 1313 1013 1291Q1030 1269 1040 1245Q1050 1221 1050 1215L1050 1215Q1050 1201 1043 1189Q1036 1177 1010 1156Q984 1135 927 1099Q870 1063 770 1005L770 1005Q756 997 746 991Q736 985 722 985L722 985Q698 985 677 1013Q656 1041 656 1068Q656 1095 694 1119L694 1119Q748 1155 802 1195Q856 1235 918 1287L918 1287Q934 1297 945 1305Q956 1313 970 1313ZM1812 2165L1812 1953L2330 1933Q2386 1927 2386 1893L2386 1893Q2386 1875 2367 1852Q2348 1829 2323 1813Q2298 1797 2274 1797L2274 1797Q2270 1797 2263 1797Q2256 1797 2248 1799L2248 1799Q2230 1803 2211 1806Q2192 1809 2166 1811L2166 1811L1810 1827L1810 1729L2152 1715Q2170 1713 2188 1709Q2206 1705 2206 1683L2206 1683Q2206 1659 2156 1609L2156 1609L2206 1299Q2208 1291 2215 1280Q2222 1269 2222 1251L2222 1251Q2222 1223 2189 1202Q2156 1181 2124 1181L2124 1181L2106 1181L1808 1199L1808 1113L2062 1097Q2118 1091 2118 1059L2118 1059Q2118 1039 2097 1019Q2076 999 2050 983Q2024 967 2002 967L2002 967Q1992 967 1974 973L1974 973Q1954 981 1935 985Q1916 989 1886 991L1886 991L1808 997L1808 933Q1808 897 1778 881L1778 881Q1756 869 1736 865L1736 865L2166 835Q2160 863 2149 909Q2138 955 2126 997L2126 997Q2118 1023 2118 1045L2118 1045Q2118 1087 2148 1087L2148 1087Q2170 1087 2197 1049Q2224 1011 2250 964Q2276 917 2296 879Q2316 841 2318 835L2318 835Q2320 831 2335 815Q2350 799 2350 779L2350 779Q2350 747 2323 732Q2296 717 2272 712Q2248 707 2244 707L2244 707Q2236 707 2229 708Q2222 709 2212 709L2212 709L1390 763L1392 755Q1392 747 1394 737L1394 737Q1394 731 1395 726Q1396 721 1396 715L1396 715Q1396 697 1384 684Q1372 671 1340 669L1340 669Q1334 667 1327 667Q1320 667 1316 667L1316 667Q1290 667 1280 681Q1270 695 1266 719L1266 719Q1250 815 1230 890Q1210 965 1182 1035L1182 1035Q1172 1063 1172 1081Q1172 1099 1186 1111Q1200 1123 1220 1133L1220 1133Q1248 1147 1268 1147L1268 1147Q1286 1147 1301 1129Q1316 1111 1334 1055Q1352 999 1372 889L1372 889L1654 869Q1652 873 1652 879L1652 879Q1652 885 1658 897L1658 897Q1668 919 1673 945Q1678 971 1678 999L1678 999L1678 1003L1468 1017Q1458 1017 1449 1018Q1440 1019 1432 1019L1432 1019Q1414 1019 1380 1013L1380 1013Q1378 1013 1375 1012Q1372 1011 1368 1011L1368 1011Q1342 1011 1342 1035L1342 1035Q1342 1039 1351 1063Q1360 1087 1382 1111Q1404 1135 1446 1135L1446 1135Q1456 1135 1468 1135Q1480 1135 1498 1133L1498 1133L1678 1121L1678 1205L1436 1219Q1336 1179 1306 1179L1306 1179Q1280 1179 1280 1203L1280 1203Q1280 1209 1283 1217Q1286 1225 1288 1235L1288 1235Q1300 1261 1306 1287Q1312 1313 1314 1345L1314 1345L1338 1601Q1340 1611 1340 1623Q1340 1635 1340 1645L1340 1645Q1340 1659 1339 1673Q1338 1687 1336 1701L1336 1701Q1334 1709 1334 1717Q1334 1725 1334 1729L1334 1729Q1334 1759 1372 1786Q1410 1813 1440 1813L1440 1813Q1482 1813 1482 1765L1482 1765L1482 1759L1480 1743L1676 1735L1676 1831L1298 1847L1274 1847Q1234 1847 1202 1839L1202 1839Q1188 1835 1184 1835L1184 1835Q1162 1835 1162 1857L1162 1857Q1162 1865 1164 1871L1164 1871Q1196 1973 1276 1973L1276 1973Q1286 1973 1299 1972Q1312 1971 1328 1971L1328 1971L1676 1957Q1676 1995 1673 2034Q1670 2073 1664 2121L1664 2121L1664 2133Q1664 2163 1689 2181Q1714 2199 1740 2208Q1766 2217 1774 2217L1774 2217Q1812 2217 1812 2165L1812 2165ZM1066 1047L1066 1047Q1086 1047 1106 1028Q1126 1009 1139 987Q1152 965 1152 955L1152 955Q1152 935 1121 905Q1090 875 1047 842Q1004 809 958 778Q912 747 877 727Q842 707 828 707L828 707Q802 707 776 741L776 741Q758 767 758 783L758 783Q758 805 794 831L794 831Q912 913 1020 1019L1020 1019Q1048 1047 1066 1047Z"/>
  </svg>