<svg xmlns="http://www.w3.org/2000/svg" viewBox="0 0 3000 3000" width="3000" height="3000">
    <path fill="#000000" d="M1258 920L1258 860L2248 860L2248 920L1258 920ZM1128 1392L1128 1332L2400 1332L2400 1392L1128 1392ZM1890 1554L1890 1554L1940 1530Q2008 1632 2081 1749Q2154 1866 2218 1973Q2282 2080 2322 2156L2322 2156L2270 2188Q2230 2110 2167 2000Q2104 1890 2032 1772Q1960 1654 1890 1554ZM598 1426L962 1426L962 2244L904 2244L904 1486L598 1486L598 1426ZM664 892L664 892L704 852Q766 890 833 936Q900 982 962 1025Q1024 1068 1064 1102L1064 1102L1024 1148Q984 1114 922 1069Q860 1024 793 977Q726 930 664 892ZM934 2198L934 2198Q984 2198 1030 2235Q1076 2272 1164 2330L1164 2330Q1266 2394 1391 2414Q1516 2434 1686 2434L1686 2434Q1780 2434 1875 2432Q1970 2430 2064 2426Q2158 2422 2244 2417Q2330 2412 2406 2406L2406 2406Q2402 2414 2397 2425Q2392 2436 2390 2448Q2388 2460 2386 2472L2386 2472Q2340 2474 2256 2478Q2172 2482 2070 2484Q1968 2486 1867 2488Q1766 2490 1686 2490L1686 2490Q1504 2490 1371 2466Q1238 2442 1132 2374L1132 2374Q1076 2334 1023 2292Q970 2250 934 2250L934 2250Q898 2250 853 2284Q808 2318 755 2375Q702 2432 644 2506L644 2506L600 2464Q664 2388 722 2328Q780 2268 833 2233Q886 2198 934 2198ZM1240 2120L1240 2120Q1238 2112 1234 2100Q1230 2088 1226 2076Q1222 2064 1218 2056L1218 2056Q1240 2052 1265 2017Q1290 1982 1322 1930L1322 1930Q1338 1906 1370 1848Q1402 1790 1443 1710Q1484 1630 1524 1539Q1564 1448 1596 1356L1596 1356L1654 1384Q1604 1508 1545 1634Q1486 1760 1423 1873Q1360 1986 1294 2078L1294 2078L1294 2080Q1294 2080 1286 2084Q1278 2088 1267 2094Q1256 2100 1248 2107Q1240 2114 1240 2120ZM1240 2120L1240 2120L1240 2070L1296 2040L2202 1972Q2204 1986 2208 2001Q2212 2016 2214 2026L2214 2026Q1956 2048 1785 2062Q1614 2076 1511 2085Q1408 2094 1354 2100Q1300 2106 1276 2111Q1252 2116 1240 2120Z"/>
  </svg>