<svg xmlns="http://www.w3.org/2000/svg" viewBox="0 0 3000 3000" width="3000" height="3000">
    <path fill="#000000" d="M909.81 2060.30Q843.82 2060.30 843.82 2006.76L843.82 2006.76Q843.82 1954.47 909.81 1954.47L909.81 1954.47L980.79 1954.47Q1031.84 1954.47 1034.33 1899.68L1034.33 1899.68L1034.33 1553.54L801.49 1553.54Q741.72 1553.54 741.72 1504.98L741.72 1504.98Q741.72 1456.42 801.49 1456.42L801.49 1456.42L1034.33 1456.42L1034.33 1325.68Q1034.33 1287.08 1051.76 1265.92L1051.76 1265.92Q1070.43 1243.51 1153.86 1186.23L1153.86 1186.23Q1239.77 1127.71 1239.77 1110.28L1239.77 1110.28Q1239.77 1104.05 1234.79 1100.32Q1229.81 1096.58 1223.58 1096.58L1223.58 1096.58L820.17 1096.58Q760.40 1096.58 760.40 1050.51L760.40 1050.51Q760.40 1025.61 774.72 1013.78Q789.04 1001.95 820.17 1001.95L820.17 1001.95L1299.54 1001.95Q1400.39 1001.95 1400.39 1062.96L1400.39 1062.96Q1400.39 1114.01 1191.21 1262.18L1191.21 1262.18Q1137.67 1302.03 1135.18 1340.63L1135.18 1340.63L1135.18 1456.42L1366.77 1456.42Q1427.78 1456.42 1427.78 1504.98L1427.78 1504.98Q1427.78 1553.54 1366.77 1553.54L1366.77 1553.54L1135.18 1553.54L1135.18 1925.83Q1135.18 1996.80 1100.32 2026.68L1100.32 2026.68Q1061.72 2060.30 999.46 2060.30L999.46 2060.30L909.81 2060.30ZM340.80 2041.63Q292.24 2041.63 292.24 1986.84L292.24 1986.84Q292.24 1960.69 344.53 1928.32L344.53 1928.32Q452.86 1863.57 512.62 1778.91L512.62 1778.91L400.56 1694.24Q352.00 1656.88 352.00 1615.80L352.00 1615.80Q352.00 1593.38 366.94 1527.39L366.94 1527.39Q375.66 1487.55 400.56 1334.40L400.56 1334.40L409.28 1280.86L342.04 1282.10Q292.24 1283.35 292.24 1232.30L292.24 1232.30Q292.24 1184.99 350.76 1182.50L350.76 1182.50L424.22 1182.50L445.39 988.26Q447.88 963.35 461.57 950.28Q475.27 937.21 497.68 937.21L497.68 937.21Q546.24 937.21 546.24 988.26L546.24 988.26L522.58 1180.00L635.89 1178.76Q733.01 1177.51 733.01 1274.63L733.01 1274.63Q733.01 1353.08 708.11 1527.39L708.11 1527.39Q688.18 1660.62 635.89 1760.23L635.89 1760.23Q754.17 1867.31 754.17 1907.15L754.17 1907.15Q754.17 1961.94 700.63 1961.94L700.63 1961.94Q675.73 1961.94 617.21 1888.48L617.21 1888.48L583.59 1848.63Q512.62 1940.77 451.61 1986.84L451.61 1986.84Q379.39 2041.63 340.80 2041.63L340.80 2041.63ZM561.18 1694.24Q607.25 1588.40 625.93 1422.80L625.93 1422.80L637.13 1309.50Q640.87 1277.12 597.29 1277.12L597.29 1277.12L507.64 1279.61Q491.46 1386.69 467.80 1498.75L467.80 1498.75Q451.61 1577.20 451.61 1589.65L451.61 1589.65Q451.61 1617.04 505.15 1654.39L505.15 1654.39L561.18 1694.24ZM2631.81 2031.67Q2375.32 2031.67 2247.07 2030.42L2247.07 2030.42Q2016.72 2027.93 1932.06 2005.52L1932.06 2005.52Q1841.16 1980.62 1780.15 1920.85L1780.15 1920.85Q1653.15 2024.19 1619.53 2024.19L1619.53 2024.19Q1567.24 2024.19 1567.24 1966.92L1567.24 1966.92Q1567.24 1948.24 1581.56 1932.68Q1595.87 1917.11 1617.04 1909.64L1617.04 1909.64Q1651.90 1897.19 1725.37 1853.61L1725.37 1853.61L1725.37 1623.27Q1725.37 1584.67 1686.77 1584.67L1686.77 1584.67L1615.80 1584.67Q1590.89 1584.67 1579.06 1573.46Q1567.24 1562.26 1567.24 1538.60L1567.24 1538.60Q1567.24 1514.94 1579.06 1504.36Q1590.89 1493.77 1615.80 1493.77L1615.80 1493.77L1716.65 1493.77Q1770.19 1493.77 1795.09 1516.81Q1820.00 1539.84 1817.50 1589.65L1817.50 1589.65L1817.50 1842.41Q1864.82 1882.25 1912.76 1902.17Q1960.69 1922.09 2029.80 1930.81Q2098.90 1939.53 2214.70 1939.53L2214.70 1939.53Q2303.10 1939.53 2479.91 1937.04L2479.91 1937.04Q2599.44 1934.55 2656.71 1934.55L2656.71 1934.55Q2704.03 1934.55 2704.03 1980.62L2704.03 1980.62Q2704.03 2031.67 2631.81 2031.67L2631.81 2031.67ZM1927.08 1786.38Q1879.76 1786.38 1879.76 1745.29L1879.76 1745.29Q1879.76 1704.20 1927.08 1704.20L1927.08 1704.20L2254.54 1704.20L2254.54 1786.38L1927.08 1786.38ZM1761.47 1356.81Q1747.78 1356.81 1719.14 1340.63L1719.14 1340.63L1617.04 1295.80Q1578.44 1279.61 1578.44 1247.24L1578.44 1247.24Q1578.44 1198.68 1625.76 1198.68L1625.76 1198.68Q1645.68 1198.68 1730.35 1233.54L1730.35 1233.54Q1811.28 1267.16 1811.28 1305.76L1811.28 1305.76Q1811.28 1356.81 1761.47 1356.81L1761.47 1356.81ZM2064.04 1561.01L2233.37 1561.01L2233.37 1491.28L2034.16 1491.28L2034.16 1531.13Q2034.16 1544.82 2042.25 1552.92Q2050.34 1561.01 2064.04 1561.01L2064.04 1561.01ZM1806.30 1115.26Q1793.85 1115.26 1755.25 1094.09L1755.25 1094.09Q1705.44 1067.94 1673.07 1053.00L1673.07 1053.00Q1629.49 1031.84 1629.49 999.46L1629.49 999.46Q1629.49 950.90 1676.81 950.90L1676.81 950.90Q1700.46 950.90 1776.42 987.01L1776.42 987.01Q1854.86 1024.37 1854.86 1062.96L1854.86 1062.96Q1854.86 1115.26 1806.30 1115.26L1806.30 1115.26ZM2303.10 1786.38L2303.10 1704.20L2630.57 1704.20Q2679.13 1704.20 2679.13 1745.29L2679.13 1745.29Q2679.13 1786.38 2630.57 1786.38L2630.57 1786.38L2303.10 1786.38ZM2034.16 1419.07L2233.37 1419.07L2233.37 1348.10L2064.04 1348.10Q2034.16 1348.10 2034.16 1379.22L2034.16 1379.22L2034.16 1419.07ZM2278.20 1915.87Q2233.37 1915.87 2233.37 1863.57L2233.37 1863.57L2233.37 1635.72L2034.16 1635.72Q1983.11 1635.72 1960.07 1613.31Q1937.04 1590.89 1939.53 1542.33L1939.53 1542.33L1939.53 1366.77Q1939.53 1316.97 1961.94 1293.93Q1984.35 1270.90 2034.16 1273.39L2034.16 1273.39L2233.37 1273.39L2233.37 1036.82L2324.27 1036.82L2324.27 1273.39L2532.20 1273.39Q2582.01 1273.39 2605.04 1295.80Q2628.08 1318.21 2625.59 1366.77L2625.59 1366.77L2625.59 1542.33Q2625.59 1592.14 2603.17 1615.17Q2580.76 1638.21 2532.20 1635.72L2532.20 1635.72L2324.27 1635.72L2324.27 1863.57Q2324.27 1915.87 2278.20 1915.87L2278.20 1915.87ZM2501.07 1561.01Q2514.77 1561.01 2522.86 1552.92Q2530.96 1544.82 2530.96 1531.13L2530.96 1531.13L2530.96 1491.28L2324.27 1491.28L2324.27 1561.01L2501.07 1561.01ZM2055.32 1213.62Q2017.97 1213.62 2017.97 1176.27L2017.97 1176.27Q2017.97 1138.92 2055.32 1138.92L2055.32 1138.92L2249.56 1138.92L2249.56 1213.62L2055.32 1213.62ZM2324.27 1419.07L2530.96 1419.07L2530.96 1379.22Q2530.96 1365.53 2522.86 1356.81Q2514.77 1348.10 2501.07 1348.10L2501.07 1348.10L2324.27 1348.10L2324.27 1419.07ZM1932.06 1213.62Q1884.74 1213.62 1884.74 1162.57L1884.74 1162.57L1884.74 1070.43Q1884.74 1016.89 1908.40 993.24Q1932.06 969.58 1984.35 972.07L1984.35 972.07L2575.78 972.07Q2630.57 972.07 2655.47 995.73Q2680.37 1019.38 2676.64 1070.43L2676.64 1070.43L2676.64 1161.33Q2676.64 1213.62 2628.08 1213.62L2628.08 1213.62Q2580.76 1213.62 2580.76 1161.33L2580.76 1161.33L2580.76 1091.60Q2580.76 1074.17 2571.42 1064.21Q2562.08 1054.25 2544.65 1054.25L2544.65 1054.25L2016.72 1054.25Q1980.62 1054.25 1980.62 1091.60L1980.62 1091.60L1980.62 1162.57Q1980.62 1213.62 1932.06 1213.62L1932.06 1213.62ZM2308.08 1213.62L2308.08 1138.92L2503.56 1138.92Q2540.92 1138.92 2540.92 1176.27L2540.92 1176.27Q2540.92 1213.62 2503.56 1213.62L2503.56 1213.62L2308.08 1213.62Z"/>
  </svg>