<svg xmlns="http://www.w3.org/2000/svg" viewBox="0 0 3000 3000" width="3000" height="3000">
    <path fill="#000000" d="M836 1943L836 1943Q844 1943 850 1941L850 1941Q850 1945 848 1947L848 1947Q848 1983 825 2029Q802 2075 765 2129Q728 2183 687 2235Q646 2287 605 2329Q564 2371 564 2401L564 2401Q564 2425 590 2425L590 2425Q640 2425 770 2309Q900 2193 968 2097L968 2097Q1004 2049 1004 2025L1004 2025Q1004 2005 982 1979Q960 1953 932 1932Q904 1911 882 1911L882 1911Q882 1911 882 1911L882 1911Q884 1903 884 1891L884 1891L884 1875Q1348 1853 1376 1849Q1404 1845 1404 1821L1404 1821Q1404 1793 1352 1735L1352 1735Q1372 899 1377 888Q1382 877 1382 863L1382 863Q1382 789 1258 789L1258 789L856 815Q752 769 720 769Q688 769 688 797L688 797Q688 807 694 819L694 819Q712 859 717 882Q722 905 734 1731L734 1731Q734 1779 724 1859L724 1859Q724 1897 788 1929L788 1929Q816 1943 836 1943ZM1952 2445L1952 2445Q1992 2445 2023 2409Q2054 2373 2054 2331L2054 2331Q2054 2317 2053 2303Q2052 2289 2048 1679L2048 1679Q2290 1467 2290 1411L2290 1411Q2290 1363 2230 1307L2230 1307Q2202 1283 2178 1283Q2154 1283 2146 1319L2146 1319Q2138 1397 2048 1483L2048 1483L2046 1283Q2416 1257 2436 1250Q2456 1243 2456 1223Q2456 1203 2432 1177Q2408 1151 2380 1132Q2352 1113 2334 1113L2334 1113Q2322 1113 2314 1117L2314 1117Q2286 1129 2236 1133L2236 1133L2046 1147L2044 741Q2044 713 2028 699Q2012 685 1972 669L1972 669Q1918 649 1892 649L1892 649Q1858 649 1858 675L1858 675Q1858 689 1878 715Q1898 741 1898 787L1898 787L1900 1155Q1546 1179 1530 1179L1530 1179Q1490 1179 1452 1167L1452 1167Q1446 1165 1438 1165L1438 1165Q1418 1165 1418 1187L1418 1187Q1418 1223 1474 1289L1474 1289Q1496 1313 1568 1313L1568 1313Q1588 1313 1902 1291L1902 1291L1904 1613Q1660 1831 1406 1995L1406 1995Q1348 2033 1346 2065L1346 2065Q1346 2093 1376 2093L1376 2093Q1488 2093 1848 1837L1848 1837L1904 1791L1908 2269Q1816 2237 1702 2177L1702 2177Q1660 2155 1638 2155L1638 2155Q1612 2155 1612 2179L1612 2179Q1612 2213 1707 2296Q1802 2379 1884 2423L1884 2423Q1928 2445 1952 2445ZM1358 2357L1358 2357Q1390 2357 1423 2330Q1456 2303 1456 2275L1456 2275Q1456 2257 1432 2218Q1408 2179 1373 2129Q1338 2079 1299 2033Q1260 1987 1229 1954Q1198 1921 1178 1921L1178 1921Q1152 1921 1124 1947Q1096 1973 1096 1993L1096 1993Q1096 2011 1120 2043L1120 2043Q1194 2125 1304 2315L1304 2315Q1330 2357 1358 2357ZM1210 1407L878 1423L874 1251L1212 1235L1210 1407ZM1206 1727L882 1743L878 1551L1208 1535L1206 1727ZM1214 1105L872 1123L870 949L1216 925L1214 1105Z"/>
  </svg>