<svg xmlns="http://www.w3.org/2000/svg" viewBox="0 0 3000 3000" width="3000" height="3000">
    <path fill="#000000" d="M708 2282L708 2282Q690 2292 671 2292Q652 2292 652 2272Q652 2252 676 2232L676 2232Q848 2094 920 1920L920 1920Q960 1820 978 1687Q996 1554 996 1098L996 1098Q996 1072 984 1052Q972 1032 972 1024L972 1024Q972 1004 1001 1004Q1030 1004 1063 1018Q1096 1032 1107 1042Q1118 1052 1118 1072L1118 1072Q1114 1522 1099 1663Q1084 1804 1042 1916L1042 1916Q958 2144 708 2282ZM1314 2234L1314 2234Q1196 2034 1130 1960L1130 1960Q1108 1932 1108 1918Q1108 1904 1132 1881Q1156 1858 1174 1858Q1192 1858 1222 1889Q1252 1920 1290 1966Q1328 2012 1363 2061Q1398 2110 1421 2148Q1444 2186 1444 2204Q1444 2222 1415 2246Q1386 2270 1361 2270Q1336 2270 1314 2234ZM736 1784L736 1784Q746 1702 746 1656L746 1656L744 1462L734 870Q734 810 717 770Q700 730 700 722L700 722Q700 706 725 706Q750 706 854 752L854 752L1258 726L1284 726Q1328 726 1349 748Q1370 770 1370 788L1370 788L1360 834L1344 1754L1342 1782Q1342 1822 1306 1820L1306 1820Q1288 1820 1260 1806L1260 1806Q1204 1778 1208 1746L1208 1746Q1218 1658 1220 1618L1220 1618L1228 838L858 862L868 1462L872 1788L872 1816Q872 1856 836 1856L836 1856Q818 1856 790 1842L790 1842Q736 1816 736 1784ZM1970 2194L1970 1848L1968 1486Q1968 1436 1982 1362L1982 1362Q1910 1534 1749 1699Q1588 1864 1452 1952L1452 1952Q1396 1988 1378 1988Q1360 1988 1360 1976L1360 1976Q1360 1958 1396 1926L1396 1926Q1744 1602 1926 1224L1926 1224L1562 1246L1542 1246Q1474 1246 1454 1222L1454 1222Q1404 1164 1404 1128L1404 1128Q1404 1118 1411 1118Q1418 1118 1440 1125Q1462 1132 1504 1132L1504 1132L1520 1132L1968 1104L1966 704Q1966 656 1932 610L1932 610Q1920 592 1920 583Q1920 574 1941 574Q1962 574 2012 593Q2062 612 2074 624Q2086 636 2086 658L2086 658L2088 1096L2256 1086Q2308 1082 2326 1074Q2344 1066 2360 1066Q2376 1066 2400 1086L2400 1086Q2464 1136 2464 1166L2464 1166Q2464 1186 2416 1192L2416 1192L2088 1212L2090 2176L2092 2240Q2092 2308 2030 2334L2030 2334Q2008 2342 1994 2342Q1980 2342 1918 2310Q1856 2278 1750 2194L1750 2194Q1648 2110 1648 2080L1648 2080Q1648 2068 1666 2068Q1684 2068 1765 2110Q1846 2152 1970 2194L1970 2194Z"/>
  </svg>