<svg xmlns="http://www.w3.org/2000/svg" viewBox="0 0 3000 3000" width="3000" height="3000">
    <path fill="#000000" d="M439.20 1782.41L439.20 1782.41Q444.30 1782.41 448.12 1781.14L448.12 1781.14Q448.12 1783.69 446.85 1784.96L446.85 1784.96Q446.85 1807.91 432.19 1837.24Q417.52 1866.56 393.94 1900.99Q370.35 1935.41 344.21 1968.56Q318.07 2001.71 291.94 2028.49Q265.80 2055.26 265.80 2074.39L265.80 2074.39Q265.80 2089.69 282.37 2089.69L282.37 2089.69Q314.25 2089.69 397.12 2015.74Q480.00 1941.79 523.35 1880.59L523.35 1880.59Q546.30 1849.99 546.30 1834.69L546.30 1834.69Q546.30 1821.94 532.27 1805.36Q518.25 1788.79 500.40 1775.40Q482.55 1762.01 468.52 1762.01L468.52 1762.01Q468.52 1762.01 468.52 1762.01L468.52 1762.01Q469.80 1756.91 469.80 1749.26L469.80 1749.26L469.80 1739.06Q765.60 1725.04 783.45 1722.49Q801.30 1719.94 801.30 1704.64L801.30 1704.64Q801.30 1686.79 768.15 1649.81L768.15 1649.81Q780.90 1116.86 784.09 1109.85Q787.27 1102.84 787.27 1093.91L787.27 1093.91Q787.27 1046.74 708.22 1046.74L708.22 1046.74L451.95 1063.31Q385.65 1033.99 365.25 1033.99Q344.85 1033.99 344.85 1051.84L344.85 1051.84Q344.85 1058.21 348.67 1065.86L348.67 1065.86Q360.15 1091.36 363.34 1106.03Q366.52 1120.69 374.17 1647.26L374.17 1647.26Q374.17 1677.86 367.80 1728.86L367.80 1728.86Q367.80 1753.09 408.60 1773.49L408.60 1773.49Q426.45 1782.41 439.20 1782.41ZM1150.65 2102.44L1150.65 2102.44Q1176.15 2102.44 1195.91 2079.49Q1215.67 2056.54 1215.67 2029.76L1215.67 2029.76Q1215.67 2020.84 1215.04 2011.91Q1214.40 2002.99 1211.85 1614.11L1211.85 1614.11Q1366.13 1478.96 1366.13 1443.26L1366.13 1443.26Q1366.13 1412.66 1327.88 1376.96L1327.88 1376.96Q1310.02 1361.66 1294.72 1361.66Q1279.42 1361.66 1274.32 1384.61L1274.32 1384.61Q1269.22 1434.34 1211.85 1489.16L1211.85 1489.16L1210.57 1361.66Q1446.45 1345.09 1459.20 1340.63Q1471.95 1336.16 1471.95 1323.41Q1471.95 1310.66 1456.65 1294.09Q1441.35 1277.51 1423.50 1265.40Q1405.65 1253.29 1394.17 1253.29L1394.17 1253.29Q1386.52 1253.29 1381.42 1255.84L1381.42 1255.84Q1363.57 1263.49 1331.70 1266.04L1331.70 1266.04L1210.57 1274.96L1209.30 1016.14Q1209.30 998.29 1199.10 989.36Q1188.90 980.44 1163.40 970.24L1163.40 970.24Q1128.97 957.49 1112.40 957.49L1112.40 957.49Q1090.72 957.49 1090.72 974.06L1090.72 974.06Q1090.72 982.99 1103.47 999.56Q1116.22 1016.14 1116.22 1045.46L1116.22 1045.46L1117.50 1280.06Q891.82 1295.36 881.62 1295.36L881.62 1295.36Q856.12 1295.36 831.90 1287.71L831.90 1287.71Q828.07 1286.44 822.97 1286.44L822.97 1286.44Q810.22 1286.44 810.22 1300.46L810.22 1300.46Q810.22 1323.41 845.92 1365.49L845.92 1365.49Q859.95 1380.79 905.85 1380.79L905.85 1380.79Q918.60 1380.79 1118.77 1366.76L1118.77 1366.76L1120.05 1572.04Q964.50 1711.01 802.57 1815.56L802.57 1815.56Q765.60 1839.79 764.32 1860.19L764.32 1860.19Q764.32 1878.04 783.45 1878.04L783.45 1878.04Q854.85 1878.04 1084.35 1714.84L1084.35 1714.84L1120.05 1685.51L1122.60 1990.24Q1063.95 1969.84 991.27 1931.59L991.27 1931.59Q964.50 1917.56 950.47 1917.56L950.47 1917.56Q933.90 1917.56 933.90 1932.86L933.90 1932.86Q933.90 1954.54 994.46 2007.45Q1055.02 2060.36 1107.30 2088.41L1107.30 2088.41Q1135.35 2102.44 1150.65 2102.44ZM771.97 2046.34L771.97 2046.34Q792.37 2046.34 813.41 2029.13Q834.45 2011.91 834.45 1994.06L834.45 1994.06Q834.45 1982.59 819.15 1957.73Q803.85 1932.86 781.54 1900.99Q759.22 1869.11 734.36 1839.79Q709.50 1810.46 689.74 1789.43Q669.97 1768.39 657.22 1768.39L657.22 1768.39Q640.65 1768.39 622.80 1784.96Q604.95 1801.54 604.95 1814.29L604.95 1814.29Q604.95 1825.76 620.25 1846.16L620.25 1846.16Q667.42 1898.44 737.55 2019.56L737.55 2019.56Q754.12 2046.34 771.97 2046.34ZM677.62 1440.71L465.97 1450.91L463.42 1341.26L678.90 1331.06L677.62 1440.71ZM675.07 1644.71L468.52 1654.91L465.97 1532.51L676.35 1522.31L675.07 1644.71ZM680.17 1248.19L462.15 1259.66L460.87 1148.74L681.45 1133.44L680.17 1248.19ZM1850.63 1884.41L2092.88 1878.04L2092.88 1964.74L1858.28 1969.84L1850.63 1884.41ZM2178.30 1875.49L2432.03 1869.11L2419.28 1957.09L2178.30 1962.19L2178.30 1875.49ZM1840.42 1732.69L2094.15 1725.04L2094.15 1800.26L1846.80 1806.64L1840.42 1732.69ZM2179.57 1722.49L2454.98 1713.56L2443.50 1790.06L2179.57 1797.71L2179.57 1722.49ZM1864.65 2073.11L1862.10 2042.51L2488.13 2037.41Q2508.53 2037.41 2525.10 2034.23Q2541.68 2031.04 2541.68 2013.19Q2541.68 1995.34 2505.98 1955.81L2505.98 1955.81L2551.88 1709.74Q2553.15 1705.91 2555.70 1699.54Q2558.25 1693.16 2558.25 1685.51L2558.25 1685.51Q2558.25 1668.94 2539.76 1648.54Q2521.28 1628.14 2488.13 1628.14L2488.13 1628.14L1839.15 1653.64Q1770.30 1628.14 1746.08 1628.14L1746.08 1628.14Q1725.67 1628.14 1725.67 1644.71L1725.67 1644.71Q1725.67 1654.91 1732.05 1665.11L1732.05 1665.11Q1740.97 1684.24 1745.44 1700.81Q1749.90 1717.39 1751.17 1730.14L1751.17 1730.14L1767.75 1954.54Q1769.03 1960.91 1769.03 1967.29Q1769.03 1973.66 1769.03 1980.04L1769.03 1980.04Q1769.03 1994.06 1767.75 2008.09Q1766.47 2022.11 1765.20 2038.69L1765.20 2038.69Q1765.20 2039.96 1764.56 2042.51Q1763.92 2045.06 1763.92 2048.89L1763.92 2048.89Q1763.92 2070.56 1788.79 2087.14Q1813.65 2103.71 1839.15 2103.71Q1864.65 2103.71 1864.65 2075.66L1864.65 2075.66L1864.65 2073.11ZM1953.90 1448.36L2307.07 1431.79L2295.60 1498.09L1961.55 1509.56L1953.90 1448.36ZM1971.75 1589.89L1971.75 1586.06L2364.45 1573.31Q2383.57 1572.04 2398.24 1570.13Q2412.90 1568.21 2412.90 1552.91L2412.90 1552.91Q2412.90 1540.16 2386.13 1505.74L2386.13 1505.74L2405.25 1421.59Q2406.53 1417.76 2409.71 1412.03Q2412.90 1406.29 2412.90 1396.09L2412.90 1396.09Q2412.90 1380.79 2398.24 1367.40Q2383.57 1354.01 2364.45 1354.01L2364.45 1354.01Q2359.35 1354.01 2354.89 1354.65Q2350.43 1355.29 2345.32 1355.29L2345.32 1355.29L1942.43 1373.14Q1913.10 1361.66 1893.34 1357.20Q1873.58 1352.74 1862.10 1352.74L1862.10 1352.74Q1840.42 1352.74 1840.42 1369.31L1840.42 1369.31Q1840.42 1373.14 1846.80 1385.89L1846.80 1385.89Q1859.55 1407.56 1863.38 1438.16L1863.38 1438.16L1873.58 1526.14Q1874.85 1533.79 1875.49 1538.89Q1876.13 1543.99 1876.13 1549.09L1876.13 1549.09Q1876.13 1551.64 1875.49 1554.83Q1874.85 1558.01 1874.85 1563.11L1874.85 1563.11L1874.85 1572.04Q1874.85 1594.99 1892.06 1605.83Q1909.28 1616.66 1924.58 1619.21L1924.58 1619.21L1941.15 1620.49Q1971.75 1620.49 1971.75 1592.44L1971.75 1592.44L1971.75 1589.89ZM1908 1314.49L1908 1314.49L2418 1288.99Q2429.48 1287.71 2439.04 1283.25Q2448.60 1278.79 2448.60 1267.31Q2448.60 1255.84 2437.13 1242.45Q2425.65 1229.06 2412.26 1217.59Q2398.88 1206.11 2388.68 1206.11L2388.68 1206.11Q2386.13 1206.11 2381.66 1206.75Q2377.20 1207.39 2372.10 1208.66L2372.10 1208.66Q2360.63 1211.21 2349.79 1212.49Q2338.95 1213.76 2324.93 1215.04L2324.93 1215.04L1885.05 1237.99L1869.75 1237.99Q1846.80 1237.99 1826.40 1232.89L1826.40 1232.89Q1825.13 1232.89 1823.85 1232.25Q1822.58 1231.61 1818.75 1231.61L1818.75 1231.61Q1807.28 1231.61 1807.28 1243.09L1807.28 1243.09Q1807.28 1271.14 1842.97 1306.84L1842.97 1306.84Q1851.90 1315.76 1876.13 1315.76L1876.13 1315.76Q1882.50 1315.76 1890.15 1315.76Q1897.80 1315.76 1908 1314.49ZM1761.38 1176.79L1761.38 1176.79L2556.98 1134.71Q2548.05 1158.94 2530.84 1192.09Q2513.63 1225.24 2494.50 1254.56L2494.50 1254.56Q2477.93 1280.06 2477.93 1296.64L2477.93 1296.64Q2477.93 1314.49 2494.50 1314.49L2494.50 1314.49Q2509.80 1314.49 2531.48 1295.36Q2553.15 1276.24 2577.38 1248.83Q2601.60 1221.41 2623.91 1192.09Q2646.23 1162.76 2661.53 1139.81L2661.53 1139.81Q2666.63 1132.16 2677.46 1123.88Q2688.30 1115.59 2688.30 1100.29L2688.30 1100.29Q2688.30 1096.46 2682.56 1083.71Q2676.82 1070.96 2660.89 1059.49Q2644.95 1048.01 2616.90 1048.01L2616.90 1048.01L2607.98 1048.01L2184.68 1072.24L2185.95 976.61Q2185.95 952.39 2152.16 939.64Q2118.38 926.89 2087.78 926.89L2087.78 926.89Q2061 926.89 2061 944.74L2061 944.74Q2061 954.94 2067.38 963.86L2067.38 963.86Q2085.22 989.36 2085.22 1009.76L2085.22 1009.76L2086.50 1077.34L1785.60 1093.91L1788.15 1083.71Q1790.70 1068.41 1790.70 1060.76L1790.70 1060.76Q1790.70 1036.54 1755 1026.34L1755 1026.34Q1740.97 1022.51 1729.50 1022.51L1729.50 1022.51Q1705.28 1022.51 1698.90 1054.39L1698.90 1054.39Q1684.88 1115.59 1661.92 1177.42Q1638.97 1239.26 1608.38 1295.36L1608.38 1295.36Q1607.10 1299.19 1605.19 1303.65Q1603.28 1308.11 1603.28 1313.21L1603.28 1313.21Q1603.28 1332.34 1626.86 1346.36Q1650.45 1360.39 1665.75 1360.39L1665.75 1360.39Q1686.15 1360.39 1697.63 1336.16L1697.63 1336.16Q1715.47 1299.19 1732.69 1257.11Q1749.90 1215.04 1761.38 1176.79Z"/>
  </svg>