<svg xmlns="http://www.w3.org/2000/svg" viewBox="0 0 3000 3000" width="3000" height="3000">
    <path fill="#000000" d="M1416 1250L1416 1192L2406 1192L2406 1250L1416 1250ZM2048 2406L2048 718L2108 718L2108 2404Q2108 2452 2092 2473Q2076 2494 2042 2502L2042 2502Q2010 2510 1941 2512Q1872 2514 1752 2514L1752 2514Q1750 2502 1744 2485Q1738 2468 1728 2454L1728 2454Q1828 2456 1903 2456Q1978 2456 2002 2454L2002 2454Q2028 2452 2038 2442Q2048 2432 2048 2406L2048 2406ZM2034 1212L2034 1212L2082 1228Q2014 1424 1910 1609Q1806 1794 1683 1945Q1560 2096 1434 2192L1434 2192Q1426 2180 1413 2167Q1400 2154 1390 2146L1390 2146Q1486 2082 1579 1981Q1672 1880 1757 1755Q1842 1630 1913 1491Q1984 1352 2034 1212ZM832 2084L832 2084L892 2098Q850 2214 784 2325Q718 2436 644 2514L644 2514Q640 2508 630 2500Q620 2492 610 2484Q600 2476 592 2472L592 2472Q668 2398 731 2296Q794 2194 832 2084ZM1128 2112L1128 2112L1176 2084Q1238 2158 1300 2248Q1362 2338 1392 2404L1392 2404L1338 2436Q1306 2370 1246 2278Q1186 2186 1128 2112ZM1282 1232L740 1232L740 1562L1282 1562L1282 1232ZM1282 1620L740 1620L740 1954L1282 1954L1282 1620ZM1282 846L740 846L740 1174L1282 1174L1282 846ZM680 2012L680 788L1342 788L1342 2012L680 2012Z"/>
  </svg>