<svg xmlns="http://www.w3.org/2000/svg" viewBox="0 0 3000 3000" width="3000" height="3000">
    <path fill="#000000" d="M986 1598L986 1050L1046 1050L1046 1598Q1046 1706 1035 1827Q1024 1948 983 2072Q942 2196 858 2310Q774 2424 626 2514L626 2514Q620 2504 608 2490Q596 2476 586 2468L586 2468Q728 2384 809 2276Q890 2168 928 2050Q966 1932 976 1815Q986 1698 986 1598L986 1598ZM1052 2090L1052 2090L1098 2056Q1148 2112 1198 2177Q1248 2242 1291 2302Q1334 2362 1358 2408L1358 2408L1310 2452Q1284 2404 1242 2341Q1200 2278 1151 2212Q1102 2146 1052 2090ZM702 2018L702 824L1302 824L1302 2018L1244 2018L1244 882L762 882L762 2018L702 2018ZM1426 1166L1426 1108L2388 1108L2388 1166L1426 1166ZM2060 2404L2060 712L2120 712L2120 2404Q2120 2450 2105 2471Q2090 2492 2056 2502L2056 2502Q2026 2510 1961 2511Q1896 2512 1794 2512L1794 2512Q1792 2504 1787 2493Q1782 2482 1777 2470Q1772 2458 1766 2448L1766 2448Q1856 2450 1927 2450Q1998 2450 2022 2448L2022 2448Q2044 2446 2052 2438Q2060 2430 2060 2404L2060 2404ZM2056 1122L2056 1122L2106 1148Q2056 1304 1983 1462Q1910 1620 1821 1766Q1732 1912 1634 2034Q1536 2156 1434 2242L1434 2242Q1426 2230 1415 2217Q1404 2204 1392 2194L1392 2194Q1492 2112 1590 1993Q1688 1874 1776 1731Q1864 1588 1936 1432Q2008 1276 2056 1122Z"/>
  </svg>