<svg xmlns="http://www.w3.org/2000/svg" viewBox="0 0 3000 3000" width="3000" height="3000">
    <path fill="#000000" d="M1075.42 975.97L1075.42 975.97Q1088.17 953.02 1135.35 965.77L1135.35 965.77Q1154.47 970.87 1163.40 991.27L1163.40 991.27Q1169.77 1005.30 1171.69 1035.26Q1173.60 1065.22 1174.88 1176.15L1174.88 1176.15Q1174.88 1191.45 1177.42 1194Q1179.97 1196.55 1192.72 1194L1192.72 1194Q1222.05 1188.90 1285.80 1186.35Q1349.55 1183.80 1358.47 1186.35L1358.47 1186.35Q1389.07 1197.82 1394.81 1220.14Q1400.55 1242.45 1378.88 1266.67L1378.88 1266.67Q1364.85 1281.97 1350.19 1284.53Q1335.52 1287.07 1303.65 1276.88L1303.65 1276.88Q1284.52 1271.78 1244.36 1267.95Q1204.20 1264.13 1194 1267.95L1194 1267.95Q1186.35 1271.78 1186.35 1278.79Q1186.35 1285.80 1195.27 1289.63L1195.27 1289.63Q1205.47 1294.72 1230.34 1331.70Q1255.20 1368.67 1255.20 1378.88L1255.20 1378.88Q1255.20 1391.63 1222.05 1422.22L1222.05 1422.22L1187.63 1452.82L1187.63 1491.07Q1182.52 1660.65 1182.52 1696.35Q1182.52 1732.05 1188.90 1762.65L1188.90 1762.65Q1197.82 1802.17 1192.72 1854.45L1192.72 1854.45Q1181.25 1957.72 1171.05 1967.92L1171.05 1967.92Q1165.95 1974.30 1165.95 1984.50Q1165.95 1994.70 1150.01 2020.20Q1134.07 2045.70 1134.07 2052.07Q1134.07 2058.45 1111.76 2078.85Q1089.45 2099.25 1077.97 2103.07L1077.97 2103.07Q1060.13 2109.45 1052.47 2106.26Q1044.82 2103.07 1038.45 2087.78L1038.45 2087.78Q1029.52 2068.65 1005.30 2052.07Q981.07 2035.50 981.07 2027.21Q981.07 2018.92 964.50 2011.28L964.50 2011.28Q923.70 1993.42 923.70 1971.75L923.70 1971.75Q923.70 1964.10 930.71 1962.83Q937.72 1961.55 969.60 1961.55L969.60 1961.55Q1012.95 1961.55 1026.97 1953.26Q1041 1944.97 1055.02 1911.83L1055.02 1911.83Q1067.77 1882.50 1072.24 1841.06Q1076.70 1799.63 1071.60 1716.75L1071.60 1716.75L1069.05 1638.97L1055.02 1640.25Q1039.72 1644.08 1020.60 1667.66Q1001.47 1691.25 981.07 1711.01Q960.67 1730.78 960.67 1737.15L960.67 1737.15Q960.67 1740.97 939.00 1760.74Q917.32 1780.50 907.76 1785.60Q898.20 1790.70 898.20 1797.08Q898.20 1803.45 880.99 1814.29Q863.77 1825.13 837.00 1845.53L837.00 1845.53Q808.95 1868.47 757.95 1902.26Q706.95 1936.05 676.35 1953.90L676.35 1953.90Q630.45 1976.85 625.99 1971.75Q621.52 1966.65 659.77 1930.95L659.77 1930.95Q690.37 1904.17 690.37 1894.61Q690.37 1885.05 661.05 1865.92L661.05 1865.92Q635.55 1846.80 627.26 1828.31Q618.97 1809.83 594.75 1788.15L594.75 1788.15Q562.87 1756.28 553.95 1756.91Q545.02 1757.55 509.32 1793.25L509.32 1793.25Q464.70 1835.33 407.32 1877.40L407.32 1877.40L338.47 1922.03Q329.55 1929.67 329.55 1923.30L329.55 1923.30Q332.10 1905.45 384.37 1845.53L384.37 1845.53Q399.67 1827.67 399.67 1823.85Q399.67 1820.03 431.55 1774.13Q463.42 1728.22 463.42 1723.76Q463.42 1719.30 450.67 1724.40L450.67 1724.40Q437.92 1726.95 419.44 1719.94Q400.95 1712.92 395.85 1700.17L395.85 1700.17Q385.65 1673.40 398.40 1596.90L398.40 1596.90Q403.50 1565.03 409.87 1531.88L409.87 1531.88Q413.70 1503.82 420.07 1417.76Q426.45 1331.70 426.45 1312.57L426.45 1312.57Q425.17 1288.35 440.47 1190.17L440.47 1190.17Q445.57 1168.50 453.22 1168.50Q460.87 1168.50 472.99 1191.45Q485.10 1214.40 481.27 1245.64Q477.45 1276.88 476.17 1339.99Q474.90 1403.10 470.44 1468.76Q465.97 1534.42 465.97 1547.17L465.97 1547.17Q465.97 1565.03 472.35 1626.22Q478.72 1687.42 481.27 1688.70L481.27 1688.70Q481.27 1688.70 483.82 1686.15Q486.37 1683.60 488.92 1677.86Q491.47 1672.13 494.02 1664.47L494.02 1664.47Q527.17 1589.25 555.22 1363.57L555.22 1363.57Q557.77 1344.45 571.80 1335.53L571.80 1335.53Q583.27 1329.15 587.74 1329.15Q592.20 1329.15 604.95 1338.07L604.95 1338.07Q630.45 1353.38 636.82 1368.67Q643.20 1383.97 643.20 1423.50L643.20 1423.50Q644.47 1478.32 621.52 1573.95L621.52 1573.95Q615.15 1609.65 615.15 1617.94Q615.15 1626.22 610.05 1635.15L610.05 1635.15Q604.95 1646.63 591.56 1679.14Q578.17 1711.65 579.45 1712.92L579.45 1712.92Q580.72 1712.92 627.90 1723.13L627.90 1723.13Q715.87 1739.70 760.50 1780.50L760.50 1780.50Q780.90 1799.63 784.72 1799.63Q788.55 1799.63 806.40 1780.50Q824.25 1761.38 840.82 1738.42L840.82 1738.42L937.72 1614.75Q975.97 1563.75 975.97 1559.29Q975.97 1554.82 984.26 1551Q992.55 1547.17 992.55 1540.16Q992.55 1533.15 1001.47 1525.50L1001.47 1525.50Q1014.22 1514.03 1042.27 1473.86Q1070.32 1433.70 1069.05 1428.60L1069.05 1428.60Q1066.50 1422.22 1065.86 1354.65Q1065.22 1287.07 1060.13 1279.42L1060.13 1279.42Q1053.75 1269.22 976.61 1287.71Q899.47 1306.20 861.22 1326.60L861.22 1326.60Q848.47 1332.97 819.15 1330.42L819.15 1330.42L788.55 1327.88L788.55 1403.10Q787.27 1658.10 789.82 1663.20L789.82 1663.20Q794.92 1670.85 789.19 1693.80Q783.45 1716.75 775.80 1728.22L775.80 1728.22L763.05 1742.25L737.55 1726.95Q692.92 1702.72 692.92 1691.25L692.92 1691.25Q692.92 1686.15 677.62 1668.30L677.62 1668.30L659.77 1651.72L661.05 1587.97Q663.60 1522.95 665.51 1494.90Q667.42 1466.85 669.97 1289.63L669.97 1289.63L672.52 1112.40L627.90 1112.40Q580.72 1112.40 562.24 1121.96Q543.75 1131.52 525.26 1134.71Q506.77 1137.90 494.02 1149.38L494.02 1149.38Q485.10 1159.57 467.89 1159.57Q450.67 1159.57 439.20 1149.38L439.20 1149.38L426.45 1140.45L443.02 1125.15Q472.35 1099.65 502.95 1092L502.95 1092Q523.35 1086.90 544.39 1079.25Q565.42 1071.60 620.25 1067.77L620.25 1067.77Q664.87 1065.22 692.92 1069.69Q720.97 1074.15 759.22 1089.45L759.22 1089.45Q788.55 1102.20 794.29 1113.67Q800.02 1125.15 798.75 1173.60L798.75 1173.60Q798.75 1229.70 793.65 1247.55L793.65 1247.55Q788.55 1261.57 792.37 1266.67Q796.20 1271.78 807.67 1265.40L807.67 1265.40Q822.97 1256.47 887.36 1240.54Q951.75 1224.60 993.82 1219.50L993.82 1219.50L1057.57 1209.30L1057.57 1183.80Q1058.85 1157.02 1062.67 1073.51Q1066.50 990.00 1075.42 975.97ZM2066.10 1677.22L2066.10 1677.22Q2115.82 1669.58 2220.38 1675.31Q2324.93 1681.05 2354.25 1692.53L2354.25 1692.53Q2377.20 1701.45 2406.53 1709.74Q2435.85 1718.03 2440.95 1725.67L2440.95 1725.67Q2451.15 1737.15 2451.15 1762.01Q2451.15 1786.88 2442.23 1804.72L2442.23 1804.72L2425.65 1842.97Q2419.28 1858.28 2418 1888.88L2418 1888.88Q2415.45 1916.92 2407.80 1951.35Q2400.15 1985.78 2393.78 1993.42Q2387.40 2001.08 2377.84 2020.20Q2368.28 2039.33 2326.84 2082.04Q2285.40 2124.75 2275.20 2126.03L2275.20 2126.03Q2254.80 2128.57 2247.15 2124.75Q2239.50 2120.93 2233.13 2103.07L2233.13 2103.07Q2221.65 2080.13 2217.19 2080.13Q2212.72 2080.13 2204.44 2064.82Q2196.15 2049.53 2196.15 2039.33L2196.15 2039.33Q2196.15 2027.85 2180.85 2022.75Q2165.55 2017.65 2119.65 2015.10L2119.65 2015.10Q2081.40 2013.83 2066.74 2015.10Q2052.07 2016.38 2024.03 2027.85L2024.03 2027.85L1981.95 2043.15L1973.03 2069.93Q1961.55 2105.63 1943.70 2104.99Q1925.85 2104.35 1908 2067.38L1908 2067.38Q1895.25 2040.60 1879.95 1967.29Q1864.65 1893.97 1854.45 1823.85L1854.45 1823.85Q1850.63 1788.15 1841.70 1779.22L1841.70 1779.22Q1831.50 1767.75 1836.60 1750.54Q1841.70 1733.33 1855.72 1733.33L1855.72 1733.33Q1868.47 1733.33 1885.05 1723.13L1885.05 1723.13Q1924.58 1698.90 2066.10 1677.22ZM2206.35 1737.15L2206.35 1737.15Q2159.18 1726.95 2149.61 1728.22Q2140.05 1729.50 2141.32 1744.80L2141.32 1744.80Q2142.60 1756.28 2146.43 1759.46Q2150.25 1762.65 2163 1769.03L2163 1769.03Q2180.85 1774.13 2188.50 1782.41Q2196.15 1790.70 2198.70 1808.55L2198.70 1808.55Q2201.25 1826.40 2192.96 1835.96Q2184.68 1845.53 2166.82 1845.53L2166.82 1845.53Q2141.32 1845.53 2141.32 1885.05L2141.32 1885.05Q2140.05 1899.08 2132.40 1909.28L2132.40 1909.28Q2123.47 1923.30 2127.94 1927.76Q2132.40 1932.22 2157.90 1934.78L2157.90 1934.78Q2188.50 1937.33 2201.89 1951.99Q2215.28 1966.65 2218.46 1980.04Q2221.65 1993.42 2228.66 1993.42Q2235.68 1993.42 2247.15 1983.86Q2258.63 1974.30 2265 1962.83L2265 1962.83Q2285.40 1927.13 2293.05 1897.80Q2300.70 1868.47 2300.70 1825.13L2300.70 1825.13Q2300.70 1784.33 2281.57 1765.20Q2262.45 1746.08 2206.35 1737.15ZM2048.25 1757.55L2048.25 1757.55Q2048.25 1742.25 2046.97 1738.42Q2045.70 1734.60 2040.60 1734.60L2040.60 1734.60L2010 1737.15Q1976.85 1739.70 1947.53 1748.63Q1918.20 1757.55 1908 1769.03L1908 1769.03Q1899.08 1777.95 1897.16 1786.24Q1895.25 1794.53 1899.08 1825.13L1899.08 1825.13Q1901.63 1868.47 1908 1893.97L1908 1893.97L1920.75 1941.15Q1925.85 1961.55 1936.05 1974.30L1936.05 1974.30L1944.97 1984.50L1973.03 1971.75Q1999.80 1959 2012.55 1953.90L2012.55 1953.90Q2029.13 1950.08 2034.22 1941.79Q2039.33 1933.50 2039.33 1906.72L2039.33 1906.72Q2039.33 1871.03 2036.78 1871.03Q2034.22 1871.03 2017.65 1878.67L2017.65 1878.67Q1995.98 1890.15 1963.46 1882.50Q1930.95 1874.85 1930.95 1858.28L1930.95 1858.28Q1930.95 1848.08 1952.63 1830.22Q1974.30 1812.38 1994.70 1806L1994.70 1806Q2024.03 1794.53 2030.40 1794.53L2030.40 1794.53Q2048.25 1794.53 2048.25 1757.55ZM2112 1382.70L2112 1382.70Q2152.80 1377.60 2194.24 1378.88Q2235.68 1380.15 2247.15 1389.07L2247.15 1389.07Q2258.63 1396.72 2265.64 1396.72Q2272.65 1396.72 2289.23 1405.01Q2305.80 1413.30 2309.63 1418.40L2309.63 1418.40Q2314.73 1426.05 2313.45 1445.81Q2312.18 1465.57 2305.80 1479.60L2305.80 1479.60Q2299.43 1497.45 2284.13 1500.64Q2268.82 1503.82 2262.45 1511.47Q2256.07 1519.13 2250.97 1519.13Q2245.88 1519.13 2234.40 1533.15L2234.40 1533.15Q2226.75 1543.35 2225.47 1546.54Q2224.20 1549.72 2230.57 1562.47L2230.57 1562.47Q2239.50 1579.05 2238.22 1598.81Q2236.95 1618.58 2226.75 1626.86Q2216.55 1635.15 2205.07 1635.79Q2193.60 1636.42 2165.55 1627.50L2165.55 1627.50Q2109.45 1613.47 2066.10 1630.05L2066.10 1630.05Q2045.70 1636.42 2036.78 1636.42Q2027.85 1636.42 2025.30 1644.08Q2022.75 1651.72 2013.19 1651.72Q2003.63 1651.72 1995.98 1642.80L1995.98 1642.80Q1988.33 1633.88 1954.54 1564.39Q1920.75 1494.90 1913.10 1475.77L1913.10 1475.77Q1910.55 1464.30 1920.11 1457.29Q1929.68 1450.28 1928.40 1445.17L1928.40 1445.17Q1925.85 1437.53 1935.41 1430.51Q1944.97 1423.50 1967.93 1415.85L1967.93 1415.85Q2049.53 1391.63 2112 1382.70ZM2170.65 1446.45L2170.65 1446.45Q2170.65 1441.35 2165.55 1439.44Q2160.45 1437.53 2142.60 1437.53L2142.60 1437.53Q2090.32 1440.07 2034.22 1455.38L2034.22 1455.38Q1988.33 1469.40 1980.68 1479.60Q1973.03 1489.80 1988.33 1521.67L1988.33 1521.67Q2003.63 1552.28 2012.55 1562.47L2012.55 1562.47Q2020.20 1568.85 2024.03 1568.85Q2027.85 1568.85 2039.33 1563.75L2039.33 1563.75Q2057.18 1556.10 2082.04 1553.55Q2106.90 1551 2111.36 1542.07Q2115.82 1533.15 2128.57 1522.95Q2141.32 1512.75 2141.32 1507.01Q2141.32 1501.28 2155.99 1478.32Q2170.65 1455.38 2170.65 1446.45ZM2117.10 1248.82L2117.10 1248.82Q2180.85 1243.72 2201.25 1244.36Q2221.65 1245 2230.57 1253.92L2230.57 1253.92Q2240.78 1262.85 2247.15 1281.34Q2253.53 1299.82 2245.88 1312.57L2245.88 1312.57Q2230.57 1336.80 2199.97 1329.15L2199.97 1329.15Q2188.50 1326.60 2158.54 1318.95Q2128.57 1311.30 2096.70 1315.13L2096.70 1315.13Q2073.75 1317.67 2049.53 1328.51Q2025.30 1339.35 2020.20 1345.72L2020.20 1345.72Q2015.10 1352.10 2000.44 1349.55Q1985.78 1347 1975.58 1338.07L1975.58 1338.07Q1961.55 1326.60 1961.55 1322.14Q1961.55 1317.67 1959 1306.84Q1956.45 1296 1962.83 1290.90L1962.83 1290.90Q1974.30 1280.70 2029.13 1266.67Q2083.95 1252.65 2117.10 1248.82ZM1992.15 963.22L2003.63 950.47Q2013.83 941.55 2025.94 941.55Q2038.05 941.55 2080.13 954.30L2080.13 954.30Q2155.35 977.25 2154.07 1039.72L2154.07 1039.72Q2154.07 1093.27 2171.93 1098.38L2171.93 1098.38Q2183.40 1100.92 2230.57 1103.47L2230.57 1103.47Q2296.88 1107.30 2384.85 1122.60Q2472.82 1137.90 2503.43 1150.65L2503.43 1150.65Q2532.75 1162.13 2542.95 1162.13L2542.95 1162.13Q2550.60 1162.13 2564.63 1174.88Q2578.65 1187.63 2586.30 1202.92Q2593.95 1218.22 2591.40 1239.90L2591.40 1239.90Q2585.03 1275.60 2572.28 1291.54Q2559.53 1307.47 2531.48 1312.57L2531.48 1312.57Q2512.35 1315.13 2486.85 1299.19Q2461.35 1283.25 2449.88 1287.71Q2438.40 1292.17 2430.75 1292.81Q2423.10 1293.45 2400.15 1303.65L2400.15 1303.65Q2370.82 1313.85 2370.82 1304.92L2370.82 1304.92Q2369.55 1297.28 2391.23 1269.22L2391.23 1269.22Q2416.73 1233.53 2418 1216.95L2418 1216.95Q2418 1205.47 2413.54 1201.01Q2409.07 1196.55 2384.85 1188.90L2384.85 1188.90Q2351.70 1177.42 2337.68 1177.42Q2323.65 1177.42 2291.78 1169.77L2291.78 1169.77Q2266.28 1164.67 2214.64 1159.57Q2163 1154.47 2141.32 1155.75L2141.32 1155.75Q2123.47 1157.02 2081.40 1157.02L2081.40 1157.02Q2024.03 1155.75 1939.24 1179.97Q1854.45 1204.20 1834.05 1225.88L1834.05 1225.88Q1826.40 1236.07 1820.66 1262.85Q1814.92 1289.63 1814.92 1315.13L1814.92 1315.13Q1814.92 1358.47 1771.58 1395.45L1771.58 1395.45Q1747.35 1417.13 1725.67 1417.13Q1704 1417.13 1696.35 1395.45L1696.35 1395.45Q1689.97 1378.88 1686.15 1330.42L1686.15 1330.42L1682.33 1281.97L1702.72 1251.38Q1723.13 1220.77 1728.86 1215.04Q1734.60 1209.30 1749.90 1190.17Q1765.20 1171.05 1779.22 1154.47L1779.22 1154.47L1791.97 1139.17L1806 1151.92L1818.75 1164.67L1865.92 1148.10Q1913.10 1132.80 1961.55 1123.88L1961.55 1123.88Q2011.28 1114.95 2019.56 1109.85Q2027.85 1104.75 2021.47 1086.90L2021.47 1086.90Q2012.55 1067.77 2003.63 1015.50L2003.63 1015.50L1992.15 963.22Z"/>
  </svg>