<svg xmlns="http://www.w3.org/2000/svg" viewBox="0 0 3000 3000" width="3000" height="3000">
    <path fill="#000000" d="M1834 678L1834 678Q1854 642 1928 662L1928 662Q1958 670 1972 702L1972 702Q1982 724 1985 771Q1988 818 1990 992L1990 992Q1990 1016 1994 1020Q1998 1024 2018 1020L2018 1020Q2064 1012 2164 1008Q2264 1004 2278 1008L2278 1008Q2326 1026 2335 1061Q2344 1096 2310 1134L2310 1134Q2288 1158 2265 1162Q2242 1166 2192 1150L2192 1150Q2162 1142 2099 1136Q2036 1130 2020 1136L2020 1136Q2008 1142 2008 1153Q2008 1164 2022 1170L2022 1170Q2038 1178 2077 1236Q2116 1294 2116 1310L2116 1310Q2116 1330 2064 1378L2064 1378L2010 1426L2010 1486Q2002 1752 2002 1808Q2002 1864 2012 1912L2012 1912Q2026 1974 2018 2056L2018 2056Q2000 2218 1984 2234L1984 2234Q1976 2244 1976 2260Q1976 2276 1951 2316Q1926 2356 1926 2366Q1926 2376 1891 2408Q1856 2440 1838 2446L1838 2446Q1810 2456 1798 2451Q1786 2446 1776 2422L1776 2422Q1762 2392 1724 2366Q1686 2340 1686 2327Q1686 2314 1660 2302L1660 2302Q1596 2274 1596 2240L1596 2240Q1596 2228 1607 2226Q1618 2224 1668 2224L1668 2224Q1736 2224 1758 2211Q1780 2198 1802 2146L1802 2146Q1822 2100 1829 2035Q1836 1970 1828 1840L1828 1840L1824 1718L1802 1720Q1778 1726 1748 1763Q1718 1800 1686 1831Q1654 1862 1654 1872L1654 1872Q1654 1878 1620 1909Q1586 1940 1571 1948Q1556 1956 1556 1966Q1556 1976 1529 1993Q1502 2010 1460 2042L1460 2042Q1416 2078 1336 2131Q1256 2184 1208 2212L1208 2212Q1136 2248 1129 2240Q1122 2232 1182 2176L1182 2176Q1230 2134 1230 2119Q1230 2104 1184 2074L1184 2074Q1144 2044 1131 2015Q1118 1986 1080 1952L1080 1952Q1030 1902 1016 1903Q1002 1904 946 1960L946 1960Q876 2026 786 2092L786 2092L678 2162Q664 2174 664 2164L664 2164Q668 2136 750 2042L750 2042Q774 2014 774 2008Q774 2002 824 1930Q874 1858 874 1851Q874 1844 854 1852L854 1852Q834 1856 805 1845Q776 1834 768 1814L768 1814Q752 1772 772 1652L772 1652Q780 1602 790 1550L790 1550Q796 1506 806 1371Q816 1236 816 1206L816 1206Q814 1168 838 1014L838 1014Q846 980 858 980Q870 980 889 1016Q908 1052 902 1101Q896 1150 894 1249Q892 1348 885 1451Q878 1554 878 1574L878 1574Q878 1602 888 1698Q898 1794 902 1796L902 1796Q902 1796 906 1792Q910 1788 914 1779Q918 1770 922 1758L922 1758Q974 1640 1018 1286L1018 1286Q1022 1256 1044 1242L1044 1242Q1062 1232 1069 1232Q1076 1232 1096 1246L1096 1246Q1136 1270 1146 1294Q1156 1318 1156 1380L1156 1380Q1158 1466 1122 1616L1122 1616Q1112 1672 1112 1685Q1112 1698 1104 1712L1104 1712Q1096 1730 1075 1781Q1054 1832 1056 1834L1056 1834Q1058 1834 1132 1850L1132 1850Q1270 1876 1340 1940L1340 1940Q1372 1970 1378 1970Q1384 1970 1412 1940Q1440 1910 1466 1874L1466 1874L1618 1680Q1678 1600 1678 1593Q1678 1586 1691 1580Q1704 1574 1704 1563Q1704 1552 1718 1540L1718 1540Q1738 1522 1782 1459Q1826 1396 1824 1388L1824 1388Q1820 1378 1819 1272Q1818 1166 1810 1154L1810 1154Q1800 1138 1679 1167Q1558 1196 1498 1228L1498 1228Q1478 1238 1432 1234L1432 1234L1384 1230L1384 1348Q1382 1748 1386 1756L1386 1756Q1394 1768 1385 1804Q1376 1840 1364 1858L1364 1858L1344 1880L1304 1856Q1234 1818 1234 1800L1234 1800Q1234 1792 1210 1764L1210 1764L1182 1738L1184 1638Q1188 1536 1191 1492Q1194 1448 1198 1170L1198 1170L1202 892L1132 892Q1058 892 1029 907Q1000 922 971 927Q942 932 922 950L922 950Q908 966 881 966Q854 966 836 950L836 950L816 936L842 912Q888 872 936 860L936 860Q968 852 1001 840Q1034 828 1120 822L1120 822Q1190 818 1234 825Q1278 832 1338 856L1338 856Q1384 876 1393 894Q1402 912 1400 988L1400 988Q1400 1076 1392 1104L1392 1104Q1384 1126 1390 1134Q1396 1142 1414 1132L1414 1132Q1438 1118 1539 1093Q1640 1068 1706 1060L1706 1060L1806 1044L1806 1004Q1808 962 1814 831Q1820 700 1834 678Z"/>
  </svg>