<svg xmlns="http://www.w3.org/2000/svg" viewBox="0 0 3000 3000" width="3000" height="3000">
    <path fill="#000000" d="M534.82 1562.47L534.82 1213.13L573.07 1213.13L573.07 1562.47Q573.07 1631.33 566.06 1708.46Q559.05 1785.60 532.91 1864.65Q506.77 1943.70 453.22 2016.38Q399.67 2089.05 305.32 2146.43L305.32 2146.43Q301.50 2140.05 293.85 2131.13Q286.20 2122.20 279.82 2117.10L279.82 2117.10Q370.35 2063.55 421.99 1994.70Q473.62 1925.85 497.85 1850.63Q522.07 1775.40 528.45 1700.81Q534.82 1626.22 534.82 1562.47L534.82 1562.47ZM576.90 1876.13L576.90 1876.13L606.22 1854.45Q638.10 1890.15 669.97 1931.59Q701.85 1973.03 729.26 2011.28Q756.67 2049.53 771.97 2078.85L771.97 2078.85L741.37 2106.90Q724.80 2076.30 698.02 2036.14Q671.25 1995.98 640.01 1953.90Q608.77 1911.83 576.90 1876.13ZM353.77 1830.23L353.77 1069.05L736.27 1069.05L736.27 1830.23L699.30 1830.23L699.30 1106.03L392.02 1106.03L392.02 1830.23L353.77 1830.23ZM815.32 1287.08L815.32 1250.10L1428.60 1250.10L1428.60 1287.08L815.32 1287.08ZM1219.50 2076.30L1219.50 997.65L1257.75 997.65L1257.75 2076.30Q1257.75 2105.63 1248.19 2119.01Q1238.63 2132.40 1216.95 2138.78L1216.95 2138.78Q1197.82 2143.88 1156.39 2144.51Q1114.95 2145.15 1049.92 2145.15L1049.92 2145.15Q1048.65 2140.05 1045.46 2133.04Q1042.27 2126.03 1039.09 2118.38Q1035.90 2110.72 1032.07 2104.35L1032.07 2104.35Q1089.45 2105.63 1134.71 2105.63Q1179.97 2105.63 1195.27 2104.35L1195.27 2104.35Q1209.30 2103.08 1214.40 2097.97Q1219.50 2092.88 1219.50 2076.30L1219.50 2076.30ZM1216.95 1259.03L1216.95 1259.03L1248.82 1275.60Q1216.95 1375.05 1170.41 1475.78Q1123.88 1576.50 1067.14 1669.58Q1010.40 1762.65 947.92 1840.43Q885.45 1918.20 820.42 1973.03L820.42 1973.03Q815.32 1965.38 808.31 1957.09Q801.30 1948.80 793.65 1942.43L793.65 1942.43Q857.40 1890.15 919.87 1814.29Q982.35 1738.43 1038.45 1647.26Q1094.55 1556.10 1140.45 1456.65Q1186.35 1357.20 1216.95 1259.03ZM2113.28 2071.20L2113.28 1721.85L2151.53 1721.85L2151.53 2071.20L2113.28 2071.20ZM1756.28 1296L1756.28 1259.03L2522.55 1259.03L2522.55 1296L1756.28 1296ZM2440.95 1429.88L1832.78 1429.88L1832.78 1562.47L2440.95 1562.47L2440.95 1429.88ZM1794.53 1599.45L1794.53 1391.63L2479.20 1391.63L2479.20 1599.45L1794.53 1599.45ZM1718.03 2147.70L1718.03 1700.18L2573.55 1700.18L2573.55 2138.78L2536.57 2138.78L2536.57 1737.15L1755 1737.15L1755 2147.70L1718.03 2147.70ZM1742.25 1913.10L1742.25 1876.13L2564.63 1876.13L2564.63 1913.10L1742.25 1913.10ZM1744.80 2094.15L1744.80 2057.18L2560.80 2057.18L2560.80 2094.15L1744.80 2094.15ZM1614.75 1318.95L1614.75 1113.67L2664.07 1113.67L2664.07 1318.95L2625.82 1318.95L2625.82 1150.65L1653 1150.65L1653 1318.95L1614.75 1318.95ZM2062.28 1002.75L2062.28 1002.75L2096.70 987.45Q2120.93 1020.60 2145.79 1059.49Q2170.65 1098.38 2183.40 1125.15L2183.40 1125.15L2147.70 1143Q2134.95 1114.95 2110.72 1074.79Q2086.50 1034.63 2062.28 1002.75Z"/>
  </svg>