<svg xmlns="http://www.w3.org/2000/svg" viewBox="0 0 3000 3000" width="3000" height="3000">
    <path fill="#000000" d="M903.30 1823.21L1055.02 1816.84L1053.75 1941.79L909.67 1945.61L903.30 1823.21ZM1139.17 1814.29L1306.20 1807.91L1296.00 1935.41L1137.90 1939.24L1139.17 1814.29ZM894.37 1639.61L1056.30 1631.96L1055.02 1739.06L900.75 1746.71L894.37 1639.61ZM1140.45 1628.14L1321.50 1619.21L1312.57 1730.14L1139.17 1736.51L1140.45 1628.14ZM914.77 2050.16L913.50 2028.49L1376.32 2017.01Q1392.90 2015.74 1405.65 2013.19Q1418.40 2010.64 1418.40 1996.61L1418.40 1996.61Q1418.40 1981.31 1380.15 1939.24L1380.15 1939.24L1415.85 1615.39Q1417.13 1610.29 1419.04 1603.91Q1420.95 1597.54 1420.95 1589.89L1420.95 1589.89Q1420.95 1564.39 1399.91 1550.36Q1378.88 1536.34 1366.13 1536.34L1366.13 1536.34L1355.92 1536.34L885.45 1559.29Q856.12 1549.09 837.00 1544.63Q817.87 1540.16 806.40 1540.16L806.40 1540.16Q786.00 1540.16 786.00 1555.46L786.00 1555.46Q786.00 1560.56 792.37 1573.31L792.37 1573.31Q800.02 1588.61 803.85 1603.91Q807.67 1619.21 808.95 1642.16L808.95 1642.16L825.52 1957.09L825.52 1969.84Q825.52 1983.86 824.89 1996.61Q824.25 2009.36 822.97 2023.39L822.97 2023.39L822.97 2031.04Q822.97 2056.54 839.55 2069.29Q856.12 2082.04 872.70 2085.86L872.70 2085.86L888.00 2089.69Q914.77 2089.69 914.77 2055.26L914.77 2055.26L914.77 2050.16ZM321.90 1967.29L321.90 1967.29Q335.92 1967.29 358.24 1928.40Q380.55 1889.51 404.77 1821.94Q429.00 1754.36 446.21 1664.48Q463.42 1574.59 467.25 1468.76L467.25 1468.76Q467.25 1449.64 460.24 1440.08Q453.22 1430.51 425.17 1421.59L425.17 1421.59Q400.95 1413.94 385.65 1413.94L385.65 1413.94Q362.70 1413.94 362.70 1430.51L362.70 1430.51Q362.70 1433.06 365.25 1441.99L365.25 1441.99Q371.62 1454.74 372.90 1466.21Q374.17 1477.69 374.17 1490.44L374.17 1490.44Q372.90 1588.61 356.32 1701.45Q339.75 1814.29 310.42 1916.29L310.42 1916.29Q309.15 1925.21 307.24 1931.59Q305.32 1937.96 305.32 1944.34L305.32 1944.34Q305.32 1967.29 321.90 1967.29ZM654.67 1478.96L654.67 1478.96L653.40 1765.84Q653.40 1796.44 645.75 1830.86L645.75 1830.86Q644.47 1835.96 643.84 1842.34Q643.20 1848.71 643.20 1852.54L643.20 1852.54Q643.20 1874.21 659.77 1885.05Q676.35 1895.89 691.65 1899.71L691.65 1899.71L705.67 1902.26Q737.55 1902.26 737.55 1871.66L737.55 1871.66L741.37 1450.91Q741.37 1431.79 724.80 1420.31Q708.22 1408.84 689.74 1404.38Q671.25 1399.91 659.77 1399.91L659.77 1399.91Q636.82 1399.91 636.82 1416.49L636.82 1416.49Q636.82 1424.14 641.92 1431.79L641.92 1431.79Q648.30 1443.26 651.49 1456.01Q654.67 1468.76 654.67 1478.96ZM968.32 1286.44L1227.15 1269.86L1214.40 1384.61L978.52 1398.64L968.32 1286.44ZM403.50 1342.54L511.87 1334.89L502.95 1953.26Q502.95 1971.11 502.31 1988.96Q501.67 2006.81 497.85 2022.11L497.85 2022.11Q496.57 2027.21 495.94 2032.31Q495.30 2037.41 495.30 2041.24L495.30 2041.24Q495.30 2060.36 511.24 2071.84Q527.17 2083.31 545.02 2089.05Q562.87 2094.79 570.52 2094.79L570.52 2094.79Q597.30 2094.79 597.30 2059.09L597.30 2059.09L601.12 1329.79L774.52 1318.31Q789.82 1317.04 801.30 1311.94Q812.77 1306.84 812.77 1294.09Q812.77 1281.34 799.39 1266.04Q786.00 1250.74 768.79 1239.26Q751.57 1227.79 738.82 1227.79L738.82 1227.79Q729.90 1227.79 724.80 1229.06L724.80 1229.06Q712.05 1234.16 698.02 1236.08Q684.00 1237.99 671.25 1239.26L671.25 1239.26L378.00 1259.66L366.52 1259.66Q352.50 1259.66 339.75 1257.75Q327.00 1255.84 315.52 1253.29L315.52 1253.29Q310.42 1252.01 302.77 1252.01L302.77 1252.01Q286.20 1252.01 286.20 1267.31L286.20 1267.31Q286.20 1269.86 288.75 1278.79L288.75 1278.79Q311.70 1327.24 330.19 1336.16Q348.67 1345.09 362.70 1345.09L362.70 1345.09Q370.35 1345.09 380.55 1344.45Q390.75 1343.81 403.50 1342.54L403.50 1342.54ZM984.90 1482.79L984.90 1477.69L1281.97 1462.39Q1298.55 1461.11 1312.57 1458.56Q1326.60 1456.01 1326.60 1440.71L1326.60 1440.71Q1326.60 1424.14 1299.82 1392.26L1299.82 1392.26L1322.77 1260.94Q1324.05 1254.56 1326.60 1247.55Q1329.15 1240.54 1329.15 1232.25Q1329.15 1223.96 1314.49 1204.84Q1299.82 1185.71 1276.87 1185.71L1276.87 1185.71Q1274.32 1185.71 1270.50 1186.35Q1266.67 1186.99 1262.85 1186.99L1262.85 1186.99L956.85 1206.11Q924.97 1195.91 904.57 1192.09Q884.17 1188.26 872.70 1188.26L872.70 1188.26Q851.02 1188.26 851.02 1203.56L851.02 1203.56Q851.02 1212.49 859.95 1223.96L859.95 1223.96Q867.60 1236.71 872.70 1249.46Q877.80 1262.21 879.07 1278.79L879.07 1278.79L894.37 1420.31Q894.37 1425.41 895.01 1429.24Q895.65 1433.06 895.65 1438.16Q895.65 1443.26 895.01 1449Q894.37 1454.74 893.10 1463.66L893.10 1463.66L893.10 1468.76Q893.10 1485.34 906.49 1496.18Q919.87 1507.01 935.17 1512.75Q950.47 1518.49 958.12 1518.49L958.12 1518.49Q984.90 1518.49 984.90 1482.79L984.90 1482.79ZM468.52 1155.11L468.52 1155.11L713.32 1137.26Q727.35 1135.99 738.19 1130.25Q749.02 1124.51 749.02 1111.76Q749.02 1099.01 735.64 1084.35Q722.25 1069.69 705.04 1059.49Q687.82 1049.29 672.52 1049.29L672.52 1049.29Q664.87 1049.29 659.77 1051.84L659.77 1051.84Q649.57 1055.66 637.46 1057.58Q625.35 1059.49 612.60 1060.76L612.60 1060.76L443.02 1073.51L432.82 1073.51Q421.35 1073.51 407.32 1071.60Q393.30 1069.69 380.55 1068.41L380.55 1068.41Q376.72 1067.14 371.62 1067.14L371.62 1067.14Q356.32 1067.14 356.32 1082.44L356.32 1082.44Q356.32 1090.09 367.16 1109.85Q378.00 1129.61 399.67 1148.74L399.67 1148.74Q409.87 1156.39 434.10 1156.39L434.10 1156.39Q440.47 1156.39 449.40 1156.39Q458.32 1156.39 468.52 1155.11ZM895.65 1139.81L895.65 1139.81L1361.02 1107.94Q1399.27 1105.39 1399.27 1079.89L1399.27 1079.89Q1399.27 1072.24 1388.44 1057.58Q1377.60 1042.91 1362.30 1029.53Q1347 1016.14 1331.70 1016.14L1331.70 1016.14Q1327.88 1016.14 1324.05 1016.77Q1320.22 1017.41 1316.40 1018.69L1316.40 1018.69Q1299.82 1025.06 1278.15 1026.34L1278.15 1026.34L876.52 1053.11Q871.42 1053.11 866.96 1053.75Q862.50 1054.39 857.40 1054.39L857.40 1054.39Q837.00 1054.39 822.97 1049.29L822.97 1049.29Q816.60 1048.01 812.14 1047.38Q807.67 1046.74 805.12 1046.74L805.12 1046.74Q787.27 1046.74 787.27 1062.04L787.27 1062.04Q787.27 1065.86 796.20 1085.63Q805.12 1105.39 825.52 1123.24Q845.92 1141.09 877.80 1141.09L877.80 1141.09Q881.62 1141.09 886.09 1140.45Q890.55 1139.81 895.65 1139.81ZM1939.88 1620.49L1939.88 1620.49Q1939.88 1607.74 1917.56 1583.51Q1895.25 1559.29 1866.56 1534.43Q1837.88 1509.56 1811.74 1491.71Q1785.60 1473.86 1776.67 1473.86L1776.67 1473.86Q1769.03 1473.86 1751.17 1485.97Q1733.33 1498.09 1733.33 1514.66L1733.33 1514.66Q1733.33 1529.96 1751.17 1543.99L1751.17 1543.99Q1779.22 1565.66 1802.17 1589.25Q1825.13 1612.84 1849.35 1644.71L1849.35 1644.71Q1871.03 1672.76 1887.60 1672.76L1887.60 1672.76Q1900.35 1672.76 1920.11 1656.83Q1939.88 1640.89 1939.88 1620.49ZM2066.10 1755.64L2066.10 1741.61L2361.90 1727.59Q2397.60 1723.76 2397.60 1704.64L2397.60 1704.64Q2397.60 1691.89 2386.13 1677.86Q2374.65 1663.84 2359.35 1652.36Q2344.05 1640.89 2330.03 1640.89L2330.03 1640.89Q2319.82 1640.89 2308.35 1644.71L2308.35 1644.71Q2291.78 1649.81 2275.20 1653Q2258.63 1656.19 2238.22 1657.46L2238.22 1657.46L2120.93 1663.84Q2123.47 1662.56 2126.03 1661.29L2126.03 1661.29L2138.78 1654.91Q2182.13 1631.96 2216.55 1600.73Q2250.97 1569.49 2294.32 1528.69L2294.32 1528.69Q2305.80 1519.76 2305.80 1508.29L2305.80 1508.29Q2305.80 1490.44 2288.59 1474.50Q2271.38 1458.56 2252.89 1447.09Q2234.40 1435.61 2228.03 1435.61L2228.03 1435.61Q2210.18 1435.61 2210.18 1461.11L2210.18 1461.11Q2210.18 1490.44 2182.13 1529.33Q2154.07 1568.21 2108.18 1617.94L2108.18 1617.94Q2081.40 1644.71 2081.40 1657.46L2081.40 1657.46Q2081.40 1662.56 2083.95 1665.11L2083.95 1665.11L2066.10 1666.39L2067.38 1467.49Q2067.38 1440.71 2045.70 1430.51L2045.70 1430.51Q2030.40 1422.86 2013.83 1420.31L2013.83 1420.31L2419.28 1396.09Q2416.73 1439.44 2414.81 1489.80Q2412.90 1540.16 2412.90 1588.61L2412.90 1588.61Q2412.90 1718.66 2430.11 1807.28Q2447.32 1895.89 2474.74 1951.99Q2502.15 2008.09 2532.11 2039.33Q2562.07 2070.56 2586.94 2083.31Q2611.80 2096.06 2623.28 2099.89L2623.28 2099.89Q2650.05 2107.54 2667.90 2107.54L2667.90 2107.54Q2684.48 2107.54 2699.14 2100.53Q2713.80 2093.51 2724 2065.46Q2734.20 2037.41 2741.85 1979.40Q2749.50 1921.39 2755.88 1816.84L2755.88 1816.84Q2755.88 1811.74 2756.51 1807.28Q2757.15 1802.81 2757.15 1797.71L2757.15 1797.71Q2757.15 1746.71 2737.39 1746.71Q2717.63 1746.71 2701.05 1809.19L2701.05 1809.19Q2695.95 1828.31 2687.03 1860.83Q2678.10 1893.34 2667.90 1925.85Q2657.70 1958.36 2650.05 1978.76L2650.05 1978.76L2642.40 1999.16L2629.65 1991.51Q2616.90 1985.14 2596.50 1964.10Q2576.10 1943.06 2555.70 1898.44Q2535.30 1853.81 2521.28 1780.50Q2507.25 1707.19 2507.25 1596.26L2507.25 1596.26Q2507.25 1547.81 2509.80 1498.72Q2512.35 1449.64 2514.90 1402.46L2514.90 1402.46Q2516.18 1392.26 2519.36 1383.34Q2522.55 1374.41 2522.55 1364.21L2522.55 1364.21Q2522.55 1337.44 2498.33 1325.33Q2474.10 1313.21 2460.07 1313.21L2460.07 1313.21L2452.43 1313.21L1802.17 1352.74L1783.05 1352.74Q1765.20 1352.74 1753.72 1350.83Q1742.25 1348.91 1729.50 1345.09L1729.50 1345.09Q1723.13 1341.26 1719.30 1341.26L1719.30 1341.26L1718.03 1341.26Q1746.08 1315.76 1780.50 1280.06L1780.50 1280.06Q1832.78 1225.24 1877.40 1156.39L1877.40 1156.39L2590.13 1114.31Q2596.50 1114.31 2600.32 1113.04L2600.32 1113.04Q2629.65 1107.94 2629.65 1086.26L2629.65 1086.26Q2629.65 1077.34 2619.45 1062.67Q2609.25 1048.01 2593.95 1035.26Q2578.65 1022.51 2559.53 1022.51L2559.53 1022.51Q2555.70 1022.51 2551.88 1023.15Q2548.05 1023.79 2544.23 1025.06L2544.23 1025.06Q2534.03 1028.89 2523.19 1030.16Q2512.35 1031.44 2497.05 1032.71L2497.05 1032.71L1933.50 1067.14Q1947.53 1041.64 1957.09 1023.79Q1966.65 1005.94 1969.20 998.29Q1971.75 990.64 1971.75 985.54L1971.75 985.54Q1971.75 965.14 1951.99 951.11Q1932.22 937.09 1911.19 929.44Q1890.15 921.79 1883.78 921.79L1883.78 921.79Q1863.38 921.79 1863.38 944.74L1863.38 944.74L1863.38 957.49Q1863.38 981.71 1847.44 1019.33Q1831.50 1056.94 1804.72 1102.20Q1777.95 1147.46 1747.35 1192.09Q1716.75 1236.71 1687.42 1274.96Q1658.10 1313.21 1636.42 1338.71L1636.42 1338.71Q1610.92 1370.59 1610.92 1387.16L1610.92 1387.16Q1610.92 1401.19 1626.22 1401.19L1626.22 1401.19Q1644.08 1401.19 1686.15 1369.31L1686.15 1369.31Q1691.25 1364.21 1696.35 1360.39L1696.35 1360.39Q1697.63 1365.49 1700.17 1374.41L1700.17 1374.41Q1715.47 1415.21 1735.88 1423.50Q1756.28 1431.79 1781.78 1431.79L1781.78 1431.79L1806 1431.79L1957.72 1422.86Q1957.72 1424.14 1957.72 1426.69L1957.72 1426.69Q1957.72 1438.16 1964.10 1448.36L1964.10 1448.36Q1971.75 1461.11 1974.30 1474.50Q1976.85 1487.89 1976.85 1504.46L1976.85 1504.46L1975.58 1668.94L1739.70 1680.41L1719.30 1680.41Q1691.25 1680.41 1670.85 1675.31L1670.85 1675.31Q1665.75 1674.04 1661.29 1674.04Q1656.83 1674.04 1654.28 1674.04L1654.28 1674.04Q1637.70 1674.04 1637.70 1688.06L1637.70 1688.06Q1637.70 1690.61 1638.34 1694.44Q1638.97 1698.26 1641.53 1703.36L1641.53 1703.36Q1647.90 1713.56 1653.64 1723.76Q1659.38 1733.96 1669.58 1742.89L1669.58 1742.89Q1683.60 1759.46 1715.47 1759.46L1715.47 1759.46Q1721.85 1759.46 1728.22 1758.83Q1734.60 1758.19 1742.25 1758.19L1742.25 1758.19L1908 1747.99Q1845.53 1816.84 1767.75 1876.13Q1689.97 1935.41 1596.90 1991.51L1596.90 1991.51Q1566.30 2010.64 1566.30 2027.21L1566.30 2027.21Q1566.30 2041.24 1582.24 2041.24Q1598.17 2041.24 1645.35 2022.75Q1692.53 2004.26 1755 1969.20Q1817.47 1934.14 1881.22 1883.78Q1944.97 1833.41 1976.85 1791.34L1976.85 1791.34Q1974.30 1815.56 1974.30 1833.41L1974.30 1833.41Q1974.30 1857.64 1973.66 1886.96Q1973.03 1916.29 1973.03 1937.96L1973.03 1937.96L1973.03 1958.36Q1973.03 2010.64 1967.93 2041.24L1967.93 2041.24Q1966.65 2045.06 1966.65 2053.99L1966.65 2053.99Q1966.65 2073.11 1990.24 2092.88Q2013.83 2112.64 2035.50 2112.64L2035.50 2112.64Q2052.07 2112.64 2057.81 2100.53Q2063.55 2088.41 2063.55 2074.39L2063.55 2074.39L2064.82 1841.06Q2101.80 1860.19 2159.81 1899.08Q2217.82 1937.96 2277.75 1983.86L2277.75 1983.86Q2285.40 1988.96 2293.69 1992.79Q2301.98 1996.61 2308.35 1996.61L2308.35 1996.61Q2326.20 1996.61 2335.76 1981.95Q2345.32 1967.29 2350.43 1951.99Q2355.53 1936.69 2355.53 1934.14L2355.53 1934.14Q2355.53 1911.19 2328.75 1897.16L2328.75 1897.16Q2294.32 1875.49 2254.80 1851.90Q2215.28 1828.31 2177.66 1808.55Q2140.05 1788.79 2112.64 1776.04Q2085.22 1763.29 2076.30 1763.29L2076.30 1763.29Q2061 1763.29 2066.10 1755.64L2066.10 1755.64ZM1950.08 1282.61L1964.10 1282.61L2449.88 1254.56Q2485.58 1250.74 2485.58 1229.06L2485.58 1229.06Q2485.58 1216.31 2465.18 1193.36L2465.18 1193.36Q2451.15 1180.61 2440.31 1175.51Q2429.48 1170.41 2419.28 1170.41Q2409.07 1170.41 2403.98 1171.69L2403.98 1171.69Q2392.50 1175.51 2381.66 1176.79Q2370.82 1178.06 2356.80 1179.34L2356.80 1179.34L1957.72 1203.56L1942.43 1203.56Q1915.65 1203.56 1893.97 1198.46L1893.97 1198.46Q1888.88 1197.19 1884.41 1196.55Q1879.95 1195.91 1877.40 1195.91L1877.40 1195.91Q1862.10 1195.91 1862.10 1209.94L1862.10 1209.94Q1862.10 1221.41 1871.03 1237.99Q1879.95 1254.56 1899.71 1268.59Q1919.47 1282.61 1950.08 1282.61L1950.08 1282.61Z"/>
  </svg>