<svg xmlns="http://www.w3.org/2000/svg" viewBox="0 0 3000 3000" width="3000" height="3000">
    <path fill="#000000" d="M1484.38 2343.75Q1392.58 2343.75 1351.56 2303.71Q1310.55 2263.67 1316.41 2175.78L1316.41 2175.78L1316.41 1720.70Q1316.41 1628.91 1356.45 1587.89Q1396.48 1546.88 1484.38 1552.73L1484.38 1552.73L2160.16 1552.73Q2251.95 1552.73 2293.95 1592.77Q2335.94 1632.81 2330.08 1720.70L2330.08 1720.70L2330.08 2175.78Q2330.08 2267.58 2290.04 2308.59Q2250 2349.61 2160.16 2343.75L2160.16 2343.75L1484.38 2343.75ZM679.69 2210.94Q601.56 2210.94 601.56 2134.77L601.56 2134.77Q601.56 2117.19 617.19 2074.22L617.19 2074.22Q666.02 1949.22 666.02 1644.53L666.02 1644.53L664.06 1414.06Q664.06 1335.94 730.47 1335.94L730.47 1335.94Q798.83 1335.94 798.83 1423.83L798.83 1423.83L794.92 1748.05Q792.97 1978.52 762.70 2094.73Q732.42 2210.94 679.69 2210.94L679.69 2210.94ZM953.13 2398.44Q884.77 2398.44 884.77 2320.31L884.77 2320.31L884.77 1154.30L1021.48 1154.30L1021.48 2320.31Q1021.48 2398.44 953.13 2398.44L953.13 2398.44ZM1181.64 2158.20Q1113.28 2158.20 1113.28 2082.03L1113.28 2082.03L1113.28 1414.06Q1113.28 1335.94 1181.64 1335.94L1181.64 1335.94Q1248.05 1335.94 1248.05 1414.06L1248.05 1414.06L1248.05 2082.03Q1248.05 2158.20 1181.64 2158.20L1181.64 2158.20ZM1517.58 2210.94L1751.95 2210.94L1751.95 2007.81L1460.94 2007.81L1460.94 2154.30Q1460.94 2210.94 1517.58 2210.94L1517.58 2210.94ZM1460.94 1880.86L1751.95 1880.86L1751.95 1685.55L1517.58 1685.55Q1460.94 1685.55 1460.94 1742.19L1460.94 1742.19L1460.94 1880.86ZM701.17 1189.45Q615.23 1189.45 615.23 1117.19L615.23 1117.19Q615.23 1046.88 701.17 1046.88L701.17 1046.88L1220.70 1046.88Q1308.59 1046.88 1308.59 1117.19L1308.59 1117.19Q1308.59 1189.45 1220.70 1189.45L1220.70 1189.45L701.17 1189.45ZM2128.91 2210.94Q2185.55 2210.94 2185.55 2152.34L2185.55 2152.34L2185.55 2007.81L1890.63 2007.81L1890.63 2210.94L2128.91 2210.94ZM759.77 843.75Q679.69 843.75 679.69 767.58L679.69 767.58Q679.69 693.36 759.77 693.36L759.77 693.36L1167.97 693.36Q1248.05 693.36 1248.05 767.58L1248.05 767.58Q1248.05 843.75 1167.97 843.75L1167.97 843.75L759.77 843.75ZM1890.63 1880.86L2185.55 1880.86L2185.55 1744.14Q2185.55 1685.55 2128.91 1685.55L2128.91 1685.55L1890.63 1685.55L1890.63 1880.86ZM1542.97 1431.64Q1458.98 1431.64 1418.95 1393.55Q1378.91 1355.47 1378.91 1275.39L1378.91 1275.39L1378.91 1117.19Q1378.91 951.17 1542.97 958.98L1542.97 958.98L2101.56 958.98Q2185.55 958.98 2227.54 997.07Q2269.53 1035.16 2269.53 1117.19L2269.53 1117.19L2269.53 1271.48Q2269.53 1441.41 2101.56 1431.64L2101.56 1431.64L1542.97 1431.64ZM2074.22 1302.73Q2123.05 1302.73 2123.05 1253.91L2123.05 1253.91L2123.05 1136.72Q2123.05 1087.89 2074.22 1087.89L2074.22 1087.89L1574.22 1087.89Q1523.44 1087.89 1523.44 1136.72L1523.44 1136.72L1523.44 1253.91Q1523.44 1302.73 1574.22 1302.73L1574.22 1302.73L2074.22 1302.73ZM1363.28 839.84Q1275.39 839.84 1275.39 769.53L1275.39 769.53Q1275.39 699.22 1363.28 699.22L1363.28 699.22L2285.16 699.22Q2371.09 699.22 2371.09 769.53L2371.09 769.53Q2371.09 839.84 2285.16 839.84L2285.16 839.84L1363.28 839.84Z"/>
  </svg>