<svg xmlns="http://www.w3.org/2000/svg" viewBox="0 0 3000 3000" width="3000" height="3000">
    <path fill="#000000" d="M852.54 2037.89Q794.02 2037.89 767.87 2012.37Q741.72 1986.84 745.46 1930.81L745.46 1930.81L745.46 1640.70Q745.46 1582.18 770.98 1556.03Q796.51 1529.88 852.54 1533.62L852.54 1533.62L1283.35 1533.62Q1341.87 1533.62 1368.64 1559.14Q1395.41 1584.67 1391.67 1640.70L1391.67 1640.70L1391.67 1930.81Q1391.67 1989.33 1366.15 2015.48Q1340.63 2041.63 1283.35 2037.89L1283.35 2037.89L852.54 2037.89ZM339.55 1953.22Q289.75 1953.22 289.75 1904.66L289.75 1904.66Q289.75 1893.46 299.71 1866.06L299.71 1866.06Q330.83 1786.38 330.83 1592.14L330.83 1592.14L329.59 1445.21Q329.59 1395.41 371.92 1395.41L371.92 1395.41Q415.50 1395.41 415.50 1451.44L415.50 1451.44L413.01 1658.13Q411.77 1805.05 392.47 1879.14Q373.17 1953.22 339.55 1953.22L339.55 1953.22ZM513.87 2072.75Q470.29 2072.75 470.29 2022.95L470.29 2022.95L470.29 1279.61L557.45 1279.61L557.45 2022.95Q557.45 2072.75 513.87 2072.75L513.87 2072.75ZM659.55 1919.60Q615.97 1919.60 615.97 1871.04L615.97 1871.04L615.97 1445.21Q615.97 1395.41 659.55 1395.41L659.55 1395.41Q701.88 1395.41 701.88 1445.21L701.88 1445.21L701.88 1871.04Q701.88 1919.60 659.55 1919.60L659.55 1919.60ZM873.71 1953.22L1023.12 1953.22L1023.12 1823.73L837.60 1823.73L837.60 1917.11Q837.60 1953.22 873.71 1953.22L873.71 1953.22ZM837.60 1742.80L1023.12 1742.80L1023.12 1618.29L873.71 1618.29Q837.60 1618.29 837.60 1654.39L837.60 1654.39L837.60 1742.80ZM353.25 1302.03Q298.46 1302.03 298.46 1255.96L298.46 1255.96Q298.46 1211.13 353.25 1211.13L353.25 1211.13L684.45 1211.13Q740.48 1211.13 740.48 1255.96L740.48 1255.96Q740.48 1302.03 684.45 1302.03L684.45 1302.03L353.25 1302.03ZM1263.43 1953.22Q1299.54 1953.22 1299.54 1915.87L1299.54 1915.87L1299.54 1823.73L1111.52 1823.73L1111.52 1953.22L1263.43 1953.22ZM390.60 1081.64Q339.55 1081.64 339.55 1033.08L339.55 1033.08Q339.55 985.77 390.60 985.77L390.60 985.77L650.83 985.77Q701.88 985.77 701.88 1033.08L701.88 1033.08Q701.88 1081.64 650.83 1081.64L650.83 1081.64L390.60 1081.64ZM1111.52 1742.80L1299.54 1742.80L1299.54 1655.64Q1299.54 1618.29 1263.43 1618.29L1263.43 1618.29L1111.52 1618.29L1111.52 1742.80ZM889.89 1456.42Q836.35 1456.42 810.83 1432.14Q785.30 1407.86 785.30 1356.81L785.30 1356.81L785.30 1255.96Q785.30 1150.12 889.89 1155.10L889.89 1155.10L1246.00 1155.10Q1299.54 1155.10 1326.31 1179.38Q1353.08 1203.66 1353.08 1255.96L1353.08 1255.96L1353.08 1354.32Q1353.08 1462.65 1246.00 1456.42L1246.00 1456.42L889.89 1456.42ZM1228.56 1374.24Q1259.69 1374.24 1259.69 1343.12L1259.69 1343.12L1259.69 1268.41Q1259.69 1237.28 1228.56 1237.28L1228.56 1237.28L909.81 1237.28Q877.44 1237.28 877.44 1268.41L877.44 1268.41L877.44 1343.12Q877.44 1374.24 909.81 1374.24L909.81 1374.24L1228.56 1374.24ZM775.34 1079.15Q719.31 1079.15 719.31 1034.33L719.31 1034.33Q719.31 989.50 775.34 989.50L775.34 989.50L1363.04 989.50Q1417.82 989.50 1417.82 1034.33L1417.82 1034.33Q1417.82 1079.15 1363.04 1079.15L1363.04 1079.15L775.34 1079.15ZM2606.91 2065.28Q2516.02 2065.28 2478.66 1939.53Q2441.31 1813.77 2441.31 1614.55L2441.31 1614.55L2441.31 1468.87Q2441.31 1422.80 2401.46 1422.80L2401.46 1422.80L1665.60 1422.80Q1610.82 1422.80 1610.82 1380.47L1610.82 1380.47Q1610.82 1336.89 1665.60 1336.89L1665.60 1336.89L2431.35 1336.89Q2540.92 1336.89 2542.16 1441.48L2542.16 1441.48L2542.16 1557.28Q2542.16 1741.55 2557.73 1843.03Q2573.29 1944.51 2601.93 1944.51L2601.93 1944.51Q2610.64 1944.51 2614.38 1914.62Q2618.12 1884.74 2621.85 1812.52L2621.85 1812.52Q2624.34 1757.74 2662.94 1757.74L2662.94 1757.74Q2706.52 1757.74 2706.52 1806.30L2706.52 1806.30Q2706.52 2065.28 2606.91 2065.28L2606.91 2065.28ZM1702.95 2003.03Q1679.30 2014.23 1660.62 2014.23L1660.62 2014.23Q1627.00 2014.23 1615.80 1985.60L1615.80 1985.60Q1612.06 1976.88 1612.06 1966.92L1612.06 1966.92Q1612.06 1933.30 1663.11 1912.13L1663.11 1912.13Q1749.02 1876.03 1825.60 1824.98Q1902.17 1773.93 1953.22 1716.65L1953.22 1716.65L1991.82 1714.16L1990.58 1781.40Q1943.26 1839.92 1869.18 1898.44Q1795.09 1956.96 1702.95 2003.03L1702.95 2003.03ZM1821.24 1643.19Q1797.58 1643.19 1782.64 1614.55L1782.64 1614.55Q1773.93 1597.12 1761.47 1577.20L1761.47 1577.20L1740.31 1541.09Q1725.37 1518.68 1725.37 1504.98L1725.37 1504.98Q1725.37 1486.30 1737.82 1473.23Q1750.27 1460.16 1765.21 1460.16L1765.21 1460.16Q1783.89 1460.16 1794.47 1467.63Q1805.05 1475.10 1815.01 1490.04L1815.01 1490.04L1829.96 1513.70Q1871.04 1578.44 1871.04 1598.36L1871.04 1598.36Q1871.04 1618.29 1856.10 1630.74Q1841.16 1643.19 1821.24 1643.19L1821.24 1643.19ZM2026.68 2061.55Q1981.86 2061.55 1981.86 2010.50L1981.86 2010.50L1981.86 1498.75Q1981.86 1447.71 2027.93 1447.71L2027.93 1447.71Q2074.00 1447.71 2074.00 1498.75L2074.00 1498.75L2074.00 2010.50Q2074.00 2061.55 2026.68 2061.55L2026.68 2061.55ZM1670.58 1750.27Q1625.76 1750.27 1625.76 1709.18L1625.76 1709.18Q1625.76 1668.09 1670.58 1668.09L1670.58 1668.09L2351.66 1668.09Q2396.48 1668.09 2396.48 1709.18L2396.48 1709.18Q2396.48 1750.27 2351.66 1750.27L2351.66 1750.27L1670.58 1750.27ZM2357.89 1999.29Q2349.17 1999.29 2330.49 1988.71Q2311.82 1978.13 2288.16 1961.94L2288.16 1961.94Q2179.83 1889.72 2136.25 1868.55L2136.25 1868.55Q2105.13 1853.61 2098.90 1838.67L2098.90 1838.67Q2095.17 1831.20 2095.17 1823.73L2095.17 1823.73Q2095.17 1817.50 2098.90 1806.30L2098.90 1806.30Q2101.39 1796.34 2111.98 1789.49Q2122.56 1782.64 2136.25 1782.64L2136.25 1782.64Q2161.16 1782.64 2308.08 1863.57L2308.08 1863.57L2374.07 1897.19Q2413.92 1917.11 2413.92 1950.73L2413.92 1950.73Q2413.92 1971.90 2398.97 1985.60Q2384.03 1999.29 2357.89 1999.29L2357.89 1999.29ZM2217.19 1641.94Q2202.25 1641.94 2189.79 1628.87Q2177.34 1615.80 2177.34 1597.12L2177.34 1597.12Q2177.34 1583.42 2192.29 1561.01L2192.29 1561.01L2213.45 1524.90Q2225.90 1504.98 2234.62 1487.55L2234.62 1487.55Q2249.56 1458.91 2273.22 1458.91L2273.22 1458.91Q2293.14 1458.91 2308.08 1471.36Q2323.02 1483.81 2323.02 1503.74L2323.02 1503.74Q2323.02 1519.92 2281.93 1588.40L2281.93 1588.40L2266.99 1612.06Q2257.03 1627.00 2246.45 1634.47Q2235.86 1641.94 2217.19 1641.94L2217.19 1641.94ZM1806.30 1264.67Q1758.98 1264.67 1758.98 1222.34L1758.98 1222.34Q1758.98 1180.00 1806.30 1180.00L1806.30 1180.00L2494.85 1180.00Q2543.41 1180.00 2543.41 1222.34L2543.41 1222.34Q2543.41 1264.67 2494.85 1264.67L2494.85 1264.67L1806.30 1264.67ZM1614.55 1304.52Q1590.89 1304.52 1579.06 1291.44Q1567.24 1278.37 1567.24 1255.96L1567.24 1255.96Q1567.24 1232.30 1593.38 1211.13L1593.38 1211.13Q1719.14 1104.05 1803.81 972.07L1803.81 972.07Q1832.45 928.49 1864.82 928.49L1864.82 928.49Q1887.23 928.49 1902.17 939.70Q1917.11 950.90 1917.11 969.58L1917.11 969.58Q1917.11 984.52 1893.46 1021.88L1893.46 1021.88L2610.64 1021.88Q2666.67 1021.88 2666.67 1065.45L2666.67 1065.45Q2666.67 1107.79 2610.64 1107.79L2610.64 1107.79L1828.71 1107.79Q1666.85 1304.52 1614.55 1304.52L1614.55 1304.52Z"/>
  </svg>