<svg xmlns="http://www.w3.org/2000/svg" viewBox="0 0 3000 3000" width="3000" height="3000">
    <path fill="#000000" d="M421.35 1019.33L421.35 1019.33L453.22 1007.85Q480.00 1051.20 508.69 1100.92Q537.37 1150.65 550.12 1186.35L550.12 1186.35L518.25 1201.65Q502.95 1164.67 474.90 1113.67Q446.85 1062.67 421.35 1019.33ZM1053.75 2057.18L1053.75 1618.58L1090.72 1618.58L1090.72 2057.18L1053.75 2057.18ZM1306.20 1262.85L862.50 1262.85L862.50 1454.10L1306.20 1454.10L1306.20 1262.85ZM825.52 1492.35L825.52 1224.60L1343.17 1224.60L1343.17 1492.35L825.52 1492.35ZM756.67 2146.43L756.67 1602L1405.65 1602L1405.65 2140.05L1368.67 2140.05L1368.67 1638.97L793.65 1638.97L793.65 2146.43L756.67 2146.43ZM780.90 1855.73L780.90 1818.75L1378.88 1818.75L1378.88 1855.73L780.90 1855.73ZM780.90 2077.58L780.90 2040.60L1378.88 2040.60L1378.88 2077.58L780.90 2077.58ZM752.85 1104.75L752.85 1067.78L1417.13 1067.78L1417.13 1104.75L752.85 1104.75ZM302.77 1276.88L302.77 1239.90L691.65 1239.90L691.65 1276.88L302.77 1276.88ZM519.52 1543.35L542.47 1520.40Q555.22 1530.60 581.36 1554.83Q607.50 1579.05 638.10 1607.74Q668.70 1636.43 693.56 1660.65Q718.42 1684.88 729.90 1696.35L729.90 1696.35L706.95 1729.50Q694.20 1714.20 668.70 1688.70Q643.20 1663.20 614.51 1633.88Q585.82 1604.55 559.69 1580.33Q533.55 1556.10 519.52 1543.35L519.52 1543.35ZM680.17 1251.38L680.17 1239.90L689.10 1239.90L698.02 1237.35L719.70 1252.65Q676.35 1361.03 604.95 1461.11Q533.55 1561.20 450.04 1645.35Q366.52 1729.50 284.92 1788.15L284.92 1788.15Q282.37 1783.05 277.27 1777.95Q272.17 1772.85 267.71 1768.39Q263.25 1763.93 258.15 1761.38L258.15 1761.38Q338.47 1705.28 420.07 1624.31Q501.67 1543.35 571.16 1447.09Q640.65 1350.83 680.17 1251.38L680.17 1251.38ZM499.12 2141.33L499.12 1570.13L536.10 1521.68L536.10 2141.33L499.12 2141.33ZM1798.35 1194L1798.35 1155.75L2676.82 1155.75L2676.82 1194L1798.35 1194ZM1816.20 1357.20L1816.20 1320.22L2593.95 1320.22L2593.95 1357.20L1816.20 1357.20ZM1698.90 1528.05L1698.90 1491.08L2447.32 1491.08L2447.32 1528.05L1698.90 1528.05ZM1851.90 992.55L1851.90 992.55L1887.60 1001.47Q1853.17 1100.92 1806.64 1194.64Q1760.10 1288.35 1706.55 1369.31Q1653 1450.28 1593.08 1512.75L1593.08 1512.75Q1589.25 1510.20 1582.88 1505.74Q1576.50 1501.28 1570.13 1496.18Q1563.75 1491.08 1558.65 1488.53L1558.65 1488.53Q1650.45 1398 1726.95 1266.67Q1803.45 1135.35 1851.90 992.55ZM2426.93 1491.08L2426.93 1491.08L2465.18 1491.08Q2470.28 1580.33 2478.56 1669.58Q2486.85 1758.83 2500.88 1837.88Q2514.90 1916.93 2534.03 1978.76Q2553.15 2040.60 2579.93 2075.66Q2606.70 2110.72 2642.40 2110.72L2642.40 2110.72Q2662.80 2110.72 2671.09 2062.28Q2679.38 2013.83 2680.65 1932.23L2680.65 1932.23Q2687.03 1937.33 2697.23 1941.79Q2707.43 1946.25 2713.80 1948.80L2713.80 1948.80Q2709.98 2058.45 2695.31 2102.44Q2680.65 2146.43 2639.85 2146.43L2639.85 2146.43Q2583.75 2146.43 2546.14 2096.06Q2508.53 2045.70 2484.94 1956.45Q2461.35 1867.20 2447.96 1747.99Q2434.57 1628.78 2426.93 1491.08Z"/>
  </svg>