<svg xmlns="http://www.w3.org/2000/svg" viewBox="0 0 3000 3000" width="3000" height="3000">
    <path fill="#000000" d="M647.02 1112.40L647.02 1112.40Q622.80 1143 602.40 1143L602.40 1143Q593.47 1143 578.17 1125.15L578.17 1125.15Q524.62 1049.92 449.40 974.70L449.40 974.70Q437.92 963.23 437.92 952.39Q437.92 941.55 451.31 929.44Q464.70 917.32 476.17 917.32Q487.65 917.32 502.31 930.71Q516.97 944.10 543.11 968.33Q569.25 992.55 594.75 1018.69Q620.25 1044.83 638.10 1066.50Q655.95 1088.17 655.95 1095.19Q655.95 1102.20 647.02 1112.40ZM736.27 1012.95L777.07 1016.77L1279.42 988.73Q1301.10 987.45 1315.13 982.99Q1329.15 978.52 1338.71 978.52Q1348.27 978.52 1362.30 990Q1376.32 1001.48 1386.52 1015.50Q1396.72 1029.53 1396.72 1037.17L1396.72 1037.17Q1396.72 1052.47 1364.85 1055.03L1364.85 1055.03L821.70 1086.90L806.40 1086.90Q774.52 1086.90 757.95 1074.79Q741.37 1062.67 729.26 1042.91Q717.15 1023.15 717.15 1018.05Q717.15 1012.95 724.80 1012.95L724.80 1012.95L736.27 1012.95ZM852.30 1368.68L835.72 1236.08Q831.90 1202.93 819.79 1185.71Q807.67 1168.50 807.67 1161.49Q807.67 1154.47 829.99 1154.47Q852.30 1154.47 909.67 1172.33L909.67 1172.33L1241.17 1153.20L1252.65 1153.20Q1273.05 1153.20 1287.71 1166.59Q1302.37 1179.97 1302.37 1189.54Q1302.37 1199.10 1299.82 1204.84Q1297.27 1210.58 1294.72 1218.22L1294.72 1218.22L1271.77 1343.18Q1298.55 1375.05 1298.55 1385.89Q1298.55 1396.72 1287.71 1399.28Q1276.87 1401.83 1260.30 1403.10L1260.30 1403.10L932.62 1418.40L932.62 1428.60Q932.62 1459.20 910.95 1459.20Q889.27 1459.20 870.15 1446.45Q851.02 1433.70 851.02 1417.13L851.02 1417.13L851.02 1412.03Q853.57 1396.72 853.57 1386.53L853.57 1386.53L852.30 1368.68ZM491.47 1988.33L491.47 1988.33Q501.67 1916.93 501.67 1876.13L501.67 1876.13L509.32 1549.73Q417.52 1655.55 320.62 1725.68L320.62 1725.68Q283.65 1752.45 274.09 1752.45Q264.52 1752.45 264.52 1741.61Q264.52 1730.78 286.20 1709.10L286.20 1709.10Q383.10 1612.20 467.89 1501.91Q552.67 1391.63 615.15 1256.47L615.15 1256.47L417.52 1276.88Q404.77 1278.15 393.94 1279.43Q383.10 1280.70 373.54 1280.70Q363.97 1280.70 343.57 1272.41Q323.17 1264.13 302.77 1218.22L302.77 1218.22Q300.22 1210.58 300.22 1209.30L300.22 1209.30Q300.22 1201.65 310.42 1201.65L310.42 1201.65L316.80 1201.65Q339.75 1205.47 355.05 1205.47L355.05 1205.47L376.72 1205.47Q383.10 1205.47 389.47 1204.20L389.47 1204.20L645.75 1178.70Q652.12 1177.43 658.50 1177.43L658.50 1177.43L667.42 1177.43Q695.47 1177.43 708.22 1195.28Q720.97 1213.13 720.97 1218.86Q720.97 1224.60 704.40 1257.75L704.40 1257.75Q659.77 1349.55 584.55 1454.10L584.55 1454.10Q588.37 1457.93 611.32 1478.33L611.32 1478.33Q732.45 1585.43 732.45 1612.20L732.45 1612.20Q732.45 1614.75 727.35 1627.50L727.35 1627.50Q712.05 1664.48 690.37 1664.48L690.37 1664.48Q681.45 1664.48 667.42 1646.63L667.42 1646.63Q629.17 1590.53 579.45 1535.70L579.45 1535.70L578.17 2007.45Q578.17 2044.43 556.50 2044.43L556.50 2044.43Q531.00 2044.43 511.24 2023.39Q491.47 2002.35 491.47 1988.33ZM1195.27 1340.63L1210.57 1220.78L914.77 1237.35L926.25 1354.65L1195.27 1340.63ZM842.10 1519.13L1336.80 1496.18L1348.27 1494.90Q1366.13 1494.90 1381.42 1511.47Q1396.72 1528.05 1396.72 1538.25Q1396.72 1548.45 1394.17 1554.19Q1391.63 1559.93 1390.35 1566.30L1390.35 1566.30L1354.65 1893.98Q1394.17 1934.78 1394.17 1945.61Q1394.17 1956.45 1384.61 1958.36Q1375.05 1960.28 1358.47 1961.55L1358.47 1961.55L865.05 1973.03L866.32 2002.35L866.32 2007.45Q866.32 2034.23 845.92 2034.23L845.92 2034.23Q819.15 2034.23 801.94 2017.65Q784.72 2001.08 784.72 1981.95L784.72 1981.95L784.72 1975.58Q787.27 1947.53 787.27 1922.03L787.27 1922.03L787.27 1909.28L770.70 1594.35Q768.15 1553.55 757.31 1532.51Q746.47 1511.47 746.47 1507.65L746.47 1507.65Q746.47 1498.72 763.05 1498.72Q779.62 1498.72 842.10 1519.13L842.10 1519.13ZM1297.27 1689.98L1307.47 1563.75L1107.30 1572.68L1106.02 1696.35L1297.27 1689.98ZM1033.35 1698.90L1034.63 1575.23L844.65 1584.15L851.02 1706.55L1033.35 1698.90ZM1279.42 1895.25L1292.17 1752.45L1106.02 1758.83L1104.75 1899.08L1279.42 1895.25ZM1032.07 1901.63L1033.35 1761.38L853.57 1767.75L861.22 1905.45L1032.07 1901.63ZM2577.38 1104.75L1849.35 1149.38Q1735.88 1299.83 1631.33 1362.30L1631.33 1362.30Q1608.38 1376.33 1596.26 1376.33Q1584.15 1376.33 1584.15 1367.40L1584.15 1367.40Q1584.15 1353.38 1619.85 1317.68L1619.85 1317.68Q1710.38 1229.70 1787.51 1109.85Q1864.65 990 1864.65 928.80L1864.65 928.80L1864.65 914.77Q1864.65 900.75 1873.58 900.75Q1882.50 900.75 1902.90 910.95L1902.90 910.95Q1960.28 939 1960.28 963.23L1960.28 963.23Q1960.28 978.52 1934.14 1021.24Q1908 1063.95 1901.63 1072.88L1901.63 1072.88L2485.58 1035.90Q2516.18 1033.35 2526.38 1030.16Q2536.57 1026.97 2543.59 1026.97Q2550.60 1026.97 2565.90 1035.90L2565.90 1035.90Q2606.70 1061.40 2606.70 1084.35L2606.70 1084.35Q2606.70 1102.20 2577.38 1104.75L2577.38 1104.75ZM1849.35 1243.72L1849.35 1243.72L1910.55 1250.10L1922.03 1250.10L2346.60 1220.78Q2383.57 1216.95 2393.14 1213.76Q2402.70 1210.58 2408.44 1210.58Q2414.18 1210.58 2428.20 1219.50L2428.20 1219.50Q2467.73 1243.72 2467.73 1266.68L2467.73 1266.68Q2467.73 1283.25 2439.68 1287.08L2439.68 1287.08L1943.70 1320.22L1916.93 1321.50Q1865.92 1321.50 1848.08 1279.43L1848.08 1279.43Q1839.15 1257.75 1839.15 1252.65L1839.15 1252.65Q1839.15 1243.72 1849.35 1243.72ZM2729.10 1726.95L2729.10 1752.45Q2729.10 1890.15 2701.05 1993.43L2701.05 1993.43Q2687.03 2044.43 2646.23 2044.43L2646.23 2044.43Q2633.48 2044.43 2604.15 2035.50L2604.15 2035.50Q2526.38 2011.28 2471.55 1922.03L2471.55 1922.03Q2395.05 1799.63 2395.05 1568.85L2395.05 1568.85Q2395.05 1517.85 2398.88 1468.13L2398.88 1468.13L1783.05 1507.65Q1774.13 1508.93 1765.20 1508.93L1765.20 1508.93L1751.17 1508.93Q1725.67 1508.93 1711.65 1498.09Q1697.63 1487.25 1686.79 1466.21Q1675.95 1445.18 1675.95 1436.89Q1675.95 1428.60 1682.96 1428.60Q1689.97 1428.60 1709.10 1433.06Q1728.22 1437.53 1749.90 1437.53L1749.90 1437.53L1757.55 1437.53L2415.45 1394.18L2430.75 1394.18Q2452.43 1394.18 2470.91 1408.20Q2489.40 1422.22 2489.40 1434.97Q2489.40 1447.72 2485.58 1456.65Q2481.75 1465.58 2479.20 1502.55Q2476.65 1539.53 2476.65 1617.94Q2476.65 1696.35 2494.50 1764.56Q2512.35 1832.78 2538.49 1872.30Q2564.63 1911.83 2588.85 1927.76Q2613.07 1943.70 2622.64 1943.70Q2632.20 1943.70 2632.20 1936.05L2632.20 1936.05Q2664.07 1849.35 2689.57 1721.85L2689.57 1721.85Q2697.23 1682.33 2711.89 1682.33Q2726.55 1682.33 2729.10 1726.95L2729.10 1726.95Z"/>
  </svg>