<svg xmlns="http://www.w3.org/2000/svg" viewBox="0 0 3000 3000" width="3000" height="3000">
    <path fill="#000000" d="M1162 892L1162 892Q1124 940 1092 940L1092 940Q1078 940 1054 912L1054 912Q970 794 852 676L852 676Q834 658 834 641Q834 624 855 605Q876 586 894 586Q912 586 935 607Q958 628 999 666Q1040 704 1080 745Q1120 786 1148 820Q1176 854 1176 865Q1176 876 1162 892ZM1302 736L1366 742L2154 698Q2188 696 2210 689Q2232 682 2247 682Q2262 682 2284 700Q2306 718 2322 740Q2338 762 2338 774L2338 774Q2338 798 2288 802L2288 802L1436 852L1412 852Q1362 852 1336 833Q1310 814 1291 783Q1272 752 1272 744Q1272 736 1284 736L1284 736L1302 736ZM1484 1294L1458 1086Q1452 1034 1433 1007Q1414 980 1414 969Q1414 958 1449 958Q1484 958 1574 986L1574 986L2094 956L2112 956Q2144 956 2167 977Q2190 998 2190 1013Q2190 1028 2186 1037Q2182 1046 2178 1058L2178 1058L2142 1254Q2184 1304 2184 1321Q2184 1338 2167 1342Q2150 1346 2124 1348L2124 1348L1610 1372L1610 1388Q1610 1436 1576 1436Q1542 1436 1512 1416Q1482 1396 1482 1370L1482 1370L1482 1362Q1486 1338 1486 1322L1486 1322L1484 1294ZM918 2266L918 2266Q934 2154 934 2090L934 2090L946 1578Q802 1744 650 1854L650 1854Q592 1896 577 1896Q562 1896 562 1879Q562 1862 596 1828L596 1828Q748 1676 881 1503Q1014 1330 1112 1118L1112 1118L802 1150Q782 1152 765 1154Q748 1156 733 1156Q718 1156 686 1143Q654 1130 622 1058L622 1058Q618 1046 618 1044L618 1044Q618 1032 634 1032L634 1032L644 1032Q680 1038 704 1038L704 1038L738 1038Q748 1038 758 1036L758 1036L1160 996Q1170 994 1180 994L1180 994L1194 994Q1238 994 1258 1022Q1278 1050 1278 1059Q1278 1068 1252 1120L1252 1120Q1182 1264 1064 1428L1064 1428Q1070 1434 1106 1466L1106 1466Q1296 1634 1296 1676L1296 1676Q1296 1680 1288 1700L1288 1700Q1264 1758 1230 1758L1230 1758Q1216 1758 1194 1730L1194 1730Q1134 1642 1056 1556L1056 1556L1054 2296Q1054 2354 1020 2354L1020 2354Q980 2354 949 2321Q918 2288 918 2266ZM2022 1250L2046 1062L1582 1088L1600 1272L2022 1250ZM1468 1530L2244 1494L2262 1492Q2290 1492 2314 1518Q2338 1544 2338 1560Q2338 1576 2334 1585Q2330 1594 2328 1604L2328 1604L2272 2118Q2334 2182 2334 2199Q2334 2216 2319 2219Q2304 2222 2278 2224L2278 2224L1504 2242L1506 2288L1506 2296Q1506 2338 1474 2338L1474 2338Q1432 2338 1405 2312Q1378 2286 1378 2256L1378 2256L1378 2246Q1382 2202 1382 2162L1382 2162L1382 2142L1356 1648Q1352 1584 1335 1551Q1318 1518 1318 1512L1318 1512Q1318 1498 1344 1498Q1370 1498 1468 1530L1468 1530ZM2182 1798L2198 1600L1884 1614L1882 1808L2182 1798ZM1768 1812L1770 1618L1472 1632L1482 1824L1768 1812ZM2154 2120L2174 1896L1882 1906L1880 2126L2154 2120ZM1766 2130L1768 1910L1486 1920L1498 2136L1766 2130Z"/>
  </svg>