<svg xmlns="http://www.w3.org/2000/svg" viewBox="0 0 3000 3000" width="3000" height="3000">
    <path fill="#000000" d="M421.35 1019.33L421.35 1019.33L453.22 1007.85Q480.00 1051.20 508.69 1100.92Q537.37 1150.65 550.12 1186.35L550.12 1186.35L518.25 1201.65Q502.95 1164.67 474.90 1113.67Q446.85 1062.67 421.35 1019.33ZM1053.75 2057.18L1053.75 1618.58L1090.72 1618.58L1090.72 2057.18L1053.75 2057.18ZM1306.20 1262.85L862.50 1262.85L862.50 1454.10L1306.20 1454.10L1306.20 1262.85ZM825.52 1492.35L825.52 1224.60L1343.17 1224.60L1343.17 1492.35L825.52 1492.35ZM756.67 2146.43L756.67 1602L1405.65 1602L1405.65 2140.05L1368.67 2140.05L1368.67 1638.97L793.65 1638.97L793.65 2146.43L756.67 2146.43ZM780.90 1855.73L780.90 1818.75L1378.88 1818.75L1378.88 1855.73L780.90 1855.73ZM780.90 2077.58L780.90 2040.60L1378.88 2040.60L1378.88 2077.58L780.90 2077.58ZM752.85 1104.75L752.85 1067.78L1417.13 1067.78L1417.13 1104.75L752.85 1104.75ZM302.77 1276.88L302.77 1239.90L691.65 1239.90L691.65 1276.88L302.77 1276.88ZM519.52 1543.35L542.47 1520.40Q555.22 1530.60 581.36 1554.83Q607.50 1579.05 638.10 1607.74Q668.70 1636.43 693.56 1660.65Q718.42 1684.88 729.90 1696.35L729.90 1696.35L706.95 1729.50Q694.20 1714.20 668.70 1688.70Q643.20 1663.20 614.51 1633.88Q585.82 1604.55 559.69 1580.33Q533.55 1556.10 519.52 1543.35L519.52 1543.35ZM680.17 1251.38L680.17 1239.90L689.10 1239.90L698.02 1237.35L719.70 1252.65Q676.35 1361.03 604.95 1461.11Q533.55 1561.20 450.04 1645.35Q366.52 1729.50 284.92 1788.15L284.92 1788.15Q282.37 1783.05 277.27 1777.95Q272.17 1772.85 267.71 1768.39Q263.25 1763.93 258.15 1761.38L258.15 1761.38Q338.47 1705.28 420.07 1624.31Q501.67 1543.35 571.16 1447.09Q640.65 1350.83 680.17 1251.38L680.17 1251.38ZM499.12 2141.33L499.12 1570.13L536.10 1521.68L536.10 2141.33L499.12 2141.33ZM1802.17 1160.85L1802.17 1123.88L2664.07 1123.88L2664.07 1160.85L1802.17 1160.85ZM1800.90 1311.30L1800.90 1273.05L2578.65 1273.05L2578.65 1311.30L1800.90 1311.30ZM1684.88 1463.03L1684.88 1426.05L2467.73 1426.05L2467.73 1463.03L1684.88 1463.03ZM1603.28 1785.60L1603.28 1748.63L2384.85 1748.63L2384.85 1785.60L1603.28 1785.60ZM1860.83 993.83L1860.83 993.83L1899.08 1004.03Q1864.65 1081.80 1818.11 1155.11Q1771.58 1228.42 1718.03 1290.26Q1664.47 1352.10 1607.10 1400.55L1607.10 1400.55Q1604.55 1396.72 1598.17 1392.26Q1591.80 1387.80 1585.42 1383.34Q1579.05 1378.88 1573.95 1376.33L1573.95 1376.33Q1661.92 1306.20 1737.79 1206.11Q1813.65 1106.03 1860.83 993.83ZM2460.07 1426.05L2460.07 1426.05L2497.05 1426.05Q2497.05 1593.08 2500.88 1721.21Q2504.70 1849.35 2518.09 1936.05Q2531.48 2022.75 2559.53 2066.74Q2587.57 2110.72 2637.30 2110.72L2637.30 2110.72Q2661.53 2110.72 2669.18 2056.54Q2676.82 2002.35 2679.38 1916.93L2679.38 1916.93Q2685.75 1922.03 2696.59 1927.13Q2707.43 1932.23 2713.80 1934.78L2713.80 1934.78Q2711.25 2018.93 2704.24 2064.83Q2697.23 2110.72 2681.93 2128.58Q2666.63 2146.43 2634.75 2146.43L2634.75 2146.43Q2572.28 2146.43 2537.21 2102.44Q2502.15 2058.45 2486.21 1969.20Q2470.28 1879.95 2465.81 1744.16Q2461.35 1608.38 2460.07 1426.05ZM1707.83 1535.70L1707.83 1535.70L1737.15 1519.13Q1775.40 1558.65 1809.19 1607.10Q1842.97 1655.55 1857 1692.53L1857 1692.53L1825.13 1710.38Q1811.10 1673.40 1777.95 1624.31Q1744.80 1575.22 1707.83 1535.70ZM1974.30 2145.15L1974.30 1493.63L2011.28 1493.63L2011.28 2145.15L1974.30 2145.15ZM2258.63 1517.85L2258.63 1517.85L2293.05 1538.25Q2258.63 1585.43 2217.19 1636.43Q2175.75 1687.43 2140.05 1724.40L2140.05 1724.40L2112 1706.55Q2136.22 1681.05 2163.64 1647.90Q2191.05 1614.75 2216.55 1580.33Q2242.05 1545.90 2258.63 1517.85ZM1878.67 1848.08L1878.67 1848.08L1909.28 1863.38Q1878.67 1914.38 1832.78 1966.65Q1786.88 2018.93 1735.88 2062.91Q1684.88 2106.90 1637.70 2136.22L1637.70 2136.22Q1632.60 2128.58 1624.95 2120.29Q1617.30 2112 1610.92 2106.90L1610.92 2106.90Q1658.10 2081.40 1708.46 2039.96Q1758.83 1998.53 1804.09 1948.80Q1849.35 1899.08 1878.67 1848.08ZM2103.07 1876.13L2103.07 1876.13L2128.57 1855.73Q2174.47 1890.15 2221.01 1930.95Q2267.55 1971.75 2307.71 2011.91Q2347.88 2052.08 2372.10 2083.95L2372.10 2083.95L2345.32 2109.45Q2319.82 2076.30 2279.66 2035.50Q2239.50 1994.70 2193.60 1952.63Q2147.70 1910.55 2103.07 1876.13Z"/>
  </svg>