<svg xmlns="http://www.w3.org/2000/svg" viewBox="0 0 3000 3000" width="3000" height="3000">
    <path fill="#000000" d="M2152 822L1452 870L1402 872Q1350 872 1326 844Q1302 816 1294 788L1294 788L1288 760Q1288 748 1298 748Q1308 748 1330 753Q1352 758 1396 758L1396 758L1420 758L2000 716Q2030 714 2092 700L2092 700Q2098 700 2124 712L2124 712Q2196 746 2196 788L2196 788Q2196 818 2152 822L2152 822ZM614 1212L614 1212Q654 1220 672 1220L672 1220L700 1220Q708 1220 716 1218L716 1218L994 1188Q1006 1186 1016 1186L1016 1186L1034 1186Q1056 1186 1085 1206Q1114 1226 1114 1248Q1114 1270 1102 1282L1102 1282L1080 1304Q894 1542 894 1555Q894 1568 904 1574L904 1574Q1056 1662 1092 1724L1092 1724Q1106 1752 1106 1776Q1106 1800 1092 1828L1092 1828Q1064 1880 916 2008L916 2008Q1006 2012 1358 2080L1358 2080Q1968 2198 2362 2198L2362 2198L2372 2198Q2418 2198 2418 2216L2418 2216Q2418 2218 2408 2246L2408 2246Q2376 2326 2318 2326L2318 2326L2304 2326Q2054 2320 1770 2272L1770 2272Q1268 2186 1112 2152Q956 2118 863 2118Q770 2118 668 2154L668 2154Q650 2160 638 2160Q626 2160 606 2148Q586 2136 586 2074L586 2074Q586 2042 645 2031Q704 2020 754 2014L754 2014Q852 1930 970 1788L970 1788Q974 1780 974 1778L974 1778Q974 1766 928 1728Q882 1690 828 1656Q774 1622 774 1583Q774 1544 821 1472Q868 1400 938 1306L938 1306L754 1328Q738 1330 724 1332Q710 1334 693 1334Q676 1334 662 1324L662 1324Q600 1262 600 1224L600 1224Q600 1212 614 1212ZM1128 968L1128 968Q1096 1016 1070 1016Q1044 1016 1016 980L1016 980Q910 842 784 728L784 728Q758 706 758 690Q758 674 782 652Q806 630 822 630Q838 630 873 657Q908 684 954 724Q1000 764 1043 808Q1086 852 1114 888Q1142 924 1142 937Q1142 950 1128 968ZM1578 1288L1328 1300L1278 1302Q1226 1302 1202 1274Q1178 1246 1170 1218L1170 1218L1164 1190Q1164 1178 1174 1178Q1184 1178 1206 1183Q1228 1188 1272 1188L1272 1188L1296 1188L2136 1146Q2166 1142 2228 1130L2228 1130Q2234 1130 2260 1142L2260 1142Q2332 1178 2332 1218L2332 1218Q2332 1248 2288 1252L2288 1252L1732 1280Q1608 1578 1500 1794L1500 1794Q1836 1756 2004 1732L2004 1732Q1940 1604 1892 1524L1892 1524Q1880 1500 1881 1487Q1882 1474 1912 1452L1912 1452Q1970 1406 2002 1464L2002 1464Q2180 1758 2256 1930L2256 1930Q2276 1978 2275 1998Q2274 2018 2252 2036L2252 2036Q2164 2102 2136 2028L2136 2028Q2100 1932 2054 1836L2054 1836Q1374 1946 1325 1949Q1276 1952 1253 1950Q1230 1948 1205 1919Q1180 1890 1166 1838L1166 1838Q1162 1832 1163 1818Q1164 1804 1194 1809Q1224 1814 1264 1814L1264 1814L1298 1814L1350 1810Q1470 1560 1578 1288L1578 1288Z"/>
  </svg>