<svg xmlns="http://www.w3.org/2000/svg" viewBox="0 0 3000 3000" width="3000" height="3000">
    <path fill="#000000" d="M704.40 1278.15L704.40 1266.67L712.05 1266.67L718.42 1264.13L743.92 1271.78Q722.25 1516.58 661.05 1688.06Q599.85 1859.55 507.41 1969.84Q414.97 2080.13 297.67 2142.60L297.67 2142.60Q295.12 2137.50 290.66 2132.40Q286.20 2127.30 280.46 2121.56Q274.72 2115.83 269.62 2112L269.62 2112Q383.10 2055.90 472.99 1948.80Q562.87 1841.70 622.80 1675.95Q682.72 1510.20 704.40 1278.15L704.40 1278.15ZM831.90 1144.28L831.90 1107.30L1343.17 1107.30L1343.17 1144.28L831.90 1144.28ZM768.15 1591.80L768.15 1554.83L1437.52 1554.83L1437.52 1591.80L768.15 1591.80ZM1089.45 2083.95L1089.45 1381.43L1127.70 1381.43L1127.70 2082.68Q1127.70 2108.18 1118.14 2120.93Q1108.57 2133.68 1086.90 2138.78L1086.90 2138.78Q1066.50 2143.88 1025.70 2145.15Q984.90 2146.43 909.67 2145.15L909.67 2145.15Q907.12 2138.78 901.39 2128.58Q895.65 2118.38 891.82 2109.45L891.82 2109.45Q935.17 2109.45 970.24 2110.09Q1005.30 2110.72 1029.52 2110.09Q1053.75 2109.45 1063.95 2109.45L1063.95 2109.45Q1077.97 2108.18 1083.71 2102.44Q1089.45 2096.70 1089.45 2083.95L1089.45 2083.95ZM1331.70 1117.50L1331.70 1107.30L1340.63 1107.30L1349.55 1103.47L1380.15 1123.88Q1347 1174.88 1302.37 1226.51Q1257.75 1278.15 1209.94 1324.69Q1162.13 1371.22 1118.77 1406.93L1118.77 1406.93Q1113.67 1400.55 1105.39 1393.54Q1097.10 1386.53 1089.45 1381.43L1089.45 1381.43Q1132.80 1348.28 1178.06 1303.01Q1223.32 1257.75 1264.12 1209.30Q1304.92 1160.85 1331.70 1117.50L1331.70 1117.50ZM287.47 1304.93L287.47 1266.67L718.42 1266.67L718.42 1304.93L287.47 1304.93ZM332.10 1698.90L332.10 1698.90L360.15 1672.13Q418.80 1705.28 476.81 1744.16Q534.82 1783.05 588.37 1825.13Q641.92 1867.20 684.64 1907.36Q727.35 1947.53 755.40 1983.23L755.40 1983.23L724.80 2013.83Q696.75 1978.13 654.04 1936.69Q611.32 1895.25 558.41 1853.18Q505.50 1811.10 447.49 1770.94Q389.47 1730.78 332.10 1698.90ZM369.07 1707.83L332.10 1698.90Q353.77 1633.88 377.36 1547.17Q400.95 1460.47 422.62 1363.58Q444.30 1266.67 462.15 1171.69Q480.00 1076.70 491.47 995.10L491.47 995.10L528.45 997.65Q516.97 1081.80 498.49 1178.06Q480.00 1274.33 457.69 1371.22Q435.37 1468.13 412.42 1555.46Q389.47 1642.80 369.07 1707.83L369.07 1707.83ZM1983.22 1130.25L1983.22 1092L2614.35 1092L2614.35 1130.25L1983.22 1130.25ZM1900.35 1431.15L1900.35 1392.90L2711.25 1392.90L2711.25 1431.15L1900.35 1431.15ZM2386.13 1534.43L2386.13 1534.43L2418 1519.13Q2461.35 1584.15 2507.89 1658.74Q2554.43 1733.33 2595.23 1801.54Q2636.03 1869.75 2661.53 1918.20L2661.53 1918.20L2628.38 1938.60Q2602.88 1888.88 2562.71 1818.75Q2522.55 1748.63 2476.65 1673.40Q2430.75 1598.18 2386.13 1534.43ZM1562.47 1452.83L1794.53 1452.83L1794.53 1974.30L1757.55 1974.30L1757.55 1491.08L1562.47 1491.08L1562.47 1452.83ZM1604.55 1112.40L1604.55 1112.40L1630.05 1086.90Q1669.58 1111.13 1712.29 1140.45Q1755 1169.78 1794.53 1197.19Q1834.05 1224.60 1859.55 1246.28L1859.55 1246.28L1834.05 1275.60Q1808.55 1253.92 1769.03 1225.24Q1729.50 1196.55 1686.79 1166.59Q1644.08 1136.63 1604.55 1112.40ZM1776.67 1944.98L1776.67 1944.98Q1808.55 1944.98 1837.88 1968.56Q1867.20 1992.15 1923.30 2029.13L1923.30 2029.13Q1988.33 2069.93 2068.01 2082.68Q2147.70 2095.43 2256.07 2095.43L2256.07 2095.43Q2316 2095.43 2376.56 2094.15Q2437.13 2092.88 2497.05 2090.33Q2556.98 2087.78 2611.80 2084.59Q2666.63 2081.40 2715.07 2077.58L2715.07 2077.58Q2712.53 2082.68 2709.34 2089.69Q2706.15 2096.70 2704.88 2104.35Q2703.60 2112 2702.32 2119.65L2702.32 2119.65Q2673 2120.93 2619.45 2123.47Q2565.90 2126.03 2500.88 2127.30Q2435.85 2128.58 2371.46 2129.85Q2307.07 2131.13 2256.07 2131.13L2256.07 2131.13Q2140.05 2131.13 2055.26 2115.83Q1970.47 2100.53 1902.90 2057.18L1902.90 2057.18Q1867.20 2031.68 1833.41 2004.90Q1799.63 1978.13 1776.67 1978.13L1776.67 1978.13Q1753.72 1978.13 1725.04 1999.80Q1696.35 2021.48 1662.56 2057.81Q1628.78 2094.15 1591.80 2141.33L1591.80 2141.33L1563.75 2114.55Q1604.55 2066.10 1641.53 2027.85Q1678.50 1989.60 1712.29 1967.29Q1746.08 1944.98 1776.67 1944.98ZM1971.75 1895.25L1971.75 1895.25Q1970.47 1890.15 1967.93 1882.50Q1965.38 1874.85 1962.83 1867.20Q1960.28 1859.55 1957.72 1854.45L1957.72 1854.45Q1971.75 1851.90 1987.69 1829.59Q2003.63 1807.28 2024.03 1774.13L2024.03 1774.13Q2034.22 1758.83 2054.63 1721.85Q2075.03 1684.88 2101.16 1633.88Q2127.30 1582.88 2152.80 1524.86Q2178.30 1466.85 2198.70 1408.20L2198.70 1408.20L2235.68 1426.05Q2203.80 1505.10 2166.19 1585.43Q2128.57 1665.75 2088.41 1737.79Q2048.25 1809.83 2006.18 1868.48L2006.18 1868.48L2006.18 1869.75Q2006.18 1869.75 2001.08 1872.30Q1995.98 1874.85 1988.96 1878.68Q1981.95 1882.50 1976.85 1886.96Q1971.75 1891.43 1971.75 1895.25ZM1971.75 1895.25L1971.75 1895.25L1971.75 1863.38L2007.45 1844.25L2585.03 1800.90Q2586.30 1809.83 2588.85 1819.39Q2591.40 1828.95 2592.68 1835.33L2592.68 1835.33Q2428.20 1849.35 2319.19 1858.28Q2210.18 1867.20 2144.51 1872.94Q2078.85 1878.68 2044.43 1882.50Q2010 1886.33 1994.70 1889.51Q1979.40 1892.70 1971.75 1895.25Z"/>
  </svg>