<svg xmlns="http://www.w3.org/2000/svg" viewBox="0 0 3000 3000" width="3000" height="3000">
    <path fill="#000000" d="M2275.39 2333.98Q1873.05 2333.98 1671.88 2332.03L1671.88 2332.03Q1310.55 2328.13 1177.73 2292.97L1177.73 2292.97Q1035.16 2253.91 939.45 2160.16L939.45 2160.16Q740.23 2322.27 687.50 2322.27L687.50 2322.27Q605.47 2322.27 605.47 2232.42L605.47 2232.42Q605.47 2203.13 627.93 2178.71Q650.39 2154.30 683.59 2142.58L683.59 2142.58Q738.28 2123.05 853.52 2054.69L853.52 2054.69L853.52 1693.36Q853.52 1632.81 792.97 1632.81L792.97 1632.81L681.64 1632.81Q642.58 1632.81 624.02 1615.23Q605.47 1597.66 605.47 1560.55L605.47 1560.55Q605.47 1523.44 624.02 1506.84Q642.58 1490.23 681.64 1490.23L681.64 1490.23L839.84 1490.23Q923.83 1490.23 962.89 1526.37Q1001.95 1562.50 998.05 1640.63L998.05 1640.63L998.05 2037.11Q1072.27 2099.61 1147.46 2130.86Q1222.66 2162.11 1331.05 2175.78Q1439.45 2189.45 1621.09 2189.45L1621.09 2189.45Q1759.77 2189.45 2037.11 2185.55L2037.11 2185.55Q2224.61 2181.64 2314.45 2181.64L2314.45 2181.64Q2388.67 2181.64 2388.67 2253.91L2388.67 2253.91Q2388.67 2333.98 2275.39 2333.98L2275.39 2333.98ZM1169.92 1949.22Q1095.70 1949.22 1095.70 1884.77L1095.70 1884.77Q1095.70 1820.31 1169.92 1820.31L1169.92 1820.31L1683.59 1820.31L1683.59 1949.22L1169.92 1949.22ZM910.16 1275.39Q888.67 1275.39 843.75 1250L843.75 1250L683.59 1179.69Q623.05 1154.30 623.05 1103.52L623.05 1103.52Q623.05 1027.34 697.27 1027.34L697.27 1027.34Q728.52 1027.34 861.33 1082.03L861.33 1082.03Q988.28 1134.77 988.28 1195.31L988.28 1195.31Q988.28 1275.39 910.16 1275.39L910.16 1275.39ZM1384.77 1595.70L1650.39 1595.70L1650.39 1486.33L1337.89 1486.33L1337.89 1548.83Q1337.89 1570.31 1350.59 1583.01Q1363.28 1595.70 1384.77 1595.70L1384.77 1595.70ZM980.47 896.48Q960.94 896.48 900.39 863.28L900.39 863.28Q822.27 822.27 771.48 798.83L771.48 798.83Q703.13 765.63 703.13 714.84L703.13 714.84Q703.13 638.67 777.34 638.67L777.34 638.67Q814.45 638.67 933.59 695.31L933.59 695.31Q1056.64 753.91 1056.64 814.45L1056.64 814.45Q1056.64 896.48 980.47 896.48L980.47 896.48ZM1759.77 1949.22L1759.77 1820.31L2273.44 1820.31Q2349.61 1820.31 2349.61 1884.77L2349.61 1884.77Q2349.61 1949.22 2273.44 1949.22L2273.44 1949.22L1759.77 1949.22ZM1337.89 1373.05L1650.39 1373.05L1650.39 1261.72L1384.77 1261.72Q1337.89 1261.72 1337.89 1310.55L1337.89 1310.55L1337.89 1373.05ZM1720.70 2152.34Q1650.39 2152.34 1650.39 2070.31L1650.39 2070.31L1650.39 1712.89L1337.89 1712.89Q1257.81 1712.89 1221.68 1677.73Q1185.55 1642.58 1189.45 1566.41L1189.45 1566.41L1189.45 1291.02Q1189.45 1212.89 1224.61 1176.76Q1259.77 1140.63 1337.89 1144.53L1337.89 1144.53L1650.39 1144.53L1650.39 773.44L1792.97 773.44L1792.97 1144.53L2119.14 1144.53Q2197.27 1144.53 2233.40 1179.69Q2269.53 1214.84 2265.63 1291.02L2265.63 1291.02L2265.63 1566.41Q2265.63 1644.53 2230.47 1680.66Q2195.31 1716.80 2119.14 1712.89L2119.14 1712.89L1792.97 1712.89L1792.97 2070.31Q1792.97 2152.34 1720.70 2152.34L1720.70 2152.34ZM2070.31 1595.70Q2091.80 1595.70 2104.49 1583.01Q2117.19 1570.31 2117.19 1548.83L2117.19 1548.83L2117.19 1486.33L1792.97 1486.33L1792.97 1595.70L2070.31 1595.70ZM1371.09 1050.78Q1312.50 1050.78 1312.50 992.19L1312.50 992.19Q1312.50 933.59 1371.09 933.59L1371.09 933.59L1675.78 933.59L1675.78 1050.78L1371.09 1050.78ZM1792.97 1373.05L2117.19 1373.05L2117.19 1310.55Q2117.19 1289.06 2104.49 1275.39Q2091.80 1261.72 2070.31 1261.72L2070.31 1261.72L1792.97 1261.72L1792.97 1373.05ZM1177.73 1050.78Q1103.52 1050.78 1103.52 970.70L1103.52 970.70L1103.52 826.17Q1103.52 742.19 1140.63 705.08Q1177.73 667.97 1259.77 671.88L1259.77 671.88L2187.50 671.88Q2273.44 671.88 2312.50 708.98Q2351.56 746.09 2345.70 826.17L2345.70 826.17L2345.70 968.75Q2345.70 1050.78 2269.53 1050.78L2269.53 1050.78Q2195.31 1050.78 2195.31 968.75L2195.31 968.75L2195.31 859.38Q2195.31 832.03 2180.66 816.41Q2166.02 800.78 2138.67 800.78L2138.67 800.78L1310.55 800.78Q1253.91 800.78 1253.91 859.38L1253.91 859.38L1253.91 970.70Q1253.91 1050.78 1177.73 1050.78L1177.73 1050.78ZM1767.58 1050.78L1767.58 933.59L2074.22 933.59Q2132.81 933.59 2132.81 992.19L2132.81 992.19Q2132.81 1050.78 2074.22 1050.78L2074.22 1050.78L1767.58 1050.78Z"/>
  </svg>