<svg xmlns="http://www.w3.org/2000/svg" viewBox="0 0 3000 3000" width="3000" height="3000">
    <path fill="#000000" d="M790 1314L790 1314Q846 1304 908 1330L908 1330Q964 1352 930 1424L930 1424Q912 1456 903 1517Q894 1578 910 1628L910 1628Q942 1726 961 1759Q980 1792 1032 1846L1032 1846Q1088 1906 1088 1926L1088 1926Q1088 1970 1132 1970Q1176 1970 1448 2050L1448 2050Q1546 2078 1730 2112L1730 2112Q1784 2120 1877 2120Q1970 2120 2244 2108L2244 2108Q2348 2104 2380 2109Q2412 2114 2418 2136L2418 2136Q2422 2158 2395 2181Q2368 2204 2358 2204L2358 2204Q2346 2204 2311 2226Q2276 2248 2276 2254Q2276 2260 2265 2260Q2254 2260 2206 2309Q2158 2358 2142 2366L2142 2366Q2126 2372 1965 2364Q1804 2356 1760 2350L1760 2350Q1714 2342 1650 2322Q1586 2302 1521 2286Q1456 2270 1334 2224L1334 2224Q1194 2172 1145 2160Q1096 2148 1012 2148L1012 2148Q914 2144 874 2160L874 2160Q802 2184 774 2222L774 2222Q756 2248 708 2216L708 2216Q678 2196 670 2196L670 2196Q664 2196 664 2178Q664 2160 668 2139Q672 2118 676 2110L676 2110Q698 2078 776 2033Q854 1988 902 1982L902 1982Q936 1974 940 1965Q944 1956 910 1908L910 1908Q850 1832 826 1758Q802 1684 798 1570L798 1570Q794 1454 789 1450Q784 1446 741 1474Q698 1502 684 1522L684 1522Q670 1538 650 1540Q630 1542 616 1525Q602 1508 592 1508L592 1508Q584 1508 582 1493Q580 1478 584 1458Q588 1438 594 1428L594 1428Q600 1416 651 1382Q702 1348 732 1334Q762 1320 790 1314ZM1448 1348L1448 1348Q1456 1332 1485 1292Q1514 1252 1524 1252L1524 1252Q1544 1252 1583 1284Q1622 1316 1618 1332L1618 1332Q1616 1344 1611 1366Q1606 1388 1590 1392L1590 1392Q1576 1398 1546 1427Q1516 1456 1516 1465Q1516 1474 1460 1538L1460 1538Q1444 1556 1432 1573Q1420 1590 1415 1599Q1410 1608 1412 1610L1412 1610Q1416 1614 1517 1596Q1618 1578 1668 1566L1668 1566Q1706 1554 1702 1542L1702 1542Q1702 1534 1690 1530L1690 1530Q1678 1526 1678 1486L1678 1486Q1678 1458 1682 1450Q1686 1442 1704 1436L1704 1436Q1742 1422 1787 1442Q1832 1462 1906 1532L1906 1532Q1960 1582 1982 1621Q2004 1660 2004 1706L2004 1706Q2004 1778 1971 1818Q1938 1858 1892 1842L1892 1842Q1872 1834 1839 1799Q1806 1764 1790 1732L1790 1732Q1776 1698 1768 1686Q1760 1674 1753 1650Q1746 1626 1737 1626Q1728 1626 1682 1670Q1636 1714 1599 1729Q1562 1744 1533 1759Q1504 1774 1455 1784Q1406 1794 1361 1817Q1316 1840 1293 1840Q1270 1840 1252 1820Q1234 1800 1230 1768L1230 1768Q1224 1730 1208 1714L1208 1714L1192 1696L1208 1676Q1224 1658 1221 1637Q1218 1616 1231 1616Q1244 1616 1270 1584L1270 1584L1318 1530Q1332 1512 1383 1442Q1434 1372 1448 1348ZM1752 1114L1752 1114Q1928 1106 1962 1108Q1996 1110 2018 1130L2018 1130Q2042 1154 2043 1182Q2044 1210 2022 1232L2022 1232Q2008 1244 1997 1248Q1986 1252 1962 1248L1962 1248Q1924 1244 1888 1234L1888 1234Q1822 1216 1605 1227Q1388 1238 1330 1262L1330 1262Q1302 1272 1278 1282Q1254 1292 1242 1310L1242 1310Q1212 1352 1187 1356Q1162 1360 1132 1328L1132 1328Q1106 1296 1106 1260L1106 1260Q1106 1234 1110 1226Q1114 1218 1144 1206L1144 1206Q1210 1174 1377 1149Q1544 1124 1752 1114ZM840 788L840 788Q856 774 896 780L896 780Q1004 794 1050 842L1050 842Q1066 856 1070 870Q1074 884 1074 930L1074 930Q1074 1006 1049 1059Q1024 1112 993 1102Q962 1092 921 1044Q880 996 880 969Q880 942 826 882L826 882Q814 866 817 837Q820 808 840 788ZM1472 758L1562 744Q1638 728 1691 748Q1744 768 1749 806Q1754 844 1710 890L1710 890L1674 920L1590 920Q1504 920 1478 938L1478 938Q1446 956 1425 951Q1404 946 1370 908L1370 908Q1330 868 1336 856Q1342 844 1346 818L1346 818Q1348 800 1355 793Q1362 786 1388 780L1388 780Q1424 768 1472 758L1472 758Z"/>
  </svg>