<svg xmlns="http://www.w3.org/2000/svg" viewBox="0 0 3000 3000" width="3000" height="3000">
    <path fill="#000000" d="M1044.82 1106.02L1044.82 1106.02Q1058.85 1103.47 1106.66 1107.30Q1154.47 1111.13 1168.50 1117.50L1168.50 1117.50Q1225.88 1140.45 1225.88 1164.67L1225.88 1164.67Q1225.88 1176.15 1213.13 1193.36Q1200.38 1210.57 1190.17 1210.57L1190.17 1210.57Q1186.35 1210.57 1164.04 1224.60Q1141.72 1238.63 1134.07 1246.28L1134.07 1246.28Q1131.52 1247.55 1106.02 1260.30L1106.02 1260.30Q1062.67 1281.97 1062.67 1292.17L1062.67 1292.17Q1062.67 1294.72 1090.72 1325.32Q1118.77 1355.92 1121.96 1368.67Q1125.15 1381.42 1132.80 1395.45L1132.80 1395.45L1140.45 1410.75L1273.05 1408.20Q1396.72 1403.10 1419.67 1408.84Q1442.63 1414.57 1445.17 1443.90L1445.17 1443.90Q1447.72 1470.67 1437.52 1485.97L1437.52 1485.97Q1428.60 1498.72 1413.94 1505.10Q1399.27 1511.47 1390.35 1506.38L1390.35 1506.38Q1377.60 1500 1237.35 1501.28L1237.35 1501.28L1168.50 1501.28L1172.32 1544.63Q1176.15 1608.38 1174.24 1689.34Q1172.32 1770.30 1165.95 1777.95L1165.95 1777.95Q1159.57 1784.33 1158.94 1799.63Q1158.30 1814.92 1151.29 1824.49Q1144.27 1834.05 1144.27 1844.25Q1144.27 1854.45 1130.25 1879.95L1130.25 1879.95L1104.75 1924.58Q1097.10 1942.42 1084.35 1951.99Q1071.60 1961.55 1047.38 1975.58L1047.38 1975.58Q1016.77 1990.88 993.82 1990.88L993.82 1990.88Q975.97 1990.88 970.87 1987.69Q965.77 1984.50 958.12 1969.20L958.12 1969.20Q945.37 1947.53 945.37 1941.15Q945.37 1934.78 940.27 1934.78Q935.17 1934.78 931.35 1918.20Q927.52 1901.63 918.60 1899.71Q909.67 1897.80 881.62 1871.03L881.62 1871.03Q858.67 1844.25 865.05 1842.97L865.05 1842.97Q877.80 1842.97 907.12 1853.17Q936.45 1863.38 964.50 1865.92L964.50 1865.92Q984.90 1868.47 991.27 1865.92Q997.65 1863.38 1012.95 1846.80L1012.95 1846.80Q1034.63 1822.58 1046.74 1798.35Q1058.85 1774.13 1070.32 1729.50L1070.32 1729.50Q1079.25 1702.72 1079.25 1617.94Q1079.25 1533.15 1070.32 1514.03L1070.32 1514.03Q1063.95 1496.17 1059.49 1496.17Q1055.02 1496.17 1034.63 1501.28L1034.63 1501.28L965.77 1515.30Q870.15 1535.70 848.47 1558.65L848.47 1558.65Q835.72 1572.67 828.07 1572.67L828.07 1572.67Q800.02 1572.67 766.87 1543.35L766.87 1543.35Q749.02 1526.78 745.20 1526.78Q741.37 1526.78 741.37 1514.66Q741.37 1502.55 745.20 1498.72L745.20 1498.72Q754.12 1484.70 839.55 1459.84Q924.97 1434.97 1000.20 1424.78L1000.20 1424.78Q1042.27 1417.13 1042.27 1413.30L1042.27 1413.30Q1042.27 1408.20 1031.44 1386.53Q1020.60 1364.85 1011.67 1350.82L1011.67 1350.82Q995.10 1326.60 996.37 1304.92L996.37 1304.92Q996.37 1293.45 1011.67 1289.63L1011.67 1289.63Q1033.35 1285.80 1046.10 1236.07L1046.10 1236.07Q1051.20 1213.13 1066.50 1183.80L1066.50 1183.80Q1072.88 1168.50 1070.96 1164.04Q1069.05 1159.57 1055.02 1159.57L1055.02 1159.57Q1037.17 1159.57 980.44 1172.96Q923.70 1186.35 909.67 1193.36Q895.65 1200.38 884.17 1200.38L884.17 1200.38Q877.80 1200.38 875.89 1196.55Q873.97 1192.72 873.97 1178.70L873.97 1178.70L873.97 1157.02L903.30 1145.55Q945.37 1131.52 1044.82 1106.02ZM559.05 1241.17L559.05 1241.17Q562.87 1228.42 573.71 1200.38Q584.55 1172.32 588.37 1157.02Q592.20 1141.72 603.67 1109.21Q615.15 1076.70 616.42 1076.70Q617.70 1076.70 643.20 1102.20L643.20 1102.20Q686.55 1143 671.25 1173.60L671.25 1173.60Q658.50 1195.27 641.92 1253.92L641.92 1253.92Q633.00 1283.25 626.62 1292.17L626.62 1292.17Q622.80 1296 620.25 1308.11Q617.70 1320.22 617.06 1328.51Q616.42 1336.80 618.97 1338.07L618.97 1338.07Q629.17 1338.07 645.11 1331.06Q661.05 1324.05 666.15 1316.40L666.15 1316.40Q675.07 1297.28 690.37 1313.85L690.37 1313.85Q696.75 1322.78 725.44 1324.05Q754.12 1325.32 763.05 1339.35L763.05 1339.35Q770.70 1348.28 770.70 1352.74Q770.70 1357.20 764.32 1366.13L764.32 1366.13Q741.37 1412.03 731.17 1445.17L731.17 1445.17Q724.80 1468.13 717.79 1484.06Q710.77 1500 710.77 1512.75L710.77 1512.75Q710.77 1531.88 661.05 1632.60L661.05 1632.60Q653.40 1647.90 655.31 1653Q657.22 1658.10 692.92 1695.71Q728.62 1733.33 747.11 1757.55Q765.60 1781.78 787.27 1797.08L787.27 1797.08Q800.02 1807.28 803.85 1813.65Q807.67 1820.03 807.67 1832.78L807.67 1832.78Q807.67 1855.72 800.02 1865.92Q792.37 1876.13 792.37 1881.22L792.37 1881.22Q792.37 1890.15 777.71 1909.91Q763.05 1929.67 757.95 1929.67L757.95 1929.67Q746.47 1929.67 720.34 1912.46Q694.20 1895.25 690.37 1887.60L690.37 1887.60Q686.55 1874.85 680.81 1871.03Q675.07 1867.20 675.07 1857L675.07 1857Q675.07 1837.88 662.96 1808.55Q650.85 1779.22 631.72 1753.72L631.72 1753.72Q615.15 1730.78 608.77 1725.67Q602.40 1720.58 592.20 1721.85L592.20 1721.85Q574.35 1725.67 460.87 1802.17L460.87 1802.17Q366.52 1863.38 356.32 1846.80L356.32 1846.80Q352.50 1841.70 372.90 1826.40L372.90 1826.40Q397.12 1806 473.62 1724.40L473.62 1724.40Q538.65 1655.55 534.82 1642.80L534.82 1642.80Q532.27 1636.42 504.22 1617.30L504.22 1617.30Q462.15 1587.97 468.52 1558.65L468.52 1558.65Q472.35 1548.45 466.61 1536.34Q460.87 1524.22 464.70 1514.03L464.70 1514.03Q471.07 1500 476.17 1484.06Q481.27 1468.13 478.72 1465.57L478.72 1465.57Q476.17 1461.75 447.49 1471.31Q418.80 1480.88 386.92 1496.17L386.92 1496.17Q349.95 1514.03 334.65 1513.39Q319.35 1512.75 297.67 1489.80L297.67 1489.80Q273.45 1468.13 279.19 1456.01Q284.92 1443.90 330.82 1419.67L330.82 1419.67Q374.17 1398 504.22 1363.57L504.22 1363.57Q519.52 1359.75 523.99 1354.65Q528.45 1349.55 533.55 1330.42L533.55 1330.42Q555.22 1264.13 559.05 1241.17ZM639.37 1426.05L639.37 1426.05Q639.37 1424.78 633.64 1425.41Q627.90 1426.05 618.34 1427.32Q608.77 1428.60 598.57 1432.42L598.57 1432.42Q583.27 1434.97 576.90 1441.35Q570.52 1447.72 559.05 1470.67L559.05 1470.67Q541.20 1503.82 537.37 1508.92L537.37 1508.92Q531.00 1514.03 532.27 1525.50Q533.55 1536.97 539.92 1539.53L539.92 1539.53Q547.57 1543.35 547.57 1549.72Q547.57 1556.10 564.79 1566.94Q582.00 1577.78 585.82 1572.67L585.82 1572.67Q589.65 1567.57 602.40 1533.15L602.40 1533.15Q639.37 1431.15 639.37 1426.05ZM1684.88 1381.42L1684.88 1381.42Q1720.58 1375.05 1760.10 1391.63L1760.10 1391.63Q1795.80 1405.65 1774.13 1451.55L1774.13 1451.55Q1762.65 1471.95 1756.91 1510.84Q1751.17 1549.72 1761.38 1581.60L1761.38 1581.60Q1781.78 1644.08 1793.89 1665.11Q1806 1686.15 1839.15 1720.58L1839.15 1720.58Q1874.85 1758.83 1874.85 1771.58L1874.85 1771.58Q1874.85 1799.63 1902.90 1799.63Q1930.95 1799.63 2104.35 1850.63L2104.35 1850.63Q2166.82 1868.47 2284.13 1890.15L2284.13 1890.15Q2318.55 1895.25 2377.84 1895.25Q2437.13 1895.25 2611.80 1887.60L2611.80 1887.60Q2678.10 1885.05 2698.50 1888.24Q2718.90 1891.42 2722.73 1905.45L2722.73 1905.45Q2725.28 1919.47 2708.06 1934.14Q2690.85 1948.80 2684.48 1948.80L2684.48 1948.80Q2676.82 1948.80 2654.51 1962.83Q2632.20 1976.85 2632.20 1980.67Q2632.20 1984.50 2625.19 1984.50Q2618.18 1984.50 2587.57 2015.74Q2556.98 2046.97 2546.78 2052.07L2546.78 2052.07Q2536.57 2055.90 2433.94 2050.80Q2331.30 2045.70 2303.25 2041.88L2303.25 2041.88Q2273.93 2036.78 2233.13 2024.03Q2192.32 2011.28 2150.89 2001.08Q2109.45 1990.88 2031.68 1961.55L2031.68 1961.55Q1942.43 1928.40 1911.19 1920.75Q1879.95 1913.10 1826.40 1913.10L1826.40 1913.10Q1763.92 1910.55 1738.42 1920.75L1738.42 1920.75Q1692.53 1936.05 1674.67 1960.28L1674.67 1960.28Q1663.20 1976.85 1632.60 1956.45L1632.60 1956.45Q1613.47 1943.70 1608.38 1943.70L1608.38 1943.70Q1604.55 1943.70 1604.55 1932.22Q1604.55 1920.75 1607.10 1907.36Q1609.65 1893.97 1612.20 1888.88L1612.20 1888.88Q1626.22 1868.47 1675.95 1839.79Q1725.67 1811.10 1756.28 1807.28L1756.28 1807.28Q1777.95 1802.17 1780.50 1796.44Q1783.05 1790.70 1761.38 1760.10L1761.38 1760.10Q1723.13 1711.65 1707.83 1664.47Q1692.53 1617.30 1689.97 1544.63L1689.97 1544.63Q1687.42 1470.67 1684.24 1468.13Q1681.05 1465.57 1653.64 1483.42Q1626.22 1501.28 1617.30 1514.03L1617.30 1514.03Q1608.38 1524.22 1595.63 1525.50Q1582.88 1526.78 1573.95 1515.94Q1565.03 1505.10 1558.65 1505.10L1558.65 1505.10Q1553.55 1505.10 1552.28 1495.54Q1551 1485.97 1553.55 1473.22Q1556.10 1460.47 1559.92 1454.10L1559.92 1454.10Q1563.75 1446.45 1596.26 1424.78Q1628.78 1403.10 1647.90 1394.17Q1667.03 1385.25 1684.88 1381.42ZM2104.35 1403.10L2104.35 1403.10Q2109.45 1392.90 2127.94 1367.40Q2146.43 1341.90 2152.80 1341.90L2152.80 1341.90Q2165.55 1341.90 2190.41 1362.30Q2215.28 1382.70 2212.72 1392.90L2212.72 1392.90Q2211.45 1400.55 2208.26 1414.57Q2205.07 1428.60 2194.88 1431.15L2194.88 1431.15Q2185.95 1434.97 2166.82 1453.46Q2147.70 1471.95 2147.70 1477.69Q2147.70 1483.42 2112 1524.22L2112 1524.22Q2101.80 1535.70 2094.15 1546.54Q2086.50 1557.38 2083.31 1563.11Q2080.13 1568.85 2081.40 1570.13L2081.40 1570.13Q2083.95 1572.67 2148.34 1561.20Q2212.72 1549.72 2244.60 1542.07L2244.60 1542.07Q2268.82 1534.42 2266.28 1526.78L2266.28 1526.78Q2266.28 1521.67 2258.63 1519.13L2258.63 1519.13Q2250.97 1516.57 2250.97 1491.07L2250.97 1491.07Q2250.97 1473.22 2253.53 1468.13Q2256.07 1463.03 2267.55 1459.20L2267.55 1459.20Q2291.78 1450.28 2320.46 1463.03Q2349.15 1475.77 2396.32 1520.40L2396.32 1520.40Q2430.75 1552.28 2444.78 1577.14Q2458.80 1602 2458.80 1631.33L2458.80 1631.33Q2458.80 1677.22 2437.76 1702.72Q2416.73 1728.22 2387.40 1718.03L2387.40 1718.03Q2374.65 1712.92 2353.61 1690.61Q2332.57 1668.30 2322.38 1647.90L2322.38 1647.90Q2313.45 1626.22 2308.35 1618.58Q2303.25 1610.92 2298.79 1595.63Q2294.32 1580.32 2288.59 1580.32Q2282.85 1580.32 2253.53 1608.38Q2224.20 1636.42 2200.61 1645.99Q2177.03 1655.55 2158.54 1665.11Q2140.05 1674.67 2108.81 1681.05Q2077.57 1687.42 2048.89 1702.09Q2020.20 1716.75 2005.54 1716.75Q1990.88 1716.75 1979.40 1704Q1967.93 1691.25 1965.38 1670.85L1965.38 1670.85Q1961.55 1646.63 1951.35 1636.42L1951.35 1636.42L1941.15 1624.95L1951.35 1612.20Q1961.55 1600.72 1959.64 1587.34Q1957.72 1573.95 1966.01 1573.95Q1974.30 1573.95 1990.88 1553.55L1990.88 1553.55L2021.47 1519.13Q2030.40 1507.65 2062.91 1463.03Q2095.43 1418.40 2104.35 1403.10ZM2298.15 1253.92L2298.15 1253.92Q2410.35 1248.82 2432.03 1250.10Q2453.70 1251.38 2467.73 1264.13L2467.73 1264.13Q2483.03 1279.42 2483.66 1297.28Q2484.30 1315.13 2470.28 1329.15L2470.28 1329.15Q2461.35 1336.80 2454.34 1339.35Q2447.32 1341.90 2432.03 1339.35L2432.03 1339.35Q2407.80 1336.80 2384.85 1330.42L2384.85 1330.42Q2342.78 1318.95 2204.44 1325.96Q2066.10 1332.97 2029.13 1348.28L2029.13 1348.28Q2011.28 1354.65 1995.98 1361.03Q1980.68 1367.40 1973.03 1378.88L1973.03 1378.88Q1953.90 1405.65 1937.96 1408.20Q1922.03 1410.75 1902.90 1390.35L1902.90 1390.35Q1886.33 1369.95 1886.33 1347L1886.33 1347Q1886.33 1330.42 1888.88 1325.32Q1891.43 1320.22 1910.55 1312.57L1910.55 1312.57Q1952.63 1292.17 2059.09 1276.24Q2165.55 1260.30 2298.15 1253.92ZM1716.75 1046.10L1716.75 1046.10Q1726.95 1037.17 1752.45 1041L1752.45 1041Q1821.30 1049.92 1850.63 1080.52L1850.63 1080.52Q1860.83 1089.45 1863.38 1098.38Q1865.92 1107.30 1865.92 1136.63L1865.92 1136.63Q1865.92 1185.07 1849.99 1218.86Q1834.05 1252.65 1814.29 1246.28Q1794.53 1239.90 1768.39 1209.30Q1742.25 1178.70 1742.25 1161.49Q1742.25 1144.27 1707.83 1106.02L1707.83 1106.02Q1700.17 1095.82 1702.09 1077.34Q1704 1058.85 1716.75 1046.10ZM2119.65 1026.97L2177.03 1018.05Q2225.47 1007.85 2259.26 1020.60Q2293.05 1033.35 2296.24 1057.57Q2299.43 1081.80 2271.38 1111.13L2271.38 1111.13L2248.43 1130.25L2194.88 1130.25Q2140.05 1130.25 2123.47 1141.72L2123.47 1141.72Q2103.07 1153.20 2089.69 1150.01Q2076.30 1146.82 2054.63 1122.60L2054.63 1122.60Q2029.13 1097.10 2032.95 1089.45Q2036.78 1081.80 2039.33 1065.22L2039.33 1065.22Q2040.60 1053.75 2045.06 1049.29Q2049.53 1044.82 2066.10 1041L2066.10 1041Q2089.05 1033.35 2119.65 1026.97L2119.65 1026.97Z"/>
  </svg>