<svg xmlns="http://www.w3.org/2000/svg" viewBox="0 0 3000 3000" width="3000" height="3000">
    <path fill="#000000" d="M808.95 1340.63L808.95 1303.65L1440.07 1303.65L1440.07 1340.63L808.95 1340.63ZM1211.85 2077.58L1211.85 1001.47L1250.10 1001.47L1250.10 2076.30Q1250.10 2106.90 1239.90 2120.29Q1229.70 2133.68 1208.02 2138.78L1208.02 2138.78Q1187.63 2143.88 1143.64 2145.15Q1099.65 2146.43 1023.15 2146.43L1023.15 2146.43Q1021.87 2138.78 1018.05 2127.94Q1014.22 2117.10 1007.85 2108.18L1007.85 2108.18Q1071.60 2109.45 1119.41 2109.45Q1167.22 2109.45 1182.52 2108.18L1182.52 2108.18Q1199.10 2106.90 1205.47 2100.53Q1211.85 2094.15 1211.85 2077.58L1211.85 2077.58ZM1202.92 1316.40L1202.92 1316.40L1233.52 1326.60Q1190.17 1451.55 1123.88 1569.49Q1057.57 1687.43 979.16 1783.69Q900.75 1879.95 820.42 1941.15L820.42 1941.15Q815.32 1933.50 807.04 1925.21Q798.75 1916.93 792.37 1911.83L792.37 1911.83Q853.57 1871.03 912.86 1806.64Q972.15 1742.25 1026.34 1662.56Q1080.52 1582.88 1125.79 1494.26Q1171.05 1405.65 1202.92 1316.40ZM436.65 1872.30L436.65 1872.30L474.90 1881.23Q448.12 1955.18 406.05 2025.94Q363.97 2096.70 316.80 2146.43L316.80 2146.43Q314.25 2142.60 307.87 2137.50Q301.50 2132.40 295.12 2127.30Q288.75 2122.20 283.65 2119.65L283.65 2119.65Q332.10 2072.47 372.26 2007.45Q412.42 1942.43 436.65 1872.30ZM625.35 1890.15L625.35 1890.15L655.95 1872.30Q695.47 1919.48 735.00 1976.85Q774.52 2034.23 793.65 2076.30L793.65 2076.30L759.22 2096.70Q738.82 2054.63 700.57 1995.98Q662.32 1937.33 625.35 1890.15ZM723.52 1329.15L378.00 1329.15L378.00 1539.53L723.52 1539.53L723.52 1329.15ZM723.52 1576.50L378.00 1576.50L378.00 1789.43L723.52 1789.43L723.52 1576.50ZM723.52 1083.08L378.00 1083.08L378.00 1292.17L723.52 1292.17L723.52 1083.08ZM339.75 1826.40L339.75 1046.10L761.77 1046.10L761.77 1826.40L339.75 1826.40ZM2113.28 2071.20L2113.28 1721.85L2151.53 1721.85L2151.53 2071.20L2113.28 2071.20ZM1756.28 1296L1756.28 1259.03L2522.55 1259.03L2522.55 1296L1756.28 1296ZM2440.95 1429.88L1832.78 1429.88L1832.78 1562.47L2440.95 1562.47L2440.95 1429.88ZM1794.53 1599.45L1794.53 1391.63L2479.20 1391.63L2479.20 1599.45L1794.53 1599.45ZM1718.03 2147.70L1718.03 1700.18L2573.55 1700.18L2573.55 2138.78L2536.57 2138.78L2536.57 1737.15L1755 1737.15L1755 2147.70L1718.03 2147.70ZM1742.25 1913.10L1742.25 1876.13L2564.63 1876.13L2564.63 1913.10L1742.25 1913.10ZM1744.80 2094.15L1744.80 2057.18L2560.80 2057.18L2560.80 2094.15L1744.80 2094.15ZM1614.75 1318.95L1614.75 1113.67L2664.07 1113.67L2664.07 1318.95L2625.82 1318.95L2625.82 1150.65L1653 1150.65L1653 1318.95L1614.75 1318.95ZM2062.28 1002.75L2062.28 1002.75L2096.70 987.45Q2120.93 1020.60 2145.79 1059.49Q2170.65 1098.38 2183.40 1125.15L2183.40 1125.15L2147.70 1143Q2134.95 1114.95 2110.72 1074.79Q2086.50 1034.63 2062.28 1002.75Z"/>
  </svg>