<svg xmlns="http://www.w3.org/2000/svg" viewBox="0 0 3000 3000" width="3000" height="3000">
    <path fill="#000000" d="M357.60 1998.53L357.60 1998.53Q346.12 2004.90 334.01 2004.90Q321.90 2004.90 321.90 1992.15Q321.90 1979.40 337.20 1966.65L337.20 1966.65Q446.85 1878.68 492.75 1767.75L492.75 1767.75Q518.25 1704 529.72 1619.21Q541.20 1534.43 541.20 1243.72L541.20 1243.72Q541.20 1227.15 533.55 1214.40Q525.90 1201.65 525.90 1196.55L525.90 1196.55Q525.90 1183.80 544.39 1183.80Q562.87 1183.80 583.91 1192.72Q604.95 1201.65 611.96 1208.03Q618.97 1214.40 618.97 1227.15L618.97 1227.15Q616.42 1514.03 606.86 1603.91Q597.30 1693.80 570.52 1765.20L570.52 1765.20Q516.97 1910.55 357.60 1998.53ZM743.92 1967.93L743.92 1967.93Q668.70 1840.43 626.62 1793.25L626.62 1793.25Q612.60 1775.40 612.60 1766.48Q612.60 1757.55 627.90 1742.89Q643.20 1728.23 654.67 1728.23Q666.15 1728.23 685.27 1747.99Q704.40 1767.75 728.62 1797.08Q752.85 1826.40 775.16 1857.64Q797.47 1888.88 812.14 1913.10Q826.80 1937.33 826.80 1948.80Q826.80 1960.28 808.31 1975.58Q789.82 1990.88 773.89 1990.88Q757.95 1990.88 743.92 1967.93ZM375.45 1681.05L375.45 1681.05Q381.82 1628.78 381.82 1599.45L381.82 1599.45L380.55 1475.78L374.17 1098.38Q374.17 1060.13 363.34 1034.63Q352.50 1009.13 352.50 1004.02L352.50 1004.02Q352.50 993.83 368.44 993.83Q384.37 993.83 450.67 1023.15L450.67 1023.15L708.22 1006.58L724.80 1006.58Q752.85 1006.58 766.24 1020.60Q779.62 1034.63 779.62 1046.10L779.62 1046.10L773.25 1075.42L763.05 1661.93L761.77 1679.78Q761.77 1705.28 738.82 1704L738.82 1704Q727.35 1704 709.50 1695.08L709.50 1695.08Q673.80 1677.23 676.35 1656.83L676.35 1656.83Q682.72 1600.73 684.00 1575.23L684.00 1575.23L689.10 1077.97L453.22 1093.28L459.60 1475.78L462.15 1683.60L462.15 1701.45Q462.15 1726.95 439.20 1726.95L439.20 1726.95Q427.72 1726.95 409.87 1718.03L409.87 1718.03Q375.45 1701.45 375.45 1681.05ZM1162.13 1942.43L1162.13 1721.85L1160.85 1491.08Q1160.85 1459.20 1169.77 1412.03L1169.77 1412.03Q1123.88 1521.68 1021.24 1626.86Q918.60 1732.05 831.90 1788.15L831.90 1788.15Q796.20 1811.10 784.72 1811.10Q773.25 1811.10 773.25 1803.45L773.25 1803.45Q773.25 1791.98 796.20 1771.58L796.20 1771.58Q1018.05 1565.03 1134.07 1324.05L1134.07 1324.05L902.02 1338.08L889.27 1338.08Q845.92 1338.08 833.17 1322.78L833.17 1322.78Q801.30 1285.80 801.30 1262.85L801.30 1262.85Q801.30 1256.47 805.76 1256.47Q810.22 1256.47 824.25 1260.94Q838.27 1265.40 865.05 1265.40L865.05 1265.40L875.25 1265.40L1160.85 1247.55L1159.57 992.55Q1159.57 961.95 1137.90 932.63L1137.90 932.63Q1130.25 921.15 1130.25 915.41Q1130.25 909.67 1143.64 909.67Q1157.02 909.67 1188.90 921.79Q1220.77 933.90 1228.42 941.55Q1236.07 949.20 1236.07 963.23L1236.07 963.23L1237.35 1242.45L1344.45 1236.08Q1377.60 1233.53 1389.07 1228.43Q1400.55 1223.33 1410.75 1223.33Q1420.95 1223.33 1436.25 1236.08L1436.25 1236.08Q1477.05 1267.95 1477.05 1287.08L1477.05 1287.08Q1477.05 1299.83 1446.45 1303.65L1446.45 1303.65L1237.35 1316.40L1238.63 1930.95L1239.90 1971.75Q1239.90 2015.10 1200.38 2031.68L1200.38 2031.68Q1186.35 2036.78 1177.42 2036.78Q1168.50 2036.78 1128.97 2016.38Q1089.45 1995.98 1021.87 1942.43L1021.87 1942.43Q956.85 1888.88 956.85 1869.75L956.85 1869.75Q956.85 1862.10 968.32 1862.10Q979.80 1862.10 1031.44 1888.88Q1083.07 1915.65 1162.13 1942.43L1162.13 1942.43ZM1752.45 986.17L1752.45 986.17Q1783.05 995.10 1783.05 1014.23Q1783.05 1033.35 1774.13 1055.03L1774.13 1055.03L2094.15 1037.17L2092.88 961.95Q2092.88 939 2080.76 921.79Q2068.65 904.57 2068.65 895.65Q2068.65 886.72 2092.88 886.72Q2117.10 886.72 2147.70 898.20Q2178.30 909.67 2178.30 928.80L2178.30 928.80L2177.03 1032.08L2607.98 1007.85L2616.90 1007.85Q2660.25 1007.85 2675.55 1038.45L2675.55 1038.45Q2680.65 1049.92 2680.65 1056.94Q2680.65 1063.95 2671.09 1071.60Q2661.53 1079.25 2636.66 1113.67Q2611.80 1148.10 2564.63 1203.56Q2517.45 1259.03 2494.50 1259.03L2494.50 1259.03Q2485.58 1259.03 2485.58 1246.91Q2485.58 1234.80 2512.35 1193.36Q2539.13 1151.92 2568.45 1079.25L2568.45 1079.25L1755 1121.33Q1729.50 1208.03 1691.25 1284.53L1691.25 1284.53Q1681.05 1304.93 1667.03 1304.93Q1653 1304.93 1631.96 1292.81Q1610.92 1280.70 1610.92 1265.40L1610.92 1265.40Q1610.92 1261.58 1627.50 1227.15L1627.50 1227.15Q1679.78 1126.42 1706.55 1007.85L1706.55 1007.85Q1711.65 982.35 1729.50 982.35L1729.50 982.35Q1739.70 982.35 1752.45 986.17ZM1818.75 1191.45L1818.75 1191.45Q1850.63 1197.83 1869.75 1197.83L1869.75 1197.83L1885.05 1197.83L2324.93 1174.88Q2356.80 1172.33 2370.19 1169.14Q2383.57 1165.95 2389.95 1165.95Q2396.32 1165.95 2407.80 1176.15L2407.80 1176.15Q2440.95 1202.93 2440.95 1216.95Q2440.95 1230.97 2416.73 1233.53L2416.73 1233.53L1906.72 1259.03Q1897.80 1260.30 1890.15 1260.30L1890.15 1260.30L1876.13 1260.30Q1854.45 1260.30 1848.08 1253.93L1848.08 1253.93Q1814.92 1220.78 1814.92 1195.28L1814.92 1195.28Q1814.92 1191.45 1818.75 1191.45ZM1941.15 1332.97L2345.32 1315.13L2364.45 1313.85Q2381.03 1313.85 2393.14 1325.33Q2405.25 1336.80 2405.25 1346.36Q2405.25 1355.93 2402.06 1361.66Q2398.88 1367.40 2397.60 1372.50L2397.60 1372.50L2377.20 1459.20Q2405.25 1494.90 2405.25 1504.46Q2405.25 1514.03 2393.78 1515.30Q2382.30 1516.58 2364.45 1517.85L2364.45 1517.85L1962.83 1530.60L1964.10 1542.08L1964.10 1544.63Q1964.10 1565.03 1941.15 1565.03L1941.15 1565.03L1925.85 1563.75Q1882.50 1556.10 1882.50 1524.22L1882.50 1524.22L1882.50 1515.30L1883.78 1501.28Q1883.78 1492.35 1881.22 1477.05L1881.22 1477.05L1871.03 1389.08Q1867.20 1357.20 1857.64 1340.63Q1848.08 1324.05 1848.08 1321.50L1848.08 1321.50Q1848.08 1312.58 1867.20 1312.58Q1886.33 1312.58 1941.15 1332.97L1941.15 1332.97ZM2301.98 1457.93L2316 1376.33L1944.97 1392.90L1955.18 1469.40L2301.98 1457.93ZM1771.58 2001.08L1771.58 2001.08Q1776.67 1960.28 1776.67 1943.70L1776.67 1943.70L1776.67 1918.20Q1776.67 1911.83 1775.40 1905.45L1775.40 1905.45L1758.83 1681.05Q1755 1647.90 1744.16 1626.23Q1733.33 1604.55 1733.33 1596.26Q1733.33 1587.98 1751.17 1587.98Q1769.03 1587.98 1837.88 1613.48L1837.88 1613.48L2488.13 1587.98Q2517.45 1587.98 2534.03 1605.83Q2550.60 1623.68 2550.60 1633.88Q2550.60 1644.08 2548.05 1649.81Q2545.50 1655.55 2544.23 1660.65L2544.23 1660.65L2498.33 1910.55Q2534.03 1950.08 2534.03 1963.46Q2534.03 1976.85 2520.64 1979.40Q2507.25 1981.95 2488.13 1981.95L2488.13 1981.95L1854.45 1987.05L1857 2025.30L1857 2027.85Q1857 2048.25 1836.60 2048.25Q1816.20 2048.25 1793.89 2033.59Q1771.58 2018.93 1771.58 2001.08ZM2449.88 1749.90L2463.90 1658.10L2171.93 1667.03L2171.93 1757.55L2449.88 1749.90ZM2101.80 1760.10L2101.80 1669.58L1832.78 1677.23L1839.15 1766.48L2101.80 1760.10ZM2425.65 1916.93L2440.95 1813.65L2170.65 1820.03L2170.65 1922.03L2425.65 1916.93ZM2100.53 1924.58L2100.53 1822.58L1842.97 1828.95L1850.63 1929.68L2100.53 1924.58Z"/>
  </svg>