<svg xmlns="http://www.w3.org/2000/svg" viewBox="0 0 3000 3000" width="3000" height="3000">
    <path fill="#000000" d="M1054.25 2056.57Q994.48 2056.57 994.48 2005.52L994.48 2005.52Q994.48 1954.47 1050.51 1954.47L1050.51 1954.47L1116.50 1954.47Q1145.14 1954.47 1160.71 1939.53Q1176.27 1924.58 1176.27 1897.19L1176.27 1897.19L1176.27 1410.35L1178.76 1410.35Q1100.32 1573.46 988.26 1699.22L988.26 1699.22Q930.98 1763.96 894.87 1795.09Q858.76 1826.22 840.09 1826.22L840.09 1826.22Q791.53 1826.22 791.53 1777.66L791.53 1777.66Q791.53 1752.76 827.64 1724.12L827.64 1724.12Q930.98 1639.45 1006.93 1529.88Q1082.89 1420.31 1150.12 1273.39L1150.12 1273.39L874.95 1273.39Q822.66 1273.39 822.66 1226.07L822.66 1226.07Q822.66 1177.51 874.95 1177.51L874.95 1177.51L1175.02 1177.51L1175.02 990.75Q1175.02 934.72 1224.83 934.72L1224.83 934.72Q1273.39 934.72 1273.39 991.99L1273.39 991.99L1273.39 1177.51L1380.47 1177.51Q1427.78 1177.51 1427.78 1226.07L1427.78 1226.07Q1427.78 1273.39 1380.47 1273.39L1380.47 1273.39L1273.39 1273.39L1273.39 1932.06Q1273.39 1996.80 1241.02 2026.68Q1208.64 2056.57 1141.41 2056.57L1141.41 2056.57L1054.25 2056.57ZM342.04 2049.10Q293.48 2049.10 293.48 1999.29L293.48 1999.29Q293.48 1975.63 343.29 1927.08L343.29 1927.08Q366.94 1904.66 389.36 1876.03Q411.77 1847.39 416.75 1841.16L416.75 1841.16Q451.61 1796.34 475.27 1796.34L475.27 1796.34Q522.58 1796.34 522.58 1842.41L522.58 1842.41Q522.58 1873.54 447.88 1960.69L447.88 1960.69Q371.92 2049.10 342.04 2049.10L342.04 2049.10ZM772.85 2012.99Q757.91 2012.99 742.35 1998.67Q726.78 1984.35 706.86 1953.22L706.86 1953.22Q668.26 1894.70 648.34 1867.31L648.34 1867.31Q634.64 1849.88 634.64 1836.18L634.64 1836.18Q634.64 1795.09 679.47 1795.09L679.47 1795.09Q704.37 1795.09 737.99 1836.18L737.99 1836.18L766.63 1872.29Q795.26 1909.64 808.96 1931.43Q822.66 1953.22 822.66 1965.67L822.66 1965.67Q822.66 2012.99 772.85 2012.99L772.85 2012.99ZM645.85 1684.28Q665.77 1684.28 676.35 1673.69Q686.94 1663.11 686.94 1644.43L686.94 1644.43L686.94 1532.37L466.55 1532.37L466.55 1644.43Q466.55 1663.11 477.14 1673.69Q487.72 1684.28 507.64 1684.28L507.64 1684.28L645.85 1684.28ZM479.00 1773.93Q421.73 1773.93 394.96 1747.78Q368.19 1721.63 371.92 1665.60L371.92 1665.60L371.92 1089.11Q371.92 1030.59 397.45 1003.82Q422.97 977.05 479.00 980.79L479.00 980.79L674.49 980.79Q733.01 980.79 759.78 1006.93Q786.55 1033.08 782.81 1089.11L782.81 1089.11L782.81 1665.60Q782.81 1724.12 756.67 1750.89Q730.52 1777.66 674.49 1773.93L674.49 1773.93L479.00 1773.93ZM466.55 1442.72L686.94 1442.72L686.94 1300.78L466.55 1300.78L466.55 1442.72ZM466.55 1212.38L686.94 1212.38L686.94 1110.28Q686.94 1091.60 676.35 1081.02Q665.77 1070.43 645.85 1070.43L645.85 1070.43L507.64 1070.43Q487.72 1070.43 477.14 1081.02Q466.55 1091.60 466.55 1110.28L466.55 1110.28L466.55 1212.38ZM1656.88 1305.76Q1629.49 1305.76 1617.04 1293.31Q1604.59 1280.86 1604.59 1254.71L1604.59 1254.71L1604.59 1141.41Q1599.61 1079.15 1628.25 1050.51Q1656.88 1021.88 1719.14 1026.86L1719.14 1026.86L2082.71 1026.86L2082.71 980.79Q2082.71 933.47 2138.75 933.47L2138.75 933.47Q2192.29 933.47 2192.29 980.79L2192.29 980.79L2192.29 1026.86L2573.29 1026.86Q2635.55 1021.88 2664.18 1050.51Q2692.82 1079.15 2687.84 1141.41L2687.84 1141.41L2687.84 1254.71Q2687.84 1280.86 2675.39 1293.31Q2662.94 1305.76 2635.55 1305.76L2635.55 1305.76Q2585.74 1305.76 2585.74 1254.71L2585.74 1254.71L2585.74 1161.33Q2585.74 1110.28 2537.18 1111.52L2537.18 1111.52L1755.25 1111.52Q1704.20 1111.52 1705.44 1161.33L1705.44 1161.33L1705.44 1254.71Q1705.44 1280.86 1693.62 1293.31Q1681.79 1305.76 1656.88 1305.76L1656.88 1305.76ZM1807.54 1950.73L2091.43 1950.73L2091.43 1858.59L1770.19 1858.59L1770.19 1913.38Q1770.19 1948.24 1807.54 1950.73L1807.54 1950.73ZM1770.19 1782.64L2091.43 1782.64L2091.43 1697.97L1807.54 1697.97Q1772.68 1697.97 1770.19 1735.33L1770.19 1735.33L1770.19 1782.64ZM1780.15 2027.93Q1720.39 2027.93 1692.99 2001.16Q1665.60 1974.39 1668.09 1917.11L1668.09 1917.11L1668.09 1730.35Q1668.09 1671.83 1694.86 1645.06Q1721.63 1618.29 1780.15 1619.53L1780.15 1619.53L2513.53 1619.53Q2573.29 1619.53 2600.68 1646.30Q2628.08 1673.07 2625.59 1730.35L2625.59 1730.35L2625.59 1917.11Q2625.59 1975.63 2598.82 2003.03Q2572.05 2030.42 2513.53 2027.93L2513.53 2027.93L1780.15 2027.93ZM2486.13 1950.73Q2521.00 1950.73 2523.49 1913.38L2523.49 1913.38L2523.49 1858.59L2188.55 1858.59L2188.55 1950.73L2486.13 1950.73ZM2188.55 1782.64L2523.49 1782.64L2523.49 1735.33Q2523.49 1697.97 2486.13 1697.97L2486.13 1697.97L2188.55 1697.97L2188.55 1782.64ZM1853.61 1562.26Q1802.56 1562.26 1778.28 1539.22Q1754.00 1516.19 1754.00 1467.63L1754.00 1467.63L1754.00 1415.33Q1754.00 1315.72 1853.61 1320.70L1853.61 1320.70L2438.82 1320.70Q2538.43 1320.70 2538.43 1412.84L2538.43 1412.84L2538.43 1467.63Q2538.43 1567.24 2438.82 1562.26L2438.82 1562.26L1853.61 1562.26ZM2396.48 1486.30Q2432.59 1486.30 2432.59 1437.74L2432.59 1437.74Q2432.59 1399.15 2396.48 1396.66L2396.48 1396.66L1895.95 1396.66Q1876.03 1396.66 1867.93 1407.86Q1859.84 1419.07 1859.84 1445.21L1859.84 1445.21Q1859.84 1483.81 1895.95 1486.30L1895.95 1486.30L2396.48 1486.30ZM1780.15 1258.45Q1756.49 1258.45 1746.53 1249.11Q1736.57 1239.77 1736.57 1219.85L1736.57 1219.85Q1736.57 1181.25 1780.15 1181.25L1780.15 1181.25L2511.04 1181.25Q2557.10 1181.25 2557.10 1219.85L2557.10 1219.85Q2557.10 1239.77 2545.90 1249.11Q2534.69 1258.45 2511.04 1258.45L2511.04 1258.45L1780.15 1258.45Z"/>
  </svg>