<svg xmlns="http://www.w3.org/2000/svg" viewBox="0 0 3000 3000" width="3000" height="3000">
    <path fill="#000000" d="M1800.78 2373.05Q1707.03 2373.05 1707.03 2292.97L1707.03 2292.97Q1707.03 2212.89 1794.92 2212.89L1794.92 2212.89L1898.44 2212.89Q1943.36 2212.89 1967.77 2189.45Q1992.19 2166.02 1992.19 2123.05L1992.19 2123.05L1992.19 1359.38L1996.09 1359.38Q1873.05 1615.23 1697.27 1812.50L1697.27 1812.50Q1607.42 1914.06 1550.78 1962.89Q1494.14 2011.72 1464.84 2011.72L1464.84 2011.72Q1388.67 2011.72 1388.67 1935.55L1388.67 1935.55Q1388.67 1896.48 1445.31 1851.56L1445.31 1851.56Q1607.42 1718.75 1726.56 1546.88Q1845.70 1375 1951.17 1144.53L1951.17 1144.53L1519.53 1144.53Q1437.50 1144.53 1437.50 1070.31L1437.50 1070.31Q1437.50 994.14 1519.53 994.14L1519.53 994.14L1990.23 994.14L1990.23 701.17Q1990.23 613.28 2068.36 613.28L2068.36 613.28Q2144.53 613.28 2144.53 703.13L2144.53 703.13L2144.53 994.14L2312.50 994.14Q2386.72 994.14 2386.72 1070.31L2386.72 1070.31Q2386.72 1144.53 2312.50 1144.53L2312.50 1144.53L2144.53 1144.53L2144.53 2177.73Q2144.53 2279.30 2093.75 2326.17Q2042.97 2373.05 1937.50 2373.05L1937.50 2373.05L1800.78 2373.05ZM683.59 2361.33Q607.42 2361.33 607.42 2283.20L607.42 2283.20Q607.42 2246.09 685.55 2169.92L685.55 2169.92Q722.66 2134.77 757.81 2089.84Q792.97 2044.92 800.78 2035.16L800.78 2035.16Q855.47 1964.84 892.58 1964.84L892.58 1964.84Q966.80 1964.84 966.80 2037.11L966.80 2037.11Q966.80 2085.94 849.61 2222.66L849.61 2222.66Q730.47 2361.33 683.59 2361.33L683.59 2361.33ZM1359.38 2304.69Q1335.94 2304.69 1311.52 2282.23Q1287.11 2259.77 1255.86 2210.94L1255.86 2210.94Q1195.31 2119.14 1164.06 2076.17L1164.06 2076.17Q1142.58 2048.83 1142.58 2027.34L1142.58 2027.34Q1142.58 1962.89 1212.89 1962.89L1212.89 1962.89Q1251.95 1962.89 1304.69 2027.34L1304.69 2027.34L1349.61 2083.98Q1394.53 2142.58 1416.02 2176.76Q1437.50 2210.94 1437.50 2230.47L1437.50 2230.47Q1437.50 2304.69 1359.38 2304.69L1359.38 2304.69ZM1160.16 1789.06Q1191.41 1789.06 1208.01 1772.46Q1224.61 1755.86 1224.61 1726.56L1224.61 1726.56L1224.61 1550.78L878.91 1550.78L878.91 1726.56Q878.91 1755.86 895.51 1772.46Q912.11 1789.06 943.36 1789.06L943.36 1789.06L1160.16 1789.06ZM898.44 1929.69Q808.59 1929.69 766.60 1888.67Q724.61 1847.66 730.47 1759.77L730.47 1759.77L730.47 855.47Q730.47 763.67 770.51 721.68Q810.55 679.69 898.44 685.55L898.44 685.55L1205.08 685.55Q1296.88 685.55 1338.87 726.56Q1380.86 767.58 1375 855.47L1375 855.47L1375 1759.77Q1375 1851.56 1333.98 1893.55Q1292.97 1935.55 1205.08 1929.69L1205.08 1929.69L898.44 1929.69ZM878.91 1410.16L1224.61 1410.16L1224.61 1187.50L878.91 1187.50L878.91 1410.16ZM878.91 1048.83L1224.61 1048.83L1224.61 888.67Q1224.61 859.38 1208.01 842.77Q1191.41 826.17 1160.16 826.17L1160.16 826.17L943.36 826.17Q912.11 826.17 895.51 842.77Q878.91 859.38 878.91 888.67L878.91 888.67L878.91 1048.83Z"/>
  </svg>