<svg xmlns="http://www.w3.org/2000/svg" viewBox="0 0 3000 3000" width="3000" height="3000">
    <path fill="#000000" d="M842.10 1587.34L977.25 1580.96L974.70 1716.11L839.55 1719.94L842.10 1587.34ZM1061.40 1577.14L1201.65 1570.76L1202.92 1709.74L1058.85 1713.56L1061.40 1577.14ZM378.00 2018.29L378.00 2018.29L384.37 2018.29Q404.77 2018.29 415.61 2006.18Q426.45 1994.06 443.02 1964.74L443.02 1964.74Q505.50 1861.46 549.49 1776.04Q593.47 1690.61 618.34 1633.24Q643.20 1575.86 643.20 1557.38Q643.20 1538.89 626.62 1538.89L626.62 1538.89Q606.22 1538.89 583.27 1578.41L583.27 1578.41Q531.00 1666.39 474.90 1747.99Q418.80 1829.59 357.60 1908.64L357.60 1908.64Q349.95 1921.39 338.47 1930.95Q327.00 1940.51 311.70 1948.16L311.70 1948.16Q296.40 1954.54 296.40 1966.01L296.40 1966.01Q296.40 1978.76 321.90 1997.25Q347.40 2015.74 378.00 2018.29ZM838.27 1800.26L1202.92 1790.06L1204.20 1986.41Q1190.17 1982.59 1153.84 1971.75Q1117.50 1960.91 1080.52 1945.61L1080.52 1945.61Q1060.13 1939.24 1051.20 1939.24L1051.20 1939.24Q1032.07 1939.24 1032.07 1954.54Q1032.07 1969.84 1057.57 1992.79Q1083.07 2015.74 1118.14 2038.69Q1153.20 2061.64 1186.35 2078.21Q1219.50 2094.79 1236.07 2094.79L1236.07 2094.79Q1242.45 2094.79 1257.11 2087.78Q1271.77 2080.76 1284.52 2066.10Q1297.27 2051.44 1297.27 2028.49L1297.27 2028.49Q1297.27 2019.56 1296.00 2010Q1294.72 2000.44 1294.72 1988.96L1294.72 1988.96L1290.90 1564.39Q1290.90 1558.01 1292.81 1551Q1294.72 1543.99 1294.72 1536.34L1294.72 1536.34Q1294.72 1508.29 1271.14 1497.45Q1247.55 1486.61 1224.60 1486.61L1224.60 1486.61L837.00 1503.19Q806.40 1492.99 787.27 1487.25Q768.15 1481.51 757.95 1481.51L757.95 1481.51Q740.10 1481.51 740.10 1498.09L740.10 1498.09Q740.10 1507.01 746.47 1524.86L746.47 1524.86Q755.40 1549.09 755.40 1582.24L755.40 1582.24L755.40 1594.99L745.20 1946.89Q743.92 1986.41 736.27 2024.66L736.27 2024.66Q736.27 2025.94 735.64 2028.49Q735.00 2031.04 735.00 2034.86L735.00 2034.86Q735.00 2056.54 749.66 2069.29Q764.32 2082.04 780.26 2087.14Q796.20 2092.24 801.30 2092.24L801.30 2092.24Q817.87 2092.24 825.52 2080.76Q833.17 2069.29 833.17 2053.99L833.17 2053.99L838.27 1800.26ZM477.45 1496.81L477.45 1496.81Q497.85 1513.39 509.96 1513.39Q522.07 1513.39 532.91 1501.91Q543.75 1490.44 551.40 1476.41Q559.05 1462.39 559.05 1453.46L559.05 1453.46Q559.05 1438.16 536.10 1419.04L536.10 1419.04Q511.87 1399.91 480.00 1377.60Q448.12 1355.29 417.52 1334.89Q386.92 1314.49 363.97 1300.46Q341.02 1286.44 330.82 1286.44L330.82 1286.44Q315.52 1286.44 302.77 1306.20Q290.02 1325.96 290.02 1338.71L290.02 1338.71Q290.02 1355.29 311.70 1368.04L311.70 1368.04Q352.50 1396.09 394.57 1427.96Q436.65 1459.84 477.45 1496.81ZM610.05 1248.19L610.05 1248.19Q616.42 1248.19 628.54 1238.63Q640.65 1229.06 651.49 1216.31Q662.32 1203.56 662.32 1189.54L662.32 1189.54Q662.32 1172.96 644.47 1158.94L644.47 1158.94Q641.92 1156.39 624.07 1139.81Q606.22 1123.24 580.09 1100.92Q553.95 1078.61 527.17 1056.94Q500.40 1035.26 478.09 1019.96Q455.77 1004.66 445.57 1004.66L445.57 1004.66Q432.82 1004.66 417.52 1022.51Q402.22 1040.36 402.22 1055.03Q402.22 1069.69 421.35 1084.99L421.35 1084.99Q457.05 1113.04 500.40 1152.56Q543.75 1192.09 579.45 1229.06L579.45 1229.06Q598.57 1248.19 610.05 1248.19ZM714.60 1449.64L714.60 1449.64L1431.15 1415.21Q1464.30 1411.39 1464.30 1387.16L1464.30 1387.16Q1464.30 1369.31 1442.63 1350.19L1442.63 1350.19Q1424.77 1336.16 1414.57 1331.06Q1404.38 1325.96 1396.72 1325.96L1396.72 1325.96Q1390.35 1325.96 1385.25 1328.51L1385.25 1328.51Q1367.40 1336.16 1341.90 1337.44L1341.90 1337.44L1063.95 1351.46L1063.95 1278.79L1285.80 1266.04Q1318.95 1262.21 1318.95 1240.54L1318.95 1240.54Q1318.95 1229.06 1307.47 1215.68Q1296.00 1202.29 1281.34 1192.72Q1266.67 1183.16 1253.92 1183.16L1253.92 1183.16Q1247.55 1183.16 1243.72 1185.71L1243.72 1185.71Q1222.05 1193.36 1201.65 1194.64L1201.65 1194.64L1063.95 1202.29L1065.22 1135.99L1325.32 1121.96Q1361.02 1118.14 1361.02 1095.19L1361.02 1095.19Q1361.02 1079.89 1345.09 1066.50Q1329.15 1053.11 1312.57 1044.83Q1296.00 1036.54 1288.35 1036.54L1288.35 1036.54Q1285.80 1036.54 1284.52 1037.17Q1283.25 1037.81 1280.70 1037.81L1280.70 1037.81Q1270.50 1040.36 1258.39 1043.55Q1246.27 1046.74 1233.52 1048.01L1233.52 1048.01L1065.22 1056.94L1065.22 963.86Q1065.22 935.81 1043.55 925.61Q1021.87 915.41 1001.47 913.50Q981.07 911.59 978.52 911.59L978.52 911.59Q955.57 911.59 955.57 928.16L955.57 928.16Q955.57 933.26 960.67 943.46L960.67 943.46Q967.05 956.21 970.87 971.51Q974.70 986.81 974.70 1007.21L974.70 1007.21L974.70 1060.76L768.15 1070.96L761.77 1070.96Q736.27 1070.96 706.95 1064.59L706.95 1064.59Q705.67 1064.59 703.76 1063.95Q701.85 1063.31 699.30 1063.31L699.30 1063.31Q684.00 1063.31 684.00 1078.61L684.00 1078.61L689.10 1096.46Q695.47 1114.31 711.41 1132.80Q727.35 1151.29 761.77 1151.29L761.77 1151.29Q768.15 1151.29 773.89 1150.65Q779.62 1150.01 784.72 1150.01L784.72 1150.01L975.97 1139.81L975.97 1206.11L822.97 1213.76Q819.15 1213.76 814.69 1214.40Q810.22 1215.04 805.12 1215.04L805.12 1215.04Q787.27 1215.04 763.05 1208.66L763.05 1208.66Q759.22 1207.39 752.85 1207.39L752.85 1207.39Q737.55 1207.39 737.55 1222.69L737.55 1222.69Q737.55 1225.24 738.19 1228.43Q738.82 1231.61 740.10 1235.44L740.10 1235.44Q745.20 1246.91 755.40 1260.30Q765.60 1273.69 774.52 1281.34L774.52 1281.34Q782.17 1287.71 793.01 1289.63Q803.85 1291.54 814.05 1291.54L814.05 1291.54Q820.42 1291.54 826.80 1290.90Q833.17 1290.26 839.55 1290.26L839.55 1290.26L975.97 1282.61L977.25 1354.01L695.47 1368.04Q686.55 1368.04 669.97 1367.40Q653.40 1366.76 639.37 1362.94L639.37 1362.94Q635.55 1361.66 629.17 1361.66L629.17 1361.66Q615.15 1361.66 615.15 1376.96L615.15 1376.96Q615.15 1383.34 622.16 1402.46Q629.17 1421.59 648.30 1440.71L648.30 1440.71Q658.50 1450.91 682.72 1450.91L682.72 1450.91Q689.10 1450.91 697.39 1450.28Q705.67 1449.64 714.60 1449.64ZM1602 1823.21L1617.30 1827.04Q1641.53 1827.04 1654.28 1798.99L1654.28 1798.99Q1687.42 1728.86 1710.38 1663.84Q1733.33 1598.81 1747.35 1545.26Q1761.38 1491.71 1768.39 1458.56Q1775.40 1425.41 1775.40 1420.31Q1775.40 1415.21 1772.85 1405.65Q1770.30 1396.09 1756.91 1387.80Q1743.53 1379.51 1714.20 1379.51L1714.20 1379.51Q1697.63 1379.51 1688.06 1388.44Q1678.50 1397.36 1675.95 1412.66L1675.95 1412.66Q1654.28 1508.29 1625.59 1589.89Q1596.90 1671.49 1559.92 1749.26L1559.92 1749.26Q1552.28 1764.56 1552.28 1774.76L1552.28 1774.76Q1552.28 1796.44 1569.49 1807.91Q1586.70 1819.39 1602 1823.21L1602 1823.21ZM2731.65 1670.21L2731.65 1670.21Q2731.65 1654.91 2718.90 1637.06L2718.90 1637.06Q2667.90 1568.21 2613.07 1501.28Q2558.25 1434.34 2495.78 1368.04L2495.78 1368.04Q2477.93 1350.19 2462.63 1350.19L2462.63 1350.19Q2446.05 1350.19 2425.65 1367.40Q2405.25 1384.61 2405.25 1402.46L2405.25 1402.46Q2405.25 1416.49 2416.73 1427.96L2416.73 1427.96Q2479.20 1499.36 2530.84 1566.94Q2582.48 1634.51 2633.48 1708.46L2633.48 1708.46Q2650.05 1731.41 2666.63 1731.41L2666.63 1731.41Q2687.03 1731.41 2709.34 1709.10Q2731.65 1686.79 2731.65 1670.21ZM1872.30 1379.51L1872.30 1379.51L1872.30 1385.89Q1874.85 1476.41 1886.96 1560.56Q1899.08 1644.71 1929.04 1719.30Q1959 1793.89 2013.83 1854.45Q2068.65 1915.01 2157.90 1955.81Q2247.15 1996.61 2377.20 2011.91L2377.20 2011.91Q2384.85 2013.19 2393.14 2013.83Q2401.43 2014.46 2410.35 2014.46L2410.35 2014.46Q2472.82 2014.46 2520.64 1993.43Q2568.45 1972.39 2568.45 1936.69L2568.45 1936.69Q2568.45 1909.91 2541.68 1871.66L2541.68 1871.66Q2457.53 1746.71 2398.88 1631.96L2398.88 1631.96Q2368.28 1570.76 2345.32 1570.76L2345.32 1570.76Q2327.48 1570.76 2327.48 1597.54L2327.48 1597.54Q2327.48 1621.76 2342.78 1671.49Q2358.07 1721.21 2381.66 1779.86Q2405.25 1838.51 2429.48 1893.34L2429.48 1893.34L2432.03 1899.71L2423.10 1899.71Q2414.18 1900.99 2398.88 1900.99L2398.88 1900.99Q2341.50 1900.99 2276.48 1884.41Q2211.45 1867.84 2155.99 1835.33Q2100.53 1802.81 2066.10 1755.64L2066.10 1755.64Q2015.10 1682.96 1996.61 1590.53Q1978.13 1498.09 1975.58 1382.06L1975.58 1382.06Q1974.30 1352.74 1962.19 1341.90Q1950.08 1331.06 1925.85 1331.06L1925.85 1331.06L1920.75 1331.06Q1892.70 1332.34 1882.50 1343.81Q1872.30 1355.29 1872.30 1379.51ZM2211.45 1376.96L2211.45 1376.96Q2228.03 1376.96 2247.79 1358.47Q2267.55 1339.99 2267.55 1315.76L2267.55 1315.76Q2267.55 1294.09 2250.97 1281.34L2250.97 1281.34Q2192.32 1225.24 2134.31 1176.15Q2076.30 1127.06 2015.10 1081.16L2015.10 1081.16Q2004.90 1073.51 1990.88 1073.51L1990.88 1073.51Q1975.58 1073.51 1955.81 1090.72Q1936.05 1107.94 1936.05 1127.06L1936.05 1127.06Q1936.05 1141.09 1950.08 1152.56L1950.08 1152.56Q2013.83 1203.56 2068.65 1252.65Q2123.47 1301.74 2182.13 1361.66L2182.13 1361.66Q2197.43 1376.96 2211.45 1376.96Z"/>
  </svg>