<svg xmlns="http://www.w3.org/2000/svg" viewBox="0 0 3000 3000" width="3000" height="3000">
    <path fill="#000000" d="M1140 922L1140 862L2366 862L2366 922L1140 922ZM1184 1164L1184 1106L2298 1106L2298 1164L1184 1164ZM1070 1426L1070 1368L2404 1368L2404 1426L1070 1426ZM1304 1914L1304 1854L2206 1854L2206 1914L1304 1914ZM2178 2418L2178 1588L2236 1588L2236 2416Q2236 2450 2226 2468Q2216 2486 2188 2494L2188 2494Q2160 2502 2101 2503Q2042 2504 1942 2504L1942 2504Q1940 2494 1933 2478Q1926 2462 1918 2450L1918 2450Q1974 2450 2020 2451Q2066 2452 2099 2451Q2132 2450 2144 2450L2144 2450Q2164 2448 2171 2442Q2178 2436 2178 2418L2178 2418ZM1732 1408L1732 710L1790 710L1790 1408L1732 1408ZM1308 2182L1308 2122L2210 2122L2210 2182L1308 2182ZM1284 1960L1284 1588L1344 1588L1344 1960Q1344 2044 1334 2146Q1324 2248 1296 2349Q1268 2450 1210 2536L1210 2536Q1206 2528 1198 2519Q1190 2510 1182 2503Q1174 2496 1166 2492L1166 2492Q1218 2412 1243 2319Q1268 2226 1276 2133Q1284 2040 1284 1960L1284 1960ZM1316 1646L1316 1588L2190 1588L2190 1646L1316 1646ZM696 776L696 776L734 738Q790 774 852 816Q914 858 969 899Q1024 940 1060 970L1060 970L1026 1018Q988 986 932 944Q876 902 814 857Q752 812 696 776ZM598 1324L598 1324L632 1282Q686 1308 746 1342Q806 1376 861 1409Q916 1442 952 1466L952 1466L920 1518Q884 1490 829 1456Q774 1422 714 1387Q654 1352 598 1324ZM698 2482L648 2442Q698 2362 757 2251Q816 2140 876 2018Q936 1896 984 1784L984 1784L1032 1820Q986 1926 928 2046Q870 2166 810 2279Q750 2392 698 2482L698 2482Z"/>
  </svg>