<svg xmlns="http://www.w3.org/2000/svg" viewBox="0 0 3000 3000" width="3000" height="3000">
    <path fill="#000000" d="M798.75 1571.40L798.75 1571.40Q805.12 1571.40 829.35 1556.74Q853.57 1542.07 862.50 1539.53Q871.42 1536.97 953.02 1536.97L953.02 1536.97Q1009.12 1536.97 1023.79 1538.25Q1038.45 1539.53 1047.38 1545.90L1047.38 1545.90Q1058.85 1557.38 1065.22 1557.38L1065.22 1557.38Q1072.88 1557.38 1088.17 1565.66Q1103.47 1573.95 1109.85 1582.88L1109.85 1582.88Q1118.77 1593.07 1121.96 1614.11Q1125.15 1635.15 1120.05 1647.90L1120.05 1647.90Q1113.67 1664.47 1113.04 1730.78Q1112.40 1797.08 1117.50 1872.30L1117.50 1872.30Q1125.15 1975.58 1117.50 2029.13Q1109.85 2082.68 1081.80 2117.10L1081.80 2117.10Q1066.50 2136.22 1040.36 2140.05Q1014.22 2143.88 1007.85 2128.57L1007.85 2128.57Q1002.75 2117.10 961.95 2089.05L961.95 2089.05Q916.05 2055.90 914.14 2038.69Q912.22 2021.47 951.75 2016.38L951.75 2016.38Q983.62 2010 992.55 2001.08Q1001.47 1992.15 1007.85 1957.72L1007.85 1957.72Q1014.22 1929.67 1014.86 1907.36Q1015.50 1885.05 1011.67 1821.30L1011.67 1821.30Q1006.57 1725.67 1002.11 1693.80Q997.65 1661.92 993.82 1624.31Q990.00 1586.70 980.44 1580.96Q970.87 1575.22 913.50 1575.22L913.50 1575.22Q862.50 1575.22 851.02 1582.24Q839.55 1589.25 843.37 1616.03L843.37 1616.03Q845.92 1638.97 854.85 1640.25L854.85 1640.25Q858.67 1640.25 862.50 1633.88L862.50 1633.88Q863.77 1630.05 881.62 1628.14Q899.47 1626.22 916.69 1626.86Q933.90 1627.50 933.90 1630.05L933.90 1630.05Q933.90 1633.88 946.65 1647.90L946.65 1647.90Q964.50 1664.47 963.22 1686.15L963.22 1686.15Q963.22 1692.53 937.72 1700.17Q912.22 1707.83 882.90 1710.38L882.90 1710.38Q856.12 1711.65 851.66 1714.84Q847.20 1718.03 831.90 1721.85L831.90 1721.85Q817.87 1724.40 814.05 1732.69Q810.22 1740.97 810.22 1766.47L810.22 1766.47Q810.22 1785.60 815.96 1789.42Q821.70 1793.25 838.27 1786.88L838.27 1786.88Q851.02 1777.95 882.90 1772.85L882.90 1772.85Q910.95 1766.47 923.06 1770.94Q935.17 1775.40 947.92 1797.08L947.92 1797.08Q956.85 1809.83 958.12 1816.84Q959.40 1823.85 955.57 1835.33L955.57 1835.33Q951.75 1853.17 945.37 1857Q939.00 1860.83 921.15 1858.28L921.15 1858.28Q903.30 1854.45 870.15 1864.65Q837.00 1874.85 821.70 1876.13L821.70 1876.13L807.67 1877.40L805.12 1969.20Q803.85 2029.13 801.94 2047.61Q800.02 2066.10 792.37 2076.30L792.37 2076.30Q771.97 2113.28 751.57 2082.68L751.57 2082.68Q742.65 2066.10 739.46 2046.34Q736.27 2026.58 727.99 2017.01Q719.70 2007.45 726.07 2001.08Q732.45 1994.70 735.00 1975.58Q737.55 1956.45 739.46 1948.80Q741.37 1941.15 743.92 1885.05Q746.47 1828.95 753.49 1783.69Q760.50 1738.42 760.50 1717.39Q760.50 1696.35 768.15 1667.03Q775.80 1637.70 775.80 1612.20L775.80 1612.20Q775.80 1595.63 782.17 1583.51Q788.55 1571.40 798.75 1571.40ZM362.70 1340.63L362.70 1340.63Q362.70 1335.53 376.09 1335.53Q389.47 1335.53 407.32 1341.90L407.32 1341.90Q427.72 1348.28 458.96 1369.95Q490.20 1391.63 494.02 1401.82L494.02 1401.82Q501.67 1414.57 495.30 1442.63L495.30 1442.63Q490.20 1466.85 483.19 1477.05Q476.17 1487.25 457.05 1494.90L457.05 1494.90Q445.57 1501.28 441.75 1500.64Q437.92 1500 429.00 1492.35L429.00 1492.35Q417.52 1480.88 417.52 1473.86Q417.52 1466.85 410.51 1458.56Q403.50 1450.28 385.65 1415.85Q367.80 1381.42 362.70 1376.32Q357.60 1371.22 360.15 1359.11Q362.70 1347 362.70 1340.63ZM542.47 1071.60L542.47 1071.60Q546.30 1065.22 582.64 1073.51Q618.97 1081.80 644.47 1095.82L644.47 1095.82Q681.45 1113.67 666.15 1171.05L666.15 1171.05Q657.22 1197.82 652.76 1200.38Q648.30 1202.92 648.30 1213.13Q648.30 1223.32 640.65 1237.35Q633.00 1251.38 618.34 1251.38Q603.67 1251.38 603.67 1246.28Q603.67 1241.17 590.29 1223.32Q576.90 1205.47 567.97 1185.07L567.97 1185.07Q547.57 1145.55 515.70 1106.02L515.70 1106.02Q506.77 1094.55 512.51 1084.99Q518.25 1075.42 529.09 1075.42Q539.92 1075.42 542.47 1071.60ZM903.30 945.38L903.30 945.38Q919.87 927.52 923.70 927.52L923.70 927.52Q930.07 927.52 955.57 949.20Q981.07 970.87 987.45 979.80L987.45 979.80Q992.55 990.00 994.46 1002.11Q996.37 1014.22 992.55 1060.13L992.55 1060.13L990.00 1126.42L1010.40 1122.60Q1034.63 1116.22 1083.71 1114.31Q1132.80 1112.40 1150.65 1113.67L1150.65 1113.67Q1174.88 1117.50 1186.35 1131.52Q1197.82 1145.55 1201.01 1162.13Q1204.20 1178.70 1195.91 1183.80Q1187.63 1188.90 1187.63 1199.10L1187.63 1199.10Q1187.63 1205.47 1183.80 1206.75Q1179.97 1208.02 1160.85 1205.47L1160.85 1205.47Q1132.80 1202.92 1100.29 1195.91Q1067.77 1188.90 1030.80 1194L1030.80 1194L991.27 1200.38L991.27 1230.97Q991.27 1256.47 995.74 1259.66Q1000.20 1262.85 1025.70 1262.85L1025.70 1262.85Q1055.02 1261.57 1077.34 1275.60Q1099.65 1289.63 1099.65 1308.75Q1099.65 1327.88 1089.45 1331.70Q1079.25 1335.53 1044.82 1330.42L1044.82 1330.42Q1006.57 1324.05 998.92 1330.42Q991.27 1336.80 992.55 1376.32L992.55 1376.32L995.10 1415.85L1052.47 1414.57Q1145.55 1412.03 1170.41 1409.47Q1195.27 1406.92 1243.72 1398L1243.72 1398Q1293.45 1389.07 1320.22 1414.57L1320.22 1414.57Q1392.90 1480.88 1359.75 1510.20L1359.75 1510.20Q1349.55 1520.40 1317.04 1518.49Q1284.52 1516.57 1274.96 1510.84Q1265.40 1505.10 1218.22 1499.36Q1171.05 1493.63 1139.17 1487.25Q1107.30 1480.88 1042.27 1485.97L1042.27 1485.97Q1000.20 1488.52 987.45 1490.44Q974.70 1492.35 969.60 1498.72L969.60 1498.72Q959.40 1508.92 945.37 1514.03L945.37 1514.03Q935.17 1519.13 930.71 1517.85Q926.25 1516.57 916.05 1508.92L916.05 1508.92Q903.30 1497.45 893.10 1497.45L893.10 1497.45Q884.17 1497.45 807.67 1517.21Q731.17 1536.97 715.87 1543.35L715.87 1543.35Q699.30 1549.72 694.20 1556.10L694.20 1556.10Q690.37 1562.47 675.07 1561.84Q659.77 1561.20 645.75 1554.82L645.75 1554.82Q620.25 1543.35 613.87 1550.36Q607.50 1557.38 587.10 1609.65L587.10 1609.65Q567.97 1663.20 546.30 1707.83L546.30 1707.83L528.45 1747.35L504.22 1807.28Q495.30 1825.13 495.30 1830.22Q495.30 1835.33 485.10 1857L485.10 1857Q477.45 1869.75 477.45 1874.85Q477.45 1879.95 482.55 1890.15L482.55 1890.15Q490.20 1902.90 490.20 1912.46Q490.20 1922.03 483.82 1941.15L483.82 1941.15Q471.07 1978.13 436.65 1988.33L436.65 1988.33Q418.80 1993.42 411.15 1988.96Q403.50 1984.50 393.30 1964.10L393.30 1964.10Q386.92 1944.97 379.91 1942.42Q372.90 1939.88 372.90 1932.86Q372.90 1925.85 365.25 1909.28L365.25 1909.28Q352.50 1886.33 355.05 1858.91Q357.60 1831.50 372.90 1831.50L372.90 1831.50Q378.00 1831.50 378.00 1821.30Q378.00 1811.10 384.37 1811.10L384.37 1811.10Q394.57 1811.10 454.50 1735.88Q514.42 1660.65 542.47 1609.65L542.47 1609.65Q564.15 1571.40 590.29 1529.96Q616.42 1488.52 617.70 1488.52L617.70 1488.52Q621.52 1488.52 627.90 1494.26Q634.27 1500 644.47 1494.26Q654.67 1488.52 682.72 1479.60L682.72 1479.60L768.15 1456.65Q826.80 1438.80 840.19 1436.25Q853.57 1433.70 851.02 1427.32Q848.47 1420.95 852.94 1411.39Q857.40 1401.82 862.50 1375.05L862.50 1375.05Q865.05 1350.82 862.50 1350.82L862.50 1350.82Q858.67 1349.55 854.85 1353.38L854.85 1353.38Q820.42 1366.13 789.82 1353.38L789.82 1353.38Q738.82 1329.15 834.45 1298.55L834.45 1298.55L867.60 1288.35L868.87 1251.38Q870.15 1215.67 865.05 1211.21Q859.95 1206.75 824.25 1222.05L824.25 1222.05Q774.52 1242.45 769.42 1232.25L769.42 1232.25Q765.60 1227.15 744.56 1227.15Q723.52 1227.15 722.89 1218.22Q722.25 1209.30 719.06 1199.74Q715.87 1190.17 735.00 1177.42L735.00 1177.42Q747.75 1168.50 780.26 1158.30Q812.77 1148.10 829.35 1148.10L829.35 1148.10Q837.00 1148.10 854.85 1143L854.85 1143L873.97 1137.90L873.97 1062.67Q873.97 1000.20 877.80 983.62Q881.62 967.05 903.30 945.38ZM2347.88 1547.17L2347.88 1547.17Q2335.13 1528.05 2335.13 1516.57Q2335.13 1505.10 2340.23 1505.10L2340.23 1505.10Q2347.88 1505.10 2375.29 1530.60Q2402.70 1556.10 2414.18 1573.95L2414.18 1573.95Q2430.75 1599.45 2440.95 1611.56Q2451.15 1623.67 2451.15 1629.41Q2451.15 1635.15 2456.89 1640.89Q2462.63 1646.63 2475.38 1667.03L2475.38 1667.03Q2497.05 1702.72 2530.20 1721.85L2530.20 1721.85Q2559.53 1737.15 2523.83 1789.42L2523.83 1789.42Q2504.70 1817.47 2502.15 1831.50L2502.15 1831.50Q2495.78 1853.17 2471.55 1867.84Q2447.32 1882.50 2396.32 1892.70L2396.32 1892.70Q2296.88 1911.83 2190.41 1895.25Q2083.95 1878.67 2016.38 1835.33L2016.38 1835.33Q1967.93 1802.17 1926.49 1746.71Q1885.05 1691.25 1872.30 1640.25L1872.30 1640.25Q1865.92 1610.92 1866.56 1577.14Q1867.20 1543.35 1876.13 1543.35L1876.13 1543.35Q1879.95 1543.35 1900.35 1577.78L1900.35 1577.78Q1933.50 1633.88 1981.31 1673.40Q2029.13 1712.92 2077.57 1724.40L2077.57 1724.40Q2109.45 1733.33 2183.40 1735.88Q2257.35 1738.42 2299.43 1732.05L2299.43 1732.05Q2333.85 1726.95 2363.81 1718.66Q2393.78 1710.38 2397.60 1701.45L2397.60 1701.45Q2401.43 1697.63 2398.88 1675.95Q2396.32 1654.28 2389.31 1641.53Q2382.30 1628.78 2382.30 1621.13L2382.30 1621.13Q2382.30 1612.20 2370.82 1587.97Q2359.35 1563.75 2347.88 1547.17ZM1732.05 1460.47L1732.05 1460.47Q1734.60 1452.82 1738.42 1452.82Q1742.25 1452.82 1756.28 1460.47L1756.28 1460.47Q1769.03 1469.40 1770.30 1485.97Q1771.58 1502.55 1776.67 1503.82Q1781.78 1505.10 1797.71 1490.44Q1813.65 1475.77 1816.20 1478.32L1816.20 1478.32Q1817.47 1482.15 1811.10 1503.19Q1804.72 1524.22 1799.63 1530.60L1799.63 1530.60Q1793.25 1540.80 1793.25 1551Q1793.25 1561.20 1781.14 1582.24Q1769.03 1603.28 1769.03 1619.21Q1769.03 1635.15 1763.92 1637.70Q1758.83 1640.25 1758.83 1656.19Q1758.83 1672.13 1752.45 1681.69Q1746.08 1691.25 1746.08 1704L1746.08 1704Q1746.08 1714.20 1731.41 1730.14Q1716.75 1746.08 1704 1749.90L1704 1749.90Q1691.25 1753.72 1679.14 1749.26Q1667.03 1744.80 1664.47 1738.42L1664.47 1738.42Q1661.92 1729.50 1653 1720.58L1653 1720.58Q1644.08 1711.65 1644.08 1656.19Q1644.08 1600.72 1653 1581.60L1653 1581.60Q1663.20 1565.03 1663.20 1559.92L1663.20 1559.92Q1663.20 1557.38 1680.41 1532.51Q1697.63 1507.65 1705.28 1501.28L1705.28 1501.28Q1709.10 1497.45 1719.30 1482.15Q1729.50 1466.85 1732.05 1460.47ZM2403.98 1340.63L2403.98 1340.63Q2409.07 1334.25 2460.07 1345.72L2460.07 1345.72Q2483.03 1350.82 2542.95 1375.05Q2602.88 1399.28 2615.63 1408.20L2615.63 1408.20Q2658.98 1438.80 2680.65 1471.95L2680.65 1471.95Q2692.13 1491.07 2692.13 1531.88L2692.13 1531.88Q2692.13 1561.20 2690.21 1571.40Q2688.30 1581.60 2679.38 1593.07L2679.38 1593.07Q2669.18 1610.92 2658.34 1614.75Q2647.50 1618.58 2628.38 1616.03L2628.38 1616.03Q2611.80 1613.47 2599.69 1603.28Q2587.57 1593.07 2564.63 1561.20L2564.63 1561.20Q2531.48 1516.57 2507.25 1466.85L2507.25 1466.85Q2491.95 1438.80 2474.74 1417.13Q2457.53 1395.45 2418 1358.47L2418 1358.47Q2401.43 1345.72 2403.98 1340.63ZM1979.40 1242.45L1979.40 1242.45Q1984.50 1236.07 2018.93 1245Q2053.35 1253.92 2072.47 1266.67L2072.47 1266.67Q2086.50 1278.15 2108.81 1283.89Q2131.13 1289.63 2156.63 1281.34Q2182.13 1273.05 2201.25 1260.30L2201.25 1260.30Q2219.10 1247.55 2221.65 1250.10L2221.65 1250.10Q2221.65 1253.92 2212.72 1265.40L2212.72 1265.40Q2194.88 1288.35 2192.32 1312.57L2192.32 1312.57Q2191.05 1325.32 2171.93 1362.30L2171.93 1362.30Q2141.32 1417.13 2097.97 1417.13L2097.97 1417.13Q2073.75 1417.13 2047.61 1396.09Q2021.47 1375.05 2010 1348.28L2010 1348.28Q1974.30 1253.92 1979.40 1242.45Z"/>
  </svg>