<svg xmlns="http://www.w3.org/2000/svg" viewBox="0 0 3000 3000" width="3000" height="3000">
    <path fill="#000000" d="M1672 1174L1672 1174L1710 1132Q1828 1196 1955 1274Q2082 1352 2195 1428Q2308 1504 2382 1564L2382 1564L2344 1614Q2272 1552 2159 1475Q2046 1398 1918 1318Q1790 1238 1672 1174ZM1718 712L1718 712L1776 712Q1770 930 1743 1085Q1716 1240 1651 1345Q1586 1450 1467 1516Q1348 1582 1156 1624L1156 1624Q1154 1618 1147 1609Q1140 1600 1133 1591Q1126 1582 1120 1578L1120 1578Q1310 1538 1425 1476Q1540 1414 1602 1315Q1664 1216 1688 1069Q1712 922 1718 712ZM1372 860L1372 860L1428 874Q1396 968 1345 1068Q1294 1168 1226 1232L1226 1232L1174 1204Q1238 1144 1291 1049Q1344 954 1372 860ZM1354 1714L1354 1714L1412 1726Q1380 1836 1326 1949Q1272 2062 1196 2138L1196 2138L1148 2102Q1218 2034 1272 1929Q1326 1824 1354 1714ZM2190 848L2190 848L2246 880Q2192 966 2124 1063Q2056 1160 1996 1228L1996 1228L1950 1204Q1990 1158 2035 1095Q2080 1032 2121 966Q2162 900 2190 848ZM2214 1702L2214 1702L2270 1732Q2230 1794 2180 1863Q2130 1932 2080 1995Q2030 2058 1984 2106L1984 2106L1940 2080Q1986 2032 2037 1965Q2088 1898 2135 1828Q2182 1758 2214 1702ZM1706 1528L1706 1528L1764 1528Q1756 1758 1726 1926Q1696 2094 1622 2209Q1548 2324 1411 2398Q1274 2472 1052 2518L1052 2518Q1050 2510 1043 2501Q1036 2492 1029 2483Q1022 2474 1016 2468L1016 2468Q1190 2434 1309 2382Q1428 2330 1503 2256Q1578 2182 1620 2080Q1662 1978 1681 1841Q1700 1704 1706 1528ZM1692 1818L1740 1808Q1794 2066 1958 2241Q2122 2416 2412 2458L2412 2458Q2406 2464 2398 2474Q2390 2484 2383 2493Q2376 2502 2370 2510L2370 2510Q2174 2474 2036 2381Q1898 2288 1814 2145Q1730 2002 1692 1818L1692 1818ZM702 780L702 780L740 738Q802 768 868 807Q934 846 991 888Q1048 930 1084 966L1084 966L1048 1016Q1012 978 954 935Q896 892 831 851Q766 810 702 780ZM596 1324L596 1324L634 1280Q696 1308 759 1345Q822 1382 878 1421Q934 1460 968 1494L968 1494L934 1544Q898 1510 842 1470Q786 1430 722 1391Q658 1352 596 1324ZM706 2466L654 2424Q704 2346 763 2237Q822 2128 882 2008Q942 1888 990 1778L990 1778L1038 1816Q992 1920 935 2037Q878 2154 818 2266Q758 2378 706 2466L706 2466Z"/>
  </svg>