<svg xmlns="http://www.w3.org/2000/svg" viewBox="0 0 3000 3000" width="3000" height="3000">
    <path fill="#000000" d="M1103.52 2378.91Q1025.39 2378.91 1025.39 2296.88L1025.39 2296.88Q1025.39 2230.47 1144.53 2207.03L1144.53 2207.03Q1412.11 2154.30 1531.25 1947.27L1531.25 1947.27Q1587.89 1847.66 1609.38 1523.44L1609.38 1523.44Q1615.23 1427.73 1689.45 1427.73L1689.45 1427.73Q1763.67 1427.73 1763.67 1507.81L1763.67 1507.81L1746.09 1730.47L1746.09 1738.28Q1919.92 2115.23 2314.45 2203.13L2314.45 2203.13Q2376.95 2216.80 2376.95 2277.34L2376.95 2277.34Q2376.95 2365.23 2300.78 2365.23L2300.78 2365.23Q2185.55 2365.23 2003.91 2250L2003.91 2250Q1816.41 2130.86 1712.89 1925.78L1712.89 1925.78L1705.08 1925.78Q1625 2148.44 1431.64 2263.67L1431.64 2263.67Q1240.23 2378.91 1103.52 2378.91L1103.52 2378.91ZM740.23 2347.66Q654.30 2347.66 654.30 2271.48L654.30 2271.48Q654.30 2250 673.83 2205.08L673.83 2205.08Q773.44 1984.38 857.42 1730.47L857.42 1730.47Q873.05 1687.50 892.58 1666.99Q912.11 1646.48 941.41 1646.48L941.41 1646.48Q1019.53 1646.48 1019.53 1714.84L1019.53 1714.84Q1019.53 1734.38 996.09 1810.55Q972.66 1886.72 931.64 2003.91L931.64 2003.91Q865.23 2201.17 812.50 2300.78L812.50 2300.78Q787.11 2347.66 740.23 2347.66L740.23 2347.66ZM1234.38 1964.84Q1152.34 1964.84 1152.34 1894.53L1152.34 1894.53L1156.25 1873.05L1232.42 1695.31Q1275.39 1591.80 1324.22 1591.80L1324.22 1591.80Q1404.30 1591.80 1404.30 1658.20L1404.30 1658.20Q1404.30 1689.45 1349.61 1830.08L1349.61 1830.08Q1324.22 1896.48 1293.95 1930.66Q1263.67 1964.84 1234.38 1964.84L1234.38 1964.84ZM923.83 1402.34Q898.44 1402.34 837.89 1369.14L837.89 1369.14L783.20 1343.75Q652.34 1283.20 652.34 1236.33L652.34 1236.33Q652.34 1193.36 671.88 1174.80Q691.41 1156.25 734.38 1156.25L734.38 1156.25Q779.30 1156.25 919.92 1226.56L919.92 1226.56Q1001.95 1265.63 1001.95 1318.36L1001.95 1318.36Q1001.95 1402.34 923.83 1402.34L923.83 1402.34ZM1003.91 914.06Q980.47 914.06 917.97 875L917.97 875L865.23 847.66Q806.64 818.36 777.34 790.04Q748.05 761.72 748.05 738.28L748.05 738.28Q748.05 697.27 766.60 678.71Q785.16 660.16 828.13 660.16L828.13 660.16Q871.09 660.16 980.47 720.70L980.47 720.70Q1083.98 779.30 1083.98 830.08L1083.98 830.08Q1083.98 914.06 1003.91 914.06L1003.91 914.06ZM1234.38 1134.77Q1152.34 1134.77 1152.34 1064.45L1152.34 1064.45L1156.25 1044.92L1232.42 865.23Q1277.34 761.72 1324.22 761.72L1324.22 761.72Q1402.34 761.72 1402.34 828.13L1402.34 828.13Q1402.34 867.19 1347.66 1000L1347.66 1000Q1292.97 1134.77 1234.38 1134.77L1234.38 1134.77ZM2066.41 1939.45Q1976.56 1939.45 1976.56 1869.14L1976.56 1869.14Q1976.56 1845.70 2003.91 1806.64L2003.91 1806.64L2085.94 1669.92Q2142.58 1576.17 2185.55 1576.17L2185.55 1576.17Q2265.63 1576.17 2265.63 1648.44L2265.63 1648.44Q2265.63 1664.06 2243.16 1708.01Q2220.70 1751.95 2187.50 1810.55L2187.50 1810.55Q2152.34 1873.05 2121.09 1906.25Q2089.84 1939.45 2066.41 1939.45L2066.41 1939.45ZM1150.39 1548.83Q1072.27 1548.83 1072.27 1464.84L1072.27 1464.84Q1072.27 1400.39 1183.59 1380.86L1183.59 1380.86Q1431.64 1333.98 1542.97 1121.09L1542.97 1121.09Q1599.61 1011.72 1615.23 708.98L1615.23 708.98Q1621.09 615.23 1691.41 615.23L1691.41 615.23Q1767.58 615.23 1767.58 699.22L1767.58 699.22Q1767.58 783.20 1751.95 914.06L1751.95 914.06Q1925.78 1281.25 2314.45 1369.14L2314.45 1369.14Q2345.70 1376.95 2362.30 1397.46Q2378.91 1417.97 2378.91 1445.31L2378.91 1445.31Q2378.91 1535.16 2300.78 1535.16L2300.78 1535.16Q2197.27 1535.16 2007.81 1423.83L2007.81 1423.83Q1828.13 1316.41 1714.84 1101.56L1714.84 1101.56L1710.94 1101.56Q1640.63 1318.36 1458.98 1431.64L1458.98 1431.64Q1271.48 1548.83 1150.39 1548.83L1150.39 1548.83ZM2066.41 1113.28Q1976.56 1113.28 1976.56 1041.02L1976.56 1041.02Q1976.56 1015.63 2015.63 958.98L2015.63 958.98Q2052.73 900.39 2111.33 791.02L2111.33 791.02Q2134.77 746.09 2185.55 746.09L2185.55 746.09Q2265.63 746.09 2265.63 818.36L2265.63 818.36Q2265.63 855.47 2187.50 984.38L2187.50 984.38Q2109.38 1113.28 2066.41 1113.28L2066.41 1113.28Z"/>
  </svg>