<svg xmlns="http://www.w3.org/2000/svg" viewBox="0 0 3000 3000" width="3000" height="3000">
    <path fill="#000000" d="M609.74 2060.30Q559.94 2060.30 559.94 2008.01L559.94 2008.01Q559.94 1965.67 635.89 1950.73L635.89 1950.73Q806.47 1917.11 882.42 1785.13L882.42 1785.13Q918.53 1721.63 932.23 1514.94L932.23 1514.94Q935.96 1453.93 983.28 1453.93L983.28 1453.93Q1030.59 1453.93 1030.59 1504.98L1030.59 1504.98L1019.38 1646.92L1019.38 1651.90Q1130.20 1892.21 1381.71 1948.24L1381.71 1948.24Q1421.56 1956.96 1421.56 1995.56L1421.56 1995.56Q1421.56 2051.59 1373.00 2051.59L1373.00 2051.59Q1299.54 2051.59 1183.74 1978.13L1183.74 1978.13Q1064.21 1902.17 998.22 1771.44L998.22 1771.44L993.24 1771.44Q942.19 1913.38 818.92 1986.84L818.92 1986.84Q696.90 2060.30 609.74 2060.30L609.74 2060.30ZM378.15 2040.38Q323.36 2040.38 323.36 1991.82L323.36 1991.82Q323.36 1978.13 335.82 1949.49L335.82 1949.49Q399.32 1808.79 452.86 1646.92L452.86 1646.92Q462.82 1619.53 475.27 1606.46Q487.72 1593.38 506.40 1593.38L506.40 1593.38Q556.20 1593.38 556.20 1636.96L556.20 1636.96Q556.20 1649.41 541.26 1697.97Q526.32 1746.53 500.17 1821.24L500.17 1821.24Q457.84 1947.00 424.22 2010.50L424.22 2010.50Q408.03 2040.38 378.15 2040.38L378.15 2040.38ZM693.16 1796.34Q640.87 1796.34 640.87 1751.51L640.87 1751.51L643.36 1737.82L691.92 1624.51Q719.31 1558.52 750.44 1558.52L750.44 1558.52Q801.49 1558.52 801.49 1600.85L801.49 1600.85Q801.49 1620.78 766.63 1710.42L766.63 1710.42Q750.44 1752.76 731.14 1774.55Q711.84 1796.34 693.16 1796.34L693.16 1796.34ZM495.19 1437.74Q479.00 1437.74 440.41 1416.58L440.41 1416.58L405.54 1400.39Q322.12 1361.79 322.12 1331.91L322.12 1331.91Q322.12 1304.52 334.57 1292.69Q347.02 1280.86 374.41 1280.86L374.41 1280.86Q403.05 1280.86 492.70 1325.68L492.70 1325.68Q545.00 1350.59 545.00 1384.20L545.00 1384.20Q545.00 1437.74 495.19 1437.74L495.19 1437.74ZM546.24 1126.46Q531.30 1126.46 491.46 1101.56L491.46 1101.56L457.84 1084.13Q420.48 1065.45 401.81 1047.40Q383.13 1029.35 383.13 1014.40L383.13 1014.40Q383.13 988.26 394.96 976.43Q406.79 964.60 434.18 964.60L434.18 964.60Q461.57 964.60 531.30 1003.20L531.30 1003.20Q597.29 1040.55 597.29 1072.92L597.29 1072.92Q597.29 1126.46 546.24 1126.46L546.24 1126.46ZM693.16 1267.16Q640.87 1267.16 640.87 1222.34L640.87 1222.34L643.36 1209.89L691.92 1095.34Q720.56 1029.35 750.44 1029.35L750.44 1029.35Q800.24 1029.35 800.24 1071.68L800.24 1071.68Q800.24 1096.58 765.38 1181.25L765.38 1181.25Q730.52 1267.16 693.16 1267.16L693.16 1267.16ZM1223.58 1780.15Q1166.31 1780.15 1166.31 1735.33L1166.31 1735.33Q1166.31 1720.39 1183.74 1695.48L1183.74 1695.48L1236.04 1608.33Q1272.14 1548.56 1299.54 1548.56L1299.54 1548.56Q1350.59 1548.56 1350.59 1594.63L1350.59 1594.63Q1350.59 1604.59 1336.27 1632.60Q1321.95 1660.62 1300.78 1697.97L1300.78 1697.97Q1278.37 1737.82 1258.45 1758.98Q1238.53 1780.15 1223.58 1780.15L1223.58 1780.15ZM639.62 1531.13Q589.82 1531.13 589.82 1477.59L589.82 1477.59Q589.82 1436.50 660.79 1424.05L660.79 1424.05Q818.92 1394.17 889.89 1258.45L889.89 1258.45Q926.00 1188.72 935.96 995.73L935.96 995.73Q939.70 935.96 984.52 935.96L984.52 935.96Q1033.08 935.96 1033.08 989.50L1033.08 989.50Q1033.08 1043.04 1023.12 1126.46L1023.12 1126.46Q1133.94 1360.55 1381.71 1416.58L1381.71 1416.58Q1401.64 1421.56 1412.22 1434.63Q1422.80 1447.71 1422.80 1465.14L1422.80 1465.14Q1422.80 1522.41 1373.00 1522.41L1373.00 1522.41Q1307.01 1522.41 1186.23 1451.44L1186.23 1451.44Q1071.68 1382.96 999.46 1246.00L999.46 1246.00L996.97 1246.00Q952.15 1384.20 836.35 1456.42L836.35 1456.42Q716.82 1531.13 639.62 1531.13L639.62 1531.13ZM1223.58 1253.47Q1166.31 1253.47 1166.31 1207.40L1166.31 1207.40Q1166.31 1191.21 1191.21 1155.10L1191.21 1155.10Q1214.87 1117.75 1252.22 1048.02L1252.22 1048.02Q1267.16 1019.38 1299.54 1019.38L1299.54 1019.38Q1350.59 1019.38 1350.59 1065.45L1350.59 1065.45Q1350.59 1089.11 1300.78 1171.29L1300.78 1171.29Q1250.98 1253.47 1223.58 1253.47L1223.58 1253.47ZM2009.25 1767.70Q1958.20 1767.70 1958.20 1711.67L1958.20 1711.67Q1958.20 1678.05 2001.78 1660.62L2001.78 1660.62Q2249.56 1563.50 2290.65 1311.99L2290.65 1311.99L2162.40 1311.99Q2103.88 1311.99 2103.88 1264.67L2103.88 1264.67Q2103.88 1217.36 2162.40 1217.36L2162.40 1217.36L2300.61 1217.36L2301.86 1123.97Q2301.86 1092.85 2302.48 1079.15Q2303.10 1065.45 2303.10 1059.23L2303.10 1059.23L2303.10 983.28Q2303.10 955.88 2315.55 944.06Q2328.00 932.23 2352.91 932.23L2352.91 932.23Q2402.71 932.23 2402.71 980.79L2402.71 980.79Q2402.71 1040.55 2398.97 1100.32L2398.97 1100.32Q2396.48 1137.67 2393.99 1217.36L2393.99 1217.36L2628.08 1217.36Q2687.84 1217.36 2687.84 1264.67L2687.84 1264.67Q2687.84 1311.99 2628.08 1311.99L2628.08 1311.99L2392.75 1311.99Q2471.19 1529.88 2665.43 1649.41L2665.43 1649.41Q2705.27 1674.32 2705.27 1700.46L2705.27 1700.46Q2705.27 1756.49 2652.98 1756.49L2652.98 1756.49Q2624.34 1756.49 2586.36 1729.72Q2548.39 1702.95 2497.34 1649.41L2497.34 1649.41Q2396.48 1541.09 2359.13 1419.07L2359.13 1419.07L2356.64 1419.07Q2293.14 1609.57 2141.24 1706.69L2141.24 1706.69Q2047.85 1767.70 2009.25 1767.70L2009.25 1767.70ZM1648.17 2060.30Q1590.89 2060.30 1590.89 2008.01L1590.89 2008.01Q1590.89 1996.80 1602.10 1976.88L1602.10 1976.88Q1646.92 1902.17 1669.34 1841.16L1669.34 1841.16Q1688.01 1792.60 1724.12 1792.60L1724.12 1792.60Q1777.66 1792.60 1777.66 1838.67L1777.66 1838.67Q1777.66 1889.72 1704.20 2017.97L1704.20 2017.97Q1680.54 2060.30 1648.17 2060.30L1648.17 2060.30ZM2010.50 2042.87Q1963.18 2042.87 1951.98 1985.60L1951.98 1985.60L1922.09 1867.31L1918.36 1849.88Q1918.36 1801.32 1968.16 1801.32L1968.16 1801.32Q2004.27 1801.32 2027.93 1866.06L2027.93 1866.06Q2064.04 1969.41 2064.04 1988.09L2064.04 1988.09Q2064.04 2016.72 2050.96 2029.80Q2037.89 2042.87 2010.50 2042.87L2010.50 2042.87ZM2303.10 2049.10Q2260.77 2049.10 2245.83 1995.56L2245.83 1995.56Q2235.86 1955.71 2210.96 1897.19L2210.96 1897.19Q2193.53 1854.86 2193.53 1843.65L2193.53 1843.65Q2193.53 1795.09 2243.33 1795.09L2243.33 1795.09Q2278.20 1795.09 2318.04 1882.25L2318.04 1882.25Q2357.89 1971.90 2357.89 1993.07L2357.89 1993.07Q2357.89 2049.10 2303.10 2049.10L2303.10 2049.10ZM1623.27 1757.74Q1578.44 1757.74 1578.44 1704.20L1578.44 1704.20Q1578.44 1668.09 1633.23 1648.17L1633.23 1648.17Q1747.78 1605.83 1829.96 1532.37L1829.96 1532.37Q1807.54 1511.21 1731.59 1456.42L1731.59 1456.42Q1705.44 1437.74 1705.44 1420.31L1705.44 1420.31Q1705.44 1379.22 1749.02 1379.22L1749.02 1379.22Q1778.91 1379.22 1888.48 1467.63L1888.48 1467.63L1944.51 1381.71Q1894.70 1341.87 1829.96 1304.52L1829.96 1304.52Q1805.05 1290.82 1805.05 1270.90L1805.05 1270.90Q1805.05 1227.32 1842.41 1227.32L1842.41 1227.32Q1873.54 1227.32 1981.86 1302.03L1981.86 1302.03Q2021.70 1201.17 2021.70 1148.88L2021.70 1148.88Q2021.70 1127.71 1989.33 1127.71L1989.33 1127.71L1821.24 1127.71L1801.32 1175.02Q1766.46 1257.20 1701.71 1343.12L1701.71 1343.12Q1671.83 1382.96 1651.28 1401.64Q1630.74 1420.31 1615.80 1420.31L1615.80 1420.31Q1569.73 1420.31 1569.73 1371.75L1569.73 1371.75Q1569.73 1349.34 1597.12 1321.95L1597.12 1321.95Q1721.63 1191.21 1775.17 983.28L1775.17 983.28Q1787.62 933.47 1827.47 933.47L1827.47 933.47Q1881.01 933.47 1881.01 972.07L1881.01 972.07Q1881.01 988.26 1861.08 1039.31L1861.08 1039.31L2027.93 1039.31Q2116.33 1039.31 2116.33 1112.77L2116.33 1112.77Q2116.33 1238.53 2034.16 1405.37L2034.16 1405.37Q1951.98 1572.22 1796.34 1674.32L1796.34 1674.32Q1669.34 1757.74 1623.27 1757.74L1623.27 1757.74ZM2628.08 2059.06Q2590.72 2059.06 2570.80 2016.72L2570.80 2016.72Q2552.12 1978.13 2503.56 1889.72L2503.56 1889.72Q2499.83 1881.01 2489.87 1863.57L2489.87 1863.57Q2477.42 1841.16 2477.42 1832.45L2477.42 1832.45Q2477.42 1782.64 2530.96 1782.64L2530.96 1782.64Q2560.84 1782.64 2624.34 1878.52L2624.34 1878.52Q2686.60 1970.65 2686.60 2001.78L2686.60 2001.78Q2686.60 2059.06 2628.08 2059.06L2628.08 2059.06ZM2583.25 1172.53Q2559.59 1172.53 2516.02 1101.56L2516.02 1101.56L2501.07 1076.66Q2498.58 1072.92 2490.49 1059.23Q2482.40 1045.53 2482.40 1038.06L2482.40 1038.06Q2482.40 996.97 2529.71 996.97L2529.71 996.97Q2554.61 996.97 2593.21 1053.00L2593.21 1053.00Q2631.81 1107.79 2631.81 1128.96L2631.81 1128.96Q2631.81 1172.53 2583.25 1172.53L2583.25 1172.53Z"/>
  </svg>