<svg xmlns="http://www.w3.org/2000/svg" viewBox="0 0 3000 3000" width="3000" height="3000">
    <path fill="#000000" d="M1240 1650L1240 1650L1256 1626L1262 1646Q1270 1666 1274 1694Q1278 1722 1290 1738L1290 1738Q1296 1748 1307 1744Q1318 1740 1360 1714L1360 1714Q1440 1666 1422 1690L1422 1690Q1418 1696 1412 1702L1412 1702Q1394 1722 1394 1731Q1394 1740 1382 1750Q1370 1760 1370 1775Q1370 1790 1332 1826Q1294 1862 1294 1869Q1294 1876 1280 1910L1280 1910Q1272 1930 1265 1935Q1258 1940 1240 1940L1240 1940Q1192 1940 1180 1862L1180 1862Q1164 1756 1240 1650ZM1564 1374L1564 1374Q1582 1344 1594 1364L1594 1364Q1598 1370 1640 1386L1640 1386Q1672 1394 1677 1400Q1682 1406 1680 1424L1680 1424Q1676 1448 1681 1451Q1686 1454 1682 1550L1682 1550Q1680 1632 1687 1636Q1694 1640 1752 1590L1752 1590Q1862 1496 1862 1478L1862 1478Q1862 1472 1882 1466L1882 1466Q1916 1458 1940 1506L1940 1506Q1944 1516 1958 1536L1958 1536Q1970 1558 1967 1575Q1964 1592 1944 1614L1944 1614Q1910 1652 1828 1702Q1746 1752 1716 1752L1716 1752Q1700 1752 1728 1798L1728 1798Q1738 1812 1754 1836L1754 1836Q1788 1892 1821 1924Q1854 1956 1914 1998L1914 1998Q1978 2040 2000 2070Q2022 2100 2032 2110L2032 2110Q2102 2154 2178 2186L2178 2186Q2218 2204 2308 2254L2308 2254Q2372 2284 2387 2295Q2402 2306 2402 2322L2402 2322Q2402 2346 2381 2356Q2360 2366 2266 2414L2266 2414L2172 2458L2138 2444Q2102 2432 2079 2409Q2056 2386 2027 2366Q1998 2346 1989 2339Q1980 2332 1936 2294L1936 2294Q1814 2192 1748 2092L1748 2092Q1712 2034 1693 2014Q1674 1994 1655 1958Q1636 1922 1627 1922Q1618 1922 1608 1954L1608 1954Q1596 1988 1524 2057Q1452 2126 1380 2172L1380 2172Q1298 2224 1278 2231Q1258 2238 1217 2265Q1176 2292 1122 2317Q1068 2342 1054 2342L1054 2342Q1036 2340 1142 2252L1142 2252Q1184 2216 1270 2125Q1356 2034 1398 1978L1398 1978Q1416 1954 1454 1888Q1492 1822 1490 1820L1490 1820Q1486 1818 1474 1812L1474 1812Q1462 1806 1464 1801Q1466 1796 1486 1782L1486 1782Q1512 1766 1518 1742Q1524 1718 1520 1674L1520 1674Q1514 1634 1526 1626L1526 1626Q1536 1616 1548 1536Q1560 1456 1556 1418L1556 1418Q1554 1392 1564 1374ZM1098 1368L1098 1368Q1098 1364 1111 1344Q1124 1324 1132 1324L1132 1324Q1144 1324 1092 1434L1092 1434Q1056 1508 1048 1529Q1040 1550 1024 1574Q1008 1598 993 1627Q978 1656 955 1688Q932 1720 932 1738Q932 1756 922 1772L922 1772Q898 1810 880 1898L880 1898Q868 1964 850 2018L850 2018Q840 2042 830 2092L830 2092Q824 2122 824 2131Q824 2140 834 2146L834 2146Q866 2162 846 2216L846 2216Q836 2242 807 2263Q778 2284 752 2284L752 2284Q732 2284 701 2257Q670 2230 670 2210L670 2210Q670 2190 656 2178L656 2178Q622 2150 638 2120L638 2120Q650 2102 641 2097Q632 2092 621 2060Q610 2028 604 2018L604 2018Q586 1998 626 1950L626 1950Q654 1914 654 1906Q654 1898 706 1848L706 1848Q794 1758 872 1666L872 1666L930 1594Q954 1568 1026 1470Q1098 1372 1098 1368ZM648 1218L648 1218Q666 1202 672 1202L672 1202Q678 1198 792 1256L792 1256L854 1286L860 1332Q866 1376 860 1424L860 1424Q858 1454 854 1463Q850 1472 836 1476L836 1476Q816 1480 798 1464Q780 1448 770 1448Q760 1448 725 1409Q690 1370 660 1330L660 1330Q612 1256 648 1218ZM920 868L920 868Q926 844 926 833Q926 822 950 813Q974 804 974 796Q974 788 1002 788Q1030 788 1035 796Q1040 804 1063 809Q1086 814 1090 820Q1094 826 1140 862L1140 862L1190 900L1184 940Q1176 1006 1102 1044L1102 1044L1074 1060L1034 1008L978 932Q966 910 938 902L938 902Q922 898 919 892Q916 886 920 868ZM1572 650L1572 650Q1584 644 1598 650Q1612 656 1652 682L1652 682Q1686 706 1698 730L1698 730Q1708 760 1700 840Q1692 920 1668 992L1668 992Q1664 1008 1668 1008L1668 1008Q1678 1008 1756 938L1756 938Q1884 820 1923 795Q1962 770 1980 798L1980 798Q1988 810 2009 821Q2030 832 2035 842Q2040 852 2032 871Q2024 890 1966 928Q1908 966 1866 976L1866 976Q1816 992 1724 1032L1724 1032Q1680 1052 1674 1052L1674 1052Q1666 1052 1653 1076Q1640 1100 1640 1108L1640 1108Q1640 1124 1770 1154L1770 1154Q1854 1176 1966 1232Q2078 1288 2088 1314L2088 1314Q2092 1326 2086 1366L2086 1366Q2084 1394 2077 1403Q2070 1412 2046 1424L2046 1424Q2008 1438 1978 1428Q1948 1418 1919 1396Q1890 1374 1873 1365Q1856 1356 1845 1346Q1834 1336 1776 1295Q1718 1254 1672 1206L1672 1206Q1618 1162 1616 1170L1616 1170Q1616 1180 1579 1217Q1542 1254 1516 1272L1516 1272Q1496 1286 1491 1291Q1486 1296 1387 1355Q1288 1414 1283 1422Q1278 1430 1270 1430L1270 1430Q1252 1430 1284 1392L1284 1392Q1290 1386 1296 1378L1296 1378Q1314 1364 1354 1308Q1394 1252 1394 1244L1394 1244Q1394 1238 1404 1226L1404 1226Q1418 1210 1451 1147Q1484 1084 1484 1072L1484 1072Q1484 1064 1481 1064Q1478 1064 1464 1072L1464 1072Q1432 1094 1390 1080L1390 1080Q1376 1074 1352 1022L1352 1022L1324 968L1340 940L1364 894Q1372 880 1386 880Q1400 880 1414 894L1414 894Q1430 912 1441 912Q1452 912 1452 936Q1452 960 1468 974Q1484 988 1484 1011Q1484 1034 1492 1040L1492 1040Q1496 1042 1501 1033Q1506 1024 1511 1008Q1516 992 1516 976L1516 976Q1516 954 1524 932L1524 932Q1534 910 1546 823Q1558 736 1558 698L1558 698Q1558 658 1572 650Z"/>
  </svg>