<svg xmlns="http://www.w3.org/2000/svg" viewBox="0 0 3000 3000" width="3000" height="3000">
    <path fill="#000000" d="M1242 714L1242 714Q1296 704 1347 685Q1398 666 1442 659Q1486 652 1534 641Q1582 630 1624 633Q1666 636 1666 652L1666 652Q1666 662 1676 672L1676 672Q1682 678 1689 695Q1696 712 1699 724Q1702 736 1696 738L1696 738Q1690 738 1690 750L1690 750Q1690 764 1665 791Q1640 818 1630 818L1630 818Q1622 818 1595 842Q1568 866 1558 866L1558 866Q1546 866 1539 885Q1532 904 1538 928L1538 928Q1544 960 1540 982L1540 982Q1538 996 1541 999Q1544 1002 1568 998L1568 998Q1604 992 1741 986Q1878 980 1888 984L1888 984Q1902 988 1945 982Q1988 976 1998 964L1998 964Q2008 956 2029 955Q2050 954 2066 960L2066 960Q2080 968 2114 1015Q2148 1062 2154 1064L2154 1064Q2166 1068 2162 1090Q2158 1112 2144 1126L2144 1126Q2126 1144 2030 1174Q1934 1204 1890 1204L1890 1204Q1854 1206 1826 1212L1826 1212L1798 1220L1818 1202L1872 1154Q1920 1116 1898 1102L1898 1102Q1882 1092 1793 1088Q1704 1084 1664 1090L1664 1090Q1610 1098 1610 1101Q1610 1104 1622 1132L1622 1132Q1632 1156 1633 1190Q1634 1224 1628 1240L1628 1240Q1620 1254 1611 1362Q1602 1470 1578 1530L1578 1530L1552 1588L1576 1624Q1598 1658 1610 1654L1610 1654Q1640 1642 1765 1629Q1890 1616 1952 1616L1952 1616Q2050 1616 2078 1602L2078 1602Q2134 1570 2174 1612L2174 1612Q2190 1632 2218 1646L2218 1646Q2234 1658 2240 1668Q2246 1678 2244 1706L2244 1706Q2236 1770 2134 1780L2134 1780Q2110 1784 2005 1774Q1900 1764 1892 1758L1892 1758Q1880 1752 1745 1758Q1610 1764 1610 1770L1610 1770Q1610 1778 1636 1812L1636 1812Q1720 1920 1811 1992Q1902 2064 2052 2138L2052 2138Q2150 2186 2158 2193Q2166 2200 2194 2209Q2222 2218 2244 2236L2244 2236Q2280 2270 2270 2286L2270 2286Q2268 2288 2262 2288L2262 2288Q2252 2288 2242 2300Q2232 2312 2190 2318L2190 2318Q2108 2328 2054 2380L2054 2380Q2036 2394 2006 2388L2006 2388Q1952 2380 1824 2250Q1696 2120 1648 2024L1648 2024Q1638 2008 1628 1992Q1618 1976 1609 1969Q1600 1962 1596 1964L1596 1964Q1592 1970 1590 2156Q1588 2342 1582 2357Q1576 2372 1566 2400Q1556 2428 1516 2452L1516 2452L1474 2474L1446 2452Q1424 2438 1418 2424Q1412 2410 1406 2362L1406 2362Q1404 2332 1404 2269Q1404 2206 1408 2200L1408 2200Q1412 2194 1411 2079Q1410 1964 1406 1964L1406 1964Q1398 1962 1376 1994L1376 1994Q1344 2038 1292 2091Q1240 2144 1204 2168L1204 2168L1112 2226Q1078 2250 1008 2278Q938 2306 916 2306L916 2306Q898 2306 950 2252L950 2252Q958 2240 972 2228L972 2228Q1046 2150 1078 2113Q1110 2076 1153 2032Q1196 1988 1215 1961Q1234 1934 1242 1930L1242 1930Q1250 1924 1286 1875Q1322 1826 1326 1814L1326 1814Q1328 1804 1325 1802Q1322 1800 1304 1804L1304 1804Q1276 1808 1175 1837Q1074 1866 1052 1874L1052 1874Q938 1914 916 1934L916 1934Q866 1978 843 1983Q820 1988 782 1964L782 1964Q712 1926 730 1878L730 1878Q736 1860 855 1813Q974 1766 1006 1760Q1038 1754 1129 1734Q1220 1714 1244 1714Q1268 1714 1324 1698L1324 1698Q1364 1690 1374 1684Q1384 1678 1392 1658L1392 1658Q1404 1630 1412 1613Q1420 1596 1406 1570L1406 1570Q1394 1548 1362 1515Q1330 1482 1318 1480L1318 1480Q1310 1480 1290 1465Q1270 1450 1260 1450L1260 1450Q1242 1450 1168 1516L1168 1516Q1150 1530 1141 1530Q1132 1530 1122 1541Q1112 1552 1075 1566Q1038 1580 1031 1591Q1024 1602 960 1622Q896 1642 882 1650Q868 1658 844 1654L844 1654L818 1646L840 1632Q862 1614 882 1595Q902 1576 954 1541Q1006 1506 1164 1344L1164 1344Q1286 1218 1320 1180Q1354 1142 1354 1130L1354 1130Q1352 1126 1334 1125Q1316 1124 1287 1130Q1258 1136 1240 1144L1240 1144Q1206 1154 1178 1163Q1150 1172 1142 1177Q1134 1182 1079 1201Q1024 1220 1015 1225Q1006 1230 946 1252L946 1252L884 1274L854 1246Q818 1206 817 1194Q816 1182 848 1170L848 1170L902 1146Q956 1122 1138 1076L1138 1076L1302 1038Q1390 1016 1410 1012L1410 1012L1432 1008L1406 986Q1378 962 1354 929Q1330 896 1332 884L1332 884Q1338 852 1426 860L1426 860L1470 866L1496 820Q1542 744 1514 748L1514 748Q1512 748 1506 748L1506 748Q1470 764 1330 782L1330 782Q1302 788 1286 792L1286 792Q1232 814 1182 828L1182 828Q1162 834 1154 831Q1146 828 1124 806L1124 806Q1096 776 1100 768L1100 768Q1102 758 1151 739Q1200 720 1242 714ZM1456 1338L1456 1338Q1458 1318 1458 1304Q1458 1290 1457 1282Q1456 1274 1452 1274L1452 1274Q1440 1276 1369 1334Q1298 1392 1298 1402L1298 1402Q1298 1410 1347 1420Q1396 1430 1414 1426L1414 1426Q1436 1422 1444 1406Q1452 1390 1456 1338Z"/>
  </svg>