<svg xmlns="http://www.w3.org/2000/svg" viewBox="0 0 3000 3000" width="3000" height="3000">
    <path fill="#000000" d="M698.02 998.92L698.02 998.92Q732.45 992.55 764.96 980.44Q797.47 968.32 825.52 963.86Q853.57 959.40 884.17 952.39Q914.77 945.38 941.55 947.29Q968.32 949.20 968.32 959.40L968.32 959.40Q968.32 965.77 974.70 972.15L974.70 972.15Q978.52 975.97 982.99 986.81Q987.45 997.65 989.36 1005.30Q991.27 1012.95 987.45 1014.22L987.45 1014.22Q983.62 1014.22 983.62 1021.87L983.62 1021.87Q983.62 1030.80 967.69 1048.01Q951.75 1065.22 945.37 1065.22L945.37 1065.22Q940.27 1065.22 923.06 1080.52Q905.85 1095.82 899.47 1095.82L899.47 1095.82Q891.82 1095.82 887.36 1107.94Q882.90 1120.05 886.72 1135.35L886.72 1135.35Q890.55 1155.75 888.00 1169.77L888.00 1169.77Q886.72 1178.70 888.64 1180.61Q890.55 1182.52 905.85 1179.97L905.85 1179.97Q928.80 1176.15 1016.14 1172.32Q1103.47 1168.50 1109.85 1171.05L1109.85 1171.05Q1118.77 1173.60 1146.19 1169.77Q1173.60 1165.95 1179.97 1158.30L1179.97 1158.30Q1186.35 1153.20 1199.74 1152.56Q1213.13 1151.92 1223.32 1155.75L1223.32 1155.75Q1232.25 1160.85 1253.92 1190.81Q1275.60 1220.77 1279.42 1222.05L1279.42 1222.05Q1287.07 1224.60 1284.52 1238.63Q1281.97 1252.65 1273.05 1261.57L1273.05 1261.57Q1261.57 1273.05 1200.38 1292.17Q1139.17 1311.30 1111.13 1311.30L1111.13 1311.30Q1088.17 1312.57 1070.32 1316.40L1070.32 1316.40L1052.47 1321.50L1065.22 1310.03L1099.65 1279.42Q1130.25 1255.20 1116.22 1246.28L1116.22 1246.28Q1106.02 1239.90 1049.29 1237.35Q992.55 1234.80 967.05 1238.63L967.05 1238.63Q932.62 1243.72 932.62 1245.64Q932.62 1247.55 940.27 1265.40L940.27 1265.40Q946.65 1280.70 947.29 1302.38Q947.92 1324.05 944.10 1334.25L944.10 1334.25Q939.00 1343.17 933.26 1412.03Q927.52 1480.88 912.22 1519.13L912.22 1519.13L895.65 1556.10L910.95 1579.05Q924.97 1600.72 932.62 1598.17L932.62 1598.17Q951.75 1590.53 1031.44 1582.24Q1111.13 1573.95 1150.65 1573.95L1150.65 1573.95Q1213.13 1573.95 1230.97 1565.03L1230.97 1565.03Q1266.67 1544.63 1292.17 1571.40L1292.17 1571.40Q1302.37 1584.15 1320.22 1593.07L1320.22 1593.07Q1330.42 1600.72 1334.25 1607.10Q1338.07 1613.47 1336.80 1631.33L1336.80 1631.33Q1331.70 1672.13 1266.67 1678.50L1266.67 1678.50Q1251.37 1681.05 1184.44 1674.67Q1117.50 1668.30 1112.40 1664.47L1112.40 1664.47Q1104.75 1660.65 1018.69 1664.47Q932.62 1668.30 932.62 1672.13L932.62 1672.13Q932.62 1677.22 949.20 1698.90L949.20 1698.90Q1002.75 1767.75 1060.76 1813.65Q1118.77 1859.55 1214.40 1906.72L1214.40 1906.72Q1276.87 1937.33 1281.97 1941.79Q1287.07 1946.25 1304.92 1951.99Q1322.77 1957.72 1336.80 1969.20L1336.80 1969.20Q1359.75 1990.88 1353.38 2001.08L1353.38 2001.08Q1352.10 2002.35 1348.27 2002.35L1348.27 2002.35Q1341.90 2002.35 1335.52 2010Q1329.15 2017.65 1302.37 2021.47L1302.37 2021.47Q1250.10 2027.85 1215.67 2061L1215.67 2061Q1204.20 2069.93 1185.07 2066.10L1185.07 2066.10Q1150.65 2061 1069.05 1978.13Q987.45 1895.25 956.85 1834.05L956.85 1834.05Q950.47 1823.85 944.10 1813.65Q937.72 1803.45 931.99 1798.99Q926.25 1794.53 923.70 1795.80L923.70 1795.80Q921.15 1799.63 919.87 1918.20Q918.60 2036.78 914.77 2046.34Q910.95 2055.90 904.57 2073.75Q898.20 2091.60 872.70 2106.90L872.70 2106.90L845.92 2120.93L828.07 2106.90Q814.05 2097.97 810.22 2089.05Q806.40 2080.13 802.57 2049.53L802.57 2049.53Q801.30 2030.40 801.30 1990.24Q801.30 1950.08 803.85 1946.25L803.85 1946.25Q806.40 1942.42 805.76 1869.11Q805.12 1795.80 802.57 1795.80L802.57 1795.80Q797.47 1794.53 783.45 1814.92L783.45 1814.92Q763.05 1842.97 729.90 1876.76Q696.75 1910.55 673.80 1925.85L673.80 1925.85L615.15 1962.83Q593.47 1978.13 548.85 1995.97Q504.22 2013.83 490.20 2013.83L490.20 2013.83Q478.72 2013.83 511.87 1979.40L511.87 1979.40Q516.97 1971.75 525.90 1964.10L525.90 1964.10Q573.07 1914.38 593.47 1890.79Q613.87 1867.20 641.29 1839.15Q668.70 1811.10 680.81 1793.89Q692.92 1776.67 698.02 1774.13L698.02 1774.13Q703.12 1770.30 726.07 1739.06Q749.02 1707.83 751.57 1700.17L751.57 1700.17Q752.85 1693.80 750.94 1692.53Q749.02 1691.25 737.55 1693.80L737.55 1693.80Q719.70 1696.35 655.31 1714.84Q590.92 1733.33 576.90 1738.42L576.90 1738.42Q504.22 1763.92 490.20 1776.67L490.20 1776.67Q458.32 1804.72 443.66 1807.91Q429.00 1811.10 404.77 1795.80L404.77 1795.80Q360.15 1771.58 371.62 1740.97L371.62 1740.97Q375.45 1729.50 451.31 1699.54Q527.17 1669.58 547.57 1665.75Q567.97 1661.92 625.99 1649.17Q684.00 1636.42 699.30 1636.42Q714.60 1636.42 750.30 1626.22L750.30 1626.22Q775.80 1621.13 782.17 1617.30Q788.55 1613.47 793.65 1600.72L793.65 1600.72Q801.30 1582.88 806.40 1572.04Q811.50 1561.20 802.57 1544.63L802.57 1544.63Q794.92 1530.60 774.52 1509.56Q754.12 1488.52 746.47 1487.25L746.47 1487.25Q741.37 1487.25 728.62 1477.69Q715.87 1468.13 709.50 1468.13L709.50 1468.13Q698.02 1468.13 650.85 1510.20L650.85 1510.20Q639.37 1519.13 633.64 1519.13Q627.90 1519.13 621.52 1526.14Q615.15 1533.15 591.56 1542.07Q567.97 1551 563.51 1558.01Q559.05 1565.03 518.25 1577.78Q477.45 1590.53 468.52 1595.63Q459.60 1600.72 444.30 1598.17L444.30 1598.17L427.72 1593.07L441.75 1584.15Q455.77 1572.67 468.52 1560.56Q481.27 1548.45 514.42 1526.14Q547.57 1503.82 648.30 1400.55L648.30 1400.55Q726.07 1320.22 747.75 1296Q769.42 1271.78 769.42 1264.13L769.42 1264.13Q768.15 1261.57 756.67 1260.94Q745.20 1260.30 726.71 1264.13Q708.22 1267.95 696.75 1273.05L696.75 1273.05Q675.07 1279.42 657.22 1285.16Q639.37 1290.90 634.27 1294.09Q629.17 1297.28 594.11 1309.39Q559.05 1321.50 553.31 1324.69Q547.57 1327.88 509.32 1341.90L509.32 1341.90L469.80 1355.92L450.67 1338.07Q427.72 1312.57 427.09 1304.92Q426.45 1297.28 446.85 1289.63L446.85 1289.63L481.27 1274.32Q515.70 1259.03 631.72 1229.70L631.72 1229.70L736.27 1205.47Q792.37 1191.45 805.12 1188.90L805.12 1188.90L819.15 1186.35L802.57 1172.32Q784.72 1157.02 769.42 1135.99Q754.12 1114.95 755.40 1107.30L755.40 1107.30Q759.22 1086.90 815.32 1092L815.32 1092L843.37 1095.82L859.95 1066.50Q889.27 1018.05 871.42 1020.60L871.42 1020.60Q870.15 1020.60 866.32 1020.60L866.32 1020.60Q843.37 1030.80 754.12 1042.27L754.12 1042.27Q736.27 1046.10 726.07 1048.65L726.07 1048.65Q691.65 1062.67 659.77 1071.60L659.77 1071.60Q647.02 1075.42 641.92 1073.51Q636.82 1071.60 622.80 1057.57L622.80 1057.57Q604.95 1038.45 607.50 1033.35L607.50 1033.35Q608.77 1026.97 640.01 1014.86Q671.25 1002.75 698.02 998.92ZM834.45 1396.72L834.45 1396.72Q835.72 1383.97 835.72 1375.05Q835.72 1366.13 835.09 1361.03Q834.45 1355.92 831.90 1355.92L831.90 1355.92Q824.25 1357.20 778.99 1394.17Q733.72 1431.15 733.72 1437.53L733.72 1437.53Q733.72 1442.63 764.96 1449Q796.20 1455.38 807.67 1452.82L807.67 1452.82Q821.70 1450.28 826.80 1440.07Q831.90 1429.88 834.45 1396.72ZM2087.78 991.27L2087.78 991.27Q2104.35 986.17 2108.81 986.17Q2113.28 986.17 2138.78 1000.20L2138.78 1000.20Q2191.05 1025.70 2183.40 1069.05L2183.40 1069.05Q2178.30 1092 2169.38 1101.56Q2160.45 1111.13 2138.78 1118.77L2138.78 1118.77Q2113.28 1127.70 2106.26 1135.35Q2099.25 1143 2092.88 1143L2092.88 1143Q2085.22 1143 2062.28 1155.75Q2039.33 1168.50 2039.33 1173.60L2039.33 1173.60Q2039.33 1176.15 2069.93 1194L2069.93 1194Q2090.32 1206.75 2096.06 1213.13Q2101.80 1219.50 2101.80 1232.25L2101.80 1232.25Q2101.80 1251.38 2085.22 1280.70L2085.22 1280.70Q2064.82 1316.40 2067.38 1317.67L2067.38 1317.67Q2069.93 1317.67 2072.47 1315.13L2072.47 1315.13Q2078.85 1311.30 2117.10 1304.92L2117.10 1304.92L2154.07 1301.10L2178.30 1325.32Q2201.25 1348.28 2201.25 1368.67Q2201.25 1389.07 2194.88 1399.28L2194.88 1399.28Q2189.78 1406.92 2178.30 1406.92Q2166.82 1406.92 2099.25 1399.28L2099.25 1399.28Q2080.13 1396.72 2072.47 1398Q2064.82 1399.28 2055.90 1408.20L2055.90 1408.20Q2046.97 1417.13 2046.34 1434.97Q2045.70 1452.82 2054.63 1511.47L2054.63 1511.47Q2057.18 1531.88 2060.36 1536.34Q2063.55 1540.80 2075.03 1542.07L2075.03 1542.07Q2099.25 1544.63 2185.95 1568.85L2185.95 1568.85Q2197.43 1572.67 2194.88 1561.20L2194.88 1561.20Q2194.88 1554.82 2187.22 1534.42L2187.22 1534.42Q2173.20 1491.07 2189.78 1454.10L2189.78 1454.10Q2201.25 1428.60 2227.39 1413.30Q2253.53 1398 2319.82 1376.32L2319.82 1376.32Q2361.90 1363.57 2484.30 1372.50Q2606.70 1381.42 2644.95 1400.55L2644.95 1400.55Q2679.38 1419.67 2679.38 1455.38L2679.38 1455.38Q2679.38 1473.22 2651.96 1505.10Q2624.55 1536.97 2615.63 1555.46Q2606.70 1573.95 2573.55 1610.92Q2540.40 1647.90 2540.40 1651.09Q2540.40 1654.28 2564.63 1660.65L2564.63 1660.65Q2604.15 1669.58 2622 1704.64Q2639.85 1739.70 2616.90 1762.65L2616.90 1762.65Q2607.98 1771.58 2598.41 1772.21Q2588.85 1772.85 2553.15 1770.30L2553.15 1770.30Q2497.05 1765.20 2428.84 1765.84Q2360.63 1766.47 2350.43 1772.85L2350.43 1772.85Q2337.68 1779.22 2327.48 1807.28Q2317.28 1835.33 2312.18 1832.78L2312.18 1832.78Q2304.53 1830.22 2273.93 1766.47L2273.93 1766.47Q2226.75 1672.13 2221.65 1672.13L2221.65 1672.13Q2216.55 1672.13 2206.99 1680.41Q2197.43 1688.70 2171.29 1692.53Q2145.15 1696.35 2129.85 1681.05L2129.85 1681.05Q2105.63 1660.65 2068.65 1635.79Q2031.68 1610.92 2025.30 1612.20L2025.30 1612.20Q2016.38 1614.75 2015.74 1719.30Q2015.10 1823.85 2014.46 1839.15Q2013.83 1854.45 2008.73 1945.61Q2003.63 2036.78 1992.15 2058.45L1992.15 2058.45Q1974.30 2087.78 1941.15 2078.85L1941.15 2078.85Q1927.13 2076.30 1927.13 2068.65Q1927.13 2061 1915.65 2046.97L1915.65 2046.97Q1904.18 2030.40 1897.80 2007.45Q1891.43 1984.50 1897.80 1970.47L1897.80 1970.47Q1902.90 1950.08 1909.28 1882.50Q1915.65 1814.92 1920.75 1766.47L1920.75 1766.47Q1930.95 1672.13 1920.75 1672.13L1920.75 1672.13Q1897.80 1672.13 1858.28 1718.03L1858.28 1718.03Q1834.05 1747.35 1816.20 1759.46Q1798.35 1771.58 1758.19 1807.91Q1718.03 1844.25 1707.83 1849.35Q1697.63 1854.45 1679.78 1869.75L1679.78 1869.75Q1663.20 1883.78 1632.60 1904.17Q1602 1924.58 1598.17 1924.58L1598.17 1924.58Q1576.50 1924.58 1712.92 1752.45L1712.92 1752.45Q1715.47 1748.63 1719.30 1744.80L1719.30 1744.80Q1859.55 1571.40 1859.55 1561.20L1859.55 1561.20Q1859.55 1557.38 1867.20 1548.45L1867.20 1548.45Q1873.58 1542.07 1890.15 1508.92Q1906.72 1475.77 1911.83 1460.47L1911.83 1460.47Q1914.38 1451.55 1911.83 1451.55Q1909.28 1451.55 1890.15 1455.38L1890.15 1455.38Q1863.38 1464.30 1811.10 1494.90L1811.10 1494.90Q1769.03 1522.95 1756.91 1531.24Q1744.80 1539.53 1738.42 1551L1738.42 1551Q1718.03 1587.97 1649.17 1531.88L1649.17 1531.88Q1618.58 1505.10 1634.51 1485.97Q1650.45 1466.85 1726.95 1432.42L1726.95 1432.42Q1800.90 1400.55 1839.79 1387.16Q1878.67 1373.78 1909.28 1361.03L1909.28 1361.03L1937.33 1349.55L1938.60 1299.82Q1942.43 1247.55 1946.25 1232.25L1946.25 1232.25L1951.35 1216.95L1920.75 1229.70Q1834.05 1261.57 1818.75 1246.28L1818.75 1246.28Q1811.10 1238.63 1841.70 1215.67L1841.70 1215.67Q1862.10 1200.38 1879.31 1184.44Q1896.53 1168.50 1906.72 1159.57L1906.72 1159.57Q1920.75 1149.38 1971.11 1093.91Q2021.47 1038.45 2032.95 1021.87L2032.95 1021.87Q2038.05 1015.50 2055.90 1004.66Q2073.75 993.82 2087.78 991.27ZM2504.70 1485.97L2504.70 1485.97Q2511.08 1466.85 2511.08 1463.03Q2511.08 1459.20 2493.23 1459.20L2493.23 1459.20Q2388.68 1464.30 2354.89 1470.04Q2321.10 1475.77 2300.70 1488.52L2300.70 1488.52Q2285.40 1500 2287.95 1516.57L2287.95 1516.57L2296.88 1561.20Q2307.07 1627.50 2324.93 1654.28L2324.93 1654.28Q2330.03 1663.20 2336.40 1665.11Q2342.78 1667.03 2359.35 1664.47L2359.35 1664.47Q2384.85 1661.92 2393.14 1649.17Q2401.43 1636.42 2437.13 1599.45L2437.13 1599.45Q2484.30 1551 2504.70 1485.97Z"/>
  </svg>