<svg xmlns="http://www.w3.org/2000/svg" viewBox="0 0 3000 3000" width="3000" height="3000">
    <path fill="#000000" d="M1644 1837L1644 1837L2296 1809Q2320 1807 2337 1799Q2354 1791 2354 1771Q2354 1751 2336 1728Q2318 1705 2293 1686Q2268 1667 2246 1667L2246 1667Q2238 1667 2224 1671L2224 1671Q2204 1679 2185 1682Q2166 1685 2146 1687L2146 1687L1566 1713L1566 1669Q1566 1631 1533 1613Q1500 1595 1468 1589Q1436 1583 1426 1583L1426 1583Q1390 1583 1390 1611L1390 1611Q1390 1625 1400 1641L1400 1641Q1420 1675 1420 1711L1420 1711L1420 1719L778 1749L758 1749Q726 1749 702 1741L702 1741Q696 1739 688 1739L688 1739Q664 1739 664 1765L664 1765Q664 1773 666 1779L666 1779Q678 1809 692 1833L692 1833L712 1857Q730 1873 760 1875L760 1875L816 1875L1304 1853Q1154 1965 984 2065Q814 2165 630 2251L630 2251Q576 2275 576 2305L576 2305Q576 2333 614 2333L614 2333Q620 2333 688 2314Q756 2295 872 2248Q988 2201 1133 2121Q1278 2041 1420 1933L1420 1933L1420 2251Q1420 2283 1418 2311Q1416 2339 1410 2367L1410 2367Q1408 2375 1408 2389L1408 2389Q1408 2427 1435 2447Q1462 2467 1489 2473Q1516 2479 1522 2479L1522 2479Q1566 2479 1566 2423L1566 2423L1566 1929Q1690 2013 1827 2084Q1964 2155 2077 2202Q2190 2249 2262 2272Q2334 2295 2344 2295L2344 2295Q2374 2295 2399 2274Q2424 2253 2441 2230Q2458 2207 2458 2197L2458 2197Q2458 2175 2418 2161L2418 2161Q2198 2099 1999 2014Q1800 1929 1644 1837ZM1902 1367L1902 1367L1922 1355Q1944 1341 1994 1307Q2044 1273 2100 1233Q2156 1193 2197 1157Q2238 1121 2238 1103L2238 1103Q2238 1075 2207 1047Q2176 1019 2136 1019L2136 1019L2114 1019L1650 1043L1620 1025Q1624 1023 1669 995Q1714 967 1768 933Q1822 899 1873 864Q1924 829 1958 799Q1992 769 1992 749L1992 749Q1992 717 1956 691Q1920 665 1890 665L1890 665Q1884 665 1878 666Q1872 667 1862 667L1862 667L1094 721Q1086 721 1078 722Q1070 723 1062 723L1062 723Q1028 723 1000 715L1000 715Q994 713 984 713L984 713Q958 713 958 739L958 739L968 767Q980 795 1005 823Q1030 851 1076 851L1076 851Q1088 851 1103 850Q1118 849 1134 847L1134 847L1732 799Q1710 815 1636 862Q1562 909 1488 949L1488 949Q1466 935 1424 914Q1382 893 1345 876Q1308 859 1292 859L1292 859Q1268 859 1242 899L1242 899Q1228 921 1228 941L1228 941Q1228 969 1264 985L1264 985Q1310 1003 1361 1026Q1412 1049 1426 1055L1426 1055L888 1087L864 1087Q830 1087 796 1081L796 1081L786 1081Q758 1081 758 1107L758 1107L766 1131Q776 1157 800 1183Q824 1209 872 1209L872 1209Q882 1209 895 1208Q908 1207 922 1207L922 1207L1346 1183Q1238 1271 1097 1359Q956 1447 784 1535L784 1535Q728 1563 728 1593L728 1593Q728 1621 764 1621L764 1621Q776 1621 851 1596Q926 1571 1041 1517Q1156 1463 1289 1381Q1422 1299 1526 1203L1526 1203L1530 1463Q1496 1455 1448 1443Q1400 1431 1350 1415L1350 1415Q1314 1405 1300 1405L1300 1405Q1266 1405 1266 1426Q1266 1447 1308 1478Q1350 1509 1404 1541Q1458 1573 1510 1597Q1562 1621 1586 1621L1586 1621Q1636 1621 1654 1582Q1672 1543 1672 1521L1672 1521Q1672 1509 1671 1496Q1670 1483 1670 1469L1670 1469L1666 1165L2016 1147Q2002 1163 1953 1207Q1904 1251 1868 1283L1868 1283Q1810 1333 1810 1363L1810 1363Q1810 1387 1838 1387L1838 1387Q1860 1387 1902 1367Z"/>
  </svg>