<svg xmlns="http://www.w3.org/2000/svg" viewBox="0 0 3000 3000" width="3000" height="3000">
    <path fill="#000000" d="M583.27 964.50L583.27 964.50L1111.13 927.52Q1127.70 927.52 1148.10 942.19Q1168.50 956.85 1168.50 969.60Q1168.50 982.35 1139.17 1008.49Q1109.85 1034.63 1026.34 1086.90Q942.82 1139.17 923.70 1149.38L923.70 1149.38L956.85 1168.50L1253.92 1153.20L1267.95 1153.20Q1290.90 1153.20 1308.11 1169.14Q1325.32 1185.08 1325.32 1196.55L1325.32 1196.55Q1325.32 1224.60 1127.70 1353.38L1127.70 1353.38L1114.95 1361.03Q1090.72 1372.50 1079.25 1372.50Q1067.77 1372.50 1067.77 1361.03Q1067.77 1349.55 1097.10 1324.05L1097.10 1324.05Q1186.35 1245 1208.02 1218.22L1208.02 1218.22L960.67 1230.97L963.22 1432.42L964.50 1465.58Q964.50 1478.33 954.30 1500Q944.10 1521.68 923.70 1521.68Q903.30 1521.68 871.42 1507.01Q839.55 1492.35 805.12 1471.95Q770.70 1451.55 745.84 1433.06Q720.97 1414.58 720.97 1406.93Q720.97 1399.28 731.81 1399.28Q742.65 1399.28 780.90 1410.75Q819.15 1422.22 889.27 1437.53L889.27 1437.53L886.72 1245Q750.30 1371.22 566.70 1456.65L566.70 1456.65Q494.02 1489.80 446.85 1505.74Q399.67 1521.68 388.84 1521.68Q378.00 1521.68 378.00 1511.47L378.00 1511.47Q378.00 1497.45 409.87 1480.88L409.87 1480.88Q638.10 1364.85 787.27 1241.18L787.27 1241.18L494.02 1257.75L462.15 1259.03Q435.37 1259.03 421.35 1244.36Q407.32 1229.70 402.22 1214.40L402.22 1214.40L397.12 1200.38Q397.12 1192.72 407.32 1192.72L407.32 1192.72L412.42 1192.72Q434.10 1196.55 457.05 1196.55L457.05 1196.55L472.35 1196.55L844.65 1174.88Q800.02 1153.20 714.60 1116.22L714.60 1116.22Q696.75 1108.58 696.75 1097.10Q696.75 1085.63 707.59 1068.41Q718.42 1051.20 728.62 1051.20Q738.82 1051.20 781.54 1070.96Q824.25 1090.72 854.85 1109.85L854.85 1109.85Q959.40 1052.47 1035.90 995.10L1035.90 995.10L627.90 1028.25Q607.50 1030.80 587.10 1030.80Q566.70 1030.80 552.04 1014.86Q537.37 998.92 531.00 982.35L531.00 982.35L524.62 965.77Q524.62 958.13 531.64 958.13Q538.65 958.13 549.49 961.31Q560.32 964.50 583.27 964.50ZM1369.95 1641.53L928.80 1660.65Q1172.32 1804.73 1445.17 1881.23L1445.17 1881.23Q1465.57 1887.60 1465.57 1896.53L1465.57 1896.53Q1465.57 1900.35 1456.65 1913.10L1456.65 1913.10Q1428.60 1951.35 1400.55 1951.35L1400.55 1951.35Q1395.45 1951.35 1349.55 1936.05L1349.55 1936.05Q1118.77 1862.10 896.92 1711.65L896.92 1711.65L896.92 2040.60Q896.92 2068.65 876.52 2068.65L876.52 2068.65Q852.30 2068.65 831.90 2053.99Q811.50 2039.33 811.50 2025.30Q811.50 2011.28 815.32 1994.06Q819.15 1976.85 819.15 1930.95L819.15 1930.95L819.15 1712.93Q575.62 1897.80 342.30 1964.10L342.30 1964.10Q300.22 1975.58 297.67 1975.58L297.67 1975.58Q281.10 1975.58 281.10 1965.38L281.10 1965.38Q281.10 1951.35 311.70 1937.33L311.70 1937.33Q552.67 1825.13 761.77 1668.30L761.77 1668.30L426.45 1683.60L390.75 1683.60Q374.17 1682.33 365.25 1674.68L365.25 1674.68L353.77 1660.65Q337.20 1632.60 337.20 1622.40Q337.20 1612.20 342.94 1612.20Q348.67 1612.20 358.24 1615.39Q367.80 1618.58 389.47 1618.58L389.47 1618.58L402.22 1618.58L819.15 1599.45L819.15 1586.70Q819.15 1561.20 809.59 1545.26Q800.02 1529.33 800.02 1522.95L800.02 1522.95Q800.02 1512.75 822.97 1512.75Q845.92 1512.75 871.42 1526.78Q896.92 1540.80 896.92 1559.93L896.92 1559.93L896.92 1595.63L1274.32 1579.05Q1308.75 1576.50 1321.50 1571.40Q1334.25 1566.30 1341.90 1566.30Q1349.55 1566.30 1364.85 1576.50L1364.85 1576.50Q1399.27 1603.28 1399.27 1623.68L1399.27 1623.68Q1399.27 1638.98 1369.95 1641.53L1369.95 1641.53ZM1602 1293.45L1602 1293.45Q1627.50 1298.55 1659.38 1298.55L1659.38 1298.55L1675.95 1298.55L1862.10 1283.25L1863.38 1106.03Q1664.47 1171.05 1636.42 1171.05Q1608.38 1171.05 1608.38 1159.58L1608.38 1159.58Q1608.38 1145.55 1632.60 1136.63L1632.60 1136.63Q1807.28 1066.50 2011.28 946.65L2011.28 946.65Q2031.68 935.17 2040.60 916.05Q2049.53 896.92 2055.90 896.92L2055.90 896.92Q2075.03 896.92 2106.90 947.92L2106.90 947.92Q2119.65 968.33 2119.65 982.35Q2119.65 996.38 2112 1000.20L2112 1000.20Q1998.53 1057.58 1938.60 1079.25L1938.60 1079.25L1938.60 1276.88L2040.60 1267.95Q2069.93 1265.40 2085.86 1260.30Q2101.80 1255.20 2112 1255.20Q2122.20 1255.20 2137.50 1265.40L2137.50 1265.40Q2177.03 1292.18 2177.03 1312.58L2177.03 1312.58Q2177.03 1326.60 2148.97 1329.15L2148.97 1329.15L1938.60 1347L1938.60 1408.20Q1946.25 1404.38 1953.90 1404.38Q1961.55 1404.38 1987.05 1423.50Q2012.55 1442.63 2044.43 1472.59Q2076.30 1502.55 2106.90 1533.79Q2137.50 1565.03 2157.26 1590.53Q2177.03 1616.03 2177.03 1626.23Q2177.03 1636.43 2157.90 1655.55Q2138.78 1674.68 2125.39 1674.68Q2112 1674.68 2094.15 1651.73L2094.15 1651.73Q2006.18 1538.25 1938.60 1477.05L1938.60 1477.05L1938.60 2007.45Q1938.60 2040.60 1918.20 2040.60Q1897.80 2040.60 1874.85 2022.75Q1851.90 2004.90 1851.90 1984.50L1851.90 1984.50L1851.90 1978.13Q1851.90 1974.30 1855.72 1952.63Q1859.55 1930.95 1859.55 1892.70L1859.55 1892.70L1859.55 1859.55L1862.10 1559.93Q1862.10 1538.25 1864.01 1512.11Q1865.92 1485.97 1867.20 1466.85L1867.20 1466.85L1869.75 1447.72Q1813.65 1587.98 1663.20 1753.73L1663.20 1753.73Q1580.33 1845.53 1558.65 1845.53L1558.65 1845.53Q1548.45 1845.53 1548.45 1832.78Q1548.45 1820.03 1561.20 1802.18L1561.20 1802.18Q1749.90 1540.80 1828.95 1355.93L1828.95 1355.93L1702.72 1367.40Q1692.53 1368.68 1683.60 1368.68L1683.60 1368.68L1667.03 1368.68Q1614.75 1368.68 1594.35 1308.75L1594.35 1308.75Q1593.08 1306.20 1593.08 1299.83Q1593.08 1293.45 1602 1293.45ZM2669.18 1265.40L2637.30 1658.10Q2674.28 1695.08 2674.28 1708.46Q2674.28 1721.85 2662.16 1723.76Q2650.05 1725.68 2633.48 1726.95L2633.48 1726.95L2317.28 1738.43L2318.55 1785.60L2318.55 1790.70Q2318.55 1812.38 2301.98 1812.38L2301.98 1812.38Q2290.50 1812.38 2271.38 1804.73L2271.38 1804.73Q2233.13 1789.43 2233.13 1761.38L2233.13 1761.38L2233.13 1755Q2235.68 1733.33 2235.68 1715.48L2235.68 1715.48L2235.68 1681.05L2225.47 1278.15Q2222.93 1247.55 2210.81 1222.69Q2198.70 1197.83 2198.70 1194L2198.70 1194Q2198.70 1186.35 2213.36 1186.35Q2228.03 1186.35 2299.43 1210.58L2299.43 1210.58L2609.25 1194L2620.73 1192.72Q2636.03 1192.72 2656.43 1209.30Q2676.82 1225.88 2676.82 1237.35Q2676.82 1248.83 2673.64 1253.93Q2670.45 1259.03 2669.18 1265.40L2669.18 1265.40ZM2559.53 1655.55L2583.75 1269.22L2304.53 1281.97L2314.73 1663.20L2559.53 1655.55Z"/>
  </svg>