<svg xmlns="http://www.w3.org/2000/svg" viewBox="0 0 3000 3000" width="3000" height="3000">
    <path fill="#000000" d="M1062 660L1062 660L1890 602Q1916 602 1948 625Q1980 648 1980 668Q1980 688 1934 729Q1888 770 1757 852Q1626 934 1596 950L1596 950L1648 980L2114 956L2136 956Q2172 956 2199 981Q2226 1006 2226 1024L2226 1024Q2226 1068 1916 1270L1916 1270L1896 1282Q1858 1300 1840 1300Q1822 1300 1822 1282Q1822 1264 1868 1224L1868 1224Q2008 1100 2042 1058L2042 1058L1654 1078L1658 1394L1660 1446Q1660 1466 1644 1500Q1628 1534 1596 1534Q1564 1534 1514 1511Q1464 1488 1410 1456Q1356 1424 1317 1395Q1278 1366 1278 1354Q1278 1342 1295 1342Q1312 1342 1372 1360Q1432 1378 1542 1402L1542 1402L1538 1100Q1324 1298 1036 1432L1036 1432Q922 1484 848 1509Q774 1534 757 1534Q740 1534 740 1518L740 1518Q740 1496 790 1470L790 1470Q1148 1288 1382 1094L1382 1094L922 1120L872 1122Q830 1122 808 1099Q786 1076 778 1052L778 1052L770 1030Q770 1018 786 1018L786 1018L794 1018Q828 1024 864 1024L864 1024L888 1024L1472 990Q1402 956 1268 898L1268 898Q1240 886 1240 868Q1240 850 1257 823Q1274 796 1290 796Q1306 796 1373 827Q1440 858 1488 888L1488 888Q1652 798 1772 708L1772 708L1132 760Q1100 764 1068 764Q1036 764 1013 739Q990 714 980 688L980 688L970 662Q970 650 981 650Q992 650 1009 655Q1026 660 1062 660ZM2296 1722L1604 1752Q1986 1978 2414 2098L2414 2098Q2446 2108 2446 2122L2446 2122Q2446 2128 2432 2148L2432 2148Q2388 2208 2344 2208L2344 2208Q2336 2208 2264 2184L2264 2184Q1902 2068 1554 1832L1554 1832L1554 2348Q1554 2392 1522 2392L1522 2392Q1484 2392 1452 2369Q1420 2346 1420 2324Q1420 2302 1426 2275Q1432 2248 1432 2176L1432 2176L1432 1834Q1050 2124 684 2228L684 2228Q618 2246 614 2246L614 2246Q588 2246 588 2230L588 2230Q588 2208 636 2186L636 2186Q1014 2010 1342 1764L1342 1764L816 1788L760 1788Q734 1786 720 1774L720 1774L702 1752Q676 1708 676 1692Q676 1676 685 1676Q694 1676 709 1681Q724 1686 758 1686L758 1686L778 1686L1432 1656L1432 1636Q1432 1596 1417 1571Q1402 1546 1402 1536L1402 1536Q1402 1520 1438 1520Q1474 1520 1514 1542Q1554 1564 1554 1594L1554 1594L1554 1650L2146 1624Q2200 1620 2220 1612Q2240 1604 2252 1604Q2264 1604 2288 1620L2288 1620Q2342 1662 2342 1694L2342 1694Q2342 1718 2296 1722L2296 1722Z"/>
  </svg>