<svg xmlns="http://www.w3.org/2000/svg" viewBox="0 0 3000 3000" width="3000" height="3000">
    <path fill="#000000" d="M722 2060L722 2002L2188 2002L2188 2060L722 2060ZM2162 2012L2162 2002L2224 2002Q2224 2002 2223 2015Q2222 2028 2220 2038L2220 2038Q2202 2180 2184 2270Q2166 2360 2146 2409Q2126 2458 2100 2482L2100 2482Q2080 2498 2056 2505Q2032 2512 1992 2512L1992 2512Q1954 2514 1878 2512Q1802 2510 1714 2502L1714 2502Q1712 2492 1707 2476Q1702 2460 1694 2446L1694 2446Q1788 2454 1870 2457Q1952 2460 1978 2460L1978 2460Q2012 2460 2028 2457Q2044 2454 2056 2444L2056 2444Q2090 2416 2114 2320Q2138 2224 2162 2012L2162 2012ZM1450 1882L1450 1882L1512 1882Q1482 2018 1424 2123Q1366 2228 1265 2304Q1164 2380 1011 2432Q858 2484 638 2514L638 2514Q636 2506 631 2496Q626 2486 620 2476Q614 2466 608 2460L608 2460Q824 2432 973 2384Q1122 2336 1218 2265Q1314 2194 1369 2099Q1424 2004 1450 1882ZM744 858L744 800L2086 800L2086 858L744 858ZM2072 814L2072 800L2088 800L2104 796L2150 832Q2074 884 1972 930Q1870 976 1762 1013Q1654 1050 1554 1076L1554 1076Q1548 1066 1536 1054Q1524 1042 1514 1034L1514 1034Q1612 1010 1716 975Q1820 940 1914 898Q2008 856 2072 814L2072 814ZM1076 1000L1076 1000L1102 948Q1198 958 1303 976Q1408 994 1511 1016Q1614 1038 1704 1064Q1794 1090 1860 1116L1860 1116L1838 1174Q1772 1148 1682 1122Q1592 1096 1489 1073Q1386 1050 1280 1031Q1174 1012 1076 1000ZM796 1888L796 1160L2148 1160L2148 1220L856 1220L856 1888L796 1888ZM2116 1804L2116 1160L2174 1160L2174 1804Q2174 1836 2164 1854Q2154 1872 2124 1882L2124 1882Q2094 1890 2031 1891Q1968 1892 1862 1892L1862 1892Q1860 1880 1853 1864Q1846 1848 1840 1834L1840 1834Q1902 1836 1951 1837Q2000 1838 2033 1837Q2066 1836 2080 1836L2080 1836Q2102 1834 2109 1827Q2116 1820 2116 1804L2116 1804ZM1456 1832L1456 1180L1516 1180L1516 1832L1456 1832ZM828 1446L828 1388L2142 1388L2142 1446L828 1446ZM828 1678L828 1620L2142 1620L2142 1678L828 1678Z"/>
  </svg>