<svg xmlns="http://www.w3.org/2000/svg" viewBox="0 0 3000 3000" width="3000" height="3000">
    <path fill="#000000" d="M366.52 1857L366.52 1820.03L1301.10 1820.03L1301.10 1857L366.52 1857ZM1284.52 1826.40L1284.52 1820.03L1324.05 1820.03Q1324.05 1820.03 1323.41 1828.31Q1322.77 1836.60 1321.50 1842.98L1321.50 1842.98Q1310.02 1933.50 1298.55 1990.88Q1287.07 2048.25 1274.32 2079.49Q1261.57 2110.72 1245 2126.03L1245 2126.03Q1232.25 2136.22 1216.95 2140.69Q1201.65 2145.15 1176.15 2145.15L1176.15 2145.15Q1151.92 2146.43 1103.47 2145.15Q1055.02 2143.88 998.92 2138.78L998.92 2138.78Q997.65 2132.40 994.46 2122.20Q991.27 2112 986.17 2103.08L986.17 2103.08Q1046.10 2108.18 1098.38 2110.09Q1150.65 2112 1167.22 2112L1167.22 2112Q1188.90 2112 1199.10 2110.09Q1209.30 2108.18 1216.95 2101.80L1216.95 2101.80Q1238.63 2083.95 1253.92 2022.75Q1269.22 1961.55 1284.52 1826.40L1284.52 1826.40ZM830.62 1743.53L830.62 1743.53L870.15 1743.53Q851.02 1830.23 814.05 1897.16Q777.07 1964.10 712.69 2012.55Q648.30 2061 550.76 2094.15Q453.22 2127.30 312.97 2146.43L312.97 2146.43Q311.70 2141.33 308.51 2134.95Q305.32 2128.58 301.50 2122.20Q297.67 2115.83 293.85 2112L293.85 2112Q431.55 2094.15 526.54 2063.55Q621.52 2032.95 682.72 1987.69Q743.92 1942.43 778.99 1881.86Q814.05 1821.30 830.62 1743.53ZM380.55 1090.72L380.55 1053.75L1236.07 1053.75L1236.07 1090.72L380.55 1090.72ZM1227.15 1062.67L1227.15 1053.75L1237.35 1053.75L1247.55 1051.20L1276.87 1074.15Q1228.42 1107.30 1163.40 1136.63Q1098.38 1165.95 1029.52 1189.54Q960.67 1213.13 896.92 1229.70L896.92 1229.70Q893.10 1223.33 885.45 1215.67Q877.80 1208.03 871.42 1202.92L871.42 1202.92Q933.90 1187.63 1000.20 1165.31Q1066.50 1143 1126.42 1116.22Q1186.35 1089.45 1227.15 1062.67L1227.15 1062.67ZM592.20 1181.25L592.20 1181.25L608.77 1148.10Q669.97 1154.47 736.91 1165.95Q803.85 1177.42 869.51 1191.45Q935.17 1205.47 992.55 1222.05Q1049.92 1238.63 1092 1255.20L1092 1255.20L1077.97 1292.17Q1035.90 1275.60 978.52 1259.03Q921.15 1242.45 855.49 1227.79Q789.82 1213.13 722.25 1201.01Q654.67 1188.90 592.20 1181.25ZM413.70 1747.35L413.70 1283.25L1275.60 1283.25L1275.60 1321.50L451.95 1321.50L451.95 1747.35L413.70 1747.35ZM1255.20 1693.80L1255.20 1283.25L1292.17 1283.25L1292.17 1693.80Q1292.17 1714.20 1285.80 1725.68Q1279.42 1737.15 1260.30 1743.53L1260.30 1743.53Q1241.17 1748.63 1201.01 1749.26Q1160.85 1749.90 1093.27 1749.90L1093.27 1749.90Q1092 1742.25 1087.54 1732.05Q1083.07 1721.85 1079.25 1712.93L1079.25 1712.93Q1118.77 1714.20 1150.01 1714.84Q1181.25 1715.48 1202.29 1714.84Q1223.32 1714.20 1232.25 1714.20L1232.25 1714.20Q1246.27 1712.93 1250.74 1708.46Q1255.20 1704 1255.20 1693.80L1255.20 1693.80ZM834.45 1711.65L834.45 1296L872.70 1296L872.70 1711.65L834.45 1711.65ZM434.10 1465.58L434.10 1428.60L1271.77 1428.60L1271.77 1465.58L434.10 1465.58ZM434.10 1613.47L434.10 1576.50L1271.77 1576.50L1271.77 1613.47L434.10 1613.47ZM1596.90 1106.03L1596.90 1069.05L2119.65 1069.05L2119.65 1106.03L1596.90 1106.03ZM1679.78 1521.68L1679.78 1484.70L2024.03 1484.70L2024.03 1521.68L1679.78 1521.68ZM1679.78 1729.50L1679.78 1692.53L2024.03 1692.53L2024.03 1729.50L1679.78 1729.50ZM1562.47 1316.40L1562.47 1278.15L2148.97 1278.15L2148.97 1316.40L1562.47 1316.40ZM1831.50 1297.28L1831.50 1076.70L1868.47 1076.70L1868.47 1297.28L1831.50 1297.28ZM1661.92 1947.53L1661.92 1294.72L1698.90 1294.72L1698.90 1947.53L1661.92 1947.53ZM2006.18 2145.15L2006.18 1296L2044.43 1296L2044.43 2145.15L2006.18 2145.15ZM1567.58 1985.78L1559.92 1947.53Q1617.30 1939.88 1692.53 1929.04Q1767.75 1918.20 1852.54 1905.45Q1937.33 1892.70 2025.30 1879.95L2025.30 1879.95L2026.58 1915.65Q1900.35 1936.05 1779.22 1953.90Q1658.10 1971.75 1567.58 1985.78L1567.58 1985.78ZM2244.60 1276.88L2244.60 1239.90L2712.53 1239.90L2712.53 1276.88L2244.60 1276.88ZM2291.78 997.65L2291.78 997.65L2330.03 1004.03Q2308.35 1116.22 2277.11 1223.33Q2245.88 1330.43 2207.63 1422.86Q2169.38 1515.30 2122.20 1587.97L2122.20 1587.97Q2118.38 1584.15 2112 1580.96Q2105.63 1577.78 2098.61 1573.31Q2091.60 1568.85 2086.50 1566.30L2086.50 1566.30Q2134.95 1496.18 2173.20 1405.01Q2211.45 1313.85 2241.41 1209.30Q2271.38 1104.75 2291.78 997.65ZM2587.57 1251.38L2587.57 1251.38L2625.82 1257.75Q2591.40 1479.60 2528.29 1647.90Q2465.18 1816.20 2361.90 1938.60Q2258.63 2061 2099.25 2147.70L2099.25 2147.70Q2096.70 2142.60 2092.24 2136.86Q2087.78 2131.13 2082.68 2125.39Q2077.57 2119.65 2072.47 2115.83L2072.47 2115.83Q2229.30 2035.50 2331.30 1915.65Q2433.30 1795.80 2493.86 1631.33Q2554.43 1466.85 2587.57 1251.38ZM2215.28 1298.55L2248.43 1290.90Q2282.85 1480.88 2343.41 1645.35Q2403.98 1809.83 2497.05 1931.59Q2590.13 2053.35 2720.18 2115.83L2720.18 2115.83Q2715.07 2119.65 2709.34 2124.75Q2703.60 2129.85 2699.14 2135.59Q2694.68 2141.33 2690.85 2146.43L2690.85 2146.43Q2559.53 2077.58 2466.45 1953.26Q2373.38 1828.95 2312.18 1661.29Q2250.97 1493.63 2215.28 1298.55L2215.28 1298.55Z"/>
  </svg>