<svg xmlns="http://www.w3.org/2000/svg" viewBox="0 0 3000 3000" width="3000" height="3000">
    <path fill="#000000" d="M1149.38 1983.86L1149.38 1983.86L1148.10 1983.86Q1106.02 1971.11 1056.94 1953.90Q1007.85 1936.69 969.60 1920.11L969.60 1920.11Q956.85 1912.46 947.92 1910.55Q939.00 1908.64 931.35 1908.64L931.35 1908.64Q912.22 1908.64 912.22 1923.94L912.22 1923.94Q912.22 1936.69 933.26 1957.09Q954.30 1977.49 986.17 2000.44Q1018.05 2023.39 1051.84 2045.06Q1085.63 2066.74 1116.22 2080.76Q1146.82 2094.79 1163.40 2094.79L1163.40 2094.79Q1185.07 2094.79 1211.85 2075.66L1211.85 2075.66Q1222.05 2068.01 1232.25 2055.90Q1242.45 2043.79 1253.92 2015.74Q1265.40 1987.69 1278.15 1931.59Q1290.90 1875.49 1306.20 1782.41L1306.20 1782.41Q1307.47 1777.31 1311.94 1769.66Q1316.40 1762.01 1316.40 1749.26L1316.40 1749.26L1312.57 1736.51Q1307.47 1722.49 1294.72 1708.46Q1281.97 1694.44 1252.65 1694.44L1252.65 1694.44Q1247.55 1694.44 1243.09 1695.08Q1238.63 1695.71 1232.25 1695.71L1232.25 1695.71L913.50 1705.91Q902.02 1718.66 908.40 1704.64Q914.77 1690.61 914.77 1679.14L914.77 1679.14Q914.77 1661.29 895.65 1647.26L895.65 1647.26Q885.45 1637.06 872.70 1630.69L872.70 1630.69Q873.97 1630.69 875.25 1630.69L875.25 1630.69Q890.55 1630.69 895.01 1619.85Q899.47 1609.01 899.47 1594.99L899.47 1594.99L899.47 1518.49L1174.88 1507.01L1171.05 1579.69Q1149.38 1574.59 1118.14 1566.30Q1086.90 1558.01 1052.47 1547.81L1052.47 1547.81Q1035.90 1543.99 1025.70 1543.99L1025.70 1543.99Q1004.02 1543.99 1004.02 1559.29L1004.02 1559.29Q1004.02 1572.04 1029.52 1591.80Q1055.02 1611.56 1088.17 1631.33Q1121.32 1651.09 1153.20 1665.75Q1185.07 1680.41 1199.10 1680.41L1199.10 1680.41Q1222.05 1680.41 1235.44 1665.75Q1248.82 1651.09 1255.84 1633.88Q1262.85 1616.66 1262.85 1603.91L1262.85 1603.91L1262.85 1572.04L1276.87 1240.54Q1278.15 1234.16 1280.70 1227.15Q1283.25 1220.14 1283.25 1209.94L1283.25 1209.94Q1283.25 1202.29 1278.79 1192.09Q1274.32 1181.89 1262.85 1171.69L1262.85 1171.69Q1252.65 1165.31 1242.45 1164.04Q1232.25 1162.76 1222.05 1162.76L1222.05 1162.76L1206.75 1162.76L983.62 1174.24Q1006.57 1165.31 1064.59 1133.44Q1122.60 1101.56 1182.52 1063.31L1182.52 1063.31Q1190.17 1059.49 1199.74 1049.29Q1209.30 1039.09 1209.30 1025.06L1209.30 1025.06Q1209.30 1000.84 1187.63 986.17Q1165.95 971.51 1141.72 971.51L1141.72 971.51Q1130.25 971.51 1126.42 972.79L1126.42 972.79L542.47 1011.04Q537.37 1011.04 532.91 1011.67Q528.45 1012.31 523.35 1012.31L523.35 1012.31Q509.32 1012.31 491.47 1008.49L491.47 1008.49Q486.37 1007.21 483.19 1007.21Q480.00 1007.21 477.45 1007.21L477.45 1007.21Q460.87 1007.21 460.87 1019.96L460.87 1019.96Q460.87 1025.06 470.44 1045.46Q480.00 1065.86 497.85 1081.16L497.85 1081.16Q509.32 1091.36 532.27 1091.36L532.27 1091.36Q538.65 1091.36 545.02 1091.36Q551.40 1091.36 561.60 1090.09L561.60 1090.09L1029.52 1059.49Q1012.95 1069.69 967.69 1095.83Q922.42 1121.96 875.25 1143.64L875.25 1143.64Q831.90 1127.06 792.37 1111.76Q752.85 1096.46 719.70 1087.54L719.70 1087.54Q713.32 1086.26 708.86 1085.63Q704.40 1084.99 700.57 1084.99L700.57 1084.99Q684.00 1084.99 675.71 1098.38Q667.42 1111.76 666.15 1123.24L666.15 1123.24L663.60 1134.71Q663.60 1153.84 687.82 1162.76L687.82 1162.76Q715.87 1170.41 742.65 1179.34L742.65 1179.34Q754.12 1183.16 759.22 1184.44L759.22 1184.44L551.40 1193.36Q522.07 1178.06 504.22 1171.69Q486.37 1165.31 476.17 1165.31L476.17 1165.31Q457.05 1165.31 457.05 1183.16L457.05 1183.16Q457.05 1188.26 458.96 1193.36Q460.87 1198.46 462.15 1203.56L462.15 1203.56Q468.52 1217.59 469.80 1232.25Q471.07 1246.91 471.07 1268.59L471.07 1268.59L477.45 1568.21Q477.45 1609.01 472.35 1639.61L472.35 1639.61Q471.07 1643.44 471.07 1652.36L471.07 1652.36Q471.07 1668.94 486.37 1679.78Q501.67 1690.61 518.25 1695.08Q534.82 1699.54 539.92 1699.54L539.92 1699.54Q565.42 1699.54 565.42 1665.11L565.42 1665.11L562.87 1529.96L812.77 1521.04Q812.77 1526.14 812.14 1538.89Q811.50 1551.64 808.95 1561.84L808.95 1561.84Q807.67 1566.94 807.67 1571.40Q807.67 1575.86 807.67 1579.69L807.67 1579.69Q807.67 1596.26 821.70 1606.46L821.70 1606.46Q825.52 1610.29 829.35 1612.84L829.35 1612.84Q829.35 1612.84 828.07 1612.84L828.07 1612.84Q811.50 1612.84 811.50 1630.69L811.50 1630.69Q811.50 1637.06 812.77 1640.89Q814.05 1644.71 814.05 1647.90Q814.05 1651.09 814.05 1653.64L814.05 1653.64Q814.05 1666.39 807.04 1684.24Q800.02 1702.09 796.20 1711.01L796.20 1711.01L474.90 1722.49Q467.25 1722.49 450.67 1721.21Q434.10 1719.94 420.07 1714.84L420.07 1714.84Q416.25 1713.56 409.87 1713.56L409.87 1713.56Q393.30 1713.56 393.30 1730.14L393.30 1730.14Q393.30 1732.69 400.31 1754.36Q407.32 1776.04 429.00 1793.89L429.00 1793.89Q437.92 1801.54 449.40 1803.45Q460.87 1805.36 474.90 1805.36L474.90 1805.36Q482.55 1805.36 491.47 1804.73Q500.40 1804.09 509.32 1804.09L509.32 1804.09L745.20 1795.16Q690.37 1874.21 585.19 1936.69Q480.00 1999.16 347.40 2046.34L347.40 2046.34Q306.60 2061.64 306.60 2080.76L306.60 2080.76Q306.60 2098.61 335.92 2098.61L335.92 2098.61L375.45 2092.24Q413.70 2085.86 474.90 2068.01Q536.10 2050.16 607.50 2015.10Q678.90 1980.04 747.11 1925.21Q815.32 1870.39 862.50 1792.61L862.50 1792.61L1204.20 1779.86Q1197.82 1825.76 1185.71 1879.95Q1173.60 1934.14 1151.92 1982.59L1151.92 1982.59Q1151.92 1983.86 1149.38 1983.86ZM561.60 1399.91L814.05 1388.44L814.05 1447.09L561.60 1456.01L561.60 1399.91ZM899.47 1385.89L1179.97 1371.86L1177.42 1433.06L899.47 1444.54L899.47 1385.89ZM559.05 1271.14L812.77 1258.39L812.77 1314.49L560.32 1325.96L559.05 1271.14ZM899.47 1254.56L1185.07 1243.09L1182.52 1297.91L899.47 1311.94L899.47 1254.56ZM1808.55 1657.46L1973.03 1643.44L1973.03 1737.79Q1930.95 1751.81 1886.33 1767.75Q1841.70 1783.69 1807.28 1796.44L1807.28 1796.44L1808.55 1657.46ZM1809.83 1482.79L1975.58 1471.31L1974.30 1568.21L1808.55 1579.69L1809.83 1482.79ZM2303.25 1328.51L2303.25 1328.51L2491.95 1315.76Q2475.38 1392.26 2452.43 1470.04Q2429.48 1547.81 2402.70 1609.01L2402.70 1609.01Q2374.65 1558.01 2347.24 1488.53Q2319.82 1419.04 2295.60 1342.54L2295.60 1342.54Q2296.88 1338.71 2299.43 1334.25Q2301.98 1329.79 2303.25 1328.51ZM1811.10 1310.66L1976.85 1299.19L1975.58 1394.81L1809.83 1406.29L1811.10 1310.66ZM1971.75 1809.19L1971.75 1809.19L1970.47 1958.36Q1970.47 1982.59 1967.29 2002.35Q1964.10 2022.11 1960.28 2038.69L1960.28 2038.69Q1959 2043.79 1959 2051.44L1959 2051.44Q1959 2076.94 1976.85 2090.33Q1994.70 2103.71 2013.19 2109.45Q2031.68 2115.19 2035.50 2115.19L2035.50 2115.19Q2064.82 2115.19 2064.82 2087.14L2064.82 2087.14L2064.82 2084.59Q2068.65 2088.41 2078.85 2088.41L2078.85 2088.41Q2095.43 2088.41 2133.68 2064.83Q2171.93 2041.24 2220.38 1999.16Q2268.82 1957.09 2320.46 1901.63Q2372.10 1846.16 2407.80 1788.79L2407.80 1788.79Q2432.03 1825.76 2473.46 1878.04Q2514.90 1930.31 2557.61 1976.85Q2600.32 2023.39 2634.75 2054.63Q2669.18 2085.86 2683.20 2085.86L2683.20 2085.86Q2689.57 2085.86 2706.79 2077.58Q2724 2069.29 2741.21 2057.81Q2758.43 2046.34 2758.43 2034.86Q2758.43 2023.39 2741.85 2009.36L2741.85 2009.36Q2652.60 1937.96 2582.48 1861.46Q2512.35 1784.96 2458.80 1703.36L2458.80 1703.36Q2505.98 1614.11 2539.13 1515.94Q2572.28 1417.76 2595.23 1310.66L2595.23 1310.66L2679.38 1305.56Q2690.85 1304.29 2701.05 1299.19Q2711.25 1294.09 2711.25 1280.06L2711.25 1280.06Q2711.25 1269.86 2698.50 1254.56Q2685.75 1239.26 2667.90 1226.51Q2650.05 1213.76 2633.48 1213.76L2633.48 1213.76Q2627.10 1213.76 2618.18 1216.31L2618.18 1216.31Q2590.13 1227.79 2562.07 1229.06L2562.07 1229.06L2338.95 1243.09Q2346.60 1227.79 2361.26 1190.17Q2375.93 1152.56 2388.68 1115.59Q2401.43 1078.61 2410.35 1051.20Q2419.28 1023.79 2419.28 1017.41L2419.28 1017.41Q2419.28 1000.84 2402.70 984.90Q2386.13 968.96 2364.45 958.13Q2342.78 947.29 2327.48 947.29L2327.48 947.29Q2307.07 947.29 2307.07 968.96L2307.07 968.96Q2308.35 974.06 2308.35 978.52Q2308.35 982.99 2308.35 988.09L2308.35 988.09Q2308.35 1008.49 2294.96 1064.59Q2281.57 1120.69 2256.07 1199.10Q2230.57 1277.51 2194.88 1366.76Q2159.18 1456.01 2114.55 1542.71L2114.55 1542.71Q2100.53 1570.76 2100.53 1586.06Q2100.53 1601.36 2113.28 1601.36L2113.28 1601.36Q2127.30 1601.36 2145.79 1581.60Q2164.28 1561.84 2184.04 1533.79Q2203.80 1505.74 2221.65 1478.33Q2239.50 1450.91 2240.78 1449.64L2240.78 1449.64Q2258.63 1504.46 2289.23 1573.31Q2319.82 1642.16 2354.25 1703.36L2354.25 1703.36Q2300.70 1800.26 2228.66 1886.96Q2156.63 1973.66 2087.78 2033.59L2087.78 2033.59Q2071.20 2047.61 2064.82 2059.09L2064.82 2059.09L2066.10 1295.36L2177.03 1287.71Q2212.72 1283.89 2212.72 1266.04L2212.72 1266.04Q2212.72 1257.11 2201.89 1242.45Q2191.05 1227.79 2175.75 1214.40Q2160.45 1201.01 2141.32 1201.01L2141.32 1201.01Q2132.40 1201.01 2122.20 1206.11L2122.20 1206.11Q2112 1209.94 2097.97 1211.85Q2083.95 1213.76 2067.38 1215.04L2067.38 1215.04L1939.88 1223.96L1943.70 1100.29L2112 1090.09Q2123.47 1088.81 2134.95 1084.99Q2146.43 1081.16 2146.43 1067.14L2146.43 1067.14Q2146.43 1059.49 2138.14 1044.83Q2129.85 1030.16 2113.91 1016.77Q2097.97 1003.39 2075.03 1003.39L2075.03 1003.39Q2071.20 1003.39 2066.10 1003.39Q2061 1003.39 2055.90 1007.21L2055.90 1007.21Q2045.70 1011.04 2035.50 1013.59Q2025.30 1016.14 2010 1017.41L2010 1017.41L1746.08 1032.71L1729.50 1032.71Q1705.28 1032.71 1687.42 1027.61L1687.42 1027.61Q1683.60 1026.34 1677.22 1026.34L1677.22 1026.34Q1663.20 1026.34 1663.20 1038.45Q1663.20 1050.56 1670.85 1067.14Q1678.50 1083.71 1696.35 1097.74Q1714.20 1111.76 1743.53 1111.76L1743.53 1111.76Q1748.63 1111.76 1754.36 1111.13Q1760.10 1110.49 1766.47 1110.49L1766.47 1110.49L1848.08 1105.39L1845.53 1229.06L1673.40 1240.54L1667.03 1240.54Q1642.80 1240.54 1617.30 1230.34L1617.30 1230.34Q1613.47 1229.06 1608.38 1229.06L1608.38 1229.06Q1593.08 1229.06 1593.08 1245.64L1593.08 1245.64Q1593.08 1249.46 1593.71 1250.10Q1594.35 1250.74 1594.35 1252.01L1594.35 1252.01Q1598.17 1267.31 1615.39 1292.81Q1632.60 1318.31 1660.65 1318.31L1660.65 1318.31L1667.03 1318.31Q1673.40 1318.31 1681.69 1318.31Q1689.97 1318.31 1701.45 1317.04L1701.45 1317.04L1720.58 1315.76L1718.03 1821.94Q1670.85 1835.96 1644.08 1842.98Q1617.30 1849.99 1606.46 1851.90Q1595.63 1853.81 1591.80 1853.81L1591.80 1853.81Q1586.70 1853.81 1580.96 1853.18Q1575.22 1852.54 1568.85 1851.26L1568.85 1851.26L1565.03 1851.26Q1549.72 1851.26 1549.72 1866.56L1549.72 1866.56Q1549.72 1872.94 1552.28 1876.76L1552.28 1876.76Q1570.13 1913.74 1598.81 1932.23Q1627.50 1950.71 1636.42 1950.71Q1645.35 1950.71 1679.78 1939.88Q1714.20 1929.04 1787.51 1897.16Q1860.83 1865.29 1971.75 1809.19Z"/>
  </svg>