<svg xmlns="http://www.w3.org/2000/svg" viewBox="0 0 3000 3000" width="3000" height="3000">
    <path fill="#000000" d="M984.90 950.47L984.90 950.47Q988.72 945.38 1039.09 953.66Q1089.45 961.95 1113.67 972.15L1113.67 972.15Q1127.70 978.52 1127.70 1006.57Q1127.70 1034.63 1112.40 1051.20L1112.40 1051.20Q1106.02 1060.13 1099.65 1062.04Q1093.27 1063.95 1071.60 1060.13L1071.60 1060.13Q1049.92 1057.57 1040.36 1060.76Q1030.80 1063.95 1004.02 1077.97L1004.02 1077.97Q967.05 1099.65 953.02 1104.75L953.02 1104.75Q940.27 1111.13 939.64 1114.31Q939.00 1117.50 950.47 1131.52L950.47 1131.52Q958.12 1139.17 968.32 1143Q978.52 1146.82 1016.77 1149.38L1016.77 1149.38Q1070.32 1154.47 1084.35 1149.38L1084.35 1149.38Q1098.38 1144.27 1130.89 1144.91Q1163.40 1145.55 1178.70 1150.65L1178.70 1150.65Q1194 1157.02 1205.47 1177.42L1205.47 1177.42Q1214.40 1191.45 1215.04 1201.65Q1215.67 1211.85 1210.57 1242.45L1210.57 1242.45Q1205.47 1285.80 1205.47 1405.65L1205.47 1405.65Q1205.47 1493.63 1202.29 1531.24Q1199.10 1568.85 1187.63 1582.88L1187.63 1582.88Q1181.25 1591.80 1181.25 1599.45L1181.25 1599.45Q1181.25 1612.20 1171.69 1629.41Q1162.13 1646.63 1151.92 1656.83L1151.92 1656.83Q1126.42 1677.22 1163.40 1695.08L1163.40 1695.08Q1185.07 1706.55 1190.81 1714.20Q1196.55 1721.85 1196.55 1740.97L1196.55 1740.97Q1196.55 1780.50 1171.05 1794.53L1171.05 1794.53Q1165.95 1798.35 1165.95 1810.46Q1165.95 1822.58 1158.30 1832.14Q1150.65 1841.70 1149.38 1852.54Q1148.10 1863.38 1144.27 1868.47Q1140.45 1873.58 1134.07 1892.06Q1127.70 1910.55 1097.10 1956.45Q1066.50 2002.35 1066.50 2010Q1066.50 2017.65 1046.10 2039.33L1046.10 2039.33Q1007.85 2075.03 956.85 2083.95L956.85 2083.95Q940.27 2087.78 933.90 2075.66Q927.52 2063.55 925.61 2052.07Q923.70 2040.60 917.96 2029.76Q912.22 2018.92 908.40 2018.92L908.40 2018.92Q903.30 2018.92 886.72 2001.71Q870.15 1984.50 870.15 1979.40L870.15 1979.40Q870.15 1970.47 852.30 1954.54Q834.45 1938.60 834.45 1930.95L834.45 1930.95Q834.45 1920.75 851.02 1925.85L851.02 1925.85Q859.95 1929.67 884.17 1937.33L884.17 1937.33Q928.80 1955.17 951.75 1940.51Q974.70 1925.85 1001.47 1864.65L1001.47 1864.65Q1032.07 1795.80 1039.72 1735.88L1039.72 1735.88Q1042.27 1723.13 1039.09 1719.30Q1035.90 1715.47 1020.60 1709.10L1020.60 1709.10Q993.82 1698.90 956.21 1701.45Q918.60 1704 918.60 1716.75L918.60 1716.75Q918.60 1721.85 896.29 1758.83Q873.97 1795.80 868.87 1803.45L868.87 1803.45Q857.40 1832.78 788.55 1909.91Q719.70 1987.05 694.20 1998.53L694.20 1998.53Q673.80 2010 660.41 2021.47Q647.02 2032.95 613.24 2056.54Q579.45 2080.13 570.52 2089.05L570.52 2089.05Q559.05 2099.25 536.74 2110.72Q514.42 2122.20 510.60 2119.65L510.60 2119.65Q508.05 2118.38 509.32 2115.19Q510.60 2112 515.06 2106.90Q519.52 2101.80 525.90 2094.15L525.90 2094.15Q545.02 2073.75 547.57 2068.01Q550.12 2062.28 599.85 2008.72L599.85 2008.72Q695.47 1905.45 695.47 1895.25L695.47 1895.25Q695.47 1891.42 705.67 1883.78L705.67 1883.78Q714.60 1873.58 733.72 1839.79Q752.85 1806 765.60 1777.95L765.60 1777.95Q768.15 1770.30 777.07 1753.72L777.07 1753.72Q796.20 1725.67 783.45 1728.22L783.45 1728.22Q773.25 1728.22 750.30 1737.15L750.30 1737.15Q722.25 1748.63 700.57 1743.53Q678.90 1738.42 672.52 1728.22L672.52 1728.22Q667.42 1720.58 668.06 1716.75Q668.70 1712.92 677.62 1702.72L677.62 1702.72Q689.10 1691.25 724.16 1676.59Q759.22 1661.92 793.65 1654.28L793.65 1654.28Q814.05 1649.17 820.42 1645.35Q826.80 1641.53 831.90 1630.05L831.90 1630.05Q839.55 1612.20 839.55 1604.55Q839.55 1596.90 847.20 1582.88L847.20 1582.88Q868.87 1540.80 873.97 1488.52L873.97 1488.52Q876.52 1454.10 872.06 1450.28Q867.60 1446.45 843.37 1457.92L843.37 1457.92Q822.97 1468.13 813.41 1468.76Q803.85 1469.40 787.27 1461.11Q770.70 1452.82 763.69 1442.63Q756.67 1432.42 764.32 1424.78L764.32 1424.78Q773.25 1412.03 852.30 1383.97L852.30 1383.97Q868.87 1377.60 872.70 1373.78Q876.52 1369.95 876.52 1358.47L876.52 1358.47Q876.52 1345.72 874.61 1344.45Q872.70 1343.17 859.95 1345.72L859.95 1345.72Q843.37 1349.55 824.25 1354.65L824.25 1354.65Q783.45 1367.40 769.42 1354.65L769.42 1354.65Q764.32 1348.28 764.32 1331.70L764.32 1331.70Q764.32 1318.95 768.79 1313.85Q773.25 1308.75 797.47 1299.82L797.47 1299.82Q829.35 1284.53 858.67 1274.32L858.67 1274.32Q879.07 1269.22 882.26 1264.76Q885.45 1260.30 889.27 1242.45L889.27 1242.45Q890.55 1220.77 882.26 1210.57Q873.97 1200.38 849.75 1200.38L849.75 1200.38Q811.50 1200.38 782.17 1218.86Q752.85 1237.35 752.85 1260.30L752.85 1260.30Q752.85 1276.88 747.75 1302.38Q742.65 1327.88 740.10 1368.67L740.10 1368.67Q733.72 1492.35 726.71 1531.88Q719.70 1571.40 705.04 1582.88Q690.37 1594.35 682.09 1590.53Q673.80 1586.70 662.32 1563.75L662.32 1563.75Q649.57 1534.42 651.49 1527.41Q653.40 1520.40 647.66 1504.46Q641.92 1488.52 647.66 1459.20Q653.40 1429.88 657.86 1337.44Q662.32 1245 667.42 1238.63Q672.52 1232.25 668.70 1227.79Q664.87 1223.32 669.97 1209.30L669.97 1209.30Q673.80 1200.38 678.90 1198.46Q684.00 1196.55 704.40 1196.55L704.40 1196.55Q731.17 1196.55 756.67 1184.44Q782.17 1172.32 796.20 1167.22L796.20 1167.22Q821.70 1160.85 807.67 1145.55L807.67 1145.55Q800.02 1135.35 800.02 1127.70Q800.02 1120.05 794.29 1115.59Q788.55 1111.13 793.65 1095.82Q798.75 1080.52 808.95 1070.32L808.95 1070.32Q822.97 1057.57 880.35 1084.35L880.35 1084.35Q895.65 1092 900.75 1092Q905.85 1092 912.22 1085.63L912.22 1085.63Q922.42 1075.42 922.42 1070.96Q922.42 1066.50 938.36 1046.74Q954.30 1026.97 954.30 1015.50L954.30 1015.50Q954.30 1007.85 947.92 1007.21Q941.55 1006.57 908.40 1009.12L908.40 1009.12Q863.77 1011.67 854.85 1011.67L854.85 1011.67Q838.27 1010.40 757.95 1026.97L757.95 1026.97Q729.90 1033.35 715.87 1042.27L715.87 1042.27Q691.65 1058.85 672.52 1041L672.52 1041Q659.77 1028.25 661.69 1019.96Q663.60 1011.67 681.45 1002.75L681.45 1002.75Q729.90 977.25 800.02 969.60L800.02 969.60Q848.47 964.50 856.12 962.59Q863.77 960.67 923.06 956.85Q982.35 953.02 984.90 950.47ZM1084.35 1216.95L1084.35 1216.95Q1079.25 1211.85 1048.65 1204.20Q1018.05 1196.55 995.74 1196.55Q973.42 1196.55 969.60 1208.66Q965.77 1220.77 956.85 1223.32L956.85 1223.32Q941.55 1228.42 961.95 1243.72L961.95 1243.72Q974.70 1252.65 987.45 1252.65L987.45 1252.65Q1002.75 1252.65 1014.86 1264.76Q1026.97 1276.88 1026.97 1292.17L1026.97 1292.17Q1028.25 1308.75 1020.60 1316.40Q1012.95 1324.05 993.82 1324.05L993.82 1324.05Q978.52 1324.05 970.24 1331.06Q961.95 1338.07 965.77 1348.28L965.77 1348.28Q968.32 1354.65 1004.02 1354.65L1004.02 1354.65Q1030.80 1354.65 1037.17 1357.84Q1043.55 1361.03 1048.65 1369.95L1048.65 1369.95Q1055.02 1383.97 1056.30 1398Q1057.57 1412.03 1051.20 1415.85Q1044.82 1419.67 1012.95 1417.13L1012.95 1417.13Q988.72 1417.13 982.99 1419.67Q977.25 1422.22 972.15 1432.42L972.15 1432.42Q963.22 1447.72 963.22 1481.51Q963.22 1515.30 958.76 1528.05Q954.30 1540.80 961.95 1566.30L961.95 1566.30Q969.60 1585.42 968.96 1590.53Q968.32 1595.63 959.40 1607.10L959.40 1607.10Q939.00 1636.42 954.30 1641.53L954.30 1641.53Q960.67 1642.80 994.46 1645.35Q1028.25 1647.90 1053.75 1651.72L1053.75 1651.72Q1085.63 1655.55 1084.35 1646.63L1084.35 1646.63Q1084.35 1644.08 1081.80 1640.25L1081.80 1640.25Q1069.05 1624.95 1057.57 1599.45L1057.57 1599.45Q1051.20 1589.25 1032.07 1573.95L1032.07 1573.95Q991.27 1544.63 995.10 1529.32Q998.92 1514.03 1047.38 1510.20L1047.38 1510.20Q1075.42 1507.65 1079.89 1505.74Q1084.35 1503.82 1089.45 1492.35L1089.45 1492.35Q1092 1475.77 1098.38 1378.88L1098.38 1378.88Q1107.30 1234.80 1084.35 1216.95ZM2275.20 960.67L2275.20 960.67Q2279.03 950.47 2309.63 963.22L2309.63 963.22Q2328.75 968.32 2340.23 981.07Q2351.70 993.82 2364.45 1020.60L2364.45 1020.60Q2381.03 1058.85 2369.55 1083.07L2369.55 1083.07Q2361.90 1099.65 2356.16 1136.63Q2350.43 1173.60 2346.60 1176.15Q2342.78 1178.70 2327.48 1211.85Q2312.18 1245 2312.18 1250.10Q2312.18 1255.20 2296.24 1275.60Q2280.30 1296 2280.30 1303.65Q2280.30 1311.30 2276.48 1313.85Q2272.65 1316.40 2261.18 1339.35Q2249.70 1362.30 2251.61 1364.21Q2253.53 1366.13 2280.30 1356.56Q2307.07 1347 2313.45 1340.63L2313.45 1340.63Q2318.55 1336.80 2352.98 1323.41Q2387.40 1310.03 2393.78 1298.55L2393.78 1298.55Q2411.63 1271.78 2466.45 1267.95L2466.45 1267.95Q2500.88 1265.40 2509.80 1273.05L2509.80 1273.05Q2567.18 1326.60 2567.18 1338.07L2567.18 1338.07Q2567.18 1352.10 2546.14 1364.85Q2525.10 1377.60 2497.05 1382.70L2497.05 1382.70Q2470.28 1386.53 2423.10 1406.92Q2375.93 1427.32 2375.93 1436.25L2375.93 1436.25Q2375.93 1441.35 2380.39 1441.35Q2384.85 1441.35 2402.70 1459.20L2402.70 1459.20Q2429.48 1487.25 2420.55 1536.97L2420.55 1536.97L2411.63 1586.70Q2407.80 1616.03 2386.13 1654.28L2386.13 1654.28L2365.73 1693.80L2403.98 1730.78Q2439.68 1762.65 2529.56 1817.47Q2619.45 1872.30 2664.07 1887.60L2664.07 1887.60Q2698.50 1899.08 2715.07 1914.38L2715.07 1914.38L2732.93 1930.95L2720.18 1941.15Q2704.88 1952.63 2687.03 1955.17L2687.03 1955.17Q2666.63 1957.72 2633.48 1973.66Q2600.32 1989.60 2597.78 1998.53L2597.78 1998.53Q2595.23 2007.45 2583.75 2010L2583.75 2010Q2573.55 2012.55 2558.89 2010Q2544.23 2007.45 2541.68 2002.35L2541.68 2002.35Q2535.30 1993.42 2453.70 1936.05L2453.70 1936.05Q2391.23 1892.70 2326.20 1825.13L2326.20 1825.13L2293.05 1789.42L2271.38 1813.65Q2249.70 1836.60 2233.76 1844.25Q2217.82 1851.90 2178.30 1877.40Q2138.78 1902.90 2077.57 1932.22L2077.57 1932.22L2015.10 1961.55L2013.83 2025.30L2012.55 2089.05L1992.15 2096.70Q1974.30 2104.35 1969.20 2109.45L1969.20 2109.45Q1966.65 2113.28 1961.55 2110.09Q1956.45 2106.90 1948.80 2099.25Q1941.15 2091.60 1936.05 2078.85L1936.05 2078.85Q1925.85 2061 1924.58 2050.16Q1923.30 2039.33 1925.85 2002.35L1925.85 2002.35Q1930.95 1948.80 1933.50 1873.58L1933.50 1873.58Q1934.78 1869.75 1934.78 1862.10L1934.78 1862.10Q1936.05 1806 1929.68 1800.26Q1923.30 1794.53 1881.22 1812.38L1881.22 1812.38Q1876.13 1816.20 1873.58 1817.47L1873.58 1817.47Q1817.47 1842.97 1807.28 1842.97L1807.28 1842.97Q1802.17 1842.97 1737.79 1872.30Q1673.40 1901.63 1670.85 1906.72L1670.85 1906.72Q1668.30 1910.55 1649.17 1923.94Q1630.05 1937.33 1627.50 1948.80L1627.50 1948.80Q1623.67 1964.10 1610.92 1962.83Q1598.17 1961.55 1582.88 1944.97L1582.88 1944.97Q1521.67 1878.67 1553.55 1854.45L1553.55 1854.45Q1566.30 1844.25 1579.69 1841.70Q1593.08 1839.15 1653 1809.83L1653 1809.83L1712.92 1783.05L1716.75 1752.45Q1719.30 1719.30 1724.40 1696.99Q1729.50 1674.67 1728.22 1644.71Q1726.95 1614.75 1730.78 1611.56Q1734.60 1608.38 1739.70 1540.80L1739.70 1540.80L1751.17 1431.15Q1753.72 1389.07 1757.55 1380.15Q1761.38 1371.22 1753.72 1371.22L1753.72 1371.22Q1743.53 1371.22 1704.64 1387.80Q1665.75 1404.38 1655.55 1413.30L1655.55 1413.30Q1645.35 1423.50 1633.88 1417.76Q1622.40 1412.03 1604.55 1404.38L1604.55 1404.38Q1587.97 1396.72 1579.05 1382.70Q1570.13 1368.67 1575.22 1357.20L1575.22 1357.20Q1581.60 1344.45 1612.20 1329.79Q1642.80 1315.13 1732.05 1284.53L1732.05 1284.53Q1820.03 1253.92 1876.13 1243.72L1876.13 1243.72Q1895.25 1241.17 1897.80 1236.07L1897.80 1236.07Q1904.18 1225.88 1914.38 1125.15L1914.38 1125.15L1916.93 1095.82L1901.63 1098.38Q1888.88 1102.20 1857 1113.67L1857 1113.67Q1828.95 1127.70 1816.20 1127.06Q1803.45 1126.42 1786.88 1109.85L1786.88 1109.85Q1755 1079.25 1789.42 1065.22L1789.42 1065.22Q1812.38 1056.30 1853.81 1043.55Q1895.25 1030.80 1902.90 1032.07L1902.90 1032.07Q1913.10 1032.07 1922.03 1018.05L1922.03 1018.05Q1933.50 1005.30 1948.16 1005.94Q1962.83 1006.57 1988.33 1021.87L1988.33 1021.87Q2050.80 1058.85 2050.80 1086.90L2050.80 1086.90Q2050.80 1104.75 2043.15 1110.49Q2035.50 1116.22 2035.50 1128.34Q2035.50 1140.45 2032.95 1143L2032.95 1143Q2029.13 1146.82 2017.65 1176.15Q2006.18 1205.47 2006.18 1213.13L2006.18 1213.13Q2006.18 1218.22 2017.65 1220.14Q2029.13 1222.05 2050.80 1220.14Q2072.47 1218.22 2100.53 1211.85L2100.53 1211.85Q2143.88 1202.92 2174.47 1204.20L2174.47 1204.20Q2183.40 1205.47 2190.41 1205.47Q2197.43 1205.47 2201.89 1205.47Q2206.35 1205.47 2206.35 1205.47L2206.35 1205.47Q2206.35 1197.82 2222.29 1140.45Q2238.22 1083.07 2242.05 1074.15L2242.05 1074.15Q2250.97 1058.85 2256.07 1032.07L2256.07 1032.07Q2267.55 973.42 2275.20 960.67ZM2169.38 1306.20L2169.38 1306.20Q2170.65 1299.82 2166.82 1297.91Q2163 1296 2145.15 1298.55L2145.15 1298.55Q2118.38 1298.55 2064.19 1300.46Q2010 1302.38 2010.64 1308.11Q2011.28 1313.85 2033.59 1338.07Q2055.90 1362.30 2052.71 1370.59Q2049.53 1378.88 2045.70 1416.49Q2041.88 1454.10 2035.50 1473.22L2035.50 1473.22Q2032.95 1485.97 2031.68 1505.10Q2030.40 1524.22 2031.04 1538.25Q2031.68 1552.28 2034.22 1552.28L2034.22 1552.28Q2038.05 1552.28 2066.10 1515.30L2066.10 1515.30Q2092.88 1479.60 2124.11 1416.49Q2155.35 1353.38 2169.38 1306.20ZM1947.53 1390.35L1947.53 1390.35L1947.53 1321.50L1933.50 1322.78Q1918.20 1322.78 1913.10 1324.05Q1908 1325.32 1877.40 1331.70L1877.40 1331.70Q1800.90 1348.28 1800.90 1354.65L1800.90 1354.65Q1800.90 1357.20 1811.10 1371.22L1811.10 1371.22Q1818.75 1381.42 1819.39 1386.53Q1820.03 1391.63 1812.38 1408.20L1812.38 1408.20Q1804.72 1433.70 1806.64 1435.61Q1808.55 1437.53 1836.60 1423.50L1836.60 1423.50Q1864.65 1412.03 1893.34 1408.20Q1922.03 1404.38 1933.50 1413.30L1933.50 1413.30Q1939.88 1418.40 1939.88 1421.59Q1939.88 1424.78 1936.05 1436.25L1936.05 1436.25Q1929.68 1451.55 1925.85 1451.55Q1922.03 1451.55 1915.65 1463.66Q1909.28 1475.77 1886.33 1483.42Q1863.38 1491.07 1841.70 1503.82Q1820.03 1516.57 1804.72 1516.57Q1789.42 1516.57 1789.42 1522.95Q1789.42 1529.32 1787.51 1552.91Q1785.60 1576.50 1788.79 1576.50Q1791.97 1576.50 1832.78 1561.20L1832.78 1561.20Q1911.83 1531.88 1930.95 1540.80L1930.95 1540.80Q1937.33 1545.90 1939.88 1531.88L1939.88 1531.88Q1941.15 1525.50 1942.43 1503.82L1942.43 1503.82Q1946.25 1459.20 1947.53 1390.35ZM2350.43 1434.97L2350.43 1434.97Q2338.95 1437.53 2316.64 1427.32Q2294.32 1417.13 2276.48 1417.13Q2258.63 1417.13 2244.60 1409.47Q2230.57 1401.82 2229.30 1401.82L2229.30 1401.82Q2226.75 1403.10 2211.45 1428.60Q2196.15 1454.10 2196.15 1459.20L2196.15 1459.20Q2196.15 1464.30 2203.16 1473.86Q2210.18 1483.42 2207.63 1487.25Q2205.07 1491.07 2222.93 1521.04Q2240.78 1551 2240.78 1554.82Q2240.78 1558.65 2266.28 1586.70Q2291.78 1614.75 2291.78 1618.58L2291.78 1618.58Q2291.78 1631.33 2304.53 1610.92L2304.53 1610.92Q2307.07 1605.83 2309.63 1600.72L2309.63 1600.72Q2326.20 1563.75 2342.78 1498.72L2342.78 1498.72Q2354.25 1449 2359.35 1440.07L2359.35 1440.07Q2361.90 1434.97 2359.99 1433.06Q2358.07 1431.15 2350.43 1434.97ZM2168.10 1530.60L2168.10 1530.60Q2163 1498.72 2158.54 1497.45Q2154.07 1496.17 2110.72 1538.25Q2067.38 1580.32 2048.25 1595.63L2048.25 1595.63Q2035.50 1604.55 2032.31 1612.20Q2029.13 1619.85 2027.85 1642.80L2027.85 1642.80Q2026.58 1651.72 2026.58 1660.01Q2026.58 1668.30 2026.58 1672.13Q2026.58 1675.95 2026.58 1675.95L2026.58 1675.95Q2029.13 1675.95 2055.90 1666.39Q2082.68 1656.83 2100.53 1654.28L2100.53 1654.28L2117.10 1650.45L2114.55 1668.30Q2110.72 1684.88 2096.70 1695.71Q2082.68 1706.55 2072.47 1715.47Q2062.28 1724.40 2046.97 1732.69Q2031.68 1740.97 2029.13 1756.28L2029.13 1756.28Q2026.58 1774.13 2026.58 1848.08Q2026.58 1922.03 2029.13 1922.03L2029.13 1922.03Q2032.95 1922.03 2050.80 1909.28Q2068.65 1896.53 2087.14 1886.96Q2105.63 1877.40 2122.20 1862.10L2122.20 1862.10L2178.30 1811.10Q2214 1777.95 2233.13 1751.17L2233.13 1751.17L2252.25 1723.13L2229.30 1682.33Q2182.13 1595.63 2168.10 1530.60ZM1938.60 1709.10L1938.60 1650.45Q1939.88 1591.80 1936.05 1591.80Q1932.22 1591.80 1929.68 1602.64Q1927.13 1613.47 1891.43 1627.50L1891.43 1627.50Q1816.20 1656.83 1816.20 1661.92L1816.20 1661.92Q1816.20 1665.75 1802.17 1669.58L1802.17 1669.58Q1791.97 1670.85 1788.15 1677.86Q1784.33 1684.88 1779.22 1711.65L1779.22 1711.65Q1771.58 1749.90 1771.58 1753.72L1771.58 1753.72Q1771.58 1765.20 1868.47 1733.33L1868.47 1733.33L1938.60 1709.10Z"/>
  </svg>