<svg xmlns="http://www.w3.org/2000/svg" viewBox="0 0 3000 3000" width="3000" height="3000">
    <path fill="#000000" d="M2014 1140L2018 1010L1546 1028L1546 1162L2014 1140ZM1436 1394L1436 1258L1016 1276L1016 1408L1436 1394ZM2006 1372L2010 1232L1546 1254L1546 1390L2006 1372ZM1434 1166L1434 1034L1012 1054L1014 1184L1434 1166ZM1550 1762L2080 1744L2112 1742Q2176 1742 2194 1800L2194 1800L2200 1818Q2200 1832 2193 1844Q2186 1856 2163 1995Q2140 2134 2109 2213Q2078 2292 2040 2319Q2002 2346 1975 2346Q1948 2346 1886 2318Q1824 2290 1707 2204Q1590 2118 1590 2090L1590 2090Q1590 2078 1612 2078Q1634 2078 1702 2111Q1770 2144 1946 2196L1946 2196L1950 2196Q1962 2196 1966 2186L1966 2186Q2020 2064 2050 1852L2050 1852L1494 1872Q1356 2096 1096 2222L1096 2222Q908 2314 734 2342L734 2342L674 2352Q640 2352 640 2336L640 2336Q640 2314 696 2294L696 2294Q906 2218 1072 2120Q1238 2022 1340 1876L1340 1876L892 1892Q810 1892 786 1820L786 1820Q776 1788 776 1786L776 1786Q776 1772 787 1772Q798 1772 818 1779Q838 1786 892 1786L892 1786L1404 1768Q1436 1698 1436 1680L1436 1680L1436 1656L1432 1630Q1432 1614 1445 1614Q1458 1614 1488 1628L1488 1628Q1570 1666 1570 1706L1570 1706Q1570 1722 1561 1741Q1552 1760 1550 1762L1550 1762ZM2002 1488L2002 1464L1546 1482L1546 1574Q1546 1618 1520 1618L1520 1618Q1486 1618 1456 1594Q1426 1570 1426 1556L1426 1556L1426 1538L1436 1486L1018 1500L1022 1684Q1022 1726 994 1726L994 1726Q960 1726 929 1705Q898 1684 898 1668Q898 1652 903 1624Q908 1596 908 1532L908 1532L898 1062Q898 986 887 960Q876 934 876 928L876 928Q876 912 899 912Q922 912 1010 956L1010 956L1404 940Q1310 906 1230 884L1230 884Q1200 874 1200 854L1200 854Q1208 816 1217 801Q1226 786 1252 786Q1278 786 1520 880L1520 880Q1652 818 1808 718L1808 718L1026 770Q1012 772 1002 772L1002 772L972 772Q928 772 896 708L896 708Q882 678 882 671Q882 664 892 664L892 664L904 664L968 672L1916 610Q1922 608 1947 608Q1972 608 2002 628Q2032 648 2032 678Q2032 708 1996 730L1996 730Q1784 866 1616 930L1616 930L2040 908L2064 908Q2124 908 2142 948L2142 948Q2148 960 2148 972Q2148 984 2144 994Q2140 1004 2138 1016L2138 1016L2114 1644Q2112 1686 2082 1686L2082 1686Q2048 1684 2016 1662Q1984 1640 1985 1624Q1986 1608 1992 1580Q1998 1552 2002 1488L2002 1488Z"/>
  </svg>