<svg xmlns="http://www.w3.org/2000/svg" viewBox="0 0 3000 3000" width="3000" height="3000">
    <path fill="#000000" d="M730 886L730 828L2178 828L2178 886L730 886ZM2156 840L2156 828L2216 828Q2216 828 2216 835Q2216 842 2216 851Q2216 860 2216 868L2216 868Q2202 1140 2187 1303Q2172 1466 2153 1548Q2134 1630 2106 1660L2106 1660Q2086 1682 2059 1691Q2032 1700 1992 1702L1992 1702Q1954 1702 1877 1700Q1800 1698 1718 1692L1718 1692Q1716 1678 1712 1662Q1708 1646 1698 1632L1698 1632Q1792 1640 1872 1642Q1952 1644 1980 1644L1980 1644Q2036 1646 2056 1624L2056 1624Q2080 1600 2098 1519Q2116 1438 2130 1274Q2144 1110 2156 840L2156 840ZM1492 846L1492 846L1554 846Q1528 1000 1475 1135Q1422 1270 1329 1382Q1236 1494 1085 1577Q934 1660 708 1712L708 1712Q704 1702 694 1686Q684 1670 676 1662L676 1662Q852 1624 981 1565Q1110 1506 1200 1429Q1290 1352 1347 1260Q1404 1168 1438 1064Q1472 960 1492 846ZM1052 2350L1052 1866L1110 1866L1110 2350Q1110 2392 1141 2407Q1172 2422 1278 2422L1278 2422Q1298 2422 1351 2422Q1404 2422 1474 2422Q1544 2422 1615 2422Q1686 2422 1744 2422Q1802 2422 1830 2422L1830 2422Q1888 2422 1916 2405Q1944 2388 1956 2335Q1968 2282 1972 2174L1972 2174Q1982 2180 1992 2185Q2002 2190 2013 2194Q2024 2198 2032 2200L2032 2200Q2026 2312 2010 2374Q1994 2436 1953 2459Q1912 2482 1830 2482L1830 2482Q1818 2482 1763 2482Q1708 2482 1633 2482Q1558 2482 1483 2482Q1408 2482 1353 2482Q1298 2482 1286 2482L1286 2482Q1196 2482 1145 2472Q1094 2462 1073 2434Q1052 2406 1052 2350L1052 2350ZM1284 1768L1284 1768L1334 1738Q1402 1796 1468 1866Q1534 1936 1589 2005Q1644 2074 1674 2132L1674 2132L1624 2166Q1594 2108 1539 2038Q1484 1968 1418 1897Q1352 1826 1284 1768ZM2034 1866L2034 1866L2090 1848Q2144 1930 2196 2025Q2248 2120 2287 2210Q2326 2300 2344 2370L2344 2370L2284 2394Q2266 2324 2227 2232Q2188 2140 2138 2044Q2088 1948 2034 1866ZM856 1912L856 1912L904 1928Q882 2002 849 2092Q816 2182 776 2268Q736 2354 688 2418L688 2418L638 2394Q688 2330 729 2245Q770 2160 802 2072Q834 1984 856 1912ZM794 1104L794 1104L814 1054Q904 1090 1003 1134Q1102 1178 1192 1220Q1282 1262 1340 1296L1340 1296L1324 1356Q1262 1322 1172 1277Q1082 1232 983 1186Q884 1140 794 1104Z"/>
  </svg>