<svg xmlns="http://www.w3.org/2000/svg" viewBox="0 0 3000 3000" width="3000" height="3000">
    <path fill="#000000" d="M371.62 1108.58L371.62 1071.60L1294.72 1071.60L1294.72 1108.58L371.62 1108.58ZM1280.70 1079.25L1280.70 1071.60L1318.95 1071.60Q1318.95 1071.60 1318.95 1076.06Q1318.95 1080.53 1318.95 1086.26Q1318.95 1092 1318.95 1097.10L1318.95 1097.10Q1310.02 1270.50 1300.46 1374.41Q1290.90 1478.33 1278.79 1530.60Q1266.67 1582.88 1248.82 1602L1248.82 1602Q1236.07 1616.03 1218.86 1621.76Q1201.65 1627.50 1176.15 1628.78L1176.15 1628.78Q1151.92 1628.78 1102.84 1627.50Q1053.75 1626.22 1001.47 1622.40L1001.47 1622.40Q1000.20 1613.47 997.65 1603.28Q995.10 1593.08 988.72 1584.15L988.72 1584.15Q1048.65 1589.25 1099.65 1590.53Q1150.65 1591.80 1168.50 1591.80L1168.50 1591.80Q1204.20 1593.08 1216.95 1579.05L1216.95 1579.05Q1232.25 1563.75 1243.72 1512.11Q1255.20 1460.47 1264.12 1355.93Q1273.05 1251.38 1280.70 1079.25L1280.70 1079.25ZM857.40 1083.08L857.40 1083.08L896.92 1083.08Q880.35 1181.25 846.56 1267.31Q812.77 1353.38 753.49 1424.78Q694.20 1496.18 597.94 1549.09Q501.67 1602 357.60 1635.15L357.60 1635.15Q355.05 1628.78 348.67 1618.58Q342.30 1608.38 337.20 1603.28L337.20 1603.28Q449.40 1579.05 531.64 1541.44Q613.87 1503.83 671.25 1454.74Q728.62 1405.65 764.96 1347Q801.30 1288.35 822.97 1222.05Q844.65 1155.75 857.40 1083.08ZM576.90 2041.88L576.90 1733.33L613.87 1733.33L613.87 2041.88Q613.87 2068.65 633.64 2078.21Q653.40 2087.78 720.97 2087.78L720.97 2087.78Q733.72 2087.78 767.51 2087.78Q801.30 2087.78 845.92 2087.78Q890.55 2087.78 935.81 2087.78Q981.07 2087.78 1018.05 2087.78Q1055.02 2087.78 1072.88 2087.78L1072.88 2087.78Q1109.85 2087.78 1127.70 2076.94Q1145.55 2066.10 1153.20 2032.31Q1160.85 1998.53 1163.40 1929.68L1163.40 1929.68Q1169.77 1933.50 1176.15 1936.69Q1182.52 1939.88 1189.54 1942.43Q1196.55 1944.98 1201.65 1946.25L1201.65 1946.25Q1197.82 2017.65 1187.63 2057.18Q1177.42 2096.70 1151.29 2111.36Q1125.15 2126.03 1072.88 2126.03L1072.88 2126.03Q1065.22 2126.03 1030.16 2126.03Q995.10 2126.03 947.29 2126.03Q899.47 2126.03 851.66 2126.03Q803.85 2126.03 768.79 2126.03Q733.72 2126.03 726.07 2126.03L726.07 2126.03Q668.70 2126.03 636.19 2119.65Q603.67 2113.28 590.29 2095.43Q576.90 2077.58 576.90 2041.88L576.90 2041.88ZM724.80 1670.85L724.80 1670.85L756.67 1651.72Q800.02 1688.70 842.10 1733.33Q884.17 1777.95 919.24 1821.94Q954.30 1865.93 973.42 1902.90L973.42 1902.90L941.55 1924.58Q922.42 1887.60 887.36 1842.98Q852.30 1798.35 810.22 1753.09Q768.15 1707.83 724.80 1670.85ZM1202.92 1733.33L1202.92 1733.33L1238.63 1721.85Q1273.05 1774.13 1306.20 1834.69Q1339.35 1895.25 1364.21 1952.63Q1389.07 2010 1400.55 2054.63L1400.55 2054.63L1362.30 2069.93Q1350.82 2025.30 1325.96 1966.65Q1301.10 1908 1269.22 1846.80Q1237.35 1785.60 1202.92 1733.33ZM451.95 1762.65L451.95 1762.65L482.55 1772.85Q468.52 1820.03 447.49 1877.40Q426.45 1934.78 400.95 1989.60Q375.45 2044.43 344.85 2085.22L344.85 2085.22L312.97 2069.93Q344.85 2029.13 370.99 1974.94Q397.12 1920.75 417.52 1864.65Q437.92 1808.55 451.95 1762.65ZM412.42 1247.55L412.42 1247.55L425.17 1215.67Q482.55 1238.63 545.66 1266.67Q608.77 1294.72 666.15 1321.50Q723.52 1348.28 760.50 1369.95L760.50 1369.95L750.30 1408.20Q710.77 1386.53 653.40 1357.84Q596.02 1329.15 532.91 1299.83Q469.80 1270.50 412.42 1247.55ZM2216.55 1349.55L2216.55 1312.58L2717.63 1312.58L2717.63 1349.55L2216.55 1349.55ZM1573.95 1116.22L1573.95 1077.97L2210.18 1077.97L2210.18 1116.22L1573.95 1116.22ZM2541.68 2083.95L2541.68 1004.03L2578.65 1004.03L2578.65 2082.68Q2578.65 2110.72 2569.09 2122.84Q2559.53 2134.95 2541.68 2140.05L2541.68 2140.05Q2522.55 2145.15 2484.94 2146.43Q2447.32 2147.70 2379.75 2146.43L2379.75 2146.43Q2378.48 2140.05 2374.01 2129.21Q2369.55 2118.38 2364.45 2110.72L2364.45 2110.72Q2419.28 2112 2460.71 2112Q2502.15 2112 2514.90 2110.72L2514.90 2110.72Q2528.93 2109.45 2535.30 2104.35Q2541.68 2099.25 2541.68 2083.95L2541.68 2083.95ZM2252.25 1507.65L2252.25 1507.65L2286.68 1493.63Q2319.82 1536.97 2349.79 1588.61Q2379.75 1640.25 2402.70 1689.34Q2425.65 1738.43 2435.85 1775.40L2435.85 1775.40L2400.15 1791.98Q2389.95 1753.73 2367 1704Q2344.05 1654.28 2314.09 1602.64Q2284.13 1551 2252.25 1507.65ZM1618.58 2143.88L1618.58 1343.18L2136.22 1343.18L2136.22 1381.43L1656.83 1381.43L1656.83 2143.88L1618.58 2143.88ZM2118.38 2089.05L2118.38 1343.18L2156.63 1343.18L2156.63 2087.78Q2156.63 2106.90 2151.53 2117.10Q2146.43 2127.30 2132.40 2132.40L2132.40 2132.40Q2118.38 2137.50 2094.79 2138.14Q2071.20 2138.78 2034.22 2138.78L2034.22 2138.78Q2032.95 2132.40 2027.85 2122.20Q2022.75 2112 2018.93 2103.08L2018.93 2103.08Q2049.53 2104.35 2073.11 2104.35Q2096.70 2104.35 2104.35 2104.35L2104.35 2104.35Q2118.38 2103.08 2118.38 2089.05L2118.38 2089.05ZM1794.53 2086.50L1794.53 1355.93L1831.50 1355.93L1831.50 2086.50L1794.53 2086.50ZM1960.28 2086.50L1960.28 1355.93L1997.25 1355.93L1997.25 2086.50L1960.28 2086.50ZM1871.03 1086.90L1871.03 1086.90L1913.10 1098.38Q1901.63 1143 1887.60 1193.36Q1873.58 1243.72 1859.55 1291.54Q1845.53 1339.35 1832.78 1376.33L1832.78 1376.33L1797.08 1366.13Q1811.10 1329.15 1825.13 1279.42Q1839.15 1229.70 1851.90 1178.70Q1864.65 1127.70 1871.03 1086.90Z"/>
  </svg>