<svg xmlns="http://www.w3.org/2000/svg" viewBox="0 0 3000 3000" width="3000" height="3000">
    <path fill="#000000" d="M1243.72 2013.19L1243.72 2013.19Q1243.72 1992.79 1223.32 1963.46L1223.32 1963.46Q1196.55 1925.21 1170.41 1882.50Q1144.27 1839.79 1125.15 1801.54L1125.15 1801.54Q1107.30 1763.29 1086.90 1763.29Q1066.50 1763.29 1066.50 1791.34L1066.50 1791.34Q1066.50 1795.16 1069.69 1811.10Q1072.88 1827.04 1083.71 1865.93Q1094.55 1904.81 1116.22 1972.39L1116.22 1972.39Q1116.22 1973.66 1117.50 1974.94L1117.50 1974.94L1117.50 1976.21L1113.67 1977.49Q1063.95 1981.31 1012.95 1981.31L1012.95 1981.31Q882.90 1981.31 812.14 1949.44Q741.37 1917.56 708.86 1855.09Q676.35 1792.61 659.77 1699.54L659.77 1699.54Q654.67 1665.11 622.80 1665.11L622.80 1665.11Q585.82 1665.11 576.26 1679.14Q566.70 1693.16 566.70 1702.09L566.70 1702.09Q566.70 1704.64 566.70 1709.10Q566.70 1713.56 567.97 1717.39L567.97 1717.39Q585.82 1828.31 624.71 1899.71Q663.60 1971.11 724.80 2010.64Q786.00 2050.16 865.69 2064.83Q945.37 2079.49 1043.55 2079.49L1043.55 2079.49Q1131.52 2079.49 1187.63 2066.10Q1243.72 2052.71 1243.72 2013.19ZM402.22 1999.16L402.22 1999.16Q429.00 1951.99 451.31 1900.99Q473.62 1849.99 488.29 1806.64Q502.95 1763.29 511.24 1733.33Q519.52 1703.36 519.52 1696.99L519.52 1696.99Q519.52 1677.86 505.50 1670.21Q491.47 1662.56 477.45 1660.65Q463.42 1658.74 460.87 1658.74L460.87 1658.74Q435.37 1658.74 429.00 1686.79L429.00 1686.79Q408.60 1762.01 382.46 1822.58Q356.32 1883.14 316.80 1945.61L316.80 1945.61Q306.60 1962.19 306.60 1973.66L306.60 1973.66Q306.60 1988.96 320.62 2000.44Q334.65 2011.91 349.95 2018.29Q365.25 2024.66 370.35 2024.66L370.35 2024.66Q389.47 2024.66 402.22 1999.16ZM1441.35 1847.44L1441.35 1847.44Q1441.35 1835.96 1419.04 1809.83Q1396.72 1783.69 1364.21 1752.45Q1331.70 1721.21 1297.91 1691.25Q1264.12 1661.29 1237.35 1640.89Q1210.57 1620.49 1201.65 1620.49L1201.65 1620.49Q1188.90 1620.49 1168.50 1640.89L1168.50 1640.89Q1154.47 1656.19 1154.47 1668.94L1154.47 1668.94Q1154.47 1684.24 1173.60 1700.81L1173.60 1700.81Q1222.05 1742.89 1266.67 1788.79Q1311.30 1834.69 1350.82 1884.41L1350.82 1884.41Q1369.95 1906.09 1382.70 1906.09Q1395.45 1906.09 1408.20 1895.25Q1420.95 1884.41 1431.15 1870.39Q1441.35 1856.36 1441.35 1847.44ZM982.35 1793.89L982.35 1793.89Q1000.20 1776.04 1000.20 1760.74L1000.20 1760.74Q1000.20 1749.26 981.71 1727.59Q963.22 1705.91 936.45 1680.41Q909.67 1654.91 881.62 1630.05Q853.57 1605.19 830.62 1589.25Q807.67 1573.31 797.47 1573.31L797.47 1573.31Q780.90 1573.31 766.24 1591.16Q751.57 1609.01 751.57 1620.49L751.57 1620.49Q751.57 1635.79 770.70 1651.09L770.70 1651.09Q805.12 1680.41 842.10 1716.75Q879.07 1753.09 913.50 1796.44L913.50 1796.44Q931.35 1815.56 946.65 1815.56L946.65 1815.56Q964.50 1815.56 982.35 1793.89ZM519.52 1422.86L519.52 1422.86Q533.55 1422.86 557.77 1402.46Q582.00 1382.06 610.05 1352.74Q638.10 1323.41 662.96 1293.45Q687.82 1263.49 704.40 1239.26Q720.97 1215.04 720.97 1206.11L720.97 1206.11Q720.97 1192.09 701.85 1176.79Q682.72 1161.49 668.70 1161.49L668.70 1161.49Q657.22 1161.49 644.47 1176.79L644.47 1176.79Q612.60 1220.14 575.62 1259.66Q538.65 1299.19 490.20 1334.89L490.20 1334.89Q472.35 1348.91 472.35 1364.85Q472.35 1380.79 487.65 1401.83Q502.95 1422.86 519.52 1422.86ZM983.62 1110.49L983.62 1110.49L1160.85 1099.01Q1153.20 1206.11 1130.89 1318.95Q1108.57 1431.79 1075.42 1532.51L1075.42 1532.51Q1075.42 1533.79 1070.32 1533.79L1070.32 1533.79Q1063.95 1533.79 1042.91 1523.59Q1021.87 1513.39 995.10 1499.36Q968.32 1485.34 947.29 1473.22Q926.25 1461.11 922.42 1458.56L922.42 1458.56Q891.82 1440.71 873.97 1440.71L873.97 1440.71Q857.40 1440.71 857.40 1454.74Q857.40 1468.76 886.72 1498.09L886.72 1498.09Q951.75 1560.56 986.17 1591.80Q1020.60 1623.04 1040.36 1633.24Q1060.13 1643.44 1079.25 1643.44L1079.25 1643.44Q1118.77 1643.44 1141.72 1612.20Q1164.67 1580.96 1178.06 1541.44Q1191.45 1501.91 1197.82 1472.59L1197.82 1472.59Q1216.95 1393.54 1232.89 1305.56Q1248.82 1217.59 1259.02 1106.66L1259.02 1106.66Q1260.30 1097.74 1266.67 1087.54Q1273.05 1077.34 1273.05 1063.31L1273.05 1063.31Q1273.05 1041.64 1250.74 1026.34Q1228.42 1011.04 1200.38 1011.04L1200.38 1011.04L1185.07 1011.04L515.70 1050.56L499.12 1050.56Q485.10 1050.56 471.71 1049.29Q458.32 1048.01 445.57 1044.19L445.57 1044.19Q441.75 1042.91 436.65 1042.91L436.65 1042.91Q422.62 1042.91 422.62 1058.21L422.62 1058.21Q422.62 1063.31 429.64 1081.80Q436.65 1100.29 455.14 1118.14Q473.62 1135.99 506.77 1135.99L506.77 1135.99Q513.15 1135.99 522.07 1135.99Q531.00 1135.99 541.20 1134.71L541.20 1134.71L879.07 1114.31Q843.37 1232.89 772.61 1320.22Q701.85 1407.56 611.96 1466.85Q522.07 1526.14 425.17 1573.31L425.17 1573.31Q380.55 1593.71 380.55 1612.84L380.55 1612.84Q380.55 1629.41 404.77 1629.41L404.77 1629.41Q421.35 1629.41 446.85 1621.76L446.85 1621.76Q589.65 1574.59 694.20 1507.01Q798.75 1439.44 870.79 1341.26Q942.82 1243.09 983.62 1110.49ZM2461.35 1676.59L2461.35 1676.59Q2461.35 1663.84 2452.43 1649.81L2452.43 1649.81Q2424.38 1600.09 2389.31 1546.54Q2354.25 1492.99 2321.10 1452.19L2321.10 1452.19Q2310.90 1439.44 2295.60 1439.44L2295.60 1439.44Q2275.20 1439.44 2257.99 1455.38Q2240.78 1471.31 2240.78 1481.51Q2240.78 1491.71 2247.15 1500.64L2247.15 1500.64Q2284.13 1551.64 2312.18 1600.09Q2340.23 1648.54 2368.28 1705.91L2368.28 1705.91Q2377.20 1730.14 2398.88 1730.14L2398.88 1730.14Q2403.98 1730.14 2418.64 1724.40Q2433.30 1718.66 2447.32 1706.55Q2461.35 1694.44 2461.35 1676.59ZM2183.40 1963.46L2183.40 1963.46L2183.40 1929.04L2187.22 1443.26Q2187.22 1435.61 2192.32 1426.05Q2197.43 1416.49 2197.43 1405.01L2197.43 1405.01Q2197.43 1388.44 2178.94 1368.68Q2160.45 1348.91 2126.03 1348.91L2126.03 1348.91L2114.55 1348.91L1848.08 1365.49Q1862.10 1343.81 1883.14 1303.65Q1904.18 1263.49 1917.56 1232.25Q1930.95 1201.01 1930.95 1197.19L1930.95 1197.19Q1930.95 1183.16 1919.47 1175.51L1919.47 1175.51L2161.72 1160.21Q2196.15 1156.39 2196.15 1137.26L2196.15 1137.26Q2196.15 1119.41 2173.20 1096.46Q2150.25 1073.51 2129.85 1073.51L2129.85 1073.51Q2122.20 1073.51 2118.38 1074.79L2118.38 1074.79Q2110.72 1077.34 2098.61 1079.25Q2086.50 1081.16 2075.03 1082.44L2075.03 1082.44L1675.95 1107.94L1667.03 1107.94Q1638.97 1107.94 1613.47 1101.56L1613.47 1101.56L1607.10 1101.56Q1590.53 1101.56 1590.53 1115.59L1590.53 1115.59Q1590.53 1120.69 1591.80 1124.51L1591.80 1124.51Q1602 1150.01 1617.30 1166.59L1617.30 1166.59Q1627.50 1189.54 1674.67 1189.54L1674.67 1189.54Q1681.05 1189.54 1688.70 1189.54Q1696.35 1189.54 1706.55 1188.26L1706.55 1188.26L1828.95 1180.61L1828.95 1183.16Q1830.22 1186.99 1830.22 1190.81L1830.22 1190.81Q1830.22 1203.56 1818.75 1235.44Q1807.28 1267.31 1790.06 1304.29Q1772.85 1341.26 1755 1371.86L1755 1371.86L1691.25 1375.69Q1624.95 1345.09 1605.83 1345.09L1605.83 1345.09Q1590.53 1345.09 1590.53 1359.11L1590.53 1359.11Q1590.53 1365.49 1594.35 1373.14Q1598.17 1380.79 1603.28 1390.99Q1608.38 1401.19 1612.84 1420.31Q1617.30 1439.44 1617.30 1454.74L1617.30 1454.74L1621.13 1912.46Q1621.13 1954.54 1613.47 1988.96L1613.47 1988.96Q1613.47 1990.24 1612.84 1992.79Q1612.20 1995.34 1612.20 1999.16L1612.20 1999.16Q1612.20 2010.64 1620.49 2023.39Q1628.78 2036.14 1650.45 2046.34L1650.45 2046.34Q1670.85 2055.26 1681.05 2055.26L1681.05 2055.26Q1707.83 2055.26 1707.83 2027.21L1707.83 2027.21L1700.17 1454.74L1774.13 1449.64L1775.40 1867.84Q1775.40 1885.69 1774.13 1904.18Q1772.85 1922.66 1769.03 1940.51L1769.03 1940.51Q1767.75 1944.34 1767.75 1951.99L1767.75 1951.99Q1767.75 1969.84 1781.14 1980.68Q1794.53 1991.51 1810.46 1996.61Q1826.40 2001.71 1834.05 2001.71L1834.05 2001.71Q1862.10 2001.71 1862.10 1969.84L1862.10 1969.84L1855.72 1445.81L1928.40 1440.71L1924.58 1861.46Q1924.58 1879.31 1922.03 1899.08Q1919.47 1918.84 1915.65 1939.24L1915.65 1939.24Q1915.65 1940.51 1915.01 1942.43Q1914.38 1944.34 1914.38 1948.16L1914.38 1948.16Q1914.38 1967.29 1930.31 1978.13Q1946.25 1988.96 1962.19 1994.06Q1978.13 1999.16 1981.95 1999.16L1981.95 1999.16Q2007.45 1999.16 2007.45 1964.74L2007.45 1964.74L2007.45 1935.41Q2010 1941.79 2015.10 1949.44L2015.10 1949.44Q2026.58 1968.56 2043.79 1990.88Q2061 2013.19 2080.76 2031.04Q2100.53 2048.89 2117.10 2048.89Q2133.68 2048.89 2158.54 2031.68Q2183.40 2014.46 2183.40 1963.46ZM2266.28 1378.24L2486.85 1365.49L2490.68 1994.06Q2461.35 1983.86 2418.64 1965.38Q2375.93 1946.89 2331.30 1923.94L2331.30 1923.94Q2305.80 1911.19 2291.78 1911.19L2291.78 1911.19Q2273.93 1911.19 2273.93 1926.49L2273.93 1926.49Q2273.93 1939.24 2294.96 1962.19Q2316 1985.14 2347.24 2011.28Q2378.48 2037.41 2412.90 2060.36Q2447.32 2083.31 2477.29 2099.25Q2507.25 2115.19 2522.55 2115.19Q2537.85 2115.19 2563.35 2098.61Q2588.85 2082.04 2588.85 2042.51L2588.85 2042.51Q2588.85 2032.31 2587.57 2021.48Q2586.30 2010.64 2586.30 1997.89L2586.30 1997.89L2582.48 1360.39L2726.55 1352.74Q2740.57 1351.46 2752.69 1347Q2764.80 1342.54 2764.80 1328.51L2764.80 1328.51Q2764.80 1319.59 2752.69 1303.65Q2740.57 1287.71 2723.36 1273.69Q2706.15 1259.66 2687.03 1259.66L2687.03 1259.66Q2679.38 1259.66 2674.28 1262.21L2674.28 1262.21Q2656.43 1269.86 2624.55 1272.41L2624.55 1272.41L2581.20 1274.96L2579.93 1016.14Q2579.93 999.56 2571 990Q2562.07 980.44 2534.03 970.24L2534.03 970.24Q2498.33 958.76 2480.48 958.76L2480.48 958.76Q2458.80 958.76 2458.80 974.06L2458.80 974.06Q2458.80 982.99 2466.45 993.19L2466.45 993.19Q2484.30 1014.86 2484.30 1045.46L2484.30 1045.46L2485.58 1278.79L2239.50 1292.81L2229.30 1292.81Q2203.80 1292.81 2179.57 1285.16L2179.57 1285.16Q2175.75 1283.89 2170.65 1283.89L2170.65 1283.89Q2157.90 1283.89 2157.90 1297.91L2157.90 1297.91Q2157.90 1313.21 2166.82 1327.88Q2175.75 1342.54 2184.68 1352.10Q2193.60 1361.66 2194.88 1362.94L2194.88 1362.94Q2203.80 1373.14 2219.74 1375.69Q2235.68 1378.24 2253.53 1378.24L2253.53 1378.24L2266.28 1378.24ZM2007.45 1911.19L2007.45 1911.19L2010 1438.16L2101.80 1431.79L2096.70 1945.61Q2091.60 1943.06 2075.03 1933.50Q2058.45 1923.94 2041.88 1915.01L2041.88 1915.01Q2026.58 1907.36 2020.20 1907.36L2020.20 1907.36Q2011.28 1907.36 2007.45 1911.19Z"/>
  </svg>