<svg xmlns="http://www.w3.org/2000/svg" viewBox="0 0 3000 3000" width="3000" height="3000">
    <path fill="#000000" d="M2098 2305L2098 2305Q2098 2273 2066 2227L2066 2227Q2024 2167 1983 2100Q1942 2033 1912 1973L1912 1973Q1884 1913 1852 1913Q1820 1913 1820 1957L1820 1957Q1820 1963 1825 1988Q1830 2013 1847 2074Q1864 2135 1898 2241L1898 2241Q1898 2243 1900 2245L1900 2245L1900 2247L1894 2249Q1816 2255 1736 2255L1736 2255Q1532 2255 1421 2205Q1310 2155 1259 2057Q1208 1959 1182 1813L1182 1813Q1174 1759 1124 1759L1124 1759Q1066 1759 1051 1781Q1036 1803 1036 1817L1036 1817Q1036 1821 1036 1828Q1036 1835 1038 1841L1038 1841Q1066 2015 1127 2127Q1188 2239 1284 2301Q1380 2363 1505 2386Q1630 2409 1784 2409L1784 2409Q1922 2409 2010 2388Q2098 2367 2098 2305ZM778 2283L778 2283Q820 2209 855 2129Q890 2049 913 1981Q936 1913 949 1866Q962 1819 962 1809L962 1809Q962 1779 940 1767Q918 1755 896 1752Q874 1749 870 1749L870 1749Q830 1749 820 1793L820 1793Q788 1911 747 2006Q706 2101 644 2199L644 2199Q628 2225 628 2243L628 2243Q628 2267 650 2285Q672 2303 696 2313Q720 2323 728 2323L728 2323Q758 2323 778 2283ZM2408 2045L2408 2045Q2408 2027 2373 1986Q2338 1945 2287 1896Q2236 1847 2183 1800Q2130 1753 2088 1721Q2046 1689 2032 1689L2032 1689Q2012 1689 1980 1721L1980 1721Q1958 1745 1958 1765L1958 1765Q1958 1789 1988 1815L1988 1815Q2064 1881 2134 1953Q2204 2025 2266 2103L2266 2103Q2296 2137 2316 2137Q2336 2137 2356 2120Q2376 2103 2392 2081Q2408 2059 2408 2045ZM1688 1961L1688 1961Q1716 1933 1716 1909L1716 1909Q1716 1891 1687 1857Q1658 1823 1616 1783Q1574 1743 1530 1704Q1486 1665 1450 1640Q1414 1615 1398 1615L1398 1615Q1372 1615 1349 1643Q1326 1671 1326 1689L1326 1689Q1326 1713 1356 1737L1356 1737Q1410 1783 1468 1840Q1526 1897 1580 1965L1580 1965Q1608 1995 1632 1995L1632 1995Q1660 1995 1688 1961ZM962 1379L962 1379Q984 1379 1022 1347Q1060 1315 1104 1269Q1148 1223 1187 1176Q1226 1129 1252 1091Q1278 1053 1278 1039L1278 1039Q1278 1017 1248 993Q1218 969 1196 969L1196 969Q1178 969 1158 993L1158 993Q1108 1061 1050 1123Q992 1185 916 1241L916 1241Q888 1263 888 1288Q888 1313 912 1346Q936 1379 962 1379ZM1690 889L1690 889L1968 871Q1956 1039 1921 1216Q1886 1393 1834 1551L1834 1551Q1834 1553 1826 1553L1826 1553Q1816 1553 1783 1537Q1750 1521 1708 1499Q1666 1477 1633 1458Q1600 1439 1594 1435L1594 1435Q1546 1407 1518 1407L1518 1407Q1492 1407 1492 1429Q1492 1451 1538 1497L1538 1497Q1640 1595 1694 1644Q1748 1693 1779 1709Q1810 1725 1840 1725L1840 1725Q1902 1725 1938 1676Q1974 1627 1995 1565Q2016 1503 2026 1457L2026 1457Q2056 1333 2081 1195Q2106 1057 2122 883L2122 883Q2124 869 2134 853Q2144 837 2144 815L2144 815Q2144 781 2109 757Q2074 733 2030 733L2030 733L2006 733L956 795L930 795Q908 795 887 793Q866 791 846 785L846 785Q840 783 832 783L832 783Q810 783 810 807L810 807Q810 815 821 844Q832 873 861 901Q890 929 942 929L942 929Q952 929 966 929Q980 929 996 927L996 927L1526 895Q1470 1081 1359 1218Q1248 1355 1107 1448Q966 1541 814 1615L814 1615Q744 1647 744 1677L744 1677Q744 1703 782 1703L782 1703Q808 1703 848 1691L848 1691Q1072 1617 1236 1511Q1400 1405 1513 1251Q1626 1097 1690 889Z"/>
  </svg>