<svg xmlns="http://www.w3.org/2000/svg" viewBox="0 0 3000 3000" width="3000" height="3000">
    <path fill="#000000" d="M984.90 1706.55L984.90 1706.55Q984.90 1693.80 1051.20 1757.55L1051.20 1757.55Q1150.65 1855.72 1160.85 1855.72L1160.85 1855.72Q1164.67 1855.72 1176.79 1865.92Q1188.90 1876.13 1195.27 1876.13Q1201.65 1876.13 1201.65 1881.86Q1201.65 1887.60 1209.94 1887.60Q1218.22 1887.60 1239.90 1913.74Q1261.57 1939.88 1266.67 1951.35L1266.67 1951.35Q1270.50 1973.03 1239.90 2016.38L1239.90 2016.38Q1230.97 2027.85 1199.74 2048.25Q1168.50 2068.65 1143 2080.13L1143 2080.13Q1118.77 2091.60 1052.47 2090.32L1052.47 2090.32Q953.02 2089.05 880.35 2063.55L880.35 2063.55Q867.60 2059.72 842.74 2045.06Q817.87 2030.40 811.50 2022.75L811.50 2022.75Q808.95 2020.20 787.27 2003.63L787.27 2003.63Q749.02 1975.58 711.41 1932.22Q673.80 1888.88 658.50 1855.72L658.50 1855.72Q636.82 1808.55 633.64 1791.97Q630.45 1775.40 639.37 1770.30L639.37 1770.30Q644.47 1766.47 647.02 1772.85Q649.57 1779.22 657.22 1779.22Q664.87 1779.22 664.87 1784.33Q664.87 1789.42 669.97 1789.42Q675.07 1789.42 720.97 1823.85L720.97 1823.85Q817.87 1897.80 871.42 1920.11Q924.97 1942.42 1007.85 1942.42L1007.85 1942.42Q1104.75 1942.42 1104.75 1916.92L1104.75 1916.92Q1104.75 1904.17 1099.65 1901.63L1099.65 1901.63Q1089.45 1895.25 1070.32 1844.25L1070.32 1844.25Q1063.95 1828.95 1037.17 1794.53L1037.17 1794.53Q1023.15 1775.40 1023.15 1772.21Q1023.15 1769.03 1004.02 1739.70Q984.90 1710.38 984.90 1706.55ZM494.02 1751.17L494.02 1751.17Q500.40 1751.17 503.59 1762.65Q506.77 1774.13 512.51 1774.13Q518.25 1774.13 557.14 1732.69Q596.02 1691.25 598.57 1691.25Q601.12 1691.25 592.20 1704Q583.27 1716.75 583.27 1732.69Q583.27 1748.63 561.60 1781.78L561.60 1781.78Q537.37 1817.47 530.36 1836.60Q523.35 1855.72 519.52 1886.33L519.52 1886.33Q516.97 1923.30 509.96 1933.50Q502.95 1943.70 502.95 1957.72L502.95 1957.72Q502.95 1971.75 490.20 1986.41Q477.45 2001.08 465.97 2002.35L465.97 2002.35Q455.77 2003.63 434.10 1999.80L434.10 1999.80Q417.52 1995.97 413.06 1991.51Q408.60 1987.05 404.77 1966.65L404.77 1966.65Q379.27 1855.72 407.32 1855.72L407.32 1855.72Q414.97 1855.72 416.25 1848.08L416.25 1848.08Q421.35 1835.33 454.50 1793.25Q487.65 1751.17 494.02 1751.17ZM1035.90 1599.45L1035.90 1599.45Q1055.02 1593.07 1055.02 1599.45L1055.02 1599.45Q1055.02 1604.55 1049.92 1604.55Q1044.82 1604.55 1041 1614.75L1041 1614.75Q1035.90 1628.78 987.45 1681.05L987.45 1681.05Q975.97 1693.80 955.57 1735.88Q935.17 1777.95 924.97 1788.15L924.97 1788.15Q916.05 1798.35 892.46 1802.81Q868.87 1807.28 854.85 1803.45L854.85 1803.45Q842.10 1799.63 801.94 1760.10Q761.77 1720.58 761.77 1712.92L761.77 1712.92Q761.77 1706.55 754.76 1698.26Q747.75 1689.97 746.47 1673.40L746.47 1673.40Q743.92 1663.20 747.11 1658.74Q750.30 1654.28 766.87 1650.45L766.87 1650.45Q811.50 1635.15 868.87 1664.47L868.87 1664.47Q899.47 1681.05 909.67 1681.05L909.67 1681.05Q939.00 1681.05 991.27 1633.88L991.27 1633.88Q1024.42 1602 1035.90 1599.45ZM1148.10 1576.50L1148.10 1576.50Q1194 1571.40 1237.35 1587.97L1237.35 1587.97Q1262.85 1598.17 1289.62 1619.21Q1316.40 1640.25 1316.40 1651.72L1316.40 1651.72Q1316.40 1658.10 1323.41 1663.84Q1330.42 1669.58 1332.97 1719.30L1332.97 1719.30Q1332.97 1755 1331.06 1762.01Q1329.15 1769.03 1317.67 1775.40L1317.67 1775.40Q1303.65 1784.33 1278.15 1786.88L1278.15 1786.88Q1260.30 1789.42 1254.56 1787.51Q1248.82 1785.60 1238.63 1775.40L1238.63 1775.40Q1225.88 1757.55 1213.13 1732.05Q1200.38 1706.55 1181.25 1681.05L1181.25 1681.05Q1149.38 1641.53 1137.90 1617.30L1137.90 1617.30Q1131.52 1604.55 1125.79 1604.55Q1120.05 1604.55 1122.60 1593.07L1122.60 1593.07Q1122.60 1585.42 1127.70 1582.88Q1132.80 1580.32 1148.10 1576.50ZM583.27 1261.57L583.27 1261.57Q599.85 1242.45 599.85 1236.71Q599.85 1230.97 605.59 1230.97Q611.32 1230.97 625.99 1197.82Q640.65 1164.67 641.92 1164.67L641.92 1164.67Q645.75 1164.67 662.96 1174.88Q680.17 1185.07 682.72 1191.45L682.72 1191.45Q687.82 1199.10 700.57 1187.63L700.57 1187.63Q712.05 1174.88 712.05 1179.97L712.05 1179.97Q713.32 1183.80 698.02 1216.95L698.02 1216.95Q682.72 1250.10 668.70 1289.63L668.70 1289.63Q643.20 1359.75 630.45 1371.22L630.45 1371.22Q624.07 1376.32 603.67 1373.78L603.67 1373.78Q585.82 1369.95 579.45 1357.20Q573.07 1344.45 567.97 1308.75L567.97 1308.75Q566.70 1289.63 569.25 1281.34Q571.80 1273.05 583.27 1261.57ZM1006.57 977.25L1006.57 977.25Q1010.40 974.70 1032.71 979.16Q1055.02 983.62 1070.32 988.72L1070.32 988.72Q1095.82 1002.75 1111.76 1042.91Q1127.70 1083.07 1114.95 1112.40L1114.95 1112.40Q1108.57 1130.25 1104.75 1171.05L1104.75 1171.05Q1093.27 1278.15 1080.52 1326.60L1080.52 1326.60Q1071.60 1354.65 1071.60 1369.95Q1071.60 1385.25 1053.75 1440.07Q1035.90 1494.90 1015.50 1540.80L1015.50 1540.80Q1004.02 1570.13 978.52 1592.44Q953.02 1614.75 933.90 1614.75L933.90 1614.75Q923.70 1614.75 905.85 1617.30Q888.00 1619.85 883.54 1614.11Q879.07 1608.38 872.06 1608.38Q865.05 1608.38 853.57 1586.06Q842.10 1563.75 837.00 1555.46Q831.90 1547.17 829.35 1538.89Q826.80 1530.60 811.50 1521.67Q796.20 1512.75 796.20 1507.65Q796.20 1502.55 787.27 1502.55Q778.35 1502.55 778.35 1495.54Q778.35 1488.52 770.06 1480.24Q761.77 1471.95 759.22 1454.10L759.22 1454.10Q751.57 1418.40 796.20 1442.63L796.20 1442.63Q819.15 1455.38 856.76 1454.10Q894.37 1452.82 904.57 1447.72L904.57 1447.72Q916.05 1442.63 936.45 1395.45Q956.85 1348.28 964.50 1311.30L964.50 1311.30Q996.37 1168.50 997.65 1075.42L997.65 1075.42Q997.65 1061.40 995.74 1057.57Q993.82 1053.75 978.52 1051.20L978.52 1051.20Q963.22 1046.10 922.42 1049.29Q881.62 1052.47 879.07 1057.57Q876.52 1062.67 885.45 1086.90L885.45 1086.90Q899.47 1131.52 881.62 1163.40L881.62 1163.40Q870.15 1188.90 854.85 1236.07L854.85 1236.07Q842.10 1270.50 835.72 1284.53Q829.35 1298.55 820.42 1317.67L820.42 1317.67Q800.02 1368.67 771.97 1409.47L771.97 1409.47Q756.67 1436.25 710.14 1484.06Q663.60 1531.88 645.75 1540.80L645.75 1540.80Q631.72 1547.17 597.30 1575.22L597.30 1575.22Q580.72 1590.53 556.50 1605.19Q532.27 1619.85 514.42 1626.86Q496.57 1633.88 496.57 1628.78L496.57 1628.78Q496.57 1604.55 551.40 1549.72L551.40 1549.72Q583.27 1515.30 624.07 1463.66Q664.87 1412.03 664.87 1404.38L664.87 1404.38Q664.87 1399.28 669.97 1398L669.97 1398Q675.07 1395.45 699.94 1354.01Q724.80 1312.57 733.72 1292.17L733.72 1292.17Q751.57 1250.10 767.51 1196.55Q783.45 1143 791.10 1105.39Q798.75 1067.77 791.10 1067.77L791.10 1067.77Q777.07 1067.77 743.92 1080.52Q710.77 1093.27 705.67 1100.92L705.67 1100.92Q700.57 1109.85 678.26 1103.47Q655.95 1097.10 652.12 1085.63L652.12 1085.63Q649.57 1077.97 665.51 1060.13Q681.45 1042.27 678.90 1038.45L678.90 1038.45Q673.80 1034.63 691.65 1028.25L691.65 1028.25Q710.77 1023.15 742.65 1015.50L742.65 1015.50L826.80 1001.47Q870.15 992.55 937.09 986.17Q1004.02 979.80 1006.57 977.25ZM2196.15 1525.50L2196.15 1525.50Q2217.82 1507.65 2226.11 1504.46Q2234.40 1501.28 2253.53 1510.20L2253.53 1510.20Q2268.82 1515.30 2289.23 1520.40L2289.23 1520.40Q2332.57 1529.32 2338.95 1568.85L2338.95 1568.85Q2345.32 1616.03 2316 1647.90L2316 1647.90Q2307.07 1655.55 2302.61 1656.83Q2298.15 1658.10 2285.40 1654.28L2285.40 1654.28Q2271.38 1650.45 2245.24 1633.24Q2219.10 1616.03 2206.35 1604.55L2206.35 1604.55Q2194.88 1594.35 2183.40 1577.14Q2171.93 1559.92 2171.93 1554.82L2171.93 1554.82Q2171.93 1548.45 2196.15 1525.50ZM2349.15 1061.40L2361.90 1047.38Q2375.93 1033.35 2386.13 1030.16Q2396.32 1026.97 2410.35 1030.80L2410.35 1030.80Q2415.45 1032.07 2423.74 1036.54Q2432.03 1041 2436.49 1044.82Q2440.95 1048.65 2438.40 1051.20L2438.40 1051.20Q2435.85 1053.75 2447.32 1080.52L2447.32 1080.52Q2457.53 1103.47 2458.80 1148.10Q2460.07 1192.72 2454.98 1233.53L2454.98 1233.53Q2448.60 1264.13 2452.43 1269.86Q2456.25 1275.60 2504.70 1269.86Q2553.15 1264.13 2562.07 1257.75L2562.07 1257.75Q2568.45 1251.38 2609.25 1260.94Q2650.05 1270.50 2661.53 1273.05L2661.53 1273.05Q2687.03 1276.88 2704.88 1316.40L2704.88 1316.40Q2711.25 1334.25 2706.15 1352.10L2706.15 1352.10Q2699.78 1366.13 2690.85 1376.32Q2681.93 1386.53 2673 1386.53L2673 1386.53Q2666.63 1386.53 2611.80 1363.57L2611.80 1363.57Q2574.82 1347 2556.34 1343.17Q2537.85 1339.35 2504.70 1335.53L2504.70 1335.53Q2452.43 1332.97 2448.60 1339.35L2448.60 1339.35Q2444.78 1347 2448.60 1603.28L2448.60 1603.28Q2451.15 1721.85 2447.32 1820.03L2447.32 1820.03Q2444.78 1900.35 2438.40 1922.03Q2432.03 1943.70 2407.80 1966.65L2407.80 1966.65Q2392.50 1979.40 2392.50 1986.41Q2392.50 1993.42 2373.38 2015.10L2373.38 2015.10L2351.70 2038.05L2317.28 2035.50Q2285.40 2032.95 2275.20 2025.30Q2265 2017.65 2247.15 1985.78L2247.15 1985.78Q2233.13 1953.90 2205.07 1925.85Q2177.03 1897.80 2177.03 1895.25L2177.03 1895.25Q2177.03 1892.70 2156.63 1874.85Q2136.22 1857 2133.68 1857L2133.68 1857Q2128.57 1857 2128.57 1850.63Q2128.57 1844.25 2118.38 1832.78L2118.38 1832.78L2109.45 1820.03L2090.32 1845.53Q2064.82 1879.95 2020.20 1914.38L2020.20 1914.38Q2002.35 1928.40 2002.35 1908L2002.35 1908Q2002.35 1899.08 1988.96 1888.24Q1975.58 1877.40 1969.20 1859.55Q1962.83 1841.70 1941.15 1830.86Q1919.47 1820.03 1916.29 1809.83Q1913.10 1799.63 1898.44 1797.71Q1883.78 1795.80 1882.50 1783.05Q1881.22 1770.30 1875.49 1748.63Q1869.75 1726.95 1869.75 1585.42L1869.75 1585.42L1869.75 1443.90L1839.15 1443.90Q1817.47 1443.90 1811.74 1445.81Q1806 1447.72 1806 1454.10L1806 1454.10Q1806 1464.30 1811.10 1467.49Q1816.20 1470.67 1816.20 1485.97Q1816.20 1501.28 1811.10 1505.10Q1806 1508.92 1806 1616.66Q1806 1724.40 1798.35 1739.70L1798.35 1739.70Q1793.25 1751.17 1781.14 1757.55Q1769.03 1763.92 1758.83 1760.10L1758.83 1760.10Q1749.90 1757.55 1739.70 1721.21Q1729.50 1684.88 1733.33 1672.13L1733.33 1672.13Q1735.88 1655.55 1733.96 1635.79Q1732.05 1616.03 1729.50 1590.53L1729.50 1590.53Q1725.67 1554.82 1719.94 1515.30Q1714.20 1475.77 1711.65 1475.77L1711.65 1475.77Q1707.83 1475.77 1686.15 1491.71Q1664.47 1507.65 1654.28 1517.85L1654.28 1517.85Q1646.63 1526.78 1644.71 1535.06Q1642.80 1543.35 1645.35 1571.40L1645.35 1571.40Q1647.90 1609.65 1655.55 1636.42Q1663.20 1663.20 1663.20 1686.15Q1663.20 1709.10 1672.76 1740.34Q1682.33 1771.58 1675.95 1788.15L1675.95 1788.15Q1663.20 1832.78 1635.15 1776.67L1635.15 1776.67Q1610.92 1733.33 1591.80 1650.45L1591.80 1650.45Q1582.88 1609.65 1576.50 1586.70L1576.50 1586.70Q1566.30 1553.55 1565.66 1538.89Q1565.03 1524.22 1573.95 1514.03L1573.95 1514.03Q1584.15 1502.55 1584.15 1496.81Q1584.15 1491.07 1591.80 1491.07Q1599.45 1491.07 1600.72 1487.25L1600.72 1487.25Q1605.83 1474.50 1665.75 1438.16Q1725.67 1401.82 1742.25 1401.82L1742.25 1401.82Q1753.72 1401.82 1777.95 1364.85Q1802.17 1327.88 1802.17 1308.75L1802.17 1308.75Q1802.17 1303.65 1808.55 1287.07L1808.55 1287.07Q1813.65 1276.88 1816.20 1263.49Q1818.75 1250.10 1818.75 1241.81Q1818.75 1233.53 1816.20 1233.53L1816.20 1233.53Q1808.55 1233.53 1776.67 1246.91Q1744.80 1260.30 1737.15 1267.95L1737.15 1267.95Q1725.67 1276.88 1700.81 1266.04Q1675.95 1255.20 1674.04 1238.63Q1672.13 1222.05 1676.59 1213.13Q1681.05 1204.20 1693.80 1199.10L1693.80 1199.10Q1738.42 1176.15 1793.25 1167.22Q1848.08 1158.30 1959 1154.47L1959 1154.47L2055.90 1151.92L2076.30 1173.60Q2106.90 1208.02 2095.43 1237.35L2095.43 1237.35Q2092.88 1246.28 2089.69 1247.55Q2086.50 1248.82 2075.03 1246.28L2075.03 1246.28Q2057.18 1243.72 2036.78 1232.25Q2016.38 1220.77 1973.03 1220.77L1973.03 1220.77L1932.22 1219.50L1930.95 1239.90Q1930.95 1260.30 1921.39 1265.40Q1911.83 1270.50 1911.83 1281.97L1911.83 1281.97Q1911.83 1307.47 1868.47 1350.82L1868.47 1350.82Q1849.35 1371.22 1849.35 1376.32L1849.35 1376.32Q1849.35 1378.88 1903.54 1382.70Q1957.72 1386.53 1988.33 1386.53L1988.33 1386.53Q2010 1386.53 2063.55 1386.53L2063.55 1386.53Q2103.07 1386.53 2112.64 1388.44Q2122.20 1390.35 2131.13 1401.82L2131.13 1401.82Q2146.43 1415.85 2142.60 1421.59Q2138.78 1427.32 2151.53 1455.38L2151.53 1455.38Q2169.38 1494.90 2155.35 1590.53L2155.35 1590.53L2147.70 1642.80Q2145.15 1658.10 2141.96 1689.97Q2138.78 1721.85 2133.04 1728.86Q2127.30 1735.88 2123.47 1760.74Q2119.65 1785.60 2115.82 1795.16Q2112 1804.72 2121.56 1807.28Q2131.13 1809.83 2169.38 1827.67L2169.38 1827.67Q2214 1848.08 2233.76 1852.54Q2253.53 1857 2285.40 1854.45L2285.40 1854.45Q2326.20 1850.63 2338.95 1839.15L2338.95 1839.15Q2347.88 1830.22 2349.79 1813.65Q2351.70 1797.08 2352.98 1714.20L2352.98 1714.20Q2355.53 1600.72 2351.70 1544.63Q2347.88 1488.52 2344.69 1417.76Q2341.50 1347 2338.95 1344.45L2338.95 1344.45Q2332.57 1340.63 2289.23 1351.46Q2245.88 1362.30 2216.55 1376.32L2216.55 1376.32Q2171.93 1395.45 2161.09 1395.45Q2150.25 1395.45 2133.68 1380.15L2133.68 1380.15Q2119.65 1369.95 2117.74 1364.85Q2115.82 1359.75 2118.38 1352.10L2118.38 1352.10Q2126.03 1335.53 2178.30 1317.67Q2230.57 1299.82 2295.60 1290.90L2295.60 1290.90Q2338.95 1284.53 2345.32 1282.61Q2351.70 1280.70 2350.43 1169.77L2350.43 1169.77L2349.15 1061.40ZM2046.97 1548.45L2046.97 1548.45Q2044.43 1496.17 2039.33 1478.32Q2034.22 1460.47 2019.56 1454.74Q2004.90 1449 1988.33 1446.45L1988.33 1446.45Q1975.58 1442.63 1974.30 1445.81Q1973.03 1449 1974.30 1464.30L1974.30 1464.30Q1976.85 1485.97 1970.47 1488.52Q1964.10 1491.07 1964.10 1512.11Q1964.10 1533.15 1956.45 1558.65Q1948.80 1584.15 1943.70 1659.38Q1938.60 1734.60 1936.05 1740.34Q1933.50 1746.08 1946.25 1749.90L1946.25 1749.90Q1961.55 1756.28 1985.78 1756.28L1985.78 1756.28L2011.28 1756.28L2026.58 1726.95Q2053.35 1672.13 2046.97 1548.45Z"/>
  </svg>