<svg xmlns="http://www.w3.org/2000/svg" viewBox="0 0 3000 3000" width="3000" height="3000">
    <path fill="#000000" d="M1678 680L1678 680Q1700 678 1718 676L1718 676Q1732 676 1756 692Q1780 708 1780 720L1780 720Q1782 730 1808 758L1808 758Q1840 790 1846 814Q1852 838 1840 890L1840 890Q1832 946 1814 1005Q1796 1064 1786 1068L1786 1068Q1776 1076 1779 1090Q1782 1104 1792 1110L1792 1110Q1806 1114 1834 1114L1834 1114Q1874 1114 1953 1137Q2032 1160 2092 1186L2092 1186Q2172 1226 2176 1232Q2180 1238 2196 1246L2196 1246Q2220 1260 2231 1296Q2242 1332 2236 1374L2236 1374Q2228 1414 2214 1510L2214 1510Q2188 1700 2086 1932L2086 1932Q2076 1960 2076 1968L2076 1968Q2076 1978 2035 2032Q1994 2086 1954 2128L1954 2128Q1898 2188 1829 2235Q1760 2282 1724 2282L1724 2282Q1708 2282 1684 2259Q1660 2236 1650 2208L1650 2208Q1592 2086 1526 2046L1526 2046Q1500 2032 1496 2019Q1492 2006 1460 1972L1460 1972Q1406 1916 1432 1916L1432 1916Q1462 1916 1506 1956L1506 1956Q1544 1988 1630 1998L1630 1998Q1666 2004 1680 1993Q1694 1982 1744 1918L1744 1918Q1760 1898 1816 1770L1816 1770Q1830 1738 1830 1724Q1830 1710 1838 1702L1838 1702Q1850 1690 1883 1526Q1916 1362 1920 1288L1920 1288L1926 1232L1894 1218Q1858 1206 1812 1206L1812 1206Q1774 1202 1766 1206Q1758 1210 1754 1226L1754 1226Q1744 1262 1694 1360L1694 1360Q1690 1374 1683 1400Q1676 1426 1665 1436Q1654 1446 1654 1457Q1654 1468 1641 1478Q1628 1488 1628 1507Q1628 1526 1615 1537Q1602 1548 1602 1560Q1602 1572 1590 1596L1590 1596Q1552 1668 1552 1694L1552 1694Q1552 1704 1526 1724Q1500 1744 1500 1754L1500 1754Q1500 1772 1432 1854L1432 1854Q1426 1864 1383 1924Q1340 1984 1332 1984Q1324 1984 1324 1997Q1324 2010 1311 2015Q1298 2020 1298 2026L1298 2026Q1298 2044 1150 2190L1150 2190Q994 2342 854 2414L854 2414Q826 2428 798 2431Q770 2434 762 2422L762 2422Q758 2416 840 2338L840 2338Q984 2200 1018 2156L1018 2156Q1044 2122 1072 2093Q1100 2064 1122 2037Q1144 2010 1158 1992Q1172 1974 1172 1966Q1172 1958 1196 1928L1196 1928Q1228 1882 1266 1802L1266 1802Q1332 1670 1382 1540L1382 1540Q1426 1430 1438 1403Q1450 1376 1450 1362Q1450 1348 1462 1322Q1474 1296 1483 1271Q1492 1246 1496 1230L1496 1230Q1500 1218 1492 1218L1492 1218Q1486 1218 1462 1222L1462 1222Q1422 1228 1362 1250L1362 1250Q1324 1266 1311 1275Q1298 1284 1294 1304L1294 1304Q1286 1328 1264 1345Q1242 1362 1214 1362L1214 1362Q1188 1360 1154 1327Q1120 1294 1120 1268Q1120 1242 1129 1242Q1138 1242 1162 1222L1162 1222Q1188 1194 1293 1159Q1398 1124 1448 1124L1448 1124Q1480 1124 1510 1118L1510 1118L1542 1114L1576 1012Q1608 908 1617 843Q1626 778 1642 734L1642 734Q1652 704 1659 694Q1666 684 1678 680Z"/>
  </svg>