<svg xmlns="http://www.w3.org/2000/svg" viewBox="0 0 3000 3000" width="3000" height="3000">
    <path fill="#000000" d="M680 1228L680 1168L2252 1168L2252 1228L680 1228ZM2234 1184L2234 1168L2294 1168Q2294 1168 2294 1177Q2294 1186 2293 1196Q2292 1206 2292 1212L2292 1212Q2272 1532 2254 1755Q2236 1978 2215 2120Q2194 2262 2169 2341Q2144 2420 2110 2454L2110 2454Q2082 2486 2051 2495Q2020 2504 1970 2506L1970 2506Q1924 2508 1834 2504Q1744 2500 1650 2494L1650 2494Q1648 2480 1645 2464Q1642 2448 1632 2434L1632 2434Q1742 2444 1835 2447Q1928 2450 1962 2450L1962 2450Q1996 2450 2018 2445Q2040 2440 2056 2422L2056 2422Q2086 2392 2111 2314Q2136 2236 2157 2093Q2178 1950 2197 1727Q2216 1504 2234 1184L2234 1184ZM1374 996L1374 714L1434 714L1434 996Q1434 1134 1422 1286Q1410 1438 1371 1597Q1332 1756 1249 1915Q1166 2074 1025 2227Q884 2380 668 2518L668 2518Q664 2510 657 2503Q650 2496 642 2488Q634 2480 626 2476L626 2476Q838 2340 976 2191Q1114 2042 1195 1887Q1276 1732 1314 1578Q1352 1424 1363 1277Q1374 1130 1374 996L1374 996Z"/>
  </svg>