<svg xmlns="http://www.w3.org/2000/svg" viewBox="0 0 3000 3000" width="3000" height="3000">
    <path fill="#000000" d="M1544 1273L1544 1273L2076 1245Q2066 1503 2030 1754Q1994 2005 1934 2215L1934 2215Q1934 2221 1926 2221L1926 2221Q1920 2221 1864 2196Q1808 2171 1723 2128Q1638 2085 1546 2031L1546 2031Q1514 2011 1490 2011L1490 2011Q1454 2011 1454 2043L1454 2043Q1454 2063 1486 2098Q1518 2133 1566 2176Q1614 2219 1669 2261Q1724 2303 1775 2338Q1826 2373 1858 2393L1858 2393Q1912 2427 1956 2427L1956 2427Q2002 2427 2044 2387L2044 2387Q2080 2353 2092 2299Q2104 2245 2114 2203L2114 2203Q2142 2089 2168 1930Q2194 1771 2213 1591Q2232 1411 2240 1239L2240 1239Q2242 1231 2248 1217Q2254 1203 2254 1187L2254 1187Q2254 1153 2230 1134Q2206 1115 2181 1106Q2156 1097 2146 1097L2146 1097Q2140 1097 2133 1098Q2126 1099 2116 1099L2116 1099L1570 1129Q1586 1039 1596 924Q1606 809 1608 703L1608 703Q1608 679 1577 660Q1546 641 1511 630Q1476 619 1454 619L1454 619Q1416 619 1416 651L1416 651Q1416 665 1422 675L1422 675Q1428 693 1430 713Q1432 733 1432 757L1432 757Q1432 955 1400 1137L1400 1137L932 1157L914 1157Q876 1157 834 1147L834 1147Q828 1145 816 1145L816 1145Q788 1145 788 1171L788 1171Q788 1177 792 1191L792 1191Q806 1223 828 1259Q850 1295 892 1305L892 1305L912 1305Q926 1305 941 1304Q956 1303 974 1303L974 1303L1366 1281Q1352 1339 1312 1462Q1272 1585 1194 1734Q1116 1883 983 2039Q850 2195 644 2337L644 2337Q604 2365 604 2393Q604 2421 636 2421L636 2421Q654 2421 714 2394Q774 2367 861 2310Q948 2253 1046 2162Q1144 2071 1241 1943Q1338 1815 1419 1646Q1500 1477 1544 1273Z"/>
  </svg>