<svg xmlns="http://www.w3.org/2000/svg" viewBox="0 0 3000 3000" width="3000" height="3000">
    <path fill="#000000" d="M339.75 1326.60L339.75 1288.35L1341.90 1288.35L1341.90 1326.60L339.75 1326.60ZM1330.42 1298.55L1330.42 1288.35L1368.67 1288.35Q1368.67 1288.35 1368.67 1294.09Q1368.67 1299.83 1368.04 1306.20Q1367.40 1312.58 1367.40 1316.40L1367.40 1316.40Q1354.65 1520.40 1343.17 1662.56Q1331.70 1804.73 1318.31 1895.25Q1304.92 1985.78 1288.99 2036.14Q1273.05 2086.50 1251.37 2108.18L1251.37 2108.18Q1233.52 2128.58 1213.76 2134.31Q1194 2140.05 1162.13 2141.33L1162.13 2141.33Q1132.80 2142.60 1075.42 2140.05Q1018.05 2137.50 958.12 2133.68L958.12 2133.68Q956.85 2124.75 954.94 2114.55Q953.02 2104.35 946.65 2095.43L946.65 2095.43Q1016.77 2101.80 1076.06 2103.71Q1135.35 2105.63 1157.02 2105.63L1157.02 2105.63Q1178.70 2105.63 1192.72 2102.44Q1206.75 2099.25 1216.95 2087.78L1216.95 2087.78Q1236.07 2068.65 1252.01 2018.93Q1267.95 1969.20 1281.34 1878.04Q1294.72 1786.88 1306.84 1644.71Q1318.95 1502.55 1330.42 1298.55L1330.42 1298.55ZM782.17 1178.70L782.17 998.92L820.42 998.92L820.42 1178.70Q820.42 1266.67 812.77 1363.58Q805.12 1460.47 780.26 1561.84Q755.40 1663.20 702.49 1764.56Q649.57 1865.93 559.69 1963.46Q469.80 2061 332.10 2148.97L332.10 2148.97Q329.55 2143.88 325.09 2139.41Q320.62 2134.95 315.52 2129.85Q310.42 2124.75 305.32 2122.20L305.32 2122.20Q440.47 2035.50 528.45 1940.51Q616.42 1845.53 668.06 1746.71Q719.70 1647.90 743.92 1549.72Q768.15 1451.55 775.16 1357.84Q782.17 1264.13 782.17 1178.70L782.17 1178.70ZM2507.25 1209.30L1769.03 1209.30L1769.03 1307.47L2507.25 1307.47L2507.25 1209.30ZM2507.25 1076.70L1769.03 1076.70L1769.03 1172.33L2507.25 1172.33L2507.25 1076.70ZM1732.05 1344.45L1732.05 1039.72L2544.23 1039.72L2544.23 1344.45L1732.05 1344.45ZM2549.32 1701.45L1746.08 1701.45L1746.08 1802.18L2549.32 1802.18L2549.32 1701.45ZM2549.32 1565.03L1746.08 1565.03L1746.08 1663.20L2549.32 1663.20L2549.32 1565.03ZM1709.10 1839.15L1709.10 1526.78L2587.57 1526.78L2587.57 1839.15L1709.10 1839.15ZM2115.82 2094.15L2115.82 1543.35L2154.07 1543.35L2154.07 2094.15L2115.82 2094.15ZM1575.22 1451.55L1575.22 1413.30L2701.05 1413.30L2701.05 1451.55L1575.22 1451.55ZM1663.20 1974.30L1663.20 1937.33L2619.45 1937.33L2619.45 1974.30L1663.20 1974.30ZM1563.75 2113.28L1563.75 2076.30L2712.53 2076.30L2712.53 2113.28L1563.75 2113.28Z"/>
  </svg>