<svg xmlns="http://www.w3.org/2000/svg" viewBox="0 0 3000 3000" width="3000" height="3000">
    <path fill="#000000" d="M1026.86 2042.87Q957.13 2042.87 957.13 1981.86L957.13 1981.86Q957.13 1956.96 972.07 1942.02L972.07 1942.02Q984.52 1929.57 1053.00 1925.83L1053.00 1925.83Q1158.84 1920.85 1186.23 1893.46L1186.23 1893.46Q1202.42 1878.52 1214.87 1804.43Q1227.32 1730.35 1233.54 1602.10L1233.54 1602.10L1248.49 1335.64Q1249.73 1303.27 1232.30 1286.46Q1214.87 1269.65 1183.74 1269.65L1183.74 1269.65L815.19 1269.65Q796.51 1572.22 700.63 1737.82L700.63 1737.82Q602.27 1908.40 436.67 2003.03L436.67 2003.03Q404.30 2021.70 384.38 2030.42Q364.45 2039.14 352.00 2039.14L352.00 2039.14Q298.46 2039.14 298.46 1979.37L298.46 1979.37Q298.46 1947.00 335.82 1928.32L335.82 1928.32Q552.47 1818.75 648.34 1609.57L648.34 1609.57Q672.00 1557.28 685.69 1475.72Q699.39 1394.17 706.86 1269.65L706.86 1269.65L398.07 1269.65Q364.45 1269.65 349.51 1256.58Q334.57 1243.51 334.57 1217.36L334.57 1217.36Q334.57 1167.55 398.07 1167.55L398.07 1167.55L711.84 1167.55L714.33 995.73Q716.82 935.96 767.87 935.96L767.87 935.96Q823.90 935.96 823.90 1000.71L823.90 1000.71Q823.90 1055.49 821.41 1167.55L821.41 1167.55L1217.36 1167.55Q1294.56 1167.55 1323.82 1198.06Q1353.08 1228.56 1353.08 1300.78L1353.08 1300.78Q1353.08 1438.99 1333.15 1690.50L1333.15 1690.50Q1318.21 1874.78 1298.29 1933.30L1298.29 1933.30Q1260.94 2042.87 1026.86 2042.87L1026.86 2042.87ZM1613.31 2036.65Q1568.48 2036.65 1568.48 1996.80L1568.48 1996.80Q1568.48 1956.96 1613.31 1956.96L1613.31 1956.96L2092.68 1956.96L2092.68 1899.68L1689.26 1899.68Q1648.17 1899.68 1648.17 1863.57L1648.17 1863.57Q1648.17 1828.71 1689.26 1828.71L1689.26 1828.71L2092.68 1828.71L2092.68 1767.70L1806.30 1767.70Q1747.78 1767.70 1722.25 1742.80Q1696.73 1717.90 1700.46 1660.62L1700.46 1660.62L1700.46 1559.77Q1700.46 1501.25 1725.37 1475.72Q1750.27 1450.20 1806.30 1455.18L1806.30 1455.18L2467.46 1455.18Q2525.98 1455.18 2552.12 1480.08Q2578.27 1504.98 2574.54 1559.77L2574.54 1559.77L2574.54 1660.62Q2574.54 1719.14 2549.63 1745.29Q2524.73 1771.44 2467.46 1767.70L2467.46 1767.70L2183.57 1767.70L2183.57 1828.71L2585.74 1828.71Q2625.59 1828.71 2625.59 1863.57L2625.59 1863.57Q2625.59 1899.68 2585.74 1899.68L2585.74 1899.68L2183.57 1899.68L2183.57 1956.96L2661.69 1956.96Q2705.27 1956.96 2705.27 1996.80L2705.27 1996.80Q2705.27 2036.65 2661.69 2036.65L2661.69 2036.65L1613.31 2036.65ZM1828.71 1701.71L2092.68 1701.71L2092.68 1641.94L1792.60 1641.94L1792.60 1665.60Q1792.60 1699.22 1828.71 1701.71L1828.71 1701.71ZM1792.60 1577.20L2092.68 1577.20L2092.68 1519.92L1828.71 1519.92Q1812.52 1519.92 1803.19 1529.26Q1793.85 1538.60 1792.60 1556.03L1792.60 1556.03L1792.60 1577.20ZM2445.04 1701.71Q2478.66 1701.71 2481.15 1665.60L2481.15 1665.60L2481.15 1641.94L2183.57 1641.94L2183.57 1701.71L2445.04 1701.71ZM1609.57 1406.62Q1568.48 1406.62 1568.48 1369.26L1568.48 1369.26Q1568.48 1349.34 1578.44 1340.63Q1588.40 1331.91 1609.57 1331.91L1609.57 1331.91L2665.43 1331.91Q2706.52 1331.91 2706.52 1369.26L2706.52 1369.26Q2706.52 1406.62 2665.43 1406.62L2665.43 1406.62L1609.57 1406.62ZM2183.57 1577.20L2481.15 1577.20L2481.15 1556.03Q2481.15 1539.84 2471.81 1530.51Q2462.48 1521.17 2445.04 1519.92L2445.04 1519.92L2183.57 1519.92L2183.57 1577.20ZM2432.59 1214.87Q2467.46 1214.87 2467.46 1177.51L2467.46 1177.51L2467.46 1158.84L1807.54 1158.84L1807.54 1177.51Q1807.54 1212.38 1842.41 1214.87L1842.41 1214.87L2432.59 1214.87ZM1817.50 1283.35Q1700.46 1293.31 1710.42 1176.27L1710.42 1176.27L1710.42 1075.42Q1700.46 960.86 1817.50 970.83L1817.50 970.83L2458.74 970.83Q2517.26 970.83 2543.41 995.73Q2569.56 1020.63 2564.58 1075.42L2564.58 1075.42L2564.58 1176.27Q2574.54 1293.31 2458.74 1283.35L2458.74 1283.35L1817.50 1283.35ZM1807.54 1094.09L2467.46 1094.09L2467.46 1076.66Q2467.46 1043.04 2432.59 1041.80L2432.59 1041.80L1842.41 1041.80Q1807.54 1041.80 1807.54 1076.66L1807.54 1076.66L1807.54 1094.09Z"/>
  </svg>