<svg xmlns="http://www.w3.org/2000/svg" viewBox="0 0 3000 3000" width="3000" height="3000">
    <path fill="#000000" d="M890.55 1355.29L890.55 1355.29L1229.70 1337.44Q1223.32 1501.91 1200.38 1661.93Q1177.42 1821.94 1139.17 1955.81L1139.17 1955.81Q1139.17 1959.64 1134.07 1959.64L1134.07 1959.64Q1130.25 1959.64 1094.55 1943.70Q1058.85 1927.76 1004.66 1900.35Q950.47 1872.94 891.82 1838.51L891.82 1838.51Q871.42 1825.76 856.12 1825.76L856.12 1825.76Q833.17 1825.76 833.17 1846.16L833.17 1846.16Q833.17 1858.91 853.57 1881.23Q873.97 1903.54 904.57 1930.95Q935.17 1958.36 970.24 1985.14Q1005.30 2011.91 1037.81 2034.23Q1070.32 2056.54 1090.72 2069.29L1090.72 2069.29Q1125.15 2090.96 1153.20 2090.96L1153.20 2090.96Q1182.52 2090.96 1209.30 2065.46L1209.30 2065.46Q1232.25 2043.79 1239.90 2009.36Q1247.55 1974.94 1253.92 1948.16L1253.92 1948.16Q1271.77 1875.49 1288.35 1774.13Q1304.92 1672.76 1317.04 1558.01Q1329.15 1443.26 1334.25 1333.61L1334.25 1333.61Q1335.52 1328.51 1339.35 1319.59Q1343.17 1310.66 1343.17 1300.46L1343.17 1300.46Q1343.17 1278.79 1327.88 1266.68Q1312.57 1254.56 1296.64 1248.83Q1280.70 1243.09 1274.32 1243.09L1274.32 1243.09Q1270.50 1243.09 1266.04 1243.72Q1261.57 1244.36 1255.20 1244.36L1255.20 1244.36L907.12 1263.49Q917.32 1206.11 923.70 1132.80Q930.07 1059.49 931.35 991.91L931.35 991.91Q931.35 976.61 911.59 964.50Q891.82 952.39 869.51 945.38Q847.20 938.36 833.17 938.36L833.17 938.36Q808.95 938.36 808.95 958.76L808.95 958.76Q808.95 967.69 812.77 974.06L812.77 974.06Q816.60 985.54 817.87 998.29Q819.15 1011.04 819.15 1026.34L819.15 1026.34Q819.15 1152.56 798.75 1268.59L798.75 1268.59L500.40 1281.34L488.92 1281.34Q464.70 1281.34 437.92 1274.96L437.92 1274.96Q434.10 1273.69 426.45 1273.69L426.45 1273.69Q408.60 1273.69 408.60 1290.26L408.60 1290.26Q408.60 1294.09 411.15 1303.01L411.15 1303.01Q420.07 1323.41 434.10 1346.36Q448.12 1369.31 474.90 1375.69L474.90 1375.69L487.65 1375.69Q496.57 1375.69 506.14 1375.05Q515.70 1374.41 527.17 1374.41L527.17 1374.41L777.07 1360.39Q768.15 1397.36 742.65 1475.78Q717.15 1554.19 667.42 1649.18Q617.70 1744.16 532.91 1843.61Q448.12 1943.06 316.80 2033.59L316.80 2033.59Q291.30 2051.44 291.30 2069.29Q291.30 2087.14 311.70 2087.14L311.70 2087.14Q323.17 2087.14 361.42 2069.93Q399.67 2052.71 455.14 2016.38Q510.60 1980.04 573.07 1922.03Q635.55 1864.01 697.39 1782.41Q759.22 1700.81 810.86 1593.08Q862.50 1485.34 890.55 1355.29ZM1892.70 1671.49L2087.78 1662.56L2087.78 1717.39L1896.53 1725.04L1892.70 1671.49ZM2177.03 1658.74L2387.40 1648.54L2382.30 1707.19L2177.03 1714.84L2177.03 1658.74ZM1882.50 1554.19L2089.05 1543.99L2089.05 1591.16L1887.60 1601.36L1882.50 1554.19ZM2178.30 1541.44L2401.43 1529.96L2396.32 1577.14L2178.30 1588.61L2178.30 1541.44ZM1688.70 2068.01L1701.45 2068.01L2665.35 2048.89Q2699.78 2048.89 2699.78 2019.56L2699.78 2019.56Q2699.78 2004.26 2685.75 1989.60Q2671.73 1974.94 2655.79 1966.01Q2639.85 1957.09 2629.65 1957.09L2629.65 1957.09Q2622 1957.09 2610.53 1960.91Q2599.05 1964.74 2585.66 1966.65Q2572.28 1968.56 2554.43 1968.56L2554.43 1968.56L2175.75 1977.49L2175.75 1916.29L2490.68 1906.09Q2521.28 1902.26 2521.28 1879.31L2521.28 1879.31Q2521.28 1861.46 2507.25 1849.35Q2493.23 1837.24 2478.56 1830.23Q2463.90 1823.21 2457.53 1823.21Q2451.15 1823.21 2442.23 1825.76L2442.23 1825.76Q2425.65 1829.59 2412.26 1831.50Q2398.88 1833.41 2382.30 1834.69L2382.30 1834.69L2177.03 1841.06L2177.03 1786.24L2457.53 1776.04Q2494.50 1773.49 2494.50 1756.91Q2494.50 1740.34 2467.73 1709.74L2467.73 1709.74L2497.05 1527.41Q2498.33 1523.59 2501.51 1516.58Q2504.70 1509.56 2504.70 1500.64L2504.70 1500.64Q2504.70 1475.14 2481.75 1464.30Q2458.80 1453.46 2443.50 1453.46L2443.50 1453.46L2429.48 1453.46L1876.13 1481.51Q1816.20 1461.11 1795.80 1461.11L1795.80 1461.11Q1774.13 1461.11 1774.13 1477.69L1774.13 1477.69Q1774.13 1481.51 1776.67 1490.44L1776.67 1490.44Q1783.05 1501.91 1787.51 1515.94Q1791.97 1529.96 1793.25 1543.99L1793.25 1543.99L1807.28 1717.39Q1808.55 1727.59 1809.19 1736.51Q1809.83 1745.44 1809.83 1753.09L1809.83 1753.09Q1809.83 1758.19 1809.19 1763.93Q1808.55 1769.66 1808.55 1776.04L1808.55 1776.04L1808.55 1782.41Q1808.55 1804.09 1823.85 1814.29Q1839.15 1824.49 1855.09 1826.40Q1871.03 1828.31 1874.85 1828.31L1874.85 1828.31Q1902.90 1828.31 1902.90 1801.54L1902.90 1801.54L1902.90 1797.71L1902.90 1796.44L2087.78 1788.79L2087.78 1842.34L1865.92 1848.71L1848.08 1848.71Q1832.78 1848.71 1819.39 1847.44Q1806 1846.16 1793.25 1842.34L1793.25 1842.34Q1789.42 1841.06 1785.60 1841.06L1785.60 1841.06Q1774.13 1841.06 1774.13 1852.54L1774.13 1852.54Q1774.13 1855.09 1774.76 1857Q1775.40 1858.91 1775.40 1861.46L1775.40 1861.46Q1790.70 1904.81 1807.28 1915.65Q1823.85 1926.49 1854.45 1926.49L1854.45 1926.49Q1860.83 1926.49 1867.20 1925.85Q1873.58 1925.21 1881.22 1925.21L1881.22 1925.21L2086.50 1918.84L2086.50 1978.76L1697.63 1987.69Q1679.78 1987.69 1655.55 1985.14Q1631.33 1982.59 1624.95 1980.04L1624.95 1980.04Q1623.67 1980.04 1622.40 1979.40Q1621.13 1978.76 1618.58 1978.76L1618.58 1978.76Q1605.83 1978.76 1605.83 1992.79L1605.83 1992.79Q1605.83 1996.61 1607.10 2000.44L1607.10 2000.44Q1619.85 2046.34 1641.53 2057.18Q1663.20 2068.01 1688.70 2068.01L1688.70 2068.01ZM1704 1449.64L1704 1449.64L2661.53 1403.74Q2690.85 1399.91 2690.85 1374.41L2690.85 1374.41Q2690.85 1355.29 2674.91 1342.54Q2658.98 1329.79 2644.31 1323.41Q2629.65 1317.04 2627.10 1317.04L2627.10 1317.04Q2619.45 1317.04 2615.63 1318.31L2615.63 1318.31Q2601.60 1322.14 2590.13 1324.05Q2578.65 1325.96 2559.53 1327.24L2559.53 1327.24L1686.15 1369.31L1669.58 1369.31Q1656.83 1369.31 1645.35 1368.04Q1633.88 1366.76 1621.13 1364.21L1621.13 1364.21Q1617.30 1362.94 1612.20 1362.94L1612.20 1362.94Q1598.17 1362.94 1598.17 1376.96L1598.17 1376.96Q1598.17 1380.79 1599.45 1384.61L1599.45 1384.61Q1613.47 1430.51 1636.42 1440.71Q1659.38 1450.91 1675.95 1450.91L1675.95 1450.91Q1682.33 1450.91 1689.34 1450.28Q1696.35 1449.64 1704 1449.64ZM1909.28 1192.09L2365.73 1166.59L2359.35 1221.41L1914.38 1244.36L1909.28 1192.09ZM1897.80 1077.34L2379.75 1048.01L2374.65 1096.46L1901.63 1121.96L1897.80 1077.34ZM1922.03 1318.31L1922.03 1317.04L2437.13 1292.81Q2452.43 1291.54 2465.18 1289.63Q2477.93 1287.71 2477.93 1272.41L2477.93 1272.41Q2477.93 1255.84 2449.88 1223.96L2449.88 1223.96L2479.20 1037.81Q2480.48 1035.26 2483.03 1029.53Q2485.58 1023.79 2485.58 1016.14L2485.58 1016.14Q2485.58 1002.11 2468.36 987.45Q2451.15 972.79 2419.28 972.79L2419.28 972.79L2409.07 972.79L1886.33 1002.11Q1821.30 977.89 1800.90 977.89L1800.90 977.89Q1779.22 977.89 1779.22 994.46L1779.22 994.46Q1779.22 1003.39 1786.88 1014.86L1786.88 1014.86Q1802.17 1042.91 1806 1070.96L1806 1070.96L1822.58 1226.51Q1823.85 1237.99 1824.49 1246.91Q1825.13 1255.84 1825.13 1266.04L1825.13 1266.04Q1825.13 1271.14 1825.13 1277.51Q1825.13 1283.89 1823.85 1290.26L1823.85 1290.26L1823.85 1299.19Q1823.85 1327.24 1849.35 1338.08Q1874.85 1348.91 1888.88 1348.91L1888.88 1348.91Q1901.63 1348.91 1911.83 1341.90Q1922.03 1334.89 1922.03 1318.31L1922.03 1318.31Z"/>
  </svg>