<svg xmlns="http://www.w3.org/2000/svg" viewBox="0 0 3000 3000" width="3000" height="3000">
    <path fill="#000000" d="M2105.47 2347.66Q1996.09 2349.61 1861.33 2335.94Q1726.56 2322.27 1634.77 2300.78L1634.77 2300.78Q1445.31 2253.91 1314.45 2119.14L1314.45 2119.14Q1238.28 2250 1126.95 2337.89L1126.95 2337.89Q1099.61 2359.38 1072.27 2359.38L1072.27 2359.38Q1041.02 2359.38 1019.53 2332.03L1019.53 2332.03Q1003.91 2310.55 1003.91 2291.02L1003.91 2291.02Q1003.91 2259.77 1039.06 2228.52L1039.06 2228.52Q1150.39 2130.86 1212.89 2025.39L1212.89 2025.39Q1107.42 1869.14 1062.50 1683.59L1062.50 1683.59Q1058.59 1664.06 1058.59 1658.20L1058.59 1658.20Q1058.59 1613.28 1107.42 1597.66L1107.42 1597.66Q1123.05 1593.75 1128.91 1593.75L1128.91 1593.75Q1169.92 1593.75 1187.50 1650.39L1187.50 1650.39Q1238.28 1806.64 1283.20 1878.91L1283.20 1878.91Q1328.13 1736.33 1341.80 1500L1341.80 1500L1341.80 1494.14Q1341.80 1474.61 1331.05 1466.80Q1320.31 1458.98 1298.83 1458.98L1298.83 1458.98L1191.41 1458.98Q1144.53 1458.98 1120.12 1439.45Q1095.70 1419.92 1095.70 1382.81L1095.70 1382.81Q1095.70 1353.52 1109.38 1320.31L1109.38 1320.31L1234.38 1021.48Q1251.95 978.52 1263.67 945.31Q1275.39 912.11 1279.30 904.30L1279.30 904.30Q1281.25 900.39 1281.25 892.58L1281.25 892.58Q1281.25 876.95 1257.81 876.95L1257.81 876.95L1166.02 876.95Q1083.98 876.95 1083.98 804.69L1083.98 804.69Q1083.98 732.42 1166.02 732.42L1166.02 732.42L1341.80 732.42Q1394.53 732.42 1425.78 756.84Q1457.03 781.25 1457.03 824.22L1457.03 824.22Q1457.03 845.70 1449.22 867.19L1449.22 867.19Q1437.50 902.34 1398.44 1000L1398.44 1000Q1328.13 1169.92 1275.39 1281.25L1275.39 1281.25Q1267.58 1300.78 1267.58 1304.69L1267.58 1304.69Q1267.58 1318.36 1296.88 1318.36L1296.88 1318.36L1363.28 1318.36Q1423.83 1318.36 1455.08 1347.66Q1486.33 1376.95 1484.38 1433.59L1484.38 1433.59Q1474.61 1765.63 1382.81 1994.14L1382.81 1994.14Q1525.39 2126.95 1658.20 2158.20L1658.20 2158.20Q1730.47 2175.78 1831.05 2186.52Q1931.64 2197.27 2037.11 2197.27L2037.11 2197.27L2097.66 2195.31L2294.92 2189.45Q2384.77 2187.50 2384.77 2263.67L2384.77 2263.67Q2384.77 2304.69 2363.28 2325.20Q2341.80 2345.70 2291.02 2345.70L2291.02 2345.70L2105.47 2347.66ZM908.20 2384.77Q871.09 2384.77 853.52 2364.26Q835.94 2343.75 835.94 2296.88L835.94 2296.88L835.94 1240.23L984.38 900.39L984.38 2296.88Q984.38 2343.75 965.82 2364.26Q947.27 2384.77 908.20 2384.77L908.20 2384.77ZM646.48 1558.59Q617.19 1539.06 617.19 1509.77L617.19 1509.77Q617.19 1488.28 632.81 1460.94L632.81 1460.94Q697.27 1349.61 737.30 1262.70Q777.34 1175.78 820.31 1062.50L820.31 1062.50Q863.28 943.36 945.31 675.78L945.31 675.78Q962.89 615.23 1015.63 615.23L1015.63 615.23Q1023.44 615.23 1039.06 619.14L1039.06 619.14Q1066.41 626.95 1078.13 640.63Q1089.84 654.30 1089.84 679.69L1089.84 679.69Q1089.84 701.17 1085.94 714.84L1085.94 714.84Q1044.92 876.95 943.36 1131.84Q841.80 1386.72 742.19 1533.20L742.19 1533.20Q716.80 1572.27 685.55 1572.27L685.55 1572.27Q669.92 1572.27 646.48 1558.59L646.48 1558.59ZM1539.06 1921.88Q1466.80 1921.88 1466.80 1857.42L1466.80 1857.42Q1466.80 1826.17 1485.35 1809.57Q1503.91 1792.97 1539.06 1792.97L1539.06 1792.97L2265.63 1792.97Q2300.78 1792.97 2320.31 1809.57Q2339.84 1826.17 2339.84 1857.42L2339.84 1857.42Q2339.84 1921.88 2265.63 1921.88L2265.63 1921.88L1539.06 1921.88ZM1875 2150.39Q1835.94 2150.39 1818.36 2131.84Q1800.78 2113.28 1800.78 2072.27L1800.78 2072.27L1800.78 1375L1945.31 1375L1945.31 2072.27Q1945.31 2150.39 1875 2150.39L1875 2150.39ZM1576.17 1679.69Q1505.86 1679.69 1505.86 1615.23L1505.86 1615.23Q1505.86 1550.78 1576.17 1550.78L1576.17 1550.78L2212.89 1550.78Q2246.09 1550.78 2264.65 1567.38Q2283.20 1583.98 2283.20 1615.23L2283.20 1615.23Q2283.20 1679.69 2212.89 1679.69L2212.89 1679.69L1576.17 1679.69ZM2060.55 1312.50Q2111.33 1312.50 2113.28 1261.72L2113.28 1261.72L2113.28 1183.59L1945.31 1183.59L1945.31 1312.50L2060.55 1312.50ZM1589.84 1437.50Q1517.58 1437.50 1517.58 1375L1517.58 1375Q1517.58 1312.50 1589.84 1312.50L1589.84 1312.50L1800.78 1312.50L1800.78 1183.59L1503.91 1183.59Q1466.80 1183.59 1449.22 1168.95Q1431.64 1154.30 1431.64 1121.09L1431.64 1121.09Q1431.64 1058.59 1503.91 1058.59L1503.91 1058.59L1800.78 1058.59L1800.78 929.69L1578.13 929.69Q1511.72 929.69 1511.72 867.19L1511.72 867.19Q1511.72 804.69 1578.13 804.69L1578.13 804.69L1800.78 804.69L1800.78 697.27Q1800.78 617.19 1875 617.19L1875 617.19Q1945.31 617.19 1945.31 697.27L1945.31 697.27L1945.31 804.69L2111.33 804.69Q2183.59 804.69 2221.68 843.75Q2259.77 882.81 2259.77 957.03L2259.77 957.03L2259.77 1058.59L2320.31 1058.59Q2386.72 1058.59 2386.72 1121.09L2386.72 1121.09Q2386.72 1183.59 2320.31 1183.59L2320.31 1183.59L2259.77 1183.59L2259.77 1291.02Q2259.77 1437.50 2111.33 1437.50L2111.33 1437.50L1589.84 1437.50ZM1945.31 1058.59L2113.28 1058.59L2113.28 980.47Q2113.28 933.59 2060.55 929.69L2060.55 929.69L1945.31 929.69L1945.31 1058.59Z"/>
  </svg>