<svg xmlns="http://www.w3.org/2000/svg" viewBox="0 0 3000 3000" width="3000" height="3000">
    <path fill="#000000" d="M1248.49 2040.38Q1178.76 2041.63 1092.85 2032.91Q1006.93 2024.19 948.41 2010.50L948.41 2010.50Q827.64 1980.62 744.21 1894.70L744.21 1894.70Q695.65 1978.13 624.68 2034.16L624.68 2034.16Q607.25 2047.85 589.82 2047.85L589.82 2047.85Q569.90 2047.85 556.20 2030.42L556.20 2030.42Q546.24 2016.72 546.24 2004.27L546.24 2004.27Q546.24 1984.35 568.65 1964.43L568.65 1964.43Q639.62 1902.17 679.47 1834.94L679.47 1834.94Q612.23 1735.33 583.59 1617.04L583.59 1617.04Q581.10 1604.59 581.10 1600.85L581.10 1600.85Q581.10 1572.22 612.23 1562.26L612.23 1562.26Q622.19 1559.77 625.93 1559.77L625.93 1559.77Q652.08 1559.77 663.28 1595.87L663.28 1595.87Q695.65 1695.48 724.29 1741.55L724.29 1741.55Q752.93 1650.66 761.65 1500L761.65 1500L761.65 1496.26Q761.65 1483.81 754.80 1478.83Q747.95 1473.85 734.25 1473.85L734.25 1473.85L665.77 1473.85Q635.89 1473.85 620.32 1461.40Q604.76 1448.95 604.76 1425.29L604.76 1425.29Q604.76 1406.62 613.48 1385.45L613.48 1385.45L693.16 1194.95Q704.37 1167.55 711.84 1146.39Q719.31 1125.22 721.80 1120.24L721.80 1120.24Q723.05 1117.75 723.05 1112.77L723.05 1112.77Q723.05 1102.81 708.11 1102.81L708.11 1102.81L649.58 1102.81Q597.29 1102.81 597.29 1056.74L597.29 1056.74Q597.29 1010.67 649.58 1010.67L649.58 1010.67L761.65 1010.67Q795.26 1010.67 815.19 1026.23Q835.11 1041.80 835.11 1069.19L835.11 1069.19Q835.11 1082.89 830.13 1096.58L830.13 1096.58Q822.66 1118.99 797.75 1181.25L797.75 1181.25Q752.93 1289.58 719.31 1360.55L719.31 1360.55Q714.33 1373.00 714.33 1375.49L714.33 1375.49Q714.33 1384.20 733.01 1384.20L733.01 1384.20L775.34 1384.20Q813.94 1384.20 833.86 1402.88Q853.78 1421.56 852.54 1457.67L852.54 1457.67Q846.31 1669.34 787.79 1815.01L787.79 1815.01Q878.69 1899.68 963.35 1919.60L963.35 1919.60Q1009.42 1930.81 1073.55 1937.66Q1137.67 1944.51 1204.91 1944.51L1204.91 1944.51L1243.51 1943.26L1369.26 1939.53Q1426.54 1938.28 1426.54 1986.84L1426.54 1986.84Q1426.54 2012.99 1412.84 2026.06Q1399.15 2039.14 1366.77 2039.14L1366.77 2039.14L1248.49 2040.38ZM485.23 2064.04Q461.57 2064.04 450.37 2050.96Q439.16 2037.89 439.16 2008.01L439.16 2008.01L439.16 1334.40L533.79 1117.75L533.79 2008.01Q533.79 2037.89 521.96 2050.96Q510.13 2064.04 485.23 2064.04L485.23 2064.04ZM318.38 1537.35Q299.71 1524.90 299.71 1506.23L299.71 1506.23Q299.71 1492.53 309.67 1475.10L309.67 1475.10Q350.76 1404.13 376.28 1348.72Q401.81 1293.31 429.20 1221.09L429.20 1221.09Q456.59 1145.14 508.89 974.56L508.89 974.56Q520.09 935.96 553.71 935.96L553.71 935.96Q558.69 935.96 568.65 938.45L568.65 938.45Q586.08 943.43 593.55 952.15Q601.03 960.86 601.03 977.05L601.03 977.05Q601.03 990.75 598.54 999.46L598.54 999.46Q572.39 1102.81 507.64 1265.30Q442.90 1427.78 379.39 1521.17L379.39 1521.17Q363.21 1546.07 343.29 1546.07L343.29 1546.07Q333.33 1546.07 318.38 1537.35L318.38 1537.35ZM887.40 1768.95Q841.33 1768.95 841.33 1727.86L841.33 1727.86Q841.33 1707.93 853.16 1697.35Q864.99 1686.77 887.40 1686.77L887.40 1686.77L1350.59 1686.77Q1373.00 1686.77 1385.45 1697.35Q1397.90 1707.93 1397.90 1727.86L1397.90 1727.86Q1397.90 1768.95 1350.59 1768.95L1350.59 1768.95L887.40 1768.95ZM1101.56 1914.62Q1076.66 1914.62 1065.45 1902.80Q1054.25 1890.97 1054.25 1864.82L1054.25 1864.82L1054.25 1420.31L1146.39 1420.31L1146.39 1864.82Q1146.39 1914.62 1101.56 1914.62L1101.56 1914.62ZM911.06 1614.55Q866.24 1614.55 866.24 1573.46L866.24 1573.46Q866.24 1532.37 911.06 1532.37L911.06 1532.37L1316.97 1532.37Q1338.13 1532.37 1349.96 1542.96Q1361.79 1553.54 1361.79 1573.46L1361.79 1573.46Q1361.79 1614.55 1316.97 1614.55L1316.97 1614.55L911.06 1614.55ZM1219.85 1380.47Q1252.22 1380.47 1253.47 1348.10L1253.47 1348.10L1253.47 1298.29L1146.39 1298.29L1146.39 1380.47L1219.85 1380.47ZM919.78 1460.16Q873.71 1460.16 873.71 1420.31L873.71 1420.31Q873.71 1380.47 919.78 1380.47L919.78 1380.47L1054.25 1380.47L1054.25 1298.29L864.99 1298.29Q841.33 1298.29 830.13 1288.95Q818.92 1279.61 818.92 1258.45L818.92 1258.45Q818.92 1218.60 864.99 1218.60L864.99 1218.60L1054.25 1218.60L1054.25 1136.43L912.30 1136.43Q869.97 1136.43 869.97 1096.58L869.97 1096.58Q869.97 1056.74 912.30 1056.74L912.30 1056.74L1054.25 1056.74L1054.25 988.26Q1054.25 937.21 1101.56 937.21L1101.56 937.21Q1146.39 937.21 1146.39 988.26L1146.39 988.26L1146.39 1056.74L1252.22 1056.74Q1298.29 1056.74 1322.57 1081.64Q1346.85 1106.54 1346.85 1153.86L1346.85 1153.86L1346.85 1218.60L1385.45 1218.60Q1427.78 1218.60 1427.78 1258.45L1427.78 1258.45Q1427.78 1298.29 1385.45 1298.29L1385.45 1298.29L1346.85 1298.29L1346.85 1366.77Q1346.85 1460.16 1252.22 1460.16L1252.22 1460.16L919.78 1460.16ZM1146.39 1218.60L1253.47 1218.60L1253.47 1168.80Q1253.47 1138.92 1219.85 1136.43L1219.85 1136.43L1146.39 1136.43L1146.39 1218.60ZM1608.33 2050.34Q1574.71 2037.89 1574.71 2008.01L1574.71 2008.01Q1574.71 1991.82 1583.42 1973.14L1583.42 1973.14Q1633.23 1863.57 1652.53 1732.21Q1671.83 1600.85 1671.83 1399.15L1671.83 1399.15L1671.83 1150.12Q1671.83 1033.08 1782.64 1033.08L1782.64 1033.08L2636.79 1033.08Q2684.11 1033.08 2684.11 1076.66L2684.11 1076.66Q2684.11 1120.24 2636.79 1120.24L2636.79 1120.24L1802.56 1120.24Q1771.44 1120.24 1771.44 1151.37L1771.44 1151.37L1771.44 1401.64Q1771.44 1600.85 1748.40 1757.12Q1725.37 1913.38 1680.54 2011.74L1680.54 2011.74Q1661.87 2054.08 1629.49 2054.08L1629.49 2054.08Q1619.53 2054.08 1608.33 2050.34L1608.33 2050.34ZM1782.64 2012.99Q1762.72 2012.99 1751.51 1999.91Q1740.31 1986.84 1740.31 1964.43L1740.31 1964.43Q1740.31 1947.00 1752.14 1934.55Q1763.96 1922.09 1796.34 1910.89L1796.34 1910.89L1822.49 1902.17Q1949.49 1856.10 1988.09 1838.67L1988.09 1838.67Q2029.17 1821.24 2049.10 1814.39Q2069.02 1807.54 2083.96 1807.54L2083.96 1807.54Q2100.15 1807.54 2111.35 1818.75Q2122.56 1829.96 2122.56 1846.14L2122.56 1846.14Q2122.56 1866.06 2102.64 1879.76L2102.64 1879.76Q2081.47 1894.70 2009.25 1929.57L2009.25 1929.57Q1935.79 1965.67 1869.80 1989.33L1869.80 1989.33Q1806.30 2012.99 1782.64 2012.99L1782.64 2012.99ZM2008.01 1801.32Q1996.80 1801.32 1980.62 1793.23Q1964.43 1785.13 1945.75 1773.93L1945.75 1773.93L1859.84 1724.12Q1834.94 1709.18 1834.94 1684.28L1834.94 1684.28Q1834.94 1666.85 1846.77 1656.88Q1858.59 1646.92 1877.27 1646.92L1877.27 1646.92Q1892.21 1646.92 1928.94 1662.49Q1965.67 1678.05 2001.78 1699.22L2001.78 1699.22Q2029.17 1715.41 2040.38 1729.10Q2051.59 1742.80 2051.59 1758.98L2051.59 1758.98Q2051.59 1777.66 2039.14 1789.49Q2026.68 1801.32 2008.01 1801.32L2008.01 1801.32ZM2054.08 2064.04Q2000.54 2064.04 2000.54 2016.72L2000.54 2016.72Q2000.54 1991.82 2013.61 1980.62Q2026.68 1969.41 2054.08 1969.41L2054.08 1969.41L2128.78 1969.41Q2159.91 1969.41 2159.91 1938.28L2159.91 1938.28L2159.91 1625.76L1887.23 1625.76Q1863.57 1625.76 1852.37 1615.80Q1841.16 1605.83 1841.16 1583.42L1841.16 1583.42Q1841.16 1543.58 1887.23 1543.58L1887.23 1543.58L2159.91 1543.58L2159.91 1305.76L1903.42 1305.76Q1881.01 1305.76 1868.55 1294.56Q1856.10 1283.35 1856.10 1263.43L1856.10 1263.43Q1856.10 1223.58 1903.42 1223.58L1903.42 1223.58L2159.91 1223.58L2159.91 1177.51Q2159.91 1157.59 2172.99 1144.52Q2186.06 1131.45 2208.47 1131.45L2208.47 1131.45Q2230.88 1131.45 2243.96 1144.52Q2257.03 1157.59 2257.03 1177.51L2257.03 1177.51L2257.03 1223.58L2491.11 1223.58Q2535.94 1223.58 2560.22 1247.86Q2584.50 1272.14 2584.50 1316.97L2584.50 1316.97L2584.50 1532.37Q2584.50 1577.20 2560.22 1601.48Q2535.94 1625.76 2491.11 1625.76L2491.11 1625.76L2257.03 1625.76Q2306.84 1709.18 2384.03 1782.64L2384.03 1782.64L2422.63 1813.77Q2452.51 1837.43 2516.64 1869.18Q2580.76 1900.93 2657.96 1925.83L2657.96 1925.83Q2679.13 1932.06 2690.33 1944.51Q2701.54 1956.96 2701.54 1973.14L2701.54 1973.14Q2701.54 1979.37 2699.05 1989.33L2699.05 1989.33Q2694.07 2008.01 2681.62 2017.97Q2669.17 2027.93 2651.73 2027.93L2651.73 2027.93Q2641.77 2027.93 2630.57 2024.19L2630.57 2024.19Q2509.79 1989.33 2403.96 1907.78Q2298.12 1826.22 2257.03 1737.82L2257.03 1737.82L2257.03 1947.00Q2257.03 2009.25 2229.64 2036.65Q2202.25 2064.04 2139.99 2064.04L2139.99 2064.04L2054.08 2064.04ZM2352.91 1780.15Q2453.76 1719.14 2543.41 1649.41L2543.41 1649.41Q2555.86 1640.70 2565.20 1636.34Q2574.54 1631.98 2588.23 1631.98L2588.23 1631.98Q2608.15 1631.98 2620.61 1643.81Q2633.06 1655.64 2633.06 1675.56L2633.06 1675.56Q2633.06 1700.46 2609.40 1716.65L2609.40 1716.65Q2524.73 1781.40 2396.48 1834.94L2396.48 1834.94L2352.91 1780.15ZM1843.65 1463.89Q1820.00 1463.89 1807.54 1452.69Q1795.09 1441.48 1795.09 1421.56L1795.09 1421.56Q1795.09 1401.64 1807.54 1390.43Q1820.00 1379.22 1843.65 1379.22L1843.65 1379.22L2655.47 1379.22Q2701.54 1379.22 2701.54 1421.56L2701.54 1421.56Q2701.54 1441.48 2689.09 1452.69Q2676.64 1463.89 2655.47 1463.89L2655.47 1463.89L1843.65 1463.89ZM2458.74 1543.58Q2489.87 1543.58 2489.87 1512.45L2489.87 1512.45L2489.87 1336.89Q2489.87 1305.76 2458.74 1305.76L2458.74 1305.76L2257.03 1305.76L2257.03 1543.58L2458.74 1543.58ZM2143.73 983.28Q2143.73 934.72 2199.76 934.72L2199.76 934.72Q2255.79 934.72 2255.79 983.28L2255.79 983.28L2255.79 1076.66L2143.73 1076.66L2143.73 983.28Z"/>
  </svg>