<svg xmlns="http://www.w3.org/2000/svg" viewBox="0 0 3000 3000" width="3000" height="3000">
    <path fill="#000000" d="M1135.35 1310.66L1216.95 1305.56L1210.57 1376.96L1135.35 1383.34L1135.35 1310.66ZM793.65 1792.61L793.65 1792.61L759.22 1773.49Q783.45 1717.39 800.02 1666.39Q816.60 1615.39 833.17 1549.09L833.17 1549.09Q834.45 1542.71 840.82 1534.43Q847.20 1526.14 847.20 1514.66L847.20 1514.66Q847.20 1492.99 824.25 1476.41Q801.30 1459.84 777.07 1459.84L777.07 1459.84Q773.25 1459.84 770.06 1460.47Q766.87 1461.11 764.32 1461.11L764.32 1461.11L694.20 1470.04Q712.05 1439.44 745.84 1373.14Q779.62 1306.84 808.95 1243.09L808.95 1243.09Q810.22 1237.99 818.51 1229.06Q826.80 1220.14 826.80 1206.11L826.80 1206.11Q826.80 1197.19 810.86 1177.42Q794.92 1157.66 769.42 1157.66L769.42 1157.66Q765.60 1157.66 760.50 1158.30Q755.40 1158.94 750.30 1160.21L750.30 1160.21L666.15 1171.69Q645.75 1175.51 622.80 1175.51L622.80 1175.51Q603.67 1175.51 580.72 1171.69L580.72 1171.69L575.62 1171.69Q571.80 1171.69 569.25 1171.69L569.25 1171.69Q579.45 1151.29 589.65 1130.89L589.65 1130.89Q607.50 1091.36 618.34 1063.95Q629.17 1036.54 629.17 1030.16L629.17 1030.16Q629.17 1011.04 594.75 989.36L594.75 989.36Q566.70 968.96 548.85 968.96L548.85 968.96Q528.45 968.96 528.45 994.46L528.45 994.46L528.45 999.56Q528.45 1018.69 509.96 1073.51Q491.47 1128.34 457.05 1208.03Q422.62 1287.71 373.54 1381.43Q324.45 1475.14 263.25 1573.31L263.25 1573.31Q254.32 1586.06 250.50 1596.90Q246.67 1607.74 246.67 1615.39L246.67 1615.39Q246.67 1631.96 260.70 1631.96L260.70 1631.96Q273.45 1631.96 294.49 1612.20Q315.52 1592.44 337.20 1563.11Q358.87 1533.79 378.64 1504.46Q398.40 1475.14 413.06 1452.19Q427.72 1429.24 417.52 1447.09L417.52 1447.09L409.87 1954.54Q409.87 1971.11 408.60 1987.69Q407.32 2004.26 403.50 2020.84L403.50 2020.84Q402.22 2025.94 402.22 2033.59L402.22 2033.59Q402.22 2056.54 418.16 2069.93Q434.10 2083.31 450.67 2089.69Q467.25 2096.06 473.62 2096.06L473.62 2096.06Q502.95 2096.06 502.95 2062.91L502.95 2062.91L505.50 1300.46Q527.17 1259.66 548.85 1215.04L548.85 1215.04Q553.95 1204.84 557.77 1195.91L557.77 1195.91Q569.25 1227.79 599.85 1246.91L599.85 1246.91Q615.15 1255.84 634.27 1255.84L634.27 1255.84Q649.57 1255.84 673.80 1252.01L673.80 1252.01L709.50 1244.36Q687.82 1303.01 657.22 1362.30Q626.62 1421.59 589.65 1481.51L589.65 1481.51Q582.00 1496.81 582.00 1508.29L582.00 1508.29Q582.00 1528.69 596.66 1545.90Q611.32 1563.11 635.55 1563.11L635.55 1563.11Q647.02 1563.11 657.86 1559.93Q668.70 1556.74 684.00 1555.46L684.00 1555.46L735.00 1547.81Q727.35 1589.89 710.77 1645.35Q694.20 1700.81 677.62 1744.16L677.62 1744.16Q668.70 1741.61 654.04 1740.34Q639.37 1739.06 621.52 1739.06L621.52 1739.06Q565.42 1739.06 545.66 1748.63Q525.90 1758.19 525.90 1778.59L525.90 1778.59L525.90 1784.96Q531.00 1827.04 557.77 1827.04L557.77 1827.04Q565.42 1827.04 570.52 1825.76L570.52 1825.76Q603.67 1818.11 627.90 1818.11L627.90 1818.11Q635.55 1818.11 643.20 1818.11L643.20 1818.11L648.30 1818.11Q627.90 1864.01 598.57 1915.65Q569.25 1967.29 536.10 2015.74L536.10 2015.74Q518.25 2041.24 518.25 2057.81L518.25 2057.81Q518.25 2075.66 533.55 2075.66L533.55 2075.66Q546.30 2075.66 569.89 2053.99Q593.47 2032.31 622.16 1998.53Q650.85 1964.74 678.90 1922.66Q706.95 1880.59 726.07 1844.89L726.07 1844.89Q733.72 1848.71 748.39 1858.28Q763.05 1867.84 779.62 1876.76L779.62 1876.76Q870.15 1926.49 960.04 1962.19Q1049.92 1997.89 1150.65 2022.11Q1251.37 2046.34 1375.05 2065.46L1375.05 2065.46Q1380.15 2066.74 1390.35 2066.74L1390.35 2066.74Q1409.47 2066.74 1427.32 2049.53Q1445.17 2032.31 1456.65 2014.46Q1468.13 1996.61 1468.13 1990.24L1468.13 1990.24Q1468.13 1974.94 1440.07 1971.11L1440.07 1971.11Q1297.27 1960.91 1185.07 1937.33Q1072.88 1913.74 977.89 1877.40Q882.90 1841.06 793.65 1792.61ZM1135.35 1174.24L1228.42 1166.59L1223.32 1229.06L1135.35 1235.44L1135.35 1174.24ZM1134.07 1880.59L1134.07 1750.54L1392.90 1736.51Q1403.10 1735.24 1414.57 1728.23Q1426.05 1721.21 1426.05 1708.46L1426.05 1708.46Q1426.05 1699.54 1413.94 1684.24Q1401.82 1668.94 1384.61 1655.55Q1367.40 1642.16 1349.55 1642.16L1349.55 1642.16Q1345.72 1642.16 1341.90 1642.80Q1338.07 1643.44 1334.25 1644.71L1334.25 1644.71Q1318.95 1649.81 1306.20 1654.91Q1293.45 1660.01 1278.15 1661.29L1278.15 1661.29L1134.07 1668.94L1134.07 1602.64L1303.65 1592.44Q1338.07 1588.61 1338.07 1565.66L1338.07 1565.66Q1338.07 1552.91 1324.05 1538.25Q1310.02 1523.59 1292.81 1514.03Q1275.60 1504.46 1265.40 1504.46L1265.40 1504.46Q1259.02 1504.46 1250.10 1507.01L1250.10 1507.01Q1239.90 1510.84 1229.06 1514.66Q1218.22 1518.49 1202.92 1519.76L1202.92 1519.76L1134.07 1523.59L1134.07 1459.84L1280.70 1449.64Q1296.00 1448.36 1308.11 1445.18Q1320.22 1441.99 1320.22 1426.69Q1320.22 1411.39 1293.45 1376.96L1293.45 1376.96L1301.10 1301.74L1392.90 1295.36Q1427.32 1291.54 1427.32 1268.59L1427.32 1268.59Q1427.32 1250.74 1403.10 1230.97Q1378.88 1211.21 1358.47 1211.21L1358.47 1211.21Q1353.38 1211.21 1344.45 1213.76L1344.45 1213.76Q1335.52 1217.59 1323.41 1220.78Q1311.30 1223.96 1308.75 1223.96L1308.75 1223.96L1312.57 1174.24Q1313.85 1166.59 1317.67 1159.58Q1321.50 1152.56 1321.50 1141.09L1321.50 1141.09Q1321.50 1119.41 1302.37 1104.11Q1283.25 1088.81 1262.85 1088.81L1262.85 1088.81Q1259.02 1088.81 1255.84 1089.45Q1252.65 1090.09 1251.37 1090.09L1251.37 1090.09L1135.35 1099.01L1135.35 1002.11Q1135.35 986.81 1128.97 977.89Q1122.60 968.96 1094.55 958.76L1094.55 958.76Q1070.32 949.84 1051.20 949.84L1051.20 949.84Q1029.52 949.84 1029.52 966.41L1029.52 966.41Q1029.52 972.79 1034.63 980.44L1034.63 980.44Q1043.55 993.19 1046.74 1011.04Q1049.92 1028.89 1049.92 1040.36L1049.92 1040.36L1049.92 1102.84L955.57 1110.49Q954.30 1110.49 950.47 1111.13Q946.65 1111.76 942.82 1111.76L942.82 1111.76L936.45 1111.76Q927.52 1111.76 915.41 1110.49Q903.30 1109.21 891.82 1107.94L891.82 1107.94L885.45 1107.94Q871.42 1107.94 871.42 1120.69L871.42 1120.69L873.97 1129.61Q893.10 1169.14 914.77 1177.42Q936.45 1185.71 961.95 1185.71L961.95 1185.71L978.52 1185.71L1048.65 1180.61L1048.65 1239.26L884.17 1249.46Q879.07 1249.46 873.34 1250.10Q867.60 1250.74 861.22 1250.74L861.22 1250.74Q847.20 1250.74 825.52 1246.91L825.52 1246.91Q824.25 1246.91 822.97 1246.28Q821.70 1245.64 817.87 1245.64L817.87 1245.64Q803.85 1245.64 803.85 1259.66L803.85 1259.66Q803.85 1271.14 819.15 1291.54Q834.45 1311.94 840.82 1317.04L840.82 1317.04Q851.02 1325.96 872.70 1325.96L872.70 1325.96Q879.07 1325.96 886.72 1325.33Q894.37 1324.69 902.02 1324.69L902.02 1324.69L1048.65 1315.76L1048.65 1387.16L961.95 1393.54Q956.85 1393.54 949.20 1394.18Q941.55 1394.81 932.62 1394.81Q923.70 1394.81 916.05 1394.18Q908.40 1393.54 899.47 1392.26L899.47 1392.26L898.20 1392.26Q896.92 1390.99 894.37 1390.99L894.37 1390.99Q879.07 1390.99 879.07 1406.29L879.07 1406.29Q879.07 1411.39 881.62 1416.49L881.62 1416.49L889.27 1431.79Q894.37 1440.71 902.66 1449.64Q910.95 1458.56 922.42 1464.94L922.42 1464.94Q935.17 1470.04 950.47 1470.04L950.47 1470.04Q959.40 1470.04 968.32 1469.40Q977.25 1468.76 986.17 1468.76L986.17 1468.76L1047.38 1463.66L1047.38 1527.41L958.12 1533.79Q950.47 1533.79 942.82 1534.43Q935.17 1535.06 926.25 1535.06L926.25 1535.06Q916.05 1535.06 906.49 1533.79Q896.92 1532.51 889.27 1529.96L889.27 1529.96Q885.45 1528.69 880.35 1528.69L880.35 1528.69Q866.32 1528.69 866.32 1545.26Q866.32 1561.84 877.80 1577.14Q889.27 1592.44 900.75 1603.91L900.75 1603.91Q909.67 1610.29 920.51 1611.56Q931.35 1612.84 944.10 1612.84L944.10 1612.84Q951.75 1612.84 959.40 1612.20Q967.05 1611.56 975.97 1611.56L975.97 1611.56L1047.38 1606.46L1046.10 1672.76L893.10 1680.41Q886.72 1680.41 879.71 1681.05Q872.70 1681.69 866.32 1681.69L866.32 1681.69Q840.82 1681.69 826.80 1677.86L826.80 1677.86Q821.70 1676.59 815.32 1676.59L815.32 1676.59Q800.02 1676.59 800.02 1691.89L800.02 1691.89Q800.02 1716.11 816.60 1731.41Q833.17 1746.71 840.82 1750.54L840.82 1750.54Q851.02 1756.91 865.69 1758.83Q880.35 1760.74 895.65 1760.74L895.65 1760.74L912.22 1760.74L1046.10 1753.09L1046.10 1760.74Q1046.10 1781.14 1044.82 1802.18Q1043.55 1823.21 1039.72 1839.79L1039.72 1839.79Q1038.45 1844.89 1038.45 1849.35Q1038.45 1853.81 1038.45 1856.36L1038.45 1856.36Q1038.45 1880.59 1056.30 1893.34Q1074.15 1906.09 1092 1912.46L1092 1912.46L1109.85 1916.29Q1134.07 1916.29 1134.07 1880.59L1134.07 1880.59ZM2024.03 1806.64L2024.03 1806.64Q2045.70 1806.64 2058.45 1784.96Q2071.20 1763.29 2071.20 1754.36L2071.20 1754.36Q2071.20 1737.79 2044.43 1717.39Q2017.65 1696.99 1984.50 1677.86Q1951.35 1658.74 1923.30 1644.71Q1895.25 1630.69 1890.15 1630.69L1890.15 1630.69Q1877.40 1630.69 1864.65 1645.99Q1851.90 1661.29 1851.90 1675.31Q1851.90 1689.34 1871.03 1702.09L1871.03 1702.09Q1908 1725.04 1936.69 1746.71Q1965.38 1768.39 1998.53 1797.71L1998.53 1797.71Q2011.28 1806.64 2024.03 1806.64ZM2243.32 1466.21L2406.53 1456.01L2398.88 1532.51L2243.32 1540.16L2243.32 1466.21ZM2243.32 1325.96L2423.10 1314.49L2416.73 1376.96L2243.32 1387.16L2243.32 1325.96ZM2007.45 1635.79L2152.80 1628.14L2152.80 1762.01Q2147.70 1758.19 2140.05 1758.19L2140.05 1758.19Q2126.03 1758.19 2104.35 1772.21L2104.35 1772.21Q2046.97 1807.91 1983.86 1841.06Q1920.75 1874.21 1865.29 1896.53Q1809.83 1918.84 1771.58 1923.94L1771.58 1923.94Q1747.35 1925.21 1747.35 1941.15Q1747.35 1957.09 1763.92 1973.03Q1780.50 1988.96 1800.90 2000.44Q1821.30 2011.91 1836.60 2011.91L1836.60 2011.91Q1853.17 2011.91 1924.58 1968.56L1924.58 1968.56Q1943.70 1957.09 1967.93 1941.79L1967.93 1941.79Q1966.65 1943.06 1966.65 1946.89L1966.65 1946.89Q1966.65 1960.91 1990.88 1986.41Q2015.10 2011.91 2048.89 2040.60Q2082.68 2069.29 2117.10 2089.69Q2151.53 2110.09 2174.47 2110.09Q2197.43 2110.09 2222.29 2088.41Q2247.15 2066.74 2247.15 2024.66L2247.15 2024.66Q2247.15 2010.64 2245.24 1994.06Q2243.32 1977.49 2243.32 1960.91L2243.32 1960.91L2243.32 1764.56Q2301.98 1829.59 2376.56 1884.41Q2451.15 1939.24 2513.63 1971.11Q2576.10 2002.99 2614.35 2017.01L2614.35 2017.01L2653.88 2031.04Q2665.35 2031.04 2679.38 2018.93Q2693.40 2006.81 2705.51 1991.51Q2717.63 1976.21 2717.63 1967.29L2717.63 1967.29Q2717.63 1949.44 2695.95 1941.79L2695.95 1941.79Q2614.35 1915.01 2541.04 1880.59Q2467.73 1846.16 2407.80 1804.09L2407.80 1804.09Q2453.70 1778.59 2491.95 1753.73Q2530.20 1728.86 2571 1696.99L2571 1696.99Q2574.82 1693.16 2578.01 1687.43Q2581.20 1681.69 2581.20 1672.76L2581.20 1672.76Q2581.20 1662.56 2572.28 1643.44Q2563.35 1624.31 2551.24 1607.74Q2539.13 1591.16 2526.38 1591.16L2526.38 1591.16Q2523.83 1591.16 2522.55 1591.16L2522.55 1591.16Q2522.55 1591.16 2522.55 1591.16L2522.55 1591.16Q2522.55 1582.24 2513.63 1567.58Q2504.70 1552.91 2484.30 1533.79L2484.30 1533.79L2495.78 1452.19L2655.15 1443.26Q2673 1441.99 2686.39 1436.25Q2699.78 1430.51 2699.78 1417.76Q2699.78 1405.01 2688.30 1390.99Q2676.82 1376.96 2661.53 1367.40Q2646.23 1357.84 2630.93 1357.84L2630.93 1357.84Q2622 1357.84 2614.35 1361.66L2614.35 1361.66Q2604.15 1365.49 2590.13 1367.40Q2576.10 1369.31 2563.35 1370.59L2563.35 1370.59L2508.53 1374.41L2516.18 1318.31Q2517.45 1313.21 2522.55 1304.93Q2527.65 1296.64 2527.65 1285.16L2527.65 1285.16Q2527.65 1268.59 2511.71 1250.74Q2495.78 1232.89 2460.07 1232.89L2460.07 1232.89L2449.88 1232.89L2243.32 1245.64L2243.32 1208.66Q2243.32 1193.36 2233.76 1181.89Q2224.20 1170.41 2188.50 1160.21L2188.50 1160.21Q2180.85 1157.66 2174.47 1156.39L2174.47 1156.39L2590.13 1132.16Q2605.43 1130.89 2616.26 1125.15Q2627.10 1119.41 2627.10 1105.39L2627.10 1105.39Q2627.10 1090.09 2612.44 1074.15Q2597.78 1058.21 2579.93 1048.01Q2562.07 1037.81 2551.88 1037.81L2551.88 1037.81Q2545.50 1037.81 2541.68 1040.36L2541.68 1040.36Q2508.53 1053.11 2481.75 1054.39L2481.75 1054.39L2226.75 1069.69L2228.03 966.41Q2228.03 948.56 2212.72 938.36Q2197.43 928.16 2180.21 923.70Q2163 919.24 2148.97 917.33Q2134.95 915.41 2133.68 915.41L2133.68 915.41Q2109.45 915.41 2109.45 931.99L2109.45 931.99Q2109.45 940.91 2118.38 949.84L2118.38 949.84Q2133.68 968.96 2133.68 991.91L2133.68 991.91L2134.95 1074.79L1809.83 1093.91Q1771.58 1072.24 1748.63 1062.04Q1725.67 1051.84 1711.01 1051.84Q1696.35 1051.84 1696.35 1069.69L1696.35 1069.69Q1696.35 1076.06 1700.17 1087.54L1700.17 1087.54Q1709.10 1113.04 1712.29 1138.54Q1715.47 1164.04 1715.47 1190.81L1715.47 1190.81L1715.47 1227.79Q1715.47 1399.91 1699.54 1539.53Q1683.60 1679.14 1647.26 1797.71Q1610.92 1916.29 1551 2027.21L1551 2027.21Q1538.25 2048.89 1538.25 2062.91L1538.25 2062.91Q1538.25 2079.49 1553.55 2079.49L1553.55 2079.49Q1565.03 2079.49 1582.88 2061.64L1582.88 2061.64L1589.25 2055.26Q1655.55 1981.31 1697.63 1892.06Q1739.70 1802.81 1763.29 1705.91Q1786.88 1609.01 1798.35 1512.11L1798.35 1512.11Q1803.45 1463.66 1807.28 1416.49L1807.28 1416.49Q1807.28 1421.59 1811.10 1433.06L1811.10 1433.06Q1816.20 1449.64 1832.78 1467.49Q1849.35 1485.34 1883.78 1485.34L1883.78 1485.34Q1892.70 1485.34 1902.26 1484.70Q1911.83 1484.06 1922.03 1484.06L1922.03 1484.06L2152.80 1471.31L2152.80 1543.99L1983.22 1552.91Q1976.85 1552.91 1969.84 1553.55Q1962.83 1554.19 1956.45 1554.19L1956.45 1554.19Q1938.60 1554.19 1924.58 1550.36L1924.58 1550.36Q1919.47 1549.09 1913.10 1549.09L1913.10 1549.09Q1896.53 1549.09 1896.53 1565.66L1896.53 1565.66Q1896.53 1568.21 1897.16 1572.04Q1897.80 1575.86 1899.08 1579.69L1899.08 1579.69Q1919.47 1623.04 1937.33 1630.05Q1955.18 1637.06 1975.58 1637.06L1975.58 1637.06Q1984.50 1637.06 1992.79 1636.43Q2001.08 1635.79 2007.45 1635.79L2007.45 1635.79ZM1814.92 1178.06L1814.92 1178.06L2127.30 1158.94Q2126.03 1162.76 2126.03 1166.59L2126.03 1166.59Q2126.03 1174.24 2134.95 1186.99L2134.95 1186.99Q2143.88 1198.46 2147.70 1216.31L2147.70 1216.31Q2152.80 1232.89 2152.80 1249.46L2152.80 1249.46L1976.85 1260.94Q1970.47 1260.94 1964.74 1261.58Q1959 1262.21 1953.90 1262.21L1953.90 1262.21Q1932.22 1262.21 1916.93 1257.11L1916.93 1257.11Q1913.10 1255.84 1909.91 1255.20Q1906.72 1254.56 1902.90 1254.56L1902.90 1254.56Q1888.88 1254.56 1888.88 1268.59L1888.88 1268.59Q1888.88 1272.41 1889.51 1275.60Q1890.15 1278.79 1891.43 1282.61L1891.43 1282.61Q1909.28 1319.59 1924.58 1330.43Q1939.88 1341.26 1960.28 1341.26L1960.28 1341.26Q1970.47 1341.26 1981.95 1340.63Q1993.43 1339.99 2002.35 1338.71L2002.35 1338.71L2152.80 1329.79L2152.80 1390.99L1899.08 1403.74L1882.50 1403.74Q1869.75 1403.74 1855.72 1402.46Q1841.70 1401.19 1827.67 1397.36L1827.67 1397.36L1821.30 1397.36Q1811.10 1397.36 1807.28 1405.01L1807.28 1405.01Q1809.83 1365.49 1811.10 1328.51L1811.10 1328.51Q1813.65 1240.54 1814.92 1178.06ZM2152.80 1788.79L2152.80 1788.79L2151.53 1996.61Q2117.10 1986.41 2078.21 1971.11Q2039.33 1955.81 2015.10 1943.06L2015.10 1943.06Q1994.70 1932.86 1985.78 1932.86L1985.78 1932.86Q1981.95 1932.86 1978.13 1932.86L1978.13 1932.86Q2040.60 1889.51 2128.57 1816.84L2128.57 1816.84Q2145.15 1802.81 2152.80 1788.79ZM2508.53 1609.01L2508.53 1609.01Q2508.53 1609.01 2508.53 1610.29L2508.53 1610.29Q2504.70 1629.41 2461.99 1667.66Q2419.28 1705.91 2338.95 1751.81L2338.95 1751.81Q2317.28 1733.96 2291.78 1709.74Q2266.28 1685.51 2243.32 1661.29L2243.32 1661.29L2243.32 1624.31L2476.65 1612.84Q2494.50 1611.56 2508.53 1609.01L2508.53 1609.01Q2508.53 1609.01 2508.53 1609.01Z"/>
  </svg>