<svg xmlns="http://www.w3.org/2000/svg" viewBox="0 0 3000 3000" width="3000" height="3000">
    <path fill="#000000" d="M990 712L990 712L1048 726Q1000 888 937 1043Q874 1198 799 1334Q724 1470 638 1578L638 1578Q634 1572 626 1563Q618 1554 610 1545Q602 1536 594 1530L594 1530Q722 1380 824 1164Q926 948 990 712ZM842 2506L842 1160L900 1102L900 1104L900 2506L842 2506ZM1840 2350L1840 710L1898 710L1898 2350L1840 2350ZM1452 1226L1452 1166L2406 1166L2406 1226L1452 1226ZM1438 2050L1438 1992L2374 1992L2374 2050L1438 2050ZM1500 1774L1500 1716L2296 1716L2296 1774L1500 1774ZM1070 934L1070 874L1426 874L1426 934L1070 934ZM1036 1762L1086 1734Q1152 1964 1262 2104Q1372 2244 1511 2316Q1650 2388 1809 2412Q1968 2436 2134 2436L2134 2436Q2150 2436 2185 2436Q2220 2436 2264 2436Q2308 2436 2347 2436Q2386 2436 2408 2436L2408 2436Q2400 2448 2391 2466Q2382 2484 2380 2496L2380 2496L2322 2496L2132 2496Q1956 2496 1791 2470Q1626 2444 1482 2369Q1338 2294 1224 2148Q1110 2002 1036 1762L1036 1762ZM1550 952L1550 894L2238 894L2238 1506L1550 1506L1550 1446L2180 1446L2180 952L1550 952ZM1096 1522L1122 1462L1406 1462L1406 1522L1096 1522ZM1382 1478L1382 1462L1396 1462L1408 1460L1446 1472Q1404 1882 1290 2133Q1176 2384 1002 2512L1002 2512Q998 2504 989 2496Q980 2488 972 2479Q964 2470 958 2466L958 2466Q1128 2346 1237 2105Q1346 1864 1382 1478L1382 1478ZM1068 1556L1068 1556Q1066 1548 1061 1537Q1056 1526 1051 1516Q1046 1506 1040 1498L1040 1498Q1062 1494 1090 1462Q1118 1430 1146 1386L1146 1386Q1166 1356 1213 1277Q1260 1198 1313 1093Q1366 988 1404 882L1404 882L1404 874L1430 858L1476 886Q1392 1066 1303 1231Q1214 1396 1124 1516L1124 1516L1124 1518Q1124 1518 1116 1521Q1108 1524 1096 1529Q1084 1534 1076 1541Q1068 1548 1068 1556Z"/>
  </svg>