<svg xmlns="http://www.w3.org/2000/svg" viewBox="0 0 3000 3000" width="3000" height="3000">
    <path fill="#000000" d="M626.62 997.65L626.62 997.65Q639.37 982.35 654.04 986.81Q668.70 991.27 695.47 1020.60L695.47 1020.60Q718.42 1043.55 722.25 1053.75Q726.07 1063.95 719.70 1085.63L719.70 1085.63Q714.60 1102.20 710.77 1168.50L710.77 1168.50Q708.22 1230.97 712.05 1230.97L712.05 1230.97Q714.60 1230.97 717.15 1229.70L717.15 1229.70Q731.17 1222.05 815.96 1134.71Q900.75 1047.38 907.12 1035.90L907.12 1035.90Q923.70 1000.20 963.22 1016.77L963.22 1016.77Q995.10 1029.52 1005.30 1065.22L1005.30 1065.22Q1019.32 1108.57 970.87 1131.52L970.87 1131.52Q946.65 1143 909.67 1177.42L909.67 1177.42Q831.90 1251.38 821.70 1251.38L821.70 1251.38Q815.32 1251.38 802.57 1265.40Q789.82 1279.42 775.80 1284.53L775.80 1284.53Q766.87 1288.35 764.96 1292.17Q763.05 1296 767.51 1298.55Q771.97 1301.10 782.17 1299.82L782.17 1299.82Q800.02 1296 845.92 1292.17L845.92 1292.17Q930.07 1285.80 933.90 1270.50L933.90 1270.50Q937.72 1262.85 956.21 1259.66Q974.70 1256.47 1012.95 1248.82L1012.95 1248.82L1049.92 1243.72L1070.32 1260.30Q1092 1275.60 1111.13 1285.80Q1130.25 1296 1132.80 1305.56Q1135.35 1315.13 1141.72 1327.88Q1148.10 1340.63 1143 1355.92L1143 1355.92Q1139.17 1366.13 1134.71 1368.67Q1130.25 1371.22 1114.95 1368.67L1114.95 1368.67Q1042.27 1364.85 972.15 1373.78L972.15 1373.78L882.90 1383.97Q845.92 1389.07 816.60 1400.55Q787.27 1412.03 787.27 1420.95L787.27 1420.95Q787.27 1434.97 881.62 1519.76Q975.97 1604.55 1011.67 1621.13L1011.67 1621.13Q1123.88 1677.22 1134.07 1692.53L1134.07 1692.53Q1141.72 1700.17 1147.46 1700.17Q1153.20 1700.17 1169.14 1711.65Q1185.07 1723.13 1214.40 1733.33L1214.40 1733.33Q1267.95 1752.45 1320.22 1777.95Q1372.50 1803.45 1386.52 1818.75L1386.52 1818.75Q1409.47 1840.42 1404.38 1867.20L1404.38 1867.20Q1401.82 1877.40 1359.11 1880.59Q1316.40 1883.78 1303.01 1891.42Q1289.62 1899.08 1285.80 1896.53L1285.80 1896.53Q1283.25 1895.25 1264.76 1903.54Q1246.27 1911.83 1234.80 1919.47L1234.80 1919.47Q1197.82 1946.25 1130.25 1901.63L1130.25 1901.63Q1095.82 1879.95 1092.64 1874.21Q1089.45 1868.47 1060.13 1850.63L1060.13 1850.63Q1033.35 1831.50 972.15 1773.49Q910.95 1715.47 870.15 1667.03Q829.35 1618.58 826.16 1616.03Q822.97 1613.47 788.55 1567.57L788.55 1567.57Q704.40 1461.75 694.20 1460.47L694.20 1460.47Q691.65 1460.47 687.82 1464.30L687.82 1464.30Q685.27 1469.40 682.72 1563.75L682.72 1563.75L677.62 1751.17Q676.35 1816.20 676.99 1830.86Q677.62 1845.53 684.00 1845.53L684.00 1845.53Q694.20 1845.53 710.77 1830.22L710.77 1830.22Q770.70 1779.22 805.12 1771.58L805.12 1771.58Q815.32 1767.75 817.87 1770.94Q820.42 1774.13 820.42 1789.42L820.42 1789.42Q820.42 1808.55 809.59 1832.14Q798.75 1855.72 783.45 1869.75L783.45 1869.75Q770.70 1882.50 770.70 1889.51Q770.70 1896.53 765.60 1896.53L765.60 1896.53Q759.22 1896.53 724.80 1946.25Q690.37 1995.97 675.07 2022.75L675.07 2022.75Q655.95 2055.90 641.92 2069.29Q627.90 2082.68 607.50 2082.68L607.50 2082.68Q574.35 2082.68 556.50 2055.26Q538.65 2027.85 538.65 1978.13L538.65 1978.13Q538.65 1938.60 543.75 1927.13L543.75 1927.13Q555.22 1909.28 575.62 1854.45L575.62 1854.45Q587.10 1828.95 596.02 1645.35Q604.95 1461.75 597.30 1455.38L597.30 1455.38Q587.10 1449 529.72 1470.04Q472.35 1491.07 448.12 1508.92L448.12 1508.92Q432.82 1520.40 432.82 1528.05L432.82 1528.05Q432.82 1536.97 420.71 1542.71Q408.60 1548.45 394.57 1548.45L394.57 1548.45Q375.45 1548.45 349.95 1522.95L349.95 1522.95Q310.42 1479.60 324.45 1460.47L324.45 1460.47Q328.27 1452.82 378.00 1427.96Q427.72 1403.10 460.87 1391.63L460.87 1391.63L547.57 1359.75L598.57 1343.17L603.67 1271.78Q607.50 1201.65 609.41 1117.50Q611.32 1033.35 611.96 1022.51Q612.60 1011.67 626.62 997.65ZM2030.40 1766.47L2030.40 1766.47Q2039.33 1761.38 2099.25 1769.03L2099.25 1769.03Q2142.60 1775.40 2162.36 1784.96Q2182.13 1794.53 2192.32 1811.10L2192.32 1811.10Q2202.53 1828.95 2199.34 1850.63Q2196.15 1872.30 2183.40 1888.88L2183.40 1888.88Q2175.75 1896.53 2169.38 1898.44Q2163 1900.35 2146.43 1899.08L2146.43 1899.08Q2114.55 1895.25 2063.55 1846.80L2063.55 1846.80Q2052.07 1836.60 2048.25 1836.60L2048.25 1836.60Q2041.88 1836.60 2032.31 1825.13Q2022.75 1813.65 2020.20 1803.45L2020.20 1803.45Q2012.55 1777.95 2030.40 1766.47ZM2259.90 1516.57L2259.90 1516.57Q2273.93 1496.17 2313.45 1522.95L2313.45 1522.95Q2341.50 1540.80 2349.79 1551Q2358.07 1561.20 2358.07 1573.95L2358.07 1573.95L2358.07 1590.53L2396.32 1590.53Q2434.57 1589.25 2462.63 1596.90Q2490.68 1604.55 2493.23 1618.58L2493.23 1618.58Q2499.60 1637.70 2486.85 1658.10Q2474.10 1678.50 2456.25 1678.50L2456.25 1678.50Q2443.50 1678.50 2423.10 1669.58L2423.10 1669.58Q2379.75 1647.90 2368.28 1669.58L2368.28 1669.58Q2360.63 1681.05 2361.90 1826.40L2361.90 1826.40L2363.18 1969.20L2350.43 2011.28Q2341.50 2040.60 2333.85 2052.71Q2326.20 2064.82 2307.07 2085.22L2307.07 2085.22Q2277.75 2115.82 2266.28 2119.01Q2254.80 2122.20 2249.70 2131.13L2249.70 2131.13Q2242.05 2145.15 2205.07 2134.95L2205.07 2134.95Q2184.68 2129.85 2178.30 2115.82L2178.30 2115.82Q2150.25 2054.63 2123.47 2039.33L2123.47 2039.33Q2105.63 2030.40 2081.40 2011.28L2081.40 2011.28Q2058.45 1994.70 2063.55 1992.15L2063.55 1992.15Q2064.82 1990.88 2069.93 1988.33L2069.93 1988.33Q2080.13 1983.22 2106.90 1989.60L2106.90 1989.60Q2168.10 2003.63 2207.63 1984.50L2207.63 1984.50Q2208.90 1983.22 2210.18 1983.22L2210.18 1983.22Q2242.05 1966.65 2247.15 1945.61Q2252.25 1924.58 2250.97 1812.38L2250.97 1812.38Q2250.97 1808.55 2250.97 1806L2250.97 1806Q2250.97 1775.40 2250.97 1755.64Q2250.97 1735.88 2250.34 1719.30Q2249.70 1702.72 2249.70 1693.80Q2249.70 1684.88 2248.43 1678.50Q2247.15 1672.13 2246.51 1670.21Q2245.88 1668.30 2244.60 1668.30L2244.60 1668.30Q2238.22 1670.85 2210.81 1671.49Q2183.40 1672.13 2173.20 1677.22Q2163 1682.33 2134.95 1688.70Q2106.90 1695.08 2090.32 1710.38L2090.32 1710.38Q2062.28 1738.42 2036.78 1720.58L2036.78 1720.58Q2026.58 1714.20 2022.11 1700.81Q2017.65 1687.42 2021.47 1673.40L2021.47 1673.40Q2025.30 1660.65 2066.74 1645.35Q2108.18 1630.05 2163 1621.13L2163 1621.13Q2248.43 1605.83 2253.53 1599.45L2253.53 1599.45Q2256.07 1595.63 2255.44 1561.20Q2254.80 1526.78 2259.90 1516.57ZM2101.80 1042.27L2114.55 997.65Q2122.20 972.15 2122.20 956.21Q2122.20 940.27 2131.13 934.54Q2140.05 928.80 2148.97 928.80L2148.97 928.80Q2156.63 928.80 2178.94 946.01Q2201.25 963.22 2201.25 969.60L2201.25 969.60Q2201.25 974.70 2215.28 990.00L2215.28 990.00Q2228.03 1001.47 2228.66 1013.59Q2229.30 1025.70 2219.10 1046.10L2219.10 1046.10Q2208.90 1066.50 2214 1069.69Q2219.10 1072.88 2289.86 1069.05Q2360.63 1065.22 2377.20 1055.02L2377.20 1055.02Q2391.23 1044.82 2410.35 1046.10Q2429.48 1047.38 2442.23 1060.13L2442.23 1060.13Q2453.70 1070.32 2453.70 1100.92L2453.70 1100.92Q2452.43 1149.38 2428.20 1158.30L2428.20 1158.30Q2415.45 1163.40 2370.82 1146.82L2370.82 1146.82Q2350.43 1139.17 2281.57 1141.09Q2212.72 1143 2203.80 1145.55L2203.80 1145.55Q2192.32 1148.10 2184.68 1167.86Q2177.03 1187.63 2177.03 1205.47L2177.03 1205.47L2177.03 1223.32L2224.20 1220.77Q2272.65 1215.67 2287.95 1209.30L2287.95 1209.30Q2303.25 1202.92 2316 1206.11Q2328.75 1209.30 2358.07 1228.42L2358.07 1228.42Q2382.30 1242.45 2384.85 1259.03L2384.85 1259.03Q2389.95 1283.25 2374.65 1300.46Q2359.35 1317.67 2335.13 1312.57L2335.13 1312.57Q2289.23 1304.92 2220.38 1315.13L2220.38 1315.13Q2188.50 1321.50 2169.38 1322.78L2169.38 1322.78Q2151.53 1325.32 2145.15 1331.70Q2138.78 1338.07 2132.40 1361.03L2132.40 1361.03Q2128.57 1376.32 2127.30 1385.25Q2126.03 1394.17 2126.03 1399.28Q2126.03 1404.38 2127.94 1405.01Q2129.85 1405.65 2134.95 1405.65L2134.95 1405.65Q2276.48 1392.90 2410.35 1395.45L2410.35 1395.45Q2483.03 1396.72 2494.50 1390.35L2494.50 1390.35Q2509.80 1381.42 2532.75 1383.97Q2555.70 1386.53 2574.82 1396.72L2574.82 1396.72Q2593.95 1408.20 2602.88 1417.76Q2611.80 1427.32 2616.90 1441.35L2616.90 1441.35Q2623.28 1463.03 2614.99 1484.06Q2606.70 1505.10 2587.57 1511.47L2587.57 1511.47Q2571 1519.13 2512.35 1497.45L2512.35 1497.45Q2443.50 1473.22 2338.95 1473.22L2338.95 1473.22Q2284.13 1473.22 2211.45 1477.69Q2138.78 1482.15 2115.82 1488.52L2115.82 1488.52Q2097.97 1492.35 2085.86 1508.29Q2073.75 1524.22 2050.80 1571.40L2050.80 1571.40Q2041.88 1593.07 2017.65 1626.22L2017.65 1626.22Q2004.90 1645.35 2004.90 1651.09Q2004.90 1656.83 1982.59 1683.60Q1960.28 1710.38 1948.80 1727.59Q1937.33 1744.80 1925.21 1753.09Q1913.10 1761.38 1900.35 1771.58L1900.35 1771.58L1858.28 1809.83Q1827.67 1836.60 1802.17 1857Q1776.67 1877.40 1770.30 1885.05L1770.30 1885.05Q1756.28 1896.53 1713.56 1923.30Q1670.85 1950.08 1663.20 1950.08L1663.20 1950.08L1654.28 1950.08L1664.47 1937.33Q1674.67 1927.13 1679.78 1916.92L1679.78 1916.92Q1692.53 1891.42 1763.92 1813.65L1763.92 1813.65Q1853.17 1718.03 1893.97 1646.63L1893.97 1646.63Q1922.03 1599.45 1939.88 1561.20Q1957.72 1522.95 1953.90 1519.13L1953.90 1519.13Q1948.80 1514.03 1913.10 1529.32Q1877.40 1544.63 1865.92 1557.38L1865.92 1557.38Q1853.17 1571.40 1830.22 1571.40Q1807.28 1571.40 1794.53 1561.84Q1781.78 1552.28 1776.04 1552.28Q1770.30 1552.28 1762.65 1524.22L1762.65 1524.22L1755 1497.45L1784.33 1482.15Q1828.95 1460.47 1946.25 1438.80L1946.25 1438.80L1992.15 1431.15L2003.63 1400.55L2012.55 1369.95L1993.43 1367.40Q1975.58 1363.57 1973.03 1355.29Q1970.47 1347 1955.18 1338.07L1955.18 1338.07Q1946.25 1332.97 1943.70 1328.51Q1941.15 1324.05 1941.15 1311.30L1941.15 1311.30Q1941.15 1284.53 1959 1271.78Q1976.85 1259.03 2021.47 1253.92L2021.47 1253.92L2050.80 1248.82L2061 1209.30Q2072.47 1168.50 2069.93 1165.95L2069.93 1165.95Q2063.55 1160.85 2029.76 1169.14Q1995.98 1177.42 1992.15 1185.07L1992.15 1185.07Q1989.60 1194 1973.66 1195.27Q1957.72 1196.55 1947.53 1190.17L1947.53 1190.17Q1924.58 1176.15 1918.20 1166.59Q1911.83 1157.02 1911.83 1140.45L1911.83 1140.45Q1911.83 1126.42 1913.74 1121.96Q1915.65 1117.50 1924.58 1113.67L1924.58 1113.67Q1964.10 1098.38 2040.60 1092L2040.60 1092Q2076.30 1089.45 2083.95 1082.44Q2091.60 1075.42 2101.80 1042.27L2101.80 1042.27Z"/>
  </svg>