<svg xmlns="http://www.w3.org/2000/svg" viewBox="0 0 3000 3000" width="3000" height="3000">
    <path fill="#000000" d="M793.65 1575.86L793.65 1575.86L1160.85 1558.01Q1157.02 1563.11 1153.20 1570.76L1153.20 1570.76Q1146.82 1586.06 1114.31 1613.48Q1081.80 1640.89 1035.26 1670.21Q988.72 1699.54 944.10 1722.49L944.10 1722.49Q857.40 1651.09 793.65 1575.86ZM1194 1556.74L1194 1556.74L1391.63 1546.54Q1406.92 1545.26 1418.40 1539.53Q1429.88 1533.79 1429.88 1519.76Q1429.88 1505.74 1415.85 1490.44Q1401.82 1475.14 1384.61 1464.94Q1367.40 1454.74 1357.84 1454.74Q1348.27 1454.74 1344.45 1456.01L1344.45 1456.01Q1325.32 1462.39 1297.27 1464.94L1297.27 1464.94L680.17 1495.54L681.45 1406.29L1145.55 1383.34Q1160.85 1382.06 1171.69 1376.96Q1182.52 1371.86 1182.52 1359.11Q1182.52 1346.36 1169.77 1331.70Q1157.02 1317.04 1141.09 1306.20Q1125.15 1295.36 1111.13 1295.36L1111.13 1295.36Q1102.20 1295.36 1098.38 1296.64L1098.38 1296.64Q1079.25 1303.01 1051.20 1305.56L1051.20 1305.56L681.45 1322.14L682.72 1262.21L1145.55 1235.44Q1160.85 1234.16 1171.69 1229.06Q1182.52 1223.96 1182.52 1211.21Q1182.52 1198.46 1170.41 1184.44Q1158.30 1170.41 1142.36 1158.94Q1126.42 1147.46 1111.13 1147.46L1111.13 1147.46Q1107.30 1147.46 1104.11 1148.10Q1100.92 1148.74 1098.38 1150.01L1098.38 1150.01Q1088.17 1153.84 1075.42 1155.75Q1062.67 1157.66 1051.20 1158.94L1051.20 1158.94L682.72 1180.61L684.00 1109.21L1216.95 1077.34Q1232.25 1076.06 1243.09 1070.96Q1253.92 1065.86 1253.92 1051.84Q1253.92 1037.81 1241.81 1022.51Q1229.70 1007.21 1213.76 997.65Q1197.82 988.09 1183.80 988.09L1183.80 988.09Q1177.42 988.09 1171.05 990.64L1171.05 990.64Q1160.85 994.46 1148.10 996.38Q1135.35 998.29 1122.60 999.56L1122.60 999.56L676.35 1026.34Q641.92 1008.49 620.89 1001.48Q599.85 994.46 588.37 994.46L588.37 994.46Q569.25 994.46 569.25 1011.04L569.25 1011.04Q569.25 1017.41 571.80 1024.42Q574.35 1031.44 576.90 1039.09L576.90 1039.09Q583.27 1054.39 585.19 1071.60Q587.10 1088.81 587.10 1105.39L587.10 1105.39L587.10 1499.36L381.82 1509.56Q376.72 1509.56 372.26 1510.20Q367.80 1510.84 362.70 1510.84L362.70 1510.84Q341.02 1510.84 325.72 1505.74L325.72 1505.74Q320.62 1504.46 312.97 1504.46L312.97 1504.46Q296.40 1504.46 296.40 1519.76L296.40 1519.76Q296.40 1526.14 300.22 1537.61L300.22 1537.61Q309.15 1563.11 334.65 1587.34L334.65 1587.34Q344.85 1594.99 369.07 1594.99L369.07 1594.99Q378.00 1594.99 387.56 1594.35Q397.12 1593.71 408.60 1593.71L408.60 1593.71L541.20 1588.61L537.37 1966.01Q485.10 1977.49 457.05 1983.23Q429.00 1988.96 420.07 1990.24Q411.15 1991.51 403.50 1991.51L403.50 1991.51Q381.82 1991.51 381.82 2008.09L381.82 2008.09Q381.82 2013.19 390.75 2032.31Q399.67 2051.44 416.25 2070.56Q432.82 2089.69 459.60 2089.69L459.60 2089.69Q474.90 2089.69 522.71 2075.03Q570.52 2060.36 637.46 2035.50Q704.40 2010.64 779.62 1980.04Q854.85 1949.44 926.25 1916.29L926.25 1916.29Q965.77 1898.44 965.77 1876.76L965.77 1876.76Q965.77 1858.91 939.00 1858.91L939.00 1858.91Q927.52 1858.91 904.57 1865.29L904.57 1865.29Q831.90 1889.51 761.14 1909.28Q690.37 1929.04 633.00 1944.34L633.00 1944.34L638.10 1583.51L685.27 1580.96Q780.90 1696.99 881.62 1781.14Q982.35 1865.29 1072.88 1918.84Q1163.40 1972.39 1235.44 2002.99Q1307.47 2033.59 1349.55 2045.06L1349.55 2045.06L1392.90 2057.81Q1410.75 2057.81 1427.32 2043.79Q1443.90 2029.76 1456.65 2013.83Q1469.40 1997.89 1469.40 1991.51L1469.40 1991.51Q1469.40 1976.21 1433.70 1967.29L1433.70 1967.29Q1316.40 1939.24 1208.02 1888.24Q1099.65 1837.24 1016.77 1777.31L1016.77 1777.31Q1062.67 1753.09 1113.67 1723.76Q1164.67 1694.44 1199.10 1669.58Q1233.52 1644.71 1233.52 1629.41L1233.52 1629.41Q1233.52 1621.76 1225.88 1603.28Q1218.22 1584.79 1205.47 1568.21L1205.47 1568.21Q1200.38 1560.56 1194 1556.74ZM2226.75 1968.56L2226.75 1968.56Q2240.78 1985.14 2252.25 1985.14Q2263.73 1985.14 2273.93 1973.03Q2284.13 1960.91 2291.14 1948.80Q2298.15 1936.69 2298.15 1930.31L2298.15 1930.31Q2298.15 1920.11 2281.57 1902.90Q2265 1885.69 2243.32 1867.84Q2221.65 1849.99 2201.25 1837.24L2201.25 1837.24Q2189.78 1830.86 2182.13 1827.04L2182.13 1827.04L2375.93 1818.11L2378.48 2013.19Q2349.15 2010.64 2313.45 2004.26Q2277.75 1997.89 2249.70 1991.51L2249.70 1991.51Q2233.13 1987.69 2220.38 1987.69L2220.38 1987.69Q2198.70 1987.69 2198.70 2001.71L2198.70 2001.71Q2198.70 2017.01 2233.13 2038.69L2233.13 2038.69Q2256.07 2051.44 2291.78 2069.29Q2327.48 2087.14 2361.26 2099.25Q2395.05 2111.36 2410.35 2111.36L2410.35 2111.36Q2440.95 2111.36 2453.06 2087.78Q2465.18 2064.19 2465.18 2046.34L2465.18 2046.34Q2465.18 2038.69 2463.90 2030.40Q2462.63 2022.11 2462.63 2013.19L2462.63 2013.19L2461.35 1814.29L2602.88 1807.91L2606.70 1807.91Q2637.30 1804.09 2637.30 1784.96L2637.30 1784.96Q2637.30 1773.49 2626.46 1759.46Q2615.63 1745.44 2601.60 1733.33Q2587.57 1721.21 2573.55 1721.21L2573.55 1721.21Q2567.18 1721.21 2562.07 1723.76L2562.07 1723.76Q2541.68 1733.96 2521.28 1733.96L2521.28 1733.96L2460.07 1736.51L2460.07 1718.66Q2460.07 1699.54 2451.79 1691.25Q2443.50 1682.96 2420.55 1674.04L2420.55 1674.04Q2415.45 1671.49 2410.35 1668.94L2410.35 1668.94L2688.30 1657.46Q2721.45 1653.64 2721.45 1631.96L2721.45 1631.96Q2721.45 1616.66 2708.06 1602Q2694.68 1587.34 2678.74 1577.78Q2662.80 1568.21 2653.88 1568.21L2653.88 1568.21Q2651.32 1568.21 2650.05 1568.85Q2648.78 1569.49 2647.50 1569.49L2647.50 1569.49Q2637.30 1572.04 2625.82 1574.59Q2614.35 1577.14 2604.15 1578.41L2604.15 1578.41L1663.20 1617.94L1649.17 1617.94Q1636.42 1617.94 1624.31 1616.66Q1612.20 1615.39 1603.28 1612.84L1603.28 1612.84Q1599.45 1611.56 1595.63 1611.56L1595.63 1611.56Q1580.33 1611.56 1580.33 1626.86L1580.33 1626.86Q1580.33 1631.96 1581.60 1635.79L1581.60 1635.79Q1596.90 1681.69 1618.58 1691.25Q1640.25 1700.81 1655.55 1700.81L1655.55 1700.81Q1664.47 1700.81 1674.04 1700.18Q1683.60 1699.54 1692.53 1699.54L1692.53 1699.54L2360.63 1671.49Q2360.63 1672.76 2360.63 1672.76L2360.63 1672.76Q2360.63 1686.79 2367 1700.81L2367 1700.81Q2369.55 1708.46 2372.10 1720.58Q2374.65 1732.69 2375.93 1740.34L2375.93 1740.34L2128.57 1751.81Q2124.75 1753.09 2115.82 1753.09L2115.82 1753.09Q2099.25 1753.09 2078.85 1746.71L2078.85 1746.71Q2072.47 1744.16 2068.65 1744.16L2068.65 1744.16Q2058.45 1744.16 2055.90 1753.09L2055.90 1753.09Q2055.90 1753.09 2055.90 1751.81L2055.90 1751.81Q2043.15 1736.51 2018.93 1736.51L2018.93 1736.51L2006.18 1736.51L1809.83 1744.16Q1781.78 1731.41 1762.65 1726.31Q1743.53 1721.21 1733.33 1721.21L1733.33 1721.21Q1714.20 1721.21 1714.20 1736.51L1714.20 1736.51Q1714.20 1745.44 1725.67 1763.29L1725.67 1763.29Q1729.50 1770.94 1734.60 1788.15Q1739.70 1805.36 1740.97 1820.66L1740.97 1820.66L1749.90 1915.01Q1751.17 1920.11 1751.17 1924.58Q1751.17 1929.04 1751.17 1934.14L1751.17 1934.14Q1751.17 1945.61 1750.54 1955.81Q1749.90 1966.01 1748.63 1977.49L1748.63 1977.49L1748.63 1981.31Q1748.63 1997.89 1762.01 2008.09Q1775.40 2018.29 1790.70 2022.75Q1806 2027.21 1812.38 2027.21L1812.38 2027.21Q1837.88 2027.21 1837.88 1996.61L1837.88 1996.61L1837.88 1992.79L1836.60 1969.84L2026.58 1963.46Q2041.88 1962.19 2055.26 1959.64Q2068.65 1957.09 2068.65 1941.79L2068.65 1941.79Q2068.65 1932.86 2061.64 1920.75Q2054.63 1908.64 2040.60 1894.61L2040.60 1894.61L2059.72 1802.81Q2061 1798.99 2063.55 1792.61L2063.55 1792.61Q2064.82 1790.06 2066.10 1787.51L2066.10 1787.51Q2073.75 1802.81 2086.50 1818.11L2086.50 1818.11Q2092.88 1824.49 2102.44 1827.04Q2112 1829.59 2124.75 1829.59L2124.75 1829.59Q2131.13 1829.59 2139.41 1828.95Q2147.70 1828.31 2156.63 1828.31L2156.63 1828.31L2156.63 1828.31Q2151.53 1830.86 2145.15 1835.96L2145.15 1835.96Q2132.40 1848.71 2132.40 1867.84L2132.40 1867.84Q2132.40 1878.04 2146.43 1890.79L2146.43 1890.79Q2165.55 1906.09 2188.50 1927.76Q2211.45 1949.44 2226.75 1968.56ZM1822.58 1819.39L1971.75 1814.29L1965.38 1889.51L1828.95 1895.89L1822.58 1819.39ZM1863.38 1574.59L1863.38 1574.59L2469 1545.26Q2480.48 1543.99 2490.04 1538.89Q2499.60 1533.79 2499.60 1522.31L2499.60 1522.31Q2499.60 1512.11 2486.85 1498.09Q2474.10 1484.06 2459.44 1472.59Q2444.78 1461.11 2434.57 1461.11L2434.57 1461.11Q2429.48 1461.11 2425.65 1462.39L2425.65 1462.39Q2418 1464.94 2406.53 1468.13Q2395.05 1471.31 2384.85 1472.59L2384.85 1472.59L2182.13 1482.79L2183.40 1440.71L2398.88 1427.96L2402.70 1427.96Q2432.03 1424.14 2432.03 1405.01L2432.03 1405.01Q2432.03 1389.71 2418.64 1376.96Q2405.25 1364.21 2388.68 1355.93Q2372.10 1347.64 2364.45 1347.64L2364.45 1347.64Q2361.90 1347.64 2360.63 1348.28Q2359.35 1348.91 2358.07 1348.91L2358.07 1348.91Q2349.15 1351.46 2337.68 1354.65Q2326.20 1357.84 2316 1359.11L2316 1359.11L1913.10 1380.79L1897.80 1380.79Q1885.05 1380.79 1873.58 1379.51Q1862.10 1378.24 1853.17 1375.69L1853.17 1375.69Q1849.35 1374.41 1845.53 1374.41L1845.53 1374.41Q1830.22 1374.41 1830.22 1389.71L1830.22 1389.71Q1830.22 1393.54 1831.50 1397.36L1831.50 1397.36Q1840.42 1421.59 1865.92 1445.81L1865.92 1445.81Q1876.13 1454.74 1900.35 1454.74L1900.35 1454.74Q1908 1454.74 1916.93 1454.10Q1925.85 1453.46 1934.78 1453.46L1934.78 1453.46L2091.60 1445.81L2092.88 1485.34L1839.15 1498.09L1823.85 1498.09Q1811.10 1498.09 1799.63 1496.81Q1788.15 1495.54 1779.22 1492.99L1779.22 1492.99Q1775.40 1491.71 1771.58 1491.71L1771.58 1491.71Q1756.28 1491.71 1756.28 1507.01L1756.28 1507.01Q1756.28 1510.84 1757.55 1514.66L1757.55 1514.66Q1771.58 1559.29 1793.25 1567.58Q1814.92 1575.86 1828.95 1575.86L1828.95 1575.86Q1836.60 1575.86 1845.53 1575.22Q1854.45 1574.59 1863.38 1574.59ZM1734.60 1352.74L1734.60 1352.74L2558.25 1308.11Q2551.88 1319.59 2528.93 1353.38Q2505.98 1387.16 2485.58 1412.66L2485.58 1412.66Q2467.73 1435.61 2467.73 1450.91L2467.73 1450.91Q2467.73 1467.49 2485.58 1467.49Q2503.43 1467.49 2529.56 1446.45Q2555.70 1425.41 2581.84 1398Q2607.98 1370.59 2629.01 1347.64Q2650.05 1324.69 2654.51 1318.31Q2658.98 1311.94 2669.18 1303.01Q2679.38 1294.09 2679.38 1278.79L2679.38 1278.79Q2679.38 1262.21 2658.98 1241.81Q2638.57 1221.41 2606.70 1221.41L2606.70 1221.41L2595.23 1221.41L1700.17 1273.69L1687.42 1273.69Q1675.95 1273.69 1667.03 1272.41Q1658.10 1271.14 1649.17 1267.31L1649.17 1267.31Q1640.25 1264.76 1637.70 1264.76L1637.70 1264.76Q1622.40 1264.76 1622.40 1280.06L1622.40 1280.06Q1622.40 1291.54 1632.60 1310.03Q1642.80 1328.51 1653 1339.99L1653 1339.99Q1660.65 1348.91 1674.04 1351.46Q1687.42 1354.01 1702.72 1354.01L1702.72 1354.01Q1710.38 1354.01 1718.66 1353.38Q1726.95 1352.74 1734.60 1352.74ZM1955.18 1221.41L1955.18 1221.41L2432.03 1194.64Q2443.50 1193.36 2453.06 1188.90Q2462.63 1184.44 2462.63 1172.96L2462.63 1172.96Q2462.63 1165.31 2451.15 1151.29Q2439.68 1137.26 2424.38 1125.15Q2409.07 1113.04 2396.32 1113.04L2396.32 1113.04Q2389.95 1113.04 2387.40 1115.59L2387.40 1115.59Q2381.03 1116.86 2369.55 1120.05Q2358.07 1123.24 2347.88 1124.51L2347.88 1124.51L2194.88 1133.44L2196.15 1091.36L2549.32 1070.96Q2578.65 1067.14 2578.65 1049.29Q2578.65 1031.44 2564.63 1018.05Q2550.60 1004.66 2535.30 995.74Q2520 986.81 2513.63 986.81Q2507.25 986.81 2504.70 989.36L2504.70 989.36Q2488.13 995.74 2465.18 998.29L2465.18 998.29L2197.43 1013.59L2198.70 970.24Q2198.70 952.39 2189.78 942.19Q2180.85 931.99 2152.80 923.06L2152.80 923.06Q2136.22 919.24 2124.11 916.69Q2112 914.14 2103.07 914.14L2103.07 914.14Q2081.40 914.14 2081.40 930.71L2081.40 930.71Q2081.40 938.36 2087.78 948.56L2087.78 948.56Q2096.70 961.31 2100.53 973.42Q2104.35 985.54 2104.35 1000.84L2104.35 1000.84L2104.35 1018.69L1803.45 1036.54L1786.88 1036.54Q1761.38 1036.54 1743.53 1031.44L1743.53 1031.44Q1739.70 1030.16 1735.88 1030.16L1735.88 1030.16Q1720.58 1030.16 1720.58 1045.46L1720.58 1045.46Q1720.58 1049.29 1721.85 1053.11L1721.85 1053.11Q1735.88 1099.01 1758.19 1106.66Q1780.50 1114.31 1790.70 1114.31L1790.70 1114.31Q1797.08 1114.31 1806.64 1113.67Q1816.20 1113.04 1825.13 1113.04L1825.13 1113.04L2104.35 1096.46L2104.35 1138.54L1933.50 1147.46L1918.20 1147.46Q1905.45 1147.46 1893.97 1146.19Q1882.50 1144.91 1873.58 1142.36L1873.58 1142.36Q1869.75 1141.09 1865.92 1141.09L1865.92 1141.09Q1850.63 1141.09 1850.63 1156.39L1850.63 1156.39Q1850.63 1160.21 1851.90 1164.04L1851.90 1164.04Q1865.92 1207.39 1888.24 1215.04Q1910.55 1222.69 1920.75 1222.69L1920.75 1222.69Q1927.13 1222.69 1936.69 1222.05Q1946.25 1221.41 1955.18 1221.41Z"/>
  </svg>