<svg xmlns="http://www.w3.org/2000/svg" viewBox="0 0 3000 3000" width="3000" height="3000">
    <path fill="#000000" d="M744 970L744 912L2280 912L2280 970L744 970ZM818 1248L818 1190L2196 1190L2196 1248L818 1248ZM618 1542L618 1484L2384 1484L2384 1542L618 1542ZM1142 1858L1142 1800L2334 1800L2334 1858L1142 1858ZM1930 2406L1930 1568L1988 1568L1988 2404Q1988 2448 1974 2467Q1960 2486 1924 2496L1924 2496Q1886 2504 1808 2505Q1730 2506 1600 2506L1600 2506Q1596 2494 1589 2477Q1582 2460 1572 2446L1572 2446Q1692 2450 1775 2450Q1858 2450 1886 2448L1886 2448Q1914 2446 1922 2437Q1930 2428 1930 2406L1930 2406ZM1416 710L1416 710L1476 718Q1418 1094 1322 1388Q1226 1682 1067 1903Q908 2124 658 2284L658 2284Q654 2278 646 2269Q638 2260 629 2251Q620 2242 612 2236L612 2236Q860 2088 1017 1871Q1174 1654 1268 1364Q1362 1074 1416 710ZM1170 1982L1170 1982L1218 1950Q1276 1998 1336 2057Q1396 2116 1448 2172Q1500 2228 1532 2272L1532 2272L1482 2308Q1450 2264 1398 2207Q1346 2150 1287 2091Q1228 2032 1170 1982Z"/>
  </svg>