<svg xmlns="http://www.w3.org/2000/svg" viewBox="0 0 3000 3000" width="3000" height="3000">
    <path fill="#000000" d="M300.22 1654.28L300.22 1617.30L1426.05 1617.30L1426.05 1654.28L300.22 1654.28ZM556.50 1280.70L556.50 1243.72L1266.67 1243.72L1266.67 1280.70L556.50 1280.70ZM556.50 1465.58L556.50 1428.60L1266.67 1428.60L1266.67 1465.58L556.50 1465.58ZM786.00 1638.97L819.15 1626.22Q895.65 1812.38 1061.40 1932.86Q1227.15 2053.35 1457.92 2096.70L1457.92 2096.70Q1454.10 2100.53 1449.64 2106.90Q1445.17 2113.28 1441.35 2119.01Q1437.52 2124.75 1434.97 2129.85L1434.97 2129.85Q1281.97 2096.70 1155.11 2030.40Q1028.25 1964.10 934.54 1865.29Q840.82 1766.48 786.00 1638.97L786.00 1638.97ZM1318.95 1692.53L1318.95 1692.53L1350.82 1711.65Q1302.37 1748.63 1241.81 1786.24Q1181.25 1823.85 1119.41 1857.64Q1057.57 1891.43 1002.75 1918.20L1002.75 1918.20L974.70 1896.53Q1028.25 1869.75 1092 1834.69Q1155.75 1799.63 1216.31 1762.01Q1276.87 1724.40 1318.95 1692.53ZM536.10 1632.60L536.10 1055.03L1311.30 1055.03L1311.30 1092L574.35 1092L574.35 1632.60L536.10 1632.60ZM492.75 2142.60L492.75 2142.60L492.75 2108.18L520.80 2082.68L979.80 1959Q981.07 1966.65 981.71 1975.58Q982.35 1984.50 983.62 1990.88L983.62 1990.88Q854.85 2027.85 768.79 2052.71Q682.72 2077.58 631.09 2092.88Q579.45 2108.18 552.04 2117.74Q524.62 2127.30 511.87 2132.40Q499.12 2137.50 492.75 2142.60ZM529.72 2021.48L529.72 1632.60L567.97 1632.60L567.97 2080.13L492.75 2142.60Q490.20 2137.50 486.37 2131.13Q482.55 2124.75 478.09 2118.38Q473.62 2112 468.52 2106.90L468.52 2106.90Q483.82 2099.25 506.77 2079.49Q529.72 2059.72 529.72 2021.48L529.72 2021.48ZM1616.03 1121.33L1616.03 1083.08L2664.07 1083.08L2664.07 1121.33L1616.03 1121.33ZM1563.75 1720.58L1563.75 1683.60L2712.53 1683.60L2712.53 1720.58L1563.75 1720.58ZM1586.70 1371.22L1586.70 1332.97L2661.53 1332.97L2661.53 1371.22L1586.70 1371.22ZM1691.25 1252.65L1691.25 1214.40L2581.20 1214.40L2581.20 1252.65L1691.25 1252.65ZM1772.85 1482.15L1772.85 1445.18L2498.33 1445.18L2498.33 1482.15L1772.85 1482.15ZM1670.85 1609.65L1670.85 1572.68L2606.70 1572.68L2606.70 1609.65L1670.85 1609.65ZM2087.78 1860.83L2087.78 1823.85L2667.90 1823.85L2667.90 1860.83L2087.78 1860.83ZM2117.10 1238.63L2117.10 996.38L2155.35 996.38L2155.35 1238.63L2117.10 1238.63ZM2117.10 1593.08L2117.10 1457.93L2155.35 1457.93L2155.35 1593.08L2117.10 1593.08ZM2651.32 1340.63L2651.32 1332.97L2658.98 1332.97L2667.90 1330.43L2689.57 1340.63Q2673 1383.97 2655.15 1429.24Q2637.30 1474.50 2620.73 1507.65L2620.73 1507.65L2590.13 1494.90Q2604.15 1463.03 2620.73 1422.22Q2637.30 1381.43 2651.32 1340.63L2651.32 1340.63ZM1679.78 2113.28L1679.78 1803.45L1718.03 1803.45L1718.03 2113.28L1679.78 2113.28ZM2477.93 2094.15L2477.93 1706.55L2516.18 1706.55L2516.18 2092.88Q2516.18 2113.28 2510.44 2124.11Q2504.70 2134.95 2486.85 2140.05L2486.85 2140.05Q2471.55 2145.15 2439.68 2145.79Q2407.80 2146.43 2356.80 2146.43L2356.80 2146.43Q2355.53 2140.05 2351.06 2129.85Q2346.60 2119.65 2341.50 2110.72L2341.50 2110.72Q2386.13 2112 2417.36 2112Q2448.60 2112 2460.07 2110.72L2460.07 2110.72Q2477.93 2110.72 2477.93 2094.15L2477.93 2094.15ZM2148.97 1925.85L2148.97 1925.85L2179.57 1905.45Q2214 1936.05 2249.70 1973.66Q2285.40 2011.28 2303.25 2038.05L2303.25 2038.05L2272.65 2063.55Q2252.25 2034.23 2217.19 1995.34Q2182.13 1956.45 2148.97 1925.85ZM1711.65 1840.43L1711.65 1803.45L2024.03 1803.45L2024.03 2058.45L1711.65 2058.45L1711.65 2020.20L1985.78 2020.20L1985.78 1840.43L1711.65 1840.43Z"/>
  </svg>