<svg xmlns="http://www.w3.org/2000/svg" viewBox="0 0 3000 3000" width="3000" height="3000">
    <path fill="#000000" d="M479.00 1090.36Q479.00 1026.86 506.40 999.46Q533.79 972.07 593.55 974.56L593.55 974.56L1279.61 974.56Q1335.64 974.56 1335.64 1019.38L1335.64 1019.38Q1335.64 1065.45 1279.61 1065.45L1279.61 1065.45L632.15 1065.45Q577.37 1065.45 577.37 1120.24L577.37 1120.24L577.37 1572.22L479.00 1572.22L479.00 1090.36ZM365.70 2056.57Q309.67 2056.57 309.67 2004.27L309.67 2004.27Q309.67 1980.62 328.97 1966.92Q348.27 1953.22 384.38 1949.49L384.38 1949.49Q480.25 1940.77 629.66 1915.25Q779.08 1889.72 858.76 1868.55L858.76 1868.55L884.91 1863.57Q906.08 1859.84 917.29 1873.54Q928.49 1887.23 928.49 1912.13L928.49 1912.13Q928.49 1950.73 877.44 1964.43L877.44 1964.43Q847.56 1973.14 747.95 1994.31L747.95 1994.31Q686.94 2008.01 610.99 2019.21L610.99 2019.21L532.54 2032.91Q395.58 2056.57 365.70 2056.57L365.70 2056.57ZM479.00 1956.96L479.00 1595.87L577.37 1595.87L577.37 1942.02L479.00 1956.96ZM1368.02 2056.57Q1326.93 2056.57 1198.68 2009.25L1198.68 2009.25Q871.22 1888.48 806.47 1599.61L806.47 1599.61L901.10 1598.36Q943.43 1736.57 1036.82 1814.39Q1130.20 1892.21 1285.84 1928.32L1285.84 1928.32Q1400.39 1954.47 1410.35 1961.94L1410.35 1961.94Q1420.31 1968.16 1424.67 1976.88Q1429.03 1985.60 1429.03 2000.54L1429.03 2000.54Q1429.03 2056.57 1368.02 2056.57L1368.02 2056.57ZM352.00 1617.04Q295.97 1617.04 295.97 1572.22L295.97 1572.22Q295.97 1548.56 309.67 1537.35Q323.36 1526.15 352.00 1526.15L352.00 1526.15L1373.00 1526.15Q1430.27 1526.15 1430.27 1572.22L1430.27 1572.22Q1430.27 1617.04 1373.00 1617.04L1373.00 1617.04L352.00 1617.04ZM1015.65 1822.49Q1135.18 1735.33 1194.95 1690.50L1194.95 1690.50Q1232.30 1663.11 1252.84 1652.53Q1273.39 1641.94 1290.82 1641.94L1290.82 1641.94Q1315.72 1641.94 1329.42 1655.64Q1343.12 1669.34 1341.87 1694.24L1341.87 1694.24Q1339.38 1715.41 1280.86 1756.49Q1222.34 1797.58 1112.77 1851.12L1112.77 1851.12L1079.15 1867.31L1015.65 1822.49ZM558.69 1429.03L558.69 1336.89L1242.26 1336.89Q1293.31 1336.89 1293.31 1382.96L1293.31 1382.96Q1293.31 1429.03 1242.26 1429.03L1242.26 1429.03L558.69 1429.03ZM558.69 1252.22L558.69 1160.08L1242.26 1160.08Q1293.31 1160.08 1293.31 1206.15L1293.31 1206.15Q1293.31 1252.22 1242.26 1252.22L1242.26 1252.22L558.69 1252.22ZM1735.33 1211.13Q1695.48 1211.13 1695.48 1176.27L1695.48 1176.27Q1695.48 1141.41 1735.33 1141.41L1735.33 1141.41L2078.98 1141.41L2078.98 1084.13L1641.94 1084.13Q1597.12 1084.13 1597.12 1046.78L1597.12 1046.78Q1597.12 1008.18 1641.94 1008.18L1641.94 1008.18L2078.98 1008.18L2078.98 982.03Q2078.98 929.74 2131.27 929.74L2131.27 929.74Q2183.57 929.74 2183.57 982.03L2183.57 982.03L2183.57 1008.18L2631.81 1008.18Q2675.39 1008.18 2675.39 1046.78L2675.39 1046.78Q2675.39 1084.13 2631.81 1084.13L2631.81 1084.13L2183.57 1084.13L2183.57 1141.41L2539.67 1141.41Q2579.52 1141.41 2579.52 1176.27L2579.52 1176.27Q2579.52 1211.13 2539.67 1211.13L2539.67 1211.13L1735.33 1211.13ZM1726.61 2025.44Q1634.47 2025.44 1634.47 1935.79L1634.47 1935.79L1634.47 1841.16Q1634.47 1750.27 1726.61 1750.27L1726.61 1750.27L1948.24 1750.27Q2040.38 1750.27 2040.38 1841.16L2040.38 1841.16L2040.38 1935.79Q2040.38 2025.44 1948.24 2025.44L1948.24 2025.44L1726.61 2025.44ZM1909.64 1950.73Q1942.02 1950.73 1942.02 1918.36L1942.02 1918.36L1942.02 1858.59Q1942.02 1826.22 1909.64 1824.98L1909.64 1824.98L1762.72 1824.98Q1732.84 1824.98 1730.35 1858.59L1730.35 1858.59L1730.35 1918.36Q1730.35 1949.49 1762.72 1950.73L1762.72 1950.73L1909.64 1950.73ZM2237.11 2005.52Q2227.15 2005.52 2211.58 1993.07Q2196.02 1980.62 2179.83 1958.20L2179.83 1958.20Q2174.85 1951.98 2158.04 1928.94Q2141.24 1905.91 2141.24 1898.44L2141.24 1898.44Q2141.24 1858.59 2186.06 1858.59L2186.06 1858.59Q2212.21 1858.59 2249.56 1900.93L2249.56 1900.93Q2286.91 1943.26 2286.91 1964.43L2286.91 1964.43Q2286.91 2005.52 2237.11 2005.52L2237.11 2005.52ZM1612.06 1699.22Q1569.73 1699.22 1569.73 1661.87L1569.73 1661.87Q1569.73 1624.51 1612.06 1624.51L1612.06 1624.51L2662.94 1624.51Q2705.27 1624.51 2705.27 1661.87L2705.27 1661.87Q2705.27 1699.22 2662.94 1699.22L2662.94 1699.22L1612.06 1699.22ZM2360.38 2069.02Q2306.84 2069.02 2306.84 2020.46L2306.84 2020.46Q2306.84 1973.14 2360.38 1973.14L2360.38 1973.14L2418.90 1973.14Q2459.99 1973.14 2459.99 1928.32L2459.99 1928.32L2459.99 1648.17L2555.86 1648.17L2555.86 1949.49Q2565.82 2076.49 2437.57 2069.02L2437.57 2069.02L2360.38 2069.02ZM2107.62 1837.43Q2062.79 1837.43 2062.79 1798.83L2062.79 1798.83Q2062.79 1762.72 2107.62 1762.72L2107.62 1762.72L2651.73 1762.72Q2695.31 1762.72 2695.31 1800.07L2695.31 1800.07Q2695.31 1817.50 2684.11 1827.47Q2672.90 1837.43 2651.73 1837.43L2651.73 1837.43L2107.62 1837.43ZM1681.79 1577.20Q1644.43 1577.20 1644.43 1543.58L1644.43 1543.58Q1644.43 1508.72 1681.79 1508.72L1681.79 1508.72L2080.22 1508.72L2080.22 1447.71L1777.66 1447.71Q1739.06 1447.71 1739.06 1414.09L1739.06 1414.09Q1739.06 1377.98 1777.66 1377.98L1777.66 1377.98L2469.95 1377.98Q2507.30 1377.98 2507.30 1414.09L2507.30 1414.09Q2507.30 1447.71 2469.95 1447.71L2469.95 1447.71L2181.08 1447.71L2181.08 1508.72L2583.25 1508.72Q2620.61 1508.72 2620.61 1543.58L2620.61 1543.58Q2620.61 1577.20 2580.76 1577.20L2580.76 1577.20L1681.79 1577.20ZM2628.08 1478.83Q2574.54 1478.83 2574.54 1420.31L2574.54 1420.31L2574.54 1366.77Q2574.54 1331.91 2535.94 1329.42L2535.94 1329.42L1618.29 1329.42Q1575.95 1329.42 1575.95 1293.31L1575.95 1293.31Q1575.95 1255.96 1618.29 1255.96L1618.29 1255.96L2578.27 1255.96Q2633.06 1255.96 2658.58 1278.37Q2684.11 1300.78 2681.62 1349.34L2681.62 1349.34L2681.62 1420.31Q2681.62 1478.83 2628.08 1478.83L2628.08 1478.83Z"/>
  </svg>