<svg xmlns="http://www.w3.org/2000/svg" viewBox="0 0 3000 3000" width="3000" height="3000">
    <path fill="#000000" d="M1640 2235L1640 2235Q1662 2261 1680 2261Q1698 2261 1714 2242Q1730 2223 1741 2204Q1752 2185 1752 2175L1752 2175Q1752 2159 1726 2132Q1700 2105 1666 2077Q1632 2049 1600 2029L1600 2029Q1582 2019 1570 2013L1570 2013L1874 1999L1878 2305Q1832 2301 1776 2291Q1720 2281 1676 2271L1676 2271Q1650 2265 1630 2265L1630 2265Q1596 2265 1596 2287L1596 2287Q1596 2311 1650 2345L1650 2345Q1686 2365 1742 2393Q1798 2421 1851 2440Q1904 2459 1928 2459L1928 2459Q1976 2459 1995 2422Q2014 2385 2014 2357L2014 2357Q2014 2345 2012 2332Q2010 2319 2010 2305L2010 2305L2008 1993L2230 1983L2236 1983Q2284 1977 2284 1947L2284 1947Q2284 1929 2267 1907Q2250 1885 2228 1866Q2206 1847 2184 1847L2184 1847Q2174 1847 2166 1851L2166 1851Q2134 1867 2102 1867L2102 1867L2006 1871L2006 1843Q2006 1813 1993 1800Q1980 1787 1944 1773L1944 1773Q1936 1769 1928 1765L1928 1765L2364 1747Q2416 1741 2416 1707L2416 1707Q2416 1683 2395 1660Q2374 1637 2349 1622Q2324 1607 2310 1607L2310 1607Q2306 1607 2304 1608Q2302 1609 2300 1609L2300 1609Q2284 1613 2266 1617Q2248 1621 2232 1623L2232 1623L756 1685L734 1685Q714 1685 695 1683Q676 1681 662 1677L662 1677Q656 1675 650 1675L650 1675Q626 1675 626 1699L626 1699Q626 1707 628 1713L628 1713Q652 1785 686 1800Q720 1815 744 1815L744 1815Q758 1815 773 1814Q788 1813 802 1813L802 1813L1850 1769Q1850 1771 1850 1771L1850 1771Q1850 1793 1860 1815L1860 1815Q1864 1827 1868 1846Q1872 1865 1874 1877L1874 1877L1486 1895Q1480 1897 1466 1897L1466 1897Q1440 1897 1408 1887L1408 1887Q1398 1883 1392 1883L1392 1883Q1376 1883 1372 1897L1372 1897Q1372 1897 1372 1895L1372 1895Q1352 1871 1314 1871L1314 1871L1294 1871L986 1883Q942 1863 912 1855Q882 1847 866 1847L866 1847Q836 1847 836 1871L836 1871Q836 1885 854 1913L854 1913Q860 1925 868 1952Q876 1979 878 2003L878 2003L892 2151Q894 2159 894 2166Q894 2173 894 2181L894 2181Q894 2199 893 2215Q892 2231 890 2249L890 2249L890 2255Q890 2281 911 2297Q932 2313 956 2320Q980 2327 990 2327L990 2327Q1030 2327 1030 2279L1030 2279L1030 2273L1028 2237L1326 2227Q1350 2225 1371 2221Q1392 2217 1392 2193L1392 2193Q1392 2179 1381 2160Q1370 2141 1348 2119L1348 2119L1378 1975Q1380 1969 1384 1959L1384 1959Q1386 1955 1388 1951L1388 1951Q1400 1975 1420 1999L1420 1999Q1430 2009 1445 2013Q1460 2017 1480 2017L1480 2017Q1490 2017 1503 2016Q1516 2015 1530 2015L1530 2015L1530 2015Q1522 2019 1512 2027L1512 2027Q1492 2047 1492 2077L1492 2077Q1492 2093 1514 2113L1514 2113Q1544 2137 1580 2171Q1616 2205 1640 2235ZM1006 2001L1240 1993L1230 2111L1016 2121L1006 2001ZM1070 1617L1070 1617L2020 1571Q2038 1569 2053 1561Q2068 1553 2068 1535L2068 1535Q2068 1519 2048 1497Q2028 1475 2005 1457Q1982 1439 1966 1439L1966 1439Q1958 1439 1952 1441L1952 1441Q1940 1445 1922 1450Q1904 1455 1888 1457L1888 1457L1570 1473L1572 1407L1910 1387L1916 1387Q1962 1381 1962 1351L1962 1351Q1962 1327 1941 1307Q1920 1287 1894 1274Q1868 1261 1856 1261L1856 1261Q1852 1261 1850 1262Q1848 1263 1846 1263L1846 1263Q1832 1267 1814 1272Q1796 1277 1780 1279L1780 1279L1148 1313L1124 1313Q1104 1313 1086 1311Q1068 1309 1054 1305L1054 1305Q1048 1303 1042 1303L1042 1303Q1018 1303 1018 1327L1018 1327Q1018 1333 1020 1339L1020 1339Q1034 1377 1074 1415L1074 1415Q1090 1429 1128 1429L1128 1429Q1140 1429 1154 1428Q1168 1427 1182 1427L1182 1427L1428 1415L1430 1477L1032 1497L1008 1497Q988 1497 970 1495Q952 1493 938 1489L938 1489Q932 1487 926 1487L926 1487Q902 1487 902 1511L902 1511Q902 1517 904 1523L904 1523Q926 1593 960 1606Q994 1619 1016 1619L1016 1619Q1028 1619 1042 1618Q1056 1617 1070 1617ZM868 1269L868 1269L2160 1199Q2150 1217 2114 1270Q2078 1323 2046 1363L2046 1363Q2018 1399 2018 1423L2018 1423Q2018 1449 2046 1449Q2074 1449 2115 1416Q2156 1383 2197 1340Q2238 1297 2271 1261Q2304 1225 2311 1215Q2318 1205 2334 1191Q2350 1177 2350 1153L2350 1153Q2350 1127 2318 1095Q2286 1063 2236 1063L2236 1063L2218 1063L814 1145L794 1145Q776 1145 762 1143Q748 1141 734 1135L734 1135Q720 1131 716 1131L716 1131Q692 1131 692 1155L692 1155Q692 1173 708 1202Q724 1231 740 1249L740 1249Q752 1263 773 1267Q794 1271 818 1271L818 1271Q830 1271 843 1270Q856 1269 868 1269ZM1214 1063L1214 1063L1962 1021Q1980 1019 1995 1012Q2010 1005 2010 987L2010 987Q2010 975 1992 953Q1974 931 1950 912Q1926 893 1906 893L1906 893Q1896 893 1892 897L1892 897Q1882 899 1864 904Q1846 909 1830 911L1830 911L1590 925L1592 859L2146 827Q2192 821 2192 793Q2192 765 2170 744Q2148 723 2124 709Q2100 695 2090 695Q2080 695 2076 699L2076 699Q2050 709 2014 713L2014 713L1594 737L1596 669Q1596 641 1582 625Q1568 609 1524 595L1524 595Q1498 589 1479 585Q1460 581 1446 581L1446 581Q1412 581 1412 607L1412 607Q1412 619 1422 635L1422 635Q1436 655 1442 674Q1448 693 1448 717L1448 717L1448 745L976 773L950 773Q910 773 882 765L882 765Q876 763 870 763L870 763Q846 763 846 787L846 787Q846 793 848 799L848 799Q870 871 905 883Q940 895 956 895L956 895Q966 895 981 894Q996 893 1010 893L1010 893L1448 867L1448 933L1180 947L1156 947Q1136 947 1118 945Q1100 943 1086 939L1086 939Q1080 937 1074 937L1074 937Q1050 937 1050 961L1050 961Q1050 967 1052 973L1052 973Q1074 1041 1109 1053Q1144 1065 1160 1065L1160 1065Q1170 1065 1185 1064Q1200 1063 1214 1063Z"/>
  </svg>