<svg xmlns="http://www.w3.org/2000/svg" viewBox="0 0 3000 3000" width="3000" height="3000">
    <path fill="#000000" d="M1224 1896L1224 1896Q1196 1880 1196 1857Q1196 1834 1218 1811Q1240 1788 1262 1788Q1284 1788 1408 1872Q1532 1956 1547 1968Q1562 1980 1562 2004Q1562 2028 1535 2058Q1508 2088 1494 2088Q1480 2088 1409 2027Q1338 1966 1224 1896ZM1180 1646L1780 1622L1780 1578Q1780 1516 1750 1474L1750 1474Q1740 1458 1740 1448Q1740 1438 1756 1438Q1772 1438 1808 1448L1808 1448Q1912 1476 1912 1518L1912 1518L1912 1616L2094 1608Q2144 1604 2172 1594Q2200 1584 2216 1584Q2232 1584 2258 1604L2258 1604Q2318 1656 2318 1684L2318 1684Q2318 1700 2266 1706L2266 1706L1912 1722L1910 2222L1916 2298Q1916 2332 1889 2360Q1862 2388 1827 2388Q1792 2388 1720 2356Q1648 2324 1540 2245Q1432 2166 1432 2142L1432 2142Q1432 2124 1451 2124Q1470 2124 1548 2162Q1626 2200 1778 2236L1778 2236L1780 1728L1172 1752L1130 1754Q1116 1754 1104 1752L1104 1752Q946 1958 760 2102L760 2102Q662 2176 643 2176Q624 2176 623 2157Q622 2138 696 2070L696 2070Q838 1944 1018 1680L1018 1680Q1008 1660 1008 1647Q1008 1634 1015 1634Q1022 1634 1046 1640L1046 1640Q1118 1532 1160 1442L1160 1442L724 1464Q680 1464 667 1450Q654 1436 639 1406Q624 1376 624 1362Q624 1348 632 1348L632 1348Q680 1360 724 1360L724 1360L752 1360L1208 1338Q1238 1264 1262 1188L1262 1188L1102 1196Q1088 1198 1076 1198L1076 1198L1054 1198Q1010 1198 982 1163Q954 1128 954 1098L954 1098Q954 1090 964 1090L964 1090L970 1090Q1004 1096 1044 1096L1044 1096L1074 1096L1294 1084L1322 978Q1328 956 1332 934L1332 934L998 956Q986 958 976 958L976 958L940 958Q914 958 901 944Q888 930 880 920L880 920Q852 874 852 860Q852 846 862 846L862 846L868 846Q908 854 950 854L950 854L976 854L1354 828Q1374 726 1372 683Q1370 640 1357 608Q1344 576 1344 568L1344 568Q1344 548 1366 548Q1388 548 1428 560L1428 560Q1532 588 1534 634L1534 634L1536 640Q1522 732 1506 818L1506 818L1940 790Q1992 788 2015 780Q2038 772 2049 772Q2060 772 2084 788L2084 788Q2142 830 2142 862L2142 862Q2142 880 2104 884L2104 884L1482 924Q1476 950 1470 974L1470 974L1442 1074L1842 1052Q1904 1048 1923 1041Q1942 1034 1958 1034Q1974 1034 1996 1052Q2018 1070 2034 1092Q2050 1114 2050 1124L2050 1124Q2050 1142 2006 1146L2006 1146L1410 1178Q1382 1258 1352 1330L1352 1330L2174 1290Q2216 1288 2250 1278Q2284 1268 2293 1268Q2302 1268 2324 1284L2324 1284Q2386 1326 2386 1358L2386 1358Q2386 1382 2342 1386L2342 1386L1298 1436L1220 1584Q1200 1616 1180 1646L1180 1646Z"/>
  </svg>