<svg xmlns="http://www.w3.org/2000/svg" viewBox="0 0 3000 3000" width="3000" height="3000">
    <path fill="#000000" d="M1159.57 969.60L1159.57 969.60Q1183.80 974.70 1213.13 1021.88L1213.13 1021.88Q1224.60 1039.72 1222.05 1051.20L1222.05 1051.20Q1218.22 1074.15 1125.79 1138.54Q1033.35 1202.93 930.07 1252.65L930.07 1252.65Q802.57 1317.68 754.12 1308.75L754.12 1308.75Q741.37 1307.47 742.65 1298.55L742.65 1298.55Q745.20 1284.53 770.70 1271.14Q796.20 1257.75 875.25 1211.85Q954.30 1165.95 1042.27 1101.56Q1130.25 1037.17 1140.45 991.27L1140.45 991.27Q1148.10 968.33 1159.57 969.60ZM1322.77 1361.03L1322.77 1361.03Q1335.52 1357.20 1343.17 1357.20Q1350.82 1357.20 1366.13 1366.13L1366.13 1366.13Q1409.47 1392.90 1409.47 1415.85L1409.47 1415.85Q1409.47 1436.25 1376.32 1437.53L1376.32 1437.53L898.20 1461.75Q956.85 1562.48 1041 1649.18L1041 1649.18Q1211.85 1827.68 1424.77 1906.73L1424.77 1906.73Q1454.10 1916.93 1454.10 1928.40L1454.10 1928.40Q1454.10 1933.50 1440.07 1950.08L1440.07 1950.08Q1408.20 1993.43 1380.15 1993.43L1380.15 1993.43L1376.32 1993.43Q1239.90 1939.88 1088.17 1813.65L1088.17 1813.65Q921.15 1674.68 805.12 1466.85L805.12 1466.85L680.17 1473.22L678.90 1878.68Q807.67 1820.03 886.72 1772.85L886.72 1772.85Q909.67 1758.83 922.42 1760.10Q935.17 1761.38 935.17 1770.30L935.17 1770.30Q935.17 1794.53 866.32 1842.98L866.32 1842.98Q756.67 1920.75 673.80 1967.29Q590.92 2013.83 559.69 2027.85Q528.45 2041.88 516.97 2040.60Q505.50 2039.33 490.84 2029.76Q476.17 2020.20 458.32 1997.25Q440.47 1974.30 440.47 1964.74Q440.47 1955.18 473.62 1953.26Q506.77 1951.35 587.10 1915.65L587.10 1915.65L598.57 1910.55L598.57 1477.05L372.90 1488.53Q351.22 1489.80 342.30 1482.15L342.30 1482.15Q306.60 1450.28 306.60 1419.67L306.60 1419.67Q306.60 1409.47 316.80 1409.47L316.80 1409.47Q324.45 1409.47 334.01 1412.66Q343.57 1415.85 366.52 1415.85L366.52 1415.85Q491.47 1409.47 599.85 1404.38L599.85 1404.38L599.85 1016.77Q599.85 979.80 578.17 949.20L578.17 949.20Q571.80 939 571.80 932.63Q571.80 926.25 588.37 926.25Q604.95 926.25 635.55 936.45L635.55 936.45Q681.45 951.75 681.45 977.25L681.45 977.25L680.17 1400.55Q1298.55 1368.68 1322.77 1361.03ZM1961.55 1752.45L1961.55 1752.45Q1943.70 1742.25 1943.70 1727.59Q1943.70 1712.93 1957.72 1698.26Q1971.75 1683.60 1985.78 1683.60Q1999.80 1683.60 2078.85 1737.15Q2157.90 1790.70 2167.46 1798.35Q2177.03 1806 2177.03 1821.30Q2177.03 1836.60 2159.81 1855.73Q2142.60 1874.85 2133.68 1874.85Q2124.75 1874.85 2079.49 1835.96Q2034.22 1797.08 1961.55 1752.45ZM1933.50 1593.08L2316 1577.78L2316 1549.73Q2316 1510.20 2296.88 1483.43L2296.88 1483.43Q2290.50 1473.22 2290.50 1466.85Q2290.50 1460.47 2300.70 1460.47Q2310.90 1460.47 2333.85 1466.85L2333.85 1466.85Q2400.15 1484.70 2400.15 1511.47L2400.15 1511.47L2400.15 1573.95L2516.18 1568.85Q2548.05 1566.30 2565.90 1559.93Q2583.75 1553.55 2593.95 1553.55Q2604.15 1553.55 2620.73 1566.30L2620.73 1566.30Q2658.98 1599.45 2658.98 1617.30L2658.98 1617.30Q2658.98 1627.50 2625.82 1631.33L2625.82 1631.33L2400.15 1641.53L2398.88 1960.28L2402.70 2008.73Q2402.70 2030.40 2385.49 2048.25Q2368.28 2066.10 2345.96 2066.10Q2323.65 2066.10 2277.75 2045.70Q2231.85 2025.30 2163 1974.94Q2094.15 1924.58 2094.15 1909.28L2094.15 1909.28Q2094.15 1897.80 2106.26 1897.80Q2118.38 1897.80 2168.10 1922.03Q2217.82 1946.25 2314.73 1969.20L2314.73 1969.20L2316 1645.35L1928.40 1660.65L1901.63 1661.93Q1892.70 1661.93 1885.05 1660.65L1885.05 1660.65Q1784.33 1791.98 1665.75 1883.78L1665.75 1883.78Q1603.28 1930.95 1591.16 1930.95Q1579.05 1930.95 1578.41 1918.84Q1577.78 1906.73 1624.95 1863.38L1624.95 1863.38Q1715.47 1783.05 1830.22 1614.75L1830.22 1614.75Q1823.85 1602 1823.85 1593.71Q1823.85 1585.43 1828.31 1585.43Q1832.78 1585.43 1848.08 1589.25L1848.08 1589.25Q1893.97 1520.40 1920.75 1463.03L1920.75 1463.03L1642.80 1477.05Q1614.75 1477.05 1606.46 1468.13Q1598.17 1459.20 1588.61 1440.08Q1579.05 1420.95 1579.05 1412.03Q1579.05 1403.10 1584.15 1403.10L1584.15 1403.10Q1614.75 1410.75 1642.80 1410.75L1642.80 1410.75L1660.65 1410.75L1951.35 1396.72Q1970.47 1349.55 1985.78 1301.10L1985.78 1301.10L1883.78 1306.20Q1874.85 1307.47 1867.20 1307.47L1867.20 1307.47L1853.17 1307.47Q1825.13 1307.47 1807.28 1285.16Q1789.42 1262.85 1789.42 1243.72L1789.42 1243.72Q1789.42 1238.63 1795.80 1238.63L1795.80 1238.63L1799.63 1238.63Q1821.30 1242.45 1846.80 1242.45L1846.80 1242.45L1865.92 1242.45L2006.18 1234.80L2024.03 1167.22Q2027.85 1153.20 2030.40 1139.17L2030.40 1139.17L1817.47 1153.20Q1809.83 1154.47 1803.45 1154.47L1803.45 1154.47L1780.50 1154.47Q1763.92 1154.47 1755.64 1145.55Q1747.35 1136.63 1742.25 1130.25L1742.25 1130.25Q1724.40 1100.92 1724.40 1092Q1724.40 1083.08 1730.78 1083.08L1730.78 1083.08L1734.60 1083.08Q1760.10 1088.17 1786.88 1088.17L1786.88 1088.17L1803.45 1088.17L2044.43 1071.60Q2057.18 1006.58 2055.90 979.16Q2054.63 951.75 2046.34 931.35Q2038.05 910.95 2038.05 905.85L2038.05 905.85Q2038.05 893.10 2052.07 893.10Q2066.10 893.10 2091.60 900.75L2091.60 900.75Q2157.90 918.60 2159.18 947.92L2159.18 947.92L2160.45 951.75Q2151.53 1010.40 2141.32 1065.22L2141.32 1065.22L2418 1047.38Q2451.15 1046.10 2465.81 1041Q2480.48 1035.90 2487.49 1035.90Q2494.50 1035.90 2509.80 1046.10L2509.80 1046.10Q2546.78 1072.88 2546.78 1093.28L2546.78 1093.28Q2546.78 1104.75 2522.55 1107.30L2522.55 1107.30L2126.03 1132.80Q2122.20 1149.38 2118.38 1164.67L2118.38 1164.67L2100.53 1228.43L2355.53 1214.40Q2395.05 1211.85 2407.16 1207.39Q2419.28 1202.93 2429.48 1202.93Q2439.68 1202.93 2453.70 1214.40Q2467.73 1225.88 2477.93 1239.90Q2488.13 1253.93 2488.13 1260.30L2488.13 1260.30Q2488.13 1271.78 2460.07 1274.33L2460.07 1274.33L2080.13 1294.72Q2062.28 1345.72 2043.15 1391.63L2043.15 1391.63L2567.18 1366.13Q2593.95 1364.85 2615.63 1358.47Q2637.30 1352.10 2643.04 1352.10Q2648.78 1352.10 2662.80 1362.30L2662.80 1362.30Q2702.32 1389.08 2702.32 1409.47L2702.32 1409.47Q2702.32 1424.78 2674.28 1427.33L2674.28 1427.33L2008.73 1459.20L1959 1553.55Q1946.25 1573.95 1933.50 1593.08L1933.50 1593.08Z"/>
  </svg>