<svg xmlns="http://www.w3.org/2000/svg" viewBox="0 0 3000 3000" width="3000" height="3000">
    <path fill="#000000" d="M869.14 1046.88Q806.64 1046.88 806.64 992.19L806.64 992.19Q806.64 937.50 869.14 937.50L869.14 937.50L1408.20 937.50L1408.20 847.66L722.66 847.66Q652.34 847.66 652.34 789.06L652.34 789.06Q652.34 728.52 722.66 728.52L722.66 728.52L1408.20 728.52L1408.20 687.50Q1408.20 605.47 1490.23 605.47L1490.23 605.47Q1572.27 605.47 1572.27 687.50L1572.27 687.50L1572.27 728.52L2275.39 728.52Q2343.75 728.52 2343.75 789.06L2343.75 789.06Q2343.75 847.66 2275.39 847.66L2275.39 847.66L1572.27 847.66L1572.27 937.50L2130.86 937.50Q2193.36 937.50 2193.36 992.19L2193.36 992.19Q2193.36 1046.88 2130.86 1046.88L2130.86 1046.88L869.14 1046.88ZM855.47 2324.22Q710.94 2324.22 710.94 2183.59L710.94 2183.59L710.94 2035.16Q710.94 1892.58 855.47 1892.58L855.47 1892.58L1203.13 1892.58Q1347.66 1892.58 1347.66 2035.16L1347.66 2035.16L1347.66 2183.59Q1347.66 2324.22 1203.13 2324.22L1203.13 2324.22L855.47 2324.22ZM1142.58 2207.03Q1193.36 2207.03 1193.36 2156.25L1193.36 2156.25L1193.36 2062.50Q1193.36 2011.72 1142.58 2009.77L1142.58 2009.77L912.11 2009.77Q865.23 2009.77 861.33 2062.50L861.33 2062.50L861.33 2156.25Q861.33 2205.08 912.11 2207.03L912.11 2207.03L1142.58 2207.03ZM1656.25 2292.97Q1640.63 2292.97 1616.21 2273.44Q1591.80 2253.91 1566.41 2218.75L1566.41 2218.75Q1558.59 2208.98 1532.23 2172.85Q1505.86 2136.72 1505.86 2125L1505.86 2125Q1505.86 2062.50 1576.17 2062.50L1576.17 2062.50Q1617.19 2062.50 1675.78 2128.91L1675.78 2128.91Q1734.38 2195.31 1734.38 2228.52L1734.38 2228.52Q1734.38 2292.97 1656.25 2292.97L1656.25 2292.97ZM675.78 1812.50Q609.38 1812.50 609.38 1753.91L609.38 1753.91Q609.38 1695.31 675.78 1695.31L675.78 1695.31L2324.22 1695.31Q2390.63 1695.31 2390.63 1753.91L2390.63 1753.91Q2390.63 1812.50 2324.22 1812.50L2324.22 1812.50L675.78 1812.50ZM1849.61 2392.58Q1765.63 2392.58 1765.63 2316.41L1765.63 2316.41Q1765.63 2242.19 1849.61 2242.19L1849.61 2242.19L1941.41 2242.19Q2005.86 2242.19 2005.86 2171.88L2005.86 2171.88L2005.86 1732.42L2156.25 1732.42L2156.25 2205.08Q2171.88 2404.30 1970.70 2392.58L1970.70 2392.58L1849.61 2392.58ZM1453.13 2029.30Q1382.81 2029.30 1382.81 1968.75L1382.81 1968.75Q1382.81 1912.11 1453.13 1912.11L1453.13 1912.11L2306.64 1912.11Q2375 1912.11 2375 1970.70L2375 1970.70Q2375 1998.05 2357.42 2013.67Q2339.84 2029.30 2306.64 2029.30L2306.64 2029.30L1453.13 2029.30ZM785.16 1621.09Q726.56 1621.09 726.56 1568.36L726.56 1568.36Q726.56 1513.67 785.16 1513.67L785.16 1513.67L1410.16 1513.67L1410.16 1417.97L935.55 1417.97Q875 1417.97 875 1365.23L875 1365.23Q875 1308.59 935.55 1308.59L935.55 1308.59L2021.48 1308.59Q2080.08 1308.59 2080.08 1365.23L2080.08 1365.23Q2080.08 1417.97 2021.48 1417.97L2021.48 1417.97L1568.36 1417.97L1568.36 1513.67L2199.22 1513.67Q2257.81 1513.67 2257.81 1568.36L2257.81 1568.36Q2257.81 1621.09 2195.31 1621.09L2195.31 1621.09L785.16 1621.09ZM2269.53 1466.80Q2185.55 1466.80 2185.55 1375L2185.55 1375L2185.55 1291.02Q2185.55 1236.33 2125 1232.42L2125 1232.42L685.55 1232.42Q619.14 1232.42 619.14 1175.78L619.14 1175.78Q619.14 1117.19 685.55 1117.19L685.55 1117.19L2191.41 1117.19Q2277.34 1117.19 2317.38 1152.34Q2357.42 1187.50 2353.52 1263.67L2353.52 1263.67L2353.52 1375Q2353.52 1466.80 2269.53 1466.80L2269.53 1466.80Z"/>
  </svg>