<svg xmlns="http://www.w3.org/2000/svg" viewBox="0 0 3000 3000" width="3000" height="3000">
    <path fill="#000000" d="M780.90 1313.85L780.90 1313.85Q788.55 1310.03 792.37 1310.03L792.37 1310.03Q803.85 1308.75 825.52 1350.82L825.52 1350.82Q837.00 1375.05 840.82 1408.20Q844.65 1441.35 835.72 1450.28L835.72 1450.28Q819.15 1469.40 811.50 1505.10L811.50 1505.10Q807.67 1528.05 803.85 1536.97L803.85 1536.97Q801.30 1543.35 811.50 1545.90L811.50 1545.90Q819.15 1545.90 842.10 1545.90L842.10 1545.90L881.62 1545.90L891.82 1524.22Q902.02 1503.82 902.02 1492.35Q902.02 1480.88 913.50 1480.88L913.50 1480.88Q936.45 1480.88 950.47 1516.57L950.47 1516.57L960.67 1539.53L1049.92 1542.07Q1140.45 1547.17 1196.55 1542.07L1196.55 1542.07Q1294.72 1534.42 1327.88 1553.55L1327.88 1553.55Q1352.10 1568.85 1355.29 1603.28Q1358.47 1637.70 1336.80 1655.55L1336.80 1655.55Q1322.77 1669.58 1308.11 1669.58Q1293.45 1669.58 1250.10 1655.55L1250.10 1655.55Q1205.47 1641.53 1126.42 1637.70L1126.42 1637.70Q993.82 1627.50 979.80 1640.25L979.80 1640.25Q972.15 1646.63 969.60 1669.58L969.60 1669.58Q967.05 1691.25 958.12 1719.94Q949.20 1748.63 944.10 1756.28L944.10 1756.28Q937.72 1763.92 927.52 1806L927.52 1806Q924.97 1818.75 934.54 1827.67Q944.10 1836.60 988.72 1867.20L988.72 1867.20Q1029.52 1895.25 1037.81 1902.90Q1046.10 1910.55 1065.22 1922.03L1065.22 1922.03Q1090.72 1939.88 1118.77 1970.47Q1146.82 2001.08 1146.82 2010L1146.82 2010Q1146.82 2015.10 1154.47 2018.29Q1162.13 2021.47 1162.13 2041.24Q1162.13 2061 1154.47 2064.19Q1146.82 2067.38 1146.82 2073.11Q1146.82 2078.85 1125.15 2103.07L1125.15 2103.07Q1111.13 2119.65 1104.11 2122.84Q1097.10 2126.03 1077.97 2126.03L1077.97 2126.03Q1048.65 2126.03 1032.71 2117.74Q1016.77 2109.45 1005.30 2087.78Q993.82 2066.10 963.86 2027.21Q933.90 1988.33 918.60 1978.13L918.60 1978.13Q904.57 1967.92 881.62 1949.44Q858.67 1930.95 856.12 1930.95L856.12 1930.95Q851.02 1930.95 827.44 1946.25Q803.85 1961.55 784.72 1978.13L784.72 1978.13Q754.12 2004.90 726.07 2022.11Q698.02 2039.33 692.29 2047.61Q686.55 2055.90 681.45 2055.90Q676.35 2055.90 650.21 2072.47Q624.07 2089.05 587.74 2106.26Q551.40 2123.47 545.02 2117.10L545.02 2117.10Q539.92 2112 551.40 2100.53Q562.87 2089.05 622.80 2035.50L622.80 2035.50Q653.40 2008.72 672.52 1983.22L672.52 1983.22L704.40 1943.70Q714.60 1929.67 716.51 1924.58Q718.42 1919.47 729.90 1902.26Q741.37 1885.05 741.37 1879.95L741.37 1879.95Q741.37 1874.85 713.32 1867.84Q685.27 1860.83 664.87 1860.83L664.87 1860.83Q641.92 1860.83 634.27 1855.09Q626.62 1849.35 626.62 1831.50L626.62 1831.50Q626.62 1816.20 621.52 1812.38L621.52 1812.38Q608.77 1804.72 649.57 1711.65L649.57 1711.65Q676.35 1647.90 673.16 1644.71Q669.97 1641.53 632.36 1645.99Q594.75 1650.45 583.27 1654.28L583.27 1654.28Q574.35 1660.65 542.47 1665.75L542.47 1665.75Q518.25 1670.85 491.47 1681.05Q464.70 1691.25 458.32 1698.90L458.32 1698.90Q441.75 1715.47 402.22 1689.97L402.22 1689.97Q384.37 1678.50 375.45 1663.20Q366.52 1647.90 370.35 1638.97L370.35 1638.97Q374.17 1624.95 436.65 1608.38L436.65 1608.38Q552.67 1577.78 592.20 1573.95L592.20 1573.95Q615.15 1572.67 657.22 1565.03L657.22 1565.03Q689.10 1559.92 695.47 1557.38Q701.85 1554.82 705.67 1545.90L705.67 1545.90Q723.52 1450.28 743.92 1400.55L743.92 1400.55Q752.85 1383.97 752.85 1369.95L752.85 1369.95Q752.85 1355.92 762.41 1336.80Q771.97 1317.67 780.90 1313.85ZM853.57 1654.28L853.57 1654.28Q853.57 1633.88 849.75 1632.60L849.75 1632.60Q839.55 1631.33 802.57 1635.79Q765.60 1640.25 761.77 1642.80L761.77 1642.80Q757.95 1647.90 747.11 1674.67Q736.27 1701.45 733.72 1715.47L733.72 1715.47Q731.17 1728.22 741.37 1735.88Q751.57 1743.53 783.45 1756.28L783.45 1756.28Q821.70 1767.75 821.70 1755L821.70 1755Q821.70 1749.90 828.07 1734.60L828.07 1734.60Q853.57 1675.95 853.57 1654.28ZM724.80 977.25L724.80 977.25Q724.80 942.82 726.07 941.55Q727.35 940.27 764.96 942.19Q802.57 944.10 808.95 950.47L808.95 950.47L842.10 987.45L867.60 1016.77L866.32 1047.38Q863.77 1076.70 868.87 1084.99Q873.97 1093.27 896.92 1097.10L896.92 1097.10Q990.00 1106.02 1056.30 1121.32L1056.30 1121.32Q1079.25 1125.15 1121.96 1127.70Q1164.67 1130.25 1176.15 1137.90Q1187.63 1145.55 1209.30 1157.02L1209.30 1157.02Q1251.37 1178.70 1262.85 1190.17Q1274.32 1201.65 1275.60 1222.05L1275.60 1222.05Q1278.15 1243.72 1262.85 1266.67L1262.85 1266.67Q1246.27 1292.17 1231.61 1299.19Q1216.95 1306.20 1187.63 1303.65L1187.63 1303.65Q1155.75 1299.82 1137.90 1299.82L1137.90 1299.82Q1126.42 1299.82 1081.80 1308.75Q1037.17 1317.67 1005.30 1327.88L1005.30 1327.88Q1001.47 1329.15 1000.20 1327.88Q998.92 1326.60 1000.20 1322.78L1000.20 1322.78Q1002.75 1313.85 1017.41 1293.45Q1032.07 1273.05 1039.72 1267.31Q1047.38 1261.57 1056.94 1239.26Q1066.50 1216.95 1062.67 1211.85L1062.67 1211.85Q1060.13 1204.20 1011.67 1189.54Q963.22 1174.88 916.05 1167.22L916.05 1167.22L862.50 1158.30L843.37 1173.60Q824.25 1190.17 819.79 1190.17Q815.32 1190.17 798.75 1174.88L798.75 1174.88Q786.00 1164.67 779.62 1162.76Q773.25 1160.85 747.75 1163.40L747.75 1163.40Q714.60 1167.22 694.84 1173.60Q675.07 1179.97 664.87 1179.97L664.87 1179.97Q652.12 1179.97 620.89 1190.17Q589.65 1200.38 575.62 1210.57L575.62 1210.57Q556.50 1220.77 556.50 1236.71Q556.50 1252.65 548.85 1265.40Q541.20 1278.15 541.20 1295.36Q541.20 1312.57 535.46 1329.15Q529.72 1345.72 535.46 1368.67Q541.20 1391.63 533.55 1404.38L533.55 1404.38Q518.25 1436.25 485.10 1436.25L485.10 1436.25Q462.15 1436.25 445.57 1414.57Q429.00 1392.90 425.17 1355.92L425.17 1355.92Q422.62 1332.97 424.54 1322.78Q426.45 1312.57 436.65 1292.17L436.65 1292.17Q450.67 1262.85 459.60 1239.90L459.60 1239.90Q474.90 1199.10 489.56 1182.52Q504.22 1165.95 522.07 1165.95L522.07 1165.95Q534.82 1165.95 570.52 1148.10Q606.22 1130.25 645.75 1121.96Q685.27 1113.67 708.86 1106.66Q732.45 1099.65 740.10 1099.65L740.10 1099.65Q752.85 1099.65 741.37 1079.25L741.37 1079.25Q724.80 1049.92 724.80 977.25ZM1845.53 1322.78L1845.53 1322.78Q1851.90 1315.13 1855.72 1315.13L1855.72 1315.13Q1862.10 1315.13 1878.04 1338.71Q1893.97 1362.30 1897.80 1376.32L1897.80 1376.32Q1920.75 1464.30 1906.72 1524.22L1906.72 1524.22Q1900.35 1548.45 1897.16 1576.50Q1893.97 1604.55 1890.15 1610.92Q1886.33 1617.30 1881.22 1649.17L1881.22 1649.17Q1876.13 1691.25 1825.13 1823.85L1825.13 1823.85Q1807.28 1873.58 1785.60 1900.35L1785.60 1900.35Q1776.67 1910.55 1766.47 1928.40Q1756.28 1946.25 1737.15 1972.39Q1718.03 1998.53 1718.03 2001.71Q1718.03 2004.90 1687.42 2034.22L1687.42 2034.22Q1641.53 2078.85 1621.76 2091.60Q1602 2104.35 1587.97 2099.25L1587.97 2099.25Q1579.05 2096.70 1582.88 2089.05L1582.88 2089.05Q1586.70 2080.13 1650.45 2003.63L1650.45 2003.63Q1675.95 1975.58 1700.17 1923.30L1700.17 1923.30Q1714.20 1892.70 1742.25 1813.65L1742.25 1813.65Q1755 1777.95 1772.21 1712.92Q1789.42 1647.90 1791.97 1622.40L1791.97 1622.40Q1802.17 1524.22 1812.38 1459.20L1812.38 1459.20Q1820.03 1414.57 1820.03 1383.97L1820.03 1383.97Q1820.03 1361.03 1823.21 1352.74Q1826.40 1344.45 1845.53 1322.78ZM2309.63 1136.63L2309.63 1136.63Q2323.65 1127.70 2333.85 1137.90L2333.85 1137.90Q2337.68 1141.72 2358.07 1148.10L2358.07 1148.10Q2432.03 1171.05 2403.98 1219.50L2403.98 1219.50Q2391.23 1238.63 2378.48 1241.17Q2365.73 1243.72 2337.68 1232.25L2337.68 1232.25Q2312.18 1223.32 2270.10 1216.31Q2228.03 1209.30 2199.97 1209.30L2199.97 1209.30Q2188.50 1209.30 2185.31 1211.21Q2182.13 1213.13 2182.13 1219.50L2182.13 1219.50Q2182.13 1229.70 2192.96 1244.36Q2203.80 1259.03 2208.26 1285.80Q2212.72 1312.57 2214.64 1313.85Q2216.55 1315.13 2247.15 1317.67L2247.15 1317.67Q2282.85 1322.78 2326.84 1332.97Q2370.82 1343.17 2381.03 1350.82L2381.03 1350.82Q2407.80 1369.95 2405.25 1406.92L2405.25 1406.92L2403.98 1427.32L2444.78 1429.88Q2493.23 1432.42 2512.99 1445.81Q2532.75 1459.20 2525.10 1480.88L2525.10 1480.88Q2517.45 1496.17 2500.88 1500Q2484.30 1503.82 2438.40 1501.28L2438.40 1501.28L2382.30 1498.72L2374.65 1517.85Q2365.73 1538.25 2354.25 1545.90L2354.25 1545.90Q2344.05 1549.72 2342.14 1555.46Q2340.23 1561.20 2341.50 1580.32L2341.50 1580.32Q2342.78 1608.38 2332.57 1615.39Q2322.38 1622.40 2279.03 1621.13L2279.03 1621.13Q2222.93 1621.13 2212.09 1622.40Q2201.25 1623.67 2197.43 1636.42L2197.43 1636.42Q2191.05 1650.45 2191.05 1670.85Q2191.05 1691.25 2209.54 1707.83Q2228.03 1724.40 2234.40 1724.40L2234.40 1724.40Q2240.78 1724.40 2283.49 1692.53Q2326.20 1660.65 2347.88 1640.25L2347.88 1640.25Q2370.82 1618.58 2376.56 1616.03Q2382.30 1613.47 2396.32 1618.58L2396.32 1618.58Q2415.45 1623.67 2428.20 1634.51Q2440.95 1645.35 2440.95 1675.95L2440.95 1675.95L2439.68 1706.55L2409.07 1721.85Q2378.48 1737.15 2351.70 1755L2351.70 1755L2309.63 1779.22Q2301.98 1785.60 2301.98 1787.51Q2301.98 1789.42 2308.35 1795.80L2308.35 1795.80Q2322.38 1809.83 2384.21 1849.35Q2446.05 1888.88 2477.93 1902.90L2477.93 1902.90Q2511.08 1918.20 2557.61 1935.41Q2604.15 1952.63 2614.35 1952.63L2614.35 1952.63Q2625.82 1952.63 2660.25 1969.20Q2694.68 1985.78 2693.40 1990.24Q2692.13 1994.70 2692.13 2007.45Q2692.13 2020.20 2683.20 2023.39Q2674.28 2026.58 2659.61 2032.95Q2644.95 2039.33 2603.51 2047.61Q2562.07 2055.90 2549.32 2063.55L2549.32 2063.55Q2520 2077.57 2491.31 2071.84Q2462.63 2066.10 2411.63 2035.50L2411.63 2035.50Q2372.10 2012.55 2344.69 1989.60Q2317.28 1966.65 2259.90 1910.55L2259.90 1910.55L2192.32 1844.25L2192.32 1864.65Q2191.05 1969.20 2180.85 2016.38L2180.85 2016.38Q2174.47 2044.42 2154.07 2069.93Q2133.68 2095.43 2105.63 2108.18L2105.63 2108.18L2081.40 2120.93L2061 2109.45Q2040.60 2099.25 2030.40 2078.21Q2020.20 2057.18 1998.53 2039.33L1998.53 2039.33Q1934.78 1984.50 1927.13 1984.50L1927.13 1984.50Q1922.03 1984.50 1906.72 1994.70L1906.72 1994.70Q1891.43 2003.63 1881.22 2003.63Q1871.03 2003.63 1853.17 1995.97L1853.17 1995.97Q1820.03 1981.95 1814.92 1978.13Q1809.83 1974.30 1809.83 1959L1809.83 1959Q1809.83 1939.88 1817.47 1933.50Q1825.13 1927.13 1825.13 1920.75Q1825.13 1914.38 1891.43 1878.04Q1957.72 1841.70 1978.13 1827.67L1978.13 1827.67L1999.80 1814.92L1981.95 1804.72Q1961.55 1791.97 1936.69 1765.20Q1911.83 1738.42 1911.83 1729.50L1911.83 1729.50Q1911.83 1707.83 1989.60 1706.55L1989.60 1706.55Q2024.03 1706.55 2033.59 1707.83Q2043.15 1709.10 2052.07 1719.30L2052.07 1719.30Q2064.82 1730.78 2064.82 1753.72L2064.82 1753.72Q2064.82 1758.83 2065.46 1763.29Q2066.10 1767.75 2066.74 1770.30Q2067.38 1772.85 2068.65 1773.49Q2069.93 1774.13 2071.20 1774.13L2071.20 1774.13Q2077.57 1772.85 2085.86 1707.83Q2094.15 1642.80 2089.05 1638.97L2089.05 1638.97Q2085.22 1636.42 2058.45 1647.90L2058.45 1647.90Q2002.35 1668.30 1978.13 1649.17L1978.13 1649.17L1966.65 1638.97L1978.13 1621.13Q1990.88 1604.55 1996.61 1600.72Q2002.35 1596.90 2016.38 1596.90L2016.38 1596.90Q2031.68 1596.90 2063.55 1585.42L2063.55 1585.42L2095.43 1573.95L2095.43 1544.63Q2095.43 1522.95 2094.15 1519.13Q2092.88 1515.30 2082.68 1515.30L2082.68 1515.30Q2071.20 1515.30 2042.51 1524.86Q2013.83 1534.42 2002.99 1542.71Q1992.15 1551 1969.20 1550.36Q1946.25 1549.72 1930.95 1542.07L1930.95 1542.07Q1914.38 1534.42 1913.74 1531.88Q1913.10 1529.32 1923.30 1520.40L1923.30 1520.40Q1959 1488.52 2043.15 1465.57L2043.15 1465.57L2095.43 1451.55L2097.97 1428.60Q2103.07 1395.45 2101.80 1390.35Q2100.53 1385.25 2087.78 1385.25L2087.78 1385.25Q2072.47 1386.53 2045.70 1399.28L2045.70 1399.28Q2020.20 1412.03 1997.25 1413.30Q1974.30 1414.57 1967.93 1404.38L1967.93 1404.38Q1960.28 1386.53 1983.86 1369.31Q2007.45 1352.10 2069.93 1331.70L2069.93 1331.70L2103.07 1321.50L2104.35 1289.63Q2104.35 1257.75 2112 1233.53Q2119.65 1209.30 2114.55 1209.30Q2109.45 1209.30 2049.53 1216.95L2049.53 1216.95Q1962.83 1227.15 1916.93 1253.92L1916.93 1253.92Q1899.08 1262.85 1890.15 1260.94Q1881.22 1259.03 1860.83 1237.35L1860.83 1237.35Q1848.08 1224.60 1846.80 1219.50Q1845.53 1214.40 1851.90 1205.47L1851.90 1205.47Q1869.75 1176.15 1956.45 1163.40L1956.45 1163.40L2041.88 1150.65Q2094.15 1143 2198.70 1142.36Q2303.25 1141.72 2309.63 1136.63ZM2236.95 1382.70L2236.95 1382.70Q2224.20 1382.70 2217.82 1380.15L2217.82 1380.15Q2206.35 1376.32 2196.79 1396.72Q2187.22 1417.13 2192.32 1432.42L2192.32 1432.42Q2197.43 1443.90 2214 1443.90L2214 1443.90Q2233.13 1443.90 2238.22 1437.53Q2243.32 1431.15 2247.15 1409.47L2247.15 1409.47Q2249.70 1390.35 2248.43 1386.53Q2247.15 1382.70 2236.95 1382.70ZM2233.13 1539.53L2233.13 1539.53Q2233.13 1524.22 2228.03 1514.03Q2222.93 1503.82 2207.63 1503.82L2207.63 1503.82Q2197.43 1503.82 2192.32 1512.11Q2187.22 1520.40 2187.22 1540.80L2187.22 1540.80Q2187.22 1551 2190.41 1553.55Q2193.60 1556.10 2210.18 1556.10L2210.18 1556.10Q2226.75 1556.10 2229.94 1554.19Q2233.13 1552.28 2233.13 1539.53ZM2076.30 1897.80L2076.30 1897.80Q2076.30 1891.42 2077.57 1881.22L2077.57 1881.22Q2081.40 1816.20 2076.30 1811.74Q2071.20 1807.28 2035.50 1841.70L2035.50 1841.70Q2029.13 1846.80 2026.58 1850.63L2026.58 1850.63Q1975.58 1900.35 1962.19 1920.75Q1948.80 1941.15 1941.15 1947.53L1941.15 1947.53Q1930.95 1955.17 1932.86 1962.19Q1934.78 1969.20 1947.53 1969.20L1947.53 1969.20Q1962.83 1969.20 1971.75 1973.66Q1980.68 1978.13 2016.38 1980.67L2016.38 1980.67Q2055.90 1983.22 2063.55 1973.03Q2071.20 1962.83 2076.30 1897.80ZM2010 954.30L2010 954.30Q2016.38 947.92 2022.75 947.92Q2029.13 947.92 2054.63 955.57L2054.63 955.57Q2089.05 965.77 2118.38 991.27L2118.38 991.27Q2166.82 1035.90 2166.82 1063.95L2166.82 1063.95Q2166.82 1071.60 2154.07 1098.38L2154.07 1098.38Q2134.95 1135.35 2101.80 1135.99Q2068.65 1136.63 2041.24 1103.47Q2013.83 1070.32 2011.28 1020.60L2011.28 1020.60Q2008.73 993.82 2003.63 983.62L2003.63 983.62Q1994.70 968.32 2010 954.30Z"/>
  </svg>