<svg xmlns="http://www.w3.org/2000/svg" viewBox="0 0 3000 3000" width="3000" height="3000">
    <path fill="#000000" d="M669.92 2363.28Q617.19 2343.75 617.19 2296.88L617.19 2296.88Q617.19 2271.48 630.86 2242.19L630.86 2242.19Q708.98 2070.31 739.26 1864.26Q769.53 1658.20 769.53 1341.80L769.53 1341.80L769.53 951.17Q769.53 767.58 943.36 767.58L943.36 767.58L2283.20 767.58Q2357.42 767.58 2357.42 835.94L2357.42 835.94Q2357.42 904.30 2283.20 904.30L2283.20 904.30L974.61 904.30Q925.78 904.30 925.78 953.13L925.78 953.13L925.78 1345.70Q925.78 1658.20 889.65 1903.32Q853.52 2148.44 783.20 2302.73L783.20 2302.73Q753.91 2369.14 703.13 2369.14L703.13 2369.14Q687.50 2369.14 669.92 2363.28L669.92 2363.28ZM943.36 2304.69Q912.11 2304.69 894.53 2284.18Q876.95 2263.67 876.95 2228.52L876.95 2228.52Q876.95 2201.17 895.51 2181.64Q914.06 2162.11 964.84 2144.53L964.84 2144.53L1005.86 2130.86Q1205.08 2058.59 1265.63 2031.25L1265.63 2031.25Q1330.08 2003.91 1361.33 1993.16Q1392.58 1982.42 1416.02 1982.42L1416.02 1982.42Q1441.41 1982.42 1458.98 2000Q1476.56 2017.58 1476.56 2042.97L1476.56 2042.97Q1476.56 2074.22 1445.31 2095.70L1445.31 2095.70Q1412.11 2119.14 1298.83 2173.83L1298.83 2173.83Q1183.59 2230.47 1080.08 2267.58L1080.08 2267.58Q980.47 2304.69 943.36 2304.69L943.36 2304.69ZM1296.88 1972.66Q1279.30 1972.66 1253.91 1959.96Q1228.52 1947.27 1199.22 1929.69L1199.22 1929.69L1064.45 1851.56Q1025.39 1828.13 1025.39 1789.06L1025.39 1789.06Q1025.39 1761.72 1043.95 1746.09Q1062.50 1730.47 1091.80 1730.47L1091.80 1730.47Q1115.23 1730.47 1172.85 1754.88Q1230.47 1779.30 1287.11 1812.50L1287.11 1812.50Q1330.08 1837.89 1347.66 1859.38Q1365.23 1880.86 1365.23 1906.25L1365.23 1906.25Q1365.23 1935.55 1345.70 1954.10Q1326.17 1972.66 1296.88 1972.66L1296.88 1972.66ZM1369.14 2384.77Q1285.16 2384.77 1285.16 2310.55L1285.16 2310.55Q1285.16 2271.48 1305.66 2253.91Q1326.17 2236.33 1369.14 2236.33L1369.14 2236.33L1486.33 2236.33Q1535.16 2236.33 1535.16 2187.50L1535.16 2187.50L1535.16 1697.27L1107.42 1697.27Q1070.31 1697.27 1052.73 1681.64Q1035.16 1666.02 1035.16 1630.86L1035.16 1630.86Q1035.16 1568.36 1107.42 1568.36L1107.42 1568.36L1535.16 1568.36L1535.16 1195.31L1132.81 1195.31Q1097.66 1195.31 1078.13 1177.73Q1058.59 1160.16 1058.59 1128.91L1058.59 1128.91Q1058.59 1066.41 1132.81 1066.41L1132.81 1066.41L1535.16 1066.41L1535.16 994.14Q1535.16 962.89 1555.66 942.38Q1576.17 921.88 1611.33 921.88L1611.33 921.88Q1646.48 921.88 1666.99 942.38Q1687.50 962.89 1687.50 994.14L1687.50 994.14L1687.50 1066.41L2054.69 1066.41Q2125 1066.41 2163.09 1104.49Q2201.17 1142.58 2201.17 1212.89L2201.17 1212.89L2201.17 1550.78Q2201.17 1621.09 2163.09 1659.18Q2125 1697.27 2054.69 1697.27L2054.69 1697.27L1687.50 1697.27Q1765.63 1828.13 1886.72 1943.36L1886.72 1943.36L1947.27 1992.19Q1994.14 2029.30 2094.73 2079.10Q2195.31 2128.91 2316.41 2167.97L2316.41 2167.97Q2349.61 2177.73 2367.19 2197.27Q2384.77 2216.80 2384.77 2242.19L2384.77 2242.19Q2384.77 2251.95 2380.86 2267.58L2380.86 2267.58Q2373.05 2296.88 2353.52 2312.50Q2333.98 2328.13 2306.64 2328.13L2306.64 2328.13Q2291.02 2328.13 2273.44 2322.27L2273.44 2322.27Q2083.98 2267.58 1917.97 2139.65Q1751.95 2011.72 1687.50 1873.05L1687.50 1873.05L1687.50 2201.17Q1687.50 2298.83 1644.53 2341.80Q1601.56 2384.77 1503.91 2384.77L1503.91 2384.77L1369.14 2384.77ZM1837.89 1939.45Q1996.09 1843.75 2136.72 1734.38L2136.72 1734.38Q2156.25 1720.70 2170.90 1713.87Q2185.55 1707.03 2207.03 1707.03L2207.03 1707.03Q2238.28 1707.03 2257.81 1725.59Q2277.34 1744.14 2277.34 1775.39L2277.34 1775.39Q2277.34 1814.45 2240.23 1839.84L2240.23 1839.84Q2107.42 1941.41 1906.25 2025.39L1906.25 2025.39L1837.89 1939.45ZM1039.06 1443.36Q1001.95 1443.36 982.42 1425.78Q962.89 1408.20 962.89 1376.95L962.89 1376.95Q962.89 1345.70 982.42 1328.13Q1001.95 1310.55 1039.06 1310.55L1039.06 1310.55L2312.50 1310.55Q2384.77 1310.55 2384.77 1376.95L2384.77 1376.95Q2384.77 1408.20 2365.23 1425.78Q2345.70 1443.36 2312.50 1443.36L2312.50 1443.36L1039.06 1443.36ZM2003.91 1568.36Q2052.73 1568.36 2052.73 1519.53L2052.73 1519.53L2052.73 1244.14Q2052.73 1195.31 2003.91 1195.31L2003.91 1195.31L1687.50 1195.31L1687.50 1568.36L2003.91 1568.36ZM1509.77 689.45Q1509.77 613.28 1597.66 613.28L1597.66 613.28Q1685.55 613.28 1685.55 689.45L1685.55 689.45L1685.55 835.94L1509.77 835.94L1509.77 689.45Z"/>
  </svg>