<svg xmlns="http://www.w3.org/2000/svg" viewBox="0 0 3000 3000" width="3000" height="3000">
    <path fill="#000000" d="M362.70 1385.25L362.70 1153.20L1359.75 1153.20L1359.75 1385.25L1322.77 1385.25L1322.77 1191.45L399.67 1191.45L399.67 1385.25L362.70 1385.25ZM1126.42 1380.15L1126.42 1380.15L1164.67 1387.80Q1134.07 1566.30 1072.88 1693.80Q1011.67 1821.30 915.41 1908.64Q819.15 1995.98 684.00 2052.71Q548.85 2109.45 369.07 2146.43L369.07 2146.43Q366.52 2142.60 361.42 2136.22Q356.32 2129.85 350.59 2123.47Q344.85 2117.10 339.75 2113.28L339.75 2113.28Q522.07 2080.13 656.59 2025.94Q791.10 1971.75 885.45 1886.33Q979.80 1800.90 1038.45 1676.59Q1097.10 1552.28 1126.42 1380.15ZM325.72 1554.83L325.72 1516.58L1405.65 1516.58L1405.65 1554.83L325.72 1554.83ZM783.45 1006.58L783.45 1006.58L814.05 995.10Q840.82 1034.63 869.51 1083.08Q898.20 1131.53 912.22 1162.13L912.22 1162.13L881.62 1179.97Q865.05 1146.83 837.64 1097.10Q810.22 1047.38 783.45 1006.58ZM495.30 1757.55L495.30 1757.55L523.35 1726.95Q636.82 1761.38 756.67 1806Q876.52 1850.63 991.91 1902.26Q1107.30 1953.90 1206.75 2006.81Q1306.20 2059.72 1377.60 2109.45L1377.60 2109.45L1344.45 2142.60Q1275.60 2094.15 1178.06 2041.24Q1080.52 1988.33 965.14 1936.05Q849.75 1883.78 729.26 1837.88Q608.77 1791.98 495.30 1757.55ZM538.65 1757.55L495.30 1757.55Q531.00 1711.65 571.16 1651.09Q611.32 1590.53 650.21 1523.59Q689.10 1456.65 723.52 1390.35Q757.95 1324.05 782.17 1265.40L782.17 1265.40L819.15 1273.05Q793.65 1334.25 759.22 1400.55Q724.80 1466.85 685.91 1532.51Q647.02 1598.18 609.41 1656.19Q571.80 1714.20 538.65 1757.55L538.65 1757.55ZM1739.70 1505.10L1739.70 1466.85L2562.07 1466.85L2562.07 1505.10L1739.70 1505.10ZM1808.55 1335.53L1808.55 1298.55L2574.82 1298.55L2574.82 1681.05L1800.90 1681.05L1800.90 1642.80L2537.85 1642.80L2537.85 1335.53L1808.55 1335.53ZM2174.47 2075.03L2174.47 1143L2212.72 1143L2212.72 2073.75Q2212.72 2104.35 2201.89 2117.74Q2191.05 2131.13 2169.38 2137.50L2169.38 2137.50Q2145.15 2142.60 2096.70 2143.24Q2048.25 2143.88 1969.20 2143.88L1969.20 2143.88Q1966.65 2136.22 1962.19 2124.75Q1957.72 2113.28 1951.35 2104.35L1951.35 2104.35Q1998.53 2105.63 2038.05 2105.63Q2077.57 2105.63 2105.63 2104.99Q2133.68 2104.35 2145.15 2104.35L2145.15 2104.35Q2163 2103.08 2168.74 2097.34Q2174.47 2091.60 2174.47 2075.03L2174.47 2075.03ZM1803.45 1739.70L1803.45 1739.70L1830.22 1718.03Q1864.65 1739.70 1901.63 1766.48Q1938.60 1793.25 1971.11 1819.39Q2003.63 1845.53 2025.30 1865.93L2025.30 1865.93L1997.25 1891.43Q1976.85 1869.75 1944.34 1842.98Q1911.83 1816.20 1874.85 1788.79Q1837.88 1761.38 1803.45 1739.70ZM2565.90 1721.85L2565.90 1721.85L2596.50 1743.53Q2545.50 1790.70 2479.20 1839.15Q2412.90 1887.60 2356.80 1920.75L2356.80 1920.75L2330.03 1899.08Q2368.28 1876.13 2411.63 1845.53Q2454.98 1814.93 2495.78 1781.78Q2536.57 1748.63 2565.90 1721.85ZM1742.25 2067.38L1721.85 2034.23Q1780.50 2012.55 1856.36 1981.95Q1932.22 1951.35 2017.65 1916.29Q2103.07 1881.23 2187.22 1845.53L2187.22 1845.53L2194.88 1877.40Q2076.30 1928.40 1955.81 1978.76Q1835.33 2029.13 1742.25 2067.38L1742.25 2067.38ZM1681.05 1159.58L1681.05 1122.60L2699.78 1122.60L2699.78 1159.58L1681.05 1159.58ZM1661.92 1506.38L1661.92 1122.60L1698.90 1122.60L1698.90 1506.38Q1698.90 1577.78 1695.08 1660.01Q1691.25 1742.25 1679.78 1828.31Q1668.30 1914.38 1645.35 1996.61Q1622.40 2078.85 1585.42 2150.25L1585.42 2150.25Q1581.60 2146.43 1575.86 2142.60Q1570.13 2138.78 1564.39 2134.95Q1558.65 2131.13 1553.55 2129.85L1553.55 2129.85Q1590.53 2061 1612.20 1981.31Q1633.88 1901.63 1644.71 1818.11Q1655.55 1734.60 1658.74 1654.91Q1661.92 1575.22 1661.92 1506.38L1661.92 1506.38ZM2109.45 1001.47L2109.45 1001.47L2142.60 986.17Q2168.10 1018.05 2194.88 1056.94Q2221.65 1095.83 2234.40 1123.88L2234.40 1123.88L2199.97 1141.72Q2185.95 1113.67 2160.45 1073.51Q2134.95 1033.35 2109.45 1001.47ZM2559.53 1505.10L2559.53 1466.85L2712.53 1466.85L2712.53 1505.10L2559.53 1505.10ZM2184.68 1873.58L2184.68 1873.58L2202.53 1845.53Q2262.45 1867.20 2328.11 1893.34Q2393.78 1919.48 2457.53 1947.53Q2521.28 1975.58 2576.74 2001.71Q2632.20 2027.85 2671.73 2050.80L2671.73 2050.80L2656.43 2083.95Q2616.90 2061 2561.44 2033.59Q2505.98 2006.18 2441.59 1977.49Q2377.20 1948.80 2311.54 1922.03Q2245.88 1895.25 2184.68 1873.58Z"/>
  </svg>