<svg xmlns="http://www.w3.org/2000/svg" viewBox="0 0 3000 3000" width="3000" height="3000">
    <path fill="#000000" d="M543.75 1112.40L543.75 1112.40L816.60 1095.83L816.60 981.08Q816.60 956.85 803.21 937.73Q789.82 918.60 789.82 913.50L789.82 913.50Q789.82 902.03 808.95 902.03L808.95 902.03L824.25 904.57Q905.85 919.88 905.85 949.20L905.85 949.20L903.30 1090.72L1306.20 1066.50L1315.13 1066.50Q1340.63 1066.50 1361.66 1080.53Q1382.70 1094.55 1382.70 1108.58Q1382.70 1122.60 1373.77 1130.89Q1364.85 1139.17 1331.06 1189.54Q1297.27 1239.90 1252.65 1288.35Q1208.02 1336.80 1190.17 1336.80L1190.17 1336.80Q1183.80 1336.80 1183.80 1325.33Q1183.80 1313.85 1213.76 1260.30Q1243.72 1206.75 1266.67 1143L1266.67 1143L519.52 1186.35Q481.27 1290.90 443.02 1357.20L443.02 1357.20Q431.55 1372.50 424.54 1372.50Q417.52 1372.50 403.50 1364.85L403.50 1364.85Q366.52 1345.72 366.52 1327.88L366.52 1327.88Q366.52 1321.50 383.74 1294.09Q400.95 1266.68 429.00 1194.64Q457.05 1122.60 477.45 1055.03L477.45 1055.03Q483.82 1033.35 502.31 1033.35Q520.80 1033.35 537.37 1044.19Q553.95 1055.03 553.95 1068.41Q553.95 1081.80 543.75 1112.40ZM1318.95 1410.75L1318.95 1410.75L1357.20 1399.28Q1377.60 1399.28 1413.30 1438.80L1413.30 1438.80Q1427.32 1454.10 1427.32 1463.03L1427.32 1463.03Q1427.32 1475.78 1400.55 1479.60L1400.55 1479.60L1114.95 1493.63Q1046.10 1659.38 936.45 1776.68L936.45 1776.68Q1120.05 1857 1281.97 1950.08L1281.97 1950.08Q1311.30 1966.65 1311.30 1989.60L1311.30 1989.60L1308.75 2002.35Q1297.27 2044.43 1274.32 2044.43L1274.32 2044.43Q1260.30 2044.43 1238.63 2030.40L1238.63 2030.40Q1071.60 1923.30 876.52 1835.33L876.52 1835.33Q769.42 1924.58 621.52 1975.58L621.52 1975.58Q524.62 2008.73 458.32 2018.29Q392.02 2027.85 389.47 2027.85L389.47 2027.85Q357.60 2027.85 357.60 2013.83L357.60 2013.83Q357.60 1995.98 420.07 1979.40Q482.55 1962.83 548.85 1939.88L548.85 1939.88Q684.00 1892.70 797.47 1799.63L797.47 1799.63Q645.75 1733.33 604.95 1729.50L604.95 1729.50Q587.10 1726.95 576.90 1698.90L576.90 1698.90Q573.07 1687.43 573.07 1677.23Q573.07 1667.03 597.30 1628.14Q621.52 1589.25 659.77 1515.30L659.77 1515.30L375.45 1529.33Q343.57 1529.33 334.65 1520.40L334.65 1520.40Q298.95 1484.70 298.95 1459.20L298.95 1459.20Q298.95 1450.28 304.05 1450.28Q309.15 1450.28 320.62 1454.74Q332.10 1459.20 366.52 1459.20L366.52 1459.20L380.55 1459.20L698.02 1443.90Q737.55 1363.58 757.31 1301.74Q777.07 1239.90 777.07 1219.50L777.07 1219.50L777.07 1206.75Q777.07 1194 789.19 1194Q801.30 1194 819.79 1203.56Q838.27 1213.13 852.94 1227.79Q867.60 1242.45 867.60 1258.39Q867.60 1274.33 789.82 1438.80L789.82 1438.80L1285.80 1415.85Q1303.65 1414.58 1318.95 1410.75ZM662.32 1669.58L662.32 1669.58Q773.25 1707.83 858.67 1743.53L858.67 1743.53Q955.57 1638.98 1015.50 1498.72L1015.50 1498.72L752.85 1510.20Q696.75 1618.58 662.32 1669.58ZM1704 1021.88L1704 1021.88Q1704 1011.67 1718.66 1011.67Q1733.33 1011.67 1808.55 1053.75L1808.55 1053.75L2142.60 1034.63L2141.32 944.10Q2141.32 918.60 2129.21 904.57Q2117.10 890.55 2117.10 882.90Q2117.10 875.25 2131.13 875.25Q2145.15 875.25 2182.76 884.81Q2220.38 894.38 2220.38 918.60L2220.38 918.60L2219.10 1029.53L2481.75 1014.23Q2509.80 1012.95 2528.29 1005.30Q2546.78 997.65 2553.15 997.65Q2559.53 997.65 2576.10 1007.85L2576.10 1007.85Q2619.45 1032.08 2619.45 1057.58L2619.45 1057.58Q2619.45 1074.15 2590.13 1076.70L2590.13 1076.70L1807.28 1122.60Q1803.45 1348.28 1790.70 1454.10L1790.70 1454.10Q1749.90 1817.48 1584.15 2002.35L1584.15 2002.35Q1562.47 2024.03 1554.19 2024.03Q1545.90 2024.03 1545.90 2013.83Q1545.90 2003.63 1557.38 1983.23L1557.38 1983.23Q1675.95 1765.20 1706.55 1492.35L1706.55 1492.35Q1723.13 1352.10 1723.13 1179.97L1723.13 1179.97L1723.13 1143Q1723.13 1083.08 1713.56 1055.03Q1704 1026.97 1704 1021.88ZM2235.68 1696.35L2235.68 1913.10L2239.50 1976.85Q2239.50 2015.10 2217.19 2034.86Q2194.88 2054.63 2174.47 2054.63Q2154.07 2054.63 2120.29 2034.86Q2086.50 2015.10 2053.35 1987.05Q2020.20 1959 1997.25 1934.78Q1974.30 1910.55 1974.30 1901.63Q1974.30 1892.70 1983.86 1892.70Q1993.43 1892.70 2034.86 1913.74Q2076.30 1934.78 2159.18 1959L2159.18 1959L2160.45 1572.68L2007.45 1580.33L1975.58 1581.60Q1956.45 1581.60 1940.51 1575.23Q1924.58 1568.85 1914.38 1545.26Q1904.18 1521.68 1904.18 1517.85L1904.18 1517.85Q1904.18 1508.93 1913.10 1508.93L1913.10 1508.93L1956.45 1514.03L2160.45 1503.83L2160.45 1415.85L1922.03 1428.60L1883.78 1429.88Q1853.17 1429.88 1837.88 1413.94Q1822.58 1398 1818.11 1382.06Q1813.65 1366.13 1813.65 1364.85L1813.65 1364.85Q1813.65 1357.20 1821.30 1357.20L1821.30 1357.20L1826.40 1357.20Q1849.35 1363.58 1882.50 1363.58L1882.50 1363.58L1899.08 1363.58L2160.45 1350.83L2160.45 1274.33L2001.08 1283.25Q1983.22 1285.80 1962.83 1285.80L1962.83 1285.80Q1924.58 1285.80 1906.72 1247.55L1906.72 1247.55Q1896.53 1225.88 1896.53 1220.14Q1896.53 1214.40 1900.35 1214.40L1900.35 1214.40Q1906.72 1214.40 1918.84 1218.22Q1930.95 1222.05 1953.90 1222.05L1953.90 1222.05L2160.45 1209.30L2160.45 1205.47Q2160.45 1158.30 2141.32 1134.08L2141.32 1134.08Q2133.68 1123.88 2133.68 1118.14Q2133.68 1112.40 2145.79 1112.40Q2157.90 1112.40 2189.14 1120.69Q2220.38 1128.97 2228.03 1138.54Q2235.68 1148.10 2235.68 1160.85L2235.68 1160.85L2235.68 1205.47L2449.88 1192.72L2460.07 1192.72Q2491.95 1192.72 2505.98 1208.03Q2520 1223.33 2520 1234.80Q2520 1246.28 2514.90 1254.56Q2509.80 1262.85 2508.53 1269.22L2508.53 1269.22L2499.60 1334.25L2563.35 1330.43Q2602.88 1326.60 2613.07 1322.14Q2623.28 1317.68 2633.48 1317.68Q2643.68 1317.68 2657.70 1326.60L2657.70 1326.60Q2692.13 1348.28 2692.13 1368.68L2692.13 1368.68Q2692.13 1385.25 2655.15 1387.80L2655.15 1387.80L2489.40 1396.72L2476.65 1488.53Q2514.90 1526.78 2514.90 1539.53Q2514.90 1552.28 2504.06 1554.19Q2493.23 1556.10 2476.65 1557.38L2476.65 1557.38L2235.68 1568.85L2235.68 1616.03Q2286.68 1669.58 2337.68 1712.93L2337.68 1712.93Q2424.38 1664.48 2467.73 1624.95Q2511.08 1585.43 2515.54 1568.21Q2520 1551 2526.38 1551L2526.38 1551Q2542.95 1551 2565.90 1598.18L2565.90 1598.18Q2573.55 1616.03 2573.55 1625.59Q2573.55 1635.15 2565.90 1642.80L2565.90 1642.80Q2488.13 1704 2393.78 1755L2393.78 1755Q2520 1845.53 2693.40 1901.63L2693.40 1901.63Q2709.98 1906.73 2709.98 1919.48L2709.98 1919.48Q2709.98 1925.85 2698.50 1939.88L2698.50 1939.88Q2671.73 1975.58 2655.15 1975.58L2655.15 1975.58L2616.90 1961.55Q2502.15 1919.48 2381.03 1831.50L2381.03 1831.50Q2307.07 1776.68 2235.68 1696.35L2235.68 1696.35ZM2423.10 1336.80L2432.03 1259.03L2235.68 1270.50L2235.68 1347L2423.10 1336.80ZM2405.25 1492.35L2415.45 1400.55L2235.68 1410.75L2235.68 1500L2405.25 1492.35ZM2003.63 1743.53L2003.63 1743.53Q1943.70 1691.25 1874.85 1647.90L1874.85 1647.90Q1859.55 1637.70 1859.55 1626.86Q1859.55 1616.03 1870.39 1603.28Q1881.22 1590.53 1891.43 1590.53Q1901.63 1590.53 1982.59 1637.06Q2063.55 1683.60 2063.55 1706.55L2063.55 1706.55Q2063.55 1712.93 2052.71 1732.05Q2041.88 1751.18 2027.85 1751.18Q2013.83 1751.18 2003.63 1743.53ZM2123.47 1762.65L2123.47 1762.65Q1992.15 1872.30 1921.39 1914.38Q1850.63 1956.45 1837.24 1956.45Q1823.85 1956.45 1804.72 1945.61Q1785.60 1934.78 1770.30 1920.11Q1755 1905.45 1755 1895.25Q1755 1885.05 1783.69 1881.86Q1812.38 1878.68 1897.16 1844.25Q1981.95 1809.83 2108.18 1730.78L2108.18 1730.78Q2128.57 1718.03 2138.78 1718.03Q2148.97 1718.03 2148.97 1729.50Q2148.97 1740.98 2123.47 1762.65Z"/>
  </svg>