<svg xmlns="http://www.w3.org/2000/svg" viewBox="0 0 3000 3000" width="3000" height="3000">
    <path fill="#000000" d="M314.25 1162.13L314.25 1125.15L843.37 1125.15L843.37 1162.13L314.25 1162.13ZM288.75 1423.50L288.75 1386.53L868.87 1386.53L868.87 1423.50L288.75 1423.50ZM413.70 1196.55L413.70 1196.55L448.12 1187.63Q467.25 1228.42 483.82 1278.15Q500.40 1327.88 505.50 1362.30L505.50 1362.30L468.52 1373.78Q463.42 1336.80 448.12 1287.71Q432.82 1238.63 413.70 1196.55ZM726.07 1187.63L726.07 1187.63L764.32 1201.65Q740.10 1256.47 712.05 1317.04Q684.00 1377.60 658.50 1422.22L658.50 1422.22L627.90 1406.93Q644.47 1377.60 662.96 1338.71Q681.45 1299.83 698.66 1259.66Q715.87 1219.50 726.07 1187.63ZM757.95 2071.20L757.95 1519.13L796.20 1519.13L796.20 2071.20Q796.20 2092.88 789.82 2104.99Q783.45 2117.10 765.60 2123.47L765.60 2123.47Q747.75 2128.58 711.41 2129.85Q675.07 2131.13 620.25 2131.13L620.25 2131.13Q618.97 2122.20 613.87 2110.72Q608.77 2099.25 603.67 2090.33L603.67 2090.33Q654.67 2091.60 689.74 2091.60Q724.80 2091.60 737.55 2090.33L737.55 2090.33Q750.30 2089.05 754.12 2085.22Q757.95 2081.40 757.95 2071.20L757.95 2071.20ZM964.50 1149.38L964.50 1112.40L1427.32 1112.40L1427.32 1149.38L964.50 1149.38ZM965.77 1667.03L965.77 1630.05L1372.50 1630.05L1372.50 1667.03L965.77 1667.03ZM964.50 1809.83L964.50 1771.58L1364.85 1771.58L1364.85 1809.83L964.50 1809.83ZM965.77 1959L965.77 1922.03L1377.60 1922.03L1377.60 1959L965.77 1959ZM946.65 1306.20L946.65 996.38L983.62 996.38L983.62 1306.20L946.65 1306.20ZM946.65 1325.33L946.65 1287.08L1375.05 1287.08L1375.05 1521.68L946.65 1521.68L946.65 1484.70L1336.80 1484.70L1336.80 1325.33L946.65 1325.33ZM946.65 2053.35L946.65 1511.47L983.62 1511.47L983.62 2054.63Q983.62 2081.40 998.29 2090.96Q1012.95 2100.53 1066.50 2100.53L1066.50 2100.53Q1079.25 2100.53 1116.86 2100.53Q1154.47 2100.53 1201.01 2100.53Q1247.55 2100.53 1288.35 2100.53Q1329.15 2100.53 1345.72 2100.53L1345.72 2100.53Q1369.95 2100.53 1382.70 2092.24Q1395.45 2083.95 1400.55 2060.36Q1405.65 2036.78 1406.92 1990.88L1406.92 1990.88Q1414.57 1995.98 1425.41 2000.44Q1436.25 2004.90 1445.17 2007.45L1445.17 2007.45Q1442.63 2058.45 1434.34 2087.14Q1426.05 2115.83 1405.65 2127.30Q1385.25 2138.78 1345.72 2138.78L1345.72 2138.78Q1339.35 2138.78 1311.30 2138.78Q1283.25 2138.78 1245.64 2138.78Q1208.02 2138.78 1169.77 2138.78Q1131.52 2138.78 1104.11 2138.78Q1076.70 2138.78 1070.32 2138.78L1070.32 2138.78Q1021.87 2138.78 995.10 2132.40Q968.32 2126.03 957.49 2107.54Q946.65 2089.05 946.65 2053.35L946.65 2053.35ZM533.55 1002.75L533.55 1002.75L566.70 992.55Q585.82 1028.25 602.40 1070.96Q618.97 1113.67 625.35 1143L625.35 1143L588.37 1154.47Q583.27 1123.88 567.97 1081.16Q552.67 1038.45 533.55 1002.75ZM392.02 1557.38L392.02 1519.13L779.62 1519.13L779.62 1557.38L392.02 1557.38ZM371.62 1767.75L371.62 1519.13L408.60 1519.13L408.60 1767.75Q408.60 1823.85 403.50 1890.79Q398.40 1957.73 382.46 2024.66Q366.52 2091.60 333.37 2148.97L333.37 2148.97Q332.10 2143.88 327.00 2138.78Q321.90 2133.68 316.80 2129.21Q311.70 2124.75 306.60 2122.20L306.60 2122.20Q335.92 2068.65 349.95 2006.81Q363.97 1944.98 367.80 1883.14Q371.62 1821.30 371.62 1767.75L371.62 1767.75ZM444.30 1969.20L422.62 1938.60Q492.75 1914.38 587.74 1878.04Q682.72 1841.70 782.17 1803.45L782.17 1803.45L788.55 1831.50Q698.02 1869.75 607.50 1905.45Q516.97 1941.15 444.30 1969.20L444.30 1969.20ZM448.12 1665.75L448.12 1665.75L463.42 1637.70Q508.05 1651.72 557.77 1669.58Q607.50 1687.43 652.76 1704.64Q698.02 1721.85 728.62 1737.15L728.62 1737.15L714.60 1770.30Q684.00 1755 638.10 1736.51Q592.20 1718.03 542.47 1699.54Q492.75 1681.05 448.12 1665.75ZM1661.92 1083.08L1661.92 1046.10L1887.60 1046.10L1887.60 1083.08L1661.92 1083.08ZM1661.92 1390.35L1661.92 1353.38L1887.60 1353.38L1887.60 1390.35L1661.92 1390.35ZM1658.10 1705.28L1658.10 1668.30L1895.25 1668.30L1895.25 1705.28L1658.10 1705.28ZM1644.08 1500L1644.08 1046.10L1681.05 1046.10L1681.05 1498.72Q1681.05 1570.13 1677.86 1653Q1674.67 1735.88 1666.39 1822.58Q1658.10 1909.28 1640.89 1991.51Q1623.67 2073.75 1594.35 2145.15L1594.35 2145.15Q1591.80 2141.33 1585.42 2138.14Q1579.05 2134.95 1572.67 2131.13Q1566.30 2127.30 1561.20 2126.03L1561.20 2126.03Q1599.45 2032.95 1617.30 1922.66Q1635.15 1812.38 1639.61 1702.09Q1644.08 1591.80 1644.08 1500L1644.08 1500ZM1869.75 2076.30L1869.75 1046.10L1908 1046.10L1908 2076.30Q1908 2099.25 1900.35 2110.72Q1892.70 2122.20 1874.85 2128.58L1874.85 2128.58Q1858.28 2133.68 1823.85 2134.95Q1789.42 2136.22 1732.05 2136.22L1732.05 2136.22Q1730.78 2128.58 1726.31 2117.74Q1721.85 2106.90 1716.75 2097.97L1716.75 2097.97Q1765.20 2099.25 1800.90 2099.25Q1836.60 2099.25 1848.08 2099.25L1848.08 2099.25Q1869.75 2097.97 1869.75 2076.30L1869.75 2076.30ZM1980.68 1223.33L1980.68 1186.35L2656.43 1186.35L2656.43 1223.33L1980.68 1223.33ZM1942.43 1377.60L1942.43 1339.35L2702.32 1339.35L2702.32 1377.60L1942.43 1377.60ZM2066.10 1886.33L2066.10 1848.08L2641.13 1848.08L2641.13 1886.33L2066.10 1886.33ZM2087.78 1638.97L2087.78 1602L2577.38 1602L2577.38 1638.97L2087.78 1638.97ZM2087.78 1761.38L2087.78 1723.13L2577.38 1723.13L2577.38 1761.38L2087.78 1761.38ZM2534.03 1005.30L2534.03 1005.30L2572.28 1020.60Q2551.88 1061.40 2530.84 1103.47Q2509.80 1145.55 2489.40 1176.15L2489.40 1176.15L2458.80 1160.85Q2476.65 1128.97 2498.96 1083.71Q2521.28 1038.45 2534.03 1005.30ZM2287.95 996.38L2287.95 996.38L2326.20 1002.75Q2282.85 1222.05 2189.14 1376.33Q2095.43 1530.60 1943.70 1630.05L1943.70 1630.05Q1941.15 1626.22 1935.41 1621.13Q1929.68 1616.03 1923.94 1610.29Q1918.20 1604.55 1914.38 1600.72L1914.38 1600.72Q2066.10 1510.20 2156.63 1358.47Q2247.15 1206.75 2287.95 996.38ZM2625.82 1855.73L2625.82 1848.08L2665.35 1848.08Q2665.35 1848.08 2664.71 1857Q2664.07 1865.93 2662.80 1872.30L2662.80 1872.30Q2652.60 1993.43 2641.13 2047.61Q2629.65 2101.80 2611.80 2119.65L2611.80 2119.65Q2602.88 2128.58 2590.13 2133.04Q2577.38 2137.50 2555.70 2137.50L2555.70 2137.50Q2540.40 2138.78 2507.89 2137.50Q2475.38 2136.22 2442.23 2133.68L2442.23 2133.68Q2440.95 2126.03 2438.40 2115.83Q2435.85 2105.63 2430.75 2096.70L2430.75 2096.70Q2470.28 2100.53 2503.43 2101.80Q2536.57 2103.08 2548.05 2103.08L2548.05 2103.08Q2562.07 2103.08 2570.36 2101.16Q2578.65 2099.25 2583.75 2092.88L2583.75 2092.88Q2597.78 2080.13 2607.34 2027.85Q2616.90 1975.58 2625.82 1855.73L2625.82 1855.73ZM2026.58 1026.97L2026.58 1026.97L2057.18 1012.95Q2082.68 1044.82 2102.44 1083.08Q2122.20 1121.33 2131.13 1150.65L2131.13 1150.65L2096.70 1168.50Q2087.78 1139.17 2068.01 1099.01Q2048.25 1058.85 2026.58 1026.97ZM2166.82 1951.35L2166.82 1951.35L2202.53 1947.53Q2211.45 1984.50 2219.10 2029.13Q2226.75 2073.75 2229.30 2104.35L2229.30 2104.35L2189.78 2112Q2188.50 2080.13 2181.49 2035.50Q2174.47 1990.88 2166.82 1951.35ZM2294.32 1942.43L2294.32 1942.43L2327.48 1932.23Q2345.32 1965.38 2360.63 2004.26Q2375.93 2043.15 2383.57 2069.93L2383.57 2069.93L2347.88 2082.68Q2340.23 2053.35 2324.29 2014.46Q2308.35 1975.58 2294.32 1942.43ZM2418 1927.13L2418 1927.13L2446.05 1906.73Q2472.82 1932.23 2497.69 1962.19Q2522.55 1992.15 2535.30 2013.83L2535.30 2013.83L2503.43 2035.50Q2490.68 2013.83 2465.81 1982.59Q2440.95 1951.35 2418 1927.13ZM2066.10 1864.65L2066.10 1483.43L2540.40 1483.43L2540.40 1520.40L2104.35 1520.40L2104.35 1864.65L2066.10 1864.65ZM2307.07 1872.30L2307.07 1489.80L2345.32 1489.80L2345.32 1872.30L2307.07 1872.30ZM2049.53 1930.95L2049.53 1930.95L2085.22 1938.60Q2069.93 1988.33 2044.43 2041.24Q2018.93 2094.15 1983.22 2131.13L1983.22 2131.13L1952.63 2109.45Q1983.22 2077.58 2009.36 2028.49Q2035.50 1979.40 2049.53 1930.95ZM2414.18 1361.03L2446.05 1348.28Q2483.03 1424.78 2555.06 1488.53Q2627.10 1552.28 2711.25 1581.60L2711.25 1581.60Q2703.60 1586.70 2695.95 1595.63Q2688.30 1604.55 2683.20 1613.47L2683.20 1613.47Q2627.10 1590.53 2575.46 1551.64Q2523.83 1512.75 2481.75 1463.03Q2439.68 1413.30 2414.18 1361.03L2414.18 1361.03Z"/>
  </svg>