<svg xmlns="http://www.w3.org/2000/svg" viewBox="0 0 3000 3000" width="3000" height="3000">
    <path fill="#000000" d="M814 979L814 979Q832 979 850 977L850 977Q838 981 826 989L826 989Q788 1009 788 1035L788 1035Q788 1049 804 1069L804 1069Q852 1127 900 1209L900 1209Q914 1231 930 1241L930 1241Q692 1253 674 1253L674 1253Q642 1253 594 1245L594 1245Q568 1245 568 1269L568 1269Q568 1309 616 1353L616 1353Q636 1373 712 1373L712 1373L1478 1339Q1534 1333 1534 1303L1534 1303Q1534 1291 1521 1267Q1508 1243 1486 1224Q1464 1205 1438 1205L1438 1205Q1424 1205 1404 1211L1404 1211Q1370 1223 1340 1223L1340 1223L1244 1227Q1364 1057 1364 1035L1364 1035Q1364 1009 1320 977L1320 977Q1300 961 1282 953L1282 953Q1474 943 1484 939L1484 939Q1504 933 1504 913L1504 913Q1504 889 1471 854Q1438 819 1402 819L1402 819Q1390 819 1372 823L1372 823Q1340 833 782 861L782 861Q734 861 684 851L684 851Q658 851 658 875L658 875Q658 895 675 921Q692 947 713 963Q734 979 814 979ZM1978 2383L1978 2383Q2132 2383 2237 2372Q2342 2361 2388 2322Q2434 2283 2442 2207L2442 2207Q2456 2055 2456 1941L2456 1941Q2454 1839 2414 1839L2414 1839Q2376 1839 2362 1933L2362 1933Q2330 2171 2290 2201L2290 2201Q2234 2239 1966 2239L1966 2239Q1834 2239 1785 2235Q1736 2231 1722 2217Q1708 2203 1708 2163L1708 2163L1708 2091L2208 2071Q2262 2065 2262 2035Q2262 2005 2225 1974Q2188 1943 2172 1943Q2156 1943 2133 1950Q2110 1957 1708 1973L1708 1973L1710 1871L2178 1851Q2238 1847 2238 1815L2238 1815Q2238 1801 2221 1780Q2204 1759 2182 1742Q2160 1725 2144 1725Q2128 1725 2108 1732Q2088 1739 1710 1757L1710 1757L1710 1657L2182 1635Q2242 1631 2242 1601L2242 1601Q2242 1579 2210 1544Q2178 1509 2142 1509L2142 1509Q2134 1509 2110 1516Q2086 1523 1712 1541L1712 1541L1712 1427Q2184 1407 2211 1402Q2238 1397 2238 1371L2238 1371Q2238 1351 2194 1301L2194 1301Q2230 1137 2239 1126Q2248 1115 2248 1093Q2248 1071 2216 1046Q2184 1021 2154 1021L2154 1021L1724 1045L1728 927L2232 899Q2290 895 2290 863L2290 863Q2290 825 2250 795Q2210 765 2190 765L2190 765Q2172 765 2154 772Q2136 779 1732 807L1732 807L1738 671Q1738 637 1712 619L1712 619Q1668 587 1612 587L1612 587Q1546 587 1546 613L1546 613Q1546 621 1554 633L1554 633Q1582 667 1582 719L1582 719Q1574 1083 1570 1115L1570 1115Q1570 1141 1601 1158Q1632 1175 1656 1175L1656 1175Q1676 1175 1694 1171Q1712 1167 2074 1151L2074 1151L2050 1289L1702 1305Q1604 1265 1578 1265L1578 1265Q1540 1265 1540 1285L1540 1285Q1540 1295 1551 1316Q1562 1337 1562 1397L1562 1397L1560 2191Q1560 2365 1722 2377L1722 2377Q1822 2383 1978 2383ZM750 2345L750 2345Q750 2363 785 2394Q820 2425 864 2425Q908 2425 908 2365L908 2365L914 2031L1264 2019L1264 2257Q1180 2229 1109 2195Q1038 2161 1018 2161L1018 2161Q988 2161 988 2187L988 2187Q988 2207 1024 2243L1024 2243Q1124 2343 1242 2405L1242 2405Q1266 2421 1304 2421Q1342 2421 1376 2389Q1410 2357 1410 2313L1410 2313Q1408 2249 1406 1553L1406 1553L1416 1505Q1416 1431 1304 1431L1304 1431L918 1449Q814 1407 792 1407L792 1407Q758 1407 758 1427L758 1427Q758 1439 769 1473Q780 1507 780 1561L780 1561Q762 2277 754 2313L754 2313Q750 2331 750 2345ZM1264 1663L918 1679L920 1569L1262 1553L1264 1663ZM1264 1901L914 1915L916 1791L1264 1777L1264 1901ZM1212 813L1212 813Q1244 813 1260 771L1260 771Q1270 753 1270 735L1270 735Q1270 711 1236 691Q1202 671 1158 653Q1114 635 1068 622Q1022 609 991 602Q960 595 956 595L956 595Q936 595 914 624Q892 653 892 671L892 671Q892 701 938 713L938 713Q1036 741 1152 793L1152 793Q1192 813 1212 813ZM874 975L874 975Q1088 965 1228 957L1228 957Q1222 965 1220 979L1220 979Q1216 1061 1102 1233L1102 1233Q1044 1235 994 1239L994 1239Q1002 1233 1010 1227L1010 1227Q1038 1205 1038 1183L1038 1183Q1038 1171 1004 1117Q970 1063 932 1019L932 1019Q898 981 874 975Z"/>
  </svg>