<svg xmlns="http://www.w3.org/2000/svg" viewBox="0 0 3000 3000" width="3000" height="3000">
    <path fill="#000000" d="M908.40 1781.78L896.92 1788.15Q737.55 1857 717.79 1857Q698.02 1857 698.02 1849.35L698.02 1849.35Q698.02 1832.78 737.55 1812.38L737.55 1812.38Q807.67 1777.95 896.92 1723.13L896.92 1723.13L909.67 1715.48L910.95 1452.83Q910.95 1417.13 894.37 1389.08L894.37 1389.08Q891.82 1385.25 891.82 1378.24Q891.82 1371.22 903.94 1371.22Q916.05 1371.22 954.94 1382.70Q993.82 1394.18 993.82 1418.40L993.82 1418.40L991.27 1664.48Q1086.90 1600.73 1174.88 1526.78L1174.88 1526.78Q1197.82 1502.55 1202.29 1477.69Q1206.75 1452.83 1216.31 1452.83Q1225.88 1452.83 1242.45 1468.13L1242.45 1468.13Q1283.25 1507.65 1283.25 1536.97L1283.25 1536.97Q1283.25 1548.45 1273.05 1557.38L1273.05 1557.38Q1145.55 1660.65 990.00 1742.25L990.00 1742.25L988.72 1837.88L988.72 1842.98Q988.72 1869.75 997.65 1890.15L997.65 1890.15Q1016.77 1933.50 1145.55 1933.50Q1274.32 1933.50 1315.13 1913.10L1315.13 1913.10Q1359.75 1892.70 1382.70 1724.40L1382.70 1724.40Q1390.35 1659.38 1406.92 1659.38L1406.92 1659.38Q1432.42 1659.38 1432.42 1799.63L1432.42 1799.63Q1432.42 1860.83 1426.05 1902.90Q1419.67 1944.98 1394.17 1969.20L1394.17 1969.20Q1343.17 2015.10 1154.47 2015.10L1154.47 2015.10Q1084.35 2015.10 1028.25 2006.81Q972.15 1998.53 940.27 1965.38Q908.40 1932.23 908.40 1857L908.40 1857L908.40 1781.78ZM811.50 1267.95L1247.55 1243.72Q1274.32 1242.45 1290.90 1236.71Q1307.47 1230.97 1316.40 1230.97Q1325.32 1230.97 1341.90 1242.45L1341.90 1242.45Q1383.97 1271.78 1383.97 1290.26Q1383.97 1308.75 1352.10 1312.58L1352.10 1312.58L801.30 1341.90L800.02 1354.65Q778.35 1501.28 741.37 1590.53L741.37 1590.53Q706.95 1674.68 657.22 1744.80Q607.50 1814.93 552.04 1867.84Q496.57 1920.75 445.57 1956.45Q394.57 1992.15 358.87 2010Q323.17 2027.85 312.97 2027.85Q302.77 2027.85 302.77 2016.38Q302.77 2004.90 330.82 1984.50L330.82 1984.50Q497.85 1855.73 589.65 1701.45L589.65 1701.45Q680.17 1548.45 713.32 1359.75L713.32 1359.75L715.87 1347L454.50 1361.03Q445.57 1362.30 436.65 1362.30L436.65 1362.30L420.07 1362.30Q370.35 1362.30 349.95 1313.85L349.95 1313.85Q341.02 1293.45 341.02 1286.44Q341.02 1279.43 348.67 1279.43L348.67 1279.43Q351.22 1279.43 365.89 1283.89Q380.55 1288.35 411.15 1288.35L411.15 1288.35L426.45 1288.35L726.07 1271.78Q747.75 1099.65 751.57 986.17L751.57 986.17L751.57 978.52Q751.57 944.10 735.00 914.77L735.00 914.77Q733.72 907.13 733.72 905.85L733.72 905.85Q733.72 894.38 750.30 894.38L750.30 894.38L763.05 895.65Q838.27 905.85 838.27 949.20L838.27 949.20L838.27 955.58Q829.35 1131.53 811.50 1267.95L811.50 1267.95ZM1197.82 1148.10L1197.82 1148.10Q1197.82 1168.50 1180.61 1186.99Q1163.40 1205.47 1150.01 1205.47Q1136.63 1205.47 1093.27 1160.21Q1049.92 1114.95 961.95 1043.55L961.95 1043.55Q949.20 1032.08 949.20 1019.33Q949.20 1006.58 960.67 993.19Q972.15 979.80 983.62 979.80Q995.10 979.80 1063.31 1026.97Q1131.52 1074.15 1164.67 1107.30Q1197.82 1140.45 1197.82 1148.10ZM2507.25 935.17L2507.25 935.17Q2525.10 935.17 2559.53 974.70L2559.53 974.70Q2572.28 988.73 2572.28 995.74Q2572.28 1002.75 2550.60 1022.51Q2528.93 1042.28 2497.05 1063.95L2497.05 1063.95Q2418 1120.05 2387.40 1120.05L2387.40 1120.05Q2378.48 1120.05 2378.48 1113.67L2378.48 1113.67Q2378.48 1103.47 2396.32 1087.54Q2414.18 1071.60 2437.13 1048.65L2437.13 1048.65Q2497.05 991.27 2497.05 951.75L2497.05 951.75Q2497.05 935.17 2507.25 935.17ZM2083.95 963.23L2083.95 963.23Q2100.53 963.23 2153.44 1019.33Q2206.35 1075.42 2206.35 1092L2206.35 1092Q2206.35 1099.65 2189.14 1114.31Q2171.93 1128.97 2161.09 1128.97Q2150.25 1128.97 2140.05 1113.67L2140.05 1113.67Q2106.90 1060.13 2053.35 1006.58L2053.35 1006.58Q2046.97 1000.20 2046.97 991.91Q2046.97 983.63 2062.91 973.42Q2078.85 963.23 2083.95 963.23ZM1868.47 1259.03L1869.75 1062.67L1739.70 1070.33L1739.70 1265.40L1868.47 1259.03ZM1867.20 1511.47L1868.47 1322.78L1738.42 1329.15Q1737.15 1389.08 1729.50 1517.85L1729.50 1517.85L1867.20 1511.47ZM2072.47 1529.33L2072.47 1529.33Q1971.75 1619.85 1939.88 1619.85L1939.88 1619.85L1939.88 1888.88L1941.15 1941.15Q1941.15 1976.85 1920.75 1995.34Q1900.35 2013.83 1881.22 2013.83L1881.22 2013.83Q1846.80 2013.83 1778.59 1948.80Q1710.38 1883.78 1710.38 1860.83L1710.38 1860.83Q1710.38 1853.18 1723.13 1853.18Q1735.88 1853.18 1772.21 1877.40Q1808.55 1901.63 1864.65 1922.03L1864.65 1922.03L1867.20 1577.78L1723.13 1585.43Q1710.38 1710.38 1679.78 1810.46Q1649.17 1910.55 1585.42 1989.60L1585.42 1989.60Q1580.33 1994.70 1571.40 2004.90Q1562.47 2015.10 1555.46 2015.10Q1548.45 2015.10 1548.45 2003.63Q1548.45 1992.15 1567.58 1951.35L1567.58 1951.35Q1667.03 1737.15 1667.03 1308.75L1667.03 1308.75Q1667.03 1089.45 1661.29 1051.20Q1655.55 1012.95 1647.90 997.65Q1640.25 982.35 1640.25 977.89Q1640.25 973.42 1653 973.42Q1665.75 973.42 1739.70 1004.02L1739.70 1004.02L1877.40 995.10L1901.63 993.83Q1918.20 993.83 1933.50 1007.21Q1948.80 1020.60 1948.80 1038.45L1948.80 1038.45L1941.15 1072.88L1939.88 1539.53L1939.88 1594.35Q1942.43 1591.80 1945.61 1587.98Q1948.80 1584.15 1952.63 1581.60L1952.63 1581.60Q2064.82 1474.50 2140.05 1359.75L2140.05 1359.75L2141.32 1357.20L2043.15 1361.03L2029.13 1361.03Q2010 1359.75 1989.60 1350.83Q1969.20 1341.90 1956.45 1303.65L1956.45 1303.65Q1955.18 1299.83 1955.18 1295.36Q1955.18 1290.90 1959 1290.90L1959 1290.90L1994.70 1299.83Q2007.45 1301.10 2022.75 1301.10L2022.75 1301.10L2040.60 1301.10L2177.03 1296Q2197.43 1262.85 2216.55 1213.13L2216.55 1213.13L2123.47 1216.95Q2112 1218.22 2103.07 1218.22L2103.07 1218.22L2087.78 1218.22Q2072.47 1218.22 2057.18 1211.21Q2041.88 1204.20 2027.85 1162.13L2027.85 1162.13Q2026.58 1159.58 2026.58 1153.84Q2026.58 1148.10 2034.22 1148.10L2034.22 1148.10Q2036.78 1148.10 2053.35 1154.47Q2069.93 1160.85 2099.25 1160.85L2099.25 1160.85L2238.22 1153.20Q2258.63 1095.83 2267.55 1037.81Q2276.48 979.80 2276.48 954.94Q2276.48 930.07 2271.38 915.41Q2266.28 900.75 2266.28 896.92L2266.28 896.92Q2266.28 886.72 2277.11 886.72Q2287.95 886.72 2307.07 890.55L2307.07 890.55Q2359.35 903.30 2359.35 931.35L2359.35 931.35L2359.35 937.73Q2340.23 1075.42 2314.73 1149.38L2314.73 1149.38L2489.40 1140.45Q2527.65 1137.90 2543.59 1132.80Q2559.53 1127.70 2565.90 1127.70Q2572.28 1127.70 2586.94 1137.26Q2601.60 1146.83 2613.71 1159.58Q2625.82 1172.33 2625.82 1182.53Q2625.82 1192.72 2602.88 1195.28L2602.88 1195.28L2294.32 1210.58Q2273.93 1261.58 2257.35 1292.18L2257.35 1292.18L2578.65 1278.15Q2615.63 1276.88 2632.20 1270.50Q2648.78 1264.13 2657.70 1264.76Q2666.63 1265.40 2680.65 1275.60L2680.65 1275.60Q2715.07 1299.83 2715.07 1317.04Q2715.07 1334.25 2695.95 1336.80L2695.95 1336.80L2692.13 1336.80L2465.18 1344.45Q2549.32 1433.70 2727.82 1521.68L2727.82 1521.68Q2743.13 1530.60 2743.13 1536.34Q2743.13 1542.08 2722.09 1563.11Q2701.05 1584.15 2690.21 1584.15Q2679.38 1584.15 2645.59 1566.94Q2611.80 1549.73 2560.16 1515.30Q2508.53 1480.88 2467.73 1442.63L2467.73 1442.63L2428.20 1403.10Q2406.53 1378.88 2381.03 1348.28L2381.03 1348.28L2222.93 1353.38Q2208.90 1380.15 2169.38 1428.60L2169.38 1428.60L2123.47 1479.60L2426.93 1457.93L2440.95 1456.65Q2456.25 1456.65 2474.10 1465.58L2474.10 1465.58Q2502.15 1480.88 2480.48 1512.75L2480.48 1512.75L2448.60 1674.68L2605.43 1668.30L2613.07 1668.30Q2630.93 1668.30 2644.95 1678.50Q2658.98 1688.70 2658.98 1704L2658.98 1704L2653.88 1730.78Q2638.57 1862.10 2611.80 1966.65L2611.80 1966.65Q2605.43 1981.95 2597.78 1997.89Q2590.13 2013.83 2571 2025.30L2571 2025.30Q2554.43 2038.05 2542.95 2038.05Q2531.48 2038.05 2511.08 2029.76Q2490.68 2021.48 2466.45 2007.45Q2442.23 1993.43 2431.39 1983.86Q2420.55 1974.30 2405.25 1960.91Q2389.95 1947.53 2389.95 1934.78Q2389.95 1922.03 2400.79 1922.03Q2411.63 1922.03 2434.57 1932.23Q2457.53 1942.43 2527.65 1961.55L2527.65 1961.55L2531.48 1961.55Q2539.13 1961.55 2540.40 1956.45L2540.40 1956.45Q2564.63 1881.23 2572.28 1843.61Q2579.93 1806 2588.85 1728.23L2588.85 1728.23L2179.57 1749.90Q2165.55 1751.18 2157.90 1755Q2150.25 1758.83 2140.69 1758.83Q2131.13 1758.83 2113.28 1748.63Q2095.43 1738.43 2099.25 1719.30L2099.25 1719.30Q2099.25 1711.65 2104.35 1704L2104.35 1704Q2129.85 1630.05 2129.85 1604.55L2129.85 1604.55L2124.75 1575.23Q2126.03 1563.75 2133.68 1563.75L2133.68 1563.75Q2164.28 1563.75 2193.60 1586.70L2193.60 1586.70Q2206.35 1595.63 2198.70 1623.68Q2191.05 1651.73 2188.50 1656.19Q2185.95 1660.65 2179.57 1686.15L2179.57 1686.15L2373.38 1678.50L2402.70 1522.95L2131.13 1540.80Q2124.75 1542.08 2118.38 1542.08L2118.38 1542.08L2109.45 1542.08Q2087.78 1543.35 2082.04 1538.25Q2076.30 1533.15 2072.47 1529.33ZM2449.88 1869.75L2057.18 1887.60L2041.88 1887.60Q2013.83 1887.60 1995.98 1879.95Q1978.13 1872.30 1966.65 1831.50L1966.65 1831.50Q1965.38 1828.95 1965.38 1821.94Q1965.38 1814.93 1968.56 1814.93Q1971.75 1814.93 1985.78 1818.75Q1999.80 1822.58 2020.20 1822.58L2020.20 1822.58L2027.85 1822.58L2361.90 1807.28Q2373.38 1806 2386.76 1804.73Q2400.15 1803.45 2407.80 1800.90Q2415.45 1798.35 2421.82 1798.35Q2428.20 1798.35 2439.68 1806L2439.68 1806Q2472.82 1827.68 2472.82 1846.80Q2472.82 1865.93 2449.88 1869.75L2449.88 1869.75Z"/>
  </svg>