<svg xmlns="http://www.w3.org/2000/svg" viewBox="0 0 3000 3000" width="3000" height="3000">
    <path fill="#000000" d="M302.77 1359.75L302.77 1322.78L1417.13 1322.78L1417.13 1359.75L302.77 1359.75ZM712.05 997.65L712.05 997.65L752.85 998.92Q745.20 1218.22 724.80 1392.26Q704.40 1566.30 658.50 1701.45Q612.60 1836.60 528.45 1939.88Q444.30 2043.15 309.15 2120.93L309.15 2120.93Q306.60 2115.83 301.50 2110.09Q296.40 2104.35 290.66 2098.61Q284.92 2092.88 279.82 2089.05L279.82 2089.05Q414.97 2018.93 497.85 1919.48Q580.72 1820.03 624.71 1686.79Q668.70 1553.55 687.19 1382.70Q705.67 1211.85 712.05 997.65ZM907.12 2006.18L907.12 1345.72L945.37 1345.72L945.37 2006.18Q945.37 2039.33 961.31 2051.44Q977.25 2063.55 1032.07 2063.55L1032.07 2063.55Q1046.10 2063.55 1086.26 2063.55Q1126.42 2063.55 1175.51 2063.55Q1224.60 2063.55 1266.67 2063.55Q1308.75 2063.55 1327.88 2063.55L1327.88 2063.55Q1355.92 2063.55 1370.59 2052.08Q1385.25 2040.60 1390.99 2008.09Q1396.72 1975.58 1398 1914.38L1398 1914.38Q1406.92 1920.75 1417.13 1925.21Q1427.32 1929.68 1436.25 1932.23L1436.25 1932.23Q1433.70 1997.25 1424.77 2034.23Q1415.85 2071.20 1393.54 2085.86Q1371.22 2100.53 1326.60 2100.53L1326.60 2100.53Q1318.95 2100.53 1289.62 2100.53Q1260.30 2100.53 1220.77 2100.53Q1181.25 2100.53 1141.09 2100.53Q1100.92 2100.53 1071.60 2100.53Q1042.27 2100.53 1035.90 2100.53L1035.90 2100.53Q987.45 2100.53 958.76 2092.88Q930.07 2085.22 918.60 2064.83Q907.12 2044.43 907.12 2006.18L907.12 2006.18ZM1009.12 1061.40L1009.12 1061.40L1030.80 1039.72Q1072.88 1066.50 1118.14 1100.29Q1163.40 1134.08 1203.56 1166.59Q1243.72 1199.10 1269.22 1224.60L1269.22 1224.60L1246.27 1252.65Q1220.77 1225.88 1180.61 1192.72Q1140.45 1159.58 1095.82 1124.51Q1051.20 1089.45 1009.12 1061.40ZM1262.85 1450.28L1262.85 1450.28L1294.72 1464.30Q1228.42 1585.43 1127.70 1698.90Q1026.97 1812.38 902.02 1906.09Q777.07 1999.80 636.82 2061L636.82 2061Q631.72 2054.63 623.44 2045.70Q615.15 2036.78 608.77 2031.68L608.77 2031.68Q750.30 1970.48 874.61 1879.95Q998.92 1789.43 1098.38 1679.14Q1197.82 1568.85 1262.85 1450.28ZM1989.60 1230.97L1989.60 1194L2660.25 1194L2660.25 1230.97L1989.60 1230.97ZM1941.15 1409.47L1941.15 1372.50L2707.43 1372.50L2707.43 1409.47L1941.15 1409.47ZM2425.65 1392.90L2458.80 1381.43Q2495.78 1451.55 2565.90 1511.47Q2636.03 1571.40 2718.90 1598.18L2718.90 1598.18Q2711.25 1603.28 2702.96 1612.84Q2694.68 1622.40 2689.57 1630.05L2689.57 1630.05Q2607.98 1596.90 2535.94 1532.51Q2463.90 1468.13 2425.65 1392.90L2425.65 1392.90ZM2534.03 1011.67L2534.03 1011.67L2572.28 1026.97Q2551.88 1065.22 2530.84 1104.11Q2509.80 1143 2489.40 1171.05L2489.40 1171.05L2458.80 1157.03Q2476.65 1127.70 2498.96 1084.99Q2521.28 1042.28 2534.03 1011.67ZM2303.25 1000.20L2303.25 1000.20L2342.78 1006.58Q2300.70 1234.80 2205.07 1390.35Q2109.45 1545.90 1948.80 1644.08L1948.80 1644.08Q1946.25 1640.25 1940.51 1635.15Q1934.78 1630.05 1929.04 1624.31Q1923.30 1618.58 1919.47 1614.75L1919.47 1614.75Q2078.85 1524.22 2171.29 1371.86Q2263.73 1219.50 2303.25 1000.20ZM2049.53 1024.42L2049.53 1024.42L2081.40 1010.40Q2106.90 1043.55 2128.57 1084.99Q2150.25 1126.42 2159.18 1157.03L2159.18 1157.03L2123.47 1173.60Q2114.55 1143 2094.79 1100.92Q2075.03 1058.85 2049.53 1024.42ZM2605.43 1767.75L2605.43 1761.38L2643.68 1761.38Q2643.68 1761.38 2643.04 1769.66Q2642.40 1777.95 2641.13 1784.33L2641.13 1784.33Q2629.65 1892.70 2618.18 1959.64Q2606.70 2026.58 2593.95 2062.28Q2581.20 2097.97 2563.35 2114.55L2563.35 2114.55Q2550.60 2126.03 2536.57 2130.49Q2522.55 2134.95 2497.05 2136.22L2497.05 2136.22Q2476.65 2136.22 2437.13 2134.95Q2397.60 2133.68 2351.70 2129.85L2351.70 2129.85Q2350.43 2122.20 2347.88 2111.36Q2345.32 2100.53 2340.23 2091.60L2340.23 2091.60Q2389.95 2096.70 2432.03 2097.97Q2474.10 2099.25 2489.40 2099.25L2489.40 2099.25Q2505.98 2099.25 2516.81 2097.34Q2527.65 2095.43 2535.30 2089.05L2535.30 2089.05Q2549.32 2076.30 2560.80 2041.24Q2572.28 2006.18 2583.75 1939.88Q2595.23 1873.58 2605.43 1767.75L2605.43 1767.75ZM2096.70 1589.25L2096.70 1552.28L2495.78 1552.28L2495.78 1589.25L2096.70 1589.25ZM2477.93 1552.28L2477.93 1552.28L2516.18 1552.28Q2503.43 1612.20 2488.13 1677.86Q2472.82 1743.53 2458.80 1789.43L2458.80 1789.43L2419.28 1790.70Q2433.30 1742.25 2449.88 1675.95Q2466.45 1609.65 2477.93 1552.28ZM2109.45 1621.13L2109.45 1621.13L2145.15 1626.22Q2136.22 1670.85 2124.75 1717.39Q2113.28 1763.93 2103.07 1798.35L2103.07 1798.35L2064.82 1798.35Q2077.57 1761.38 2089.69 1712.93Q2101.80 1664.47 2109.45 1621.13ZM2089.05 1798.35L2089.05 1761.38L2618.18 1761.38L2618.18 1798.35L2089.05 1798.35ZM1990.88 1953.90L1990.88 1916.93L2486.85 1916.93L2486.85 1953.90L1990.88 1953.90ZM1646.63 1083.08L1646.63 1046.10L1888.88 1046.10L1888.88 1083.08L1646.63 1083.08ZM1646.63 1390.35L1646.63 1353.38L1895.25 1353.38L1895.25 1390.35L1646.63 1390.35ZM1642.80 1705.28L1642.80 1668.30L1891.43 1668.30L1891.43 1705.28L1642.80 1705.28ZM1623.67 1500L1623.67 1046.10L1661.92 1046.10L1661.92 1498.72Q1661.92 1570.13 1658.74 1653Q1655.55 1735.88 1647.26 1822.58Q1638.97 1909.28 1621.76 1991.51Q1604.55 2073.75 1576.50 2145.15L1576.50 2145.15Q1573.95 2141.33 1567.58 2138.14Q1561.20 2134.95 1555.46 2131.13Q1549.72 2127.30 1544.63 2126.03L1544.63 2126.03Q1571.40 2057.18 1587.34 1976.85Q1603.28 1896.53 1610.92 1813.01Q1618.58 1729.50 1621.13 1649.18Q1623.67 1568.85 1623.67 1500L1623.67 1500ZM1873.58 2071.20L1873.58 1046.10L1911.83 1046.10L1911.83 2069.93Q1911.83 2094.15 1904.18 2105.63Q1896.53 2117.10 1878.67 2123.47L1878.67 2123.47Q1862.10 2128.58 1827.67 2129.21Q1793.25 2129.85 1734.60 2129.85L1734.60 2129.85Q1733.33 2123.47 1729.50 2112.64Q1725.67 2101.80 1720.58 2092.88L1720.58 2092.88Q1769.03 2094.15 1804.72 2094.15Q1840.42 2094.15 1851.90 2092.88L1851.90 2092.88Q1873.58 2092.88 1873.58 2071.20L1873.58 2071.20Z"/>
  </svg>