<svg xmlns="http://www.w3.org/2000/svg" viewBox="0 0 3000 3000" width="3000" height="3000">
    <path fill="#000000" d="M2019.53 2357.42Q1796.88 2357.42 1697.27 2345.70L1697.27 2345.70Q1640.63 2339.84 1608.40 2302.73Q1576.17 2265.63 1576.17 2197.27L1576.17 2197.27L1576.17 1451.17Q1576.17 1302.73 1726.56 1302.73L1726.56 1302.73L2125 1302.73Q2152.34 1302.73 2164.06 1286.13Q2175.78 1269.53 2175.78 1232.42L2175.78 1232.42Q2175.78 1197.27 2164.06 1182.62Q2152.34 1167.97 2125 1166.02L2125 1166.02L1726.56 1166.02Q1576.17 1166.02 1576.17 1015.63L1576.17 1015.63L1576.17 675.78Q1576.17 607.42 1650.39 607.42L1650.39 607.42Q1726.56 607.42 1726.56 675.78L1726.56 675.78L1726.56 982.42Q1726.56 1035.16 1785.16 1039.06L1785.16 1039.06L2177.73 1039.06Q2250 1039.06 2288.09 1076.17Q2326.17 1113.28 2326.17 1185.55L2326.17 1185.55L2326.17 1281.25Q2326.17 1353.52 2290.04 1391.60Q2253.91 1429.69 2181.64 1429.69L2181.64 1429.69L1781.25 1429.69Q1724.61 1429.69 1722.66 1488.28L1722.66 1488.28L1722.66 1521.48L2240.23 1521.48Q2304.69 1521.48 2304.69 1578.13L2304.69 1578.13Q2304.69 1634.77 2240.23 1634.77L2240.23 1634.77L1722.66 1634.77L1722.66 1734.38L2240.23 1734.38Q2304.69 1734.38 2304.69 1791.02L2304.69 1791.02Q2304.69 1847.66 2240.23 1847.66L2240.23 1847.66L1722.66 1847.66L1722.66 1953.13L2240.23 1953.13Q2304.69 1953.13 2304.69 2009.77L2304.69 2009.77Q2304.69 2066.41 2240.23 2066.41L2240.23 2066.41L1722.66 2066.41L1722.66 2148.44Q1722.66 2183.59 1732.42 2196.29Q1742.19 2208.98 1771.48 2212.89L1771.48 2212.89Q1822.27 2218.75 1921.88 2218.75L1921.88 2218.75L2011.72 2218.75Q2177.73 2214.84 2214.84 2207.03L2214.84 2207.03Q2234.38 2203.13 2240.23 2189.45Q2246.09 2175.78 2246.09 2140.63L2246.09 2140.63Q2246.09 2103.52 2263.67 2086.91Q2281.25 2070.31 2316.41 2070.31L2316.41 2070.31Q2388.67 2070.31 2388.67 2138.67L2388.67 2138.67Q2388.67 2259.77 2341.80 2306.64L2341.80 2306.64Q2291.02 2357.42 2019.53 2357.42L2019.53 2357.42ZM787.11 2394.53Q714.84 2394.53 714.84 2306.64L714.84 2306.64L714.84 1544.92Q714.84 1390.63 867.19 1390.63L867.19 1390.63L1287.11 1390.63Q1439.45 1390.63 1439.45 1544.92L1439.45 1544.92L1439.45 2205.08Q1439.45 2300.78 1396.48 2343.75Q1353.52 2386.72 1255.86 2386.72L1255.86 2386.72L1166.02 2386.72Q1082.03 2386.72 1082.03 2314.45L1082.03 2314.45Q1082.03 2240.23 1166.02 2240.23L1166.02 2240.23L1228.52 2240.23Q1291.02 2240.23 1292.97 2175.78L1292.97 2175.78L1292.97 2027.34L861.33 2027.34L861.33 2306.64Q861.33 2394.53 787.11 2394.53L787.11 2394.53ZM861.33 1900.39L1292.97 1900.39L1292.97 1771.48L861.33 1771.48L861.33 1900.39ZM861.33 1644.53L1292.97 1644.53L1292.97 1576.17Q1292.97 1521.48 1236.33 1519.53L1236.33 1519.53L919.92 1519.53Q865.23 1519.53 861.33 1576.17L861.33 1576.17L861.33 1644.53ZM964.84 1166.02L1193.36 1166.02L1234.38 916.02L908.20 916.02Q937.50 1005.86 962.89 1162.11L962.89 1162.11L964.84 1166.02ZM681.64 1304.69Q605.47 1304.69 605.47 1236.33L605.47 1236.33Q605.47 1166.02 681.64 1166.02L681.64 1166.02L814.45 1166.02Q792.97 1025.39 757.81 921.88L757.81 921.88L755.86 916.02L697.27 916.02Q623.05 916.02 623.05 845.70L623.05 845.70Q623.05 777.34 697.27 777.34L697.27 777.34L998.05 777.34L998.05 683.59Q998.05 607.42 1078.13 607.42L1078.13 607.42Q1162.11 607.42 1162.11 683.59L1162.11 683.59L1162.11 777.34L1455.08 777.34Q1531.25 777.34 1531.25 847.66L1531.25 847.66Q1531.25 916.02 1455.08 916.02L1455.08 916.02L1384.77 916.02L1330.08 1166.02L1484.38 1166.02Q1560.55 1166.02 1560.55 1236.33L1560.55 1236.33Q1560.55 1304.69 1484.38 1304.69L1484.38 1304.69L681.64 1304.69ZM1697.27 902.34L1697.27 763.67L2273.44 763.67Q2347.66 763.67 2347.66 833.98L2347.66 833.98Q2347.66 902.34 2273.44 902.34L2273.44 902.34L1697.27 902.34Z"/>
  </svg>