<svg xmlns="http://www.w3.org/2000/svg" viewBox="0 0 3000 3000" width="3000" height="3000">
    <path fill="#000000" d="M640 970L640 912L1470 912L1470 970L640 970ZM600 1380L600 1322L1510 1322L1510 1380L600 1380ZM796 1024L796 1024L850 1010Q880 1074 906 1152Q932 1230 940 1284L940 1284L882 1302Q874 1244 850 1167Q826 1090 796 1024ZM1286 1010L1286 1010L1346 1032Q1308 1118 1264 1213Q1220 1308 1180 1378L1180 1378L1132 1354Q1158 1308 1187 1247Q1216 1186 1243 1123Q1270 1060 1286 1010ZM1336 2396L1336 1530L1396 1530L1396 2396Q1396 2430 1386 2449Q1376 2468 1348 2478L1348 2478Q1320 2486 1263 2488Q1206 2490 1120 2490L1120 2490Q1118 2476 1110 2458Q1102 2440 1094 2426L1094 2426Q1174 2428 1229 2428Q1284 2428 1304 2426L1304 2426Q1324 2424 1330 2418Q1336 2412 1336 2396L1336 2396ZM1660 950L1660 892L2386 892L2386 950L1660 950ZM1662 1762L1662 1704L2300 1704L2300 1762L1662 1762ZM1660 1986L1660 1926L2288 1926L2288 1986L1660 1986ZM1662 2220L1662 2162L2308 2162L2308 2220L1662 2220ZM1632 1196L1632 710L1690 710L1690 1196L1632 1196ZM1632 1226L1632 1166L2304 1166L2304 1534L1632 1534L1632 1476L2244 1476L2244 1226L1632 1226ZM1632 2368L1632 1518L1690 1518L1690 2370Q1690 2412 1713 2427Q1736 2442 1820 2442L1820 2442Q1840 2442 1899 2442Q1958 2442 2031 2442Q2104 2442 2168 2442Q2232 2442 2258 2442L2258 2442Q2296 2442 2316 2429Q2336 2416 2344 2379Q2352 2342 2354 2270L2354 2270Q2366 2278 2383 2285Q2400 2292 2414 2296L2414 2296Q2410 2376 2397 2421Q2384 2466 2352 2484Q2320 2502 2258 2502L2258 2502Q2248 2502 2204 2502Q2160 2502 2101 2502Q2042 2502 1982 2502Q1922 2502 1879 2502Q1836 2502 1826 2502L1826 2502Q1750 2502 1708 2492Q1666 2482 1649 2453Q1632 2424 1632 2368L1632 2368ZM984 720L984 720L1036 704Q1066 760 1092 827Q1118 894 1128 940L1128 940L1070 958Q1062 910 1038 843Q1014 776 984 720ZM762 1590L762 1530L1370 1530L1370 1590L762 1590ZM730 1920L730 1530L788 1530L788 1920Q788 2008 780 2113Q772 2218 747 2323Q722 2428 670 2518L670 2518Q668 2510 660 2502Q652 2494 644 2487Q636 2480 628 2476L628 2476Q674 2392 696 2295Q718 2198 724 2101Q730 2004 730 1920L730 1920ZM844 2236L810 2188Q920 2150 1069 2093Q1218 2036 1374 1976L1374 1976L1384 2020Q1242 2080 1100 2136Q958 2192 844 2236L844 2236ZM850 1760L850 1760L874 1716Q944 1738 1022 1766Q1100 1794 1171 1821Q1242 1848 1290 1872L1290 1872L1268 1924Q1220 1900 1148 1871Q1076 1842 998 1813Q920 1784 850 1760Z"/>
  </svg>