<svg xmlns="http://www.w3.org/2000/svg" viewBox="0 0 3000 3000" width="3000" height="3000">
    <path fill="#000000" d="M829.35 1500L829.35 1500Q829.35 1493.63 838.27 1492.99Q847.20 1492.35 861.22 1497.45L861.22 1497.45Q872.70 1502.55 880.35 1524.86Q888.00 1547.17 893.10 1558.65L893.10 1558.65Q898.20 1570.13 898.20 1581.60Q898.20 1593.07 893.10 1595.63L893.10 1595.63Q889.27 1596.90 884.17 1625.59Q879.07 1654.28 880.35 1669.58L880.35 1669.58Q880.35 1704 885.45 1706.55L885.45 1706.55Q888.00 1709.10 894.37 1698.90L894.37 1698.90Q895.65 1695.08 899.47 1688.70L899.47 1688.70Q907.12 1673.40 916.05 1658.74Q924.97 1644.08 928.80 1636.42Q932.62 1628.78 938.36 1621.76Q944.10 1614.75 954.30 1589.25L954.30 1589.25Q968.32 1553.55 985.54 1535.70Q1002.75 1517.85 1018.05 1524.22L1018.05 1524.22Q1025.70 1526.78 1044.82 1543.35L1044.82 1543.35Q1055.02 1554.82 1058.21 1562.47Q1061.40 1570.13 1061.40 1589.25L1061.40 1589.25Q1061.40 1614.75 1054.39 1628.78Q1047.38 1642.80 1023.15 1668.30L1023.15 1668.30Q1002.75 1688.70 1002.75 1692.53Q1002.75 1696.35 981.07 1724.40Q959.40 1752.45 959.40 1754.36Q959.40 1756.28 947.29 1770.30Q935.17 1784.33 917.32 1806Q899.47 1827.67 893.10 1831.50L893.10 1831.50Q886.72 1834.05 888.00 1841.70Q889.27 1849.35 902.02 1874.85L902.02 1874.85Q923.70 1922.03 987.45 1942.42L987.45 1942.42Q1010.40 1951.35 1084.35 1955.81Q1158.30 1960.28 1192.72 1955.17L1192.72 1955.17Q1224.60 1948.80 1262.21 1934.14Q1299.82 1919.47 1313.85 1905.45L1313.85 1905.45Q1332.97 1887.60 1348.27 1854.45Q1363.57 1821.30 1363.57 1799.63L1363.57 1799.63Q1363.57 1775.40 1375.05 1766.47L1375.05 1766.47Q1381.42 1757.55 1382.70 1757.55Q1383.97 1757.55 1390.35 1763.92L1390.35 1763.92Q1396.72 1774.13 1400.55 1795.80Q1404.38 1817.47 1409.47 1827.67L1409.47 1827.67Q1414.57 1836.60 1423.50 1869.11Q1432.42 1901.63 1432.42 1915.65L1432.42 1915.65Q1432.42 1929.67 1438.80 1942.42L1438.80 1942.42Q1455.38 1973.03 1440.07 1980.67L1440.07 1980.67Q1436.25 1984.50 1432.42 1994.70L1432.42 1994.70Q1422.22 2015.10 1404.38 2034.22Q1386.52 2053.35 1369.95 2062.28L1369.95 2062.28Q1357.20 2068.65 1327.88 2074.39Q1298.55 2080.13 1283.25 2086.50L1283.25 2086.50Q1251.37 2094.15 1150.65 2090.32Q1049.92 2086.50 1001.47 2073.75L1001.47 2073.75Q936.45 2054.63 907.12 2030.40L907.12 2030.40Q861.22 1990.88 851.02 1969.20L851.02 1969.20Q837.00 1933.50 832.54 1925.21Q828.07 1916.92 822.97 1916.92L822.97 1916.92Q817.87 1916.92 763.05 1957.72Q708.22 1998.53 701.85 1998.53L701.85 1998.53Q687.82 1998.53 695.47 1980.67L695.47 1980.67Q714.60 1944.97 775.80 1877.40L775.80 1877.40Q784.72 1869.75 800.02 1849.35L800.02 1849.35L816.60 1830.22L808.95 1738.42Q805.12 1659.38 808.31 1593.71Q811.50 1528.05 821.70 1516.57L821.70 1516.57Q829.35 1508.92 829.35 1500ZM944.10 1103.47L959.40 1086.90Q974.70 1072.88 984.90 1075.42Q995.10 1077.97 1030.80 1085.63Q1066.50 1093.27 1085.63 1103.47L1085.63 1103.47Q1112.40 1117.50 1130.25 1150.01Q1148.10 1182.52 1137.90 1202.92L1137.90 1202.92Q1118.77 1239.90 1100.92 1247.55L1100.92 1247.55Q1089.45 1251.38 1064.59 1239.90Q1039.72 1228.42 1021.87 1211.85L1021.87 1211.85Q1005.30 1196.55 982.99 1167.22Q960.67 1137.90 953.02 1121.32L953.02 1121.32L944.10 1103.47ZM765.60 1060.13L765.60 1060.13Q771.97 1058.85 771.97 1053.75Q771.97 1048.65 783.45 1048.65L783.45 1048.65Q791.10 1048.65 810.22 1065.22Q829.35 1081.80 829.35 1089.45L829.35 1089.45Q829.35 1093.27 844.65 1112.40Q859.95 1131.52 859.95 1153.84Q859.95 1176.15 852.30 1183.80Q844.65 1191.45 842.10 1215.67L842.10 1215.67Q835.72 1255.20 820.42 1290.90L820.42 1290.90Q814.05 1306.20 818.51 1309.39Q822.97 1312.57 942.82 1310.03L942.82 1310.03L1088.17 1302.38Q1103.47 1302.38 1110.49 1304.92Q1117.50 1307.47 1125.15 1315.13L1125.15 1315.13Q1149.38 1341.90 1144.27 1372.50L1144.27 1372.50Q1140.45 1391.63 1126.42 1403.10Q1112.40 1414.57 1092.64 1414.57Q1072.88 1414.57 1062.67 1408.20L1062.67 1408.20Q1049.92 1399.28 1002.75 1398Q955.57 1396.72 913.50 1403.10L913.50 1403.10Q865.05 1410.75 833.17 1410.75L833.17 1410.75L802.57 1410.75L793.65 1436.25Q787.27 1460.47 778.35 1498.72L778.35 1498.72Q759.22 1596.90 728.62 1663.20L728.62 1663.20Q713.32 1695.08 713.32 1700.17L713.32 1700.17Q713.32 1709.10 692.92 1742.25L692.92 1742.25Q690.37 1749.90 685.27 1761.38L685.27 1761.38Q677.62 1776.67 664.87 1807.28L664.87 1807.28Q659.77 1816.20 627.90 1860.83Q596.02 1905.45 582.00 1922.03L582.00 1922.03Q555.22 1950.08 490.84 2002.99Q426.45 2055.90 414.97 2055.90L414.97 2055.90Q412.42 2055.90 409.87 2059.72L409.87 2059.72Q408.60 2064.82 393.94 2073.11Q379.27 2081.40 365.89 2086.50Q352.50 2091.60 352.50 2089.05L352.50 2089.05Q352.50 2085.22 367.80 2061.64Q383.10 2038.05 388.20 2034.22L388.20 2034.22Q394.57 2030.40 425.17 1993.42L425.17 1993.42L468.52 1944.97Q480.00 1933.50 483.82 1923.30L483.82 1923.30Q488.92 1906.72 511.87 1877.40L511.87 1877.40Q528.45 1853.17 547.57 1816.20L547.57 1816.20Q560.32 1790.70 564.79 1788.15Q569.25 1785.60 569.25 1779.22Q569.25 1772.85 584.55 1739.70L584.55 1739.70Q610.05 1684.88 618.97 1656.83L618.97 1656.83Q629.17 1633.88 635.55 1619.21Q641.92 1604.55 641.92 1596.90Q641.92 1589.25 655.95 1544.63L655.95 1544.63Q689.10 1437.53 682.72 1429.88L682.72 1429.88Q677.62 1426.05 638.74 1434.34Q599.85 1442.63 585.82 1452.82L585.82 1452.82L565.42 1464.30L542.47 1451.55Q516.97 1438.80 508.69 1428.60Q500.40 1418.40 501.67 1403.10L501.67 1403.10Q502.95 1368.67 546.30 1358.47L546.30 1358.47Q662.32 1327.88 677.62 1327.88L677.62 1327.88Q696.75 1327.88 703.76 1318.31Q710.77 1308.75 713.32 1271.78L713.32 1271.78Q719.70 1218.22 732.45 1130.25L732.45 1130.25Q736.27 1102.20 746.47 1081.16Q756.67 1060.13 765.60 1060.13ZM2247.15 1836.60L2295.60 1827.67Q2363.18 1817.47 2375.93 1830.22L2375.93 1830.22Q2393.78 1849.35 2378.48 1882.50L2378.48 1882.50Q2367 1904.17 2353.61 1909.91Q2340.23 1915.65 2310.90 1908L2310.90 1908Q2267.55 1897.80 2201.89 1907.36Q2136.22 1916.92 2100.53 1938.60L2100.53 1938.60Q2072.47 1956.45 2039.33 1938.60L2039.33 1938.60Q2022.75 1928.40 2021.47 1922.66Q2020.20 1916.92 2030.40 1899.08L2030.40 1899.08Q2039.33 1885.05 2060.36 1874.21Q2081.40 1863.38 2100.53 1863.38L2100.53 1863.38Q2118.38 1863.38 2146.43 1855.72Q2174.47 1848.08 2195.51 1848.08Q2216.55 1848.08 2219.74 1843.61Q2222.93 1839.15 2247.15 1836.60L2247.15 1836.60ZM2222.93 1100.92L2222.93 1100.92Q2222.93 1086.90 2229.30 1064.59Q2235.68 1042.27 2242.05 1016.77Q2248.43 991.27 2256.07 979.80Q2263.73 968.32 2267.55 968.32L2267.55 968.32Q2273.93 968.32 2286.68 984.90Q2299.43 1001.47 2303.25 1018.05L2303.25 1018.05Q2307.07 1032.07 2306.44 1046.10Q2305.80 1060.13 2295.60 1099.65L2295.60 1099.65Q2282.85 1158.30 2277.75 1172.32Q2272.65 1186.35 2275.20 1186.35L2275.20 1186.35Q2280.30 1186.35 2358.07 1084.35L2358.07 1084.35Q2393.78 1035.90 2403.34 1032.07Q2412.90 1028.25 2444.78 1044.82L2444.78 1044.82Q2466.45 1057.57 2472.19 1062.67Q2477.93 1067.77 2479.20 1079.25L2479.20 1079.25Q2483.03 1112.40 2446.05 1127.70L2446.05 1127.70Q2428.20 1136.63 2408.44 1148.74Q2388.68 1160.85 2358.71 1176.15Q2328.75 1191.45 2328.75 1195.27L2328.75 1195.27Q2331.30 1196.55 2346.60 1196.55Q2361.90 1196.55 2382.94 1193.36Q2403.98 1190.17 2411.63 1187.63L2411.63 1187.63Q2421.82 1185.07 2430.75 1192.72Q2439.68 1200.38 2443.50 1214.40L2443.50 1214.40Q2446.05 1227.15 2438.40 1243.09Q2430.75 1259.03 2419.28 1264.13L2419.28 1264.13Q2407.80 1269.22 2402.70 1269.22Q2397.60 1269.22 2382.30 1264.13L2382.30 1264.13Q2365.73 1259.03 2323.01 1257.75Q2280.30 1256.47 2266.28 1260.30L2266.28 1260.30Q2256.07 1264.13 2249.70 1284.53L2249.70 1284.53Q2240.78 1307.47 2242.05 1313.21Q2243.32 1318.95 2254.80 1318.95L2254.80 1318.95Q2270.10 1317.67 2388.68 1316.40Q2507.25 1315.13 2514.90 1308.75L2514.90 1308.75Q2526.38 1302.38 2546.14 1306.84Q2565.90 1311.30 2581.20 1322.78L2581.20 1322.78Q2601.60 1338.07 2601.60 1355.92L2601.60 1355.92Q2601.60 1392.90 2567.18 1405.65L2567.18 1405.65Q2542.95 1415.85 2512.35 1392.90L2512.35 1392.90Q2498.33 1382.70 2469 1377.60Q2439.68 1372.50 2409.07 1373.78L2409.07 1373.78L2379.75 1375.05L2398.88 1403.10Q2420.55 1437.53 2458.16 1474.50Q2495.78 1511.47 2526.38 1530.60L2526.38 1530.60Q2540.40 1538.25 2549.32 1548.45L2549.32 1548.45Q2560.80 1556.10 2611.80 1583.51Q2662.80 1610.92 2670.45 1610.92Q2678.10 1610.92 2698.50 1630.69Q2718.90 1650.45 2723.36 1650.45Q2727.82 1650.45 2732.93 1661.92L2732.93 1661.92Q2736.75 1669.58 2733.56 1677.22Q2730.38 1684.88 2712.53 1692.53Q2694.68 1700.17 2665.99 1707.19Q2637.30 1714.20 2590.13 1724.40L2590.13 1724.40Q2576.10 1726.95 2544.23 1702.72L2544.23 1702.72Q2509.80 1675.95 2464.54 1628.78Q2419.28 1581.60 2419.28 1572.67Q2419.28 1563.75 2413.54 1556.74Q2407.80 1549.72 2401.43 1549.72L2401.43 1549.72Q2393.78 1549.72 2393.78 1554.82Q2393.78 1559.92 2387.40 1576.50L2387.40 1576.50Q2372.10 1612.20 2365.73 1674.67L2365.73 1674.67Q2363.18 1693.80 2368.28 1700.17Q2373.38 1706.55 2389.95 1706.55L2389.95 1706.55Q2402.70 1706.55 2444.14 1719.94Q2485.58 1733.33 2508.53 1746.08L2508.53 1746.08Q2560.80 1771.58 2554.43 1830.22L2554.43 1830.22Q2545.50 1886.33 2532.75 1928.40L2532.75 1928.40Q2512.35 1987.05 2498.33 1999.80L2498.33 1999.80Q2489.40 2006.17 2481.75 2022.75L2481.75 2022.75Q2458.80 2071.20 2405.25 2091.60Q2351.70 2112 2333.85 2078.85L2333.85 2078.85Q2319.82 2052.07 2284.13 2025.30L2284.13 2025.30Q2268.82 2015.10 2257.99 2001.08Q2247.15 1987.05 2247.15 1979.40L2247.15 1979.40Q2247.15 1978.13 2249.70 1978.13Q2252.25 1978.13 2257.35 1978.13Q2262.45 1978.13 2266.28 1979.40L2266.28 1979.40Q2310.90 1989.60 2328.11 1991.51Q2345.32 1993.42 2367 1985.78L2367 1985.78Q2396.32 1978.13 2405.25 1966.65L2405.25 1966.65Q2412.90 1957.72 2426.29 1917.56Q2439.68 1877.40 2442.23 1851.90L2442.23 1851.90Q2444.78 1830.22 2440.95 1804.72L2440.95 1804.72Q2438.40 1786.88 2434.57 1782.41Q2430.75 1777.95 2418 1772.85L2418 1772.85Q2397.60 1766.47 2352.98 1766.47Q2308.35 1766.47 2273.93 1772.85L2273.93 1772.85Q2216.55 1785.60 2185.95 1822.58L2185.95 1822.58Q2175.75 1831.50 2164.28 1832.14Q2152.80 1832.78 2146.43 1825.13L2146.43 1825.13Q2140.05 1818.75 2142.60 1791.97Q2145.15 1765.20 2154.07 1737.15Q2163 1709.10 2166.82 1651.72L2166.82 1651.72Q2173.20 1570.13 2192.32 1570.13L2192.32 1570.13Q2196.15 1570.13 2211.45 1581.60L2211.45 1581.60Q2235.68 1603.28 2222.93 1636.42L2222.93 1636.42Q2217.82 1647.90 2215.28 1683.60L2215.28 1683.60L2211.45 1716.75L2239.50 1714.20Q2276.48 1709.10 2282.21 1702.72Q2287.95 1696.35 2290.50 1655.55L2290.50 1655.55Q2293.05 1607.10 2298.15 1576.50L2298.15 1576.50Q2301.98 1549.72 2296.88 1544.63Q2291.78 1539.53 2262.45 1539.53L2262.45 1539.53Q2212.72 1539.53 2175.75 1566.30L2175.75 1566.30Q2161.72 1576.50 2145.15 1570.13L2145.15 1570.13Q2136.22 1567.57 2132.40 1566.94Q2128.57 1566.30 2126.03 1565.66Q2123.47 1565.03 2122.20 1566.30Q2120.93 1567.57 2120.93 1570.13L2120.93 1570.13Q2120.93 1584.15 2068.65 1636.42L2068.65 1636.42Q2052.07 1654.28 2016.38 1678.50Q1980.68 1702.72 1967.93 1716.75L1967.93 1716.75Q1959 1728.22 1957.09 1738.42Q1955.18 1748.63 1955.18 1784.33L1955.18 1784.33Q1953.90 1910.55 1937.33 1943.70L1937.33 1943.70Q1929.68 1959 1914.38 1976.85L1914.38 1976.85Q1901.63 1989.60 1879.31 1997.25Q1857 2004.90 1839.79 2001.71Q1822.58 1998.53 1822.58 1984.50L1822.58 1984.50Q1822.58 1960.28 1781.78 1927.13L1781.78 1927.13Q1761.38 1910.55 1741.61 1890.79Q1721.85 1871.03 1721.85 1867.20L1721.85 1867.20Q1721.85 1863.38 1707.83 1854.45L1707.83 1854.45Q1697.63 1848.08 1687.42 1832.78Q1677.22 1817.47 1679.78 1811.10L1679.78 1811.10Q1686.15 1802.17 1734.60 1825.13L1734.60 1825.13Q1772.85 1842.97 1794.53 1845.53L1794.53 1845.53Q1808.55 1848.08 1814.29 1846.16Q1820.03 1844.25 1826.40 1836.60L1826.40 1836.60Q1836.60 1822.58 1840.42 1761.38L1840.42 1761.38L1846.80 1642.80L1850.63 1585.42L1823.85 1587.97Q1769.03 1593.07 1746.08 1614.75L1746.08 1614.75Q1737.15 1624.95 1733.33 1644.08L1733.33 1644.08Q1714.20 1732.05 1679.78 1790.70L1679.78 1790.70Q1670.85 1807.28 1647.90 1837.88Q1624.95 1868.47 1618.58 1876.13L1618.58 1876.13Q1612.20 1881.22 1596.90 1904.17L1596.90 1904.17Q1581.60 1924.58 1572.04 1930.31Q1562.47 1936.05 1549.72 1928.40L1549.72 1928.40Q1533.15 1920.75 1547.17 1901.63L1547.17 1901.63Q1554.83 1890.15 1554.83 1883.14Q1554.83 1876.13 1596.90 1793.25L1596.90 1793.25Q1646.63 1692.53 1656.83 1635.15L1656.83 1635.15Q1659.38 1612.20 1665.75 1594.35L1665.75 1594.35Q1681.05 1547.17 1691.25 1459.84Q1701.45 1372.50 1701.45 1293.45L1701.45 1293.45Q1701.45 1252.65 1711.01 1227.15Q1720.58 1201.65 1716.11 1194.64Q1711.65 1187.63 1711.65 1164.67L1711.65 1164.67Q1711.65 1148.10 1715.47 1143Q1719.30 1137.90 1735.88 1126.42L1735.88 1126.42Q1798.35 1085.63 1900.35 1099.65L1900.35 1099.65Q1942.43 1106.02 1960.28 1115.59Q1978.13 1125.15 1984.50 1148.10L1984.50 1148.10Q1990.88 1169.77 1984.50 1197.82L1984.50 1197.82Q1971.75 1257.75 1969.20 1287.07Q1966.65 1316.40 1964.10 1382.70L1964.10 1382.70Q1964.10 1475.77 1959 1508.92L1959 1508.92Q1953.90 1548.45 1954.54 1596.90Q1955.18 1645.35 1961.55 1645.35L1961.55 1645.35Q1969.20 1645.35 2004.90 1606.46Q2040.60 1567.57 2058.45 1539.53L2058.45 1539.53Q2076.30 1514.03 2103.71 1459.84Q2131.13 1405.65 2128.57 1401.82L2128.57 1401.82Q2124.75 1396.72 2099.25 1408.84Q2073.75 1420.95 2059.72 1434.97L2059.72 1434.97Q2045.70 1452.82 2032.95 1452.82Q2020.20 1452.82 1999.80 1434.97L1999.80 1434.97Q1974.30 1413.30 1992.15 1398L1992.15 1398Q1999.80 1392.90 1999.80 1385.25L1999.80 1385.25Q1999.80 1380.15 2022.11 1369.31Q2044.43 1358.47 2062.28 1355.92L2062.28 1355.92Q2077.57 1352.10 2105.63 1345.09Q2133.68 1338.07 2147.70 1335.53Q2161.72 1332.97 2169.38 1307.47Q2177.03 1281.97 2177.03 1279.42L2177.03 1279.42Q2177.03 1269.22 2151.53 1281.97L2151.53 1281.97Q2147.70 1284.53 2145.15 1287.07L2145.15 1287.07Q2118.38 1303.65 2099.25 1290.90L2099.25 1290.90Q2083.95 1278.15 2100.53 1255.20L2100.53 1255.20Q2109.45 1245 2136.22 1232.89Q2163 1220.77 2177.03 1220.77L2177.03 1220.77Q2187.22 1220.77 2194.88 1203.56Q2202.53 1186.35 2201.89 1183.80Q2201.25 1181.25 2189.78 1183.80L2189.78 1183.80Q2180.85 1186.35 2164.28 1181.25Q2147.70 1176.15 2146.43 1171.05L2146.43 1171.05Q2146.43 1167.22 2124.75 1143L2124.75 1143Q2105.63 1122.60 2103.07 1116.22Q2100.53 1109.85 2106.90 1098.38L2106.90 1098.38Q2113.28 1085.63 2120.93 1083.07Q2128.57 1080.52 2148.97 1083.07Q2169.38 1085.63 2187.86 1094.55Q2206.35 1103.47 2208.90 1112.40L2208.90 1112.40Q2214 1126.42 2220.38 1112.40L2220.38 1112.40Q2222.93 1107.30 2222.93 1100.92ZM1859.55 1200.38L1859.55 1200.38Q1859.55 1186.35 1858.28 1174.88Q1857 1163.40 1856.36 1157.02Q1855.72 1150.65 1854.45 1150.65L1854.45 1150.65Q1851.90 1151.92 1836.60 1154.47Q1821.30 1157.02 1811.10 1163.40Q1800.90 1169.77 1788.15 1173.60Q1775.40 1177.42 1758.83 1195.27L1758.83 1195.27Q1735.88 1220.77 1746.08 1220.77L1746.08 1220.77Q1752.45 1220.77 1762.65 1239.26Q1772.85 1257.75 1772.85 1305.56Q1772.85 1353.38 1779.22 1352.74Q1785.60 1352.10 1821.30 1343.17L1821.30 1343.17L1855.72 1334.25L1859.55 1292.17Q1862.10 1248.82 1859.55 1200.38ZM2375.93 1506.38L2358.07 1478.32Q2341.50 1451.55 2329.39 1427.32Q2317.28 1403.10 2302.61 1387.80Q2287.95 1372.50 2280.30 1373.78L2280.30 1373.78Q2263.73 1375.05 2242.05 1378.88Q2220.38 1382.70 2216.55 1385.25L2216.55 1385.25Q2214 1390.35 2198.06 1431.15Q2182.13 1471.95 2175.75 1478.32L2175.75 1478.32Q2157.90 1507.65 2164.28 1512.75L2164.28 1512.75Q2165.55 1515.30 2189.78 1505.10Q2214 1494.90 2267.55 1496.17Q2321.10 1497.45 2347.88 1501.28L2347.88 1501.28L2375.93 1506.38ZM1850.63 1434.97L1850.63 1434.97Q1851.90 1415.85 1799.63 1436.25L1799.63 1436.25Q1794.53 1437.53 1785.60 1441.35L1785.60 1441.35Q1772.85 1447.72 1767.75 1452.19Q1762.65 1456.65 1762.65 1463.03L1762.65 1463.03Q1762.65 1475.77 1757.55 1493.63L1757.55 1493.63L1753.72 1511.47L1772.85 1507.65Q1789.42 1502.55 1820.03 1500L1820.03 1500L1848.08 1497.45L1848.08 1470.67Q1850.63 1442.63 1850.63 1434.97Z"/>
  </svg>