<svg xmlns="http://www.w3.org/2000/svg" viewBox="0 0 3000 3000" width="3000" height="3000">
    <path fill="#000000" d="M622 1280L622 1222L2370 1222L2370 1280L622 1280ZM1264 712L1264 712L1328 714Q1316 1058 1284 1331Q1252 1604 1180 1816Q1108 2028 976 2190Q844 2352 632 2474L632 2474Q628 2466 620 2457Q612 2448 603 2439Q594 2430 586 2424L586 2424Q798 2314 928 2158Q1058 2002 1127 1793Q1196 1584 1225 1316Q1254 1048 1264 712ZM1570 2294L1570 1258L1630 1258L1630 2294Q1630 2346 1655 2365Q1680 2384 1766 2384L1766 2384Q1788 2384 1851 2384Q1914 2384 1991 2384Q2068 2384 2134 2384Q2200 2384 2230 2384L2230 2384Q2274 2384 2297 2366Q2320 2348 2329 2297Q2338 2246 2340 2150L2340 2150Q2354 2160 2370 2167Q2386 2174 2400 2178L2400 2178Q2396 2280 2382 2338Q2368 2396 2333 2419Q2298 2442 2228 2442L2228 2442Q2216 2442 2170 2442Q2124 2442 2062 2442Q2000 2442 1937 2442Q1874 2442 1828 2442Q1782 2442 1772 2442L1772 2442Q1696 2442 1651 2430Q1606 2418 1588 2386Q1570 2354 1570 2294L1570 2294ZM1730 812L1730 812L1764 778Q1830 820 1901 873Q1972 926 2035 977Q2098 1028 2138 1068L2138 1068L2102 1112Q2062 1070 1999 1018Q1936 966 1866 911Q1796 856 1730 812ZM2128 1422L2128 1422L2178 1444Q2074 1634 1916 1812Q1758 1990 1562 2137Q1366 2284 1146 2380L1146 2380Q1138 2370 1125 2356Q1112 2342 1102 2334L1102 2334Q1324 2238 1519 2096Q1714 1954 1870 1781Q2026 1608 2128 1422Z"/>
  </svg>