<svg xmlns="http://www.w3.org/2000/svg" viewBox="0 0 3000 3000" width="3000" height="3000">
    <path fill="#000000" d="M770.70 1089.45L770.70 1089.45Q788.55 1077.97 797.47 1083.07L797.47 1083.07Q797.47 1088.17 828.07 1099.65L828.07 1099.65Q885.45 1117.50 885.45 1145.55L885.45 1145.55Q885.45 1154.47 873.97 1178.70Q862.50 1202.92 856.12 1208.02L856.12 1208.02Q849.75 1210.57 844.01 1269.86Q838.27 1329.15 837.00 1377.60Q835.72 1426.05 842.10 1432.42L842.10 1432.42Q847.20 1432.42 850.39 1416.49Q853.57 1400.55 871.42 1390.35L871.42 1390.35Q902.02 1369.95 956.21 1306.84Q1010.40 1243.72 1015.50 1218.22L1015.50 1218.22Q1019.32 1202.92 1025.06 1201.65Q1030.80 1200.38 1052.47 1213.13L1052.47 1213.13Q1077.97 1224.60 1084.35 1237.99Q1090.72 1251.38 1086.90 1281.97L1086.90 1281.97Q1083.07 1317.67 1071.60 1324.05Q1060.13 1330.42 1035.26 1352.10Q1010.40 1373.78 993.82 1380.79Q977.25 1387.80 951.75 1410.11Q926.25 1432.42 922.42 1432.42Q918.60 1432.42 918.60 1440.07Q918.60 1447.72 975.97 1465.57L975.97 1465.57Q1066.50 1494.90 1102.20 1524.22L1102.20 1524.22Q1112.40 1533.15 1114.95 1540.16Q1117.50 1547.17 1117.50 1567.57L1117.50 1567.57Q1117.50 1598.17 1112.40 1601.36Q1107.30 1604.55 1107.30 1614.75L1107.30 1614.75Q1107.30 1626.22 1093.91 1634.51Q1080.52 1642.80 1061.40 1644.08L1061.40 1644.08Q1044.82 1647.90 1036.54 1642.80Q1028.25 1637.70 1004.02 1608.38L1004.02 1608.38Q987.45 1585.42 978.52 1578.41Q969.60 1571.40 946.65 1557.38L946.65 1557.38Q916.05 1540.80 884.81 1509.56Q853.57 1478.32 847.20 1478.32L847.20 1478.32Q835.72 1478.32 848.47 1528.05L848.47 1528.05Q865.05 1587.97 880.99 1616.66Q896.92 1645.35 931.35 1684.88L931.35 1684.88Q963.22 1718.03 984.90 1742.25L984.90 1742.25Q1032.07 1797.08 1135.35 1841.70L1135.35 1841.70Q1188.90 1863.38 1223.32 1863.38L1223.32 1863.38Q1262.85 1863.38 1274.32 1849.35Q1285.80 1835.33 1308.75 1758.83L1308.75 1758.83Q1315.13 1726.95 1315.13 1714.20L1315.13 1714.20Q1315.13 1696.35 1325.32 1707.83L1325.32 1707.83Q1330.42 1714.20 1332.97 1729.50L1332.97 1729.50Q1343.17 1788.15 1347 1827.67L1347 1827.67Q1350.82 1860.83 1358.47 1869.75Q1366.13 1878.67 1369.95 1897.16Q1373.77 1915.65 1381.42 1930.95L1381.42 1930.95Q1387.80 1943.70 1380.79 1960.28Q1373.77 1976.85 1347 2011.28L1347 2011.28Q1324.05 2043.15 1299.19 2050.16Q1274.32 2057.18 1210.57 2057.18L1210.57 2057.18Q1151.92 2055.90 1126.42 2046.97Q1100.92 2038.05 1043.55 1998.53L1043.55 1998.53Q977.25 1955.17 953.02 1934.14Q928.80 1913.10 884.17 1863.38L884.17 1863.38Q857.40 1831.50 828.07 1791.34Q798.75 1751.17 793.65 1737.15L793.65 1737.15Q791.10 1728.22 769.42 1684.88L769.42 1684.88Q724.80 1591.80 723.52 1427.32L723.52 1427.32Q723.52 1331.70 729.90 1273.05Q736.27 1214.40 732.45 1206.75L732.45 1206.75Q728.62 1191.45 648.94 1207.39Q569.25 1223.32 550.12 1242.45L550.12 1242.45Q538.65 1251.38 532.91 1251.38Q527.17 1251.38 504.22 1278.79Q481.27 1306.20 473.62 1306.20Q465.97 1306.20 441.75 1293.45L441.75 1293.45Q409.87 1273.05 409.87 1234.80L409.87 1234.80Q409.87 1225.88 450.04 1197.82Q490.20 1169.77 520.80 1158.30L520.80 1158.30Q566.70 1140.45 692.92 1116.22L692.92 1116.22Q761.77 1099.65 770.70 1089.45ZM2104.35 1500L2104.35 1500Q2104.35 1493.63 2113.28 1492.99Q2122.20 1492.35 2136.22 1497.45L2136.22 1497.45Q2147.70 1502.55 2155.35 1524.86Q2163 1547.17 2168.10 1558.65L2168.10 1558.65Q2173.20 1570.13 2173.20 1581.60Q2173.20 1593.07 2168.10 1595.63L2168.10 1595.63Q2164.28 1596.90 2159.18 1625.59Q2154.07 1654.28 2155.35 1669.58L2155.35 1669.58Q2155.35 1704 2160.45 1706.55L2160.45 1706.55Q2163 1709.10 2169.38 1698.90L2169.38 1698.90Q2170.65 1695.08 2174.47 1688.70L2174.47 1688.70Q2182.13 1673.40 2191.05 1658.74Q2199.97 1644.08 2203.80 1636.42Q2207.63 1628.78 2213.36 1621.76Q2219.10 1614.75 2229.30 1589.25L2229.30 1589.25Q2243.32 1553.55 2260.54 1535.70Q2277.75 1517.85 2293.05 1524.22L2293.05 1524.22Q2300.70 1526.78 2319.82 1543.35L2319.82 1543.35Q2330.03 1554.82 2333.21 1562.47Q2336.40 1570.13 2336.40 1589.25L2336.40 1589.25Q2336.40 1614.75 2329.39 1628.78Q2322.38 1642.80 2298.15 1668.30L2298.15 1668.30Q2277.75 1688.70 2277.75 1692.53Q2277.75 1696.35 2256.07 1724.40Q2234.40 1752.45 2234.40 1754.36Q2234.40 1756.28 2222.29 1770.30Q2210.18 1784.33 2192.32 1806Q2174.47 1827.67 2168.10 1831.50L2168.10 1831.50Q2161.72 1834.05 2163 1841.70Q2164.28 1849.35 2177.03 1874.85L2177.03 1874.85Q2198.70 1922.03 2262.45 1942.42L2262.45 1942.42Q2285.40 1951.35 2359.35 1955.81Q2433.30 1960.28 2467.73 1955.17L2467.73 1955.17Q2499.60 1948.80 2537.21 1934.14Q2574.82 1919.47 2588.85 1905.45L2588.85 1905.45Q2607.98 1887.60 2623.28 1854.45Q2638.57 1821.30 2638.57 1799.63L2638.57 1799.63Q2638.57 1775.40 2650.05 1766.47L2650.05 1766.47Q2656.43 1757.55 2657.70 1757.55Q2658.98 1757.55 2665.35 1763.92L2665.35 1763.92Q2671.73 1774.13 2675.55 1795.80Q2679.38 1817.47 2684.48 1827.67L2684.48 1827.67Q2689.57 1836.60 2698.50 1869.11Q2707.43 1901.63 2707.43 1915.65L2707.43 1915.65Q2707.43 1929.67 2713.80 1942.42L2713.80 1942.42Q2730.38 1973.03 2715.07 1980.67L2715.07 1980.67Q2711.25 1984.50 2707.43 1994.70L2707.43 1994.70Q2697.23 2015.10 2679.38 2034.22Q2661.53 2053.35 2644.95 2062.28L2644.95 2062.28Q2632.20 2068.65 2602.88 2074.39Q2573.55 2080.13 2558.25 2086.50L2558.25 2086.50Q2526.38 2094.15 2425.65 2090.32Q2324.93 2086.50 2276.48 2073.75L2276.48 2073.75Q2211.45 2054.63 2182.13 2030.40L2182.13 2030.40Q2136.22 1990.88 2126.03 1969.20L2126.03 1969.20Q2112 1933.50 2107.54 1925.21Q2103.07 1916.92 2097.97 1916.92L2097.97 1916.92Q2092.88 1916.92 2038.05 1957.72Q1983.22 1998.53 1976.85 1998.53L1976.85 1998.53Q1962.83 1998.53 1970.47 1980.67L1970.47 1980.67Q1989.60 1944.97 2050.80 1877.40L2050.80 1877.40Q2059.72 1869.75 2075.03 1849.35L2075.03 1849.35L2091.60 1830.22L2083.95 1738.42Q2080.13 1659.38 2083.31 1593.71Q2086.50 1528.05 2096.70 1516.57L2096.70 1516.57Q2104.35 1508.92 2104.35 1500ZM2219.10 1103.47L2234.40 1086.90Q2249.70 1072.88 2259.90 1075.42Q2270.10 1077.97 2305.80 1085.63Q2341.50 1093.27 2360.63 1103.47L2360.63 1103.47Q2387.40 1117.50 2405.25 1150.01Q2423.10 1182.52 2412.90 1202.92L2412.90 1202.92Q2393.78 1239.90 2375.93 1247.55L2375.93 1247.55Q2364.45 1251.38 2339.59 1239.90Q2314.73 1228.42 2296.88 1211.85L2296.88 1211.85Q2280.30 1196.55 2257.99 1167.22Q2235.68 1137.90 2228.03 1121.32L2228.03 1121.32L2219.10 1103.47ZM2040.60 1060.13L2040.60 1060.13Q2046.97 1058.85 2046.97 1053.75Q2046.97 1048.65 2058.45 1048.65L2058.45 1048.65Q2066.10 1048.65 2085.22 1065.22Q2104.35 1081.80 2104.35 1089.45L2104.35 1089.45Q2104.35 1093.27 2119.65 1112.40Q2134.95 1131.52 2134.95 1153.84Q2134.95 1176.15 2127.30 1183.80Q2119.65 1191.45 2117.10 1215.67L2117.10 1215.67Q2110.72 1255.20 2095.43 1290.90L2095.43 1290.90Q2089.05 1306.20 2093.51 1309.39Q2097.97 1312.57 2217.82 1310.03L2217.82 1310.03L2363.18 1302.38Q2378.48 1302.38 2385.49 1304.92Q2392.50 1307.47 2400.15 1315.13L2400.15 1315.13Q2424.38 1341.90 2419.28 1372.50L2419.28 1372.50Q2415.45 1391.63 2401.43 1403.10Q2387.40 1414.57 2367.64 1414.57Q2347.88 1414.57 2337.68 1408.20L2337.68 1408.20Q2324.93 1399.28 2277.75 1398Q2230.57 1396.72 2188.50 1403.10L2188.50 1403.10Q2140.05 1410.75 2108.18 1410.75L2108.18 1410.75L2077.57 1410.75L2068.65 1436.25Q2062.28 1460.47 2053.35 1498.72L2053.35 1498.72Q2034.22 1596.90 2003.63 1663.20L2003.63 1663.20Q1988.33 1695.08 1988.33 1700.17L1988.33 1700.17Q1988.33 1709.10 1967.93 1742.25L1967.93 1742.25Q1965.38 1749.90 1960.28 1761.38L1960.28 1761.38Q1952.63 1776.67 1939.88 1807.28L1939.88 1807.28Q1934.78 1816.20 1902.90 1860.83Q1871.03 1905.45 1857 1922.03L1857 1922.03Q1830.22 1950.08 1765.84 2002.99Q1701.45 2055.90 1689.97 2055.90L1689.97 2055.90Q1687.42 2055.90 1684.88 2059.72L1684.88 2059.72Q1683.60 2064.82 1668.94 2073.11Q1654.28 2081.40 1640.89 2086.50Q1627.50 2091.60 1627.50 2089.05L1627.50 2089.05Q1627.50 2085.22 1642.80 2061.64Q1658.10 2038.05 1663.20 2034.22L1663.20 2034.22Q1669.58 2030.40 1700.17 1993.42L1700.17 1993.42L1743.53 1944.97Q1755 1933.50 1758.83 1923.30L1758.83 1923.30Q1763.92 1906.72 1786.88 1877.40L1786.88 1877.40Q1803.45 1853.17 1822.58 1816.20L1822.58 1816.20Q1835.33 1790.70 1839.79 1788.15Q1844.25 1785.60 1844.25 1779.22Q1844.25 1772.85 1859.55 1739.70L1859.55 1739.70Q1885.05 1684.88 1893.97 1656.83L1893.97 1656.83Q1904.18 1633.88 1910.55 1619.21Q1916.93 1604.55 1916.93 1596.90Q1916.93 1589.25 1930.95 1544.63L1930.95 1544.63Q1964.10 1437.53 1957.72 1429.88L1957.72 1429.88Q1952.63 1426.05 1913.74 1434.34Q1874.85 1442.63 1860.83 1452.82L1860.83 1452.82L1840.42 1464.30L1817.47 1451.55Q1791.97 1438.80 1783.69 1428.60Q1775.40 1418.40 1776.67 1403.10L1776.67 1403.10Q1777.95 1368.67 1821.30 1358.47L1821.30 1358.47Q1937.33 1327.88 1952.63 1327.88L1952.63 1327.88Q1971.75 1327.88 1978.76 1318.31Q1985.78 1308.75 1988.33 1271.78L1988.33 1271.78Q1994.70 1218.22 2007.45 1130.25L2007.45 1130.25Q2011.28 1102.20 2021.47 1081.16Q2031.68 1060.13 2040.60 1060.13Z"/>
  </svg>