<svg xmlns="http://www.w3.org/2000/svg" viewBox="0 0 3000 3000" width="3000" height="3000">
    <path fill="#000000" d="M2176 1673L2176 1673Q2186 1661 2186 1643Q2186 1625 2168 1601L2168 1601Q2148 1577 2124 1559L2124 1559Q2170 1569 2208 1569L2208 1569Q2290 1569 2316 1506Q2342 1443 2342 1289L2342 1289Q2342 1205 2335 1168Q2328 1131 2316 1119L2316 1119L2304 1107Q2272 1107 2258 1191L2258 1191Q2250 1241 2236 1301Q2222 1361 2202 1413L2202 1413Q2200 1419 2192 1419L2192 1419L2184 1419Q2118 1411 2050 1381Q1982 1351 1930 1292Q1878 1233 1862 1165L1862 1165Q1980 1219 2092 1293L2092 1293Q2122 1313 2136 1313L2136 1313Q2158 1313 2172 1290Q2186 1267 2192 1247L2192 1247L2196 1227Q2196 1199 2162 1179L2162 1179Q2060 1127 1944 1077L1944 1077Q1964 1071 1992 1051L1992 1051Q2036 1021 2079 979Q2122 937 2155 898Q2188 859 2188 839Q2188 819 2169 795Q2150 771 2126 753Q2102 735 2086 735L2086 735Q2062 735 2056 769L2056 769Q2050 809 2028 855Q2006 901 1977 942Q1948 983 1925 1013Q1902 1043 1902 1059L1902 1059L1902 1059Q1870 1047 1838 1033L1838 1033Q1836 1019 1836 997Q1836 975 1836 955L1836 955Q1836 933 1836 910Q1836 887 1838 869L1838 869Q1840 857 1846 842Q1852 827 1852 811L1852 811Q1852 769 1814 748Q1776 727 1750 727L1750 727Q1746 727 1740 728Q1734 729 1726 729L1726 729L1000 789Q988 791 976 791Q964 791 954 791L954 791Q928 791 906 788Q884 785 858 781L858 781L850 781Q820 781 820 809L820 809L830 839Q842 869 869 900Q896 931 942 931L942 931Q958 931 978 929Q998 927 1022 925L1022 925L1682 867Q1684 1037 1716 1176Q1748 1315 1852 1415L1852 1415Q1906 1465 1972 1499L1972 1499Q2020 1527 2068 1543L2068 1543Q2058 1549 2056 1563L2056 1563Q2054 1589 2037 1641Q2020 1693 1940 1803L1940 1803Q1924 1827 1922 1849L1922 1849Q1880 1829 1834 1809L1834 1809Q1832 1787 1831 1757Q1830 1727 1830 1699L1830 1699Q1830 1665 1830 1632Q1830 1599 1832 1569L1832 1569Q1832 1557 1839 1543Q1846 1529 1846 1513L1846 1513Q1846 1499 1823 1465Q1800 1431 1736 1431L1736 1431L1718 1431L1494 1451L1494 1013Q1494 979 1465 959Q1436 939 1403 929Q1370 919 1356 919L1356 919Q1326 919 1326 945L1326 945Q1326 949 1327 951Q1328 953 1328 957L1328 957Q1348 1029 1348 1089L1348 1089L1350 1465L1122 1483Q1126 1429 1127 1363Q1128 1297 1128 1243L1128 1243Q1168 1223 1213 1196Q1258 1169 1302 1141L1302 1141Q1330 1127 1330 1099L1330 1099Q1330 1073 1311 1045Q1292 1017 1267 995Q1242 973 1228 973Q1214 973 1206 984Q1198 995 1192 1007L1192 1007Q1180 1039 1132 1082Q1084 1125 1021 1167Q958 1209 897 1243Q836 1277 800 1295L800 1295Q726 1333 726 1361L726 1361Q726 1385 760 1385L760 1385Q814 1385 982 1313L982 1313Q982 1319 982 1344Q982 1369 982 1397L982 1397Q982 1423 982 1451Q982 1479 980 1497L980 1497L820 1511Q806 1513 791 1514Q776 1515 760 1515Q744 1515 726 1513Q708 1511 688 1507L688 1507Q682 1505 672 1505L672 1505Q646 1505 646 1531L646 1531Q646 1539 657 1567Q668 1595 693 1622Q718 1649 760 1649L760 1649Q782 1649 844 1643L844 1643L972 1633Q962 1787 923 1909Q884 2031 819 2125Q754 2219 668 2305L668 2305Q644 2325 633 2343Q622 2361 622 2375L622 2375Q622 2401 650 2401L650 2401Q656 2401 702 2379Q748 2357 813 2305Q878 2253 943 2163Q1008 2073 1057 1936Q1106 1799 1116 1619L1116 1619L1350 1599L1352 2057Q1352 2125 1348 2190Q1344 2255 1334 2331L1334 2331Q1334 2333 1333 2337Q1332 2341 1332 2347L1332 2347Q1332 2383 1359 2405Q1386 2427 1415 2438Q1444 2449 1450 2449L1450 2449Q1494 2449 1494 2395L1494 2395L1494 1585L1684 1569L1684 1615Q1684 1727 1693 1839Q1702 1951 1739 2052Q1776 2153 1862 2233L1862 2233Q1940 2305 2026 2347Q2112 2389 2182 2405Q2252 2421 2282 2421L2282 2421Q2310 2421 2336 2413Q2362 2405 2381 2374Q2400 2343 2409 2275Q2418 2207 2418 2091L2418 2091Q2418 2045 2415 2000Q2412 1955 2404 1921Q2396 1887 2376 1887L2376 1887Q2344 1887 2328 1989L2328 1989Q2310 2091 2298 2147Q2286 2203 2277 2226Q2268 2249 2263 2253Q2258 2257 2254 2257L2254 2257L2248 2257Q2180 2245 2097 2214Q2014 2183 1947 2115Q1880 2047 1860 1953L1860 1953Q1916 1979 1985 2018Q2054 2057 2132 2113L2132 2113Q2160 2133 2178 2133L2178 2133Q2200 2133 2214 2112Q2228 2091 2235 2069Q2242 2047 2242 2037L2242 2037Q2242 2009 2202 1989L2202 1989Q2120 1943 2030 1899L2030 1899Q2000 1885 1966 1869L1966 1869Q1984 1861 2010 1843L2010 1843Q2050 1813 2095 1767Q2140 1721 2176 1673Z"/>
  </svg>