<svg xmlns="http://www.w3.org/2000/svg" viewBox="0 0 3000 3000" width="3000" height="3000">
    <path fill="#000000" d="M1195.27 1077.97L1195.27 1067.78Q1196.55 1047.38 1210.57 1047.38L1210.57 1047.38Q1220.77 1047.38 1242.45 1057.58L1242.45 1057.58Q1297.27 1085.63 1297.27 1108.58L1297.27 1108.58Q1296.00 1114.95 1285.80 1130.25L1285.80 1130.25Q1216.95 1224.60 1106.02 1318.95L1106.02 1318.95Q1093.27 1330.43 1080.52 1340.63L1080.52 1340.63Q1098.38 1349.55 1136.63 1380.15L1136.63 1380.15Q1192.72 1427.33 1267.31 1490.44Q1341.90 1553.55 1341.90 1573.31Q1341.90 1593.08 1320.22 1615.39Q1298.55 1637.70 1288.35 1640.25Q1278.15 1642.80 1261.57 1623.68L1261.57 1623.68Q1185.07 1538.25 1037.17 1409.47L1037.17 1409.47Q1024.42 1396.72 1023.15 1387.80L1023.15 1387.80Q1023.15 1387.80 1023.15 1387.80L1023.15 1387.80Q982.35 1420.95 967.05 1428.60L967.05 1428.60Q967.05 1428.60 965.77 1428.60L965.77 1428.60Q983.62 1548.45 1021.87 1649.18L1021.87 1649.18Q1093.27 1837.88 1230.97 1922.03L1230.97 1922.03Q1256.47 1937.33 1284.52 1929.68L1284.52 1929.68Q1296.00 1927.13 1327.88 1845.53Q1359.75 1763.93 1375.69 1713.56Q1391.63 1663.20 1406.29 1663.20Q1420.95 1663.20 1418.40 1711.65L1418.40 1711.65L1417.13 1729.50Q1408.20 1812.38 1385.89 1900.99Q1363.57 1989.60 1345.09 2011.28Q1326.60 2032.95 1276.24 2032.95Q1225.88 2032.95 1176.79 2004.26Q1127.70 1975.58 1094.55 1941.15L1094.55 1941.15Q930.07 1772.85 889.27 1502.55L889.27 1502.55Q879.07 1434.97 868.87 1313.85L868.87 1313.85Q861.22 1228.43 861.22 1065.22L861.22 1065.22L418.80 1114.95Q404.77 1116.22 393.94 1117.50Q383.10 1118.78 364.61 1118.78Q346.12 1118.78 330.19 1102.20Q314.25 1085.63 307.24 1068.41Q300.22 1051.20 299.59 1049.29Q298.95 1047.38 298.95 1041Q298.95 1034.63 306.60 1034.63L306.60 1034.63Q339.75 1042.28 363.97 1042.28L363.97 1042.28L399.67 1042.28Q407.32 1042.28 417.52 1041L417.52 1041L882.90 987.45L903.30 986.17Q927.52 986.17 946.65 1000.84Q965.77 1015.50 965.14 1029.53Q964.50 1043.55 960.67 1053.75Q956.85 1063.95 954.30 1072.88L954.30 1072.88L951.75 1089.45Q950.47 1223.33 954.30 1302.38L954.30 1302.38Q955.57 1338.08 959.40 1371.22L959.40 1371.22Q960.67 1369.95 963.22 1367.40L963.22 1367.40Q1191.45 1145.55 1195.27 1077.97L1195.27 1077.97ZM2183.40 1781.78L2171.93 1788.15Q2012.55 1857 1992.79 1857Q1973.03 1857 1973.03 1849.35L1973.03 1849.35Q1973.03 1832.78 2012.55 1812.38L2012.55 1812.38Q2082.68 1777.95 2171.93 1723.13L2171.93 1723.13L2184.68 1715.48L2185.95 1452.83Q2185.95 1417.13 2169.38 1389.08L2169.38 1389.08Q2166.82 1385.25 2166.82 1378.24Q2166.82 1371.22 2178.94 1371.22Q2191.05 1371.22 2229.94 1382.70Q2268.82 1394.18 2268.82 1418.40L2268.82 1418.40L2266.28 1664.48Q2361.90 1600.73 2449.88 1526.78L2449.88 1526.78Q2472.82 1502.55 2477.29 1477.69Q2481.75 1452.83 2491.31 1452.83Q2500.88 1452.83 2517.45 1468.13L2517.45 1468.13Q2558.25 1507.65 2558.25 1536.97L2558.25 1536.97Q2558.25 1548.45 2548.05 1557.38L2548.05 1557.38Q2420.55 1660.65 2265 1742.25L2265 1742.25L2263.73 1837.88L2263.73 1842.98Q2263.73 1869.75 2272.65 1890.15L2272.65 1890.15Q2291.78 1933.50 2420.55 1933.50Q2549.32 1933.50 2590.13 1913.10L2590.13 1913.10Q2634.75 1892.70 2657.70 1724.40L2657.70 1724.40Q2665.35 1659.38 2681.93 1659.38L2681.93 1659.38Q2707.43 1659.38 2707.43 1799.63L2707.43 1799.63Q2707.43 1860.83 2701.05 1902.90Q2694.68 1944.98 2669.18 1969.20L2669.18 1969.20Q2618.18 2015.10 2429.48 2015.10L2429.48 2015.10Q2359.35 2015.10 2303.25 2006.81Q2247.15 1998.53 2215.28 1965.38Q2183.40 1932.23 2183.40 1857L2183.40 1857L2183.40 1781.78ZM2086.50 1267.95L2522.55 1243.72Q2549.32 1242.45 2565.90 1236.71Q2582.48 1230.97 2591.40 1230.97Q2600.32 1230.97 2616.90 1242.45L2616.90 1242.45Q2658.98 1271.78 2658.98 1290.26Q2658.98 1308.75 2627.10 1312.58L2627.10 1312.58L2076.30 1341.90L2075.03 1354.65Q2053.35 1501.28 2016.38 1590.53L2016.38 1590.53Q1981.95 1674.68 1932.22 1744.80Q1882.50 1814.93 1827.04 1867.84Q1771.58 1920.75 1720.58 1956.45Q1669.58 1992.15 1633.88 2010Q1598.17 2027.85 1587.97 2027.85Q1577.78 2027.85 1577.78 2016.38Q1577.78 2004.90 1605.83 1984.50L1605.83 1984.50Q1772.85 1855.73 1864.65 1701.45L1864.65 1701.45Q1955.18 1548.45 1988.33 1359.75L1988.33 1359.75L1990.88 1347L1729.50 1361.03Q1720.58 1362.30 1711.65 1362.30L1711.65 1362.30L1695.08 1362.30Q1645.35 1362.30 1624.95 1313.85L1624.95 1313.85Q1616.03 1293.45 1616.03 1286.44Q1616.03 1279.43 1623.67 1279.43L1623.67 1279.43Q1626.22 1279.43 1640.89 1283.89Q1655.55 1288.35 1686.15 1288.35L1686.15 1288.35L1701.45 1288.35L2001.08 1271.78Q2022.75 1099.65 2026.58 986.17L2026.58 986.17L2026.58 978.52Q2026.58 944.10 2010 914.77L2010 914.77Q2008.73 907.13 2008.73 905.85L2008.73 905.85Q2008.73 894.38 2025.30 894.38L2025.30 894.38L2038.05 895.65Q2113.28 905.85 2113.28 949.20L2113.28 949.20L2113.28 955.58Q2104.35 1131.53 2086.50 1267.95L2086.50 1267.95ZM2472.82 1148.10L2472.82 1148.10Q2472.82 1168.50 2455.61 1186.99Q2438.40 1205.47 2425.01 1205.47Q2411.63 1205.47 2368.28 1160.21Q2324.93 1114.95 2236.95 1043.55L2236.95 1043.55Q2224.20 1032.08 2224.20 1019.33Q2224.20 1006.58 2235.68 993.19Q2247.15 979.80 2258.63 979.80Q2270.10 979.80 2338.31 1026.97Q2406.53 1074.15 2439.68 1107.30Q2472.82 1140.45 2472.82 1148.10Z"/>
  </svg>