<svg xmlns="http://www.w3.org/2000/svg" viewBox="0 0 3000 3000" width="3000" height="3000">
    <path fill="#000000" d="M803.85 2138.78L803.85 1154.47L840.82 1154.47L840.82 2138.78L803.85 2138.78ZM376.72 1107.30L376.72 1070.32L1113.67 1070.32L1113.67 1107.30L376.72 1107.30ZM292.57 1584.15L292.57 1547.17L1114.95 1547.17L1114.95 1584.15L292.57 1584.15ZM494.02 1521.68L494.02 1288.35L531.00 1288.35L531.00 1521.68Q531.00 1599.45 523.99 1681.05Q516.97 1762.65 495.30 1843.61Q473.62 1924.58 429.64 2001.71Q385.65 2078.85 310.42 2148.97L310.42 2148.97Q307.87 2143.88 302.77 2139.41Q297.67 2134.95 291.94 2131.13Q286.20 2127.30 281.10 2124.75L281.10 2124.75Q353.77 2057.18 397.12 1982.59Q440.47 1908 460.87 1829.59Q481.27 1751.18 487.65 1673.40Q494.02 1595.63 494.02 1521.68L494.02 1521.68ZM1327.88 1083.08L1327.88 1083.08L1358.47 1107.30Q1320.22 1149.38 1270.50 1194Q1220.77 1238.63 1179.97 1270.50L1179.97 1270.50L1154.47 1251.38Q1181.25 1228.42 1213.76 1199.10Q1246.27 1169.78 1276.87 1139.17Q1307.47 1108.58 1327.88 1083.08ZM1112.40 1247.55L1112.40 1247.55L1136.63 1218.22Q1182.52 1233.53 1231.61 1255.20Q1280.70 1276.88 1324.69 1299.19Q1368.67 1321.50 1398 1341.90L1398 1341.90L1375.05 1375.05Q1347 1354.65 1303.01 1331.06Q1259.02 1307.47 1209.30 1285.16Q1159.57 1262.85 1112.40 1247.55ZM1339.35 1613.47L1339.35 1613.47L1371.22 1637.70Q1331.70 1682.33 1280.70 1729.50Q1229.70 1776.68 1186.35 1811.10L1186.35 1811.10L1160.85 1790.70Q1188.90 1767.75 1222.05 1736.51Q1255.20 1705.28 1286.44 1672.13Q1317.67 1638.97 1339.35 1613.47ZM1117.50 1784.33L1117.50 1784.33L1141.72 1757.55Q1188.90 1774.13 1238.63 1797.08Q1288.35 1820.03 1332.97 1844.25Q1377.60 1868.48 1406.92 1890.15L1406.92 1890.15L1383.97 1923.30Q1354.65 1901.63 1310.02 1876.13Q1265.40 1850.63 1215.04 1826.40Q1164.67 1802.18 1117.50 1784.33ZM1089.45 1070.32L1089.45 1070.32L1127.70 1070.32Q1134.07 1160.85 1148.10 1241.81Q1162.13 1322.78 1188.90 1385.89Q1215.67 1449 1257.75 1486.61Q1299.82 1524.22 1362.30 1529.33L1362.30 1529.33Q1376.32 1530.60 1383.97 1503.19Q1391.63 1475.78 1394.17 1419.68L1394.17 1419.68Q1403.10 1426.05 1411.39 1430.51Q1419.67 1434.97 1427.32 1437.53L1427.32 1437.53Q1420.95 1508.93 1405.65 1540.16Q1390.35 1571.40 1355.92 1566.30L1355.92 1566.30Q1283.25 1558.65 1234.80 1516.58Q1186.35 1474.50 1157.02 1406.29Q1127.70 1338.08 1112.40 1252.01Q1097.10 1165.95 1089.45 1070.32ZM1095.82 1547.17L1095.82 1547.17L1134.07 1547.17Q1137.90 1663.20 1149.38 1763.93Q1160.85 1864.65 1186.99 1939.88Q1213.13 2015.10 1259.02 2059.72Q1304.92 2104.35 1377.60 2110.72L1377.60 2110.72Q1391.63 2112 1400.55 2076.30Q1409.47 2040.60 1414.57 1966.65L1414.57 1966.65Q1422.22 1973.03 1431.15 1976.85Q1440.07 1980.68 1447.72 1983.23L1447.72 1983.23Q1441.35 2077.58 1426.05 2115.19Q1410.75 2152.80 1371.22 2146.43L1371.22 2146.43Q1303.65 2140.05 1256.47 2106.90Q1209.30 2073.75 1179.34 2018.29Q1149.38 1962.83 1132.16 1889.51Q1114.95 1816.20 1107.30 1729.50Q1099.65 1642.80 1095.82 1547.17ZM696.75 1179.97L696.75 1179.97L733.72 1205.47Q686.55 1236.08 620.89 1263.49Q555.22 1290.90 481.27 1314.49Q407.32 1338.08 337.20 1357.20L337.20 1357.20Q335.92 1350.83 332.10 1341.90Q328.27 1332.97 323.17 1326.60L323.17 1326.60Q390.75 1307.47 462.15 1284.53Q533.55 1261.58 595.39 1234.80Q657.22 1208.03 696.75 1179.97ZM1589.25 1162.13L1589.25 1125.15L2118.38 1125.15L2118.38 1162.13L1589.25 1162.13ZM1563.75 1423.50L1563.75 1386.53L2143.88 1386.53L2143.88 1423.50L1563.75 1423.50ZM1688.70 1196.55L1688.70 1196.55L1723.13 1187.63Q1742.25 1228.42 1758.83 1278.15Q1775.40 1327.88 1780.50 1362.30L1780.50 1362.30L1743.53 1373.78Q1738.42 1336.80 1723.13 1287.71Q1707.83 1238.63 1688.70 1196.55ZM2001.08 1187.63L2001.08 1187.63L2039.33 1201.65Q2015.10 1256.47 1987.05 1317.04Q1959 1377.60 1933.50 1422.22L1933.50 1422.22L1902.90 1406.93Q1919.47 1377.60 1937.96 1338.71Q1956.45 1299.83 1973.66 1259.66Q1990.88 1219.50 2001.08 1187.63ZM2032.95 2071.20L2032.95 1519.13L2071.20 1519.13L2071.20 2071.20Q2071.20 2092.88 2064.82 2104.99Q2058.45 2117.10 2040.60 2123.47L2040.60 2123.47Q2022.75 2128.58 1986.41 2129.85Q1950.08 2131.13 1895.25 2131.13L1895.25 2131.13Q1893.97 2122.20 1888.88 2110.72Q1883.78 2099.25 1878.67 2090.33L1878.67 2090.33Q1929.68 2091.60 1964.74 2091.60Q1999.80 2091.60 2012.55 2090.33L2012.55 2090.33Q2025.30 2089.05 2029.13 2085.22Q2032.95 2081.40 2032.95 2071.20L2032.95 2071.20ZM2239.50 1149.38L2239.50 1112.40L2702.32 1112.40L2702.32 1149.38L2239.50 1149.38ZM2240.78 1667.03L2240.78 1630.05L2647.50 1630.05L2647.50 1667.03L2240.78 1667.03ZM2239.50 1809.83L2239.50 1771.58L2639.85 1771.58L2639.85 1809.83L2239.50 1809.83ZM2240.78 1959L2240.78 1922.03L2652.60 1922.03L2652.60 1959L2240.78 1959ZM2221.65 1306.20L2221.65 996.38L2258.63 996.38L2258.63 1306.20L2221.65 1306.20ZM2221.65 1325.33L2221.65 1287.08L2650.05 1287.08L2650.05 1521.68L2221.65 1521.68L2221.65 1484.70L2611.80 1484.70L2611.80 1325.33L2221.65 1325.33ZM2221.65 2053.35L2221.65 1511.47L2258.63 1511.47L2258.63 2054.63Q2258.63 2081.40 2273.29 2090.96Q2287.95 2100.53 2341.50 2100.53L2341.50 2100.53Q2354.25 2100.53 2391.86 2100.53Q2429.48 2100.53 2476.01 2100.53Q2522.55 2100.53 2563.35 2100.53Q2604.15 2100.53 2620.73 2100.53L2620.73 2100.53Q2644.95 2100.53 2657.70 2092.24Q2670.45 2083.95 2675.55 2060.36Q2680.65 2036.78 2681.93 1990.88L2681.93 1990.88Q2689.57 1995.98 2700.41 2000.44Q2711.25 2004.90 2720.18 2007.45L2720.18 2007.45Q2717.63 2058.45 2709.34 2087.14Q2701.05 2115.83 2680.65 2127.30Q2660.25 2138.78 2620.73 2138.78L2620.73 2138.78Q2614.35 2138.78 2586.30 2138.78Q2558.25 2138.78 2520.64 2138.78Q2483.03 2138.78 2444.78 2138.78Q2406.53 2138.78 2379.11 2138.78Q2351.70 2138.78 2345.32 2138.78L2345.32 2138.78Q2296.88 2138.78 2270.10 2132.40Q2243.32 2126.03 2232.49 2107.54Q2221.65 2089.05 2221.65 2053.35L2221.65 2053.35ZM1808.55 1002.75L1808.55 1002.75L1841.70 992.55Q1860.83 1028.25 1877.40 1070.96Q1893.97 1113.67 1900.35 1143L1900.35 1143L1863.38 1154.47Q1858.28 1123.88 1842.97 1081.16Q1827.67 1038.45 1808.55 1002.75ZM1667.03 1557.38L1667.03 1519.13L2054.63 1519.13L2054.63 1557.38L1667.03 1557.38ZM1646.63 1767.75L1646.63 1519.13L1683.60 1519.13L1683.60 1767.75Q1683.60 1823.85 1678.50 1890.79Q1673.40 1957.73 1657.46 2024.66Q1641.53 2091.60 1608.38 2148.97L1608.38 2148.97Q1607.10 2143.88 1602 2138.78Q1596.90 2133.68 1591.80 2129.21Q1586.70 2124.75 1581.60 2122.20L1581.60 2122.20Q1610.92 2068.65 1624.95 2006.81Q1638.97 1944.98 1642.80 1883.14Q1646.63 1821.30 1646.63 1767.75L1646.63 1767.75ZM1719.30 1969.20L1697.63 1938.60Q1767.75 1914.38 1862.74 1878.04Q1957.72 1841.70 2057.18 1803.45L2057.18 1803.45L2063.55 1831.50Q1973.03 1869.75 1882.50 1905.45Q1791.97 1941.15 1719.30 1969.20L1719.30 1969.20ZM1723.13 1665.75L1723.13 1665.75L1738.42 1637.70Q1783.05 1651.72 1832.78 1669.58Q1882.50 1687.43 1927.76 1704.64Q1973.03 1721.85 2003.63 1737.15L2003.63 1737.15L1989.60 1770.30Q1959 1755 1913.10 1736.51Q1867.20 1718.03 1817.47 1699.54Q1767.75 1681.05 1723.13 1665.75Z"/>
  </svg>