<svg xmlns="http://www.w3.org/2000/svg" viewBox="0 0 3000 3000" width="3000" height="3000">
    <path fill="#000000" d="M1408 2502L1408 958L1466 958L1466 2502L1408 2502ZM738 884L738 826L1894 826L1894 884L738 884ZM606 1632L606 1574L1896 1574L1896 1632L606 1632ZM922 1534L922 1168L980 1168L980 1534Q980 1656 969 1784Q958 1912 924 2039Q890 2166 821 2287Q752 2408 634 2518L634 2518Q630 2510 622 2503Q614 2496 605 2490Q596 2484 588 2480L588 2480Q702 2374 770 2257Q838 2140 870 2017Q902 1894 912 1772Q922 1650 922 1534L922 1534ZM2230 846L2230 846L2278 884Q2218 950 2140 1020Q2062 1090 1998 1140L1998 1140L1958 1110Q2000 1074 2051 1028Q2102 982 2150 934Q2198 886 2230 846ZM1892 1104L1892 1104L1930 1058Q2002 1082 2079 1116Q2156 1150 2225 1185Q2294 1220 2340 1252L2340 1252L2304 1304Q2260 1272 2191 1235Q2122 1198 2044 1163Q1966 1128 1892 1104ZM2248 1678L2248 1678L2298 1716Q2236 1786 2156 1860Q2076 1934 2008 1988L2008 1988L1968 1956Q2012 1920 2064 1871Q2116 1822 2165 1770Q2214 1718 2248 1678ZM1900 1946L1900 1946L1938 1904Q2012 1930 2090 1966Q2168 2002 2238 2040Q2308 2078 2354 2112L2354 2112L2318 2164Q2272 2130 2202 2090Q2132 2050 2053 2012Q1974 1974 1900 1946ZM1856 826L1856 826L1916 826Q1926 968 1948 1095Q1970 1222 2012 1321Q2054 1420 2120 1479Q2186 1538 2284 1546L2284 1546Q2306 1548 2318 1505Q2330 1462 2334 1374L2334 1374Q2348 1384 2361 1391Q2374 1398 2386 1402L2386 1402Q2376 1514 2352 1563Q2328 1612 2274 1604L2274 1604Q2160 1592 2084 1526Q2008 1460 1962 1353Q1916 1246 1892 1111Q1868 976 1856 826ZM1866 1574L1866 1574L1926 1574Q1932 1756 1950 1914Q1968 2072 2009 2190Q2050 2308 2122 2378Q2194 2448 2308 2458L2308 2458Q2330 2460 2344 2404Q2358 2348 2366 2232L2366 2232Q2378 2242 2392 2248Q2406 2254 2418 2258L2418 2258Q2408 2406 2384 2465Q2360 2524 2298 2514L2298 2514Q2192 2504 2118 2452Q2044 2400 1997 2313Q1950 2226 1923 2111Q1896 1996 1884 1860Q1872 1724 1866 1574ZM1240 998L1240 998L1298 1038Q1224 1086 1121 1129Q1018 1172 902 1209Q786 1246 676 1276L676 1276Q674 1266 668 1252Q662 1238 654 1228L654 1228Q760 1198 872 1162Q984 1126 1081 1084Q1178 1042 1240 998Z"/>
  </svg>