<svg xmlns="http://www.w3.org/2000/svg" viewBox="0 0 3000 3000" width="3000" height="3000">
    <path fill="#000000" d="M1764 714L1764 714L1826 714Q1826 1036 1845 1307Q1864 1578 1899 1792Q1934 2006 1986 2155Q2038 2304 2107 2382Q2176 2460 2260 2460L2260 2460Q2306 2460 2328 2373Q2350 2286 2358 2080L2358 2080Q2368 2088 2385 2096Q2402 2104 2414 2108L2414 2108Q2406 2260 2391 2351Q2376 2442 2345 2481Q2314 2520 2256 2520L2256 2520Q2170 2520 2100 2459Q2030 2398 1977 2284Q1924 2170 1884 2009Q1844 1848 1819 1647Q1794 1446 1780 1211Q1766 976 1764 714ZM942 1352L942 1294L1692 1294L1692 1352L942 1352ZM2232 1308L2232 1308L2290 1320Q2192 1742 2006 2036Q1820 2330 1514 2516L1514 2516Q1510 2508 1501 2500Q1492 2492 1484 2483Q1476 2474 1468 2468L1468 2468Q1774 2296 1958 2006Q2142 1716 2232 1308ZM1962 754L1962 754L1998 720Q2080 762 2167 821Q2254 880 2304 928L2304 928L2268 970Q2218 924 2131 862Q2044 800 1962 754ZM790 1078L790 1020L2380 1020L2380 1078L790 1078ZM756 1584L756 1020L814 1020L814 1584Q814 1688 807 1808Q800 1928 782 2052Q764 2176 727 2296Q690 2416 630 2518L630 2518Q626 2512 617 2505Q608 2498 599 2492Q590 2486 582 2484L582 2484Q660 2348 697 2191Q734 2034 745 1876Q756 1718 756 1584L756 1584ZM914 1694L914 1634L1692 1634L1692 1694L914 1694ZM1002 1944L1002 1944L1050 1908Q1152 1954 1261 2015Q1370 2076 1468 2139Q1566 2202 1630 2254L1630 2254L1580 2296Q1518 2242 1421 2178Q1324 2114 1215 2052Q1106 1990 1002 1944ZM1062 1948L1002 1944Q1042 1864 1086 1755Q1130 1646 1170 1531Q1210 1416 1234 1316L1234 1316L1290 1324Q1264 1426 1225 1542Q1186 1658 1143 1765Q1100 1872 1062 1948L1062 1948ZM1518 1494L1518 1494L1576 1508Q1548 1742 1478 1926Q1408 2110 1272 2242Q1136 2374 910 2452L910 2452Q904 2440 891 2426Q878 2412 868 2404L868 2404Q1092 2330 1223 2204Q1354 2078 1422 1899Q1490 1720 1518 1494Z"/>
  </svg>