<svg xmlns="http://www.w3.org/2000/svg" viewBox="0 0 3000 3000" width="3000" height="3000">
    <path fill="#000000" d="M2078 1276L2078 1240L2072 1200Q2072 1176 2094 1176L2094 1176Q2136 1176 2179 1212Q2222 1248 2222 1263Q2222 1278 2197 1356Q2172 1434 2115 1567Q2058 1700 1988 1818L1988 1818Q2116 2106 2232 2202L2232 2202Q2234 2204 2242 2204Q2250 2204 2252 2192L2252 2192Q2312 2024 2346 1820L2346 1820Q2354 1764 2380 1764Q2406 1764 2406 1826L2406 1826Q2406 2038 2370 2264L2370 2264Q2356 2362 2278 2362L2278 2362Q2174 2362 2044 2180L2044 2180Q1982 2092 1906 1932L1906 1932Q1804 2076 1675 2192Q1546 2308 1510 2308L1510 2308Q1496 2308 1496 2288Q1496 2268 1532 2232L1532 2232Q1748 2004 1854 1820L1854 1820Q1714 1488 1634 1034L1634 1034L960 1074Q952 1674 836 1974L836 1974Q784 2110 728 2195Q672 2280 630 2318Q588 2356 578 2356Q568 2356 568 2340Q568 2324 588 2292L588 2292Q668 2164 728 1952L728 1952Q828 1610 828 1084L828 1084Q828 1008 814 966Q800 924 800 914L800 914Q800 892 825 892Q850 892 972 960L972 960L1616 924Q1592 794 1574 640L1574 640Q1568 598 1551 575Q1534 552 1534 546L1534 546Q1534 532 1557 532Q1580 532 1610 540L1610 540Q1686 556 1690 602L1690 602Q1706 754 1734 916L1734 916L2056 898Q2108 894 2135 884Q2162 874 2178 874Q2194 874 2218 892L2218 892Q2276 936 2276 968L2276 968Q2276 994 2232 1000L2232 1000L1754 1028Q1830 1418 1930 1686L1930 1686Q2002 1544 2040 1421Q2078 1298 2078 1276L2078 1276ZM1778 696L1778 696Q1750 678 1750 662Q1750 646 1763 618Q1776 590 1794 590Q1812 590 1869 615Q1926 640 2012 694Q2098 748 2098 775Q2098 802 2076 831Q2054 860 2039 860Q2024 860 1968 814Q1912 768 1778 696ZM1594 1292L1144 1320Q1132 1322 1122 1322L1122 1322L1092 1322Q1042 1322 1020 1256L1020 1256Q1006 1220 1006 1214Q1006 1208 1015 1208Q1024 1208 1042 1213Q1060 1218 1102 1218L1102 1218L1122 1218L1458 1196Q1498 1192 1517 1185Q1536 1178 1545 1178Q1554 1178 1576 1192L1576 1192Q1636 1226 1636 1264L1636 1264Q1636 1286 1594 1292L1594 1292ZM1310 1540L1474 1530Q1482 1502 1482 1483Q1482 1464 1480 1445Q1478 1426 1496 1426L1496 1426Q1518 1426 1557 1450Q1596 1474 1596 1504L1596 1504Q1596 1516 1594 1522L1594 1522L1674 1514L1684 1514Q1714 1514 1714 1532L1714 1532Q1714 1560 1580 1586L1580 1586Q1528 1776 1444 1908L1444 1908Q1604 2006 1604 2046L1604 2046Q1604 2062 1584 2093Q1564 2124 1546 2124Q1528 2124 1470 2072Q1412 2020 1378 1994L1378 1994Q1276 2110 1129 2176Q982 2242 948 2242Q914 2242 914 2228L914 2228Q914 2210 954 2190L954 2190Q1176 2076 1292 1934L1292 1934Q1266 1916 1240 1898Q1214 1880 1190 1866Q1166 1852 1139 1844Q1112 1836 1103 1815Q1094 1794 1094 1781Q1094 1768 1103 1754Q1112 1740 1120 1724L1120 1724L1152 1654L1114 1660Q1086 1664 1063 1664Q1040 1664 1013 1647Q986 1630 960 1552L960 1552Q956 1544 956 1537Q956 1530 963 1530Q970 1530 992 1538Q1014 1546 1073 1546Q1132 1546 1192 1542L1192 1542Q1228 1438 1228 1412Q1228 1386 1226 1367Q1224 1348 1242 1348L1242 1348Q1250 1348 1276 1360L1276 1360Q1346 1390 1346 1432L1346 1432Q1346 1440 1310 1540L1310 1540ZM1454 1610L1454 1610Q1332 1632 1272 1640L1272 1640Q1258 1672 1241 1704Q1224 1736 1206 1770L1206 1770Q1242 1790 1278 1810Q1314 1830 1350 1852L1350 1852Q1412 1754 1454 1610Z"/>
  </svg>