<svg xmlns="http://www.w3.org/2000/svg" viewBox="0 0 3000 3000" width="3000" height="3000">
    <path fill="#000000" d="M1436 1701L1436 1701Q1422 1749 1398 1808Q1374 1867 1346 1911L1346 1911Q1320 1895 1284 1875Q1248 1855 1222 1841L1222 1841Q1234 1817 1251 1785Q1268 1753 1280 1727L1280 1727Q1320 1721 1366 1713Q1412 1705 1436 1701ZM1684 1577L1684 1577L1674 1577L1612 1583Q1608 1593 1608 1579L1608 1579Q1608 1543 1562 1515L1562 1515Q1522 1489 1496 1489L1496 1489Q1466 1489 1466 1519L1466 1519Q1466 1523 1467 1525Q1468 1527 1468 1531L1468 1531Q1470 1539 1470 1552Q1470 1565 1468 1577Q1466 1589 1464 1593L1464 1593L1328 1601Q1330 1597 1338 1576Q1346 1555 1354 1531L1354 1531Q1356 1525 1357 1519Q1358 1513 1358 1507L1358 1507Q1358 1477 1332 1456Q1306 1435 1279 1423Q1252 1411 1242 1411L1242 1411Q1212 1411 1212 1441L1212 1441Q1212 1445 1213 1447Q1214 1449 1214 1453L1214 1453Q1216 1461 1216 1473L1216 1473Q1216 1489 1209 1519Q1202 1549 1184 1605L1184 1605Q1162 1607 1134 1608Q1106 1609 1076 1609L1076 1609Q1044 1609 1022 1606Q1000 1603 978 1595L978 1595Q972 1593 966 1593L966 1593Q950 1593 946 1605L946 1605Q954 1527 960 1439L960 1439Q970 1283 972 1161L972 1161L1624 1121Q1628 1145 1645 1228Q1662 1311 1689 1425Q1716 1539 1755 1662Q1794 1785 1840 1895L1840 1895Q1780 1999 1700 2097Q1620 2195 1524 2299L1524 2299Q1502 2319 1493 2338Q1484 2357 1484 2369L1484 2369Q1484 2395 1510 2395L1510 2395Q1530 2395 1575 2364Q1620 2333 1678 2280Q1736 2227 1799 2159Q1862 2091 1904 2031L1904 2031Q1972 2173 2035 2261Q2098 2349 2145 2386Q2192 2423 2220 2437L2220 2437Q2252 2449 2278 2449L2278 2449Q2366 2449 2382 2341L2382 2341Q2418 2113 2418 1901L2418 1901Q2418 1827 2381 1827Q2344 1827 2334 1893L2334 1893Q2300 2095 2240 2263L2240 2263L2240 2267Q2238 2267 2240 2269L2240 2269Q2172 2211 2112 2110Q2052 2009 2002 1893L2002 1893Q2068 1781 2126 1647Q2184 1513 2232 1361L2232 1361Q2234 1355 2234 1345L2234 1345Q2234 1317 2205 1293Q2176 1269 2144 1254Q2112 1239 2094 1239L2094 1239Q2060 1239 2060 1275L2060 1275Q2060 1279 2061 1283Q2062 1287 2062 1291L2062 1291Q2066 1305 2066 1317Q2066 1329 2066 1341L2066 1341Q2066 1371 2044 1442Q2022 1513 1990 1598Q1958 1683 1932 1731L1932 1731Q1874 1573 1833 1403Q1792 1233 1768 1115L1768 1115L2234 1087Q2252 1085 2270 1074Q2288 1063 2288 1041L2288 1041Q2288 1025 2269 1001Q2250 977 2224 957Q2198 937 2170 937L2170 937Q2160 937 2146 941L2146 941Q2124 949 2100 954Q2076 959 2056 961L2056 961L1744 979Q1732 909 1721 831Q1710 753 1702 675L1702 675Q1700 645 1672 627Q1644 609 1613 602Q1582 595 1560 595L1560 595Q1522 595 1522 621L1522 621Q1522 631 1536 651L1536 651Q1556 677 1562 717L1562 717Q1570 785 1580 855Q1590 925 1602 987L1602 987L974 1023Q854 955 820 955L820 955Q788 955 788 989L788 989Q788 999 792 1013Q796 1027 800 1043L800 1043Q810 1069 813 1098Q816 1127 816 1159L816 1159Q816 1459 787 1671Q758 1883 717 2024Q676 2165 637 2247Q598 2329 574 2369L574 2369Q556 2395 556 2417L556 2417Q556 2443 574 2443Q592 2443 637 2403Q682 2363 738 2277Q794 2191 847 2054Q900 1917 930 1721L930 1721Q938 1673 944 1619L944 1619Q944 1623 948 1631L948 1631Q976 1713 1006 1732Q1036 1751 1066 1751L1066 1751Q1076 1751 1089 1750Q1102 1749 1116 1747L1116 1747L1132 1745L1110 1793Q1102 1809 1092 1824Q1082 1839 1082 1859L1082 1859Q1082 1871 1088 1889L1088 1889Q1104 1921 1132 1930Q1160 1939 1182 1951L1182 1951Q1208 1965 1234 1983Q1260 2001 1274 2011L1274 2011Q1168 2141 948 2255L948 2255Q902 2277 902 2303Q902 2329 940 2329L940 2329Q952 2329 1000 2315Q1048 2301 1116 2270Q1184 2239 1256 2192Q1328 2145 1380 2085L1380 2085Q1404 2105 1435 2132Q1466 2159 1498 2189L1498 2189Q1508 2197 1519 2204Q1530 2211 1542 2211L1542 2211Q1570 2211 1600 2163L1600 2163Q1616 2141 1616 2121L1616 2121Q1616 2111 1607 2095Q1598 2079 1564 2050Q1530 2021 1460 1979L1460 1979Q1540 1855 1590 1671L1590 1671Q1666 1657 1696 1642Q1726 1627 1726 1607L1726 1607Q1726 1577 1684 1577ZM1146 1407L1146 1407L1596 1379Q1614 1377 1631 1369Q1648 1361 1648 1339L1648 1339Q1648 1315 1627 1292Q1606 1269 1582 1255Q1558 1241 1542 1241L1542 1241Q1536 1241 1531 1242Q1526 1243 1522 1245L1522 1245Q1496 1255 1458 1259L1458 1259L1122 1281L1102 1281Q1084 1281 1066 1279Q1048 1277 1034 1273L1034 1273Q1026 1271 1016 1271L1016 1271Q994 1271 994 1293L994 1293Q994 1297 998 1311L998 1311Q1022 1375 1045 1392Q1068 1409 1102 1409L1102 1409Q1112 1409 1122 1409Q1132 1409 1146 1407ZM2038 947L2038 947Q2060 947 2085 914Q2110 881 2110 851L2110 851Q2110 829 2081 804Q2052 779 2010 753Q1968 727 1925 705Q1882 683 1848 668Q1814 653 1802 653L1802 653Q1768 653 1753 686Q1738 719 1738 731L1738 731Q1738 749 1748 761Q1758 773 1772 781L1772 781Q1820 807 1881 845Q1942 883 1990 923L1990 923Q2020 947 2038 947Z"/>
  </svg>