<svg xmlns="http://www.w3.org/2000/svg" viewBox="0 0 3000 3000" width="3000" height="3000">
    <path fill="#000000" d="M883.67 2060.30Q836.35 2060.30 836.35 2010.50L836.35 2010.50Q836.35 1984.35 874.95 1960.69L874.95 1960.69Q995.73 1887.23 1077.91 1751.51L1077.91 1751.51Q1000.71 1553.54 978.30 1196.19L978.30 1196.19L535.03 1196.19Q491.46 1196.19 491.46 1247.24L491.46 1247.24L493.95 1496.26Q495.19 1726.61 449.12 1888.48L449.12 1888.48Q404.30 2042.87 347.02 2042.87L347.02 2042.87Q293.48 2042.87 293.48 1986.84L293.48 1986.84Q293.48 1974.39 328.34 1900.93L328.34 1900.93Q360.72 1831.20 378.15 1704.20L378.15 1704.20Q393.09 1595.87 393.09 1405.37L393.09 1405.37L389.36 1208.64Q388.11 1099.07 502.66 1099.07L502.66 1099.07L973.32 1099.07L969.58 985.77Q968.33 932.23 1020.63 932.23L1020.63 932.23Q1071.68 932.23 1071.68 983.28L1071.68 983.28L1070.43 1099.07L1350.59 1099.07Q1410.35 1099.07 1410.35 1147.63L1410.35 1147.63Q1410.35 1196.19 1350.59 1196.19L1350.59 1196.19L1077.91 1196.19Q1101.56 1500 1141.41 1635.72L1141.41 1635.72Q1211.13 1480.08 1233.54 1368.02L1233.54 1368.02Q1244.75 1308.25 1288.33 1308.25L1288.33 1308.25Q1339.38 1308.25 1339.38 1355.57L1339.38 1355.57Q1339.38 1366.77 1293.31 1501.25L1293.31 1501.25Q1247.24 1635.72 1184.99 1755.25L1184.99 1755.25Q1203.66 1800.07 1248.49 1868.55L1248.49 1868.55Q1288.33 1928.32 1310.74 1928.32L1310.74 1928.32Q1321.95 1928.32 1330.04 1901.55Q1338.13 1874.78 1340.63 1823.73L1340.63 1823.73Q1344.36 1754.00 1386.69 1754.00L1386.69 1754.00Q1431.52 1754.00 1431.52 1797.58L1431.52 1797.58Q1431.52 1900.93 1401.64 1979.37L1401.64 1979.37Q1371.75 2059.06 1326.93 2059.06L1326.93 2059.06Q1231.05 2059.06 1123.97 1853.61L1123.97 1853.61Q1065.45 1932.06 994.48 1995.56L994.48 1995.56Q922.27 2060.30 883.67 2060.30L883.67 2060.30ZM548.73 2042.87Q503.91 2042.87 503.91 1995.56L503.91 1995.56Q503.91 1960.69 554.96 1948.24L554.96 1948.24Q664.53 1922.09 731.76 1849.88L731.76 1849.88Q699.39 1837.43 624.68 1817.50L624.68 1817.50Q551.22 1798.83 551.22 1754.00L551.22 1754.00L553.71 1737.82L601.03 1599.61L566.16 1599.61Q515.11 1599.61 515.11 1557.28L515.11 1557.28Q515.11 1514.94 563.67 1514.94L563.67 1514.94L623.44 1514.94L638.38 1452.69Q650.83 1399.15 689.43 1399.15L689.43 1399.15Q735.50 1399.15 735.50 1438.99L735.50 1438.99L714.33 1514.94L846.31 1514.94Q928.49 1514.94 928.49 1583.42L928.49 1583.42Q928.49 1671.83 867.48 1801.32L867.48 1801.32L882.42 1807.54Q916.04 1821.24 932.23 1834.94Q948.41 1848.63 948.41 1864.82L948.41 1864.82Q948.41 1890.97 937.21 1902.80Q926.00 1914.62 902.34 1914.62L902.34 1914.62Q891.14 1914.62 838.84 1893.46L838.84 1893.46L820.17 1883.50Q776.59 1943.26 694.41 1991.82L694.41 1991.82Q609.74 2042.87 548.73 2042.87L548.73 2042.87ZM784.06 1772.68Q832.62 1664.36 832.62 1617.04L832.62 1617.04Q832.62 1607.08 828.26 1603.34Q823.90 1599.61 812.70 1599.61L812.70 1599.61L689.43 1599.61L657.06 1701.71L652.08 1722.88Q648.34 1737.82 693.16 1744.04L693.16 1744.04L784.06 1772.68ZM577.37 1385.45Q526.32 1385.45 526.32 1340.63L526.32 1340.63Q526.32 1295.80 577.37 1295.80L577.37 1295.80L914.79 1295.80Q964.60 1295.80 964.60 1340.63L964.60 1340.63Q964.60 1385.45 914.79 1385.45L914.79 1385.45L577.37 1385.45ZM1263.43 1086.62Q1244.75 1086.62 1196.19 1040.55L1196.19 1040.55L1171.29 1018.14Q1147.63 996.97 1147.63 980.79L1147.63 980.79Q1147.63 939.70 1193.70 939.70L1193.70 939.70Q1217.36 939.70 1267.16 979.54L1267.16 979.54Q1311.99 1015.65 1311.99 1043.04L1311.99 1043.04Q1311.99 1086.62 1263.43 1086.62L1263.43 1086.62ZM2582.01 2060.30Q2521.00 2060.30 2438.82 1944.51L2438.82 1944.51Q2359.13 1831.20 2310.57 1676.81L2310.57 1676.81Q2264.50 1529.88 2249.56 1338.13L2249.56 1338.13L1633.23 1338.13Q1575.95 1338.13 1575.95 1290.82L1575.95 1290.82Q1575.95 1242.26 1633.23 1242.26L1633.23 1242.26L2243.33 1242.26Q2238.35 1176.27 2238.35 998.22L2238.35 998.22Q2238.35 933.47 2291.89 933.47L2291.89 933.47Q2345.43 933.47 2345.43 1005.69L2345.43 1005.69L2345.43 1201.17Q2345.43 1214.87 2347.92 1242.26L2347.92 1242.26L2634.30 1242.26Q2694.07 1242.26 2694.07 1290.82L2694.07 1290.82Q2694.07 1338.13 2634.30 1338.13L2634.30 1338.13L2352.91 1338.13Q2379.05 1658.13 2501.07 1843.65L2501.07 1843.65Q2549.63 1915.87 2568.31 1915.87L2568.31 1915.87Q2580.76 1915.87 2590.10 1882.25Q2599.44 1848.63 2605.66 1778.91L2605.66 1778.91Q2609.40 1735.33 2655.47 1735.33L2655.47 1735.33Q2705.27 1735.33 2705.27 1788.87L2705.27 1788.87Q2705.27 1894.70 2665.43 1985.60L2665.43 1985.60Q2633.06 2060.30 2582.01 2060.30L2582.01 2060.30ZM1622.02 2032.91Q1595.87 2032.91 1582.80 2019.84Q1569.73 2006.76 1567.24 1978.13L1567.24 1978.13Q1565.99 1956.96 1576.57 1942.64Q1587.16 1928.32 1608.33 1924.58L1608.33 1924.58Q1829.96 1885.99 1937.04 1866.06L1937.04 1866.06Q2021.70 1849.88 2217.19 1806.30L2217.19 1806.30Q2229.64 1803.81 2234.62 1803.81L2234.62 1803.81Q2254.54 1803.81 2265.12 1817.50Q2275.71 1831.20 2275.71 1858.59L2275.71 1858.59Q2275.71 1893.46 2205.98 1913.38L2205.98 1913.38Q2100.15 1944.51 1984.35 1966.92L1984.35 1966.92L1923.34 1978.13Q1758.98 2010.50 1675.56 2025.44L1675.56 2025.44Q1635.72 2032.91 1622.02 2032.91L1622.02 2032.91ZM1685.52 1463.89Q1685.52 1432.76 1697.35 1419.07Q1709.18 1405.37 1734.08 1405.37L1734.08 1405.37Q1758.98 1405.37 1770.19 1419.07Q1781.40 1432.76 1781.40 1463.89L1781.40 1463.89L1781.40 1917.11L1685.52 1933.30L1685.52 1463.89ZM1914.62 1893.46L1914.62 1316.97L2014.23 1316.97L2014.23 1874.78L1914.62 1893.46ZM1991.82 1607.08L1991.82 1514.94L2168.63 1514.94Q2223.41 1514.94 2223.41 1561.01L2223.41 1561.01Q2223.41 1607.08 2168.63 1607.08L2168.63 1607.08L1991.82 1607.08ZM1727.86 1105.30Q1699.22 1105.30 1685.52 1094.09Q1671.83 1082.89 1671.83 1059.23L1671.83 1059.23Q1671.83 1013.16 1727.86 1013.16L1727.86 1013.16L2116.33 1013.16Q2173.61 1013.16 2173.61 1059.23L2173.61 1059.23Q2173.61 1082.89 2159.91 1094.09Q2146.22 1105.30 2116.33 1105.30L2116.33 1105.30L1727.86 1105.30ZM2570.80 1172.53Q2539.67 1172.53 2508.54 1130.20L2508.54 1130.20L2464.97 1074.17Q2443.80 1045.53 2443.80 1034.33L2443.80 1034.33Q2443.80 991.99 2493.60 991.99L2493.60 991.99Q2521.00 991.99 2573.29 1048.02L2573.29 1048.02Q2624.34 1102.81 2624.34 1126.46L2624.34 1126.46Q2624.34 1172.53 2570.80 1172.53L2570.80 1172.53Z"/>
  </svg>