<svg xmlns="http://www.w3.org/2000/svg" viewBox="0 0 3000 3000" width="3000" height="3000">
    <path fill="#000000" d="M1030.80 998.92L1030.80 998.92L1070.32 998.92Q1070.32 1204.20 1082.44 1376.96Q1094.55 1549.72 1116.86 1686.15Q1139.17 1822.58 1172.32 1917.56Q1205.47 2012.55 1249.46 2062.28Q1293.45 2112 1347 2112L1347 2112Q1376.32 2112 1390.35 2056.54Q1404.38 2001.08 1409.47 1869.75L1409.47 1869.75Q1415.85 1874.85 1426.69 1879.95Q1437.52 1885.05 1445.17 1887.60L1445.17 1887.60Q1440.07 1984.50 1430.51 2042.51Q1420.95 2100.53 1401.19 2125.39Q1381.42 2150.25 1344.45 2150.25L1344.45 2150.25Q1289.62 2150.25 1245 2111.36Q1200.38 2072.47 1166.59 1999.80Q1132.80 1927.13 1107.30 1824.49Q1081.80 1721.85 1065.86 1593.71Q1049.92 1465.58 1041 1315.76Q1032.07 1165.95 1030.80 998.92ZM506.77 1405.65L506.77 1368.68L984.90 1368.68L984.90 1405.65L506.77 1405.65ZM1329.15 1377.60L1329.15 1377.60L1366.13 1385.25Q1303.65 1654.28 1185.07 1841.70Q1066.50 2029.13 871.42 2147.70L871.42 2147.70Q868.87 2142.60 863.14 2137.50Q857.40 2132.40 852.30 2126.66Q847.20 2120.93 842.10 2117.10L842.10 2117.10Q1037.17 2007.45 1154.47 1822.58Q1271.77 1637.70 1329.15 1377.60ZM1157.02 1024.42L1157.02 1024.42L1179.97 1002.75Q1232.25 1029.53 1287.71 1067.14Q1343.17 1104.75 1375.05 1135.35L1375.05 1135.35L1352.10 1162.13Q1320.22 1132.80 1264.76 1093.28Q1209.30 1053.75 1157.02 1024.42ZM409.87 1230.97L409.87 1194L1423.50 1194L1423.50 1230.97L409.87 1230.97ZM388.20 1553.55L388.20 1194L425.17 1194L425.17 1553.55Q425.17 1619.85 420.71 1696.35Q416.25 1772.85 404.77 1851.90Q393.30 1930.95 369.71 2007.45Q346.12 2083.95 307.87 2148.97L307.87 2148.97Q305.32 2145.15 299.59 2140.69Q293.85 2136.22 288.11 2132.40Q282.37 2128.58 277.27 2127.30L277.27 2127.30Q327.00 2040.60 350.59 1940.51Q374.17 1840.43 381.19 1739.70Q388.20 1638.97 388.20 1553.55L388.20 1553.55ZM488.92 1623.68L488.92 1585.43L928.80 1585.43L928.80 1623.68L488.92 1623.68ZM529.72 1783.05L529.72 1783.05L560.32 1757.55Q631.72 1783.05 710.14 1819.39Q788.55 1855.73 858.04 1893.34Q927.52 1930.95 972.15 1962.83L972.15 1962.83L942.82 1992.15Q896.92 1959 828.07 1920.75Q759.22 1882.50 681.45 1845.53Q603.67 1808.55 529.72 1783.05ZM912.22 1594.35L912.22 1585.43L921.15 1585.43L928.80 1582.88L951.75 1594.35Q917.32 1726.95 847.20 1820.66Q777.07 1914.38 683.36 1973.66Q589.65 2032.95 486.37 2064.83L486.37 2064.83Q482.55 2057.18 476.17 2047.61Q469.80 2038.05 463.42 2031.68L463.42 2031.68Q562.87 2003.63 653.40 1948.16Q743.92 1892.70 812.77 1804.73Q881.62 1716.75 912.22 1594.35L912.22 1594.35ZM570.52 1785.60L529.72 1783.05Q565.42 1732.05 604.31 1663.20Q643.20 1594.35 678.26 1520.40Q713.32 1446.45 736.27 1382.70L736.27 1382.70L773.25 1389.08Q749.02 1454.10 713.32 1528.05Q677.62 1602 640.01 1669.58Q602.40 1737.15 570.52 1785.60L570.52 1785.60ZM2420.55 1051.20L2420.55 1051.20L2448.60 1029.53Q2488.13 1056.30 2528.29 1089.45Q2568.45 1122.60 2604.15 1155.75Q2639.85 1188.90 2661.53 1215.67L2661.53 1215.67L2633.48 1242.45Q2611.80 1215.67 2576.10 1181.89Q2540.40 1148.10 2500.24 1113.67Q2460.07 1079.25 2420.55 1051.20ZM1575.22 1359.75L1575.22 1322.78L2701.05 1322.78L2701.05 1359.75L1575.22 1359.75ZM1970.47 1665.75L1970.47 1628.78L2230.57 1628.78L2230.57 1665.75L1970.47 1665.75ZM1682.33 1130.25L1682.33 1092L2171.93 1092L2171.93 1130.25L1682.33 1130.25ZM1580.33 2123.47L1567.58 2085.22Q1651.72 2071.20 1765.84 2051.44Q1879.95 2031.68 2010.64 2008.09Q2141.32 1984.50 2272.65 1960.28L2272.65 1960.28L2275.20 1995.98Q2150.25 2018.93 2024.03 2042.51Q1897.80 2066.10 1783.69 2086.50Q1669.58 2106.90 1580.33 2123.47L1580.33 2123.47ZM1937.33 2032.95L1937.33 1414.58L1975.58 1414.58L1975.58 2032.95L1937.33 2032.95ZM1695.08 2076.30L1695.08 1525.50L1732.05 1525.50L1732.05 2076.30L1695.08 2076.30ZM2290.50 1002.75L2290.50 1002.75L2328.75 1002.75Q2328.75 1206.75 2340.86 1378.24Q2352.98 1549.72 2376.56 1685.51Q2400.15 1821.30 2435.21 1916.29Q2470.28 2011.28 2516.81 2061Q2563.35 2110.72 2620.73 2110.72L2620.73 2110.72Q2652.60 2110.72 2666.63 2052.08Q2680.65 1993.43 2685.75 1858.28L2685.75 1858.28Q2692.13 1863.38 2702.96 1868.48Q2713.80 1873.58 2721.45 1876.13L2721.45 1876.13Q2716.35 1976.85 2706.15 2036.78Q2695.95 2096.70 2675.55 2122.84Q2655.15 2148.97 2618.18 2148.97L2618.18 2148.97Q2560.80 2148.97 2514.26 2110.09Q2467.73 2071.20 2432.03 1998.53Q2396.32 1925.85 2370.19 1823.85Q2344.05 1721.85 2326.84 1594.35Q2309.63 1466.85 2300.70 1317.68Q2291.78 1168.50 2290.50 1002.75Z"/>
  </svg>