<svg xmlns="http://www.w3.org/2000/svg" viewBox="0 0 3000 3000" width="3000" height="3000">
    <path fill="#000000" d="M1097.10 1130.25L1097.10 1130.25Q1047.38 1077.97 1047.38 1069.69Q1047.38 1061.40 1065.86 1051.84Q1084.35 1042.27 1090.72 1035.26Q1097.10 1028.25 1100.29 1028.89Q1103.47 1029.52 1125.15 1038.45L1125.15 1038.45Q1148.10 1049.92 1176.15 1057.57L1176.15 1057.57Q1200.38 1061.40 1211.85 1072.24Q1223.32 1083.07 1229.70 1107.30L1229.70 1107.30Q1239.90 1146.82 1196.55 1168.50L1196.55 1168.50Q1167.22 1182.52 1152.56 1177.42Q1137.90 1172.32 1097.10 1130.25ZM865.05 969.60L865.05 969.60Q872.70 963.22 873.97 963.22L873.97 963.22Q879.07 963.22 896.29 979.80Q913.50 996.37 923.70 1007.85L923.70 1007.85Q932.62 1024.42 935.81 1044.82Q939.00 1065.22 939.00 1116.22L939.00 1116.22Q939.00 1126.42 939.00 1130.89Q939.00 1135.35 940.27 1138.54Q941.55 1141.72 942.82 1142.36Q944.10 1143 945.37 1141.72L945.37 1141.72Q954.30 1139.17 963.22 1144.27Q972.15 1149.38 1009.12 1155.75L1009.12 1155.75Q1074.15 1165.95 1092 1185.07L1092 1185.07Q1109.85 1209.30 1083.07 1245L1083.07 1245Q1067.77 1267.95 1058.21 1267.95Q1048.65 1267.95 1020.60 1257.75Q992.55 1247.55 973.42 1247.55L973.42 1247.55L955.57 1247.55L958.12 1273.05Q959.40 1308.75 970.87 1372.50Q982.35 1436.25 990.00 1441.35L990.00 1441.35Q993.82 1446.45 993.82 1462.39Q993.82 1478.32 1000.20 1492.35L1000.20 1492.35Q1023.15 1535.70 1023.15 1552.28L1023.15 1552.28Q1023.15 1561.20 1030.16 1570.13Q1037.17 1579.05 1037.17 1591.80L1037.17 1591.80Q1037.17 1603.28 1042.27 1602L1042.27 1602Q1049.92 1600.72 1056.30 1580.32L1056.30 1580.32Q1076.70 1507.65 1089.45 1449L1089.45 1449Q1097.10 1409.47 1106.02 1399.28L1106.02 1399.28L1114.95 1389.07L1140.45 1409.47Q1178.70 1442.63 1199.10 1481.51Q1219.50 1520.40 1202.92 1533.15L1202.92 1533.15Q1196.55 1538.25 1190.17 1559.92L1190.17 1559.92Q1165.95 1644.08 1141.72 1693.80L1141.72 1693.80L1120.05 1738.42L1146.82 1779.22Q1168.50 1811.10 1211.85 1857.64Q1255.20 1904.17 1276.87 1920.75L1276.87 1920.75Q1312.57 1944.97 1344.45 1955.17Q1376.32 1965.38 1385.25 1955.17L1385.25 1955.17Q1390.35 1947.53 1410.75 1893.97L1410.75 1893.97Q1414.57 1885.05 1419.67 1857L1419.67 1857L1423.50 1830.22L1436.25 1842.97Q1449 1857 1449 1881.86Q1449 1906.72 1459.20 1934.78Q1469.40 1962.83 1473.86 2009.36Q1478.32 2055.90 1470.67 2068.65L1470.67 2068.65Q1461.75 2082.68 1452.19 2087.78Q1442.63 2092.88 1420.95 2095.43L1420.95 2095.43Q1394.17 2099.25 1387.80 2103.07L1387.80 2103.07Q1382.70 2106.90 1353.38 2099.89Q1324.05 2092.88 1298.55 2082.68L1298.55 2082.68Q1197.82 2035.50 1079.25 1887.60L1079.25 1887.60Q1055.02 1857 1051.20 1857L1051.20 1857Q1047.38 1857 1006.57 1901.63L1006.57 1901.63Q998.92 1910.55 998.92 1914.38L998.92 1914.38Q997.65 1927.13 963.22 1951.35L963.22 1951.35Q944.10 1964.10 924.97 1981.95Q905.85 1999.80 902.66 1999.80Q899.47 1999.80 873.97 2017.65L873.97 2017.65Q856.12 2029.13 830.62 2039.33Q805.12 2049.53 794.92 2049.53L794.92 2049.53Q778.35 2049.53 797.47 2026.58L797.47 2026.58Q803.85 2020.20 810.22 2012.55L810.22 2012.55Q835.72 1990.88 837.00 1985.14Q838.27 1979.40 821.70 1966.65L821.70 1966.65Q800.02 1947.53 772.61 1922.03Q745.20 1896.53 742.01 1896.53Q738.82 1896.53 698.66 1911.19Q658.50 1925.85 646.39 1925.85Q634.27 1925.85 624.07 1932.22L624.07 1932.22Q610.05 1938.60 579.45 1944.34Q548.85 1950.08 541.20 1946.25L541.20 1946.25Q531.00 1942.42 538.65 1937.33L538.65 1937.33Q542.47 1934.78 551.40 1930.95L551.40 1930.95Q584.55 1913.10 624.71 1888.88Q664.87 1864.65 673.80 1855.72L673.80 1855.72Q684.00 1844.25 680.17 1837.88Q676.35 1831.50 652.12 1820.03L652.12 1820.03Q633.00 1809.83 629.17 1795.80L629.17 1795.80Q618.97 1752.45 635.55 1723.13L635.55 1723.13Q643.20 1707.83 640.65 1705.91Q638.10 1704 622.80 1710.38L622.80 1710.38Q599.85 1720.58 585.82 1734.60Q571.80 1748.63 559.05 1776.67L559.05 1776.67Q541.20 1812.38 541.20 1818.75L541.20 1818.75Q541.20 1832.78 455.77 1923.30Q370.35 2013.83 344.85 2025.30L344.85 2025.30Q328.27 2032.95 315.52 2044.42L315.52 2044.42Q304.05 2055.90 283.65 2066.74Q263.25 2077.57 254.32 2077.57L254.32 2077.57Q246.67 2077.57 253.05 2068.65L253.05 2068.65Q253.05 2067.38 254.32 2064.82L254.32 2064.82Q268.35 2044.42 311.70 1998.53L311.70 1998.53Q335.92 1973.03 376.72 1918.84Q417.52 1864.65 427.72 1844.25L427.72 1844.25Q497.85 1709.10 497.85 1665.75L497.85 1665.75Q497.85 1654.28 502.95 1616.03L502.95 1616.03Q520.80 1468.13 520.80 1400.55L520.80 1400.55Q520.80 1376.32 523.35 1371.22Q525.90 1366.13 533.55 1366.13L533.55 1366.13Q542.47 1366.13 559.05 1378.24Q575.62 1390.35 575.62 1396.72L575.62 1396.72Q575.62 1403.10 585.82 1421.59Q596.02 1440.07 596.02 1447.72L596.02 1447.72Q596.02 1461.75 607.50 1471.95L607.50 1471.95Q610.05 1474.50 610.05 1470.67L610.05 1470.67Q610.05 1456.65 729.90 1417.13L729.90 1417.13Q784.72 1399.28 791.10 1392.90Q797.47 1386.53 834.45 1387.16Q871.42 1387.80 873.34 1385.25Q875.25 1382.70 868.24 1354.01Q861.22 1325.32 861.22 1299.82Q861.22 1274.32 854.85 1265.40L854.85 1265.40Q848.47 1259.03 842.10 1259.03Q835.72 1259.03 806.40 1265.40L806.40 1265.40Q765.60 1273.05 743.92 1283.25Q722.25 1293.45 715.87 1293.45Q709.50 1293.45 694.20 1304.92L694.20 1304.92Q682.72 1313.85 677.62 1315.13Q672.52 1316.40 661.05 1311.30L661.05 1311.30Q641.92 1304.92 611.32 1283.89Q580.72 1262.85 578.17 1253.92L578.17 1253.92Q571.80 1232.25 587.74 1223.96Q603.67 1215.67 669.97 1206.75L669.97 1206.75Q719.70 1199.10 729.26 1196.55Q738.82 1194 793.65 1183.80L793.65 1183.80L848.47 1176.15L847.20 1104.75Q845.92 982.35 865.05 969.60ZM861.22 1474.50L861.22 1474.50Q833.17 1469.40 824.25 1469.40L824.25 1469.40Q789.82 1473.22 783.45 1475.77Q777.07 1478.32 774.52 1492.35L774.52 1492.35Q771.97 1507.65 779.62 1522.95L779.62 1522.95Q794.92 1553.55 777.07 1594.35L777.07 1594.35Q766.87 1618.58 769.42 1621.13L769.42 1621.13Q773.25 1624.95 787.27 1618.58Q801.30 1612.20 805.12 1604.55L805.12 1604.55Q808.95 1594.35 819.15 1596.26Q829.35 1598.17 865.05 1602Q900.75 1605.83 905.85 1609.65L905.85 1609.65Q909.67 1613.47 917.32 1616.03Q924.97 1618.58 929.44 1619.21Q933.90 1619.85 935.17 1616.03L935.17 1616.03Q935.17 1613.47 930.07 1608.38L930.07 1608.38Q924.97 1603.28 894.37 1498.72L894.37 1498.72Q890.55 1485.97 885.45 1482.15Q880.35 1478.32 861.22 1474.50ZM624.07 1491.07L624.07 1491.07Q613.87 1474.50 611.32 1501.28L611.32 1501.28Q610.05 1515.30 610.05 1547.17L610.05 1547.17Q610.05 1612.20 602.40 1627.50L602.40 1627.50Q596.02 1640.25 597.94 1653Q599.85 1665.75 608.77 1665.75L608.77 1665.75Q615.15 1665.75 631.09 1659.38Q647.02 1653 664.87 1649.17L664.87 1649.17Q686.55 1645.35 696.11 1626.86Q705.67 1608.38 719.70 1540.80L719.70 1540.80Q728.62 1506.38 736.27 1500L736.27 1500Q742.65 1496.17 742.01 1494.90Q741.37 1493.63 735.00 1493.63L735.00 1493.63Q726.07 1493.63 709.50 1506.38Q692.92 1519.13 677.62 1519.13L677.62 1519.13Q667.42 1519.13 648.30 1508.92Q629.17 1498.72 624.07 1491.07ZM998.92 1755L998.92 1755Q998.92 1744.80 991.27 1739.06Q983.62 1733.33 983.62 1728.22Q983.62 1723.13 963.86 1681.69Q944.10 1640.25 940.27 1640.89Q936.45 1641.53 926.89 1653.64Q917.32 1665.75 896.92 1668.30L896.92 1668.30Q881.62 1670.85 879.07 1673.40Q876.52 1675.95 876.52 1689.97L876.52 1689.97Q876.52 1704 855.49 1747.99Q834.45 1791.97 817.87 1808.55L817.87 1808.55L806.40 1822.58L834.45 1841.70Q863.77 1860.83 884.17 1878.67L884.17 1878.67Q900.75 1892.70 904.57 1893.97Q908.40 1895.25 916.05 1888.88L916.05 1888.88Q939.00 1867.20 968.96 1819.39Q998.92 1771.58 998.92 1755ZM792.37 1678.50L792.37 1678.50Q792.37 1670.85 755.40 1678.50L755.40 1678.50Q743.92 1679.78 735.64 1700.17Q727.35 1720.58 712.05 1733.33L712.05 1733.33Q690.37 1756.28 710.77 1763.92L710.77 1763.92Q723.52 1767.75 726.07 1772.85L726.07 1772.85Q731.17 1781.78 740.74 1777.31Q750.30 1772.85 760.50 1758.83L760.50 1758.83Q769.42 1744.80 780.90 1716.75Q792.37 1688.70 792.37 1678.50ZM2249.70 1117.50L2249.70 1117.50Q2268.82 1109.85 2281.57 1118.77L2281.57 1118.77Q2289.23 1126.42 2326.20 1141.72L2326.20 1141.72Q2389.95 1168.50 2389.95 1210.57L2389.95 1210.57Q2389.95 1230.97 2381.03 1246.28L2381.03 1246.28Q2373.38 1260.30 2353.61 1271.78Q2333.85 1283.25 2318.55 1283.25L2318.55 1283.25Q2304.53 1283.25 2286.04 1272.41Q2267.55 1261.57 2267.55 1255.20L2267.55 1255.20Q2267.55 1248.82 2246.51 1228.42Q2225.47 1208.02 2225.47 1200.38Q2225.47 1192.72 2207.63 1173.60L2207.63 1173.60Q2174.47 1140.45 2217.82 1127.70L2217.82 1127.70Q2238.22 1121.32 2249.70 1117.50ZM2053.35 1071.60L2053.35 1071.60Q2055.90 981.07 2061.64 967.05Q2067.38 953.02 2076.30 954.30Q2085.22 955.57 2109.45 970.87L2109.45 970.87Q2126.03 981.07 2129.21 987.45Q2132.40 993.82 2133.68 1009.12L2133.68 1009.12Q2133.68 1033.35 2134.95 1048.65L2134.95 1048.65Q2138.78 1088.17 2137.50 1177.42L2137.50 1177.42Q2137.50 1237.35 2152.80 1335.53L2152.80 1335.53L2155.35 1353.38L2189.78 1353.38Q2225.47 1353.38 2228.03 1349.55L2228.03 1349.55Q2231.85 1344.45 2266.28 1347Q2300.70 1349.55 2312.18 1354.65L2312.18 1354.65Q2323.65 1361.03 2333.85 1377.60Q2344.05 1394.17 2344.05 1405.65L2344.05 1405.65Q2344.05 1414.57 2330.03 1431.15L2330.03 1431.15Q2322.38 1442.63 2316.64 1444.54Q2310.90 1446.45 2298.15 1445.17L2298.15 1445.17L2235.68 1436.25Q2192.32 1429.88 2184.04 1433.70Q2175.75 1437.53 2179.57 1457.92L2179.57 1457.92Q2192.32 1511.47 2230.57 1573.95L2230.57 1573.95Q2243.32 1594.35 2256.07 1617.30L2256.07 1617.30Q2294.32 1686.15 2361.26 1763.92Q2428.20 1841.70 2484.30 1879.95L2484.30 1879.95Q2509.80 1897.80 2544.23 1911.19Q2578.65 1924.58 2596.50 1924.58L2596.50 1924.58Q2614.35 1924.58 2641.76 1897.16Q2669.18 1869.75 2675.55 1841.70L2675.55 1841.70Q2679.38 1830.22 2686.39 1828.31Q2693.40 1826.40 2695.95 1837.88L2695.95 1837.88Q2698.50 1846.80 2688.30 1890.15Q2678.10 1933.50 2675.55 1981.95L2675.55 1981.95Q2673 2059.72 2651.32 2090.32L2651.32 2090.32Q2644.95 2097.97 2625.82 2105.63L2625.82 2105.63Q2595.23 2119.65 2545.50 2105.63Q2495.78 2091.60 2448.60 2055.90L2448.60 2055.90Q2406.53 2025.30 2355.53 1971.11Q2304.53 1916.92 2285.40 1883.78L2285.40 1883.78Q2280.30 1874.85 2250.97 1832.14Q2221.65 1789.42 2191.05 1724.40L2191.05 1724.40Q2126.03 1590.53 2111.36 1555.46Q2096.70 1520.40 2086.50 1477.05L2086.50 1477.05Q2078.85 1445.17 2069.93 1441.99Q2061 1438.80 2011.28 1446.45L2011.28 1446.45Q1956.45 1457.92 1940.51 1463.66Q1924.58 1469.40 1910.55 1471.95L1910.55 1471.95Q1881.22 1478.32 1906.72 1496.17L1906.72 1496.17Q1938.60 1516.57 1938.60 1571.40L1938.60 1571.40Q1938.60 1595.63 1942.43 1595.63L1942.43 1595.63Q1947.53 1595.63 1965.38 1586.70Q1983.22 1577.78 1985.78 1573.95L1985.78 1573.95Q1988.33 1567.57 2022.11 1568.85Q2055.90 1570.13 2067.38 1576.50L2067.38 1576.50Q2082.68 1584.15 2075.03 1615.39Q2067.38 1646.63 2049.53 1646.63L2049.53 1646.63Q2025.30 1646.63 1970.47 1667.03L1970.47 1667.03Q1948.80 1673.40 1944.34 1684.88Q1939.88 1696.35 1943.06 1726.31Q1946.25 1756.28 1943.70 1763.92L1943.70 1763.92Q1941.15 1774.13 1953.90 1770.30L1953.90 1770.30Q1973.03 1766.47 2045.70 1730.78L2045.70 1730.78Q2087.78 1709.10 2090.96 1711.65Q2094.15 1714.20 2078.85 1728.86Q2063.55 1743.53 2058.45 1755L2058.45 1755Q2054.63 1767.75 2022.11 1811.10Q1989.60 1854.45 1967.93 1874.85L1967.93 1874.85Q1942.43 1899.08 1913.10 1914.38L1913.10 1914.38Q1772.85 1987.05 1751.17 2007.45L1751.17 2007.45Q1735.88 2018.92 1713.56 2018.29Q1691.25 2017.65 1675.95 2004.90Q1660.65 1992.15 1660.65 1983.22Q1660.65 1974.30 1652.36 1967.29Q1644.08 1960.28 1649.17 1953.90Q1654.28 1947.53 1653 1937.33L1653 1937.33Q1651.72 1924.58 1659.38 1912.46Q1667.03 1900.35 1675.95 1897.80L1675.95 1897.80Q1691.25 1892.70 1702.09 1858.91Q1712.92 1825.13 1714.20 1784.33L1714.20 1784.33Q1715.47 1650.45 1716.75 1628.14Q1718.03 1605.83 1729.50 1594.35L1729.50 1594.35L1743.53 1581.60L1762.65 1594.35Q1783.05 1607.10 1785.60 1617.30L1785.60 1617.30Q1789.42 1635.15 1788.15 1728.22Q1786.88 1821.30 1783.05 1828.95L1783.05 1828.95Q1770.30 1851.90 1800.90 1841.70L1800.90 1841.70Q1808.55 1839.15 1818.75 1835.33L1818.75 1835.33Q1840.42 1825.13 1845.53 1820.03Q1850.63 1814.92 1850.63 1802.17L1850.63 1802.17Q1850.63 1784.33 1851.26 1642.80Q1851.90 1501.28 1856.36 1494.90Q1860.83 1488.52 1854.45 1488.52L1854.45 1488.52Q1846.80 1488.52 1792.61 1508.92Q1738.42 1529.32 1707.83 1544.63L1707.83 1544.63Q1665.75 1565.03 1651.72 1565.03L1651.72 1565.03Q1624.95 1565.03 1591.80 1536.97L1591.80 1536.97L1577.78 1524.22L1596.90 1506.38Q1616.03 1487.25 1636.42 1474.50L1636.42 1474.50Q1655.55 1463.03 1726.95 1439.44Q1798.35 1415.85 1835.33 1408.20L1835.33 1408.20L1929.68 1389.07Q1987.05 1376.32 2024.03 1368.67L2024.03 1368.67L2062.28 1363.57L2058.45 1324.05Q2052.07 1236.07 2046.97 1236.07L2046.97 1236.07Q2041.88 1236.07 2029.13 1251.38L2029.13 1251.38Q2001.08 1284.53 1925.85 1304.92L1925.85 1304.92Q1915.65 1308.75 1906.09 1311.30Q1896.53 1313.85 1891.43 1315.13Q1886.33 1316.40 1886.33 1316.40L1886.33 1316.40Q1886.33 1315.13 1893.97 1299.82L1893.97 1299.82Q1902.90 1281.97 1897.80 1274.32Q1892.70 1266.67 1869.75 1267.95L1869.75 1267.95Q1845.53 1269.22 1835.33 1255.84Q1825.13 1242.45 1801.54 1227.79Q1777.95 1213.13 1777.95 1209.94Q1777.95 1206.75 1791.97 1192.72L1791.97 1192.72Q1817.47 1168.50 1915.65 1141.72L1915.65 1141.72Q1942.43 1132.80 1946.25 1125.79Q1950.08 1118.77 1979.40 1121.32L1979.40 1121.32Q2029.13 1127.70 2038.05 1159.57L2038.05 1159.57Q2045.70 1178.70 2048.25 1149.38L2048.25 1149.38Q2050.80 1127.70 2053.35 1071.60Z"/>
  </svg>