<svg xmlns="http://www.w3.org/2000/svg" viewBox="0 0 3000 3000" width="3000" height="3000">
    <path fill="#000000" d="M381.82 1332.97L381.82 1332.97L381.82 1308.75Q381.82 1301.10 380.55 1292.18L380.55 1292.18L363.97 1104.75Q361.42 1066.50 348.67 1046.10Q335.92 1025.70 335.92 1014.86Q335.92 1004.02 358.24 1004.02Q380.55 1004.02 439.20 1028.25L439.20 1028.25L687.82 1007.85L698.02 1007.85Q726.07 1007.85 741.37 1022.51Q756.67 1037.17 756.67 1046.74Q756.67 1056.30 752.85 1061.40Q749.02 1066.50 747.75 1072.88L747.75 1072.88L720.97 1269.22Q749.02 1301.10 749.02 1311.94Q749.02 1322.78 738.82 1325.96Q728.62 1329.15 714.60 1330.43L714.60 1330.43L612.60 1338.08L611.32 1491.08L647.02 1488.53Q672.52 1485.97 685.27 1481.51Q698.02 1477.05 705.67 1477.05Q713.32 1477.05 728.62 1485.97L728.62 1485.97Q765.60 1508.93 765.60 1530.60L765.60 1530.60Q765.60 1547.18 737.55 1549.73L737.55 1549.73L610.05 1557.38L607.50 1813.65Q650.85 1799.63 694.20 1785.60Q737.55 1771.58 764.96 1761.38Q792.37 1751.18 803.21 1751.18Q814.05 1751.18 814.05 1762.65L814.05 1762.65Q814.05 1783.05 701.21 1836.60Q588.37 1890.15 472.99 1933.50Q357.60 1976.85 340.39 1976.85Q323.17 1976.85 305.32 1962.19Q287.47 1947.53 274.72 1930.31Q261.97 1913.10 261.97 1904.18L261.97 1904.18Q261.97 1899.08 291.30 1895.89Q320.62 1892.70 352.50 1885.05L352.50 1885.05L371.62 1879.95L361.42 1519.13Q358.87 1489.80 349.31 1474.50Q339.75 1459.20 339.75 1452.83L339.75 1452.83Q339.75 1442.63 353.77 1442.63Q367.80 1442.63 386.92 1447.72L386.92 1447.72Q437.92 1459.20 437.92 1483.43L437.92 1483.43L443.02 1862.10Q464.70 1855.73 487.01 1849.99Q509.32 1844.25 531.00 1837.88L531.00 1837.88L534.82 1343.18L459.60 1349.55L462.15 1375.05L462.15 1380.15Q462.15 1404.38 443.02 1404.38L443.02 1404.38Q417.52 1404.38 398.40 1389.08Q379.27 1373.78 380.55 1355.29Q381.82 1336.80 381.82 1332.97ZM647.02 1269.22L664.87 1076.70L439.20 1094.55L454.50 1284.53L647.02 1269.22ZM1026.97 1106.03L1026.97 1106.03Q866.32 1144.28 816.60 1144.28L816.60 1144.28Q800.02 1144.28 800.02 1132.80Q800.02 1121.33 850.39 1104.75Q900.75 1088.17 965.77 1062.67L965.77 1062.67Q1116.22 1006.58 1199.10 958.13L1199.10 958.13Q1220.77 946.65 1230.97 924.34Q1241.17 902.03 1249.46 902.03Q1257.75 902.03 1273.05 918.60L1273.05 918.60Q1313.85 965.77 1313.85 996.38L1313.85 996.38Q1313.85 1007.85 1303.65 1014.23L1303.65 1014.23Q1213.13 1051.20 1114.95 1080.53L1114.95 1080.53Q1107.30 1247.55 1093.27 1355.93L1093.27 1355.93L1276.87 1345.72Q1317.67 1343.18 1329.79 1338.08Q1341.90 1332.97 1350.19 1332.97Q1358.47 1332.97 1375.05 1344.45Q1391.63 1355.93 1405.01 1371.22Q1418.40 1386.53 1418.40 1396.72L1418.40 1396.72Q1418.40 1410.75 1386.52 1413.30L1386.52 1413.30L1116.22 1428.60Q1179.97 1591.80 1264.76 1729.50Q1349.55 1867.20 1473.22 1976.85L1473.22 1976.85Q1487.25 1988.33 1487.25 1997.25Q1487.25 2006.18 1473.22 2017.65L1473.22 2017.65Q1436.25 2044.43 1422.22 2044.43Q1408.20 2044.43 1398 2034.23L1398 2034.23Q1293.45 1924.58 1215.04 1793.89Q1136.63 1663.20 1069.05 1497.45L1069.05 1497.45Q1021.87 1720.58 890.55 1868.48L890.55 1868.48Q796.20 1976.85 700.57 2025.30L700.57 2025.30Q666.15 2043.15 663.60 2043.15L663.60 2043.15Q653.40 2043.15 653.40 2032.31Q653.40 2021.48 675.07 2001.08L675.07 2001.08Q905.85 1795.80 970.87 1553.55L970.87 1553.55Q988.72 1489.80 998.92 1434.97L998.92 1434.97L873.97 1441.35Q851.02 1443.90 825.52 1443.90Q800.02 1443.90 788.55 1433.70L788.55 1433.70Q764.32 1410.75 756.67 1393.54Q749.02 1376.33 749.02 1371.22Q749.02 1366.13 756.04 1366.13Q763.05 1366.13 777.71 1369.95Q792.37 1373.78 820.42 1373.78L820.42 1373.78L1009.12 1362.30Q1024.42 1228.43 1026.97 1106.03ZM1577.78 1320.22L1577.78 1320.22Q1607.10 1325.33 1617.30 1325.33L1617.30 1325.33L1632.60 1325.33Q1638.97 1325.33 1644.08 1324.05L1644.08 1324.05L1836.60 1303.65L1850.63 1302.38Q1864.65 1302.38 1883.14 1316.40Q1901.63 1330.43 1901.63 1343.18Q1901.63 1355.93 1893.97 1364.85L1893.97 1364.85L1878.67 1378.88Q1873.58 1385.25 1816.84 1459.84Q1760.10 1534.43 1760.10 1540.80Q1760.10 1547.18 1766.47 1551L1766.47 1551Q1835.33 1594.35 1865.29 1623.04Q1895.25 1651.73 1895.25 1677.23Q1895.25 1702.73 1871.66 1732.69Q1848.08 1762.65 1781.78 1821.30L1781.78 1821.30Q1820.03 1823.85 1953.90 1850.63L1953.90 1850.63Q2406.53 1941.15 2687.03 1941.15L2687.03 1941.15L2693.40 1941.15Q2722.73 1941.15 2722.73 1952.63L2722.73 1952.63L2716.35 1970.48Q2693.40 2024.03 2657.70 2024.03L2657.70 2024.03L2650.05 2024.03Q2490.68 2020.20 2245.88 1978.76Q2001.08 1937.33 1895.25 1914.38Q1789.42 1891.43 1732.05 1891.43Q1674.67 1891.43 1633.24 1905.45Q1591.80 1919.48 1580.33 1919.48Q1568.85 1919.48 1560.56 1904.18Q1552.28 1888.88 1552.28 1871.66Q1552.28 1854.45 1559.92 1846.80L1559.92 1846.80Q1576.50 1831.50 1678.50 1822.58L1678.50 1822.58Q1756.28 1751.18 1807.28 1687.43L1807.28 1687.43Q1809.83 1682.33 1809.83 1678.50L1809.83 1678.50Q1809.83 1670.85 1765.20 1636.43L1765.20 1636.43Q1721.85 1607.10 1715.47 1603.28L1715.47 1603.28Q1682.33 1581.60 1682.33 1558.65Q1682.33 1535.70 1693.80 1516.58L1693.80 1516.58Q1729.50 1461.75 1786.88 1380.15L1786.88 1380.15L1667.03 1395.45Q1646.63 1398 1631.33 1398Q1616.03 1398 1601.36 1383.34Q1586.70 1368.68 1578.41 1352.10Q1570.13 1335.53 1570.13 1327.88Q1570.13 1320.22 1577.78 1320.22ZM1818.75 1201.65L1818.75 1201.65Q1748.63 1109.85 1670.85 1041L1670.85 1041Q1653 1025.70 1653 1016.77Q1653 1007.85 1661.92 998.92L1661.92 998.92Q1686.15 979.80 1696.35 979.80Q1706.55 979.80 1729.50 997.01Q1752.45 1014.23 1781.14 1040.36Q1809.83 1066.50 1837.24 1094.55Q1864.65 1122.60 1882.50 1144.91Q1900.35 1167.22 1900.35 1178.06Q1900.35 1188.90 1881.22 1207.39Q1862.10 1225.88 1850.63 1225.88Q1839.15 1225.88 1818.75 1201.65ZM2129.85 1224.60L2076.30 1227.15L2040.60 1228.43Q2011.28 1228.43 1997.89 1214.40Q1984.50 1200.38 1975.58 1183.80Q1966.65 1167.22 1966.65 1158.94Q1966.65 1150.65 1973.03 1150.65Q1979.40 1150.65 1992.15 1155.11Q2004.90 1159.58 2036.78 1159.58L2036.78 1159.58L2046.97 1159.58L2131.13 1154.47L2131.13 1015.50Q2131.13 984.90 2120.93 968.33Q2110.72 951.75 2110.72 942.82Q2110.72 933.90 2126.03 933.90L2126.03 933.90Q2177.03 945.38 2192.96 956.21Q2208.90 967.05 2208.90 981.08L2208.90 981.08L2208.90 1150.65L2381.03 1140.45L2381.03 988.73Q2381.03 959.40 2360.63 932.63L2360.63 932.63Q2355.53 923.70 2355.53 919.88L2355.53 919.88Q2355.53 909.67 2374.01 909.67Q2392.50 909.67 2418 919.88Q2443.50 930.07 2450.51 938.36Q2457.53 946.65 2457.53 963.23L2457.53 963.23L2457.53 1136.63Q2521.28 1135.35 2533.39 1130.25Q2545.50 1125.15 2553.79 1125.15Q2562.07 1125.15 2579.29 1136.63Q2596.50 1148.10 2609.25 1162.76Q2622 1177.43 2622 1185.08L2622 1185.08Q2622 1199.10 2595.23 1201.65L2595.23 1201.65L2457.53 1209.30L2457.53 1429.88L2560.80 1424.78Q2596.50 1423.50 2609.25 1417.76Q2622 1412.03 2629.65 1412.03Q2637.30 1412.03 2653.88 1422.22L2653.88 1422.22Q2698.50 1449 2698.50 1470.68L2698.50 1470.68Q2698.50 1484.70 2670.45 1488.53L2670.45 1488.53L2457.53 1500L2458.80 1840.43Q2458.80 1873.58 2435.85 1873.58L2435.85 1873.58Q2426.93 1873.58 2410.99 1864.65Q2395.05 1855.73 2383.57 1841.06Q2372.10 1826.40 2372.10 1817.48L2372.10 1817.48L2372.10 1804.73Q2372.10 1800.90 2376.56 1779.23Q2381.03 1757.55 2381.03 1721.85L2381.03 1721.85L2381.03 1503.83L2187.22 1512.75L2183.40 1528.05Q2150.25 1668.30 2044.43 1756.28L2044.43 1756.28Q2002.35 1791.98 1970.47 1808.55Q1938.60 1825.13 1932.22 1825.13Q1925.85 1825.13 1925.85 1816.84Q1925.85 1808.55 1948.80 1784.33L1948.80 1784.33Q2081.40 1650.45 2108.18 1517.85L2108.18 1517.85L2024.03 1521.68L1992.15 1522.95Q1961.55 1522.95 1952.63 1515.30L1952.63 1515.30Q1915.65 1480.88 1915.65 1452.83L1915.65 1452.83Q1915.65 1445.18 1921.39 1445.18Q1927.13 1445.18 1939.88 1449.64Q1952.63 1454.10 1984.50 1454.10L1984.50 1454.10L1994.70 1454.10L2120.93 1447.72Q2128.57 1392.90 2129.85 1224.60L2129.85 1224.60ZM2199.97 1443.90L2199.97 1443.90L2381.03 1433.70L2381.03 1211.85L2207.63 1220.78Q2207.63 1389.08 2199.97 1443.90Z"/>
  </svg>