<svg xmlns="http://www.w3.org/2000/svg" viewBox="0 0 3000 3000" width="3000" height="3000">
    <path fill="#000000" d="M339.55 2026.68Q292.24 2026.68 292.24 1976.88L292.24 1976.88Q292.24 1937.04 356.98 1923.34L356.98 1923.34L356.98 1500Q356.98 1452.69 399.32 1452.69L399.32 1452.69Q441.65 1452.69 441.65 1500L441.65 1500L441.65 1903.42L477.76 1894.70L490.21 1890.97L495.19 1887.23L495.19 1375.49L446.63 1375.49Q399.32 1375.49 375.04 1349.96Q350.76 1324.44 350.76 1277.12L350.76 1277.12L350.76 1075.42Q350.76 977.05 449.12 977.05L449.12 977.05L587.33 977.05Q685.69 977.05 685.69 1075.42L685.69 1075.42L685.69 1277.12Q685.69 1375.49 586.08 1375.49L586.08 1375.49L586.08 1526.15L642.11 1526.15Q689.43 1526.15 689.43 1573.46L689.43 1573.46Q689.43 1618.29 642.11 1618.29L642.11 1618.29L586.08 1618.29L586.08 1863.57L629.66 1849.88Q674.49 1834.94 685.69 1834.94L685.69 1834.94Q726.78 1834.94 726.78 1878.52L726.78 1878.52Q726.78 1902.17 696.90 1918.36L696.90 1918.36Q668.26 1933.30 510.13 1980.62L510.13 1980.62Q356.98 2026.68 339.55 2026.68L339.55 2026.68ZM716.82 1706.69Q681.96 1706.69 681.96 1665.60L681.96 1665.60Q681.96 1645.68 723.05 1600.85L723.05 1600.85Q785.30 1534.86 841.33 1427.78L841.33 1427.78Q857.52 1396.66 887.40 1396.66L887.40 1396.66Q932.23 1396.66 932.23 1431.52L932.23 1431.52Q932.23 1452.69 869.97 1538.60L869.97 1538.60L828.88 1595.87Q750.44 1706.69 716.82 1706.69L716.82 1706.69ZM559.94 1285.84Q596.04 1285.84 596.04 1252.22L596.04 1252.22L596.04 1100.32Q596.04 1066.70 559.94 1066.70L559.94 1066.70L474.02 1066.70Q440.41 1066.70 440.41 1100.32L440.41 1100.32L440.41 1252.22Q440.41 1285.84 474.02 1285.84L474.02 1285.84L559.94 1285.84ZM1053.00 1986.84L1053.00 1877.27L853.78 1877.27L853.78 1802.56L1053.00 1802.56L1053.00 1730.35L853.78 1730.35L853.78 1655.64L1053.00 1655.64L1053.00 1556.03L1145.14 1556.03L1145.14 1655.64L1331.91 1655.64Q1377.98 1655.64 1377.98 1692.99L1377.98 1692.99Q1377.98 1730.35 1331.91 1730.35L1331.91 1730.35L1145.14 1730.35L1145.14 1802.56L1331.91 1802.56Q1377.98 1802.56 1377.98 1839.92L1377.98 1839.92Q1377.98 1877.27 1331.91 1877.27L1331.91 1877.27L1145.14 1877.27L1145.14 1986.84L1053.00 1986.84ZM874.95 2040.38Q780.32 2040.38 780.32 1948.24L780.32 1948.24L780.32 1578.44L835.11 1503.74L1031.84 1503.74L1059.23 1453.93Q1074.17 1426.54 1087.24 1412.84Q1100.32 1399.15 1116.50 1399.15L1116.50 1399.15Q1157.59 1399.15 1157.59 1435.25L1157.59 1435.25Q1157.59 1453.93 1121.48 1503.74L1121.48 1503.74L1346.85 1503.74Q1395.41 1503.74 1395.41 1543.58L1395.41 1543.58Q1395.41 1583.42 1346.85 1583.42L1346.85 1583.42L903.59 1583.42Q874.95 1583.42 874.95 1612.06L874.95 1612.06L874.95 1928.32Q874.95 1959.45 906.08 1959.45L906.08 1959.45L1371.75 1959.45Q1419.07 1959.45 1419.07 1999.29L1419.07 1999.29Q1419.07 2040.38 1371.75 2040.38L1371.75 2040.38L874.95 2040.38ZM744.21 1414.09Q723.05 1415.33 710.60 1404.13Q698.14 1392.92 698.14 1369.26L698.14 1369.26Q698.14 1345.61 759.16 1314.48L759.16 1314.48L835.11 1275.88Q873.71 1254.71 886.16 1254.71L886.16 1254.71Q898.61 1254.71 909.19 1264.05Q919.78 1273.39 921.02 1285.84L921.02 1285.84Q923.51 1307.01 907.95 1322.57Q892.38 1338.13 838.84 1366.77L838.84 1366.77L816.43 1379.22Q751.68 1414.09 744.21 1414.09L744.21 1414.09ZM871.22 1222.34L867.48 1222.34Q853.78 1222.34 835.11 1211.13L835.11 1211.13L787.79 1181.25Q759.16 1163.82 746.70 1151.37Q734.25 1138.92 734.25 1125.22L734.25 1125.22Q734.25 1091.60 769.12 1086.62L769.12 1086.62Q785.30 1084.13 842.58 1115.26L842.58 1115.26Q881.18 1136.43 894.25 1151.99Q907.32 1167.55 907.32 1181.25L907.32 1181.25Q907.32 1198.68 897.36 1209.27Q887.40 1219.85 871.22 1222.34L871.22 1222.34ZM990.75 1416.58Q968.33 1416.58 955.88 1404.13Q943.43 1391.67 943.43 1369.26L943.43 1369.26L943.43 1097.83Q943.43 1080.40 933.47 1070.43Q923.51 1060.47 906.08 1060.47L906.08 1060.47L754.17 1060.47Q706.86 1060.47 706.86 1016.89L706.86 1016.89Q706.86 974.56 754.17 974.56L754.17 974.56L942.19 974.56Q1034.33 974.56 1034.33 1067.94L1034.33 1067.94L1034.33 1369.26Q1034.33 1392.92 1023.12 1404.75Q1011.91 1416.58 990.75 1416.58L990.75 1416.58ZM1096.58 1379.22Q1054.25 1379.22 1054.25 1335.64L1054.25 1335.64Q1054.25 1323.19 1064.21 1315.10Q1074.17 1307.01 1090.98 1299.54Q1107.79 1292.07 1115.26 1288.33L1115.26 1288.33L1221.09 1236.04L1232.30 1232.30Q1249.73 1232.30 1260.94 1243.51Q1272.14 1254.71 1272.14 1273.39L1272.14 1273.39Q1272.14 1295.80 1227.32 1319.46L1227.32 1319.46Q1118.99 1379.22 1096.58 1379.22L1096.58 1379.22ZM1214.87 1216.11L1211.13 1216.11Q1201.17 1216.11 1178.76 1203.66L1178.76 1203.66L1143.90 1181.25Q1107.79 1158.84 1094.09 1145.76Q1080.40 1132.69 1080.40 1121.48L1080.40 1121.48Q1080.40 1102.81 1090.36 1093.47Q1100.32 1084.13 1117.75 1084.13L1117.75 1084.13Q1147.63 1084.13 1202.42 1116.50L1202.42 1116.50Q1255.96 1147.63 1255.96 1173.78L1255.96 1173.78Q1255.96 1212.38 1214.87 1216.11L1214.87 1216.11ZM1341.87 1425.29Q1295.80 1425.29 1295.80 1375.49L1295.80 1375.49L1295.80 1097.83Q1295.80 1080.40 1285.84 1070.43Q1275.88 1060.47 1258.45 1060.47L1258.45 1060.47L1114.01 1060.47Q1067.94 1060.47 1067.94 1016.89L1067.94 1016.89Q1067.94 996.97 1079.77 985.77Q1091.60 974.56 1114.01 974.56L1114.01 974.56L1293.31 974.56Q1387.94 974.56 1387.94 1069.19L1387.94 1069.19L1387.94 1375.49Q1387.94 1425.29 1341.87 1425.29L1341.87 1425.29ZM2067.77 1834.94Q2008.01 1834.94 1981.24 1808.17Q1954.47 1781.40 1958.20 1721.63L1958.20 1721.63L1958.20 1253.47Q1908.40 1318.21 1890.34 1338.76Q1872.29 1359.30 1861.08 1359.30L1861.08 1359.30Q1818.75 1359.30 1818.75 1309.50L1818.75 1309.50Q1818.75 1293.31 1861.08 1241.02L1861.08 1241.02Q1954.47 1128.96 2011.74 984.52L2011.74 984.52Q2031.67 933.47 2064.04 933.47L2064.04 933.47Q2090.19 933.47 2102.01 944.06Q2113.84 954.64 2113.84 975.81L2113.84 975.81Q2113.84 1008.18 2056.57 1105.30L2056.57 1105.30L2281.93 1105.30L2334.23 980.79Q2340.45 964.60 2353.53 956.51Q2366.60 948.41 2384.03 948.41L2384.03 948.41Q2408.94 948.41 2420.14 959.62Q2431.35 970.83 2431.35 995.73L2431.35 995.73Q2431.35 1020.63 2376.56 1105.30L2376.56 1105.30L2611.89 1105.30Q2660.45 1105.30 2660.45 1150.12L2660.45 1150.12Q2660.45 1172.53 2649.24 1183.12Q2638.04 1193.70 2611.89 1193.70L2611.89 1193.70L2085.21 1193.70Q2070.26 1193.70 2062.79 1201.79Q2055.32 1209.89 2055.32 1224.83L2055.32 1224.83L2055.32 1699.22Q2055.32 1721.63 2067.77 1734.70Q2080.22 1747.78 2102.64 1747.78L2102.64 1747.78L2631.81 1747.78Q2679.13 1747.78 2679.13 1791.36L2679.13 1791.36Q2679.13 1834.94 2631.81 1834.94L2631.81 1834.94L2067.77 1834.94ZM2631.81 2032.91Q2375.32 2032.91 2247.07 2031.67L2247.07 2031.67Q2017.97 2029.17 1930.81 2006.76L1930.81 2006.76Q1887.23 1994.31 1853.61 1973.14Q1820.00 1951.98 1786.38 1920.85L1786.38 1920.85Q1729.10 1971.90 1684.28 1998.67Q1639.45 2025.44 1619.53 2025.44L1619.53 2025.44Q1594.63 2025.44 1582.18 2011.74Q1569.73 1998.05 1569.73 1966.92L1569.73 1966.92Q1569.73 1927.08 1625.76 1903.42L1625.76 1903.42Q1630.74 1900.93 1660.62 1888.48Q1690.50 1876.03 1729.10 1852.37L1729.10 1852.37L1729.10 1623.27Q1729.10 1605.83 1719.14 1595.87Q1709.18 1585.91 1691.75 1585.91L1691.75 1585.91L1619.53 1585.91Q1593.38 1585.91 1581.56 1574.71Q1569.73 1563.50 1569.73 1538.60L1569.73 1538.60Q1569.73 1514.94 1581.56 1503.74Q1593.38 1492.53 1619.53 1492.53L1619.53 1492.53L1726.61 1492.53Q1781.40 1492.53 1805.68 1516.19Q1829.96 1539.84 1827.47 1589.65L1827.47 1589.65L1827.47 1841.16L1861.08 1873.54Q1948.24 1939.53 2214.70 1939.53L2214.70 1939.53Q2321.78 1939.53 2402.09 1938.28Q2482.40 1937.04 2535.94 1935.79L2535.94 1935.79Q2608.15 1933.30 2641.77 1933.30L2641.77 1933.30L2656.71 1933.30Q2705.27 1933.30 2705.27 1980.62L2705.27 1980.62Q2705.27 2032.91 2631.81 2032.91L2631.81 2032.91ZM1756.49 1351.83Q1749.02 1351.83 1714.16 1335.64L1714.16 1335.64L1612.06 1290.82Q1574.71 1274.63 1574.71 1243.51L1574.71 1243.51Q1574.71 1218.60 1585.91 1207.40Q1597.12 1196.19 1620.78 1196.19L1620.78 1196.19Q1640.70 1196.19 1725.37 1231.05L1725.37 1231.05Q1805.05 1263.43 1805.05 1302.03L1805.05 1302.03Q1805.05 1351.83 1756.49 1351.83L1756.49 1351.83ZM1800.07 1120.24Q1787.62 1120.24 1749.02 1099.07L1749.02 1099.07Q1686.77 1066.70 1666.85 1056.74L1666.85 1056.74Q1624.51 1036.82 1624.51 1005.69L1624.51 1005.69Q1624.51 958.37 1670.58 958.37L1670.58 958.37Q1688.01 958.37 1770.19 994.48L1770.19 994.48Q1807.54 1010.67 1827.47 1030.59Q1847.39 1050.51 1847.39 1069.19L1847.39 1069.19Q1847.39 1120.24 1800.07 1120.24L1800.07 1120.24ZM2291.89 1766.46L2291.89 1619.53L2032.91 1619.53L2032.91 1534.86L2291.89 1534.86L2291.89 1406.62L2032.91 1406.62L2032.91 1319.46L2291.89 1319.46L2291.89 1175.02L2387.77 1175.02L2387.77 1319.46L2595.70 1319.46Q2641.77 1319.46 2641.77 1361.79L2641.77 1361.79Q2641.77 1406.62 2595.70 1406.62L2595.70 1406.62L2387.77 1406.62L2387.77 1534.86L2595.70 1534.86Q2641.77 1534.86 2641.77 1577.20L2641.77 1577.20Q2641.77 1619.53 2595.70 1619.53L2595.70 1619.53L2387.77 1619.53L2387.77 1766.46L2291.89 1766.46Z"/>
  </svg>