<svg xmlns="http://www.w3.org/2000/svg" viewBox="0 0 3000 3000" width="3000" height="3000">
    <path fill="#000000" d="M881.62 1846.16L1056.30 1839.79L1055.02 1923.94L880.35 1929.04L881.62 1846.16ZM881.62 1708.46L1057.57 1699.54L1057.57 1765.84L881.62 1773.49L881.62 1708.46ZM882.90 1569.49L1060.13 1559.29L1058.85 1626.86L881.62 1635.79L882.90 1569.49ZM880.35 2075.66L880.35 2006.81L1440.07 1988.96Q1470.67 1985.14 1470.67 1966.01L1470.67 1966.01Q1470.67 1953.26 1459.20 1939.88Q1447.72 1926.49 1433.70 1916.29Q1419.67 1906.09 1408.20 1906.09L1408.20 1906.09Q1401.82 1906.09 1398 1907.36L1398 1907.36Q1387.80 1911.19 1376.32 1913.74Q1364.85 1916.29 1352.10 1916.29L1352.10 1916.29L1141.72 1922.66L1143 1837.24L1345.72 1829.59Q1354.65 1828.31 1364.21 1823.21Q1373.77 1818.11 1373.77 1805.36L1373.77 1805.36Q1373.77 1791.34 1361.02 1779.23Q1348.27 1767.11 1333.61 1758.83Q1318.95 1750.54 1311.30 1750.54Q1303.65 1750.54 1299.82 1751.81L1299.82 1751.81Q1292.17 1754.36 1279.42 1755.64Q1266.67 1756.91 1255.20 1759.46L1255.20 1759.46L1143 1763.29L1144.27 1696.99L1341.90 1688.06Q1350.82 1686.79 1360.39 1681.69Q1369.95 1676.59 1369.95 1663.84L1369.95 1663.84Q1369.95 1649.81 1357.20 1637.70Q1344.45 1625.59 1329.79 1617.30Q1315.13 1609.01 1307.47 1609.01Q1299.82 1609.01 1296.00 1610.29L1296.00 1610.29Q1288.35 1612.84 1275.60 1614.11Q1262.85 1615.39 1251.37 1617.94L1251.37 1617.94L1144.27 1623.04L1145.55 1555.46L1383.97 1543.99Q1395.45 1542.71 1405.01 1538.25Q1414.57 1533.79 1414.57 1521.04L1414.57 1521.04Q1414.57 1509.56 1402.46 1496.81Q1390.35 1484.06 1376.32 1473.22Q1362.30 1462.39 1352.10 1462.39L1352.10 1462.39Q1347 1462.39 1338.07 1464.94L1338.07 1464.94Q1326.60 1470.04 1317.04 1471.31Q1307.47 1472.59 1294.72 1473.86L1294.72 1473.86L1160.85 1480.24L1167.22 1472.59Q1179.97 1458.56 1190.17 1442.63Q1200.38 1426.69 1200.38 1416.49L1200.38 1416.49Q1200.38 1403.74 1185.07 1390.99Q1169.77 1378.24 1153.20 1368.68Q1136.63 1359.11 1125.15 1359.11L1125.15 1359.11Q1106.02 1359.11 1106.02 1387.16L1106.02 1387.16L1106.02 1396.09Q1106.02 1399.91 1100.29 1420.31Q1094.55 1440.71 1062.67 1485.34L1062.67 1485.34L931.35 1492.99Q935.17 1489.16 953.02 1463.03Q970.87 1436.89 970.87 1426.69L970.87 1426.69Q970.87 1408.84 952.39 1394.81Q933.90 1380.79 915.41 1371.86Q896.92 1362.94 891.82 1362.94L891.82 1362.94Q871.42 1362.94 871.42 1392.26L871.42 1392.26Q871.42 1415.21 859.95 1434.34L859.95 1434.34Q837.00 1473.86 803.85 1519.13Q770.70 1564.39 734.36 1608.38Q698.02 1652.36 662.32 1689.34L662.32 1689.34Q640.65 1711.01 640.65 1725.04Q640.65 1739.06 655.95 1739.06Q671.25 1739.06 697.39 1721.85Q723.52 1704.64 753.49 1679.14Q783.45 1653.64 797.47 1640.89L797.47 1640.89L792.37 1959.64Q792.37 2005.54 784.72 2045.06L784.72 2045.06Q783.45 2050.16 783.45 2054.63Q783.45 2059.09 783.45 2061.64L783.45 2061.64Q783.45 2083.31 798.11 2095.43Q812.77 2107.54 829.35 2111.36Q845.92 2115.19 852.30 2115.19L852.30 2115.19Q866.32 2115.19 873.34 2105.63Q880.35 2096.06 880.35 2075.66L880.35 2075.66ZM431.55 1147.46L611.32 1133.44L594.75 1306.84L445.57 1318.31L431.55 1147.46ZM453.22 1393.54L492.75 1389.71L490.20 1862.74Q478.72 1865.29 463.42 1869.75Q448.12 1874.21 440.47 1875.49L440.47 1875.49L437.92 1529.96Q437.92 1509.56 420.71 1498.09Q403.50 1486.61 385.01 1482.15Q366.52 1477.69 353.77 1477.69L353.77 1477.69Q329.55 1477.69 329.55 1495.54L329.55 1495.54Q329.55 1504.46 337.20 1515.94L337.20 1515.94Q343.57 1526.14 347.40 1538.25Q351.22 1550.36 351.22 1563.11L351.22 1563.11L357.60 1895.89L347.40 1898.44Q329.55 1903.54 311.06 1906.09Q292.57 1908.64 273.45 1908.64L273.45 1908.64Q251.77 1908.64 251.77 1923.94L251.77 1923.94Q251.77 1935.41 264.52 1953.26Q277.27 1971.11 296.40 1985.78Q315.52 2000.44 334.65 2000.44L334.65 2000.44Q343.57 2000.44 376.09 1989.60Q408.60 1978.76 453.86 1960.91Q499.12 1943.06 550.12 1921.39Q601.12 1899.71 648.30 1878.04Q695.47 1856.36 728.62 1839.79Q761.77 1823.21 761.77 1804.09L761.77 1804.09Q761.77 1787.51 737.55 1787.51L737.55 1787.51Q724.80 1787.51 709.50 1792.61L709.50 1792.61Q676.35 1805.36 640.01 1816.84Q603.67 1828.31 576.90 1837.24L576.90 1837.24L579.45 1602.64L691.65 1596.26Q703.12 1594.99 713.32 1589.89Q723.52 1584.79 723.52 1572.04Q723.52 1559.29 704.40 1536.97Q685.27 1514.66 658.50 1514.66L658.50 1514.66Q649.57 1514.66 644.47 1515.94L644.47 1515.94Q626.62 1521.04 604.95 1523.59L604.95 1523.59L579.45 1526.14L580.72 1384.61L666.15 1378.24Q681.45 1376.96 695.47 1374.41Q709.50 1371.86 709.50 1356.56L709.50 1356.56Q709.50 1347.64 702.49 1334.89Q695.47 1322.14 680.17 1308.11L680.17 1308.11L705.67 1128.34Q706.95 1123.24 710.77 1117.50Q714.60 1111.76 714.60 1101.56L714.60 1101.56Q714.60 1083.71 694.84 1069.05Q675.07 1054.39 650.85 1054.39L650.85 1054.39L638.10 1054.39L425.17 1073.51Q393.30 1059.49 371.62 1053.11Q349.95 1046.74 338.47 1046.74L338.47 1046.74Q316.80 1046.74 316.80 1064.59L316.80 1064.59Q316.80 1070.96 319.99 1077.97Q323.17 1084.99 327.00 1092.64L327.00 1092.64Q332.10 1101.56 337.20 1118.14Q342.30 1134.71 343.57 1151.29L343.57 1151.29L361.42 1324.69Q362.70 1331.06 362.70 1336.16Q362.70 1341.26 362.70 1347.64L362.70 1347.64Q362.70 1356.56 362.70 1364.21Q362.70 1371.86 361.42 1380.79L361.42 1380.79L361.42 1389.71Q361.42 1410.11 375.45 1421.59Q389.47 1433.06 405.41 1438.80Q421.35 1444.54 427.72 1444.54L427.72 1444.54Q454.50 1444.54 454.50 1413.94L454.50 1413.94L454.50 1408.84L453.22 1393.54ZM961.95 1153.84L961.95 1153.84L960.67 1192.09Q898.20 1244.36 849.75 1280.70Q801.30 1317.04 749.02 1346.36L749.02 1346.36Q712.05 1365.49 712.05 1385.89L712.05 1385.89Q712.05 1401.19 732.45 1401.19L732.45 1401.19Q749.02 1401.19 790.46 1382.70Q831.90 1364.21 880.35 1338.08Q928.80 1311.94 956.85 1295.36L956.85 1295.36L954.30 1305.56Q953.02 1319.59 949.20 1333.61L949.20 1333.61Q947.92 1342.54 946.01 1348.28Q944.10 1354.01 944.10 1361.66L944.10 1361.66Q944.10 1385.89 973.42 1401.19L973.42 1401.19Q993.82 1413.94 1007.85 1413.94L1007.85 1413.94Q1032.07 1413.94 1034.63 1376.96L1034.63 1376.96L1046.10 1074.79Q1047.38 1065.86 1049.92 1056.94Q1052.47 1048.01 1052.47 1037.81L1052.47 1037.81Q1052.47 1023.79 1039.72 1008.49Q1026.97 993.19 1001.47 993.19L1001.47 993.19L993.82 993.19L796.20 1005.94Q791.10 1005.94 786.00 1006.58Q780.90 1007.21 775.80 1007.21L775.80 1007.21Q754.12 1007.21 738.82 1002.11L738.82 1002.11Q733.72 1000.84 727.35 1000.84L727.35 1000.84Q712.05 1000.84 712.05 1014.86L712.05 1014.86Q712.05 1018.69 719.06 1035.90Q726.07 1053.11 743.29 1069.69Q760.50 1086.26 787.27 1086.26L787.27 1086.26Q794.92 1086.26 804.49 1085.63Q814.05 1084.99 825.52 1083.71L825.52 1083.71L940.27 1074.79Q895.65 1109.21 845.92 1142.36Q796.20 1175.51 747.75 1201.01L747.75 1201.01Q706.95 1220.14 706.95 1240.54L706.95 1240.54Q706.95 1255.84 728.62 1255.84L728.62 1255.84Q749.02 1255.84 788.55 1240.54Q828.07 1225.24 877.80 1200.38Q927.52 1175.51 961.95 1153.84ZM1298.55 1267.31L1298.55 1267.31L1297.27 1283.89Q1296.00 1313.21 1288.35 1338.71L1288.35 1338.71Q1284.52 1355.29 1284.52 1366.76L1284.52 1366.76Q1284.52 1389.71 1312.57 1407.56L1312.57 1407.56Q1336.80 1420.31 1347 1420.31L1347 1420.31Q1371.22 1420.31 1373.77 1383.34L1373.77 1383.34L1385.25 1055.66Q1386.52 1046.74 1389.07 1038.45Q1391.63 1030.16 1391.63 1019.96L1391.63 1019.96Q1391.63 991.91 1371.22 982.99Q1350.82 974.06 1341.90 974.06L1341.90 974.06L1332.97 974.06L1131.52 986.81L1117.50 986.81Q1106.02 986.81 1095.19 985.54Q1084.35 984.26 1074.15 981.71L1074.15 981.71Q1069.05 980.44 1062.67 980.44L1062.67 980.44Q1047.38 980.44 1047.38 994.46L1047.38 994.46Q1047.38 997.01 1052.47 1015.50Q1057.57 1033.99 1085.63 1058.21L1085.63 1058.21Q1097.10 1067.14 1123.88 1067.14L1123.88 1067.14Q1131.52 1067.14 1140.45 1067.14Q1149.38 1067.14 1160.85 1065.86L1160.85 1065.86L1269.22 1056.94Q1236.07 1081.16 1186.35 1113.04Q1136.63 1144.91 1088.17 1170.41L1088.17 1170.41Q1049.92 1189.54 1049.92 1206.11L1049.92 1206.11Q1049.92 1221.41 1071.60 1221.41L1071.60 1221.41Q1089.45 1221.41 1127.06 1209.94Q1164.67 1198.46 1214.40 1176.15Q1264.12 1153.84 1302.37 1132.16L1302.37 1132.16L1301.10 1170.41Q1243.72 1215.04 1194 1247.55Q1144.27 1280.06 1094.55 1306.84L1094.55 1306.84Q1076.70 1315.76 1068.41 1325.33Q1060.13 1334.89 1060.13 1342.54L1060.13 1342.54Q1060.13 1357.84 1080.52 1357.84L1080.52 1357.84Q1095.82 1357.84 1131.52 1345.09Q1167.22 1332.34 1214.40 1310.03Q1261.57 1287.71 1298.55 1267.31ZM2119.65 1644.71L2287.95 1635.79L2285.40 1764.56L2118.38 1772.21L2119.65 1644.71ZM2119.65 1454.74L2290.50 1445.81L2287.95 1556.74L2119.65 1565.66L2119.65 1454.74ZM2651.32 2065.46L2651.32 2065.46L2665.35 2065.46Q2690.85 2064.19 2702.96 2055.26Q2715.07 2046.34 2736.75 2011.91L2736.75 2011.91Q2748.23 1994.06 2748.23 1986.41L2748.23 1986.41Q2748.23 1968.56 2720.18 1968.56L2720.18 1968.56L2709.98 1968.56Q2699.78 1969.84 2687.66 1969.84Q2675.55 1969.84 2661.53 1969.84L2661.53 1969.84Q2601.60 1969.84 2521.28 1962.83Q2440.95 1955.81 2349.79 1944.34Q2258.63 1932.86 2168.10 1918.84L2168.10 1918.84Q2137.50 1913.74 2108.18 1908.64L2108.18 1908.64Q2118.38 1900.99 2118.38 1879.31L2118.38 1879.31L2118.38 1855.09L2643.68 1832.14Q2658.98 1830.86 2670.45 1825.13Q2681.93 1819.39 2681.93 1806.64Q2681.93 1793.89 2670.45 1778.59Q2658.98 1763.29 2642.40 1751.18Q2625.82 1739.06 2607.98 1739.06L2607.98 1739.06Q2601.60 1739.06 2596.50 1740.34Q2591.40 1741.61 2585.03 1744.16L2585.03 1744.16Q2569.73 1750.54 2556.98 1752.45Q2544.23 1754.36 2526.38 1755.64L2526.38 1755.64L2374.65 1762.01L2375.93 1631.96L2564.63 1623.04Q2578.65 1621.76 2590.13 1617.30Q2601.60 1612.84 2601.60 1600.09Q2601.60 1587.34 2588.85 1572.68Q2576.10 1558.01 2559.53 1547.81Q2542.95 1537.61 2527.65 1537.61L2527.65 1537.61Q2523.83 1537.61 2518.09 1537.61Q2512.35 1537.61 2507.25 1541.44L2507.25 1541.44Q2488.13 1547.81 2467.73 1549.09L2467.73 1549.09L2377.20 1554.19L2377.20 1441.99L2559.53 1431.79Q2573.55 1430.51 2585.03 1425.41Q2596.50 1420.31 2596.50 1406.29L2596.50 1406.29Q2596.50 1393.54 2583.11 1378.88Q2569.73 1364.21 2552.51 1354.65Q2535.30 1345.09 2522.55 1345.09L2522.55 1345.09Q2514.90 1345.09 2503.43 1348.91L2503.43 1348.91Q2491.95 1354.01 2481.75 1355.93Q2471.55 1357.84 2460.07 1359.11L2460.07 1359.11L2378.48 1364.21L2379.75 1255.84L2609.25 1241.81Q2620.73 1240.54 2632.20 1236.08Q2643.68 1231.61 2643.68 1218.86Q2643.68 1206.11 2631.56 1191.45Q2619.45 1176.79 2603.51 1166.59Q2587.57 1156.39 2573.55 1156.39L2573.55 1156.39Q2564.63 1156.39 2551.88 1160.21L2551.88 1160.21Q2542.95 1164.04 2532.11 1165.31Q2521.28 1166.59 2509.80 1167.86L2509.80 1167.86L2396.32 1174.24Q2430.75 1127.06 2462.63 1059.49L2462.63 1059.49Q2465.18 1055.66 2465.81 1052.47Q2466.45 1049.29 2466.45 1045.46L2466.45 1045.46Q2466.45 1027.61 2446.69 1013.59Q2426.93 999.56 2405.25 990Q2383.57 980.44 2375.93 980.44L2375.93 980.44Q2358.07 980.44 2358.07 998.29L2358.07 998.29Q2358.07 1000.84 2358.71 1002.75Q2359.35 1004.66 2359.35 1007.21L2359.35 1007.21Q2360.63 1012.31 2361.26 1016.77Q2361.90 1021.24 2361.90 1026.34L2361.90 1026.34Q2361.90 1048.01 2349.79 1080.53Q2337.68 1113.04 2323.65 1142.36Q2309.63 1171.69 2304.53 1180.61L2304.53 1180.61L2147.70 1190.81Q2165.55 1158.94 2189.14 1113.04Q2212.72 1067.14 2234.40 1017.41L2234.40 1017.41Q2236.95 1013.59 2237.59 1010.40Q2238.22 1007.21 2238.22 1003.39L2238.22 1003.39Q2238.22 986.81 2218.46 972.15Q2198.70 957.49 2176.39 947.29Q2154.07 937.09 2141.32 937.09L2141.32 937.09Q2120.93 937.09 2120.93 957.49L2120.93 957.49Q2120.93 965.14 2122.20 970.24L2122.20 970.24Q2123.47 974.06 2124.11 977.89Q2124.75 981.71 2124.75 986.81L2124.75 986.81Q2124.75 994.46 2111.36 1034.63Q2097.97 1074.79 2072.47 1137.26Q2046.97 1199.74 2008.09 1274.96Q1969.20 1350.19 1918.20 1427.96L1918.20 1427.96Q1908 1443.26 1908 1456.01L1908 1456.01Q1908 1472.59 1923.30 1472.59L1923.30 1472.59Q1936.05 1472.59 1955.18 1454.10Q1974.30 1435.61 1994.06 1412.66Q2013.83 1389.71 2027.85 1370.59L2027.85 1370.59Q2029.13 1369.31 2030.40 1366.76L2030.40 1366.76L2026.58 1772.21Q2026.58 1795.16 2025.30 1811.74Q2024.03 1828.31 2020.20 1844.89L2020.20 1844.89Q2018.93 1849.99 2018.93 1854.45Q2018.93 1858.91 2018.93 1861.46L2018.93 1861.46Q2018.93 1879.31 2032.95 1890.79L2032.95 1890.79Q2039.33 1895.89 2045.70 1898.44L2045.70 1898.44Q2022.75 1894.61 2001.08 1892.06L2001.08 1892.06Q1923.30 1878.04 1867.20 1866.56L1867.20 1866.56Q1827.67 1858.91 1806 1856.36L1806 1856.36Q1851.90 1820.66 1878.04 1793.25Q1904.18 1765.84 1904.18 1739.06L1904.18 1739.06Q1904.18 1709.74 1876.13 1688.70Q1848.08 1667.66 1786.88 1633.24L1786.88 1633.24Q1785.60 1631.96 1784.33 1630.69L1784.33 1630.69Q1784.33 1630.69 1784.33 1630.69L1784.33 1630.69Q1806 1601.36 1831.50 1571.40Q1857 1541.44 1882.50 1510.84L1882.50 1510.84Q1888.88 1504.46 1897.16 1494.90Q1905.45 1485.34 1905.45 1473.86L1905.45 1473.86Q1905.45 1456.01 1887.60 1440.08Q1869.75 1424.14 1845.53 1424.14L1845.53 1424.14L1835.33 1424.14L1656.83 1439.44Q1650.45 1440.71 1642.80 1440.71Q1635.15 1440.71 1628.78 1440.71L1628.78 1440.71Q1609.65 1440.71 1593.08 1436.89L1593.08 1436.89Q1587.97 1435.61 1581.60 1435.61L1581.60 1435.61Q1566.30 1435.61 1566.30 1450.91L1566.30 1450.91Q1566.30 1457.29 1575.22 1474.50Q1584.15 1491.71 1600.72 1510.84L1600.72 1510.84Q1613.47 1523.59 1637.70 1523.59L1637.70 1523.59Q1646.63 1523.59 1656.83 1522.95Q1667.03 1522.31 1678.50 1521.04L1678.50 1521.04L1769.03 1512.11Q1762.65 1519.76 1744.16 1542.71Q1725.67 1565.66 1711.65 1584.79L1711.65 1584.79Q1687.42 1619.21 1687.42 1643.44L1687.42 1643.44Q1687.42 1672.76 1725.67 1695.71L1725.67 1695.71Q1767.75 1718.66 1799.63 1741.61L1799.63 1741.61Q1802.17 1742.89 1802.17 1744.16L1802.17 1744.16L1800.90 1746.71Q1775.40 1773.49 1746.08 1799.63Q1716.75 1825.76 1684.88 1853.81L1684.88 1853.81Q1622.40 1858.91 1589.89 1865.29Q1557.38 1871.66 1546.54 1881.86Q1535.70 1892.06 1535.70 1907.36L1535.70 1907.36L1536.97 1921.39Q1538.25 1935.41 1547.17 1950.08Q1556.10 1964.74 1573.95 1964.74L1573.95 1964.74Q1580.33 1964.74 1586.06 1962.83Q1591.80 1960.91 1598.17 1959.64L1598.17 1959.64Q1636.42 1948.16 1668.94 1943.06Q1701.45 1937.96 1729.50 1937.96L1729.50 1937.96Q1763.92 1937.96 1793.89 1942.43Q1823.85 1946.89 1853.17 1953.26L1853.17 1953.26Q1909.28 1963.46 1991.51 1978.13Q2073.75 1992.79 2168.74 2008.09Q2263.73 2023.39 2356.80 2036.14Q2449.88 2048.89 2527.65 2057.18Q2605.43 2065.46 2651.32 2065.46ZM2120.93 1269.86L2291.78 1259.66L2290.50 1368.04L2119.65 1378.24L2120.93 1269.86ZM1806 1387.16L1806 1387.16Q1823.85 1387.16 1841.06 1364.85Q1858.28 1342.54 1858.28 1324.69L1858.28 1324.69Q1858.28 1308.11 1831.50 1286.44L1831.50 1286.44Q1816.20 1274.96 1788.79 1255.84Q1761.38 1236.71 1732.05 1217.59Q1702.72 1198.46 1678.50 1185.08Q1654.28 1171.69 1642.80 1171.69L1642.80 1171.69Q1628.78 1171.69 1619.85 1183.16Q1610.92 1194.64 1606.46 1207.39Q1602 1220.14 1602 1225.24L1602 1225.24Q1602 1241.81 1626.22 1257.11L1626.22 1257.11Q1659.38 1277.51 1698.90 1308.75Q1738.42 1339.99 1774.13 1370.59L1774.13 1370.59Q1784.33 1376.96 1791.34 1382.06Q1798.35 1387.16 1806 1387.16ZM1863.38 1209.94L1863.38 1209.94Q1873.58 1209.94 1886.33 1199.10Q1899.08 1188.26 1908.64 1174.88Q1918.20 1161.49 1918.20 1150.01Q1918.20 1138.54 1899.08 1118.78Q1879.95 1099.01 1851.90 1078.61Q1823.85 1058.21 1795.16 1039.09Q1766.47 1019.96 1743.53 1007.21Q1720.58 994.46 1711.65 994.46L1711.65 994.46Q1700.17 994.46 1684.24 1010.40Q1668.30 1026.34 1668.30 1042.91Q1668.30 1059.49 1689.97 1073.51L1689.97 1073.51Q1721.85 1097.74 1761.38 1128.34Q1800.90 1158.94 1834.05 1192.09L1834.05 1192.09Q1851.90 1209.94 1863.38 1209.94Z"/>
  </svg>