<svg xmlns="http://www.w3.org/2000/svg" viewBox="0 0 3000 3000" width="3000" height="3000">
    <path fill="#000000" d="M786.00 1512.75L786.00 1474.50L1422.22 1474.50L1422.22 1512.75L786.00 1512.75ZM1348.27 1019.33L1348.27 1019.33L1381.42 1051.20Q1313.85 1076.70 1219.50 1099.01Q1125.15 1121.33 1021.87 1140.45Q918.60 1159.58 821.70 1173.60L821.70 1173.60Q820.42 1167.22 815.96 1157.66Q811.50 1148.10 807.67 1140.45L807.67 1140.45Q903.30 1126.42 1005.30 1107.30Q1107.30 1088.17 1198.46 1065.86Q1289.62 1043.55 1348.27 1019.33ZM1097.10 1503.83L1130.25 1497.45Q1150.65 1642.80 1191.45 1765.20Q1232.25 1887.60 1297.27 1977.49Q1362.30 2067.38 1456.65 2114.55L1456.65 2114.55Q1452.82 2117.10 1447.72 2122.84Q1442.63 2128.58 1438.16 2133.68Q1433.70 2138.78 1429.88 2143.88L1429.88 2143.88Q1334.25 2091.60 1267.95 1999.16Q1201.65 1906.73 1160.21 1780.50Q1118.77 1654.28 1097.10 1503.83L1097.10 1503.83ZM1076.70 1382.70L1076.70 1116.22L1113.67 1116.22L1113.67 1382.70Q1113.67 1449 1108.57 1524.22Q1103.47 1599.45 1084.99 1679.78Q1066.50 1760.10 1026.97 1841.06Q987.45 1922.03 918.60 1999.16Q849.75 2076.30 743.92 2145.15L743.92 2145.15Q741.37 2141.33 736.27 2136.86Q731.17 2132.40 726.07 2127.30Q720.97 2122.20 715.87 2118.38L715.87 2118.38Q821.70 2053.35 888.64 1978.76Q955.57 1904.18 994.46 1825.13Q1033.35 1746.08 1050.56 1668.30Q1067.77 1590.53 1072.24 1517.85Q1076.70 1445.18 1076.70 1382.70L1076.70 1382.70ZM669.97 1095.83L392.02 1095.83L392.02 1378.88L669.97 1378.88L669.97 1095.83ZM353.77 1415.85L353.77 1058.85L706.95 1058.85L706.95 1415.85L353.77 1415.85ZM518.25 1987.05L518.25 1390.35L555.22 1390.35L555.22 1987.05L518.25 1987.05ZM361.42 2026.58L361.42 1566.30L398.40 1566.30L398.40 2026.58L361.42 2026.58ZM298.95 2069.93L287.47 2031.68Q343.57 2017.65 416.25 1998.53Q488.92 1979.40 571.16 1957.09Q653.40 1934.78 736.27 1913.10L736.27 1913.10L740.10 1950.08Q621.52 1981.95 504.22 2013.19Q386.92 2044.43 298.95 2069.93L298.95 2069.93ZM532.27 1673.40L532.27 1636.43L718.42 1636.43L718.42 1673.40L532.27 1673.40ZM1930.95 1278.15L1930.95 1241.17L2669.18 1241.17L2669.18 1278.15L1930.95 1278.15ZM2132.40 1494.90L2132.40 1016.78L2169.38 1016.78L2169.38 1494.90Q2169.38 1552.28 2162.36 1614.11Q2155.35 1675.95 2135.59 1736.51Q2115.82 1797.08 2076.30 1851.90Q2036.78 1906.73 1971.75 1952.63L1971.75 1952.63Q1970.47 1948.80 1966.01 1943.70Q1961.55 1938.60 1956.45 1932.86Q1951.35 1927.13 1946.25 1924.58L1946.25 1924.58Q2029.13 1865.93 2068.65 1794.53Q2108.18 1723.13 2120.29 1645.99Q2132.40 1568.85 2132.40 1494.90L2132.40 1494.90ZM1925.85 1594.35L1925.85 1557.38L2692.13 1557.38L2692.13 1594.35L1925.85 1594.35ZM1572.67 1456.65L1813.65 1456.65L1813.65 1934.78L1776.67 1934.78L1776.67 1494.90L1572.67 1494.90L1572.67 1456.65ZM1795.80 1914.38L1795.80 1914.38Q1827.67 1914.38 1853.17 1939.88Q1878.67 1965.38 1929.68 2002.35L1929.68 2002.35Q1989.60 2043.15 2066.74 2055.26Q2143.88 2067.38 2253.53 2067.38L2253.53 2067.38Q2316 2067.38 2378.48 2066.10Q2440.95 2064.83 2500.88 2062.28Q2560.80 2059.72 2614.99 2056.54Q2669.18 2053.35 2713.80 2049.53L2713.80 2049.53Q2711.25 2054.63 2708.70 2061.64Q2706.15 2068.65 2704.88 2075.66Q2703.60 2082.68 2702.32 2089.05L2702.32 2089.05Q2667.90 2090.33 2610.53 2092.88Q2553.15 2095.43 2486.21 2097.34Q2419.28 2099.25 2357.44 2100.53Q2295.60 2101.80 2253.53 2101.80L2253.53 2101.80Q2137.50 2101.80 2055.26 2087.14Q1973.03 2072.47 1910.55 2027.85L1910.55 2027.85Q1874.85 2001.08 1846.16 1973.66Q1817.47 1946.25 1795.80 1946.25L1795.80 1946.25Q1771.58 1946.25 1740.97 1967.29Q1710.38 1988.33 1673.40 2025.30Q1636.42 2062.28 1594.35 2112L1594.35 2112L1568.85 2083.95Q1633.88 2012.55 1691.25 1963.46Q1748.63 1914.38 1795.80 1914.38ZM1628.78 1046.10L1628.78 1046.10L1658.10 1026.97Q1695.08 1058.85 1732.05 1096.46Q1769.03 1134.08 1801.54 1171.05Q1834.05 1208.03 1854.45 1236.08L1854.45 1236.08L1823.85 1259.03Q1804.72 1229.70 1772.21 1192.72Q1739.70 1155.75 1702.72 1116.86Q1665.75 1077.97 1628.78 1046.10ZM2447.32 1959L2447.32 1014.22L2484.30 1014.22L2484.30 1959L2447.32 1959Z"/>
  </svg>