<svg xmlns="http://www.w3.org/2000/svg" viewBox="0 0 3000 3000" width="3000" height="3000">
    <path fill="#000000" d="M679.69 2326.17Q605.47 2326.17 605.47 2248.05L605.47 2248.05Q605.47 2185.55 707.03 2164.06L707.03 2164.06L707.03 1500Q707.03 1425.78 773.44 1425.78L773.44 1425.78Q839.84 1425.78 839.84 1500L839.84 1500L839.84 2132.81L896.48 2119.14L916.02 2113.28L923.83 2107.42L923.83 1304.69L847.66 1304.69Q773.44 1304.69 735.35 1264.65Q697.27 1224.61 697.27 1150.39L697.27 1150.39L697.27 833.98Q697.27 679.69 851.56 679.69L851.56 679.69L1068.36 679.69Q1222.66 679.69 1222.66 833.98L1222.66 833.98L1222.66 1150.39Q1222.66 1304.69 1066.41 1304.69L1066.41 1304.69L1066.41 1541.02L1154.30 1541.02Q1228.52 1541.02 1228.52 1615.23L1228.52 1615.23Q1228.52 1685.55 1154.30 1685.55L1154.30 1685.55L1066.41 1685.55L1066.41 2070.31L1134.77 2048.83Q1205.08 2025.39 1222.66 2025.39L1222.66 2025.39Q1287.11 2025.39 1287.11 2093.75L1287.11 2093.75Q1287.11 2130.86 1240.23 2156.25L1240.23 2156.25Q1195.31 2179.69 947.27 2253.91L947.27 2253.91Q707.03 2326.17 679.69 2326.17L679.69 2326.17ZM1271.48 1824.22Q1216.80 1824.22 1216.80 1759.77L1216.80 1759.77Q1216.80 1728.52 1281.25 1658.20L1281.25 1658.20Q1378.91 1554.69 1466.80 1386.72L1466.80 1386.72Q1492.19 1337.89 1539.06 1337.89L1539.06 1337.89Q1609.38 1337.89 1609.38 1392.58L1609.38 1392.58Q1609.38 1425.78 1511.72 1560.55L1511.72 1560.55L1447.27 1650.39Q1324.22 1824.22 1271.48 1824.22L1271.48 1824.22ZM1025.39 1164.06Q1082.03 1164.06 1082.03 1111.33L1082.03 1111.33L1082.03 873.05Q1082.03 820.31 1025.39 820.31L1025.39 820.31L890.63 820.31Q837.89 820.31 837.89 873.05L837.89 873.05L837.89 1111.33Q837.89 1164.06 890.63 1164.06L890.63 1164.06L1025.39 1164.06ZM1798.83 2263.67L1798.83 2091.80L1486.33 2091.80L1486.33 1974.61L1798.83 1974.61L1798.83 1861.33L1486.33 1861.33L1486.33 1744.14L1798.83 1744.14L1798.83 1587.89L1943.36 1587.89L1943.36 1744.14L2236.33 1744.14Q2308.59 1744.14 2308.59 1802.73L2308.59 1802.73Q2308.59 1861.33 2236.33 1861.33L2236.33 1861.33L1943.36 1861.33L1943.36 1974.61L2236.33 1974.61Q2308.59 1974.61 2308.59 2033.20L2308.59 2033.20Q2308.59 2091.80 2236.33 2091.80L2236.33 2091.80L1943.36 2091.80L1943.36 2263.67L1798.83 2263.67ZM1519.53 2347.66Q1371.09 2347.66 1371.09 2203.13L1371.09 2203.13L1371.09 1623.05L1457.03 1505.86L1765.63 1505.86L1808.59 1427.73Q1832.03 1384.77 1852.54 1363.28Q1873.05 1341.80 1898.44 1341.80L1898.44 1341.80Q1962.89 1341.80 1962.89 1398.44L1962.89 1398.44Q1962.89 1427.73 1906.25 1505.86L1906.25 1505.86L2259.77 1505.86Q2335.94 1505.86 2335.94 1568.36L2335.94 1568.36Q2335.94 1630.86 2259.77 1630.86L2259.77 1630.86L1564.45 1630.86Q1519.53 1630.86 1519.53 1675.78L1519.53 1675.78L1519.53 2171.88Q1519.53 2220.70 1568.36 2220.70L1568.36 2220.70L2298.83 2220.70Q2373.05 2220.70 2373.05 2283.20L2373.05 2283.20Q2373.05 2347.66 2298.83 2347.66L2298.83 2347.66L1519.53 2347.66ZM1314.45 1365.23Q1281.25 1367.19 1261.72 1349.61Q1242.19 1332.03 1242.19 1294.92L1242.19 1294.92Q1242.19 1257.81 1337.89 1208.98L1337.89 1208.98L1457.03 1148.44Q1517.58 1115.23 1537.11 1115.23L1537.11 1115.23Q1556.64 1115.23 1573.24 1129.88Q1589.84 1144.53 1591.80 1164.06L1591.80 1164.06Q1595.70 1197.27 1571.29 1221.68Q1546.88 1246.09 1462.89 1291.02L1462.89 1291.02L1427.73 1310.55Q1326.17 1365.23 1314.45 1365.23L1314.45 1365.23ZM1513.67 1064.45L1507.81 1064.45Q1486.33 1064.45 1457.03 1046.88L1457.03 1046.88L1382.81 1000Q1337.89 972.66 1318.36 953.13Q1298.83 933.59 1298.83 912.11L1298.83 912.11Q1298.83 859.38 1353.52 851.56L1353.52 851.56Q1378.91 847.66 1468.75 896.48L1468.75 896.48Q1529.30 929.69 1549.80 954.10Q1570.31 978.52 1570.31 1000L1570.31 1000Q1570.31 1027.34 1554.69 1043.95Q1539.06 1060.55 1513.67 1064.45L1513.67 1064.45ZM1701.17 1369.14Q1666.02 1369.14 1646.48 1349.61Q1626.95 1330.08 1626.95 1294.92L1626.95 1294.92L1626.95 869.14Q1626.95 841.80 1611.33 826.17Q1595.70 810.55 1568.36 810.55L1568.36 810.55L1330.08 810.55Q1255.86 810.55 1255.86 742.19L1255.86 742.19Q1255.86 675.78 1330.08 675.78L1330.08 675.78L1625 675.78Q1769.53 675.78 1769.53 822.27L1769.53 822.27L1769.53 1294.92Q1769.53 1332.03 1751.95 1350.59Q1734.38 1369.14 1701.17 1369.14L1701.17 1369.14ZM1867.19 1310.55Q1800.78 1310.55 1800.78 1242.19L1800.78 1242.19Q1800.78 1222.66 1816.41 1209.96Q1832.03 1197.27 1858.40 1185.55Q1884.77 1173.83 1896.48 1167.97L1896.48 1167.97L2062.50 1085.94L2080.08 1080.08Q2107.42 1080.08 2125 1097.66Q2142.58 1115.23 2142.58 1144.53L2142.58 1144.53Q2142.58 1179.69 2072.27 1216.80L2072.27 1216.80Q1902.34 1310.55 1867.19 1310.55L1867.19 1310.55ZM2052.73 1054.69L2046.88 1054.69Q2031.25 1054.69 1996.09 1035.16L1996.09 1035.16L1941.41 1000Q1884.77 964.84 1863.28 944.34Q1841.80 923.83 1841.80 906.25L1841.80 906.25Q1841.80 876.95 1857.42 862.30Q1873.05 847.66 1900.39 847.66L1900.39 847.66Q1947.27 847.66 2033.20 898.44L2033.20 898.44Q2117.19 947.27 2117.19 988.28L2117.19 988.28Q2117.19 1048.83 2052.73 1054.69L2052.73 1054.69ZM2251.95 1382.81Q2179.69 1382.81 2179.69 1304.69L2179.69 1304.69L2179.69 869.14Q2179.69 841.80 2164.06 826.17Q2148.44 810.55 2121.09 810.55L2121.09 810.55L1894.53 810.55Q1822.27 810.55 1822.27 742.19L1822.27 742.19Q1822.27 710.94 1840.82 693.36Q1859.38 675.78 1894.53 675.78L1894.53 675.78L2175.78 675.78Q2324.22 675.78 2324.22 824.22L2324.22 824.22L2324.22 1304.69Q2324.22 1382.81 2251.95 1382.81L2251.95 1382.81Z"/>
  </svg>