<svg xmlns="http://www.w3.org/2000/svg" viewBox="0 0 3000 3000" width="3000" height="3000">
    <path fill="#000000" d="M1380 1520L1380 1460L2378 1460L2378 1520L1380 1520ZM2262 746L2262 746L2314 796Q2208 836 2060 871Q1912 906 1750 936Q1588 966 1436 988L1436 988Q1434 978 1427 963Q1420 948 1414 936L1414 936Q1564 914 1724 884Q1884 854 2027 819Q2170 784 2262 746ZM1868 1506L1920 1496Q1952 1724 2016 1916Q2080 2108 2182 2249Q2284 2390 2432 2464L2432 2464Q2426 2468 2418 2477Q2410 2486 2403 2494Q2396 2502 2390 2510L2390 2510Q2240 2428 2136 2283Q2032 2138 1967 1940Q1902 1742 1868 1506L1868 1506ZM1836 1316L1836 898L1894 898L1894 1316Q1894 1420 1886 1538Q1878 1656 1849 1782Q1820 1908 1758 2035Q1696 2162 1588 2283Q1480 2404 1314 2512L1314 2512Q1310 2506 1302 2499Q1294 2492 1286 2484Q1278 2476 1270 2470L1270 2470Q1436 2368 1541 2251Q1646 2134 1707 2010Q1768 1886 1795 1764Q1822 1642 1829 1528Q1836 1414 1836 1316L1836 1316ZM1198 866L762 866L762 1310L1198 1310L1198 866ZM702 1368L702 808L1256 808L1256 1368L702 1368ZM960 2264L960 1328L1018 1328L1018 2264L960 2264ZM714 2326L714 1604L772 1604L772 2326L714 2326ZM616 2394L598 2334Q686 2312 800 2282Q914 2252 1043 2217Q1172 2182 1302 2148L1302 2148L1308 2206Q1122 2256 938 2305Q754 2354 616 2394L616 2394ZM982 1772L982 1714L1274 1714L1274 1772L982 1772Z"/>
  </svg>