<svg xmlns="http://www.w3.org/2000/svg" viewBox="0 0 3000 3000" width="3000" height="3000">
    <path fill="#000000" d="M638.10 1095.83L381.82 1095.83L381.82 1375.05L638.10 1375.05L638.10 1095.83ZM343.57 1412.03L343.57 1058.85L675.07 1058.85L675.07 1412.03L343.57 1412.03ZM495.30 1990.88L495.30 1389.08L532.27 1389.08L532.27 1990.88L495.30 1990.88ZM347.40 2030.40L347.40 1570.13L385.65 1570.13L385.65 2030.40L347.40 2030.40ZM301.50 2072.47L290.02 2034.23Q367.80 2012.55 476.17 1978.76Q584.55 1944.98 700.57 1909.28L700.57 1909.28L705.67 1946.25Q597.30 1979.40 490.84 2012.55Q384.37 2045.70 301.50 2072.47L301.50 2072.47ZM506.77 1669.58L506.77 1632.60L692.92 1632.60L692.92 1669.58L506.77 1669.58ZM826.80 1761.38L826.80 1723.13L1383.97 1723.13L1383.97 1761.38L826.80 1761.38ZM826.80 1920.75L826.80 1883.78L1383.97 1883.78L1383.97 1920.75L826.80 1920.75ZM830.62 2083.95L830.62 2046.98L1427.32 2046.98L1427.32 2083.95L830.62 2083.95ZM886.72 1434.97L886.72 1434.97L924.97 1446.45Q900.75 1505.10 866.32 1568.21Q831.90 1631.33 790.46 1690.61Q749.02 1749.90 704.40 1797.08L704.40 1797.08Q700.57 1794.53 694.84 1790.06Q689.10 1785.60 683.36 1781.78Q677.62 1777.95 672.52 1775.40L672.52 1775.40Q718.42 1729.50 759.22 1672.13Q800.02 1614.75 833.17 1552.91Q866.32 1491.08 886.72 1434.97ZM844.65 1565.03L845.92 1565.03L1413.30 1565.03L1413.30 1602L845.92 1602L845.92 2142.60L808.95 2142.60L808.95 1603.28L844.65 1565.03ZM1098.38 2067.38L1098.38 1576.50L1136.63 1576.50L1136.63 2067.38L1098.38 2067.38ZM1046.10 1454.10L1046.10 1454.10L1079.25 1442.63Q1100.92 1474.50 1121.32 1512.11Q1141.72 1549.72 1150.65 1576.50L1150.65 1576.50L1114.95 1591.80Q1106.02 1563.75 1086.90 1524.86Q1067.77 1485.97 1046.10 1454.10ZM780.90 1385.25L755.40 1355.93Q798.75 1334.25 856.76 1303.01Q914.77 1271.78 977.25 1238.63L977.25 1238.63L987.45 1267.95Q933.90 1299.83 880.99 1329.79Q828.07 1359.75 780.90 1385.25L780.90 1385.25ZM775.80 1136.63L775.80 1136.63L800.02 1116.22Q837.00 1132.80 878.44 1156.39Q919.87 1179.97 945.37 1197.83L945.37 1197.83L921.15 1220.78Q896.92 1202.92 855.49 1178.70Q814.05 1154.47 775.80 1136.63ZM1019.32 1378.88L1019.32 1029.53L1057.57 1029.53L1057.57 1378.88Q1057.57 1396.72 1052.47 1406.93Q1047.38 1417.13 1029.52 1423.50L1029.52 1423.50Q1012.95 1428.60 979.16 1429.88Q945.37 1431.15 890.55 1431.15L890.55 1431.15Q889.27 1423.50 884.81 1413.30Q880.35 1403.10 875.25 1395.45L875.25 1395.45Q923.70 1396.72 956.85 1396.72Q990.00 1396.72 1001.47 1395.45L1001.47 1395.45Q1012.95 1394.18 1016.14 1390.99Q1019.32 1387.80 1019.32 1378.88L1019.32 1378.88ZM745.20 1067.78L745.20 1029.53L1038.45 1029.53L1038.45 1067.78L745.20 1067.78ZM1135.35 1369.95L1108.57 1340.63Q1149.38 1321.50 1205.47 1290.90Q1261.57 1260.30 1322.77 1227.15L1322.77 1227.15L1331.70 1259.03Q1281.97 1287.08 1231.61 1315.76Q1181.25 1344.45 1135.35 1369.95L1135.35 1369.95ZM1139.17 1135.35L1139.17 1135.35L1162.13 1116.22Q1197.82 1134.08 1237.35 1158.94Q1276.87 1183.80 1301.10 1201.65L1301.10 1201.65L1276.87 1224.60Q1253.92 1206.75 1214.40 1180.61Q1174.88 1154.47 1139.17 1135.35ZM1357.20 1387.80L1357.20 1028.25L1394.17 1028.25L1394.17 1387.80Q1394.17 1406.93 1389.07 1417.13Q1383.97 1427.33 1366.13 1433.70L1366.13 1433.70Q1349.55 1438.80 1316.40 1440.08Q1283.25 1441.35 1227.15 1441.35L1227.15 1441.35Q1225.88 1432.43 1221.41 1422.86Q1216.95 1413.30 1211.85 1404.38L1211.85 1404.38Q1260.30 1405.65 1294.09 1405.65Q1327.88 1405.65 1338.07 1404.38L1338.07 1404.38Q1357.20 1404.38 1357.20 1387.80L1357.20 1387.80ZM1095.82 1066.50L1095.82 1028.25L1372.50 1028.25L1372.50 1066.50L1095.82 1066.50ZM2052.07 1215.67L2044.43 1215.67L2653.88 1215.67L2653.88 1253.92L2044.43 1253.92L2044.43 1905.45L2006.18 1905.45L2006.18 1265.40L2052.07 1215.67ZM2022.75 1466.85L2022.75 1429.88L2630.93 1429.88L2630.93 1466.85L2022.75 1466.85ZM2022.75 1683.60L2022.75 1645.35L2630.93 1645.35L2630.93 1683.60L2022.75 1683.60ZM2022.75 1905.45L2022.75 1868.48L2692.13 1868.48L2692.13 1905.45L2022.75 1905.45ZM2322.38 1887.60L2322.38 1234.80L2359.35 1234.80L2359.35 1887.60L2322.38 1887.60ZM2114.55 1004.03L2114.55 1004.03L2152.80 1014.22Q2119.65 1107.30 2076.30 1197.19Q2032.95 1287.08 1984.50 1366.76Q1936.05 1446.45 1883.78 1508.93L1883.78 1508.93Q1881.22 1505.10 1874.85 1500.64Q1868.47 1496.18 1862.10 1491.71Q1855.72 1487.25 1850.63 1484.70L1850.63 1484.70Q1929.68 1394.18 1998.53 1266.04Q2067.38 1137.90 2114.55 1004.03ZM2275.20 1026.97L2275.20 1026.97L2309.63 1015.50Q2342.78 1062.67 2374.65 1119.41Q2406.53 1176.15 2420.55 1214.40L2420.55 1214.40L2384.85 1229.70Q2369.55 1190.17 2338.31 1132.16Q2307.07 1074.15 2275.20 1026.97ZM1626.22 1015.50L1626.22 1015.50L1656.83 1000.20Q1684.88 1032.07 1714.84 1068.41Q1744.80 1104.75 1771.58 1138.54Q1798.35 1172.33 1813.65 1199.10L1813.65 1199.10L1783.05 1218.22Q1766.47 1191.45 1739.70 1156.39Q1712.92 1121.33 1683.60 1083.71Q1654.28 1046.10 1626.22 1015.50ZM1566.30 1326.60L1566.30 1288.35L1854.45 1288.35L1854.45 1326.60L1566.30 1326.60ZM1735.88 1922.03L1762.65 1902.90Q1807.28 1984.50 1882.50 2024.66Q1957.72 2064.83 2064.82 2077.58Q2171.93 2090.33 2309.63 2090.33L2309.63 2090.33Q2375.93 2090.33 2449.24 2089.05Q2522.55 2087.78 2593.31 2084.59Q2664.07 2081.40 2721.45 2077.58L2721.45 2077.58Q2717.63 2082.68 2714.44 2090.33Q2711.25 2097.97 2709.34 2105.63Q2707.43 2113.28 2706.15 2119.65L2706.15 2119.65Q2653.88 2122.20 2586.30 2124.75Q2518.73 2127.30 2447.96 2127.94Q2377.20 2128.58 2310.90 2128.58L2310.90 2128.58Q2198.70 2128.58 2108.18 2120.93Q2017.65 2113.28 1947.53 2091.60Q1877.40 2069.93 1825.13 2029.13Q1772.85 1988.33 1735.88 1922.03L1735.88 1922.03ZM1827.67 1624.95L1827.67 1614.75L1836.60 1614.75L1845.53 1613.47L1867.20 1622.40Q1834.05 1818.75 1757.55 1948.80Q1681.05 2078.85 1579.05 2150.25L1579.05 2150.25Q1576.50 2145.15 1570.76 2139.41Q1565.03 2133.68 1559.92 2128.58Q1554.83 2123.47 1549.72 2120.93L1549.72 2120.93Q1650.45 2053.35 1724.40 1929.68Q1798.35 1806 1827.67 1624.95L1827.67 1624.95ZM1577.78 1668.30L1577.78 1668.30L1577.78 1631.33L1614.75 1614.75L1848.08 1614.75L1848.08 1651.72L1651.72 1651.72Q1624.95 1651.72 1604.55 1656.83Q1584.15 1661.93 1577.78 1668.30ZM1577.78 1668.30L1577.78 1668.30Q1576.50 1661.93 1572.04 1653Q1567.58 1644.08 1563.75 1634.51Q1559.92 1624.95 1556.10 1619.85L1556.10 1619.85Q1568.85 1616.03 1583.51 1608.38Q1598.17 1600.72 1613.47 1582.88L1613.47 1582.88Q1630.05 1567.58 1660.01 1529.96Q1689.97 1492.35 1724.40 1447.09Q1758.83 1401.83 1788.79 1359.75Q1818.75 1317.68 1835.33 1293.45L1835.33 1293.45L1835.33 1290.90L1854.45 1281.97L1887.60 1299.83Q1863.38 1331.70 1829.59 1376.33Q1795.80 1420.95 1758.19 1468.13Q1720.58 1515.30 1684.88 1558.65Q1649.17 1602 1619.85 1632.60L1619.85 1632.60Q1619.85 1632.60 1613.47 1635.79Q1607.10 1638.97 1598.81 1644.71Q1590.53 1650.45 1584.15 1656.19Q1577.78 1661.93 1577.78 1668.30Z"/>
  </svg>