<svg xmlns="http://www.w3.org/2000/svg" viewBox="0 0 3000 3000" width="3000" height="3000">
    <path fill="#000000" d="M1530 2043L1804 2033L1802 2165L1528 2173L1530 2043ZM1530 1827L1806 1813L1806 1917L1530 1929L1530 1827ZM1532 1609L1810 1593L1808 1699L1530 1713L1532 1609ZM1528 2403L1528 2295L2406 2267Q2454 2261 2454 2231L2454 2231Q2454 2211 2436 2190Q2418 2169 2396 2153Q2374 2137 2356 2137L2356 2137Q2346 2137 2340 2139L2340 2139Q2324 2145 2306 2149Q2288 2153 2268 2153L2268 2153L1938 2163L1940 2029L2258 2017Q2272 2015 2287 2007Q2302 1999 2302 1979L2302 1979Q2302 1957 2282 1938Q2262 1919 2239 1906Q2216 1893 2204 1893Q2192 1893 2186 1895L2186 1895Q2174 1899 2154 1901Q2134 1903 2116 1907L2116 1907L1940 1913L1942 1809L2252 1795Q2266 1793 2281 1785Q2296 1777 2296 1757L2296 1757Q2296 1735 2276 1716Q2256 1697 2233 1684Q2210 1671 2198 1671Q2186 1671 2180 1673L2180 1673Q2168 1677 2148 1679Q2128 1681 2110 1685L2110 1685L1942 1693L1944 1587L2318 1569Q2336 1567 2351 1560Q2366 1553 2366 1533L2366 1533Q2366 1515 2347 1495Q2328 1475 2306 1458Q2284 1441 2268 1441L2268 1441Q2260 1441 2246 1445L2246 1445Q2228 1453 2213 1455Q2198 1457 2178 1459L2178 1459L1968 1469L1978 1457Q1998 1435 2014 1410Q2030 1385 2030 1369L2030 1369Q2030 1349 2006 1329Q1982 1309 1956 1294Q1930 1279 1912 1279L1912 1279Q1882 1279 1882 1323L1882 1323L1882 1337Q1882 1343 1873 1375Q1864 1407 1814 1477L1814 1477L1608 1489Q1614 1483 1642 1442Q1670 1401 1670 1385L1670 1385Q1670 1357 1641 1335Q1612 1313 1583 1299Q1554 1285 1546 1285L1546 1285Q1514 1285 1514 1331L1514 1331Q1514 1367 1496 1397L1496 1397Q1460 1459 1408 1530Q1356 1601 1299 1670Q1242 1739 1186 1797L1186 1797Q1152 1831 1152 1853Q1152 1875 1176 1875Q1200 1875 1241 1848Q1282 1821 1329 1781Q1376 1741 1398 1721L1398 1721L1390 2221Q1390 2293 1378 2355L1378 2355Q1376 2363 1376 2370Q1376 2377 1376 2381L1376 2381Q1376 2415 1399 2434Q1422 2453 1448 2459Q1474 2465 1484 2465L1484 2465Q1506 2465 1517 2450Q1528 2435 1528 2403L1528 2403ZM824 947L1106 925L1080 1197L846 1215L824 947ZM858 1333L920 1327L916 2069Q898 2073 874 2080Q850 2087 838 2089L838 2089L834 1547Q834 1515 807 1497Q780 1479 751 1472Q722 1465 702 1465L702 1465Q664 1465 664 1493L664 1493Q664 1507 676 1525L676 1525Q686 1541 692 1560Q698 1579 698 1599L698 1599L708 2121L692 2125Q664 2133 635 2137Q606 2141 576 2141L576 2141Q542 2141 542 2165L542 2165Q542 2183 562 2211Q582 2239 612 2262Q642 2285 672 2285L672 2285Q686 2285 737 2268Q788 2251 859 2223Q930 2195 1010 2161Q1090 2127 1164 2093Q1238 2059 1290 2033Q1342 2007 1342 1977L1342 1977Q1342 1951 1304 1951L1304 1951Q1284 1951 1260 1959L1260 1959Q1208 1979 1151 1997Q1094 2015 1052 2029L1052 2029L1056 1661L1232 1651Q1250 1649 1266 1641Q1282 1633 1282 1613Q1282 1593 1252 1558Q1222 1523 1180 1523L1180 1523Q1166 1523 1158 1525L1158 1525Q1130 1533 1096 1537L1096 1537L1056 1541L1058 1319L1192 1309Q1216 1307 1238 1303Q1260 1299 1260 1275L1260 1275Q1260 1261 1249 1241Q1238 1221 1214 1199L1214 1199L1254 917Q1256 909 1262 900Q1268 891 1268 875L1268 875Q1268 847 1237 824Q1206 801 1168 801L1168 801L1148 801L814 831Q764 809 730 799Q696 789 678 789L678 789Q644 789 644 817L644 817Q644 827 649 838Q654 849 660 861L660 861Q668 875 676 901Q684 927 686 953L686 953L714 1225Q716 1235 716 1243Q716 1251 716 1261L716 1261Q716 1275 716 1287Q716 1299 714 1313L714 1313L714 1327Q714 1359 736 1377Q758 1395 783 1404Q808 1413 818 1413L818 1413Q860 1413 860 1365L860 1365L860 1357L858 1333ZM1656 957L1656 957L1654 1017Q1556 1099 1480 1156Q1404 1213 1322 1259L1322 1259Q1264 1289 1264 1321L1264 1321Q1264 1345 1296 1345L1296 1345Q1322 1345 1387 1316Q1452 1287 1528 1246Q1604 1205 1648 1179L1648 1179L1644 1195Q1642 1217 1636 1239L1636 1239Q1634 1253 1631 1262Q1628 1271 1628 1283L1628 1283Q1628 1321 1674 1345L1674 1345Q1706 1365 1728 1365L1728 1365Q1766 1365 1770 1307L1770 1307L1788 833Q1790 819 1794 805Q1798 791 1798 775L1798 775Q1798 753 1778 729Q1758 705 1718 705L1718 705L1706 705L1396 725Q1388 725 1380 726Q1372 727 1364 727L1364 727Q1330 727 1306 719L1306 719Q1298 717 1288 717L1288 717Q1264 717 1264 739L1264 739Q1264 745 1275 772Q1286 799 1313 825Q1340 851 1382 851L1382 851Q1394 851 1409 850Q1424 849 1442 847L1442 847L1622 833Q1552 887 1474 939Q1396 991 1320 1031L1320 1031Q1256 1061 1256 1093L1256 1093Q1256 1117 1290 1117L1290 1117Q1322 1117 1384 1093Q1446 1069 1524 1030Q1602 991 1656 957ZM2184 1135L2184 1135L2182 1161Q2180 1207 2168 1247L2168 1247Q2162 1273 2162 1291L2162 1291Q2162 1327 2206 1355L2206 1355Q2244 1375 2260 1375L2260 1375Q2298 1375 2302 1317L2302 1317L2320 803Q2322 789 2326 776Q2330 763 2330 747L2330 747Q2330 703 2298 689Q2266 675 2252 675L2252 675L2238 675L1922 695L1900 695Q1882 695 1865 693Q1848 691 1832 687L1832 687Q1824 685 1814 685L1814 685Q1790 685 1790 707L1790 707Q1790 711 1798 740Q1806 769 1850 807L1850 807Q1868 821 1910 821L1910 821Q1922 821 1936 821Q1950 821 1968 819L1968 819L2138 805Q2086 843 2008 893Q1930 943 1854 983L1854 983Q1794 1013 1794 1039L1794 1039Q1794 1063 1828 1063L1828 1063Q1856 1063 1915 1045Q1974 1027 2052 992Q2130 957 2190 923L2190 923L2188 983Q2098 1053 2020 1104Q1942 1155 1864 1197L1864 1197Q1836 1211 1823 1226Q1810 1241 1810 1253L1810 1253Q1810 1277 1842 1277L1842 1277Q1866 1277 1922 1257Q1978 1237 2052 1202Q2126 1167 2184 1135Z"/>
  </svg>