<svg xmlns="http://www.w3.org/2000/svg" viewBox="0 0 3000 3000" width="3000" height="3000">
    <path fill="#000000" d="M391.85 2070.26Q340.80 2070.26 340.80 2006.76L340.80 2006.76L340.80 1656.88Q340.80 1592.14 371.92 1562.88Q403.05 1533.62 469.04 1536.11L469.04 1536.11L1254.71 1536.11Q1323.19 1536.11 1354.94 1565.37Q1386.69 1594.63 1384.20 1656.88L1384.20 1656.88L1384.20 1942.02Q1384.20 2003.03 1346.85 2036.65L1346.85 2036.65Q1313.23 2067.77 1260.94 2065.28L1260.94 2065.28L1170.04 2065.28Q1116.50 2065.28 1116.50 2014.23L1116.50 2014.23Q1116.50 1963.18 1170.04 1963.18L1170.04 1963.18L1237.28 1963.18Q1277.12 1963.18 1279.61 1919.60L1279.61 1919.60L1279.61 1675.56Q1279.61 1625.76 1229.81 1624.51L1229.81 1624.51L493.95 1624.51Q446.63 1624.51 444.14 1675.56L444.14 1675.56L444.14 2006.76Q444.14 2070.26 391.85 2070.26L391.85 2070.26ZM667.02 1960.69Q614.72 1960.69 591.69 1937.66Q568.65 1914.62 571.14 1863.57L571.14 1863.57L571.14 1782.64Q571.14 1730.35 593.55 1706.69Q615.97 1683.03 667.02 1685.52L667.02 1685.52L1050.51 1685.52Q1102.81 1685.52 1126.46 1708.56Q1150.12 1731.59 1147.63 1782.64L1147.63 1782.64L1147.63 1863.57Q1147.63 1917.11 1124.60 1940.77Q1101.56 1964.43 1050.51 1960.69L1050.51 1960.69L667.02 1960.69ZM1009.42 1876.03Q1044.29 1876.03 1046.78 1839.92L1046.78 1839.92L1046.78 1805.05Q1046.78 1772.68 1009.42 1770.19L1009.42 1770.19L708.11 1770.19Q673.24 1770.19 672.00 1805.05L672.00 1805.05L672.00 1839.92Q672.00 1856.10 681.34 1865.44Q690.67 1874.78 708.11 1876.03L708.11 1876.03L1009.42 1876.03ZM586.08 1470.12Q530.05 1470.12 505.15 1446.46Q480.25 1422.80 482.74 1370.51L482.74 1370.51L482.74 1303.27Q482.74 1248.49 507.02 1224.21Q531.30 1199.93 586.08 1203.66L586.08 1203.66L1140.16 1203.66Q1194.95 1203.66 1219.85 1227.32Q1244.75 1250.98 1241.02 1303.27L1241.02 1303.27L1241.02 1370.51Q1241.02 1424.05 1216.74 1448.95Q1192.46 1473.85 1140.16 1470.12L1140.16 1470.12L586.08 1470.12ZM1104.05 1382.96Q1122.73 1382.96 1131.45 1372.38Q1140.16 1361.79 1140.16 1336.89L1140.16 1336.89Q1140.16 1311.99 1131.45 1302.03Q1122.73 1292.07 1104.05 1290.82L1104.05 1290.82L620.95 1290.82Q602.27 1290.82 593.55 1302.65Q584.84 1314.48 584.84 1340.63L584.84 1340.63Q584.84 1363.04 594.18 1372.38Q603.52 1381.71 620.95 1382.96L620.95 1382.96L1104.05 1382.96ZM347.02 1136.43Q293.48 1136.43 293.48 1092.85L293.48 1092.85Q293.48 1046.78 347.02 1046.78L347.02 1046.78L800.24 1046.78L800.24 991.99Q800.24 932.23 860.01 932.23L860.01 932.23Q917.29 932.23 917.29 991.99L917.29 991.99L917.29 1046.78L1376.73 1046.78Q1431.52 1046.78 1431.52 1092.85L1431.52 1092.85Q1431.52 1136.43 1376.73 1136.43L1376.73 1136.43L347.02 1136.43ZM2408.94 2061.55Q2354.15 2061.55 2354.15 1995.56L2354.15 1995.56L2354.15 1503.74L1990.58 1503.74Q1983.11 1702.95 1918.36 1823.73L1918.36 1823.73Q1852.37 1945.75 1717.90 2020.46L1717.90 2020.46Q1664.36 2050.34 1644.43 2050.34L1644.43 2050.34Q1590.89 2050.34 1590.89 1991.82L1590.89 1991.82Q1590.89 1959.45 1631.98 1938.28L1631.98 1938.28Q1828.71 1834.94 1867.31 1680.54L1867.31 1680.54Q1882.25 1623.27 1888.48 1503.74L1888.48 1503.74L1634.47 1503.74Q1570.97 1503.74 1570.97 1452.69L1570.97 1452.69Q1570.97 1401.64 1634.47 1401.64L1634.47 1401.64L1889.72 1401.64L1889.72 1122.73Q1721.63 1155.10 1681.79 1155.10L1681.79 1155.10Q1629.49 1155.10 1629.49 1105.30L1629.49 1105.30Q1629.49 1086.62 1639.45 1074.79Q1649.41 1062.96 1665.60 1060.47L1665.60 1060.47Q1991.82 1019.38 2117.58 959.62L2117.58 959.62Q2143.73 947.17 2167.38 947.17L2167.38 947.17Q2188.55 947.17 2201.00 961.49Q2213.45 975.81 2210.96 999.46L2210.96 999.46Q2208.47 1024.37 2154.93 1047.40Q2101.39 1070.43 1991.82 1096.58L1991.82 1096.58L1991.82 1401.64L2354.15 1401.64L2354.15 1006.93Q2354.15 938.45 2408.94 938.45L2408.94 938.45Q2463.72 938.45 2463.72 1006.93L2463.72 1006.93L2463.72 1401.64L2639.28 1401.64Q2704.03 1401.64 2704.03 1453.93L2704.03 1453.93Q2704.03 1503.74 2639.28 1503.74L2639.28 1503.74L2463.72 1503.74L2463.72 1995.56Q2463.72 2061.55 2408.94 2061.55L2408.94 2061.55Z"/>
  </svg>