<svg xmlns="http://www.w3.org/2000/svg" viewBox="0 0 3000 3000" width="3000" height="3000">
    <path fill="#000000" d="M1092 1520L1092 958L1152 958L1152 1520Q1152 1660 1135 1795Q1118 1930 1067 2058Q1016 2186 914 2302Q812 2418 640 2518L640 2518Q636 2510 629 2503Q622 2496 614 2488Q606 2480 598 2476L598 2476Q766 2378 865 2266Q964 2154 1013 2032Q1062 1910 1077 1781Q1092 1652 1092 1520L1092 1520ZM1866 2514L1866 758L1926 758L1926 2514L1866 2514ZM618 1592L618 1532L2384 1532L2384 1592L618 1592ZM1528 762L1528 762L1584 806Q1476 866 1323 921Q1170 976 1000 1023Q830 1070 666 1108L666 1108Q664 1098 657 1084Q650 1070 642 1060L642 1060Q802 1022 971 975Q1140 928 1288 874Q1436 820 1528 762Z"/>
  </svg>