<svg xmlns="http://www.w3.org/2000/svg" viewBox="0 0 3000 3000" width="3000" height="3000">
    <path fill="#000000" d="M1642 1677L1642 1677L1640 2225Q1612 2215 1564 2198Q1516 2181 1470 2155L1470 2155Q1430 2135 1410 2135L1410 2135Q1382 2135 1382 2159L1382 2159Q1382 2181 1421 2221Q1460 2261 1512 2303Q1564 2345 1613 2376Q1662 2407 1686 2407L1686 2407Q1712 2407 1747 2378Q1782 2349 1782 2299L1782 2299Q1782 2285 1780 2271Q1778 2257 1778 2239L1778 2239L1778 1993Q1784 1997 1796 1997L1796 1997Q1816 1997 1877 1958Q1938 1919 2021 1839Q2104 1759 2166 1667L2166 1667L2162 2241Q2142 2235 2091 2213Q2040 2191 1990 2165L1990 2165Q1950 2141 1922 2141L1922 2141Q1896 2141 1896 2163L1896 2163Q1896 2187 1936 2229Q1976 2271 2030 2314Q2084 2357 2134 2388Q2184 2419 2208 2419L2208 2419Q2230 2419 2266 2390Q2302 2361 2302 2313L2302 2313Q2302 2301 2300 2286Q2298 2271 2298 2255L2298 2255L2306 879Q2306 869 2310 858Q2314 847 2314 833L2314 833Q2314 821 2307 806Q2300 791 2282 775L2282 775Q2254 757 2224 757L2224 757L2210 757L1946 779L1924 779Q1890 779 1856 773L1856 773Q1850 771 1833 771Q1816 771 1816 791L1816 791Q1816 795 1830 831Q1844 867 1874 895L1874 895Q1888 913 1924 913L1924 913Q1934 913 1945 913Q1956 913 1972 911L1972 911L2170 895L2170 907Q2098 1035 2010 1147Q1922 1259 1838 1347L1838 1347Q1790 1395 1790 1419L1790 1419Q1790 1441 1814 1441L1814 1441Q1840 1441 1905 1396Q1970 1351 2048 1275Q2126 1199 2168 1139L2168 1139L2166 1435Q2086 1573 1994 1693Q1902 1813 1822 1899L1822 1899Q1790 1931 1778 1953L1778 1953L1782 913Q1782 901 1785 890Q1788 879 1788 867L1788 867Q1788 833 1761 813Q1734 793 1706 793L1706 793L1688 793L1422 815L1400 815Q1366 815 1332 809L1332 809Q1326 807 1308 807L1308 807Q1306 807 1304 807L1304 807Q1314 783 1314 773L1314 773Q1314 739 1284 715Q1254 691 1223 677Q1192 663 1182 663L1182 663Q1150 663 1150 709L1150 709L1150 719Q1150 731 1139 771Q1128 811 1096 888Q1064 965 996 1081L996 1081L770 1097L758 1097Q738 1097 718 1095Q698 1093 680 1091L680 1091L668 1091Q644 1091 644 1111L644 1111Q644 1125 654 1150Q664 1175 683 1198Q702 1221 728 1225L728 1225L748 1225Q758 1225 772 1225Q786 1225 802 1223L802 1223L948 1211L948 1363L816 1375Q810 1375 802 1376Q794 1377 786 1377L786 1377Q756 1377 726 1371L726 1371Q722 1371 719 1370Q716 1369 710 1369L710 1369Q690 1369 690 1389L690 1389Q690 1419 723 1461Q756 1503 818 1503L818 1503Q822 1503 829 1502Q836 1501 842 1501L842 1501L944 1493Q942 1537 939 1592Q936 1647 932 1689L932 1689Q816 1719 724 1741Q632 1763 598 1763L598 1763Q594 1763 588 1762Q582 1761 578 1761L578 1761L572 1761Q552 1761 552 1781L552 1781Q552 1797 566 1825Q580 1853 606 1875Q632 1897 668 1897L668 1897Q688 1897 709 1893Q730 1889 778 1873Q826 1857 908 1829L908 1829Q880 1971 811 2091Q742 2211 614 2335L614 2335Q586 2363 586 2385Q586 2407 610 2407Q634 2407 656 2391L656 2391Q840 2269 931 2116Q1022 1963 1054 1775L1054 1775Q1172 1733 1246 1701Q1320 1669 1357 1650Q1394 1631 1407 1617Q1420 1603 1420 1593L1420 1593Q1420 1569 1380 1569L1380 1569Q1360 1569 1322 1579L1322 1579Q1262 1597 1193 1616Q1124 1635 1072 1651L1072 1651Q1074 1625 1078 1575Q1082 1525 1084 1485L1084 1485L1256 1471Q1294 1469 1306 1451L1306 1451Q1310 1467 1330 1467L1330 1467Q1358 1467 1448 1397Q1538 1327 1644 1181L1644 1181L1642 1445Q1532 1621 1418 1754Q1304 1887 1212 1973L1212 1973Q1166 2013 1166 2043L1166 2043Q1166 2065 1190 2065L1190 2065Q1208 2065 1234 2051L1234 2051Q1272 2037 1345 1979Q1418 1921 1505 1835Q1592 1749 1642 1677ZM1002 1007L1002 1007Q1002 987 973 943Q944 899 906 848Q868 797 832 759Q796 721 778 721L778 721Q756 721 730 744Q704 767 704 789L704 789Q704 807 724 833L724 833Q756 871 795 928Q834 985 860 1037L860 1037Q884 1083 912 1083L912 1083Q932 1083 967 1060Q1002 1037 1002 1007ZM1314 1421L1314 1421Q1310 1395 1274 1369L1274 1369Q1226 1335 1200 1335L1200 1335Q1192 1335 1186 1339L1186 1339Q1158 1349 1116 1351L1116 1351L1088 1353L1092 1203L1312 1187Q1322 1187 1328 1185L1328 1185Q1366 1177 1366 1147L1366 1147Q1366 1127 1345 1105Q1324 1083 1300 1068Q1276 1053 1260 1053L1260 1053Q1248 1053 1242 1055L1242 1055Q1212 1065 1174 1069L1174 1069L1140 1071Q1170 1031 1213 964Q1256 897 1284 843L1284 843Q1288 837 1292 831L1292 831Q1294 841 1304 867L1304 867Q1316 899 1350 931L1350 931Q1366 951 1414 951L1414 951Q1422 951 1433 951Q1444 951 1454 949L1454 949L1644 933L1644 945Q1484 1221 1348 1373L1348 1373Q1324 1401 1314 1421Z"/>
  </svg>