<svg xmlns="http://www.w3.org/2000/svg" viewBox="0 0 3000 3000" width="3000" height="3000">
    <path fill="#000000" d="M1304 878L1304 820L1746 820L1746 878L1304 878ZM1712 2386L1712 820L1770 820L1770 2384Q1770 2428 1756 2449Q1742 2470 1710 2478L1710 2478Q1678 2486 1611 2488Q1544 2490 1434 2490L1434 2490Q1430 2478 1423 2459Q1416 2440 1408 2426L1408 2426Q1502 2428 1575 2429Q1648 2430 1670 2428L1670 2428Q1692 2426 1702 2417Q1712 2408 1712 2386L1712 2386ZM1854 878L1854 820L2306 820L2306 878L1854 878ZM2276 2394L2276 820L2334 820L2334 2392Q2334 2436 2321 2457Q2308 2478 2274 2488L2274 2488Q2242 2496 2172 2498Q2102 2500 1990 2500L1990 2500Q1986 2486 1979 2468Q1972 2450 1964 2436L1964 2436Q2062 2438 2136 2438Q2210 2438 2234 2436L2234 2436Q2276 2434 2276 2394L2276 2394ZM590 1164L590 1106L1288 1106L1288 1164L590 1164ZM622 1548L622 1490L1276 1490L1276 1548L622 1548ZM662 744L662 744L720 730Q754 804 786 888Q818 972 834 1034L834 1034L770 1054Q756 992 724 905Q692 818 662 744ZM1186 714L1186 714L1250 736Q1206 834 1152 949Q1098 1064 1048 1144L1048 1144L996 1126Q1028 1072 1064 999Q1100 926 1133 850Q1166 774 1186 714ZM920 1684L920 1122L978 1122L978 1684Q978 1782 968 1894Q958 2006 922 2119Q886 2232 811 2335Q736 2438 606 2518L606 2518Q602 2510 595 2502Q588 2494 582 2486Q576 2478 570 2472L570 2472Q694 2400 765 2303Q836 2206 869 2098Q902 1990 911 1883Q920 1776 920 1684L920 1684ZM576 1960L576 1902L1274 1902L1274 1960L576 1960ZM1322 1164L1322 1164L1366 1138Q1410 1192 1453 1255Q1496 1318 1532 1378Q1568 1438 1588 1482L1588 1482L1544 1516Q1522 1470 1486 1409Q1450 1348 1407 1283Q1364 1218 1322 1164ZM1256 2174L1216 2130Q1292 2062 1401 1959Q1510 1856 1622 1746L1622 1746L1648 1794Q1548 1892 1446 1992Q1344 2092 1256 2174L1256 2174ZM1878 1168L1878 1168L1924 1142Q1966 1196 2008 1258Q2050 1320 2085 1378Q2120 1436 2140 1480L2140 1480L2094 1514Q2074 1468 2039 1408Q2004 1348 1962 1285Q1920 1222 1878 1168ZM1846 2124L1806 2084Q1876 2020 1977 1925Q2078 1830 2182 1726L2182 1726L2208 1776Q2116 1868 2022 1958Q1928 2048 1846 2124L1846 2124Z"/>
  </svg>