<svg xmlns="http://www.w3.org/2000/svg" viewBox="0 0 3000 3000" width="3000" height="3000">
    <path fill="#000000" d="M832.62 2066.53Q807.71 2066.53 795.89 2053.45Q784.06 2040.38 784.06 2011.74L784.06 2011.74L784.06 1554.79L594.80 1554.79Q593.55 1712.92 563.67 1818.75L563.67 1818.75Q536.28 1915.87 460.33 1993.07L460.33 1993.07Q425.46 2027.93 394.96 2045.98Q364.45 2064.04 340.80 2064.04L340.80 2064.04Q317.14 2064.04 305.93 2051.59Q294.73 2039.14 294.73 2012.99L294.73 2012.99Q294.73 1984.35 334.57 1961.94L334.57 1961.94Q475.27 1879.76 495.19 1686.77L495.19 1686.77L503.91 1554.79L360.72 1554.79Q303.44 1554.79 303.44 1508.72L303.44 1508.72Q303.44 1461.40 360.72 1461.40L360.72 1461.40L505.15 1461.40L505.15 1302.03Q381.88 1323.19 350.76 1323.19L350.76 1323.19Q302.20 1323.19 302.20 1277.12L302.20 1277.12Q302.20 1237.28 358.23 1232.30L358.23 1232.30Q518.85 1218.60 655.81 1173.78L655.81 1173.78L683.20 1168.80Q705.62 1165.06 717.44 1177.51Q729.27 1189.97 729.27 1214.87L729.27 1214.87Q729.27 1248.49 597.29 1282.10L597.29 1282.10L596.04 1461.40L784.06 1461.40L784.06 1177.51Q784.06 1148.88 795.89 1135.80Q807.71 1122.73 832.62 1122.73L832.62 1122.73Q857.52 1122.73 869.35 1135.80Q881.18 1148.88 881.18 1177.51L881.18 1177.51L881.18 1461.40L1025.61 1461.40Q1077.91 1461.40 1101.56 1489.42Q1125.22 1517.43 1126.46 1578.44L1126.46 1578.44Q1130.20 1749.02 1181.25 1853.61L1181.25 1853.61Q1232.30 1954.47 1287.08 1954.47L1287.08 1954.47Q1323.19 1954.47 1326.93 1871.04L1326.93 1871.04Q1328.17 1817.50 1379.22 1817.50L1379.22 1817.50Q1429.03 1817.50 1429.03 1866.06L1429.03 1866.06Q1429.03 1948.24 1395.41 2005.52L1395.41 2005.52Q1364.28 2061.55 1303.27 2061.55L1303.27 2061.55Q1201.17 2061.55 1117.75 1937.04L1117.75 1937.04Q1033.08 1811.28 1031.84 1612.06L1031.84 1612.06Q1031.84 1556.03 991.99 1554.79L991.99 1554.79L881.18 1554.79L881.18 2011.74Q881.18 2040.38 869.35 2053.45Q857.52 2066.53 832.62 2066.53L832.62 2066.53ZM1310.74 1803.81Q1288.33 1803.81 1265.92 1778.91L1265.92 1778.91L1228.56 1746.53Q1189.97 1711.67 1189.97 1697.97L1189.97 1697.97Q1189.97 1658.13 1234.79 1658.13L1234.79 1658.13Q1255.96 1658.13 1307.01 1697.97L1307.01 1697.97Q1356.81 1736.57 1356.81 1760.23L1356.81 1760.23Q1356.81 1803.81 1310.74 1803.81L1310.74 1803.81ZM1314.48 1497.51Q1208.64 1497.51 1127.71 1390.43L1127.71 1390.43Q1044.29 1279.61 1031.84 1133.94L1031.84 1133.94Q1029.35 1107.79 1019.38 1095.34Q1009.42 1082.89 988.26 1082.89L988.26 1082.89L401.81 1082.89Q344.53 1082.89 344.53 1035.57L344.53 1035.57Q344.53 988.26 401.81 988.26L401.81 988.26L1023.12 988.26Q1071.68 988.26 1094.71 1011.29Q1117.75 1034.33 1118.99 1087.87L1118.99 1087.87Q1125.22 1223.58 1182.50 1313.23L1182.50 1313.23Q1237.28 1399.15 1300.78 1399.15L1300.78 1399.15Q1319.46 1399.15 1329.42 1382.34Q1339.38 1365.53 1339.38 1334.40L1339.38 1334.40Q1339.38 1309.50 1349.96 1298.91Q1360.55 1288.33 1384.20 1288.33L1384.20 1288.33Q1427.78 1288.33 1427.78 1334.40L1427.78 1334.40Q1427.78 1397.90 1397.90 1450.20L1397.90 1450.20Q1370.51 1497.51 1314.48 1497.51L1314.48 1497.51ZM1194.95 1644.43Q1155.10 1644.43 1155.10 1603.34L1155.10 1603.34Q1155.10 1585.91 1178.76 1563.50L1178.76 1563.50L1211.13 1529.88Q1237.28 1501.25 1255.96 1501.25L1255.96 1501.25Q1298.29 1501.25 1298.29 1542.33L1298.29 1542.33Q1298.29 1564.75 1259.69 1603.34L1259.69 1603.34Q1218.60 1644.43 1194.95 1644.43L1194.95 1644.43ZM1309.50 1289.58Q1293.31 1289.58 1267.16 1267.16L1267.16 1267.16L1224.83 1238.53Q1202.42 1222.34 1191.83 1211.76Q1181.25 1201.17 1181.25 1189.97L1181.25 1189.97Q1181.25 1148.88 1227.32 1148.88L1227.32 1148.88Q1252.22 1148.88 1331.91 1203.66L1331.91 1203.66Q1355.57 1219.85 1355.57 1241.02L1355.57 1241.02Q1355.57 1289.58 1309.50 1289.58L1309.50 1289.58ZM1197.44 1123.97Q1153.86 1123.97 1153.86 1081.64L1153.86 1081.64Q1153.86 1062.96 1189.97 1033.08L1189.97 1033.08L1227.32 995.73Q1263.43 959.62 1280.86 959.62L1280.86 959.62Q1328.17 959.62 1328.17 1006.93L1328.17 1006.93Q1328.17 1028.10 1273.39 1075.42L1273.39 1075.42Q1217.36 1123.97 1197.44 1123.97L1197.44 1123.97ZM1638.21 2051.59Q1587.16 2051.59 1587.16 2000.54L1587.16 2000.54Q1587.16 1970.65 1622.02 1951.98L1622.02 1951.98Q1721.63 1900.93 1752.76 1824.98L1752.76 1824.98Q1770.19 1785.13 1775.17 1724.12L1775.17 1724.12L1756.49 1726.61Q1625.76 1751.51 1614.55 1751.51L1614.55 1751.51Q1568.48 1751.51 1568.48 1704.20L1568.48 1704.20Q1568.48 1661.87 1618.29 1654.39L1618.29 1654.39L1780.15 1630.74L1781.40 1490.04L1654.39 1490.04Q1605.83 1490.04 1605.83 1446.46L1605.83 1446.46Q1605.83 1424.05 1617.66 1413.46Q1629.49 1402.88 1654.39 1402.88L1654.39 1402.88L1782.64 1402.88L1781.40 1258.45L1631.98 1258.45Q1577.20 1258.45 1577.20 1213.62L1577.20 1213.62Q1577.20 1189.97 1590.27 1179.38Q1603.34 1168.80 1631.98 1168.80L1631.98 1168.80L1853.61 1168.80Q1881.01 1081.64 1904.66 982.03L1904.66 982.03Q1917.11 930.98 1960.69 930.98L1960.69 930.98Q2011.74 930.98 2011.74 973.32L2011.74 973.32Q2011.74 996.97 1934.55 1168.80L1934.55 1168.80L1986.84 1168.80Q2042.87 1168.80 2042.87 1214.87L2042.87 1214.87Q2042.87 1258.45 1986.84 1258.45L1986.84 1258.45L1872.29 1258.45L1872.29 1402.88L1971.90 1402.88Q2020.46 1402.88 2020.46 1446.46L2020.46 1446.46Q2020.46 1490.04 1971.90 1490.04L1971.90 1490.04L1872.29 1490.04L1873.54 1618.29L1981.86 1600.85Q2000.54 1598.36 2010.50 1610.19Q2020.46 1622.02 2020.46 1644.43L2020.46 1644.43Q2020.46 1675.56 1984.35 1685.52L1984.35 1685.52L1868.55 1706.69Q1857.35 1827.47 1827.47 1888.48L1827.47 1888.48Q1796.34 1951.98 1719.14 2011.74L1719.14 2011.74Q1665.60 2051.59 1638.21 2051.59L1638.21 2051.59ZM2005.52 1826.22Q1956.96 1826.22 1956.96 1775.17L1956.96 1775.17Q1956.96 1750.27 2060.30 1676.81L2060.30 1676.81Q2087.70 1656.88 2125.05 1619.53L2125.05 1619.53Q2146.22 1598.36 2167.38 1598.36L2167.38 1598.36Q2209.72 1598.36 2209.72 1638.21L2209.72 1638.21Q2209.72 1651.90 2187.93 1677.43Q2166.14 1702.95 2120.07 1745.29L2120.07 1745.29Q2031.67 1826.22 2005.52 1826.22L2005.52 1826.22ZM2106.37 2057.81Q2050.34 2057.81 2050.34 2008.01L2050.34 2008.01Q2050.34 1959.45 2106.37 1959.45L2106.37 1959.45L2173.61 1959.45Q2217.19 1959.45 2218.43 1913.38L2218.43 1913.38L2218.43 1125.22Q2218.43 1090.36 2181.08 1087.87L2181.08 1087.87L2082.71 1087.87Q2025.44 1087.87 2025.44 1039.31L2025.44 1039.31Q2025.44 991.99 2082.71 991.99L2082.71 991.99L2213.45 991.99Q2311.82 991.99 2311.82 1095.34L2311.82 1095.34L2311.82 1934.55Q2311.82 1999.29 2281.93 2029.80Q2252.05 2060.30 2188.55 2057.81L2188.55 2057.81L2106.37 2057.81ZM1726.61 1147.63Q1709.18 1147.63 1697.35 1135.80Q1685.52 1123.97 1676.81 1097.83L1676.81 1097.83L1636.96 995.73L1634.47 979.54Q1631.98 962.11 1643.81 952.77Q1655.64 943.43 1678.05 943.43L1678.05 943.43Q1709.18 943.43 1727.86 987.01L1727.86 987.01Q1771.44 1089.11 1771.44 1104.05L1771.44 1104.05Q1771.44 1147.63 1726.61 1147.63L1726.61 1147.63ZM2381.54 1788.87Q2335.47 1788.87 2335.47 1734.08L2335.47 1734.08Q2335.47 1711.67 2418.90 1648.17L2418.90 1648.17L2468.70 1602.10Q2497.34 1574.71 2516.02 1574.71L2516.02 1574.71Q2558.35 1574.71 2558.35 1619.53L2558.35 1619.53Q2558.35 1645.68 2482.40 1716.65L2482.40 1716.65Q2405.20 1788.87 2381.54 1788.87L2381.54 1788.87ZM2142.48 1457.67Q2113.84 1457.67 2080.22 1366.77L2080.22 1366.77L2051.59 1293.31L2049.10 1277.12Q2046.61 1260.94 2058.44 1251.60Q2070.26 1242.26 2092.68 1242.26L2092.68 1242.26Q2121.31 1242.26 2141.24 1290.82L2141.24 1290.82L2156.18 1321.95Q2191.04 1392.92 2191.04 1416.58L2191.04 1416.58Q2191.04 1457.67 2142.48 1457.67L2142.48 1457.67ZM2459.99 2057.81Q2401.46 2057.81 2401.46 2008.01L2401.46 2008.01Q2401.46 1958.20 2459.99 1958.20L2459.99 1958.20L2518.51 1958.20Q2562.08 1958.20 2564.58 1910.89L2564.58 1910.89L2564.58 1126.46Q2564.58 1106.54 2555.24 1097.83Q2545.90 1089.11 2527.22 1087.87L2527.22 1087.87L2389.01 1087.87Q2334.23 1087.87 2334.23 1039.31L2334.23 1039.31Q2334.23 991.99 2389.01 991.99L2389.01 991.99L2560.84 991.99Q2615.63 991.99 2640.53 1016.89Q2665.43 1041.80 2662.94 1096.58L2662.94 1096.58L2662.94 1934.55Q2662.94 1999.29 2633.06 2029.80Q2603.17 2060.30 2537.18 2057.81L2537.18 2057.81L2459.99 2057.81ZM2478.66 1448.95Q2447.53 1448.95 2430.10 1404.13L2430.10 1404.13L2396.48 1321.95L2385.28 1295.80Q2376.56 1272.14 2376.56 1269.65L2376.56 1269.65Q2376.56 1228.56 2423.88 1228.56L2423.88 1228.56Q2452.51 1228.56 2488.62 1305.76L2488.62 1305.76Q2524.73 1385.45 2524.73 1401.64L2524.73 1401.64Q2524.73 1448.95 2478.66 1448.95L2478.66 1448.95Z"/>
  </svg>