<svg xmlns="http://www.w3.org/2000/svg" viewBox="0 0 3000 3000" width="3000" height="3000">
    <path fill="#000000" d="M1474 1376L1474 1376Q1528 1360 1571 1382Q1614 1404 1614 1448L1614 1448Q1614 1472 1596 1508L1596 1508Q1584 1530 1576 1535Q1568 1540 1546 1540L1546 1540Q1510 1540 1450 1514L1450 1514Q1370 1480 1377 1441Q1384 1402 1474 1376ZM1936 1412L1936 1412Q1990 1384 2030 1367Q2070 1350 2076 1350L2076 1350Q2088 1350 2110 1365Q2132 1380 2138 1394L2138 1394Q2140 1414 2134 1451Q2128 1488 2118 1500L2118 1500Q2112 1510 2058 1518Q2004 1526 1964 1526L1964 1526Q1936 1526 1909 1511Q1882 1496 1882 1470L1882 1470Q1882 1448 1890 1440Q1898 1432 1936 1412ZM1882 1074L1882 1074Q1882 1042 1911 1022Q1940 1002 1965 994Q1990 986 2096 990L2096 990Q2166 990 2189 995Q2212 1000 2242 1016L2242 1016Q2284 1040 2307 1061Q2330 1082 2344 1082L2344 1082Q2388 1082 2354 1154L2354 1154Q2336 1194 2326 1278Q2316 1362 2320 1428L2320 1428Q2334 1632 2334 2022L2334 2022Q2334 2114 2326 2148Q2318 2182 2278 2258L2278 2258Q2248 2320 2211 2349Q2174 2378 2154 2396L2154 2396Q2134 2416 2125 2414Q2116 2412 2108 2391Q2100 2370 2068 2326Q2036 2282 2020 2268Q2004 2254 2004 2248Q2004 2242 1964 2196L1964 2196Q1922 2144 1928 2135Q1934 2126 2002 2144L2002 2144Q2104 2170 2134 2134L2134 2134Q2186 2076 2186 1872L2186 1872Q2186 1738 2172 1738L2172 1738Q2170 1738 2166 1746L2166 1746Q2160 1752 2084 1786Q2008 1820 1962 1852L1962 1852Q1926 1874 1902 1877Q1878 1880 1818 1866L1818 1866L1796 1860L1796 1934Q1796 2018 1760 2100L1760 2100L1734 2160Q1718 2204 1657 2258Q1596 2312 1592 2312Q1588 2312 1588 2296Q1588 2280 1575 2269Q1562 2258 1562 2243Q1562 2228 1549 2212Q1536 2196 1536 2182Q1536 2168 1523 2163Q1510 2158 1510 2132Q1510 2106 1496 2094L1496 2094Q1490 2090 1486 2079Q1482 2068 1483 2060Q1484 2052 1492 2052L1492 2052Q1498 2052 1536 2066L1536 2066Q1564 2076 1571 2075Q1578 2074 1594 2060L1594 2060Q1636 2016 1642 1790L1642 1790Q1644 1636 1638 1636L1638 1636Q1630 1636 1570 1720Q1510 1804 1510 1816L1510 1816Q1510 1826 1468 1881Q1426 1936 1398 1964L1398 1964Q1362 1998 1351 2004Q1340 2010 1306 2006L1306 2006Q1220 1998 1204 1954L1204 1954Q1196 1936 1201 1926Q1206 1916 1234 1894L1234 1894L1318 1814Q1444 1700 1506 1652L1506 1652Q1532 1632 1562 1606L1562 1606L1620 1552L1646 1528L1652 1360Q1660 1150 1652 1144L1652 1144Q1648 1140 1597 1152Q1546 1164 1536 1172L1536 1172Q1500 1200 1464 1184L1464 1184Q1440 1178 1440 1150L1440 1150Q1440 1132 1448 1124Q1456 1116 1494 1100L1494 1100Q1658 1026 1734 1076L1734 1076L1798 1116L1830 1138L1826 1242Q1822 1346 1817 1476Q1812 1606 1802 1660L1802 1660Q1790 1738 1808 1738L1808 1738Q1812 1738 1858 1709Q1904 1680 1913 1680Q1922 1680 1986 1644L1986 1644Q2076 1590 2152 1582L2152 1582L2172 1580L2172 1472Q2174 1362 2177 1221Q2180 1080 2171 1071Q2162 1062 2096 1058L2096 1058Q2002 1050 1950 1100L1950 1100Q1926 1124 1904 1116Q1882 1108 1882 1074ZM812 812L812 812Q822 796 868 814Q914 832 936 862L936 862Q954 882 959 882Q964 882 982 899Q1000 916 1000 974L1000 974Q1000 1022 991 1038Q982 1054 942 1058L942 1058Q908 1062 897 1052Q886 1042 854 978L854 978Q832 930 818 877Q804 824 812 812ZM1248 698L1248 698Q1266 690 1279 694Q1292 698 1332 722L1332 722Q1370 742 1377 750Q1384 758 1384 788L1384 788Q1384 820 1377 833Q1370 846 1334 880L1334 880Q1286 930 1220 986L1220 986Q1142 1054 1154 1060L1154 1060Q1162 1066 1208 1060L1208 1060Q1272 1056 1314 1048L1314 1048Q1350 1044 1368 1058Q1386 1072 1390 1112L1390 1112Q1400 1172 1372 1188Q1344 1204 1236 1196L1236 1196Q1176 1192 1118 1194Q1060 1196 1054 1206L1054 1206Q1052 1206 1053 1208Q1054 1210 1059 1214Q1064 1218 1068 1220L1068 1220Q1084 1228 1110 1256Q1136 1284 1142 1300Q1148 1316 1176 1316L1176 1316Q1202 1316 1212 1329Q1222 1342 1232 1392L1232 1392Q1240 1442 1232 1456Q1224 1470 1184 1476L1184 1476Q1156 1480 1149 1488Q1142 1496 1134 1530L1134 1530Q1120 1570 1127 1582Q1134 1594 1164 1584L1164 1584Q1196 1576 1285 1578Q1374 1580 1385 1590Q1396 1600 1402 1629Q1408 1658 1404 1680L1404 1680Q1402 1694 1395 1698Q1388 1702 1362 1704L1362 1704Q1326 1706 1256 1692L1256 1692Q1126 1668 1122 1716L1122 1716Q1120 1736 1108 1774L1108 1774Q1068 1902 1068 1922L1068 1922Q1068 1936 1043 1974Q1018 2012 1011 2038Q1004 2064 983 2092Q962 2120 962 2128Q962 2136 949 2141Q936 2146 936 2164L936 2164Q936 2186 843 2278Q750 2370 723 2376Q696 2382 690 2376Q684 2370 696 2350L696 2350Q710 2322 753 2259Q796 2196 806 2188L806 2188Q816 2182 816 2172Q816 2162 826 2148L826 2148Q840 2132 876 2050Q912 1968 922 1926L922 1926Q962 1776 962 1746L962 1746Q962 1720 930 1738L930 1738Q918 1744 908 1750L908 1750Q888 1772 840 1784Q792 1796 768 1818L768 1818Q726 1868 670 1834L670 1834Q620 1806 632 1768L632 1768Q634 1750 701 1720Q768 1690 838 1672L838 1672Q906 1652 940 1638L940 1638L972 1626L972 1566Q972 1514 960 1507Q948 1500 912 1528L912 1528Q872 1556 835 1546Q798 1536 778 1488L778 1488Q764 1458 772 1438Q780 1418 806 1418L806 1418Q832 1418 852 1404L852 1404Q890 1376 968 1352L968 1352Q986 1346 991 1338Q996 1330 1000 1302L1000 1302Q1006 1260 1012 1238L1012 1238Q1014 1224 1009 1223Q1004 1222 976 1224L976 1224Q934 1232 912 1243Q890 1254 881 1254Q872 1254 825 1285Q778 1316 758 1316L758 1316Q736 1316 715 1291Q694 1266 696 1242L696 1242Q698 1224 709 1215Q720 1206 764 1184L764 1184Q826 1152 912 1124Q998 1096 998 1089Q998 1082 1048 1015Q1098 948 1115 908Q1132 868 1141 855Q1150 842 1165 811Q1180 780 1207 742Q1234 704 1248 698Z"/>
  </svg>