<svg xmlns="http://www.w3.org/2000/svg" viewBox="0 0 3000 3000" width="3000" height="3000">
    <path fill="#000000" d="M1195.27 1077.97L1195.27 1067.78Q1196.55 1047.38 1210.57 1047.38L1210.57 1047.38Q1220.77 1047.38 1242.45 1057.58L1242.45 1057.58Q1297.27 1085.63 1297.27 1108.58L1297.27 1108.58Q1296.00 1114.95 1285.80 1130.25L1285.80 1130.25Q1216.95 1224.60 1106.02 1318.95L1106.02 1318.95Q1093.27 1330.43 1080.52 1340.63L1080.52 1340.63Q1098.38 1349.55 1136.63 1380.15L1136.63 1380.15Q1192.72 1427.33 1267.31 1490.44Q1341.90 1553.55 1341.90 1573.31Q1341.90 1593.08 1320.22 1615.39Q1298.55 1637.70 1288.35 1640.25Q1278.15 1642.80 1261.57 1623.68L1261.57 1623.68Q1185.07 1538.25 1037.17 1409.47L1037.17 1409.47Q1024.42 1396.72 1023.15 1387.80L1023.15 1387.80Q1023.15 1387.80 1023.15 1387.80L1023.15 1387.80Q982.35 1420.95 967.05 1428.60L967.05 1428.60Q967.05 1428.60 965.77 1428.60L965.77 1428.60Q983.62 1548.45 1021.87 1649.18L1021.87 1649.18Q1093.27 1837.88 1230.97 1922.03L1230.97 1922.03Q1256.47 1937.33 1284.52 1929.68L1284.52 1929.68Q1296.00 1927.13 1327.88 1845.53Q1359.75 1763.93 1375.69 1713.56Q1391.63 1663.20 1406.29 1663.20Q1420.95 1663.20 1418.40 1711.65L1418.40 1711.65L1417.13 1729.50Q1408.20 1812.38 1385.89 1900.99Q1363.57 1989.60 1345.09 2011.28Q1326.60 2032.95 1276.24 2032.95Q1225.88 2032.95 1176.79 2004.26Q1127.70 1975.58 1094.55 1941.15L1094.55 1941.15Q930.07 1772.85 889.27 1502.55L889.27 1502.55Q879.07 1434.97 868.87 1313.85L868.87 1313.85Q861.22 1228.43 861.22 1065.22L861.22 1065.22L418.80 1114.95Q404.77 1116.22 393.94 1117.50Q383.10 1118.78 364.61 1118.78Q346.12 1118.78 330.19 1102.20Q314.25 1085.63 307.24 1068.41Q300.22 1051.20 299.59 1049.29Q298.95 1047.38 298.95 1041Q298.95 1034.63 306.60 1034.63L306.60 1034.63Q339.75 1042.28 363.97 1042.28L363.97 1042.28L399.67 1042.28Q407.32 1042.28 417.52 1041L417.52 1041L882.90 987.45L903.30 986.17Q927.52 986.17 946.65 1000.84Q965.77 1015.50 965.14 1029.53Q964.50 1043.55 960.67 1053.75Q956.85 1063.95 954.30 1072.88L954.30 1072.88L951.75 1089.45Q950.47 1223.33 954.30 1302.38L954.30 1302.38Q955.57 1338.08 959.40 1371.22L959.40 1371.22Q960.67 1369.95 963.22 1367.40L963.22 1367.40Q1191.45 1145.55 1195.27 1077.97L1195.27 1077.97ZM1633.88 1376.33L1633.88 1376.33Q1669.58 1381.43 1682.33 1381.43L1682.33 1381.43L1793.25 1373.78L1793.25 1260.30L1691.25 1267.95Q1682.33 1269.22 1673.40 1269.22L1673.40 1269.22L1646.63 1269.22Q1619.85 1264.13 1604.55 1227.15L1604.55 1227.15Q1599.45 1211.85 1599.45 1204.20L1599.45 1204.20Q1599.45 1199.10 1607.10 1199.10L1607.10 1199.10L1614.75 1199.10Q1645.35 1202.93 1664.47 1202.93L1664.47 1202.93L1672.13 1202.93L1821.30 1192.72Q1835.33 1171.05 1878.67 1080.53Q1922.03 990 1922.03 954.30L1922.03 954.30L1922.03 947.92Q1922.03 926.25 1934.78 926.25L1934.78 926.25Q1938.60 926.25 1956.45 933.90L1956.45 933.90Q2008.73 956.85 2008.73 987.45L2008.73 987.45Q2008.73 1005.30 1963.46 1076.06Q1918.20 1146.83 1888.88 1187.63L1888.88 1187.63L1923.30 1185.08Q1948.80 1182.53 1960.28 1178.70Q1971.75 1174.88 1978.76 1174.88Q1985.78 1174.88 1999.80 1183.80L1999.80 1183.80Q2038.05 1208.03 2038.05 1224.60L2038.05 1224.60Q2038.05 1245 2011.28 1245L2011.28 1245L1869.75 1255.20L1867.20 1367.40L1902.90 1364.85Q1930.95 1363.58 1941.79 1359.11Q1952.63 1354.65 1961.55 1354.65Q1970.47 1354.65 1995.98 1373.14Q2021.47 1391.63 2021.47 1405.65L2021.47 1405.65Q2021.47 1423.50 1992.15 1426.05L1992.15 1426.05L1864.65 1434.97Q1863.38 1477.05 1855.72 1561.20L1855.72 1561.20Q1858.28 1561.20 1885.05 1553.55L1885.05 1553.55L1947.53 1535.70Q2035.50 1512.75 2048.89 1512.75Q2062.28 1512.75 2062.28 1521.04Q2062.28 1529.33 2045.70 1540.80L2045.70 1540.80Q2015.10 1558.65 1846.80 1622.40L1846.80 1622.40Q1816.20 1794.53 1726.95 1900.35L1726.95 1900.35Q1677.22 1959 1595.63 2013.83L1595.63 2013.83Q1582.88 2021.48 1573.31 2021.48Q1563.75 2021.48 1563.75 2012.55Q1563.75 2003.63 1577.78 1989.60L1577.78 1989.60Q1655.55 1913.10 1702.72 1833.41Q1749.90 1753.73 1770.30 1649.18L1770.30 1649.18Q1635.15 1697.63 1609.65 1697.63Q1584.15 1697.63 1569.49 1681.69Q1554.83 1665.75 1547.81 1649.18Q1540.80 1632.60 1540.80 1629.41Q1540.80 1626.23 1545.90 1626.23L1545.90 1626.23L1549.72 1626.23L1562.47 1627.50Q1608.38 1627.50 1781.78 1580.33L1781.78 1580.33Q1788.15 1533.15 1790.70 1440.08L1790.70 1440.08L1718.03 1445.18L1702.72 1446.45Q1667.03 1446.45 1647.90 1422.22Q1628.78 1398 1628.78 1387.16Q1628.78 1376.33 1633.88 1376.33ZM1735.88 1153.20L1735.88 1153.20Q1698.90 1085.63 1668.30 1046.74Q1637.70 1007.85 1637.70 998.29Q1637.70 988.73 1651.72 975.98Q1665.75 963.23 1676.59 963.23Q1687.42 963.23 1709.10 986.17Q1730.78 1009.13 1754.36 1041Q1777.95 1072.88 1795.16 1100.92Q1812.38 1128.97 1812.38 1138.54Q1812.38 1148.10 1796.44 1162.76Q1780.50 1177.43 1764.56 1177.43Q1748.63 1177.43 1735.88 1153.20ZM2642.40 1060.13L2638.57 1943.70L2641.13 1974.30Q2641.13 1993.43 2623.28 2014.46Q2605.43 2035.50 2588.21 2035.50Q2571 2035.50 2537.21 2015.74Q2503.43 1995.98 2445.41 1946.89Q2387.40 1897.80 2387.40 1879.95L2387.40 1879.95Q2387.40 1871.03 2396.96 1871.03Q2406.53 1871.03 2454.98 1897.16Q2503.43 1923.30 2564.63 1942.43L2564.63 1942.43L2567.18 1061.40L2438.40 1074.15Q2415.45 1076.70 2395.69 1076.70Q2375.93 1076.70 2365.09 1066.50Q2354.25 1056.30 2344.05 1037.81Q2333.85 1019.33 2333.85 1011.67Q2333.85 1004.02 2342.78 1004.02L2342.78 1004.02L2347.88 1004.02Q2388.68 1009.13 2395.05 1009.13L2395.05 1009.13L2405.25 1009.13Q2409.07 1009.13 2414.18 1007.85L2414.18 1007.85L2579.93 992.55Q2586.30 991.27 2591.40 991.27L2591.40 991.27L2599.05 991.27Q2628.38 991.27 2637.94 1008.49Q2647.50 1025.70 2647.50 1032.08L2647.50 1032.08L2642.40 1060.13ZM2309.63 1083.08L2308.35 1925.85L2310.90 1957.73Q2310.90 1978.13 2291.78 1999.16Q2272.65 2020.20 2254.80 2020.20L2254.80 2020.20Q2222.93 2020.20 2143.88 1953.90L2143.88 1953.90Q2067.38 1887.60 2067.38 1869.75L2067.38 1869.75Q2067.38 1860.83 2078.21 1860.83Q2089.05 1860.83 2126.66 1880.59Q2164.28 1900.35 2234.40 1927.13L2234.40 1927.13L2234.40 1085.63L2115.82 1098.38Q2090.32 1100.92 2071.84 1100.92Q2053.35 1100.92 2039.96 1088.81Q2026.58 1076.70 2018.93 1055.66Q2011.28 1034.63 2011.28 1033.35L2011.28 1033.35Q2011.28 1025.70 2017.01 1025.70Q2022.75 1025.70 2033.59 1028.89Q2044.43 1032.08 2059.72 1032.08L2059.72 1032.08L2081.40 1032.08Q2086.50 1032.08 2091.60 1030.80L2091.60 1030.80L2245.88 1014.23Q2252.25 1012.95 2257.35 1012.95L2257.35 1012.95L2265 1012.95Q2289.23 1012.95 2301.98 1028.89Q2314.73 1044.83 2314.73 1053.75L2314.73 1053.75L2309.63 1083.08ZM2465.18 1404.38L2465.18 1404.38Q2420.55 1325.33 2361.90 1252.65L2361.90 1252.65Q2350.43 1238.63 2350.43 1228.43Q2350.43 1218.22 2365.09 1206.11Q2379.75 1194 2388.68 1194Q2397.60 1194 2415.45 1211.85Q2433.30 1229.70 2453.70 1257.11Q2474.10 1284.53 2493.86 1312.58Q2513.63 1340.63 2525.74 1361.66Q2537.85 1382.70 2537.85 1393.54Q2537.85 1404.38 2518.73 1415.85Q2499.60 1427.33 2489.40 1427.33Q2479.20 1427.33 2465.18 1404.38ZM2171.93 1332.97Q2188.50 1359.75 2199.34 1380.79Q2210.18 1401.83 2210.18 1412.03Q2210.18 1422.22 2191.05 1434.97Q2171.93 1447.72 2160.45 1447.72Q2148.97 1447.72 2125.39 1398Q2101.80 1348.28 2070.56 1306.84Q2039.33 1265.40 2039.33 1255.84Q2039.33 1246.28 2052.71 1234.80Q2066.10 1223.33 2076.30 1223.33Q2086.50 1223.33 2102.44 1239.90Q2118.38 1256.47 2136.86 1281.34Q2155.35 1306.20 2171.93 1332.97ZM2388.68 1624.95L2388.68 1624.95Q2458.80 1548.45 2513.63 1469.40L2513.63 1469.40Q2530.20 1445.18 2542.95 1445.18L2542.95 1445.18Q2550.60 1445.18 2550.60 1461.75Q2550.60 1478.33 2508.53 1558.01Q2466.45 1637.70 2442.86 1675.31Q2419.28 1712.93 2395.05 1712.93Q2370.82 1712.93 2345.32 1696.35Q2319.82 1679.78 2319.82 1674.68Q2319.82 1669.58 2344.05 1657.46Q2368.28 1645.35 2388.68 1624.95ZM2211.45 1477.05L2211.45 1477.05Q2220.38 1477.05 2220.38 1494.90Q2220.38 1512.75 2164.28 1595.63Q2108.18 1678.50 2076.30 1720.58Q2044.43 1762.65 2026.58 1762.65L2026.58 1762.65Q1997.25 1762.65 1957.72 1732.05L1957.72 1732.05Q1947.53 1725.68 1947.53 1718.03Q1947.53 1710.38 1961.55 1704.64Q1975.58 1698.90 1999.80 1683.60L1999.80 1683.60Q2058.45 1647.90 2180.85 1498.72L2180.85 1498.72Q2198.70 1477.05 2211.45 1477.05Z"/>
  </svg>