<svg xmlns="http://www.w3.org/2000/svg" viewBox="0 0 3000 3000" width="3000" height="3000">
    <path fill="#000000" d="M1304 878L1304 820L1746 820L1746 878L1304 878ZM1712 2384L1712 820L1766 820L1766 2382Q1766 2426 1753 2448Q1740 2470 1710 2478L1710 2478Q1678 2486 1610 2489Q1542 2492 1434 2490L1434 2490Q1432 2478 1425 2459Q1418 2440 1408 2426L1408 2426Q1502 2428 1575 2429Q1648 2430 1670 2428L1670 2428Q1692 2426 1702 2417Q1712 2408 1712 2384L1712 2384ZM1854 878L1854 820L2304 820L2304 878L1854 878ZM2276 2392L2276 820L2334 820L2334 2390Q2334 2434 2320 2456Q2306 2478 2272 2488L2272 2488Q2240 2496 2171 2498Q2102 2500 1990 2500L1990 2500Q1988 2486 1981 2468Q1974 2450 1966 2436L1966 2436Q2062 2438 2137 2438Q2212 2438 2234 2436L2234 2436Q2256 2434 2266 2425Q2276 2416 2276 2392L2276 2392ZM1372 1172L1372 1172L1424 1154Q1456 1218 1488 1291Q1520 1364 1547 1430Q1574 1496 1590 1542L1590 1542L1540 1570Q1524 1520 1496 1452Q1468 1384 1436 1310Q1404 1236 1372 1172ZM1878 1164L1878 1164L1928 1146Q1960 1208 1994 1279Q2028 1350 2058 1414Q2088 1478 2106 1524L2106 1524L2052 1554Q2036 1504 2007 1437Q1978 1370 1944 1298Q1910 1226 1878 1164ZM1878 2070L1838 2026Q1922 1954 2043 1844Q2164 1734 2286 1618L2286 1618L2312 1666Q2200 1772 2086 1878Q1972 1984 1878 2070L1878 2070ZM1316 2116L1276 2074Q1364 2004 1487 1899Q1610 1794 1738 1684L1738 1684L1758 1732Q1646 1834 1530 1936Q1414 2038 1316 2116L1316 2116ZM590 1164L590 1106L1288 1106L1288 1164L590 1164ZM622 1548L622 1490L1276 1490L1276 1548L622 1548ZM662 744L662 744L720 730Q754 804 786 888Q818 972 834 1034L834 1034L770 1054Q756 992 724 905Q692 818 662 744ZM1186 714L1186 714L1250 736Q1206 834 1152 949Q1098 1064 1048 1144L1048 1144L996 1126Q1028 1072 1064 999Q1100 926 1133 850Q1166 774 1186 714ZM920 1684L920 1122L978 1122L978 1684Q978 1782 968 1894Q958 2006 922 2119Q886 2232 811 2335Q736 2438 606 2518L606 2518Q602 2510 595 2502Q588 2494 582 2486Q576 2478 570 2472L570 2472Q694 2400 765 2303Q836 2206 869 2098Q902 1990 911 1883Q920 1776 920 1684L920 1684ZM576 1960L576 1902L1274 1902L1274 1960L576 1960Z"/>
  </svg>