<svg xmlns="http://www.w3.org/2000/svg" viewBox="0 0 3000 3000" width="3000" height="3000">
    <path fill="#000000" d="M327.00 1123.88L327.00 1085.63L1029.52 1085.63L1029.52 1123.88L327.00 1123.88ZM1004.02 1085.63L1004.02 1085.63L1041 1085.63Q1046.10 1293.45 1060.76 1471.31Q1075.42 1649.18 1107.30 1781.78Q1139.17 1914.38 1194 1988.33Q1248.82 2062.28 1334.25 2062.28L1334.25 2062.28Q1368.67 2061 1382.06 2004.26Q1395.45 1947.53 1400.55 1835.33L1400.55 1835.33Q1406.92 1840.43 1417.76 1844.89Q1428.60 1849.35 1434.97 1851.90L1434.97 1851.90Q1431.15 1944.98 1421.59 1998.53Q1412.02 2052.08 1390.99 2074.39Q1369.95 2096.70 1331.70 2097.97L1331.70 2097.97Q1234.80 2097.97 1173.60 2028.49Q1112.40 1959 1077.34 1827.68Q1042.27 1696.35 1026.34 1509.56Q1010.40 1322.78 1004.02 1085.63ZM1349.55 1200.38L1349.55 1200.38L1387.80 1219.50Q1341.90 1265.40 1285.80 1316.40Q1229.70 1367.40 1172.32 1414.58Q1114.95 1461.75 1063.95 1497.45L1063.95 1497.45L1034.63 1478.33Q1085.63 1442.63 1143.64 1393.54Q1201.65 1344.45 1256.47 1293.45Q1311.30 1242.45 1349.55 1200.38ZM1029.52 1485.97L1029.52 1485.97L1053.75 1460.47Q1116.22 1493.63 1183.16 1535.06Q1250.10 1576.50 1308.11 1618.58Q1366.13 1660.65 1403.10 1695.08L1403.10 1695.08L1378.88 1724.40Q1341.90 1688.70 1283.89 1646.63Q1225.88 1604.55 1158.94 1561.84Q1092 1519.13 1029.52 1485.97ZM2012.55 1103.47L2012.55 1066.50L2294.32 1066.50L2294.32 1103.47L2012.55 1103.47ZM2272.65 2063.55L2272.65 1066.50L2307.07 1066.50L2307.07 2062.28Q2307.07 2090.33 2298.79 2104.35Q2290.50 2118.38 2271.38 2123.47L2271.38 2123.47Q2250.97 2128.58 2207.63 2130.49Q2164.28 2132.40 2095.43 2131.13L2095.43 2131.13Q2094.15 2123.47 2089.69 2111.36Q2085.22 2099.25 2078.85 2090.33L2078.85 2090.33Q2138.78 2091.60 2185.31 2092.24Q2231.85 2092.88 2245.88 2091.60L2245.88 2091.60Q2259.90 2090.33 2266.28 2084.59Q2272.65 2078.85 2272.65 2063.55L2272.65 2063.55ZM2363.18 1103.47L2363.18 1066.50L2650.05 1066.50L2650.05 1103.47L2363.18 1103.47ZM2632.20 2068.65L2632.20 1066.50L2669.18 1066.50L2669.18 2067.38Q2669.18 2095.43 2660.25 2109.45Q2651.32 2123.47 2629.65 2129.85L2629.65 2129.85Q2609.25 2134.95 2565.26 2136.22Q2521.28 2137.50 2449.88 2137.50L2449.88 2137.50Q2448.60 2128.58 2444.14 2117.10Q2439.68 2105.63 2434.57 2096.70L2434.57 2096.70Q2495.78 2097.97 2543.59 2097.97Q2591.40 2097.97 2605.43 2096.70L2605.43 2096.70Q2619.45 2095.43 2625.82 2089.69Q2632.20 2083.95 2632.20 2068.65L2632.20 2068.65ZM2055.90 1290.90L2055.90 1290.90L2089.05 1279.42Q2109.45 1320.22 2129.85 1366.76Q2150.25 1413.30 2167.46 1455.38Q2184.68 1497.45 2194.88 1526.78L2194.88 1526.78L2163 1544.63Q2152.80 1512.75 2134.95 1469.40Q2117.10 1426.05 2096.70 1378.88Q2076.30 1331.70 2055.90 1290.90ZM2378.48 1285.80L2378.48 1285.80L2410.35 1274.33Q2430.75 1313.85 2452.43 1359.11Q2474.10 1404.38 2493.23 1445.18Q2512.35 1485.97 2523.83 1515.30L2523.83 1515.30L2489.40 1534.43Q2479.20 1502.55 2460.71 1459.84Q2442.23 1417.13 2420.55 1371.22Q2398.88 1325.33 2378.48 1285.80ZM2378.48 1863.38L2352.98 1835.33Q2406.53 1789.43 2483.66 1719.30Q2560.80 1649.18 2638.57 1575.22L2638.57 1575.22L2655.15 1605.83Q2583.75 1673.40 2511.08 1740.98Q2438.40 1808.55 2378.48 1863.38L2378.48 1863.38ZM2020.20 1892.70L1994.70 1865.93Q2050.80 1821.30 2129.21 1754.36Q2207.63 1687.43 2289.23 1617.30L2289.23 1617.30L2301.98 1647.90Q2230.57 1712.93 2156.63 1777.95Q2082.68 1842.98 2020.20 1892.70L2020.20 1892.70ZM1557.38 1285.80L1557.38 1248.83L2002.35 1248.83L2002.35 1285.80L1557.38 1285.80ZM1577.78 1530.60L1577.78 1493.63L1994.70 1493.63L1994.70 1530.60L1577.78 1530.60ZM1603.28 1018.05L1603.28 1018.05L1640.25 1009.13Q1661.92 1056.30 1682.33 1109.85Q1702.72 1163.40 1712.92 1202.92L1712.92 1202.92L1672.13 1215.67Q1663.20 1176.15 1642.80 1120.69Q1622.40 1065.22 1603.28 1018.05ZM1937.33 998.92L1937.33 998.92L1978.13 1012.95Q1950.08 1075.42 1915.65 1148.74Q1881.22 1222.05 1849.35 1273.05L1849.35 1273.05L1816.20 1261.58Q1836.60 1227.15 1859.55 1180.61Q1882.50 1134.08 1903.54 1085.63Q1924.58 1037.17 1937.33 998.92ZM1767.75 1617.30L1767.75 1259.03L1804.72 1259.03L1804.72 1617.30Q1804.72 1679.78 1798.35 1751.18Q1791.97 1822.58 1769.03 1894.61Q1746.08 1966.65 1698.26 2032.31Q1650.45 2097.97 1567.58 2148.97L1567.58 2148.97Q1565.03 2143.88 1560.56 2138.78Q1556.10 2133.68 1552.28 2128.58Q1548.45 2123.47 1544.63 2119.65L1544.63 2119.65Q1623.67 2073.75 1668.94 2011.91Q1714.20 1950.08 1735.24 1881.23Q1756.28 1812.38 1762.01 1744.16Q1767.75 1675.95 1767.75 1617.30L1767.75 1617.30ZM1548.45 1793.25L1548.45 1756.28L1993.43 1756.28L1993.43 1793.25L1548.45 1793.25Z"/>
  </svg>